<svg width="308" height="77" viewBox="0 0 308 77" fill="none" xmlns="http://www.w3.org/2000/svg">
<g filter="url(#filter0_b_2675_1024)">
<rect width="307.376" height="76.6543" rx="30.3581" fill="#FFB23E"/>
<path d="M125.315 3.41028H165.465L89.0502 72.475H46.3096L125.315 3.41028Z" fill="#F5EA83"/>
<path d="M188.308 3.41028H228.458L152.043 72.475H109.302L188.308 3.41028Z" fill="#F5EA83"/>
<path d="M113.003 48.5288V29.4032H122.784C125.298 29.4032 127.174 29.8677 128.413 30.7966C129.651 31.7074 130.271 32.9096 130.271 34.4032C130.271 35.3868 130.006 36.252 129.478 36.9988C128.968 37.7274 128.24 38.3103 127.292 38.7474C126.363 39.1664 125.252 39.3758 123.959 39.3758L124.506 38.0644C125.853 38.0644 127.028 38.2738 128.03 38.6928C129.032 39.0935 129.806 39.6855 130.353 40.4687C130.917 41.2338 131.2 42.1718 131.2 43.2829C131.2 44.9405 130.526 46.2337 129.178 47.1627C127.848 48.0734 125.899 48.5288 123.331 48.5288H113.003ZM118.358 44.6217H122.894C123.823 44.6217 124.524 44.4669 124.997 44.1572C125.489 43.8294 125.735 43.3376 125.735 42.6818C125.735 42.0261 125.489 41.5434 124.997 41.2338C124.524 40.9059 123.823 40.7419 122.894 40.7419H117.976V36.9988H122.074C122.985 36.9988 123.668 36.844 124.123 36.5343C124.578 36.2247 124.806 35.7602 124.806 35.1409C124.806 34.5216 124.578 34.0662 124.123 33.7748C123.668 33.4651 122.985 33.3103 122.074 33.3103H118.358V44.6217ZM131.706 48.5288L140.149 29.4032H145.477L153.947 48.5288H148.318L141.706 32.0535H143.838L137.226 48.5288H131.706ZM136.324 44.813L137.717 40.8239H147.062L148.455 44.813H136.324ZM164.749 48.9113C163.237 48.9113 161.835 48.6745 160.542 48.2009C159.267 47.7091 158.155 47.017 157.208 46.1244C156.279 45.2319 155.551 44.1846 155.022 42.9824C154.494 41.762 154.23 40.4232 154.23 38.966C154.23 37.5088 154.494 36.1791 155.022 34.9769C155.551 33.7565 156.279 32.7001 157.208 31.8076C158.155 30.915 159.267 30.232 160.542 29.7584C161.835 29.2666 163.237 29.0207 164.749 29.0207C166.516 29.0207 168.092 29.3303 169.476 29.9496C170.879 30.5689 172.044 31.4615 172.973 32.6272L169.531 35.742C168.911 35.0134 168.228 34.4578 167.481 34.0753C166.753 33.6928 165.933 33.5015 165.022 33.5015C164.239 33.5015 163.52 33.629 162.864 33.884C162.208 34.1391 161.644 34.5125 161.17 35.0043C160.715 35.4778 160.35 36.0516 160.077 36.7256C159.822 37.3995 159.695 38.1463 159.695 38.966C159.695 39.7857 159.822 40.5325 160.077 41.2064C160.35 41.8804 160.715 42.4633 161.17 42.9551C161.644 43.4286 162.208 43.7929 162.864 44.0479C163.52 44.303 164.239 44.4305 165.022 44.4305C165.933 44.4305 166.753 44.2392 167.481 43.8567C168.228 43.4742 168.911 42.9186 169.531 42.19L172.973 45.3048C172.044 46.4523 170.879 47.3448 169.476 47.9824C168.092 48.6017 166.516 48.9113 164.749 48.9113ZM180.221 44.2938L179.921 38.2283L188.145 29.4032H194.101L185.904 38.2829L182.899 41.425L180.221 44.2938ZM175.385 48.5288V29.4032H180.74V48.5288H175.385ZM188.227 48.5288L181.997 40.6327L185.522 36.8622L194.511 48.5288H188.227Z" fill="#A61E00"/>
</g>
<defs>
<filter id="filter0_b_2675_1024" x="-4.99083" y="-4.99083" width="317.358" height="86.6359" filterUnits="userSpaceOnUse" color-interpolation-filters="sRGB">
<feFlood flood-opacity="0" result="BackgroundImageFix"/>
<feGaussianBlur in="BackgroundImageFix" stdDeviation="2.49541"/>
<feComposite in2="SourceAlpha" operator="in" result="effect1_backgroundBlur_2675_1024"/>
<feBlend mode="normal" in="SourceGraphic" in2="effect1_backgroundBlur_2675_1024" result="shape"/>
</filter>
</defs>
</svg>
