<svg width="1920" height="1080" fill="none" xmlns="http://www.w3.org/2000/svg">
<g clip-path="url(#clip0_2670_1918)">
<rect width="1920" height="1080" fill="#505370"/>
<path d="M2451.23 130.065H-412.637V957.855H-289.804V457.41C-289.804 361.373 -198.232 283.49 -19.6872 283.49H369.426C547.747 283.49 641.805 361.373 641.805 457.41V957.855H1297.41V457.41C1297.41 361.373 1441.94 283.49 1620.49 283.49H2005.54C2183.86 283.49 2328.62 361.373 2328.62 457.41V957.855H2451.46V130.065H2451.23Z" fill="#A977AB" fill-opacity="0.4"/>
<path d="M2048 963H-68V1078H2048V963Z" fill="#746287" fill-opacity="0.61"/>
<path d="M374.687 723.076C372.958 723.076 371.544 724.024 370.758 725.446H267.035C266.249 724.024 264.835 723.076 263.106 723.076C260.591 723.076 258.548 725.129 258.548 727.657C258.548 730.185 260.591 732.24 263.106 732.24C264.835 732.24 266.249 731.292 267.035 729.87H270.335V734.925V736.347V918.358L318.896 890.077L367.457 918.358V736.347V734.925V729.87H370.758C371.544 731.292 372.958 732.24 374.687 732.24C377.201 732.24 379.244 730.185 379.244 727.657C379.244 725.129 377.201 723.076 374.687 723.076ZM362.428 735.083H275.207V730.027H362.428V735.083Z" fill="#746287"/>
<path d="M334.13 829.723H326.272L326.743 776.478L319.514 762.417L311.971 776.32L311.499 829.565H303.484C301.598 829.565 300.027 831.145 300.027 833.041C300.027 834.937 301.598 836.517 303.484 836.517H313.071L312.914 853.738C310.713 856.108 310.242 859.742 311.814 862.586C313.857 866.378 318.571 867.642 322.186 865.588C325.958 863.534 327.215 858.794 325.172 855.16C324.858 854.686 324.543 854.054 324.072 853.738V851.684V850.104V847.734V846.154V843.784V842.204V839.677V838.097V836.517H333.658C335.544 836.517 337.116 834.937 337.116 833.041C337.587 831.303 336.016 829.723 334.13 829.723Z" fill="#B59FB0"/>
<path d="M1672.09 703.235C1670.36 703.235 1668.94 704.183 1668.16 705.605H1564.43C1563.65 704.183 1562.23 703.235 1560.5 703.235C1557.99 703.235 1555.95 705.289 1555.95 707.817C1555.95 710.345 1557.99 712.399 1560.5 712.399C1562.23 712.399 1563.65 711.451 1564.43 710.029H1567.73V715.085V716.507V898.518L1616.3 870.236L1664.86 898.518V716.507V715.085V710.029H1668.16C1668.94 711.451 1670.36 712.399 1672.09 712.399C1674.6 712.399 1676.64 710.345 1676.64 707.817C1676.64 705.289 1674.6 703.235 1672.09 703.235ZM1659.83 715.243H1572.61V710.187H1659.83V715.243Z" fill="#746287"/>
<path d="M1631.52 809.882H1623.66L1624.13 756.638L1616.9 742.576L1609.36 756.48L1608.89 809.724H1600.87C1598.99 809.724 1597.42 811.304 1597.42 813.2C1597.42 815.096 1598.99 816.676 1600.87 816.676H1610.46L1610.3 833.898C1608.1 836.267 1607.63 839.902 1609.2 842.745C1611.25 846.537 1615.96 847.801 1619.58 845.747C1623.35 843.693 1624.61 838.954 1622.56 835.32C1622.25 834.846 1621.93 834.214 1621.46 833.898V831.844V830.264V827.894V826.314V823.944V822.364V819.836V818.256V816.676H1631.05C1632.93 816.676 1634.51 815.096 1634.51 813.2C1634.98 811.462 1633.41 809.882 1631.52 809.882Z" fill="#B59FB0"/>
<path d="M167.584 143.101H30.3477C26.6717 143.101 23.6084 140.021 23.6084 136.325V74.4236C23.6084 70.728 26.6717 67.6484 30.3477 67.6484H167.584C171.26 67.6484 174.324 70.728 174.324 74.4236V136.325C174.324 140.021 171.26 143.101 167.584 143.101Z" fill="#C3ABC3"/>
<path d="M321.055 143.101H183.819C180.143 143.101 177.08 140.021 177.08 136.325V74.4236C177.08 70.728 180.143 67.6484 183.819 67.6484H321.055C324.731 67.6484 327.795 70.728 327.795 74.4236V136.325C327.795 140.021 324.885 143.101 321.055 143.101Z" fill="#C3ABC3"/>
<path d="M474.518 143.101H337.281C333.605 143.101 330.542 140.021 330.542 136.325V74.4236C330.542 70.728 333.605 67.6484 337.281 67.6484H474.518C478.194 67.6484 481.257 70.728 481.257 74.4236V136.325C481.41 140.021 478.347 143.101 474.518 143.101Z" fill="#C3ABC3"/>
<path d="M628.008 143.101H490.771C487.095 143.101 484.032 140.021 484.032 136.325V74.4236C484.032 70.728 487.095 67.6484 490.771 67.6484H628.008C631.684 67.6484 634.747 70.728 634.747 74.4236V136.325C634.9 140.021 631.837 143.101 628.008 143.101Z" fill="#C3ABC3"/>
<path d="M781.636 143.101H644.399C640.723 143.101 637.66 140.021 637.66 136.325V74.4236C637.66 70.728 640.723 67.6484 644.399 67.6484H781.636C785.312 67.6484 788.375 70.728 788.375 74.4236V136.325C788.375 140.021 785.312 143.101 781.636 143.101Z" fill="#C3ABC3"/>
<path d="M935.098 143.101H797.861C794.185 143.101 791.122 140.021 791.122 136.325V74.4236C791.122 70.728 794.185 67.6484 797.861 67.6484H935.098C938.774 67.6484 941.837 70.728 941.837 74.4236V136.325C941.837 140.021 938.774 143.101 935.098 143.101Z" fill="#C3ABC3"/>
<path d="M1088.57 143.101H951.333C947.657 143.101 944.594 140.021 944.594 136.325V74.4236C944.594 70.728 947.657 67.6484 951.333 67.6484H1088.57C1092.25 67.6484 1095.31 70.728 1095.31 74.4236V136.325C1095.31 140.021 1092.25 143.101 1088.57 143.101Z" fill="#C3ABC3"/>
<path d="M1242.03 143.101H1104.79C1101.12 143.101 1098.06 140.021 1098.06 136.325V74.4236C1098.06 70.728 1101.12 67.6484 1104.79 67.6484H1242.03C1245.71 67.6484 1248.77 70.728 1248.77 74.4236V136.325C1248.77 140.021 1245.86 143.101 1242.03 143.101Z" fill="#C3ABC3"/>
<path d="M1395.52 143.101H1258.28C1254.61 143.101 1251.55 140.021 1251.55 136.325V74.4236C1251.55 70.728 1254.61 67.6484 1258.28 67.6484H1395.52C1399.2 67.6484 1402.26 70.728 1402.26 74.4236V136.325C1402.41 140.021 1399.35 143.101 1395.52 143.101Z" fill="#C3ABC3"/>
<path d="M1548.98 143.101H1411.75C1408.07 143.101 1405.01 140.021 1405.01 136.325V74.4236C1405.01 70.728 1408.07 67.6484 1411.75 67.6484H1548.98C1552.66 67.6484 1555.72 70.728 1555.72 74.4236V136.325C1555.88 140.021 1552.81 143.101 1548.98 143.101Z" fill="#C3ABC3"/>
<path d="M1702.62 143.101H1565.38C1561.71 143.101 1558.65 140.021 1558.65 136.325V74.4236C1558.65 70.728 1561.71 67.6484 1565.38 67.6484H1702.62C1706.3 67.6484 1709.36 70.728 1709.36 74.4236V136.325C1709.36 140.021 1706.3 143.101 1702.62 143.101Z" fill="#C3ABC3"/>
<path d="M1856.08 143.101H1718.85C1715.17 143.101 1712.11 140.021 1712.11 136.325V74.4236C1712.11 70.728 1715.17 67.6484 1718.85 67.6484H1856.08C1859.76 67.6484 1862.82 70.728 1862.82 74.4236V136.325C1862.82 140.021 1859.76 143.101 1856.08 143.101Z" fill="#C3ABC3"/>
<path d="M2009.57 143.101H1872.34C1868.66 143.101 1865.6 140.021 1865.6 136.325V74.4236C1865.6 70.728 1868.66 67.6484 1872.34 67.6484H2009.57C2013.25 67.6484 2016.31 70.728 2016.31 74.4236V136.325C2016.31 140.021 2013.25 143.101 2009.57 143.101Z" fill="#C3ABC3"/>
<path d="M167.584 143.452H30.3477C26.6717 143.452 23.6084 140.372 23.6084 136.677V74.7751C23.6084 71.0795 26.6717 68 30.3477 68H167.584C171.26 68 174.324 71.0795 174.324 74.7751V136.677C174.324 140.372 171.26 143.452 167.584 143.452Z" fill="#C3ABC3"/>
<path d="M321.055 143.452H183.819C180.143 143.452 177.08 140.372 177.08 136.677V74.7751C177.08 71.0795 180.143 68 183.819 68H321.055C324.731 68 327.795 71.0795 327.795 74.7751V136.677C327.795 140.372 324.885 143.452 321.055 143.452Z" fill="#C3ABC3"/>
<path d="M474.518 143.452H337.281C333.605 143.452 330.542 140.372 330.542 136.677V74.7751C330.542 71.0795 333.605 68 337.281 68H474.518C478.194 68 481.257 71.0795 481.257 74.7751V136.677C481.41 140.372 478.347 143.452 474.518 143.452Z" fill="#C3ABC3"/>
<path d="M628.008 143.452H490.771C487.095 143.452 484.032 140.372 484.032 136.677V74.7751C484.032 71.0795 487.095 68 490.771 68H628.008C631.684 68 634.747 71.0795 634.747 74.7751V136.677C634.9 140.372 631.837 143.452 628.008 143.452Z" fill="#C3ABC3"/>
<path d="M781.636 143.452H644.399C640.723 143.452 637.66 140.372 637.66 136.677V74.7751C637.66 71.0795 640.723 68 644.399 68H781.636C785.312 68 788.375 71.0795 788.375 74.7751V136.677C788.375 140.372 785.312 143.452 781.636 143.452Z" fill="#C3ABC3"/>
<path d="M935.098 143.452H797.861C794.185 143.452 791.122 140.372 791.122 136.677V74.7751C791.122 71.0795 794.185 68 797.861 68H935.098C938.774 68 941.837 71.0795 941.837 74.7751V136.677C941.837 140.372 938.774 143.452 935.098 143.452Z" fill="#C3ABC3"/>
<path d="M1088.57 143.452H951.333C947.657 143.452 944.594 140.372 944.594 136.677V74.7751C944.594 71.0795 947.657 68 951.333 68H1088.57C1092.25 68 1095.31 71.0795 1095.31 74.7751V136.677C1095.31 140.372 1092.25 143.452 1088.57 143.452Z" fill="#C3ABC3"/>
<path d="M1242.03 143.452H1104.79C1101.12 143.452 1098.06 140.372 1098.06 136.677V74.7751C1098.06 71.0795 1101.12 68 1104.79 68H1242.03C1245.71 68 1248.77 71.0795 1248.77 74.7751V136.677C1248.77 140.372 1245.86 143.452 1242.03 143.452Z" fill="#C3ABC3"/>
<path d="M1395.52 143.452H1258.28C1254.61 143.452 1251.55 140.372 1251.55 136.677V74.7751C1251.55 71.0795 1254.61 68 1258.28 68H1395.52C1399.2 68 1402.26 71.0795 1402.26 74.7751V136.677C1402.41 140.372 1399.35 143.452 1395.52 143.452Z" fill="#C3ABC3"/>
<path d="M1548.98 143.452H1411.75C1408.07 143.452 1405.01 140.372 1405.01 136.677V74.7751C1405.01 71.0795 1408.07 68 1411.75 68H1548.98C1552.66 68 1555.72 71.0795 1555.72 74.7751V136.677C1555.88 140.372 1552.81 143.452 1548.98 143.452Z" fill="#C3ABC3"/>
<path d="M1702.62 143.452H1565.38C1561.71 143.452 1558.65 140.372 1558.65 136.677V74.7751C1558.65 71.0795 1561.71 68 1565.38 68H1702.62C1706.3 68 1709.36 71.0795 1709.36 74.7751V136.677C1709.36 140.372 1706.3 143.452 1702.62 143.452Z" fill="#C3ABC3"/>
<path d="M1856.08 143.452H1718.85C1715.17 143.452 1712.11 140.372 1712.11 136.677V74.7751C1712.11 71.0795 1715.17 68 1718.85 68H1856.08C1859.76 68 1862.82 71.0795 1862.82 74.7751V136.677C1862.82 140.372 1859.76 143.452 1856.08 143.452Z" fill="#C3ABC3"/>
<path d="M2009.57 143.452H1872.34C1868.66 143.452 1865.6 140.372 1865.6 136.677V74.7751C1865.6 71.0795 1868.66 68 1872.34 68H2009.57C2013.25 68 2016.31 71.0795 2016.31 74.7751V136.677C2016.31 140.372 2013.25 143.452 2009.57 143.452Z" fill="#C3ABC3"/>
<path d="M13.9758 143.452H-123.261C-126.937 143.452 -130 140.372 -130 136.677V74.7751C-130 71.0795 -126.937 68 -123.261 68H13.9758C17.6518 68 20.7151 71.0795 20.7151 74.7751V136.677C20.7151 140.372 17.6518 143.452 13.9758 143.452Z" fill="#C3ABC3"/>
<path d="M357.041 60.8127H246.432C243.469 60.8127 241 58.3306 241 55.352V5.46077C241 2.48218 243.469 0 246.432 0H357.041C360.004 0 362.473 2.48218 362.473 5.46077V55.352C362.597 58.4547 360.128 60.8127 357.041 60.8127Z" fill="#C3ABC3"/>
<path d="M108.041 60.8127H-2.56828C-5.53104 60.8127 -8 58.3306 -8 55.352V5.46077C-8 2.48218 -5.53104 0 -2.56828 0H108.041C111.004 0 113.473 2.48218 113.473 5.46077V55.352C113.597 58.4547 111.128 60.8127 108.041 60.8127Z" fill="#C3ABC3"/>
<path d="M606.041 62.0689H495.432C492.469 62.0689 490 59.5867 490 56.6081V6.71693C490 3.73835 492.469 1.25616 495.432 1.25616H606.041C609.004 1.25616 611.473 3.73835 611.473 6.71693V56.6081C611.473 59.7108 609.004 62.0689 606.041 62.0689Z" fill="#C3ABC3"/>
<path d="M855.041 62.0689H744.432C741.469 62.0689 739 59.5867 739 56.6081V6.71693C739 3.73835 741.469 1.25616 744.432 1.25616H855.041C858.004 1.25616 860.473 3.73835 860.473 6.71693V56.6081C860.473 59.7108 858.004 62.0689 855.041 62.0689Z" fill="#C3ABC3"/>
<path d="M1104.04 62.0689H993.432C990.469 62.0689 988 59.5867 988 56.6081V6.71693C988 3.73835 990.469 1.25616 993.432 1.25616H1104.04C1107 1.25616 1109.47 3.73835 1109.47 6.71693V56.6081C1109.47 59.7108 1107 62.0689 1104.04 62.0689Z" fill="#C3ABC3"/>
<path d="M1353.04 62.0689H1242.43C1239.47 62.0689 1237 59.5867 1237 56.6081V6.71693C1237 3.73835 1239.47 1.25616 1242.43 1.25616H1353.04C1356 1.25616 1358.47 3.73835 1358.47 6.71693V56.6081C1358.6 59.7108 1356.13 62.0689 1353.04 62.0689Z" fill="#C3ABC3"/>
<path d="M1602.04 62.0689H1491.43C1488.47 62.0689 1486 59.5867 1486 56.6081V6.71693C1486 3.73835 1488.47 1.25616 1491.43 1.25616H1602.04C1605 1.25616 1607.47 3.73835 1607.47 6.71693V56.6081C1607.47 59.7108 1605.13 62.0689 1602.04 62.0689Z" fill="#C3ABC3"/>
<path d="M245.128 1098.91H105.023C101.27 1098.91 98.1426 1095.88 98.1426 1092.24V1031.26C98.1426 1027.61 101.27 1024.58 105.023 1024.58H245.128C248.881 1024.58 252.008 1027.61 252.008 1031.26V1092.24C252.008 1095.88 248.881 1098.91 245.128 1098.91Z" fill="#C3ABC3"/>
<path d="M87.9853 1098.91H-52.1198C-55.8727 1098.91 -59 1095.88 -59 1092.24V1031.26C-59 1027.61 -55.8727 1024.58 -52.1198 1024.58H87.9853C91.7381 1024.58 94.8654 1027.61 94.8654 1031.26V1092.24C94.8654 1095.88 91.7381 1098.91 87.9853 1098.91Z" fill="#C3ABC3"/>
<path d="M401.808 1098.91H261.702C257.95 1098.91 254.822 1095.88 254.822 1092.24V1031.26C254.822 1027.61 257.95 1024.58 261.702 1024.58H401.808C405.56 1024.58 408.688 1027.61 408.688 1031.26V1092.24C408.688 1095.88 405.717 1098.91 401.808 1098.91Z" fill="#C3ABC3"/>
<path d="M558.478 1098.91H418.373C414.621 1098.91 411.493 1095.88 411.493 1092.24V1031.26C411.493 1027.61 414.621 1024.58 418.373 1024.58H558.478C562.231 1024.58 565.359 1027.61 565.359 1031.26V1092.24C565.515 1095.88 562.388 1098.91 558.478 1098.91Z" fill="#C3ABC3"/>
<path d="M715.167 1098.91H575.062C571.309 1098.91 568.182 1095.88 568.182 1092.24V1031.26C568.182 1027.61 571.309 1024.58 575.062 1024.58H715.167C718.92 1024.58 722.047 1027.61 722.047 1031.26V1092.24C722.203 1095.88 719.076 1098.91 715.167 1098.91Z" fill="#C3ABC3"/>
<path d="M872.015 1098.91H731.909C728.157 1098.91 725.029 1095.88 725.029 1092.24V1031.26C725.029 1027.61 728.157 1024.58 731.909 1024.58H872.015C875.767 1024.58 878.895 1027.61 878.895 1031.26V1092.24C878.895 1095.88 875.767 1098.91 872.015 1098.91Z" fill="#C3ABC3"/>
<path d="M1028.69 1098.91H888.58C884.828 1098.91 881.7 1095.88 881.7 1092.24V1031.26C881.7 1027.61 884.828 1024.58 888.58 1024.58H1028.69C1032.44 1024.58 1035.57 1027.61 1035.57 1031.26V1092.24C1035.57 1095.88 1032.44 1098.91 1028.69 1098.91Z" fill="#C3ABC3"/>
<path d="M1185.37 1098.91H1045.26C1041.51 1098.91 1038.38 1095.88 1038.38 1092.24V1031.26C1038.38 1027.61 1041.51 1024.58 1045.26 1024.58H1185.37C1189.12 1024.58 1192.25 1027.61 1192.25 1031.26V1092.24C1192.25 1095.88 1189.12 1098.91 1185.37 1098.91Z" fill="#C3ABC3"/>
<path d="M1342.04 1098.91H1201.93C1198.18 1098.91 1195.05 1095.88 1195.05 1092.24V1031.26C1195.05 1027.61 1198.18 1024.58 1201.93 1024.58H1342.04C1345.79 1024.58 1348.92 1027.61 1348.92 1031.26V1092.24C1348.92 1095.88 1345.94 1098.91 1342.04 1098.91Z" fill="#C3ABC3"/>
<path d="M1498.72 1098.91H1358.62C1354.87 1098.91 1351.74 1095.88 1351.74 1092.24V1031.26C1351.74 1027.61 1354.87 1024.58 1358.62 1024.58H1498.72C1502.48 1024.58 1505.6 1027.61 1505.6 1031.26V1092.24C1505.76 1095.88 1502.63 1098.91 1498.72 1098.91Z" fill="#C3ABC3"/>
<path d="M1655.39 1098.91H1515.29C1511.54 1098.91 1508.41 1095.88 1508.41 1092.24V1031.26C1508.41 1027.61 1511.54 1024.58 1515.29 1024.58H1655.39C1659.15 1024.58 1662.28 1027.61 1662.28 1031.26V1092.24C1662.43 1095.88 1659.3 1098.91 1655.39 1098.91Z" fill="#C3ABC3"/>
<path d="M1812.25 1098.91H1672.15C1668.39 1098.91 1665.27 1095.88 1665.27 1092.24V1031.26C1665.27 1027.61 1668.39 1024.58 1672.15 1024.58H1812.25C1816 1024.58 1819.13 1027.61 1819.13 1031.26V1092.24C1819.13 1095.88 1816 1098.91 1812.25 1098.91Z" fill="#C3ABC3"/>
<path d="M1968.92 1098.91H1828.82C1825.06 1098.91 1821.94 1095.88 1821.94 1092.24V1031.26C1821.94 1027.61 1825.06 1024.58 1828.82 1024.58H1968.92C1972.68 1024.58 1975.8 1027.61 1975.8 1031.26V1092.24C1975.8 1095.88 1972.68 1098.91 1968.92 1098.91Z" fill="#C3ABC3"/>
<path d="M1851.04 63.0173H1740.43C1737.47 63.0173 1735 60.5351 1735 57.5565V7.6653C1735 4.68671 1737.47 2.20453 1740.43 2.20453H1851.04C1854 2.20453 1856.47 4.68671 1856.47 7.6653V57.5565C1856.47 60.6592 1854 63.0173 1851.04 63.0173Z" fill="#C3ABC3"/>
<path opacity="0.24" d="M610.774 582.887C613.456 582.887 615.631 580.7 615.631 578.001C615.631 575.303 613.456 573.116 610.774 573.116C608.091 573.116 605.917 575.303 605.917 578.001C605.917 580.7 608.091 582.887 610.774 582.887Z" fill="#FFFACC"/>
<path opacity="0.24" d="M-9.78682 436.567C-3.41088 436.567 1.75779 431.369 1.75779 424.955C1.75779 418.542 -3.41088 413.344 -9.78682 413.344C-16.1628 413.344 -21.3315 418.542 -21.3315 424.955C-21.3315 431.369 -16.1628 436.567 -9.78682 436.567Z" fill="#FFFACC"/>
<path opacity="0.24" d="M691.713 655.915C698.089 655.915 703.258 650.716 703.258 644.303C703.258 637.89 698.089 632.691 691.713 632.691C685.337 632.691 680.168 637.89 680.168 644.303C680.168 650.716 685.337 655.915 691.713 655.915Z" fill="#FFFACC"/>
<path opacity="0.24" d="M1108.55 459.599C1111.03 460.643 1113.87 459.472 1114.91 456.984C1115.95 454.496 1114.79 451.633 1112.31 450.589C1109.84 449.546 1106.99 450.716 1105.95 453.204C1104.92 455.692 1106.08 458.556 1108.55 459.599Z" fill="#FFFACC"/>
<path opacity="0.24" d="M592.624 83.224C598.504 85.7048 605.27 82.9219 607.737 77.0083C610.205 71.0947 607.439 64.2897 601.56 61.8089C595.68 59.3281 588.914 62.1109 586.446 68.0246C583.979 73.9382 586.745 80.7432 592.624 83.224Z" fill="#FFFACC"/>
<path opacity="0.24" d="M1155.09 558.432C1160.97 560.913 1167.74 558.13 1170.2 552.217C1172.67 546.303 1169.91 539.498 1164.03 537.017C1158.15 534.536 1151.38 537.319 1148.91 543.233C1146.45 549.147 1149.21 555.952 1155.09 558.432Z" fill="#FFFACC"/>
<path opacity="0.4" d="M391.381 108.198C394.73 109.611 398.585 108.027 399.99 104.659C401.395 101.291 399.819 97.4146 396.47 96.0014C393.121 94.5882 389.267 96.1729 387.861 99.5409C386.456 102.909 388.032 106.785 391.381 108.198Z" fill="#FFFACC"/>
<path d="M938.6 390.813C946.372 392.748 954.24 388.017 956.176 380.246C958.111 372.474 953.38 364.606 945.609 362.67C937.837 360.735 929.969 365.466 928.033 373.237C926.098 381.009 930.829 388.877 938.6 390.813Z" fill="#C6824B"/>
<path d="M936.073 393.819C938.51 394.426 940.977 392.943 941.583 390.506C942.19 388.07 940.707 385.603 938.27 384.996C935.834 384.389 933.367 385.873 932.76 388.309C932.154 390.745 933.637 393.212 936.073 393.819Z" fill="#C6824B"/>
<path d="M929.606 389.3C932.043 389.907 934.51 388.424 935.117 385.987C935.723 383.551 934.24 381.084 931.804 380.478C929.367 379.871 926.9 381.354 926.294 383.79C925.687 386.227 927.17 388.694 929.606 389.3Z" fill="#C6824B"/>
<path d="M943.887 394.876C946.323 395.483 948.79 394 949.397 391.563C950.004 389.127 948.52 386.66 946.084 386.053C943.647 385.446 941.181 386.93 940.574 389.366C939.967 391.802 941.45 394.269 943.887 394.876Z" fill="#C6824B"/>
<path d="M1001.18 390.889C1008.95 392.825 1016.82 388.094 1018.75 380.322C1020.69 372.551 1015.96 364.682 1008.19 362.747C1000.42 360.812 992.547 365.543 990.612 373.314C988.677 381.085 993.408 388.954 1001.18 390.889Z" fill="#C6824B"/>
<path d="M1008.52 393.848C1010.96 394.455 1013.43 392.972 1014.03 390.535C1014.64 388.099 1013.16 385.632 1010.72 385.025C1008.28 384.419 1005.82 385.902 1005.21 388.338C1004.6 390.775 1006.09 393.242 1008.52 393.848Z" fill="#C6824B"/>
<path d="M1014.98 389.318C1017.42 389.925 1019.89 388.442 1020.49 386.005C1021.1 383.569 1019.62 381.102 1017.18 380.495C1014.74 379.888 1012.28 381.372 1011.67 383.808C1011.06 386.245 1012.55 388.711 1014.98 389.318Z" fill="#C6824B"/>
<path d="M1000.75 394.901C1003.19 395.508 1005.65 394.025 1006.26 391.588C1006.87 389.152 1005.39 386.685 1002.95 386.078C1000.51 385.472 998.045 386.955 997.439 389.391C996.832 391.828 998.315 394.295 1000.75 394.901Z" fill="#C6824B"/>
<path d="M906.92 344.475L1039.96 344.487C1039.95 357.167 1029.62 367.519 1016.94 367.511L929.944 367.495C917.187 367.469 906.912 357.155 906.92 344.475Z" fill="#DE8E45"/>
<path d="M926.314 344.457L1020.57 344.504C1020.59 350.892 1015.45 355.991 1009.06 356.016L937.826 355.967C931.457 355.916 926.282 350.75 926.314 344.457Z" fill="#FFFACC"/>
<path d="M1034.63 266.661L912.254 266.64L898.115 335.091L1048.76 335.125L1034.63 266.661Z" fill="#A977AB"/>
<path d="M976.695 291.39L970.111 291.388L970.1 335.047L976.684 335.048L976.695 291.39Z" fill="#88538C"/>
<path d="M1074.51 266.093C1084.63 268.614 1094.89 262.451 1097.41 252.327C1099.93 242.204 1093.76 231.953 1083.64 229.432C1073.52 226.911 1063.27 233.074 1060.75 243.198C1058.22 253.321 1064.39 263.572 1074.51 266.093Z" fill="#DE8E45"/>
<path d="M1091.88 243.036C1095.04 243.82 1098.23 241.902 1099.01 238.752C1099.79 235.601 1097.88 232.411 1094.73 231.627C1091.58 230.842 1088.39 232.76 1087.6 235.911C1086.82 239.061 1088.73 242.251 1091.88 243.036Z" fill="#DE8E45"/>
<path d="M1095.82 252.499C1098.97 253.284 1102.16 251.366 1102.95 248.215C1103.73 245.065 1101.81 241.875 1098.66 241.09C1095.51 240.306 1092.32 242.224 1091.54 245.374C1090.75 248.525 1092.67 251.715 1095.82 252.499Z" fill="#DE8E45"/>
<path d="M1084.08 236.408C1087.23 237.192 1090.42 235.274 1091.21 232.124C1091.99 228.973 1090.07 225.783 1086.92 224.999C1083.77 224.214 1080.58 226.132 1079.8 229.283C1079.01 232.433 1080.93 235.623 1084.08 236.408Z" fill="#DE8E45"/>
<path d="M1084.93 232.985C1086.19 233.299 1087.47 232.532 1087.78 231.271C1088.09 230.011 1087.33 228.735 1086.07 228.421C1084.81 228.107 1083.53 228.875 1083.22 230.135C1082.9 231.395 1083.67 232.671 1084.93 232.985Z" fill="#FFFACC"/>
<path d="M1092.73 239.613C1093.99 239.927 1095.27 239.16 1095.58 237.9C1095.9 236.639 1095.13 235.363 1093.87 235.049C1092.61 234.736 1091.33 235.503 1091.02 236.763C1090.7 238.023 1091.47 239.299 1092.73 239.613Z" fill="#FFFACC"/>
<path d="M1096.68 249.077C1097.94 249.39 1099.21 248.623 1099.53 247.363C1099.84 246.103 1099.07 244.827 1097.81 244.513C1096.55 244.199 1095.28 244.966 1094.96 246.227C1094.65 247.487 1095.42 248.763 1096.68 249.077Z" fill="#FFFACC"/>
<path d="M1087.88 256.917C1092.35 253.642 1092.65 246.458 1088.56 240.87C1084.47 235.282 1077.53 233.407 1073.06 236.682C1068.59 239.957 1068.28 247.141 1072.37 252.729C1076.47 258.316 1083.41 260.191 1087.88 256.917Z" fill="#FFFACC"/>
<path d="M1050.7 249.423L994.673 290.464L1012.97 315.441L1069 274.4L1050.7 249.423Z" fill="#A977AB"/>
<path d="M1060.77 242.077L1050.72 249.442L1069.01 274.419L1079.07 267.054L1060.77 242.077Z" fill="#FFB23E"/>
<path d="M863.225 265.981C873.348 268.502 883.599 262.339 886.12 252.216C888.641 242.092 882.478 231.841 872.354 229.32C862.231 226.799 851.98 232.962 849.459 243.086C846.938 253.209 853.101 263.46 863.225 265.981Z" fill="#DE8E45"/>
<path d="M852.08 242.931C855.231 243.716 858.421 241.798 859.205 238.647C859.99 235.497 858.072 232.307 854.921 231.522C851.771 230.737 848.581 232.655 847.796 235.806C847.012 238.956 848.93 242.146 852.08 242.931Z" fill="#DE8E45"/>
<path d="M848.191 252.384C851.342 253.168 854.532 251.25 855.317 248.1C856.101 244.949 854.183 241.759 851.033 240.975C847.882 240.19 844.692 242.108 843.908 245.258C843.123 248.409 845.041 251.599 848.191 252.384Z" fill="#DE8E45"/>
<path d="M859.943 236.327C863.093 237.111 866.283 235.193 867.068 232.043C867.853 228.892 865.935 225.702 862.784 224.917C859.634 224.133 856.444 226.051 855.659 229.201C854.874 232.352 856.792 235.542 859.943 236.327Z" fill="#DE8E45"/>
<path d="M860.797 232.904C862.057 233.218 863.333 232.45 863.647 231.19C863.961 229.93 863.193 228.654 861.933 228.34C860.673 228.026 859.397 228.794 859.083 230.054C858.769 231.314 859.536 232.59 860.797 232.904Z" fill="#FFFACC"/>
<path d="M852.934 239.508C854.194 239.822 855.47 239.055 855.784 237.795C856.098 236.534 855.331 235.258 854.07 234.945C852.81 234.631 851.534 235.398 851.22 236.658C850.906 237.918 851.674 239.194 852.934 239.508Z" fill="#FFFACC"/>
<path d="M851.923 247.329C852.264 246.075 851.525 244.783 850.272 244.442C849.018 244.101 847.726 244.84 847.385 246.093C847.044 247.346 847.783 248.639 849.036 248.98C850.289 249.321 851.582 248.582 851.923 247.329Z" fill="#FFFACC"/>
<path d="M874.424 252.503C878.52 246.918 878.22 239.734 873.752 236.457C869.284 233.179 862.342 235.05 858.245 240.634C854.148 246.219 854.449 253.403 858.916 256.68C863.384 259.957 870.327 258.087 874.424 252.503Z" fill="#FFFACC"/>
<path d="M896.121 249.296L877.808 274.259L933.802 315.335L952.114 290.372L896.121 249.296Z" fill="#A977AB"/>
<path d="M886.066 241.886L867.753 266.85L877.802 274.221L896.115 249.258L886.066 241.886Z" fill="#FFB23E"/>
<path d="M919.984 301.118L922.096 303.018C922.362 303.245 922.666 303.321 923.008 303.245L925.764 302.558C926.543 302.348 927.305 303.184 926.944 303.983L925.806 306.607C925.654 306.893 925.73 307.235 925.902 307.52L927.406 309.914C927.882 310.598 927.255 311.492 926.457 311.454L923.624 311.153C923.301 311.153 922.959 311.23 922.731 311.496L920.889 313.703C920.319 314.369 919.33 314.122 919.139 313.267L918.547 310.454C918.471 310.112 918.205 309.884 917.919 309.732L915.276 308.67C914.477 308.31 914.419 307.245 915.16 306.864L917.63 305.379C917.915 305.208 918.067 304.922 918.143 304.618L918.368 301.766C918.406 300.968 919.394 300.568 919.984 301.118Z" fill="#FFB23E"/>
<path d="M940.423 323.818L941.394 325.11C941.508 325.3 941.66 325.338 941.907 325.319L943.542 325.241C944.036 325.203 944.303 325.754 944.037 326.172L943.145 327.485C943.031 327.618 942.974 327.846 943.089 328.036L943.679 329.556C943.813 329.993 943.452 330.469 943.014 330.279L941.436 329.806C941.284 329.768 941.037 329.787 940.923 329.92L939.631 330.891C939.232 331.195 938.738 330.911 938.699 330.416L938.698 328.801C938.66 328.629 938.621 328.458 938.412 328.325L937.1 327.433C936.681 327.167 936.757 326.54 937.27 326.425L938.771 325.911C938.942 325.873 939.056 325.739 939.113 325.511L939.587 323.933C939.51 323.591 940.119 323.419 940.423 323.818Z" fill="#FFB23E"/>
<path d="M946.67 297.748L946.672 299.363C946.71 299.535 946.748 299.706 946.958 299.838L948.346 300.75C948.765 301.015 948.689 301.643 948.252 301.776L946.751 302.291C946.58 302.329 946.447 302.538 946.409 302.691L946.011 304.288C945.897 304.744 945.308 304.84 944.985 304.517L944.014 303.225C943.9 303.035 943.748 302.997 943.5 303.016L941.866 303.094C941.371 303.132 941.105 302.581 941.37 302.163L942.263 300.85C942.377 300.717 942.434 300.489 942.319 300.299L941.729 298.778C941.595 298.341 941.956 297.866 942.393 298.056L943.972 298.529C944.124 298.567 944.371 298.548 944.485 298.415L945.777 297.444C946.137 296.968 946.632 297.253 946.67 297.748Z" fill="#FFB23E"/>
<path d="M959.161 316.368L959.753 319.181C959.829 319.523 960.001 319.808 960.381 319.903L963.006 321.041C963.804 321.402 963.862 322.466 963.121 322.847L960.594 324.237C960.309 324.409 960.081 324.675 960.082 324.998L959.78 327.831C959.724 328.706 958.678 329.011 958.089 328.46L955.996 326.485C955.729 326.257 955.425 326.181 955.083 326.257L952.27 326.849C951.414 327.04 950.805 326.242 951.166 325.443L952.38 322.838C952.532 322.552 952.532 322.229 952.36 321.944L950.875 319.474C950.418 318.714 951.045 317.82 951.9 317.952L954.733 318.254C955.057 318.254 955.399 318.177 955.627 317.911L957.526 315.799C957.981 315.266 958.97 315.513 959.161 316.368Z" fill="#FFB23E"/>
<path d="M911.015 324.168L911.264 325.764C911.302 325.936 911.416 326.126 911.568 326.164L913.014 326.847C913.451 327.036 913.452 327.683 912.996 327.892L911.59 328.673C911.4 328.787 911.286 328.92 911.324 329.091L911.078 330.726C911.041 331.202 910.432 331.374 910.109 331.051L908.929 329.949C908.796 329.835 908.568 329.778 908.397 329.816L906.781 330.141C906.344 330.275 905.906 329.762 906.172 329.343L906.855 327.898C906.969 327.764 906.95 327.517 906.836 327.327L906.055 325.921C905.826 325.541 906.206 324.99 906.662 325.103L908.298 325.349C908.45 325.387 908.716 325.292 908.83 325.158L909.931 323.979C910.368 323.522 910.977 323.674 911.015 324.168Z" fill="#FFB23E"/>
<path d="M890.238 270.69L891.304 271.924C891.437 272.038 891.57 272.152 891.817 272.133L893.395 271.96C893.889 271.922 894.175 272.397 893.909 272.815L893.074 274.223C892.96 274.356 892.979 274.603 893.017 274.774L893.703 276.238C893.912 276.694 893.476 277.15 893.019 277.037L891.422 276.639C891.27 276.601 891.023 276.62 890.909 276.753L889.674 277.819C889.351 278.143 888.762 277.915 888.723 277.421L888.646 275.786C888.607 275.615 888.493 275.425 888.36 275.311L886.953 274.476C886.534 274.21 886.591 273.659 887.047 273.449L888.567 272.858C888.738 272.82 888.871 272.611 888.909 272.459L889.307 270.862C889.325 270.462 889.933 270.291 890.238 270.69Z" fill="#FFB23E"/>
<path d="M921.541 284.463L921.866 286.078C921.904 286.25 922.018 286.439 922.17 286.477L923.635 287.084C924.072 287.274 924.092 287.844 923.712 288.073L922.305 288.854C922.115 288.968 922.002 289.101 922.04 289.272L921.889 290.85C921.852 291.325 921.319 291.516 920.901 291.25L919.721 290.149C919.588 290.035 919.36 289.978 919.189 290.016L917.649 290.36C917.212 290.493 916.774 289.98 916.964 289.543L917.647 288.097C917.685 287.945 917.742 287.717 917.609 287.603L916.752 286.178C916.523 285.798 916.827 285.228 917.283 285.341L918.861 285.492C919.014 285.53 919.204 285.416 919.394 285.301L920.419 284.103C920.875 283.893 921.484 284.045 921.541 284.463Z" fill="#FFB23E"/>
<path d="M997.564 301.295L999.353 303.518C999.524 303.803 999.905 303.898 1000.23 303.897L1003.12 303.647C1003.93 303.609 1004.52 304.483 1004.03 305.168L1002.46 307.602C1002.3 307.888 1002.23 308.192 1002.38 308.553L1003.5 311.175C1003.79 311.974 1003.11 312.773 1002.27 312.564L999.475 311.787C999.17 311.712 998.828 311.788 998.543 311.959L996.378 313.843C995.751 314.414 994.743 313.921 994.704 313.104L994.53 310.233C994.53 309.91 994.359 309.625 994.092 309.397L991.639 307.897C990.935 307.48 991.048 306.377 991.846 306.091L994.526 305.062C994.792 304.967 995.096 304.719 995.19 304.339L995.891 301.525C995.967 300.897 997.012 300.592 997.564 301.295Z" fill="#FFB23E"/>
<path d="M990.852 323.049L991.823 324.341C991.937 324.531 992.089 324.569 992.336 324.549L993.971 324.472C994.465 324.433 994.732 324.984 994.466 325.403L993.574 326.715C993.46 326.849 993.403 327.077 993.517 327.267L994.108 328.787C994.241 329.224 993.881 329.7 993.443 329.51L991.865 329.036C991.713 328.998 991.466 329.018 991.352 329.151L990.06 330.122C989.661 330.426 989.166 330.141 989.128 329.647L989.126 328.031C989.088 327.86 989.05 327.689 988.841 327.556L987.528 326.664C987.11 326.398 987.185 325.771 987.698 325.656L989.2 325.141C989.371 325.103 989.485 324.97 989.542 324.742L990.015 323.164C989.939 322.821 990.547 322.65 990.852 323.049Z" fill="#FFB23E"/>
<path d="M1029.05 316.323L1029.64 319.136C1029.71 319.478 1029.88 319.763 1030.27 319.858L1032.89 320.996C1033.69 321.357 1033.75 322.421 1033.01 322.802L1030.48 324.192C1030.19 324.364 1029.97 324.63 1029.97 324.953L1029.66 327.786C1029.61 328.661 1028.56 328.966 1027.97 328.415L1025.88 326.44C1025.61 326.212 1025.31 326.136 1024.97 326.213L1022.15 326.805C1021.3 326.995 1020.69 326.197 1021.05 325.399L1022.26 322.793C1022.42 322.508 1022.42 322.185 1022.24 321.9L1020.76 319.43C1020.3 318.67 1020.93 317.775 1021.78 317.908L1024.62 318.209C1024.94 318.209 1025.28 318.133 1025.51 317.866L1027.41 315.754C1027.87 315.222 1028.91 315.563 1029.05 316.323Z" fill="#FFB23E"/>
<path d="M1021.06 295.836L1021.06 297.452C1021.09 297.623 1021.13 297.794 1021.34 297.927L1022.73 298.838C1023.15 299.104 1023.07 299.732 1022.64 299.865L1021.14 300.38C1020.96 300.418 1020.83 300.627 1020.79 300.779L1020.4 302.376C1020.28 302.833 1019.69 302.928 1019.37 302.605L1018.4 301.314C1018.27 301.2 1018.13 301.086 1017.89 301.105L1016.25 301.183C1015.76 301.221 1015.49 300.67 1015.76 300.251L1016.65 298.939C1016.76 298.806 1016.82 298.578 1016.7 298.388L1016.11 296.867C1015.98 296.43 1016.34 295.954 1016.78 296.144L1018.36 296.618C1018.51 296.656 1018.76 296.637 1018.87 296.504L1020.16 295.533C1020.52 295.057 1021.02 295.342 1021.06 295.836Z" fill="#FFB23E"/>
<path d="M1053.3 272.766L1054.27 274.058C1054.38 274.248 1054.53 274.286 1054.78 274.266L1056.42 274.189C1056.91 274.15 1057.18 274.701 1056.91 275.12L1056.02 276.433C1055.91 276.566 1055.85 276.794 1055.96 276.984L1056.55 278.504C1056.69 278.941 1056.33 279.417 1055.89 279.227L1054.31 278.753C1054.16 278.716 1053.91 278.735 1053.8 278.868L1052.51 279.839C1052.11 280.143 1051.61 279.858 1051.57 279.364L1051.57 277.748C1051.53 277.577 1051.5 277.406 1051.29 277.273L1049.97 276.381C1049.56 276.115 1049.63 275.488 1050.14 275.373L1051.65 274.859C1051.82 274.82 1051.93 274.687 1051.99 274.459L1052.46 272.881C1052.4 272.463 1052.99 272.367 1053.3 272.766Z" fill="#FFB23E"/>
<path d="M898.113 335.091L896.182 344.465L1050.63 344.477L1048.75 335.125L898.113 335.091Z" fill="#FFB23E"/>
<path d="M920.576 238.42L1026.22 238.476C1039.47 238.464 1050.13 249.196 1050.14 262.446C1050.15 275.697 1039.42 286.353 1026.17 286.365L920.6 286.328C907.35 286.34 896.694 275.608 896.682 262.358C896.67 249.107 907.401 238.451 920.576 238.42Z" fill="#FFFACC"/>
<path d="M1008.78 254.005C996.253 254.036 986.111 243.836 986.157 231.327L980.657 162.266C978.28 162.078 975.961 161.985 973.546 161.949C971.132 161.913 968.756 162.048 966.455 162.203L960.891 231.255C960.922 243.783 950.722 253.925 938.213 253.879L918.746 253.878C911.56 253.866 904.885 251.8 899.331 248.155C908.634 276.32 938.328 296.882 973.536 296.926C1008.74 296.97 1038.44 276.335 1047.79 248.209C1042.2 251.827 1035.55 253.886 1028.36 253.873L1008.78 254.005Z" fill="#FFFACC"/>
<path d="M980.557 162.322L986.057 231.384C986.087 243.912 996.172 254.016 1008.68 254.062L1028.15 254.063C1035.33 254.076 1041.99 252.016 1047.57 248.399C1049.54 242.428 1050.62 236.153 1050.64 229.614C1050.7 194.33 1019.93 165.423 980.557 162.322Z" fill="#DE8E45"/>
<path d="M938.1 254.013C950.628 253.982 960.733 243.897 960.779 231.388L966.343 162.336C927.031 165.471 896.241 194.395 896.216 229.527C896.203 236.067 897.293 242.396 899.218 248.288C904.791 251.857 911.523 254.018 918.633 254.011L938.1 254.013Z" fill="#DE8E45"/>
<path d="M934.214 249.168C942.111 251.135 950.108 246.327 952.074 238.429C954.041 230.532 949.233 222.536 941.336 220.569C933.439 218.602 925.442 223.41 923.476 231.307C921.509 239.205 926.317 247.201 934.214 249.168Z" fill="#FFFACC"/>
<path d="M935.296 244.833C940.799 246.203 946.371 242.853 947.741 237.35C949.111 231.847 945.761 226.275 940.258 224.905C934.755 223.535 929.184 226.885 927.813 232.388C926.443 237.891 929.793 243.462 935.296 244.833Z" fill="#770000"/>
<path d="M933.116 234.76C934.503 235.105 935.906 234.261 936.251 232.875C936.597 231.489 935.753 230.085 934.366 229.74C932.98 229.394 931.577 230.238 931.231 231.625C930.886 233.011 931.73 234.415 933.116 234.76Z" fill="#A32626"/>
<path d="M1005.54 249.161C1013.44 251.128 1021.44 246.32 1023.4 238.423C1025.37 230.525 1020.56 222.529 1012.67 220.562C1004.77 218.595 996.771 223.403 994.805 231.301C992.838 239.198 997.646 247.194 1005.54 249.161Z" fill="#FFFACC"/>
<path d="M1006.62 244.824C1012.12 246.195 1017.69 242.845 1019.06 237.342C1020.43 231.839 1017.08 226.267 1011.58 224.897C1006.08 223.526 1000.51 226.876 999.136 232.379C997.766 237.882 1001.12 243.454 1006.62 244.824Z" fill="#770000"/>
<path d="M1012.5 234.819C1013.89 235.165 1015.29 234.321 1015.64 232.934C1015.98 231.548 1015.14 230.145 1013.75 229.799C1012.37 229.454 1010.96 230.298 1010.62 231.684C1010.27 233.07 1011.12 234.474 1012.5 234.819Z" fill="#A32626"/>
<path d="M973.468 248.523C967.328 248.529 962.342 243.572 962.356 237.355L984.655 237.335C984.566 243.532 979.609 248.518 973.468 248.523Z" fill="#770000"/>
<path d="M973.412 244.552C968.64 244.575 964.798 242.487 964.796 239.902L982.077 239.924C982.098 242.433 978.184 244.528 973.412 244.552Z" fill="#A32626"/>
<path d="M973.433 276.222C980.943 276.234 987.56 278.529 991.214 282.023C994.157 278.637 996.169 274.453 996.83 269.851C988.599 270.79 980.023 268.251 973.497 262.344C967.969 267.349 960.995 270.055 953.485 270.043C952.364 270.006 951.242 269.969 950.139 269.856C950.771 274.456 952.79 278.674 955.74 282.075C959.272 278.593 965.905 276.286 973.433 276.222Z" fill="#EBD2D2"/>
<path d="M973.448 290.12C980.558 290.113 986.905 287.009 991.197 282.1C987.62 278.624 981.021 276.254 973.417 276.299C965.908 276.287 959.275 278.593 955.647 282.132C960.005 287.014 966.338 290.126 973.448 290.12Z" fill="#CA6E91"/>
<path d="M958.126 266.675L965.711 266.706L965.734 270.508C965.698 272.599 964.064 274.293 961.954 274.333C959.863 274.296 958.169 272.663 958.129 270.553L958.126 266.675Z" fill="white"/>
<path d="M981.151 266.673L988.737 266.704L988.759 270.506C988.723 272.598 987.09 274.291 984.979 274.331C982.888 274.295 981.195 272.662 981.155 270.551L981.151 266.673Z" fill="white"/>
<path d="M1014.43 259.209C1013.86 258.583 1012.89 258.583 1012.25 259.23C1007.95 263.493 1002.56 266.026 996.949 266.811C988.927 267.883 980.579 265.4 974.433 259.265L973.329 258.182L972.247 259.286C967.195 264.328 960.448 267.091 953.338 267.098C952.121 267.118 950.943 266.986 949.764 266.854C943.984 266.06 938.658 263.442 934.453 259.244C933.882 258.617 932.913 258.618 932.267 259.265C931.64 259.836 931.641 260.806 932.288 261.451C937.14 266.295 943.264 269.274 949.957 269.971C951.06 270.084 952.181 270.121 953.303 270.158C960.736 270.152 967.787 267.465 973.314 262.46C979.84 268.366 988.417 270.906 996.647 269.967C1003.13 269.238 1009.4 266.438 1014.36 261.453C1015.1 260.749 1015.1 259.779 1014.43 259.209Z" fill="#D3CB90"/>
<path d="M946.264 205.642C949.249 205.658 951.646 208.032 951.63 211.017L951.597 216.34L946.274 216.307C943.289 216.29 940.892 213.916 940.908 210.932C940.905 208.023 943.279 205.625 946.264 205.642Z" fill="#FFFACC"/>
<path d="M1000.62 216.351L995.302 216.318L995.335 210.995C995.351 208.01 997.725 205.613 1000.71 205.629C1003.69 205.646 1006.09 208.02 1006.08 211.004C1005.98 213.97 1003.61 216.368 1000.62 216.351Z" fill="#FFFACC"/>
<path d="M1017.31 162.669L985.778 87.2063L983.745 88.5579C983.46 88.7292 983.308 89.0146 983.29 89.4138L983.216 92.3035C983.179 93.102 982.248 93.5971 981.563 93.1035L979.337 91.3375C979.071 91.1096 978.766 91.0338 978.405 91.1863L975.688 92.0442C974.908 92.2541 974.128 91.4943 974.489 90.6955L975.475 88.0331C975.551 87.7289 975.55 87.4057 975.379 87.1207L973.704 84.7649C973.228 84.0809 973.702 83.149 974.577 83.2052L977.448 83.3547C977.771 83.3544 978.132 83.202 978.284 82.9167L979.993 80.5958C980.486 79.911 981.57 80.1001 981.761 80.9554L982.524 83.7303C982.6 84.0724 982.867 84.3003 983.152 84.4522L984.711 85.002L975.452 62.8249C974.69 61.0195 972.18 61.0408 971.422 62.7905L966.243 75.1522L967.516 74.904C967.954 74.7705 968.391 75.2833 968.125 75.7018L967.366 77.1283C967.252 77.2615 967.272 77.5087 967.386 77.6987L968.167 79.1048C968.395 79.4848 968.015 80.0364 967.559 79.9228L965.924 79.6771C965.772 79.6392 965.506 79.7345 965.392 79.8677L964.29 81.0474C964.081 81.2377 963.834 81.2569 963.625 81.124L954.083 103.87C954.159 103.889 954.292 104.003 954.349 104.098L956.139 106.32C956.31 106.605 956.69 106.7 957.013 106.7L959.884 106.526C960.701 106.487 961.272 107.437 960.779 108.122L959.222 110.481C959.07 110.766 958.994 111.07 959.147 111.431L960.176 114.111C960.462 114.909 959.778 115.708 958.96 115.424L956.165 114.647C955.861 114.571 955.519 114.647 955.234 114.819L953.011 116.608C952.384 117.179 951.376 116.685 951.337 115.868L951.24 113.016C951.24 112.693 951.068 112.408 950.802 112.18L950.593 112.047L929.442 162.597L1017.31 162.669Z" fill="#A977AB"/>
<path d="M951.463 113.073L951.561 115.925C951.6 116.742 952.532 117.217 953.235 116.665L955.457 114.876C955.666 114.685 956.084 114.628 956.389 114.704L959.184 115.481C960.021 115.689 960.704 114.89 960.4 114.168L959.37 111.488C959.275 111.222 959.294 110.823 959.446 110.538L961.002 108.179C961.496 107.494 960.925 106.544 960.107 106.583L957.237 106.756C956.914 106.757 956.61 106.681 956.362 106.377L954.573 104.154C954.516 104.059 954.383 103.945 954.307 103.927L950.854 112.275L951.064 112.408C951.235 112.37 951.463 112.75 951.463 113.073Z" fill="#FFB23E"/>
<path d="M982.542 83.654L981.779 80.8792C981.569 80.0999 980.504 79.8347 980.011 80.5196L978.302 82.8405C978.074 83.1068 977.789 83.2781 977.466 83.2784L974.595 83.129C973.797 83.0917 973.246 84.0047 973.722 84.6887L975.397 87.0445C975.568 87.3295 975.645 87.6716 975.493 87.9569L974.507 90.6193C974.222 91.437 974.927 92.1778 975.706 91.968L978.424 91.11C978.766 91.0337 979.07 91.1095 979.355 91.2613L981.581 93.0273C982.266 93.5209 983.178 93.1018 983.234 92.2273L983.308 89.3376C983.307 89.0144 983.459 88.7291 983.763 88.4816L985.796 87.1301L984.786 84.6976L983.227 84.1477C982.885 84.2241 982.637 83.9201 982.542 83.654Z" fill="#FFB23E"/>
<path d="M964.478 80.9328L965.58 79.7532C965.694 79.62 965.865 79.5818 966.112 79.5625L967.747 79.8082C968.222 79.8458 968.583 79.3702 968.355 78.9902L967.574 77.5841C967.46 77.3941 967.498 77.242 967.554 77.0138L968.314 75.5873C968.503 75.1499 968.142 74.6559 967.705 74.7894L966.431 75.0377L963.889 81.0284C964.022 81.1423 964.269 81.1231 964.478 80.9328Z" fill="#FFB23E"/>
<path d="M929.669 162.654L925.875 171.725L1021.1 171.772L1017.31 162.669L929.669 162.654Z" fill="#FFB23E"/>
<path d="M991.342 127.446L992.466 130.069C992.637 130.354 992.904 130.582 993.208 130.658L995.984 131.187C996.84 131.32 997.069 132.346 996.442 132.917L994.276 134.801C994.067 134.991 993.897 135.353 993.973 135.695L994.318 138.527C994.433 139.363 993.559 139.953 992.779 139.517L990.306 138.093C990.021 137.942 989.698 137.942 989.355 138.018L986.79 139.237C986.049 139.618 985.174 138.916 985.382 138.079L986.007 135.246C986.083 134.941 986.006 134.599 985.74 134.371L983.761 132.263C983.19 131.636 983.588 130.685 984.425 130.57L987.238 130.302C987.561 130.301 987.865 130.054 988.017 129.769L989.365 127.277C989.934 126.611 990.98 126.629 991.342 127.446Z" fill="#FFB23E"/>
<path d="M959.37 131.279L961.367 133.311C961.634 133.539 961.938 133.615 962.261 133.615L965.055 133.099C965.892 132.984 966.501 133.782 966.14 134.581L964.85 137.167C964.698 137.453 964.698 137.776 964.851 138.137L966.241 140.664C966.622 141.405 965.995 142.299 965.216 142.186L962.421 141.732C962.117 141.657 961.755 141.809 961.547 141.999L959.571 144.092C959.021 144.682 957.975 144.341 957.841 143.581L957.42 140.729C957.344 140.387 957.172 140.102 956.887 139.95L954.281 138.736C953.559 138.394 953.501 137.33 954.242 136.949L956.826 135.654C957.111 135.483 957.339 135.216 957.339 134.893L957.716 132.079C957.734 131.033 958.799 130.652 959.37 131.279Z" fill="#FFB23E"/>
<path d="M984.503 150.703L984.999 152.281C985.037 152.452 985.17 152.566 985.379 152.698L986.957 153.172C987.414 153.286 987.509 153.875 987.11 154.18L985.743 155.131C985.553 155.246 985.515 155.398 985.458 155.626L985.459 157.242C985.422 157.717 984.947 158.003 984.528 157.737L983.235 156.769C983.101 156.655 982.873 156.598 982.683 156.712L981.182 157.227C980.745 157.36 980.288 156.924 980.478 156.486L981.028 154.927C981.066 154.775 981.046 154.527 980.913 154.413L979.942 153.122C979.638 152.723 979.923 152.228 980.417 152.19L982.033 152.188C982.204 152.15 982.375 152.112 982.489 151.979L983.457 150.685C983.761 150.114 984.369 150.266 984.503 150.703Z" fill="#FFB23E"/>
<path d="M984.276 111.389L984.201 112.986C984.163 113.139 984.277 113.329 984.41 113.443L985.704 114.411C986.123 114.677 985.971 115.285 985.534 115.419L983.975 115.838C983.804 115.876 983.69 116.01 983.558 116.219L983.008 117.778C982.818 118.216 982.229 118.311 982 117.931L981.125 116.582C981.01 116.392 980.858 116.354 980.63 116.298L979.014 116.299C978.539 116.261 978.272 115.71 978.595 115.387L979.639 114.112C979.753 113.979 979.81 113.751 979.772 113.58L979.276 112.002C979.143 111.565 979.58 111.109 980.017 111.298L981.576 111.848C981.729 111.886 981.976 111.867 982.071 111.81L983.439 110.858C983.743 110.61 984.237 110.895 984.276 111.389Z" fill="#FFB23E"/>
<path d="M944.697 151.615L945.858 152.792C945.991 152.906 946.22 152.963 946.391 152.925L948.006 152.6C948.443 152.467 948.881 152.979 948.615 153.398L947.856 154.824C947.742 154.958 947.761 155.205 947.876 155.395L948.656 156.801C948.885 157.181 948.505 157.732 948.049 157.619L946.414 157.373C946.262 157.335 945.995 157.431 945.882 157.564L944.78 158.743C944.457 159.067 943.849 158.915 943.81 158.421L943.562 156.824C943.523 156.653 943.409 156.463 943.257 156.425L941.812 155.742C941.374 155.553 941.374 154.906 941.83 154.697L943.312 153.935C943.502 153.821 943.616 153.688 943.578 153.517L943.823 151.881C943.842 151.482 944.374 151.292 944.697 151.615Z" fill="#FFB23E"/>
<path d="M910.959 206.947C900.481 203.934 897.875 180.99 905.057 155.718C910.136 137.92 923.812 125.17 931.525 119.175C934.317 117.043 938.406 118.142 939.664 121.525C943.037 130.685 947.977 148.797 942.917 166.52C935.735 191.792 921.361 209.941 910.959 206.947Z" fill="#DE8E45"/>
<path d="M1036 206.986C1046.43 204.011 1049.07 181.082 1041.9 155.709C1036.87 137.976 1023.17 125.195 1015.46 119.156C1012.68 117.011 1008.6 118.174 1007.36 121.502C1003.95 130.668 999.043 148.752 1004.06 166.561C1011.17 191.838 1025.49 209.943 1036 206.986Z" fill="#DE8E45"/>
<path d="M927.464 163.075C921.645 181.578 908.272 193.757 908.272 193.757C908.272 193.757 904.283 176.042 910.083 157.616C915.903 139.113 929.275 126.934 929.275 126.934C929.275 126.934 933.284 144.572 927.464 163.075Z" fill="#EBD2D2"/>
<path d="M1019.45 163.123C1025.27 181.615 1038.62 193.827 1038.62 193.827C1038.62 193.827 1042.62 176.163 1036.8 157.67C1030.99 139.178 1017.63 126.966 1017.63 126.966C1017.63 126.966 1013.64 144.631 1019.45 163.123Z" fill="#EBD2D2"/>
<g opacity="0.82">
<path d="M879.318 218.859L881.358 204.18L871.137 212.136L861.573 188.914L852.07 212.154L841.853 204.197L843.863 218.834C842.344 221.04 841.472 223.57 841.455 226.231C841.425 234.786 850.424 241.793 861.564 241.821C872.628 241.83 881.633 234.864 881.682 226.233C881.699 223.571 880.803 221.005 879.318 218.859Z" fill="#FF7336"/>
<path d="M869.914 226.129L870.839 219.17L866.033 222.901L861.575 211.936L857.079 222.852L852.266 219.149L853.204 226.087C852.463 227.114 852.084 228.312 852.085 229.605C852.051 233.636 856.312 236.959 861.559 236.973C866.806 236.987 871.024 233.675 871.058 229.645C871.057 228.352 870.638 227.117 869.914 226.129Z" fill="#FFB23E"/>
<path d="M1102.98 218.902L1105.02 204.224L1094.8 212.179L1085.31 188.976L1075.81 212.216L1065.59 204.259L1067.6 218.896C1066.08 221.103 1065.21 223.632 1065.19 226.293C1065.16 234.848 1074.16 241.855 1085.3 241.883C1096.36 241.892 1105.37 234.926 1105.42 226.295C1105.36 223.614 1104.52 221.144 1102.98 218.902Z" fill="#FF7336"/>
<path d="M1093.65 226.192L1094.58 219.233L1089.77 222.963L1085.31 211.998L1080.81 222.915L1076 219.212L1076.94 226.15C1076.2 227.177 1075.82 228.375 1075.82 229.668C1075.79 233.698 1080.05 237.021 1085.3 237.035C1090.54 237.05 1094.76 233.738 1094.79 229.708C1094.79 228.415 1094.37 227.18 1093.65 226.192Z" fill="#FFB23E"/>
</g>
<path d="M921.164 242.203L952.589 242.193L952.574 246.794C952.595 248.334 951.322 249.552 949.782 249.572L921.114 249.541L921.164 242.203Z" fill="#DE8E45"/>
<path d="M1026.26 249.636L997.595 249.605C996.056 249.625 994.838 248.352 994.817 246.813L994.832 242.212L1026.26 242.202L1026.26 249.636Z" fill="#DE8E45"/>
<path d="M590.289 396.692C643.196 395.735 670.303 386.728 677.243 382.344L776.445 457.67C740.193 484.453 659.281 497.525 623.356 500.713C643.931 487.322 665.404 454.482 673.569 439.735C653.974 436.866 609.884 409.844 590.289 396.692Z" fill="#FFB23E" stroke="#DE8E45" stroke-width="8.33372"/>
<path d="M1355.74 395.495C1328.3 398.364 1286.34 389.516 1268.78 384.734L1170.8 451.69C1194.32 481.342 1282.66 496.726 1323.89 500.712C1302.34 485.407 1282.25 453.683 1274.9 439.734C1301.36 434.951 1339.81 408.248 1355.74 395.495Z" fill="#FFB23E" stroke="#DE8E45" stroke-width="8.33372"/>
<path d="M711.528 466.038C681.155 425.864 676.827 364.806 678.46 339.299C907.725 296.256 1166.71 321.364 1267.54 339.299C1276.36 378.516 1249.99 440.132 1235.7 466.038C1050.53 414.386 809.096 444.516 711.528 466.038Z" fill="#FFB23E" stroke="#DE8E45" stroke-width="10"/>
<path d="M756.969 494.074C760.82 495.69 765.084 494.281 766.491 490.926C767.899 487.572 765.917 483.543 762.066 481.926C758.214 480.31 753.95 481.719 752.543 485.074C751.135 488.428 753.117 492.457 756.969 494.074Z" fill="#C9345A"/>
<path d="M903.969 292.074C907.82 293.69 912.084 292.281 913.491 288.926C914.899 285.572 912.917 281.543 909.066 279.926C905.214 278.31 900.95 279.719 899.543 283.074C898.135 286.428 900.117 290.457 903.969 292.074Z" fill="#C9345A"/>
<path d="M702.969 285.074C706.82 286.69 711.084 285.281 712.491 281.926C713.899 278.572 711.917 274.543 708.066 272.926C704.214 271.31 699.95 272.719 698.543 276.074C697.135 279.428 699.117 283.457 702.969 285.074Z" fill="#B3D689"/>
<path d="M583.028 289.335L583.755 283.095L584.625 280.224L585.756 277.137L587.255 274.595L589.528 272.365L591.755 270.095L594.176 268.076L603.506 269.793L598.42 273.841L595.755 276.595L593.255 280.095L591.755 283.595L590.255 288.595L589.507 295.19L583.028 289.335Z" fill="#F5EA83"/>
<path d="M756.01 270.006L762.285 270.336L765.204 271.021L768.358 271.954L770.99 273.29L773.359 275.416L775.766 277.495L777.934 279.783L776.812 289.203L772.45 284.384L769.533 281.899L765.881 279.626L762.293 278.351L757.208 277.172L750.578 276.843L756.01 270.006Z" fill="#CA6E91"/>
<path d="M1270.43 481.019L1276.71 481.349L1279.63 482.034L1282.78 482.967L1285.41 484.302L1287.78 486.429L1290.19 488.508L1292.36 490.795L1291.24 500.216L1286.87 495.397L1283.96 492.912L1280.31 490.639L1276.72 489.364L1271.63 488.184L1265 487.855L1270.43 481.019Z" fill="#F5EA83"/>
<path d="M744.432 429.019L750.707 429.349L753.626 430.034L756.779 430.967L759.411 432.302L761.781 434.429L764.188 436.508L766.356 438.795L765.234 448.216L760.872 443.397L757.954 440.912L754.303 438.639L750.715 437.364L745.63 436.184L739 435.855L744.432 429.019Z" fill="#89BEAA"/>
<path d="M1253.72 597.3L1256.87 591.86L1258.81 589.571L1261.07 587.185L1263.45 585.447L1266.42 584.302L1269.37 583.102L1272.39 582.209L1280.28 587.488L1274 589.185L1270.46 590.656L1266.78 592.876L1264.01 595.494L1260.65 599.488L1257.35 605.245L1253.72 597.3Z" fill="#89BEAA"/>
<path d="M651.889 328.859L651.169 335.1L650.303 337.972L649.175 341.06L647.678 343.604L645.408 345.837L643.184 348.109L640.765 350.131L631.433 348.424L636.515 344.371L639.176 341.614L641.672 338.111L643.168 334.609L644.663 329.608L645.404 323.011L651.889 328.859Z" fill="#89BEAA"/>
<path d="M529.432 367.019L535.707 367.349L538.626 368.034L541.779 368.967L544.411 370.302L546.781 372.429L549.188 374.508L551.356 376.795L550.234 386.216L545.872 381.397L542.954 378.912L539.303 376.639L535.715 375.364L530.63 374.184L524 373.855L529.432 367.019Z" fill="#89BEAA"/>
<path d="M713.435 379.019L719.709 379.349L722.629 380.034L725.782 380.967L728.414 382.302L730.783 384.429L733.19 386.508L735.359 388.795L734.237 398.216L729.874 393.397L726.957 390.912L723.305 388.639L719.717 387.364L714.632 386.184L708.003 385.855L713.435 379.019Z" fill="#F5EA83"/>
<path d="M639.918 521.013L637.98 526.99L636.564 529.634L634.849 532.439L632.879 534.637L630.213 536.377L627.583 538.166L624.813 539.67L616.002 536.154L621.784 533.184L624.937 531.007L628.076 528.066L630.234 524.929L632.687 520.321L634.716 514L639.918 521.013Z" fill="#89BEAA"/>
<path d="M1087.92 471.013L1085.98 476.99L1084.56 479.634L1082.85 482.439L1080.88 484.637L1078.21 486.377L1075.58 488.166L1072.81 489.67L1064 486.154L1069.78 483.184L1072.94 481.007L1076.08 478.066L1078.23 474.929L1080.69 470.321L1082.72 464L1087.92 471.013Z" fill="#CA6E91"/>
<path d="M1343.92 317.013L1341.98 322.99L1340.56 325.634L1338.85 328.439L1336.88 330.637L1334.21 332.377L1331.58 334.166L1328.81 335.67L1320 332.154L1325.78 329.184L1328.93 327.007L1332.07 324.066L1334.23 320.929L1336.68 316.321L1338.71 310L1343.92 317.013Z" fill="#89BEAA"/>
<path d="M1299.12 242.64L1304.39 246.059L1306.58 248.11L1308.84 250.493L1310.46 252.964L1311.45 255.989L1312.5 258.992L1313.23 262.057L1307.56 269.659L1306.18 263.306L1304.9 259.697L1302.87 255.904L1300.4 253.008L1296.58 249.447L1291 245.853L1299.12 242.64Z" fill="#89BEAA"/>
<path d="M855.916 314.013L853.978 319.99L852.561 322.634L850.846 325.439L848.876 327.637L846.21 329.377L843.58 331.166L840.811 332.67L831.999 329.154L837.781 326.184L840.935 324.007L844.073 321.066L846.231 317.929L848.684 313.321L850.713 307L855.916 314.013Z" fill="#89BEAA"/>
<path d="M1072.71 312.581L1076.07 317.893L1077.2 320.672L1078.26 323.784L1078.69 326.704L1078.32 329.867L1078.02 333.032L1077.4 336.124L1069.07 340.652L1070.48 334.307L1070.82 330.49L1070.57 326.197L1069.53 322.532L1067.56 317.7L1064 312.099L1072.71 312.581Z" fill="#89BEAA"/>
<path d="M1320.18 421.434L1314.02 422.672L1311.02 422.732L1307.73 422.611L1304.85 421.971L1302.03 420.499L1299.18 419.082L1296.51 417.404L1295.26 408L1300.68 411.586L1304.13 413.269L1308.23 414.564L1312.02 414.909L1317.24 414.79L1323.74 413.463L1320.18 421.434Z" fill="#CA6E91"/>
<path d="M1211.64 404.579L1211.17 410.845L1210.43 413.749L1209.42 416.881L1208.03 419.484L1205.85 421.807L1203.72 424.168L1201.39 426.286L1192 424.961L1196.91 420.704L1199.46 417.841L1201.81 414.239L1203.16 410.68L1204.45 405.621L1204.92 399L1211.64 404.579Z" fill="#89BEAA"/>
<path d="M1200.85 296.685L1206.88 294.911L1209.86 294.587L1213.14 294.419L1216.07 294.804L1219.01 296.022L1221.97 297.183L1224.78 298.62L1226.85 307.877L1221.14 304.782L1217.56 303.408L1213.36 302.478L1209.55 302.468L1204.36 303.045L1198 304.938L1200.85 296.685Z" fill="#F5EA83"/>
<path d="M935.969 339.074C939.82 340.69 944.084 339.281 945.491 335.926C946.899 332.572 944.917 328.543 941.066 326.926C937.214 325.31 932.95 326.719 931.543 330.074C930.135 333.428 932.117 337.457 935.969 339.074Z" fill="#C9345A"/>
<path d="M880.971 482.074C884.823 483.69 889.086 482.281 890.494 478.926C891.901 475.572 889.92 471.543 886.068 469.926C882.216 468.31 877.953 469.719 876.545 473.074C875.138 476.428 877.119 480.457 880.971 482.074Z" fill="#B3D689"/>
<path d="M1127.97 276.074C1131.82 277.69 1136.08 276.281 1137.49 272.926C1138.9 269.572 1136.92 265.543 1133.07 263.926C1129.21 262.31 1124.95 263.719 1123.54 267.074C1122.14 270.428 1124.12 274.457 1127.97 276.074Z" fill="#C9345A"/>
<path d="M730.106 397.408C728.27 397.408 726.558 397.113 724.972 396.524C723.408 395.912 722.048 395.051 720.892 393.94C719.736 392.829 718.829 391.526 718.172 390.03C717.537 388.534 717.22 386.891 717.22 385.1C717.22 383.309 717.537 381.666 718.172 380.17C718.829 378.674 719.736 377.371 720.892 376.26C722.07 375.149 723.442 374.299 725.006 373.71C726.57 373.098 728.281 372.792 730.14 372.792C732.202 372.792 734.061 373.155 735.716 373.88C737.393 374.583 738.798 375.625 739.932 377.008L736.396 380.272C735.58 379.343 734.673 378.651 733.676 378.198C732.678 377.722 731.59 377.484 730.412 377.484C729.301 377.484 728.281 377.665 727.352 378.028C726.422 378.391 725.618 378.912 724.938 379.592C724.258 380.272 723.725 381.077 723.34 382.006C722.977 382.935 722.796 383.967 722.796 385.1C722.796 386.233 722.977 387.265 723.34 388.194C723.725 389.123 724.258 389.928 724.938 390.608C725.618 391.288 726.422 391.809 727.352 392.172C728.281 392.535 729.301 392.716 730.412 392.716C731.59 392.716 732.678 392.489 733.676 392.036C734.673 391.56 735.58 390.846 736.396 389.894L739.932 393.158C738.798 394.541 737.393 395.595 735.716 396.32C734.061 397.045 732.191 397.408 730.106 397.408ZM751.35 397.272C749.401 397.272 747.667 396.864 746.148 396.048C744.652 395.232 743.462 394.121 742.578 392.716C741.717 391.288 741.286 389.667 741.286 387.854C741.286 386.018 741.717 384.397 742.578 382.992C743.462 381.564 744.652 380.453 746.148 379.66C747.667 378.844 749.401 378.436 751.35 378.436C753.277 378.436 755 378.844 756.518 379.66C758.037 380.453 759.227 381.553 760.088 382.958C760.95 384.363 761.38 385.995 761.38 387.854C761.38 389.667 760.95 391.288 760.088 392.716C759.227 394.121 758.037 395.232 756.518 396.048C755 396.864 753.277 397.272 751.35 397.272ZM751.35 392.92C752.234 392.92 753.028 392.716 753.73 392.308C754.433 391.9 754.988 391.322 755.396 390.574C755.804 389.803 756.008 388.897 756.008 387.854C756.008 386.789 755.804 385.882 755.396 385.134C754.988 384.386 754.433 383.808 753.73 383.4C753.028 382.992 752.234 382.788 751.35 382.788C750.466 382.788 749.673 382.992 748.97 383.4C748.268 383.808 747.701 384.386 747.27 385.134C746.862 385.882 746.658 386.789 746.658 387.854C746.658 388.897 746.862 389.803 747.27 390.574C747.701 391.322 748.268 391.9 748.97 392.308C749.673 392.716 750.466 392.92 751.35 392.92ZM776.044 378.436C777.494 378.436 778.786 378.731 779.92 379.32C781.076 379.887 781.982 380.771 782.64 381.972C783.297 383.151 783.626 384.669 783.626 386.528V397H778.322V387.344C778.322 385.871 777.993 384.783 777.336 384.08C776.701 383.377 775.794 383.026 774.616 383.026C773.777 383.026 773.018 383.207 772.338 383.57C771.68 383.91 771.159 384.443 770.774 385.168C770.411 385.893 770.23 386.823 770.23 387.956V397H764.926V378.708H769.992V383.774L769.04 382.244C769.697 381.02 770.638 380.079 771.862 379.422C773.086 378.765 774.48 378.436 776.044 378.436ZM797.168 403.868C795.445 403.868 793.779 403.653 792.17 403.222C790.583 402.814 789.257 402.191 788.192 401.352L790.3 397.544C791.071 398.179 792.045 398.677 793.224 399.04C794.425 399.425 795.604 399.618 796.76 399.618C798.641 399.618 800.001 399.199 800.84 398.36C801.701 397.521 802.132 396.275 802.132 394.62V391.866L802.472 387.276L802.404 382.652V378.708H807.436V393.94C807.436 397.34 806.552 399.845 804.784 401.454C803.016 403.063 800.477 403.868 797.168 403.868ZM796.352 396.116C794.652 396.116 793.111 395.753 791.728 395.028C790.368 394.28 789.269 393.249 788.43 391.934C787.614 390.597 787.206 389.044 787.206 387.276C787.206 385.485 787.614 383.933 788.43 382.618C789.269 381.281 790.368 380.249 791.728 379.524C793.111 378.799 794.652 378.436 796.352 378.436C797.893 378.436 799.253 378.753 800.432 379.388C801.611 380 802.529 380.963 803.186 382.278C803.843 383.57 804.172 385.236 804.172 387.276C804.172 389.293 803.843 390.959 803.186 392.274C802.529 393.566 801.611 394.529 800.432 395.164C799.253 395.799 797.893 396.116 796.352 396.116ZM797.406 391.764C798.335 391.764 799.163 391.583 799.888 391.22C800.613 390.835 801.18 390.302 801.588 389.622C801.996 388.942 802.2 388.16 802.2 387.276C802.2 386.369 801.996 385.587 801.588 384.93C801.18 384.25 800.613 383.729 799.888 383.366C799.163 382.981 798.335 382.788 797.406 382.788C796.477 382.788 795.649 382.981 794.924 383.366C794.199 383.729 793.621 384.25 793.19 384.93C792.782 385.587 792.578 386.369 792.578 387.276C792.578 388.16 792.782 388.942 793.19 389.622C793.621 390.302 794.199 390.835 794.924 391.22C795.649 391.583 796.477 391.764 797.406 391.764ZM812.373 397V378.708H817.439V383.876L816.725 382.38C817.269 381.088 818.141 380.113 819.343 379.456C820.544 378.776 822.006 378.436 823.729 378.436V383.332C823.502 383.309 823.298 383.298 823.117 383.298C822.935 383.275 822.743 383.264 822.539 383.264C821.088 383.264 819.909 383.683 819.003 384.522C818.119 385.338 817.677 386.619 817.677 388.364V397H812.373ZM836.907 397V393.43L836.567 392.648V386.256C836.567 385.123 836.216 384.239 835.513 383.604C834.833 382.969 833.779 382.652 832.351 382.652C831.377 382.652 830.413 382.811 829.461 383.128C828.532 383.423 827.739 383.831 827.081 384.352L825.177 380.646C826.175 379.943 827.376 379.399 828.781 379.014C830.187 378.629 831.615 378.436 833.065 378.436C835.853 378.436 838.018 379.093 839.559 380.408C841.101 381.723 841.871 383.774 841.871 386.562V397H836.907ZM831.331 397.272C829.903 397.272 828.679 397.034 827.659 396.558C826.639 396.059 825.857 395.391 825.313 394.552C824.769 393.713 824.497 392.773 824.497 391.73C824.497 390.642 824.758 389.69 825.279 388.874C825.823 388.058 826.673 387.423 827.829 386.97C828.985 386.494 830.493 386.256 832.351 386.256H837.213V389.35H832.929C831.683 389.35 830.821 389.554 830.345 389.962C829.892 390.37 829.665 390.88 829.665 391.492C829.665 392.172 829.926 392.716 830.447 393.124C830.991 393.509 831.728 393.702 832.657 393.702C833.541 393.702 834.335 393.498 835.037 393.09C835.74 392.659 836.25 392.036 836.567 391.22L837.383 393.668C836.998 394.847 836.295 395.742 835.275 396.354C834.255 396.966 832.941 397.272 831.331 397.272ZM854.152 397.272C851.998 397.272 850.321 396.728 849.12 395.64C847.918 394.529 847.318 392.886 847.318 390.71V374.662H852.622V390.642C852.622 391.413 852.826 392.013 853.234 392.444C853.642 392.852 854.197 393.056 854.9 393.056C855.738 393.056 856.452 392.829 857.042 392.376L858.47 396.116C857.926 396.501 857.268 396.796 856.498 397C855.75 397.181 854.968 397.272 854.152 397.272ZM844.496 383.196V379.116H857.178V383.196H844.496ZM869.165 397.272C867.646 397.272 866.286 396.977 865.085 396.388C863.906 395.799 862.988 394.903 862.331 393.702C861.674 392.478 861.345 390.925 861.345 389.044V378.708H866.649V388.262C866.649 389.781 866.966 390.903 867.601 391.628C868.258 392.331 869.176 392.682 870.355 392.682C871.171 392.682 871.896 392.512 872.531 392.172C873.166 391.809 873.664 391.265 874.027 390.54C874.39 389.792 874.571 388.863 874.571 387.752V378.708H879.875V397H874.843V391.968L875.761 393.43C875.149 394.699 874.242 395.663 873.041 396.32C871.862 396.955 870.57 397.272 869.165 397.272ZM884.789 397V371.772H890.093V397H884.789ZM906.235 397V393.43L905.895 392.648V386.256C905.895 385.123 905.544 384.239 904.841 383.604C904.161 382.969 903.107 382.652 901.679 382.652C900.705 382.652 899.741 382.811 898.789 383.128C897.86 383.423 897.067 383.831 896.409 384.352L894.505 380.646C895.503 379.943 896.704 379.399 898.109 379.014C899.515 378.629 900.943 378.436 902.393 378.436C905.181 378.436 907.346 379.093 908.887 380.408C910.429 381.723 911.199 383.774 911.199 386.562V397H906.235ZM900.659 397.272C899.231 397.272 898.007 397.034 896.987 396.558C895.967 396.059 895.185 395.391 894.641 394.552C894.097 393.713 893.825 392.773 893.825 391.73C893.825 390.642 894.086 389.69 894.607 388.874C895.151 388.058 896.001 387.423 897.157 386.97C898.313 386.494 899.821 386.256 901.679 386.256H906.541V389.35H902.257C901.011 389.35 900.149 389.554 899.673 389.962C899.22 390.37 898.993 390.88 898.993 391.492C898.993 392.172 899.254 392.716 899.775 393.124C900.319 393.509 901.056 393.702 901.985 393.702C902.869 393.702 903.663 393.498 904.365 393.09C905.068 392.659 905.578 392.036 905.895 391.22L906.711 393.668C906.326 394.847 905.623 395.742 904.603 396.354C903.583 396.966 902.269 397.272 900.659 397.272ZM923.48 397.272C921.326 397.272 919.649 396.728 918.448 395.64C917.246 394.529 916.646 392.886 916.646 390.71V374.662H921.95V390.642C921.95 391.413 922.154 392.013 922.562 392.444C922.97 392.852 923.525 393.056 924.228 393.056C925.066 393.056 925.78 392.829 926.37 392.376L927.798 396.116C927.254 396.501 926.596 396.796 925.826 397C925.078 397.181 924.296 397.272 923.48 397.272ZM913.824 383.196V379.116H926.506V383.196H913.824ZM930.775 397V378.708H936.079V397H930.775ZM933.427 376.158C932.452 376.158 931.659 375.875 931.047 375.308C930.435 374.741 930.129 374.039 930.129 373.2C930.129 372.361 930.435 371.659 931.047 371.092C931.659 370.525 932.452 370.242 933.427 370.242C934.402 370.242 935.195 370.514 935.807 371.058C936.419 371.579 936.725 372.259 936.725 373.098C936.725 373.982 936.419 374.719 935.807 375.308C935.218 375.875 934.424 376.158 933.427 376.158ZM949.706 397.272C947.756 397.272 946.022 396.864 944.504 396.048C943.008 395.232 941.818 394.121 940.934 392.716C940.072 391.288 939.642 389.667 939.642 387.854C939.642 386.018 940.072 384.397 940.934 382.992C941.818 381.564 943.008 380.453 944.504 379.66C946.022 378.844 947.756 378.436 949.706 378.436C951.632 378.436 953.355 378.844 954.874 379.66C956.392 380.453 957.582 381.553 958.444 382.958C959.305 384.363 959.736 385.995 959.736 387.854C959.736 389.667 959.305 391.288 958.444 392.716C957.582 394.121 956.392 395.232 954.874 396.048C953.355 396.864 951.632 397.272 949.706 397.272ZM949.706 392.92C950.59 392.92 951.383 392.716 952.086 392.308C952.788 391.9 953.344 391.322 953.752 390.574C954.16 389.803 954.364 388.897 954.364 387.854C954.364 386.789 954.16 385.882 953.752 385.134C953.344 384.386 952.788 383.808 952.086 383.4C951.383 382.992 950.59 382.788 949.706 382.788C948.822 382.788 948.028 382.992 947.326 383.4C946.623 383.808 946.056 384.386 945.626 385.134C945.218 385.882 945.014 386.789 945.014 387.854C945.014 388.897 945.218 389.803 945.626 390.574C946.056 391.322 946.623 391.9 947.326 392.308C948.028 392.716 948.822 392.92 949.706 392.92ZM974.399 378.436C975.85 378.436 977.142 378.731 978.275 379.32C979.431 379.887 980.338 380.771 980.995 381.972C981.652 383.151 981.981 384.669 981.981 386.528V397H976.677V387.344C976.677 385.871 976.348 384.783 975.691 384.08C975.056 383.377 974.15 383.026 972.971 383.026C972.132 383.026 971.373 383.207 970.693 383.57C970.036 383.91 969.514 384.443 969.129 385.168C968.766 385.893 968.585 386.823 968.585 387.956V397H963.281V378.708H968.347V383.774L967.395 382.244C968.052 381.02 968.993 380.079 970.217 379.422C971.441 378.765 972.835 378.436 974.399 378.436ZM992.943 397.272C991.379 397.272 989.871 397.091 988.421 396.728C986.993 396.343 985.859 395.867 985.021 395.3L986.789 391.492C987.627 392.013 988.613 392.444 989.747 392.784C990.903 393.101 992.036 393.26 993.147 393.26C994.371 393.26 995.232 393.113 995.731 392.818C996.252 392.523 996.513 392.115 996.513 391.594C996.513 391.163 996.309 390.846 995.901 390.642C995.515 390.415 994.994 390.245 994.337 390.132C993.679 390.019 992.954 389.905 992.161 389.792C991.39 389.679 990.608 389.531 989.815 389.35C989.021 389.146 988.296 388.851 987.639 388.466C986.981 388.081 986.449 387.559 986.041 386.902C985.655 386.245 985.463 385.395 985.463 384.352C985.463 383.196 985.791 382.176 986.449 381.292C987.129 380.408 988.103 379.717 989.373 379.218C990.642 378.697 992.161 378.436 993.929 378.436C995.175 378.436 996.445 378.572 997.737 378.844C999.029 379.116 1000.11 379.513 1000.97 380.034L999.199 383.808C998.315 383.287 997.419 382.935 996.513 382.754C995.629 382.55 994.767 382.448 993.929 382.448C992.75 382.448 991.889 382.607 991.345 382.924C990.801 383.241 990.529 383.649 990.529 384.148C990.529 384.601 990.721 384.941 991.107 385.168C991.515 385.395 992.047 385.576 992.705 385.712C993.362 385.848 994.076 385.973 994.847 386.086C995.64 386.177 996.433 386.324 997.227 386.528C998.02 386.732 998.734 387.027 999.369 387.412C1000.03 387.775 1000.56 388.285 1000.97 388.942C1001.37 389.577 1001.58 390.415 1001.58 391.458C1001.58 392.591 1001.24 393.6 1000.56 394.484C999.879 395.345 998.893 396.025 997.601 396.524C996.331 397.023 994.779 397.272 992.943 397.272ZM1003.93 402.236L1006.18 394.076L1006.93 397.136C1005.95 397.136 1005.15 396.853 1004.51 396.286C1003.9 395.719 1003.59 394.937 1003.59 393.94C1003.59 392.943 1003.91 392.149 1004.55 391.56C1005.18 390.971 1005.96 390.676 1006.89 390.676C1007.84 390.676 1008.63 390.982 1009.24 391.594C1009.85 392.183 1010.16 392.965 1010.16 393.94C1010.16 394.235 1010.13 394.529 1010.09 394.824C1010.04 395.096 1009.95 395.436 1009.82 395.844C1009.7 396.229 1009.51 396.728 1009.24 397.34L1007.3 402.236H1003.93ZM1025.69 403.868C1024.74 403.868 1023.8 403.721 1022.87 403.426C1021.94 403.131 1021.18 402.723 1020.59 402.202L1022.53 398.428C1022.94 398.791 1023.4 399.074 1023.92 399.278C1024.47 399.482 1025 399.584 1025.52 399.584C1026.27 399.584 1026.86 399.403 1027.29 399.04C1027.74 398.7 1028.15 398.122 1028.51 397.306L1029.46 395.062L1029.87 394.484L1036.43 378.708H1041.53L1033.27 398.122C1032.68 399.595 1032 400.751 1031.23 401.59C1030.48 402.429 1029.65 403.018 1028.72 403.358C1027.81 403.698 1026.8 403.868 1025.69 403.868ZM1028.82 397.714L1020.66 378.708H1026.13L1032.46 394.008L1028.82 397.714ZM1051.9 397.272C1049.96 397.272 1048.22 396.864 1046.7 396.048C1045.21 395.232 1044.02 394.121 1043.13 392.716C1042.27 391.288 1041.84 389.667 1041.84 387.854C1041.84 386.018 1042.27 384.397 1043.13 382.992C1044.02 381.564 1045.21 380.453 1046.7 379.66C1048.22 378.844 1049.96 378.436 1051.9 378.436C1053.83 378.436 1055.55 378.844 1057.07 379.66C1058.59 380.453 1059.78 381.553 1060.64 382.958C1061.5 384.363 1061.93 385.995 1061.93 387.854C1061.93 389.667 1061.5 391.288 1060.64 392.716C1059.78 394.121 1058.59 395.232 1057.07 396.048C1055.55 396.864 1053.83 397.272 1051.9 397.272ZM1051.9 392.92C1052.79 392.92 1053.58 392.716 1054.28 392.308C1054.99 391.9 1055.54 391.322 1055.95 390.574C1056.36 389.803 1056.56 388.897 1056.56 387.854C1056.56 386.789 1056.36 385.882 1055.95 385.134C1055.54 384.386 1054.99 383.808 1054.28 383.4C1053.58 382.992 1052.79 382.788 1051.9 382.788C1051.02 382.788 1050.23 382.992 1049.52 383.4C1048.82 383.808 1048.26 384.386 1047.82 385.134C1047.42 385.882 1047.21 386.789 1047.21 387.854C1047.21 388.897 1047.42 389.803 1047.82 390.574C1048.26 391.322 1048.82 391.9 1049.52 392.308C1050.23 392.716 1051.02 392.92 1051.9 392.92ZM1073.2 397.272C1071.68 397.272 1070.32 396.977 1069.12 396.388C1067.94 395.799 1067.02 394.903 1066.36 393.702C1065.71 392.478 1065.38 390.925 1065.38 389.044V378.708H1070.68V388.262C1070.68 389.781 1071 390.903 1071.63 391.628C1072.29 392.331 1073.21 392.682 1074.39 392.682C1075.2 392.682 1075.93 392.512 1076.56 392.172C1077.2 391.809 1077.7 391.265 1078.06 390.54C1078.42 389.792 1078.6 388.863 1078.6 387.752V378.708H1083.91V397H1078.88V391.968L1079.79 393.43C1079.18 394.699 1078.28 395.663 1077.07 396.32C1075.9 396.955 1074.6 397.272 1073.2 397.272ZM1109.26 397.272C1107.72 397.272 1106.37 396.932 1105.22 396.252C1104.06 395.572 1103.15 394.541 1102.5 393.158C1101.86 391.753 1101.54 389.985 1101.54 387.854C1101.54 385.701 1101.85 383.933 1102.46 382.55C1103.07 381.167 1103.96 380.136 1105.11 379.456C1106.27 378.776 1107.65 378.436 1109.26 378.436C1110.99 378.436 1112.53 378.833 1113.89 379.626C1115.27 380.397 1116.36 381.485 1117.15 382.89C1117.97 384.295 1118.37 385.95 1118.37 387.854C1118.37 389.781 1117.97 391.447 1117.15 392.852C1116.36 394.257 1115.27 395.345 1113.89 396.116C1112.53 396.887 1110.99 397.272 1109.26 397.272ZM1098.45 403.596V378.708H1103.52V382.448L1103.41 387.888L1103.75 393.294V403.596H1098.45ZM1108.34 392.92C1109.23 392.92 1110.01 392.716 1110.69 392.308C1111.39 391.9 1111.95 391.322 1112.36 390.574C1112.79 389.803 1113 388.897 1113 387.854C1113 386.789 1112.79 385.882 1112.36 385.134C1111.95 384.386 1111.39 383.808 1110.69 383.4C1110.01 382.992 1109.23 382.788 1108.34 382.788C1107.46 382.788 1106.67 382.992 1105.96 383.4C1105.26 383.808 1104.71 384.386 1104.3 385.134C1103.89 385.882 1103.69 386.789 1103.69 387.854C1103.69 388.897 1103.89 389.803 1104.3 390.574C1104.71 391.322 1105.26 391.9 1105.96 392.308C1106.67 392.716 1107.46 392.92 1108.34 392.92ZM1132.85 397V393.43L1132.51 392.648V386.256C1132.51 385.123 1132.16 384.239 1131.45 383.604C1130.77 382.969 1129.72 382.652 1128.29 382.652C1127.32 382.652 1126.35 382.811 1125.4 383.128C1124.47 383.423 1123.68 383.831 1123.02 384.352L1121.12 380.646C1122.11 379.943 1123.32 379.399 1124.72 379.014C1126.13 378.629 1127.55 378.436 1129 378.436C1131.79 378.436 1133.96 379.093 1135.5 380.408C1137.04 381.723 1137.81 383.774 1137.81 386.562V397H1132.85ZM1127.27 397.272C1125.84 397.272 1124.62 397.034 1123.6 396.558C1122.58 396.059 1121.8 395.391 1121.25 394.552C1120.71 393.713 1120.44 392.773 1120.44 391.73C1120.44 390.642 1120.7 389.69 1121.22 388.874C1121.76 388.058 1122.61 387.423 1123.77 386.97C1124.92 386.494 1126.43 386.256 1128.29 386.256H1133.15V389.35H1128.87C1127.62 389.35 1126.76 389.554 1126.28 389.962C1125.83 390.37 1125.6 390.88 1125.6 391.492C1125.6 392.172 1125.87 392.716 1126.39 393.124C1126.93 393.509 1127.67 393.702 1128.6 393.702C1129.48 393.702 1130.27 393.498 1130.98 393.09C1131.68 392.659 1132.19 392.036 1132.51 391.22L1133.32 393.668C1132.94 394.847 1132.23 395.742 1131.21 396.354C1130.19 396.966 1128.88 397.272 1127.27 397.272ZM1148.77 397.272C1147.2 397.272 1145.69 397.091 1144.24 396.728C1142.82 396.343 1141.68 395.867 1140.84 395.3L1142.61 391.492C1143.45 392.013 1144.44 392.444 1145.57 392.784C1146.73 393.101 1147.86 393.26 1148.97 393.26C1150.19 393.26 1151.05 393.113 1151.55 392.818C1152.07 392.523 1152.34 392.115 1152.34 391.594C1152.34 391.163 1152.13 390.846 1151.72 390.642C1151.34 390.415 1150.82 390.245 1150.16 390.132C1149.5 390.019 1148.78 389.905 1147.98 389.792C1147.21 389.679 1146.43 389.531 1145.64 389.35C1144.84 389.146 1144.12 388.851 1143.46 388.466C1142.8 388.081 1142.27 387.559 1141.86 386.902C1141.48 386.245 1141.29 385.395 1141.29 384.352C1141.29 383.196 1141.61 382.176 1142.27 381.292C1142.95 380.408 1143.93 379.717 1145.2 379.218C1146.46 378.697 1147.98 378.436 1149.75 378.436C1151 378.436 1152.27 378.572 1153.56 378.844C1154.85 379.116 1155.93 379.513 1156.79 380.034L1155.02 383.808C1154.14 383.287 1153.24 382.935 1152.34 382.754C1151.45 382.55 1150.59 382.448 1149.75 382.448C1148.57 382.448 1147.71 382.607 1147.17 382.924C1146.62 383.241 1146.35 383.649 1146.35 384.148C1146.35 384.601 1146.54 384.941 1146.93 385.168C1147.34 385.395 1147.87 385.576 1148.53 385.712C1149.18 385.848 1149.9 385.973 1150.67 386.086C1151.46 386.177 1152.26 386.324 1153.05 386.528C1153.84 386.732 1154.56 387.027 1155.19 387.412C1155.85 387.775 1156.38 388.285 1156.79 388.942C1157.2 389.577 1157.4 390.415 1157.4 391.458C1157.4 392.591 1157.06 393.6 1156.38 394.484C1155.7 395.345 1154.72 396.025 1153.42 396.524C1152.15 397.023 1150.6 397.272 1148.77 397.272ZM1166.83 397.272C1165.26 397.272 1163.76 397.091 1162.31 396.728C1160.88 396.343 1159.74 395.867 1158.91 395.3L1160.67 391.492C1161.51 392.013 1162.5 392.444 1163.63 392.784C1164.79 393.101 1165.92 393.26 1167.03 393.26C1168.26 393.26 1169.12 393.113 1169.62 392.818C1170.14 392.523 1170.4 392.115 1170.4 391.594C1170.4 391.163 1170.19 390.846 1169.79 390.642C1169.4 390.415 1168.88 390.245 1168.22 390.132C1167.56 390.019 1166.84 389.905 1166.05 389.792C1165.27 389.679 1164.49 389.531 1163.7 389.35C1162.91 389.146 1162.18 388.851 1161.52 388.466C1160.87 388.081 1160.33 387.559 1159.93 386.902C1159.54 386.245 1159.35 385.395 1159.35 384.352C1159.35 383.196 1159.68 382.176 1160.33 381.292C1161.01 380.408 1161.99 379.717 1163.26 379.218C1164.53 378.697 1166.05 378.436 1167.81 378.436C1169.06 378.436 1170.33 378.572 1171.62 378.844C1172.91 379.116 1173.99 379.513 1174.85 380.034L1173.08 383.808C1172.2 383.287 1171.3 382.935 1170.4 382.754C1169.51 382.55 1168.65 382.448 1167.81 382.448C1166.63 382.448 1165.77 382.607 1165.23 382.924C1164.69 383.241 1164.41 383.649 1164.41 384.148C1164.41 384.601 1164.61 384.941 1164.99 385.168C1165.4 385.395 1165.93 385.576 1166.59 385.712C1167.25 385.848 1167.96 385.973 1168.73 386.086C1169.52 386.177 1170.32 386.324 1171.11 386.528C1171.9 386.732 1172.62 387.027 1173.25 387.412C1173.91 387.775 1174.44 388.285 1174.85 388.942C1175.26 389.577 1175.46 390.415 1175.46 391.458C1175.46 392.591 1175.12 393.6 1174.44 394.484C1173.76 395.345 1172.78 396.025 1171.49 396.524C1170.22 397.023 1168.66 397.272 1166.83 397.272ZM1187.81 397.272C1185.73 397.272 1183.89 396.864 1182.31 396.048C1180.74 395.232 1179.53 394.121 1178.67 392.716C1177.81 391.288 1177.38 389.667 1177.38 387.854C1177.38 386.018 1177.8 384.397 1178.63 382.992C1179.5 381.564 1180.66 380.453 1182.14 379.66C1183.61 378.844 1185.28 378.436 1187.13 378.436C1188.92 378.436 1190.53 378.821 1191.96 379.592C1193.41 380.34 1194.56 381.428 1195.4 382.856C1196.23 384.261 1196.65 385.95 1196.65 387.922C1196.65 388.126 1196.64 388.364 1196.62 388.636C1196.6 388.885 1196.57 389.123 1196.55 389.35H1181.69V386.256H1193.76L1191.72 387.174C1191.72 386.222 1191.53 385.395 1191.15 384.692C1190.76 383.989 1190.23 383.445 1189.55 383.06C1188.87 382.652 1188.07 382.448 1187.17 382.448C1186.26 382.448 1185.46 382.652 1184.75 383.06C1184.07 383.445 1183.54 384.001 1183.16 384.726C1182.77 385.429 1182.58 386.267 1182.58 387.242V388.058C1182.58 389.055 1182.79 389.939 1183.22 390.71C1183.68 391.458 1184.3 392.036 1185.09 392.444C1185.91 392.829 1186.86 393.022 1187.95 393.022C1188.92 393.022 1189.77 392.875 1190.5 392.58C1191.25 392.285 1191.93 391.843 1192.54 391.254L1195.36 394.314C1194.52 395.266 1193.47 396.003 1192.2 396.524C1190.93 397.023 1189.47 397.272 1187.81 397.272ZM1208.04 397.272C1206.32 397.272 1204.76 396.887 1203.38 396.116C1202 395.323 1200.9 394.223 1200.08 392.818C1199.29 391.413 1198.89 389.758 1198.89 387.854C1198.89 385.927 1199.29 384.261 1200.08 382.856C1200.9 381.451 1202 380.363 1203.38 379.592C1204.76 378.821 1206.32 378.436 1208.04 378.436C1209.58 378.436 1210.93 378.776 1212.09 379.456C1213.24 380.136 1214.14 381.167 1214.77 382.55C1215.41 383.933 1215.72 385.701 1215.72 387.854C1215.72 389.985 1215.42 391.753 1214.81 393.158C1214.19 394.541 1213.31 395.572 1212.15 396.252C1211.02 396.932 1209.65 397.272 1208.04 397.272ZM1208.96 392.92C1209.82 392.92 1210.6 392.716 1211.3 392.308C1212.01 391.9 1212.56 391.322 1212.97 390.574C1213.4 389.803 1213.62 388.897 1213.62 387.854C1213.62 386.789 1213.4 385.882 1212.97 385.134C1212.56 384.386 1212.01 383.808 1211.3 383.4C1210.6 382.992 1209.82 382.788 1208.96 382.788C1208.07 382.788 1207.28 382.992 1206.58 383.4C1205.87 383.808 1205.31 384.386 1204.88 385.134C1204.47 385.882 1204.27 386.789 1204.27 387.854C1204.27 388.897 1204.47 389.803 1204.88 390.574C1205.31 391.322 1205.87 391.9 1206.58 392.308C1207.28 392.716 1208.07 392.92 1208.96 392.92ZM1213.75 397V393.26L1213.85 387.82L1213.51 382.414V371.772H1218.82V397H1213.75ZM1224.1 388.738L1223.05 373.2H1229.37L1228.32 388.738H1224.1ZM1226.21 397.272C1225.26 397.272 1224.47 396.966 1223.86 396.354C1223.25 395.742 1222.94 395.017 1222.94 394.178C1222.94 393.317 1223.25 392.603 1223.86 392.036C1224.47 391.447 1225.26 391.152 1226.21 391.152C1227.18 391.152 1227.96 391.447 1228.55 392.036C1229.17 392.603 1229.47 393.317 1229.47 394.178C1229.47 395.017 1229.17 395.742 1228.55 396.354C1227.96 396.966 1227.18 397.272 1226.21 397.272Z" fill="white"/>
<path d="M1748.84 568C1719.89 556.653 1662 507.141 1662 399.874C1678.67 398.484 1719.39 390.564 1748.84 370C1764.96 386.118 1812.06 396.632 1833.6 399.874C1833.6 500.611 1777.33 556.884 1748.84 568Z" fill="#746287"/>
<path d="M1748.98 546C1726.32 537.117 1681 498.358 1681 414.386C1694.05 413.298 1725.92 407.098 1748.98 391C1761.6 403.618 1798.47 411.848 1815.33 414.386C1815.33 493.246 1771.28 537.298 1748.98 546Z" fill="#B59FB0"/>
<path d="M171.842 569C142.895 557.653 85 508.141 85 400.874C101.674 399.484 142.385 391.564 171.842 371C187.96 387.118 235.063 397.632 256.6 400.874C256.6 501.611 200.326 557.884 171.842 569Z" fill="#746287"/>
<path d="M171.982 547C149.322 538.117 104 499.358 104 415.386C117.053 414.298 148.923 408.098 171.982 392C184.6 404.618 221.474 412.848 238.333 415.386C238.333 494.246 194.281 538.298 171.982 547Z" fill="#B59FB0"/>
</g>
<defs>
<clipPath id="clip0_2670_1918">
<rect width="1920" height="1080" fill="white"/>
</clipPath>
</defs>
</svg>
