<svg width="1920" height="1080" fill="none" xmlns="http://www.w3.org/2000/svg">
<g clip-path="url(#clip0_2670_2153)">
<rect width="1920" height="1080" fill="#505370"/>
<path d="M2451.23 130.065H-412.637V957.855H-289.804V457.41C-289.804 361.373 -198.232 283.49 -19.6872 283.49H369.426C547.747 283.49 641.805 361.373 641.805 457.41V957.855H1297.41V457.41C1297.41 361.373 1441.94 283.49 1620.49 283.49H2005.54C2183.86 283.49 2328.62 361.373 2328.62 457.41V957.855H2451.46V130.065H2451.23Z" fill="#A977AB" fill-opacity="0.4"/>
<path d="M2048 963H-68V1078H2048V963Z" fill="#746287" fill-opacity="0.61"/>
<path d="M374.687 723.076C372.958 723.076 371.544 724.024 370.758 725.446H267.035C266.249 724.024 264.835 723.076 263.106 723.076C260.591 723.076 258.548 725.129 258.548 727.657C258.548 730.185 260.591 732.24 263.106 732.24C264.835 732.24 266.249 731.292 267.035 729.87H270.335V734.925V736.347V918.358L318.896 890.077L367.457 918.358V736.347V734.925V729.87H370.758C371.544 731.292 372.958 732.24 374.687 732.24C377.201 732.24 379.244 730.185 379.244 727.657C379.244 725.129 377.201 723.076 374.687 723.076ZM362.428 735.083H275.207V730.027H362.428V735.083Z" fill="#746287"/>
<path d="M334.13 829.723H326.272L326.743 776.478L319.514 762.417L311.971 776.32L311.499 829.565H303.484C301.598 829.565 300.027 831.145 300.027 833.041C300.027 834.937 301.598 836.517 303.484 836.517H313.071L312.914 853.738C310.713 856.108 310.242 859.742 311.814 862.586C313.857 866.378 318.571 867.642 322.186 865.588C325.958 863.534 327.215 858.794 325.172 855.16C324.858 854.686 324.543 854.054 324.072 853.738V851.684V850.104V847.734V846.154V843.784V842.204V839.677V838.097V836.517H333.658C335.544 836.517 337.116 834.937 337.116 833.041C337.587 831.303 336.016 829.723 334.13 829.723Z" fill="#B59FB0"/>
<path d="M1672.09 703.235C1670.36 703.235 1668.94 704.183 1668.16 705.605H1564.43C1563.65 704.183 1562.23 703.235 1560.5 703.235C1557.99 703.235 1555.95 705.289 1555.95 707.817C1555.95 710.345 1557.99 712.399 1560.5 712.399C1562.23 712.399 1563.65 711.451 1564.43 710.029H1567.73V715.085V716.507V898.518L1616.3 870.236L1664.86 898.518V716.507V715.085V710.029H1668.16C1668.94 711.451 1670.36 712.399 1672.09 712.399C1674.6 712.399 1676.64 710.345 1676.64 707.817C1676.64 705.289 1674.6 703.235 1672.09 703.235ZM1659.83 715.243H1572.61V710.187H1659.83V715.243Z" fill="#746287"/>
<path d="M1631.52 809.882H1623.66L1624.13 756.638L1616.91 742.576L1609.36 756.48L1608.89 809.724H1600.88C1598.99 809.724 1597.42 811.304 1597.42 813.2C1597.42 815.096 1598.99 816.676 1600.88 816.676H1610.46L1610.3 833.898C1608.1 836.267 1607.63 839.902 1609.2 842.745C1611.25 846.537 1615.96 847.801 1619.58 845.747C1623.35 843.693 1624.61 838.954 1622.56 835.32C1622.25 834.846 1621.93 834.214 1621.46 833.898V831.844V830.264V827.894V826.314V823.944V822.364V819.836V818.256V816.676H1631.05C1632.94 816.676 1634.51 815.096 1634.51 813.2C1634.98 811.462 1633.41 809.882 1631.52 809.882Z" fill="#B59FB0"/>
<path d="M167.584 143.101H30.3477C26.6717 143.101 23.6084 140.021 23.6084 136.325V74.4236C23.6084 70.728 26.6717 67.6484 30.3477 67.6484H167.584C171.26 67.6484 174.324 70.728 174.324 74.4236V136.325C174.324 140.021 171.26 143.101 167.584 143.101Z" fill="#C3ABC3"/>
<path d="M321.055 143.101H183.819C180.143 143.101 177.08 140.021 177.08 136.325V74.4236C177.08 70.728 180.143 67.6484 183.819 67.6484H321.055C324.731 67.6484 327.795 70.728 327.795 74.4236V136.325C327.795 140.021 324.885 143.101 321.055 143.101Z" fill="#C3ABC3"/>
<path d="M474.518 143.101H337.281C333.605 143.101 330.542 140.021 330.542 136.325V74.4236C330.542 70.728 333.605 67.6484 337.281 67.6484H474.518C478.194 67.6484 481.257 70.728 481.257 74.4236V136.325C481.41 140.021 478.347 143.101 474.518 143.101Z" fill="#C3ABC3"/>
<path d="M628.008 143.101H490.771C487.095 143.101 484.032 140.021 484.032 136.325V74.4236C484.032 70.728 487.095 67.6484 490.771 67.6484H628.008C631.684 67.6484 634.747 70.728 634.747 74.4236V136.325C634.9 140.021 631.837 143.101 628.008 143.101Z" fill="#C3ABC3"/>
<path d="M781.636 143.101H644.399C640.723 143.101 637.66 140.021 637.66 136.325V74.4236C637.66 70.728 640.723 67.6484 644.399 67.6484H781.636C785.312 67.6484 788.375 70.728 788.375 74.4236V136.325C788.375 140.021 785.312 143.101 781.636 143.101Z" fill="#C3ABC3"/>
<path d="M935.098 143.101H797.861C794.185 143.101 791.122 140.021 791.122 136.325V74.4236C791.122 70.728 794.185 67.6484 797.861 67.6484H935.098C938.774 67.6484 941.837 70.728 941.837 74.4236V136.325C941.837 140.021 938.774 143.101 935.098 143.101Z" fill="#C3ABC3"/>
<path d="M1088.57 143.101H951.333C947.657 143.101 944.594 140.021 944.594 136.325V74.4236C944.594 70.728 947.657 67.6484 951.333 67.6484H1088.57C1092.25 67.6484 1095.31 70.728 1095.31 74.4236V136.325C1095.31 140.021 1092.25 143.101 1088.57 143.101Z" fill="#C3ABC3"/>
<path d="M1242.03 143.101H1104.79C1101.12 143.101 1098.06 140.021 1098.06 136.325V74.4236C1098.06 70.728 1101.12 67.6484 1104.79 67.6484H1242.03C1245.71 67.6484 1248.77 70.728 1248.77 74.4236V136.325C1248.77 140.021 1245.86 143.101 1242.03 143.101Z" fill="#C3ABC3"/>
<path d="M1395.52 143.101H1258.28C1254.61 143.101 1251.54 140.021 1251.54 136.325V74.4236C1251.54 70.728 1254.61 67.6484 1258.28 67.6484H1395.52C1399.2 67.6484 1402.26 70.728 1402.26 74.4236V136.325C1402.41 140.021 1399.35 143.101 1395.52 143.101Z" fill="#C3ABC3"/>
<path d="M1548.98 143.101H1411.75C1408.07 143.101 1405.01 140.021 1405.01 136.325V74.4236C1405.01 70.728 1408.07 67.6484 1411.75 67.6484H1548.98C1552.66 67.6484 1555.72 70.728 1555.72 74.4236V136.325C1555.88 140.021 1552.81 143.101 1548.98 143.101Z" fill="#C3ABC3"/>
<path d="M1702.62 143.101H1565.38C1561.71 143.101 1558.65 140.021 1558.65 136.325V74.4236C1558.65 70.728 1561.71 67.6484 1565.38 67.6484H1702.62C1706.3 67.6484 1709.36 70.728 1709.36 74.4236V136.325C1709.36 140.021 1706.3 143.101 1702.62 143.101Z" fill="#C3ABC3"/>
<path d="M1856.08 143.101H1718.85C1715.17 143.101 1712.11 140.021 1712.11 136.325V74.4236C1712.11 70.728 1715.17 67.6484 1718.85 67.6484H1856.08C1859.76 67.6484 1862.82 70.728 1862.82 74.4236V136.325C1862.82 140.021 1859.76 143.101 1856.08 143.101Z" fill="#C3ABC3"/>
<path d="M2009.57 143.101H1872.34C1868.66 143.101 1865.6 140.021 1865.6 136.325V74.4236C1865.6 70.728 1868.66 67.6484 1872.34 67.6484H2009.57C2013.25 67.6484 2016.31 70.728 2016.31 74.4236V136.325C2016.31 140.021 2013.25 143.101 2009.57 143.101Z" fill="#C3ABC3"/>
<path d="M167.584 143.452H30.3477C26.6717 143.452 23.6084 140.372 23.6084 136.677V74.7751C23.6084 71.0795 26.6717 68 30.3477 68H167.584C171.26 68 174.324 71.0795 174.324 74.7751V136.677C174.324 140.372 171.26 143.452 167.584 143.452Z" fill="#C3ABC3"/>
<path d="M321.055 143.452H183.819C180.143 143.452 177.08 140.372 177.08 136.677V74.7751C177.08 71.0795 180.143 68 183.819 68H321.055C324.731 68 327.795 71.0795 327.795 74.7751V136.677C327.795 140.372 324.885 143.452 321.055 143.452Z" fill="#C3ABC3"/>
<path d="M474.518 143.452H337.281C333.605 143.452 330.542 140.372 330.542 136.677V74.7751C330.542 71.0795 333.605 68 337.281 68H474.518C478.194 68 481.257 71.0795 481.257 74.7751V136.677C481.41 140.372 478.347 143.452 474.518 143.452Z" fill="#C3ABC3"/>
<path d="M628.008 143.452H490.771C487.095 143.452 484.032 140.372 484.032 136.677V74.7751C484.032 71.0795 487.095 68 490.771 68H628.008C631.684 68 634.747 71.0795 634.747 74.7751V136.677C634.9 140.372 631.837 143.452 628.008 143.452Z" fill="#C3ABC3"/>
<path d="M781.636 143.452H644.399C640.723 143.452 637.66 140.372 637.66 136.677V74.7751C637.66 71.0795 640.723 68 644.399 68H781.636C785.312 68 788.375 71.0795 788.375 74.7751V136.677C788.375 140.372 785.312 143.452 781.636 143.452Z" fill="#C3ABC3"/>
<path d="M935.098 143.452H797.861C794.185 143.452 791.122 140.372 791.122 136.677V74.7751C791.122 71.0795 794.185 68 797.861 68H935.098C938.774 68 941.837 71.0795 941.837 74.7751V136.677C941.837 140.372 938.774 143.452 935.098 143.452Z" fill="#C3ABC3"/>
<path d="M1088.57 143.452H951.333C947.657 143.452 944.594 140.372 944.594 136.677V74.7751C944.594 71.0795 947.657 68 951.333 68H1088.57C1092.25 68 1095.31 71.0795 1095.31 74.7751V136.677C1095.31 140.372 1092.25 143.452 1088.57 143.452Z" fill="#C3ABC3"/>
<path d="M1242.03 143.452H1104.79C1101.12 143.452 1098.06 140.372 1098.06 136.677V74.7751C1098.06 71.0795 1101.12 68 1104.79 68H1242.03C1245.71 68 1248.77 71.0795 1248.77 74.7751V136.677C1248.77 140.372 1245.86 143.452 1242.03 143.452Z" fill="#C3ABC3"/>
<path d="M1395.52 143.452H1258.28C1254.61 143.452 1251.54 140.372 1251.54 136.677V74.7751C1251.54 71.0795 1254.61 68 1258.28 68H1395.52C1399.2 68 1402.26 71.0795 1402.26 74.7751V136.677C1402.41 140.372 1399.35 143.452 1395.52 143.452Z" fill="#C3ABC3"/>
<path d="M1548.98 143.452H1411.75C1408.07 143.452 1405.01 140.372 1405.01 136.677V74.7751C1405.01 71.0795 1408.07 68 1411.75 68H1548.98C1552.66 68 1555.72 71.0795 1555.72 74.7751V136.677C1555.88 140.372 1552.81 143.452 1548.98 143.452Z" fill="#C3ABC3"/>
<path d="M1702.62 143.452H1565.38C1561.71 143.452 1558.65 140.372 1558.65 136.677V74.7751C1558.65 71.0795 1561.71 68 1565.38 68H1702.62C1706.3 68 1709.36 71.0795 1709.36 74.7751V136.677C1709.36 140.372 1706.3 143.452 1702.62 143.452Z" fill="#C3ABC3"/>
<path d="M1856.08 143.452H1718.85C1715.17 143.452 1712.11 140.372 1712.11 136.677V74.7751C1712.11 71.0795 1715.17 68 1718.85 68H1856.08C1859.76 68 1862.82 71.0795 1862.82 74.7751V136.677C1862.82 140.372 1859.76 143.452 1856.08 143.452Z" fill="#C3ABC3"/>
<path d="M2009.57 143.452H1872.34C1868.66 143.452 1865.6 140.372 1865.6 136.677V74.7751C1865.6 71.0795 1868.66 68 1872.34 68H2009.57C2013.25 68 2016.31 71.0795 2016.31 74.7751V136.677C2016.31 140.372 2013.25 143.452 2009.57 143.452Z" fill="#C3ABC3"/>
<path d="M13.9758 143.452H-123.261C-126.937 143.452 -130 140.372 -130 136.677V74.7751C-130 71.0795 -126.937 68 -123.261 68H13.9758C17.6518 68 20.7151 71.0795 20.7151 74.7751V136.677C20.7151 140.372 17.6518 143.452 13.9758 143.452Z" fill="#C3ABC3"/>
<path d="M357.041 60.8127H246.432C243.469 60.8127 241 58.3306 241 55.352V5.46077C241 2.48218 243.469 0 246.432 0H357.041C360.004 0 362.473 2.48218 362.473 5.46077V55.352C362.597 58.4547 360.128 60.8127 357.041 60.8127Z" fill="#C3ABC3"/>
<path d="M108.041 60.8127H-2.56828C-5.53104 60.8127 -8 58.3306 -8 55.352V5.46077C-8 2.48218 -5.53104 0 -2.56828 0H108.041C111.004 0 113.473 2.48218 113.473 5.46077V55.352C113.597 58.4547 111.128 60.8127 108.041 60.8127Z" fill="#C3ABC3"/>
<path d="M606.041 62.0689H495.432C492.469 62.0689 490 59.5867 490 56.6081V6.71693C490 3.73835 492.469 1.25616 495.432 1.25616H606.041C609.004 1.25616 611.473 3.73835 611.473 6.71693V56.6081C611.473 59.7108 609.004 62.0689 606.041 62.0689Z" fill="#C3ABC3"/>
<path d="M855.041 62.0689H744.432C741.469 62.0689 739 59.5867 739 56.6081V6.71693C739 3.73835 741.469 1.25616 744.432 1.25616H855.041C858.004 1.25616 860.473 3.73835 860.473 6.71693V56.6081C860.473 59.7108 858.004 62.0689 855.041 62.0689Z" fill="#C3ABC3"/>
<path d="M1104.04 62.0689H993.432C990.469 62.0689 988 59.5867 988 56.6081V6.71693C988 3.73835 990.469 1.25616 993.432 1.25616H1104.04C1107 1.25616 1109.47 3.73835 1109.47 6.71693V56.6081C1109.47 59.7108 1107 62.0689 1104.04 62.0689Z" fill="#C3ABC3"/>
<path d="M1353.04 62.0689H1242.43C1239.47 62.0689 1237 59.5867 1237 56.6081V6.71693C1237 3.73835 1239.47 1.25616 1242.43 1.25616H1353.04C1356 1.25616 1358.47 3.73835 1358.47 6.71693V56.6081C1358.6 59.7108 1356.13 62.0689 1353.04 62.0689Z" fill="#C3ABC3"/>
<path d="M1602.04 62.0689H1491.43C1488.47 62.0689 1486 59.5867 1486 56.6081V6.71693C1486 3.73835 1488.47 1.25616 1491.43 1.25616H1602.04C1605 1.25616 1607.47 3.73835 1607.47 6.71693V56.6081C1607.47 59.7108 1605.13 62.0689 1602.04 62.0689Z" fill="#C3ABC3"/>
<path d="M245.128 1098.91H105.023C101.27 1098.91 98.1426 1095.88 98.1426 1092.24V1031.26C98.1426 1027.61 101.27 1024.58 105.023 1024.58H245.128C248.881 1024.58 252.008 1027.61 252.008 1031.26V1092.24C252.008 1095.88 248.881 1098.91 245.128 1098.91Z" fill="#C3ABC3"/>
<path d="M87.9853 1098.91H-52.1198C-55.8727 1098.91 -59 1095.88 -59 1092.24V1031.26C-59 1027.61 -55.8727 1024.58 -52.1198 1024.58H87.9853C91.7381 1024.58 94.8654 1027.61 94.8654 1031.26V1092.24C94.8654 1095.88 91.7381 1098.91 87.9853 1098.91Z" fill="#C3ABC3"/>
<path d="M401.808 1098.91H261.702C257.95 1098.91 254.822 1095.88 254.822 1092.24V1031.26C254.822 1027.61 257.95 1024.58 261.702 1024.58H401.808C405.56 1024.58 408.688 1027.61 408.688 1031.26V1092.24C408.688 1095.88 405.717 1098.91 401.808 1098.91Z" fill="#C3ABC3"/>
<path d="M558.478 1098.91H418.373C414.621 1098.91 411.493 1095.88 411.493 1092.24V1031.26C411.493 1027.61 414.621 1024.58 418.373 1024.58H558.478C562.231 1024.58 565.359 1027.61 565.359 1031.26V1092.24C565.515 1095.88 562.388 1098.91 558.478 1098.91Z" fill="#C3ABC3"/>
<path d="M715.167 1098.91H575.062C571.309 1098.91 568.182 1095.88 568.182 1092.24V1031.26C568.182 1027.61 571.309 1024.58 575.062 1024.58H715.167C718.92 1024.58 722.047 1027.61 722.047 1031.26V1092.24C722.203 1095.88 719.076 1098.91 715.167 1098.91Z" fill="#C3ABC3"/>
<path d="M872.015 1098.91H731.909C728.157 1098.91 725.029 1095.88 725.029 1092.24V1031.26C725.029 1027.61 728.157 1024.58 731.909 1024.58H872.015C875.767 1024.58 878.895 1027.61 878.895 1031.26V1092.24C878.895 1095.88 875.767 1098.91 872.015 1098.91Z" fill="#C3ABC3"/>
<path d="M1028.69 1098.91H888.58C884.828 1098.91 881.7 1095.88 881.7 1092.24V1031.26C881.7 1027.61 884.828 1024.58 888.58 1024.58H1028.69C1032.44 1024.58 1035.57 1027.61 1035.57 1031.26V1092.24C1035.57 1095.88 1032.44 1098.91 1028.69 1098.91Z" fill="#C3ABC3"/>
<path d="M1185.37 1098.91H1045.26C1041.51 1098.91 1038.38 1095.88 1038.38 1092.24V1031.26C1038.38 1027.61 1041.51 1024.58 1045.26 1024.58H1185.37C1189.12 1024.58 1192.25 1027.61 1192.25 1031.26V1092.24C1192.25 1095.88 1189.12 1098.91 1185.37 1098.91Z" fill="#C3ABC3"/>
<path d="M1342.04 1098.91H1201.93C1198.18 1098.91 1195.05 1095.88 1195.05 1092.24V1031.26C1195.05 1027.61 1198.18 1024.58 1201.93 1024.58H1342.04C1345.79 1024.58 1348.92 1027.61 1348.92 1031.26V1092.24C1348.92 1095.88 1345.95 1098.91 1342.04 1098.91Z" fill="#C3ABC3"/>
<path d="M1498.72 1098.91H1358.62C1354.87 1098.91 1351.74 1095.88 1351.74 1092.24V1031.26C1351.74 1027.61 1354.87 1024.58 1358.62 1024.58H1498.72C1502.48 1024.58 1505.6 1027.61 1505.6 1031.26V1092.24C1505.76 1095.88 1502.63 1098.91 1498.72 1098.91Z" fill="#C3ABC3"/>
<path d="M1655.39 1098.91H1515.29C1511.54 1098.91 1508.41 1095.88 1508.41 1092.24V1031.26C1508.41 1027.61 1511.54 1024.58 1515.29 1024.58H1655.39C1659.15 1024.58 1662.27 1027.61 1662.27 1031.26V1092.24C1662.43 1095.88 1659.3 1098.91 1655.39 1098.91Z" fill="#C3ABC3"/>
<path d="M1812.25 1098.91H1672.15C1668.39 1098.91 1665.27 1095.88 1665.27 1092.24V1031.26C1665.27 1027.61 1668.39 1024.58 1672.15 1024.58H1812.25C1816 1024.58 1819.13 1027.61 1819.13 1031.26V1092.24C1819.13 1095.88 1816 1098.91 1812.25 1098.91Z" fill="#C3ABC3"/>
<path d="M1968.92 1098.91H1828.82C1825.06 1098.91 1821.94 1095.88 1821.94 1092.24V1031.26C1821.94 1027.61 1825.06 1024.58 1828.82 1024.58H1968.92C1972.68 1024.58 1975.8 1027.61 1975.8 1031.26V1092.24C1975.8 1095.88 1972.68 1098.91 1968.92 1098.91Z" fill="#C3ABC3"/>
<path d="M1851.04 63.0173H1740.43C1737.47 63.0173 1735 60.5351 1735 57.5565V7.6653C1735 4.68671 1737.47 2.20453 1740.43 2.20453H1851.04C1854 2.20453 1856.47 4.68671 1856.47 7.6653V57.5565C1856.47 60.6592 1854 63.0173 1851.04 63.0173Z" fill="#C3ABC3"/>
<path opacity="0.24" d="M610.774 582.887C613.456 582.887 615.631 580.7 615.631 578.001C615.631 575.303 613.456 573.116 610.774 573.116C608.091 573.116 605.917 575.303 605.917 578.001C605.917 580.7 608.091 582.887 610.774 582.887Z" fill="#FFFACC"/>
<path opacity="0.24" d="M-9.78682 436.567C-3.41088 436.567 1.75779 431.369 1.75779 424.955C1.75779 418.542 -3.41088 413.344 -9.78682 413.344C-16.1628 413.344 -21.3315 418.542 -21.3315 424.955C-21.3315 431.369 -16.1628 436.567 -9.78682 436.567Z" fill="#FFFACC"/>
<path opacity="0.24" d="M691.713 655.915C698.089 655.915 703.258 650.716 703.258 644.303C703.258 637.89 698.089 632.691 691.713 632.691C685.337 632.691 680.168 637.89 680.168 644.303C680.168 650.716 685.337 655.915 691.713 655.915Z" fill="#FFFACC"/>
<path opacity="0.24" d="M1108.55 459.599C1111.03 460.643 1113.87 459.472 1114.91 456.984C1115.95 454.496 1114.79 451.633 1112.31 450.589C1109.84 449.546 1106.99 450.716 1105.95 453.204C1104.92 455.692 1106.08 458.556 1108.55 459.599Z" fill="#FFFACC"/>
<path opacity="0.24" d="M592.624 83.224C598.504 85.7048 605.27 82.9219 607.737 77.0083C610.205 71.0947 607.439 64.2897 601.56 61.8089C595.68 59.3281 588.914 62.1109 586.446 68.0246C583.979 73.9382 586.745 80.7432 592.624 83.224Z" fill="#FFFACC"/>
<path opacity="0.24" d="M1155.09 558.432C1160.97 560.913 1167.74 558.13 1170.2 552.217C1172.67 546.303 1169.91 539.498 1164.03 537.017C1158.15 534.536 1151.38 537.319 1148.91 543.233C1146.45 549.147 1149.21 555.952 1155.09 558.432Z" fill="#FFFACC"/>
<path opacity="0.4" d="M391.381 108.198C394.73 109.611 398.585 108.027 399.99 104.659C401.395 101.291 399.819 97.4146 396.47 96.0014C393.121 94.5882 389.267 96.1729 387.861 99.5409C386.456 102.909 388.032 106.785 391.381 108.198Z" fill="#FFFACC"/>
<path opacity="0.24" d="M1187.69 624.816C1190.14 624.816 1192.12 622.831 1192.12 620.383C1192.12 617.936 1190.14 615.951 1187.69 615.951C1185.24 615.951 1183.26 617.936 1183.26 620.383C1183.26 622.831 1185.24 624.816 1187.69 624.816Z" fill="#FFFACC"/>
<path opacity="0.24" d="M1261.53 691.07C1267.35 691.07 1272.07 686.353 1272.07 680.535C1272.07 674.717 1267.35 670 1261.53 670C1255.72 670 1251 674.717 1251 680.535C1251 686.353 1255.72 691.07 1261.53 691.07Z" fill="#FFFACC"/>
<path opacity="0.24" d="M1641.83 512.965C1644.09 513.912 1646.68 512.85 1647.63 510.592C1648.58 508.335 1647.51 505.738 1645.26 504.791C1643 503.844 1640.4 504.906 1639.46 507.163C1638.51 509.42 1639.57 512.018 1641.83 512.965Z" fill="#FFFACC"/>
<path opacity="0.24" d="M1171.13 171.504C1176.49 173.754 1182.67 171.23 1184.92 165.865C1187.17 160.5 1184.65 154.326 1179.28 152.075C1173.92 149.825 1167.75 152.349 1165.49 157.714C1163.24 163.079 1165.77 169.253 1171.13 171.504Z" fill="#FFFACC"/>
<path opacity="0.24" d="M1684.29 602.63C1689.65 604.88 1695.82 602.356 1698.07 596.991C1700.33 591.626 1697.8 585.452 1692.44 583.201C1687.07 580.951 1680.9 583.475 1678.65 588.84C1676.4 594.205 1678.92 600.379 1684.29 602.63Z" fill="#FFFACC"/>
<path opacity="0.4" d="M987.53 194.161C990.586 195.443 994.102 194.006 995.385 190.95C996.667 187.894 995.229 184.378 992.173 183.096C989.118 181.814 985.601 183.251 984.319 186.307C983.037 189.363 984.475 192.879 987.53 194.161Z" fill="#FFFACC"/>
<path d="M803.997 635.1C832.409 659.017 873.709 655.995 915.809 647.107C1015.77 626.001 1074.81 694.701 1147.47 766.533C1212.67 830.999 1300.08 862.596 1376 849C1085.24 799.593 1228.69 657.907 1139 467C1095.8 385.261 876.692 389.234 808.499 425.271C740.305 461.308 734.694 576.759 803.997 635.1Z" fill="#B7D6D6" fill-opacity="0.3"/>
<path d="M1514.9 585.941C1517.36 580.565 1525 580.565 1527.46 585.941L1588.17 718.469C1590.26 723.045 1586.92 728.255 1581.89 728.255H1460.48C1455.44 728.255 1452.1 723.045 1454.2 718.469L1514.9 585.941Z" fill="#914E8D"/>
<path d="M1581.12 598.782C1586.81 600.406 1587.96 607.96 1583.01 611.203L1548.79 633.636L1523.1 582.207L1581.12 598.782Z" fill="#914E8D"/>
<path d="M1475.56 667.915C1475.92 666.907 1476.75 666.14 1477.79 665.859C1505.74 658.262 1535.21 658.199 1563.2 665.675L1563.88 665.855C1564.94 666.138 1565.79 666.924 1566.16 667.956L1578.07 701.333C1578.96 703.832 1577.11 706.462 1574.46 706.462H1467.14C1464.49 706.462 1462.63 703.824 1463.53 701.323L1475.56 667.915Z" fill="#004042"/>
<ellipse cx="1526.17" cy="749.557" rx="141.25" ry="69.0895" fill="#B274AE"/>
<ellipse cx="1526.17" cy="760.305" rx="96.7253" ry="42.989" fill="#004042"/>
<path d="M1388.76 737.412C1421.97 727.204 1457.77 745.664 1467.97 778.871C1468.08 779.203 1467.89 779.555 1467.56 779.658C1434.35 789.866 1398.97 770.62 1388.76 737.412Z" fill="#E28EAE"/>
<path d="M1676.63 737.412C1643.43 727.204 1607.63 745.664 1597.42 778.871C1597.32 779.203 1597.51 779.555 1597.84 779.658C1631.05 789.866 1666.43 770.62 1676.63 737.412Z" fill="#E28EAE"/>
<path d="M1394.13 862.38C1427.34 872.588 1463.13 854.128 1473.34 820.921C1473.44 820.589 1473.26 820.237 1472.92 820.135C1439.72 809.927 1404.34 829.173 1394.13 862.38Z" fill="#E28EAE"/>
<path d="M1671.26 862.38C1638.05 872.588 1602.25 854.128 1592.04 820.921C1591.94 820.589 1592.13 820.237 1592.46 820.135C1625.67 809.927 1661.05 829.173 1671.26 862.38Z" fill="#E28EAE"/>
<path d="M1369.52 804.052C1392.7 778.175 1432.89 775.521 1458.77 798.702C1459.03 798.933 1459.05 799.331 1458.82 799.59C1435.64 825.466 1395.4 827.232 1369.52 804.052Z" fill="#E28EAE"/>
<path d="M1695.86 804.052C1672.68 778.175 1632.49 775.521 1606.62 798.702C1606.36 798.933 1606.34 799.331 1606.57 799.59C1629.75 825.466 1669.98 827.232 1695.86 804.052Z" fill="#E28EAE"/>
<rect x="1400.19" y="749.133" width="10.6047" height="80.4712" rx="5.30237" transform="rotate(-62.0876 1400.19 749.133)" fill="#EAD1D0"/>
<rect width="10.6047" height="80.4712" rx="5.30237" transform="matrix(-0.468121 -0.883664 -0.883664 0.468121 1665.18 749.133)" fill="#EAD1D0"/>
<rect width="10.6047" height="80.4712" rx="5.30237" transform="matrix(0.468121 0.883664 0.883664 -0.468121 1405.57 850.659)" fill="#EAD1D0"/>
<rect x="1659.81" y="850.659" width="10.6047" height="80.4712" rx="5.30237" transform="rotate(117.912 1659.81 850.659)" fill="#EAD1D0"/>
<path d="M1448.64 961.324H1614.45C1594.26 978.661 1568.54 988.193 1541.93 988.193H1521.16C1494.55 988.193 1468.82 978.661 1448.64 961.324Z" fill="#914E8D"/>
<rect x="1385.38" y="808.191" width="10.6047" height="80.4712" rx="5.30237" transform="rotate(-93.1458 1385.38 808.191)" fill="#EAD1D0"/>
<rect width="10.6047" height="80.4712" rx="5.30237" transform="matrix(0.0548769 -0.998493 -0.998493 -0.0548769 1680.01 808.191)" fill="#EAD1D0"/>
<path d="M1442.97 785.449C1451.31 755.119 1478.88 734.098 1510.34 734.098H1546.77C1579.57 734.098 1607.95 756.922 1615 788.96C1624.57 832.544 1591.39 873.812 1546.77 873.812H1510.34C1464.22 873.812 1430.76 829.917 1442.97 785.449Z" fill="#EAD1D0"/>
<path d="M1455.54 788.602V788.602C1477.21 798.076 1502.32 795.037 1521.1 780.666L1524.48 778.084C1525.25 777.494 1526.31 777.489 1527.09 778.07L1530.42 780.561C1549.76 795.038 1575.35 798.103 1597.55 788.602V788.602" stroke="#A53459" stroke-width="2.30298" stroke-linecap="round"/>
<circle cx="1518.88" cy="770.562" r="1.91915" fill="#A53459"/>
<circle cx="1532.69" cy="770.562" r="1.91915" fill="#A53459"/>
<circle cx="1491.63" cy="766.339" r="15.3532" fill="#E28EAE"/>
<path d="M1506.37 762.147C1506.9 764.103 1507.04 766.144 1506.78 768.154C1506.52 770.163 1505.87 772.102 1504.86 773.86C1503.85 775.618 1502.5 777.159 1500.9 778.397C1499.3 779.635 1497.46 780.545 1495.51 781.075C1493.55 781.604 1491.51 781.744 1489.5 781.485C1487.49 781.226 1485.55 780.573 1483.79 779.565C1482.04 778.557 1480.5 777.212 1479.26 775.608C1478.02 774.004 1477.11 772.171 1476.58 770.215L1491.47 766.181L1506.37 762.147Z" fill="#0D3F41"/>
<path d="M1503.6 762.918C1503.75 763.477 1503.79 764.06 1503.71 764.635C1503.64 765.209 1503.45 765.763 1503.16 766.265C1502.88 766.767 1502.49 767.208 1502.03 767.562C1501.58 767.915 1501.05 768.175 1500.49 768.327C1499.93 768.478 1499.35 768.518 1498.78 768.444C1498.2 768.37 1497.65 768.183 1497.15 767.895C1496.64 767.607 1496.2 767.223 1495.85 766.765C1495.5 766.306 1495.24 765.783 1495.08 765.224L1499.34 764.071L1503.6 762.918Z" fill="#FFFACC"/>
<path d="M1488.6 771.562C1488.75 771.295 1489.13 771.295 1489.28 771.562L1489.93 772.757C1489.98 772.859 1490.08 772.93 1490.2 772.951L1491.53 773.202C1491.83 773.257 1491.95 773.622 1491.74 773.842L1490.81 774.832C1490.73 774.916 1490.69 775.031 1490.7 775.145L1490.88 776.495C1490.92 776.797 1490.61 777.022 1490.33 776.891L1489.1 776.308C1489 776.258 1488.88 776.258 1488.78 776.308L1487.55 776.891C1487.27 777.022 1486.96 776.797 1487 776.495L1487.18 775.145C1487.19 775.031 1487.15 774.916 1487.07 774.832L1486.14 773.842C1485.93 773.622 1486.05 773.257 1486.35 773.202L1487.68 772.951C1487.8 772.93 1487.9 772.859 1487.95 772.757L1488.6 771.562Z" fill="#FFFACC"/>
<circle cx="15.3532" cy="15.3532" r="15.3532" transform="matrix(-1 0 0 1 1575.64 750.986)" fill="#E28EAE"/>
<path d="M1545.55 762.147C1545.02 764.103 1544.88 766.144 1545.14 768.154C1545.4 770.163 1546.05 772.102 1547.06 773.86C1548.06 775.618 1549.41 777.159 1551.01 778.397C1552.62 779.635 1554.45 780.545 1556.41 781.075C1558.36 781.604 1560.4 781.744 1562.41 781.485C1564.42 781.226 1566.36 780.573 1568.12 779.565C1569.88 778.557 1571.42 777.212 1572.66 775.608C1573.89 774.004 1574.8 772.171 1575.33 770.215L1560.44 766.181L1545.55 762.147Z" fill="#0D3F41"/>
<path d="M1548.33 762.918C1548.18 763.477 1548.14 764.06 1548.21 764.635C1548.29 765.209 1548.47 765.763 1548.76 766.265C1549.05 766.767 1549.43 767.208 1549.89 767.562C1550.35 767.915 1550.87 768.175 1551.43 768.327C1551.99 768.478 1552.57 768.518 1553.15 768.444C1553.72 768.37 1554.28 768.183 1554.78 767.895C1555.28 767.607 1555.72 767.223 1556.08 766.765C1556.43 766.306 1556.69 765.783 1556.84 765.224L1552.59 764.071L1548.33 762.918Z" fill="#FFFACC"/>
<path d="M1563.32 771.562C1563.18 771.295 1562.79 771.295 1562.65 771.562L1562 772.757C1561.94 772.859 1561.84 772.93 1561.73 772.951L1560.39 773.202C1560.09 773.257 1559.97 773.622 1560.18 773.842L1561.12 774.832C1561.2 774.916 1561.24 775.031 1561.22 775.145L1561.05 776.495C1561.01 776.797 1561.32 777.022 1561.59 776.891L1562.82 776.308C1562.92 776.258 1563.05 776.258 1563.15 776.308L1564.38 776.891C1564.65 777.022 1564.96 776.797 1564.92 776.495L1564.75 775.145C1564.73 775.031 1564.77 774.916 1564.85 774.832L1565.79 773.842C1566 773.622 1565.88 773.257 1565.58 773.202L1564.24 772.951C1564.13 772.93 1564.03 772.859 1563.97 772.757L1563.32 771.562Z" fill="#FFFACC"/>
<path d="M1596.83 861.94L1644.9 911.155C1646.43 912.731 1646.33 915.277 1644.68 916.727L1610.63 946.487C1608.77 948.12 1605.86 947.578 1604.71 945.38L1572.23 883.45L1596.83 861.94Z" fill="#B274AE"/>
<path d="M1479.02 881.023C1474.97 869.828 1463.01 863.606 1451.51 866.706L1410.46 877.776C1410.26 877.829 1410.16 878.038 1410.22 878.228L1431.34 936.486C1431.44 936.769 1431.79 936.871 1432.03 936.691L1471.27 907.138C1479.31 901.082 1482.45 890.487 1479.02 881.023Z" fill="#B274AE"/>
<path d="M1538.72 606.27C1538.44 605.698 1537.75 605.459 1537.18 605.737C1536.61 606.015 1536.37 606.703 1536.65 607.276L1538.72 606.27ZM1536.65 607.276L1549.31 633.376L1551.38 632.371L1538.72 606.27L1536.65 607.276Z" fill="#B274AE"/>
<path d="M1476.27 846.176H1585.28V885.326C1585.28 915.428 1560.88 939.83 1530.78 939.83C1500.68 939.83 1476.27 915.428 1476.27 885.326V846.176Z" fill="#EAD1D0"/>
<path d="M1512.34 886.095L1532.3 901.064L1552.26 886.095V943.67H1512.34V886.095Z" fill="#0D3F41"/>
<rect x="1492.39" y="934.457" width="82.1398" height="13.0502" fill="#964C1A"/>
<path d="M1472.43 946.739H1589.88C1589.88 962.002 1577.51 974.375 1562.25 974.375H1500.06C1484.8 974.375 1472.43 962.002 1472.43 946.739Z" fill="#0D3F41"/>
<path d="M1464.76 869.973L1518.5 878.034V933.689C1518.5 950.648 1504.75 964.396 1487.79 964.396H1454.61C1449.75 964.396 1446.11 959.926 1447.1 955.161L1464.76 869.973Z" fill="#B274AE"/>
<path d="M1598.45 869.973L1544.71 881.488V933.689C1544.71 950.648 1558.45 964.396 1575.41 964.396H1608.59C1613.46 964.396 1617.1 959.926 1616.11 955.161L1598.45 869.973Z" fill="#B274AE"/>
<path d="M1601.91 860.876C1600.21 856.799 1595.53 854.873 1591.45 856.574L1542.53 876.977C1540 878.032 1538.8 880.93 1539.83 883.468C1540.8 885.834 1543.39 887.091 1545.84 886.38L1596.75 871.636C1601.34 870.308 1603.75 865.283 1601.91 860.876Z" fill="#FFB23E"/>
<path d="M1461.29 860.876C1462.99 856.799 1467.68 854.873 1471.75 856.574L1520.67 876.977C1523.2 878.032 1524.4 880.93 1523.37 883.468C1522.41 885.834 1519.81 887.091 1517.36 886.38L1466.45 871.636C1461.86 870.308 1459.46 865.283 1461.29 860.876Z" fill="#FFB23E"/>
<path d="M1484.03 919.052L1489.46 924.008L1496.79 923.557L1493.76 930.249L1496.45 937.086L1489.15 936.267L1483.48 940.944L1482 933.745L1475.8 929.799L1482.19 926.168L1484.03 919.052Z" fill="#FFB23E"/>
<path d="M1581.51 883.811L1586.25 885.015L1590.42 882.446L1590.74 887.328L1594.47 890.494L1589.93 892.308L1588.07 896.835L1584.94 893.073L1580.06 892.704L1582.67 888.566L1581.51 883.811Z" fill="#FFB23E"/>
<path d="M1609.98 880.34L1612.15 880.817L1614 879.593L1614.22 881.8L1615.95 883.181L1613.92 884.068L1613.14 886.146L1611.67 884.487L1609.45 884.391L1610.58 882.478L1609.98 880.34Z" fill="#FFB23E"/>
<path d="M1469.54 876.02L1467.02 876.569L1464.87 875.14L1464.61 877.707L1462.59 879.307L1464.95 880.344L1465.85 882.762L1467.57 880.837L1470.14 880.73L1468.84 878.503L1469.54 876.02Z" fill="#FFB23E"/>
<rect width="6.90895" height="29.9388" rx="3.45448" transform="matrix(-0.345301 -0.938492 -0.938492 0.345301 1420.94 899.405)" fill="#EAD1D0"/>
<rect width="6.90895" height="29.9388" rx="3.45448" transform="matrix(-0.345301 -0.938492 -0.938492 0.345301 1418.56 892.922)" fill="#EAD1D0"/>
<rect width="6.90895" height="29.9388" rx="3.45448" transform="matrix(-0.345301 -0.938492 -0.938492 0.345301 1416.18 886.437)" fill="#EAD1D0"/>
<path d="M1622.99 901.063L1627.29 902.008L1630.96 899.578L1631.38 903.959L1634.83 906.698L1630.8 908.459L1629.26 912.582L1626.33 909.29L1621.94 909.099L1624.16 905.303L1622.99 901.063Z" fill="#FFB23E"/>
<path d="M1454.37 900.083L1449.37 901.172L1445.1 898.338L1444.6 903.43L1440.58 906.607L1445.27 908.664L1447.05 913.462L1450.45 909.642L1455.57 909.43L1452.99 905.011L1454.37 900.083Z" fill="#FFB23E"/>
<path d="M1475.93 888.026L1479.15 890.986L1483.52 890.731L1481.7 894.708L1483.29 898.781L1478.95 898.28L1475.57 901.052L1474.7 896.765L1471.02 894.405L1474.83 892.257L1475.93 888.026Z" fill="#FFB23E"/>
<path d="M1500.2 905.548L1500.71 907.759L1502.66 908.925L1500.72 910.101L1500.21 912.314L1498.49 910.83L1496.23 911.032L1497.11 908.939L1496.22 906.85L1498.49 907.041L1500.2 905.548Z" fill="#FFB23E"/>
<path d="M1562.01 907.804L1562.8 909.933L1564.87 910.848L1563.09 912.256L1562.86 914.515L1560.97 913.255L1558.76 913.736L1559.37 911.55L1558.23 909.588L1560.5 909.497L1562.01 907.804Z" fill="#FFB23E"/>
<path d="M1460.21 948.26L1462.18 948.983L1464.08 948.07L1464 950.169L1465.45 951.686L1463.43 952.259L1462.44 954.11L1461.27 952.366L1459.2 951.993L1460.5 950.341L1460.21 948.26Z" fill="#FFB23E"/>
<path d="M1466.13 917.9L1466 919.182L1466.83 920.167L1465.57 920.439L1464.89 921.533L1464.24 920.419L1462.99 920.11L1463.85 919.15L1463.76 917.865L1464.93 918.385L1466.13 917.9Z" fill="#FFB23E"/>
<path d="M1560.57 929.984L1569.33 932.036L1576.91 927.165L1577.67 936.138L1584.64 941.836L1576.34 945.33L1573.08 953.723L1567.19 946.909L1558.2 946.398L1562.86 938.693L1560.57 929.984Z" fill="#FFB23E"/>
<path d="M1608.27 952.333L1583.17 902.842" stroke="#914E8D" stroke-width="2.30298" stroke-linecap="round"/>
<path d="M1453.47 926.396L1462.3 889.165" stroke="#914E8D" stroke-width="2.30298" stroke-linecap="round"/>
<path d="M1641.91 908.863C1642.53 908.377 1643.4 908.427 1643.96 908.98L1653.04 918.074C1653.7 918.73 1653.63 919.813 1652.89 920.377L1610.64 952.815C1609.92 953.365 1608.88 953.18 1608.4 952.416L1602.04 942.32C1601.62 941.658 1601.77 940.787 1602.38 940.3L1641.91 908.863Z" fill="#FFB23E"/>
<path d="M1418.84 875.657C1418.54 874.936 1417.74 874.555 1416.99 874.772L1402.14 879.06C1401.25 879.317 1400.79 880.299 1401.16 881.149L1426.16 938.43C1426.52 939.258 1427.51 939.597 1428.31 939.16L1440.89 932.221C1441.58 931.843 1441.87 931.01 1441.57 930.287L1418.84 875.657Z" fill="#FFB23E"/>
<rect x="1371.1" y="856.318" width="8.54189" height="61.4129" rx="4.27095" transform="rotate(-27.9303 1371.1 856.318)" fill="#964C1A"/>
<rect width="6.90895" height="9.14861" rx="3.45448" transform="matrix(-0.345301 -0.938492 -0.938492 0.345301 1405.1 893.616)" fill="#EAD1D0"/>
<path d="M1387.42 839.482C1387.73 838.368 1386.75 837.322 1385.62 837.569L1376.19 839.623C1375.78 839.712 1375.36 839.631 1375.01 839.401L1366.97 834.056C1366.01 833.415 1364.71 834.03 1364.59 835.181L1363.63 844.785C1363.59 845.199 1363.39 845.578 1363.06 845.836L1355.49 851.827C1354.59 852.545 1354.77 853.971 1355.83 854.437L1364.66 858.318C1365.05 858.485 1365.34 858.799 1365.49 859.189L1368.85 868.237C1369.25 869.322 1370.66 869.588 1371.43 868.724L1377.85 861.519C1378.13 861.209 1378.52 861.024 1378.94 861.007L1388.58 860.608C1389.74 860.56 1390.43 859.299 1389.84 858.3L1384.97 849.965C1384.76 849.606 1384.71 849.178 1384.82 848.777L1387.42 839.482Z" fill="#FFB23E"/>
<path d="M1381.79 845.064C1382.1 843.949 1381.12 842.904 1379.99 843.15L1375.5 844.126C1375.1 844.215 1374.67 844.135 1374.33 843.904L1370.51 841.364C1369.54 840.723 1368.24 841.338 1368.13 842.49L1367.67 847.054C1367.63 847.467 1367.42 847.847 1367.1 848.105L1363.5 850.952C1362.59 851.67 1362.78 853.096 1363.84 853.561L1368.04 855.406C1368.42 855.573 1368.71 855.888 1368.86 856.277L1370.46 860.577C1370.86 861.662 1372.27 861.928 1373.04 861.065L1376.09 857.64C1376.37 857.33 1376.76 857.145 1377.18 857.128L1381.76 856.938C1382.92 856.89 1383.61 855.629 1383.02 854.63L1380.71 850.669C1380.5 850.31 1380.44 849.881 1380.56 849.481L1381.79 845.064Z" fill="#FFFACC"/>
<rect x="1494.7" y="966.699" width="17.6562" height="32.2418" fill="#0D3F41"/>
<path d="M1490.76 992.249C1490.61 991.757 1490.98 991.265 1491.5 991.265H1513.5C1513.92 991.265 1514.27 991.608 1514.27 992.032V1017.37H1485.27C1483.91 1017.37 1483.22 1015.73 1484.17 1014.76L1494.31 1004.32L1490.76 992.249Z" fill="#964C1A"/>
<rect width="17.6562" height="32.2418" transform="matrix(-1 0 0 1 1566.48 966.699)" fill="#0D3F41"/>
<path d="M1570.4 992.249C1570.55 991.757 1570.18 991.265 1569.67 991.265H1547.66C1547.24 991.265 1546.9 991.608 1546.9 992.032V1017.37H1575.89C1577.25 1017.37 1577.94 1015.73 1576.99 1014.76L1566.86 1004.32L1570.4 992.249Z" fill="#964C1A"/>
<circle cx="1531.16" cy="886.478" r="14.9694" fill="#FCDC8F"/>
<circle cx="1531.15" cy="886.478" r="10.3634" fill="#A53459"/>
<circle cx="1527.31" cy="882.641" r="4.9898" fill="#EAD1D0"/>
<path d="M1748.84 568C1719.89 556.653 1662 507.141 1662 399.874C1678.67 398.484 1719.39 390.564 1748.84 370C1764.96 386.118 1812.06 396.632 1833.6 399.874C1833.6 500.611 1777.33 556.884 1748.84 568Z" fill="#746287"/>
<path d="M1748.98 546C1726.32 537.117 1681 498.358 1681 414.386C1694.05 413.298 1725.92 407.098 1748.98 391C1761.6 403.618 1798.47 411.848 1815.33 414.386C1815.33 493.246 1771.28 537.298 1748.98 546Z" fill="#B59FB0"/>
<path d="M171.842 569C142.895 557.653 85 508.141 85 400.874C101.674 399.484 142.385 391.564 171.842 371C187.96 387.118 235.063 397.632 256.6 400.874C256.6 501.611 200.326 557.884 171.842 569Z" fill="#746287"/>
<path d="M171.982 547C149.322 538.117 104 499.358 104 415.386C117.053 414.298 148.923 408.098 171.982 392C184.6 404.618 221.474 412.848 238.333 415.386C238.333 494.246 194.281 538.298 171.982 547Z" fill="#B59FB0"/>
<path d="M1148.56 497.865L1139.06 488.653L1126.12 491.216L1131.92 479.402L1125.47 467.869L1138.54 469.744L1147.51 460.047L1149.79 473.06L1161.76 478.595L1150.04 484.752L1148.56 497.865Z" fill="#B7D6D6"/>
<path d="M1141.31 436.688L1134.05 436.07L1127.62 439.466L1128.24 432.211L1124.84 425.727L1132.1 426.396L1138.58 423L1137.91 430.256L1141.31 436.688Z" fill="#B7D6D6"/>
<path d="M1215.43 799.157L1217.85 809.461L1227.67 813.321L1218.67 818.774L1218.03 829.325L1210.04 822.423L1199.81 825.081L1203.89 815.332L1198.22 806.436L1208.77 807.348L1215.43 799.157Z" fill="#B7D6D6"/>
<path d="M1184 674.628L1186.17 680.035L1190.91 683.411L1185.5 685.578L1182.09 690.337L1179.96 684.911L1175.2 681.499L1180.63 679.368L1184 674.628Z" fill="#B7D6D6"/>
<path d="M1124.43 463.393L1122.48 458.093L1118 454.748L1123.25 452.793L1126.64 448.265L1128.6 453.565L1133.08 456.909L1127.83 458.865L1124.43 463.393Z" fill="#B7D6D6"/>
<path d="M1189.31 588.688L1182.05 588.07L1175.62 591.466L1176.24 584.211L1172.84 577.727L1180.1 578.396L1186.58 575L1185.91 582.256L1189.31 588.688Z" fill="#B7D6D6"/>
<path d="M1172.43 615.393L1170.48 610.093L1166 606.748L1171.25 604.793L1174.64 600.265L1176.6 605.565L1181.08 608.909L1175.83 610.865L1172.43 615.393Z" fill="#B7D6D6"/>
<path d="M1181.66 660.642L1176.5 658.343L1170.98 659.215L1173.24 654.091L1172.37 648.499L1177.53 650.798L1183.05 649.926L1180.79 655.05L1181.66 660.642Z" fill="#B7D6D6"/>
<path d="M816.256 436.105L803.031 436.467L795.827 447.518L791.423 435.115L778.667 431.674L789.133 423.635L788.46 410.441L799.365 417.897L811.688 413.195L807.909 425.882L816.256 436.105Z" fill="#B7D6D6"/>
<path d="M757.554 490.39L757.961 497.661L762.226 503.553L754.956 503.959L749.013 508.232L748.657 500.954L744.385 495.011L751.662 494.655L757.554 490.39Z" fill="#B7D6D6"/>
<path d="M772.158 516.069L769.999 519.817L770.415 524.024L766.282 522.067L761.611 522.433L763.8 518.696L763.397 514.461L767.518 516.446L772.158 516.069Z" fill="#B7D6D6"/>
<path d="M1009.88 389.274L1011.75 396.311L1017.12 401.218L1010.08 403.088L1005.13 408.475L1003.31 401.42L997.92 396.465L1004.98 394.644L1009.88 389.274Z" fill="#B7D6D6"/>
<path d="M1040.72 396.136L1036.39 399.768L1034.76 405.111L1031.14 400.832L1025.74 399.165L1030.06 395.534L1031.7 390.191L1035.31 394.47L1040.72 396.136Z" fill="#B7D6D6"/>
<path d="M1111.77 437.598L1106.49 442.607L1104.75 449.67L1099.74 444.386L1092.64 442.613L1097.96 437.637L1099.73 430.536L1104.71 435.859L1111.77 437.598Z" fill="#B7D6D6"/>
<path d="M1033.34 415.753L1031.98 419.861L1033.24 423.896L1028.79 422.816L1024.3 424.12L1025.68 420.017L1024.43 415.952L1028.87 417.062L1033.34 415.753Z" fill="#B7D6D6"/>
<path d="M966.554 647.39L966.961 654.661L971.226 660.553L963.956 660.959L958.013 665.232L957.657 657.954L953.385 652.011L960.662 651.655L966.554 647.39Z" fill="#B7D6D6"/>
<path d="M995.365 660.354L990.392 663.034L987.708 667.936L985.036 663.014L980.076 660.286L985.049 657.607L987.733 652.705L990.405 657.627L995.365 660.354Z" fill="#B7D6D6"/>
<path d="M1071.09 674.74L1067.71 681.195L1068.36 688.439L1061.91 685.068L1054.62 685.698L1058.04 679.264L1057.41 671.972L1063.84 675.39L1071.09 674.74Z" fill="#B7D6D6"/>
<path d="M1089.2 700.62L1083.56 700.377L1078.75 703.216L1078.97 697.619L1076.1 692.738L1081.75 692.981L1086.56 690.142L1086.34 695.739L1089.2 700.62Z" fill="#B7D6D6"/>
<path d="M984.158 678.069L981.999 681.817L982.415 686.024L978.282 684.067L973.611 684.433L975.8 680.696L975.397 676.461L979.518 678.446L984.158 678.069Z" fill="#B7D6D6"/>
<path d="M1067.97 421.796L1064.6 420.489L1061.15 421.047L1062.34 418.019L1061.53 414.742L1064.9 416.049L1068.35 415.492L1067.16 418.519L1067.97 421.796Z" fill="#B7D6D6"/>
<path d="M932.299 642.2L930.14 645.948L930.556 650.155L926.422 648.198L921.752 648.564L923.941 644.827L923.538 640.592L927.659 642.577L932.299 642.2Z" fill="#B7D6D6"/>
<path d="M972.669 638.154L969.054 638.013L965.971 639.662L966.114 636.411L964.278 633.577L967.893 633.718L970.976 632.069L970.833 635.319L972.669 638.154Z" fill="#B7D6D6"/>
<path d="M1024.53 674.023L1020.91 673.882L1017.83 675.531L1017.97 672.281L1016.14 669.446L1019.75 669.587L1022.84 667.938L1022.69 671.188L1024.53 674.023Z" fill="#B7D6D6"/>
<path d="M885.769 401.926L884.658 406.107L886.154 410.061L881.653 409.245L877.238 410.812L878.381 406.635L876.891 402.65L881.386 403.496L885.769 401.926Z" fill="#B7D6D6"/>
<path d="M951.699 397.98L948.172 398.784L945.624 401.177L944.916 398.001L942.407 395.741L945.934 394.938L948.483 392.545L949.19 395.72L951.699 397.98Z" fill="#B7D6D6"/>
<path d="M1148.28 517.302L1150.06 513.331L1153.73 511.187L1149.7 508.974L1147.24 504.952L1145.48 508.941L1141.8 511.112L1145.85 513.299L1148.28 517.302Z" fill="#B7D6D6"/>
<path d="M1168.8 552.588L1166.55 549.725L1166.08 546.24L1163.51 548.274L1160.12 548.451L1162.37 551.314L1162.84 554.799L1165.41 552.765L1168.8 552.588Z" fill="#B7D6D6"/>
<path d="M1337.28 838.302L1339.06 834.331L1342.73 832.187L1338.7 829.974L1336.24 825.952L1334.48 829.941L1330.8 832.112L1334.85 834.299L1337.28 838.302Z" fill="#B7D6D6"/>
<path d="M1274.28 843.302L1276.06 839.331L1279.73 837.187L1275.7 834.974L1273.24 830.952L1271.48 834.941L1267.8 837.112L1271.85 839.299L1274.28 843.302Z" fill="#B7D6D6"/>
<path d="M1299.28 861.302L1301.06 857.331L1304.73 855.187L1300.7 852.974L1298.24 848.952L1296.48 852.941L1292.8 855.112L1296.85 857.299L1299.28 861.302Z" fill="#B7D6D6"/>
<path d="M1319.68 861.238L1318.47 859.699L1318.21 857.824L1316.83 858.918L1315.01 859.014L1316.22 860.553L1316.47 862.428L1317.85 861.334L1319.68 861.238Z" fill="#B7D6D6"/>
<path d="M1326.68 842.632L1325.47 841.092L1325.21 839.218L1323.83 840.312L1322.01 840.407L1323.22 841.946L1323.47 843.821L1324.85 842.727L1326.68 842.632Z" fill="#B7D6D6"/>
<path d="M1049.37 711.687L1053.32 709.849L1057.5 710.632L1055.9 706.318L1056.67 701.668L1052.73 703.538L1048.52 702.765L1050.15 707.069L1049.37 711.687Z" fill="#B7D6D6"/>
<path d="M1187.45 725.549L1187.63 721.913L1189.55 718.966L1186.28 718.826L1183.59 716.74L1183.42 720.375L1181.5 723.322L1184.77 723.462L1187.45 725.549Z" fill="#B7D6D6"/>
<path d="M826.259 414.653L831.91 419.245L839.138 420.056L834.546 425.707L833.706 432.978L828.084 428.343L820.813 427.503L825.448 421.881L826.259 414.653Z" fill="#B7D6D6"/>
<path d="M855.232 402.069L853.867 407.551L855.687 412.835L850.247 411.499L844.892 413.332L846.257 407.85L844.438 402.566L849.877 403.903L855.232 402.069Z" fill="#B7D6D6"/>
<path d="M883.693 659.502L876.886 648.158L863.722 647.306L872.367 637.381L869.104 624.578L881.245 629.751L892.41 622.688L891.266 635.849L901.412 644.278L888.503 647.212L883.693 659.502Z" fill="#B7D6D6"/>
<path d="M804.731 633.425L800.543 634.51L797.832 637.753L796.334 633.432L792.801 630.355L797.002 629.3L799.742 626.046L801.212 630.378L804.731 633.425Z" fill="#B7D6D6"/>
<path d="M907.293 657.689L906.066 664.867L908.908 671.562L901.73 670.335L894.983 673.172L896.262 665.999L893.424 659.252L900.598 660.531L907.293 657.689Z" fill="#B7D6D6"/>
<path d="M789.617 606.89L784.171 608.392L780.46 612.57L778.955 607.175L774.729 603.409L780.175 601.908L783.886 597.729L785.391 603.124L789.617 606.89Z" fill="#B7D6D6"/>
<path d="M884.968 389.698L882.431 392.277L881.575 395.667L879.267 393.374L875.935 392.824L878.472 390.245L879.328 386.855L881.636 389.148L884.968 389.698Z" fill="#B7D6D6"/>
</g>
<defs>
<clipPath id="clip0_2670_2153">
<rect width="1920" height="1080" fill="white"/>
</clipPath>
</defs>
</svg>
