<svg width="1920" height="1080" viewBox="0 0 1920 1080" fill="none" xmlns="http://www.w3.org/2000/svg">
<g clip-path="url(#clip0_2670_424)">
<rect width="1920" height="1080" fill="#505370"/>
<path d="M2451.23 130.065H-412.637V957.855H-289.804V457.41C-289.804 361.373 -198.232 283.49 -19.6872 283.49H369.426C547.747 283.49 641.805 361.373 641.805 457.41V957.855H1297.41V457.41C1297.41 361.373 1441.94 283.49 1620.49 283.49H2005.54C2183.86 283.49 2328.62 361.373 2328.62 457.41V957.855H2451.46V130.065H2451.23Z" fill="#A977AB" fill-opacity="0.4"/>
<path d="M2048 963H-68V1078H2048V963Z" fill="#746287" fill-opacity="0.61"/>
<path d="M374.686 723.076C372.958 723.076 371.543 724.024 370.758 725.446H267.035C266.249 724.024 264.834 723.076 263.106 723.076C260.591 723.076 258.548 725.129 258.548 727.657C258.548 730.185 260.591 732.24 263.106 732.24C264.834 732.24 266.249 731.292 267.035 729.87H270.335V734.925V736.347V918.358L318.896 890.077L367.457 918.358V736.347V734.925V729.87H370.758C371.543 731.292 372.958 732.24 374.686 732.24C377.201 732.24 379.244 730.185 379.244 727.657C379.244 725.129 377.201 723.076 374.686 723.076ZM362.428 735.083H275.207V730.027H362.428V735.083Z" fill="#746287"/>
<path d="M334.13 829.723H326.272L326.743 776.478L319.514 762.417L311.971 776.32L311.499 829.565H303.484C301.598 829.565 300.027 831.145 300.027 833.041C300.027 834.937 301.598 836.517 303.484 836.517H313.071L312.914 853.738C310.713 856.108 310.242 859.742 311.814 862.586C313.857 866.378 318.571 867.642 322.186 865.588C325.958 863.534 327.215 858.794 325.172 855.16C324.858 854.686 324.543 854.054 324.072 853.738V851.684V850.104V847.734V846.154V843.784V842.204V839.677V838.097V836.517H333.658C335.544 836.517 337.116 834.937 337.116 833.041C337.587 831.303 336.016 829.723 334.13 829.723Z" fill="#B59FB0"/>
<path d="M1672.09 703.235C1670.36 703.235 1668.94 704.183 1668.16 705.605H1564.43C1563.65 704.183 1562.23 703.235 1560.5 703.235C1557.99 703.235 1555.95 705.289 1555.95 707.817C1555.95 710.345 1557.99 712.399 1560.5 712.399C1562.23 712.399 1563.65 711.451 1564.43 710.029H1567.73V715.085V716.507V898.518L1616.29 870.236L1664.86 898.518V716.507V715.085V710.029H1668.16C1668.94 711.451 1670.36 712.399 1672.09 712.399C1674.6 712.399 1676.64 710.345 1676.64 707.817C1676.64 705.289 1674.6 703.235 1672.09 703.235ZM1659.83 715.243H1572.61V710.187H1659.83V715.243Z" fill="#746287"/>
<path d="M1631.52 809.882H1623.66L1624.13 756.638L1616.9 742.576L1609.36 756.48L1608.89 809.724H1600.87C1598.99 809.724 1597.42 811.304 1597.42 813.2C1597.42 815.096 1598.99 816.676 1600.87 816.676H1610.46L1610.3 833.898C1608.1 836.267 1607.63 839.902 1609.2 842.745C1611.25 846.537 1615.96 847.801 1619.58 845.747C1623.35 843.693 1624.61 838.954 1622.56 835.32C1622.25 834.846 1621.93 834.214 1621.46 833.898V831.844V830.264V827.894V826.314V823.944V822.364V819.836V818.256V816.676H1631.05C1632.93 816.676 1634.51 815.096 1634.51 813.2C1634.98 811.462 1633.41 809.882 1631.52 809.882Z" fill="#B59FB0"/>
<path d="M167.584 143.101H30.3478C26.6718 143.101 23.6085 140.021 23.6085 136.325V74.4236C23.6085 70.728 26.6718 67.6484 30.3478 67.6484H167.584C171.26 67.6484 174.324 70.728 174.324 74.4236V136.325C174.324 140.021 171.26 143.101 167.584 143.101Z" fill="#C3ABC3"/>
<path d="M321.056 143.101H183.819C180.143 143.101 177.08 140.021 177.08 136.325V74.4236C177.08 70.728 180.143 67.6484 183.819 67.6484H321.056C324.732 67.6484 327.795 70.728 327.795 74.4236V136.325C327.795 140.021 324.885 143.101 321.056 143.101Z" fill="#C3ABC3"/>
<path d="M474.518 143.101H337.281C333.605 143.101 330.542 140.021 330.542 136.325V74.4236C330.542 70.728 333.605 67.6484 337.281 67.6484H474.518C478.194 67.6484 481.257 70.728 481.257 74.4236V136.325C481.41 140.021 478.347 143.101 474.518 143.101Z" fill="#C3ABC3"/>
<path d="M628.008 143.101H490.771C487.095 143.101 484.032 140.021 484.032 136.325V74.4236C484.032 70.728 487.095 67.6484 490.771 67.6484H628.008C631.684 67.6484 634.747 70.728 634.747 74.4236V136.325C634.9 140.021 631.837 143.101 628.008 143.101Z" fill="#C3ABC3"/>
<path d="M781.636 143.101H644.399C640.723 143.101 637.66 140.021 637.66 136.325V74.4236C637.66 70.728 640.723 67.6484 644.399 67.6484H781.636C785.312 67.6484 788.375 70.728 788.375 74.4236V136.325C788.375 140.021 785.312 143.101 781.636 143.101Z" fill="#C3ABC3"/>
<path d="M935.098 143.101H797.861C794.185 143.101 791.122 140.021 791.122 136.325V74.4236C791.122 70.728 794.185 67.6484 797.861 67.6484H935.098C938.774 67.6484 941.837 70.728 941.837 74.4236V136.325C941.837 140.021 938.774 143.101 935.098 143.101Z" fill="#C3ABC3"/>
<path d="M1088.57 143.101H951.333C947.657 143.101 944.594 140.021 944.594 136.325V74.4236C944.594 70.728 947.657 67.6484 951.333 67.6484H1088.57C1092.25 67.6484 1095.31 70.728 1095.31 74.4236V136.325C1095.31 140.021 1092.25 143.101 1088.57 143.101Z" fill="#C3ABC3"/>
<path d="M1242.03 143.101H1104.79C1101.12 143.101 1098.06 140.021 1098.06 136.325V74.4236C1098.06 70.728 1101.12 67.6484 1104.79 67.6484H1242.03C1245.71 67.6484 1248.77 70.728 1248.77 74.4236V136.325C1248.77 140.021 1245.86 143.101 1242.03 143.101Z" fill="#C3ABC3"/>
<path d="M1395.52 143.101H1258.28C1254.61 143.101 1251.55 140.021 1251.55 136.325V74.4236C1251.55 70.728 1254.61 67.6484 1258.28 67.6484H1395.52C1399.2 67.6484 1402.26 70.728 1402.26 74.4236V136.325C1402.41 140.021 1399.35 143.101 1395.52 143.101Z" fill="#C3ABC3"/>
<path d="M1548.98 143.101H1411.75C1408.07 143.101 1405.01 140.021 1405.01 136.325V74.4236C1405.01 70.728 1408.07 67.6484 1411.75 67.6484H1548.98C1552.66 67.6484 1555.72 70.728 1555.72 74.4236V136.325C1555.88 140.021 1552.81 143.101 1548.98 143.101Z" fill="#C3ABC3"/>
<path d="M1702.62 143.101H1565.38C1561.71 143.101 1558.65 140.021 1558.65 136.325V74.4236C1558.65 70.728 1561.71 67.6484 1565.38 67.6484H1702.62C1706.3 67.6484 1709.36 70.728 1709.36 74.4236V136.325C1709.36 140.021 1706.3 143.101 1702.62 143.101Z" fill="#C3ABC3"/>
<path d="M1856.08 143.101H1718.85C1715.17 143.101 1712.11 140.021 1712.11 136.325V74.4236C1712.11 70.728 1715.17 67.6484 1718.85 67.6484H1856.08C1859.76 67.6484 1862.82 70.728 1862.82 74.4236V136.325C1862.82 140.021 1859.76 143.101 1856.08 143.101Z" fill="#C3ABC3"/>
<path d="M2009.57 143.101H1872.34C1868.66 143.101 1865.6 140.021 1865.6 136.325V74.4236C1865.6 70.728 1868.66 67.6484 1872.34 67.6484H2009.57C2013.25 67.6484 2016.31 70.728 2016.31 74.4236V136.325C2016.31 140.021 2013.25 143.101 2009.57 143.101Z" fill="#C3ABC3"/>
<path d="M167.584 143.452H30.3478C26.6718 143.452 23.6085 140.372 23.6085 136.677V74.7751C23.6085 71.0795 26.6718 68 30.3478 68H167.584C171.26 68 174.324 71.0795 174.324 74.7751V136.677C174.324 140.372 171.26 143.452 167.584 143.452Z" fill="#C3ABC3"/>
<path d="M321.056 143.452H183.819C180.143 143.452 177.08 140.372 177.08 136.677V74.7751C177.08 71.0795 180.143 68 183.819 68H321.056C324.732 68 327.795 71.0795 327.795 74.7751V136.677C327.795 140.372 324.885 143.452 321.056 143.452Z" fill="#C3ABC3"/>
<path d="M474.518 143.452H337.281C333.605 143.452 330.542 140.372 330.542 136.677V74.7751C330.542 71.0795 333.605 68 337.281 68H474.518C478.194 68 481.257 71.0795 481.257 74.7751V136.677C481.41 140.372 478.347 143.452 474.518 143.452Z" fill="#C3ABC3"/>
<path d="M628.008 143.452H490.771C487.095 143.452 484.032 140.372 484.032 136.677V74.7751C484.032 71.0795 487.095 68 490.771 68H628.008C631.684 68 634.747 71.0795 634.747 74.7751V136.677C634.9 140.372 631.837 143.452 628.008 143.452Z" fill="#C3ABC3"/>
<path d="M781.636 143.452H644.399C640.723 143.452 637.66 140.372 637.66 136.677V74.7751C637.66 71.0795 640.723 68 644.399 68H781.636C785.312 68 788.375 71.0795 788.375 74.7751V136.677C788.375 140.372 785.312 143.452 781.636 143.452Z" fill="#C3ABC3"/>
<path d="M935.098 143.452H797.861C794.185 143.452 791.122 140.372 791.122 136.677V74.7751C791.122 71.0795 794.185 68 797.861 68H935.098C938.774 68 941.837 71.0795 941.837 74.7751V136.677C941.837 140.372 938.774 143.452 935.098 143.452Z" fill="#C3ABC3"/>
<path d="M1088.57 143.452H951.333C947.657 143.452 944.594 140.372 944.594 136.677V74.7751C944.594 71.0795 947.657 68 951.333 68H1088.57C1092.25 68 1095.31 71.0795 1095.31 74.7751V136.677C1095.31 140.372 1092.25 143.452 1088.57 143.452Z" fill="#C3ABC3"/>
<path d="M1242.03 143.452H1104.79C1101.12 143.452 1098.06 140.372 1098.06 136.677V74.7751C1098.06 71.0795 1101.12 68 1104.79 68H1242.03C1245.71 68 1248.77 71.0795 1248.77 74.7751V136.677C1248.77 140.372 1245.86 143.452 1242.03 143.452Z" fill="#C3ABC3"/>
<path d="M1395.52 143.452H1258.28C1254.61 143.452 1251.55 140.372 1251.55 136.677V74.7751C1251.55 71.0795 1254.61 68 1258.28 68H1395.52C1399.2 68 1402.26 71.0795 1402.26 74.7751V136.677C1402.41 140.372 1399.35 143.452 1395.52 143.452Z" fill="#C3ABC3"/>
<path d="M1548.98 143.452H1411.75C1408.07 143.452 1405.01 140.372 1405.01 136.677V74.7751C1405.01 71.0795 1408.07 68 1411.75 68H1548.98C1552.66 68 1555.72 71.0795 1555.72 74.7751V136.677C1555.88 140.372 1552.81 143.452 1548.98 143.452Z" fill="#C3ABC3"/>
<path d="M1702.62 143.452H1565.38C1561.71 143.452 1558.65 140.372 1558.65 136.677V74.7751C1558.65 71.0795 1561.71 68 1565.38 68H1702.62C1706.3 68 1709.36 71.0795 1709.36 74.7751V136.677C1709.36 140.372 1706.3 143.452 1702.62 143.452Z" fill="#C3ABC3"/>
<path d="M1856.08 143.452H1718.85C1715.17 143.452 1712.11 140.372 1712.11 136.677V74.7751C1712.11 71.0795 1715.17 68 1718.85 68H1856.08C1859.76 68 1862.82 71.0795 1862.82 74.7751V136.677C1862.82 140.372 1859.76 143.452 1856.08 143.452Z" fill="#C3ABC3"/>
<path d="M2009.57 143.452H1872.34C1868.66 143.452 1865.6 140.372 1865.6 136.677V74.7751C1865.6 71.0795 1868.66 68 1872.34 68H2009.57C2013.25 68 2016.31 71.0795 2016.31 74.7751V136.677C2016.31 140.372 2013.25 143.452 2009.57 143.452Z" fill="#C3ABC3"/>
<path d="M13.9758 143.452H-123.261C-126.937 143.452 -130 140.372 -130 136.677V74.7751C-130 71.0795 -126.937 68 -123.261 68H13.9758C17.6518 68 20.7151 71.0795 20.7151 74.7751V136.677C20.7151 140.372 17.6518 143.452 13.9758 143.452Z" fill="#C3ABC3"/>
<path d="M357.041 60.8127H246.432C243.469 60.8127 241 58.3306 241 55.352V5.46077C241 2.48218 243.469 0 246.432 0H357.041C360.004 0 362.473 2.48218 362.473 5.46077V55.352C362.597 58.4547 360.128 60.8127 357.041 60.8127Z" fill="#C3ABC3"/>
<path d="M108.041 60.8127H-2.56828C-5.53104 60.8127 -8 58.3306 -8 55.352V5.46077C-8 2.48218 -5.53104 0 -2.56828 0H108.041C111.004 0 113.473 2.48218 113.473 5.46077V55.352C113.597 58.4547 111.128 60.8127 108.041 60.8127Z" fill="#C3ABC3"/>
<path d="M606.041 62.0689H495.432C492.469 62.0689 490 59.5867 490 56.6081V6.71693C490 3.73835 492.469 1.25616 495.432 1.25616H606.041C609.004 1.25616 611.473 3.73835 611.473 6.71693V56.6081C611.473 59.7108 609.004 62.0689 606.041 62.0689Z" fill="#C3ABC3"/>
<path d="M855.041 62.0689H744.432C741.469 62.0689 739 59.5867 739 56.6081V6.71693C739 3.73835 741.469 1.25616 744.432 1.25616H855.041C858.004 1.25616 860.473 3.73835 860.473 6.71693V56.6081C860.473 59.7108 858.004 62.0689 855.041 62.0689Z" fill="#C3ABC3"/>
<path d="M1104.04 62.0689H993.432C990.469 62.0689 988 59.5867 988 56.6081V6.71693C988 3.73835 990.469 1.25616 993.432 1.25616H1104.04C1107 1.25616 1109.47 3.73835 1109.47 6.71693V56.6081C1109.47 59.7108 1107 62.0689 1104.04 62.0689Z" fill="#C3ABC3"/>
<path d="M1353.04 62.0689H1242.43C1239.47 62.0689 1237 59.5867 1237 56.6081V6.71693C1237 3.73835 1239.47 1.25616 1242.43 1.25616H1353.04C1356 1.25616 1358.47 3.73835 1358.47 6.71693V56.6081C1358.6 59.7108 1356.13 62.0689 1353.04 62.0689Z" fill="#C3ABC3"/>
<path d="M1602.04 62.0689H1491.43C1488.47 62.0689 1486 59.5867 1486 56.6081V6.71693C1486 3.73835 1488.47 1.25616 1491.43 1.25616H1602.04C1605 1.25616 1607.47 3.73835 1607.47 6.71693V56.6081C1607.47 59.7108 1605.13 62.0689 1602.04 62.0689Z" fill="#C3ABC3"/>
<path d="M245.128 1098.91H105.023C101.27 1098.91 98.1428 1095.88 98.1428 1092.24V1031.26C98.1428 1027.61 101.27 1024.58 105.023 1024.58H245.128C248.881 1024.58 252.008 1027.61 252.008 1031.26V1092.24C252.008 1095.88 248.881 1098.91 245.128 1098.91Z" fill="#C3ABC3"/>
<path d="M87.9853 1098.91H-52.1198C-55.8727 1098.91 -59 1095.88 -59 1092.24V1031.26C-59 1027.61 -55.8727 1024.58 -52.1198 1024.58H87.9853C91.7381 1024.58 94.8655 1027.61 94.8655 1031.26V1092.24C94.8655 1095.88 91.7381 1098.91 87.9853 1098.91Z" fill="#C3ABC3"/>
<path d="M401.808 1098.91H261.702C257.95 1098.91 254.822 1095.88 254.822 1092.24V1031.26C254.822 1027.61 257.95 1024.58 261.702 1024.58H401.808C405.56 1024.58 408.688 1027.61 408.688 1031.26V1092.24C408.688 1095.88 405.717 1098.91 401.808 1098.91Z" fill="#C3ABC3"/>
<path d="M558.478 1098.91H418.373C414.62 1098.91 411.493 1095.88 411.493 1092.24V1031.26C411.493 1027.61 414.62 1024.58 418.373 1024.58H558.478C562.231 1024.58 565.358 1027.61 565.358 1031.26V1092.24C565.515 1095.88 562.388 1098.91 558.478 1098.91Z" fill="#C3ABC3"/>
<path d="M715.167 1098.91H575.062C571.309 1098.91 568.181 1095.88 568.181 1092.24V1031.26C568.181 1027.61 571.309 1024.58 575.062 1024.58H715.167C718.919 1024.58 722.047 1027.61 722.047 1031.26V1092.24C722.203 1095.88 719.076 1098.91 715.167 1098.91Z" fill="#C3ABC3"/>
<path d="M872.015 1098.91H731.91C728.157 1098.91 725.03 1095.88 725.03 1092.24V1031.26C725.03 1027.61 728.157 1024.58 731.91 1024.58H872.015C875.768 1024.58 878.895 1027.61 878.895 1031.26V1092.24C878.895 1095.88 875.768 1098.91 872.015 1098.91Z" fill="#C3ABC3"/>
<path d="M1028.69 1098.91H888.58C884.828 1098.91 881.7 1095.88 881.7 1092.24V1031.26C881.7 1027.61 884.828 1024.58 888.58 1024.58H1028.69C1032.44 1024.58 1035.57 1027.61 1035.57 1031.26V1092.24C1035.57 1095.88 1032.44 1098.91 1028.69 1098.91Z" fill="#C3ABC3"/>
<path d="M1185.37 1098.91H1045.26C1041.51 1098.91 1038.38 1095.88 1038.38 1092.24V1031.26C1038.38 1027.61 1041.51 1024.58 1045.26 1024.58H1185.37C1189.12 1024.58 1192.25 1027.61 1192.25 1031.26V1092.24C1192.25 1095.88 1189.12 1098.91 1185.37 1098.91Z" fill="#C3ABC3"/>
<path d="M1342.04 1098.91H1201.93C1198.18 1098.91 1195.05 1095.88 1195.05 1092.24V1031.26C1195.05 1027.61 1198.18 1024.58 1201.93 1024.58H1342.04C1345.79 1024.58 1348.92 1027.61 1348.92 1031.26V1092.24C1348.92 1095.88 1345.94 1098.91 1342.04 1098.91Z" fill="#C3ABC3"/>
<path d="M1498.72 1098.91H1358.62C1354.87 1098.91 1351.74 1095.88 1351.74 1092.24V1031.26C1351.74 1027.61 1354.87 1024.58 1358.62 1024.58H1498.72C1502.48 1024.58 1505.6 1027.61 1505.6 1031.26V1092.24C1505.76 1095.88 1502.63 1098.91 1498.72 1098.91Z" fill="#C3ABC3"/>
<path d="M1655.39 1098.91H1515.29C1511.54 1098.91 1508.41 1095.88 1508.41 1092.24V1031.26C1508.41 1027.61 1511.54 1024.58 1515.29 1024.58H1655.39C1659.15 1024.58 1662.28 1027.61 1662.28 1031.26V1092.24C1662.43 1095.88 1659.3 1098.91 1655.39 1098.91Z" fill="#C3ABC3"/>
<path d="M1812.25 1098.91H1672.15C1668.39 1098.91 1665.27 1095.88 1665.27 1092.24V1031.26C1665.27 1027.61 1668.39 1024.58 1672.15 1024.58H1812.25C1816 1024.58 1819.13 1027.61 1819.13 1031.26V1092.24C1819.13 1095.88 1816 1098.91 1812.25 1098.91Z" fill="#C3ABC3"/>
<path d="M1968.92 1098.91H1828.82C1825.06 1098.91 1821.94 1095.88 1821.94 1092.24V1031.26C1821.94 1027.61 1825.06 1024.58 1828.82 1024.58H1968.92C1972.68 1024.58 1975.8 1027.61 1975.8 1031.26V1092.24C1975.8 1095.88 1972.68 1098.91 1968.92 1098.91Z" fill="#C3ABC3"/>
<path d="M1851.04 63.0173H1740.43C1737.47 63.0173 1735 60.5351 1735 57.5565V7.6653C1735 4.68671 1737.47 2.20453 1740.43 2.20453H1851.04C1854 2.20453 1856.47 4.68671 1856.47 7.6653V57.5565C1856.47 60.6592 1854 63.0173 1851.04 63.0173Z" fill="#C3ABC3"/>
<path d="M1748.84 568C1719.89 556.653 1662 507.141 1662 399.874C1678.67 398.484 1719.39 390.564 1748.84 370C1764.96 386.118 1812.06 396.632 1833.6 399.874C1833.6 500.611 1777.33 556.884 1748.84 568Z" fill="#746287"/>
<path d="M1748.98 546C1726.32 537.117 1681 498.358 1681 414.386C1694.05 413.298 1725.92 407.098 1748.98 391C1761.6 403.618 1798.47 411.848 1815.33 414.386C1815.33 493.246 1771.28 537.298 1748.98 546Z" fill="#B59FB0"/>
<path d="M171.842 569C142.895 557.653 85 508.141 85 400.874C101.674 399.484 142.385 391.564 171.842 371C187.96 387.118 235.063 397.632 256.6 400.874C256.6 501.611 200.326 557.884 171.842 569Z" fill="#746287"/>
<path d="M171.982 547C149.322 538.117 104 499.358 104 415.386C117.053 414.298 148.923 408.098 171.982 392C184.6 404.618 221.474 412.848 238.333 415.386C238.333 494.246 194.281 538.298 171.982 547Z" fill="#B59FB0"/>
<path opacity="0.24" d="M610.774 582.887C613.456 582.887 615.631 580.7 615.631 578.001C615.631 575.303 613.456 573.116 610.774 573.116C608.091 573.116 605.917 575.303 605.917 578.001C605.917 580.7 608.091 582.887 610.774 582.887Z" fill="#FFFACC"/>
<path opacity="0.24" d="M-9.7867 436.567C-3.41075 436.567 1.75791 431.369 1.75791 424.955C1.75791 418.542 -3.41075 413.344 -9.7867 413.344C-16.1626 413.344 -21.3314 418.542 -21.3314 424.955C-21.3314 431.369 -16.1626 436.567 -9.7867 436.567Z" fill="#FFFACC"/>
<path opacity="0.24" d="M691.713 655.915C698.089 655.915 703.258 650.716 703.258 644.303C703.258 637.89 698.089 632.691 691.713 632.691C685.337 632.691 680.168 637.89 680.168 644.303C680.168 650.716 685.337 655.915 691.713 655.915Z" fill="#FFFACC"/>
<path opacity="0.24" d="M1108.55 459.599C1111.03 460.643 1113.87 459.472 1114.91 456.984C1115.95 454.496 1114.79 451.633 1112.31 450.589C1109.84 449.546 1106.99 450.716 1105.95 453.204C1104.92 455.692 1106.08 458.556 1108.55 459.599Z" fill="#FFFACC"/>
<path opacity="0.24" d="M592.624 83.224C598.503 85.7048 605.27 82.9219 607.737 77.0083C610.205 71.0947 607.439 64.2897 601.559 61.8089C595.68 59.3281 588.914 62.1109 586.446 68.0246C583.979 73.9382 586.745 80.7432 592.624 83.224Z" fill="#FFFACC"/>
<path opacity="0.24" d="M1155.09 558.432C1160.97 560.913 1167.74 558.13 1170.2 552.217C1172.67 546.303 1169.91 539.498 1164.03 537.017C1158.15 534.536 1151.38 537.319 1148.91 543.233C1146.45 549.147 1149.21 555.952 1155.09 558.432Z" fill="#FFFACC"/>
<path opacity="0.4" d="M391.381 108.198C394.73 109.611 398.585 108.027 399.99 104.659C401.395 101.291 399.819 97.4146 396.47 96.0014C393.121 94.5882 389.267 96.1729 387.861 99.5409C386.456 102.909 388.032 106.785 391.381 108.198Z" fill="#FFFACC"/>
<path d="M590.939 786.934C594.058 786.755 596.442 784.068 596.265 780.931C596.087 777.795 593.415 775.397 590.296 775.576C587.177 775.754 584.792 778.442 584.97 781.578C585.148 784.714 587.82 787.112 590.939 786.934Z" fill="#D3A1A1"/>
<path d="M585.355 778.762C588.474 778.583 590.859 775.896 590.681 772.76C590.503 769.623 587.831 767.225 584.712 767.404C581.593 767.582 579.209 770.27 579.386 773.406C579.564 776.543 582.236 778.94 585.355 778.762Z" fill="#D3A1A1"/>
<path d="M599.535 791.58C602.654 791.402 605.039 788.714 604.861 785.578C604.683 782.442 602.011 780.044 598.892 780.222C595.773 780.401 593.389 783.088 593.566 786.225C593.744 789.361 596.416 791.759 599.535 791.58Z" fill="#D3A1A1"/>
<path d="M675.188 819.085C678.306 818.907 680.691 816.219 680.513 813.083C680.336 809.947 677.663 807.549 674.544 807.727C671.425 807.906 669.041 810.593 669.219 813.73C669.396 816.866 672.069 819.264 675.188 819.085Z" fill="#D3A1A1"/>
<path d="M684.726 816.643C687.845 816.464 690.229 813.777 690.052 810.64C689.874 807.504 687.202 805.106 684.083 805.285C680.964 805.463 678.579 808.151 678.757 811.287C678.935 814.424 681.607 816.821 684.726 816.643Z" fill="#D3A1A1"/>
<path d="M665.717 816.725C668.836 816.546 671.221 813.859 671.043 810.722C670.866 807.586 668.193 805.188 665.074 805.367C661.955 805.545 659.571 808.232 659.749 811.369C659.926 814.505 662.599 816.903 665.717 816.725Z" fill="#D3A1A1"/>
<path d="M370.488 837.204C374.035 837.001 376.747 833.945 376.545 830.378C376.343 826.811 373.304 824.084 369.757 824.287C366.21 824.49 363.498 827.547 363.7 831.114C363.902 834.681 366.941 837.407 370.488 837.204Z" fill="#C6824B"/>
<path d="M377.319 828.323C380.866 828.12 383.578 825.064 383.376 821.497C383.174 817.93 380.135 815.203 376.588 815.406C373.041 815.609 370.329 818.665 370.531 822.232C370.733 825.799 373.772 828.526 377.319 828.323Z" fill="#C6824B"/>
<path d="M360.432 841.914C363.979 841.71 366.691 838.654 366.489 835.087C366.287 831.52 363.248 828.794 359.701 828.997C356.154 829.2 353.442 832.256 353.644 835.823C353.846 839.39 356.885 842.117 360.432 841.914Z" fill="#C6824B"/>
<path d="M316.856 716.05L320.205 718.316C320.557 718.631 321.11 718.599 321.547 718.462L325.347 716.904C326.435 716.507 327.599 717.445 327.219 718.584L326.111 722.558C326.026 723.01 326.051 723.455 326.408 723.881L329.027 726.971C329.748 727.935 329.16 729.309 327.942 729.379L323.838 729.502C323.395 729.528 322.965 729.776 322.652 730.129L320.516 733.603C319.908 734.643 318.339 734.398 317.944 733.303L316.505 729.476C316.369 729.036 316.018 728.721 315.562 728.524L311.617 727.521C310.491 727.25 310.181 725.704 311.14 724.979L314.33 722.45C314.649 722.208 314.956 721.744 314.925 721.187L314.691 717.067C314.53 716.183 315.815 715.327 316.856 716.05Z" fill="#FFB23E"/>
<path d="M316.91 748.444L318.764 749.79C318.998 750 319.22 749.987 319.545 749.857L321.722 749.062C322.374 748.801 322.966 749.438 322.782 750.119L322.127 752.279C322.028 752.508 322.047 752.842 322.281 753.052L323.717 754.869C324.081 755.406 323.793 756.205 323.122 756.132L320.791 756.153C320.569 756.166 320.243 756.296 320.145 756.525L318.807 758.39C318.395 758.972 317.607 758.793 317.348 758.138L316.668 755.943C316.545 755.726 316.422 755.51 316.083 755.418L313.935 754.759C313.258 754.574 313.097 753.689 313.743 753.317L315.556 751.985C315.771 751.86 315.869 751.632 315.85 751.298L315.828 748.953C315.582 748.52 316.331 748.03 316.91 748.444Z" fill="#FFB23E"/>
<path d="M365.713 723.196L367.693 726.77C367.939 727.202 368.29 727.517 368.844 727.486L372.868 727.926C374.099 728.079 374.624 729.501 373.782 730.331L370.95 733.286C370.637 733.639 370.44 734.097 370.576 734.536L371.357 738.513C371.648 739.725 370.363 740.581 369.335 740.081L365.678 738.28C365.223 738.082 364.78 738.108 364.349 738.356L360.796 740.347C359.72 740.967 358.563 740.14 358.715 738.902L359.263 734.849C359.348 734.397 359.212 733.958 358.861 733.643L355.818 730.913C354.882 730.073 355.354 728.593 356.566 728.412L360.52 727.627C360.957 727.49 361.387 727.242 361.584 726.784L363.264 723.113C363.657 722.197 365.213 722.22 365.713 723.196Z" fill="#FFB23E"/>
<path d="M346.313 698.723L346.993 700.919C347.117 701.135 347.24 701.351 347.578 701.444L349.837 702.096C350.514 702.281 350.675 703.165 350.141 703.531L348.328 704.864C348.112 704.988 348.021 705.328 348.033 705.551L348.166 707.889C348.203 708.557 347.447 708.936 346.875 708.634L345.021 707.287C344.793 707.189 344.565 707.09 344.24 707.221L342.063 708.015C341.411 708.276 340.819 707.64 341.003 706.959L341.658 704.799C341.757 704.57 341.738 704.236 341.504 704.026L340.068 702.209C339.704 701.671 339.992 700.873 340.663 700.946L342.994 700.924C343.216 700.911 343.542 700.781 343.64 700.552L344.978 698.688C345.266 697.889 346.054 698.068 346.313 698.723Z" fill="#FFB23E"/>
<path d="M380.209 653.769L382.062 655.116C382.296 655.326 382.518 655.313 382.844 655.182L385.02 654.388C385.672 654.127 386.264 654.763 386.08 655.444L385.425 657.604C385.327 657.833 385.346 658.167 385.58 658.377L387.016 660.194C387.379 660.732 387.091 661.53 386.421 661.457L384.089 661.479C383.867 661.492 383.542 661.622 383.443 661.851L382.105 663.715C381.693 664.297 380.906 664.119 380.646 663.464L379.967 661.268C379.843 661.052 379.72 660.835 379.381 660.743L377.233 660.084C376.556 659.899 376.395 659.015 377.041 658.643L378.854 657.31C379.069 657.186 379.167 656.957 379.148 656.623L379.127 654.278C378.874 653.734 379.63 653.356 380.209 653.769Z" fill="#FFB23E"/>
<path d="M594.758 942.668C601.61 945.962 609.893 943.142 613.169 936.251C616.445 929.361 613.641 921.031 606.789 917.737L596.735 912.839L586.078 938.473L594.758 942.668Z" fill="#91BCBB"/>
<path d="M518.22 905.606L586.069 938.475L596.72 912.729L530.244 880.564L518.22 905.606Z" fill="#ACBFBE"/>
<path d="M582.531 936.779L593.356 912.141C594.049 910.649 595.79 909.991 597.267 910.576C598.751 911.273 599.405 913.023 598.823 914.509L587.998 939.147C587.305 940.639 585.564 941.298 584.087 940.712C582.493 940.021 581.838 938.271 582.531 936.779Z" fill="#8BA5A3"/>
<path d="M353.421 943.75C347.595 948.776 346.98 957.525 351.971 963.272C356.969 969.13 365.669 969.749 371.383 964.729L379.857 957.43L360.727 937.411L353.421 943.75Z" fill="#91BCBB"/>
<path d="M417.817 888.12L360.73 937.415L379.867 957.545L435.896 909.204L417.817 888.12Z" fill="#ACBFBE"/>
<path d="M363.575 934.792L381.696 954.645C382.762 955.813 382.758 957.712 381.493 958.902C380.331 959.974 378.443 959.97 377.26 958.697L359.139 938.844C358.073 937.676 358.076 935.777 359.342 934.588C360.614 933.509 362.509 933.624 363.575 934.792Z" fill="#8BA5A3"/>
<path d="M352.432 967.715C354.634 967.589 356.317 965.692 356.191 963.478C356.066 961.264 354.18 959.572 351.978 959.698C349.776 959.824 348.093 961.721 348.219 963.935C348.344 966.149 350.23 967.841 352.432 967.715Z" fill="#91BCBB"/>
<path d="M349.105 961.54C351.307 961.414 352.99 959.517 352.865 957.303C352.739 955.089 350.853 953.397 348.652 953.523C346.45 953.649 344.767 955.546 344.892 957.76C345.018 959.974 346.904 961.666 349.105 961.54Z" fill="#91BCBB"/>
<path d="M358.203 971.519C360.404 971.393 362.087 969.496 361.962 967.282C361.836 965.068 359.95 963.375 357.749 963.501C355.547 963.628 353.864 965.525 353.989 967.739C354.115 969.953 356.001 971.645 358.203 971.519Z" fill="#91BCBB"/>
<path d="M437.832 1018.12C447.434 1017.57 454.774 1009.3 454.227 999.646C453.681 989.991 445.454 982.61 435.853 983.159C426.251 983.709 418.911 991.982 419.458 1001.64C420.004 1011.29 428.231 1018.67 437.832 1018.12Z" fill="#91BCBB"/>
<path d="M430.893 1021.31C433.889 1021.14 436.18 1018.56 436.01 1015.55C435.839 1012.53 433.272 1010.23 430.275 1010.4C427.278 1010.57 424.987 1013.15 425.158 1016.17C425.329 1019.18 427.896 1021.48 430.893 1021.31Z" fill="#91BCBB"/>
<path d="M423.366 1015.71C426.363 1015.54 428.653 1012.96 428.483 1009.95C428.312 1006.93 425.745 1004.63 422.748 1004.8C419.751 1004.97 417.46 1007.55 417.631 1010.57C417.802 1013.58 420.369 1015.88 423.366 1015.71Z" fill="#91BCBB"/>
<path d="M440.312 1022.67C443.309 1022.5 445.6 1019.92 445.429 1016.91C445.258 1013.89 442.691 1011.59 439.694 1011.76C436.698 1011.93 434.407 1014.52 434.577 1017.53C434.748 1020.54 437.316 1022.85 440.312 1022.67Z" fill="#91BCBB"/>
<path d="M516.194 1012.82C522.09 1005.18 520.711 994.179 513.114 988.249C505.517 982.32 494.578 983.706 488.682 991.346C482.785 998.986 484.164 1009.99 491.761 1015.92C499.359 1021.85 510.297 1020.46 516.194 1012.82Z" fill="#91BCBB"/>
<path d="M514.015 1020.18C515.856 1017.79 515.425 1014.36 513.054 1012.51C510.683 1010.66 507.269 1011.09 505.429 1013.48C503.589 1015.86 504.019 1019.29 506.39 1021.15C508.761 1023 512.175 1022.56 514.015 1020.18Z" fill="#91BCBB"/>
<path d="M504.876 1022.2C506.717 1019.82 506.286 1016.39 503.915 1014.54C501.544 1012.68 498.13 1013.12 496.29 1015.5C494.449 1017.89 494.88 1021.32 497.251 1023.17C499.622 1025.02 503.036 1024.59 504.876 1022.2Z" fill="#91BCBB"/>
<path d="M521.229 1013.94C523.069 1011.55 522.638 1008.12 520.267 1006.27C517.896 1004.42 514.482 1004.85 512.642 1007.23C510.802 1009.62 511.232 1013.05 513.603 1014.9C515.974 1016.75 519.388 1016.32 521.229 1013.94Z" fill="#91BCBB"/>
<path d="M554.408 950.231L554.782 913.678L395.499 912.075L395.124 948.627C395.022 954.665 396.236 960.405 398.421 965.642L550.814 967.194C553.077 962.037 554.416 956.263 554.408 950.231Z" fill="#ACBFBE"/>
<path d="M398.424 965.642C404.85 981.026 419.907 991.894 437.472 992.117L511.17 992.924C528.846 993.141 544.021 982.553 550.713 967.311L398.424 965.642Z" fill="#B7D6D6"/>
<path d="M449.921 948.951L389.228 948.293L394.742 918.149L463.55 918.901L463.389 935.667C463.257 943.16 457.261 949.089 449.921 948.951Z" fill="#8BA5A3"/>
<path d="M499.602 949.46L560.294 950.118L555.362 919.902L486.554 919.15L486.393 935.917C486.372 943.403 492.268 949.433 499.602 949.46Z" fill="#8BA5A3"/>
<path d="M578.406 924.613L371.657 922.488L396.326 885.327L554.502 886.994L578.406 924.613Z" fill="#A61E00"/>
<path d="M364.329 655.911L361.495 733.38L445.497 688.576L380.178 647.407C373.386 643.216 364.546 647.967 364.329 655.911Z" fill="#B7D6D6"/>
<path d="M378.015 677.804L381.448 722.74L425.552 699.213L390.415 671.173C385.284 666.887 377.52 671.018 378.015 677.804Z" fill="#DB9EB7"/>
<path d="M591.866 658.297L593.031 735.761L509.967 689.24L576.037 649.485C582.909 645.293 591.745 650.261 591.866 658.297Z" fill="#B7D6D6"/>
<path d="M577.652 679.891L573.308 724.825L529.6 700.405L565.264 673.004C570.69 668.783 578.27 673.153 577.652 679.891Z" fill="#DB9EB7"/>
<path d="M611.36 790.121C612.032 723.472 552.344 668.828 478.043 668.071C403.742 667.314 342.964 720.729 342.292 787.378C341.62 854.027 401.309 908.671 475.61 909.429C549.911 910.186 610.688 856.77 611.36 790.121Z" fill="#ACBFBE"/>
<path d="M564.567 697.955L478.588 611.719L390.831 696.173C408.392 688.465 440.764 683.371 477.782 683.821C514.795 684.159 547.108 689.794 564.567 697.955Z" fill="#ACBFBE"/>
<path d="M478.293 630.058L473.022 635.052L472.464 686.026C474.242 686.036 475.91 686.052 477.688 686.062C479.466 686.071 481.244 686.081 482.917 686.209L483.475 635.235L478.293 630.058Z" fill="#0D3F41"/>
<path d="M499.577 650.846L499.184 687.064C501.971 687.24 504.654 687.533 507.226 687.833L507.574 658.655L499.577 650.846Z" fill="#0D3F41"/>
<path d="M487.81 639.232L487.364 686.289C489.923 686.366 492.489 686.554 494.944 686.748L495.344 646.732L487.81 639.232Z" fill="#0D3F41"/>
<path d="M460.995 646.242L460.595 686.259C463.142 686.113 465.584 686.085 468.248 686.044L468.694 638.987L460.995 646.242Z" fill="#0D3F41"/>
<path d="M435.992 669.793L435.839 688.681C438.484 688.306 441.24 687.925 444.002 687.655L444.225 662.171L435.992 669.793Z" fill="#0D3F41"/>
<path d="M511.803 662.769L511.579 688.252C514.379 688.651 517.068 689.055 519.757 689.46L519.91 670.571L511.803 662.769Z" fill="#0D3F41"/>
<path d="M546.741 697.077L524.045 674.917L523.919 690.341C533.242 692.153 541.034 694.388 546.741 697.077Z" fill="#0D3F41"/>
<path d="M408.583 695.606C414.443 693.148 422.211 691.028 431.56 689.375L431.686 673.951L408.583 695.606Z" fill="#0D3F41"/>
<path d="M448.546 658.013L448.198 687.191C450.849 686.927 453.507 686.775 456.275 686.617L456.668 650.399L448.546 658.013Z" fill="#0D3F41"/>
<path d="M494.849 688.989L499.186 689.076L499.183 687.065C497.731 686.925 496.285 686.896 494.944 686.75L494.849 688.989Z" fill="#8BA5A3"/>
<path d="M537.97 724.614L537.814 745.401C537.762 752.331 532.079 757.907 525.189 757.854C518.298 757.802 512.753 752.087 512.805 745.158L513.127 715.535C507.828 714.163 502.438 713.131 496.838 712.334L496.379 759.169C496.289 769.34 488.08 777.407 477.966 777.316C467.852 777.224 459.83 768.97 459.921 758.799L460.36 711.63C454.068 712.326 447.794 713.355 441.871 714.7L441.549 744.323C441.497 751.252 435.814 756.828 428.923 756.776C422.032 756.723 416.488 751.008 416.54 744.079L416.696 723.291C381.391 739.389 357.433 769.471 357.173 804.118C357.028 815.297 359.412 825.997 363.757 836.026C367.851 833.781 372.562 832.617 377.453 832.672C393.234 832.774 405.858 845.792 405.639 861.557C405.537 867.595 403.631 873.178 400.34 877.835C420.765 891.3 446.893 899.523 475.458 899.787C504.023 900.05 530.252 892.404 550.955 879.377C547.805 874.753 545.927 869.052 546.029 863.013C546.13 847.144 559.076 834.449 574.752 834.669C579.754 834.717 584.382 836.016 588.403 838.356C592.954 828.488 595.566 817.725 595.711 806.546C596.192 771.886 572.913 741.381 537.97 724.614Z" fill="#B7D6D6"/>
<path d="M477.968 777.317C488.083 777.408 496.291 769.341 496.381 759.17L496.84 712.335C490.57 711.466 484.097 710.942 477.538 710.871C471.761 710.867 465.997 711.085 460.362 711.631L459.923 758.8C459.832 768.971 467.854 777.226 477.968 777.317Z" fill="#8BCCCA"/>
<path d="M525.181 757.742C532.072 757.795 537.755 752.219 537.807 745.289L537.963 724.501C530.2 720.813 521.915 717.712 513.12 715.423L512.798 745.046C512.752 752.086 518.291 757.69 525.181 757.742Z" fill="#8BCCCA"/>
<path d="M428.92 756.776C435.811 756.829 441.494 751.253 441.546 744.323L441.868 714.701C432.987 716.773 424.6 719.711 416.804 723.285L416.648 744.073C416.485 751.009 422.03 756.724 428.92 756.776Z" fill="#8BCCCA"/>
<path d="M377.553 832.667C372.551 832.619 367.957 833.887 363.856 836.021C371.12 852.474 383.937 866.933 400.55 877.824C403.848 873.278 405.747 867.584 405.85 861.545C405.957 845.787 393.34 832.881 377.553 832.667Z" fill="#72B0BA"/>
<path d="M588.63 838.343C584.615 836.115 579.981 834.704 574.979 834.656C559.198 834.554 546.364 847.242 546.256 863C546.154 869.039 548.032 874.74 551.182 879.364C567.92 868.909 581.005 854.754 588.63 838.343Z" fill="#72B0BA"/>
<path d="M476.146 847.019C466.696 846.89 459.149 839.167 459.277 829.664L493.404 830.056C493.27 839.447 485.596 847.148 476.146 847.019Z" fill="#0D3F41"/>
<path d="M476.23 840.87C468.897 840.843 463.042 837.492 463.042 833.582L489.497 833.855C489.497 837.765 483.564 840.897 476.23 840.87Z" fill="#1C6666"/>
<path d="M440.546 781.358C445.326 781.419 449.213 785.33 449.159 790.249L449.103 799.077L440.324 799.021C435.543 798.96 431.656 795.049 431.711 790.131C431.766 785.212 435.765 781.296 440.546 781.358Z" fill="#0D3F41"/>
<path d="M512.897 799.67L504.117 799.614L504.173 790.786C504.234 785.978 508.123 782.069 513.014 782.124C517.794 782.186 521.682 786.096 521.627 791.015C521.677 795.816 517.677 799.731 512.897 799.67Z" fill="#0D3F41"/>
<path d="M448.514 832.18C448.514 832.18 425.92 843.193 405.073 836.008C384.121 828.941 372.843 806.35 372.843 806.35C372.843 806.35 395.438 795.337 416.285 802.522C437.243 809.7 448.514 832.18 448.514 832.18Z" fill="#FFFACC"/>
<path d="M411.617 835.855C420.729 835.333 427.695 827.482 427.176 818.318C426.657 809.155 418.85 802.15 409.738 802.672C400.626 803.193 393.659 811.045 394.178 820.208C394.697 829.371 402.505 836.377 411.617 835.855Z" fill="#0D3F41"/>
<path d="M407.235 819.013C410.354 818.834 412.738 816.147 412.56 813.011C412.383 809.874 409.71 807.476 406.592 807.655C403.473 807.833 401.088 810.521 401.266 813.657C401.443 816.794 404.116 819.192 407.235 819.013Z" fill="#1C6666"/>
<path d="M504.105 832.794C504.105 832.794 526.416 844.252 547.479 837.572C568.541 830.892 580.273 808.547 580.273 808.547C580.273 808.547 557.962 797.089 536.9 803.769C515.837 810.45 504.105 832.794 504.105 832.794Z" fill="#FFFACC"/>
<path d="M536.43 860.213C535.253 859.052 533.365 859.048 532.203 860.12C525.052 867.232 515.49 871.02 505.376 870.928C502.041 870.896 498.792 870.411 495.635 869.587C489.314 867.826 483.459 864.475 478.74 859.606L476.62 857.494L474.519 859.625C469.678 864.37 463.869 867.719 457.405 869.318C454.231 870.17 451.033 870.577 447.698 870.545C437.584 870.453 428.245 866.408 421.166 859.105C419.99 857.943 418.101 857.94 416.94 859.012C415.785 860.195 415.781 862.094 416.847 863.262C427.937 874.692 443.827 878.698 458.293 875.188C464.867 873.583 471.138 870.543 476.54 865.877C481.806 870.602 488.105 873.928 494.53 875.571C498.026 876.488 501.607 876.953 505.163 876.973C516.391 877.112 527.594 872.896 536.227 864.47C537.61 863.385 537.613 861.486 536.43 860.213Z" fill="#26515B"/>
<path d="M546.069 836.182C555.181 835.661 562.147 827.809 561.628 818.646C561.109 809.483 553.302 802.477 544.19 802.999C535.078 803.521 528.111 811.372 528.63 820.536C529.149 829.699 536.957 836.704 546.069 836.182Z" fill="#0D3F41"/>
<path d="M541.678 819.343C544.797 819.164 547.181 816.477 547.004 813.34C546.826 810.204 544.154 807.806 541.035 807.984C537.916 808.163 535.531 810.851 535.709 813.987C535.887 817.123 538.559 819.521 541.678 819.343Z" fill="#1C6666"/>
<path d="M381.862 726.07C385.103 725.884 387.581 723.091 387.397 719.832C387.212 716.572 384.435 714.08 381.194 714.266C377.952 714.452 375.475 717.244 375.659 720.504C375.844 723.763 378.621 726.255 381.862 726.07Z" fill="#CCD6D5"/>
<path d="M373.32 734.266C375.583 734.136 377.313 732.186 377.184 729.911C377.055 727.635 375.117 725.896 372.854 726.026C370.591 726.155 368.861 728.105 368.99 730.38C369.119 732.656 371.058 734.395 373.32 734.266Z" fill="#CCD6D5"/>
<path d="M602.586 774.872C604.849 774.742 606.579 772.793 606.45 770.517C606.321 768.242 604.382 766.502 602.119 766.632C599.857 766.761 598.127 768.711 598.256 770.986C598.384 773.262 600.323 775.002 602.586 774.872Z" fill="#CCD6D5"/>
<path d="M492.809 931.526C492.912 921.577 485.014 913.54 475.121 913.436C465.228 913.332 457.235 921.275 457.132 931.223C456.991 940.503 463.978 948.147 472.924 949.198L472.96 943.946C471.027 943.163 469.585 941.235 469.564 938.89C469.621 935.982 472.042 933.609 474.927 933.555C477.819 933.613 480.178 936.047 480.232 938.949C480.247 941.182 478.804 943.164 476.738 943.953L476.702 949.205C485.646 948.246 492.661 940.695 492.809 931.526Z" fill="#F5EA83"/>
<path d="M480.241 938.948C480.299 936.04 477.939 933.606 474.937 933.555C472.045 933.497 469.624 935.87 469.573 938.889C469.589 941.122 470.926 943.168 472.97 943.945L472.934 949.197C473.605 949.271 474.165 949.35 474.829 949.312C475.494 949.274 476.158 949.236 476.712 949.205L476.747 943.952C478.703 943.17 480.146 941.188 480.241 938.948Z" fill="#FFB23E"/>
<path d="M464.939 926.083C466.346 926.002 467.421 924.79 467.341 923.376C467.261 921.961 466.056 920.88 464.649 920.96C463.243 921.041 462.167 922.253 462.248 923.668C462.328 925.082 463.533 926.163 464.939 926.083Z" fill="#FCF8DB"/>
<path d="M464.19 973.495L410.345 999.591C405.266 1002.12 399.275 998.326 399.396 992.622L399.615 972.947L464.19 973.495Z" fill="#617A78"/>
<path d="M484.862 973.652L538.165 1000.76C543.201 1003.38 549.213 999.684 549.224 993.985L549.443 974.311L484.862 973.652Z" fill="#617A78"/>
<path d="M398.538 965.635L550.709 967.199C552.709 967.197 554.243 968.784 554.246 970.795C554.248 972.806 552.669 974.349 550.67 974.351L398.498 972.787C396.499 972.79 394.965 971.202 394.962 969.191C394.959 967.181 396.538 965.638 398.538 965.635Z" fill="#8BA5A3"/>
<path d="M674.628 783.595L611.837 885.164L623.468 892.429L698.776 770.593L674.628 783.595Z" fill="#89BEAA"/>
<path d="M697.886 798.014L698.777 770.593L623.469 892.428L635.094 899.583L697.886 798.014Z" fill="#B7D6D6"/>
<path d="M647.977 888.99L618.762 936.257L622.153 938.376L651.368 891.109L647.977 888.99Z" fill="#FF7F00"/>
<path d="M637.609 948.035L622.179 938.418L630.416 924.987L617.634 917.006L630.15 896.739L642.933 904.72L651.386 891.166L661.218 909.818L637.609 948.035Z" fill="#FBA036"/>
<path d="M583.008 913.848L572.973 895.543L596.889 856.861L612.32 866.479L603.867 880.033L616.65 888.015L604.133 908.282L591.35 900.3L583.008 913.848Z" fill="#FBA036"/>
<path d="M603.935 908.379L586.371 936.797L600.218 945.451L617.782 917.034L603.935 908.379Z" fill="#5B619B"/>
<path d="M630.082 893.726L619.257 886.973C618.334 886.355 617.109 886.314 616.138 886.816L604.925 892.821C603.953 893.323 603.346 894.363 603.298 895.483L602.909 908.241C602.862 909.361 603.478 910.443 604.402 911.06L615.227 917.813C616.151 918.431 617.375 918.472 618.346 917.97L629.56 911.965C630.531 911.463 631.139 910.423 631.186 909.303L631.575 896.545C631.623 895.425 631.117 894.337 630.082 893.726Z" fill="#FFDA40"/>
<path d="M623.608 893.093L622.802 892.58C619.692 890.636 615.687 890.53 612.342 892.285L611.482 892.782C608.248 894.531 606.105 897.893 605.988 901.698L605.934 902.707C605.81 906.4 607.679 909.98 610.899 911.918L611.706 912.431C614.815 914.375 618.82 914.481 622.165 912.725L623.025 912.229C626.259 910.48 628.402 907.118 628.519 903.313L628.573 902.304C628.697 898.61 626.828 895.031 623.608 893.093Z" fill="#45B236"/>
<path d="M600.54 908.181L598.022 912.254L616.955 924.088L619.473 920.014L600.54 908.181Z" fill="#FFDA40"/>
<path d="M581.253 941.656C578.3 946.405 579.761 952.577 584.484 955.546C589.207 958.516 595.344 957.047 598.297 952.298C598.702 951.604 599.003 951.029 599.297 950.341L582.709 939.896C582.076 940.491 581.658 940.962 581.253 941.656Z" fill="#398729"/>
<path d="M599.551 944.964L587.224 937.18L583.886 935.137L581.449 939.187L582.601 939.903L599.189 950.348L600.341 951.064L602.888 947.008L599.551 944.964Z" fill="#FFDA40"/>
<path d="M588.45 949.061L594.354 947.382L587.322 942.869L588.45 949.061Z" fill="#FFDA40"/>
<path d="M594.906 953.049L600.348 951.062L594.356 947.271L594.906 953.049Z" fill="#FFDA40"/>
<path d="M581.999 944.965L587.441 942.977L581.449 939.187L581.999 944.965Z" fill="#FFDA40"/>
<path d="M587.005 931.647L584.487 935.72L602.008 946.671L604.525 942.598L587.005 931.647Z" fill="#FBA036"/>
<path d="M590.376 930.343L589.791 931.29L603.638 939.945L604.223 938.998L590.376 930.343Z" fill="#495189"/>
<path d="M599.847 915.043L599.261 915.99L613.108 924.645L613.693 923.698L599.847 915.043Z" fill="#495189"/>
<path d="M592.243 927.209L591.658 928.156L605.505 936.811L606.09 935.864L592.243 927.209Z" fill="#495189"/>
<path d="M594.119 924.232L593.533 925.179L607.38 933.834L607.965 932.886L594.119 924.232Z" fill="#495189"/>
<path d="M596.088 921.155L595.502 922.103L609.349 930.757L609.934 929.81L596.088 921.155Z" fill="#495189"/>
<path d="M597.954 918.027L597.369 918.974L611.216 927.629L611.801 926.682L597.954 918.027Z" fill="#495189"/>
<path d="M592.472 955.312C593.144 955.273 593.659 954.693 593.62 954.017C593.582 953.34 593.006 952.823 592.333 952.862C591.66 952.9 591.146 953.48 591.184 954.156C591.222 954.833 591.799 955.35 592.472 955.312Z" fill="#A6F498"/>
<path d="M623.735 897.106L619.129 894.242C618.206 893.624 616.981 893.583 615.899 894.092L611.049 896.715C610.077 897.218 609.359 898.264 609.311 899.384L609.177 904.866C609.13 905.986 609.746 907.068 610.67 907.685L615.276 910.549C616.2 911.167 617.424 911.208 618.506 910.7L623.356 908.076C624.328 907.573 625.046 906.527 625.094 905.407L625.228 899.925C625.276 898.805 624.659 897.724 623.735 897.106Z" fill="#409E30"/>
<path d="M620.906 898.608L618.948 897.379C618.024 896.762 616.8 896.72 615.718 897.229L613.781 898.345C612.81 898.848 612.091 899.895 612.044 901.014L611.948 903.254C611.901 904.374 612.517 905.456 613.441 906.073L615.399 907.302C616.323 907.919 617.547 907.961 618.629 907.452L620.566 906.336C621.537 905.833 622.256 904.786 622.303 903.667L622.399 901.427C622.446 900.307 621.83 899.225 620.906 898.608Z" fill="#398729"/>
<path d="M617.752 895.661C618.67 895.608 619.371 894.818 619.319 893.895C619.267 892.973 618.481 892.268 617.563 892.32C616.646 892.373 615.945 893.163 615.997 894.086C616.049 895.008 616.835 895.713 617.752 895.661Z" fill="#62D34F"/>
<path d="M614.106 895.98C614.595 895.952 614.969 895.53 614.941 895.038C614.913 894.546 614.494 894.17 614.005 894.198C613.515 894.226 613.141 894.648 613.169 895.14C613.197 895.632 613.616 896.008 614.106 895.98Z" fill="#62D34F"/>
<path d="M575.693 900.526L572.967 895.544L596.889 856.973L601.033 859.529L575.693 900.526Z" fill="#FF7F00"/>
<path d="M607.296 936.7C609.559 936.571 611.288 934.621 611.16 932.346C611.031 930.07 609.092 928.331 606.829 928.46C604.567 928.59 602.837 930.54 602.965 932.815C603.094 935.09 605.033 936.83 607.296 936.7Z" fill="#91BCBB"/>
<path d="M602.247 941.682C604.509 941.552 606.239 939.603 606.111 937.327C605.982 935.052 604.043 933.312 601.78 933.442C599.517 933.571 597.788 935.521 597.916 937.796C598.045 940.072 599.984 941.811 602.247 941.682Z" fill="#91BCBB"/>
<path d="M609.587 929.867C611.85 929.737 613.58 927.788 613.451 925.512C613.322 923.237 611.383 921.497 609.12 921.627C606.858 921.757 605.128 923.706 605.257 925.982C605.385 928.257 607.324 929.997 609.587 929.867Z" fill="#91BCBB"/>
<path d="M528.686 913.833L565.255 914.197C566.811 914.22 568.105 915.486 568.089 917.163C568.067 918.728 566.807 920.029 565.14 920.013L528.57 919.649C527.014 919.627 525.72 918.36 525.736 916.684C525.759 915.118 527.018 913.817 528.686 913.833Z" fill="#C9361F"/>
<path d="M540.797 910.95L540.674 923.107L544.667 923.148L544.79 910.991L540.797 910.95Z" fill="#A61E00"/>
<path d="M386.953 912.451L390.287 912.483C391.844 912.506 393.138 913.772 393.122 915.449C393.099 917.014 391.84 918.315 390.172 918.299L386.838 918.266C385.281 918.244 383.988 916.978 384.004 915.301C384.137 913.729 385.396 912.428 386.953 912.451Z" fill="#C9361F"/>
<path d="M1375.77 1013.42C1385 1009.98 1389.7 999.674 1386.28 990.399C1382.86 981.123 1372.6 976.394 1363.38 979.835C1354.16 983.277 1349.45 993.585 1352.88 1002.86C1356.3 1012.14 1366.55 1016.87 1375.77 1013.42Z" fill="#D3A1A1"/>
<path d="M1364.53 1017.03C1367.41 1015.96 1368.88 1012.73 1367.81 1009.83C1366.74 1006.93 1363.53 1005.45 1360.65 1006.53C1357.76 1007.6 1356.29 1010.83 1357.36 1013.73C1358.43 1016.63 1361.64 1018.11 1364.53 1017.03Z" fill="#D3A1A1"/>
<path d="M1356.92 1010.96C1359.8 1009.89 1361.28 1006.66 1360.21 1003.76C1359.13 1000.86 1355.93 999.377 1353.04 1000.45C1350.16 1001.53 1348.68 1004.76 1349.75 1007.66C1350.83 1010.56 1354.03 1012.04 1356.92 1010.96Z" fill="#D3A1A1"/>
<path d="M1373.95 1018.91C1376.84 1017.83 1378.31 1014.61 1377.24 1011.7C1376.17 1008.8 1372.96 1007.32 1370.07 1008.4C1367.19 1009.47 1365.72 1012.7 1366.79 1015.6C1367.86 1018.5 1371.07 1019.98 1373.95 1018.91Z" fill="#D3A1A1"/>
<path d="M1452.43 1018.35C1461.65 1014.91 1466.35 1004.6 1462.93 995.323C1459.51 986.047 1449.26 981.318 1440.03 984.759C1430.81 988.2 1426.11 998.509 1429.53 1007.78C1432.95 1017.06 1443.2 1021.79 1452.43 1018.35Z" fill="#D3A1A1"/>
<path d="M1453.12 1022.78C1456.01 1021.7 1457.48 1018.47 1456.41 1015.57C1455.34 1012.67 1452.13 1011.19 1449.24 1012.27C1446.36 1013.34 1444.89 1016.57 1445.96 1019.47C1447.03 1022.37 1450.24 1023.85 1453.12 1022.78Z" fill="#D3A1A1"/>
<path d="M1461.39 1017.7C1464.28 1016.62 1465.75 1013.4 1464.68 1010.49C1463.61 1007.59 1460.4 1006.11 1457.52 1007.19C1454.63 1008.27 1453.16 1011.49 1454.23 1014.39C1455.3 1017.3 1458.51 1018.77 1461.39 1017.7Z" fill="#D3A1A1"/>
<path d="M1443.53 1023.31C1446.42 1022.23 1447.89 1019.01 1446.82 1016.1C1445.75 1013.2 1442.54 1011.72 1439.66 1012.8C1436.77 1013.87 1435.3 1017.1 1436.37 1020C1437.44 1022.9 1440.65 1024.38 1443.53 1023.31Z" fill="#D3A1A1"/>
<path d="M1300.28 890.041L1296.61 911.929L1311.8 914.509L1315.48 892.621L1300.28 890.041Z" fill="#AFE8D0"/>
<path d="M1315.44 892.586L1311.76 914.475L1353.14 921.502L1356.81 899.614L1315.44 892.586Z" fill="#89BEAA"/>
<path d="M1295.26 916.517C1304.71 912.992 1309.53 902.43 1306.02 892.927C1302.52 883.424 1292.01 878.578 1282.56 882.104C1273.11 885.63 1268.3 896.192 1271.8 905.695C1275.31 915.198 1285.81 920.043 1295.26 916.517Z" fill="#EBD2D2"/>
<path d="M1296.77 900.651C1297.87 894.068 1294.48 888.002 1289.18 887.103C1283.88 886.203 1278.69 890.81 1277.59 897.393C1276.48 903.976 1279.88 910.042 1285.18 910.941C1290.47 911.841 1295.66 907.234 1296.77 900.651Z" fill="#E8A6A6"/>
<path d="M1275.89 885.358L1277.71 902.183L1287.17 901.15L1285.35 884.324L1275.89 885.358Z" fill="#FFB23E"/>
<path d="M1281.35 835.203L1286.19 879.93L1280.02 880.59L1273.99 824.115L1281.35 835.203Z" fill="#89BEAA"/>
<path d="M1269.05 836.626L1273.99 824.115L1280.02 880.59L1273.89 881.353L1269.05 836.626Z" fill="#B7D6D6"/>
<path d="M1293.47 884.83L1267.81 887.608C1266.22 887.731 1264.77 886.633 1264.64 885.038C1264.52 883.442 1265.61 881.98 1267.2 881.857L1292.87 879.079C1294.45 878.956 1295.91 880.054 1296.03 881.649C1296.26 883.206 1295.02 884.604 1293.47 884.83Z" fill="#DE8E45"/>
<path d="M1284.99 911.09C1288.33 909.844 1290.03 906.113 1288.79 902.755C1287.55 899.398 1283.84 897.686 1280.51 898.932C1277.17 900.178 1275.46 903.909 1276.7 907.266C1277.94 910.624 1281.65 912.335 1284.99 911.09Z" fill="#FFB23E"/>
<path d="M1276.24 887.994L1276.38 889.305L1285.83 888.271L1285.69 886.96L1276.24 887.994Z" fill="#DE8E45"/>
<path d="M1276.61 891.426L1276.76 892.737L1286.21 891.703L1286.07 890.392L1276.61 891.426Z" fill="#DE8E45"/>
<path d="M1276.9 894.724L1277.04 896.035L1286.49 895.002L1286.35 893.69L1276.9 894.724Z" fill="#DE8E45"/>
<path d="M1277.3 898.122L1277.44 899.433L1286.89 898.399L1286.75 897.088L1277.3 898.122Z" fill="#DE8E45"/>
<path d="M1283.92 908.206C1285.67 907.552 1286.57 905.591 1285.92 903.827C1285.27 902.063 1283.32 901.164 1281.56 901.818C1279.81 902.473 1278.91 904.433 1279.57 906.197C1280.22 907.961 1282.17 908.861 1283.92 908.206Z" fill="#DE8E45"/>
<path d="M1275.2 901.964C1278.15 900.866 1279.65 897.577 1278.55 894.618C1277.46 891.659 1274.19 890.15 1271.25 891.248C1268.31 892.346 1266.81 895.635 1267.9 898.594C1268.99 901.553 1272.26 903.061 1275.2 901.964Z" fill="#EBD2D2"/>
<path d="M1278.91 892.728C1281.85 891.63 1283.35 888.341 1282.26 885.382C1281.17 882.423 1277.9 880.914 1274.96 882.012C1272.01 883.11 1270.51 886.399 1271.6 889.358C1272.7 892.317 1275.97 893.825 1278.91 892.728Z" fill="#EBD2D2"/>
<path d="M1276.3 911.87C1279.24 910.773 1280.74 907.484 1279.65 904.525C1278.56 901.566 1275.29 900.057 1272.34 901.155C1269.4 902.253 1267.9 905.542 1268.99 908.501C1270.08 911.46 1273.35 912.968 1276.3 911.87Z" fill="#EBD2D2"/>
<path d="M1508.18 896.72L1510.9 918.75L1526.2 916.841L1523.48 894.81L1508.18 896.72Z" fill="#AFE8D0"/>
<path d="M1466.49 901.95L1469.21 923.981L1510.86 918.782L1508.14 896.751L1466.49 901.95Z" fill="#89BEAA"/>
<path d="M1540.84 921.831C1550.29 918.305 1555.11 907.743 1551.6 898.24C1548.1 888.737 1537.59 883.892 1528.14 887.417C1518.69 890.943 1513.87 901.505 1517.38 911.008C1520.89 920.511 1531.39 925.356 1540.84 921.831Z" fill="#EBD2D2"/>
<path d="M1545.84 903.218C1545.02 896.593 1540.03 891.761 1534.7 892.426C1529.37 893.092 1525.71 899.003 1526.53 905.629C1527.35 912.254 1532.33 917.086 1537.67 916.42C1543 915.755 1546.65 909.844 1545.84 903.218Z" fill="#E8A6A6"/>
<path d="M1538.6 889.978L1536.05 906.706L1545.44 908.156L1548 891.428L1538.6 889.978Z" fill="#FFB23E"/>
<path d="M1544.71 841.028L1537.93 885.521L1544.08 886.391L1552.65 830.328L1544.71 841.028Z" fill="#89BEAA"/>
<path d="M1556.95 842.91L1552.65 830.328L1544.08 886.391L1550.17 887.403L1556.95 842.91Z" fill="#B7D6D6"/>
<path d="M1531.33 884.353L1556.8 888.327C1558.4 888.552 1559.42 890.047 1559.2 891.655C1558.97 893.262 1557.49 894.285 1555.89 894.061L1530.41 890.087C1528.81 889.863 1527.8 888.367 1528.02 886.76C1528.24 885.153 1529.83 884.091 1531.33 884.353Z" fill="#DE8E45"/>
<path d="M1542.56 916.73C1545.9 915.485 1547.61 911.753 1546.37 908.396C1545.13 905.039 1541.42 903.327 1538.08 904.573C1534.74 905.818 1533.04 909.55 1534.28 912.907C1535.52 916.264 1539.23 917.976 1542.56 916.73Z" fill="#FFB23E"/>
<path d="M1538.23 892.629L1538.03 893.932L1547.42 895.382L1547.62 894.079L1538.23 892.629Z" fill="#DE8E45"/>
<path d="M1537.71 895.985L1537.51 897.288L1546.9 898.738L1547.1 897.435L1537.71 895.985Z" fill="#DE8E45"/>
<path d="M1537.12 899.305L1536.92 900.609L1546.31 902.059L1546.51 900.755L1537.12 899.305Z" fill="#DE8E45"/>
<path d="M1536.64 902.65L1536.44 903.953L1545.84 905.403L1546.04 904.1L1536.64 902.65Z" fill="#DE8E45"/>
<path d="M1541.5 913.844C1543.26 913.19 1544.15 911.229 1543.5 909.465C1542.85 907.701 1540.9 906.801 1539.15 907.456C1537.39 908.11 1536.5 910.071 1537.15 911.835C1537.8 913.599 1539.75 914.498 1541.5 913.844Z" fill="#DE8E45"/>
<path d="M1552.21 908.094C1555.15 906.996 1556.65 903.707 1555.56 900.748C1554.47 897.789 1551.2 896.28 1548.26 897.378C1545.31 898.476 1543.81 901.765 1544.91 904.724C1546 907.683 1549.27 909.192 1552.21 908.094Z" fill="#EBD2D2"/>
<path d="M1548.95 898.643C1551.89 897.545 1553.39 894.256 1552.3 891.297C1551.21 888.338 1547.94 886.83 1544.99 887.928C1542.05 889.025 1540.55 892.314 1541.64 895.273C1542.74 898.232 1546.01 899.741 1548.95 898.643Z" fill="#EBD2D2"/>
<path d="M1550.7 917.915C1553.64 916.817 1555.14 913.528 1554.05 910.569C1552.96 907.61 1549.69 906.101 1546.75 907.199C1543.8 908.297 1542.3 911.586 1543.39 914.545C1544.49 917.504 1547.76 919.012 1550.7 917.915Z" fill="#EBD2D2"/>
<path d="M1348.32 908.676L1474.76 911.435L1473.81 954.341C1473.3 978.56 1453.33 997.732 1429.25 997.223L1390.01 996.39C1365.93 995.881 1346.86 975.8 1347.37 951.582L1348.32 908.676Z" fill="#EBD2D2"/>
<path d="M1438.91 966.889L1442.74 973.784L1523.47 975.547L1519.19 968.702L1438.91 966.889Z" fill="#AFE8D0"/>
<path d="M1485.95 915.231L1413.56 913.639L1411.37 917.156L1438.92 966.889L1519.2 968.702L1485.95 915.231Z" fill="#89BEAA"/>
<path d="M1409.3 913.471L1336.91 911.879L1301.3 963.847L1381.58 965.66L1411.36 917.157L1409.3 913.471Z" fill="#89BEAA"/>
<path d="M1413.56 913.639L1409.3 913.47L1411.36 917.156L1413.56 913.639Z" fill="#89BEAA"/>
<path d="M1489.14 917.726C1489.25 912.811 1455.63 908.084 1414.06 907.168C1372.48 906.252 1338.69 909.494 1338.58 914.409C1338.48 919.324 1372.09 924.051 1413.67 924.967C1455.24 925.883 1489.03 922.641 1489.14 917.726Z" fill="#FFB23E"/>
<path d="M1339.87 902.217L1486.87 905.396C1490.15 905.459 1492.8 908.221 1492.78 911.629C1492.72 914.934 1489.97 917.6 1486.58 917.576L1339.59 914.396C1336.3 914.333 1333.65 911.572 1333.68 908.163C1333.84 904.819 1336.59 902.154 1339.87 902.217Z" fill="#FFB23E"/>
<path d="M1336.65 891.581L1483.68 894.863C1486.96 894.926 1489.61 897.688 1489.59 901.097C1489.53 904.402 1486.78 907.068 1483.39 907.043L1336.4 903.864C1333.11 903.801 1330.46 901.039 1330.49 897.631C1330.61 894.184 1333.36 891.518 1336.65 891.581Z" fill="#FFB23E"/>
<path d="M1398.02 907.834L1383.53 950.397L1393.75 941.429L1396.37 954.866L1410.82 912.201L1398.02 907.834Z" fill="#AFE8D0"/>
<path d="M1424.45 908.405L1437.09 951.514L1427.24 942.179L1424.08 955.429L1411.41 912.218L1424.45 908.405Z" fill="#AFE8D0"/>
<path d="M1452.46 650.391L1381.94 648.806C1358.34 648.35 1336.34 660.427 1324.12 680.694L1281.94 750.582C1273.2 765.099 1272.76 783.195 1280.94 798.08L1323.84 876.782C1332.83 893.239 1349.84 903.653 1368.53 904.066L1454.8 905.99C1473.48 906.403 1491 896.702 1500.7 880.658L1547 803.954C1555.75 789.438 1556.18 771.342 1548.01 756.457L1508.86 684.791C1497.49 664.068 1475.99 650.988 1452.46 650.391Z" fill="#89BEAA"/>
<path d="M1536.59 801.852C1537.86 743.297 1483.97 694.618 1416.2 693.125C1348.44 691.632 1292.47 737.89 1291.2 796.446C1289.92 855.001 1343.82 903.68 1411.58 905.173C1479.35 906.666 1535.31 860.408 1536.59 801.852Z" fill="#649B85"/>
<path d="M1466.17 864.47C1466.49 849.229 1479.12 837.016 1494.28 837.339C1504.97 837.569 1514.21 843.969 1518.49 853.039C1529.59 838.582 1536.18 821.704 1536.54 803.402C1537.7 749.049 1483.77 703.648 1415.84 702.149C1348.02 700.611 1292.05 743.53 1290.93 797.985C1290.53 816.184 1296.33 833.479 1306.82 848.321C1311.57 839.398 1321.02 833.412 1331.71 833.642C1346.86 833.965 1359.01 846.665 1358.69 861.906C1358.53 870.639 1354.26 878.328 1347.92 883.271C1366.36 892.803 1388.2 898.603 1411.59 899.136C1435.08 899.63 1457.09 894.819 1475.92 886.152C1469.87 881.14 1466.01 873.203 1466.17 864.47Z" fill="#EBD2D2"/>
<path d="M1358.86 862.077C1359.18 846.836 1347.14 834.098 1331.88 833.813C1321.19 833.582 1311.74 839.569 1306.99 848.491C1316.87 862.623 1331.1 874.661 1348.03 883.583C1354.47 878.602 1358.6 870.848 1358.86 862.077Z" fill="#E8A6A6"/>
<path d="M1518.63 853.104C1514.31 843.931 1505.11 837.634 1494.42 837.404C1479.27 837.08 1466.6 849.191 1466.32 864.535C1466.16 873.268 1469.98 881.102 1476.14 886.423C1493.4 878.226 1508.09 866.881 1518.63 853.104Z" fill="#E8A6A6"/>
<path d="M1413.23 829.016C1405.72 828.887 1399.67 822.588 1399.9 815L1427.27 815.572C1427.04 823.16 1420.88 829.21 1413.23 829.016Z" fill="#6D3232"/>
<path d="M1413.41 824.142C1407.53 823.993 1402.84 821.404 1402.94 818.201L1424.09 818.636C1424.09 821.8 1419.26 824.188 1413.41 824.142Z" fill="#934141"/>
<path d="M1411.86 894.815C1418.68 894.968 1424.74 888.956 1427.76 880.092C1423.81 877.583 1418.33 875.994 1412.24 875.921C1406.25 875.81 1400.7 877.18 1396.52 879.442C1399.24 888.391 1405.05 894.662 1411.86 894.815Z" fill="#C9345A"/>
<path d="M1420.93 842.318L1420.71 854.356C1420.58 858.742 1416.96 862.202 1412.64 862.174C1408.28 862.043 1404.84 858.404 1404.87 854.056L1405.09 842.018C1399.29 846.525 1395.14 855.81 1394.95 866.665C1394.89 871.257 1395.46 875.619 1396.62 879.405C1400.76 877.04 1406.21 875.708 1412.34 875.884C1418.32 875.995 1423.81 877.584 1427.86 880.055C1429.16 876.291 1430.02 871.985 1430.07 867.393C1430.26 856.538 1426.52 847.032 1420.93 842.318Z" fill="#CA6E91"/>
<path d="M1405.05 841.914L1404.83 853.953C1404.72 858.094 1407.71 861.436 1411.63 861.964L1412.14 839.032C1409.56 839.293 1407.24 840.276 1405.05 841.914Z" fill="#FFFACC"/>
<path d="M1413.94 839.182L1413.43 862.114C1417.35 861.703 1420.46 858.434 1420.6 854.396L1420.82 842.357C1418.76 840.549 1416.47 839.41 1413.94 839.182Z" fill="#FFFACC"/>
<path d="M1413.01 839.176C1412.67 839.187 1412.43 839.161 1412.08 839.172L1411.57 862.104C1411.81 862.131 1412.19 862.222 1412.54 862.211C1412.88 862.199 1413.13 862.226 1413.47 862.214L1413.99 839.282C1413.7 839.152 1413.36 839.164 1413.01 839.176Z" fill="#EACACA"/>
<path d="M1381.9 809.174C1381.67 818.049 1374.43 824.969 1365.65 824.848C1356.82 824.624 1349.94 817.346 1350.06 808.51C1350.25 800.818 1355.75 794.548 1362.93 793.158L1350.82 788.768C1345.02 793.275 1341.07 800.259 1340.89 808.297C1340.56 822.252 1351.56 833.738 1365.44 834.07C1379.31 834.402 1390.74 823.341 1391.07 809.387C1391.1 807.265 1390.89 805.116 1390.37 803.082L1378.26 798.692C1380.6 801.568 1381.97 805.277 1381.9 809.174Z" fill="#FFFACC"/>
<path d="M1350.17 808.471C1349.94 817.345 1356.93 824.585 1365.75 824.809C1374.58 825.033 1381.78 818.01 1382 809.135C1382.04 805.135 1380.71 801.529 1378.36 798.653L1363.04 793.119C1355.79 794.65 1350.29 800.921 1350.17 808.471ZM1357.19 807.608L1361.05 806.052C1361.46 805.899 1361.79 805.54 1361.95 805.013L1362.88 800.913C1363.15 799.757 1364.63 799.325 1365.45 800.305L1368.15 803.517C1368.41 803.891 1368.93 804.047 1369.38 803.998L1373.55 803.613C1374.79 803.502 1375.53 804.868 1374.94 805.792L1372.74 809.309C1372.54 809.732 1372.49 810.221 1372.64 810.633L1374.29 814.472C1374.81 815.567 1373.75 816.785 1372.6 816.511L1368.59 815.429C1368.1 815.376 1367.65 815.426 1367.32 815.785L1364.26 818.566C1363.39 819.36 1361.88 818.75 1361.91 817.567L1361.67 813.437C1361.62 812.987 1361.33 812.51 1361.01 812.277L1357.41 810.104C1355.94 809.597 1355.96 808.066 1357.19 807.608Z" fill="#6D3232"/>
<path d="M1357.12 810.305L1361.02 812.688C1361.48 812.901 1361.79 813.422 1361.74 813.954L1362.02 818.455C1362.14 819.815 1363.62 820.414 1364.56 819.552L1367.85 816.535C1368.21 816.145 1368.8 816.052 1369.21 816.153L1373.55 817.348C1374.8 817.651 1375.83 816.369 1375.38 815.133L1373.58 810.943C1373.41 810.494 1373.43 809.849 1373.68 809.501L1376.04 805.678C1376.74 804.52 1375.87 803.182 1374.53 803.299L1370.03 803.7C1369.54 803.753 1368.98 803.581 1368.7 803.172L1365.77 799.661C1364.91 798.702 1363.28 799.055 1362.99 800.314L1362 804.777C1361.94 805.309 1361.59 805.699 1361.03 805.905L1356.87 807.585C1356.14 807.986 1355.98 809.582 1357.12 810.305Z" fill="#934141"/>
<path d="M1445.5 810.645C1445.27 819.52 1452.26 826.76 1461.08 826.984C1469.91 827.208 1477.11 820.184 1477.33 811.31C1477.52 803.619 1472.33 797.118 1465.18 795.447L1477.5 791.554C1483.19 796.23 1486.68 803.484 1486.5 811.523C1486.17 825.477 1474.71 836.434 1460.87 836.206C1446.99 835.874 1436.1 824.349 1436.33 810.433C1436.36 808.311 1436.74 806.177 1437.26 804.108L1449.57 800.215C1447.11 803.011 1445.54 806.645 1445.5 810.645Z" fill="#FFFACC"/>
<path d="M1465.08 795.487L1449.61 800.32C1447.15 803.116 1445.64 806.609 1445.5 810.647C1445.27 819.522 1452.26 826.762 1461.08 826.986C1469.91 827.21 1477.11 820.186 1477.33 811.312C1477.42 803.659 1472.22 797.158 1465.08 795.487ZM1470.29 812.767L1466.59 814.734C1466.22 814.99 1465.88 815.349 1465.83 815.838L1465.38 819.991C1465.25 821.212 1463.81 821.748 1462.92 820.908L1459.89 818.055C1459.53 817.719 1459 817.563 1458.6 817.716L1454.47 818.551C1453.27 818.765 1452.37 817.579 1452.88 816.448L1454.66 812.737C1454.85 812.314 1454.91 811.825 1454.61 811.348L1452.59 807.765C1451.97 806.708 1452.89 805.425 1454.01 805.596L1458.07 806.189C1458.56 806.243 1458.97 806.09 1459.3 805.731L1462.14 802.679C1462.97 801.782 1464.4 802.186 1464.62 803.396L1465.31 807.475C1465.36 807.926 1465.75 808.365 1466.17 808.559L1469.97 810.309C1471.36 810.609 1471.38 812.243 1470.29 812.767Z" fill="#6D3232"/>
<path d="M1470.29 812.766L1466.59 814.734C1466.22 814.99 1465.89 815.349 1465.83 815.837L1465.38 819.99C1465.25 821.212 1463.82 821.747 1462.92 820.908L1459.89 818.054C1459.53 817.719 1459.01 817.562 1458.6 817.715L1454.48 818.55C1453.27 818.764 1452.37 817.578 1452.89 816.448L1454.66 812.737C1454.86 812.313 1454.91 811.824 1454.62 811.347L1452.6 807.764C1451.97 806.708 1452.9 805.425 1454.01 805.596L1458.08 806.189C1458.56 806.242 1458.97 806.089 1459.31 805.73L1462.14 802.679C1462.98 801.781 1464.41 802.185 1464.62 803.395L1465.31 807.475C1465.36 807.925 1465.76 808.364 1466.18 808.558L1469.97 810.308C1471.36 810.609 1471.38 812.242 1470.29 812.766Z" fill="#934141"/>
<path d="M1376.08 773.835C1380.55 773.928 1384.16 777.735 1384.07 782.224L1383.83 790.404L1375.69 790.157C1371.23 790.064 1367.61 786.257 1367.7 781.768C1367.83 777.382 1371.62 773.743 1376.08 773.835Z" fill="#E8A6A6"/>
<path d="M1452.38 792.02L1444.24 791.772L1444.49 783.593C1444.58 779.104 1448.37 775.464 1452.83 775.557C1457.29 775.65 1460.91 779.457 1460.82 783.946C1460.63 788.473 1456.94 792.074 1452.38 792.02Z" fill="#E8A6A6"/>
<path d="M1377.6 687.585L1355.97 693.426C1352.27 694.455 1348.37 692.396 1346.93 688.828L1321.27 622.444C1315.6 607.684 1323.83 591.133 1339.11 587.071C1354.36 582.906 1369.74 592.992 1372.17 608.732L1383.09 679.089C1383.66 682.86 1381.3 686.556 1377.6 687.585Z" fill="#EBD2D2"/>
<path d="M1375.68 688.065L1359.26 692.548L1341.84 642.786C1338.32 632.613 1341.56 622.141 1348.76 620.16C1355.95 618.178 1363.99 625.731 1366 636.234L1375.68 688.065Z" fill="#CA6E91"/>
<path d="M1455.14 689.245L1476.43 696.072C1480.13 697.269 1484.12 695.431 1485.62 691.937L1514.16 626.786C1520.45 612.248 1512.97 595.462 1497.91 590.65C1482.85 585.838 1467.08 595.236 1463.97 610.815L1449.98 680.622C1449.24 684.298 1451.44 688.048 1455.14 689.245Z" fill="#EBD2D2"/>
<path d="M1457 689.843L1473.25 695.032L1492.85 646.107C1496.88 636.166 1494.1 625.481 1486.97 623.217C1479.84 620.954 1471.5 628.051 1469.09 638.564L1457 689.843Z" fill="#CA6E91"/>
<path d="M1330.73 703.664C1334.12 702.397 1335.85 698.602 1334.59 695.188C1333.33 691.774 1329.56 690.033 1326.16 691.3C1322.77 692.566 1321.04 696.361 1322.3 699.775C1323.56 703.19 1327.33 704.931 1330.73 703.664Z" fill="#AFE8D0"/>
<path d="M1321.41 712.533C1323.51 711.752 1324.57 709.411 1323.8 707.306C1323.02 705.201 1320.69 704.127 1318.6 704.908C1316.51 705.689 1315.44 708.029 1316.22 710.135C1316.99 712.24 1319.32 713.314 1321.41 712.533Z" fill="#AFE8D0"/>
<path d="M1539.07 761.314C1541.17 760.533 1542.24 758.193 1541.46 756.088C1540.68 753.982 1538.35 752.909 1536.26 753.69C1534.17 754.471 1533.1 756.811 1533.88 758.916C1534.65 761.022 1536.98 762.095 1539.07 761.314Z" fill="#AFE8D0"/>
<path d="M1387.22 913.033L1387.42 904.403C1387.5 898.628 1392.27 894.155 1398.01 894.24C1403.75 894.324 1408.2 899.112 1408.11 904.887L1407.92 913.517C1407.83 919.292 1403.07 923.765 1397.33 923.68C1391.69 923.557 1387.14 918.808 1387.22 913.033Z" fill="#89BEAA"/>
<path d="M1414.88 913.736L1415.07 905.105C1415.16 899.33 1419.92 894.858 1425.66 894.943C1431.4 895.027 1435.85 899.815 1435.77 905.59L1435.57 914.22C1435.49 919.995 1430.73 924.467 1424.98 924.383C1419.31 924.157 1414.76 919.407 1414.88 913.736Z" fill="#89BEAA"/>
<path d="M1405.18 913.367L1405.35 904.981C1405.36 903.103 1406.9 901.591 1408.8 901.7L1414.34 901.861C1416.21 901.868 1417.71 903.417 1417.6 905.333L1417.44 913.719C1417.43 915.596 1415.89 917.109 1413.98 916.999L1408.45 916.838C1406.68 916.794 1405.18 915.245 1405.18 913.367Z" fill="#AFE8D0"/>
<path d="M1399.51 905.282C1399.71 904.858 1400.18 904.564 1400.6 904.758L1422.91 912.143C1423.33 912.337 1423.62 912.814 1423.43 913.238C1423.24 913.662 1422.76 913.956 1422.34 913.761L1400.03 906.377C1399.65 906.286 1399.36 905.809 1399.51 905.282Z" fill="#AFE8D0"/>
<path d="M1399.36 912.726C1399.2 912.314 1399.46 911.749 1399.91 911.699L1422.52 905.373C1422.93 905.22 1423.49 905.48 1423.54 905.93C1423.69 906.342 1423.44 906.907 1422.99 906.957L1400.38 913.283C1399.97 913.436 1399.51 913.138 1399.36 912.726Z" fill="#AFE8D0"/>
<path d="M1372.02 1002.28C1374.11 1001.5 1375.18 999.161 1374.4 997.055C1373.62 994.95 1371.3 993.876 1369.2 994.657C1367.11 995.439 1366.04 997.779 1366.82 999.884C1367.6 1001.99 1369.92 1003.06 1372.02 1002.28Z" fill="#CCD6D5"/>
</g>
<defs>
<clipPath id="clip0_2670_424">
<rect width="1920" height="1080" fill="white"/>
</clipPath>
</defs>
</svg>
