<svg width="390" height="845" viewBox="0 0 390 845" fill="none" xmlns="http://www.w3.org/2000/svg">
<path d="M836.903 74.0732H-402V707.275H-348.863V324.469C-348.863 251.008 -309.249 191.432 -232.011 191.432H-63.6814C13.4597 191.432 54.1492 251.008 54.1492 324.469V807.073H337.761V324.469C337.761 251.008 400.287 191.432 477.525 191.432H644.099C721.24 191.432 783.863 251.008 783.863 324.469V707.275H837V74.0732H836.903Z" fill="#A977AB" fill-opacity="0.4"/>
<path d="M54.4831 75.0734H-16.8831C-18.7947 75.0734 -20.3877 73.4808 -20.3877 71.5697V39.5592C-20.3877 37.6481 -18.7947 36.0557 -16.8831 36.0557H54.4831C56.3947 36.0557 57.9877 37.6481 57.9877 39.5592V71.5697C58.0673 73.4808 56.4743 75.0734 54.4831 75.0734Z" fill="#C3ABC3"/>
<path d="M134.302 75.0734H62.9362C61.0246 75.0734 59.4316 73.4808 59.4316 71.5697V39.5592C59.4316 37.6481 61.0246 36.0557 62.9362 36.0557H134.302C136.214 36.0557 137.807 37.6481 137.807 39.5592V71.5697C137.887 73.4808 136.294 75.0734 134.302 75.0734Z" fill="#C3ABC3"/>
<path d="M214.193 75.0734H142.826C140.915 75.0734 139.322 73.4808 139.322 71.5697V39.5592C139.322 37.6481 140.915 36.0557 142.826 36.0557H214.193C216.104 36.0557 217.697 37.6481 217.697 39.5592V71.5697C217.697 73.4808 216.104 75.0734 214.193 75.0734Z" fill="#C3ABC3"/>
<path d="M293.996 75.0734H222.63C220.718 75.0734 219.125 73.4808 219.125 71.5697V39.5592C219.125 37.6481 220.718 36.0557 222.63 36.0557H293.996C295.908 36.0557 297.501 37.6481 297.501 39.5592V71.5697C297.501 73.4808 295.908 75.0734 293.996 75.0734Z" fill="#C3ABC3"/>
<path d="M373.805 75.0734H302.439C300.527 75.0734 298.934 73.4808 298.934 71.5697V39.5592C298.934 37.6481 300.527 36.0557 302.439 36.0557H373.805C375.716 36.0557 377.309 37.6481 377.309 39.5592V71.5697C377.309 73.4808 375.716 75.0734 373.805 75.0734Z" fill="#C3ABC3"/>
<path d="M453.609 75.0734H382.242C380.331 75.0734 378.738 73.4808 378.738 71.5697V39.5592C378.738 37.6481 380.331 36.0557 382.242 36.0557H453.609C455.52 36.0557 457.113 37.6481 457.113 39.5592V71.5697C457.113 73.4808 455.6 75.0734 453.609 75.0734Z" fill="#C3ABC3"/>
<path d="M115.814 33.1701H58.2944C56.7537 33.1701 55.4697 31.8865 55.4697 30.3462V4.54652C55.4697 3.00624 56.7537 1.72266 58.2944 1.72266H115.814C117.355 1.72266 118.639 3.00624 118.639 4.54652V30.3462C118.639 31.9507 117.355 33.1701 115.814 33.1701Z" fill="#C3ABC3"/>
<path d="M242.21 33.1701H184.69C183.15 33.1701 181.866 31.8865 181.866 30.3462V4.54652C181.866 3.00624 183.15 1.72266 184.69 1.72266H242.21C243.751 1.72266 245.035 3.00624 245.035 4.54652V30.3462C245.035 31.9507 243.751 33.1701 242.21 33.1701Z" fill="#C3ABC3"/>
<path d="M368.616 33.1701H311.097C309.556 33.1701 308.272 31.8865 308.272 30.3462V4.54652C308.272 3.00624 309.556 1.72266 311.097 1.72266H368.616C370.157 1.72266 371.441 3.00624 371.441 4.54652V30.3462C371.441 31.9507 370.157 33.1701 368.616 33.1701Z" fill="#C3ABC3"/>
<path d="M692.948 776.073H-242V832.052H692.948V776.073Z" fill="#746287" fill-opacity="0.61"/>
<path d="M28.5313 844.371H-29.7451C-31.3061 844.371 -32.6069 842.89 -32.6069 841.112V811.333C-32.6069 809.555 -31.3061 808.073 -29.7451 808.073H28.5313C30.0922 808.073 31.3931 809.555 31.3931 811.333V841.112C31.3931 842.89 30.1573 844.371 28.5313 844.371Z" fill="#C3ABC3"/>
<path d="M93.5291 844.371H35.2548C33.6938 844.371 32.3931 842.89 32.3931 841.112V811.333C32.3931 809.555 33.6938 808.073 35.2548 808.073H93.5291C95.09 808.073 96.3907 809.555 96.3907 811.333V841.112C96.4558 842.89 95.155 844.371 93.5291 844.371Z" fill="#C3ABC3"/>
<path d="M158.529 844.371H100.255C98.6938 844.371 97.3931 842.89 97.3931 841.112V811.333C97.3931 809.555 98.6938 808.073 100.255 808.073H158.529C160.09 808.073 161.391 809.555 161.391 811.333V841.112C161.456 842.89 160.155 844.371 158.529 844.371Z" fill="#C3ABC3"/>
<path d="M223.531 844.371H165.255C163.694 844.371 162.393 842.89 162.393 841.112V811.333C162.393 809.555 163.694 808.073 165.255 808.073H223.531C225.092 808.073 226.393 809.555 226.393 811.333V841.112C226.393 842.89 225.092 844.371 223.531 844.371Z" fill="#C3ABC3"/>
<path d="M288.531 844.371H230.255C228.694 844.371 227.393 842.89 227.393 841.112V811.333C227.393 809.555 228.694 808.073 230.255 808.073H288.531C290.092 808.073 291.393 809.555 291.393 811.333V841.112C291.393 842.89 290.092 844.371 288.531 844.371Z" fill="#C3ABC3"/>
<path d="M353.531 844.371H295.255C293.694 844.371 292.393 842.89 292.393 841.112V811.333C292.393 809.555 293.694 808.073 295.255 808.073H353.531C355.092 808.073 356.393 809.555 356.393 811.333V841.112C356.393 842.89 355.092 844.371 353.531 844.371Z" fill="#C3ABC3"/>
<path d="M418.531 844.371H360.255C358.694 844.371 357.393 842.89 357.393 841.112V811.333C357.393 809.555 358.694 808.073 360.255 808.073H418.531C420.092 808.073 421.393 809.555 421.393 811.333V841.112C421.393 842.89 420.157 844.371 418.531 844.371Z" fill="#C3ABC3"/>
<path d="M47.8651 384.073C46.721 384.073 45.7849 384.697 45.2648 385.633H-23.3833C-23.9034 384.697 -24.8395 384.073 -25.9836 384.073C-27.6478 384.073 -29 385.425 -29 387.089C-29 388.752 -27.6478 390.104 -25.9836 390.104C-24.8395 390.104 -23.9034 389.48 -23.3833 388.545H-21.1991V391.872V392.808V512.597L10.9407 493.984L43.0805 512.597V392.808V391.872V388.545H45.2648C45.7849 389.48 46.721 390.104 47.8651 390.104C49.5293 390.104 50.8815 388.752 50.8815 387.089C50.8815 385.425 49.5293 384.073 47.8651 384.073ZM39.7521 391.976H-17.9747V388.648H39.7521V391.976Z" fill="#746287"/>
<path d="M21.0174 454.262H15.8168L16.1289 419.22L11.3443 409.965L6.3517 419.115L6.03966 454.158H0.735045C-0.513103 454.158 -1.55322 455.198 -1.55322 456.446C-1.55322 457.694 -0.513103 458.733 0.735045 458.733H7.07979L6.97578 470.068C5.51961 471.627 5.20758 474.019 6.2477 475.891C7.59986 478.386 10.7202 479.218 13.1125 477.866C15.6088 476.515 16.4409 473.395 15.0887 471.004C14.8807 470.692 14.6727 470.276 14.3606 470.068V468.716V467.676V466.116V465.076V463.517V462.477V460.813V459.773V458.733H20.7054C21.9536 458.733 22.9937 457.694 22.9937 456.446C23.3057 455.302 22.2656 454.262 21.0174 454.262Z" fill="#B59FB0"/>
<path d="M419.865 384.073C418.721 384.073 417.785 384.697 417.265 385.633H348.617C348.097 384.697 347.16 384.073 346.016 384.073C344.352 384.073 343 385.425 343 387.089C343 388.752 344.352 390.104 346.016 390.104C347.16 390.104 348.097 389.48 348.617 388.545H350.801V391.872V392.808V512.597L382.941 493.984L415.081 512.597V392.808V391.872V388.545H417.265C417.785 389.48 418.721 390.104 419.865 390.104C421.529 390.104 422.881 388.752 422.881 387.089C422.881 385.425 421.529 384.073 419.865 384.073ZM411.752 391.976H354.025V388.648H411.752V391.976Z" fill="#746287"/>
<path d="M393.017 454.262H387.817L388.129 419.22L383.344 409.965L378.352 419.115L378.04 454.158H372.735C371.487 454.158 370.447 455.198 370.447 456.446C370.447 457.694 371.487 458.733 372.735 458.733H379.08L378.976 470.068C377.52 471.627 377.208 474.019 378.248 475.891C379.6 478.386 382.72 479.218 385.113 477.866C387.609 476.515 388.441 473.395 387.089 471.004C386.881 470.692 386.673 470.276 386.361 470.068V468.716V467.676V466.116V465.076V463.517V462.477V460.813V459.773V458.733H392.705C393.954 458.733 394.994 457.694 394.994 456.446C395.306 455.302 394.266 454.262 393.017 454.262Z" fill="#B59FB0"/>
<path opacity="0.24" d="M317.647 394.67C319.021 394.67 320.134 393.557 320.134 392.183C320.134 390.809 319.021 389.695 317.647 389.695C316.274 389.695 315.16 390.809 315.16 392.183C315.16 393.557 316.274 394.67 317.647 394.67Z" fill="#FFFACC"/>
<path opacity="0.24" d="M-0.0889297 320.17C3.17565 320.17 5.82208 317.523 5.82208 314.258C5.82208 310.993 3.17565 308.346 -0.0889297 308.346C-3.35351 308.346 -6 310.993 -6 314.258C-6 317.523 -3.35351 320.17 -0.0889297 320.17Z" fill="#FFFACC"/>
<path opacity="0.24" d="M359.089 431.853C362.353 431.853 365 429.206 365 425.941C365 422.675 362.353 420.028 359.089 420.028C355.824 420.028 353.178 422.675 353.178 425.941C353.178 429.206 355.824 431.853 359.089 431.853Z" fill="#FFFACC"/>
<path opacity="0.24" d="M308.355 140.264C311.365 141.527 314.83 140.11 316.093 137.099C317.357 134.088 315.941 130.623 312.93 129.36C309.92 128.097 306.455 129.514 305.192 132.525C303.929 135.536 305.345 139.001 308.355 140.264Z" fill="#FFFACC"/>
<path opacity="0.4" d="M205.315 152.98C207.03 153.699 209.003 152.892 209.723 151.178C210.442 149.463 209.635 147.489 207.92 146.77C206.206 146.05 204.232 146.857 203.513 148.572C202.793 150.287 203.6 152.26 205.315 152.98Z" fill="#FFFACC"/>
<path d="M137.649 700.616C139.055 700.536 140.13 699.331 140.05 697.925C139.97 696.519 138.765 695.444 137.359 695.524C135.953 695.604 134.878 696.809 134.958 698.215C135.039 699.621 136.243 700.696 137.649 700.616Z" fill="#D3A1A1"/>
<path d="M135.133 696.952C136.539 696.872 137.614 695.667 137.534 694.261C137.454 692.855 136.249 691.78 134.843 691.86C133.437 691.94 132.362 693.145 132.442 694.551C132.522 695.957 133.727 697.032 135.133 696.952Z" fill="#D3A1A1"/>
<path d="M141.525 702.699C142.931 702.619 144.006 701.414 143.926 700.008C143.846 698.602 142.641 697.527 141.235 697.607C139.829 697.687 138.754 698.892 138.834 700.298C138.914 701.704 140.119 702.779 141.525 702.699Z" fill="#D3A1A1"/>
<path d="M175.629 715.029C177.035 714.949 178.11 713.744 178.03 712.338C177.95 710.932 176.745 709.857 175.339 709.937C173.933 710.017 172.858 711.222 172.938 712.628C173.018 714.034 174.223 715.109 175.629 715.029Z" fill="#D3A1A1"/>
<path d="M179.929 713.933C181.335 713.853 182.41 712.648 182.33 711.242C182.25 709.836 181.045 708.761 179.639 708.841C178.233 708.921 177.158 710.126 177.238 711.532C177.318 712.938 178.523 714.013 179.929 713.933Z" fill="#D3A1A1"/>
<path d="M171.36 713.97C172.766 713.89 173.841 712.685 173.761 711.279C173.681 709.873 172.476 708.798 171.07 708.878C169.664 708.959 168.589 710.163 168.669 711.569C168.749 712.975 169.954 714.05 171.36 713.97Z" fill="#D3A1A1"/>
<path d="M38.2695 723.151C39.8685 723.06 41.0909 721.69 40.9999 720.091C40.9088 718.492 39.5388 717.269 37.9397 717.361C36.3407 717.452 35.1182 718.822 35.2093 720.421C35.3003 722.02 36.6704 723.242 38.2695 723.151Z" fill="#C6824B"/>
<path d="M41.3476 719.17C42.9466 719.079 44.169 717.709 44.078 716.11C43.9869 714.511 42.6169 713.288 41.0179 713.379C39.4188 713.47 38.1964 714.84 38.2874 716.439C38.3785 718.038 39.7486 719.261 41.3476 719.17Z" fill="#C6824B"/>
<path d="M33.7357 725.262C35.3348 725.171 36.5572 723.801 36.4662 722.202C36.3751 720.603 35.005 719.381 33.406 719.472C31.807 719.563 30.5845 720.933 30.6756 722.532C30.7667 724.131 32.1367 725.353 33.7357 725.262Z" fill="#C6824B"/>
<path d="M14.0905 668.839L15.6007 669.855C15.759 669.996 16.0086 669.982 16.2054 669.921L17.9185 669.222C18.4091 669.044 18.9339 669.465 18.7627 669.975L18.2631 671.757C18.2246 671.959 18.2359 672.159 18.3971 672.35L19.5777 673.735C19.9028 674.167 19.6374 674.783 19.0883 674.815L17.2384 674.87C17.0388 674.881 16.8448 674.992 16.7035 675.151L15.7405 676.708C15.4666 677.174 14.7592 677.064 14.581 676.574L13.9324 674.858C13.8712 674.661 13.7129 674.52 13.5075 674.431L11.7291 673.982C11.2214 673.86 11.0817 673.167 11.5139 672.842L12.9518 671.708C13.0959 671.6 13.2343 671.392 13.2201 671.142L13.1149 669.295C13.0422 668.899 13.6214 668.515 14.0905 668.839Z" fill="#FFB23E"/>
<path d="M14.1162 683.361L14.9519 683.965C15.0574 684.059 15.1572 684.053 15.3041 683.995L16.2855 683.638C16.5793 683.521 16.8459 683.807 16.7632 684.112L16.4677 685.08C16.4235 685.183 16.432 685.333 16.5375 685.427L17.1849 686.241C17.3489 686.482 17.219 686.84 16.9166 686.807L15.8655 686.817C15.7657 686.823 15.6188 686.881 15.5745 686.984L14.9711 687.82C14.7856 688.081 14.4305 688.001 14.3136 687.707L14.0071 686.723C13.9515 686.626 13.8959 686.529 13.7433 686.487L12.775 686.192C12.4698 686.109 12.3971 685.713 12.6881 685.546L13.5055 684.948C13.6025 684.893 13.6467 684.79 13.6382 684.64L13.6284 683.589C13.5172 683.395 13.8552 683.176 14.1162 683.361Z" fill="#FFB23E"/>
<path d="M36.1154 672.042L37.0079 673.644C37.1191 673.838 37.2774 673.979 37.527 673.965L39.3411 674.162C39.8959 674.231 40.1326 674.869 39.7531 675.241L38.4764 676.565C38.3351 676.724 38.2467 676.929 38.308 677.126L38.6599 678.909C38.791 679.452 38.2119 679.836 37.7484 679.612L36.0998 678.804C35.8944 678.716 35.6948 678.727 35.5008 678.838L33.8989 679.731C33.414 680.009 32.892 679.638 32.9606 679.083L33.2077 677.266C33.2463 677.064 33.185 676.867 33.0267 676.725L31.6549 675.502C31.2328 675.125 31.4455 674.462 31.9917 674.381L33.7746 674.029C33.9714 673.967 34.1654 673.856 34.2539 673.651L35.0115 672.005C35.1885 671.594 35.8902 671.604 36.1154 672.042Z" fill="#FFB23E"/>
<path d="M27.3704 661.071L27.6768 662.055C27.7324 662.152 27.788 662.249 27.9406 662.291L28.9589 662.583C29.2641 662.666 29.3368 663.063 29.0957 663.226L28.2783 663.824C28.1813 663.88 28.1399 664.032 28.1456 664.132L28.2053 665.18C28.2224 665.48 27.8815 665.649 27.6233 665.514L26.7877 664.91C26.685 664.866 26.5823 664.822 26.4354 664.88L25.4541 665.237C25.1603 665.354 24.8936 665.068 24.9764 664.763L25.2718 663.795C25.3161 663.692 25.3075 663.542 25.202 663.448L24.5547 662.634C24.3907 662.393 24.5206 662.035 24.8229 662.068L25.874 662.058C25.9739 662.052 26.1208 661.994 26.165 661.891L26.7685 661.055C26.8984 660.697 27.2535 660.777 27.3704 661.071Z" fill="#FFB23E"/>
<path d="M42.6514 640.919L43.4871 641.522C43.5926 641.616 43.6924 641.611 43.8394 641.552L44.8207 641.196C45.1145 641.079 45.3811 641.364 45.2984 641.669L45.003 642.638C44.9587 642.74 44.9672 642.89 45.0728 642.984L45.7201 643.799C45.8841 644.04 45.7542 644.398 45.4519 644.365L44.4007 644.375C44.3009 644.381 44.154 644.439 44.1097 644.542L43.5063 645.377C43.3208 645.638 42.9657 645.558 42.8488 645.264L42.5424 644.28C42.4868 644.183 42.4312 644.086 42.2786 644.045L41.3102 643.75C41.005 643.667 40.9324 643.27 41.2233 643.103L42.0407 642.506C42.1377 642.45 42.1819 642.348 42.1734 642.198L42.1636 641.147C42.0496 640.903 42.3905 640.733 42.6514 640.919Z" fill="#FFB23E"/>
<path d="M139.371 770.429C142.46 771.906 146.194 770.642 147.671 767.553C149.148 764.464 147.883 760.73 144.795 759.253L140.262 757.057L135.458 768.549L139.371 770.429Z" fill="#91BCBB"/>
<path d="M104.867 753.815L135.454 768.55L140.255 757.008L110.287 742.589L104.867 753.815Z" fill="#ACBFBE"/>
<path d="M133.859 767.789L138.739 756.744C139.051 756.075 139.836 755.78 140.502 756.043C141.171 756.355 141.466 757.14 141.203 757.806L136.323 768.851C136.011 769.52 135.226 769.815 134.56 769.552C133.842 769.243 133.547 768.458 133.859 767.789Z" fill="#8BA5A3"/>
<path d="M30.5738 770.915C27.9476 773.168 27.6702 777.09 29.9203 779.666C32.1732 782.292 36.0953 782.57 38.6715 780.32L42.4916 777.047L33.8675 768.073L30.5738 770.915Z" fill="#91BCBB"/>
<path d="M59.6049 745.976L33.8698 768.074L42.4967 777.098L67.7554 755.428L59.6049 745.976Z" fill="#ACBFBE"/>
<path d="M35.1529 766.899L43.322 775.799C43.8025 776.322 43.8009 777.174 43.2303 777.707C42.7068 778.188 41.8554 778.186 41.3221 777.615L33.153 768.715C32.6724 768.192 32.674 767.341 33.2446 766.807C33.8181 766.324 34.6724 766.375 35.1529 766.899Z" fill="#8BA5A3"/>
<path d="M30.1282 781.658C31.1207 781.601 31.8794 780.751 31.8229 779.758C31.7664 778.766 30.916 778.007 29.9235 778.064C28.931 778.12 28.1723 778.971 28.2288 779.963C28.2853 780.956 29.1357 781.714 30.1282 781.658Z" fill="#91BCBB"/>
<path d="M28.6292 778.889C29.6217 778.833 30.3804 777.982 30.3239 776.99C30.2674 775.997 29.417 775.239 28.4245 775.295C27.432 775.352 26.6733 776.202 26.7298 777.195C26.7863 778.187 27.6367 778.946 28.6292 778.889Z" fill="#91BCBB"/>
<path d="M32.7293 783.363C33.7218 783.306 34.4805 782.456 34.424 781.464C34.3675 780.471 33.5171 779.712 32.5246 779.769C31.5321 779.825 30.7734 780.676 30.8299 781.668C30.8864 782.661 31.7368 783.42 32.7293 783.363Z" fill="#91BCBB"/>
<path d="M68.6272 804.256C72.9556 804.009 76.2647 800.3 76.0182 795.972C75.7718 791.644 72.0631 788.335 67.7347 788.581C63.4063 788.828 60.0973 792.536 60.3437 796.865C60.5902 801.193 64.2989 804.502 68.6272 804.256Z" fill="#91BCBB"/>
<path d="M65.499 805.685C66.8499 805.608 67.8826 804.451 67.8057 803.1C67.7288 801.749 66.5713 800.716 65.2204 800.793C63.8695 800.87 62.8368 802.028 62.9137 803.379C62.9906 804.729 64.1481 805.762 65.499 805.685Z" fill="#91BCBB"/>
<path d="M62.1064 803.176C63.4573 803.099 64.4901 801.941 64.4131 800.59C64.3362 799.239 63.1787 798.207 61.8279 798.284C60.477 798.36 59.4442 799.518 59.5211 800.869C59.598 802.22 60.7555 803.253 62.1064 803.176Z" fill="#91BCBB"/>
<path d="M69.7461 806.296C71.097 806.219 72.1297 805.061 72.0528 803.71C71.9759 802.359 70.8184 801.327 69.4675 801.404C68.1166 801.481 67.0838 802.638 67.1608 803.989C67.2377 805.34 68.3952 806.373 69.7461 806.296Z" fill="#91BCBB"/>
<path d="M103.954 801.878C106.612 798.453 105.99 793.521 102.566 790.863C99.1407 788.205 94.2094 788.827 91.5513 792.252C88.8931 795.677 89.5147 800.608 92.9396 803.266C96.3645 805.924 101.296 805.303 103.954 801.878Z" fill="#91BCBB"/>
<path d="M102.972 805.177C103.801 804.108 103.607 802.569 102.538 801.74C101.469 800.91 99.9304 801.104 99.1008 802.173C98.2712 803.242 98.4651 804.781 99.534 805.611C100.603 806.44 102.142 806.246 102.972 805.177Z" fill="#91BCBB"/>
<path d="M98.8516 806.084C99.6812 805.016 99.4872 803.477 98.4183 802.647C97.3494 801.817 95.8103 802.011 94.9807 803.08C94.151 804.149 94.3451 805.688 95.414 806.518C96.483 807.347 98.022 807.153 98.8516 806.084Z" fill="#91BCBB"/>
<path d="M106.223 802.378C107.053 801.309 106.859 799.77 105.79 798.941C104.721 798.111 103.182 798.305 102.352 799.374C101.523 800.443 101.717 801.982 102.786 802.812C103.854 803.641 105.394 803.447 106.223 802.378Z" fill="#91BCBB"/>
<path d="M121.181 773.82L121.35 757.434L49.5434 756.715L49.3747 773.101C49.3285 775.808 49.8756 778.381 50.8607 780.729L119.561 781.424C120.581 779.112 121.185 776.524 121.181 773.82Z" fill="#ACBFBE"/>
<path d="M50.8628 780.729C53.7595 787.625 60.5474 792.497 68.4658 792.597L101.69 792.959C109.658 793.056 116.499 788.309 119.516 781.477L50.8628 780.729Z" fill="#B7D6D6"/>
<path d="M74.0773 773.246L46.7165 772.951L49.2022 759.438L80.2213 759.775L80.1485 767.292C80.0894 770.65 77.3861 773.308 74.0773 773.246Z" fill="#8BA5A3"/>
<path d="M96.4734 773.474L123.834 773.769L121.611 760.224L90.5914 759.887L90.5186 767.403C90.5094 770.759 93.1674 773.462 96.4734 773.474Z" fill="#8BA5A3"/>
<path d="M131.999 762.336L38.7953 761.383L49.9162 744.724L121.223 745.472L131.999 762.336Z" fill="#A61E00"/>
<path d="M35.4928 641.879L34.2151 676.608L72.0842 656.522L42.6376 638.067C39.5758 636.188 35.5905 638.318 35.4928 641.879Z" fill="#B7D6D6"/>
<path d="M41.6623 651.693L43.21 671.838L63.0924 661.29L47.2523 648.721C44.9393 646.799 41.439 648.651 41.6623 651.693Z" fill="#DB9EB7"/>
<path d="M138.067 642.948L138.592 677.674L101.146 656.82L130.931 638.998C134.029 637.119 138.012 639.346 138.067 642.948Z" fill="#B7D6D6"/>
<path d="M131.659 652.629L129.701 672.773L109.997 661.826L126.075 649.542C128.521 647.65 131.938 649.609 131.659 652.629Z" fill="#DB9EB7"/>
<path d="M146.856 702.044C147.159 672.166 120.251 647.67 86.7557 647.33C53.2602 646.991 25.8611 670.937 25.5582 700.815C25.2553 730.693 52.1633 755.189 85.6589 755.529C119.154 755.868 146.553 731.923 146.856 702.044Z" fill="#ACBFBE"/>
<path d="M125.761 660.727L87.0008 622.068L47.4395 659.928C55.3557 656.472 69.9494 654.189 86.6377 654.39C103.323 654.542 117.89 657.068 125.761 660.727Z" fill="#ACBFBE"/>
<path d="M86.8676 630.289L84.4911 632.528L84.2398 655.379C85.0413 655.384 85.7929 655.391 86.5945 655.395C87.396 655.4 88.1976 655.404 88.952 655.461L89.2033 632.61L86.8676 630.289Z" fill="#0D3F41"/>
<path d="M96.4625 639.608L96.2852 655.845C97.5417 655.923 98.7511 656.055 99.9106 656.189L100.067 643.109L96.4625 639.608Z" fill="#0D3F41"/>
<path d="M91.1585 634.402L90.9574 655.497C92.1112 655.532 93.2679 655.616 94.3746 655.703L94.5551 637.764L91.1585 634.402Z" fill="#0D3F41"/>
<path d="M79.0702 637.545L78.8897 655.484C80.0379 655.419 81.1389 655.406 82.3398 655.388L82.5409 634.293L79.0702 637.545Z" fill="#0D3F41"/>
<path d="M67.7989 648.102L67.7302 656.57C68.9225 656.402 70.1648 656.231 71.4099 656.11L71.5106 644.685L67.7989 648.102Z" fill="#0D3F41"/>
<path d="M101.973 644.953L101.873 656.378C103.135 656.556 104.347 656.737 105.559 656.919L105.628 648.451L101.973 644.953Z" fill="#0D3F41"/>
<path d="M117.724 660.334L107.493 650.399L107.436 657.314C111.639 658.126 115.151 659.128 117.724 660.334Z" fill="#0D3F41"/>
<path d="M55.4431 659.674C58.0847 658.572 61.5863 657.622 65.801 656.881L65.858 649.966L55.4431 659.674Z" fill="#0D3F41"/>
<path d="M73.4579 642.821L73.3012 655.901C74.4964 655.783 75.6945 655.715 76.9425 655.644L77.1197 639.408L73.4579 642.821Z" fill="#0D3F41"/>
<path d="M94.3313 656.707L96.2866 656.746L96.2854 655.845C95.6307 655.782 94.979 655.769 94.3742 655.703L94.3313 656.707Z" fill="#8BA5A3"/>
<path d="M113.771 672.677L113.701 681.996C113.678 685.103 111.116 687.602 108.009 687.579C104.903 687.555 102.403 684.993 102.427 681.887L102.572 668.607C100.183 667.992 97.753 667.53 95.2287 667.173L95.0219 688.168C94.9811 692.728 91.2807 696.344 86.7211 696.303C82.1614 696.262 78.5452 692.562 78.5861 688.002L78.7843 666.857C75.9474 667.169 73.1191 667.63 70.4491 668.233L70.3038 681.513C70.2803 684.619 67.7183 687.119 64.612 687.095C61.5057 687.072 59.006 684.51 59.0294 681.403L59.0998 672.084C43.1844 679.301 32.3837 692.787 32.2665 708.318C32.2013 713.33 33.2757 718.127 35.2345 722.623C37.0802 721.616 39.204 721.094 41.4089 721.119C48.523 721.165 54.2139 727.001 54.1155 734.068C54.0693 736.775 53.2102 739.277 51.7265 741.365C60.9345 747.401 72.713 751.088 85.5905 751.206C98.4679 751.324 110.292 747.896 119.625 742.056C118.205 739.984 117.358 737.428 117.404 734.721C117.45 727.607 123.286 721.916 130.353 722.014C132.608 722.036 134.694 722.618 136.507 723.667C138.559 719.243 139.736 714.418 139.801 709.407C140.018 693.869 129.524 680.194 113.771 672.677Z" fill="#B7D6D6"/>
<path d="M86.7221 696.304C91.2817 696.345 94.9821 692.729 95.023 688.169L95.2297 667.174C92.403 666.784 89.4849 666.549 86.5284 666.517C83.9241 666.515 81.3254 666.613 78.7853 666.858L78.5871 688.003C78.5462 692.563 82.1624 696.263 86.7221 696.304Z" fill="#8BCCCA"/>
<path d="M108.006 687.529C111.112 687.552 113.674 685.053 113.698 681.946L113.768 672.627C110.268 670.974 106.533 669.584 102.569 668.558L102.423 681.837C102.403 684.993 104.9 687.506 108.006 687.529Z" fill="#8BCCCA"/>
<path d="M64.6106 687.096C67.7169 687.12 70.2789 684.62 70.3024 681.514L70.4477 668.234C66.444 669.163 62.6628 670.48 59.1483 672.082L59.0779 681.401C59.0046 684.511 61.5043 687.073 64.6106 687.096Z" fill="#8BCCCA"/>
<path d="M41.4534 721.118C39.1985 721.096 37.1275 721.664 35.2789 722.621C38.5535 729.997 44.3313 736.479 51.8209 741.361C53.3074 739.323 54.1637 736.77 54.2099 734.063C54.2583 726.999 48.5703 721.213 41.4534 721.118Z" fill="#72B0BA"/>
<path d="M136.609 723.661C134.799 722.662 132.71 722.03 130.455 722.008C123.341 721.963 117.555 727.651 117.507 734.715C117.46 737.422 118.307 739.978 119.727 742.05C127.273 737.364 133.172 731.018 136.609 723.661Z" fill="#72B0BA"/>
<path d="M85.9004 727.551C81.6402 727.493 78.2379 724.031 78.2958 719.77L93.6806 719.946C93.6198 724.156 90.1605 727.608 85.9004 727.551Z" fill="#0D3F41"/>
<path d="M85.9389 724.794C82.6329 724.782 79.9932 723.28 79.9936 721.527L91.9197 721.649C91.9193 723.402 89.2449 724.806 85.9389 724.794Z" fill="#1C6666"/>
<path d="M69.8511 698.116C72.0061 698.143 73.7586 699.897 73.7339 702.101L73.7089 706.059L69.7511 706.034C67.5961 706.007 65.8436 704.254 65.8683 702.049C65.893 699.844 67.6961 698.088 69.8511 698.116Z" fill="#0D3F41"/>
<path d="M102.468 706.325L98.5097 706.3L98.5348 702.342C98.5623 700.187 100.316 698.435 102.52 698.46C104.675 698.487 106.428 700.24 106.403 702.445C106.426 704.597 104.623 706.353 102.468 706.325Z" fill="#0D3F41"/>
<path d="M73.4434 720.899C73.4434 720.899 63.2577 725.836 53.8595 722.615C44.4141 719.447 39.3302 709.32 39.3302 709.32C39.3302 709.32 49.516 704.383 58.9142 707.604C68.3623 710.822 73.4434 720.899 73.4434 720.899Z" fill="#FFFACC"/>
<path d="M56.8094 722.546C60.9172 722.312 64.0576 718.792 63.8237 714.685C63.5898 710.577 60.0701 707.436 55.9623 707.67C51.8545 707.904 48.714 711.424 48.9479 715.532C49.1818 719.639 52.7015 722.78 56.8094 722.546Z" fill="#0D3F41"/>
<path d="M54.8348 714.997C56.2409 714.917 57.3158 713.712 57.2357 712.306C57.1556 710.9 55.9509 709.825 54.5449 709.905C53.1388 709.985 52.0639 711.19 52.144 712.596C52.2241 714.002 53.4288 715.077 54.8348 714.997Z" fill="#1C6666"/>
<path d="M98.5038 721.174C98.5038 721.174 108.562 726.31 118.057 723.315C127.552 720.321 132.841 710.304 132.841 710.304C132.841 710.304 122.783 705.168 113.288 708.162C103.793 711.157 98.5038 721.174 98.5038 721.174Z" fill="#FFFACC"/>
<path d="M113.077 733.465C112.546 732.945 111.695 732.943 111.171 733.424C107.947 736.612 103.637 738.31 99.0774 738.269C97.5741 738.254 96.1094 738.037 94.6861 737.668C91.8367 736.878 89.197 735.376 87.0695 733.194L86.1141 732.246L85.1669 733.202C82.9844 735.329 80.3655 736.83 77.4516 737.547C76.021 737.929 74.579 738.112 73.0758 738.097C68.5161 738.056 64.3062 736.242 61.115 732.969C60.5845 732.448 59.7331 732.446 59.2095 732.927C58.6889 733.457 58.6873 734.309 59.1678 734.832C64.1671 739.956 71.3308 741.752 77.8518 740.179C80.8157 739.459 83.6427 738.096 86.0777 736.004C88.452 738.123 91.2913 739.614 94.1878 740.35C95.7637 740.761 97.3782 740.97 98.9813 740.979C104.043 741.041 109.094 739.151 112.985 735.374C113.609 734.887 113.61 734.036 113.077 733.465Z" fill="#26515B"/>
<path d="M117.422 722.693C121.53 722.459 124.67 718.94 124.436 714.832C124.202 710.724 120.682 707.584 116.575 707.818C112.467 708.052 109.326 711.571 109.56 715.679C109.794 719.787 113.314 722.927 117.422 722.693Z" fill="#0D3F41"/>
<path d="M115.443 715.144C116.849 715.064 117.924 713.859 117.844 712.453C117.764 711.047 116.559 709.972 115.153 710.052C113.747 710.132 112.672 711.337 112.752 712.743C112.832 714.149 114.037 715.224 115.443 715.144Z" fill="#1C6666"/>
<path d="M43.3967 673.33C44.8579 673.247 45.9749 671.995 45.8917 670.534C45.8085 669.073 44.5566 667.956 43.0954 668.039C41.6342 668.122 40.5172 669.374 40.6004 670.835C40.6836 672.296 41.9355 673.413 43.3967 673.33Z" fill="#CCD6D5"/>
<path d="M39.5451 677.005C40.5652 676.947 41.345 676.073 41.2869 675.053C41.2289 674.033 40.3548 673.253 39.3348 673.311C38.3147 673.369 37.5349 674.243 37.593 675.263C37.651 676.283 38.5251 677.063 39.5451 677.005Z" fill="#CCD6D5"/>
<path d="M142.9 695.208C143.92 695.15 144.7 694.276 144.642 693.256C144.584 692.236 143.71 691.456 142.69 691.514C141.67 691.572 140.89 692.446 140.948 693.466C141.006 694.486 141.88 695.266 142.9 695.208Z" fill="#CCD6D5"/>
<path d="M93.4119 765.435C93.4584 760.975 89.8978 757.372 85.438 757.325C80.9782 757.279 77.3748 760.839 77.3283 765.299C77.2647 769.46 80.4146 772.886 84.4478 773.357L84.464 771.003C83.5926 770.652 82.9425 769.787 82.9327 768.736C82.9586 767.433 84.0499 766.369 85.3506 766.345C86.6542 766.371 87.718 767.462 87.7419 768.763C87.7489 769.764 87.0983 770.652 86.1669 771.006L86.1508 773.361C90.1828 772.931 93.3454 769.545 93.4119 765.435Z" fill="#F5EA83"/>
<path d="M87.7464 768.762C87.7723 767.458 86.7085 766.367 85.3551 766.344C84.0515 766.318 82.9602 767.382 82.9371 768.735C82.944 769.737 83.5471 770.654 84.4684 771.002L84.4523 773.357C84.7546 773.39 85.007 773.425 85.3066 773.408C85.6061 773.391 85.9056 773.374 86.1552 773.36L86.1713 771.005C87.0528 770.655 87.7034 769.766 87.7464 768.762Z" fill="#FFB23E"/>
<path d="M80.8482 762.994C81.4823 762.958 81.9671 762.415 81.931 761.781C81.8949 761.147 81.3516 760.662 80.7175 760.698C80.0834 760.734 79.5986 761.278 79.6347 761.912C79.6708 762.546 80.2141 763.031 80.8482 762.994Z" fill="#FCF8DB"/>
<path d="M80.5107 784.249L56.2367 795.948C53.9474 797.08 51.2464 795.38 51.3012 792.823L51.3999 784.003L80.5107 784.249Z" fill="#617A78"/>
<path d="M89.8286 784.319L113.858 796.473C116.129 797.646 118.839 795.989 118.843 793.434L118.942 784.615L89.8286 784.319Z" fill="#617A78"/>
<path d="M50.9139 780.725L119.514 781.427C120.416 781.425 121.107 782.137 121.108 783.038C121.11 783.94 120.398 784.631 119.496 784.633L50.8962 783.931C49.9948 783.933 49.3032 783.221 49.302 782.319C49.3007 781.418 50.0126 780.726 50.9139 780.725Z" fill="#8BA5A3"/>
<path d="M175.377 699.118L147.07 744.651L152.314 747.908L186.263 693.29L175.377 699.118Z" fill="#89BEAA"/>
<path d="M185.861 705.583L186.263 693.29L152.314 747.908L157.554 751.115L185.861 705.583Z" fill="#B7D6D6"/>
<path d="M163.362 746.366L150.192 767.556L151.721 768.506L164.891 747.316L163.362 746.366Z" fill="#FF7F00"/>
<path d="M158.689 772.835L151.733 768.524L155.447 762.503L149.684 758.925L155.327 749.839L161.089 753.418L164.9 747.341L169.332 755.703L158.689 772.835Z" fill="#FBA036"/>
<path d="M134.075 757.51L129.551 749.304L140.332 731.963L147.289 736.274L143.478 742.351L149.241 745.929L143.598 755.014L137.836 751.436L134.075 757.51Z" fill="#FBA036"/>
<path d="M143.509 755.058L135.591 767.797L141.833 771.677L149.751 758.938L143.509 755.058Z" fill="#5B619B"/>
<path d="M155.296 748.489L150.416 745.462C150 745.185 149.448 745.166 149.01 745.392L143.955 748.083C143.517 748.309 143.243 748.775 143.221 749.277L143.046 754.996C143.025 755.498 143.303 755.983 143.719 756.26L148.599 759.287C149.016 759.564 149.568 759.583 150.005 759.357L155.061 756.666C155.498 756.44 155.772 755.974 155.794 755.472L155.969 749.753C155.991 749.251 155.762 748.763 155.296 748.489Z" fill="#FFDA40"/>
<path d="M152.377 748.206L152.013 747.976C150.612 747.104 148.806 747.057 147.298 747.844L146.91 748.066C145.453 748.851 144.487 750.358 144.434 752.064L144.409 752.516C144.353 754.172 145.196 755.776 146.648 756.645L147.011 756.875C148.413 757.746 150.219 757.794 151.726 757.007L152.114 756.785C153.572 756 154.538 754.493 154.591 752.787L154.615 752.335C154.671 750.679 153.829 749.075 152.377 748.206Z" fill="#45B236"/>
<path d="M141.978 754.969L140.843 756.795L149.378 762.1L150.513 760.274L141.978 754.969Z" fill="#FFDA40"/>
<path d="M133.284 769.976C131.953 772.105 132.611 774.872 134.74 776.203C136.869 777.534 139.636 776.876 140.967 774.747C141.15 774.436 141.286 774.178 141.418 773.87L133.94 769.187C133.655 769.454 133.467 769.665 133.284 769.976Z" fill="#398729"/>
<path d="M141.533 771.459L135.975 767.97L134.471 767.054L133.372 768.869L133.892 769.19L141.37 773.873L141.889 774.194L143.037 772.375L141.533 771.459Z" fill="#FFDA40"/>
<path d="M136.528 773.295L139.19 772.543L136.02 770.52L136.528 773.295Z" fill="#FFDA40"/>
<path d="M139.439 775.083L141.892 774.192L139.191 772.493L139.439 775.083Z" fill="#FFDA40"/>
<path d="M133.62 771.459L136.073 770.568L133.372 768.869L133.62 771.459Z" fill="#FFDA40"/>
<path d="M135.876 765.489L134.741 767.314L142.639 772.224L143.774 770.398L135.876 765.489Z" fill="#FBA036"/>
<path d="M137.397 764.904L137.133 765.329L143.375 769.209L143.639 768.784L137.397 764.904Z" fill="#495189"/>
<path d="M141.666 758.045L141.402 758.47L147.644 762.35L147.908 761.925L141.666 758.045Z" fill="#495189"/>
<path d="M138.238 763.499L137.974 763.924L144.216 767.804L144.48 767.379L138.238 763.499Z" fill="#495189"/>
<path d="M139.083 762.165L138.819 762.59L145.061 766.47L145.325 766.045L139.083 762.165Z" fill="#495189"/>
<path d="M139.97 760.785L139.707 761.21L145.949 765.09L146.213 764.665L139.97 760.785Z" fill="#495189"/>
<path d="M140.813 759.383L140.549 759.808L146.791 763.687L147.055 763.263L140.813 759.383Z" fill="#495189"/>
<path d="M138.341 776.097C138.644 776.08 138.876 775.82 138.858 775.517C138.841 775.214 138.581 774.982 138.278 774.999C137.975 775.016 137.743 775.276 137.76 775.579C137.778 775.883 138.037 776.115 138.341 776.097Z" fill="#A6F498"/>
<path d="M152.435 750.005L150.359 748.721C149.942 748.444 149.39 748.425 148.903 748.654L146.716 749.83C146.278 750.055 145.954 750.524 145.933 751.026L145.872 753.484C145.851 753.986 146.129 754.471 146.545 754.747L148.621 756.031C149.038 756.308 149.59 756.327 150.078 756.099L152.264 754.922C152.702 754.697 153.026 754.228 153.048 753.726L153.108 751.269C153.129 750.767 152.851 750.282 152.435 750.005Z" fill="#409E30"/>
<path d="M151.16 750.677L150.277 750.127C149.86 749.85 149.308 749.831 148.821 750.059L147.948 750.56C147.51 750.785 147.186 751.254 147.164 751.756L147.121 752.76C147.1 753.262 147.378 753.747 147.794 754.024L148.677 754.575C149.093 754.851 149.645 754.87 150.133 754.642L151.006 754.141C151.444 753.916 151.768 753.447 151.789 752.945L151.832 751.941C151.854 751.439 151.576 750.954 151.16 750.677Z" fill="#398729"/>
<path d="M149.738 749.356C150.151 749.333 150.468 748.978 150.444 748.565C150.42 748.151 150.066 747.835 149.653 747.859C149.239 747.882 148.923 748.237 148.946 748.65C148.97 749.064 149.324 749.38 149.738 749.356Z" fill="#62D34F"/>
<path d="M148.093 749.5C148.313 749.487 148.482 749.298 148.469 749.078C148.457 748.857 148.268 748.688 148.047 748.701C147.827 748.713 147.658 748.902 147.671 749.123C147.683 749.344 147.872 749.512 148.093 749.5Z" fill="#62D34F"/>
<path d="M130.777 751.538L129.548 749.305L140.332 732.014L142.201 733.159L130.777 751.538Z" fill="#FF7F00"/>
<path d="M145.023 767.754C146.043 767.696 146.823 766.822 146.765 765.802C146.707 764.782 145.833 764.002 144.813 764.06C143.793 764.118 143.013 764.992 143.071 766.012C143.129 767.032 144.003 767.812 145.023 767.754Z" fill="#91BCBB"/>
<path d="M142.747 769.987C143.767 769.929 144.547 769.055 144.489 768.035C144.431 767.015 143.557 766.235 142.536 766.293C141.516 766.351 140.737 767.225 140.795 768.245C140.853 769.265 141.727 770.045 142.747 769.987Z" fill="#91BCBB"/>
<path d="M146.057 764.691C147.077 764.633 147.857 763.759 147.799 762.739C147.741 761.719 146.867 760.939 145.847 760.997C144.827 761.055 144.047 761.929 144.105 762.95C144.163 763.97 145.037 764.749 146.057 764.691Z" fill="#91BCBB"/>
<path d="M109.586 757.503L126.071 757.666C126.773 757.677 127.356 758.244 127.349 758.996C127.339 759.698 126.771 760.281 126.02 760.274L109.534 760.111C108.832 760.1 108.249 759.533 108.256 758.781C108.266 758.079 108.834 757.496 109.586 757.503Z" fill="#C9361F"/>
<path d="M115.045 756.211L114.99 761.661L116.79 761.679L116.845 756.229L115.045 756.211Z" fill="#A61E00"/>
<path d="M45.6911 756.883L47.1944 756.898C47.8961 756.908 48.4793 757.476 48.472 758.227C48.4619 758.929 47.8941 759.512 47.1425 759.505L45.6392 759.49C44.9375 759.48 44.3543 758.913 44.3616 758.161C44.4216 757.457 44.9894 756.873 45.6911 756.883Z" fill="#C9361F"/>
<path d="M289.529 803.008C293.687 801.466 295.807 796.844 294.265 792.686C292.722 788.528 288.1 786.408 283.942 787.951C279.784 789.494 277.664 794.115 279.207 798.273C280.75 802.431 285.371 804.551 289.529 803.008Z" fill="#D3A1A1"/>
<path d="M284.46 804.627C285.761 804.145 286.424 802.699 285.941 801.398C285.459 800.097 284.013 799.433 282.712 799.916C281.411 800.399 280.747 801.845 281.23 803.146C281.713 804.447 283.159 805.11 284.46 804.627Z" fill="#D3A1A1"/>
<path d="M281.03 801.906C282.331 801.423 282.994 799.977 282.512 798.676C282.029 797.375 280.583 796.712 279.282 797.194C277.981 797.677 277.318 799.123 277.8 800.424C278.283 801.725 279.729 802.388 281.03 801.906Z" fill="#D3A1A1"/>
<path d="M288.708 805.467C290.009 804.984 290.672 803.539 290.19 802.238C289.707 800.937 288.261 800.273 286.96 800.756C285.659 801.239 284.996 802.685 285.478 803.986C285.961 805.287 287.407 805.95 288.708 805.467Z" fill="#D3A1A1"/>
<path d="M324.084 805.216C328.242 803.674 330.362 799.052 328.819 794.894C327.277 790.736 322.655 788.616 318.497 790.159C314.339 791.702 312.219 796.323 313.762 800.481C315.304 804.639 319.926 806.759 324.084 805.216Z" fill="#D3A1A1"/>
<path d="M324.399 807.202C325.7 806.719 326.364 805.273 325.881 803.972C325.398 802.671 323.953 802.008 322.652 802.49C321.351 802.973 320.687 804.419 321.17 805.72C321.653 807.021 323.099 807.684 324.399 807.202Z" fill="#D3A1A1"/>
<path d="M328.128 804.924C329.429 804.441 330.092 802.996 329.61 801.695C329.127 800.394 327.681 799.73 326.38 800.213C325.079 800.696 324.416 802.142 324.898 803.443C325.381 804.744 326.827 805.407 328.128 804.924Z" fill="#D3A1A1"/>
<path d="M320.076 807.44C321.377 806.957 322.041 805.511 321.558 804.21C321.075 802.909 319.629 802.246 318.328 802.729C317.027 803.211 316.364 804.657 316.847 805.958C317.329 807.259 318.775 807.922 320.076 807.44Z" fill="#D3A1A1"/>
<path d="M255.497 747.697L253.84 757.51L260.689 758.666L262.346 748.854L255.497 747.697Z" fill="#AFE8D0"/>
<path d="M262.33 748.838L260.673 758.65L279.326 761.801L280.983 751.988L262.33 748.838Z" fill="#89BEAA"/>
<path d="M253.234 759.566C257.494 757.986 259.666 753.251 258.085 748.991C256.505 744.731 251.77 742.559 247.51 744.139C243.25 745.72 241.078 750.454 242.658 754.715C244.239 758.975 248.974 761.147 253.234 759.566Z" fill="#EBD2D2"/>
<path d="M253.913 752.454C254.411 749.503 252.88 746.784 250.492 746.38C248.104 745.977 245.765 748.043 245.266 750.994C244.768 753.945 246.299 756.664 248.687 757.067C251.075 757.47 253.414 755.405 253.913 752.454Z" fill="#E8A6A6"/>
<path d="M244.502 745.598L245.322 753.141L249.583 752.677L248.763 745.135L244.502 745.598Z" fill="#FFB23E"/>
<path d="M246.96 723.113L249.145 743.164L246.364 743.46L243.645 718.143L246.96 723.113Z" fill="#89BEAA"/>
<path d="M241.418 723.752L243.646 718.144L246.365 743.461L243.602 743.803L241.418 723.752Z" fill="#B7D6D6"/>
<path d="M252.429 745.361L240.857 746.607C240.142 746.662 239.487 746.169 239.431 745.454C239.376 744.739 239.869 744.083 240.584 744.028L252.155 742.783C252.87 742.728 253.526 743.22 253.581 743.935C253.682 744.633 253.127 745.26 252.429 745.361Z" fill="#DE8E45"/>
<path d="M248.603 757.134C250.108 756.575 250.876 754.902 250.317 753.397C249.759 751.892 248.086 751.125 246.581 751.683C245.076 752.242 244.309 753.914 244.867 755.419C245.425 756.925 247.098 757.692 248.603 757.134Z" fill="#FFB23E"/>
<path d="M244.658 746.779L244.722 747.367L248.983 746.904L248.919 746.316L244.658 746.779Z" fill="#DE8E45"/>
<path d="M244.828 748.318L244.892 748.906L249.153 748.443L249.089 747.855L244.828 748.318Z" fill="#DE8E45"/>
<path d="M244.955 749.796L245.019 750.384L249.28 749.921L249.216 749.333L244.955 749.796Z" fill="#DE8E45"/>
<path d="M245.136 751.319L245.2 751.907L249.461 751.444L249.397 750.856L245.136 751.319Z" fill="#DE8E45"/>
<path d="M248.122 755.84C248.913 755.547 249.316 754.668 249.022 753.877C248.729 753.086 247.85 752.683 247.059 752.977C246.269 753.27 245.865 754.149 246.159 754.94C246.452 755.73 247.331 756.134 248.122 755.84Z" fill="#DE8E45"/>
<path d="M244.191 753.042C245.517 752.55 246.194 751.076 245.702 749.749C245.209 748.423 243.735 747.747 242.409 748.239C241.082 748.731 240.406 750.205 240.898 751.532C241.39 752.858 242.864 753.535 244.191 753.042Z" fill="#EBD2D2"/>
<path d="M245.862 748.902C247.188 748.41 247.865 746.935 247.373 745.609C246.88 744.282 245.406 743.606 244.08 744.098C242.753 744.59 242.077 746.065 242.569 747.391C243.061 748.718 244.535 749.394 245.862 748.902Z" fill="#EBD2D2"/>
<path d="M244.685 757.483C246.012 756.991 246.688 755.516 246.196 754.19C245.704 752.863 244.229 752.187 242.903 752.679C241.576 753.171 240.9 754.646 241.392 755.972C241.884 757.299 243.359 757.975 244.685 757.483Z" fill="#EBD2D2"/>
<path d="M349.221 750.691L350.447 760.567L357.341 759.712L356.115 749.835L349.221 750.691Z" fill="#AFE8D0"/>
<path d="M330.427 753.036L331.653 762.912L350.428 760.581L349.202 750.705L330.427 753.036Z" fill="#89BEAA"/>
<path d="M363.942 761.948C368.202 760.367 370.374 755.633 368.793 751.373C367.213 747.112 362.478 744.94 358.218 746.521C353.958 748.102 351.786 752.836 353.366 757.096C354.947 761.356 359.682 763.529 363.942 761.948Z" fill="#EBD2D2"/>
<path d="M366.195 753.605C365.826 750.635 363.579 748.469 361.176 748.767C358.772 749.065 357.123 751.715 357.492 754.685C357.861 757.656 360.108 759.822 362.511 759.523C364.914 759.225 366.564 756.575 366.195 753.605Z" fill="#E8A6A6"/>
<path d="M362.933 747.669L361.783 755.168L366.019 755.818L367.17 748.319L362.933 747.669Z" fill="#FFB23E"/>
<path d="M365.689 725.725L362.632 745.671L365.404 746.061L369.269 720.929L365.689 725.725Z" fill="#89BEAA"/>
<path d="M371.203 726.568L369.268 720.928L365.404 746.061L368.147 746.514L371.203 726.568Z" fill="#B7D6D6"/>
<path d="M359.654 745.148L371.14 746.93C371.86 747.03 372.319 747.701 372.219 748.421C372.118 749.142 371.448 749.6 370.727 749.5L359.241 747.718C358.521 747.618 358.062 746.947 358.163 746.227C358.263 745.507 358.98 745.03 359.654 745.148Z" fill="#DE8E45"/>
<path d="M364.72 759.662C366.225 759.103 366.992 757.431 366.434 755.926C365.876 754.421 364.203 753.653 362.698 754.212C361.193 754.77 360.425 756.443 360.984 757.948C361.542 759.453 363.215 760.22 364.72 759.662Z" fill="#FFB23E"/>
<path d="M362.764 748.857L362.675 749.441L366.911 750.091L367.001 749.507L362.764 748.857Z" fill="#DE8E45"/>
<path d="M362.531 750.362L362.441 750.946L366.677 751.596L366.767 751.012L362.531 750.362Z" fill="#DE8E45"/>
<path d="M362.264 751.85L362.174 752.435L366.411 753.085L366.5 752.5L362.264 751.85Z" fill="#DE8E45"/>
<path d="M362.049 753.349L361.959 753.934L366.196 754.584L366.285 753.999L362.049 753.349Z" fill="#DE8E45"/>
<path d="M364.241 758.368C365.032 758.074 365.435 757.195 365.142 756.405C364.849 755.614 363.97 755.211 363.179 755.504C362.388 755.797 361.985 756.676 362.278 757.467C362.572 758.258 363.451 758.661 364.241 758.368Z" fill="#DE8E45"/>
<path d="M369.068 755.791C370.395 755.298 371.071 753.824 370.579 752.497C370.087 751.171 368.613 750.495 367.286 750.987C365.96 751.479 365.283 752.953 365.775 754.28C366.268 755.606 367.742 756.283 369.068 755.791Z" fill="#EBD2D2"/>
<path d="M367.599 751.553C368.925 751.061 369.601 749.587 369.109 748.26C368.617 746.934 367.143 746.257 365.816 746.749C364.49 747.242 363.814 748.716 364.306 750.042C364.798 751.369 366.272 752.045 367.599 751.553Z" fill="#EBD2D2"/>
<path d="M368.387 760.193C369.713 759.701 370.39 758.226 369.897 756.9C369.405 755.573 367.931 754.897 366.604 755.389C365.278 755.881 364.602 757.356 365.094 758.682C365.586 760.009 367.06 760.685 368.387 760.193Z" fill="#EBD2D2"/>
<path d="M277.155 756.052L334.155 757.289L333.725 776.523C333.496 787.38 324.494 795.975 313.637 795.746L295.948 795.373C285.091 795.145 276.497 786.143 276.725 775.286L277.155 756.052Z" fill="#EBD2D2"/>
<path d="M317.994 782.147L319.718 785.238L356.112 786.029L354.185 782.96L317.994 782.147Z" fill="#AFE8D0"/>
<path d="M339.2 758.99L306.566 758.276L305.575 759.852L317.998 782.147L354.189 782.96L339.2 758.99Z" fill="#89BEAA"/>
<path d="M304.641 758.201L272.008 757.488L255.954 780.784L292.145 781.597L305.57 759.854L304.641 758.201Z" fill="#89BEAA"/>
<path d="M306.566 758.276L304.646 758.2L305.575 759.853L306.566 758.276Z" fill="#89BEAA"/>
<path d="M340.636 760.108C340.684 757.904 325.53 755.785 306.788 755.375C288.046 754.964 272.813 756.417 272.765 758.621C272.716 760.824 287.871 762.943 306.613 763.354C325.355 763.764 340.588 762.311 340.636 760.108Z" fill="#FFB23E"/>
<path d="M273.345 753.156L339.611 754.581C341.092 754.609 342.287 755.847 342.276 757.375C342.248 758.857 341.01 760.052 339.482 760.041L273.217 758.616C271.735 758.587 270.54 757.349 270.551 755.821C270.625 754.322 271.863 753.127 273.345 753.156Z" fill="#FFB23E"/>
<path d="M271.891 748.387L338.174 749.859C339.656 749.887 340.851 751.125 340.839 752.653C340.811 754.135 339.573 755.33 338.045 755.319L271.78 753.894C270.298 753.865 269.103 752.627 269.114 751.099C269.171 749.554 270.41 748.359 271.891 748.387Z" fill="#FFB23E"/>
<path d="M299.557 755.674L293.027 774.754L297.631 770.734L298.815 776.758L305.328 757.631L299.557 755.674Z" fill="#AFE8D0"/>
<path d="M311.475 755.93L317.173 775.255L312.731 771.07L311.309 777.01L305.593 757.639L311.475 755.93Z" fill="#AFE8D0"/>
<path d="M324.1 640.264L292.308 639.554C281.67 639.349 271.751 644.764 266.241 653.849L247.23 685.179C243.287 691.687 243.091 699.799 246.775 706.472L266.119 741.753C270.169 749.131 277.839 753.8 286.263 753.985L325.153 754.847C333.576 755.032 341.474 750.683 345.847 743.491L366.719 709.105C370.663 702.598 370.858 694.485 367.174 687.813L349.527 655.685C344.398 646.396 334.709 640.532 324.1 640.264Z" fill="#89BEAA"/>
<path d="M362.025 708.163C362.601 681.913 338.303 660.09 307.755 659.421C277.207 658.752 251.977 679.489 251.402 705.739C250.827 731.989 275.125 753.811 305.672 754.48C336.22 755.15 361.45 734.413 362.025 708.163Z" fill="#649B85"/>
<path d="M330.281 736.234C330.426 729.401 336.119 723.926 342.952 724.071C347.772 724.174 351.936 727.043 353.865 731.109C358.87 724.628 361.843 717.062 362.004 708.857C362.528 684.491 338.214 664.138 307.592 663.466C277.017 662.777 251.786 682.017 251.28 706.429C251.101 714.588 253.715 722.341 258.443 728.994C260.585 724.994 264.844 722.31 269.664 722.414C276.496 722.559 281.972 728.252 281.827 735.084C281.755 738.999 279.829 742.446 276.973 744.662C285.284 748.935 295.129 751.535 305.675 751.774C316.266 751.995 326.186 749.839 334.676 745.953C331.95 743.707 330.21 740.149 330.281 736.234Z" fill="#EBD2D2"/>
<path d="M281.906 735.161C282.051 728.329 276.622 722.618 269.743 722.491C264.923 722.387 260.664 725.071 258.523 729.071C262.975 735.406 269.391 740.803 277.023 744.802C279.925 742.569 281.789 739.093 281.906 735.161Z" fill="#E8A6A6"/>
<path d="M353.931 731.139C351.985 727.027 347.837 724.204 343.017 724.101C336.185 723.956 330.475 729.385 330.347 736.264C330.275 740.179 331.999 743.69 334.775 746.076C342.555 742.401 349.181 737.315 353.931 731.139Z" fill="#E8A6A6"/>
<path d="M306.417 720.341C303.033 720.283 300.304 717.459 300.408 714.058L312.746 714.314C312.642 717.716 309.865 720.428 306.417 720.341Z" fill="#6D3232"/>
<path d="M306.497 718.155C303.845 718.088 301.733 716.928 301.778 715.492L311.309 715.687C311.31 717.105 309.132 718.176 306.497 718.155Z" fill="#934141"/>
<path d="M305.8 749.837C308.873 749.906 311.604 747.211 312.967 743.237C311.183 742.112 308.712 741.4 305.968 741.368C303.269 741.318 300.765 741.932 298.881 742.946C300.107 746.958 302.727 749.769 305.8 749.837Z" fill="#C9345A"/>
<path d="M309.888 726.304L309.789 731.7C309.73 733.667 308.098 735.218 306.15 735.205C304.183 735.146 302.632 733.515 302.645 731.566L302.744 726.169C300.131 728.19 298.26 732.352 298.174 737.218C298.149 739.277 298.402 741.232 298.926 742.93C300.793 741.869 303.251 741.272 306.013 741.351C308.711 741.401 311.182 742.113 313.012 743.221C313.595 741.534 313.982 739.603 314.006 737.545C314.093 732.678 312.406 728.417 309.888 726.304Z" fill="#CA6E91"/>
<path d="M302.728 726.123L302.628 731.52C302.581 733.376 303.925 734.874 305.695 735.111L305.927 724.831C304.761 724.948 303.716 725.388 302.728 726.123Z" fill="#FFFACC"/>
<path d="M306.737 724.897L306.505 735.177C308.276 734.993 309.676 733.528 309.74 731.718L309.84 726.321C308.908 725.51 307.878 724.999 306.737 724.897Z" fill="#FFFACC"/>
<path d="M306.317 724.895C306.161 724.9 306.052 724.888 305.896 724.893L305.664 735.174C305.773 735.185 305.946 735.226 306.102 735.221C306.258 735.216 306.367 735.228 306.523 735.223L306.755 724.943C306.628 724.884 306.473 724.89 306.317 724.895Z" fill="#EACACA"/>
<path d="M292.29 711.446C292.189 715.424 288.926 718.526 284.965 718.472C280.987 718.372 277.885 715.109 277.939 711.148C278.026 707.7 280.503 704.889 283.74 704.266L278.281 702.298C275.668 704.318 273.887 707.449 273.805 711.052C273.656 717.308 278.614 722.457 284.87 722.606C291.126 722.755 296.275 717.797 296.424 711.541C296.438 710.59 296.344 709.626 296.111 708.714L290.651 706.746C291.708 708.036 292.325 709.699 292.29 711.446Z" fill="#FFFACC"/>
<path d="M277.986 711.13C277.885 715.108 281.034 718.354 285.012 718.454C288.991 718.555 292.236 715.406 292.337 711.428C292.355 709.635 291.755 708.018 290.698 706.729L283.788 704.248C280.522 704.934 278.044 707.745 277.986 711.13ZM281.153 710.743L282.891 710.046C283.076 709.977 283.226 709.816 283.296 709.58L283.718 707.742C283.841 707.224 284.504 707.03 284.878 707.469L286.095 708.909C286.21 709.077 286.446 709.147 286.648 709.125L288.528 708.953C289.088 708.903 289.42 709.515 289.153 709.929L288.162 711.506C288.075 711.696 288.051 711.915 288.119 712.099L288.863 713.82C289.098 714.311 288.617 714.857 288.099 714.735L286.29 714.25C286.071 714.226 285.869 714.248 285.718 714.409L284.342 715.655C283.948 716.012 283.269 715.738 283.282 715.208L283.173 713.356C283.151 713.155 283.019 712.941 282.875 712.836L281.253 711.862C280.59 711.635 280.599 710.949 281.153 710.743Z" fill="#6D3232"/>
<path d="M281.123 711.952L282.879 713.021C283.085 713.116 283.228 713.35 283.203 713.588L283.328 715.606C283.385 716.216 284.051 716.484 284.475 716.098L285.957 714.745C286.119 714.571 286.386 714.529 286.573 714.574L288.529 715.109C289.09 715.245 289.557 714.671 289.351 714.117L288.541 712.239C288.466 712.037 288.472 711.748 288.584 711.592L289.649 709.878C289.967 709.359 289.574 708.759 288.97 708.812L286.94 708.992C286.722 709.015 286.466 708.938 286.342 708.755L285.021 707.181C284.634 706.751 283.9 706.909 283.769 707.474L283.321 709.474C283.296 709.713 283.134 709.888 282.885 709.98L281.01 710.733C280.68 710.913 280.606 711.628 281.123 711.952Z" fill="#934141"/>
<path d="M320.962 712.105C320.861 716.083 324.01 719.329 327.988 719.429C331.966 719.53 335.212 716.381 335.312 712.403C335.4 708.955 333.057 706.041 329.836 705.292L335.39 703.546C337.954 705.643 339.528 708.895 339.446 712.498C339.298 718.754 334.131 723.666 327.893 723.563C321.637 723.415 316.725 718.248 316.828 712.01C316.842 711.058 317.013 710.102 317.247 709.174L322.8 707.429C321.689 708.682 320.979 710.312 320.962 712.105Z" fill="#FFFACC"/>
<path d="M329.79 705.31L322.817 707.476C321.706 708.729 321.026 710.295 320.962 712.106C320.861 716.084 324.01 719.33 327.988 719.43C331.966 719.531 335.212 716.382 335.313 712.404C335.353 708.973 333.011 706.059 329.79 705.31ZM332.139 713.056L330.469 713.938C330.302 714.053 330.151 714.214 330.127 714.433L329.925 716.295C329.865 716.842 329.219 717.082 328.816 716.706L327.449 715.427C327.288 715.276 327.051 715.206 326.867 715.275L325.009 715.649C324.466 715.745 324.059 715.213 324.291 714.706L325.093 713.043C325.18 712.853 325.204 712.634 325.072 712.42L324.161 710.814C323.88 710.34 324.297 709.765 324.798 709.842L326.631 710.107C326.85 710.131 327.035 710.063 327.185 709.902L328.464 708.534C328.841 708.132 329.486 708.313 329.582 708.855L329.893 710.684C329.915 710.886 330.093 711.083 330.283 711.17L331.993 711.954C332.621 712.089 332.63 712.821 332.139 713.056Z" fill="#6D3232"/>
<path d="M332.141 713.055L330.471 713.937C330.304 714.052 330.153 714.213 330.129 714.432L329.927 716.294C329.867 716.841 329.221 717.081 328.818 716.705L327.45 715.426C327.289 715.276 327.053 715.205 326.868 715.274L325.01 715.648C324.468 715.744 324.061 715.212 324.293 714.706L325.095 713.042C325.182 712.852 325.206 712.633 325.074 712.419L324.162 710.813C323.882 710.339 324.299 709.764 324.8 709.841L326.633 710.107C326.852 710.131 327.037 710.062 327.187 709.901L328.466 708.533C328.842 708.131 329.488 708.312 329.584 708.854L329.894 710.683C329.917 710.885 330.095 711.082 330.285 711.169L331.995 711.953C332.623 712.088 332.632 712.82 332.141 713.055Z" fill="#934141"/>
<path d="M289.669 695.604C291.681 695.645 293.313 697.352 293.271 699.364L293.161 703.031L289.494 702.92C287.481 702.879 285.85 701.172 285.891 699.16C285.95 697.194 287.657 695.562 289.669 695.604Z" fill="#E8A6A6"/>
<path d="M324.062 703.755L320.396 703.645L320.506 699.978C320.548 697.965 322.255 696.334 324.267 696.375C326.279 696.417 327.911 698.124 327.869 700.136C327.781 702.165 326.121 703.78 324.062 703.755Z" fill="#E8A6A6"/>
<path d="M290.351 656.938L280.603 659.557C278.935 660.018 277.173 659.095 276.527 657.496L264.961 627.736C262.401 621.12 266.111 613.7 273.002 611.879C279.876 610.012 286.809 614.533 287.903 621.589L292.826 653.13C293.086 654.82 292.019 656.477 290.351 656.938Z" fill="#EBD2D2"/>
<path d="M289.487 657.153L282.088 659.163L274.232 636.855C272.645 632.294 274.108 627.6 277.352 626.712C280.596 625.824 284.217 629.21 285.123 633.918L289.487 657.153Z" fill="#CA6E91"/>
<path d="M325.31 657.682L334.906 660.743C336.576 661.279 338.372 660.455 339.052 658.889L351.915 629.682C354.752 623.165 351.382 615.64 344.591 613.483C337.8 611.325 330.693 615.539 329.291 622.522L322.983 653.816C322.648 655.464 323.64 657.146 325.31 657.682Z" fill="#EBD2D2"/>
<path d="M326.147 657.951L333.473 660.277L342.309 638.344C344.123 633.888 342.872 629.098 339.658 628.083C336.444 627.069 332.685 630.25 331.596 634.963L326.147 657.951Z" fill="#CA6E91"/>
<path d="M269.221 664.146C270.752 663.578 271.532 661.877 270.964 660.347C270.397 658.816 268.695 658.036 267.165 658.604C265.634 659.171 264.854 660.873 265.422 662.403C265.99 663.934 267.691 664.714 269.221 664.146Z" fill="#AFE8D0"/>
<path d="M265.024 668.122C265.967 667.772 266.449 666.723 266.098 665.779C265.748 664.835 264.699 664.354 263.755 664.704C262.812 665.054 262.33 666.103 262.68 667.047C263.031 667.991 264.08 668.472 265.024 668.122Z" fill="#AFE8D0"/>
<path d="M363.147 689.99C364.09 689.64 364.572 688.591 364.221 687.647C363.871 686.703 362.822 686.222 361.878 686.572C360.935 686.922 360.453 687.971 360.803 688.915C361.154 689.859 362.203 690.34 363.147 689.99Z" fill="#AFE8D0"/>
<path d="M294.691 758.004L294.78 754.136C294.818 751.547 296.964 749.542 299.553 749.58C302.142 749.618 304.147 751.764 304.109 754.353L304.02 758.221C303.982 760.81 301.836 762.815 299.247 762.777C296.705 762.722 294.654 760.593 294.691 758.004Z" fill="#89BEAA"/>
<path d="M307.159 758.32L307.247 754.451C307.285 751.862 309.431 749.857 312.02 749.895C314.609 749.933 316.614 752.079 316.576 754.668L316.488 758.537C316.45 761.126 314.303 763.131 311.715 763.093C309.155 762.992 307.104 760.862 307.159 758.32Z" fill="#89BEAA"/>
<path d="M302.787 758.154L302.863 754.395C302.866 753.553 303.561 752.875 304.42 752.924L306.916 752.996C307.758 752.999 308.436 753.693 308.387 754.552L308.31 758.311C308.307 759.153 307.613 759.831 306.754 759.782L304.258 759.71C303.462 759.69 302.784 758.996 302.787 758.154Z" fill="#AFE8D0"/>
<path d="M300.232 754.529C300.32 754.339 300.533 754.208 300.723 754.295L310.779 757.605C310.969 757.692 311.101 757.906 311.014 758.096C310.927 758.286 310.713 758.418 310.523 758.331L300.467 755.02C300.294 754.979 300.162 754.766 300.232 754.529Z" fill="#AFE8D0"/>
<path d="M300.161 757.867C300.093 757.682 300.209 757.429 300.411 757.406L310.604 754.57C310.788 754.502 311.042 754.618 311.064 754.82C311.133 755.005 311.016 755.258 310.815 755.28L300.622 758.116C300.437 758.185 300.23 758.051 300.161 757.867Z" fill="#AFE8D0"/>
<path d="M287.836 798.013C288.779 797.663 289.261 796.614 288.91 795.67C288.56 794.726 287.511 794.245 286.567 794.595C285.624 794.946 285.142 795.995 285.492 796.938C285.843 797.882 286.892 798.364 287.836 798.013Z" fill="#CCD6D5"/>
</svg>
