<svg width="510" height="702" viewBox="0 0 510 702" fill="none" xmlns="http://www.w3.org/2000/svg">
<rect x="13.6305" y="6.00488" width="483.788" height="22.0198" fill="#633A14"/>
<path d="M479.829 77.0693H31.7959V531.55L261.954 661.594L479.829 531.55V77.0693Z" fill="#A61E00" stroke="#FFB23E" stroke-width="10.1517"/>
<rect x="64" y="6" width="32.3864" height="74.1753" fill="#FFB23E"/>
<rect x="135.041" y="6" width="32.3864" height="74.1753" fill="#FFB23E"/>
<rect x="206.082" y="6" width="32.3864" height="74.1753" fill="#FFB23E"/>
<rect x="277.123" y="6" width="32.3864" height="74.1753" fill="#FFB23E"/>
<rect x="348.164" y="6" width="32.3864" height="74.1753" fill="#FFB23E"/>
<rect x="419.206" y="6" width="32.3864" height="74.1753" fill="#FFB23E"/>
<rect x="496.276" width="13.6278" height="34.0306" rx="2.08944" fill="#DE8E45"/>
<rect width="13.6278" height="34.0306" rx="2.08944" fill="#DE8E45"/>
<path d="M260.645 656V83.0732H474.704V530.531L260.645 656Z" fill="#8A1900"/>
<rect x="26.9042" y="533.083" width="10.3479" height="43.789" fill="#FFB23E"/>
<rect x="57.9443" y="551.17" width="10.3479" height="43.789" fill="#FFB23E"/>
<rect x="88.9928" y="568.305" width="10.3479" height="44.7409" fill="#FFB23E"/>
<rect x="120.033" y="584.487" width="10.3479" height="44.7409" fill="#FFB23E"/>
<rect x="151.081" y="601.622" width="10.3479" height="44.7409" fill="#FFB23E"/>
<rect x="182.121" y="616.854" width="10.3479" height="44.7409" fill="#FFB23E"/>
<rect x="256.626" y="657.786" width="10.3479" height="43.789" fill="#FFB23E"/>
<rect x="213.17" y="633.988" width="10.3479" height="43.789" fill="#FFB23E"/>
<rect width="10.3479" height="43.789" transform="matrix(-1 0 0 1 484.352 533.083)" fill="#FFB23E"/>
<rect width="10.3479" height="43.789" transform="matrix(-1 0 0 1 458.408 548.313)" fill="#FFB23E"/>
<rect width="10.3479" height="44.7409" transform="matrix(-1 0 0 1 427.368 568.305)" fill="#FFB23E"/>
<rect width="10.3479" height="44.7409" transform="matrix(-1 0 0 1 396.328 585.439)" fill="#FFB23E"/>
<rect width="10.3479" height="44.7409" transform="matrix(-1 0 0 1 365.279 602.574)" fill="#FFB23E"/>
<rect width="10.3479" height="44.7409" transform="matrix(-1 0 0 1 334.239 621.612)" fill="#FFB23E"/>
<rect width="10.3479" height="43.789" transform="matrix(-1 0 0 1 303.19 638.748)" fill="#FFB23E"/>
</svg>
