<svg width="308" height="77" viewBox="0 0 308 77" fill="none" xmlns="http://www.w3.org/2000/svg">
<g filter="url(#filter0_b_1701_378)">
<rect width="307.376" height="76.6543" rx="30.3581" fill="#FFB23E"/>
<path d="M125.315 3.41028H165.465L89.0502 72.475H46.3096L125.315 3.41028Z" fill="#F5EA83"/>
<path d="M188.308 3.41028H228.458L152.043 72.475H109.302L188.308 3.41028Z" fill="#F5EA83"/>
<path d="M108.64 48.5287V29.4031H118.422C120.935 29.4031 122.812 29.8676 124.05 30.7966C125.289 31.7073 125.908 32.9095 125.908 34.4031C125.908 35.3867 125.644 36.2519 125.116 36.9987C124.606 37.7273 123.877 38.3102 122.93 38.7474C122.001 39.1663 120.89 39.3758 119.597 39.3758L120.143 38.0643C121.491 38.0643 122.666 38.2738 123.668 38.6927C124.669 39.0934 125.444 39.6854 125.99 40.4687C126.555 41.2337 126.837 42.1718 126.837 43.2829C126.837 44.9404 126.163 46.2337 124.815 47.1626C123.486 48.0734 121.537 48.5287 118.968 48.5287H108.64ZM113.996 44.6217H118.531C119.46 44.6217 120.161 44.4668 120.635 44.1572C121.127 43.8293 121.373 43.3375 121.373 42.6818C121.373 42.026 121.127 41.5433 120.635 41.2337C120.161 40.9058 119.46 40.7419 118.531 40.7419H113.613V36.9987H117.711C118.622 36.9987 119.305 36.8439 119.761 36.5343C120.216 36.2246 120.444 35.7601 120.444 35.1408C120.444 34.5215 120.216 34.0661 119.761 33.7747C119.305 33.465 118.622 33.3102 117.711 33.3102H113.996V44.6217ZM134.612 36.8075H143.491V40.8512H134.612V36.8075ZM134.994 44.3484H144.994V48.5287H129.639V29.4031H144.639V33.5834H134.994V44.3484ZM157.559 48.9113C156.047 48.9113 154.645 48.6745 153.351 48.2009C152.058 47.7091 150.938 47.0169 149.991 46.1244C149.062 45.2319 148.333 44.1845 147.805 42.9823C147.277 41.7619 147.013 40.4231 147.013 38.9659C147.013 37.5087 147.277 36.1791 147.805 34.9769C148.333 33.7565 149.071 32.7 150.018 31.8075C150.965 30.915 152.085 30.2319 153.379 29.7583C154.69 29.2665 156.12 29.0206 157.668 29.0206C159.472 29.0206 161.084 29.3212 162.504 29.9223C163.925 30.5233 165.1 31.3885 166.029 32.5179L162.586 35.6326C161.931 34.9222 161.22 34.394 160.455 34.0479C159.708 33.6836 158.871 33.5015 157.942 33.5015C157.122 33.5015 156.375 33.629 155.701 33.884C155.027 34.139 154.453 34.5124 153.98 35.0042C153.506 35.4778 153.133 36.0516 152.86 36.7255C152.605 37.3812 152.477 38.1281 152.477 38.9659C152.477 39.7674 152.605 40.5051 152.86 41.179C153.133 41.853 153.506 42.4359 153.98 42.9277C154.453 43.4013 155.018 43.7747 155.674 44.0479C156.348 44.3029 157.085 44.4304 157.887 44.4304C158.688 44.4304 159.472 44.3029 160.237 44.0479C161.002 43.7747 161.776 43.3193 162.559 42.6818L165.592 46.4796C164.499 47.2628 163.233 47.8639 161.794 48.2828C160.355 48.7018 158.943 48.9113 157.559 48.9113ZM160.81 45.7692V38.5561H165.592V46.4796L160.81 45.7692ZM169.022 48.5287V29.4031H174.431V48.5287H169.022ZM178.28 48.5287V29.4031H182.734L193.28 42.1353H191.176V29.4031H196.477V48.5287H192.023L181.477 35.7965H183.581V48.5287H178.28Z" fill="#A61E00"/>
</g>
<defs>
<filter id="filter0_b_1701_378" x="-4.99083" y="-4.99083" width="317.358" height="86.6359" filterUnits="userSpaceOnUse" color-interpolation-filters="sRGB">
<feFlood flood-opacity="0" result="BackgroundImageFix"/>
<feGaussianBlur in="BackgroundImageFix" stdDeviation="2.49541"/>
<feComposite in2="SourceAlpha" operator="in" result="effect1_backgroundBlur_1701_378"/>
<feBlend mode="normal" in="SourceGraphic" in2="effect1_backgroundBlur_1701_378" result="shape"/>
</filter>
</defs>
</svg>
