<svg width="871" height="549" viewBox="0 0 871 549" fill="none" xmlns="http://www.w3.org/2000/svg">
<path d="M414.6 333.813C422.372 335.748 430.24 331.017 432.176 323.246C434.111 315.474 429.38 307.606 421.609 305.67C413.837 303.735 405.969 308.466 404.033 316.237C402.098 324.009 406.829 331.877 414.6 333.813Z" fill="#C6824B"/>
<path d="M412.073 336.819C414.51 337.426 416.977 335.943 417.583 333.506C418.19 331.07 416.707 328.603 414.27 327.996C411.834 327.389 409.367 328.873 408.76 331.309C408.154 333.745 409.637 336.212 412.073 336.819Z" fill="#C6824B"/>
<path d="M405.606 332.3C408.043 332.907 410.51 331.424 411.117 328.988C411.723 326.551 410.24 324.084 407.804 323.478C405.367 322.871 402.9 324.354 402.294 326.79C401.687 329.227 403.17 331.694 405.606 332.3Z" fill="#C6824B"/>
<path d="M419.887 337.876C422.323 338.483 424.79 337 425.397 334.563C426.004 332.127 424.52 329.66 422.084 329.053C419.647 328.446 417.181 329.93 416.574 332.366C415.967 334.802 417.45 337.269 419.887 337.876Z" fill="#C6824B"/>
<path d="M477.179 333.889C484.95 335.825 492.819 331.094 494.754 323.322C496.69 315.551 491.959 307.682 484.187 305.747C476.416 303.812 468.547 308.543 466.612 316.314C464.677 324.085 469.408 331.954 477.179 333.889Z" fill="#C6824B"/>
<path d="M484.522 336.848C486.959 337.455 489.426 335.972 490.033 333.535C490.639 331.099 489.156 328.632 486.72 328.025C484.283 327.418 481.816 328.902 481.209 331.338C480.603 333.775 482.086 336.242 484.522 336.848Z" fill="#C6824B"/>
<path d="M490.983 332.318C493.419 332.925 495.886 331.442 496.493 329.005C497.1 326.569 495.616 324.102 493.18 323.495C490.744 322.888 488.277 324.372 487.67 326.808C487.063 329.245 488.546 331.711 490.983 332.318Z" fill="#C6824B"/>
<path d="M476.751 337.901C479.188 338.508 481.655 337.025 482.262 334.588C482.868 332.152 481.385 329.685 478.949 329.078C476.512 328.472 474.045 329.955 473.439 332.391C472.832 334.828 474.315 337.295 476.751 337.901Z" fill="#C6824B"/>
<path d="M382.92 287.475L515.957 287.487C515.95 300.167 505.617 310.519 492.937 310.511L405.944 310.495C393.187 310.469 382.912 300.155 382.92 287.475Z" fill="#DE8E45"/>
<path d="M402.314 287.457L496.57 287.504C496.595 293.892 491.447 298.991 485.06 299.016L413.826 298.967C407.457 298.916 402.282 293.75 402.314 287.457Z" fill="#FFFACC"/>
<path d="M510.626 209.661L388.254 209.64L374.115 278.091L524.757 278.125L510.626 209.661Z" fill="#A977AB"/>
<path d="M452.695 234.39L446.111 234.388L446.1 278.047L452.684 278.048L452.695 234.39Z" fill="#88538C"/>
<path d="M550.511 209.093C560.635 211.614 570.885 205.451 573.406 195.327C575.927 185.204 569.764 174.953 559.641 172.432C549.517 169.911 539.266 176.074 536.745 186.198C534.224 196.321 540.387 206.572 550.511 209.093Z" fill="#DE8E45"/>
<path d="M567.885 186.036C571.035 186.82 574.225 184.902 575.01 181.752C575.795 178.601 573.877 175.411 570.726 174.627C567.575 173.842 564.385 175.76 563.601 178.911C562.816 182.061 564.734 185.251 567.885 186.036Z" fill="#DE8E45"/>
<path d="M571.822 195.499C574.973 196.284 578.163 194.366 578.947 191.215C579.732 188.065 577.814 184.875 574.664 184.09C571.513 183.306 568.323 185.224 567.538 188.374C566.754 191.525 568.672 194.715 571.822 195.499Z" fill="#DE8E45"/>
<path d="M560.083 179.408C563.234 180.192 566.424 178.274 567.208 175.124C567.993 171.973 566.075 168.783 562.924 167.999C559.774 167.214 556.584 169.132 555.799 172.283C555.015 175.433 556.933 178.623 560.083 179.408Z" fill="#DE8E45"/>
<path d="M560.931 175.985C562.191 176.299 563.467 175.532 563.781 174.271C564.095 173.011 563.328 171.735 562.067 171.421C560.807 171.108 559.531 171.875 559.217 173.135C558.904 174.395 559.671 175.671 560.931 175.985Z" fill="#FFFACC"/>
<path d="M568.732 182.613C569.992 182.927 571.268 182.16 571.582 180.9C571.896 179.639 571.129 178.363 569.869 178.049C568.609 177.736 567.333 178.503 567.019 179.763C566.705 181.023 567.472 182.299 568.732 182.613Z" fill="#FFFACC"/>
<path d="M572.676 192.077C573.936 192.39 575.212 191.623 575.526 190.363C575.84 189.103 575.073 187.827 573.813 187.513C572.552 187.199 571.276 187.966 570.963 189.226C570.649 190.487 571.416 191.763 572.676 192.077Z" fill="#FFFACC"/>
<path d="M563.878 199.917C568.349 196.642 568.654 189.458 564.561 183.87C560.467 178.282 553.525 176.407 549.055 179.682C544.585 182.957 544.28 190.141 548.373 195.729C552.466 201.316 559.408 203.191 563.878 199.917Z" fill="#FFFACC"/>
<path d="M526.698 192.423L470.673 233.464L488.971 258.441L544.995 217.4L526.698 192.423Z" fill="#A977AB"/>
<path d="M536.771 185.077L526.717 192.442L545.015 217.419L555.069 210.054L536.771 185.077Z" fill="#FFB23E"/>
<path d="M339.225 208.981C349.348 211.502 359.599 205.339 362.12 195.216C364.641 185.092 358.478 174.841 348.354 172.32C338.231 169.799 327.98 175.962 325.459 186.086C322.938 196.209 329.101 206.46 339.225 208.981Z" fill="#DE8E45"/>
<path d="M328.08 185.931C331.231 186.716 334.421 184.798 335.205 181.647C335.99 178.496 334.072 175.306 330.921 174.522C327.771 173.737 324.581 175.655 323.796 178.806C323.012 181.956 324.93 185.146 328.08 185.931Z" fill="#DE8E45"/>
<path d="M324.191 195.384C327.342 196.168 330.532 194.25 331.317 191.1C332.101 187.949 330.183 184.759 327.033 183.975C323.882 183.19 320.692 185.108 319.908 188.259C319.123 191.409 321.041 194.599 324.191 195.384Z" fill="#DE8E45"/>
<path d="M335.943 179.327C339.093 180.111 342.283 178.193 343.068 175.043C343.853 171.892 341.935 168.702 338.784 167.917C335.634 167.133 332.444 169.051 331.659 172.201C330.874 175.352 332.792 178.542 335.943 179.327Z" fill="#DE8E45"/>
<path d="M336.797 175.904C338.057 176.218 339.333 175.45 339.647 174.19C339.961 172.93 339.193 171.654 337.933 171.34C336.673 171.026 335.397 171.794 335.083 173.054C334.769 174.314 335.536 175.59 336.797 175.904Z" fill="#FFFACC"/>
<path d="M328.934 182.508C330.194 182.822 331.47 182.055 331.784 180.795C332.098 179.534 331.331 178.258 330.07 177.945C328.81 177.631 327.534 178.398 327.22 179.658C326.906 180.918 327.674 182.194 328.934 182.508Z" fill="#FFFACC"/>
<path d="M327.923 190.329C328.264 189.075 327.525 187.783 326.272 187.442C325.018 187.101 323.726 187.84 323.385 189.093C323.044 190.346 323.783 191.639 325.036 191.98C326.289 192.321 327.582 191.582 327.923 190.329Z" fill="#FFFACC"/>
<path d="M350.424 195.503C354.52 189.918 354.22 182.734 349.752 179.457C345.284 176.179 338.342 178.05 334.245 183.634C330.148 189.219 330.449 196.403 334.916 199.68C339.384 202.957 346.327 201.087 350.424 195.503Z" fill="#FFFACC"/>
<path d="M372.121 192.296L353.808 217.259L409.802 258.335L428.114 233.372L372.121 192.296Z" fill="#A977AB"/>
<path d="M362.066 184.886L343.753 209.85L353.802 217.221L372.115 192.258L362.066 184.886Z" fill="#FFB23E"/>
<path d="M395.984 244.118L398.096 246.018C398.362 246.245 398.666 246.321 399.008 246.245L401.764 245.558C402.543 245.348 403.305 246.184 402.944 246.983L401.806 249.607C401.654 249.893 401.73 250.235 401.902 250.52L403.406 252.914C403.882 253.598 403.255 254.492 402.457 254.454L399.624 254.153C399.301 254.153 398.959 254.229 398.731 254.496L396.889 256.703C396.319 257.369 395.33 257.122 395.139 256.267L394.547 253.454C394.471 253.112 394.205 252.884 393.919 252.732L391.276 251.67C390.477 251.31 390.419 250.245 391.16 249.864L393.63 248.379C393.915 248.208 394.067 247.922 394.143 247.618L394.368 244.766C394.406 243.968 395.394 243.568 395.984 244.118Z" fill="#FFB23E"/>
<path d="M416.423 266.818L417.394 268.11C417.508 268.3 417.66 268.338 417.907 268.319L419.542 268.241C420.036 268.203 420.303 268.754 420.037 269.172L419.145 270.485C419.031 270.618 418.974 270.846 419.089 271.036L419.679 272.556C419.813 272.993 419.452 273.469 419.014 273.279L417.436 272.806C417.284 272.768 417.037 272.787 416.923 272.92L415.631 273.891C415.232 274.195 414.738 273.911 414.699 273.416L414.698 271.801C414.66 271.629 414.621 271.458 414.412 271.326L413.1 270.433C412.681 270.167 412.757 269.54 413.27 269.425L414.771 268.911C414.942 268.873 415.056 268.74 415.113 268.511L415.587 266.933C415.51 266.591 416.119 266.419 416.423 266.818Z" fill="#FFB23E"/>
<path d="M422.67 240.747L422.672 242.363C422.71 242.534 422.748 242.706 422.958 242.838L424.346 243.75C424.765 244.015 424.689 244.643 424.252 244.776L422.751 245.291C422.58 245.329 422.447 245.538 422.409 245.69L422.011 247.288C421.897 247.744 421.308 247.84 420.985 247.517L420.014 246.225C419.9 246.035 419.748 245.997 419.5 246.016L417.866 246.094C417.371 246.132 417.105 245.581 417.37 245.163L418.263 243.85C418.377 243.717 418.434 243.489 418.319 243.299L417.729 241.778C417.595 241.341 417.956 240.866 418.393 241.056L419.972 241.529C420.124 241.567 420.371 241.548 420.485 241.415L421.777 240.444C422.137 239.968 422.632 240.253 422.67 240.747Z" fill="#FFB23E"/>
<path d="M435.161 259.368L435.753 262.181C435.829 262.523 436.001 262.808 436.381 262.903L439.006 264.041C439.804 264.402 439.862 265.466 439.121 265.847L436.594 267.237C436.309 267.409 436.081 267.675 436.082 267.998L435.78 270.831C435.724 271.705 434.678 272.011 434.089 271.46L431.996 269.485C431.729 269.257 431.425 269.181 431.083 269.257L428.27 269.849C427.414 270.04 426.805 269.242 427.166 268.443L428.38 265.838C428.532 265.552 428.532 265.229 428.36 264.944L426.875 262.474C426.418 261.714 427.045 260.82 427.9 260.952L430.733 261.254C431.057 261.254 431.399 261.177 431.627 260.911L433.526 258.799C433.981 258.266 434.97 258.513 435.161 259.368Z" fill="#FFB23E"/>
<path d="M387.015 267.168L387.264 268.764C387.302 268.935 387.416 269.126 387.568 269.163L389.014 269.846C389.451 270.036 389.452 270.683 388.996 270.892L387.59 271.673C387.4 271.787 387.286 271.92 387.324 272.091L387.078 273.726C387.041 274.202 386.432 274.373 386.109 274.051L384.929 272.949C384.796 272.835 384.568 272.778 384.397 272.816L382.781 273.141C382.344 273.275 381.906 272.762 382.172 272.343L382.855 270.898C382.969 270.764 382.95 270.517 382.836 270.327L382.055 268.921C381.826 268.541 382.206 267.99 382.662 268.103L384.298 268.349C384.45 268.387 384.716 268.291 384.83 268.158L385.931 266.979C386.368 266.522 386.977 266.674 387.015 267.168Z" fill="#FFB23E"/>
<path d="M366.238 213.69L367.304 214.924C367.437 215.038 367.57 215.152 367.817 215.133L369.395 214.96C369.889 214.922 370.175 215.397 369.909 215.816L369.074 217.223C368.96 217.356 368.979 217.603 369.017 217.774L369.703 219.238C369.912 219.694 369.476 220.15 369.019 220.037L367.422 219.639C367.27 219.601 367.023 219.62 366.909 219.754L365.674 220.819C365.351 221.143 364.762 220.915 364.723 220.421L364.646 218.786C364.607 218.615 364.493 218.425 364.36 218.311L362.953 217.476C362.534 217.21 362.591 216.659 363.047 216.449L364.567 215.858C364.738 215.82 364.871 215.611 364.909 215.459L365.307 213.862C365.325 213.462 365.933 213.291 366.238 213.69Z" fill="#FFB23E"/>
<path d="M397.541 227.463L397.866 229.079C397.904 229.25 398.018 229.439 398.17 229.477L399.635 230.084C400.072 230.274 400.092 230.844 399.712 231.073L398.305 231.854C398.115 231.968 398.002 232.101 398.04 232.272L397.889 233.85C397.852 234.325 397.319 234.516 396.901 234.25L395.721 233.149C395.588 233.035 395.36 232.978 395.189 233.016L393.649 233.36C393.212 233.493 392.774 232.98 392.964 232.543L393.647 231.098C393.685 230.945 393.742 230.717 393.609 230.603L392.752 229.178C392.523 228.798 392.827 228.228 393.283 228.341L394.861 228.492C395.014 228.53 395.204 228.416 395.394 228.301L396.419 227.103C396.875 226.893 397.484 227.045 397.541 227.463Z" fill="#FFB23E"/>
<path d="M473.564 244.295L475.353 246.518C475.524 246.803 475.905 246.898 476.228 246.897L479.117 246.647C479.935 246.609 480.525 247.483 480.031 248.168L478.455 250.602C478.304 250.888 478.228 251.192 478.38 251.553L479.504 254.175C479.79 254.974 479.107 255.773 478.27 255.564L475.475 254.787C475.17 254.712 474.828 254.788 474.543 254.959L472.378 256.843C471.751 257.414 470.743 256.921 470.704 256.104L470.53 253.233C470.53 252.91 470.359 252.625 470.092 252.397L467.639 250.897C466.935 250.48 467.048 249.377 467.846 249.091L470.526 248.062C470.792 247.967 471.096 247.719 471.19 247.339L471.891 244.525C471.967 243.897 473.012 243.592 473.564 244.295Z" fill="#FFB23E"/>
<path d="M466.852 266.049L467.823 267.341C467.937 267.531 468.089 267.569 468.336 267.549L469.971 267.472C470.465 267.433 470.732 267.984 470.466 268.403L469.574 269.715C469.46 269.849 469.403 270.077 469.517 270.267L470.108 271.787C470.241 272.224 469.881 272.7 469.443 272.51L467.865 272.036C467.713 271.998 467.466 272.018 467.352 272.151L466.06 273.122C465.661 273.426 465.166 273.141 465.128 272.647L465.126 271.031C465.088 270.86 465.05 270.689 464.841 270.556L463.528 269.664C463.11 269.398 463.185 268.771 463.698 268.656L465.2 268.141C465.371 268.103 465.485 267.97 465.542 267.742L466.015 266.164C465.939 265.821 466.547 265.65 466.852 266.049Z" fill="#FFB23E"/>
<path d="M505.045 259.323L505.637 262.136C505.713 262.478 505.885 262.763 506.265 262.858L508.89 263.996C509.688 264.357 509.746 265.421 509.005 265.802L506.478 267.192C506.193 267.364 505.965 267.63 505.965 267.953L505.664 270.786C505.608 271.661 504.562 271.966 503.973 271.415L501.88 269.44C501.613 269.212 501.309 269.136 500.967 269.213L498.154 269.805C497.298 269.995 496.689 269.197 497.05 268.399L498.264 265.793C498.416 265.508 498.416 265.185 498.244 264.9L496.759 262.43C496.302 261.67 496.929 260.775 497.784 260.908L500.617 261.209C500.941 261.209 501.283 261.133 501.511 260.866L503.41 258.754C503.865 258.222 504.911 258.563 505.045 259.323Z" fill="#FFB23E"/>
<path d="M497.055 238.836L497.057 240.452C497.095 240.623 497.133 240.794 497.342 240.927L498.731 241.838C499.149 242.104 499.074 242.731 498.637 242.865L497.135 243.38C496.964 243.418 496.831 243.627 496.794 243.779L496.396 245.376C496.282 245.833 495.693 245.928 495.369 245.605L494.399 244.314C494.266 244.2 494.132 244.086 493.885 244.105L492.25 244.183C491.756 244.221 491.489 243.67 491.755 243.251L492.648 241.939C492.761 241.806 492.818 241.578 492.704 241.388L492.113 239.867C491.98 239.43 492.341 238.954 492.778 239.144L494.356 239.618C494.509 239.656 494.756 239.637 494.87 239.503L496.161 238.533C496.522 238.057 497.017 238.342 497.055 238.836Z" fill="#FFB23E"/>
<path d="M529.298 215.766L530.269 217.058C530.383 217.248 530.535 217.286 530.782 217.266L532.417 217.189C532.911 217.15 533.178 217.701 532.912 218.12L532.02 219.433C531.906 219.566 531.849 219.794 531.963 219.984L532.554 221.504C532.687 221.941 532.327 222.417 531.889 222.227L530.311 221.753C530.159 221.716 529.912 221.735 529.798 221.868L528.506 222.839C528.107 223.143 527.612 222.858 527.574 222.364L527.572 220.748C527.534 220.577 527.496 220.406 527.287 220.273L525.974 219.381C525.556 219.115 525.631 218.488 526.144 218.373L527.646 217.859C527.817 217.82 527.931 217.687 527.988 217.459L528.461 215.881C528.404 215.463 528.993 215.367 529.298 215.766Z" fill="#FFB23E"/>
<path d="M374.113 278.091L372.182 287.465L526.626 287.477L524.755 278.125L374.113 278.091Z" fill="#FFB23E"/>
<path d="M396.576 181.42L502.219 181.476C515.469 181.464 526.125 192.196 526.137 205.446C526.149 218.697 515.418 229.353 502.167 229.365L396.6 229.328C383.35 229.34 372.694 218.608 372.682 205.358C372.67 192.107 383.401 181.451 396.576 181.42Z" fill="#FFFACC"/>
<path d="M484.781 197.005C472.253 197.036 462.111 186.836 462.157 174.327L456.657 105.266C454.28 105.078 451.961 104.985 449.546 104.949C447.132 104.913 444.756 105.048 442.455 105.203L436.891 174.255C436.922 186.783 426.722 196.925 414.213 196.879L394.746 196.878C387.56 196.866 380.885 194.8 375.331 191.155C384.634 219.32 414.328 239.882 449.536 239.926C484.744 239.97 514.439 219.335 523.786 191.209C518.2 194.827 511.548 196.886 504.362 196.873L484.781 197.005Z" fill="#FFFACC"/>
<path d="M456.557 105.322L462.057 174.384C462.087 186.912 472.172 197.016 484.681 197.062L504.149 197.063C511.335 197.076 517.987 195.016 523.572 191.399C525.544 185.428 526.622 179.153 526.635 172.614C526.698 137.33 495.931 108.423 456.557 105.322Z" fill="#DE8E45"/>
<path d="M414.1 197.013C426.628 196.982 436.733 186.897 436.779 174.388L442.343 105.336C403.031 108.471 372.241 137.395 372.216 172.527C372.203 179.067 373.293 185.396 375.218 191.288C380.791 194.857 387.523 197.018 394.633 197.011L414.1 197.013Z" fill="#DE8E45"/>
<path d="M410.214 192.168C418.111 194.134 426.108 189.327 428.074 181.429C430.041 173.532 425.233 165.536 417.336 163.569C409.439 161.602 401.442 166.41 399.476 174.307C397.509 182.205 402.317 190.201 410.214 192.168Z" fill="#FFFACC"/>
<path d="M411.296 187.833C416.799 189.203 422.371 185.853 423.741 180.35C425.111 174.847 421.761 169.275 416.258 167.905C410.755 166.535 405.184 169.885 403.813 175.388C402.443 180.89 405.793 186.462 411.296 187.833Z" fill="#770000"/>
<path d="M409.116 177.76C410.503 178.105 411.906 177.261 412.251 175.875C412.597 174.489 411.753 173.085 410.366 172.74C408.98 172.394 407.577 173.238 407.231 174.625C406.886 176.011 407.73 177.414 409.116 177.76Z" fill="#A32626"/>
<path d="M481.543 192.161C489.44 194.128 497.437 189.32 499.403 181.423C501.37 173.525 496.562 165.529 488.665 163.562C480.768 161.595 472.771 166.403 470.805 174.301C468.838 182.198 473.646 190.194 481.543 192.161Z" fill="#FFFACC"/>
<path d="M482.619 187.824C488.122 189.195 493.694 185.845 495.064 180.342C496.435 174.839 493.085 169.267 487.582 167.897C482.079 166.526 476.507 169.876 475.136 175.379C473.766 180.882 477.116 186.454 482.619 187.824Z" fill="#770000"/>
<path d="M488.504 177.819C489.89 178.165 491.294 177.321 491.639 175.934C491.984 174.548 491.14 173.145 489.754 172.799C488.368 172.454 486.964 173.298 486.619 174.684C486.274 176.07 487.118 177.474 488.504 177.819Z" fill="#A32626"/>
<path d="M449.468 191.523C443.328 191.529 438.342 186.572 438.356 180.355L460.655 180.335C460.566 186.532 455.609 191.518 449.468 191.523Z" fill="#770000"/>
<path d="M449.412 187.552C444.64 187.575 440.798 185.487 440.796 182.902L458.077 182.924C458.098 185.433 454.184 187.528 449.412 187.552Z" fill="#A32626"/>
<path d="M449.433 219.222C456.943 219.234 463.56 221.529 467.214 225.023C470.157 221.637 472.169 217.453 472.83 212.851C464.599 213.79 456.023 211.251 449.497 205.344C443.969 210.349 436.995 213.055 429.485 213.043C428.364 213.006 427.242 212.969 426.139 212.856C426.771 217.456 428.79 221.674 431.74 225.075C435.272 221.592 441.905 219.286 449.433 219.222Z" fill="#EBD2D2"/>
<path d="M449.448 233.12C456.558 233.113 462.905 230.009 467.197 225.1C463.62 221.624 457.021 219.254 449.417 219.299C441.908 219.287 435.275 221.593 431.647 225.132C436.005 230.014 442.338 233.126 449.448 233.12Z" fill="#CA6E91"/>
<path d="M434.126 209.675L441.711 209.706L441.734 213.508C441.698 215.599 440.064 217.293 437.954 217.333C435.863 217.296 434.169 215.663 434.129 213.553L434.126 209.675Z" fill="white"/>
<path d="M457.151 209.673L464.737 209.704L464.759 213.506C464.723 215.598 463.09 217.291 460.979 217.331C458.888 217.295 457.195 215.662 457.155 213.551L457.151 209.673Z" fill="white"/>
<path d="M490.432 202.209C489.861 201.583 488.891 201.583 488.245 202.23C483.953 206.493 478.556 209.026 472.949 209.811C464.927 210.883 456.579 208.4 450.433 202.265L449.329 201.182L448.247 202.286C443.195 207.328 436.448 210.091 429.338 210.098C428.121 210.118 426.943 209.986 425.764 209.854C419.984 209.061 414.658 206.442 410.453 202.244C409.882 201.617 408.913 201.618 408.267 202.265C407.64 202.836 407.641 203.806 408.288 204.452C413.14 209.295 419.264 212.274 425.957 212.971C427.06 213.084 428.181 213.121 429.303 213.158C436.736 213.152 443.787 210.465 449.314 205.46C455.84 211.366 464.417 213.906 472.647 212.967C479.129 212.239 485.4 209.438 490.358 204.453C491.098 203.749 491.098 202.779 490.432 202.209Z" fill="#D3CB90"/>
<path d="M422.264 148.642C425.249 148.658 427.646 151.032 427.63 154.017L427.597 159.34L422.274 159.307C419.289 159.29 416.892 156.916 416.908 153.931C416.905 151.023 419.279 148.625 422.264 148.642Z" fill="#FFFACC"/>
<path d="M476.625 159.351L471.302 159.318L471.335 153.995C471.351 151.01 473.725 148.613 476.71 148.629C479.695 148.646 482.092 151.02 482.076 154.004C481.984 156.97 479.609 159.368 476.625 159.351Z" fill="#FFFACC"/>
<path d="M493.31 105.669L461.778 30.2063L459.745 31.5579C459.46 31.7292 459.308 32.0146 459.29 32.4138L459.216 35.3035C459.179 36.102 458.248 36.5971 457.563 36.1035L455.337 34.3375C455.071 34.1096 454.766 34.0338 454.405 34.1863L451.688 35.0442C450.908 35.2541 450.128 34.4943 450.489 33.6955L451.475 31.0331C451.551 30.7289 451.55 30.4057 451.379 30.1207L449.704 27.7649C449.228 27.0809 449.702 26.149 450.577 26.2052L453.448 26.3547C453.771 26.3544 454.132 26.202 454.284 25.9167L455.993 23.5958C456.486 22.911 457.57 23.1001 457.761 23.9554L458.524 26.7303C458.6 27.0724 458.867 27.3003 459.152 27.4522L460.711 28.002L451.452 5.82487C450.69 4.01954 448.18 4.0408 447.422 5.79048L442.243 18.1522L443.516 17.904C443.954 17.7705 444.391 18.2833 444.125 18.7018L443.366 20.1283C443.252 20.2615 443.272 20.5087 443.386 20.6987L444.167 22.1048C444.395 22.4848 444.015 23.0364 443.559 22.9228L441.924 22.6771C441.772 22.6392 441.506 22.7345 441.392 22.8677L440.29 24.0474C440.081 24.2377 439.834 24.2569 439.625 24.124L430.083 46.8697C430.159 46.8886 430.292 47.0025 430.349 47.0975L432.139 49.3201C432.31 49.6051 432.69 49.6999 433.013 49.6996L435.884 49.5259C436.701 49.4871 437.272 50.4371 436.779 51.1219L435.222 53.4807C435.07 53.766 434.994 54.0702 435.147 54.4313L436.176 57.1109C436.462 57.9091 435.778 58.7081 434.96 58.4237L432.165 57.6469C431.861 57.5711 431.519 57.6474 431.234 57.8188L429.011 59.6079C428.384 60.1787 427.376 59.6854 427.337 58.8679L427.24 56.0164C427.24 55.6932 427.068 55.4082 426.802 55.1803L426.593 55.0475L405.442 105.597L493.31 105.669Z" fill="#A977AB"/>
<path d="M427.463 56.0732L427.561 58.9248C427.6 59.7422 428.532 60.2166 429.235 59.6647L431.457 57.8756C431.666 57.6853 432.084 57.6279 432.389 57.7037L435.184 58.4806C436.021 58.6889 436.704 57.8898 436.4 57.1677L435.37 54.4881C435.275 54.2221 435.294 53.8229 435.446 53.5376L437.002 51.1788C437.496 50.4939 436.925 49.544 436.107 49.5827L433.237 49.7564C432.914 49.7567 432.61 49.6809 432.362 49.3769L430.573 47.1543C430.516 47.0593 430.383 46.9454 430.307 46.9265L426.854 55.2753L427.064 55.4083C427.235 55.3701 427.463 55.7501 427.463 56.0732Z" fill="#FFB23E"/>
<path d="M458.542 26.654L457.779 23.8792C457.569 23.0999 456.504 22.8347 456.011 23.5195L454.302 25.8404C454.074 26.1068 453.789 26.2781 453.466 26.2784L450.595 26.129C449.797 26.0917 449.246 27.0047 449.722 27.6886L451.397 30.0445C451.568 30.3295 451.645 30.6716 451.493 30.9569L450.507 33.6193C450.222 34.437 450.927 35.1778 451.706 34.968L454.424 34.11C454.766 34.0336 455.07 34.1094 455.355 34.2612L457.581 36.0272C458.266 36.5209 459.178 36.1018 459.234 35.2273L459.308 32.3376C459.307 32.0144 459.459 31.729 459.763 31.4816L461.796 30.1301L460.786 27.6975L459.227 27.1477C458.885 27.224 458.637 26.9201 458.542 26.654Z" fill="#FFB23E"/>
<path d="M440.478 23.9328L441.58 22.7532C441.694 22.62 441.865 22.5818 442.112 22.5625L443.747 22.8082C444.222 22.8458 444.583 22.3702 444.355 21.9902L443.574 20.5841C443.46 20.3941 443.498 20.242 443.554 20.0138L444.314 18.5873C444.503 18.1499 444.142 17.6559 443.705 17.7894L442.431 18.0377L439.889 24.0284C440.022 24.1423 440.269 24.1231 440.478 23.9328Z" fill="#FFB23E"/>
<path d="M405.669 105.654L401.875 114.725L497.101 114.772L493.309 105.669L405.669 105.654Z" fill="#FFB23E"/>
<path d="M467.342 70.4464L468.466 73.0689C468.637 73.3539 468.904 73.5818 469.208 73.6575L471.984 74.1872C472.84 74.3195 473.069 75.3459 472.442 75.9168L470.276 77.8008C470.067 77.9911 469.897 78.3526 469.973 78.6947L470.318 81.527C470.433 82.3634 469.559 82.9535 468.779 82.5169L466.306 81.0934C466.021 80.9415 465.698 80.9418 465.355 81.0182L462.79 82.2372C462.049 82.6181 461.174 81.9155 461.382 81.0788L462.007 78.2457C462.083 77.9415 462.006 77.5993 461.74 77.3714L459.761 75.2631C459.19 74.6362 459.588 73.6853 460.425 73.5705L463.238 73.3018C463.561 73.3015 463.865 73.054 464.017 72.7687L465.365 70.2771C465.934 69.6112 466.98 69.6292 467.342 70.4464Z" fill="#FFB23E"/>
<path d="M435.37 74.2792L437.367 76.3115C437.634 76.5394 437.938 76.6151 438.261 76.6149L441.055 76.099C441.892 75.9842 442.501 76.7821 442.14 77.5809L440.85 80.1675C440.698 80.4528 440.698 80.776 440.851 81.1371L442.241 83.6642C442.622 84.4053 441.995 85.2994 441.216 85.1861L438.421 84.7323C438.117 84.6566 437.755 84.809 437.547 84.9993L435.571 87.0923C435.021 87.6821 433.975 87.3409 433.841 86.5806L433.42 83.7293C433.344 83.3872 433.172 83.1022 432.887 82.9503L430.281 81.7361C429.559 81.3945 429.501 80.3299 430.242 79.949L432.826 78.654C433.111 78.4827 433.339 78.2162 433.339 77.893L433.716 75.0791C433.734 74.0335 434.799 73.6523 435.37 74.2792Z" fill="#FFB23E"/>
<path d="M460.503 93.7031L460.999 95.2805C461.037 95.4516 461.17 95.5656 461.379 95.6984L462.957 96.1723C463.414 96.2859 463.509 96.8752 463.11 97.1797L461.743 98.1315C461.553 98.2458 461.515 98.3978 461.458 98.626L461.459 100.242C461.422 100.717 460.947 101.003 460.528 100.737L459.235 99.7688C459.101 99.6548 458.873 99.598 458.683 99.7122L457.182 100.227C456.745 100.36 456.288 99.9235 456.478 99.4861L457.028 97.9267C457.066 97.7745 457.046 97.5274 456.913 97.4135L455.942 96.1217C455.638 95.7227 455.923 95.2282 456.417 95.1897L458.033 95.1882C458.204 95.15 458.375 95.1118 458.489 94.9787L459.457 93.685C459.761 93.1144 460.369 93.266 460.503 93.7031Z" fill="#FFB23E"/>
<path d="M460.276 54.3894L460.201 55.9864C460.163 56.1385 460.277 56.3285 460.41 56.4425L461.704 57.4108C462.123 57.6766 461.971 58.2851 461.534 58.4186L459.975 58.8382C459.804 58.8764 459.69 59.0096 459.558 59.2188L459.008 60.7782C458.818 61.2156 458.229 61.3112 458 60.9312L457.125 59.5822C457.01 59.3922 456.858 59.3543 456.63 59.2975L455.014 59.299C454.539 59.2614 454.272 58.7103 454.595 58.3868L455.639 57.1122C455.753 56.979 455.81 56.7508 455.772 56.5798L455.276 55.0023C455.143 54.5652 455.58 54.1085 456.017 54.2982L457.576 54.8481C457.729 54.886 457.976 54.8668 458.071 54.8096L459.439 53.8579C459.743 53.6105 460.237 53.8952 460.276 54.3894Z" fill="#FFB23E"/>
<path d="M420.697 94.6146L421.858 95.7922C421.991 95.9061 422.22 95.9629 422.391 95.9247L424.006 95.6001C424.443 95.4666 424.881 95.9795 424.615 96.398L423.856 97.8245C423.742 97.9577 423.761 98.2048 423.876 98.3948L424.656 99.8009C424.885 100.181 424.505 100.732 424.049 100.619L422.414 100.373C422.262 100.335 421.995 100.431 421.882 100.564L420.78 101.743C420.457 102.067 419.849 101.915 419.81 101.421L419.562 99.8245C419.523 99.6534 419.409 99.4634 419.257 99.4255L417.812 98.7425C417.374 98.5528 417.374 97.9064 417.83 97.6969L419.312 96.9351C419.502 96.8208 419.616 96.6877 419.578 96.5166L419.823 94.8815C419.842 94.4822 420.374 94.2917 420.697 94.6146Z" fill="#FFB23E"/>
<path d="M386.959 149.947C376.481 146.934 373.875 123.99 381.057 98.7185C386.136 80.9197 399.812 68.17 407.525 62.1746C410.317 60.0428 414.406 61.1418 415.664 64.5245C419.037 73.6847 423.977 91.7975 418.917 109.52C411.735 134.792 397.361 152.941 386.959 149.947Z" fill="#DE8E45"/>
<path d="M511.997 149.986C522.431 147.011 525.071 124.082 517.9 98.709C512.865 80.9765 499.166 68.1947 491.461 62.1563C488.683 60.0106 484.597 61.1739 483.364 64.5019C479.951 73.6682 475.043 91.752 480.06 109.561C487.174 134.838 501.486 152.943 511.997 149.986Z" fill="#DE8E45"/>
<path d="M403.464 106.075C397.645 124.578 384.272 136.757 384.272 136.757C384.272 136.757 380.283 119.042 386.083 100.616C391.903 82.1128 405.275 69.9337 405.275 69.9337C405.275 69.9337 409.284 87.5721 403.464 106.075Z" fill="#EBD2D2"/>
<path d="M495.451 106.123C501.266 124.616 514.623 136.827 514.623 136.827C514.623 136.827 518.618 119.163 512.803 100.67C506.988 82.1782 493.631 69.9665 493.631 69.9665C493.631 69.9665 489.636 87.6311 495.451 106.123Z" fill="#EBD2D2"/>
<g opacity="0.82">
<path d="M355.318 161.859L357.358 147.18L347.137 155.136L337.573 131.914L328.07 155.154L317.853 147.197L319.863 161.834C318.344 164.041 317.472 166.57 317.455 169.231C317.425 177.786 326.424 184.793 337.564 184.821C348.628 184.83 357.633 177.864 357.682 169.233C357.699 166.571 356.803 164.005 355.318 161.859Z" fill="#FF7336"/>
<path d="M345.914 169.129L346.839 162.17L342.033 165.901L337.575 154.935L333.079 165.852L328.266 162.149L329.204 169.087C328.463 170.114 328.084 171.312 328.085 172.605C328.051 176.635 332.312 179.958 337.559 179.973C342.806 179.987 347.024 176.675 347.058 172.645C347.057 171.352 346.638 170.117 345.914 169.129Z" fill="#FFB23E"/>
<path d="M578.978 161.902L581.018 147.224L570.797 155.179L561.309 131.976L551.805 155.216L541.589 147.259L543.599 161.896C542.08 164.103 541.208 166.632 541.191 169.293C541.161 177.848 550.159 184.855 561.3 184.883C572.364 184.892 581.369 177.926 581.418 169.295C581.359 166.614 580.52 164.144 578.978 161.902Z" fill="#FF7336"/>
<path d="M569.65 169.192L570.575 162.233L565.769 165.963L561.31 154.998L556.815 165.915L552.002 162.212L552.94 169.15C552.199 170.177 551.82 171.375 551.821 172.668C551.787 176.698 556.048 180.021 561.295 180.035C566.542 180.05 570.76 176.738 570.794 172.708C570.793 171.415 570.373 170.18 569.65 169.192Z" fill="#FFB23E"/>
</g>
<path d="M397.164 185.203L428.589 185.193L428.574 189.794C428.595 191.334 427.322 192.552 425.782 192.572L397.114 192.541L397.164 185.203Z" fill="#DE8E45"/>
<path d="M502.264 192.636L473.595 192.605C472.056 192.625 470.838 191.352 470.817 189.813L470.832 185.212L502.257 185.202L502.264 192.636Z" fill="#DE8E45"/>
<path d="M66.2891 339.692C119.196 338.736 146.303 329.728 153.243 325.344L252.445 400.67C216.193 427.453 135.281 440.525 99.3562 443.713C119.931 430.322 141.404 397.482 149.569 382.735C129.974 379.866 85.8844 352.844 66.2891 339.692Z" fill="#FFB23E" stroke="#DE8E45" stroke-width="8.33372"/>
<path d="M831.735 338.495C804.302 341.364 762.335 332.516 744.781 327.734L646.805 394.69C670.319 424.342 758.661 439.726 799.893 443.712C778.338 428.407 758.253 396.683 750.905 382.734C777.358 377.951 815.814 351.248 831.735 338.495Z" fill="#FFB23E" stroke="#DE8E45" stroke-width="8.33372"/>
<path d="M187.528 409.038C157.155 368.864 152.827 307.806 154.46 282.299C383.725 239.256 642.71 264.364 743.545 282.299C752.363 321.516 725.991 383.132 711.702 409.038C526.527 357.386 285.096 387.516 187.528 409.038Z" fill="#FFB23E" stroke="#DE8E45" stroke-width="10"/>
<path d="M232.969 437.074C236.82 438.69 241.084 437.281 242.491 433.926C243.899 430.572 241.917 426.543 238.066 424.926C234.214 423.31 229.95 424.719 228.543 428.074C227.135 431.428 229.117 435.457 232.969 437.074Z" fill="#C9345A"/>
<path d="M379.969 235.074C383.82 236.69 388.084 235.281 389.491 231.926C390.899 228.572 388.917 224.543 385.066 222.926C381.214 221.31 376.95 222.719 375.543 226.074C374.135 229.428 376.117 233.457 379.969 235.074Z" fill="#C9345A"/>
<path d="M178.969 228.074C182.82 229.69 187.084 228.281 188.491 224.926C189.899 221.572 187.917 217.543 184.066 215.926C180.214 214.31 175.95 215.719 174.543 219.074C173.135 222.428 175.117 226.457 178.969 228.074Z" fill="#B3D689"/>
<path d="M59.0282 232.335L59.7554 226.095L60.6248 223.224L61.7557 220.137L63.2554 217.595L65.5279 215.365L67.7554 213.095L70.1758 211.076L79.5059 212.793L74.4201 216.841L71.7554 219.595L69.2554 223.095L67.7554 226.595L66.2554 231.595L65.5068 238.19L59.0282 232.335Z" fill="#F5EA83"/>
<path d="M232.01 213.006L238.285 213.336L241.204 214.021L244.358 214.954L246.99 216.29L249.359 218.416L251.766 220.495L253.934 222.783L252.812 232.203L248.45 227.384L245.533 224.899L241.881 222.626L238.293 221.351L233.208 220.172L226.578 219.843L232.01 213.006Z" fill="#CA6E91"/>
<path d="M746.435 424.019L752.709 424.349L755.629 425.034L758.782 425.967L761.414 427.302L763.783 429.429L766.19 431.508L768.359 433.795L767.237 443.216L762.874 438.397L759.957 435.912L756.305 433.639L752.717 432.364L747.632 431.184L741.003 430.855L746.435 424.019Z" fill="#F5EA83"/>
<path d="M220.432 372.019L226.707 372.349L229.626 373.034L232.779 373.967L235.411 375.302L237.781 377.429L240.188 379.508L242.356 381.795L241.234 391.216L236.872 386.397L233.954 383.912L230.303 381.639L226.715 380.364L221.63 379.184L215 378.855L220.432 372.019Z" fill="#89BEAA"/>
<path d="M729.724 540.3L732.868 534.86L734.805 532.571L737.068 530.185L739.454 528.447L742.424 527.302L745.37 526.102L748.393 525.209L756.275 530.488L750.001 532.185L746.462 533.656L742.779 535.876L740.013 538.494L736.652 542.488L733.348 548.245L729.724 540.3Z" fill="#89BEAA"/>
<path d="M127.889 271.859L127.169 278.1L126.303 280.972L125.175 284.06L123.678 286.604L121.408 288.837L119.184 291.109L116.765 293.131L107.433 291.424L112.515 287.371L115.176 284.614L117.672 281.111L119.168 277.609L120.663 272.608L121.404 266.011L127.889 271.859Z" fill="#89BEAA"/>
<path d="M5.43224 310.019L11.7065 310.349L14.6263 311.034L17.7795 311.967L20.4114 313.302L22.781 315.429L25.1877 317.508L27.3563 319.795L26.2342 329.216L21.872 324.397L18.9545 321.912L15.303 319.639L11.7149 318.364L6.62983 317.184L0.000169754 316.855L5.43224 310.019Z" fill="#89BEAA"/>
<path d="M189.435 322.019L195.709 322.349L198.629 323.034L201.782 323.967L204.414 325.302L206.783 327.429L209.19 329.508L211.359 331.795L210.237 341.216L205.874 336.397L202.957 333.912L199.305 331.639L195.717 330.364L190.632 329.184L184.003 328.855L189.435 322.019Z" fill="#F5EA83"/>
<path d="M115.918 464.013L113.98 469.99L112.564 472.634L110.849 475.439L108.879 477.637L106.213 479.377L103.583 481.166L100.813 482.67L92.0019 479.154L97.7835 476.184L100.937 474.007L104.076 471.066L106.234 467.929L108.687 463.321L110.716 457L115.918 464.013Z" fill="#89BEAA"/>
<path d="M563.918 414.013L561.98 419.99L560.564 422.634L558.849 425.439L556.879 427.637L554.213 429.377L551.583 431.166L548.813 432.67L540.002 429.154L545.784 426.184L548.937 424.007L552.076 421.066L554.234 417.929L556.687 413.321L558.716 407L563.918 414.013Z" fill="#CA6E91"/>
<path d="M819.916 260.013L817.978 265.99L816.561 268.634L814.846 271.439L812.876 273.637L810.21 275.377L807.58 277.166L804.811 278.67L795.999 275.154L801.781 272.184L804.935 270.007L808.073 267.066L810.231 263.929L812.684 259.321L814.713 253L819.916 260.013Z" fill="#89BEAA"/>
<path d="M775.118 185.64L780.39 189.059L782.577 191.11L784.844 193.493L786.457 195.964L787.449 198.989L788.496 201.992L789.233 205.057L783.558 212.659L782.184 206.306L780.897 202.697L778.868 198.904L776.395 196.008L772.578 192.447L766.998 188.853L775.118 185.64Z" fill="#89BEAA"/>
<path d="M331.916 257.013L329.978 262.99L328.561 265.634L326.846 268.439L324.876 270.637L322.21 272.377L319.58 274.166L316.811 275.67L307.999 272.154L313.781 269.184L316.935 267.007L320.073 264.066L322.231 260.929L324.684 256.321L326.713 250L331.916 257.013Z" fill="#89BEAA"/>
<path d="M548.714 255.581L552.071 260.893L553.198 263.672L554.259 266.784L554.69 269.704L554.324 272.867L554.018 276.032L553.405 279.124L545.068 283.652L546.48 277.307L546.822 273.49L546.567 269.197L545.534 265.532L543.558 260.7L539.995 255.099L548.714 255.581Z" fill="#89BEAA"/>
<path d="M796.177 364.434L790.017 365.672L787.019 365.732L783.733 365.611L780.852 364.971L778.028 363.499L775.181 362.082L772.512 360.404L771.261 351L776.683 354.586L780.126 356.269L784.227 357.564L788.02 357.909L793.238 357.79L799.742 356.463L796.177 364.434Z" fill="#CA6E91"/>
<path d="M687.64 347.579L687.174 353.845L686.425 356.749L685.424 359.881L684.032 362.484L681.855 364.807L679.724 367.168L677.39 369.286L667.997 367.961L672.909 363.704L675.456 360.841L677.808 357.239L679.16 353.68L680.45 348.621L680.922 342L687.64 347.579Z" fill="#89BEAA"/>
<path d="M676.851 239.685L682.879 237.911L685.86 237.587L689.144 237.419L692.07 237.804L695.012 239.022L697.973 240.183L700.778 241.62L702.851 250.877L697.135 247.782L693.558 246.408L689.358 245.478L685.55 245.468L680.362 246.045L674 247.938L676.851 239.685Z" fill="#F5EA83"/>
<path d="M411.969 282.074C415.82 283.69 420.084 282.281 421.491 278.926C422.899 275.572 420.917 271.543 417.066 269.926C413.214 268.31 408.95 269.719 407.543 273.074C406.135 276.428 408.117 280.457 411.969 282.074Z" fill="#C9345A"/>
<path d="M356.971 425.074C360.823 426.69 365.086 425.281 366.494 421.926C367.901 418.572 365.92 414.543 362.068 412.926C358.216 411.31 353.953 412.719 352.545 416.074C351.138 419.428 353.119 423.457 356.971 425.074Z" fill="#B3D689"/>
<path d="M603.969 219.074C607.82 220.69 612.084 219.281 613.491 215.926C614.899 212.572 612.917 208.543 609.066 206.926C605.214 205.31 600.95 206.719 599.543 210.074C598.135 213.428 600.117 217.457 603.969 219.074Z" fill="#C9345A"/>
<path d="M206.106 340.408C204.27 340.408 202.558 340.113 200.972 339.524C199.408 338.912 198.048 338.051 196.892 336.94C195.736 335.829 194.829 334.526 194.172 333.03C193.537 331.534 193.22 329.891 193.22 328.1C193.22 326.309 193.537 324.666 194.172 323.17C194.829 321.674 195.736 320.371 196.892 319.26C198.07 318.149 199.442 317.299 201.006 316.71C202.57 316.098 204.281 315.792 206.14 315.792C208.202 315.792 210.061 316.155 211.716 316.88C213.393 317.583 214.798 318.625 215.932 320.008L212.396 323.272C211.58 322.343 210.673 321.651 209.676 321.198C208.678 320.722 207.59 320.484 206.412 320.484C205.301 320.484 204.281 320.665 203.352 321.028C202.422 321.391 201.618 321.912 200.938 322.592C200.258 323.272 199.725 324.077 199.34 325.006C198.977 325.935 198.796 326.967 198.796 328.1C198.796 329.233 198.977 330.265 199.34 331.194C199.725 332.123 200.258 332.928 200.938 333.608C201.618 334.288 202.422 334.809 203.352 335.172C204.281 335.535 205.301 335.716 206.412 335.716C207.59 335.716 208.678 335.489 209.676 335.036C210.673 334.56 211.58 333.846 212.396 332.894L215.932 336.158C214.798 337.541 213.393 338.595 211.716 339.32C210.061 340.045 208.191 340.408 206.106 340.408ZM227.35 340.272C225.401 340.272 223.667 339.864 222.148 339.048C220.652 338.232 219.462 337.121 218.578 335.716C217.717 334.288 217.286 332.667 217.286 330.854C217.286 329.018 217.717 327.397 218.578 325.992C219.462 324.564 220.652 323.453 222.148 322.66C223.667 321.844 225.401 321.436 227.35 321.436C229.277 321.436 231 321.844 232.518 322.66C234.037 323.453 235.227 324.553 236.088 325.958C236.95 327.363 237.38 328.995 237.38 330.854C237.38 332.667 236.95 334.288 236.088 335.716C235.227 337.121 234.037 338.232 232.518 339.048C231 339.864 229.277 340.272 227.35 340.272ZM227.35 335.92C228.234 335.92 229.028 335.716 229.73 335.308C230.433 334.9 230.988 334.322 231.396 333.574C231.804 332.803 232.008 331.897 232.008 330.854C232.008 329.789 231.804 328.882 231.396 328.134C230.988 327.386 230.433 326.808 229.73 326.4C229.028 325.992 228.234 325.788 227.35 325.788C226.466 325.788 225.673 325.992 224.97 326.4C224.268 326.808 223.701 327.386 223.27 328.134C222.862 328.882 222.658 329.789 222.658 330.854C222.658 331.897 222.862 332.803 223.27 333.574C223.701 334.322 224.268 334.9 224.97 335.308C225.673 335.716 226.466 335.92 227.35 335.92ZM252.044 321.436C253.494 321.436 254.786 321.731 255.92 322.32C257.076 322.887 257.982 323.771 258.64 324.972C259.297 326.151 259.626 327.669 259.626 329.528V340H254.322V330.344C254.322 328.871 253.993 327.783 253.336 327.08C252.701 326.377 251.794 326.026 250.616 326.026C249.777 326.026 249.018 326.207 248.338 326.57C247.68 326.91 247.159 327.443 246.774 328.168C246.411 328.893 246.23 329.823 246.23 330.956V340H240.926V321.708H245.992V326.774L245.04 325.244C245.697 324.02 246.638 323.079 247.862 322.422C249.086 321.765 250.48 321.436 252.044 321.436ZM273.168 346.868C271.445 346.868 269.779 346.653 268.17 346.222C266.583 345.814 265.257 345.191 264.192 344.352L266.3 340.544C267.071 341.179 268.045 341.677 269.224 342.04C270.425 342.425 271.604 342.618 272.76 342.618C274.641 342.618 276.001 342.199 276.84 341.36C277.701 340.521 278.132 339.275 278.132 337.62V334.866L278.472 330.276L278.404 325.652V321.708H283.436V336.94C283.436 340.34 282.552 342.845 280.784 344.454C279.016 346.063 276.477 346.868 273.168 346.868ZM272.352 339.116C270.652 339.116 269.111 338.753 267.728 338.028C266.368 337.28 265.269 336.249 264.43 334.934C263.614 333.597 263.206 332.044 263.206 330.276C263.206 328.485 263.614 326.933 264.43 325.618C265.269 324.281 266.368 323.249 267.728 322.524C269.111 321.799 270.652 321.436 272.352 321.436C273.893 321.436 275.253 321.753 276.432 322.388C277.611 323 278.529 323.963 279.186 325.278C279.843 326.57 280.172 328.236 280.172 330.276C280.172 332.293 279.843 333.959 279.186 335.274C278.529 336.566 277.611 337.529 276.432 338.164C275.253 338.799 273.893 339.116 272.352 339.116ZM273.406 334.764C274.335 334.764 275.163 334.583 275.888 334.22C276.613 333.835 277.18 333.302 277.588 332.622C277.996 331.942 278.2 331.16 278.2 330.276C278.2 329.369 277.996 328.587 277.588 327.93C277.18 327.25 276.613 326.729 275.888 326.366C275.163 325.981 274.335 325.788 273.406 325.788C272.477 325.788 271.649 325.981 270.924 326.366C270.199 326.729 269.621 327.25 269.19 327.93C268.782 328.587 268.578 329.369 268.578 330.276C268.578 331.16 268.782 331.942 269.19 332.622C269.621 333.302 270.199 333.835 270.924 334.22C271.649 334.583 272.477 334.764 273.406 334.764ZM288.373 340V321.708H293.439V326.876L292.725 325.38C293.269 324.088 294.141 323.113 295.343 322.456C296.544 321.776 298.006 321.436 299.729 321.436V326.332C299.502 326.309 299.298 326.298 299.117 326.298C298.935 326.275 298.743 326.264 298.539 326.264C297.088 326.264 295.909 326.683 295.003 327.522C294.119 328.338 293.677 329.619 293.677 331.364V340H288.373ZM312.907 340V336.43L312.567 335.648V329.256C312.567 328.123 312.216 327.239 311.513 326.604C310.833 325.969 309.779 325.652 308.351 325.652C307.377 325.652 306.413 325.811 305.461 326.128C304.532 326.423 303.739 326.831 303.081 327.352L301.177 323.646C302.175 322.943 303.376 322.399 304.781 322.014C306.187 321.629 307.615 321.436 309.065 321.436C311.853 321.436 314.018 322.093 315.559 323.408C317.101 324.723 317.871 326.774 317.871 329.562V340H312.907ZM307.331 340.272C305.903 340.272 304.679 340.034 303.659 339.558C302.639 339.059 301.857 338.391 301.313 337.552C300.769 336.713 300.497 335.773 300.497 334.73C300.497 333.642 300.758 332.69 301.279 331.874C301.823 331.058 302.673 330.423 303.829 329.97C304.985 329.494 306.493 329.256 308.351 329.256H313.213V332.35H308.929C307.683 332.35 306.821 332.554 306.345 332.962C305.892 333.37 305.665 333.88 305.665 334.492C305.665 335.172 305.926 335.716 306.447 336.124C306.991 336.509 307.728 336.702 308.657 336.702C309.541 336.702 310.335 336.498 311.037 336.09C311.74 335.659 312.25 335.036 312.567 334.22L313.383 336.668C312.998 337.847 312.295 338.742 311.275 339.354C310.255 339.966 308.941 340.272 307.331 340.272ZM330.152 340.272C327.998 340.272 326.321 339.728 325.12 338.64C323.918 337.529 323.318 335.886 323.318 333.71V317.662H328.622V333.642C328.622 334.413 328.826 335.013 329.234 335.444C329.642 335.852 330.197 336.056 330.9 336.056C331.738 336.056 332.452 335.829 333.042 335.376L334.47 339.116C333.926 339.501 333.268 339.796 332.498 340C331.75 340.181 330.968 340.272 330.152 340.272ZM320.496 326.196V322.116H333.178V326.196H320.496ZM345.165 340.272C343.646 340.272 342.286 339.977 341.085 339.388C339.906 338.799 338.988 337.903 338.331 336.702C337.674 335.478 337.345 333.925 337.345 332.044V321.708H342.649V331.262C342.649 332.781 342.966 333.903 343.601 334.628C344.258 335.331 345.176 335.682 346.355 335.682C347.171 335.682 347.896 335.512 348.531 335.172C349.166 334.809 349.664 334.265 350.027 333.54C350.39 332.792 350.571 331.863 350.571 330.752V321.708H355.875V340H350.843V334.968L351.761 336.43C351.149 337.699 350.242 338.663 349.041 339.32C347.862 339.955 346.57 340.272 345.165 340.272ZM360.789 340V314.772H366.093V340H360.789ZM382.235 340V336.43L381.895 335.648V329.256C381.895 328.123 381.544 327.239 380.841 326.604C380.161 325.969 379.107 325.652 377.679 325.652C376.705 325.652 375.741 325.811 374.789 326.128C373.86 326.423 373.067 326.831 372.409 327.352L370.505 323.646C371.503 322.943 372.704 322.399 374.109 322.014C375.515 321.629 376.943 321.436 378.393 321.436C381.181 321.436 383.346 322.093 384.887 323.408C386.429 324.723 387.199 326.774 387.199 329.562V340H382.235ZM376.659 340.272C375.231 340.272 374.007 340.034 372.987 339.558C371.967 339.059 371.185 338.391 370.641 337.552C370.097 336.713 369.825 335.773 369.825 334.73C369.825 333.642 370.086 332.69 370.607 331.874C371.151 331.058 372.001 330.423 373.157 329.97C374.313 329.494 375.821 329.256 377.679 329.256H382.541V332.35H378.257C377.011 332.35 376.149 332.554 375.673 332.962C375.22 333.37 374.993 333.88 374.993 334.492C374.993 335.172 375.254 335.716 375.775 336.124C376.319 336.509 377.056 336.702 377.985 336.702C378.869 336.702 379.663 336.498 380.365 336.09C381.068 335.659 381.578 335.036 381.895 334.22L382.711 336.668C382.326 337.847 381.623 338.742 380.603 339.354C379.583 339.966 378.269 340.272 376.659 340.272ZM399.48 340.272C397.326 340.272 395.649 339.728 394.448 338.64C393.246 337.529 392.646 335.886 392.646 333.71V317.662H397.95V333.642C397.95 334.413 398.154 335.013 398.562 335.444C398.97 335.852 399.525 336.056 400.228 336.056C401.066 336.056 401.78 335.829 402.37 335.376L403.798 339.116C403.254 339.501 402.596 339.796 401.826 340C401.078 340.181 400.296 340.272 399.48 340.272ZM389.824 326.196V322.116H402.506V326.196H389.824ZM406.775 340V321.708H412.079V340H406.775ZM409.427 319.158C408.452 319.158 407.659 318.875 407.047 318.308C406.435 317.741 406.129 317.039 406.129 316.2C406.129 315.361 406.435 314.659 407.047 314.092C407.659 313.525 408.452 313.242 409.427 313.242C410.402 313.242 411.195 313.514 411.807 314.058C412.419 314.579 412.725 315.259 412.725 316.098C412.725 316.982 412.419 317.719 411.807 318.308C411.218 318.875 410.424 319.158 409.427 319.158ZM425.706 340.272C423.756 340.272 422.022 339.864 420.504 339.048C419.008 338.232 417.818 337.121 416.934 335.716C416.072 334.288 415.642 332.667 415.642 330.854C415.642 329.018 416.072 327.397 416.934 325.992C417.818 324.564 419.008 323.453 420.504 322.66C422.022 321.844 423.756 321.436 425.706 321.436C427.632 321.436 429.355 321.844 430.874 322.66C432.392 323.453 433.582 324.553 434.444 325.958C435.305 327.363 435.736 328.995 435.736 330.854C435.736 332.667 435.305 334.288 434.444 335.716C433.582 337.121 432.392 338.232 430.874 339.048C429.355 339.864 427.632 340.272 425.706 340.272ZM425.706 335.92C426.59 335.92 427.383 335.716 428.086 335.308C428.788 334.9 429.344 334.322 429.752 333.574C430.16 332.803 430.364 331.897 430.364 330.854C430.364 329.789 430.16 328.882 429.752 328.134C429.344 327.386 428.788 326.808 428.086 326.4C427.383 325.992 426.59 325.788 425.706 325.788C424.822 325.788 424.028 325.992 423.326 326.4C422.623 326.808 422.056 327.386 421.626 328.134C421.218 328.882 421.014 329.789 421.014 330.854C421.014 331.897 421.218 332.803 421.626 333.574C422.056 334.322 422.623 334.9 423.326 335.308C424.028 335.716 424.822 335.92 425.706 335.92ZM450.399 321.436C451.85 321.436 453.142 321.731 454.275 322.32C455.431 322.887 456.338 323.771 456.995 324.972C457.652 326.151 457.981 327.669 457.981 329.528V340H452.677V330.344C452.677 328.871 452.348 327.783 451.691 327.08C451.056 326.377 450.15 326.026 448.971 326.026C448.132 326.026 447.373 326.207 446.693 326.57C446.036 326.91 445.514 327.443 445.129 328.168C444.766 328.893 444.585 329.823 444.585 330.956V340H439.281V321.708H444.347V326.774L443.395 325.244C444.052 324.02 444.993 323.079 446.217 322.422C447.441 321.765 448.835 321.436 450.399 321.436ZM468.943 340.272C467.379 340.272 465.871 340.091 464.421 339.728C462.993 339.343 461.859 338.867 461.021 338.3L462.789 334.492C463.627 335.013 464.613 335.444 465.747 335.784C466.903 336.101 468.036 336.26 469.147 336.26C470.371 336.26 471.232 336.113 471.731 335.818C472.252 335.523 472.513 335.115 472.513 334.594C472.513 334.163 472.309 333.846 471.901 333.642C471.515 333.415 470.994 333.245 470.337 333.132C469.679 333.019 468.954 332.905 468.161 332.792C467.39 332.679 466.608 332.531 465.815 332.35C465.021 332.146 464.296 331.851 463.639 331.466C462.981 331.081 462.449 330.559 462.041 329.902C461.655 329.245 461.463 328.395 461.463 327.352C461.463 326.196 461.791 325.176 462.449 324.292C463.129 323.408 464.103 322.717 465.373 322.218C466.642 321.697 468.161 321.436 469.929 321.436C471.175 321.436 472.445 321.572 473.737 321.844C475.029 322.116 476.105 322.513 476.967 323.034L475.199 326.808C474.315 326.287 473.419 325.935 472.513 325.754C471.629 325.55 470.767 325.448 469.929 325.448C468.75 325.448 467.889 325.607 467.345 325.924C466.801 326.241 466.529 326.649 466.529 327.148C466.529 327.601 466.721 327.941 467.107 328.168C467.515 328.395 468.047 328.576 468.705 328.712C469.362 328.848 470.076 328.973 470.847 329.086C471.64 329.177 472.433 329.324 473.227 329.528C474.02 329.732 474.734 330.027 475.369 330.412C476.026 330.775 476.559 331.285 476.967 331.942C477.375 332.577 477.579 333.415 477.579 334.458C477.579 335.591 477.239 336.6 476.559 337.484C475.879 338.345 474.893 339.025 473.601 339.524C472.331 340.023 470.779 340.272 468.943 340.272ZM479.933 345.236L482.177 337.076L482.925 340.136C481.951 340.136 481.146 339.853 480.511 339.286C479.899 338.719 479.593 337.937 479.593 336.94C479.593 335.943 479.911 335.149 480.545 334.56C481.18 333.971 481.962 333.676 482.891 333.676C483.843 333.676 484.625 333.982 485.237 334.594C485.849 335.183 486.155 335.965 486.155 336.94C486.155 337.235 486.133 337.529 486.087 337.824C486.042 338.096 485.951 338.436 485.815 338.844C485.702 339.229 485.509 339.728 485.237 340.34L483.299 345.236H479.933ZM501.691 346.868C500.739 346.868 499.798 346.721 498.869 346.426C497.939 346.131 497.18 345.723 496.591 345.202L498.529 341.428C498.937 341.791 499.401 342.074 499.923 342.278C500.467 342.482 500.999 342.584 501.521 342.584C502.269 342.584 502.858 342.403 503.289 342.04C503.742 341.7 504.15 341.122 504.513 340.306L505.465 338.062L505.873 337.484L512.435 321.708H517.535L509.273 341.122C508.683 342.595 508.003 343.751 507.233 344.59C506.485 345.429 505.646 346.018 504.717 346.358C503.81 346.698 502.801 346.868 501.691 346.868ZM504.819 340.714L496.659 321.708H502.133L508.457 337.008L504.819 340.714ZM527.905 340.272C525.956 340.272 524.222 339.864 522.703 339.048C521.207 338.232 520.017 337.121 519.133 335.716C518.272 334.288 517.841 332.667 517.841 330.854C517.841 329.018 518.272 327.397 519.133 325.992C520.017 324.564 521.207 323.453 522.703 322.66C524.222 321.844 525.956 321.436 527.905 321.436C529.832 321.436 531.554 321.844 533.073 322.66C534.592 323.453 535.782 324.553 536.643 325.958C537.504 327.363 537.935 328.995 537.935 330.854C537.935 332.667 537.504 334.288 536.643 335.716C535.782 337.121 534.592 338.232 533.073 339.048C531.554 339.864 529.832 340.272 527.905 340.272ZM527.905 335.92C528.789 335.92 529.582 335.716 530.285 335.308C530.988 334.9 531.543 334.322 531.951 333.574C532.359 332.803 532.563 331.897 532.563 330.854C532.563 329.789 532.359 328.882 531.951 328.134C531.543 327.386 530.988 326.808 530.285 326.4C529.582 325.992 528.789 325.788 527.905 325.788C527.021 325.788 526.228 325.992 525.525 326.4C524.822 326.808 524.256 327.386 523.825 328.134C523.417 328.882 523.213 329.789 523.213 330.854C523.213 331.897 523.417 332.803 523.825 333.574C524.256 334.322 524.822 334.9 525.525 335.308C526.228 335.716 527.021 335.92 527.905 335.92ZM549.198 340.272C547.68 340.272 546.32 339.977 545.118 339.388C543.94 338.799 543.022 337.903 542.364 336.702C541.707 335.478 541.378 333.925 541.378 332.044V321.708H546.682V331.262C546.682 332.781 547 333.903 547.634 334.628C548.292 335.331 549.21 335.682 550.388 335.682C551.204 335.682 551.93 335.512 552.564 335.172C553.199 334.809 553.698 334.265 554.06 333.54C554.423 332.792 554.604 331.863 554.604 330.752V321.708H559.908V340H554.876V334.968L555.794 336.43C555.182 337.699 554.276 338.663 553.074 339.32C551.896 339.955 550.604 340.272 549.198 340.272ZM585.263 340.272C583.722 340.272 582.373 339.932 581.217 339.252C580.061 338.572 579.154 337.541 578.497 336.158C577.862 334.753 577.545 332.985 577.545 330.854C577.545 328.701 577.851 326.933 578.463 325.55C579.075 324.167 579.959 323.136 581.115 322.456C582.271 321.776 583.654 321.436 585.263 321.436C586.986 321.436 588.527 321.833 589.887 322.626C591.27 323.397 592.358 324.485 593.151 325.89C593.967 327.295 594.375 328.95 594.375 330.854C594.375 332.781 593.967 334.447 593.151 335.852C592.358 337.257 591.27 338.345 589.887 339.116C588.527 339.887 586.986 340.272 585.263 340.272ZM574.451 346.596V321.708H579.517V325.448L579.415 330.888L579.755 336.294V346.596H574.451ZM584.345 335.92C585.229 335.92 586.011 335.716 586.691 335.308C587.394 334.9 587.949 334.322 588.357 333.574C588.788 332.803 589.003 331.897 589.003 330.854C589.003 329.789 588.788 328.882 588.357 328.134C587.949 327.386 587.394 326.808 586.691 326.4C586.011 325.992 585.229 325.788 584.345 325.788C583.461 325.788 582.668 325.992 581.965 326.4C581.262 326.808 580.707 327.386 580.299 328.134C579.891 328.882 579.687 329.789 579.687 330.854C579.687 331.897 579.891 332.803 580.299 333.574C580.707 334.322 581.262 334.9 581.965 335.308C582.668 335.716 583.461 335.92 584.345 335.92ZM608.847 340V336.43L608.507 335.648V329.256C608.507 328.123 608.155 327.239 607.453 326.604C606.773 325.969 605.719 325.652 604.291 325.652C603.316 325.652 602.353 325.811 601.401 326.128C600.471 326.423 599.678 326.831 599.021 327.352L597.117 323.646C598.114 322.943 599.315 322.399 600.721 322.014C602.126 321.629 603.554 321.436 605.005 321.436C607.793 321.436 609.957 322.093 611.499 323.408C613.04 324.723 613.811 326.774 613.811 329.562V340H608.847ZM603.271 340.272C601.843 340.272 600.619 340.034 599.599 339.558C598.579 339.059 597.797 338.391 597.253 337.552C596.709 336.713 596.437 335.773 596.437 334.73C596.437 333.642 596.697 332.69 597.219 331.874C597.763 331.058 598.613 330.423 599.769 329.97C600.925 329.494 602.432 329.256 604.291 329.256H609.153V332.35H604.869C603.622 332.35 602.761 332.554 602.285 332.962C601.831 333.37 601.605 333.88 601.605 334.492C601.605 335.172 601.865 335.716 602.387 336.124C602.931 336.509 603.667 336.702 604.597 336.702C605.481 336.702 606.274 336.498 606.977 336.09C607.679 335.659 608.189 335.036 608.507 334.22L609.323 336.668C608.937 337.847 608.235 338.742 607.215 339.354C606.195 339.966 604.88 340.272 603.271 340.272ZM624.765 340.272C623.201 340.272 621.694 340.091 620.243 339.728C618.815 339.343 617.682 338.867 616.843 338.3L618.611 334.492C619.45 335.013 620.436 335.444 621.569 335.784C622.725 336.101 623.858 336.26 624.969 336.26C626.193 336.26 627.054 336.113 627.553 335.818C628.074 335.523 628.335 335.115 628.335 334.594C628.335 334.163 628.131 333.846 627.723 333.642C627.338 333.415 626.816 333.245 626.159 333.132C625.502 333.019 624.776 332.905 623.983 332.792C623.212 332.679 622.43 332.531 621.637 332.35C620.844 332.146 620.118 331.851 619.461 331.466C618.804 331.081 618.271 330.559 617.863 329.902C617.478 329.245 617.285 328.395 617.285 327.352C617.285 326.196 617.614 325.176 618.271 324.292C618.951 323.408 619.926 322.717 621.195 322.218C622.464 321.697 623.983 321.436 625.751 321.436C626.998 321.436 628.267 321.572 629.559 321.844C630.851 322.116 631.928 322.513 632.789 323.034L631.021 326.808C630.137 326.287 629.242 325.935 628.335 325.754C627.451 325.55 626.59 325.448 625.751 325.448C624.572 325.448 623.711 325.607 623.167 325.924C622.623 326.241 622.351 326.649 622.351 327.148C622.351 327.601 622.544 327.941 622.929 328.168C623.337 328.395 623.87 328.576 624.527 328.712C625.184 328.848 625.898 328.973 626.669 329.086C627.462 329.177 628.256 329.324 629.049 329.528C629.842 329.732 630.556 330.027 631.191 330.412C631.848 330.775 632.381 331.285 632.789 331.942C633.197 332.577 633.401 333.415 633.401 334.458C633.401 335.591 633.061 336.6 632.381 337.484C631.701 338.345 630.715 339.025 629.423 339.524C628.154 340.023 626.601 340.272 624.765 340.272ZM642.828 340.272C641.264 340.272 639.756 340.091 638.306 339.728C636.878 339.343 635.744 338.867 634.906 338.3L636.674 334.492C637.512 335.013 638.498 335.444 639.632 335.784C640.788 336.101 641.921 336.26 643.032 336.26C644.256 336.26 645.117 336.113 645.616 335.818C646.137 335.523 646.398 335.115 646.398 334.594C646.398 334.163 646.194 333.846 645.786 333.642C645.4 333.415 644.879 333.245 644.222 333.132C643.564 333.019 642.839 332.905 642.046 332.792C641.275 332.679 640.493 332.531 639.7 332.35C638.906 332.146 638.181 331.851 637.524 331.466C636.866 331.081 636.334 330.559 635.926 329.902C635.54 329.245 635.348 328.395 635.348 327.352C635.348 326.196 635.676 325.176 636.334 324.292C637.014 323.408 637.988 322.717 639.258 322.218C640.527 321.697 642.046 321.436 643.814 321.436C645.06 321.436 646.33 321.572 647.622 321.844C648.914 322.116 649.99 322.513 650.852 323.034L649.084 326.808C648.2 326.287 647.304 325.935 646.398 325.754C645.514 325.55 644.652 325.448 643.814 325.448C642.635 325.448 641.774 325.607 641.23 325.924C640.686 326.241 640.414 326.649 640.414 327.148C640.414 327.601 640.606 327.941 640.992 328.168C641.4 328.395 641.932 328.576 642.59 328.712C643.247 328.848 643.961 328.973 644.732 329.086C645.525 329.177 646.318 329.324 647.112 329.528C647.905 329.732 648.619 330.027 649.254 330.412C649.911 330.775 650.444 331.285 650.852 331.942C651.26 332.577 651.464 333.415 651.464 334.458C651.464 335.591 651.124 336.6 650.444 337.484C649.764 338.345 648.778 339.025 647.486 339.524C646.216 340.023 644.664 340.272 642.828 340.272ZM663.814 340.272C661.729 340.272 659.893 339.864 658.306 339.048C656.742 338.232 655.529 337.121 654.668 335.716C653.807 334.288 653.376 332.667 653.376 330.854C653.376 329.018 653.795 327.397 654.634 325.992C655.495 324.564 656.663 323.453 658.136 322.66C659.609 321.844 661.275 321.436 663.134 321.436C664.925 321.436 666.534 321.821 667.962 322.592C669.413 323.34 670.557 324.428 671.396 325.856C672.235 327.261 672.654 328.95 672.654 330.922C672.654 331.126 672.643 331.364 672.62 331.636C672.597 331.885 672.575 332.123 672.552 332.35H657.694V329.256H669.764L667.724 330.174C667.724 329.222 667.531 328.395 667.146 327.692C666.761 326.989 666.228 326.445 665.548 326.06C664.868 325.652 664.075 325.448 663.168 325.448C662.261 325.448 661.457 325.652 660.754 326.06C660.074 326.445 659.541 327.001 659.156 327.726C658.771 328.429 658.578 329.267 658.578 330.242V331.058C658.578 332.055 658.793 332.939 659.224 333.71C659.677 334.458 660.301 335.036 661.094 335.444C661.91 335.829 662.862 336.022 663.95 336.022C664.925 336.022 665.775 335.875 666.5 335.58C667.248 335.285 667.928 334.843 668.54 334.254L671.362 337.314C670.523 338.266 669.469 339.003 668.2 339.524C666.931 340.023 665.469 340.272 663.814 340.272ZM684.039 340.272C682.317 340.272 680.764 339.887 679.381 339.116C677.999 338.323 676.899 337.223 676.083 335.818C675.29 334.413 674.893 332.758 674.893 330.854C674.893 328.927 675.29 327.261 676.083 325.856C676.899 324.451 677.999 323.363 679.381 322.592C680.764 321.821 682.317 321.436 684.039 321.436C685.581 321.436 686.929 321.776 688.085 322.456C689.241 323.136 690.137 324.167 690.771 325.55C691.406 326.933 691.723 328.701 691.723 330.854C691.723 332.985 691.417 334.753 690.805 336.158C690.193 337.541 689.309 338.572 688.153 339.252C687.02 339.932 685.649 340.272 684.039 340.272ZM684.957 335.92C685.819 335.92 686.601 335.716 687.303 335.308C688.006 334.9 688.561 334.322 688.969 333.574C689.4 332.803 689.615 331.897 689.615 330.854C689.615 329.789 689.4 328.882 688.969 328.134C688.561 327.386 688.006 326.808 687.303 326.4C686.601 325.992 685.819 325.788 684.957 325.788C684.073 325.788 683.28 325.992 682.577 326.4C681.875 326.808 681.308 327.386 680.877 328.134C680.469 328.882 680.265 329.789 680.265 330.854C680.265 331.897 680.469 332.803 680.877 333.574C681.308 334.322 681.875 334.9 682.577 335.308C683.28 335.716 684.073 335.92 684.957 335.92ZM689.751 340V336.26L689.853 330.82L689.513 325.414V314.772H694.817V340H689.751ZM700.1 331.738L699.046 316.2H705.37L704.316 331.738H700.1ZM702.208 340.272C701.256 340.272 700.474 339.966 699.862 339.354C699.25 338.742 698.944 338.017 698.944 337.178C698.944 336.317 699.25 335.603 699.862 335.036C700.474 334.447 701.256 334.152 702.208 334.152C703.183 334.152 703.965 334.447 704.554 335.036C705.166 335.603 705.472 336.317 705.472 337.178C705.472 338.017 705.166 338.742 704.554 339.354C703.965 339.966 703.183 340.272 702.208 340.272Z" fill="white"/>
</svg>
