<svg width="308" height="77" viewBox="0 0 308 77" fill="none" xmlns="http://www.w3.org/2000/svg">
<g filter="url(#filter0_b_2670_2024)">
<rect width="307.376" height="76.6543" rx="30.3581" fill="#FFB23E"/>
<path d="M125.315 3.41028H165.465L89.0502 72.475H46.3096L125.315 3.41028Z" fill="#F5EA83"/>
<path d="M188.308 3.41028H228.458L152.043 72.475H109.302L188.308 3.41028Z" fill="#F5EA83"/>
<path d="M87.3313 48.9113C85.8195 48.9113 84.4169 48.6745 83.1237 48.2009C81.8486 47.7091 80.7375 47.017 79.7903 46.1244C78.8614 45.2319 78.1328 44.1846 77.6046 42.9824C77.0763 41.762 76.8122 40.4232 76.8122 38.966C76.8122 37.5088 77.0763 36.1791 77.6046 34.9769C78.1328 33.7565 78.8614 32.7001 79.7903 31.8076C80.7375 30.915 81.8486 30.232 83.1237 29.7584C84.4169 29.2666 85.8195 29.0207 87.3313 29.0207C89.0981 29.0207 90.6737 29.3303 92.0581 29.9496C93.4606 30.5689 94.6264 31.4615 95.5553 32.6272L92.1127 35.742C91.4934 35.0134 90.8103 34.4578 90.0635 34.0753C89.3349 33.6928 88.5153 33.5015 87.6045 33.5015C86.8213 33.5015 86.1018 33.629 85.4461 33.884C84.7903 34.1391 84.2257 34.5125 83.7521 35.0043C83.2967 35.4778 82.9324 36.0516 82.6592 36.7256C82.4042 37.3995 82.2767 38.1463 82.2767 38.966C82.2767 39.7857 82.4042 40.5325 82.6592 41.2064C82.9324 41.8804 83.2967 42.4633 83.7521 42.9551C84.2257 43.4286 84.7903 43.7929 85.4461 44.0479C86.1018 44.303 86.8213 44.4305 87.6045 44.4305C88.5153 44.4305 89.3349 44.2392 90.0635 43.8567C90.8103 43.4742 91.4934 42.9186 92.1127 42.19L95.5553 45.3048C94.6264 46.4523 93.4606 47.3448 92.0581 47.9824C90.6737 48.6017 89.0981 48.9113 87.3313 48.9113ZM107.212 48.9113C105.682 48.9113 104.27 48.6654 102.977 48.1736C101.684 47.6818 100.554 46.9897 99.589 46.0971C98.6418 45.1864 97.9041 44.1299 97.3759 42.9277C96.8476 41.7256 96.5835 40.405 96.5835 38.966C96.5835 37.527 96.8476 36.2064 97.3759 35.0043C97.9041 33.8021 98.6418 32.7547 99.589 31.8622C100.554 30.9515 101.684 30.2502 102.977 29.7584C104.27 29.2666 105.682 29.0207 107.212 29.0207C108.76 29.0207 110.172 29.2666 111.447 29.7584C112.74 30.2502 113.86 30.9515 114.808 31.8622C115.755 32.7547 116.492 33.8021 117.021 35.0043C117.567 36.2064 117.84 37.527 117.84 38.966C117.84 40.405 117.567 41.7347 117.021 42.9551C116.492 44.1572 115.755 45.2046 114.808 46.0971C113.86 46.9897 112.74 47.6818 111.447 48.1736C110.172 48.6654 108.76 48.9113 107.212 48.9113ZM107.212 44.4305C107.941 44.4305 108.614 44.303 109.234 44.0479C109.871 43.7929 110.418 43.4286 110.873 42.9551C111.347 42.4633 111.711 41.8804 111.966 41.2064C112.239 40.5325 112.376 39.7857 112.376 38.966C112.376 38.1281 112.239 37.3813 111.966 36.7256C111.711 36.0516 111.347 35.4778 110.873 35.0043C110.418 34.5125 109.871 34.1391 109.234 33.884C108.614 33.629 107.941 33.5015 107.212 33.5015C106.483 33.5015 105.8 33.629 105.163 33.884C104.543 34.1391 103.997 34.5125 103.523 35.0043C103.068 35.4778 102.704 36.0516 102.431 36.7256C102.175 37.3813 102.048 38.1281 102.048 38.966C102.048 39.7857 102.175 40.5325 102.431 41.2064C102.704 41.8804 103.068 42.4633 103.523 42.9551C103.997 43.4286 104.543 43.7929 105.163 44.0479C105.8 44.303 106.483 44.4305 107.212 44.4305ZM120.674 48.5288V29.4032H125.127L135.674 42.1354H133.57V29.4032H138.87V48.5288H134.417L123.87 35.7966H125.974V48.5288H120.674ZM146.757 48.5288V33.6928H140.883V29.4032H158.014V33.6928H152.167V48.5288H146.757ZM160.03 48.5288V29.4032H165.439V48.5288H160.03ZM169.288 48.5288V29.4032H173.742L184.288 42.1354H182.184V29.4032H187.485V48.5288H183.031L172.485 35.7966H174.589V48.5288H169.288ZM200.126 48.9113C197.303 48.9113 195.099 48.1372 193.514 46.5889C191.929 45.0407 191.137 42.8458 191.137 40.0042V29.4032H196.547V39.8403C196.547 41.4797 196.865 42.6545 197.503 43.3649C198.159 44.0753 199.051 44.4305 200.181 44.4305C201.31 44.4305 202.193 44.0753 202.831 43.3649C203.468 42.6545 203.787 41.4797 203.787 39.8403V29.4032H209.115V40.0042C209.115 42.8458 208.323 45.0407 206.738 46.5889C205.153 48.1372 202.949 48.9113 200.126 48.9113ZM217.752 36.8075H226.632V40.8512H217.752V36.8075ZM218.135 44.3485H228.135V48.5288H212.78V29.4032H227.78V33.5835H218.135V44.3485Z" fill="#A61E00"/>
</g>
<defs>
<filter id="filter0_b_2670_2024" x="-4.99083" y="-4.99083" width="317.358" height="86.6359" filterUnits="userSpaceOnUse" color-interpolation-filters="sRGB">
<feFlood flood-opacity="0" result="BackgroundImageFix"/>
<feGaussianBlur in="BackgroundImageFix" stdDeviation="2.49541"/>
<feComposite in2="SourceAlpha" operator="in" result="effect1_backgroundBlur_2670_2024"/>
<feBlend mode="normal" in="SourceGraphic" in2="effect1_backgroundBlur_2670_2024" result="shape"/>
</filter>
</defs>
</svg>
