<svg xmlns="http://www.w3.org/2000/svg" width="450" height="360" viewBox="0 0 450 360">
  <defs>
    <style>
      .cls-1, .cls-2, .cls-4 {
        fill: none;
      }

      .cls-1, .cls-2, .cls-3, .cls-4 {
        stroke: #fff;
      }

      .cls-1 {
        stroke-width: 2px;
      }

      .cls-2, .cls-3 {
        stroke-width: 1px;
      }

      .cls-3, .cls-5 {
        fill: #fff;
      }

      .cls-3, .cls-4, .cls-5 {
        fill-rule: evenodd;
      }

      .cls-4 {
        stroke-width: 384px;
      }
    </style>
  </defs>
  <circle class="cls-1" cx="31.25" cy="35.25" r="29.25"/>
  <circle class="cls-2" cx="226.25" cy="118.25" r="29.25"/>
  <path class="cls-3" d="M33.019,64.276l3.962-.553,18,129-3.962.552Z"/>
  <ellipse class="cls-1" cx="60.5" cy="220" rx="29.25" ry="29.25"/>
  <ellipse class="cls-1" cx="417.5" cy="162" rx="29.25" ry="29.25"/>
  <ellipse class="cls-1" cx="284.5" cy="325" rx="29.25" ry="29.25"/>
  <path class="cls-4" d="M57.266,49.861l1.467-3.721,142,56-1.468,3.722Z"/>
  <path class="cls-4" d="M302.5,303.32l-3.006-2.64,101-115,3.006,2.64Z"/>
  <path id="c" class="cls-5" d="M42,47.725A12.031,12.031,0,0,0,47.625,43.1l-5.937-2.8a9.24,9.24,0,0,1-3.656,2.825,11.677,11.677,0,0,1-4.656.925,12.661,12.661,0,0,1-5.187-1.025A8.437,8.437,0,0,1,24.563,40.1a7.634,7.634,0,0,1-1.312-4.45,7.52,7.52,0,0,1,1.313-4.425,8.518,8.518,0,0,1,3.625-2.9A12.674,12.674,0,0,1,33.375,27.3a11.691,11.691,0,0,1,4.656.925A9.444,9.444,0,0,1,41.688,31l5.938-2.8A11.8,11.8,0,0,0,42,23.55a21.647,21.647,0,0,0-8.562-1.6,23.291,23.291,0,0,0-9.344,1.775,15.624,15.624,0,0,0-6.406,4.825,11.423,11.423,0,0,0-2.312,7.1,11.452,11.452,0,0,0,2.313,7.075,15.517,15.517,0,0,0,6.406,4.85,23.278,23.278,0,0,0,9.344,1.775A21.346,21.346,0,0,0,42,47.725Z"/>
  <path id="a" class="cls-5" d="M241.062,132V116.35q0-5.8-3.937-8.6t-11.25-2.8a34.153,34.153,0,0,0-7.687.85,22.073,22.073,0,0,0-6.438,2.5l3.062,4.55a15.871,15.871,0,0,1,4.626-1.95,21.506,21.506,0,0,1,5.437-.7q4.25,0,6.344,1.525A4.987,4.987,0,0,1,233.312,116v9.45l0.376,1.1V132h7.374Zm-10.5-.95a7.717,7.717,0,0,0,4-3.65l-1.25-3.75a6.846,6.846,0,0,1-3.343,3.1,12.2,12.2,0,0,1-5.157,1.05,9.215,9.215,0,0,1-4.687-1,3,3,0,0,1-1.687-2.65,3.079,3.079,0,0,1,1.406-2.575q1.406-1.025,5.344-1.025h9.124V116.4h-9.687a25.7,25.7,0,0,0-8.125,1.05,8.915,8.915,0,0,0-4.406,2.85,6.6,6.6,0,0,0-1.344,4.05,6.243,6.243,0,0,0,1.531,4.125,9.97,9.97,0,0,0,4.344,2.85,19.152,19.152,0,0,0,6.563,1.025A17.982,17.982,0,0,0,230.562,131.05Z"/>
  <path id="d" class="cls-5" d="M421.906,178.875a11.4,11.4,0,0,0,5.156-4.525,14.479,14.479,0,0,0,1.876-7.7A14.092,14.092,0,0,0,427,158.925a11.81,11.81,0,0,0-5.25-4.5,18.263,18.263,0,0,0-7.5-1.475,21.185,21.185,0,0,0-8.656,1.7,14.237,14.237,0,0,0-6.032,4.8,12.987,12.987,0,0,0,0,14.425,14.3,14.3,0,0,0,6.032,4.775,21.168,21.168,0,0,0,8.656,1.7A18.513,18.513,0,0,0,421.906,178.875Zm-11.75-4.85a8.691,8.691,0,0,1-3.562-2.95,7.53,7.53,0,0,1-1.344-4.425,7.388,7.388,0,0,1,1.344-4.425,8.857,8.857,0,0,1,3.562-2.9,12.862,12.862,0,0,1,10.063,0,8.87,8.87,0,0,1,3.562,2.9,7.4,7.4,0,0,1,1.344,4.425,7.537,7.537,0,0,1-1.344,4.425,8.7,8.7,0,0,1-3.562,2.95A12.862,12.862,0,0,1,410.156,174.025ZM432.812,180V142.9h-7.874v16.6l0.624,7.1-0.187,7.1V180h7.437Z"/>
  <path id="b" class="cls-5" d="M296.312,341.65a14.565,14.565,0,0,0,6.032-4.775,12.836,12.836,0,0,0,0-14.425,14.5,14.5,0,0,0-6.032-4.8,21.127,21.127,0,0,0-8.687-1.7,18.094,18.094,0,0,0-7.437,1.475,11.8,11.8,0,0,0-5.25,4.5A14.084,14.084,0,0,0,273,329.65a14.665,14.665,0,0,0,1.844,7.7,11.138,11.138,0,0,0,5.218,4.525,18.685,18.685,0,0,0,7.563,1.475A21.111,21.111,0,0,0,296.312,341.65ZM276.625,343v-6.3l-0.313-7.1,0.626-7.1V305.9h-7.75V343h7.437Zm5.063-5.975a8.439,8.439,0,0,1-3.563-2.95,7.665,7.665,0,0,1-1.313-4.425,7.52,7.52,0,0,1,1.313-4.425,8.593,8.593,0,0,1,3.563-2.9,12.935,12.935,0,0,1,10.093,0,8.624,8.624,0,0,1,3.531,2.9,7.513,7.513,0,0,1,1.313,4.425,7.658,7.658,0,0,1-1.313,4.425,8.469,8.469,0,0,1-3.531,2.95A12.935,12.935,0,0,1,281.688,337.025Z"/>
  <path id="e" class="cls-5" d="M69.594,234.25a15.421,15.421,0,0,0,5.719-3.2l-4.25-3.9a12.3,12.3,0,0,1-4,2.2A15.96,15.96,0,0,1,62,230.1a15.224,15.224,0,0,1-5.812-1.025,8.655,8.655,0,0,1-3.844-2.875A7.04,7.04,0,0,1,51,221.95v-1a7.362,7.362,0,0,1,1.188-4.15,7.625,7.625,0,0,1,3.406-2.775,12.384,12.384,0,0,1,5.031-.975,11.9,11.9,0,0,1,5,.975,8,8,0,0,1,3.344,2.75,6.611,6.611,0,0,1,1.156,4.025l3.125-1.3H49.563v4.15H77.375c0.041-.266.072-0.575,0.094-0.925s0.031-.641.031-0.875a12.423,12.423,0,0,0-2.187-7.35,14.448,14.448,0,0,0-6-4.825,20.863,20.863,0,0,0-8.687-1.725,21.31,21.31,0,0,0-8.906,1.775,15.008,15.008,0,0,0-6.125,4.85,11.779,11.779,0,0,0-2.219,7.075,11.555,11.555,0,0,0,2.281,7.075,15.227,15.227,0,0,0,6.438,4.85,24.581,24.581,0,0,0,9.719,1.775A25.286,25.286,0,0,0,69.594,234.25Z"/>
</svg>
