<svg width="298" height="75" viewBox="0 0 298 75" fill="none" xmlns="http://www.w3.org/2000/svg">
<g filter="url(#filter0_b_2670_2386)">
<rect width="298" height="74.316" rx="29.4321" fill="#97CECE"/>
<path d="M76.5382 47.8102V33.4267H70.8431V29.268H87.4516V33.4267H81.783V47.8102H76.5382ZM100.875 47.8102L97.5112 42.8832H94.6504V47.8102H89.4056V29.268H97.882C102.941 29.268 106.12 31.8904 106.12 36.1286C106.12 38.8569 104.796 40.8701 102.491 41.9826L106.491 47.8102H100.875ZM100.822 36.1286C100.822 34.4068 99.7362 33.4002 97.5642 33.4002H94.6504V38.8304H97.5642C99.7362 38.8304 100.822 37.8239 100.822 36.1286ZM125.787 29.268L118.688 41.1615V47.8102H113.443V41.082L106.371 29.268H111.907L116.304 36.6319L120.701 29.268H125.787ZM148.71 47.8102L147.253 44.2077H139.412L137.956 47.8102H132.605L140.79 29.268H145.955L154.167 47.8102H148.71ZM140.949 40.3403H145.717L143.333 34.4068L140.949 40.3403ZM167.818 43.2276V38.1417H172.454V45.8235C170.308 47.3599 167.368 48.181 164.666 48.181C158.759 48.181 154.441 44.1812 154.441 38.5391C154.441 32.8969 158.759 28.8971 164.772 28.8971C168.242 28.8971 171.05 30.0891 172.878 32.2877L169.54 35.3074C168.269 33.9035 166.812 33.2413 165.037 33.2413C161.858 33.2413 159.739 35.3339 159.739 38.5391C159.739 41.6648 161.858 43.8368 164.984 43.8368C165.964 43.8368 166.891 43.6514 167.818 43.2276ZM189.659 47.8102L188.202 44.2077H180.362L178.905 47.8102H173.554L181.739 29.268H186.904L195.116 47.8102H189.659ZM181.898 40.3403H186.666L184.282 34.4068L181.898 40.3403ZM196.603 47.8102V29.268H201.848V47.8102H196.603ZM218.082 29.268H223.221V47.8102H218.903L210.718 37.9298V47.8102H205.579V29.268H209.897L218.082 39.1483V29.268Z" fill="white"/>
</g>
<defs>
<filter id="filter0_b_2670_2386" x="-4.83859" y="-4.83859" width="307.677" height="83.9932" filterUnits="userSpaceOnUse" color-interpolation-filters="sRGB">
<feFlood flood-opacity="0" result="BackgroundImageFix"/>
<feGaussianBlur in="BackgroundImageFix" stdDeviation="2.41929"/>
<feComposite in2="SourceAlpha" operator="in" result="effect1_backgroundBlur_2670_2386"/>
<feBlend mode="normal" in="SourceGraphic" in2="effect1_backgroundBlur_2670_2386" result="shape"/>
</filter>
</defs>
</svg>
