<svg width="1512" height="3699" viewBox="0 0 1512 3699" fill="none" xmlns="http://www.w3.org/2000/svg">
<rect x="-31" y="500" width="1100" height="2550" fill="#495E5E"/>
<rect x="458.891" y="717.954" width="1153.34" height="2980.85" fill="#495E5E"/>
<path d="M-54.746 814.35L6.48167 795.309L67.7149 817.618L59.9169 869.686L84.0553 913.015L50.1668 936.559L15.9302 926.605L-29.2582 930.43L-108.744 927.994L-125.508 888.399L-54.746 814.35Z" fill="#364949"/>
<path d="M445.302 776.347L355.52 846.96L285.591 852.31L240.314 813.659L182.616 799.625L181.99 764.174L213.999 750.413L239.836 721.162L294.15 675.7L328.536 725.69L445.302 776.347Z" fill="#364949"/>
<path d="M440.805 929.979L384.728 924.774L350.227 888.407L383.279 851.661L420.278 828.924L446.134 822.816L482.183 834.364L540.81 861.584L532.777 896.776L440.805 929.979Z" fill="#364949"/>
<path d="M1231.74 1157.43L1243.18 1082.85L1328.85 996.948L1368.2 1037.19L1401.97 1086L1455.81 1086L1457.69 1130.95L1388.73 1212.69L1388.73 1212.69L1340.16 1186.98L1231.74 1157.43Z" fill="#364949"/>
<path d="M1388.03 1250.49L1479.14 1226.77L1615.01 1250.73L1585.26 1295.74L1543.24 1340.46L1566.2 1378.54L1515.03 1399.05L1391.1 1385.13L1391.1 1385.13L1400.11 1339.8L1388.03 1250.49Z" fill="#364949"/>
<path d="M627.326 771.895L671.157 778.891L695.334 809.375L666.151 836.683L659.263 868.317L628.82 871.833L614.105 856.219L586.618 845.247L542.626 820.741L551.927 793.373L627.326 771.895Z" fill="#364949"/>
<path d="M207.83 938.964L126.858 938.964L97.807 901.09L134.371 867.89L143.589 829.045L181.147 825.152L198.898 844.584L232.48 858.484L286.065 889.28L286.065 962.474L207.83 938.964Z" fill="#364949"/>
<path d="M587.096 882.97L631.741 902.992L671.501 882.97L711.674 898.648L705.302 933.132L720.348 962.257L697.295 977.425L674.777 970.333L644.667 972.242L591.914 969.511L551.918 920.44L587.096 882.97Z" fill="#364949"/>
<path d="M960.302 921.442L878.814 880.803L818.512 904.337L828.076 956.1L805.49 999.82L840.095 1022.59L873.897 1011.94L919.095 1014.81L998.282 1010.71L1058.32 937.049L960.302 921.442Z" fill="#364949"/>
<path d="M1078.29 1117.44L1138.64 1103.06L1182.97 1084.21L1174.07 1045.68L1189.5 1012.5L1162.84 996.181L1113.23 962.766L1067.22 995.603L1057.75 1037.54L950.027 1068.89L1015.26 1108.73L1078.29 1117.44Z" fill="#364949"/>
<path d="M-68.7485 615.584L13.8913 569.881L127.655 575.47L154.486 642.874L225.857 657.013L189.367 729.348H127.655L58.9675 750.392L-68.7485 776.038L-125.094 732.965L-68.7485 615.584Z" fill="#222B2B"/>
<path d="M-68.7485 585.994L13.8913 540.291L127.655 545.881L154.486 613.284L225.32 658.33L189.367 699.759H127.655L58.9675 720.802L-68.7485 746.448L-125.094 703.375L-68.7485 585.994Z" fill="#374242"/>
<path d="M387.785 666.391L333.702 606.771L368.188 540.11L481.412 539.258L519.954 499.831L626.773 537.892L612.887 574.734L630.895 620.476L642.942 702.494L561.769 726.441L387.785 666.391Z" fill="#222B2B"/>
<path d="M344.996 652.767L290.913 593.147L325.399 526.486L438.623 525.634L526.193 493.481L583.984 524.268L570.098 561.11L588.106 606.852L600.153 688.87L518.98 712.817L344.996 652.767Z" fill="#374242"/>
<path d="M869.635 676.21L964.627 640.642L1074.75 659.006L1080.81 728.286L1146.69 750.256L1089.03 817.22L1028.38 810.238L954.531 823.149L821.283 833.905L778.886 785.198L869.635 676.21Z" fill="#222B2B"/>
<path d="M890.026 648.798L985.017 613.23L1095.14 631.594L1101.2 700.874L1157.24 753.159L1109.42 789.808L1048.77 782.826L974.922 795.736L841.674 806.493L799.277 757.786L890.026 648.798Z" fill="#374242"/>
<path d="M1287.48 707.02L1385.94 738.848L1416.5 806.223L1322.43 844.842L1325.31 890.768L1201.91 894.652L1180.68 859.146L1124.81 826.865L1041.58 762.205L1088.21 714.973L1287.48 707.02Z" fill="#222B2B"/>
<path d="M1307.39 684.022L1405.85 715.85L1436.41 783.225L1342.34 821.844L1297.67 878.091L1221.81 871.653L1200.59 836.148L1144.72 803.867L1061.49 739.207L1108.12 691.975L1307.39 684.022Z" fill="#303B3B"/>
<path d="M174.262 680.236L95.9885 631.733L99.9253 561.845L208.598 542.355L278.816 496.949L347.996 517.071L350.804 554.844L388.238 595.929L434.632 636.625L434.632 671.807L368.201 709.383L174.262 680.236Z" fill="#273131"/>
<path d="M174.262 642.754L95.9885 594.25L99.9253 524.363L208.598 504.873L278.816 459.467L347.996 479.588L350.804 517.361L388.238 558.446L435.862 635.453L368.201 671.901L174.262 642.754Z" fill="#4E6060"/>
<path d="M743.318 734.017L635.36 717.37L579.645 656.34L656.126 605.178L677.804 544.052L753.991 539.307L788.325 570.726L855.078 593.99L929.168 614.076L958.91 644.17L933.852 697.396L743.318 734.017Z" fill="#273131"/>
<path d="M711.615 701.955L603.657 685.309L547.942 624.278L624.423 573.116L646.101 511.99L722.287 507.246L756.622 538.665L823.375 561.928L929.213 612.683L902.149 665.335L711.615 701.955Z" fill="#4E6060"/>
<path d="M1327.11 910.1L1273.41 850.35L1308.33 783.773L1421.56 783.194L1509.33 751.252L1566.93 782.178L1552.8 818.986L1570.52 864.771L1597.03 911.681L1581.36 945.527L1500.71 970.569L1327.11 910.1Z" fill="#273131"/>
<path d="M1343.81 874.04L1290.11 814.29L1325.02 747.714L1438.25 747.134L1526.03 715.193L1583.62 746.118L1569.5 782.927L1587.21 828.712L1598.73 910.758L1517.41 934.51L1343.81 874.04Z" fill="#4E6060"/>
<path d="M-68.7407 615.584L13.8991 569.881L127.663 575.47L154.494 642.874L225.865 657.013L189.374 729.348H127.663L58.9753 750.392L-68.7407 776.038L-125.086 732.965L-68.7407 615.584Z" fill="#222B2B"/>
<path d="M-68.7407 585.996L13.8991 540.293L127.663 545.883L154.494 613.286L225.328 658.332L189.374 699.761H127.663L58.9753 720.804L-68.7407 746.45L-125.086 703.377L-68.7407 585.996Z" fill="#374242"/>
<path d="M387.785 666.391L333.702 606.771L368.188 540.11L481.412 539.258L519.954 499.831L626.773 537.892L612.887 574.734L630.895 620.476L642.942 702.494L561.769 726.441L387.785 666.391Z" fill="#222B2B"/>
<path d="M344.996 652.767L290.913 593.147L325.399 526.486L438.623 525.634L526.193 493.481L583.984 524.268L570.098 561.11L588.106 606.852L600.153 688.87L518.98 712.817L344.996 652.767Z" fill="#374242"/>
<path d="M869.635 676.21L964.627 640.642L1074.75 659.006L1080.81 728.286L1146.69 750.256L1089.03 817.22L1028.38 810.238L954.531 823.149L821.283 833.905L778.886 785.198L869.635 676.21Z" fill="#222B2B"/>
<path d="M890.026 648.798L985.017 613.23L1095.14 631.594L1101.2 700.874L1157.24 753.159L1109.42 789.808L1048.77 782.826L974.922 795.736L841.674 806.493L799.277 757.786L890.026 648.798Z" fill="#374242"/>
<path d="M1287.48 707.02L1385.94 738.848L1416.5 806.223L1322.43 844.842L1325.31 890.768L1201.91 894.652L1180.68 859.146L1124.81 826.865L1041.58 762.205L1088.21 714.973L1287.48 707.02Z" fill="#222B2B"/>
<path d="M1307.39 684.022L1405.85 715.85L1436.41 783.225L1342.34 821.844L1297.67 878.091L1221.81 871.653L1200.59 836.148L1144.72 803.867L1061.49 739.207L1108.12 691.975L1307.39 684.022Z" fill="#303B3B"/>
<path d="M174.262 680.236L95.9885 631.733L99.9253 561.845L208.598 542.355L278.816 496.949L347.996 517.071L350.804 554.844L388.238 595.929L434.632 636.625L434.632 671.807L368.201 709.383L174.262 680.236Z" fill="#273131"/>
<path d="M174.262 642.754L95.9885 594.25L99.9253 524.363L208.598 504.873L278.816 459.467L347.996 479.588L350.804 517.361L388.238 558.446L435.862 635.453L368.201 671.901L174.262 642.754Z" fill="#4E6060"/>
<path d="M743.318 734.017L635.36 717.37L579.645 656.34L656.126 605.178L677.804 544.052L753.991 539.307L788.325 570.726L855.078 593.99L929.168 614.076L958.91 644.17L933.852 697.396L743.318 734.017Z" fill="#273131"/>
<path d="M711.615 701.955L603.657 685.309L547.942 624.278L624.423 573.116L646.101 511.99L722.287 507.246L756.622 538.665L823.375 561.928L929.213 612.683L902.149 665.335L711.615 701.955Z" fill="#4E6060"/>
<path d="M1327.11 910.1L1273.41 850.35L1308.33 783.773L1421.56 783.194L1509.33 751.252L1566.93 782.178L1552.8 818.986L1570.52 864.771L1597.03 911.681L1581.36 945.527L1500.71 970.569L1327.11 910.1Z" fill="#273131"/>
<path d="M1343.81 874.04L1290.11 814.29L1325.02 747.714L1438.25 747.134L1526.03 715.193L1583.62 746.118L1569.5 782.927L1587.21 828.712L1598.73 910.758L1517.41 934.51L1343.81 874.04Z" fill="#4E6060"/>
<path d="M62.1536 3155.97L1.06502 3148.59L-36.5185 3097.05L-0.513104 3044.96L39.7925 3012.74L67.9585 3004.08L107.229 3020.45L171.095 3059.03L162.345 3108.91L62.1536 3155.97Z" fill="#364949"/>
<path d="M1181.29 2988.43L1120.2 2981.05L1082.61 2929.51L1118.62 2877.42L1158.93 2845.2L1187.09 2836.54L1226.36 2852.91L1290.23 2891.49L1281.48 2941.37L1181.29 2988.43Z" fill="#364949"/>
<path d="M1773.92 2385.81L1694.86 2455.51L1545.34 2481.77L1551.3 2410.22L1569.77 2333.83L1526.36 2293.7L1566.94 2245.14L1699.09 2210.79L1699.09 2210.79L1714.18 2273.98L1773.92 2385.81Z" fill="#364949"/>
<path d="M274.33 3038.89L186.122 3038.89L154.475 2985.21L194.306 2938.15L204.348 2883.1L245.263 2877.58L264.6 2905.12L301.183 2924.82L359.556 2968.47L359.556 3072.22L274.33 3038.89Z" fill="#364949"/>
<path d="M-4.84308 2838.76L43.7916 2867.14L87.1047 2838.76L130.867 2860.98L123.926 2909.86L140.317 2951.14L115.204 2972.64L90.6726 2962.59L57.872 2965.29L0.404618 2961.42L-43.1653 2891.87L-4.84308 2838.76Z" fill="#364949"/>
<path d="M1576.6 2891.61L1635.02 2854.77L1674.98 2816.36L1651.87 2766.1L1656.28 2716.26L1622.39 2701.47L1558.23 2669.77L1521.49 2727.82L1526.47 2787.97L1424.22 2861.51L1507.12 2897.58L1576.6 2891.61Z" fill="#364949"/>
<path d="M-18.0718 1232.21L147.671 1209.2L275.151 1151L1114.49 1169.49L1342.37 1220.61L1495.62 1394.06L1603.51 1846.53L1545.97 2016.5L1495.62 2339.03L1545.97 2532.2L1495.62 2761.92L1452.47 2795.57L1139.88 2788.61L857.724 3001.5L398.526 2873.3L-18.0718 2788.61V2512.48V1506.02L-142 1439.31V1394.06L-18.0718 1232.21Z" fill="#384646"/>
<path d="M-18.0181 1285.9H175.452L265.239 1209.75L728.071 1275.02H1296.19L1444.23 1437.66L1548.45 1861.94L1492.87 2021.31L1444.23 2323.75L1492.87 2504.88L1444.23 2720.28L1100.58 2745.31L828.013 2944.93L384.421 2824.72L-18.0181 2745.31V2486.39V1542.64L-137.734 1480.09V1437.66L-18.0181 1285.9Z" fill="#222B2B"/>
<path d="M171.124 1521.32H315.954L383.167 1464.31L729.637 1513.18H1154.92L1265.75 1634.93L1343.76 1952.54L1302.15 2071.84L1265.75 2298.24L1302.15 2433.84L1265.75 2595.09L1008.49 2613.82L804.453 2763.26L472.385 2673.27L171.124 2613.82V2419.99L26.8828 2175.38L81.506 1634.93L171.124 1521.32Z" fill="#141717"/>
<path d="M352.424 1790.61H451.759L497.859 1751.5L735.495 1785.02H1027.19L1103.2 1868.53L1156.71 2086.39L1128.17 2168.23L1103.2 2323.52L1128.17 2416.53L1103.2 2527.13L926.756 2539.98L786.809 2642.49L559.052 2580.76L352.424 2539.98V2407.03L253.492 2239.25L290.957 1868.53L352.424 1790.61Z" fill="#080A0A"/>
<path d="M497.866 1984.43H567.224L599.412 1957.12L765.336 1980.53H969.004L1022.08 2038.85L1059.44 2191.01L1039.51 2248.16L1022.08 2356.62L1039.51 2421.58L1022.08 2498.83L898.879 2507.8L801.164 2579.39L642.138 2536.28L497.866 2507.8V2414.95L428.789 2297.76L454.948 2038.85L497.866 1984.43Z" fill="#030404"/>
<path d="M786.861 1988.68L754.182 1931.86V1849.47L685.316 1776.54H888.406L870.332 1816.26L809.899 1880.21L786.861 1988.68Z" fill="#141717"/>
<path d="M669.813 2187.76L647.969 2120.17V2022.14L601.938 1935.37H737.688L725.606 1982.63L685.212 2058.72L669.813 2187.76Z" fill="#080A0A"/>
<path d="M877.189 2247.6L858.786 2174.18V2067.7L820.003 1973.45H934.375L924.196 2024.79L890.163 2107.43L877.189 2247.6Z" fill="#080A0A"/>
<path d="M586.445 1935.37L608.288 1877.1V1792.6L654.32 1717.8H518.57L530.651 1758.54L571.046 1824.13L586.445 1935.37Z" fill="#141717"/>
<path d="M957.634 1753.69L984.601 1601L1069.05 1501.3H820L842.165 1555.61L916.275 1643.03L957.634 1753.69Z" fill="#222B2B"/>
<path d="M147.129 1560.05L91.231 1484.3V1374.44L-26.5668 1277.2L179.73 1259.25L264.173 1196.15H314.945L289.908 1330.16L186.536 1415.43L147.129 1560.05Z" fill="#384646"/>
<path d="M797.032 1428.42H856.891L893.693 1373.32L1069.07 1268.08L761.938 1248.66L652.104 1224.98L535.688 1228.24L607.931 1280.85L797.032 1428.42Z" fill="#384646"/>
<path d="M407.888 1309.83H372.501L350.744 1277.13L247.066 1214.67L428.635 1203.13L493.567 1189.08L562.391 1191.02L519.682 1222.24L407.888 1309.83Z" fill="#384646"/>
<path d="M723.216 1565.49H687.829L666.072 1532.79L562.395 1470.32L743.963 1458.79L808.895 1444.73L877.719 1446.67L835.01 1477.9L723.216 1565.49Z" fill="#222B2B"/>
<path d="M1224.99 1477.37L1245.67 1420.42V1337.82L1289.25 1264.71L1212.93 1251.22L1185.63 1234.77L1156.7 1237.03L1172.16 1304.54L1210.41 1368.64L1224.99 1477.37Z" fill="#384646"/>
<path d="M1125.59 1400.13L1146.27 1366.42V1317.53L1189.85 1274.25L1113.53 1266.27L1086.23 1256.53L1057.3 1257.87L1072.77 1297.83L1111.01 1335.77L1125.59 1400.13Z" fill="#384646"/>
<path d="M506.291 1728.67L474.473 1651.17V1538.78L407.418 1439.29H605.164L587.566 1493.48L528.723 1580.72L506.291 1728.67Z" fill="#222B2B"/>
<path d="M1124.12 1672.1L1106.4 1628.98V1566.45L1069.07 1511.09H1179.16L1169.37 1541.24L1136.6 1589.78L1124.12 1672.1Z" fill="#222B2B"/>
<path d="M1000.63 2024.58L984.119 1958.15V1861.81L949.324 1776.54H1051.94L1042.81 1822.99L1012.27 1897.76L1000.63 2024.58Z" fill="#141717"/>
<rect x="-14.8203" y="3275.65" width="1616.17" height="561.351" fill="#030404"/>
<path d="M61.708 1018.9L329.106 1068.13L487.211 994L687.229 1068.13H811.378L909 1133.21V1177.35L784.32 1267.89H646.907L499.944 1196.02L316.904 1214.7H255.89L124.844 1286L6 1220.92V1176.78L61.708 1018.9Z" fill="#222B2B"/>
<path d="M61.708 975.814L217.69 958.331L329.106 1024.88L487.211 951L687.229 1024.88H811.378L909 1133.72L784.32 1223.95H646.907L499.944 1152.33L316.904 1170.94H255.89L124.844 1242L6 1177.15L61.708 975.814Z" fill="#374242"/>
<path d="M98.9434 1109V1074H114.943C118.143 1074 120.893 1074.52 123.193 1075.55C125.527 1076.58 127.327 1078.08 128.593 1080.05C129.86 1081.98 130.493 1084.28 130.493 1086.95C130.493 1089.58 129.86 1091.87 128.593 1093.8C127.327 1095.73 125.527 1097.23 123.193 1098.3C120.893 1099.33 118.143 1099.85 114.943 1099.85H104.443L108.843 1095.55V1109H98.9434ZM108.843 1096.6L104.443 1092.05H114.343C116.41 1092.05 117.943 1091.6 118.943 1090.7C119.977 1089.8 120.493 1088.55 120.493 1086.95C120.493 1085.32 119.977 1084.05 118.943 1083.15C117.943 1082.25 116.41 1081.8 114.343 1081.8H104.443L108.843 1077.25V1096.6ZM144.42 1087.55H160.67V1094.95H144.42V1087.55ZM145.12 1101.35H163.42V1109H135.32V1074H162.77V1081.65H145.12V1101.35ZM168.914 1109V1074H184.914C188.114 1074 190.864 1074.52 193.164 1075.55C195.497 1076.58 197.297 1078.08 198.564 1080.05C199.831 1081.98 200.464 1084.28 200.464 1086.95C200.464 1089.58 199.831 1091.87 198.564 1093.8C197.297 1095.7 195.497 1097.17 193.164 1098.2C190.864 1099.2 188.114 1099.7 184.914 1099.7H174.414L178.814 1095.55V1109H168.914ZM190.564 1109L181.864 1096.25H192.414L201.164 1109H190.564ZM178.814 1096.6L174.414 1092.05H184.314C186.381 1092.05 187.914 1091.6 188.914 1090.7C189.947 1089.8 190.464 1088.55 190.464 1086.95C190.464 1085.32 189.947 1084.05 188.914 1083.15C187.914 1082.25 186.381 1081.8 184.314 1081.8H174.414L178.814 1077.25V1096.6ZM218.226 1109.7C215.359 1109.7 212.592 1109.35 209.926 1108.65C207.292 1107.92 205.142 1106.98 203.476 1105.85L206.726 1098.55C208.292 1099.55 210.092 1100.38 212.126 1101.05C214.192 1101.68 216.242 1102 218.276 1102C219.642 1102 220.742 1101.88 221.576 1101.65C222.409 1101.38 223.009 1101.05 223.376 1100.65C223.776 1100.22 223.976 1099.72 223.976 1099.15C223.976 1098.35 223.609 1097.72 222.876 1097.25C222.142 1096.78 221.192 1096.4 220.026 1096.1C218.859 1095.8 217.559 1095.5 216.126 1095.2C214.726 1094.9 213.309 1094.52 211.876 1094.05C210.476 1093.58 209.192 1092.98 208.026 1092.25C206.859 1091.48 205.909 1090.5 205.176 1089.3C204.442 1088.07 204.076 1086.52 204.076 1084.65C204.076 1082.55 204.642 1080.65 205.776 1078.95C206.942 1077.25 208.676 1075.88 210.976 1074.85C213.276 1073.82 216.142 1073.3 219.576 1073.3C221.876 1073.3 224.126 1073.57 226.326 1074.1C228.559 1074.6 230.542 1075.35 232.276 1076.35L229.226 1083.7C227.559 1082.8 225.909 1082.13 224.276 1081.7C222.642 1081.23 221.059 1081 219.526 1081C218.159 1081 217.059 1081.15 216.226 1081.45C215.392 1081.72 214.792 1082.08 214.426 1082.55C214.059 1083.02 213.876 1083.55 213.876 1084.15C213.876 1084.92 214.226 1085.53 214.926 1086C215.659 1086.43 216.609 1086.8 217.776 1087.1C218.976 1087.37 220.276 1087.65 221.676 1087.95C223.109 1088.25 224.526 1088.63 225.926 1089.1C227.359 1089.53 228.659 1090.13 229.826 1090.9C230.992 1091.63 231.926 1092.62 232.626 1093.85C233.359 1095.05 233.726 1096.57 233.726 1098.4C233.726 1100.43 233.142 1102.32 231.976 1104.05C230.842 1105.75 229.126 1107.12 226.826 1108.15C224.559 1109.18 221.692 1109.7 218.226 1109.7ZM255.949 1109.7C253.149 1109.7 250.565 1109.25 248.199 1108.35C245.832 1107.45 243.765 1106.18 241.999 1104.55C240.265 1102.88 238.915 1100.95 237.949 1098.75C236.982 1096.55 236.499 1094.13 236.499 1091.5C236.499 1088.87 236.982 1086.45 237.949 1084.25C238.915 1082.05 240.265 1080.13 241.999 1078.5C243.765 1076.83 245.832 1075.55 248.199 1074.65C250.565 1073.75 253.149 1073.3 255.949 1073.3C258.782 1073.3 261.365 1073.75 263.699 1074.65C266.065 1075.55 268.115 1076.83 269.849 1078.5C271.582 1080.13 272.932 1082.05 273.899 1084.25C274.899 1086.45 275.399 1088.87 275.399 1091.5C275.399 1094.13 274.899 1096.57 273.899 1098.8C272.932 1101 271.582 1102.92 269.849 1104.55C268.115 1106.18 266.065 1107.45 263.699 1108.35C261.365 1109.25 258.782 1109.7 255.949 1109.7ZM255.949 1101.5C257.282 1101.5 258.515 1101.27 259.649 1100.8C260.815 1100.33 261.815 1099.67 262.649 1098.8C263.515 1097.9 264.182 1096.83 264.649 1095.6C265.149 1094.37 265.399 1093 265.399 1091.5C265.399 1089.97 265.149 1088.6 264.649 1087.4C264.182 1086.17 263.515 1085.12 262.649 1084.25C261.815 1083.35 260.815 1082.67 259.649 1082.2C258.515 1081.73 257.282 1081.5 255.949 1081.5C254.615 1081.5 253.365 1081.73 252.199 1082.2C251.065 1082.67 250.065 1083.35 249.199 1084.25C248.365 1085.12 247.699 1086.17 247.199 1087.4C246.732 1088.6 246.499 1089.97 246.499 1091.5C246.499 1093 246.732 1094.37 247.199 1095.6C247.699 1096.83 248.365 1097.9 249.199 1098.8C250.065 1099.67 251.065 1100.33 252.199 1100.8C253.365 1101.27 254.615 1101.5 255.949 1101.5ZM280.584 1109V1074H288.734L308.034 1097.3H304.184V1074H313.884V1109H305.734L286.434 1085.7H290.284V1109H280.584ZM316.667 1109L332.117 1074H341.867L357.367 1109H347.067L334.967 1078.85H338.867L326.767 1109H316.667ZM325.117 1102.2L327.667 1094.9H344.767L347.317 1102.2H325.117ZM360.174 1109V1074H370.074V1101.15H386.774V1109H360.174ZM405.242 1109V1074H415.142V1109H405.242ZM422.186 1109V1074H430.336L449.636 1097.3H445.786V1074H455.486V1109H447.336L428.036 1085.7H431.886V1109H422.186ZM471.669 1089.35H487.819V1097H471.669V1089.35ZM472.369 1109H462.469V1074H489.919V1081.65H472.369V1109ZM511.906 1109.7C509.106 1109.7 506.523 1109.25 504.156 1108.35C501.789 1107.45 499.723 1106.18 497.956 1104.55C496.223 1102.88 494.873 1100.95 493.906 1098.75C492.939 1096.55 492.456 1094.13 492.456 1091.5C492.456 1088.87 492.939 1086.45 493.906 1084.25C494.873 1082.05 496.223 1080.13 497.956 1078.5C499.723 1076.83 501.789 1075.55 504.156 1074.65C506.523 1073.75 509.106 1073.3 511.906 1073.3C514.739 1073.3 517.323 1073.75 519.656 1074.65C522.023 1075.55 524.073 1076.83 525.806 1078.5C527.539 1080.13 528.889 1082.05 529.856 1084.25C530.856 1086.45 531.356 1088.87 531.356 1091.5C531.356 1094.13 530.856 1096.57 529.856 1098.8C528.889 1101 527.539 1102.92 525.806 1104.55C524.073 1106.18 522.023 1107.45 519.656 1108.35C517.323 1109.25 514.739 1109.7 511.906 1109.7ZM511.906 1101.5C513.239 1101.5 514.473 1101.27 515.606 1100.8C516.773 1100.33 517.773 1099.67 518.606 1098.8C519.473 1097.9 520.139 1096.83 520.606 1095.6C521.106 1094.37 521.356 1093 521.356 1091.5C521.356 1089.97 521.106 1088.6 520.606 1087.4C520.139 1086.17 519.473 1085.12 518.606 1084.25C517.773 1083.35 516.773 1082.67 515.606 1082.2C514.473 1081.73 513.239 1081.5 511.906 1081.5C510.573 1081.5 509.323 1081.73 508.156 1082.2C507.023 1082.67 506.023 1083.35 505.156 1084.25C504.323 1085.12 503.656 1086.17 503.156 1087.4C502.689 1088.6 502.456 1089.97 502.456 1091.5C502.456 1093 502.689 1094.37 503.156 1095.6C503.656 1096.83 504.323 1097.9 505.156 1098.8C506.023 1099.67 507.023 1100.33 508.156 1100.8C509.323 1101.27 510.573 1101.5 511.906 1101.5ZM536.541 1109V1074H552.541C555.741 1074 558.491 1074.52 560.791 1075.55C563.124 1076.58 564.924 1078.08 566.191 1080.05C567.458 1081.98 568.091 1084.28 568.091 1086.95C568.091 1089.58 567.458 1091.87 566.191 1093.8C564.924 1095.7 563.124 1097.17 560.791 1098.2C558.491 1099.2 555.741 1099.7 552.541 1099.7H542.041L546.441 1095.55V1109H536.541ZM558.191 1109L549.491 1096.25H560.041L568.791 1109H558.191ZM546.441 1096.6L542.041 1092.05H551.941C554.008 1092.05 555.541 1091.6 556.541 1090.7C557.574 1089.8 558.091 1088.55 558.091 1086.95C558.091 1085.32 557.574 1084.05 556.541 1083.15C555.541 1082.25 554.008 1081.8 551.941 1081.8H542.041L546.441 1077.25V1096.6ZM573.553 1109V1074H581.703L596.203 1097.8H591.903L606.003 1074H614.153L614.253 1109H605.153L605.053 1087.85H606.603L596.053 1105.55H591.653L580.803 1087.85H582.703V1109H573.553ZM617.058 1109L632.508 1074H642.258L657.758 1109H647.458L635.358 1078.85H639.258L627.158 1109H617.058ZM625.508 1102.2L628.058 1094.9H645.158L647.708 1102.2H625.508ZM666.257 1109V1081.85H655.507V1074H686.857V1081.85H676.157V1109H666.257ZM690.545 1109V1074H700.445V1109H690.545ZM725.138 1109.7C722.338 1109.7 719.755 1109.25 717.388 1108.35C715.022 1107.45 712.955 1106.18 711.188 1104.55C709.455 1102.88 708.105 1100.95 707.138 1098.75C706.172 1096.55 705.688 1094.13 705.688 1091.5C705.688 1088.87 706.172 1086.45 707.138 1084.25C708.105 1082.05 709.455 1080.13 711.188 1078.5C712.955 1076.83 715.022 1075.55 717.388 1074.65C719.755 1073.75 722.338 1073.3 725.138 1073.3C727.972 1073.3 730.555 1073.75 732.888 1074.65C735.255 1075.55 737.305 1076.83 739.038 1078.5C740.772 1080.13 742.122 1082.05 743.088 1084.25C744.088 1086.45 744.588 1088.87 744.588 1091.5C744.588 1094.13 744.088 1096.57 743.088 1098.8C742.122 1101 740.772 1102.92 739.038 1104.55C737.305 1106.18 735.255 1107.45 732.888 1108.35C730.555 1109.25 727.972 1109.7 725.138 1109.7ZM725.138 1101.5C726.472 1101.5 727.705 1101.27 728.838 1100.8C730.005 1100.33 731.005 1099.67 731.838 1098.8C732.705 1097.9 733.372 1096.83 733.838 1095.6C734.338 1094.37 734.588 1093 734.588 1091.5C734.588 1089.97 734.338 1088.6 733.838 1087.4C733.372 1086.17 732.705 1085.12 731.838 1084.25C731.005 1083.35 730.005 1082.67 728.838 1082.2C727.705 1081.73 726.472 1081.5 725.138 1081.5C723.805 1081.5 722.555 1081.73 721.388 1082.2C720.255 1082.67 719.255 1083.35 718.388 1084.25C717.555 1085.12 716.888 1086.17 716.388 1087.4C715.922 1088.6 715.688 1089.97 715.688 1091.5C715.688 1093 715.922 1094.37 716.388 1095.6C716.888 1096.83 717.555 1097.9 718.388 1098.8C719.255 1099.67 720.255 1100.33 721.388 1100.8C722.555 1101.27 723.805 1101.5 725.138 1101.5ZM749.773 1109V1074H757.923L777.223 1097.3H773.373V1074H783.073V1109H774.923L755.623 1085.7H759.473V1109H749.773Z" fill="#B7D6D6"/>
<path d="M1370.17 3850.25L1789.19 3645.82L1760.68 3333.99L1169.99 3231.11L784.948 3018.51L412.264 3097.89L400.936 3265.69L202.38 3443.13L-44.7576 3617.51L-41.1407 3774.19L322.583 3951.37L1370.17 3850.25Z" fill="#0D1414"/>
<path d="M1619.44 3167.29L1537.13 3103.21L1423.83 3111.05L1397.11 3205.56L1326.03 3225.38L1362.37 3326.8H1423.83L1492.24 3356.3L1619.44 3392.26L1675.55 3331.87L1619.44 3167.29Z" fill="#222B2B"/>
<path d="M1619.44 3125.8L1537.13 3061.72L1423.83 3069.56L1397.11 3164.07L1326.56 3227.22L1362.37 3285.31H1423.83L1492.24 3314.81L1619.44 3350.77L1675.55 3290.38L1619.44 3125.8Z" fill="#374242"/>
<path d="M1162.62 3238.52L1216.48 3154.93L1182.13 3061.47L1069.37 3060.27L1030.98 3004.99L924.596 3058.36L938.425 3110.01L920.49 3174.15L908.492 3289.14L989.336 3322.72L1162.62 3238.52Z" fill="#222B2B"/>
<path d="M1206.3 3219.42L1260.17 3135.83L1225.82 3042.37L1113.06 3041.17L1025.84 2996.09L968.283 3039.26L982.112 3090.91L964.177 3155.05L952.18 3270.04L1033.02 3303.62L1206.3 3219.42Z" fill="#374242"/>
<path d="M684.807 3252.29L590.2 3202.43L480.523 3228.17L474.49 3325.31L408.874 3356.11L466.301 3450L526.706 3440.21L600.254 3458.31L732.963 3473.4L775.188 3405.1L684.807 3252.29Z" fill="#222B2B"/>
<path d="M664.494 3213.86L569.888 3163.99L460.21 3189.74L454.177 3286.88L398.362 3360.18L445.989 3411.57L506.393 3401.78L579.942 3419.88L712.651 3434.96L754.876 3366.67L664.494 3213.86Z" fill="#374242"/>
<path d="M270.847 3296.4L172.783 3341.03L142.347 3435.49L236.034 3489.64L233.167 3554.03L356.072 3559.48L377.21 3509.7L432.856 3464.43L515.747 3373.78L469.305 3307.55L270.847 3296.4Z" fill="#222B2B"/>
<path d="M247.816 3263.23L149.752 3307.86L119.315 3402.32L213.003 3456.47L257.493 3535.33L333.04 3526.31L354.179 3476.53L409.825 3431.26L492.716 3340.61L446.274 3274.38L247.816 3263.23Z" fill="#303B3B"/>
<path d="M1377.41 3257.94L1455.37 3189.94L1451.45 3091.95L1343.22 3064.62L1273.28 3000.96L1204.38 3029.17L1201.59 3082.13L1164.3 3139.74L1118.1 3196.8L1118.1 3246.13L1184.26 3298.81L1377.41 3257.94Z" fill="#273131"/>
<path d="M1377.41 3205.39L1455.37 3137.38L1451.45 3039.4L1343.22 3012.07L1273.28 2948.41L1204.38 2976.62L1201.59 3029.58L1164.3 3087.18L1116.87 3195.15L1184.26 3246.26L1377.41 3205.39Z" fill="#4E6060"/>
<path d="M810.673 3333.34L918.194 3310L973.683 3224.43L897.512 3152.7L875.922 3066.99L800.044 3060.34L765.848 3104.39L699.366 3137.01L625.576 3165.17L595.954 3207.37L620.911 3281.99L810.673 3333.34Z" fill="#273131"/>
<path d="M842.251 3288.39L949.772 3265.05L1005.26 3179.48L929.09 3107.74L907.5 3022.04L831.622 3015.39L797.427 3059.44L730.944 3092.06L625.535 3163.22L652.489 3237.04L842.251 3288.39Z" fill="#4E6060"/>
<path d="M229.208 3580.23L282.691 3496.45L247.918 3403.11L135.149 3402.3L47.7282 3357.51L-9.631 3400.87L4.4338 3452.48L-13.2085 3516.67L-39.6091 3582.44L-24.0033 3629.9L56.3154 3665.01L229.208 3580.23Z" fill="#273131"/>
<path d="M212.576 3529.67L266.058 3445.89L231.285 3352.55L118.516 3351.74L31.0954 3306.95L-26.2638 3350.31L-12.199 3401.92L-29.8413 3466.11L-41.314 3581.15L39.6825 3614.45L212.576 3529.67Z" fill="#4E6060"/>
<path d="M1590.02 2974.13H436.685L-48.5935 3381.2L-62.4891 3461.41L126.705 3419.46L240.543 3355.84L350.639 3409.32L436.685 3365.98L518.99 3217.08L652.068 3200.02L815.074 3116.12L964.185 3155.77L1050.23 3052.04L1429.15 3089.84L1553.15 3155.77L1590.02 3116.12V2974.13Z" fill="#232A2A"/>
<path d="M1590.02 2943.7H436.685L-48.5935 3350.77L-62.4891 3430.98L126.705 3389.03L240.543 3325.41L350.639 3378.89L436.685 3335.56L518.99 3186.65L652.068 3169.59L815.074 3085.69L964.185 3125.34L1050.23 3021.61L1429.15 3059.41L1553.15 3125.34L1590.02 3085.69V2943.7Z" fill="#343F3F"/>
<path d="M1590.02 2901.29L1343.12 2838.07L863.183 2945.02L436.685 2901.29L183.9 3043.28H-95.0819L-62.4889 3388.57L126.706 3346.62L240.543 3283L350.639 3336.48L436.685 3293.15L518.99 3144.24L652.068 3127.18L815.074 3043.28L964.185 3082.93L1050.23 2979.2L1429.15 3017L1553.15 3082.93L1590.02 3043.28V2901.29Z" fill="#6A7D7D"/>
<path d="M1680.36 2155.85L1651.53 2197.32L1678.55 2235.15L1655.86 2272.52L1607.99 2265.72L1567.11 2279.17L1546.49 2257.15L1556.84 2236.16L1554.83 2207.83L1559.76 2158.34L1628.94 2121.92L1680.36 2155.85Z" fill="#364949"/>
<path d="M1647.05 2841.76L1512.84 2861.81L1433.49 2831.62L1333.1 2861.81H1270.79L1221.8 2875.87V2906.3L1284.37 2943.18H1353.34L1405.65 2971.3L1485.81 2963L1518.97 2921.51H1549.59L1615.36 2950.55L1675.01 2924.05V2906.07L1647.05 2841.76Z" fill="#222B2B"/>
<path d="M1647.05 2810.41L1568.76 2803.27L1512.84 2830.47L1433.49 2800.27L1333.1 2830.47H1270.79L1221.8 2874.95L1284.37 2911.83H1353.34L1402.44 2938.57L1484.21 2929.35L1518.97 2890.17H1549.59L1615.36 2919.21L1675.01 2892.7L1647.05 2810.41Z" fill="#374242"/>
<path d="M1639.76 2791.85L1532.14 2808.02L1468.51 2783.67L1388.01 2808.02H1338.04L1298.76 2819.35V2843.88L1348.93 2873.61H1404.24L1463.39 2850.01L1537.05 2856.15H1561.61L1614.35 2879.56L1662.18 2858.19V2843.7L1639.76 2791.85Z" fill="#222B2B"/>
<path d="M1639.76 2766.88L1576.98 2761.17L1532.14 2782.89L1468.51 2758.78L1388.01 2782.89H1338.04L1298.76 2818.41L1348.93 2847.86H1404.24L1463.39 2824.48L1537.05 2830.56H1561.61L1614.35 2853.74L1662.18 2832.58L1639.76 2766.88Z" fill="#374242"/>
<path d="M1763.75 2719.93L1656.13 2736.1L1592.5 2711.76L1512 2736.1H1462.04L1422.75 2747.44V2771.97L1472.93 2801.7H1528.23L1595.37 2825.62L1661.04 2784.23H1685.6L1738.34 2807.64L1786.17 2786.27V2771.78L1763.75 2719.93Z" fill="#222B2B"/>
<path d="M1763.75 2694.96L1700.97 2689.25L1656.13 2710.97L1592.5 2686.86L1512 2710.97H1462.04L1422.75 2746.49L1472.93 2775.94H1528.23L1592.5 2796.58L1661.04 2758.64H1685.6L1738.34 2781.83L1786.17 2760.66L1763.75 2694.96Z" fill="#374242"/>
<path d="M-47.8685 3117.44L86.3375 3137.49L165.69 3107.3L266.078 3137.49H328.388L377.384 3151.55V3181.98L314.807 3218.86H245.84L193.534 3246.98L113.366 3238.68L80.213 3197.19H49.5906L-16.181 3226.23L-75.8281 3199.73V3181.75L-47.8685 3117.44Z" fill="#222B2B"/>
<path d="M-47.8685 3086.09L30.4183 3078.95L86.3375 3106.15L165.69 3075.95L266.078 3106.15H328.388L377.384 3150.63L314.807 3187.51H245.84L196.74 3214.25L114.97 3205.03L80.213 3165.85H49.5906L-16.181 3194.89L-75.8281 3168.38L-47.8685 3086.09Z" fill="#374242"/>
<path d="M-40.5874 3067.53L67.0306 3083.7L130.662 3059.35L211.162 3083.7H261.127L300.417 3095.03V3119.56L250.238 3149.3H194.934L135.787 3125.7L62.1195 3131.83H37.5638L-15.1776 3155.24L-63.0078 3133.87V3119.38L-40.5874 3067.53Z" fill="#222B2B"/>
<path d="M-40.5874 3042.56L22.1898 3036.85L67.0307 3058.57L130.662 3034.46L211.162 3058.57H261.127L300.417 3094.09L250.238 3123.54H194.934L135.787 3100.16L62.1195 3106.24H37.5638L-15.1776 3129.43L-63.0078 3108.26L-40.5874 3042.56Z" fill="#374242"/>
<path d="M-164.58 2995.61L-56.9615 3011.78L6.66977 2987.44L87.1698 3011.78H137.135L176.424 3023.12V3047.65L126.245 3077.38H70.9417L3.79782 3101.3L-61.8727 3059.91H-86.4284L-139.17 3083.33L-187 3061.95V3047.46L-164.58 2995.61Z" fill="#222B2B"/>
<path d="M-164.58 2970.64L-101.802 2964.93L-56.9615 2986.65L6.66977 2962.54L87.1698 2986.65H137.135L176.424 3022.17L126.245 3051.62H70.9417L6.66977 3072.26L-61.8727 3034.32H-86.4284L-139.17 3057.51L-187 3036.34L-164.58 2970.64Z" fill="#374242"/>
<path d="M-0.664062 562.123H1130.95L1607.08 923.368L1620.72 994.554L1435.09 957.325L1323.39 900.867L1215.37 948.324L1130.95 909.868L1050.19 777.725L919.622 762.588L759.686 688.129L613.384 723.313L528.959 631.263L157.174 664.81L35.5181 723.313L-0.664062 688.129V562.123Z" fill="#232A2A"/>
<path d="M-0.664062 535.12H1130.95L1607.08 896.365L1620.72 967.551L1435.09 930.322L1323.39 873.864L1215.37 921.321L1130.95 882.865L1050.19 750.722L919.622 735.585L759.686 661.126L613.384 696.31L528.959 604.26L157.174 637.807L35.5181 696.31L-0.664062 661.126V535.12Z" fill="#343F3F"/>
<path d="M-1.04688 496.042H1083.46L1552.84 930.2L1374.93 892.822L1267.89 836.139L1164.37 883.786L1083.46 845.176L1006.06 712.505L880.928 697.307L727.65 622.552L587.439 657.876L506.528 565.458L150.221 599.139L33.6291 657.876L-1.04688 622.552V496.042Z" fill="#7D9090"/>
<path d="M565.672 440.206L685.231 469.662L763.888 445.115L848.313 460.253L917.007 489.709H1095.82L1079.04 579.713L1151.4 621.442L1268.34 708.992L1433.52 722.902L1585.07 755.222V901.684L1495.4 822.316L1337.56 788.36L1327.6 764.222V788.36H1160.32L1104.21 754.404L1092.67 671.354L1022.41 647.216L955.811 579.713H838.35L746.059 527.347L638.037 533.483L530.539 516.71V488.89L541.551 460.253L565.672 440.206Z" fill="#47524E"/>
<path d="M603.428 420.161L685.231 441.025L763.888 416.479L848.313 431.616L917.007 461.072L1058.06 471.299L1154.03 510.165L1181.82 578.896L1238.98 598.942L1266.77 644.353L1312.39 667.673L1358.01 652.536L1467.6 667.673L1546.26 720.039L1585.07 733.54V862.41L1503.26 801.043L1329.17 765.86H1170.81L1117.84 710.22L1094.25 644.353L1052.3 636.58L1043.91 620.625L955.811 551.076L852.508 546.985L746.059 498.71L636.988 504.437L530.539 488.073L550.465 427.115L603.428 420.161Z" fill="#7C978D"/>
<path d="M-0.664062 441.843L40.2375 453.707L104.736 474.572L167.662 453.707L218.002 441.843L249.465 431.615L257.855 464.753L311.866 468.435L328.122 490.936L331.792 515.483L364.828 514.665L363.255 528.575L304 537.575L249.465 528.575L204.893 524.483L167.662 537.575L137.772 515.483H60.6883L35.5181 537.575L-0.664062 531.847V441.843Z" fill="#38433F"/>
<path d="M-0.664062 426.298L40.2375 438.162L104.736 459.027L167.662 438.162L218.002 426.298L249.465 416.07L257.855 449.208L311.866 452.89L328.122 475.391L331.792 499.938L364.828 499.12L363.255 513.03L365.353 514.666L304 522.03L249.465 513.03L204.893 508.939L167.662 522.03L137.772 499.938H60.6883L35.5181 522.03L-0.664062 516.303V426.298Z" fill="#60716B"/>
<path d="M294.042 475.391L311.871 452.89L328.651 475.391L331.797 499.937L364.833 499.119L363.784 508.529L345.956 504.438L302.432 515.484L255.238 499.937L235.836 477.845L294.042 475.391Z" fill="#364131"/>
<path d="M25.9534 568.545L44.3502 561.052L27.489 552.062L8.4223 549.475L12.4552 533.892L-0.654236 531.847L5.52934 542.532L-5.0446 562.77L5.02539 585.937L21.4502 596.157L25.9534 568.545Z" fill="#50594B"/>
<path d="M387.782 547.168L406.178 539.675L389.317 530.685L370.25 528.098L383.722 514.885L363.271 513.03L364.845 514.666L363.271 528.576L356.784 541.393L366.854 564.56L383.278 574.78L387.782 547.168Z" fill="#50594B"/>
<path d="M612.792 467.682L599.366 491.973L578.554 471.625L570.847 447.7L541.549 454.117L544.171 444.861L555.998 444.861L596.988 428.975L646.586 438.978L669.915 458.622L612.792 467.682Z" fill="#364131"/>
<path d="M1203.73 842.428L1190.36 866.741L1223.61 864.529L1251.17 852.436L1254.7 866.741L1266.24 861.593L1264.02 858.891L1250.61 824.752L1207.18 803.547L1172.86 803.849L1203.73 842.428Z" fill="#50594B"/>
<path d="M1468.43 853.397L1478.04 828.026L1501.82 846.285L1513.14 869.318L1539.45 861.182L1550.46 871L1528.32 870.75L1490.06 890.35L1439.29 885.051L1413.11 867.726L1468.43 853.397Z" fill="#50594B"/>
<path d="M955.812 551.074L1154.03 510.572L1185.94 580.939L1122.04 591.167L1060.16 580.939L1019.26 602.622L955.812 551.074Z" fill="#596F67"/>
<path d="M1152.97 647.218L1199.11 649.263L1225.86 633.717L1238.97 598.942L1266.76 644.354L1229.53 652.945L1204.88 670.128H1164.5L1117.84 708.993L1105.25 675.446L1126.23 667.264L1152.97 647.218Z" fill="#5D7069"/>
<path d="M848.324 431.616L919.116 461.071L875.591 468.844L848.324 487.663L852.52 546.984L746.075 498.301L812.141 445.934L848.324 431.616Z" fill="#647971"/>
<path d="M253.68 83.0519L272.033 78.1426L274.655 87.9612L264.692 91.2341L253.68 83.0519Z" fill="#497A76"/>
<path d="M272.031 78.142L282.519 74.8691L279.897 86.3243L274.653 87.9607L272.031 78.142Z" fill="#75A4A2"/>
<path d="M385.989 316.054L365.709 332.006L349.827 285.177L349.739 284.918L349.53 284.725L328.847 265.619L328.798 245.838L328.798 245.768L328.787 245.698L326.648 231.665L326.636 231.588L326.612 231.512L323.524 221.867L326.576 210.161L326.626 209.967L326.589 209.764L325.525 203.985L325.46 203.63L325.174 203.377L320.972 199.657L320.857 199.556L320.721 199.488L315.469 196.854L313.95 186.673L311.933 172.277L327.144 170.056L336.736 183.914L339.61 188.422L336.656 195.82L336.626 195.896L336.61 195.977L335.57 201.339L335.524 201.58L335.607 201.824L337.721 208.017L337.815 208.294L338.047 208.493L348.839 217.788L352.457 229.874L352.461 229.889L352.466 229.903L356.166 241.05L356.234 241.256L356.382 241.424L370.335 257.254L371.439 284.548L371.447 284.742L371.532 284.926L385.989 316.054Z" fill="#396D6F" stroke="#396260" stroke-width="2"/>
<path d="M299.593 174.829L316.378 172.389L326.481 187.18L329.674 192.25L326.589 200.235L325.58 205.703L327.733 212.031L338.841 221.774L342.626 234.427L346.396 245.817L360.71 262.313L361.994 290.534L376.966 323.036L355.055 340.61L338.368 291.254L317.2 271.353L317.03 250.718L314.805 236.389L311.571 226.265L314.621 214.069L313.522 208.168L309.294 204.357L303.492 201.379L301.826 190.422L299.593 174.829Z" fill="#326A67"/>
<path d="M377.774 322.442L357.465 338.287L341.708 291.891L341.609 291.6L341.362 291.396L322.843 276.145L320.783 252.846L320.78 252.816L320.776 252.787L318.673 238.877L318.661 238.799L318.637 238.723L315.576 229.171L318.654 217.564L318.729 217.28L318.619 216.989L314.428 205.943L314.281 205.558L313.903 205.355L306.043 201.139L305.049 191.065L304.071 180.035L319.326 177.803L328.877 191.525L331.728 195.972L328.772 202.89L328.66 203.152L328.724 203.443L331.346 215.307L331.412 215.606L331.64 215.834L340.877 225.045L344.474 237.061L344.513 237.191L344.586 237.31L350.879 247.537L350.893 247.561L350.909 247.584L362.274 264.108L363.311 291.232L363.319 291.428L363.405 291.613L377.774 322.442Z" fill="#86B3B5" stroke="#9BCDCB" stroke-width="2"/>
<path d="M311.542 144.419L336.885 136.646L352.799 129.691L356.924 127.645L359.871 125.6L362.229 123.145L363.997 120.691L365.176 117.827L365.765 116.19L366.354 113.736L366.944 111.281L367.533 108.417V106.781V105.144L366.944 98.1895L375.785 108.008L379.321 113.327L381.089 119.054V126.009L379.91 132.964L376.374 138.282L371.659 142.373L309.773 171.829L311.542 144.419Z" fill="#3C6162"/>
<path d="M286.315 149.651L259.367 152.711L241.128 152.832L236.245 152.653L232.385 152.017L228.778 150.798L225.681 149.352L222.837 147.321L221.285 146.129L219.212 144.225L217.139 142.322L214.807 140.064L213.766 138.643L212.725 137.222L208.814 130.955L207.382 142.902L207.694 148.889L209.8 154.546L214.223 160.585L219.669 166.167L226.121 169.416L232.817 171.144L305.28 172.766L286.315 149.651Z" fill="#3C6162"/>
<path d="M374.213 143.604L320.851 172.152L322.283 147.191L344.197 139.637L344.256 139.617L344.312 139.589L358.471 132.634L358.494 132.623L358.516 132.61L362.187 130.565L362.255 130.527L362.315 130.479L364.937 128.434L365.017 128.372L365.082 128.295L367.18 125.84L367.225 125.788L367.262 125.73L368.835 123.276L368.894 123.183L368.932 123.08L369.981 120.216L369.988 120.197L369.994 120.177L370.518 118.541L370.534 118.494L370.544 118.445L371.068 115.99L371.593 113.535L371.596 113.521L371.598 113.507L372.123 110.643L372.139 110.554V110.463V108.826V107.19V107.084L372.117 106.981L371.593 104.526L371.582 104.478L371.567 104.43L371.542 104.353L377.68 110.665L380.698 115.766L382.2 121.235V127.98L381.191 134.668L378.212 139.705L374.213 143.604Z" fill="#B7D6D6" stroke="#84BCB9" stroke-width="2"/>
<path d="M234.681 174.69L298.487 175.965L280.511 155.627L256.86 158.555L256.786 158.564L256.711 158.565L239.981 158.715L239.951 158.715L239.92 158.714L235.414 158.549L235.326 158.546L235.237 158.531L231.612 157.922L231.503 157.904L231.398 157.869L227.929 156.694L227.861 156.671L227.796 156.642L224.768 155.245L224.669 155.2L224.582 155.14L221.709 153.178L221.693 153.167L221.678 153.156L220.099 152.003L220.062 151.976L220.028 151.946L217.88 150.106L215.733 148.266L215.723 148.258L215.713 148.249L213.281 146.065L213.221 146.011L213.171 145.95L212.033 144.576L210.895 143.201L210.813 143.102L210.762 142.991L209.661 140.57L209.641 140.525L209.626 140.479L208.879 138.146L208.709 139.634L208.709 148.279L209.733 153.906L212.296 159.181L217.017 164.883L222.556 170.114L228.605 173.106L234.681 174.69Z" fill="#B7D6D6" stroke="#84BCB9" stroke-width="2"/>
<path d="M340.202 157.102L319.469 165.177L316.034 154.138L333.8 149.606L339.678 147.693L342.824 146.466L344.922 145.238L347.544 143.602L348.592 142.784L351.935 139.61L352.263 141.965L352.263 144.011L351.739 146.056L350.69 148.102L349.117 150.557L347.544 152.602L340.202 157.102Z" fill="#304746"/>
<path d="M269.054 171.622L295.554 169.85L291.042 159.023L270.05 162.572L262.808 163.395L258.785 163.662L255.809 163.491L252.015 163.192L250.38 162.933L244.761 161.625L246.128 163.766L247.6 165.507L249.594 167.03L252.112 168.334L255.448 169.767L258.49 170.852L269.054 171.622Z" fill="#304746"/>
<path d="M326.163 157.749L328.545 156.068L325.488 155.299L326.163 157.749Z" fill="#84BCB9"/>
<path d="M326.168 157.744L328.554 156.067L329.223 158.518L326.168 157.744Z" fill="#84BCB9"/>
<path d="M327.865 153.617L328.534 156.068L330.92 154.39L327.865 153.617Z" fill="#84BCB9"/>
<path d="M329.24 158.512L328.551 156.065L331.612 156.822L329.24 158.512Z" fill="#84BCB9"/>
<path d="M331.594 156.833L328.537 156.064L330.919 154.383L331.594 156.833Z" fill="#84BCB9"/>
<path d="M325.492 155.309L328.553 156.067L327.864 153.62L325.492 155.309Z" fill="#84BCB9"/>
<path d="M326.942 157.278L328.572 156.128L326.48 155.602L326.942 157.278Z" fill="#A8D6D7"/>
<path d="M326.931 157.274L328.563 156.126L329.021 157.803L326.931 157.274Z" fill="#A8D6D7"/>
<path d="M328.12 154.451L328.578 156.128L330.21 154.98L328.12 154.451Z" fill="#A8D6D7"/>
<path d="M329.033 157.803L328.561 156.129L330.656 156.647L329.033 157.803Z" fill="#A8D6D7"/>
<path d="M330.669 156.655L328.577 156.129L330.207 154.979L330.669 156.655Z" fill="#A8D6D7"/>
<path d="M326.491 155.61L328.586 156.129L328.114 154.454L326.491 155.61Z" fill="#A8D6D7"/>
<path d="M335.304 154.339L336.938 153.186L334.841 152.658L335.304 154.339Z" fill="#84BCB9"/>
<path d="M335.274 154.336L336.911 153.186L337.369 154.867L335.274 154.336Z" fill="#84BCB9"/>
<path d="M336.469 151.506L336.928 153.187L338.565 152.036L336.469 151.506Z" fill="#84BCB9"/>
<path d="M337.397 154.863L336.924 153.184L339.024 153.704L337.397 154.863Z" fill="#84BCB9"/>
<path d="M339.026 153.712L336.929 153.184L338.563 152.031L339.026 153.712Z" fill="#84BCB9"/>
<path d="M334.843 152.665L336.943 153.185L336.47 151.507L334.843 152.665Z" fill="#84BCB9"/>
<path d="M335.813 154.017L336.93 153.228L335.496 152.867L335.813 154.017Z" fill="#A8D6D7"/>
<path d="M335.827 154.018L336.946 153.23L337.26 154.381L335.827 154.018Z" fill="#A8D6D7"/>
<path d="M336.627 152.077L336.941 153.227L338.061 152.439L336.627 152.077Z" fill="#A8D6D7"/>
<path d="M337.272 154.377L336.948 153.228L338.385 153.584L337.272 154.377Z" fill="#A8D6D7"/>
<path d="M338.386 153.589L336.951 153.228L338.069 152.44L338.386 153.589Z" fill="#A8D6D7"/>
<path d="M335.499 152.871L336.936 153.227L336.612 152.078L335.499 152.871Z" fill="#A8D6D7"/>
<path d="M341.918 151.48L343.126 150.627L341.576 150.238L341.918 151.48Z" fill="#84BCB9"/>
<path d="M341.898 151.479L343.108 150.628L343.447 151.871L341.898 151.479Z" fill="#84BCB9"/>
<path d="M342.778 149.385L343.117 150.628L344.327 149.777L342.778 149.385Z" fill="#84BCB9"/>
<path d="M343.471 151.866L343.121 150.625L344.674 151.009L343.471 151.866Z" fill="#84BCB9"/>
<path d="M344.693 151.019L343.143 150.629L344.351 149.776L344.693 151.019Z" fill="#84BCB9"/>
<path d="M341.577 150.244L343.129 150.628L342.78 149.387L341.577 150.244Z" fill="#84BCB9"/>
<path d="M342.277 151.246L343.103 150.662L342.042 150.395L342.277 151.246Z" fill="#A8D6D7"/>
<path d="M342.28 151.242L343.108 150.66L343.34 151.511L342.28 151.242Z" fill="#A8D6D7"/>
<path d="M342.881 149.811L343.114 150.662L343.942 150.079L342.881 149.811Z" fill="#A8D6D7"/>
<path d="M343.34 151.509L343.101 150.66L344.163 150.923L343.34 151.509Z" fill="#A8D6D7"/>
<path d="M344.163 150.93L343.102 150.663L343.929 150.079L344.163 150.93Z" fill="#A8D6D7"/>
<path d="M342.044 150.398L343.107 150.661L342.867 149.812L342.044 150.398Z" fill="#A8D6D7"/>
<path d="M284.524 166.657L281.399 166.078L283.604 164.257L284.524 166.657Z" fill="#84BCB9"/>
<path d="M284.536 166.652L281.41 166.078L282.335 168.477L284.536 166.652Z" fill="#84BCB9"/>
<path d="M280.461 163.682L281.387 166.082L278.261 165.507L280.461 163.682Z" fill="#84BCB9"/>
<path d="M282.295 168.481L281.389 166.077L279.174 167.891L282.295 168.481Z" fill="#84BCB9"/>
<path d="M279.203 167.902L281.408 166.08L278.283 165.501L279.203 167.902Z" fill="#84BCB9"/>
<path d="M283.601 164.267L281.385 166.081L280.48 163.677L283.601 164.267Z" fill="#84BCB9"/>
<path d="M283.551 166.536L281.413 166.14L282.921 164.893L283.551 166.536Z" fill="#A8D6D7"/>
<path d="M283.564 166.532L281.425 166.139L282.058 167.78L283.564 166.532Z" fill="#A8D6D7"/>
<path d="M280.797 164.5L281.431 166.142L279.292 165.749L280.797 164.5Z" fill="#A8D6D7"/>
<path d="M282.039 167.784L281.42 166.14L279.904 167.381L282.039 167.784Z" fill="#A8D6D7"/>
<path d="M279.914 167.389L281.423 166.142L279.285 165.746L279.914 167.389Z" fill="#A8D6D7"/>
<path d="M282.928 164.9L281.412 166.141L280.792 164.496L282.928 164.9Z" fill="#A8D6D7"/>
<path d="M274.416 167.097L272.273 166.7L273.785 165.451L274.416 167.097Z" fill="#84BCB9"/>
<path d="M274.422 167.091L272.278 166.697L272.913 168.343L274.422 167.091Z" fill="#84BCB9"/>
<path d="M271.644 165.055L272.279 166.7L270.135 166.306L271.644 165.055Z" fill="#84BCB9"/>
<path d="M272.917 168.344L272.295 166.695L270.776 167.939L272.917 168.344Z" fill="#84BCB9"/>
<path d="M270.777 167.947L272.289 166.697L270.146 166.3L270.777 167.947Z" fill="#84BCB9"/>
<path d="M273.827 165.453L272.308 166.697L271.686 165.048L273.827 165.453Z" fill="#84BCB9"/>
<path d="M273.785 167.008L272.319 166.737L273.354 165.882L273.785 167.008Z" fill="#A8D6D7"/>
<path d="M273.773 167.007L272.305 166.738L272.74 167.864L273.773 167.007Z" fill="#A8D6D7"/>
<path d="M271.894 165.612L272.328 166.738L270.861 166.468L271.894 165.612Z" fill="#A8D6D7"/>
<path d="M272.725 167.862L272.3 166.734L271.261 167.585L272.725 167.862Z" fill="#A8D6D7"/>
<path d="M271.269 167.592L272.303 166.737L270.837 166.466L271.269 167.592Z" fill="#A8D6D7"/>
<path d="M273.339 165.886L272.299 166.737L271.874 165.609L273.339 165.886Z" fill="#A8D6D7"/>
<path d="M262.902 93.7612C262.431 92.8053 262.858 91.7825 263.871 91.4413L283.341 84.8819C284.347 84.5431 285.577 84.9958 286.14 85.9122L290.618 93.1946C291.095 93.9694 290.961 94.8677 290.291 95.39L287.48 97.5835C287.314 97.7128 287.121 97.814 286.91 97.8828L280.937 99.8244L273.307 102.205C273.15 102.254 272.985 102.285 272.815 102.297L268.953 102.571C267.985 102.64 267.007 102.099 266.598 101.267L262.902 93.7612Z" fill="#555555"/>
<path d="M266.917 167.071L265.332 166.777L266.45 165.853L266.917 167.071Z" fill="#84BCB9"/>
<path d="M266.909 167.069L265.323 166.778L265.793 167.995L266.909 167.069Z" fill="#84BCB9"/>
<path d="M264.861 165.562L265.33 166.779L263.745 166.487L264.861 165.562Z" fill="#84BCB9"/>
<path d="M265.782 167.994L265.322 166.775L264.199 167.695L265.782 167.994Z" fill="#84BCB9"/>
<path d="M264.204 167.703L265.322 166.779L263.738 166.485L264.204 167.703Z" fill="#84BCB9"/>
<path d="M266.453 165.859L265.329 166.779L264.87 165.56L266.453 165.859Z" fill="#84BCB9"/>
<path d="M266.425 167.01L265.341 166.808L266.106 166.176L266.425 167.01Z" fill="#A8D6D7"/>
<path d="M266.432 167.008L265.347 166.808L265.668 167.641L266.432 167.008Z" fill="#A8D6D7"/>
<path d="M265.033 165.979L265.354 166.812L264.269 166.613L265.033 165.979Z" fill="#A8D6D7"/>
<path d="M265.655 167.64L265.34 166.806L264.571 167.435L265.655 167.64Z" fill="#A8D6D7"/>
<path d="M264.564 167.444L265.329 166.811L264.245 166.611L264.564 167.444Z" fill="#A8D6D7"/>
<path d="M266.127 166.18L265.358 166.809L265.044 165.975L266.127 166.18Z" fill="#A8D6D7"/>
<path d="M273.077 102.279L287.239 97.779L295.098 108.825L301.915 119.871L307.684 130.917L312.927 144.008L290.379 150.145L282.517 137.054L278.842 126.418L275.172 114.143L273.077 102.279Z" fill="#253333"/>
<path d="M275.554 101.599L285.15 98.597L291.757 109.649L297.932 120.861L303.375 131.991L308.714 145.058L293.772 149.228L286.606 135.958L282.677 125.387L278.54 113.233L275.554 101.599Z" fill="#303F3F"/>
<path d="M280.951 154.645L295.634 135.008L321.325 146.463L319.234 198.42L280.951 154.645Z" fill="#4B7270"/>
<path d="M286.061 157.251L297.942 141.362L318.731 150.63L317.038 192.672L286.061 157.251Z" fill="#304746"/>
<path d="M302.174 162.298L303.431 156.693L296.581 158.646L302.174 162.298Z" fill="#84BCB9"/>
<path d="M302.174 162.3L303.445 156.696L309.03 160.357L302.174 162.3Z" fill="#84BCB9"/>
<path d="M297.837 153.035L303.421 156.695L304.692 151.092L297.837 153.035Z" fill="#84BCB9"/>
<path d="M309.052 160.324L303.437 156.692L310.275 154.714L309.052 160.324Z" fill="#84BCB9"/>
<path d="M310.282 154.742L303.431 156.695L304.689 151.09L310.282 154.742Z" fill="#84BCB9"/>
<path d="M296.586 158.671L303.424 156.693L297.81 153.061L296.586 158.671Z" fill="#84BCB9"/>
<path d="M302.73 160.619L303.59 156.784L298.903 158.12L302.73 160.619Z" fill="#A8D6D7"/>
<path d="M302.724 160.619L303.593 156.786L307.414 159.29L302.724 160.619Z" fill="#A8D6D7"/>
<path d="M299.771 154.282L303.592 156.786L304.462 152.952L299.771 154.282Z" fill="#A8D6D7"/>
<path d="M307.431 159.27L303.589 156.785L308.269 155.431L307.431 159.27Z" fill="#A8D6D7"/>
<path d="M308.261 155.449L303.574 156.785L304.434 152.95L308.261 155.449Z" fill="#A8D6D7"/>
<path d="M298.898 158.145L303.577 156.791L299.735 154.306L298.898 158.145Z" fill="#A8D6D7"/>
<path d="M334.063 270.758L343.85 270.423L338.585 263.978L334.063 270.758Z" fill="#68A4A1"/>
<path d="M334.058 270.75L343.845 270.429L339.307 277.203L334.058 270.75Z" fill="#68A4A1"/>
<path d="M348.396 263.659L343.858 270.432L353.645 270.112L348.396 263.659Z" fill="#68A4A1"/>
<path d="M339.368 277.225L343.849 270.429L349.153 276.855L339.368 277.225Z" fill="#68A4A1"/>
<path d="M349.099 276.871L343.834 270.426L353.621 270.091L349.099 276.871Z" fill="#68A4A1"/>
<path d="M338.545 263.999L343.849 270.425L348.33 263.629L338.545 263.999Z" fill="#68A4A1"/>
<path d="M336.976 270.776L343.676 270.612L340.144 266.168L336.976 270.776Z" fill="#8BCACC"/>
<path d="M336.976 270.772L343.676 270.618L340.497 275.222L336.976 270.772Z" fill="#8BCACC"/>
<path d="M346.843 266.009L343.664 270.613L350.364 270.459L346.843 266.009Z" fill="#8BCACC"/>
<path d="M340.532 275.232L343.672 270.612L347.23 275.044L340.532 275.232Z" fill="#8BCACC"/>
<path d="M347.195 275.058L343.663 270.614L350.362 270.45L347.195 275.058Z" fill="#8BCACC"/>
<path d="M340.101 266.187L343.659 270.619L346.799 265.999L340.101 266.187Z" fill="#8BCACC"/>
<path d="M332.242 256.501L336.982 256.089L334.155 253.092L332.242 256.501Z" fill="#68A4A1"/>
<path d="M332.242 256.497L336.983 256.092L335.062 259.498L332.242 256.497Z" fill="#68A4A1"/>
<path d="M338.895 252.689L336.974 256.095L341.715 255.69L338.895 252.689Z" fill="#68A4A1"/>
<path d="M335.076 259.503L336.969 256.088L339.814 259.074L335.076 259.503Z" fill="#68A4A1"/>
<path d="M339.794 259.085L336.967 256.088L341.708 255.677L339.794 259.085Z" fill="#68A4A1"/>
<path d="M334.126 253.102L336.971 256.088L338.864 252.673L334.126 253.102Z" fill="#68A4A1"/>
<path d="M333.664 256.465L336.907 256.183L334.973 254.133L333.664 256.465Z" fill="#8BCACC"/>
<path d="M333.657 256.464L336.901 256.187L335.587 258.518L333.657 256.464Z" fill="#8BCACC"/>
<path d="M338.221 253.852L336.906 256.183L340.15 255.906L338.221 253.852Z" fill="#8BCACC"/>
<path d="M335.634 258.522L336.929 256.185L338.876 258.229L335.634 258.522Z" fill="#8BCACC"/>
<path d="M338.854 258.234L336.92 256.183L340.163 255.902L338.854 258.234Z" fill="#8BCACC"/>
<path d="M334.948 254.145L336.894 256.189L338.189 253.852L334.948 254.145Z" fill="#8BCACC"/>
<path d="M329.733 245.091L332.793 244.825L330.968 242.89L329.733 245.091Z" fill="#68A4A1"/>
<path d="M329.716 245.089L332.777 244.828L331.536 247.026L329.716 245.089Z" fill="#68A4A1"/>
<path d="M334.022 242.629L332.782 244.828L335.842 244.567L334.022 242.629Z" fill="#68A4A1"/>
<path d="M331.565 247.032L332.787 244.828L334.623 246.756L331.565 247.032Z" fill="#68A4A1"/>
<path d="M334.616 246.763L332.791 244.828L335.851 244.562L334.616 246.763Z" fill="#68A4A1"/>
<path d="M330.943 242.899L332.779 244.827L334.001 242.622L330.943 242.899Z" fill="#68A4A1"/>
<path d="M330.651 245.07L332.744 244.888L331.496 243.564L330.651 245.07Z" fill="#8BCACC"/>
<path d="M330.654 245.068L332.748 244.889L331.899 246.394L330.654 245.068Z" fill="#8BCACC"/>
<path d="M333.58 243.383L332.731 244.888L334.826 244.709L333.58 243.383Z" fill="#8BCACC"/>
<path d="M331.915 246.4L332.751 244.891L334.008 246.21L331.915 246.4Z" fill="#8BCACC"/>
<path d="M333.987 246.213L332.738 244.89L334.832 244.708L333.987 246.213Z" fill="#8BCACC"/>
<path d="M331.494 243.57L332.75 244.889L333.586 243.381L331.494 243.57Z" fill="#8BCACC"/>
<path d="M346.077 285.026L349.137 284.76L347.312 282.826L346.077 285.026Z" fill="#68A4A1"/>
<path d="M346.06 285.025L349.12 284.763L347.88 286.962L346.06 285.025Z" fill="#68A4A1"/>
<path d="M350.366 282.565L349.125 284.763L352.186 284.502L350.366 282.565Z" fill="#68A4A1"/>
<path d="M347.908 286.968L349.13 284.763L350.967 286.691L347.908 286.968Z" fill="#68A4A1"/>
<path d="M350.96 286.698L349.135 284.764L352.195 284.498L350.96 286.698Z" fill="#68A4A1"/>
<path d="M347.287 282.834L349.123 284.762L350.345 282.558L347.287 282.834Z" fill="#68A4A1"/>
<path d="M347.026 285.003L349.119 284.821L347.871 283.497L347.026 285.003Z" fill="#8BCACC"/>
<path d="M347.029 285.002L349.123 284.823L348.274 286.327L347.029 285.002Z" fill="#8BCACC"/>
<path d="M349.955 283.317L349.106 284.821L351.201 284.643L349.955 283.317Z" fill="#8BCACC"/>
<path d="M348.282 286.331L349.118 284.823L350.375 286.142L348.282 286.331Z" fill="#8BCACC"/>
<path d="M350.362 286.147L349.113 284.823L351.207 284.641L350.362 286.147Z" fill="#8BCACC"/>
<path d="M347.869 283.504L349.125 284.823L349.961 283.314L347.869 283.504Z" fill="#8BCACC"/>
<path d="M311.752 174.123L309.448 171.011L307.145 174.123L311.752 174.123Z" fill="#84BCB9"/>
<path d="M311.754 174.125L309.459 171.009L314.065 171.016L311.754 174.125Z" fill="#84BCB9"/>
<path d="M304.841 171.005L309.448 171.012L307.152 167.896L304.841 171.005Z" fill="#84BCB9"/>
<path d="M314.04 170.994L309.434 171.011L311.719 167.89L314.04 170.994Z" fill="#84BCB9"/>
<path d="M311.752 167.898L309.448 171.01L307.145 167.898L311.752 167.898Z" fill="#84BCB9"/>
<path d="M307.175 174.13L309.46 171.009L304.853 171.026L307.175 174.13Z" fill="#84BCB9"/>
<path d="M311.144 173.144L309.568 171.014L307.992 173.144L311.144 173.144Z" fill="#A8D6D7"/>
<path d="M311.126 173.146L309.555 171.014L312.707 171.019L311.126 173.146Z" fill="#A8D6D7"/>
<path d="M306.399 171.01L309.551 171.015L307.98 168.883L306.399 171.01Z" fill="#A8D6D7"/>
<path d="M312.683 171.002L309.532 171.014L311.095 168.878L312.683 171.002Z" fill="#A8D6D7"/>
<path d="M311.144 168.884L309.568 171.013L307.992 168.884L311.144 168.884Z" fill="#A8D6D7"/>
<path d="M308.007 173.148L309.57 171.013L306.419 171.024L308.007 173.148Z" fill="#A8D6D7"/>
<path d="M256.826 53.1855L272.033 78.1413L253.68 83.0507L256.826 53.1855Z" fill="#558B87"/>
<path d="M256.836 53.1877L282.531 74.8706L272.043 78.1434L256.836 53.1877Z" fill="#84BCB9"/>
<path d="M195.411 38.5311L201.064 34.7021L207.039 42.0105L200.868 40.2133L195.411 38.5311Z" fill="#B9DCD9"/>
<path d="M201.084 34.7017L204.227 32.3465L205.415 36.7394L207.059 42.0101L201.084 34.7017Z" fill="#CAEDEB"/>
<path d="M191 27.4952L201.07 34.7022L195.418 38.5312L191 27.4952Z" fill="#BDEDE9"/>
<path d="M191.013 27.4979L204.226 32.3497L201.083 34.7049L191.013 27.4979Z" fill="#E2F5F4"/>
<path d="M232.18 6.75186L235.308 5.91504L236.202 9.68072L234.057 8.14656L232.18 6.75186Z" fill="#B9DCD9"/>
<path d="M235.328 5.91432L237.116 5.35645L236.669 7.30902L236.222 9.68001L235.328 5.91432Z" fill="#CAEDEB"/>
<path d="M232.716 1.66016L235.308 5.91398L232.18 6.7508L232.716 1.66016Z" fill="#BDEDE9"/>
<path d="M232.719 1.66006L237.099 5.35601L235.311 5.91389L232.719 1.66006Z" fill="#E2F5F4"/>
<path d="M251.532 29.6067L254.831 29.7944L253.759 33.5318L252.558 31.464L251.532 29.6067Z" fill="#B9DCD9"/>
<path d="M254.837 29.7934L256.762 29.8274L255.369 31.4867L253.765 33.5308L254.837 29.7934Z" fill="#CAEDEB"/>
<path d="M254.587 25.087L254.832 29.7932L251.534 29.6054L254.587 25.087Z" fill="#BDEDE9"/>
<path d="M254.587 25.0881L256.757 29.8283L254.832 29.7943L254.587 25.0881Z" fill="#E2F5F4"/>
<path d="M225.856 33.2472L227.877 31.2044L231.281 33.9631L228.408 33.6046L225.856 33.2472Z" fill="#B9DCD9"/>
<path d="M227.878 31.2068L228.976 29.973L229.982 31.7947L231.283 33.9656L227.878 31.2068Z" fill="#CAEDEB"/>
<path d="M222.721 28.7666L227.888 31.2029L225.868 33.2458L222.721 28.7666Z" fill="#BDEDE9"/>
<path d="M222.716 28.7707L228.981 29.9731L227.883 31.207L222.716 28.7707Z" fill="#E2F5F4"/>
<path d="M278.9 13.1955L287.221 14.4217L283.102 23.6854L280.816 18.1529L278.9 13.1955Z" fill="#B9DCD9"/>
<path d="M287.204 14.4223L292.088 14.9456L287.926 18.8502L283.086 23.6861L287.204 14.4223Z" fill="#CAEDEB"/>
<path d="M288.334 2.39765L287.204 14.4245L278.884 13.1984L288.334 2.39765Z" fill="#BDEDE9"/>
<path d="M288.346 2.39082L292.099 14.941L287.215 14.4177L288.346 2.39082Z" fill="#E2F5F4"/>
<path d="M287.708 48.6266L293.09 49.4197L290.426 55.4116L288.947 51.8331L287.708 48.6266Z" fill="#B9DCD9"/>
<path d="M293.087 49.4213L296.245 49.7598L293.553 52.2853L290.423 55.4132L293.087 49.4213Z" fill="#CAEDEB"/>
<path d="M293.811 41.6433L293.08 49.4225L287.698 48.6294L293.811 41.6433Z" fill="#BDEDE9"/>
<path d="M293.825 41.6393L296.253 49.7569L293.094 49.4185L293.825 41.6393Z" fill="#E2F5F4"/>
<path d="M202.86 87.615L204.218 83.4755L211.712 85.9323L207.041 86.8551L202.86 87.615Z" fill="#B9DCD9"/>
<path d="M204.216 83.4718L204.851 81.034L207.91 83.2912L211.711 85.9286L204.216 83.4718Z" fill="#CAEDEB"/>
<path d="M194.316 82.409L204.219 83.4752L202.861 87.6146L194.316 82.409Z" fill="#BDEDE9"/>
<path d="M194.305 82.4109L204.844 81.0392L204.209 83.477L194.305 82.4109Z" fill="#E2F5F4"/>
<path d="M217.362 63.0556L219.623 60.6152L223.723 63.7358L220.355 63.3996L217.362 63.0556Z" fill="#B9DCD9"/>
<path d="M219.63 60.6148L220.853 59.1444L222.111 61.2404L223.73 63.7354L219.63 60.6148Z" fill="#CAEDEB"/>
<path d="M213.496 57.9225L219.636 60.6167L217.376 63.057L213.496 57.9225Z" fill="#BDEDE9"/>
<path d="M213.48 57.9237L220.843 59.1475L219.62 60.6179L213.48 57.9237Z" fill="#E2F5F4"/>
<path d="M322.1 54.0457L327.128 55.5451L323.212 60.9778L322.582 57.3155L322.1 54.0457Z" fill="#B9DCD9"/>
<path d="M327.122 55.5467L330.101 56.304L326.933 58.3803L323.205 60.9794L327.122 55.5467Z" fill="#CAEDEB"/>
<path d="M329.553 48.1228L327.106 55.5471L322.079 54.0477L329.553 48.1228Z" fill="#BDEDE9"/>
<path d="M329.561 48.117L330.094 56.2985L327.115 55.5413L329.561 48.117Z" fill="#E2F5F4"/>
<path d="M379.014 298.651L414.148 308.879L372.722 361.245L373.771 365.746L360.137 400.111L344.93 405.02L311.894 452.886L257.883 449.204L295.638 427.521L301.931 405.02L353.844 348.563V334.653L379.014 298.651Z" fill="#282F27"/>
<path d="M345.446 301.927L353.836 335.065V348.565L301.922 405.023L295.63 427.524L257.874 449.207L249.484 416.069L267.838 389.886L289.862 361.248L322.897 337.929V322.382L345.446 301.927Z" fill="#15201C"/>
<path d="M419.372 245.467L437.726 253.24L415.177 267.968L394.727 265.922L419.372 245.467Z" fill="#3E5246"/>
<path d="M437.734 253.239L446.648 308.878L445.075 318.697L441.405 326.879L446.648 334.243V344.88L455.563 351.835L388.442 371.063L373.76 366.154L372.711 361.245L414.137 308.878L415.186 267.967L437.734 253.239Z" fill="#545A58"/>
<path d="M445.077 318.696L478.637 371.472L565.684 439.384L541.563 459.431L530.551 515.888L492.795 428.747L459.235 388.245L455.04 351.425L445.077 343.652V333.015L441.406 326.879L445.077 318.696Z" fill="#77867F"/>
<path d="M388.445 370.655L455.566 351.427L459.761 385.383H444.03L396.311 435.704L388.445 434.476V370.655Z" fill="#726F68"/>
<path d="M444.017 384.973H459.748L493.833 428.748L464.468 458.613L391.055 461.886L396.298 435.702L444.017 384.973Z" fill="#3E453D"/>
<path d="M391.058 461.886L464.471 458.613L479.678 522.844L363.266 513.025L391.058 461.886Z" fill="#182018"/>
<path d="M464.484 458.612L493.85 428.747L530.556 515.888L479.691 522.843L464.484 458.612Z" fill="#6B645C"/>
<path d="M373.767 365.746L388.449 370.655V434.477L396.315 435.704L391.071 462.296L363.279 513.026L372.194 405.021L360.133 400.111L373.767 365.746Z" fill="#1E201D"/>
<path d="M355.417 411.975L372.722 405.021L364.856 499.116L331.82 499.934L355.417 411.975Z" fill="#202624"/>
<path d="M344.919 405.021L355.406 411.975L331.809 499.934L328.139 475.388L311.883 452.887L344.919 405.021Z" fill="#1D1F1C"/>
<path d="M344.93 405.02L360.137 400.11L372.722 405.02L355.417 411.975L344.93 405.02Z" fill="#293430"/>
<path d="M394.732 265.922L415.183 267.967L414.134 308.879L379.001 298.651L374.281 288.423L394.732 265.922Z" fill="#1D2120"/>
<path d="M517.49 57.3896L518.095 63.9055L522.857 69.1131L514.974 69.6129L508.618 73.5567L508.069 67.0333L503.297 61.7802L511.19 61.3259L517.49 57.3896Z" fill="#B7D6D6"/>
<path d="M456.908 213.424L463.044 217.545L470.892 218.273L465.906 223.345L464.994 229.87L458.889 225.71L450.995 224.957L456.027 219.911L456.908 213.424Z" fill="#B7D6D6"/>
<path d="M114.441 310.669L115.64 317.128L120.866 322.023L113.05 323.014L107.074 327.344L105.929 320.874L100.691 315.934L108.519 314.987L114.441 310.669Z" fill="#B7D6D6"/>
<path d="M17.121 214.706L24.716 216.523L32.2864 214.662L30.0887 220.94L32.3289 227.242L24.7447 225.38L17.1196 227.232L19.3721 220.963L17.121 214.706Z" fill="#B7D6D6"/>
<path d="M600.82 335.491L586.46 335.816L578.638 345.733L573.856 334.602L560.005 331.514L571.369 324.299L570.638 312.458L582.48 319.149L595.861 314.929L591.757 326.316L600.82 335.491Z" fill="#0A1111"/>
<g filter="url(#filter0_f_4107_77)">
<ellipse cx="511.37" cy="224.871" rx="3.1986" ry="2.51743" fill="white" fill-opacity="0.5"/>
</g>
<g filter="url(#filter1_f_4107_77)">
<ellipse cx="511.56" cy="225.022" rx="1.50522" ry="1.18467" fill="white" fill-opacity="0.6"/>
</g>
<g filter="url(#filter2_f_4107_77)">
<ellipse cx="511.557" cy="225.021" rx="7.52611" ry="5.92336" fill="white" fill-opacity="0.2"/>
</g>
<g filter="url(#filter3_f_4107_77)">
<ellipse cx="511.372" cy="224.872" rx="5.83274" ry="4.59061" fill="white" fill-opacity="0.3"/>
</g>
<g filter="url(#filter4_f_4107_77)">
<ellipse cx="187.138" cy="261.627" rx="4.34096" ry="3.41651" fill="white" fill-opacity="0.5"/>
</g>
<g filter="url(#filter5_f_4107_77)">
<ellipse cx="187.394" cy="261.831" rx="2.0428" ry="1.60777" fill="white" fill-opacity="0.6"/>
</g>
<g filter="url(#filter6_f_4107_77)">
<ellipse cx="187.394" cy="261.829" rx="10.214" ry="8.03885" fill="white" fill-opacity="0.2"/>
</g>
<g filter="url(#filter7_f_4107_77)">
<ellipse cx="187.127" cy="261.629" rx="7.91586" ry="6.23011" fill="white" fill-opacity="0.3"/>
</g>
<g filter="url(#filter8_f_4107_77)">
<ellipse cx="526.039" cy="139.117" rx="3.97638" ry="3.12958" fill="white" fill-opacity="0.5"/>
</g>
<g filter="url(#filter9_f_4107_77)">
<ellipse cx="526.293" cy="139.305" rx="1.87124" ry="1.47274" fill="white" fill-opacity="0.6"/>
</g>
<g filter="url(#filter10_f_4107_77)">
<ellipse cx="526.286" cy="139.302" rx="9.35619" ry="7.36371" fill="white" fill-opacity="0.2"/>
</g>
<g filter="url(#filter11_f_4107_77)">
<ellipse cx="526.048" cy="139.118" rx="7.25105" ry="5.70687" fill="white" fill-opacity="0.3"/>
</g>
<g filter="url(#filter12_f_4107_77)">
<ellipse cx="74.1193" cy="122.75" rx="3.34586" ry="2.63333" fill="white" fill-opacity="0.5"/>
</g>
<g filter="url(#filter13_f_4107_77)">
<ellipse cx="74.3011" cy="122.904" rx="1.57452" ry="1.23921" fill="white" fill-opacity="0.6"/>
</g>
<g filter="url(#filter14_f_4107_77)">
<ellipse cx="74.3101" cy="122.904" rx="7.8726" ry="6.19606" fill="white" fill-opacity="0.2"/>
</g>
<g filter="url(#filter15_f_4107_77)">
<ellipse cx="74.1091" cy="122.752" rx="6.10127" ry="4.80195" fill="white" fill-opacity="0.3"/>
</g>
<g filter="url(#filter16_f_4107_77)">
<ellipse cx="431.072" cy="80.437" rx="3.34586" ry="2.63333" fill="white" fill-opacity="0.5"/>
</g>
<g filter="url(#filter17_f_4107_77)">
<ellipse cx="431.254" cy="80.5918" rx="1.57452" ry="1.23921" fill="white" fill-opacity="0.6"/>
</g>
<g filter="url(#filter18_f_4107_77)">
<ellipse cx="431.263" cy="80.5916" rx="7.8726" ry="6.19606" fill="white" fill-opacity="0.2"/>
</g>
<g filter="url(#filter19_f_4107_77)">
<ellipse cx="431.062" cy="80.4396" rx="6.10127" ry="4.80195" fill="white" fill-opacity="0.3"/>
</g>
<g filter="url(#filter20_f_4107_77)">
<ellipse cx="184.911" cy="174.399" rx="2.89516" ry="2.27861" fill="white" fill-opacity="0.5"/>
</g>
<g filter="url(#filter21_f_4107_77)">
<ellipse cx="185.073" cy="174.534" rx="1.36243" ry="1.07229" fill="white" fill-opacity="0.6"/>
</g>
<g filter="url(#filter22_f_4107_77)">
<ellipse cx="185.07" cy="174.532" rx="6.81214" ry="5.36143" fill="white" fill-opacity="0.2"/>
</g>
<g filter="url(#filter23_f_4107_77)">
<ellipse cx="184.904" cy="174.396" rx="5.27941" ry="4.15511" fill="white" fill-opacity="0.3"/>
</g>
<g filter="url(#filter24_f_4107_77)">
<ellipse cx="91.3795" cy="218.399" rx="2.89516" ry="2.27861" fill="white" fill-opacity="0.5"/>
</g>
<g filter="url(#filter25_f_4107_77)">
<ellipse cx="91.5421" cy="218.534" rx="1.36243" ry="1.07229" fill="white" fill-opacity="0.6"/>
</g>
<g filter="url(#filter26_f_4107_77)">
<ellipse cx="91.5387" cy="218.532" rx="6.81214" ry="5.36143" fill="white" fill-opacity="0.2"/>
</g>
<g filter="url(#filter27_f_4107_77)">
<ellipse cx="91.3732" cy="218.397" rx="5.27941" ry="4.15511" fill="white" fill-opacity="0.3"/>
</g>
<g filter="url(#filter28_f_4107_77)">
<ellipse cx="371.66" cy="137.752" rx="2.28471" ry="1.79816" fill="white" fill-opacity="0.5"/>
</g>
<g filter="url(#filter29_f_4107_77)">
<ellipse cx="371.786" cy="137.859" rx="1.07516" ry="0.846194" fill="white" fill-opacity="0.6"/>
</g>
<g filter="url(#filter30_f_4107_77)">
<ellipse cx="371.798" cy="137.859" rx="5.37579" ry="4.23097" fill="white" fill-opacity="0.2"/>
</g>
<g filter="url(#filter31_f_4107_77)">
<ellipse cx="371.666" cy="137.753" rx="4.16624" ry="3.279" fill="white" fill-opacity="0.3"/>
</g>
<g filter="url(#filter32_f_4107_77)">
<ellipse cx="633.663" cy="86.7357" rx="4.0219" ry="3.1654" fill="white" fill-opacity="0.5"/>
</g>
<g filter="url(#filter33_f_4107_77)">
<ellipse cx="633.908" cy="86.9203" rx="1.89266" ry="1.4896" fill="white" fill-opacity="0.6"/>
</g>
<g filter="url(#filter34_f_4107_77)">
<ellipse cx="633.909" cy="86.9216" rx="9.46329" ry="7.448" fill="white" fill-opacity="0.2"/>
</g>
<g filter="url(#filter35_f_4107_77)">
<ellipse cx="633.678" cy="86.7351" rx="7.33405" ry="5.7722" fill="white" fill-opacity="0.3"/>
</g>
<defs>
<filter id="filter0_f_4107_77" x="504.172" y="218.354" width="14.3984" height="13.0352" filterUnits="userSpaceOnUse" color-interpolation-filters="sRGB">
<feFlood flood-opacity="0" result="BackgroundImageFix"/>
<feBlend mode="normal" in="SourceGraphic" in2="BackgroundImageFix" result="shape"/>
<feGaussianBlur stdDeviation="2" result="effect1_foregroundBlur_4107_77"/>
</filter>
<filter id="filter1_f_4107_77" x="506.055" y="219.837" width="11.0078" height="10.3691" filterUnits="userSpaceOnUse" color-interpolation-filters="sRGB">
<feFlood flood-opacity="0" result="BackgroundImageFix"/>
<feBlend mode="normal" in="SourceGraphic" in2="BackgroundImageFix" result="shape"/>
<feGaussianBlur stdDeviation="2" result="effect1_foregroundBlur_4107_77"/>
</filter>
<filter id="filter2_f_4107_77" x="500.031" y="215.098" width="23.0547" height="19.8467" filterUnits="userSpaceOnUse" color-interpolation-filters="sRGB">
<feFlood flood-opacity="0" result="BackgroundImageFix"/>
<feBlend mode="normal" in="SourceGraphic" in2="BackgroundImageFix" result="shape"/>
<feGaussianBlur stdDeviation="2" result="effect1_foregroundBlur_4107_77"/>
</filter>
<filter id="filter3_f_4107_77" x="501.539" y="216.281" width="19.6641" height="17.1816" filterUnits="userSpaceOnUse" color-interpolation-filters="sRGB">
<feFlood flood-opacity="0" result="BackgroundImageFix"/>
<feBlend mode="normal" in="SourceGraphic" in2="BackgroundImageFix" result="shape"/>
<feGaussianBlur stdDeviation="2" result="effect1_foregroundBlur_4107_77"/>
</filter>
<filter id="filter4_f_4107_77" x="178.797" y="254.211" width="16.6797" height="14.833" filterUnits="userSpaceOnUse" color-interpolation-filters="sRGB">
<feFlood flood-opacity="0" result="BackgroundImageFix"/>
<feBlend mode="normal" in="SourceGraphic" in2="BackgroundImageFix" result="shape"/>
<feGaussianBlur stdDeviation="2" result="effect1_foregroundBlur_4107_77"/>
</filter>
<filter id="filter5_f_4107_77" x="181.352" y="256.224" width="12.0859" height="11.2158" filterUnits="userSpaceOnUse" color-interpolation-filters="sRGB">
<feFlood flood-opacity="0" result="BackgroundImageFix"/>
<feBlend mode="normal" in="SourceGraphic" in2="BackgroundImageFix" result="shape"/>
<feGaussianBlur stdDeviation="2" result="effect1_foregroundBlur_4107_77"/>
</filter>
<filter id="filter6_f_4107_77" x="173.18" y="249.79" width="28.4297" height="24.0781" filterUnits="userSpaceOnUse" color-interpolation-filters="sRGB">
<feFlood flood-opacity="0" result="BackgroundImageFix"/>
<feBlend mode="normal" in="SourceGraphic" in2="BackgroundImageFix" result="shape"/>
<feGaussianBlur stdDeviation="2" result="effect1_foregroundBlur_4107_77"/>
</filter>
<filter id="filter7_f_4107_77" x="175.211" y="251.398" width="23.8281" height="20.46" filterUnits="userSpaceOnUse" color-interpolation-filters="sRGB">
<feFlood flood-opacity="0" result="BackgroundImageFix"/>
<feBlend mode="normal" in="SourceGraphic" in2="BackgroundImageFix" result="shape"/>
<feGaussianBlur stdDeviation="2" result="effect1_foregroundBlur_4107_77"/>
</filter>
<filter id="filter8_f_4107_77" x="518.062" y="131.987" width="15.9531" height="14.2588" filterUnits="userSpaceOnUse" color-interpolation-filters="sRGB">
<feFlood flood-opacity="0" result="BackgroundImageFix"/>
<feBlend mode="normal" in="SourceGraphic" in2="BackgroundImageFix" result="shape"/>
<feGaussianBlur stdDeviation="2" result="effect1_foregroundBlur_4107_77"/>
</filter>
<filter id="filter9_f_4107_77" x="520.422" y="133.832" width="11.7422" height="10.9453" filterUnits="userSpaceOnUse" color-interpolation-filters="sRGB">
<feFlood flood-opacity="0" result="BackgroundImageFix"/>
<feBlend mode="normal" in="SourceGraphic" in2="BackgroundImageFix" result="shape"/>
<feGaussianBlur stdDeviation="2" result="effect1_foregroundBlur_4107_77"/>
</filter>
<filter id="filter10_f_4107_77" x="512.93" y="127.938" width="26.7109" height="22.7275" filterUnits="userSpaceOnUse" color-interpolation-filters="sRGB">
<feFlood flood-opacity="0" result="BackgroundImageFix"/>
<feBlend mode="normal" in="SourceGraphic" in2="BackgroundImageFix" result="shape"/>
<feGaussianBlur stdDeviation="2" result="effect1_foregroundBlur_4107_77"/>
</filter>
<filter id="filter11_f_4107_77" x="514.797" y="129.411" width="22.5" height="19.4141" filterUnits="userSpaceOnUse" color-interpolation-filters="sRGB">
<feFlood flood-opacity="0" result="BackgroundImageFix"/>
<feBlend mode="normal" in="SourceGraphic" in2="BackgroundImageFix" result="shape"/>
<feGaussianBlur stdDeviation="2" result="effect1_foregroundBlur_4107_77"/>
</filter>
<filter id="filter12_f_4107_77" x="66.7734" y="116.116" width="14.6953" height="13.2666" filterUnits="userSpaceOnUse" color-interpolation-filters="sRGB">
<feFlood flood-opacity="0" result="BackgroundImageFix"/>
<feBlend mode="normal" in="SourceGraphic" in2="BackgroundImageFix" result="shape"/>
<feGaussianBlur stdDeviation="2" result="effect1_foregroundBlur_4107_77"/>
</filter>
<filter id="filter13_f_4107_77" x="68.7266" y="117.665" width="11.1484" height="10.4785" filterUnits="userSpaceOnUse" color-interpolation-filters="sRGB">
<feFlood flood-opacity="0" result="BackgroundImageFix"/>
<feBlend mode="normal" in="SourceGraphic" in2="BackgroundImageFix" result="shape"/>
<feGaussianBlur stdDeviation="2" result="effect1_foregroundBlur_4107_77"/>
</filter>
<filter id="filter14_f_4107_77" x="62.4375" y="112.708" width="23.7422" height="20.3926" filterUnits="userSpaceOnUse" color-interpolation-filters="sRGB">
<feFlood flood-opacity="0" result="BackgroundImageFix"/>
<feBlend mode="normal" in="SourceGraphic" in2="BackgroundImageFix" result="shape"/>
<feGaussianBlur stdDeviation="2" result="effect1_foregroundBlur_4107_77"/>
</filter>
<filter id="filter15_f_4107_77" x="64.0078" y="113.95" width="20.2031" height="17.6035" filterUnits="userSpaceOnUse" color-interpolation-filters="sRGB">
<feFlood flood-opacity="0" result="BackgroundImageFix"/>
<feBlend mode="normal" in="SourceGraphic" in2="BackgroundImageFix" result="shape"/>
<feGaussianBlur stdDeviation="2" result="effect1_foregroundBlur_4107_77"/>
</filter>
<filter id="filter16_f_4107_77" x="423.727" y="73.8037" width="14.6953" height="13.2666" filterUnits="userSpaceOnUse" color-interpolation-filters="sRGB">
<feFlood flood-opacity="0" result="BackgroundImageFix"/>
<feBlend mode="normal" in="SourceGraphic" in2="BackgroundImageFix" result="shape"/>
<feGaussianBlur stdDeviation="2" result="effect1_foregroundBlur_4107_77"/>
</filter>
<filter id="filter17_f_4107_77" x="425.68" y="75.3525" width="11.1484" height="10.4785" filterUnits="userSpaceOnUse" color-interpolation-filters="sRGB">
<feFlood flood-opacity="0" result="BackgroundImageFix"/>
<feBlend mode="normal" in="SourceGraphic" in2="BackgroundImageFix" result="shape"/>
<feGaussianBlur stdDeviation="2" result="effect1_foregroundBlur_4107_77"/>
</filter>
<filter id="filter18_f_4107_77" x="419.391" y="70.3955" width="23.7422" height="20.3926" filterUnits="userSpaceOnUse" color-interpolation-filters="sRGB">
<feFlood flood-opacity="0" result="BackgroundImageFix"/>
<feBlend mode="normal" in="SourceGraphic" in2="BackgroundImageFix" result="shape"/>
<feGaussianBlur stdDeviation="2" result="effect1_foregroundBlur_4107_77"/>
</filter>
<filter id="filter19_f_4107_77" x="420.961" y="71.6377" width="20.2031" height="17.6035" filterUnits="userSpaceOnUse" color-interpolation-filters="sRGB">
<feFlood flood-opacity="0" result="BackgroundImageFix"/>
<feBlend mode="normal" in="SourceGraphic" in2="BackgroundImageFix" result="shape"/>
<feGaussianBlur stdDeviation="2" result="effect1_foregroundBlur_4107_77"/>
</filter>
<filter id="filter20_f_4107_77" x="178.016" y="168.12" width="13.7891" height="12.5576" filterUnits="userSpaceOnUse" color-interpolation-filters="sRGB">
<feFlood flood-opacity="0" result="BackgroundImageFix"/>
<feBlend mode="normal" in="SourceGraphic" in2="BackgroundImageFix" result="shape"/>
<feGaussianBlur stdDeviation="2" result="effect1_foregroundBlur_4107_77"/>
</filter>
<filter id="filter21_f_4107_77" x="179.711" y="169.462" width="10.7266" height="10.1445" filterUnits="userSpaceOnUse" color-interpolation-filters="sRGB">
<feFlood flood-opacity="0" result="BackgroundImageFix"/>
<feBlend mode="normal" in="SourceGraphic" in2="BackgroundImageFix" result="shape"/>
<feGaussianBlur stdDeviation="2" result="effect1_foregroundBlur_4107_77"/>
</filter>
<filter id="filter22_f_4107_77" x="174.258" y="165.171" width="21.625" height="18.7227" filterUnits="userSpaceOnUse" color-interpolation-filters="sRGB">
<feFlood flood-opacity="0" result="BackgroundImageFix"/>
<feBlend mode="normal" in="SourceGraphic" in2="BackgroundImageFix" result="shape"/>
<feGaussianBlur stdDeviation="2" result="effect1_foregroundBlur_4107_77"/>
</filter>
<filter id="filter23_f_4107_77" x="175.625" y="166.241" width="18.5625" height="16.3105" filterUnits="userSpaceOnUse" color-interpolation-filters="sRGB">
<feFlood flood-opacity="0" result="BackgroundImageFix"/>
<feBlend mode="normal" in="SourceGraphic" in2="BackgroundImageFix" result="shape"/>
<feGaussianBlur stdDeviation="2" result="effect1_foregroundBlur_4107_77"/>
</filter>
<filter id="filter24_f_4107_77" x="84.4844" y="212.12" width="13.7891" height="12.5576" filterUnits="userSpaceOnUse" color-interpolation-filters="sRGB">
<feFlood flood-opacity="0" result="BackgroundImageFix"/>
<feBlend mode="normal" in="SourceGraphic" in2="BackgroundImageFix" result="shape"/>
<feGaussianBlur stdDeviation="2" result="effect1_foregroundBlur_4107_77"/>
</filter>
<filter id="filter25_f_4107_77" x="86.1797" y="213.462" width="10.7266" height="10.1445" filterUnits="userSpaceOnUse" color-interpolation-filters="sRGB">
<feFlood flood-opacity="0" result="BackgroundImageFix"/>
<feBlend mode="normal" in="SourceGraphic" in2="BackgroundImageFix" result="shape"/>
<feGaussianBlur stdDeviation="2" result="effect1_foregroundBlur_4107_77"/>
</filter>
<filter id="filter26_f_4107_77" x="80.7266" y="209.171" width="21.625" height="18.7227" filterUnits="userSpaceOnUse" color-interpolation-filters="sRGB">
<feFlood flood-opacity="0" result="BackgroundImageFix"/>
<feBlend mode="normal" in="SourceGraphic" in2="BackgroundImageFix" result="shape"/>
<feGaussianBlur stdDeviation="2" result="effect1_foregroundBlur_4107_77"/>
</filter>
<filter id="filter27_f_4107_77" x="82.0938" y="210.242" width="18.5625" height="16.3105" filterUnits="userSpaceOnUse" color-interpolation-filters="sRGB">
<feFlood flood-opacity="0" result="BackgroundImageFix"/>
<feBlend mode="normal" in="SourceGraphic" in2="BackgroundImageFix" result="shape"/>
<feGaussianBlur stdDeviation="2" result="effect1_foregroundBlur_4107_77"/>
</filter>
<filter id="filter28_f_4107_77" x="365.375" y="131.954" width="12.5703" height="11.5967" filterUnits="userSpaceOnUse" color-interpolation-filters="sRGB">
<feFlood flood-opacity="0" result="BackgroundImageFix"/>
<feBlend mode="normal" in="SourceGraphic" in2="BackgroundImageFix" result="shape"/>
<feGaussianBlur stdDeviation="2" result="effect1_foregroundBlur_4107_77"/>
</filter>
<filter id="filter29_f_4107_77" x="366.711" y="133.013" width="10.1484" height="9.69238" filterUnits="userSpaceOnUse" color-interpolation-filters="sRGB">
<feFlood flood-opacity="0" result="BackgroundImageFix"/>
<feBlend mode="normal" in="SourceGraphic" in2="BackgroundImageFix" result="shape"/>
<feGaussianBlur stdDeviation="2" result="effect1_foregroundBlur_4107_77"/>
</filter>
<filter id="filter30_f_4107_77" x="362.422" y="129.628" width="18.75" height="16.4619" filterUnits="userSpaceOnUse" color-interpolation-filters="sRGB">
<feFlood flood-opacity="0" result="BackgroundImageFix"/>
<feBlend mode="normal" in="SourceGraphic" in2="BackgroundImageFix" result="shape"/>
<feGaussianBlur stdDeviation="2" result="effect1_foregroundBlur_4107_77"/>
</filter>
<filter id="filter31_f_4107_77" x="363.5" y="130.474" width="16.3359" height="14.5576" filterUnits="userSpaceOnUse" color-interpolation-filters="sRGB">
<feFlood flood-opacity="0" result="BackgroundImageFix"/>
<feBlend mode="normal" in="SourceGraphic" in2="BackgroundImageFix" result="shape"/>
<feGaussianBlur stdDeviation="2" result="effect1_foregroundBlur_4107_77"/>
</filter>
<filter id="filter32_f_4107_77" x="625.641" y="79.5703" width="16.0469" height="14.3311" filterUnits="userSpaceOnUse" color-interpolation-filters="sRGB">
<feFlood flood-opacity="0" result="BackgroundImageFix"/>
<feBlend mode="normal" in="SourceGraphic" in2="BackgroundImageFix" result="shape"/>
<feGaussianBlur stdDeviation="2" result="effect1_foregroundBlur_4107_77"/>
</filter>
<filter id="filter33_f_4107_77" x="628.016" y="81.4307" width="11.7891" height="10.9795" filterUnits="userSpaceOnUse" color-interpolation-filters="sRGB">
<feFlood flood-opacity="0" result="BackgroundImageFix"/>
<feBlend mode="normal" in="SourceGraphic" in2="BackgroundImageFix" result="shape"/>
<feGaussianBlur stdDeviation="2" result="effect1_foregroundBlur_4107_77"/>
</filter>
<filter id="filter34_f_4107_77" x="620.445" y="75.4736" width="26.9297" height="22.8955" filterUnits="userSpaceOnUse" color-interpolation-filters="sRGB">
<feFlood flood-opacity="0" result="BackgroundImageFix"/>
<feBlend mode="normal" in="SourceGraphic" in2="BackgroundImageFix" result="shape"/>
<feGaussianBlur stdDeviation="2" result="effect1_foregroundBlur_4107_77"/>
</filter>
<filter id="filter35_f_4107_77" x="622.344" y="76.9629" width="22.6719" height="19.5439" filterUnits="userSpaceOnUse" color-interpolation-filters="sRGB">
<feFlood flood-opacity="0" result="BackgroundImageFix"/>
<feBlend mode="normal" in="SourceGraphic" in2="BackgroundImageFix" result="shape"/>
<feGaussianBlur stdDeviation="2" result="effect1_foregroundBlur_4107_77"/>
</filter>
</defs>
</svg>
