<svg width="1920" height="2786" viewBox="0 0 1920 2786" fill="none" xmlns="http://www.w3.org/2000/svg">
<path d="M-56.9515 639.104L153.086 610.457L314.636 538L1378.29 561.024L1667.08 624.66L1861.28 840.589L1998 1403.88L1925.08 1615.48L1861.28 2017L1925.08 2257.49L2092.5 2576.69L1806.6 2585.35L1493.54 2767.02L1061.71 3170L246.621 2889.36L-56.9515 2576.69V2232.93V979.968L-214 896.919V840.589L-56.9515 639.104Z" fill="#384646"/>
<g opacity="0.5">
<g filter="url(#filter0_f_2740_2226)">
<circle cx="565.926" cy="311.621" r="3.38312" transform="rotate(7.55605 565.926 311.621)" fill="white" fill-opacity="0.5"/>
</g>
<g filter="url(#filter1_f_2740_2226)">
<circle cx="566.097" cy="311.845" r="1.59206" transform="rotate(7.55605 566.097 311.845)" fill="white" fill-opacity="0.6"/>
</g>
<g filter="url(#filter2_f_2740_2226)">
<circle cx="566.095" cy="311.844" r="7.96028" transform="rotate(7.55605 566.095 311.844)" fill="white" fill-opacity="0.2"/>
</g>
<g filter="url(#filter3_f_2740_2226)">
<circle cx="565.922" cy="311.622" r="6.16922" transform="rotate(7.55605 565.922 311.622)" fill="white" fill-opacity="0.3"/>
</g>
<g filter="url(#filter4_f_2740_2226)">
<circle cx="496.692" cy="163.709" r="2.60759" transform="rotate(7.55605 496.692 163.709)" fill="#FFF5BF"/>
</g>
<g filter="url(#filter5_f_2740_2226)">
<circle cx="496.822" cy="163.883" r="1.2271" transform="rotate(7.55605 496.822 163.883)" fill="#FFF5BF"/>
</g>
<g filter="url(#filter6_f_2740_2226)">
<circle cx="496.819" cy="163.882" r="6.13551" transform="rotate(7.55605 496.819 163.882)" fill="#FFF5BF"/>
</g>
<g filter="url(#filter7_f_2740_2226)">
<circle cx="496.681" cy="163.71" r="4.75502" transform="rotate(7.55605 496.681 163.71)" fill="#FFF5BF"/>
</g>
<g filter="url(#filter8_f_2740_2226)">
<circle cx="575.552" cy="225.763" r="2.25634" transform="rotate(7.55605 575.552 225.763)" fill="white" fill-opacity="0.5"/>
</g>
<g filter="url(#filter9_f_2740_2226)">
<circle cx="575.663" cy="225.913" r="1.06181" transform="rotate(7.55605 575.663 225.913)" fill="white" fill-opacity="0.6"/>
</g>
<g filter="url(#filter10_f_2740_2226)">
<circle cx="575.665" cy="225.912" r="5.30904" transform="rotate(7.55605 575.665 225.912)" fill="white" fill-opacity="0.2"/>
</g>
<g filter="url(#filter11_f_2740_2226)">
<circle cx="575.549" cy="225.762" r="4.1145" transform="rotate(7.55605 575.549 225.762)" fill="white" fill-opacity="0.3"/>
</g>
<g filter="url(#filter12_f_2740_2226)">
<circle cx="497.557" cy="259.37" r="2.25634" transform="rotate(7.55605 497.557 259.37)" fill="white" fill-opacity="0.5"/>
</g>
<g filter="url(#filter13_f_2740_2226)">
<circle cx="497.668" cy="259.52" r="1.06181" transform="rotate(7.55605 497.668 259.52)" fill="white" fill-opacity="0.6"/>
</g>
<g filter="url(#filter14_f_2740_2226)">
<circle cx="497.669" cy="259.52" r="5.30904" transform="rotate(7.55605 497.669 259.52)" fill="white" fill-opacity="0.2"/>
</g>
<g filter="url(#filter15_f_2740_2226)">
<circle cx="497.554" cy="259.37" r="4.1145" transform="rotate(7.55605 497.554 259.37)" fill="white" fill-opacity="0.3"/>
</g>
<path d="M506.971 366.062L507.122 372.757L510.539 378.328L504.443 378.433L499.358 382.139L499.249 375.439L495.827 369.821L501.928 369.763L506.971 366.062Z" fill="#FFF5BF"/>
<path d="M443.896 257.436L449.491 260.155L455.503 259.139L453.078 265.258L454.045 271.913L448.463 269.149L442.411 270.15L444.877 264.047L443.896 257.436Z" fill="#B7D6D6"/>
<g filter="url(#filter16_f_2740_2226)">
<circle cx="715.806" cy="345.111" r="3.09899" transform="rotate(7.55605 715.806 345.111)" fill="white" fill-opacity="0.5"/>
</g>
<g filter="url(#filter17_f_2740_2226)">
<circle cx="715.961" cy="345.319" r="1.45835" transform="rotate(7.55605 715.961 345.319)" fill="white" fill-opacity="0.6"/>
</g>
<g filter="url(#filter18_f_2740_2226)">
<circle cx="715.958" cy="345.317" r="7.29174" transform="rotate(7.55605 715.958 345.317)" fill="white" fill-opacity="0.2"/>
</g>
<g filter="url(#filter19_f_2740_2226)">
<circle cx="715.793" cy="345.112" r="5.6511" transform="rotate(7.55605 715.793 345.112)" fill="white" fill-opacity="0.3"/>
</g>
<path d="M791.463 310.851L791.153 317.534L794.179 323.369L788.089 322.968L782.76 326.238L783.113 319.553L780.085 313.671L786.177 314.12L791.463 310.851Z" fill="#FFF5BF"/>
<path d="M661.543 146.18L661.233 152.863L664.259 158.698L658.169 158.297L652.84 161.567L653.193 154.883L650.165 149L656.257 149.449L661.543 146.18Z" fill="#FFF5BF"/>
<g filter="url(#filter20_f_2740_2226)">
<circle cx="686.927" cy="217.456" r="3.13446" transform="rotate(7.55605 686.927 217.456)" fill="white" fill-opacity="0.5"/>
</g>
<g filter="url(#filter21_f_2740_2226)">
<circle cx="687.081" cy="217.662" r="1.47504" transform="rotate(7.55605 687.081 217.662)" fill="white" fill-opacity="0.6"/>
</g>
<g filter="url(#filter22_f_2740_2226)">
<circle cx="687.083" cy="217.663" r="7.37521" transform="rotate(7.55605 687.083 217.663)" fill="white" fill-opacity="0.2"/>
</g>
<g filter="url(#filter23_f_2740_2226)">
<circle cx="686.924" cy="217.455" r="5.71579" transform="rotate(7.55605 686.924 217.455)" fill="white" fill-opacity="0.3"/>
</g>
<g filter="url(#filter24_f_2740_2226)">
<circle cx="838.012" cy="147.552" r="2.60759" transform="rotate(7.55605 838.012 147.552)" fill="white" fill-opacity="0.5"/>
</g>
<g filter="url(#filter25_f_2740_2226)">
<circle cx="838.143" cy="147.724" r="1.2271" transform="rotate(7.55605 838.143 147.724)" fill="white" fill-opacity="0.6"/>
</g>
<g filter="url(#filter26_f_2740_2226)">
<circle cx="838.14" cy="147.724" r="6.13551" transform="rotate(7.55605 838.14 147.724)" fill="white" fill-opacity="0.2"/>
</g>
<g filter="url(#filter27_f_2740_2226)">
<circle cx="838.001" cy="147.552" r="4.75502" transform="rotate(7.55605 838.001 147.552)" fill="white" fill-opacity="0.3"/>
</g>
<g filter="url(#filter28_f_2740_2226)">
<circle cx="975.364" cy="242.259" r="2.60759" transform="rotate(7.55605 975.364 242.259)" fill="white" fill-opacity="0.5"/>
</g>
<g filter="url(#filter29_f_2740_2226)">
<circle cx="975.495" cy="242.432" r="1.2271" transform="rotate(7.55605 975.495 242.432)" fill="white" fill-opacity="0.6"/>
</g>
<g filter="url(#filter30_f_2740_2226)">
<circle cx="975.492" cy="242.431" r="6.13551" transform="rotate(7.55605 975.492 242.431)" fill="white" fill-opacity="0.2"/>
</g>
<g filter="url(#filter31_f_2740_2226)">
<circle cx="975.353" cy="242.259" r="4.75502" transform="rotate(7.55605 975.353 242.259)" fill="white" fill-opacity="0.3"/>
</g>
<g filter="url(#filter32_f_2740_2226)">
<circle cx="1124.66" cy="137.389" r="2.60759" transform="rotate(7.55605 1124.66 137.389)" fill="white" fill-opacity="0.5"/>
</g>
<g filter="url(#filter33_f_2740_2226)">
<circle cx="1124.79" cy="137.561" r="1.2271" transform="rotate(7.55605 1124.79 137.561)" fill="white" fill-opacity="0.6"/>
</g>
<g filter="url(#filter34_f_2740_2226)">
<circle cx="1124.78" cy="137.561" r="6.13551" transform="rotate(7.55605 1124.78 137.561)" fill="white" fill-opacity="0.2"/>
</g>
<g filter="url(#filter35_f_2740_2226)">
<circle cx="1124.65" cy="137.389" r="4.75502" transform="rotate(7.55605 1124.65 137.389)" fill="white" fill-opacity="0.3"/>
</g>
<g filter="url(#filter36_f_2740_2226)">
<circle cx="95.1847" cy="326.775" r="1.78059" transform="rotate(7.55605 95.1847 326.775)" fill="#FFF5BF"/>
</g>
<g filter="url(#filter37_f_2740_2226)">
<circle cx="95.272" cy="326.892" r="0.837924" transform="rotate(7.55605 95.272 326.892)" fill="#FFF5BF"/>
</g>
<g filter="url(#filter38_f_2740_2226)">
<circle cx="95.2734" cy="326.892" r="4.18962" transform="rotate(7.55605 95.2734 326.892)" fill="#FFF5BF"/>
</g>
<g filter="url(#filter39_f_2740_2226)">
<circle cx="95.1832" cy="326.773" r="3.24696" transform="rotate(7.55605 95.1832 326.773)" fill="#FFF5BF"/>
</g>
<g filter="url(#filter40_f_2740_2226)">
<circle cx="304.264" cy="303.545" r="3.13446" transform="rotate(7.55605 304.264 303.545)" fill="white" fill-opacity="0.5"/>
</g>
<g filter="url(#filter41_f_2740_2226)">
<circle cx="304.418" cy="303.751" r="1.47504" transform="rotate(7.55605 304.418 303.751)" fill="white" fill-opacity="0.6"/>
</g>
<g filter="url(#filter42_f_2740_2226)">
<circle cx="304.42" cy="303.752" r="7.37521" transform="rotate(7.55605 304.42 303.752)" fill="white" fill-opacity="0.2"/>
</g>
<g filter="url(#filter43_f_2740_2226)">
<circle cx="304.261" cy="303.544" r="5.71579" transform="rotate(7.55605 304.261 303.544)" fill="white" fill-opacity="0.3"/>
</g>
<g filter="url(#filter44_f_2740_2226)">
<circle cx="191.785" cy="426.609" r="2.49283" transform="rotate(7.55605 191.785 426.609)" fill="white" fill-opacity="0.5"/>
</g>
<g filter="url(#filter45_f_2740_2226)">
<circle cx="191.907" cy="426.773" r="1.17309" transform="rotate(7.55605 191.907 426.773)" fill="white" fill-opacity="0.6"/>
</g>
<g filter="url(#filter46_f_2740_2226)">
<circle cx="191.909" cy="426.772" r="5.86547" transform="rotate(7.55605 191.909 426.772)" fill="white" fill-opacity="0.2"/>
</g>
<g filter="url(#filter47_f_2740_2226)">
<circle cx="191.781" cy="426.607" r="4.54574" transform="rotate(7.55605 191.781 426.607)" fill="white" fill-opacity="0.3"/>
</g>
<g filter="url(#filter48_f_2740_2226)">
<circle cx="214.3" cy="343.934" r="3.09899" transform="rotate(7.55605 214.3 343.934)" fill="white" fill-opacity="0.5"/>
</g>
<g filter="url(#filter49_f_2740_2226)">
<circle cx="214.455" cy="344.141" r="1.45835" transform="rotate(7.55605 214.455 344.141)" fill="white" fill-opacity="0.6"/>
</g>
<g filter="url(#filter50_f_2740_2226)">
<circle cx="214.452" cy="344.139" r="7.29174" transform="rotate(7.55605 214.452 344.139)" fill="white" fill-opacity="0.2"/>
</g>
<g filter="url(#filter51_f_2740_2226)">
<circle cx="214.287" cy="343.934" r="5.6511" transform="rotate(7.55605 214.287 343.934)" fill="white" fill-opacity="0.3"/>
</g>
<g filter="url(#filter52_f_2740_2226)">
<circle cx="148.556" cy="276.599" r="2.60759" transform="rotate(7.55605 148.556 276.599)" fill="white" fill-opacity="0.5"/>
</g>
<g filter="url(#filter53_f_2740_2226)">
<circle cx="148.687" cy="276.771" r="1.2271" transform="rotate(7.55605 148.687 276.771)" fill="white" fill-opacity="0.6"/>
</g>
<g filter="url(#filter54_f_2740_2226)">
<circle cx="148.684" cy="276.771" r="6.13551" transform="rotate(7.55605 148.684 276.771)" fill="white" fill-opacity="0.2"/>
</g>
<g filter="url(#filter55_f_2740_2226)">
<circle cx="148.545" cy="276.599" r="4.75502" transform="rotate(7.55605 148.545 276.599)" fill="white" fill-opacity="0.3"/>
</g>
<g filter="url(#filter56_f_2740_2226)">
<circle cx="159.805" cy="165.436" r="2.60759" transform="rotate(7.55605 159.805 165.436)" fill="white" fill-opacity="0.5"/>
</g>
<g filter="url(#filter57_f_2740_2226)">
<circle cx="159.936" cy="165.608" r="1.2271" transform="rotate(7.55605 159.936 165.608)" fill="white" fill-opacity="0.6"/>
</g>
<g filter="url(#filter58_f_2740_2226)">
<circle cx="159.933" cy="165.608" r="6.13551" transform="rotate(7.55605 159.933 165.608)" fill="white" fill-opacity="0.2"/>
</g>
<g filter="url(#filter59_f_2740_2226)">
<circle cx="159.794" cy="165.436" r="4.75502" transform="rotate(7.55605 159.794 165.436)" fill="white" fill-opacity="0.3"/>
</g>
<path d="M215.908 289.29L215.598 295.974L218.624 301.809L212.534 301.407L207.205 304.678L207.557 297.993L204.53 292.111L210.621 292.559L215.908 289.29Z" fill="#FFF5BF"/>
<path d="M346.784 170.313L346.474 176.996L349.501 182.831L343.41 182.43L338.081 185.7L338.434 179.015L335.406 173.133L341.498 173.582L346.784 170.313Z" fill="#FFF5BF"/>
<path d="M151.064 440.687L155.27 445.578L161.188 447.221L156.772 451.794L155.301 458.313L151.124 453.387L145.174 451.712L149.622 447.171L151.064 440.687Z" fill="#B7D6D6"/>
</g>
<path d="M30.0305 875.832H288.651L408.674 803L1027.36 865.427H1786.79L1984.69 1020.98L2124 1426.75L2049.7 1579.18L1984.69 1868.43L2049.7 2041.66L1984.69 2247.67L1604.72 2314.13L1164.4 2632L407.104 2438.51L30.0305 2271.6L-164 2022L-237 1201L-130 1061.55V1020.98L30.0305 875.832Z" fill="#222B2B"/>
<path d="M282.887 1100.55H476.561L566.442 1046L1029.76 1092.76H1598.48L1746.67 1209.26L1851 1513.17L1795.36 1627.33L1746.67 1843.97L1795.36 1973.72L1746.67 2128.01L1497.03 2221.66L1124.89 2483L428.068 2311.54L282.887 2145.94V1960.47L90 1726.41L163.045 1209.26L282.887 1100.55Z" fill="#141717"/>
<path d="M467.206 1354.3H599.951L661.556 1317L979.117 1348.97H1368.92L1470.49 1428.65L1542 1636.48L1503.86 1714.55L1470.49 1862.71L1503.86 1951.44L1470.49 2056.95L1234.71 2069.21L1047.69 2167L743.33 2108.11L467.206 2069.21V1942.38L335 1782.31L385.065 1428.65L467.206 1354.3Z" fill="#080A0A"/>
<path d="M660.555 1539.07H753.488L796.616 1513L1018.94 1535.34H1291.83L1362.94 1591.02L1413 1736.26L1386.3 1790.82L1362.94 1894.35L1386.3 1956.36L1362.94 2030.1L1197.87 2038.66L1066.94 2107L853.865 2065.85L660.555 2038.66V1950.03L568 1838.17L603.05 1591.02L660.555 1539.07Z" fill="#030404"/>
<path d="M1239.5 888.5L1115 786.5L1491 845H1944.5V957L1879 1010.5H1825L1761.5 1123L1705.5 1286.5L1647 993.5L1610.5 957L1578.5 993.5L1556.5 1040L1491 957L1439.5 930L1332.5 957L1239.5 888.5Z" fill="#384646"/>
<path d="M321.5 1199L150.5 1089.5L602 1012L811.5 1053L738.5 1130.5L704.5 1089.5L622.5 1035L501.5 1053L442.5 1233H387.5L339.5 1386L321.5 1199Z" fill="#222B2B"/>
<path d="M-10 506H1431.23L2037.64 819.269L2055 881L1818.58 848.715L1676.33 799.756L1538.75 840.91L1431.23 807.561L1328.38 692.968L1162.08 679.841L958.386 615.272L765.349 636.83L664.531 565.957L191.024 595.049L36.0818 645.782L-10 615.272V506Z" fill="#232A2A"/>
<path d="M-10 483H1431.23L2037.64 795.433L2055 857L1818.58 824.801L1676.33 775.973L1538.75 817.017L1431.23 783.757L1328.38 669.469L1162.08 656.377L958.386 591.98L772.055 622.41L664.531 542.798L191.024 571.812L36.0818 622.41L-10 591.98V483Z" fill="#343F3F"/>
<path d="M-10 450L394 397L616 450L925.5 418.5L1431.23 450L2055 825L1818.58 792.715L1676.33 743.756L1538.75 784.91L1431.23 751.561L1328.38 636.968L1162.08 623.841L958.386 559.272L772.055 589.782L664.531 509.957L191.024 539.049L36.0818 589.782L-10 559.272V450Z" fill="#7D9090"/>
<path d="M1056.75 175.505L1066.32 172.224L1067.68 178.786L1062.49 180.973L1056.75 175.505Z" fill="#497A76"/>
<path d="M1066.32 172.223L1071.78 170.036L1070.42 177.692L1067.68 178.786L1066.32 172.223Z" fill="#75A4A2"/>
<path d="M1125.1 331.176L1115.49 340.87L1107.44 310.451L1107.37 310.211L1107.21 310.021L1096.51 297.345L1096.48 284.234L1096.48 284.17L1096.48 284.106L1095.36 274.727L1095.35 274.657L1095.33 274.59L1093.74 268.21L1095.32 260.46L1095.36 260.273L1095.33 260.083L1094.77 256.221L1094.73 255.895L1094.51 255.647L1092.32 253.161L1092.22 253.046L1092.09 252.962L1089.51 251.308L1088.74 244.663L1088.74 244.659L1087.74 235.474L1094.69 234.173L1099.51 243.111L1100.95 246.01L1099.46 250.823L1099.43 250.903L1099.42 250.986L1098.88 254.57L1098.84 254.797L1098.9 255.02L1100 259.159L1100.07 259.418L1100.25 259.616L1105.82 265.759L1107.68 273.758L1107.69 273.771L1107.69 273.784L1109.62 281.234L1109.67 281.423L1109.78 281.583L1117 292.086L1117.57 310.241L1117.58 310.417L1117.64 310.583L1125.1 331.176Z" fill="#396D6F" stroke="#396260" stroke-width="2.21022"/>
<path d="M1080.69 236.842L1089.44 235.211L1094.71 245.097L1096.37 248.485L1094.76 253.822L1094.24 257.476L1095.36 261.705L1101.15 268.217L1103.12 276.673L1105.09 284.285L1112.55 295.31L1113.22 314.171L1121.03 335.893L1109.6 347.637L1100.9 314.652L1089.87 301.351L1089.78 287.561L1088.62 277.984L1086.93 271.218L1088.52 263.067L1087.95 259.124L1085.74 256.576L1082.72 254.586L1081.85 247.263L1080.69 236.842Z" fill="#326A67"/>
<path d="M1120.81 335.444L1111.19 345.072L1103.2 314.939L1103.13 314.666L1102.94 314.462L1093.37 304.36L1092.3 288.897L1092.3 288.871L1092.3 288.844L1091.2 279.548L1091.19 279.478L1091.17 279.409L1089.59 273.091L1091.18 265.409L1091.24 265.138L1091.16 264.872L1088.98 257.49L1088.86 257.114L1088.54 256.893L1084.6 254.184L1084.1 247.607L1083.62 240.663L1090.61 239.351L1095.41 248.198L1096.84 251.053L1095.34 255.54L1095.26 255.803L1095.3 256.077L1096.67 264.006L1096.72 264.28L1096.89 264.499L1101.66 270.596L1103.52 278.561L1103.55 278.679L1103.6 278.788L1106.88 285.623L1106.89 285.646L1106.9 285.668L1112.79 296.649L1113.33 314.708L1113.34 314.885L1113.4 315.052L1120.81 335.444Z" fill="#86B3B5" stroke="#9BCDCB" stroke-width="2.21022"/>
<path d="M1086.92 216.517L1100.14 211.323L1108.44 206.674L1110.59 205.307L1112.12 203.94L1113.35 202.3L1114.27 200.659L1114.89 198.745L1115.2 197.652L1115.5 196.011L1115.81 194.371L1116.12 192.457V191.363V190.269L1115.81 185.621L1120.42 192.183L1122.27 195.738L1123.19 199.565V204.214L1122.57 208.862L1120.73 212.416L1118.27 215.15L1086 234.837L1086.92 216.517Z" fill="#3C6162"/>
<path d="M1073.76 220.014L1059.7 222.059L1050.19 222.14L1047.65 222.02L1045.64 221.595L1043.76 220.781L1042.14 219.814L1040.66 218.457L1039.85 217.66L1038.77 216.388L1037.69 215.116L1036.47 213.607L1035.93 212.657L1035.39 211.708L1033.35 207.519L1032.6 215.504L1032.76 219.505L1033.86 223.286L1036.17 227.322L1039.01 231.052L1042.37 233.224L1045.86 234.378L1083.64 235.462L1073.76 220.014Z" fill="#3C6162"/>
<path d="M1119.15 215.699L1092.4 234.039L1093.09 218.618L1104.22 213.7L1104.29 213.668L1104.36 213.625L1111.75 208.977L1111.77 208.959L1111.8 208.941L1113.71 207.574L1113.79 207.52L1113.85 207.456L1115.22 206.089L1115.3 206.011L1115.36 205.92L1116.45 204.28L1116.49 204.223L1116.52 204.161L1117.34 202.52L1117.39 202.429L1117.41 202.33L1117.96 200.416L1117.97 200.398L1117.97 200.38L1118.24 199.287L1118.25 199.244L1118.26 199.2L1118.54 197.56L1118.81 195.919L1118.81 195.907L1118.81 195.894L1119.09 193.98L1119.1 193.902V193.824V192.73V191.79L1120.87 194.122L1122.41 197.456L1123.18 201.05V205.516L1122.66 209.925L1121.15 213.198L1119.15 215.699Z" fill="#B7D6D6" stroke="#84BCB9" stroke-width="2.21022"/>
<path d="M1046.98 236.24L1079.07 237.061L1070.45 224.559L1058.44 226.464L1058.36 226.477L1058.28 226.478L1049.55 226.578L1049.52 226.579L1049.49 226.577L1047.14 226.467L1047.05 226.463L1046.96 226.443L1045.07 226.037L1044.96 226.014L1044.86 225.97L1043.05 225.185L1042.99 225.158L1042.93 225.123L1041.35 224.19L1041.26 224.138L1041.19 224.07L1039.69 222.759L1039.68 222.747L1039.66 222.734L1038.84 221.964L1038.81 221.934L1038.78 221.901L1037.66 220.671L1036.54 219.441L1036.53 219.432L1036.52 219.422L1035.25 217.963L1035.2 217.903L1035.16 217.837L1034.56 216.919L1033.97 216L1033.9 215.892L1033.86 215.77L1033.83 215.683L1033.83 219.007L1034.35 222.684L1035.65 226.12L1038.08 229.872L1040.9 233.295L1043.95 235.224L1046.98 236.24Z" fill="#B7D6D6" stroke="#84BCB9" stroke-width="2.21022"/>
<path d="M1101.86 224.994L1091.05 230.39L1089.26 223.013L1098.52 219.984L1101.59 218.705L1103.23 217.885L1104.32 217.065L1105.69 215.971L1106.24 215.424L1107.98 213.303L1108.15 214.877L1108.15 216.244L1107.88 217.611L1107.33 218.979L1106.51 220.619L1105.69 221.986L1101.86 224.994Z" fill="#304746"/>
<path d="M1064.76 234.697L1078.58 233.513L1076.23 226.277L1065.28 228.649L1061.51 229.198L1059.41 229.377L1057.86 229.263L1055.88 229.063L1055.03 228.89L1052.1 228.016L1052.81 229.447L1053.58 230.61L1054.62 231.628L1055.93 232.499L1057.67 233.457L1059.25 234.183L1064.76 234.697Z" fill="#304746"/>
<path d="M1094.56 225.424L1095.8 224.3L1094.21 223.786L1094.56 225.424Z" fill="#84BCB9"/>
<path d="M1094.56 225.421L1095.8 224.299L1096.15 225.937L1094.56 225.421Z" fill="#84BCB9"/>
<path d="M1095.45 222.663L1095.8 224.301L1097.04 223.18L1095.45 222.663Z" fill="#84BCB9"/>
<path d="M1096.16 225.935L1095.8 224.3L1097.4 224.806L1096.16 225.935Z" fill="#84BCB9"/>
<path d="M1097.39 224.814L1095.8 224.3L1097.04 223.176L1097.39 224.814Z" fill="#84BCB9"/>
<path d="M1094.2 223.795L1095.8 224.301L1095.44 222.666L1094.2 223.795Z" fill="#84BCB9"/>
<path d="M1094.96 225.11L1095.81 224.342L1094.72 223.99L1094.96 225.11Z" fill="#A8D6D7"/>
<path d="M1094.96 225.107L1095.81 224.34L1096.05 225.46L1094.96 225.107Z" fill="#A8D6D7"/>
<path d="M1095.57 223.22L1095.81 224.341L1096.66 223.574L1095.57 223.22Z" fill="#A8D6D7"/>
<path d="M1096.05 225.461L1095.81 224.342L1096.9 224.688L1096.05 225.461Z" fill="#A8D6D7"/>
<path d="M1096.9 224.693L1095.81 224.341L1096.66 223.573L1096.9 224.693Z" fill="#A8D6D7"/>
<path d="M1094.72 223.996L1095.81 224.342L1095.56 223.223L1094.72 223.996Z" fill="#A8D6D7"/>
<path d="M1099.31 223.149L1100.16 222.378L1099.07 222.026L1099.31 223.149Z" fill="#84BCB9"/>
<path d="M1099.31 223.146L1100.16 222.377L1100.4 223.501L1099.31 223.146Z" fill="#84BCB9"/>
<path d="M1099.92 221.255L1100.16 222.379L1101.01 221.61L1099.92 221.255Z" fill="#84BCB9"/>
<path d="M1100.41 223.5L1100.16 222.378L1101.25 222.725L1100.41 223.5Z" fill="#84BCB9"/>
<path d="M1101.25 222.73L1100.16 222.378L1101.01 221.607L1101.25 222.73Z" fill="#84BCB9"/>
<path d="M1099.06 222.031L1100.16 222.378L1099.91 221.256L1099.06 222.031Z" fill="#84BCB9"/>
<path d="M1099.58 222.934L1100.16 222.407L1099.42 222.166L1099.58 222.934Z" fill="#A8D6D7"/>
<path d="M1099.58 222.932L1100.16 222.406L1100.33 223.175L1099.58 222.932Z" fill="#A8D6D7"/>
<path d="M1100 221.638L1100.16 222.406L1100.75 221.88L1100 221.638Z" fill="#A8D6D7"/>
<path d="M1100.33 223.174L1100.16 222.407L1100.91 222.644L1100.33 223.174Z" fill="#A8D6D7"/>
<path d="M1100.91 222.648L1100.17 222.407L1100.75 221.88L1100.91 222.648Z" fill="#A8D6D7"/>
<path d="M1099.41 222.169L1100.16 222.406L1099.99 221.639L1099.41 222.169Z" fill="#A8D6D7"/>
<path d="M1102.75 221.236L1103.38 220.667L1102.57 220.406L1102.75 221.236Z" fill="#84BCB9"/>
<path d="M1102.75 221.236L1103.38 220.668L1103.56 221.498L1102.75 221.236Z" fill="#84BCB9"/>
<path d="M1103.2 219.838L1103.38 220.669L1104.01 220.1L1103.2 219.838Z" fill="#84BCB9"/>
<path d="M1103.56 221.498L1103.38 220.669L1104.19 220.926L1103.56 221.498Z" fill="#84BCB9"/>
<path d="M1104.19 220.929L1103.38 220.668L1104.01 220.098L1104.19 220.929Z" fill="#84BCB9"/>
<path d="M1102.57 220.412L1103.38 220.668L1103.2 219.839L1102.57 220.412Z" fill="#84BCB9"/>
<path d="M1102.95 221.079L1103.39 220.689L1102.83 220.51L1102.95 221.079Z" fill="#A8D6D7"/>
<path d="M1102.95 221.078L1103.39 220.689L1103.51 221.257L1102.95 221.078Z" fill="#A8D6D7"/>
<path d="M1103.26 220.121L1103.38 220.689L1103.82 220.3L1103.26 220.121Z" fill="#A8D6D7"/>
<path d="M1103.51 221.256L1103.38 220.688L1103.94 220.864L1103.51 221.256Z" fill="#A8D6D7"/>
<path d="M1103.94 220.868L1103.39 220.689L1103.82 220.3L1103.94 220.868Z" fill="#A8D6D7"/>
<path d="M1102.83 220.514L1103.38 220.69L1103.26 220.122L1102.83 220.514Z" fill="#A8D6D7"/>
<path d="M1072.84 231.381L1071.21 230.994L1072.36 229.776L1072.84 231.381Z" fill="#84BCB9"/>
<path d="M1072.84 231.377L1071.21 230.993L1071.69 232.597L1072.84 231.377Z" fill="#84BCB9"/>
<path d="M1070.73 229.391L1071.21 230.994L1069.58 230.61L1070.73 229.391Z" fill="#84BCB9"/>
<path d="M1071.68 232.599L1071.21 230.992L1070.05 232.205L1071.68 232.599Z" fill="#84BCB9"/>
<path d="M1070.06 232.212L1071.21 230.994L1069.58 230.607L1070.06 232.212Z" fill="#84BCB9"/>
<path d="M1072.37 229.781L1071.21 230.993L1070.74 229.387L1072.37 229.781Z" fill="#84BCB9"/>
<path d="M1072.34 231.299L1071.22 231.035L1072.01 230.202L1072.34 231.299Z" fill="#A8D6D7"/>
<path d="M1072.34 231.295L1071.22 231.033L1071.55 232.13L1072.34 231.295Z" fill="#A8D6D7"/>
<path d="M1070.89 229.937L1071.22 231.034L1070.11 230.771L1070.89 229.937Z" fill="#A8D6D7"/>
<path d="M1071.55 232.132L1071.22 231.033L1070.43 231.863L1071.55 232.132Z" fill="#A8D6D7"/>
<path d="M1070.44 231.867L1071.22 231.034L1070.11 230.769L1070.44 231.867Z" fill="#A8D6D7"/>
<path d="M1072.01 230.205L1071.22 231.034L1070.9 229.935L1072.01 230.205Z" fill="#A8D6D7"/>
<path d="M1067.58 231.673L1066.46 231.407L1067.25 230.572L1067.58 231.673Z" fill="#84BCB9"/>
<path d="M1067.58 231.669L1066.47 231.405L1066.8 232.505L1067.58 231.669Z" fill="#84BCB9"/>
<path d="M1066.13 230.307L1066.46 231.407L1065.35 231.144L1066.13 230.307Z" fill="#84BCB9"/>
<path d="M1066.79 232.508L1066.47 231.406L1065.67 232.238L1066.79 232.508Z" fill="#84BCB9"/>
<path d="M1065.68 232.241L1066.47 231.406L1065.35 231.141L1065.68 232.241Z" fill="#84BCB9"/>
<path d="M1067.26 230.575L1066.47 231.406L1066.14 230.304L1067.26 230.575Z" fill="#84BCB9"/>
<path d="M1067.24 231.617L1066.47 231.435L1067.01 230.864L1067.24 231.617Z" fill="#A8D6D7"/>
<path d="M1067.24 231.615L1066.47 231.435L1066.7 232.188L1067.24 231.615Z" fill="#A8D6D7"/>
<path d="M1066.25 230.682L1066.48 231.435L1065.71 231.255L1066.25 230.682Z" fill="#A8D6D7"/>
<path d="M1066.7 232.189L1066.48 231.435L1065.93 232.004L1066.7 232.189Z" fill="#A8D6D7"/>
<path d="M1065.93 232.007L1066.47 231.436L1065.71 231.254L1065.93 232.007Z" fill="#A8D6D7"/>
<path d="M1067.02 230.866L1066.48 231.435L1066.25 230.681L1067.02 230.866Z" fill="#A8D6D7"/>
<path d="M1061.88 183.5C1061.46 182.393 1061.98 181.148 1063.07 180.678L1071.2 177.166C1072.29 176.695 1073.56 177.169 1074.07 178.239L1075.75 181.748C1076.16 182.593 1075.99 183.603 1075.32 184.267L1074.55 185.038C1074.35 185.242 1074.11 185.404 1073.84 185.515L1070.96 186.714L1067.16 188.235C1066.96 188.314 1066.75 188.364 1066.54 188.384L1065.52 188.477C1064.53 188.566 1063.61 187.991 1063.25 187.068L1061.88 183.5Z" fill="#555555"/>
<path d="M1063.64 231.657L1062.82 231.461L1063.4 230.844L1063.64 231.657Z" fill="#84BCB9"/>
<path d="M1063.65 231.655L1062.82 231.461L1063.07 232.274L1063.65 231.655Z" fill="#84BCB9"/>
<path d="M1062.58 230.649L1062.82 231.462L1061.99 231.267L1062.58 230.649Z" fill="#84BCB9"/>
<path d="M1063.06 232.275L1062.82 231.46L1062.23 232.075L1063.06 232.275Z" fill="#84BCB9"/>
<path d="M1062.24 232.078L1062.82 231.461L1061.99 231.264L1062.24 232.078Z" fill="#84BCB9"/>
<path d="M1063.41 230.845L1062.82 231.46L1062.58 230.645L1063.41 230.845Z" fill="#84BCB9"/>
<path d="M1063.39 231.615L1062.83 231.481L1063.23 231.058L1063.39 231.615Z" fill="#A8D6D7"/>
<path d="M1063.39 231.615L1062.83 231.482L1062.99 232.039L1063.39 231.615Z" fill="#A8D6D7"/>
<path d="M1062.66 230.925L1062.83 231.481L1062.26 231.348L1062.66 230.925Z" fill="#A8D6D7"/>
<path d="M1062.99 232.038L1062.83 231.481L1062.43 231.902L1062.99 232.038Z" fill="#A8D6D7"/>
<path d="M1062.43 231.907L1062.83 231.484L1062.26 231.35L1062.43 231.907Z" fill="#A8D6D7"/>
<path d="M1063.23 231.06L1062.83 231.481L1062.66 230.923L1063.23 231.06Z" fill="#A8D6D7"/>
<path d="M1066.86 188.355L1074.25 185.348L1078.35 192.73L1081.9 200.112L1084.91 207.494L1087.64 216.244L1075.89 220.345L1071.79 211.596L1069.87 204.488L1067.96 196.284L1066.86 188.355Z" fill="#253333"/>
<path d="M1068.15 187.901L1073.15 185.895L1076.6 193.281L1079.82 200.775L1082.65 208.213L1085.44 216.946L1077.65 219.733L1073.91 210.864L1071.86 203.799L1069.7 195.677L1068.15 187.901Z" fill="#303F3F"/>
<path d="M1070.96 223.353L1078.62 210.229L1092.02 217.884L1090.93 252.609L1070.96 223.353Z" fill="#4B7270"/>
<path d="M1073.63 225.094L1079.82 214.475L1090.66 220.669L1089.78 248.766L1073.63 225.094Z" fill="#304746"/>
<path d="M1082.04 228.466L1082.69 224.72L1079.12 226.025L1082.04 228.466Z" fill="#84BCB9"/>
<path d="M1082.03 228.468L1082.69 224.723L1085.61 227.169L1082.03 228.468Z" fill="#84BCB9"/>
<path d="M1079.78 222.275L1082.69 224.722L1083.36 220.977L1079.78 222.275Z" fill="#84BCB9"/>
<path d="M1085.62 227.147L1082.69 224.72L1086.26 223.398L1085.62 227.147Z" fill="#84BCB9"/>
<path d="M1086.26 223.415L1082.69 224.72L1083.35 220.974L1086.26 223.415Z" fill="#84BCB9"/>
<path d="M1079.13 226.044L1082.69 224.722L1079.77 222.295L1079.13 226.044Z" fill="#84BCB9"/>
<path d="M1082.32 227.342L1082.77 224.779L1080.33 225.672L1082.32 227.342Z" fill="#A8D6D7"/>
<path d="M1082.32 227.341L1082.77 224.779L1084.76 226.453L1082.32 227.341Z" fill="#A8D6D7"/>
<path d="M1080.78 223.106L1082.77 224.78L1083.22 222.218L1080.78 223.106Z" fill="#A8D6D7"/>
<path d="M1084.77 226.44L1082.77 224.779L1085.21 223.875L1084.77 226.44Z" fill="#A8D6D7"/>
<path d="M1085.21 223.886L1082.77 224.779L1083.22 222.216L1085.21 223.886Z" fill="#A8D6D7"/>
<path d="M1080.33 225.686L1082.77 224.782L1080.77 223.121L1080.33 225.686Z" fill="#A8D6D7"/>
<path d="M1098.67 300.955L1103.77 300.731L1101.02 296.423L1098.67 300.955Z" fill="#68A4A1"/>
<path d="M1098.66 300.947L1103.77 300.733L1101.4 305.26L1098.66 300.947Z" fill="#68A4A1"/>
<path d="M1106.14 296.208L1103.77 300.734L1108.87 300.52L1106.14 296.208Z" fill="#68A4A1"/>
<path d="M1101.43 305.276L1103.77 300.734L1106.54 305.029L1101.43 305.276Z" fill="#68A4A1"/>
<path d="M1106.51 305.038L1103.77 300.731L1108.87 300.507L1106.51 305.038Z" fill="#68A4A1"/>
<path d="M1101 296.436L1103.77 300.731L1106.1 296.188L1101 296.436Z" fill="#68A4A1"/>
<path d="M1100.17 300.963L1103.66 300.854L1101.82 297.883L1100.17 300.963Z" fill="#8BCACC"/>
<path d="M1100.17 300.959L1103.67 300.856L1102.01 303.933L1100.17 300.959Z" fill="#8BCACC"/>
<path d="M1105.32 297.775L1103.66 300.852L1107.16 300.749L1105.32 297.775Z" fill="#8BCACC"/>
<path d="M1102.03 303.94L1103.67 300.853L1105.52 303.815L1102.03 303.94Z" fill="#8BCACC"/>
<path d="M1105.51 303.824L1103.66 300.853L1107.16 300.744L1105.51 303.824Z" fill="#8BCACC"/>
<path d="M1101.81 297.896L1103.66 300.858L1105.3 297.77L1101.81 297.896Z" fill="#8BCACC"/>
<path d="M1097.71 291.422L1100.19 291.147L1098.71 289.144L1097.71 291.422Z" fill="#68A4A1"/>
<path d="M1097.71 291.418L1100.18 291.148L1099.18 293.424L1097.71 291.418Z" fill="#68A4A1"/>
<path d="M1101.19 288.875L1100.19 291.151L1102.66 290.881L1101.19 288.875Z" fill="#68A4A1"/>
<path d="M1099.2 293.431L1100.18 291.148L1101.67 293.144L1099.2 293.431Z" fill="#68A4A1"/>
<path d="M1101.66 293.151L1100.18 291.148L1102.66 290.873L1101.66 293.151Z" fill="#68A4A1"/>
<path d="M1098.7 289.152L1100.18 291.148L1101.17 288.865L1098.7 289.152Z" fill="#68A4A1"/>
<path d="M1098.46 291.398L1100.15 291.209L1099.14 289.839L1098.46 291.398Z" fill="#8BCACC"/>
<path d="M1098.46 291.397L1100.15 291.212L1099.47 292.769L1098.46 291.397Z" fill="#8BCACC"/>
<path d="M1100.84 289.651L1100.16 291.208L1101.85 291.023L1100.84 289.651Z" fill="#8BCACC"/>
<path d="M1099.48 292.773L1100.16 291.211L1101.17 292.577L1099.48 292.773Z" fill="#8BCACC"/>
<path d="M1101.16 292.58L1100.15 291.21L1101.84 291.022L1101.16 292.58Z" fill="#8BCACC"/>
<path d="M1099.14 289.847L1100.15 291.213L1100.83 289.651L1099.14 289.847Z" fill="#8BCACC"/>
<path d="M1096.39 283.798L1097.98 283.621L1097.03 282.328L1096.39 283.798Z" fill="#68A4A1"/>
<path d="M1096.39 283.797L1097.98 283.623L1097.34 285.092L1096.39 283.797Z" fill="#68A4A1"/>
<path d="M1098.63 282.154L1097.98 283.623L1099.58 283.448L1098.63 282.154Z" fill="#68A4A1"/>
<path d="M1097.35 285.096L1097.98 283.622L1098.94 284.911L1097.35 285.096Z" fill="#68A4A1"/>
<path d="M1098.93 284.914L1097.98 283.621L1099.58 283.444L1098.93 284.914Z" fill="#68A4A1"/>
<path d="M1097.02 282.333L1097.98 283.622L1098.62 282.148L1097.02 282.333Z" fill="#68A4A1"/>
<path d="M1096.87 283.782L1097.96 283.661L1097.31 282.776L1096.87 283.782Z" fill="#8BCACC"/>
<path d="M1096.87 283.783L1097.96 283.663L1097.52 284.669L1096.87 283.783Z" fill="#8BCACC"/>
<path d="M1098.41 282.656L1097.96 283.661L1099.05 283.542L1098.41 282.656Z" fill="#8BCACC"/>
<path d="M1097.53 284.67L1097.96 283.662L1098.62 284.543L1097.53 284.67Z" fill="#8BCACC"/>
<path d="M1098.61 284.547L1097.96 283.662L1099.06 283.541L1098.61 284.547Z" fill="#8BCACC"/>
<path d="M1097.31 282.781L1097.96 283.663L1098.4 282.655L1097.31 282.781Z" fill="#8BCACC"/>
<path d="M1104.92 310.487L1106.52 310.309L1105.57 309.016L1104.92 310.487Z" fill="#68A4A1"/>
<path d="M1104.92 310.485L1106.52 310.31L1105.87 311.779L1104.92 310.485Z" fill="#68A4A1"/>
<path d="M1107.16 308.842L1106.52 310.311L1108.11 310.137L1107.16 308.842Z" fill="#68A4A1"/>
<path d="M1105.88 311.784L1106.52 310.311L1107.48 311.599L1105.88 311.784Z" fill="#68A4A1"/>
<path d="M1107.47 311.603L1106.52 310.31L1108.11 310.132L1107.47 311.603Z" fill="#68A4A1"/>
<path d="M1105.56 309.022L1106.52 310.31L1107.15 308.837L1105.56 309.022Z" fill="#68A4A1"/>
<path d="M1105.41 310.472L1106.5 310.35L1105.85 309.466L1105.41 310.472Z" fill="#8BCACC"/>
<path d="M1105.41 310.471L1106.5 310.352L1106.06 311.357L1105.41 310.471Z" fill="#8BCACC"/>
<path d="M1106.94 309.344L1106.5 310.35L1107.59 310.23L1106.94 309.344Z" fill="#8BCACC"/>
<path d="M1106.06 311.359L1106.5 310.351L1107.15 311.233L1106.06 311.359Z" fill="#8BCACC"/>
<path d="M1107.15 311.236L1106.5 310.352L1107.59 310.23L1107.15 311.236Z" fill="#8BCACC"/>
<path d="M1105.84 309.47L1106.5 310.351L1106.93 309.343L1105.84 309.47Z" fill="#8BCACC"/>
<path d="M1087.01 236.368L1085.81 234.288L1084.61 236.368L1087.01 236.368Z" fill="#84BCB9"/>
<path d="M1087.01 236.371L1085.81 234.289L1088.22 234.294L1087.01 236.371Z" fill="#84BCB9"/>
<path d="M1083.41 234.285L1085.81 234.29L1084.62 232.207L1083.41 234.285Z" fill="#84BCB9"/>
<path d="M1088.21 234.278L1085.81 234.29L1087 232.204L1088.21 234.278Z" fill="#84BCB9"/>
<path d="M1087.01 232.209L1085.81 234.289L1084.61 232.209L1087.01 232.209Z" fill="#84BCB9"/>
<path d="M1084.62 236.375L1085.81 234.29L1083.41 234.301L1084.62 236.375Z" fill="#84BCB9"/>
<path d="M1086.7 235.712L1085.88 234.289L1085.05 235.712L1086.7 235.712Z" fill="#A8D6D7"/>
<path d="M1086.69 235.714L1085.87 234.289L1087.52 234.292L1086.69 235.714Z" fill="#A8D6D7"/>
<path d="M1084.23 234.285L1085.88 234.289L1085.06 232.864L1084.23 234.285Z" fill="#A8D6D7"/>
<path d="M1087.52 234.281L1085.88 234.289L1086.69 232.862L1087.52 234.281Z" fill="#A8D6D7"/>
<path d="M1086.7 232.866L1085.88 234.289L1085.05 232.866L1086.7 232.866Z" fill="#A8D6D7"/>
<path d="M1085.06 235.717L1085.88 234.29L1084.23 234.298L1085.06 235.717Z" fill="#A8D6D7"/>
<path d="M1058.39 155.544L1066.32 172.223L1056.75 175.504L1058.39 155.544Z" fill="#558B87"/>
<path d="M1058.39 155.546L1071.78 170.037L1066.32 172.224L1058.39 155.546Z" fill="#84BCB9"/>
<path d="M1026.37 145.748L1029.31 143.189L1032.43 148.073L1029.21 146.872L1026.37 145.748Z" fill="#B9DCD9"/>
<path d="M1029.31 143.189L1030.95 141.615L1031.57 144.551L1032.43 148.074L1029.31 143.189Z" fill="#CAEDEB"/>
<path d="M1024.06 138.373L1029.31 143.189L1026.37 145.748L1024.06 138.373Z" fill="#BDEDE9"/>
<path d="M1024.06 138.373L1030.95 141.615L1029.31 143.189L1024.06 138.373Z" fill="#E2F5F4"/>
<path d="M1045.54 124.508L1047.17 123.949L1047.63 126.466L1046.51 125.441L1045.54 124.508Z" fill="#B9DCD9"/>
<path d="M1047.17 123.949L1048.1 123.576L1047.87 124.881L1047.63 126.466L1047.17 123.949Z" fill="#CAEDEB"/>
<path d="M1045.82 121.106L1047.17 123.949L1045.54 124.509L1045.82 121.106Z" fill="#BDEDE9"/>
<path d="M1045.82 121.106L1048.1 123.576L1047.17 123.949L1045.82 121.106Z" fill="#E2F5F4"/>
<path d="M1055.64 139.784L1057.36 139.909L1056.8 142.407L1056.17 141.025L1055.64 139.784Z" fill="#B9DCD9"/>
<path d="M1057.36 139.909L1058.36 139.932L1057.63 141.041L1056.8 142.407L1057.36 139.909Z" fill="#CAEDEB"/>
<path d="M1057.23 136.764L1057.36 139.909L1055.64 139.784L1057.23 136.764Z" fill="#BDEDE9"/>
<path d="M1057.23 136.763L1058.36 139.931L1057.36 139.909L1057.23 136.763Z" fill="#E2F5F4"/>
<path d="M1042.25 142.216L1043.3 140.85L1045.08 142.694L1043.58 142.455L1042.25 142.216Z" fill="#B9DCD9"/>
<path d="M1043.3 140.852L1043.88 140.028L1044.4 141.245L1045.08 142.696L1043.3 140.852Z" fill="#CAEDEB"/>
<path d="M1040.61 139.224L1043.3 140.852L1042.25 142.217L1040.61 139.224Z" fill="#BDEDE9"/>
<path d="M1040.61 139.225L1043.88 140.028L1043.3 140.853L1040.61 139.225Z" fill="#E2F5F4"/>
<path d="M1069.89 128.816L1074.22 129.636L1072.08 135.827L1070.88 132.129L1069.89 128.816Z" fill="#B9DCD9"/>
<path d="M1074.23 129.637L1076.77 129.987L1074.6 132.597L1072.08 135.829L1074.23 129.637Z" fill="#CAEDEB"/>
<path d="M1074.81 121.6L1074.22 129.638L1069.88 128.818L1074.81 121.6Z" fill="#BDEDE9"/>
<path d="M1074.81 121.596L1076.77 129.984L1074.22 129.634L1074.81 121.596Z" fill="#E2F5F4"/>
<path d="M1074.48 152.498L1077.29 153.029L1075.9 157.033L1075.13 154.641L1074.48 152.498Z" fill="#B9DCD9"/>
<path d="M1077.29 153.029L1078.94 153.255L1077.53 154.943L1075.9 157.034L1077.29 153.029Z" fill="#CAEDEB"/>
<path d="M1077.67 147.829L1077.29 153.029L1074.48 152.498L1077.67 147.829Z" fill="#BDEDE9"/>
<path d="M1077.67 147.829L1078.93 153.254L1077.28 153.028L1077.67 147.829Z" fill="#E2F5F4"/>
<path d="M1030.24 178.555L1030.95 175.789L1034.86 177.431L1032.42 178.047L1030.24 178.555Z" fill="#B9DCD9"/>
<path d="M1030.95 175.787L1031.28 174.158L1032.88 175.666L1034.86 177.429L1030.95 175.787Z" fill="#CAEDEB"/>
<path d="M1025.79 175.076L1030.95 175.788L1030.24 178.555L1025.79 175.076Z" fill="#BDEDE9"/>
<path d="M1025.78 175.076L1031.28 174.159L1030.95 175.788L1025.78 175.076Z" fill="#E2F5F4"/>
<path d="M1037.81 162.141L1038.99 160.51L1041.13 162.595L1039.37 162.37L1037.81 162.141Z" fill="#B9DCD9"/>
<path d="M1038.99 160.508L1039.63 159.525L1040.29 160.926L1041.13 162.593L1038.99 160.508Z" fill="#CAEDEB"/>
<path d="M1035.79 158.709L1038.99 160.51L1037.81 162.141L1035.79 158.709Z" fill="#BDEDE9"/>
<path d="M1035.79 158.71L1039.63 159.528L1038.99 160.51L1035.79 158.71Z" fill="#E2F5F4"/>
<path d="M1092.42 156.119L1095.04 157.121L1093 160.752L1092.67 158.304L1092.42 156.119Z" fill="#B9DCD9"/>
<path d="M1095.04 157.123L1096.59 157.629L1094.94 159.017L1093 160.754L1095.04 157.123Z" fill="#CAEDEB"/>
<path d="M1096.32 152.162L1095.04 157.124L1092.42 156.121L1096.32 152.162Z" fill="#BDEDE9"/>
<path d="M1096.31 152.158L1096.59 157.626L1095.04 157.12L1096.31 152.158Z" fill="#E2F5F4"/>
<path d="M1110.87 277.861L1134.61 286.721L1106.61 332.082L1107.32 335.981L1098.11 365.749L1087.83 370.002L1065.5 411.465L1029 408.275L1054.52 389.493L1058.77 370.002L1093.85 321.096V309.047L1110.87 277.861Z" fill="#282F27"/>
<path d="M1089.5 280L1093.85 309.402V321.096L1058.77 370.002L1054.52 389.493L1029 408.275L1023.33 379.57L1035.74 356.889L1050.62 332.082L1072.95 311.882V298.416L1089.5 280Z" fill="#15201C"/>
<path d="M1138.15 231.791L1150.56 238.524L1135.32 251.282L1121.5 249.51L1138.15 231.791Z" fill="#3E5246"/>
<path d="M1150.56 238.525L1156.58 286.722L1155.52 295.227L1153.04 302.315L1156.58 308.694V317.908L1162.61 323.932L1117.24 340.589L1107.32 336.336L1106.61 332.083L1134.61 286.722L1135.32 251.283L1150.56 238.525Z" fill="#545A58"/>
<path d="M1155.52 295.227L1178.2 340.942L1237.03 399.77L1220.72 417.135L1213.28 466.041L1187.77 390.556L1165.09 355.472L1162.25 323.577L1155.52 316.844V307.63L1153.04 302.314L1155.52 295.227Z" fill="#77867F"/>
<path d="M1117.24 340.234L1162.61 323.578L1165.44 352.992H1154.81L1122.56 396.582L1117.24 395.519V340.234Z" fill="#726F68"/>
<path d="M1154.81 352.636H1165.44L1188.48 390.555L1168.63 416.425L1119.02 419.26L1122.56 396.58L1154.81 352.636Z" fill="#3E453D"/>
<path d="M1119.01 419.261L1168.63 416.426L1178.91 472.064L1100.23 463.559L1119.01 419.261Z" fill="#182018"/>
<path d="M1168.63 416.426L1188.48 390.556L1213.28 466.04L1178.91 472.064L1168.63 416.426Z" fill="#6B645C"/>
<path d="M1107.32 335.981L1117.24 340.234V395.518L1122.56 396.581L1119.02 419.617L1100.23 463.56L1106.26 370.003L1098.11 365.75L1107.32 335.981Z" fill="#1E201D"/>
<path d="M1094.92 376.027L1106.61 370.002L1101.3 451.511L1078.97 452.22L1094.92 376.027Z" fill="#202624"/>
<path d="M1087.83 370.002L1094.92 376.027L1078.97 452.22L1076.49 430.956L1065.5 411.465L1087.83 370.002Z" fill="#1D1F1C"/>
<path d="M1087.83 370.003L1098.11 365.75L1106.61 370.003L1094.92 376.027L1087.83 370.003Z" fill="#293430"/>
<path d="M1121.5 249.51L1135.32 251.282L1134.61 286.72L1111 281.5L1107.5 269L1121.5 249.51Z" fill="#1D2120"/>
<path d="M792.5 430.254L859.37 412.194L910.414 430.254L960.214 412.194L1000.05 401.925L1024.95 393.072L1031.59 421.755L1074.34 424.942L1087.2 444.418L1090.11 465.665L1116.25 464.956L1115.01 476.996L1068.11 484.787L1024.95 476.996L989.679 473.455L960.214 484.787L936.559 465.665H875.555L855.635 484.787L827 479.829L792.5 430.254Z" fill="#38433F"/>
<path d="M792.5 430.949L859.395 398.725L910.48 416.785L960.318 398.725L1000.19 388.456L1025.11 379.604L1031.75 408.286L1074.53 411.473L1087.41 430.949L1090.31 452.196L1116.48 451.488L1115.23 463.527L1116.89 464.944L1068.3 471.318L1025.11 463.527L989.806 459.986L960.318 471.318L936.645 452.196H875.593L855.657 471.318L827 466.36L792.5 430.949Z" fill="#60716B"/>
<path d="M1052.34 427.491L1064.39 408L1075.73 427.491L1080.66 448.754L1101.5 449L1116 465L1099.5 467.5L1087.42 452.653L1058.01 462.221L1026.11 448.754L1013 429.618L1052.34 427.491Z" fill="#364131"/>
<path d="M1230.74 400.478L1311.54 425.993L1364.7 404.73L1421.76 417.842L1468.18 443.358H1589.03L1577.69 521.323L1626.59 557.471L1705.62 633.309L1817.25 645.358L1919.67 673.355V800.225L1859.07 731.474L1752.4 702.06L1745.67 681.151V702.06H1632.62L1594.7 672.646L1586.9 600.706L1539.41 579.797L1494.41 521.323H1415.02L1352.65 475.962L1279.65 481.278L1207 466.748L1189 451L1193.5 418.5L1230.74 400.478Z" fill="#47524E"/>
<path d="M1256.26 383.115L1311.54 401.189L1364.7 379.926L1421.76 393.038L1468.18 418.554L1563.51 427.414L1628.37 461.08L1647.15 520.617L1685.78 537.982L1704.56 577.319L1735.39 597.519L1766.22 584.407L1840.29 597.519L1893.45 642.88L1919.67 654.575V766.207L1864.39 713.049L1746.73 682.572H1639.71L1603.91 634.375L1587.97 577.319L1559.61 570.585L1553.94 556.764L1494.41 496.519L1424.59 492.975L1352.65 451.157L1278.94 456.119L1207 441.943L1192.5 419L1220.47 389.14L1256.26 383.115Z" fill="#7C978D"/>
<path d="M1494.41 496.517L1628.37 461.433L1649.93 522.387L1606.75 531.247L1564.93 522.387L1537.29 541.169L1494.41 496.517Z" fill="#596F67"/>
<path d="M1627.66 579.798L1658.84 581.57L1676.92 568.103L1685.78 537.98L1704.56 577.317L1679.4 584.759L1662.74 599.644H1635.45L1603.91 633.31L1595.41 604.251L1609.58 597.163L1627.66 579.798Z" fill="#5D7069"/>
<path d="M1267.49 403.102L1258.42 424.144L1244.36 406.518L1239.15 385.793L1219.35 391.351L1221.12 383.334L1229.11 383.334L1256.81 369.573L1290.33 378.237L1311.5 403.102L1267.49 403.102Z" fill="#364131"/>
<path d="M1479.25 3273.97L1957.5 3171L1927.72 2750.76L1455 2572.5L1080.5 2572.5L774 2681.55L366.198 2681.55L138.178 2861.37L-145.633 3038.1L-141.479 3196.89L276.218 3376.45L1479.25 3273.97Z" fill="#0D1414"/>
<path d="M1880.62 2694.96L1786.19 2630L1656.21 2637.94L1625.55 2733.74L1544 2753.84L1585.69 2856.64H1656.21L1734.69 2886.55L1880.62 2923L1945 2861.78L1880.62 2694.96Z" fill="#222B2B"/>
<path d="M1880.52 2652.96L1785.95 2588L1655.76 2595.94L1625.06 2691.74L1544 2755.76L1585.14 2814.64H1655.76L1734.37 2844.55L1880.52 2881L1945 2819.78L1880.52 2652.96Z" fill="#374242"/>
<path d="M799.447 2797.86L690.802 2747.32L564.85 2773.42L557.921 2871.86L482.568 2903.08L548.518 2998.23L617.886 2988.31L702.348 3006.65L854.75 3021.94L903.241 2952.73L799.447 2797.86Z" fill="#222B2B"/>
<path d="M776.109 2758.91L667.464 2708.37L541.511 2734.46L534.583 2832.91L470.486 2907.2L525.179 2959.28L594.547 2949.36L679.01 2967.7L831.411 2982.99L879.902 2913.78L776.109 2758.91Z" fill="#374242"/>
<path d="M1602.81 2852.4L1692.34 2783.48L1687.83 2684.17L1563.54 2656.48L1483.23 2591.96L1404.11 2620.55L1400.89 2674.22L1358.08 2732.6L1305.02 2790.43L1305.02 2840.42L1381 2893.82L1602.81 2852.4Z" fill="#273131"/>
<path d="M1602.81 2799.14L1692.34 2730.22L1687.83 2630.91L1563.54 2603.22L1483.23 2538.7L1404.11 2567.29L1400.89 2620.96L1358.08 2679.34L1303.61 2788.76L1381 2840.55L1602.81 2799.14Z" fill="#4E6060"/>
<path d="M971.125 2902.15L1094.6 2878.5L1158.32 2791.78L1070.85 2719.08L1046.06 2632.22L958.919 2625.48L919.649 2670.13L843.3 2703.18L758.561 2731.72L724.544 2774.49L753.204 2850.12L971.125 2902.15Z" fill="#273131"/>
<path d="M1007.37 2856.59L1130.84 2832.94L1194.57 2746.22L1107.09 2673.52L1082.3 2586.66L995.161 2579.92L955.891 2624.57L879.543 2657.62L758.493 2729.74L789.446 2804.56L1007.37 2856.59Z" fill="#4E6060"/>
<path d="M2004.5 2495.5L1543.48 2452L992.372 2560.41L446.5 2578L212.354 2660.01H-108L-70.5737 3010L146.678 2967.48L275 2957.2H403.82L502.626 2913.27L597.137 2762.34L749.949 2745.05L937.129 2660.01L1190.5 2745.05L1127.5 2834.5L1306.5 2787.5L1652 2700.19H1784.65L1927 2777.5L2004.5 2495.5Z" fill="#6A7D7D"/>
<path d="M1891.92 2456.31L1737.94 2476.7L1646.89 2446L1531.71 2476.7H1460.22L1404 2490.99V2521.92L1475.8 2559.41H1554.93L1614.94 2588L1706.92 2579.56L1744.96 2537.39H1780.1L1855.56 2566.91L1924 2539.96V2521.69L1891.92 2456.31Z" fill="#222B2B"/>
<path d="M1891.92 2424.27L1802.1 2417.03L1737.94 2444.57L1646.89 2414L1531.71 2444.57H1460.22L1404 2489.6L1475.8 2526.93H1554.93L1611.26 2554L1705.08 2544.67L1744.96 2505H1780.1L1855.56 2534.4L1924 2507.57L1891.92 2424.27Z" fill="#374242"/>
<path d="M-53.9201 2735.31L100.063 2755.7L191.109 2725L306.291 2755.7H377.784L434 2769.99V2800.92L362.202 2838.41H283.072L223.057 2867L131.075 2858.56L93.0364 2816.39H57.9013L-17.5629 2845.91L-86 2818.96V2800.69L-53.9201 2735.31Z" fill="#222B2B"/>
<path d="M-53.9201 2703.27L35.9036 2696.03L100.063 2723.57L191.109 2693L306.291 2723.57H377.784L434 2768.6L362.202 2805.93H283.072L226.736 2833L132.915 2823.67L93.0364 2784H57.9013L-17.5629 2813.4L-86 2786.57L-53.9201 2703.27Z" fill="#374242"/>
<path d="M-46.2127 2685.27L77.5664 2701.63L150.753 2677L243.342 2701.63H300.811L346 2713.09V2737.91L288.286 2767.98H224.677L156.647 2744.11L71.9177 2750.31H43.6745L-16.9871 2774L-72 2752.38V2737.72L-46.2127 2685.27Z" fill="#222B2B"/>
<path d="M-46.2127 2659.19L25.9918 2653.42L77.5664 2675.37L150.753 2651L243.342 2675.37H300.811L346 2711.28L288.286 2741.05H224.677L156.647 2717.42L71.9177 2723.56H43.6745L-16.9871 2747L-72 2725.6L-46.2127 2659.19Z" fill="#374242"/>
<path d="M-188.274 2611.33L-64.7914 2627.8L8.22034 2603L100.588 2627.8H157.919L203 2639.35V2664.34L145.424 2694.63H81.9671L4.925 2719L-70.4266 2676.83H-98.6022L-159.119 2700.68L-214 2678.91V2664.15L-188.274 2611.33Z" fill="#222B2B"/>
<path d="M-188.274 2586.27L-116.243 2580.44L-64.7914 2602.61L8.22034 2578L100.588 2602.61H157.919L203 2638.87L145.424 2668.93H81.9671L8.22034 2690L-70.4266 2651.27H-98.6022L-159.119 2674.94L-214 2653.34L-188.274 2586.27Z" fill="#374242"/>
<path d="M143.5 522L395.5 565.5L544.5 500L733 565.5H850L942 623V662L824.5 742H695L556.5 678.5L384 695H326.5L203 758L91 700.5V661.5L143.5 522Z" fill="#222B2B"/>
<path d="M143.5 483L290.5 467.5L395.5 526.5L544.5 461L733 526.5H850L942 623L824.5 703H695L556.5 639.5L384 656H326.5L203 719L91 661.5L143.5 483Z" fill="#374242"/>
<path d="M156.943 600V565H172.943C176.143 565 178.893 565.517 181.193 566.55C183.527 567.583 185.327 569.083 186.593 571.05C187.86 572.983 188.493 575.283 188.493 577.95C188.493 580.583 187.86 582.867 186.593 584.8C185.327 586.733 183.527 588.233 181.193 589.3C178.893 590.333 176.143 590.85 172.943 590.85H162.443L166.843 586.55V600H156.943ZM166.843 587.6L162.443 583.05H172.343C174.41 583.05 175.943 582.6 176.943 581.7C177.977 580.8 178.493 579.55 178.493 577.95C178.493 576.317 177.977 575.05 176.943 574.15C175.943 573.25 174.41 572.8 172.343 572.8H162.443L166.843 568.25V587.6ZM202.42 578.55H218.67V585.95H202.42V578.55ZM203.12 592.35H221.42V600H193.32V565H220.77V572.65H203.12V592.35ZM226.914 600V565H242.914C246.114 565 248.864 565.517 251.164 566.55C253.497 567.583 255.297 569.083 256.564 571.05C257.831 572.983 258.464 575.283 258.464 577.95C258.464 580.583 257.831 582.867 256.564 584.8C255.297 586.7 253.497 588.167 251.164 589.2C248.864 590.2 246.114 590.7 242.914 590.7H232.414L236.814 586.55V600H226.914ZM248.564 600L239.864 587.25H250.414L259.164 600H248.564ZM236.814 587.6L232.414 583.05H242.314C244.381 583.05 245.914 582.6 246.914 581.7C247.947 580.8 248.464 579.55 248.464 577.95C248.464 576.317 247.947 575.05 246.914 574.15C245.914 573.25 244.381 572.8 242.314 572.8H232.414L236.814 568.25V587.6ZM276.226 600.7C273.359 600.7 270.592 600.35 267.926 599.65C265.292 598.917 263.142 597.983 261.476 596.85L264.726 589.55C266.292 590.55 268.092 591.383 270.126 592.05C272.192 592.683 274.242 593 276.276 593C277.642 593 278.742 592.883 279.576 592.65C280.409 592.383 281.009 592.05 281.376 591.65C281.776 591.217 281.976 590.717 281.976 590.15C281.976 589.35 281.609 588.717 280.876 588.25C280.142 587.783 279.192 587.4 278.026 587.1C276.859 586.8 275.559 586.5 274.126 586.2C272.726 585.9 271.309 585.517 269.876 585.05C268.476 584.583 267.192 583.983 266.026 583.25C264.859 582.483 263.909 581.5 263.176 580.3C262.442 579.067 262.076 577.517 262.076 575.65C262.076 573.55 262.642 571.65 263.776 569.95C264.942 568.25 266.676 566.883 268.976 565.85C271.276 564.817 274.142 564.3 277.576 564.3C279.876 564.3 282.126 564.567 284.326 565.1C286.559 565.6 288.542 566.35 290.276 567.35L287.226 574.7C285.559 573.8 283.909 573.133 282.276 572.7C280.642 572.233 279.059 572 277.526 572C276.159 572 275.059 572.15 274.226 572.45C273.392 572.717 272.792 573.083 272.426 573.55C272.059 574.017 271.876 574.55 271.876 575.15C271.876 575.917 272.226 576.533 272.926 577C273.659 577.433 274.609 577.8 275.776 578.1C276.976 578.367 278.276 578.65 279.676 578.95C281.109 579.25 282.526 579.633 283.926 580.1C285.359 580.533 286.659 581.133 287.826 581.9C288.992 582.633 289.926 583.617 290.626 584.85C291.359 586.05 291.726 587.567 291.726 589.4C291.726 591.433 291.142 593.317 289.976 595.05C288.842 596.75 287.126 598.117 284.826 599.15C282.559 600.183 279.692 600.7 276.226 600.7ZM313.949 600.7C311.149 600.7 308.565 600.25 306.199 599.35C303.832 598.45 301.765 597.183 299.999 595.55C298.265 593.883 296.915 591.95 295.949 589.75C294.982 587.55 294.499 585.133 294.499 582.5C294.499 579.867 294.982 577.45 295.949 575.25C296.915 573.05 298.265 571.133 299.999 569.5C301.765 567.833 303.832 566.55 306.199 565.65C308.565 564.75 311.149 564.3 313.949 564.3C316.782 564.3 319.365 564.75 321.699 565.65C324.065 566.55 326.115 567.833 327.849 569.5C329.582 571.133 330.932 573.05 331.899 575.25C332.899 577.45 333.399 579.867 333.399 582.5C333.399 585.133 332.899 587.567 331.899 589.8C330.932 592 329.582 593.917 327.849 595.55C326.115 597.183 324.065 598.45 321.699 599.35C319.365 600.25 316.782 600.7 313.949 600.7ZM313.949 592.5C315.282 592.5 316.515 592.267 317.649 591.8C318.815 591.333 319.815 590.667 320.649 589.8C321.515 588.9 322.182 587.833 322.649 586.6C323.149 585.367 323.399 584 323.399 582.5C323.399 580.967 323.149 579.6 322.649 578.4C322.182 577.167 321.515 576.117 320.649 575.25C319.815 574.35 318.815 573.667 317.649 573.2C316.515 572.733 315.282 572.5 313.949 572.5C312.615 572.5 311.365 572.733 310.199 573.2C309.065 573.667 308.065 574.35 307.199 575.25C306.365 576.117 305.699 577.167 305.199 578.4C304.732 579.6 304.499 580.967 304.499 582.5C304.499 584 304.732 585.367 305.199 586.6C305.699 587.833 306.365 588.9 307.199 589.8C308.065 590.667 309.065 591.333 310.199 591.8C311.365 592.267 312.615 592.5 313.949 592.5ZM338.584 600V565H346.734L366.034 588.3H362.184V565H371.884V600H363.734L344.434 576.7H348.284V600H338.584ZM374.667 600L390.117 565H399.867L415.367 600H405.067L392.967 569.85H396.867L384.767 600H374.667ZM383.117 593.2L385.667 585.9H402.767L405.317 593.2H383.117ZM418.174 600V565H428.074V592.15H444.774V600H418.174ZM463.242 600V565H473.142V600H463.242ZM480.186 600V565H488.336L507.636 588.3H503.786V565H513.486V600H505.336L486.036 576.7H489.886V600H480.186ZM529.669 580.35H545.819V588H529.669V580.35ZM530.369 600H520.469V565H547.919V572.65H530.369V600ZM569.906 600.7C567.106 600.7 564.523 600.25 562.156 599.35C559.789 598.45 557.723 597.183 555.956 595.55C554.223 593.883 552.873 591.95 551.906 589.75C550.939 587.55 550.456 585.133 550.456 582.5C550.456 579.867 550.939 577.45 551.906 575.25C552.873 573.05 554.223 571.133 555.956 569.5C557.723 567.833 559.789 566.55 562.156 565.65C564.523 564.75 567.106 564.3 569.906 564.3C572.739 564.3 575.323 564.75 577.656 565.65C580.023 566.55 582.073 567.833 583.806 569.5C585.539 571.133 586.889 573.05 587.856 575.25C588.856 577.45 589.356 579.867 589.356 582.5C589.356 585.133 588.856 587.567 587.856 589.8C586.889 592 585.539 593.917 583.806 595.55C582.073 597.183 580.023 598.45 577.656 599.35C575.323 600.25 572.739 600.7 569.906 600.7ZM569.906 592.5C571.239 592.5 572.473 592.267 573.606 591.8C574.773 591.333 575.773 590.667 576.606 589.8C577.473 588.9 578.139 587.833 578.606 586.6C579.106 585.367 579.356 584 579.356 582.5C579.356 580.967 579.106 579.6 578.606 578.4C578.139 577.167 577.473 576.117 576.606 575.25C575.773 574.35 574.773 573.667 573.606 573.2C572.473 572.733 571.239 572.5 569.906 572.5C568.573 572.5 567.323 572.733 566.156 573.2C565.023 573.667 564.023 574.35 563.156 575.25C562.323 576.117 561.656 577.167 561.156 578.4C560.689 579.6 560.456 580.967 560.456 582.5C560.456 584 560.689 585.367 561.156 586.6C561.656 587.833 562.323 588.9 563.156 589.8C564.023 590.667 565.023 591.333 566.156 591.8C567.323 592.267 568.573 592.5 569.906 592.5ZM594.541 600V565H610.541C613.741 565 616.491 565.517 618.791 566.55C621.124 567.583 622.924 569.083 624.191 571.05C625.458 572.983 626.091 575.283 626.091 577.95C626.091 580.583 625.458 582.867 624.191 584.8C622.924 586.7 621.124 588.167 618.791 589.2C616.491 590.2 613.741 590.7 610.541 590.7H600.041L604.441 586.55V600H594.541ZM616.191 600L607.491 587.25H618.041L626.791 600H616.191ZM604.441 587.6L600.041 583.05H609.941C612.008 583.05 613.541 582.6 614.541 581.7C615.574 580.8 616.091 579.55 616.091 577.95C616.091 576.317 615.574 575.05 614.541 574.15C613.541 573.25 612.008 572.8 609.941 572.8H600.041L604.441 568.25V587.6ZM631.553 600V565H639.703L654.203 588.8H649.903L664.003 565H672.153L672.253 600H663.153L663.053 578.85H664.603L654.053 596.55H649.653L638.803 578.85H640.703V600H631.553ZM675.058 600L690.508 565H700.258L715.758 600H705.458L693.358 569.85H697.258L685.158 600H675.058ZM683.508 593.2L686.058 585.9H703.158L705.708 593.2H683.508ZM724.257 600V572.85H713.507V565H744.857V572.85H734.157V600H724.257ZM748.545 600V565H758.445V600H748.545ZM783.138 600.7C780.338 600.7 777.755 600.25 775.388 599.35C773.022 598.45 770.955 597.183 769.188 595.55C767.455 593.883 766.105 591.95 765.138 589.75C764.172 587.55 763.688 585.133 763.688 582.5C763.688 579.867 764.172 577.45 765.138 575.25C766.105 573.05 767.455 571.133 769.188 569.5C770.955 567.833 773.022 566.55 775.388 565.65C777.755 564.75 780.338 564.3 783.138 564.3C785.972 564.3 788.555 564.75 790.888 565.65C793.255 566.55 795.305 567.833 797.038 569.5C798.772 571.133 800.122 573.05 801.088 575.25C802.088 577.45 802.588 579.867 802.588 582.5C802.588 585.133 802.088 587.567 801.088 589.8C800.122 592 798.772 593.917 797.038 595.55C795.305 597.183 793.255 598.45 790.888 599.35C788.555 600.25 785.972 600.7 783.138 600.7ZM783.138 592.5C784.472 592.5 785.705 592.267 786.838 591.8C788.005 591.333 789.005 590.667 789.838 589.8C790.705 588.9 791.372 587.833 791.838 586.6C792.338 585.367 792.588 584 792.588 582.5C792.588 580.967 792.338 579.6 791.838 578.4C791.372 577.167 790.705 576.117 789.838 575.25C789.005 574.35 788.005 573.667 786.838 573.2C785.705 572.733 784.472 572.5 783.138 572.5C781.805 572.5 780.555 572.733 779.388 573.2C778.255 573.667 777.255 574.35 776.388 575.25C775.555 576.117 774.888 577.167 774.388 578.4C773.922 579.6 773.688 580.967 773.688 582.5C773.688 584 773.922 585.367 774.388 586.6C774.888 587.833 775.555 588.9 776.388 589.8C777.255 590.667 778.255 591.333 779.388 591.8C780.555 592.267 781.805 592.5 783.138 592.5ZM807.773 600V565H815.923L835.223 588.3H831.373V565H841.073V600H832.923L813.623 576.7H817.473V600H807.773Z" fill="#B7D6D6"/>
<defs>
<filter id="filter0_f_2740_2226" x="558.122" y="303.817" width="15.6079" height="15.6075" filterUnits="userSpaceOnUse" color-interpolation-filters="sRGB">
<feFlood flood-opacity="0" result="BackgroundImageFix"/>
<feBlend mode="normal" in="SourceGraphic" in2="BackgroundImageFix" result="shape"/>
<feGaussianBlur stdDeviation="2.21022" result="effect1_foregroundBlur_2740_2226"/>
</filter>
<filter id="filter1_f_2740_2226" x="560.084" y="305.832" width="12.0255" height="12.0255" filterUnits="userSpaceOnUse" color-interpolation-filters="sRGB">
<feFlood flood-opacity="0" result="BackgroundImageFix"/>
<feBlend mode="normal" in="SourceGraphic" in2="BackgroundImageFix" result="shape"/>
<feGaussianBlur stdDeviation="2.21022" result="effect1_foregroundBlur_2740_2226"/>
</filter>
<filter id="filter2_f_2740_2226" x="553.714" y="299.462" width="24.7634" height="24.7637" filterUnits="userSpaceOnUse" color-interpolation-filters="sRGB">
<feFlood flood-opacity="0" result="BackgroundImageFix"/>
<feBlend mode="normal" in="SourceGraphic" in2="BackgroundImageFix" result="shape"/>
<feGaussianBlur stdDeviation="2.21022" result="effect1_foregroundBlur_2740_2226"/>
</filter>
<filter id="filter3_f_2740_2226" x="555.332" y="301.032" width="21.1807" height="21.1807" filterUnits="userSpaceOnUse" color-interpolation-filters="sRGB">
<feFlood flood-opacity="0" result="BackgroundImageFix"/>
<feBlend mode="normal" in="SourceGraphic" in2="BackgroundImageFix" result="shape"/>
<feGaussianBlur stdDeviation="2.21022" result="effect1_foregroundBlur_2740_2226"/>
</filter>
<filter id="filter4_f_2740_2226" x="489.663" y="156.681" width="14.0567" height="14.0567" filterUnits="userSpaceOnUse" color-interpolation-filters="sRGB">
<feFlood flood-opacity="0" result="BackgroundImageFix"/>
<feBlend mode="normal" in="SourceGraphic" in2="BackgroundImageFix" result="shape"/>
<feGaussianBlur stdDeviation="2.21022" result="effect1_foregroundBlur_2740_2226"/>
</filter>
<filter id="filter5_f_2740_2226" x="491.175" y="158.235" width="11.2954" height="11.296" filterUnits="userSpaceOnUse" color-interpolation-filters="sRGB">
<feFlood flood-opacity="0" result="BackgroundImageFix"/>
<feBlend mode="normal" in="SourceGraphic" in2="BackgroundImageFix" result="shape"/>
<feGaussianBlur stdDeviation="2.21022" result="effect1_foregroundBlur_2740_2226"/>
</filter>
<filter id="filter6_f_2740_2226" x="486.263" y="153.326" width="21.1132" height="21.1133" filterUnits="userSpaceOnUse" color-interpolation-filters="sRGB">
<feFlood flood-opacity="0" result="BackgroundImageFix"/>
<feBlend mode="normal" in="SourceGraphic" in2="BackgroundImageFix" result="shape"/>
<feGaussianBlur stdDeviation="2.21022" result="effect1_foregroundBlur_2740_2226"/>
</filter>
<filter id="filter7_f_2740_2226" x="487.505" y="154.534" width="18.352" height="18.3526" filterUnits="userSpaceOnUse" color-interpolation-filters="sRGB">
<feFlood flood-opacity="0" result="BackgroundImageFix"/>
<feBlend mode="normal" in="SourceGraphic" in2="BackgroundImageFix" result="shape"/>
<feGaussianBlur stdDeviation="2.21022" result="effect1_foregroundBlur_2740_2226"/>
</filter>
<filter id="filter8_f_2740_2226" x="568.875" y="219.085" width="13.3541" height="13.3546" filterUnits="userSpaceOnUse" color-interpolation-filters="sRGB">
<feFlood flood-opacity="0" result="BackgroundImageFix"/>
<feBlend mode="normal" in="SourceGraphic" in2="BackgroundImageFix" result="shape"/>
<feGaussianBlur stdDeviation="2.21022" result="effect1_foregroundBlur_2740_2226"/>
</filter>
<filter id="filter9_f_2740_2226" x="570.181" y="220.43" width="10.9647" height="10.9649" filterUnits="userSpaceOnUse" color-interpolation-filters="sRGB">
<feFlood flood-opacity="0" result="BackgroundImageFix"/>
<feBlend mode="normal" in="SourceGraphic" in2="BackgroundImageFix" result="shape"/>
<feGaussianBlur stdDeviation="2.21022" result="effect1_foregroundBlur_2740_2226"/>
</filter>
<filter id="filter10_f_2740_2226" x="565.935" y="216.182" width="19.4603" height="19.46" filterUnits="userSpaceOnUse" color-interpolation-filters="sRGB">
<feFlood flood-opacity="0" result="BackgroundImageFix"/>
<feBlend mode="normal" in="SourceGraphic" in2="BackgroundImageFix" result="shape"/>
<feGaussianBlur stdDeviation="2.21022" result="effect1_foregroundBlur_2740_2226"/>
</filter>
<filter id="filter11_f_2740_2226" x="567.014" y="217.227" width="17.0709" height="17.0704" filterUnits="userSpaceOnUse" color-interpolation-filters="sRGB">
<feFlood flood-opacity="0" result="BackgroundImageFix"/>
<feBlend mode="normal" in="SourceGraphic" in2="BackgroundImageFix" result="shape"/>
<feGaussianBlur stdDeviation="2.21022" result="effect1_foregroundBlur_2740_2226"/>
</filter>
<filter id="filter12_f_2740_2226" x="490.88" y="252.693" width="13.3541" height="13.3546" filterUnits="userSpaceOnUse" color-interpolation-filters="sRGB">
<feFlood flood-opacity="0" result="BackgroundImageFix"/>
<feBlend mode="normal" in="SourceGraphic" in2="BackgroundImageFix" result="shape"/>
<feGaussianBlur stdDeviation="2.21022" result="effect1_foregroundBlur_2740_2226"/>
</filter>
<filter id="filter13_f_2740_2226" x="492.185" y="254.038" width="10.9647" height="10.9649" filterUnits="userSpaceOnUse" color-interpolation-filters="sRGB">
<feFlood flood-opacity="0" result="BackgroundImageFix"/>
<feBlend mode="normal" in="SourceGraphic" in2="BackgroundImageFix" result="shape"/>
<feGaussianBlur stdDeviation="2.21022" result="effect1_foregroundBlur_2740_2226"/>
</filter>
<filter id="filter14_f_2740_2226" x="487.939" y="249.79" width="19.4603" height="19.46" filterUnits="userSpaceOnUse" color-interpolation-filters="sRGB">
<feFlood flood-opacity="0" result="BackgroundImageFix"/>
<feBlend mode="normal" in="SourceGraphic" in2="BackgroundImageFix" result="shape"/>
<feGaussianBlur stdDeviation="2.21022" result="effect1_foregroundBlur_2740_2226"/>
</filter>
<filter id="filter15_f_2740_2226" x="489.018" y="250.834" width="17.0709" height="17.0704" filterUnits="userSpaceOnUse" color-interpolation-filters="sRGB">
<feFlood flood-opacity="0" result="BackgroundImageFix"/>
<feBlend mode="normal" in="SourceGraphic" in2="BackgroundImageFix" result="shape"/>
<feGaussianBlur stdDeviation="2.21022" result="effect1_foregroundBlur_2740_2226"/>
</filter>
<filter id="filter16_f_2740_2226" x="708.286" y="337.591" width="15.0396" height="15.0401" filterUnits="userSpaceOnUse" color-interpolation-filters="sRGB">
<feFlood flood-opacity="0" result="BackgroundImageFix"/>
<feBlend mode="normal" in="SourceGraphic" in2="BackgroundImageFix" result="shape"/>
<feGaussianBlur stdDeviation="2.21022" result="effect1_foregroundBlur_2740_2226"/>
</filter>
<filter id="filter17_f_2740_2226" x="710.082" y="339.44" width="11.7579" height="11.7579" filterUnits="userSpaceOnUse" color-interpolation-filters="sRGB">
<feFlood flood-opacity="0" result="BackgroundImageFix"/>
<feBlend mode="normal" in="SourceGraphic" in2="BackgroundImageFix" result="shape"/>
<feGaussianBlur stdDeviation="2.21022" result="effect1_foregroundBlur_2740_2226"/>
</filter>
<filter id="filter18_f_2740_2226" x="704.245" y="333.604" width="23.426" height="23.4258" filterUnits="userSpaceOnUse" color-interpolation-filters="sRGB">
<feFlood flood-opacity="0" result="BackgroundImageFix"/>
<feBlend mode="normal" in="SourceGraphic" in2="BackgroundImageFix" result="shape"/>
<feGaussianBlur stdDeviation="2.21022" result="effect1_foregroundBlur_2740_2226"/>
</filter>
<filter id="filter19_f_2740_2226" x="705.721" y="335.04" width="20.1445" height="20.1446" filterUnits="userSpaceOnUse" color-interpolation-filters="sRGB">
<feFlood flood-opacity="0" result="BackgroundImageFix"/>
<feBlend mode="normal" in="SourceGraphic" in2="BackgroundImageFix" result="shape"/>
<feGaussianBlur stdDeviation="2.21022" result="effect1_foregroundBlur_2740_2226"/>
</filter>
<filter id="filter20_f_2740_2226" x="679.372" y="209.901" width="15.1105" height="15.1104" filterUnits="userSpaceOnUse" color-interpolation-filters="sRGB">
<feFlood flood-opacity="0" result="BackgroundImageFix"/>
<feBlend mode="normal" in="SourceGraphic" in2="BackgroundImageFix" result="shape"/>
<feGaussianBlur stdDeviation="2.21022" result="effect1_foregroundBlur_2740_2226"/>
</filter>
<filter id="filter21_f_2740_2226" x="681.186" y="211.766" width="11.7913" height="11.7921" filterUnits="userSpaceOnUse" color-interpolation-filters="sRGB">
<feFlood flood-opacity="0" result="BackgroundImageFix"/>
<feBlend mode="normal" in="SourceGraphic" in2="BackgroundImageFix" result="shape"/>
<feGaussianBlur stdDeviation="2.21022" result="effect1_foregroundBlur_2740_2226"/>
</filter>
<filter id="filter22_f_2740_2226" x="675.287" y="205.867" width="23.593" height="23.5928" filterUnits="userSpaceOnUse" color-interpolation-filters="sRGB">
<feFlood flood-opacity="0" result="BackgroundImageFix"/>
<feBlend mode="normal" in="SourceGraphic" in2="BackgroundImageFix" result="shape"/>
<feGaussianBlur stdDeviation="2.21022" result="effect1_foregroundBlur_2740_2226"/>
</filter>
<filter id="filter23_f_2740_2226" x="676.787" y="207.318" width="20.2737" height="20.2735" filterUnits="userSpaceOnUse" color-interpolation-filters="sRGB">
<feFlood flood-opacity="0" result="BackgroundImageFix"/>
<feBlend mode="normal" in="SourceGraphic" in2="BackgroundImageFix" result="shape"/>
<feGaussianBlur stdDeviation="2.21022" result="effect1_foregroundBlur_2740_2226"/>
</filter>
<filter id="filter24_f_2740_2226" x="830.984" y="140.524" width="14.0567" height="14.0567" filterUnits="userSpaceOnUse" color-interpolation-filters="sRGB">
<feFlood flood-opacity="0" result="BackgroundImageFix"/>
<feBlend mode="normal" in="SourceGraphic" in2="BackgroundImageFix" result="shape"/>
<feGaussianBlur stdDeviation="2.21022" result="effect1_foregroundBlur_2740_2226"/>
</filter>
<filter id="filter25_f_2740_2226" x="832.495" y="142.077" width="11.2954" height="11.296" filterUnits="userSpaceOnUse" color-interpolation-filters="sRGB">
<feFlood flood-opacity="0" result="BackgroundImageFix"/>
<feBlend mode="normal" in="SourceGraphic" in2="BackgroundImageFix" result="shape"/>
<feGaussianBlur stdDeviation="2.21022" result="effect1_foregroundBlur_2740_2226"/>
</filter>
<filter id="filter26_f_2740_2226" x="827.583" y="137.167" width="21.1132" height="21.1133" filterUnits="userSpaceOnUse" color-interpolation-filters="sRGB">
<feFlood flood-opacity="0" result="BackgroundImageFix"/>
<feBlend mode="normal" in="SourceGraphic" in2="BackgroundImageFix" result="shape"/>
<feGaussianBlur stdDeviation="2.21022" result="effect1_foregroundBlur_2740_2226"/>
</filter>
<filter id="filter27_f_2740_2226" x="828.825" y="138.375" width="18.352" height="18.3526" filterUnits="userSpaceOnUse" color-interpolation-filters="sRGB">
<feFlood flood-opacity="0" result="BackgroundImageFix"/>
<feBlend mode="normal" in="SourceGraphic" in2="BackgroundImageFix" result="shape"/>
<feGaussianBlur stdDeviation="2.21022" result="effect1_foregroundBlur_2740_2226"/>
</filter>
<filter id="filter28_f_2740_2226" x="968.335" y="235.231" width="14.0567" height="14.0567" filterUnits="userSpaceOnUse" color-interpolation-filters="sRGB">
<feFlood flood-opacity="0" result="BackgroundImageFix"/>
<feBlend mode="normal" in="SourceGraphic" in2="BackgroundImageFix" result="shape"/>
<feGaussianBlur stdDeviation="2.21022" result="effect1_foregroundBlur_2740_2226"/>
</filter>
<filter id="filter29_f_2740_2226" x="969.847" y="236.784" width="11.2954" height="11.296" filterUnits="userSpaceOnUse" color-interpolation-filters="sRGB">
<feFlood flood-opacity="0" result="BackgroundImageFix"/>
<feBlend mode="normal" in="SourceGraphic" in2="BackgroundImageFix" result="shape"/>
<feGaussianBlur stdDeviation="2.21022" result="effect1_foregroundBlur_2740_2226"/>
</filter>
<filter id="filter30_f_2740_2226" x="964.935" y="231.874" width="21.1132" height="21.1133" filterUnits="userSpaceOnUse" color-interpolation-filters="sRGB">
<feFlood flood-opacity="0" result="BackgroundImageFix"/>
<feBlend mode="normal" in="SourceGraphic" in2="BackgroundImageFix" result="shape"/>
<feGaussianBlur stdDeviation="2.21022" result="effect1_foregroundBlur_2740_2226"/>
</filter>
<filter id="filter31_f_2740_2226" x="966.177" y="233.082" width="18.352" height="18.3526" filterUnits="userSpaceOnUse" color-interpolation-filters="sRGB">
<feFlood flood-opacity="0" result="BackgroundImageFix"/>
<feBlend mode="normal" in="SourceGraphic" in2="BackgroundImageFix" result="shape"/>
<feGaussianBlur stdDeviation="2.21022" result="effect1_foregroundBlur_2740_2226"/>
</filter>
<filter id="filter32_f_2740_2226" x="1117.63" y="130.361" width="14.0567" height="14.0567" filterUnits="userSpaceOnUse" color-interpolation-filters="sRGB">
<feFlood flood-opacity="0" result="BackgroundImageFix"/>
<feBlend mode="normal" in="SourceGraphic" in2="BackgroundImageFix" result="shape"/>
<feGaussianBlur stdDeviation="2.21022" result="effect1_foregroundBlur_2740_2226"/>
</filter>
<filter id="filter33_f_2740_2226" x="1119.14" y="131.914" width="11.2954" height="11.296" filterUnits="userSpaceOnUse" color-interpolation-filters="sRGB">
<feFlood flood-opacity="0" result="BackgroundImageFix"/>
<feBlend mode="normal" in="SourceGraphic" in2="BackgroundImageFix" result="shape"/>
<feGaussianBlur stdDeviation="2.21022" result="effect1_foregroundBlur_2740_2226"/>
</filter>
<filter id="filter34_f_2740_2226" x="1114.23" y="127.004" width="21.1132" height="21.1133" filterUnits="userSpaceOnUse" color-interpolation-filters="sRGB">
<feFlood flood-opacity="0" result="BackgroundImageFix"/>
<feBlend mode="normal" in="SourceGraphic" in2="BackgroundImageFix" result="shape"/>
<feGaussianBlur stdDeviation="2.21022" result="effect1_foregroundBlur_2740_2226"/>
</filter>
<filter id="filter35_f_2740_2226" x="1115.47" y="128.212" width="18.352" height="18.3526" filterUnits="userSpaceOnUse" color-interpolation-filters="sRGB">
<feFlood flood-opacity="0" result="BackgroundImageFix"/>
<feBlend mode="normal" in="SourceGraphic" in2="BackgroundImageFix" result="shape"/>
<feGaussianBlur stdDeviation="2.21022" result="effect1_foregroundBlur_2740_2226"/>
</filter>
<filter id="filter36_f_2740_2226" x="88.9835" y="320.574" width="12.4025" height="12.4024" filterUnits="userSpaceOnUse" color-interpolation-filters="sRGB">
<feFlood flood-opacity="0" result="BackgroundImageFix"/>
<feBlend mode="normal" in="SourceGraphic" in2="BackgroundImageFix" result="shape"/>
<feGaussianBlur stdDeviation="2.21022" result="effect1_foregroundBlur_2740_2226"/>
</filter>
<filter id="filter37_f_2740_2226" x="90.0136" y="321.633" width="10.5169" height="10.5176" filterUnits="userSpaceOnUse" color-interpolation-filters="sRGB">
<feFlood flood-opacity="0" result="BackgroundImageFix"/>
<feBlend mode="normal" in="SourceGraphic" in2="BackgroundImageFix" result="shape"/>
<feGaussianBlur stdDeviation="2.21022" result="effect1_foregroundBlur_2740_2226"/>
</filter>
<filter id="filter38_f_2740_2226" x="86.6629" y="318.281" width="17.2211" height="17.2217" filterUnits="userSpaceOnUse" color-interpolation-filters="sRGB">
<feFlood flood-opacity="0" result="BackgroundImageFix"/>
<feBlend mode="normal" in="SourceGraphic" in2="BackgroundImageFix" result="shape"/>
<feGaussianBlur stdDeviation="2.21022" result="effect1_foregroundBlur_2740_2226"/>
</filter>
<filter id="filter39_f_2740_2226" x="87.5155" y="319.105" width="15.3355" height="15.335" filterUnits="userSpaceOnUse" color-interpolation-filters="sRGB">
<feFlood flood-opacity="0" result="BackgroundImageFix"/>
<feBlend mode="normal" in="SourceGraphic" in2="BackgroundImageFix" result="shape"/>
<feGaussianBlur stdDeviation="2.21022" result="effect1_foregroundBlur_2740_2226"/>
</filter>
<filter id="filter40_f_2740_2226" x="296.709" y="295.99" width="15.1105" height="15.1104" filterUnits="userSpaceOnUse" color-interpolation-filters="sRGB">
<feFlood flood-opacity="0" result="BackgroundImageFix"/>
<feBlend mode="normal" in="SourceGraphic" in2="BackgroundImageFix" result="shape"/>
<feGaussianBlur stdDeviation="2.21022" result="effect1_foregroundBlur_2740_2226"/>
</filter>
<filter id="filter41_f_2740_2226" x="298.522" y="297.855" width="11.7913" height="11.7921" filterUnits="userSpaceOnUse" color-interpolation-filters="sRGB">
<feFlood flood-opacity="0" result="BackgroundImageFix"/>
<feBlend mode="normal" in="SourceGraphic" in2="BackgroundImageFix" result="shape"/>
<feGaussianBlur stdDeviation="2.21022" result="effect1_foregroundBlur_2740_2226"/>
</filter>
<filter id="filter42_f_2740_2226" x="292.623" y="291.956" width="23.593" height="23.5928" filterUnits="userSpaceOnUse" color-interpolation-filters="sRGB">
<feFlood flood-opacity="0" result="BackgroundImageFix"/>
<feBlend mode="normal" in="SourceGraphic" in2="BackgroundImageFix" result="shape"/>
<feGaussianBlur stdDeviation="2.21022" result="effect1_foregroundBlur_2740_2226"/>
</filter>
<filter id="filter43_f_2740_2226" x="294.124" y="293.407" width="20.2737" height="20.2735" filterUnits="userSpaceOnUse" color-interpolation-filters="sRGB">
<feFlood flood-opacity="0" result="BackgroundImageFix"/>
<feBlend mode="normal" in="SourceGraphic" in2="BackgroundImageFix" result="shape"/>
<feGaussianBlur stdDeviation="2.21022" result="effect1_foregroundBlur_2740_2226"/>
</filter>
<filter id="filter44_f_2740_2226" x="184.871" y="419.695" width="13.8271" height="13.8272" filterUnits="userSpaceOnUse" color-interpolation-filters="sRGB">
<feFlood flood-opacity="0" result="BackgroundImageFix"/>
<feBlend mode="normal" in="SourceGraphic" in2="BackgroundImageFix" result="shape"/>
<feGaussianBlur stdDeviation="2.21022" result="effect1_foregroundBlur_2740_2226"/>
</filter>
<filter id="filter45_f_2740_2226" x="186.313" y="421.179" width="11.1873" height="11.1876" filterUnits="userSpaceOnUse" color-interpolation-filters="sRGB">
<feFlood flood-opacity="0" result="BackgroundImageFix"/>
<feBlend mode="normal" in="SourceGraphic" in2="BackgroundImageFix" result="shape"/>
<feGaussianBlur stdDeviation="2.21022" result="effect1_foregroundBlur_2740_2226"/>
</filter>
<filter id="filter46_f_2740_2226" x="181.622" y="416.486" width="20.5732" height="20.5733" filterUnits="userSpaceOnUse" color-interpolation-filters="sRGB">
<feFlood flood-opacity="0" result="BackgroundImageFix"/>
<feBlend mode="normal" in="SourceGraphic" in2="BackgroundImageFix" result="shape"/>
<feGaussianBlur stdDeviation="2.21022" result="effect1_foregroundBlur_2740_2226"/>
</filter>
<filter id="filter47_f_2740_2226" x="182.814" y="417.64" width="17.9334" height="17.9337" filterUnits="userSpaceOnUse" color-interpolation-filters="sRGB">
<feFlood flood-opacity="0" result="BackgroundImageFix"/>
<feBlend mode="normal" in="SourceGraphic" in2="BackgroundImageFix" result="shape"/>
<feGaussianBlur stdDeviation="2.21022" result="effect1_foregroundBlur_2740_2226"/>
</filter>
<filter id="filter48_f_2740_2226" x="206.78" y="336.414" width="15.0396" height="15.0401" filterUnits="userSpaceOnUse" color-interpolation-filters="sRGB">
<feFlood flood-opacity="0" result="BackgroundImageFix"/>
<feBlend mode="normal" in="SourceGraphic" in2="BackgroundImageFix" result="shape"/>
<feGaussianBlur stdDeviation="2.21022" result="effect1_foregroundBlur_2740_2226"/>
</filter>
<filter id="filter49_f_2740_2226" x="208.576" y="338.262" width="11.7579" height="11.7579" filterUnits="userSpaceOnUse" color-interpolation-filters="sRGB">
<feFlood flood-opacity="0" result="BackgroundImageFix"/>
<feBlend mode="normal" in="SourceGraphic" in2="BackgroundImageFix" result="shape"/>
<feGaussianBlur stdDeviation="2.21022" result="effect1_foregroundBlur_2740_2226"/>
</filter>
<filter id="filter50_f_2740_2226" x="202.739" y="332.426" width="23.4261" height="23.4258" filterUnits="userSpaceOnUse" color-interpolation-filters="sRGB">
<feFlood flood-opacity="0" result="BackgroundImageFix"/>
<feBlend mode="normal" in="SourceGraphic" in2="BackgroundImageFix" result="shape"/>
<feGaussianBlur stdDeviation="2.21022" result="effect1_foregroundBlur_2740_2226"/>
</filter>
<filter id="filter51_f_2740_2226" x="204.215" y="333.862" width="20.1444" height="20.1446" filterUnits="userSpaceOnUse" color-interpolation-filters="sRGB">
<feFlood flood-opacity="0" result="BackgroundImageFix"/>
<feBlend mode="normal" in="SourceGraphic" in2="BackgroundImageFix" result="shape"/>
<feGaussianBlur stdDeviation="2.21022" result="effect1_foregroundBlur_2740_2226"/>
</filter>
<filter id="filter52_f_2740_2226" x="141.527" y="269.571" width="14.0567" height="14.0567" filterUnits="userSpaceOnUse" color-interpolation-filters="sRGB">
<feFlood flood-opacity="0" result="BackgroundImageFix"/>
<feBlend mode="normal" in="SourceGraphic" in2="BackgroundImageFix" result="shape"/>
<feGaussianBlur stdDeviation="2.21022" result="effect1_foregroundBlur_2740_2226"/>
</filter>
<filter id="filter53_f_2740_2226" x="143.039" y="271.124" width="11.2954" height="11.296" filterUnits="userSpaceOnUse" color-interpolation-filters="sRGB">
<feFlood flood-opacity="0" result="BackgroundImageFix"/>
<feBlend mode="normal" in="SourceGraphic" in2="BackgroundImageFix" result="shape"/>
<feGaussianBlur stdDeviation="2.21022" result="effect1_foregroundBlur_2740_2226"/>
</filter>
<filter id="filter54_f_2740_2226" x="138.127" y="266.214" width="21.1133" height="21.1133" filterUnits="userSpaceOnUse" color-interpolation-filters="sRGB">
<feFlood flood-opacity="0" result="BackgroundImageFix"/>
<feBlend mode="normal" in="SourceGraphic" in2="BackgroundImageFix" result="shape"/>
<feGaussianBlur stdDeviation="2.21022" result="effect1_foregroundBlur_2740_2226"/>
</filter>
<filter id="filter55_f_2740_2226" x="139.369" y="267.422" width="18.3521" height="18.3526" filterUnits="userSpaceOnUse" color-interpolation-filters="sRGB">
<feFlood flood-opacity="0" result="BackgroundImageFix"/>
<feBlend mode="normal" in="SourceGraphic" in2="BackgroundImageFix" result="shape"/>
<feGaussianBlur stdDeviation="2.21022" result="effect1_foregroundBlur_2740_2226"/>
</filter>
<filter id="filter56_f_2740_2226" x="152.777" y="158.408" width="14.0567" height="14.0567" filterUnits="userSpaceOnUse" color-interpolation-filters="sRGB">
<feFlood flood-opacity="0" result="BackgroundImageFix"/>
<feBlend mode="normal" in="SourceGraphic" in2="BackgroundImageFix" result="shape"/>
<feGaussianBlur stdDeviation="2.21022" result="effect1_foregroundBlur_2740_2226"/>
</filter>
<filter id="filter57_f_2740_2226" x="154.288" y="159.96" width="11.2954" height="11.296" filterUnits="userSpaceOnUse" color-interpolation-filters="sRGB">
<feFlood flood-opacity="0" result="BackgroundImageFix"/>
<feBlend mode="normal" in="SourceGraphic" in2="BackgroundImageFix" result="shape"/>
<feGaussianBlur stdDeviation="2.21022" result="effect1_foregroundBlur_2740_2226"/>
</filter>
<filter id="filter58_f_2740_2226" x="149.377" y="155.051" width="21.1133" height="21.1133" filterUnits="userSpaceOnUse" color-interpolation-filters="sRGB">
<feFlood flood-opacity="0" result="BackgroundImageFix"/>
<feBlend mode="normal" in="SourceGraphic" in2="BackgroundImageFix" result="shape"/>
<feGaussianBlur stdDeviation="2.21022" result="effect1_foregroundBlur_2740_2226"/>
</filter>
<filter id="filter59_f_2740_2226" x="150.618" y="156.259" width="18.3521" height="18.3526" filterUnits="userSpaceOnUse" color-interpolation-filters="sRGB">
<feFlood flood-opacity="0" result="BackgroundImageFix"/>
<feBlend mode="normal" in="SourceGraphic" in2="BackgroundImageFix" result="shape"/>
<feGaussianBlur stdDeviation="2.21022" result="effect1_foregroundBlur_2740_2226"/>
</filter>
</defs>
</svg>
