<svg width="971" height="309" viewBox="0 0 971 309" fill="none" xmlns="http://www.w3.org/2000/svg">
<path d="M842.578 67.027L842.799 69.8048L844.537 72.0248L841.66 72.2379L839.34 73.9192L839.14 71.1382L837.398 68.8988L840.279 68.7051L842.578 67.027Z" fill="#FFFACC"/>
<path d="M815.806 40.9195L816.33 43.1366L818.011 44.7269L815.714 45.2335L814.051 46.8606L813.542 44.6387L811.857 43.0331L814.158 42.5418L815.806 40.9195Z" fill="#FFFACC"/>
<path d="M783.392 0.718822L784.745 2.58062L786.923 3.44085L784.995 4.7469L784.091 6.85972L782.751 4.98762L780.562 4.11506L782.501 2.82134L783.392 0.718822Z" fill="#FFFACC"/>
<path d="M755.592 35.3338L756.601 36.7531L758.242 37.4205L756.772 38.3946L756.071 39.9869L755.072 38.5599L753.423 37.8831L754.901 36.9184L755.592 35.3338Z" fill="#FFFACC"/>
<path d="M712.932 48.0989L714.597 48.7153L716.341 48.3661L715.702 49.9734L716.06 51.6687L714.399 51.0406L712.643 51.3865L713.294 49.7826L712.932 48.0989Z" fill="#FFFACC"/>
<path d="M713.753 20.3279L716.504 22.4768L720.018 22.8499L717.792 25.5059L717.392 28.9181L714.655 26.7492L711.12 26.3626L713.367 23.7201L713.753 20.3279Z" fill="#FFFACC"/>
<path d="M669.449 104.462L670.725 105.72L672.505 106.067L671.196 107.382L670.776 109.176L669.508 107.909L667.718 107.553L669.037 106.246L669.449 104.462Z" fill="#FFF5BF"/>
<path d="M695.28 85.8661L695.141 87.6528L696.022 89.2378L694.173 89.0839L692.53 89.9187L692.683 88.1319L691.802 86.5343L693.651 86.7009L695.28 85.8661Z" fill="#FFF5BF"/>
<path d="M952.483 234.004L952.344 235.791L953.225 237.376L951.376 237.222L949.734 238.056L949.886 236.27L949.005 234.672L950.854 234.839L952.483 234.004Z" fill="#FFF5BF"/>
<path d="M946.329 222.409L947.308 223.169L948.559 223.263L947.767 224.273L947.624 225.539L946.65 224.772L945.391 224.673L946.191 223.668L946.329 222.409Z" fill="#FFF5BF"/>
<path d="M955.232 225.11L955.461 225.763L956.02 226.185L955.343 226.419L954.894 226.97L954.668 226.316L954.108 225.889L954.787 225.659L955.232 225.11Z" fill="#FFF5BF"/>
<path d="M918.614 246.211L919.202 246.576L919.901 246.555L919.52 247.162L919.514 247.873L918.929 247.503L918.225 247.521L918.611 246.917L918.614 246.211Z" fill="#FFF5BF"/>
<path d="M942.852 236.273L943.277 236.537L943.784 236.523L943.508 236.962L943.504 237.477L943.08 237.209L942.57 237.222L942.849 236.785L942.852 236.273Z" fill="#FFF5BF"/>
<path d="M958.742 233.384L958.546 234.048L958.752 234.716L958.066 234.51L957.379 234.694L957.58 234.031L957.375 233.358L958.06 233.569L958.742 233.384Z" fill="#FFF5BF"/>
<path d="M913.625 252.281L913.429 252.944L913.635 253.613L912.949 253.407L912.262 253.59L912.463 252.928L912.258 252.254L912.943 252.465L913.625 252.281Z" fill="#FFF5BF"/>
<path d="M922.649 251.491L922.33 252.572L922.665 253.663L921.547 253.326L920.427 253.625L920.754 252.546L920.421 251.448L921.537 251.792L922.649 251.491Z" fill="#FFF5BF"/>
<path d="M670.245 126.54L671.522 127.798L673.302 128.146L671.993 129.461L671.573 131.254L670.305 129.987L668.515 129.631L669.834 128.324L670.245 126.54Z" fill="#FFF5BF"/>
<path d="M680.808 115.329L680.503 117.095L681.231 118.755L679.405 118.429L677.691 119.107L678.01 117.342L677.282 115.669L679.108 116.008L680.808 115.329Z" fill="#FFF5BF"/>
<path d="M920.399 33.9263L907.238 32.622L898.666 42.3025L895.903 29.8786L883.698 24.992L895.116 18.6023L896.154 5.8869L906.004 14.3863L918.832 11.4229L913.444 23.0973L920.399 33.9263Z" fill="#0A1111"/>
<g filter="url(#filter0_f_1512_2875)">
<circle cx="841.757" cy="54.7542" r="0.764917" fill="#FFFACC"/>
</g>
<g filter="url(#filter1_f_1512_2875)">
<circle cx="841.797" cy="54.8004" r="0.359961" fill="#FFFACC"/>
</g>
<g filter="url(#filter2_f_1512_2875)">
<circle cx="841.8" cy="54.7998" r="1.7998" fill="#FFFACC"/>
</g>
<g filter="url(#filter3_f_1512_2875)">
<circle cx="841.754" cy="54.7552" r="1.39485" fill="#FFFACC"/>
</g>
<g filter="url(#filter4_f_1512_2875)">
<circle cx="787.757" cy="62.7542" r="0.764917" fill="#FFFACC"/>
</g>
<g filter="url(#filter5_f_1512_2875)">
<circle cx="787.797" cy="62.8004" r="0.359961" fill="#FFFACC"/>
</g>
<g filter="url(#filter6_f_1512_2875)">
<circle cx="787.8" cy="62.7998" r="1.7998" fill="#FFFACC"/>
</g>
<g filter="url(#filter7_f_1512_2875)">
<circle cx="787.754" cy="62.7552" r="1.39485" fill="#FFFACC"/>
</g>
<g filter="url(#filter8_f_1512_2875)">
<circle cx="689.757" cy="62.7542" r="0.764917" fill="#FFFACC"/>
</g>
<g filter="url(#filter9_f_1512_2875)">
<circle cx="689.797" cy="62.8004" r="0.359961" fill="#FFFACC"/>
</g>
<g filter="url(#filter10_f_1512_2875)">
<circle cx="689.8" cy="62.7998" r="1.7998" fill="#FFFACC"/>
</g>
<g filter="url(#filter11_f_1512_2875)">
<circle cx="689.754" cy="62.7552" r="1.39485" fill="#FFFACC"/>
</g>
<path d="M660.721 132.637L657.762 135.756L658.641 139.953L654.78 138.11L651.055 140.247L651.618 135.994L648.434 133.113L652.655 132.325L654.411 128.414L656.454 132.201L660.721 132.637Z" fill="#FFF5BF"/>
<path d="M939.424 241.594L931.149 241.811L926.634 248.721L923.887 240.957L915.908 238.795L922.462 233.772L922.05 225.516L928.869 230.189L936.582 227.256L934.209 235.192L939.424 241.594Z" fill="#FFF5BF"/>
<path d="M904.738 249.997L902.628 250.053L901.477 251.815L900.776 249.835L898.742 249.283L900.413 248.003L900.308 245.897L902.047 247.089L904.014 246.341L903.408 248.364L904.738 249.997Z" fill="#FFF5BF"/>
<path d="M81.2455 116.54L82.5223 117.798L84.302 118.146L82.9929 119.461L82.573 121.254L81.3046 119.987L79.5151 119.631L80.834 118.324L81.2455 116.54Z" fill="#FFF5BF"/>
<path d="M8.69324 136.099L8.38092 137.502L8.90153 138.86L7.4503 138.529L6.0515 139.007L6.3742 137.605L5.85492 136.236L7.30482 136.578L8.69324 136.099Z" fill="#FFF5BF"/>
<path d="M9.9623 144.947L10.6572 145.332L11.4589 145.269L11.0557 145.987L11.0893 146.803L10.3969 146.412L9.59006 146.473L9.99837 145.758L9.9623 144.947Z" fill="#FFF5BF"/>
<path d="M0.952218 142.601L1.98571 143.174L3.17806 143.081L2.57841 144.148L2.62845 145.362L1.59856 144.78L0.398576 144.871L1.00586 143.807L0.952218 142.601Z" fill="#FFF5BF"/>
<path d="M102.557 121.192L103.189 124.763L105.716 127.422L102.016 128.056L99.2203 130.523L98.6144 126.945L96.0798 124.261L99.7871 123.652L102.557 121.192Z" fill="#FFF5BF"/>
<path d="M109.764 106.455L110.206 108.192L111.55 109.41L109.75 109.858L108.463 111.177L108.032 109.436L106.685 108.206L108.489 107.77L109.764 106.455Z" fill="#FFF5BF"/>
<path d="M71.0567 128.141L71.3324 129.223L72.1697 129.982L71.0478 130.262L70.2458 131.083L69.9778 129.998L69.138 129.232L70.2625 128.96L71.0567 128.141Z" fill="#FFF5BF"/>
<path d="M34.1383 128.515L35.3532 129.71L37.0461 130.04L35.8013 131.292L35.4025 132.998L34.1957 131.793L32.4935 131.455L33.7476 130.212L34.1383 128.515Z" fill="#FFF5BF"/>
<path d="M47.1204 129.356L47.2203 130.326L47.8465 131.089L46.8416 131.187L46.0437 131.794L45.9509 130.823L45.3234 130.053L46.3296 129.962L47.1204 129.356Z" fill="#FFF5BF"/>
<path d="M35.8004 120.123L36.0413 121.068L36.7724 121.731L35.7927 121.975L35.0923 122.692L34.8583 121.745L34.1248 121.076L35.1069 120.838L35.8004 120.123Z" fill="#FFF5BF"/>
<path d="M61.7354 119.424L55.7969 113.663L47.7039 115.265L51.3319 107.876L47.3002 100.664L55.4698 101.837L61.0812 95.7721L62.5076 103.91L69.9949 107.372L62.6654 111.222L61.7354 119.424Z" fill="#FFF5BF"/>
<path d="M26.1462 128.381L20.487 128.573L17.4344 133.323L15.515 128.026L10.0458 126.589L14.5028 123.119L14.1779 117.474L18.8664 120.635L24.1276 118.588L22.5453 124.029L26.1462 128.381Z" fill="#FFF5BF"/>
<path opacity="0.8" d="M32.7 216V146H67.2C75 146 81.8667 147.433 87.8 150.3C93.7333 153.1 98.3667 157.1 101.7 162.3C105.033 167.5 106.7 173.7 106.7 180.9C106.7 188.167 105.033 194.433 101.7 199.7C98.3667 204.9 93.7333 208.933 87.8 211.8C81.8667 214.6 75 216 67.2 216H32.7ZM56.3 197.6H66.2C69.5333 197.6 72.4333 196.967 74.9 195.7C77.4333 194.433 79.4 192.567 80.8 190.1C82.2 187.567 82.9 184.5 82.9 180.9C82.9 177.367 82.2 174.367 80.8 171.9C79.4 169.433 77.4333 167.567 74.9 166.3C72.4333 165.033 69.5333 164.4 66.2 164.4H56.3V197.6ZM136.917 172H168.117V189H136.917V172ZM138.517 198.2H173.517V216H115.317V146H172.217V163.8H138.517V198.2ZM182.602 216V146H202.002L230.002 191.7H219.802L247.002 146H266.402L266.602 216H245.102L244.902 178.4H248.302L229.702 209.7H219.302L199.902 178.4H204.102V216H182.602ZM314.713 217.6C309.046 217.6 303.779 216.7 298.913 214.9C294.113 213.1 289.946 210.567 286.413 207.3C282.879 203.967 280.113 200.067 278.113 195.6C276.179 191.133 275.213 186.267 275.213 181C275.213 175.667 276.179 170.8 278.113 166.4C280.113 161.933 282.879 158.067 286.413 154.8C289.946 151.467 294.113 148.9 298.913 147.1C303.779 145.3 309.046 144.4 314.713 144.4C320.446 144.4 325.713 145.3 330.513 147.1C335.313 148.9 339.479 151.467 343.013 154.8C346.546 158.067 349.279 161.933 351.213 166.4C353.213 170.8 354.213 175.667 354.213 181C354.213 186.267 353.213 191.133 351.213 195.6C349.279 200.067 346.546 203.967 343.013 207.3C339.479 210.567 335.313 213.1 330.513 214.9C325.713 216.7 320.446 217.6 314.713 217.6ZM314.713 198.5C316.913 198.5 318.946 198.1 320.813 197.3C322.746 196.5 324.413 195.367 325.813 193.9C327.279 192.367 328.413 190.533 329.213 188.4C330.013 186.2 330.413 183.733 330.413 181C330.413 178.267 330.013 175.833 329.213 173.7C328.413 171.5 327.279 169.667 325.813 168.2C324.413 166.667 322.746 165.5 320.813 164.7C318.946 163.9 316.913 163.5 314.713 163.5C312.513 163.5 310.446 163.9 308.513 164.7C306.646 165.5 304.979 166.667 303.513 168.2C302.113 169.667 301.013 171.5 300.213 173.7C299.413 175.833 299.013 178.267 299.013 181C299.013 183.733 299.413 186.2 300.213 188.4C301.013 190.533 302.113 192.367 303.513 193.9C304.979 195.367 306.646 196.5 308.513 197.3C310.446 198.1 312.513 198.5 314.713 198.5ZM399.078 217.6C393.411 217.6 388.178 216.733 383.378 215C378.645 213.2 374.511 210.667 370.978 207.4C367.511 204.133 364.811 200.267 362.878 195.8C360.945 191.333 359.978 186.4 359.978 181C359.978 175.6 360.945 170.667 362.878 166.2C364.811 161.733 367.545 157.867 371.078 154.6C374.611 151.333 378.778 148.833 383.578 147.1C388.445 145.3 393.778 144.4 399.578 144.4C406.511 144.4 412.678 145.567 418.078 147.9C423.545 150.233 428.045 153.567 431.578 157.9L416.478 171.2C414.278 168.667 411.878 166.767 409.278 165.5C406.745 164.167 403.911 163.5 400.778 163.5C398.178 163.5 395.811 163.9 393.678 164.7C391.611 165.5 389.845 166.667 388.378 168.2C386.911 169.733 385.778 171.567 384.978 173.7C384.178 175.833 383.778 178.267 383.778 181C383.778 183.6 384.178 186 384.978 188.2C385.778 190.333 386.911 192.167 388.378 193.7C389.845 195.233 391.578 196.433 393.578 197.3C395.645 198.1 397.945 198.5 400.478 198.5C403.145 198.5 405.745 198.067 408.278 197.2C410.811 196.267 413.511 194.7 416.378 192.5L429.578 208.7C425.311 211.567 420.445 213.767 414.978 215.3C409.511 216.833 404.211 217.6 399.078 217.6ZM409.078 205.7V179.1H429.578V208.7L409.078 205.7ZM439.634 216V146H473.334C479.867 146 485.5 147.067 490.234 149.2C495.034 151.333 498.734 154.4 501.334 158.4C503.934 162.333 505.234 167 505.234 172.4C505.234 177.8 503.934 182.467 501.334 186.4C498.734 190.267 495.034 193.233 490.234 195.3C485.5 197.367 479.867 198.4 473.334 198.4H452.734L463.234 188.7V216H439.634ZM481.534 216L464.334 190.5H489.334L506.734 216H481.534ZM463.234 191.3L452.734 180.6H471.834C475.1 180.6 477.5 179.867 479.034 178.4C480.634 176.933 481.434 174.933 481.434 172.4C481.434 169.867 480.634 167.867 479.034 166.4C477.5 164.933 475.1 164.2 471.834 164.2H452.734L463.234 153.5V191.3ZM506.545 216L537.145 146H560.345L590.945 216H566.545L543.945 157.2H553.145L530.545 216H506.545ZM524.745 203.8L530.745 186.8H562.945L568.945 203.8H524.745ZM594.712 216V146H628.412C634.945 146 640.578 147.067 645.312 149.2C650.112 151.333 653.812 154.4 656.412 158.4C659.012 162.333 660.312 167 660.312 172.4C660.312 177.8 659.012 182.467 656.412 186.4C653.812 190.333 650.112 193.4 645.312 195.6C640.578 197.733 634.945 198.8 628.412 198.8H607.812L618.312 188.7V216H594.712ZM618.312 191.3L607.812 180.6H626.912C630.178 180.6 632.578 179.867 634.112 178.4C635.712 176.933 636.512 174.933 636.512 172.4C636.512 169.867 635.712 167.867 634.112 166.4C632.578 164.933 630.178 164.2 626.912 164.2H607.812L618.312 153.5V191.3ZM713.452 146H737.052V216H713.452V146ZM691.652 216H668.052V146H691.652V216ZM715.052 190.2H690.052V170.8H715.052V190.2ZM748.423 216V146H772.023V216H748.423ZM819.584 217.6C813.984 217.6 808.784 216.733 803.984 215C799.25 213.2 795.117 210.667 791.584 207.4C788.117 204.133 785.417 200.267 783.484 195.8C781.55 191.333 780.584 186.4 780.584 181C780.584 175.6 781.55 170.667 783.484 166.2C785.417 161.733 788.117 157.867 791.584 154.6C795.117 151.333 799.25 148.833 803.984 147.1C808.784 145.3 813.984 144.4 819.584 144.4C826.45 144.4 832.517 145.6 837.784 148C843.117 150.4 847.517 153.867 850.984 158.4L836.084 171.7C834.017 169.1 831.717 167.1 829.184 165.7C826.717 164.233 823.917 163.5 820.784 163.5C818.317 163.5 816.084 163.9 814.084 164.7C812.084 165.5 810.35 166.667 808.884 168.2C807.484 169.733 806.384 171.6 805.584 173.8C804.784 175.933 804.384 178.333 804.384 181C804.384 183.667 804.784 186.1 805.584 188.3C806.384 190.433 807.484 192.267 808.884 193.8C810.35 195.333 812.084 196.5 814.084 197.3C816.084 198.1 818.317 198.5 820.784 198.5C823.917 198.5 826.717 197.8 829.184 196.4C831.717 194.933 834.017 192.9 836.084 190.3L850.984 203.6C847.517 208.067 843.117 211.533 837.784 214C832.517 216.4 826.45 217.6 819.584 217.6ZM882.921 217.6C877.054 217.6 871.388 216.933 865.921 215.6C860.454 214.267 855.954 212.533 852.421 210.4L860.021 193.2C863.354 195.133 867.054 196.7 871.121 197.9C875.254 199.033 879.254 199.6 883.121 199.6C885.388 199.6 887.154 199.467 888.421 199.2C889.754 198.867 890.721 198.433 891.321 197.9C891.921 197.3 892.221 196.6 892.221 195.8C892.221 194.533 891.521 193.533 890.121 192.8C888.721 192.067 886.854 191.467 884.521 191C882.254 190.467 879.754 189.933 877.021 189.4C874.288 188.8 871.521 188.033 868.721 187.1C865.988 186.167 863.454 184.933 861.121 183.4C858.854 181.867 857.021 179.867 855.621 177.4C854.221 174.867 853.521 171.733 853.521 168C853.521 163.667 854.721 159.733 857.121 156.2C859.588 152.6 863.221 149.733 868.021 147.6C872.888 145.467 878.921 144.4 886.121 144.4C890.854 144.4 895.521 144.9 900.121 145.9C904.721 146.9 908.854 148.433 912.521 150.5L905.421 167.6C901.954 165.867 898.588 164.567 895.321 163.7C892.121 162.833 888.988 162.4 885.921 162.4C883.654 162.4 881.854 162.6 880.521 163C879.188 163.4 878.221 163.933 877.621 164.6C877.088 165.267 876.821 166 876.821 166.8C876.821 168 877.521 168.967 878.921 169.7C880.321 170.367 882.154 170.933 884.421 171.4C886.754 171.867 889.288 172.367 892.021 172.9C894.821 173.433 897.588 174.167 900.321 175.1C903.054 176.033 905.554 177.267 907.821 178.8C910.154 180.333 912.021 182.333 913.421 184.8C914.821 187.267 915.521 190.333 915.521 194C915.521 198.267 914.288 202.2 911.821 205.8C909.421 209.333 905.821 212.2 901.021 214.4C896.221 216.533 890.188 217.6 882.921 217.6Z" fill="#FFB23E"/>
<path opacity="0.8" d="M32.7 222V152H67.2C75 152 81.8667 153.433 87.8 156.3C93.7333 159.1 98.3667 163.1 101.7 168.3C105.033 173.5 106.7 179.7 106.7 186.9C106.7 194.167 105.033 200.433 101.7 205.7C98.3667 210.9 93.7333 214.933 87.8 217.8C81.8667 220.6 75 222 67.2 222H32.7ZM56.3 203.6H66.2C69.5333 203.6 72.4333 202.967 74.9 201.7C77.4333 200.433 79.4 198.567 80.8 196.1C82.2 193.567 82.9 190.5 82.9 186.9C82.9 183.367 82.2 180.367 80.8 177.9C79.4 175.433 77.4333 173.567 74.9 172.3C72.4333 171.033 69.5333 170.4 66.2 170.4H56.3V203.6ZM136.917 178H168.117V195H136.917V178ZM138.517 204.2H173.517V222H115.317V152H172.217V169.8H138.517V204.2ZM182.602 222V152H202.002L230.002 197.7H219.802L247.002 152H266.402L266.602 222H245.102L244.902 184.4H248.302L229.702 215.7H219.302L199.902 184.4H204.102V222H182.602ZM314.713 223.6C309.046 223.6 303.779 222.7 298.913 220.9C294.113 219.1 289.946 216.567 286.413 213.3C282.879 209.967 280.113 206.067 278.113 201.6C276.179 197.133 275.213 192.267 275.213 187C275.213 181.667 276.179 176.8 278.113 172.4C280.113 167.933 282.879 164.067 286.413 160.8C289.946 157.467 294.113 154.9 298.913 153.1C303.779 151.3 309.046 150.4 314.713 150.4C320.446 150.4 325.713 151.3 330.513 153.1C335.313 154.9 339.479 157.467 343.013 160.8C346.546 164.067 349.279 167.933 351.213 172.4C353.213 176.8 354.213 181.667 354.213 187C354.213 192.267 353.213 197.133 351.213 201.6C349.279 206.067 346.546 209.967 343.013 213.3C339.479 216.567 335.313 219.1 330.513 220.9C325.713 222.7 320.446 223.6 314.713 223.6ZM314.713 204.5C316.913 204.5 318.946 204.1 320.813 203.3C322.746 202.5 324.413 201.367 325.813 199.9C327.279 198.367 328.413 196.533 329.213 194.4C330.013 192.2 330.413 189.733 330.413 187C330.413 184.267 330.013 181.833 329.213 179.7C328.413 177.5 327.279 175.667 325.813 174.2C324.413 172.667 322.746 171.5 320.813 170.7C318.946 169.9 316.913 169.5 314.713 169.5C312.513 169.5 310.446 169.9 308.513 170.7C306.646 171.5 304.979 172.667 303.513 174.2C302.113 175.667 301.013 177.5 300.213 179.7C299.413 181.833 299.013 184.267 299.013 187C299.013 189.733 299.413 192.2 300.213 194.4C301.013 196.533 302.113 198.367 303.513 199.9C304.979 201.367 306.646 202.5 308.513 203.3C310.446 204.1 312.513 204.5 314.713 204.5ZM399.078 223.6C393.411 223.6 388.178 222.733 383.378 221C378.645 219.2 374.511 216.667 370.978 213.4C367.511 210.133 364.811 206.267 362.878 201.8C360.945 197.333 359.978 192.4 359.978 187C359.978 181.6 360.945 176.667 362.878 172.2C364.811 167.733 367.545 163.867 371.078 160.6C374.611 157.333 378.778 154.833 383.578 153.1C388.445 151.3 393.778 150.4 399.578 150.4C406.511 150.4 412.678 151.567 418.078 153.9C423.545 156.233 428.045 159.567 431.578 163.9L416.478 177.2C414.278 174.667 411.878 172.767 409.278 171.5C406.745 170.167 403.911 169.5 400.778 169.5C398.178 169.5 395.811 169.9 393.678 170.7C391.611 171.5 389.845 172.667 388.378 174.2C386.911 175.733 385.778 177.567 384.978 179.7C384.178 181.833 383.778 184.267 383.778 187C383.778 189.6 384.178 192 384.978 194.2C385.778 196.333 386.911 198.167 388.378 199.7C389.845 201.233 391.578 202.433 393.578 203.3C395.645 204.1 397.945 204.5 400.478 204.5C403.145 204.5 405.745 204.067 408.278 203.2C410.811 202.267 413.511 200.7 416.378 198.5L429.578 214.7C425.311 217.567 420.445 219.767 414.978 221.3C409.511 222.833 404.211 223.6 399.078 223.6ZM409.078 211.7V185.1H429.578V214.7L409.078 211.7ZM439.634 222V152H473.334C479.867 152 485.5 153.067 490.234 155.2C495.034 157.333 498.734 160.4 501.334 164.4C503.934 168.333 505.234 173 505.234 178.4C505.234 183.8 503.934 188.467 501.334 192.4C498.734 196.267 495.034 199.233 490.234 201.3C485.5 203.367 479.867 204.4 473.334 204.4H452.734L463.234 194.7V222H439.634ZM481.534 222L464.334 196.5H489.334L506.734 222H481.534ZM463.234 197.3L452.734 186.6H471.834C475.1 186.6 477.5 185.867 479.034 184.4C480.634 182.933 481.434 180.933 481.434 178.4C481.434 175.867 480.634 173.867 479.034 172.4C477.5 170.933 475.1 170.2 471.834 170.2H452.734L463.234 159.5V197.3ZM506.545 222L537.145 152H560.345L590.945 222H566.545L543.945 163.2H553.145L530.545 222H506.545ZM524.745 209.8L530.745 192.8H562.945L568.945 209.8H524.745ZM594.712 222V152H628.412C634.945 152 640.578 153.067 645.312 155.2C650.112 157.333 653.812 160.4 656.412 164.4C659.012 168.333 660.312 173 660.312 178.4C660.312 183.8 659.012 188.467 656.412 192.4C653.812 196.333 650.112 199.4 645.312 201.6C640.578 203.733 634.945 204.8 628.412 204.8H607.812L618.312 194.7V222H594.712ZM618.312 197.3L607.812 186.6H626.912C630.178 186.6 632.578 185.867 634.112 184.4C635.712 182.933 636.512 180.933 636.512 178.4C636.512 175.867 635.712 173.867 634.112 172.4C632.578 170.933 630.178 170.2 626.912 170.2H607.812L618.312 159.5V197.3ZM713.452 152H737.052V222H713.452V152ZM691.652 222H668.052V152H691.652V222ZM715.052 196.2H690.052V176.8H715.052V196.2ZM748.423 222V152H772.023V222H748.423ZM819.584 223.6C813.984 223.6 808.784 222.733 803.984 221C799.25 219.2 795.117 216.667 791.584 213.4C788.117 210.133 785.417 206.267 783.484 201.8C781.55 197.333 780.584 192.4 780.584 187C780.584 181.6 781.55 176.667 783.484 172.2C785.417 167.733 788.117 163.867 791.584 160.6C795.117 157.333 799.25 154.833 803.984 153.1C808.784 151.3 813.984 150.4 819.584 150.4C826.45 150.4 832.517 151.6 837.784 154C843.117 156.4 847.517 159.867 850.984 164.4L836.084 177.7C834.017 175.1 831.717 173.1 829.184 171.7C826.717 170.233 823.917 169.5 820.784 169.5C818.317 169.5 816.084 169.9 814.084 170.7C812.084 171.5 810.35 172.667 808.884 174.2C807.484 175.733 806.384 177.6 805.584 179.8C804.784 181.933 804.384 184.333 804.384 187C804.384 189.667 804.784 192.1 805.584 194.3C806.384 196.433 807.484 198.267 808.884 199.8C810.35 201.333 812.084 202.5 814.084 203.3C816.084 204.1 818.317 204.5 820.784 204.5C823.917 204.5 826.717 203.8 829.184 202.4C831.717 200.933 834.017 198.9 836.084 196.3L850.984 209.6C847.517 214.067 843.117 217.533 837.784 220C832.517 222.4 826.45 223.6 819.584 223.6ZM882.921 223.6C877.054 223.6 871.388 222.933 865.921 221.6C860.454 220.267 855.954 218.533 852.421 216.4L860.021 199.2C863.354 201.133 867.054 202.7 871.121 203.9C875.254 205.033 879.254 205.6 883.121 205.6C885.388 205.6 887.154 205.467 888.421 205.2C889.754 204.867 890.721 204.433 891.321 203.9C891.921 203.3 892.221 202.6 892.221 201.8C892.221 200.533 891.521 199.533 890.121 198.8C888.721 198.067 886.854 197.467 884.521 197C882.254 196.467 879.754 195.933 877.021 195.4C874.288 194.8 871.521 194.033 868.721 193.1C865.988 192.167 863.454 190.933 861.121 189.4C858.854 187.867 857.021 185.867 855.621 183.4C854.221 180.867 853.521 177.733 853.521 174C853.521 169.667 854.721 165.733 857.121 162.2C859.588 158.6 863.221 155.733 868.021 153.6C872.888 151.467 878.921 150.4 886.121 150.4C890.854 150.4 895.521 150.9 900.121 151.9C904.721 152.9 908.854 154.433 912.521 156.5L905.421 173.6C901.954 171.867 898.588 170.567 895.321 169.7C892.121 168.833 888.988 168.4 885.921 168.4C883.654 168.4 881.854 168.6 880.521 169C879.188 169.4 878.221 169.933 877.621 170.6C877.088 171.267 876.821 172 876.821 172.8C876.821 174 877.521 174.967 878.921 175.7C880.321 176.367 882.154 176.933 884.421 177.4C886.754 177.867 889.288 178.367 892.021 178.9C894.821 179.433 897.588 180.167 900.321 181.1C903.054 182.033 905.554 183.267 907.821 184.8C910.154 186.333 912.021 188.333 913.421 190.8C914.821 193.267 915.521 196.333 915.521 200C915.521 204.267 914.288 208.2 911.821 211.8C909.421 215.333 905.821 218.2 901.021 220.4C896.221 222.533 890.188 223.6 882.921 223.6Z" fill="#F5EA83"/>
<path d="M720.695 69.0831L801.696 78.5539L798.058 83.2457L797.797 83.5826L797.662 83.987L793.801 95.5703L793.733 95.7758L793.701 95.99L791.77 108.86L791.742 109.045L791.742 109.231L791.742 118.242L709.293 106.117L709.542 98.151L710.782 87.2938L714.723 76.6837L720.695 69.0831Z" fill="#3B4339" stroke="#FFB23E" stroke-width="5"/>
<path d="M716.588 148.531L709.809 111.247L791.496 123.26L787.54 159.143L716.588 148.531Z" fill="#3B4339" stroke="#FFB23E" stroke-width="5"/>
<path d="M797.641 96.6867L801.062 85.1813L806.795 78.3556L808.719 79.5097L810.762 81.8077L810.762 94.9071L795.743 115.557L795.743 109.342L797.641 96.6867Z" fill="#3B4339" stroke="#FFB23E" stroke-width="3"/>
<path d="M791.76 156.361L795.053 120.416L809.871 101L804.074 138.268L791.76 156.361Z" fill="#3B4339" stroke="#FFB23E" stroke-width="3"/>
<path d="M744.69 104.084L753.377 105.371L751.447 116.311L751.768 125.964L743.403 124.998L742.438 115.346L744.69 104.084Z" fill="#C29641"/>
<ellipse cx="747.636" cy="112.369" rx="2.15411" ry="2.28782" transform="rotate(3.11163 747.636 112.369)" fill="#52401A"/>
<path d="M746.808 114.1L748.09 114.213L748.09 119.527L745.974 119.205L746.808 114.1Z" fill="#52401A"/>
<defs>
<filter id="filter0_f_1512_2875" x="836.992" y="49.9893" width="9.53125" height="9.53027" filterUnits="userSpaceOnUse" color-interpolation-filters="sRGB">
<feFlood flood-opacity="0" result="BackgroundImageFix"/>
<feBlend mode="normal" in="SourceGraphic" in2="BackgroundImageFix" result="shape"/>
<feGaussianBlur stdDeviation="2" result="effect1_foregroundBlur_1512_2875"/>
</filter>
<filter id="filter1_f_1512_2875" x="837.438" y="50.4404" width="8.71875" height="8.71973" filterUnits="userSpaceOnUse" color-interpolation-filters="sRGB">
<feFlood flood-opacity="0" result="BackgroundImageFix"/>
<feBlend mode="normal" in="SourceGraphic" in2="BackgroundImageFix" result="shape"/>
<feGaussianBlur stdDeviation="2" result="effect1_foregroundBlur_1512_2875"/>
</filter>
<filter id="filter2_f_1512_2875" x="836" y="49" width="11.6016" height="11.5996" filterUnits="userSpaceOnUse" color-interpolation-filters="sRGB">
<feFlood flood-opacity="0" result="BackgroundImageFix"/>
<feBlend mode="normal" in="SourceGraphic" in2="BackgroundImageFix" result="shape"/>
<feGaussianBlur stdDeviation="2" result="effect1_foregroundBlur_1512_2875"/>
</filter>
<filter id="filter3_f_1512_2875" x="836.359" y="49.3604" width="10.7891" height="10.79" filterUnits="userSpaceOnUse" color-interpolation-filters="sRGB">
<feFlood flood-opacity="0" result="BackgroundImageFix"/>
<feBlend mode="normal" in="SourceGraphic" in2="BackgroundImageFix" result="shape"/>
<feGaussianBlur stdDeviation="2" result="effect1_foregroundBlur_1512_2875"/>
</filter>
<filter id="filter4_f_1512_2875" x="782.992" y="57.9893" width="9.53125" height="9.53027" filterUnits="userSpaceOnUse" color-interpolation-filters="sRGB">
<feFlood flood-opacity="0" result="BackgroundImageFix"/>
<feBlend mode="normal" in="SourceGraphic" in2="BackgroundImageFix" result="shape"/>
<feGaussianBlur stdDeviation="2" result="effect1_foregroundBlur_1512_2875"/>
</filter>
<filter id="filter5_f_1512_2875" x="783.438" y="58.4404" width="8.71875" height="8.71973" filterUnits="userSpaceOnUse" color-interpolation-filters="sRGB">
<feFlood flood-opacity="0" result="BackgroundImageFix"/>
<feBlend mode="normal" in="SourceGraphic" in2="BackgroundImageFix" result="shape"/>
<feGaussianBlur stdDeviation="2" result="effect1_foregroundBlur_1512_2875"/>
</filter>
<filter id="filter6_f_1512_2875" x="782" y="57" width="11.6016" height="11.5996" filterUnits="userSpaceOnUse" color-interpolation-filters="sRGB">
<feFlood flood-opacity="0" result="BackgroundImageFix"/>
<feBlend mode="normal" in="SourceGraphic" in2="BackgroundImageFix" result="shape"/>
<feGaussianBlur stdDeviation="2" result="effect1_foregroundBlur_1512_2875"/>
</filter>
<filter id="filter7_f_1512_2875" x="782.359" y="57.3604" width="10.7891" height="10.79" filterUnits="userSpaceOnUse" color-interpolation-filters="sRGB">
<feFlood flood-opacity="0" result="BackgroundImageFix"/>
<feBlend mode="normal" in="SourceGraphic" in2="BackgroundImageFix" result="shape"/>
<feGaussianBlur stdDeviation="2" result="effect1_foregroundBlur_1512_2875"/>
</filter>
<filter id="filter8_f_1512_2875" x="684.992" y="57.9893" width="9.53125" height="9.53027" filterUnits="userSpaceOnUse" color-interpolation-filters="sRGB">
<feFlood flood-opacity="0" result="BackgroundImageFix"/>
<feBlend mode="normal" in="SourceGraphic" in2="BackgroundImageFix" result="shape"/>
<feGaussianBlur stdDeviation="2" result="effect1_foregroundBlur_1512_2875"/>
</filter>
<filter id="filter9_f_1512_2875" x="685.438" y="58.4404" width="8.71875" height="8.71973" filterUnits="userSpaceOnUse" color-interpolation-filters="sRGB">
<feFlood flood-opacity="0" result="BackgroundImageFix"/>
<feBlend mode="normal" in="SourceGraphic" in2="BackgroundImageFix" result="shape"/>
<feGaussianBlur stdDeviation="2" result="effect1_foregroundBlur_1512_2875"/>
</filter>
<filter id="filter10_f_1512_2875" x="684" y="57" width="11.6016" height="11.5996" filterUnits="userSpaceOnUse" color-interpolation-filters="sRGB">
<feFlood flood-opacity="0" result="BackgroundImageFix"/>
<feBlend mode="normal" in="SourceGraphic" in2="BackgroundImageFix" result="shape"/>
<feGaussianBlur stdDeviation="2" result="effect1_foregroundBlur_1512_2875"/>
</filter>
<filter id="filter11_f_1512_2875" x="684.359" y="57.3604" width="10.7891" height="10.79" filterUnits="userSpaceOnUse" color-interpolation-filters="sRGB">
<feFlood flood-opacity="0" result="BackgroundImageFix"/>
<feBlend mode="normal" in="SourceGraphic" in2="BackgroundImageFix" result="shape"/>
<feGaussianBlur stdDeviation="2" result="effect1_foregroundBlur_1512_2875"/>
</filter>
</defs>
</svg>
