<svg width="308" height="433" viewBox="0 0 308 433" fill="none" xmlns="http://www.w3.org/2000/svg">
<path d="M216.113 348.45C221.384 351.094 227.632 348.198 230.065 341.985C232.5 335.772 230.199 328.591 224.928 325.951L217.178 322.065L209.426 345.098L216.113 348.45Z" fill="#91BCBB"/>
<path d="M157.683 318.172L209.571 344.154L217.295 321.233L166.466 295.783L157.683 318.172Z" fill="#ACBFBE"/>
<path d="M214.639 321.37L206.967 343.693C206.497 345.058 207.017 346.593 208.127 347.121C209.237 347.65 210.516 346.972 210.986 345.607L218.658 323.284C219.127 321.919 218.608 320.384 217.498 319.856C216.388 319.327 215.108 320.005 214.639 321.37Z" fill="#8BA5A3"/>
<path d="M34.8736 356.442C30.537 361.07 30.1415 368.799 33.9918 373.703C37.8421 378.607 44.48 378.831 48.8166 374.203L55.1934 367.399L40.377 350.572L34.8738 356.446L34.8736 356.442Z" fill="#91BCBB"/>
<path d="M82.5816 305.006L39.7971 350.647L54.5931 367.447L96.5083 322.73L82.5816 305.006Z" fill="#ACBFBE"/>
<path d="M56.4405 365.018L42.4475 347.905C41.592 346.859 40.1668 346.865 39.2642 347.919C38.3617 348.973 38.3235 350.676 39.1791 351.722L53.1721 368.835C54.0276 369.882 55.4528 369.875 56.3554 368.821C57.2579 367.767 57.296 366.065 56.4405 365.018Z" fill="#8BA5A3"/>
<path d="M34.6864 377.463C36.3704 377.259 37.6348 375.511 37.5107 373.558C37.3865 371.605 35.9206 370.188 34.2366 370.392C32.5526 370.595 31.2882 372.344 31.4124 374.297C31.5366 376.249 33.0024 377.667 34.6864 377.463Z" fill="#91BCBB"/>
<path d="M32.038 372.088C33.7219 371.884 34.9864 370.136 34.8622 368.183C34.738 366.23 33.2722 364.813 31.5882 365.017C29.9042 365.22 28.6397 366.969 28.7639 368.922C28.8881 370.874 30.354 372.292 32.038 372.088Z" fill="#91BCBB"/>
<path d="M39.1239 380.762C40.8079 380.558 42.0723 378.81 41.9482 376.857C41.824 374.904 40.3581 373.486 38.6741 373.69C36.9901 373.894 35.7257 375.643 35.8499 377.595C35.9741 379.548 37.4399 380.966 39.1239 380.762Z" fill="#91BCBB"/>
<path d="M99.8914 419.95C107.198 419.065 112.684 411.48 112.145 403.007C111.606 394.535 105.246 388.383 97.9401 389.268C90.6338 390.153 85.1478 397.738 85.6866 406.211C86.2254 414.684 92.5851 420.835 99.8914 419.95Z" fill="#91BCBB"/>
<path d="M94.911 423.072C97.1956 422.795 98.9111 420.423 98.7426 417.774C98.5741 415.124 96.5854 413.201 94.3008 413.478C92.0161 413.754 90.3007 416.126 90.4691 418.776C90.6376 421.425 92.6263 423.348 94.911 423.072Z" fill="#91BCBB"/>
<path d="M89.0516 418.29C91.3362 418.013 93.0517 415.641 92.8832 412.992C92.7147 410.342 90.7261 408.419 88.4414 408.695C86.1568 408.972 84.4413 411.344 84.6098 413.993C84.7783 416.643 86.7669 418.566 89.0516 418.29Z" fill="#91BCBB"/>
<path d="M101.958 424.074C104.242 423.797 105.958 421.425 105.789 418.776C105.621 416.126 103.632 414.203 101.348 414.48C99.063 414.756 97.3475 417.128 97.516 419.778C97.6845 422.427 99.6732 424.35 101.958 424.074Z" fill="#91BCBB"/>
<path d="M186.323 355.015L186.142 323.515L65.8026 328.633L65.9834 360.134C66.0146 365.349 66.9785 370.271 68.6911 374.702L183.785 369.807C185.445 365.232 186.354 360.231 186.326 355.019L186.323 355.015Z" fill="#ACBFBE"/>
<path d="M69.2141 375.957C74.2308 388.719 85.6903 397.327 98.9761 396.771L154.535 394.445C167.821 393.889 179.175 384.332 184.039 371.152L69.2109 375.957L69.2141 375.957Z" fill="#B7D6D6"/>
<path d="M107.479 357.429L61.5749 359.387L65.3911 333.086L117.41 330.867L117.493 345.387C117.528 351.799 113.045 357.193 107.479 357.429Z" fill="#8BA5A3"/>
<path d="M144.701 357.197L190.625 355.236L186.509 329.225L134.467 331.448L134.55 345.995C134.586 352.418 139.133 357.434 144.701 357.197Z" fill="#8BA5A3"/>
<path d="M203.609 330.783L47.7336 337.319L65.8465 304.761L185.131 299.759L203.609 330.783Z" fill="#A61E00"/>
<path d="M89.983 64.0929C89.1082 73.3126 94.8141 81.3853 102.726 82.1217C110.637 82.8581 117.762 75.9792 118.636 66.7594C119.618 56.4101 127.644 48.6638 136.522 49.4908C144.434 50.2272 151.558 43.352 152.433 34.1285C153.308 24.9087 147.602 16.8361 139.69 16.0997C115.009 13.8013 92.7099 35.331 89.9796 64.0895L89.983 64.0929Z" fill="#A61E00"/>
<path d="M110.958 83.7603C123.868 82.1969 133.562 68.7927 132.61 53.8211C131.658 38.8495 120.42 27.9799 107.51 29.5433C94.5989 31.1067 84.9047 44.5109 85.8569 59.4825C86.809 74.4541 98.047 85.3237 110.958 83.7603Z" fill="#A61E00"/>
<path d="M154.506 96.1236C154.377 73.5233 136.552 55.9617 114.692 56.8988C92.8324 57.8358 75.216 76.9166 75.3449 99.517C75.4737 122.117 93.299 139.679 115.159 138.742C137.019 137.805 154.635 118.724 154.506 96.1236Z" fill="#A61E00"/>
<path d="M36.468 100.186L35.3314 168.372L98.6808 125.506L48.4731 92.0639C43.2551 88.588 36.585 93.1025 36.468 100.186Z" fill="#B7D6D6"/>
<path d="M47.2314 118.878L50.4139 158.337L83.7644 135.771L56.6568 112.5C52.5926 109.01 46.7571 112.96 47.2314 118.878Z" fill="#DB9EB7"/>
<path d="M208.326 94.9216L210.235 163.023L146.39 125.594L196.229 87.8246C201.408 83.9007 208.13 87.8406 208.329 94.9174L208.326 94.9216Z" fill="#B7D6D6"/>
<path d="M197.852 114.559L195.12 154.247L161.555 134.57L188.367 108.998C192.387 105.164 198.261 108.606 197.852 114.559Z" fill="#DB9EB7"/>
<path d="M226.454 210.189C226.121 151.803 180.002 106.438 123.444 108.862C66.8862 111.287 21.3067 160.583 21.6396 218.968C21.9724 277.354 68.0914 322.719 124.649 320.295C181.207 317.87 226.787 268.574 226.454 210.189Z" fill="#ACBFBE"/>
<path d="M187.968 129.025L121.827 57.6867L56.5268 134.643C69.7231 127.182 94.1715 121.506 122.181 120.309C150.191 119.113 174.694 122.694 187.968 129.025Z" fill="#ACBFBE"/>
<path d="M188.117 137.532L121.975 66.1936L56.6752 143.15C69.8715 135.689 94.32 130.013 122.33 128.816C150.34 127.62 174.842 131.201 188.117 137.532Z" fill="#8BA5A3"/>
<path d="M121.915 73.035L117.831 77.682L118.093 123.057C119.452 122.972 120.821 122.901 122.202 122.844C123.583 122.787 124.954 122.743 126.313 122.711L126.051 77.3361L121.915 73.0388L121.915 73.035Z" fill="#0D3F41"/>
<path d="M138.133 91.0267L138.316 123.205C140.463 123.29 142.559 123.411 144.607 123.564L144.459 97.6187L138.129 91.0271L138.133 91.0267Z" fill="#0D3F41"/>
<path d="M129.045 81.0537L129.288 122.876C131.315 122.862 133.315 122.878 135.279 122.921L135.074 87.2934L129.048 81.0533L129.045 81.0537Z" fill="#0D3F41"/>
<path d="M109.02 88.0459L109.224 123.665C111.184 123.455 113.177 123.273 115.197 123.117L114.955 81.3044L109.017 88.0463L109.02 88.0459Z" fill="#0D3F41"/>
<path d="M90.6639 109.709L90.7579 126.442C92.7891 125.981 94.8955 125.552 97.0736 125.157L96.9444 102.493L90.6642 109.713L90.6639 109.709Z" fill="#0D3F41"/>
<path d="M147.56 101.359L147.689 124.036C149.876 124.248 151.991 124.498 154.033 124.785L153.938 108.041L147.56 101.359Z" fill="#0D3F41"/>
<path d="M174.603 130.538L157.073 111.971L157.149 125.586C164.222 126.788 170.191 128.476 174.603 130.542L174.603 130.538Z" fill="#0D3F41"/>
<path d="M70.4595 133.382C74.8359 130.947 80.7673 128.755 87.8074 126.948L87.7314 113.378L70.4625 133.378L70.4595 133.382Z" fill="#0D3F41"/>
<path d="M99.8823 98.8289L100.031 124.765C102.069 124.438 104.16 124.138 106.299 123.871L106.116 91.7051L99.8821 98.8251L99.8823 98.8289Z" fill="#0D3F41"/>
<path d="M135.382 125.127L138.635 124.989L138.624 123.188C137.55 123.145 136.464 123.111 135.369 123.089L135.379 125.131L135.382 125.127Z" fill="#8BA5A3"/>
<path d="M169.883 156.055L169.986 174.276C170.021 180.351 165.804 185.459 160.571 185.685C155.338 185.911 151.066 181.166 151.031 175.091L150.883 149.165C146.862 148.193 142.724 147.476 138.488 147.027L138.722 188.102C138.772 196.967 132.623 204.42 124.985 204.748C117.347 205.076 111.116 198.157 111.065 189.291L110.83 147.987C106.033 148.824 101.354 149.996 96.8354 151.485L96.9829 177.412C97.0183 183.487 92.8017 188.595 87.5683 188.821C82.3349 189.047 78.0637 184.302 78.0283 178.227L77.9256 160.006C51.3234 175.559 33.5689 202.89 33.7401 233.276C33.7944 243.073 35.715 252.39 39.1794 260.968C42.2507 258.874 45.7811 257.602 49.5416 257.442C61.4815 256.928 71.2248 267.749 71.3036 281.609C71.3331 286.927 69.9329 291.917 67.5238 296.083C83.1763 307.022 103.105 313.129 124.776 312.196C146.446 311.267 166.295 303.45 181.817 291.171C179.362 287.216 177.904 282.35 177.874 277.028C177.795 263.169 187.413 251.517 199.352 251.003C203.116 250.842 206.659 251.808 209.749 253.635C213.114 244.767 214.928 235.288 214.874 225.491C214.703 195.105 196.647 169.313 169.883 156.051L169.883 156.055Z" fill="#B7D6D6"/>
<path d="M124.329 204.085C132.046 203.754 138.26 196.231 138.209 187.281L137.973 145.817C133.151 145.308 128.209 145.14 123.171 145.358C118.706 145.551 114.319 146.036 110.028 146.786L110.265 188.482C110.316 197.432 116.612 204.417 124.329 204.085Z" fill="#8BCCCA"/>
<path d="M159.502 185.449C164.786 185.221 169.044 180.066 169.008 173.935L168.904 155.547C162.911 152.579 156.483 150.229 149.723 148.59L149.872 174.754C149.908 180.884 154.221 185.673 159.505 185.444L159.502 185.449Z" fill="#8BCCCA"/>
<path d="M87.1877 187.218C92.4663 186.99 96.7194 181.838 96.6837 175.711L96.5349 149.562C89.8042 151.775 83.4127 154.677 77.4616 158.156L77.5652 176.534C77.6009 182.66 81.9091 187.446 87.1877 187.218Z" fill="#8BCCCA"/>
<path d="M50.6872 256.842C46.9074 257.004 43.3651 258.282 40.2807 260.387C46.0089 274.577 55.9542 286.745 68.7463 295.692C71.166 291.507 72.5719 286.487 72.5423 281.14C72.4631 267.206 62.6782 256.326 50.6872 256.842Z" fill="#72B0BA"/>
<path d="M209.651 255.673C206.551 253.836 203 252.871 199.23 253.032C187.262 253.547 177.622 265.239 177.701 279.146C177.73 284.482 179.192 289.369 181.652 293.337C194.314 283.314 204.1 270.322 209.652 255.677L209.651 255.673Z" fill="#72B0BA"/>
<path d="M149.582 55.126C154.202 54.5667 157.67 49.7707 157.329 44.4139C156.989 39.0571 152.968 35.1681 148.348 35.7274C143.729 36.2868 140.261 41.0828 140.601 46.4395C140.942 51.7963 144.963 55.6854 149.582 55.126Z" fill="#A61E00"/>
<path d="M124.841 266.306C117.71 266.611 111.889 260.176 111.842 251.934L137.67 250.828C137.717 259.07 131.972 266 124.841 266.306Z" fill="#0D3F41"/>
<path d="M124.804 260.889C119.29 261.121 114.806 258.575 114.788 255.199L134.75 254.357C134.768 257.733 130.318 260.657 124.804 260.889Z" fill="#1C6666"/>
<path d="M96.7599 209.074C100.437 208.916 103.438 212.244 103.462 216.497L103.506 224.206L96.8477 224.491C93.1707 224.649 90.1697 221.321 90.1455 217.068C90.1212 212.811 93.0861 209.231 96.7599 209.074Z" fill="#0D3F41"/>
<path d="M151.389 223.166L144.73 223.452L144.686 215.743C144.662 211.486 147.627 207.907 151.301 207.749C154.978 207.591 157.979 210.919 158.003 215.172C158.027 219.429 155.062 223.009 151.389 223.166Z" fill="#0D3F41"/>
<path d="M103.872 253.255C103.872 253.255 86.92 263.733 71.017 258.408C55.1108 253.084 46.2778 233.975 46.2778 233.975C46.2778 233.975 63.2293 223.497 79.1323 228.822C95.0385 234.147 103.872 253.255 103.872 253.255Z" fill="#FFFACC"/>
<path d="M76.001 258.111C82.905 257.275 88.089 250.107 87.5798 242.101C87.0707 234.095 81.0611 228.282 74.1571 229.118C67.2531 229.954 62.069 237.122 62.5782 245.128C63.0874 253.134 69.0969 258.947 76.001 258.111Z" fill="#0D3F41"/>
<path d="M72.4508 243.438C74.8374 243.149 76.6294 240.672 76.4533 237.904C76.2773 235.136 74.2 233.127 71.8134 233.416C69.4269 233.705 67.6349 236.183 67.8109 238.951C67.9869 241.718 70.0643 243.727 72.4508 243.438Z" fill="#1C6666"/>
<path d="M145.322 253.263C145.322 253.263 162.37 262.263 178.198 255.601C194.022 248.935 202.63 229.131 202.63 229.131C202.63 229.131 185.582 220.131 169.755 226.793C153.93 233.459 145.322 253.263 145.322 253.263Z" fill="#FFFACC"/>
<path d="M112.229 292.458C114.154 299.078 119.617 303.687 126.032 303.412C132.449 303.137 137.859 298.059 139.705 291.273C134.741 290.052 129.996 287.487 125.917 283.544C121.885 287.836 117.176 290.814 112.225 292.458L112.229 292.458Z" fill="#DB9EB7"/>
<path d="M170.73 276.239C169.844 275.288 168.421 275.346 167.549 276.373C162.214 282.644 155.097 286.273 147.515 286.589C145.013 286.694 142.561 286.427 140.2 285.822C135.406 284.592 130.993 281.95 127.373 278.051L125.771 276.327L124.192 278.185C120.616 282.388 116.239 285.394 111.461 287.021C109.108 287.823 106.659 288.296 104.157 288.397C96.5749 288.713 89.4181 285.679 84.0122 279.855C83.1265 278.904 81.7033 278.962 80.8312 279.989C79.9591 281.017 79.9674 282.619 80.8532 283.571C89.3754 292.751 101.366 295.494 112.197 291.996C117.12 290.406 121.799 287.528 125.811 283.378C129.868 287.19 134.583 289.67 139.523 290.85C142.157 291.48 144.851 291.745 147.545 291.632C155.972 291.282 164.377 287.317 170.753 279.828C171.625 278.801 171.616 277.198 170.731 276.247L170.73 276.239Z" fill="#26515B"/>
<path d="M51.269 161.183C53.7485 160.883 55.6103 158.309 55.4274 155.433C55.2445 152.558 53.0862 150.471 50.6067 150.771C48.1272 151.071 46.2654 153.645 46.4483 156.521C46.6312 159.396 48.7894 161.484 51.269 161.183Z" fill="#CCD6D5"/>
<path d="M45.0066 168.732C46.7281 168.523 48.0208 166.736 47.8938 164.74C47.7668 162.743 46.2683 161.294 44.5468 161.502C42.8253 161.711 41.5326 163.498 41.6596 165.495C41.7865 167.491 43.285 168.94 45.0066 168.732Z" fill="#CCD6D5"/>
<path d="M218.288 198.616C220.009 198.407 221.302 196.62 221.175 194.623C221.048 192.627 219.55 191.178 217.828 191.386C216.107 191.595 214.814 193.382 214.941 195.378C215.068 197.375 216.566 198.824 218.288 198.616Z" fill="#CCD6D5"/>
<path d="M185.512 231.712L160.183 243.699C158.516 244.488 157.672 246.684 158.299 248.604C158.925 250.525 160.785 251.441 162.452 250.652L187.782 238.665C189.449 237.876 190.293 235.68 189.666 233.76C189.039 231.84 187.18 230.923 185.512 231.712Z" fill="#0D3F41"/>
<path d="M185.651 233.866L180.72 236.211C179.955 236.575 179.569 237.586 179.856 238.47C180.143 239.355 180.996 239.777 181.76 239.414L186.691 237.068C187.456 236.705 187.842 235.693 187.555 234.809C187.268 233.925 186.415 233.502 185.651 233.866Z" fill="#1C6666"/>
<path d="M139.558 341.111C139.509 332.394 133.388 325.59 125.887 325.912C118.385 326.234 112.344 333.562 112.393 342.278C112.438 350.42 117.784 356.892 124.601 357.447L124.573 352.805C123.053 352.187 121.969 350.53 121.959 348.526C121.944 345.926 123.749 343.736 125.987 343.643C128.225 343.55 130.053 345.579 130.065 348.18C130.075 350.18 129.009 351.931 127.501 352.681L127.529 357.323C134.335 356.181 139.606 349.253 139.558 341.111Z" fill="#F5EA83"/>
<path d="M130.19 348.298C130.174 345.685 128.339 343.647 126.089 343.74C123.838 343.834 122.027 346.033 122.039 348.645C122.049 350.654 123.142 352.323 124.667 352.944L124.695 357.607C125.18 357.647 125.669 357.656 126.167 357.638C126.664 357.616 127.152 357.564 127.636 357.483L127.608 352.82C129.128 352.07 130.2 350.31 130.186 348.298L130.19 348.298Z" fill="#FFB23E"/>
<path d="M118.31 337.262C119.385 337.131 120.192 336.016 120.112 334.77C120.033 333.524 119.098 332.62 118.023 332.75C116.949 332.88 116.142 333.995 116.222 335.241C116.301 336.487 117.236 337.392 118.31 337.262Z" fill="#FCF8DB"/>
<path d="M119.11 379.466L78.7336 404.204C74.9046 406.552 70.3838 403.524 70.3585 398.592L70.2614 381.55L119.113 379.47L119.11 379.466Z" fill="#617A78"/>
<path d="M134.375 379.998L175.047 401.354C178.907 403.378 183.39 399.959 183.362 395.011L183.265 377.911L134.375 379.998Z" fill="#617A78"/>
<path d="M183.827 371.641L69.2934 375.676C67.8154 375.728 66.6251 376.91 66.6348 378.316C66.6446 379.721 67.8507 380.819 69.3287 380.767L183.862 376.732C185.34 376.68 186.53 375.498 186.52 374.092C186.511 372.687 185.305 371.589 183.827 371.641Z" fill="#8BA5A3"/>
<path d="M159.766 418.309C167.073 417.425 172.559 409.839 172.02 401.367C171.481 392.894 165.121 386.743 157.815 387.628C150.509 388.512 145.023 396.098 145.562 404.57C146.1 413.043 152.46 419.194 159.766 418.309Z" fill="#91BCBB"/>
<path d="M163.028 393.943C165.313 393.666 167.028 391.294 166.86 388.645C166.691 385.996 164.703 384.072 162.418 384.349C160.133 384.625 158.418 386.997 158.586 389.647C158.755 392.296 160.744 394.22 163.028 393.943Z" fill="#91BCBB"/>
<path d="M169.013 398.498C171.297 398.221 173.013 395.849 172.844 393.2C172.676 390.55 170.687 388.627 168.402 388.903C166.118 389.18 164.402 391.552 164.571 394.201C164.739 396.851 166.728 398.774 169.013 398.498Z" fill="#91BCBB"/>
<path d="M155.966 393.211C158.25 392.935 159.966 390.563 159.797 387.913C159.629 385.264 157.64 383.341 155.355 383.617C153.071 383.894 151.355 386.266 151.524 388.915C151.692 391.565 153.681 393.488 155.966 393.211Z" fill="#91BCBB"/>
<path d="M155.778 390.314C156.682 390.205 157.362 389.265 157.295 388.217C157.228 387.168 156.441 386.406 155.536 386.516C154.632 386.625 153.953 387.564 154.019 388.613C154.086 389.662 154.873 390.424 155.778 390.314Z" fill="#DB9EB7"/>
<path d="M162.848 391.045C163.753 390.935 164.432 389.996 164.365 388.947C164.299 387.898 163.511 387.136 162.607 387.246C161.702 387.356 161.023 388.295 161.09 389.344C161.156 390.393 161.944 391.154 162.848 391.045Z" fill="#DB9EB7"/>
<path d="M168.825 395.599C169.729 395.49 170.409 394.551 170.342 393.502C170.275 392.453 169.488 391.691 168.583 391.801C167.679 391.91 166.999 392.849 167.066 393.898C167.133 394.947 167.92 395.709 168.825 395.599Z" fill="#DB9EB7"/>
<path d="M167.301 404.855C168.58 400.449 165.977 395.445 161.487 393.679C156.998 391.912 152.321 394.052 151.042 398.458C149.763 402.864 152.366 407.868 156.856 409.634C161.346 411.4 166.022 409.261 167.301 404.855Z" fill="#DB9EB7"/>
<path d="M273.426 204.701L226.801 296.87L235.738 302.771L291.627 192.286L273.426 204.701Z" fill="#89BEAA"/>
<path d="M291.347 216.549L291.679 192.285L235.621 302.996L244.585 308.906L291.347 216.549Z" fill="#B7D6D6"/>
<path d="M257.734 300.879L255.195 299.139L234.231 342.18L236.769 343.921L257.734 300.879Z" fill="#FF7F00"/>
<path d="M248.333 351.84L236.444 343.988L242.594 331.828L232.743 325.327L242.065 306.898L251.915 313.399L258.153 301.065L265.912 317.081L248.33 351.837L248.333 351.84Z" fill="#FBA036"/>
<path d="M206.411 323.054L198.492 307.354L216.234 272.28L228.123 280.131L221.886 292.465L231.736 298.966L222.415 317.394L212.565 310.893L206.415 323.053L206.411 323.054Z" fill="#FBA036"/>
<path d="M233.071 324.796L222.648 317.679L209.915 343.714L220.338 350.831L233.071 324.796Z" fill="#5B619B"/>
<path d="M241.976 303.855L233.658 298.362C232.925 297.879 232.015 297.894 231.27 298.401L222.8 304.178C222.055 304.689 221.585 305.613 221.573 306.606L221.422 317.878C221.41 318.871 221.849 319.779 222.582 320.262L230.901 325.756C231.633 326.239 232.543 326.224 233.288 325.717L241.758 319.939C242.503 319.429 242.973 318.505 242.985 317.511L243.137 306.24C243.149 305.247 242.709 304.338 241.976 303.855Z" fill="#FFDA40"/>
<path d="M237.019 303.554L236.365 303.122C233.934 301.517 230.91 301.57 228.434 303.258L227.768 303.713C225.292 305.401 223.739 308.472 223.694 311.768L223.682 312.655C223.637 315.948 225.107 318.966 227.539 320.575L228.193 321.006C230.624 322.611 233.648 322.559 236.124 320.87L236.79 320.415C239.266 318.727 240.819 315.656 240.864 312.36L240.876 311.473C240.921 308.18 239.45 305.162 237.019 303.554Z" fill="#45B236"/>
<path d="M232.576 331.299L234.406 327.534L219.945 317.602L218.114 321.367L232.576 331.299Z" fill="#FFDA40"/>
<path d="M206.086 348.216C203.924 352.489 205.099 357.887 208.713 360.271C212.325 362.655 217.007 361.125 219.169 356.849C219.461 356.269 219.69 355.671 219.864 355.065L207.097 346.635C206.723 347.111 206.382 347.636 206.089 348.212L206.086 348.216Z" fill="#398729"/>
<path d="M219.981 350.309L210.499 344.053L207.975 342.39L206.137 346.02L207.027 346.606L219.777 355.019L220.667 355.605L222.505 351.975L219.981 350.309Z" fill="#FFDA40"/>
<path d="M211.647 354.384L216.152 352.626L210.734 349.048L211.647 354.384Z" fill="#FFDA40"/>
<path d="M216.607 357.823L220.705 355.791L216.102 352.751L216.607 357.823Z" fill="#FFDA40"/>
<path d="M206.685 350.959L210.783 348.927L206.18 345.887L206.685 350.959Z" fill="#FFDA40"/>
<path d="M221.865 351.806L223.695 348.044L210.349 338.881L208.519 342.643L221.865 351.806Z" fill="#FBA036"/>
<path d="M223.382 344.932L212.789 337.627L212.376 338.48L222.969 345.785L223.382 344.932Z" fill="#495189"/>
<path d="M230.14 331.029L219.547 323.724L219.134 324.577L229.727 331.882L230.14 331.029Z" fill="#495189"/>
<path d="M224.726 342.152L214.133 334.847L213.72 335.7L224.313 343.005L224.726 342.152Z" fill="#495189"/>
<path d="M226.077 339.372L215.484 332.067L215.071 332.92L225.664 340.225L226.077 339.372Z" fill="#495189"/>
<path d="M227.437 336.59L216.844 329.285L216.431 330.138L227.024 337.443L227.437 336.59Z" fill="#495189"/>
<path d="M228.78 333.807L218.188 326.502L217.774 327.355L228.367 334.66L228.78 333.807Z" fill="#495189"/>
<path d="M214.826 359.92C215.352 359.856 215.747 359.311 215.708 358.701C215.669 358.092 215.212 357.649 214.686 357.713C214.16 357.777 213.766 358.322 213.805 358.932C213.843 359.541 214.301 359.984 214.826 359.92Z" fill="#A6F498"/>
<path d="M237.148 307.126L233.59 304.775C232.848 304.285 231.921 304.299 231.164 304.815L227.542 307.286C226.785 307.802 226.309 308.741 226.295 309.75L226.229 314.573C226.215 315.582 226.666 316.504 227.408 316.993L230.965 319.345C231.708 319.834 232.634 319.82 233.391 319.305L237.014 316.833C237.771 316.317 238.247 315.378 238.261 314.369L238.326 309.546C238.341 308.537 237.89 307.615 237.148 307.126Z" fill="#409E30"/>
<path d="M235.025 308.576L233.551 307.604C232.808 307.115 231.882 307.129 231.125 307.644L229.624 308.67C228.867 309.185 228.392 310.125 228.378 311.133L228.351 313.131C228.337 314.139 228.787 315.061 229.53 315.55L231.005 316.522C231.747 317.011 232.673 316.997 233.43 316.482L234.931 315.456C235.688 314.94 236.163 314.001 236.178 312.993L236.204 310.995C236.218 309.987 235.768 309.065 235.025 308.576Z" fill="#398729"/>
<path d="M232.518 306.02C233.222 305.935 233.751 305.204 233.699 304.387C233.647 303.57 233.034 302.977 232.33 303.062C231.626 303.148 231.097 303.879 231.149 304.696C231.201 305.513 231.814 306.105 232.518 306.02Z" fill="#62D34F"/>
<path d="M229.779 306.324C230.131 306.281 230.395 305.915 230.369 305.507C230.343 305.099 230.037 304.802 229.685 304.845C229.332 304.887 229.068 305.253 229.094 305.661C229.12 306.07 229.426 306.366 229.779 306.324Z" fill="#62D34F"/>
<path d="M200.623 311.451L198.488 307.201L216.26 272.089L219.472 274.21L200.623 311.451Z" fill="#FF7F00"/>
<path d="M225.588 342.806C227.312 342.598 228.606 340.808 228.479 338.81C228.352 336.812 226.851 335.361 225.128 335.569C223.405 335.778 222.111 337.567 222.238 339.566C222.365 341.564 223.865 343.015 225.588 342.806Z" fill="#91BCBB"/>
<path d="M221.877 347.408C223.601 347.199 224.895 345.41 224.768 343.412C224.641 341.413 223.141 339.962 221.417 340.171C219.694 340.38 218.4 342.169 218.527 344.167C218.654 346.166 220.154 347.617 221.877 347.408Z" fill="#91BCBB"/>
<path d="M227.088 336.677C228.812 336.469 230.106 334.68 229.979 332.681C229.852 330.683 228.351 329.232 226.628 329.441C224.905 329.649 223.611 331.438 223.738 333.437C223.865 335.435 225.365 336.886 227.088 336.677Z" fill="#91BCBB"/>
<path d="M193.473 324.061L165.932 325.159C164.74 325.207 163.78 326.286 163.788 327.57C163.796 328.853 164.769 329.855 165.961 329.808L193.502 328.71C194.694 328.662 195.655 327.583 195.647 326.299C195.639 325.015 194.666 324.013 193.473 324.061Z" fill="#C9361F"/>
<path d="M178.047 321.679L174.922 321.811L174.984 332.588L178.11 332.456L178.047 321.679Z" fill="#A61E00"/>
<path d="M62.0138 327.287L59.455 327.396C58.2545 327.448 57.2877 328.612 57.2956 329.996C57.3035 331.38 58.2832 332.461 59.4837 332.41L62.0424 332.3C63.243 332.249 64.2098 331.085 64.2019 329.701C64.194 328.317 63.2143 327.236 62.0138 327.287Z" fill="#C9361F"/>
<path d="M101.157 56.8132C104.643 56.3911 107.26 52.7718 107.003 48.7294C106.746 44.6869 103.712 41.752 100.226 42.1742C96.74 42.5963 94.1225 46.2155 94.3796 50.258C94.6367 54.3005 97.671 57.2353 101.157 56.8132Z" fill="#C9361F"/>
<path d="M93.1441 64.0093C94.7852 63.8106 96.0175 62.1068 95.8964 60.2037C95.7754 58.3006 94.3469 56.919 92.7058 57.1177C91.0647 57.3164 89.8325 59.0203 89.9535 60.9233C90.0746 62.8264 91.503 64.2081 93.1441 64.0093Z" fill="#C9361F"/>
<path d="M149.178 50.4793C150.47 50.3228 151.441 48.9809 151.345 47.482C151.25 45.9832 150.125 44.8951 148.832 45.0516C147.54 45.2081 146.569 46.55 146.665 48.0488C146.76 49.5476 147.885 50.6358 149.178 50.4793Z" fill="#C9361F"/>
</svg>
