<svg width="390" height="1185" viewBox="0 0 390 1185" fill="none" xmlns="http://www.w3.org/2000/svg">
<path d="M-55.351 437.515H19.229L53.8407 400.084L232.256 432.168H451.258L508.326 512.111L548.5 720.657L527.074 798.995L508.326 947.651L527.074 1036.68L508.326 1142.56L398.753 1176.71L271.773 1340.08L53.3882 1240.64L-55.351 1154.86V1027.59V563.712L-101.5 532.965V512.111L-55.351 437.515Z" fill="#384646"/>
<path d="M-72.271 396.591H0.014267L33.561 368L206.487 392.507H418.75L474.062 453.569L513 612.863L492.233 672.7L474.062 786.248L492.233 854.254L474.062 935.126L367.861 961.214L244.787 1086L33.1224 1010.04L-72.271 944.52V847.31V492.984L-117 469.499V453.569L-72.271 396.591Z" fill="#222B2B"/>
<path d="M28.2682 475.614H79.2701L102.939 455.89L224.949 472.796H374.715L413.741 514.922L441.214 624.816L426.562 666.097L413.741 744.431L426.562 791.347L413.741 847.14L348 881L250 975.5L66.5001 913.5L28.2682 853.621V786.557L-22.5266 701.922L-3.29098 514.922L28.2682 475.614Z" fill="#141717"/>
<path d="M76.839 567.199H111.82L128.054 553.669L211.738 565.266H314.459L341.226 594.161L360.069 669.541L350.019 697.856L341.226 751.588L350.019 783.769L341.226 822.039L279.091 826.484L229.808 861.951L149.603 840.594L76.839 826.484V780.484L42 722.43L55.1933 594.161L76.839 567.199Z" fill="#080A0A"/>
<path d="M128.057 634.26H152.482L163.817 624.811L222.247 632.91H293.969L312.659 653.091L325.815 705.737L318.798 725.513L312.659 763.04L318.798 785.516L312.659 812.244L269.275 815.349L234.864 840.119L178.863 825.203L128.057 815.349V783.221L103.732 742.676L112.944 653.091L128.057 634.26Z" fill="#030404"/>
<path d="M229.83 635.727L218.322 616.07V587.56L194.071 562.326H265.589L259.225 576.072L237.943 598.198L229.83 635.727Z" fill="#141717"/>
<path d="M188.613 704.61L180.921 681.223V647.304L164.711 617.282H212.515L208.261 633.636L194.036 659.961L188.613 704.61Z" fill="#080A0A"/>
<path d="M261.637 725.313L255.156 699.91V663.067L241.499 630.457H281.775L278.191 648.22L266.206 676.815L261.637 725.313Z" fill="#080A0A"/>
<path d="M159.253 617.283L166.945 597.121V567.881L183.155 542H135.351L139.605 556.098L153.83 578.792L159.253 617.283Z" fill="#141717"/>
<path d="M305.24 556.016L314.736 503.183L344.476 468.688H256.772L264.577 487.478L290.675 517.725L305.24 556.016Z" fill="#222B2B"/>
<path d="M19.8198 489.014L0.135269 462.804V424.791L-41.3474 391.146L31.3004 384.935L61.037 363.103H78.9166L106.5 403L33.6969 438.975L19.8198 489.014Z" fill="#384646"/>
<path d="M248.679 443.468H269.758L282.718 424.404L364.5 373.077L310 321L197.642 373.077L156.646 374.207L124.5 403L248.679 443.468Z" fill="#384646"/>
<path d="M127 405.5L99 417.5L64.5 395L55.0144 369.51L118.954 365.521L141.82 360.657L166.056 361.327L183.5 384.5L127 405.5Z" fill="#384646"/>
<path d="M222.69 490.896H210.228L202.567 479.58L166.056 457.967L229.996 453.977L252.862 449.114L277.098 449.784L262.058 460.589L222.69 490.896Z" fill="#222B2B"/>
<path d="M357.426 433L366.943 421.497V404.815L387 390.049L351.875 387.323L339.314 384L326 384.458L333.116 398.092V411.126L357.426 433Z" fill="#384646"/>
<path d="M146.295 547.357L135.09 520.543V481.653L111.476 447.232H181.113L174.915 465.981L154.194 496.164L146.295 547.357Z" fill="#222B2B"/>
<path d="M363.862 527.784L357.623 512.865V491.227L344.476 472.075H383.247L379.796 482.507L368.26 499.301L363.862 527.784Z" fill="#222B2B"/>
<path d="M305.113 648.148L299.298 625.164V591.831L287.045 562.326H323.181L319.965 578.397L309.212 604.269L305.113 648.148Z" fill="#141717"/>
<path d="M5.76169 329.461L100.618 345.835L156.703 321.18L227.657 345.835H271.698L306.328 367.479V382.159L262.099 412.272H213.354L161.22 388.37L96.2891 394.581H74.6453L28.1583 418.295L-14 396.651V381.971L5.76169 329.461Z" fill="#222B2B"/>
<path d="M-14 308.5L60.5 283L136 276.5L158.5 296.5L234 306L306.328 330.5V367.479L262.099 397.592H213.354L161.22 373.69L96.2891 379.901H74.6453L28.1583 403.615L-14 381.971V308.5Z" fill="#374242"/>
<path d="M29.2007 358V346.1H34.6407C35.7287 346.1 36.6637 346.276 37.4457 346.627C38.2391 346.978 38.8511 347.488 39.2817 348.157C39.7124 348.814 39.9277 349.596 39.9277 350.503C39.9277 351.398 39.7124 352.175 39.2817 352.832C38.8511 353.489 38.2391 353.999 37.4457 354.362C36.6637 354.713 35.7287 354.889 34.6407 354.889H31.0707L32.5667 353.427V358H29.2007ZM32.5667 353.784L31.0707 352.237H34.4367C35.1394 352.237 35.6607 352.084 36.0007 351.778C36.3521 351.472 36.5277 351.047 36.5277 350.503C36.5277 349.948 36.3521 349.517 36.0007 349.211C35.6607 348.905 35.1394 348.752 34.4367 348.752H31.0707L32.5667 347.205V353.784ZM44.6629 350.707H50.1879V353.223H44.6629V350.707ZM44.9009 355.399H51.1229V358H41.5689V346.1H50.9019V348.701H44.9009V355.399ZM52.9908 358V346.1H58.4308C59.5188 346.1 60.4538 346.276 61.2358 346.627C62.0291 346.978 62.6411 347.488 63.0718 348.157C63.5024 348.814 63.7178 349.596 63.7178 350.503C63.7178 351.398 63.5024 352.175 63.0718 352.832C62.6411 353.478 62.0291 353.977 61.2358 354.328C60.4538 354.668 59.5188 354.838 58.4308 354.838H54.8608L56.3568 353.427V358H52.9908ZM60.3518 358L57.3938 353.665H60.9808L63.9558 358H60.3518ZM56.3568 353.784L54.8608 352.237H58.2268C58.9294 352.237 59.4508 352.084 59.7908 351.778C60.1421 351.472 60.3178 351.047 60.3178 350.503C60.3178 349.948 60.1421 349.517 59.7908 349.211C59.4508 348.905 58.9294 348.752 58.2268 348.752H54.8608L56.3568 347.205V353.784ZM69.7568 358.238C68.7821 358.238 67.8414 358.119 66.9348 357.881C66.0394 357.632 65.3084 357.314 64.7418 356.929L65.8468 354.447C66.3794 354.787 66.9914 355.07 67.6828 355.297C68.3854 355.512 69.0824 355.62 69.7738 355.62C70.2384 355.62 70.6124 355.58 70.8958 355.501C71.1791 355.41 71.3831 355.297 71.5078 355.161C71.6438 355.014 71.7118 354.844 71.7118 354.651C71.7118 354.379 71.5871 354.164 71.3378 354.005C71.0884 353.846 70.7654 353.716 70.3688 353.614C69.9721 353.512 69.5301 353.41 69.0428 353.308C68.5668 353.206 68.0851 353.076 67.5978 352.917C67.1218 352.758 66.6854 352.554 66.2888 352.305C65.8921 352.044 65.5691 351.71 65.3198 351.302C65.0704 350.883 64.9458 350.356 64.9458 349.721C64.9458 349.007 65.1384 348.361 65.5238 347.783C65.9204 347.205 66.5098 346.74 67.2918 346.389C68.0738 346.038 69.0484 345.862 70.2158 345.862C70.9978 345.862 71.7628 345.953 72.5108 346.134C73.2701 346.304 73.9444 346.559 74.5338 346.899L73.4968 349.398C72.9301 349.092 72.3691 348.865 71.8138 348.718C71.2584 348.559 70.7201 348.48 70.1988 348.48C69.7341 348.48 69.3601 348.531 69.0768 348.633C68.7934 348.724 68.5894 348.848 68.4648 349.007C68.3401 349.166 68.2778 349.347 68.2778 349.551C68.2778 349.812 68.3968 350.021 68.6348 350.18C68.8841 350.327 69.2071 350.452 69.6038 350.554C70.0118 350.645 70.4538 350.741 70.9298 350.843C71.4171 350.945 71.8988 351.075 72.3748 351.234C72.8621 351.381 73.3041 351.585 73.7008 351.846C74.0974 352.095 74.4148 352.43 74.6528 352.849C74.9021 353.257 75.0268 353.773 75.0268 354.396C75.0268 355.087 74.8284 355.728 74.4318 356.317C74.0464 356.895 73.4628 357.36 72.6808 357.711C71.9101 358.062 70.9354 358.238 69.7568 358.238ZM82.5826 358.238C81.6306 358.238 80.7523 358.085 79.9476 357.779C79.1429 357.473 78.4403 357.042 77.8396 356.487C77.2503 355.92 76.7913 355.263 76.4626 354.515C76.1339 353.767 75.9696 352.945 75.9696 352.05C75.9696 351.155 76.1339 350.333 76.4626 349.585C76.7913 348.837 77.2503 348.185 77.8396 347.63C78.4403 347.063 79.1429 346.627 79.9476 346.321C80.7523 346.015 81.6306 345.862 82.5826 345.862C83.5459 345.862 84.4243 346.015 85.2176 346.321C86.0223 346.627 86.7193 347.063 87.3086 347.63C87.8979 348.185 88.3569 348.837 88.6856 349.585C89.0256 350.333 89.1956 351.155 89.1956 352.05C89.1956 352.945 89.0256 353.773 88.6856 354.532C88.3569 355.28 87.8979 355.932 87.3086 356.487C86.7193 357.042 86.0223 357.473 85.2176 357.779C84.4243 358.085 83.5459 358.238 82.5826 358.238ZM82.5826 355.45C83.0359 355.45 83.4553 355.371 83.8406 355.212C84.2373 355.053 84.5773 354.827 84.8606 354.532C85.1553 354.226 85.3819 353.863 85.5406 353.444C85.7106 353.025 85.7956 352.56 85.7956 352.05C85.7956 351.529 85.7106 351.064 85.5406 350.656C85.3819 350.237 85.1553 349.88 84.8606 349.585C84.5773 349.279 84.2373 349.047 83.8406 348.888C83.4553 348.729 83.0359 348.65 82.5826 348.65C82.1293 348.65 81.7043 348.729 81.3076 348.888C80.9223 349.047 80.5823 349.279 80.2876 349.585C80.0043 349.88 79.7776 350.237 79.6076 350.656C79.4489 351.064 79.3696 351.529 79.3696 352.05C79.3696 352.56 79.4489 353.025 79.6076 353.444C79.7776 353.863 80.0043 354.226 80.2876 354.532C80.5823 354.827 80.9223 355.053 81.3076 355.212C81.7043 355.371 82.1293 355.45 82.5826 355.45ZM90.9586 358V346.1H93.7296L100.292 354.022H98.9826V346.1H102.281V358H99.5096L92.9476 350.078H94.2566V358H90.9586ZM103.227 358L108.48 346.1H111.795L117.065 358H113.563L109.449 347.749H110.775L106.661 358H103.227ZM106.1 355.688L106.967 353.206H112.781L113.648 355.688H106.1ZM118.019 358V346.1H121.385V355.331H127.063V358H118.019ZM133.342 358V346.1H136.708V358H133.342ZM139.103 358V346.1H141.874L148.436 354.022H147.127V346.1H150.425V358H147.654L141.092 350.078H142.401V358H139.103ZM155.927 351.319H161.418V353.92H155.927V351.319ZM156.165 358H152.799V346.1H162.132V348.701H156.165V358ZM169.608 358.238C168.656 358.238 167.778 358.085 166.973 357.779C166.168 357.473 165.466 357.042 164.865 356.487C164.276 355.92 163.817 355.263 163.488 354.515C163.159 353.767 162.995 352.945 162.995 352.05C162.995 351.155 163.159 350.333 163.488 349.585C163.817 348.837 164.276 348.185 164.865 347.63C165.466 347.063 166.168 346.627 166.973 346.321C167.778 346.015 168.656 345.862 169.608 345.862C170.571 345.862 171.45 346.015 172.243 346.321C173.048 346.627 173.745 347.063 174.334 347.63C174.923 348.185 175.382 348.837 175.711 349.585C176.051 350.333 176.221 351.155 176.221 352.05C176.221 352.945 176.051 353.773 175.711 354.532C175.382 355.28 174.923 355.932 174.334 356.487C173.745 357.042 173.048 357.473 172.243 357.779C171.45 358.085 170.571 358.238 169.608 358.238ZM169.608 355.45C170.061 355.45 170.481 355.371 170.866 355.212C171.263 355.053 171.603 354.827 171.886 354.532C172.181 354.226 172.407 353.863 172.566 353.444C172.736 353.025 172.821 352.56 172.821 352.05C172.821 351.529 172.736 351.064 172.566 350.656C172.407 350.237 172.181 349.88 171.886 349.585C171.603 349.279 171.263 349.047 170.866 348.888C170.481 348.729 170.061 348.65 169.608 348.65C169.155 348.65 168.73 348.729 168.333 348.888C167.948 349.047 167.608 349.279 167.313 349.585C167.03 349.88 166.803 350.237 166.633 350.656C166.474 351.064 166.395 351.529 166.395 352.05C166.395 352.56 166.474 353.025 166.633 353.444C166.803 353.863 167.03 354.226 167.313 354.532C167.608 354.827 167.948 355.053 168.333 355.212C168.73 355.371 169.155 355.45 169.608 355.45ZM177.984 358V346.1H183.424C184.512 346.1 185.447 346.276 186.229 346.627C187.022 346.978 187.634 347.488 188.065 348.157C188.496 348.814 188.711 349.596 188.711 350.503C188.711 351.398 188.496 352.175 188.065 352.832C187.634 353.478 187.022 353.977 186.229 354.328C185.447 354.668 184.512 354.838 183.424 354.838H179.854L181.35 353.427V358H177.984ZM185.345 358L182.387 353.665H185.974L188.949 358H185.345ZM181.35 353.784L179.854 352.237H183.22C183.923 352.237 184.444 352.084 184.784 351.778C185.135 351.472 185.311 351.047 185.311 350.503C185.311 349.948 185.135 349.517 184.784 349.211C184.444 348.905 183.923 348.752 183.22 348.752H179.854L181.35 347.205V353.784ZM190.568 358V346.1H193.339L198.269 354.192H196.807L201.601 346.1H204.372L204.406 358H201.312L201.278 350.809H201.805L198.218 356.827H196.722L193.033 350.809H193.679V358H190.568ZM205.36 358L210.613 346.1H213.928L219.198 358H215.696L211.582 347.749H212.908L208.794 358H205.36ZM208.233 355.688L209.1 353.206H214.914L215.781 355.688H208.233ZM222.087 358V348.769H218.432V346.1H229.091V348.769H225.453V358H222.087ZM230.345 358V346.1H233.711V358H230.345ZM242.107 358.238C241.155 358.238 240.277 358.085 239.472 357.779C238.667 357.473 237.965 357.042 237.364 356.487C236.775 355.92 236.316 355.263 235.987 354.515C235.658 353.767 235.494 352.945 235.494 352.05C235.494 351.155 235.658 350.333 235.987 349.585C236.316 348.837 236.775 348.185 237.364 347.63C237.965 347.063 238.667 346.627 239.472 346.321C240.277 346.015 241.155 345.862 242.107 345.862C243.07 345.862 243.949 346.015 244.742 346.321C245.547 346.627 246.244 347.063 246.833 347.63C247.422 348.185 247.881 348.837 248.21 349.585C248.55 350.333 248.72 351.155 248.72 352.05C248.72 352.945 248.55 353.773 248.21 354.532C247.881 355.28 247.422 355.932 246.833 356.487C246.244 357.042 245.547 357.473 244.742 357.779C243.949 358.085 243.07 358.238 242.107 358.238ZM242.107 355.45C242.56 355.45 242.98 355.371 243.365 355.212C243.762 355.053 244.102 354.827 244.385 354.532C244.68 354.226 244.906 353.863 245.065 353.444C245.235 353.025 245.32 352.56 245.32 352.05C245.32 351.529 245.235 351.064 245.065 350.656C244.906 350.237 244.68 349.88 244.385 349.585C244.102 349.279 243.762 349.047 243.365 348.888C242.98 348.729 242.56 348.65 242.107 348.65C241.654 348.65 241.229 348.729 240.832 348.888C240.447 349.047 240.107 349.279 239.812 349.585C239.529 349.88 239.302 350.237 239.132 350.656C238.973 351.064 238.894 351.529 238.894 352.05C238.894 352.56 238.973 353.025 239.132 353.444C239.302 353.863 239.529 354.226 239.812 354.532C240.107 354.827 240.447 355.053 240.832 355.212C241.229 355.371 241.654 355.45 242.107 355.45ZM250.483 358V346.1H253.254L259.816 354.022H258.507V346.1H261.805V358H259.034L252.472 350.078H253.781V358H250.483Z" fill="#B7D6D6"/>
<path d="M-45 258.596H361.15L532.041 424.782L536.935 457.53L470.31 440.403L430.222 414.431L391.451 436.263L361.15 418.571L332.166 357.781L285.303 350.817L227.9 316.563L173.5 328L145.089 290.403L11.6502 305.836L-32.0137 332.749L-45 316.563V258.596Z" fill="#232A2A"/>
<path d="M-45 246.174H361.15L532.041 412.361L536.935 445.109L470.31 427.982L430.222 402.009L391.451 423.841L361.15 406.15L332.166 345.359L285.303 338.396L227.9 304.142L175.39 320.328L145.089 277.981L11.6502 293.414L-32.0137 320.328L-45 304.142V246.174Z" fill="#343F3F"/>
<path d="M-45 228.859H361.15L536.935 427.794L470.31 410.667L430.222 384.694L391.451 406.526L361.15 388.835L332.166 328.044L285.303 321.081L227.9 286.827L175.39 303.013L145.089 260.666L11.6502 276.099L-32.0137 303.013L-45 286.827V228.859Z" fill="#7D9090"/>
<path d="M91.2616 137.391L103.871 142.096L89.0031 166.186L89.3795 168.257L84.4862 184.066L79.0282 186.324L67.1712 208.345L47.7859 206.651L61.3368 196.676L63.5952 186.324L82.2277 160.352V153.953L91.2616 137.391Z" fill="#282F27"/>
<path d="M79.2165 138.896L82.2278 154.141V160.352L63.5953 186.325L61.3368 196.676L47.786 206.651L44.7747 191.406L51.3619 179.361L59.2666 166.186L71.1236 155.459V148.307L79.2165 138.896Z" fill="#15201C"/>
<path d="M46.28 38.2062L52.8673 35.9478L53.8083 40.4647L50.2324 41.9704L46.28 38.2062Z" fill="#497A76"/>
<path d="M52.8674 35.9475L56.6316 34.4419L55.6905 39.7117L53.8085 40.4645L52.8674 35.9475Z" fill="#75A4A2"/>
<path d="M93.7762 145.46L86.5143 152.782L80.8023 131.195L80.7807 131.113L80.726 131.049L73.2662 122.216L73.2484 113.051L73.2484 113.029L73.2458 113.008L72.4781 106.552L72.4753 106.528L72.4695 106.505L71.3516 102.029L72.4536 96.6092L72.4666 96.5453L72.4574 96.4807L72.0758 93.8224L72.0598 93.7112L71.9856 93.627L70.4772 91.9156L70.4425 91.8762L70.3984 91.8479L68.4744 90.6112L67.9205 85.8537L67.9204 85.8524L67.1905 79.1748L72.6007 78.162L76.0591 84.5665L77.1232 86.7059L76.0454 90.1663L76.0368 90.1937L76.0326 90.222L75.6593 92.6888L75.6476 92.7663L75.6678 92.842L76.4264 95.6911L76.4499 95.7793L76.5112 95.8469L80.4084 100.149L81.7167 105.752L81.7166 105.752L81.7189 105.761L83.0469 110.889L83.0635 110.953L83.1011 111.008L88.1367 118.331L88.5345 130.94L88.5364 131L88.5569 131.057L93.7762 145.46Z" fill="#396D6F" stroke="#396260" stroke-width="0.752826"/>
<path d="M62.7584 80.4276L68.7825 79.3049L72.4089 86.1095L73.5548 88.4418L72.4475 92.1152L72.0853 94.6309L72.858 97.5419L76.8449 102.024L78.2032 107.845L79.5563 113.084L84.6941 120.674L85.1547 133.656L90.5284 148.608L82.6643 156.693L76.6752 133.987L69.0776 124.832L69.0165 115.339L68.2181 108.747L67.0573 104.09L68.152 98.4793L67.7577 95.7648L66.2399 94.0114L64.1578 92.6415L63.5596 87.6008L62.7584 80.4276Z" fill="#326A67"/>
<path d="M90.8258 148.398L83.5531 155.671L77.8862 134.283L77.8616 134.19L77.7956 134.121L71.114 127.067L70.3702 116.286L70.3695 116.277L70.3685 116.268L69.6136 109.869L69.6108 109.845L69.605 109.821L68.4966 105.388L69.6084 100.014L69.6276 99.9212L69.6007 99.8306L68.0964 94.7491L68.0586 94.6213L67.9488 94.5458L65.0857 92.5774L64.7233 87.8666L64.7232 87.8651L64.3687 82.7427L69.7927 81.7255L73.2362 88.0666L74.2929 90.1799L73.2129 93.4195L73.183 93.5092L73.1991 93.6025L74.14 99.0605L74.1561 99.1538L74.2145 99.2284L77.5497 103.492L78.8497 109.057L78.8591 109.097L78.8769 109.135L81.1353 113.84L81.1389 113.847L81.1429 113.855L85.2416 121.493L85.6154 134.014L85.6172 134.075L85.6379 134.132L90.8258 148.398Z" fill="#86B3B5" stroke="#9BCDCB" stroke-width="0.752826"/>
<path d="M67.0528 66.4373L76.149 62.8613L81.8605 59.6618L83.3413 58.7208L84.3989 57.7798L85.2451 56.6505L85.8797 55.5213L86.3028 54.2038L86.5143 53.451L86.7259 52.3218L86.9374 51.1925L87.1489 49.8751V49.1223V48.3694L86.9374 45.1699L90.1105 49.6869L91.3797 52.1336L92.0143 54.7685V57.968L91.5912 61.1675L90.322 63.6142L88.6297 65.4962L66.4182 79.0471L67.0528 66.4373Z" fill="#3C6162"/>
<path d="M57.9888 68.8434L48.3169 70.2513L41.7705 70.3068L40.018 70.2244L38.6327 69.932L37.3378 69.3714L36.2266 68.7057L35.2057 67.7717L34.6485 67.223L33.9046 66.3475L33.1607 65.472L32.3234 64.4331L31.95 63.7794L31.5765 63.1258L30.1728 60.2428L29.6587 65.7389L29.7705 68.4929L30.5267 71.0955L32.114 73.8735L34.0687 76.4416L36.3845 77.9363L38.7876 78.7309L64.7957 79.4771L57.9888 68.8434Z" fill="#3C6162"/>
<path d="M89.4968 66.1585L70.4039 79.2507L70.9244 67.6283L78.8038 64.1467L78.8289 64.1356L78.8522 64.1209L83.9338 60.9214L83.9431 60.9155L83.952 60.9092L85.2695 59.9681L85.2948 59.95L85.3168 59.928L86.2579 58.987L86.2842 58.9606L86.3049 58.9296L87.0577 57.8004L87.0707 57.7809L87.0812 57.7599L87.6458 56.6307L87.6615 56.5994L87.6711 56.5657L88.0475 55.2483L88.0477 55.2483L88.0507 55.2362L88.2389 54.4833L88.2426 54.4688L88.2451 54.4539L88.4333 53.3247L88.6215 52.1954L88.6216 52.1955L88.6228 52.1868L88.811 50.8694L88.8148 50.8429V50.8161V50.0633V49.3105V49.2793L88.8097 49.2486L88.6215 48.1193L88.619 48.1045L88.6154 48.0899L88.5858 47.9718L90.7487 50.8228L91.8432 53.1944L92.3907 55.7494V58.8869L92.0239 62.0051L90.9389 64.3558L89.4968 66.1585Z" fill="#B7D6D6" stroke="#84BCB9" stroke-width="0.752826"/>
<path d="M39.4929 80.3965L62.3892 80.9826L55.8888 71.5562L47.3846 72.9055L47.3574 72.9098L47.3299 72.9101L41.3254 72.9792L41.3144 72.9793L41.3034 72.9788L39.6862 72.903L39.6551 72.9015L39.6246 72.895L38.3236 72.615L38.2871 72.6072L38.253 72.5923L37.0079 72.0521L36.9864 72.0428L36.9662 72.0309L35.8793 71.3886L35.8492 71.3708L35.8229 71.3477L34.7919 70.4452L34.7918 70.4454L34.7826 70.4368L34.2161 69.9065L34.2051 69.8962L34.195 69.8851L33.4243 69.0386L32.6536 68.1921L32.6535 68.1921L32.6478 68.1855L31.7749 67.1809L31.7574 67.1607L31.7429 67.1382L31.3345 66.5058L30.926 65.8734L30.9022 65.8365L30.8875 65.7951L30.4923 64.6814L30.4862 64.6643L30.4819 64.6468L30.1852 63.4602L30.1199 64.1957L30.1199 68.1788L30.4891 70.779L31.4152 73.2224L33.1174 75.8581L35.1172 78.2785L37.3039 79.6646L39.4929 80.3965Z" fill="#B7D6D6" stroke="#84BCB9" stroke-width="0.752826"/>
<path d="M77.3342 72.2714L69.8926 75.9861L68.6599 70.9078L75.0363 68.8227L77.146 67.9427L78.2752 67.3781L79.0281 66.8135L79.9691 66.0606L80.3455 65.6842L81.5452 64.2243L81.663 65.3078L81.663 66.2488L81.4747 67.1899L81.0983 68.1309L80.5337 69.2601L79.9691 70.2012L77.3342 72.2714Z" fill="#304746"/>
<path d="M51.7985 78.9512L61.3101 78.1363L59.6903 73.1553L52.1563 74.788L49.557 75.1664L48.1131 75.2892L47.0449 75.2109L45.6833 75.0731L45.0964 74.9538L43.0797 74.3523L43.5703 75.3374L44.0984 76.1384L44.8144 76.8387L45.7182 77.4385L46.9154 78.0979L48.007 78.5972L51.7985 78.9512Z" fill="#304746"/>
<path d="M72.3082 72.568L73.1631 71.7946L72.0659 71.441L72.3082 72.568Z" fill="#84BCB9"/>
<path d="M72.3054 72.5664L73.1617 71.7947L73.4019 72.9221L72.3054 72.5664Z" fill="#84BCB9"/>
<path d="M72.9229 70.6682L73.163 71.7956L74.0193 71.0239L72.9229 70.6682Z" fill="#84BCB9"/>
<path d="M73.4096 72.9203L73.1621 71.7945L74.2608 72.1431L73.4096 72.9203Z" fill="#84BCB9"/>
<path d="M74.2599 72.1486L73.1628 71.795L74.0176 71.0217L74.2599 72.1486Z" fill="#84BCB9"/>
<path d="M72.0638 71.4469L73.1626 71.7954L72.915 70.6696L72.0638 71.4469Z" fill="#84BCB9"/>
<path d="M72.5845 72.3521L73.1694 71.823L72.4187 71.581L72.5845 72.3521Z" fill="#A8D6D7"/>
<path d="M72.5826 72.35L73.1685 71.822L73.3328 72.5934L72.5826 72.35Z" fill="#A8D6D7"/>
<path d="M73.004 71.0514L73.1683 71.8228L73.7542 71.2948L73.004 71.0514Z" fill="#A8D6D7"/>
<path d="M73.3374 72.5933L73.1681 71.823L73.9199 72.0615L73.3374 72.5933Z" fill="#A8D6D7"/>
<path d="M73.9196 72.0652L73.169 71.8233L73.7539 71.2942L73.9196 72.0652Z" fill="#A8D6D7"/>
<path d="M72.4169 71.5849L73.1686 71.8234L72.9993 71.0531L72.4169 71.5849Z" fill="#A8D6D7"/>
<path d="M75.5785 71.0009L76.1648 70.4705L75.4123 70.2279L75.5785 71.0009Z" fill="#84BCB9"/>
<path d="M75.5753 71.0003L76.1626 70.471L76.3274 71.2443L75.5753 71.0003Z" fill="#84BCB9"/>
<path d="M75.999 69.6982L76.1638 70.4715L76.7511 69.9422L75.999 69.6982Z" fill="#84BCB9"/>
<path d="M76.3327 71.2428L76.1629 70.4706L76.9166 70.7097L76.3327 71.2428Z" fill="#84BCB9"/>
<path d="M76.9154 70.7135L76.1629 70.4709L76.7492 69.9405L76.9154 70.7135Z" fill="#84BCB9"/>
<path d="M75.4093 70.232L76.1629 70.4711L75.9932 69.6988L75.4093 70.232Z" fill="#84BCB9"/>
<path d="M75.7655 70.8541L76.1667 70.4912L75.6518 70.3252L75.7655 70.8541Z" fill="#A8D6D7"/>
<path d="M75.7643 70.8527L76.1661 70.4906L76.2788 71.0197L75.7643 70.8527Z" fill="#A8D6D7"/>
<path d="M76.0531 69.962L76.1658 70.4911L76.5677 70.129L76.0531 69.962Z" fill="#A8D6D7"/>
<path d="M76.2819 71.0193L76.1657 70.491L76.6814 70.6546L76.2819 71.0193Z" fill="#A8D6D7"/>
<path d="M76.6829 70.6573L76.168 70.4913L76.5692 70.1284L76.6829 70.6573Z" fill="#A8D6D7"/>
<path d="M75.6503 70.328L76.166 70.4916L76.0498 69.9632L75.6503 70.328Z" fill="#A8D6D7"/>
<path d="M77.9487 69.6861L78.3822 69.2939L77.8258 69.1145L77.9487 69.6861Z" fill="#84BCB9"/>
<path d="M77.9463 69.6855L78.3805 69.2942L78.5023 69.8659L77.9463 69.6855Z" fill="#84BCB9"/>
<path d="M78.2595 68.723L78.3813 69.2948L78.8156 68.9034L78.2595 68.723Z" fill="#84BCB9"/>
<path d="M78.5059 69.8652L78.3804 69.2943L78.9376 69.471L78.5059 69.8652Z" fill="#84BCB9"/>
<path d="M78.9382 69.4735L78.3818 69.2941L78.8153 68.902L78.9382 69.4735Z" fill="#84BCB9"/>
<path d="M77.8237 69.1182L78.3809 69.295L78.2554 68.724L77.8237 69.1182Z" fill="#84BCB9"/>
<path d="M78.087 69.5782L78.3836 69.3098L78.0029 69.1871L78.087 69.5782Z" fill="#A8D6D7"/>
<path d="M78.0864 69.5774L78.3835 69.3096L78.4669 69.7008L78.0864 69.5774Z" fill="#A8D6D7"/>
<path d="M78.3001 68.9188L78.3835 69.31L78.6806 69.0422L78.3001 68.9188Z" fill="#A8D6D7"/>
<path d="M78.4688 69.7002L78.383 69.3095L78.7642 69.4305L78.4688 69.7002Z" fill="#A8D6D7"/>
<path d="M78.7658 69.4323L78.3851 69.3096L78.6817 69.0412L78.7658 69.4323Z" fill="#A8D6D7"/>
<path d="M78.0015 69.1889L78.3827 69.3099L78.2969 68.9192L78.0015 69.1889Z" fill="#A8D6D7"/>
<path d="M57.3573 76.6694L56.2358 76.4031L57.0272 75.565L57.3573 76.6694Z" fill="#84BCB9"/>
<path d="M57.359 76.6664L56.2369 76.4022L56.5692 77.5061L57.359 76.6664Z" fill="#84BCB9"/>
<path d="M55.9039 75.3L56.2361 76.4038L55.1141 76.1396L55.9039 75.3Z" fill="#84BCB9"/>
<path d="M56.5614 77.508L56.2364 76.402L55.4412 77.2365L56.5614 77.508Z" fill="#84BCB9"/>
<path d="M55.4446 77.2412L56.236 76.403L55.1145 76.1367L55.4446 77.2412Z" fill="#84BCB9"/>
<path d="M57.0321 75.5692L56.2369 76.4036L55.9118 75.2977L57.0321 75.5692Z" fill="#84BCB9"/>
<path d="M57.0114 76.6133L56.244 76.4311L56.7855 75.8576L57.0114 76.6133Z" fill="#A8D6D7"/>
<path d="M57.0118 76.6108L56.2441 76.4301L56.4714 77.1853L57.0118 76.6108Z" fill="#A8D6D7"/>
<path d="M56.0177 75.6752L56.245 76.4304L55.4773 76.2496L56.0177 75.6752Z" fill="#A8D6D7"/>
<path d="M56.4675 77.187L56.2451 76.4303L55.701 77.0012L56.4675 77.187Z" fill="#A8D6D7"/>
<path d="M55.7028 77.0046L56.2443 76.4312L55.4769 76.249L55.7028 77.0046Z" fill="#A8D6D7"/>
<path d="M56.789 75.8602L56.2449 76.4312L56.0225 75.6745L56.789 75.8602Z" fill="#A8D6D7"/>
<path d="M53.7376 76.87L52.9684 76.6873L53.5112 76.1125L53.7376 76.87Z" fill="#84BCB9"/>
<path d="M53.7398 76.8676L52.9702 76.6864L53.198 77.4435L53.7398 76.8676Z" fill="#84BCB9"/>
<path d="M52.7419 75.9303L52.9698 76.6874L52.2002 76.5062L52.7419 75.9303Z" fill="#84BCB9"/>
<path d="M53.1931 77.4445L52.9702 76.6859L52.4247 77.2582L53.1931 77.4445Z" fill="#84BCB9"/>
<path d="M52.4273 77.2612L52.9701 76.6863L52.2008 76.5037L52.4273 77.2612Z" fill="#84BCB9"/>
<path d="M53.5157 76.1147L52.9702 76.6871L52.7473 75.9285L53.5157 76.1147Z" fill="#84BCB9"/>
<path d="M53.5029 76.8306L52.9765 76.7056L53.3479 76.3123L53.5029 76.8306Z" fill="#A8D6D7"/>
<path d="M53.5032 76.8289L52.9767 76.7049L53.1326 77.2229L53.5032 76.8289Z" fill="#A8D6D7"/>
<path d="M52.8211 76.1873L52.977 76.7053L52.4504 76.5813L52.8211 76.1873Z" fill="#A8D6D7"/>
<path d="M53.1298 77.2241L52.9773 76.7051L52.604 77.0967L53.1298 77.2241Z" fill="#A8D6D7"/>
<path d="M52.6039 77.0995L52.9753 76.7062L52.449 76.5812L52.6039 77.0995Z" fill="#A8D6D7"/>
<path d="M53.3503 76.3138L52.977 76.7054L52.8245 76.1864L53.3503 76.3138Z" fill="#A8D6D7"/>
<path d="M49.5498 43.0214C49.405 42.6445 49.5834 42.2204 49.9541 42.0603L56.9084 39.0573C57.2795 38.8971 57.7108 39.0584 57.8856 39.4228L59.5994 42.9951C59.7376 43.2832 59.6789 43.6271 59.4529 43.853L58.4297 44.8763C58.3602 44.9458 58.2777 45.001 58.1869 45.0389L56.0659 45.9226L53.3448 47.0111C53.2772 47.0381 53.2059 47.0552 53.1334 47.0618L51.7375 47.1888C51.4022 47.2193 51.0874 47.0234 50.9666 46.709L49.5498 43.0214Z" fill="#555555"/>
<path d="M51.0285 76.8587L50.4598 76.7236L50.8611 76.2986L51.0285 76.8587Z" fill="#84BCB9"/>
<path d="M51.0304 76.857L50.4614 76.723L50.6299 77.2828L51.0304 76.857Z" fill="#84BCB9"/>
<path d="M50.2924 76.1638L50.4609 76.7236L49.8919 76.5896L50.2924 76.1638Z" fill="#84BCB9"/>
<path d="M50.6262 77.284L50.4613 76.7231L50.058 77.1463L50.6262 77.284Z" fill="#84BCB9"/>
<path d="M50.0588 77.1488L50.4602 76.7237L49.8914 76.5887L50.0588 77.1488Z" fill="#84BCB9"/>
<path d="M50.8645 76.3004L50.4611 76.7236L50.2963 76.1627L50.8645 76.3004Z" fill="#84BCB9"/>
<path d="M50.8554 76.8305L50.4662 76.7381L50.7408 76.4473L50.8554 76.8305Z" fill="#A8D6D7"/>
<path d="M50.8553 76.8292L50.466 76.7375L50.5813 77.1205L50.8553 76.8292Z" fill="#A8D6D7"/>
<path d="M50.3508 76.3547L50.466 76.7377L50.0767 76.646L50.3508 76.3547Z" fill="#A8D6D7"/>
<path d="M50.5792 77.1214L50.4665 76.7377L50.1905 77.0272L50.5792 77.1214Z" fill="#A8D6D7"/>
<path d="M50.1903 77.0294L50.4649 76.7386L50.0757 76.6462L50.1903 77.0294Z" fill="#A8D6D7"/>
<path d="M50.7426 76.4481L50.4667 76.7377L50.3539 76.3539L50.7426 76.4481Z" fill="#A8D6D7"/>
<path d="M53.2447 47.0514L58.3276 44.9813L61.1484 50.0627L63.5953 55.1444L65.6655 60.2259L67.5476 66.2486L59.4547 69.0717L56.6328 63.0495L55.314 58.1561L53.9965 52.5094L53.2447 47.0514Z" fill="#253333"/>
<path d="M54.1282 46.7388L57.5723 45.3579L59.9437 50.4421L62.1598 55.6002L64.1132 60.7205L66.0297 66.7318L60.6668 68.6503L58.0948 62.5453L56.6845 57.6822L55.1996 52.091L54.1282 46.7388Z" fill="#303F3F"/>
<path d="M56.0669 71.1418L61.3369 62.1082L70.5578 67.3777L69.8072 91.28L56.0669 71.1418Z" fill="#4B7270"/>
<path d="M57.8986 72.3403L62.1629 65.0308L69.624 69.2946L69.0167 88.6352L57.8986 72.3403Z" fill="#304746"/>
<path d="M63.6889 74.6619L64.1401 72.0833L61.6813 72.9818L63.6889 74.6619Z" fill="#84BCB9"/>
<path d="M63.6851 74.6626L64.1412 72.0848L66.1455 73.7687L63.6851 74.6626Z" fill="#84BCB9"/>
<path d="M62.1366 70.4009L64.1409 72.0848L64.597 69.507L62.1366 70.4009Z" fill="#84BCB9"/>
<path d="M66.1556 73.7543L64.1403 72.0836L66.5949 71.1737L66.1556 73.7543Z" fill="#84BCB9"/>
<path d="M66.5986 71.1851L64.1398 72.0836L64.5911 69.505L66.5986 71.1851Z" fill="#84BCB9"/>
<path d="M61.6865 72.9949L64.1411 72.085L62.1258 70.4142L61.6865 72.9949Z" fill="#84BCB9"/>
<path d="M63.8844 73.8912L64.1931 72.1268L62.5108 72.7416L63.8844 73.8912Z" fill="#A8D6D7"/>
<path d="M63.8816 73.8905L64.1937 72.1267L65.565 73.2789L63.8816 73.8905Z" fill="#A8D6D7"/>
<path d="M62.822 70.9748L64.1934 72.127L64.5055 70.3632L62.822 70.9748Z" fill="#A8D6D7"/>
<path d="M65.5719 73.2691L64.193 72.1259L65.8724 71.5034L65.5719 73.2691Z" fill="#A8D6D7"/>
<path d="M65.8757 71.5118L64.1934 72.1266L64.5021 70.3623L65.8757 71.5118Z" fill="#A8D6D7"/>
<path d="M62.5156 72.7513L64.195 72.1287L62.8161 70.9856L62.5156 72.7513Z" fill="#A8D6D7"/>
<path d="M75.136 124.558L78.6486 124.404L76.7589 121.439L75.136 124.558Z" fill="#68A4A1"/>
<path d="M75.1345 124.554L78.6475 124.406L77.0186 127.522L75.1345 124.554Z" fill="#68A4A1"/>
<path d="M80.2772 121.292L78.6484 124.408L82.1613 124.26L80.2772 121.292Z" fill="#68A4A1"/>
<path d="M77.0404 127.533L78.6489 124.406L80.5524 127.363L77.0404 127.533Z" fill="#68A4A1"/>
<path d="M80.5381 127.37L78.6484 124.405L82.1611 124.251L80.5381 127.37Z" fill="#68A4A1"/>
<path d="M76.7437 121.449L78.6472 124.405L80.2556 121.278L76.7437 121.449Z" fill="#68A4A1"/>
<path d="M76.1718 124.566L78.5763 124.49L77.3087 122.446L76.1718 124.566Z" fill="#8BCACC"/>
<path d="M76.1722 124.563L78.5769 124.493L77.4359 126.61L76.1722 124.563Z" fill="#8BCACC"/>
<path d="M79.7162 122.371L78.5751 124.489L80.9798 124.419L79.7162 122.371Z" fill="#8BCACC"/>
<path d="M77.4495 126.616L78.5766 124.491L79.8536 126.529L77.4495 126.616Z" fill="#8BCACC"/>
<path d="M79.8434 126.535L78.5759 124.491L80.9804 124.415L79.8434 126.535Z" fill="#8BCACC"/>
<path d="M77.2972 122.454L78.5742 124.493L79.7014 122.368L77.2972 122.454Z" fill="#8BCACC"/>
<path d="M74.4799 117.997L76.1812 117.807L75.1665 116.429L74.4799 117.997Z" fill="#68A4A1"/>
<path d="M74.4785 117.994L76.1801 117.808L75.4905 119.375L74.4785 117.994Z" fill="#68A4A1"/>
<path d="M76.8723 116.243L76.1827 117.81L77.8843 117.624L76.8723 116.243Z" fill="#68A4A1"/>
<path d="M75.5003 119.379L76.1797 117.807L77.2008 119.181L75.5003 119.379Z" fill="#68A4A1"/>
<path d="M77.1955 119.186L76.1808 117.807L77.8821 117.618L77.1955 119.186Z" fill="#68A4A1"/>
<path d="M75.1581 116.434L76.1791 117.808L76.8585 116.236L75.1581 116.434Z" fill="#68A4A1"/>
<path d="M74.9943 117.982L76.1584 117.852L75.4641 116.909L74.9943 117.982Z" fill="#8BCACC"/>
<path d="M74.9951 117.981L76.1594 117.853L75.6875 118.925L74.9951 117.981Z" fill="#8BCACC"/>
<path d="M76.6332 116.779L76.1614 117.851L77.3257 117.723L76.6332 116.779Z" fill="#8BCACC"/>
<path d="M75.6975 118.928L76.1623 117.853L76.8609 118.793L75.6975 118.928Z" fill="#8BCACC"/>
<path d="M76.8538 118.795L76.1595 117.852L77.3236 117.722L76.8538 118.795Z" fill="#8BCACC"/>
<path d="M75.4592 116.914L76.1578 117.854L76.6226 116.779L75.4592 116.914Z" fill="#8BCACC"/>
<path d="M73.5662 112.749L74.6644 112.627L74.0094 111.737L73.5662 112.749Z" fill="#68A4A1"/>
<path d="M73.5659 112.748L74.6643 112.627L74.2192 113.639L73.5659 112.748Z" fill="#68A4A1"/>
<path d="M75.1097 111.617L74.6645 112.629L75.763 112.508L75.1097 111.617Z" fill="#68A4A1"/>
<path d="M74.2261 113.642L74.6647 112.627L75.3238 113.514L74.2261 113.642Z" fill="#68A4A1"/>
<path d="M75.3195 113.517L74.6645 112.627L75.7628 112.505L75.3195 113.517Z" fill="#68A4A1"/>
<path d="M74.0049 111.74L74.664 112.627L75.1025 111.613L74.0049 111.74Z" fill="#68A4A1"/>
<path d="M73.9001 112.739L74.6515 112.655L74.2034 112.046L73.9001 112.739Z" fill="#8BCACC"/>
<path d="M73.9005 112.739L74.6521 112.656L74.3475 113.348L73.9005 112.739Z" fill="#8BCACC"/>
<path d="M74.9557 111.963L74.6511 112.655L75.4027 112.572L74.9557 111.963Z" fill="#8BCACC"/>
<path d="M74.3519 113.349L74.652 112.655L75.103 113.262L74.3519 113.349Z" fill="#8BCACC"/>
<path d="M75.0996 113.265L74.6514 112.656L75.4029 112.572L75.0996 113.265Z" fill="#8BCACC"/>
<path d="M74.2003 112.049L74.6513 112.656L74.9513 111.962L74.2003 112.049Z" fill="#8BCACC"/>
<path d="M79.4419 131.122L80.5402 130.999L79.8851 130.109L79.4419 131.122Z" fill="#68A4A1"/>
<path d="M79.4416 131.12L80.5401 131L80.0949 132.011L79.4416 131.12Z" fill="#68A4A1"/>
<path d="M80.9854 129.99L80.5403 131.001L81.6387 130.881L80.9854 129.99Z" fill="#68A4A1"/>
<path d="M80.1019 132.014L80.5404 131L81.1995 131.887L80.1019 132.014Z" fill="#68A4A1"/>
<path d="M81.1953 131.89L80.5403 131L81.6385 130.878L81.1953 131.89Z" fill="#68A4A1"/>
<path d="M79.8806 130.112L80.5397 130.999L80.9783 129.985L79.8806 130.112Z" fill="#68A4A1"/>
<path d="M79.7758 131.111L80.5273 131.028L80.0791 130.419L79.7758 131.111Z" fill="#8BCACC"/>
<path d="M79.7762 131.111L80.5278 131.029L80.2232 131.721L79.7762 131.111Z" fill="#8BCACC"/>
<path d="M80.8314 130.335L80.5269 131.027L81.2785 130.945L80.8314 130.335Z" fill="#8BCACC"/>
<path d="M80.2277 131.722L80.5277 131.028L80.9787 131.635L80.2277 131.722Z" fill="#8BCACC"/>
<path d="M80.9756 131.637L80.5274 131.028L81.2789 130.945L80.9756 131.637Z" fill="#8BCACC"/>
<path d="M80.076 130.422L80.527 131.029L80.8271 130.335L80.076 130.422Z" fill="#8BCACC"/>
<path d="M67.1145 80.1025L66.2878 78.6707L65.4611 80.1025L67.1145 80.1025Z" fill="#84BCB9"/>
<path d="M67.1128 80.1042L66.2889 78.6707L67.9422 78.6739L67.1128 80.1042Z" fill="#84BCB9"/>
<path d="M64.6354 78.6674L66.2887 78.6706L65.4648 77.2371L64.6354 78.6674Z" fill="#84BCB9"/>
<path d="M67.9414 78.6629L66.288 78.6705L67.108 77.2349L67.9414 78.6629Z" fill="#84BCB9"/>
<path d="M67.1145 77.2388L66.2878 78.6706L65.4611 77.2388L67.1145 77.2388Z" fill="#84BCB9"/>
<path d="M65.469 80.1064L66.289 78.6708L64.6357 78.6784L65.469 80.1064Z" fill="#84BCB9"/>
<path d="M66.8966 79.6497L66.331 78.67L65.7654 79.6497L66.8966 79.6497Z" fill="#A8D6D7"/>
<path d="M66.8938 79.6511L66.33 78.6704L67.4612 78.6725L66.8938 79.6511Z" fill="#A8D6D7"/>
<path d="M65.1998 78.6683L66.331 78.6704L65.7672 77.6897L65.1998 78.6683Z" fill="#A8D6D7"/>
<path d="M67.4627 78.6648L66.3315 78.67L66.8925 77.6877L67.4627 78.6648Z" fill="#A8D6D7"/>
<path d="M66.8966 77.6906L66.331 78.6703L65.7654 77.6906L66.8966 77.6906Z" fill="#A8D6D7"/>
<path d="M65.7708 79.6527L66.3319 78.6704L65.2006 78.6757L65.7708 79.6527Z" fill="#A8D6D7"/>
<path d="M47.4093 24.4673L52.8673 35.9479L46.28 38.2064L47.4093 24.4673Z" fill="#558B87"/>
<path d="M47.4094 24.467L56.6315 34.4419L52.8674 35.9476L47.4094 24.467Z" fill="#84BCB9"/>
<path d="M25.3675 17.7237L27.3963 15.9622L29.5409 19.3243L27.326 18.4976L25.3675 17.7237Z" fill="#B9DCD9"/>
<path d="M27.3965 15.9623L28.5246 14.8788L28.9511 16.8997L29.5411 19.3244L27.3965 15.9623Z" fill="#CAEDEB"/>
<path d="M23.782 12.647L27.3963 15.9625L25.3675 17.724L23.782 12.647Z" fill="#BDEDE9"/>
<path d="M23.7821 12.647L28.5245 14.8791L27.3963 15.9626L23.7821 12.647Z" fill="#E2F5F4"/>
<path d="M38.5637 3.10323L39.6865 2.71826L40.0074 4.45062L39.2374 3.74484L38.5637 3.10323Z" fill="#B9DCD9"/>
<path d="M39.6863 2.71856L40.3279 2.46191L40.1675 3.36017L40.0071 4.45092L39.6863 2.71856Z" fill="#CAEDEB"/>
<path d="M38.7562 0.761719L39.6865 2.71864L38.5637 3.10361L38.7562 0.761719Z" fill="#BDEDE9"/>
<path d="M38.7561 0.761433L40.3281 2.46171L39.6864 2.71835L38.7561 0.761433Z" fill="#E2F5F4"/>
<path d="M45.5162 13.6183L46.7001 13.7046L46.3155 15.424L45.8842 14.4727L45.5162 13.6183Z" fill="#B9DCD9"/>
<path d="M46.6999 13.7043L47.3907 13.72L46.8908 14.4833L46.3154 15.4237L46.6999 13.7043Z" fill="#CAEDEB"/>
<path d="M46.6121 11.5394L46.7002 13.7044L45.5163 13.618L46.6121 11.5394Z" fill="#BDEDE9"/>
<path d="M46.6117 11.5392L47.3906 13.7198L46.6997 13.7042L46.6117 11.5392Z" fill="#E2F5F4"/>
<path d="M36.3017 15.2935L37.0267 14.3537L38.2487 15.6228L37.2174 15.4579L36.3017 15.2935Z" fill="#B9DCD9"/>
<path d="M37.0264 14.3538L37.4205 13.7862L37.7814 14.6243L38.2484 15.623L37.0264 14.3538Z" fill="#CAEDEB"/>
<path d="M35.1721 13.2328L37.0265 14.3536L36.3015 15.2934L35.1721 13.2328Z" fill="#BDEDE9"/>
<path d="M35.172 13.2329L37.4206 13.7861L37.0264 14.3537L35.172 13.2329Z" fill="#E2F5F4"/>
<path d="M55.3248 6.06873L58.3111 6.63281L56.8328 10.8945L56.0123 8.34931L55.3248 6.06873Z" fill="#B9DCD9"/>
<path d="M58.3122 6.63371L60.065 6.87444L58.5713 8.6707L56.834 10.8954L58.3122 6.63371Z" fill="#CAEDEB"/>
<path d="M58.716 1.101L58.3102 6.63383L55.324 6.06975L58.716 1.101Z" fill="#BDEDE9"/>
<path d="M58.7135 1.09901L60.0606 6.87256L58.3077 6.63183L58.7135 1.09901Z" fill="#E2F5F4"/>
<path d="M58.4869 22.3701L60.4184 22.735L59.4623 25.4915L58.9316 23.8452L58.4869 22.3701Z" fill="#B9DCD9"/>
<path d="M60.4198 22.7357L61.5536 22.8914L60.5874 24.0532L59.4637 25.4922L60.4198 22.7357Z" fill="#CAEDEB"/>
<path d="M60.6807 19.1571L60.4182 22.7358L58.4867 22.3709L60.6807 19.1571Z" fill="#BDEDE9"/>
<path d="M60.68 19.1558L61.5513 22.8902L60.4175 22.7345L60.68 19.1558Z" fill="#E2F5F4"/>
<path d="M28.0351 40.3049L28.5226 38.4006L31.2124 39.5309L29.5357 39.9554L28.0351 40.3049Z" fill="#B9DCD9"/>
<path d="M28.5233 38.3993L28.7511 37.2778L29.8488 38.3162L31.2131 39.5295L28.5233 38.3993Z" fill="#CAEDEB"/>
<path d="M24.9686 37.9103L28.5233 38.4007L28.0358 40.305L24.9686 37.9103Z" fill="#BDEDE9"/>
<path d="M24.9673 37.9109L28.7497 37.2799L28.5219 38.4014L24.9673 37.9109Z" fill="#E2F5F4"/>
<path d="M33.2481 29.0076L34.0594 27.885L35.5311 29.3205L34.3221 29.1659L33.2481 29.0076Z" fill="#B9DCD9"/>
<path d="M34.0589 27.8838L34.4979 27.2074L34.9495 28.1716L35.5306 29.3194L34.0589 27.8838Z" fill="#CAEDEB"/>
<path d="M31.8546 26.6454L34.0585 27.8848L33.2472 29.0074L31.8546 26.6454Z" fill="#BDEDE9"/>
<path d="M31.8536 26.6458L34.4964 27.2088L34.0574 27.8852L31.8536 26.6458Z" fill="#E2F5F4"/>
<path d="M70.8359 24.8624L72.6404 25.5522L71.2348 28.0514L71.0086 26.3667L70.8359 24.8624Z" fill="#B9DCD9"/>
<path d="M72.6394 25.5531L73.7087 25.9015L72.5716 26.8567L71.2338 28.0524L72.6394 25.5531Z" fill="#CAEDEB"/>
<path d="M73.5174 22.1377L72.6393 25.5532L70.8348 24.8634L73.5174 22.1377Z" fill="#BDEDE9"/>
<path d="M73.516 22.1358L73.7073 25.8997L72.638 25.5513L73.516 22.1358Z" fill="#E2F5F4"/>
<path d="M105.753 112.924L112.341 116.5L104.248 123.275L96.9077 122.334L105.753 112.924Z" fill="#3E5246"/>
<path d="M112.341 116.5L115.54 142.096L114.976 146.613L113.658 150.377L115.54 153.765V158.658L118.74 161.858L94.6494 170.703L89.3796 168.445L89.0032 166.187L103.871 142.096L104.248 123.275L112.341 116.5Z" fill="#545A58"/>
<path d="M114.976 146.613L127.021 170.892L158.263 202.134L149.606 211.356L145.653 237.329L132.102 197.241L120.057 178.608L118.552 161.67L114.976 158.094V153.201L113.658 150.377L114.976 146.613Z" fill="#77867F"/>
<path d="M94.6494 170.515L118.74 161.669L120.246 177.291H114.599L97.4725 200.44L94.6494 199.875V170.515Z" fill="#726F68"/>
<path d="M114.6 177.102H120.246L132.479 197.24L121.94 210.979L95.5908 212.485L97.4729 200.44L114.6 177.102Z" fill="#3E453D"/>
<path d="M95.5895 212.485L121.938 210.979L127.396 240.528L85.6145 236.011L95.5895 212.485Z" fill="#182018"/>
<path d="M121.94 210.979L132.479 197.24L145.654 237.328L127.398 240.528L121.94 210.979Z" fill="#6B645C"/>
<path d="M89.3795 168.257L94.6492 170.515V199.876L97.4723 200.44L95.5903 212.674L85.6153 236.011L88.8148 186.325L84.4861 184.066L89.3795 168.257Z" fill="#1E201D"/>
<path d="M82.7923 189.524L89.0031 186.325L86.18 229.612L74.323 229.989L82.7923 189.524Z" fill="#202624"/>
<path d="M79.0282 186.325L82.7923 189.524L74.323 229.989L73.0055 218.696L67.1711 208.345L79.0282 186.325Z" fill="#1D1F1C"/>
<path d="M79.0281 186.325L84.4861 184.066L89.003 186.325L82.7922 189.524L79.0281 186.325Z" fill="#293430"/>
<path d="M96.9079 122.334L104.248 123.276L103.872 142.096L91.2617 137.391L89.5679 132.686L96.9079 122.334Z" fill="#1D2120"/>
<path d="M158.263 202.51L201.174 216.061L229.405 204.769L259.707 211.732L284.362 225.283H348.54L342.517 266.689L368.49 285.886L410.46 326.162L469.745 332.561L524.137 347.429V414.807L491.953 378.295L435.303 362.674L431.727 351.57V362.674H371.689L351.551 347.053L347.411 308.847L322.191 297.743L298.289 266.689H256.131L223.006 242.598L184.236 245.421L145.653 237.705V224.907L149.606 211.732L158.263 202.51Z" fill="#47524E"/>
<path d="M171.814 193.288L201.174 202.887L229.405 191.594L259.707 198.558L284.362 212.109L334.989 216.814L369.431 234.694L379.406 266.312L399.92 275.534L409.895 296.425L426.269 307.153L442.643 300.189L481.979 307.153L510.21 331.244L524.137 337.454V396.739L494.777 368.508L432.292 352.323H375.454L356.445 326.727L347.975 296.425L332.919 292.849L329.908 285.509L298.289 253.514L261.212 251.632L223.006 229.424L183.859 232.059L145.653 224.53L152.805 196.488L171.814 193.288Z" fill="#7C978D"/>
<path d="M-45 203.263L-30.3199 208.721L-7.17047 218.32L15.4143 208.721L33.4822 203.263L44.7746 198.558L47.7859 213.803L67.1711 215.497L73.0055 225.848L74.323 237.14L86.18 236.764L85.6154 243.163L64.348 247.304L44.7746 243.163L28.777 241.281L15.4143 247.304L4.68655 237.14H-22.9798L-32.0137 247.304L-45 244.669V203.263Z" fill="#38433F"/>
<path d="M-45 196.111L-30.3199 201.569L-7.17048 211.168L15.4143 201.569L33.4822 196.111L44.7745 191.406L47.7859 206.651L67.1711 208.345L73.0055 218.696L74.323 229.989L86.18 229.612L85.6154 236.011L86.3682 236.764L64.348 240.152L44.7745 236.011L28.777 234.129L15.4143 240.152L4.68654 229.989H-22.9798L-32.0137 240.152L-45 237.517V196.111Z" fill="#60716B"/>
<path d="M60.772 218.696L67.1711 208.345L73.1937 218.696L74.3229 229.988L86.1799 229.612L85.8035 233.941L79.4045 232.059L63.7833 237.14L46.8447 229.988L39.8811 219.825L60.772 218.696Z" fill="#364131"/>
<path d="M175.176 215.15L170.357 226.325L162.887 216.964L160.121 205.958L149.606 208.91L150.547 204.651L154.792 204.651L169.503 197.343L187.305 201.945L195.678 210.982L175.176 215.15Z" fill="#364131"/>
<path d="M298.289 253.514L369.431 234.882L380.885 267.253L357.95 271.959L335.742 267.253L321.062 277.228L298.289 253.514Z" fill="#596F67"/>
<path d="M369.055 297.743L385.617 298.684L395.215 291.532L399.92 275.535L409.895 296.426L396.533 300.378L387.687 308.283H373.195L356.445 326.162L351.928 310.729L359.456 306.965L369.055 297.743Z" fill="#5D7069"/>
<g filter="url(#filter0_f_2354_7430)">
<circle cx="111.131" cy="50.3453" r="0.799878" fill="#FFF5BF"/>
</g>
<g filter="url(#filter1_f_2354_7430)">
<circle cx="111.177" cy="50.3925" r="0.376413" fill="#FFF5BF"/>
</g>
<g filter="url(#filter2_f_2354_7430)">
<circle cx="111.177" cy="50.3923" r="1.88207" fill="#FFF5BF"/>
</g>
<g filter="url(#filter3_f_2354_7430)">
<circle cx="111.13" cy="50.3453" r="1.4586" fill="#FFF5BF"/>
</g>
<g filter="url(#filter4_f_2354_7430)">
<circle cx="202.866" cy="27.6503" r="1.40807" fill="white" fill-opacity="0.5"/>
</g>
<g filter="url(#filter5_f_2354_7430)">
<circle cx="202.947" cy="27.7329" r="0.66262" fill="white" fill-opacity="0.6"/>
</g>
<g filter="url(#filter6_f_2354_7430)">
<circle cx="202.948" cy="27.733" r="3.3131" fill="white" fill-opacity="0.2"/>
</g>
<g filter="url(#filter7_f_2354_7430)">
<circle cx="202.865" cy="27.6497" r="2.56765" fill="white" fill-opacity="0.3"/>
</g>
<g filter="url(#filter8_f_2354_7430)">
<circle cx="160.046" cy="89.0964" r="1.11983" fill="white" fill-opacity="0.5"/>
</g>
<g filter="url(#filter9_f_2354_7430)">
<circle cx="160.11" cy="89.1632" r="0.526979" fill="white" fill-opacity="0.6"/>
</g>
<g filter="url(#filter10_f_2354_7430)">
<circle cx="160.111" cy="89.1627" r="2.63489" fill="white" fill-opacity="0.2"/>
</g>
<g filter="url(#filter11_f_2354_7430)">
<circle cx="160.044" cy="89.0967" r="2.04204" fill="white" fill-opacity="0.3"/>
</g>
<g filter="url(#filter12_f_2354_7430)">
<circle cx="46.5342" cy="105.447" r="1.51977" fill="white" fill-opacity="0.5"/>
</g>
<g filter="url(#filter13_f_2354_7430)">
<circle cx="46.6236" cy="105.537" r="0.715185" fill="white" fill-opacity="0.6"/>
</g>
<g filter="url(#filter14_f_2354_7430)">
<circle cx="46.6228" cy="105.537" r="3.57593" fill="white" fill-opacity="0.2"/>
</g>
<g filter="url(#filter15_f_2354_7430)">
<circle cx="46.5326" cy="105.448" r="2.77134" fill="white" fill-opacity="0.3"/>
</g>
<g filter="url(#filter16_f_2354_7430)">
<circle cx="165.189" cy="50.9502" r="1.39213" fill="white" fill-opacity="0.5"/>
</g>
<g filter="url(#filter17_f_2354_7430)">
<circle cx="165.271" cy="51.0335" r="0.655121" fill="white" fill-opacity="0.6"/>
</g>
<g filter="url(#filter18_f_2354_7430)">
<circle cx="165.269" cy="51.0329" r="3.2756" fill="white" fill-opacity="0.2"/>
</g>
<g filter="url(#filter19_f_2354_7430)">
<circle cx="165.183" cy="50.9517" r="2.53859" fill="white" fill-opacity="0.3"/>
</g>
<g filter="url(#filter20_f_2354_7430)">
<circle cx="6.96533" cy="43.6689" r="1.17138" fill="#FFF5BF"/>
</g>
<g filter="url(#filter21_f_2354_7430)">
<circle cx="7.03366" cy="43.7387" r="0.551239" fill="#FFF5BF"/>
</g>
<g filter="url(#filter22_f_2354_7430)">
<circle cx="7.03232" cy="43.7381" r="2.7562" fill="#FFF5BF"/>
</g>
<g filter="url(#filter23_f_2354_7430)">
<circle cx="6.96027" cy="43.6697" r="2.13605" fill="#FFF5BF"/>
</g>
<g filter="url(#filter24_f_2354_7430)">
<circle cx="131.934" cy="24.8481" r="1.17138" fill="white" fill-opacity="0.5"/>
</g>
<g filter="url(#filter25_f_2354_7430)">
<circle cx="132.003" cy="24.9179" r="0.551239" fill="white" fill-opacity="0.6"/>
</g>
<g filter="url(#filter26_f_2354_7430)">
<circle cx="132.002" cy="24.9178" r="2.7562" fill="white" fill-opacity="0.2"/>
</g>
<g filter="url(#filter27_f_2354_7430)">
<circle cx="131.93" cy="24.8489" r="2.13605" fill="white" fill-opacity="0.3"/>
</g>
<g filter="url(#filter28_f_2354_7430)">
<circle cx="45.7492" cy="66.6449" r="1.0136" fill="white" fill-opacity="0.5"/>
</g>
<g filter="url(#filter29_f_2354_7430)">
<circle cx="45.8073" cy="66.7055" r="0.476986" fill="white" fill-opacity="0.6"/>
</g>
<g filter="url(#filter30_f_2354_7430)">
<circle cx="45.808" cy="66.7048" r="2.38493" fill="white" fill-opacity="0.2"/>
</g>
<g filter="url(#filter31_f_2354_7430)">
<circle cx="45.7477" cy="66.6452" r="1.84832" fill="white" fill-opacity="0.3"/>
</g>
<g filter="url(#filter32_f_2354_7430)">
<circle cx="13.0014" cy="86.2182" r="1.0136" fill="white" fill-opacity="0.5"/>
</g>
<g filter="url(#filter33_f_2354_7430)">
<circle cx="13.0595" cy="86.2783" r="0.476986" fill="white" fill-opacity="0.6"/>
</g>
<g filter="url(#filter34_f_2354_7430)">
<circle cx="13.0602" cy="86.278" r="2.38493" fill="white" fill-opacity="0.2"/>
</g>
<g filter="url(#filter35_f_2354_7430)">
<circle cx="12.9999" cy="86.2184" r="1.84832" fill="white" fill-opacity="0.3"/>
</g>
<path d="M160.3 8.60224L160.51 11.2407L162.161 13.3494L159.428 13.5518L157.225 15.1488L157.034 12.5073L155.38 10.3801L158.116 10.1962L160.3 8.60224Z" fill="#FFF5BF"/>
<path d="M139.297 71.7853L141.424 73.4542L144.145 73.7488L142.417 75.8025L142.1 78.4448L139.984 76.7604L137.247 76.4553L138.992 74.4121L139.297 71.7853Z" fill="#B7D6D6"/>
<path d="M20.5761 111.162L20.9917 113.778L22.8031 115.76L20.0939 116.161L18.022 117.915L17.6252 115.295L15.8092 113.294L18.523 112.911L20.5761 111.162Z" fill="#FFF5BF"/>
<defs>
<filter id="filter0_f_2354_7430" x="108.826" y="48.0398" width="4.61116" height="4.61091" filterUnits="userSpaceOnUse" color-interpolation-filters="sRGB">
<feFlood flood-opacity="0" result="BackgroundImageFix"/>
<feBlend mode="normal" in="SourceGraphic" in2="BackgroundImageFix" result="shape"/>
<feGaussianBlur stdDeviation="0.752826" result="effect1_foregroundBlur_2354_7430"/>
</filter>
<filter id="filter1_f_2354_7430" x="109.295" y="48.5105" width="3.76424" height="3.76424" filterUnits="userSpaceOnUse" color-interpolation-filters="sRGB">
<feFlood flood-opacity="0" result="BackgroundImageFix"/>
<feBlend mode="normal" in="SourceGraphic" in2="BackgroundImageFix" result="shape"/>
<feGaussianBlur stdDeviation="0.752826" result="effect1_foregroundBlur_2354_7430"/>
</filter>
<filter id="filter2_f_2354_7430" x="107.79" y="47.0046" width="6.77547" height="6.77547" filterUnits="userSpaceOnUse" color-interpolation-filters="sRGB">
<feFlood flood-opacity="0" result="BackgroundImageFix"/>
<feBlend mode="normal" in="SourceGraphic" in2="BackgroundImageFix" result="shape"/>
<feGaussianBlur stdDeviation="0.752826" result="effect1_foregroundBlur_2354_7430"/>
</filter>
<filter id="filter3_f_2354_7430" x="108.166" y="47.3811" width="5.92854" height="5.9283" filterUnits="userSpaceOnUse" color-interpolation-filters="sRGB">
<feFlood flood-opacity="0" result="BackgroundImageFix"/>
<feBlend mode="normal" in="SourceGraphic" in2="BackgroundImageFix" result="shape"/>
<feGaussianBlur stdDeviation="0.752826" result="effect1_foregroundBlur_2354_7430"/>
</filter>
<filter id="filter4_f_2354_7430" x="199.953" y="24.7365" width="5.82747" height="5.82722" filterUnits="userSpaceOnUse" color-interpolation-filters="sRGB">
<feFlood flood-opacity="0" result="BackgroundImageFix"/>
<feBlend mode="normal" in="SourceGraphic" in2="BackgroundImageFix" result="shape"/>
<feGaussianBlur stdDeviation="0.752826" result="effect1_foregroundBlur_2354_7430"/>
</filter>
<filter id="filter5_f_2354_7430" x="200.779" y="25.5647" width="4.3365" height="4.3365" filterUnits="userSpaceOnUse" color-interpolation-filters="sRGB">
<feFlood flood-opacity="0" result="BackgroundImageFix"/>
<feBlend mode="normal" in="SourceGraphic" in2="BackgroundImageFix" result="shape"/>
<feGaussianBlur stdDeviation="0.752826" result="effect1_foregroundBlur_2354_7430"/>
</filter>
<filter id="filter6_f_2354_7430" x="198.129" y="22.9143" width="9.63753" height="9.63728" filterUnits="userSpaceOnUse" color-interpolation-filters="sRGB">
<feFlood flood-opacity="0" result="BackgroundImageFix"/>
<feBlend mode="normal" in="SourceGraphic" in2="BackgroundImageFix" result="shape"/>
<feGaussianBlur stdDeviation="0.752826" result="effect1_foregroundBlur_2354_7430"/>
</filter>
<filter id="filter7_f_2354_7430" x="198.791" y="23.5764" width="8.14656" height="8.14656" filterUnits="userSpaceOnUse" color-interpolation-filters="sRGB">
<feFlood flood-opacity="0" result="BackgroundImageFix"/>
<feBlend mode="normal" in="SourceGraphic" in2="BackgroundImageFix" result="shape"/>
<feGaussianBlur stdDeviation="0.752826" result="effect1_foregroundBlur_2354_7430"/>
</filter>
<filter id="filter8_f_2354_7430" x="157.421" y="86.4709" width="5.25105" height="5.25105" filterUnits="userSpaceOnUse" color-interpolation-filters="sRGB">
<feFlood flood-opacity="0" result="BackgroundImageFix"/>
<feBlend mode="normal" in="SourceGraphic" in2="BackgroundImageFix" result="shape"/>
<feGaussianBlur stdDeviation="0.752826" result="effect1_foregroundBlur_2354_7430"/>
</filter>
<filter id="filter9_f_2354_7430" x="158.078" y="87.1306" width="4.06526" height="4.0655" filterUnits="userSpaceOnUse" color-interpolation-filters="sRGB">
<feFlood flood-opacity="0" result="BackgroundImageFix"/>
<feBlend mode="normal" in="SourceGraphic" in2="BackgroundImageFix" result="shape"/>
<feGaussianBlur stdDeviation="0.752826" result="effect1_foregroundBlur_2354_7430"/>
</filter>
<filter id="filter10_f_2354_7430" x="155.971" y="85.0222" width="8.28108" height="8.28133" filterUnits="userSpaceOnUse" color-interpolation-filters="sRGB">
<feFlood flood-opacity="0" result="BackgroundImageFix"/>
<feBlend mode="normal" in="SourceGraphic" in2="BackgroundImageFix" result="shape"/>
<feGaussianBlur stdDeviation="0.752826" result="effect1_foregroundBlur_2354_7430"/>
</filter>
<filter id="filter11_f_2354_7430" x="156.497" y="85.549" width="7.09529" height="7.09529" filterUnits="userSpaceOnUse" color-interpolation-filters="sRGB">
<feFlood flood-opacity="0" result="BackgroundImageFix"/>
<feBlend mode="normal" in="SourceGraphic" in2="BackgroundImageFix" result="shape"/>
<feGaussianBlur stdDeviation="0.752826" result="effect1_foregroundBlur_2354_7430"/>
</filter>
<filter id="filter12_f_2354_7430" x="43.5088" y="102.422" width="6.05086" height="6.05086" filterUnits="userSpaceOnUse" color-interpolation-filters="sRGB">
<feFlood flood-opacity="0" result="BackgroundImageFix"/>
<feBlend mode="normal" in="SourceGraphic" in2="BackgroundImageFix" result="shape"/>
<feGaussianBlur stdDeviation="0.752826" result="effect1_foregroundBlur_2354_7430"/>
</filter>
<filter id="filter13_f_2354_7430" x="44.4028" y="103.317" width="4.44173" height="4.44148" filterUnits="userSpaceOnUse" color-interpolation-filters="sRGB">
<feFlood flood-opacity="0" result="BackgroundImageFix"/>
<feBlend mode="normal" in="SourceGraphic" in2="BackgroundImageFix" result="shape"/>
<feGaussianBlur stdDeviation="0.752826" result="effect1_foregroundBlur_2354_7430"/>
</filter>
<filter id="filter14_f_2354_7430" x="41.5412" y="100.455" width="10.1632" height="10.1632" filterUnits="userSpaceOnUse" color-interpolation-filters="sRGB">
<feFlood flood-opacity="0" result="BackgroundImageFix"/>
<feBlend mode="normal" in="SourceGraphic" in2="BackgroundImageFix" result="shape"/>
<feGaussianBlur stdDeviation="0.752826" result="effect1_foregroundBlur_2354_7430"/>
</filter>
<filter id="filter15_f_2354_7430" x="42.2556" y="101.171" width="8.55403" height="8.55379" filterUnits="userSpaceOnUse" color-interpolation-filters="sRGB">
<feFlood flood-opacity="0" result="BackgroundImageFix"/>
<feBlend mode="normal" in="SourceGraphic" in2="BackgroundImageFix" result="shape"/>
<feGaussianBlur stdDeviation="0.752826" result="effect1_foregroundBlur_2354_7430"/>
</filter>
<filter id="filter16_f_2354_7430" x="162.291" y="48.0525" width="5.79549" height="5.79549" filterUnits="userSpaceOnUse" color-interpolation-filters="sRGB">
<feFlood flood-opacity="0" result="BackgroundImageFix"/>
<feBlend mode="normal" in="SourceGraphic" in2="BackgroundImageFix" result="shape"/>
<feGaussianBlur stdDeviation="0.752826" result="effect1_foregroundBlur_2354_7430"/>
</filter>
<filter id="filter17_f_2354_7430" x="163.11" y="48.8728" width="4.32161" height="4.32136" filterUnits="userSpaceOnUse" color-interpolation-filters="sRGB">
<feFlood flood-opacity="0" result="BackgroundImageFix"/>
<feBlend mode="normal" in="SourceGraphic" in2="BackgroundImageFix" result="shape"/>
<feGaussianBlur stdDeviation="0.752826" result="effect1_foregroundBlur_2354_7430"/>
</filter>
<filter id="filter18_f_2354_7430" x="160.488" y="46.2517" width="9.56258" height="9.56258" filterUnits="userSpaceOnUse" color-interpolation-filters="sRGB">
<feFlood flood-opacity="0" result="BackgroundImageFix"/>
<feBlend mode="normal" in="SourceGraphic" in2="BackgroundImageFix" result="shape"/>
<feGaussianBlur stdDeviation="0.752826" result="effect1_foregroundBlur_2354_7430"/>
</filter>
<filter id="filter19_f_2354_7430" x="161.139" y="46.9074" width="8.08845" height="8.08845" filterUnits="userSpaceOnUse" color-interpolation-filters="sRGB">
<feFlood flood-opacity="0" result="BackgroundImageFix"/>
<feBlend mode="normal" in="SourceGraphic" in2="BackgroundImageFix" result="shape"/>
<feGaussianBlur stdDeviation="0.752826" result="effect1_foregroundBlur_2354_7430"/>
</filter>
<filter id="filter20_f_2354_7430" x="4.28829" y="40.9919" width="5.35408" height="5.35408" filterUnits="userSpaceOnUse" color-interpolation-filters="sRGB">
<feFlood flood-opacity="0" result="BackgroundImageFix"/>
<feBlend mode="normal" in="SourceGraphic" in2="BackgroundImageFix" result="shape"/>
<feGaussianBlur stdDeviation="0.752826" result="effect1_foregroundBlur_2354_7430"/>
</filter>
<filter id="filter21_f_2354_7430" x="4.97677" y="41.6818" width="4.11384" height="4.11384" filterUnits="userSpaceOnUse" color-interpolation-filters="sRGB">
<feFlood flood-opacity="0" result="BackgroundImageFix"/>
<feBlend mode="normal" in="SourceGraphic" in2="BackgroundImageFix" result="shape"/>
<feGaussianBlur stdDeviation="0.752826" result="effect1_foregroundBlur_2354_7430"/>
</filter>
<filter id="filter22_f_2354_7430" x="2.77047" y="39.4763" width="8.52376" height="8.52351" filterUnits="userSpaceOnUse" color-interpolation-filters="sRGB">
<feFlood flood-opacity="0" result="BackgroundImageFix"/>
<feBlend mode="normal" in="SourceGraphic" in2="BackgroundImageFix" result="shape"/>
<feGaussianBlur stdDeviation="0.752826" result="effect1_foregroundBlur_2354_7430"/>
</filter>
<filter id="filter23_f_2354_7430" x="3.31857" y="40.028" width="7.28352" height="7.28328" filterUnits="userSpaceOnUse" color-interpolation-filters="sRGB">
<feFlood flood-opacity="0" result="BackgroundImageFix"/>
<feBlend mode="normal" in="SourceGraphic" in2="BackgroundImageFix" result="shape"/>
<feGaussianBlur stdDeviation="0.752826" result="effect1_foregroundBlur_2354_7430"/>
</filter>
<filter id="filter24_f_2354_7430" x="129.257" y="22.1711" width="5.35408" height="5.35408" filterUnits="userSpaceOnUse" color-interpolation-filters="sRGB">
<feFlood flood-opacity="0" result="BackgroundImageFix"/>
<feBlend mode="normal" in="SourceGraphic" in2="BackgroundImageFix" result="shape"/>
<feGaussianBlur stdDeviation="0.752826" result="effect1_foregroundBlur_2354_7430"/>
</filter>
<filter id="filter25_f_2354_7430" x="129.946" y="22.861" width="4.11384" height="4.11384" filterUnits="userSpaceOnUse" color-interpolation-filters="sRGB">
<feFlood flood-opacity="0" result="BackgroundImageFix"/>
<feBlend mode="normal" in="SourceGraphic" in2="BackgroundImageFix" result="shape"/>
<feGaussianBlur stdDeviation="0.752826" result="effect1_foregroundBlur_2354_7430"/>
</filter>
<filter id="filter26_f_2354_7430" x="127.74" y="20.656" width="8.52376" height="8.52351" filterUnits="userSpaceOnUse" color-interpolation-filters="sRGB">
<feFlood flood-opacity="0" result="BackgroundImageFix"/>
<feBlend mode="normal" in="SourceGraphic" in2="BackgroundImageFix" result="shape"/>
<feGaussianBlur stdDeviation="0.752826" result="effect1_foregroundBlur_2354_7430"/>
</filter>
<filter id="filter27_f_2354_7430" x="128.288" y="21.2072" width="7.28352" height="7.28328" filterUnits="userSpaceOnUse" color-interpolation-filters="sRGB">
<feFlood flood-opacity="0" result="BackgroundImageFix"/>
<feBlend mode="normal" in="SourceGraphic" in2="BackgroundImageFix" result="shape"/>
<feGaussianBlur stdDeviation="0.752826" result="effect1_foregroundBlur_2354_7430"/>
</filter>
<filter id="filter28_f_2354_7430" x="43.2299" y="64.1257" width="5.03841" height="5.03865" filterUnits="userSpaceOnUse" color-interpolation-filters="sRGB">
<feFlood flood-opacity="0" result="BackgroundImageFix"/>
<feBlend mode="normal" in="SourceGraphic" in2="BackgroundImageFix" result="shape"/>
<feGaussianBlur stdDeviation="0.752826" result="effect1_foregroundBlur_2354_7430"/>
</filter>
<filter id="filter29_f_2354_7430" x="43.8247" y="64.7229" width="3.96516" height="3.96541" filterUnits="userSpaceOnUse" color-interpolation-filters="sRGB">
<feFlood flood-opacity="0" result="BackgroundImageFix"/>
<feBlend mode="normal" in="SourceGraphic" in2="BackgroundImageFix" result="shape"/>
<feGaussianBlur stdDeviation="0.752826" result="effect1_foregroundBlur_2354_7430"/>
</filter>
<filter id="filter30_f_2354_7430" x="41.9174" y="62.8142" width="7.78108" height="7.78133" filterUnits="userSpaceOnUse" color-interpolation-filters="sRGB">
<feFlood flood-opacity="0" result="BackgroundImageFix"/>
<feBlend mode="normal" in="SourceGraphic" in2="BackgroundImageFix" result="shape"/>
<feGaussianBlur stdDeviation="0.752826" result="effect1_foregroundBlur_2354_7430"/>
</filter>
<filter id="filter31_f_2354_7430" x="42.3938" y="63.2912" width="6.70784" height="6.70808" filterUnits="userSpaceOnUse" color-interpolation-filters="sRGB">
<feFlood flood-opacity="0" result="BackgroundImageFix"/>
<feBlend mode="normal" in="SourceGraphic" in2="BackgroundImageFix" result="shape"/>
<feGaussianBlur stdDeviation="0.752826" result="effect1_foregroundBlur_2354_7430"/>
</filter>
<filter id="filter32_f_2354_7430" x="10.4821" y="83.6989" width="5.03841" height="5.03865" filterUnits="userSpaceOnUse" color-interpolation-filters="sRGB">
<feFlood flood-opacity="0" result="BackgroundImageFix"/>
<feBlend mode="normal" in="SourceGraphic" in2="BackgroundImageFix" result="shape"/>
<feGaussianBlur stdDeviation="0.752826" result="effect1_foregroundBlur_2354_7430"/>
</filter>
<filter id="filter33_f_2354_7430" x="11.0769" y="84.2956" width="3.96516" height="3.96541" filterUnits="userSpaceOnUse" color-interpolation-filters="sRGB">
<feFlood flood-opacity="0" result="BackgroundImageFix"/>
<feBlend mode="normal" in="SourceGraphic" in2="BackgroundImageFix" result="shape"/>
<feGaussianBlur stdDeviation="0.752826" result="effect1_foregroundBlur_2354_7430"/>
</filter>
<filter id="filter34_f_2354_7430" x="9.16964" y="82.3874" width="7.78108" height="7.78133" filterUnits="userSpaceOnUse" color-interpolation-filters="sRGB">
<feFlood flood-opacity="0" result="BackgroundImageFix"/>
<feBlend mode="normal" in="SourceGraphic" in2="BackgroundImageFix" result="shape"/>
<feGaussianBlur stdDeviation="0.752826" result="effect1_foregroundBlur_2354_7430"/>
</filter>
<filter id="filter35_f_2354_7430" x="9.64596" y="82.8645" width="6.70784" height="6.70808" filterUnits="userSpaceOnUse" color-interpolation-filters="sRGB">
<feFlood flood-opacity="0" result="BackgroundImageFix"/>
<feBlend mode="normal" in="SourceGraphic" in2="BackgroundImageFix" result="shape"/>
<feGaussianBlur stdDeviation="0.752826" result="effect1_foregroundBlur_2354_7430"/>
</filter>
</defs>
</svg>
