<svg width="318" height="27" viewBox="0 0 318 27" fill="none" xmlns="http://www.w3.org/2000/svg">
<path d="M0.0520001 26V0.799998H12.472C20.896 0.799998 26.692 5.588 26.692 13.4C26.692 21.212 20.896 26 12.472 26H0.0520001ZM8.548 19.376H12.112C15.676 19.376 18.124 17.252 18.124 13.4C18.124 9.548 15.676 7.424 12.112 7.424H8.548V19.376ZM38.1462 19.592H50.7462V26H29.7942V0.799998H50.2782V7.208H38.1462V10.16H48.8022V16.28H38.1462V19.592ZM84.2568 26H76.5168L76.4448 14.516L70.9728 23.732H67.2288L61.7568 14.912V26H54.0168V0.799998H61.0008L69.2088 14.228L77.2008 0.799998H84.1848L84.2568 26ZM101.577 26.576C93.3685 26.576 87.3565 21.032 87.3565 13.4C87.3565 5.768 93.3685 0.223999 101.577 0.223999C109.785 0.223999 115.797 5.768 115.797 13.4C115.797 21.032 109.785 26.576 101.577 26.576ZM101.577 19.7C104.709 19.7 107.229 17.324 107.229 13.4C107.229 9.476 104.709 7.1 101.577 7.1C98.4445 7.1 95.9245 9.476 95.9245 13.4C95.9245 17.324 98.4445 19.7 101.577 19.7ZM135.548 19.088V12.716H142.928V23.372C139.868 25.46 135.656 26.576 131.948 26.576C123.812 26.576 117.872 21.14 117.872 13.4C117.872 5.66 123.812 0.223999 132.128 0.223999C137.096 0.223999 141.092 1.952 143.648 5.084L138.212 9.872C136.628 8.036 134.792 7.1 132.56 7.1C128.816 7.1 126.44 9.512 126.44 13.4C126.44 17.18 128.816 19.7 132.452 19.7C133.496 19.7 134.504 19.52 135.548 19.088ZM161.632 26L157.348 19.664H155.044V26H146.548V0.799998H158.68C165.7 0.799998 170.164 4.472 170.164 10.304C170.164 13.94 168.436 16.676 165.412 18.224L170.704 26H161.632ZM161.596 10.304C161.596 8.468 160.48 7.352 158.14 7.352H155.044V13.256H158.14C160.48 13.256 161.596 12.14 161.596 10.304ZM192.236 26L190.544 21.608H180.968L179.276 26H170.636L181.652 0.799998H190.004L201.02 26H192.236ZM183.308 15.488H188.204L185.756 9.152L183.308 15.488ZM214.508 0.799998C221.528 0.799998 225.992 4.472 225.992 10.304C225.992 16.136 221.528 19.808 214.508 19.808H210.872V26H202.376V0.799998H214.508ZM213.968 13.256C216.308 13.256 217.424 12.14 217.424 10.304C217.424 8.468 216.308 7.352 213.968 7.352H210.872V13.256H213.968ZM245.123 0.799998H253.619V26H245.123V16.712H237.275V26H228.779V0.799998H237.275V9.728H245.123V0.799998ZM257.712 26V0.799998H266.208V26H257.712ZM283.33 26.576C275.23 26.576 269.29 21.14 269.29 13.4C269.29 5.66 275.23 0.223999 283.33 0.223999C288.262 0.223999 292.15 2.024 294.634 5.264L289.27 10.052C287.794 8.18 286.03 7.1 283.762 7.1C280.234 7.1 277.858 9.548 277.858 13.4C277.858 17.252 280.234 19.7 283.762 19.7C286.03 19.7 287.794 18.62 289.27 16.748L294.634 21.536C292.15 24.776 288.262 26.576 283.33 26.576ZM306.132 26.576C301.92 26.576 297.672 25.532 295.152 23.984L297.888 17.792C300.264 19.196 303.432 20.096 306.204 20.096C308.616 20.096 309.48 19.592 309.48 18.728C309.48 15.56 295.548 18.116 295.548 8.72C295.548 4.04 299.472 0.223999 307.284 0.223999C310.668 0.223999 314.16 0.943999 316.788 2.42L314.232 8.576C311.748 7.316 309.408 6.704 307.212 6.704C304.728 6.704 303.936 7.424 303.936 8.288C303.936 11.312 317.868 8.792 317.868 18.08C317.868 22.688 313.944 26.576 306.132 26.576Z" fill="#F5EA83"/>
</svg>
