<svg xmlns="http://www.w3.org/2000/svg" width="87" height="120" viewBox="0 0 87 120" fill="none">
  <path d="M5.94067 80.0381C10.6933 81.8743 20.1769 88.1067 20.0905 98.3464" stroke="#AAD37F" stroke-width="1.10712" stroke-linecap="round" stroke-linejoin="round"/>
  <path d="M59.5328 107.471C59.5328 104.905 57.4534 102.826 54.8882 102.826C52.3231 102.826 50.2437 104.905 50.2437 107.471V115.356C50.2437 117.921 52.3231 120 54.8882 120C57.4534 120 59.5328 117.921 59.5328 115.356V107.471Z" fill="#F0D1D1"/>
  <path d="M32.278 86.6316C30.3923 91.5239 26.3307 97.2895 19.3345 91.5415" stroke="#F0D1D1" stroke-width="5.53561" stroke-linecap="round" stroke-linejoin="round"/>
  <path d="M63.5121 87.3834C65.5644 88.8955 78.1481 90.0297 66.8066 99.0488" stroke="#F0D1D1" stroke-width="5.53561" stroke-linecap="round" stroke-linejoin="round"/>
  <path d="M44.7955 107.471C44.7955 104.905 42.7161 102.826 40.1509 102.826C37.5858 102.826 35.5063 104.905 35.5063 107.471V115.356C35.5063 117.921 37.5858 120 40.1509 120C42.7161 120 44.7955 117.921 44.7955 115.356V107.471Z" fill="#F0D1D1"/>
  <path d="M71.06 108.658H23.979V109.485C23.979 110.666 24.9371 111.625 26.1188 111.625C27.3004 111.625 28.2585 110.666 28.2585 109.485H28.2639C28.2628 109.517 28.2585 109.55 28.2585 109.582C28.2585 110.764 29.2166 111.722 30.3983 111.722C31.5799 111.722 32.538 110.764 32.538 109.582C32.538 109.55 32.5348 109.517 32.5326 109.485H32.538C32.538 110.666 33.4961 111.625 34.6778 111.625C35.8594 111.625 36.8175 110.666 36.8175 109.485H36.8229C36.8218 109.517 36.8175 109.55 36.8175 109.582C36.8175 110.764 37.7756 111.722 38.9573 111.722C40.1389 111.722 41.097 110.764 41.097 109.582C41.097 109.55 41.0938 109.517 41.0916 109.485H41.097C41.097 110.666 42.0551 111.625 43.2368 111.625C44.4184 111.625 45.3765 110.666 45.3765 109.485H45.3819C45.3808 109.517 45.3765 109.55 45.3765 109.582C45.3765 110.764 46.3346 111.722 47.5163 111.722C48.6979 111.722 49.656 110.764 49.656 109.582C49.656 109.55 49.6528 109.517 49.6506 109.485H49.656C49.656 110.666 50.6141 111.625 51.7958 111.625C52.9774 111.625 53.9355 110.666 53.9355 109.485H53.9409C53.9398 109.517 53.9355 109.55 53.9355 109.582C53.9355 110.764 54.8936 111.722 56.0753 111.722C57.2569 111.722 58.215 110.764 58.215 109.582C58.215 109.55 58.2118 109.517 58.2096 109.485H58.215C58.215 110.666 59.1731 111.625 60.3548 111.625C61.5364 111.625 62.4945 110.666 62.4945 109.485H62.4999C62.4988 109.517 62.4945 109.55 62.4945 109.582C62.4945 110.764 63.4526 111.722 64.6343 111.722C65.8159 111.722 66.774 110.764 66.774 109.582C66.774 109.55 66.7708 109.517 66.7686 109.485H66.7762C66.7762 109.501 66.774 109.517 66.774 109.533C66.774 110.715 67.7321 111.673 68.9138 111.673C70.0954 111.673 71.0535 110.715 71.0535 109.533C71.0535 109.517 71.0514 109.501 71.0514 109.485H71.0535V108.658H71.06Z" fill="#F6E972"/>
  <path d="M71.073 108.659L71.0601 108.607V108.659H71.073Z" fill="#AAD37F"/>
  <path d="M70.4227 106.176L64.4452 83.3833H30.6067L24.6292 106.176L23.979 108.658H71.06V108.607L70.4227 106.176Z" fill="#AAD37F"/>
  <path d="M56.8747 81.9802C56.8963 81.7306 56.9093 81.4779 56.9093 81.223C56.9093 76.3905 52.9927 72.4739 48.1602 72.4739C43.3277 72.4739 39.4111 76.3905 39.4111 81.223C39.4111 81.4801 39.424 81.7339 39.4467 81.9856C38.4627 82.0515 37.6829 82.868 37.6829 83.8693C37.6829 84.8706 38.5286 85.7596 39.5731 85.7596C39.8669 85.7596 40.1445 85.6904 40.3929 85.5705C39.9911 85.9173 39.7351 86.4292 39.7351 87.0017C39.7351 88.0451 40.5809 88.892 41.6254 88.892C42.0283 88.892 42.4009 88.7645 42.7077 88.5506C42.672 88.6954 42.6515 88.8455 42.6515 89C42.6515 90.0434 43.4972 90.8902 44.5417 90.8902C45.3129 90.8902 45.9751 90.4279 46.2689 89.7647C46.2699 89.7647 46.271 89.7647 46.2732 89.7647C46.3067 90.779 47.1373 91.5912 48.1602 91.5912C49.1831 91.5912 50.0137 90.779 50.0472 89.7647C50.0483 89.7647 50.0493 89.7647 50.0515 89.7647C50.3453 90.4268 51.0074 90.8902 51.7786 90.8902C52.8231 90.8902 53.6689 90.0434 53.6689 89C53.6689 88.8444 53.6484 88.6943 53.6127 88.5506C53.9195 88.7656 54.2921 88.892 54.695 88.892C55.7395 88.892 56.5853 88.0451 56.5853 87.0017C56.5853 86.3742 56.2774 85.819 55.8065 85.4755C55.8108 85.4668 55.8162 85.4593 55.8205 85.4506C56.1176 85.6461 56.4729 85.7596 56.8553 85.7596C57.8998 85.7596 58.7455 84.9127 58.7455 83.8693C58.7455 82.8259 57.9095 81.991 56.8747 81.9802Z" fill="#F6E972"/>
  <path d="M48.1601 87.0018C51.3516 87.0018 53.9388 84.4146 53.9388 81.2231C53.9388 78.0316 51.3516 75.4443 48.1601 75.4443C44.9686 75.4443 42.3813 78.0316 42.3813 81.2231C42.3813 84.4146 44.9686 87.0018 48.1601 87.0018Z" fill="#F0D1D1"/>
  <path d="M26.0886 5.12217C27.7607 0.780017 32.7466 -0.713812 37.2842 0.309077C42.5002 1.48535 46.1835 5.87718 45.0634 11.105C42.5985 22.6117 36.9613 38.669 44.2057 47.1438H34.7783C26.0681 36.4731 21.1578 17.9239 26.0886 5.12109V5.12217Z" fill="#F0D1D1"/>
  <path d="M29.3807 11.1623C30.4133 7.74039 33.4917 6.56305 36.2947 7.36991C39.5156 8.29667 41.7904 11.7585 41.098 15.8792C39.5761 24.948 36.0948 37.604 40.5688 44.2836H34.7468C29.3688 35.8736 26.3358 21.254 29.3807 11.1633V11.1623Z" fill="#D96892"/>
  <path d="M61.57 47.1989H52.1425C59.387 38.7242 53.7498 22.6669 51.2849 11.1602C50.1648 5.93121 53.8481 1.54046 59.0641 0.364189C63.6028 -0.659781 68.5876 0.835128 70.2597 5.1762C75.1905 17.9801 70.2802 36.5282 61.57 47.1989Z" fill="#F0D1D1"/>
  <path d="M61.6012 44.2825H55.7793C60.2521 37.6029 56.7719 24.9481 55.25 15.8781C54.5587 11.7574 56.8324 8.29667 60.0534 7.36883C62.8563 6.56197 65.9347 7.7404 66.9673 11.1612C70.0122 21.2518 66.9803 35.8715 61.6012 44.2814V44.2825Z" fill="#D96892"/>
  <path d="M63.35 38.6118H32.9982C20.262 38.6118 9.93726 48.9365 9.93726 61.6727C9.93726 74.4089 20.262 84.7336 32.9982 84.7336H63.35C76.0862 84.7336 86.4109 74.4089 86.4109 61.6727C86.4109 48.9365 76.0862 38.6118 63.35 38.6118Z" fill="#F0D1D1"/>
  <path d="M80.1462 66.1552C80.1462 55.895 71.8281 47.5769 61.5679 47.5769H34.7805C24.5203 47.5769 16.2021 55.895 16.2021 66.1552C16.2021 69.3319 17.0004 72.3207 18.4045 74.9357C19.6327 73.4645 21.4808 72.5281 23.5471 72.5281C27.2455 72.5281 30.2439 75.5265 30.2439 79.2249C30.2439 80.9283 29.6066 82.4826 28.5589 83.6643C30.5042 84.3556 32.5986 84.7336 34.7805 84.7336H61.5679C63.7508 84.7336 65.8441 84.3556 67.7895 83.6643C66.7417 82.4826 66.1045 80.9283 66.1045 79.2249C66.1045 75.5265 69.1029 72.5281 72.8013 72.5281C74.8676 72.5281 76.7146 73.4645 77.9438 74.9357C79.3491 72.3207 80.1462 69.3309 80.1462 66.1552Z" fill="#FFF9C8"/>
  <path d="M23.5468 72.5278C21.4805 72.5278 19.6335 73.4643 18.4043 74.9355C20.5721 78.9709 24.1884 82.1119 28.5587 83.664C29.6064 82.4824 30.2437 80.9281 30.2437 79.2247C30.2437 75.5263 27.2452 72.5278 23.5468 72.5278Z" fill="#D96892"/>
  <path d="M72.8013 72.5278C69.103 72.5278 66.1045 75.5263 66.1045 79.2247C66.1045 80.9281 66.7418 82.4824 67.7895 83.664C72.1587 82.1119 75.775 78.9709 77.9439 74.9355C76.7158 73.4643 74.8676 72.5278 72.8013 72.5278Z" fill="#D96892"/>
  <path d="M64.5998 72.9341C64.2833 72.6177 63.7702 72.6177 63.4538 72.9341C61.0321 75.3558 57.7042 76.3344 54.5513 75.8689C52.9786 75.6366 51.4491 75.0436 50.0968 74.0931C49.6107 73.7518 49.1474 73.3673 48.7131 72.9341C48.5414 72.7624 48.3113 72.6846 48.0867 72.6997C47.862 72.6846 47.6319 72.7624 47.4602 72.9341C47.026 73.3684 46.5626 73.7529 46.0765 74.0931C44.7242 75.0436 43.1947 75.6366 41.6221 75.8689C38.4681 76.3333 35.1412 75.3558 32.7196 72.9341C32.4031 72.6177 31.89 72.6177 31.5735 72.9341C31.2571 73.2506 31.2571 73.7637 31.5735 74.0802C33.9218 76.4284 37.0055 77.6025 40.0893 77.6025C40.8109 77.6025 41.5324 77.5377 42.2453 77.4091C44.357 77.0279 46.3865 76.0817 48.0867 74.5695C49.7868 76.0817 51.8153 77.0279 53.928 77.4091C54.6399 77.5377 55.3625 77.6025 56.084 77.6025C59.1678 77.6025 62.2527 76.4284 64.5998 74.0802C64.9163 73.7637 64.9163 73.2506 64.5998 72.9341Z" fill="#D96892"/>
  <path d="M42.2454 77.4081C43.3374 79.4182 45.3108 80.8137 47.6007 80.9876V74.9756C46.0053 76.2501 44.1604 77.0624 42.2454 77.4081Z" fill="white"/>
  <path d="M53.9281 77.4081C52.013 77.0624 50.1681 76.2512 48.5728 74.9756V80.9876C50.8626 80.8137 52.8361 79.4182 53.9281 77.4081Z" fill="white"/>
  <path d="M48.0866 74.5684C47.9279 74.7099 47.7648 74.8449 47.6006 74.9756V80.9876C47.7615 80.9995 47.9235 81.006 48.0866 81.006C48.2497 81.006 48.4118 80.9995 48.5727 80.9876V74.9756C48.4085 74.8438 48.2454 74.7099 48.0866 74.5684Z" fill="#EBEBEB"/>
  <path d="M48.0866 73.5337C46.5517 73.5337 45.0169 72.9494 43.8482 71.7806C43.0672 71.0008 43.0672 69.7349 43.8482 68.955C44.628 68.1752 45.8939 68.1752 46.6738 68.955C47.4526 69.7338 48.7206 69.7338 49.4994 68.955C50.2793 68.1752 51.5452 68.1752 52.3251 68.955C53.106 69.7349 53.106 71.0008 52.3251 71.7806C51.1564 72.9494 49.6215 73.5337 48.0866 73.5337Z" fill="#D96892"/>
  <path d="M35.9685 69.9896C38.8021 69.9896 41.0992 67.6925 41.0992 64.8589C41.0992 62.0253 38.8021 59.7283 35.9685 59.7283C33.135 59.7283 30.8379 62.0253 30.8379 64.8589C30.8379 67.6925 33.135 69.9896 35.9685 69.9896Z" fill="#004042"/>
  <path d="M60.3797 69.9896C63.2133 69.9896 65.5103 67.6925 65.5103 64.8589C65.5103 62.0253 63.2133 59.7283 60.3797 59.7283C57.5461 59.7283 55.249 62.0253 55.249 64.8589C55.249 67.6925 57.5461 69.9896 60.3797 69.9896Z" fill="#004042"/>
  <path d="M66.3421 58.3501C65.8323 60.7404 63.7098 62.5345 61.1661 62.5345C61.1553 62.5345 61.1456 62.5345 61.1348 62.5345V64.59C64.0576 64.59 66.4274 62.2202 66.4274 59.2974C66.4274 58.9744 66.3972 58.6579 66.341 58.3512L66.3421 58.3501Z" fill="#004042"/>
  <path d="M30.0062 58.3501C30.5161 60.7404 32.6385 62.5345 35.1822 62.5345C35.193 62.5345 35.2028 62.5345 35.2136 62.5345V64.59C32.2907 64.59 29.9209 62.2202 29.9209 59.2974C29.9209 58.9744 29.9511 58.6579 30.0073 58.3512L30.0062 58.3501Z" fill="#004042"/>
  <path d="M35.7957 64.5932C36.8325 64.5932 37.673 63.7527 37.673 62.7159C37.673 61.6791 36.8325 60.8386 35.7957 60.8386C34.7589 60.8386 33.9185 61.6791 33.9185 62.7159C33.9185 63.7527 34.7589 64.5932 35.7957 64.5932Z" fill="white"/>
  <path d="M60.5523 64.5932C61.5891 64.5932 62.4296 63.7527 62.4296 62.7159C62.4296 61.6791 61.5891 60.8386 60.5523 60.8386C59.5155 60.8386 58.675 61.6791 58.675 62.7159C58.675 63.7527 59.5155 64.5932 60.5523 64.5932Z" fill="white"/>
  <path d="M76.7805 34.2696L74.7488 34.5634L76.3927 33.3353C77.2406 32.6073 77.1391 31.174 76.1702 30.2051C75.2013 29.2362 73.768 29.1347 73.04 29.9826L71.8119 31.6265L72.1057 29.5948C72.191 28.4801 71.1044 27.5393 69.7348 27.5393C68.3652 27.5393 67.2796 28.4812 67.3639 29.5948L67.6577 31.6265L66.4296 29.9826C65.7015 29.1347 64.2682 29.2362 63.2993 30.2051C62.3304 31.174 62.2289 32.6073 63.0768 33.3353L64.7208 34.5634L62.689 34.2696C61.5743 34.1843 60.6335 35.2709 60.6335 36.6405C60.6335 38.0101 61.5754 39.0957 62.689 39.0114L64.7208 38.7176L63.0768 39.9458C62.2289 40.6738 62.3304 42.1071 63.2993 43.076C64.2682 44.0449 65.7015 44.1464 66.4296 43.2985L67.6577 41.6545L67.3639 43.6863C67.2785 44.801 68.3652 45.7418 69.7348 45.7418C71.1044 45.7418 72.1899 44.7999 72.1057 43.6863L71.8119 41.6545L73.04 43.2985C73.768 44.1464 75.2013 44.0449 76.1702 43.076C77.1391 42.1071 77.2406 40.6738 76.3927 39.9458L74.7488 38.7176L76.7805 39.0114C77.8952 39.0968 78.836 38.0101 78.836 36.6405C78.836 35.2709 77.8941 34.1854 76.7805 34.2696ZM69.6905 36.6589V36.6211L69.7175 36.5941H69.7553L69.7823 36.6211V36.6589L69.7553 36.6859H69.7175L69.6905 36.6589Z" fill="white"/>
  <path d="M69.7359 39.9659C71.5726 39.9659 73.0616 38.477 73.0616 36.6402C73.0616 34.8034 71.5726 33.3145 69.7359 33.3145C67.8991 33.3145 66.4102 34.8034 66.4102 36.6402C66.4102 38.477 67.8991 39.9659 69.7359 39.9659Z" fill="#F6E972"/>
  <path d="M47.5196 97.7492C48.4144 97.7492 49.1398 97.0238 49.1398 96.129C49.1398 95.2342 48.4144 94.5088 47.5196 94.5088C46.6248 94.5088 45.8994 95.2342 45.8994 96.129C45.8994 97.0238 46.6248 97.7492 47.5196 97.7492Z" fill="#688C3C"/>
  <path d="M16.4817 88.271C14.9848 85.882 15.708 82.732 18.097 81.2351C19.5938 83.6241 18.8706 86.7741 16.4817 88.271Z" fill="#AAD37F"/>
  <path d="M47.5196 104.554C48.4144 104.554 49.1398 103.828 49.1398 102.934C49.1398 102.039 48.4144 101.313 47.5196 101.313C46.6248 101.313 45.8994 102.039 45.8994 102.934C45.8994 103.828 46.6248 104.554 47.5196 104.554Z" fill="#688C3C"/>
  <circle cx="19.4955" cy="91.8649" r="4.91462" transform="rotate(-3.90243 19.4955 91.8649)" fill="#F0D1D1"/>
  <path d="M8.02972 80.3567L14.0377 78.7395C14.8954 78.5086 15.6621 79.3311 15.3717 80.1706L14.8928 81.5547L14.8744 83.0192C14.8633 83.9074 13.8633 84.4215 13.1345 83.9136L8.02972 80.3567Z" fill="#D96892"/>
  <path d="M8.33474 79.8753L11.7157 85.0983C12.1984 85.844 11.6505 86.8259 10.7624 86.8068L9.29815 86.7752L7.89853 87.2066C7.04966 87.4683 6.25378 86.674 6.51376 85.8246L8.33474 79.8753Z" fill="#D96892"/>
  <path d="M8.26641 79.9165L4.77301 85.065C4.27426 85.8 3.15648 85.6779 2.82816 84.8526L2.28681 83.4917L1.34425 82.3707C0.772587 81.6908 1.19411 80.6484 2.07768 80.5569L8.26641 79.9165Z" fill="#D96892"/>
  <path d="M8.25146 80.2081L2.23569 78.6203C1.37682 78.3936 1.12122 77.2986 1.79095 76.7151L2.89522 75.753L3.6401 74.4919C4.09186 73.7271 5.21509 73.779 5.59443 74.5822L8.25146 80.2081Z" fill="#D96892"/>
  <path d="M8.22129 80.5693L13.075 76.6768C13.7679 76.121 13.5572 75.0165 12.7083 74.755L11.3086 74.3238L10.116 73.4736C9.39271 72.9579 8.3872 73.4612 8.36647 74.3492L8.22129 80.5693Z" fill="#D96892"/>
  <circle cx="7.93902" cy="80.0921" r="2.86236" fill="#F6E972"/>
</svg>