<svg width="97" height="120" viewBox="0 0 97 120" fill="none" xmlns="http://www.w3.org/2000/svg">
<ellipse cx="47.2316" cy="24.5281" rx="29.393" ry="16.5547" fill="#C45C84"/>
<path d="M40.2888 12.0457C46.646 17.7969 44.4004 35.0294 36.794 43.9022C29.1876 52.775 17.8679 55.3055 11.5107 49.5542C5.15351 43.8029 6.1662 31.9478 13.7726 23.075C21.379 14.2022 33.9317 6.29439 40.2888 12.0457Z" fill="#C45C84"/>
<path d="M49.1829 11.2204C42.2323 17.2751 48.5709 35.0419 56.5204 43.9706C64.47 52.8993 76.5489 55.2292 83.4995 49.1746C90.4501 43.1199 89.6404 30.9735 81.6908 22.0448C73.7413 13.1161 56.1336 5.1658 49.1829 11.2204Z" fill="#C45C84"/>
<path d="M60.5239 27.1292C61.2232 25.0835 67.1451 24.4852 72.8279 27.5788C78.5106 30.6724 82.2044 36.1248 81.5052 38.1706C80.806 40.2163 76.1132 39.922 70.4304 36.8285C64.7477 33.7349 59.8247 29.175 60.5239 27.1292Z" fill="#EF7BA2"/>
<path d="M32.5257 26.6252C32.3508 25.2232 34.1656 22.5668 36.6296 22.0389C39.0937 21.511 41.3734 23.0645 41.5482 24.4666C41.7231 25.8686 40.1336 27.5502 37.6696 28.0781C35.2055 28.606 32.7005 28.0273 32.5257 26.6252Z" fill="#D9D9D9"/>
<path d="M41.2059 11.5722C41.3686 12.586 40.1136 14.5996 38.3319 15.0909C36.5502 15.5821 34.8503 14.5492 34.6876 13.5354C34.5249 12.5216 35.6404 11.2278 37.4221 10.7365C39.2037 10.2453 41.0432 10.5584 41.2059 11.5722Z" fill="#D9D9D9"/>
<path d="M72.2843 31.2736C72.0192 32.1892 70.5096 32.7835 68.9287 31.997C67.3478 31.2104 66.1712 29.4439 66.4363 28.5283C66.7015 27.6127 68.3149 27.353 69.8959 28.1395C71.4768 28.9261 72.5495 30.3579 72.2843 31.2736Z" fill="#D9D9D9"/>
<path d="M83.1112 48.9709C83.1112 53.561 60.9548 55.0021 45.3344 55.0021C29.7141 55.0021 10.4058 52.8045 10.4058 48.2143C10.4058 43.6242 29.7141 38.3799 45.3344 38.3799C60.9548 38.3799 83.1112 44.3808 83.1112 48.9709Z" fill="#671430"/>
<path d="M74.5974 45.6014C74.5974 49.1466 57.8769 51.2182 45.7111 51.2182C33.5454 51.2182 17.7034 48.3442 17.7034 44.799C17.7034 41.2538 33.5454 38.3799 45.7111 38.3799C57.8769 38.3799 74.5974 42.0562 74.5974 45.6014Z" fill="#992049"/>
<path d="M49.8722 12.2993C50.3066 9.0217 54.9326 8.85015 60.3567 10.0853C65.1007 11.1655 68.7429 14.6652 68.3085 17.9428C67.874 21.2203 64.2287 24.1889 59.4846 23.1087C54.7406 22.0284 49.4377 15.5768 49.8722 12.2993Z" fill="#EF7BA2"/>
<path d="M38.8253 34.9566C38.4643 37.8479 41.1872 39.5089 44.6515 40.2519C47.6814 40.9018 50.5125 39.1612 50.8735 36.2699C51.2345 33.3786 49.6246 29.6933 46.5947 29.0435C43.5648 28.3936 39.1863 32.0653 38.8253 34.9566Z" fill="#EF7BA2"/>
<path d="M21.2255 26.9028C21.8341 29.3222 25.3318 28.7839 29.3097 27.0651C32.7888 25.5619 35.2306 22.3854 34.622 19.966C34.0135 17.5466 31.0139 15.825 27.5348 17.3283C24.0556 18.8315 20.617 24.4834 21.2255 26.9028Z" fill="#EF7BA2"/>
<path d="M76.9264 30C78.0547 27.6445 80.9459 27.3614 83.3841 29.3677C85.8224 31.374 86.8843 34.9098 85.7561 37.2653C84.6278 39.6208 83.0016 36.7698 80.5633 34.7635C78.1251 32.7572 75.7982 32.3554 76.9264 30Z" fill="#D9D9D9"/>
<path d="M63.6173 17.1712C64.1546 14.9138 66.818 13.9946 69.5663 15.1182C72.3146 16.2418 74.1071 18.9826 73.5698 21.24C73.0326 23.4974 70.5995 25.2895 67.8512 24.1659C65.1029 23.0424 63.0801 19.4287 63.6173 17.1712Z" fill="#D9D9D9"/>
<path d="M53.0418 21.3793C53.2408 19.8712 55.8137 16.5854 58.1929 17.1248C60.572 17.6641 61.8565 21.8244 61.6575 23.3326C61.4585 24.8407 59.4141 24.922 57.0349 24.3826C54.6558 23.8432 52.8427 22.8874 53.0418 21.3793Z" fill="#D9D9D9"/>
<path d="M41.5927 16.8765C41.622 14.8934 43.968 10.0113 46.5714 10.0775C49.1748 10.1437 52.2206 13.1235 52.1912 15.1067C52.1619 17.0898 49.6094 17.5799 47.006 17.5136C44.4026 17.4474 41.5633 18.8597 41.5927 16.8765Z" fill="#D9D9D9"/>
<path d="M28.1807 14.3029C28.7341 16.149 27.5884 21.4221 25.1648 22.6702C22.7413 23.9182 17.9944 23.3596 17.441 21.5135C16.4384 20.1852 21.7165 16.3874 24.0444 14.7573C26.4748 13.3312 27.6273 12.4568 28.1807 14.3029Z" fill="#D9D9D9"/>
<path d="M17.5444 30.1522C16.7033 28.2731 14.6208 27.8269 12.893 29.1555C11.1652 30.4841 10.4465 33.0844 11.2877 34.9635C12.1288 36.8426 13.1613 35.0412 14.8891 33.7126C16.6168 32.384 18.3856 32.0313 17.5444 30.1522Z" fill="#D9D9D9"/>
<path d="M45.1976 38.3244L50.1005 38.4412L52.0643 53.9513L45.4258 53.3999L45.1976 38.3244Z" fill="#280410"/>
<path d="M45.1976 38.3246L40.2945 38.4415L38.7934 53.8761L45.3993 52.8172L45.1976 38.3246Z" fill="#280410"/>
<path d="M54.5073 32.8429C54.8043 30.4612 53.182 26.2618 50.718 25.7339C48.2539 25.206 45.8009 28.149 45.5039 30.5307C45.2069 32.9123 46.6825 35.5065 49.1466 36.0344C51.6106 36.5623 54.2103 35.2245 54.5073 32.8429Z" fill="#D9D9D9"/>
<ellipse cx="47.2316" cy="24.5281" rx="29.393" ry="16.5547" fill="#C45C84"/>
<path d="M40.2888 12.0457C46.646 17.7969 44.4004 35.0294 36.794 43.9022C29.1876 52.775 17.8679 55.3055 11.5107 49.5542C5.15351 43.8029 6.1662 31.9478 13.7726 23.075C21.379 14.2022 33.9317 6.29439 40.2888 12.0457Z" fill="#C45C84"/>
<path d="M67.0466 12.8091C73.4038 18.5603 71.1582 35.7928 63.5518 44.6656C55.9454 53.5384 44.6257 56.0689 38.2685 50.3176C31.9113 44.5664 32.924 32.7112 40.5304 23.8384C48.1368 14.9656 60.6895 7.05781 67.0466 12.8091Z" fill="#C45C84"/>
<path d="M49.1829 11.2204C42.2323 17.2751 48.5709 35.0419 56.5204 43.9706C64.47 52.8993 76.5489 55.2292 83.4995 49.1746C90.4501 43.1199 89.6404 30.9735 81.6908 22.0448C73.7413 13.1161 56.1336 5.1658 49.1829 11.2204Z" fill="#C45C84"/>
<path d="M83.1112 49.1209C83.1112 53.9054 60.9548 55.4075 45.3344 55.4075C29.7141 55.4075 10.4058 53.1168 10.4058 48.3323C10.4058 43.5478 29.7141 44.5482 45.3344 44.5482C60.9548 44.5482 83.1112 44.3363 83.1112 49.1209Z" fill="#671430"/>
<ellipse cx="47.7425" cy="27.839" rx="17.0952" ry="12.2978" fill="black"/>
<path d="M16.3947 7.17716C16.1696 6.65899 16.6902 6.13045 17.2117 6.34768L31.2628 12.2001C31.5715 12.3287 31.7252 12.6766 31.6123 12.9914L31.2552 13.9869L30.5119 15.541L29.6335 16.8924L28.6723 18.174C28.6376 18.2203 28.5966 18.2616 28.5506 18.2967L27.201 19.3249L25.8234 20.2433C25.7958 20.2617 25.7669 20.2778 25.7368 20.2916L23.2801 21.4182C22.9605 21.5647 22.5829 21.4202 22.4428 21.0978L16.3947 7.17716Z" fill="black"/>
<path d="M19.0563 10.4495C18.7949 9.74699 19.578 8.94894 20.2854 9.19705L30.6702 12.8399C31.0932 12.9883 31.5174 13.3308 31.3186 13.7875L30.8662 14.8225L30.6447 15.2771L30.4445 15.6007C30.3886 15.6911 30.3265 15.7776 30.2711 15.8683L29.8597 16.5875L29.4151 17.1789L28.69 18.143C28.6301 18.2227 28.5593 18.2942 28.4801 18.3548L27.2803 19.2734L26.0357 20.124C25.9915 20.1541 25.9455 20.1808 25.898 20.2037L23.9982 21.1195C23.5414 21.3398 23.0466 21.1738 22.8878 20.7469L19.0563 10.4495Z" fill="#EF7BA2" fill-opacity="0.5"/>
<path d="M78.9749 7.13712C79.2 6.61895 78.6795 6.09041 78.1579 6.30764L64.1068 12.1601C63.7981 12.2886 63.6445 12.6366 63.7573 12.9513L64.1144 13.9468L64.8577 15.501L65.7361 16.8524L66.6973 18.134C66.732 18.1803 66.773 18.2215 66.8191 18.2566L68.1686 19.2849L69.5463 20.2033C69.5738 20.2216 69.6027 20.2378 69.6328 20.2516L72.0896 21.3781C72.4091 21.5247 72.7867 21.3802 72.9268 21.0577L78.9749 7.13712Z" fill="black"/>
<path d="M76.3138 10.4095C76.5752 9.70695 75.7921 8.9089 75.0847 9.15702L64.7 12.7998C64.277 12.9482 63.8528 13.2907 64.0515 13.7475L64.5039 14.7824L64.7254 15.237L64.9256 15.5606C64.9815 15.651 65.0436 15.7376 65.099 15.8283L65.5105 16.5474L65.955 17.1389L66.6801 18.103C66.74 18.1827 66.8109 18.2541 66.89 18.3147L68.0899 19.2333L69.3344 20.0839C69.3786 20.1141 69.4246 20.1408 69.4722 20.1637L71.3719 21.0795C71.8288 21.2997 72.3235 21.1337 72.4823 20.7069L76.3138 10.4095Z" fill="#EF7BA2" fill-opacity="0.5"/>
<path d="M43.1191 26.9084C42.932 28.05 40.7033 28.6349 39.0462 28.3632C37.389 28.0915 35.6639 26.8583 35.851 25.7167C36.0382 24.5751 38.0668 23.9574 39.724 24.2291C41.3812 24.5008 43.3063 25.7668 43.1191 26.9084Z" fill="#D9D9D9"/>
<circle cx="39.4318" cy="26.3524" r="2.16224" fill="#280410"/>
<path d="M52.8792 26.9084C53.0663 28.05 55.295 28.6349 56.9521 28.3632C58.6093 28.0915 60.3344 26.8583 60.1473 25.7167C59.9601 24.5751 57.9315 23.9574 56.2743 24.2291C54.6171 24.5008 52.692 25.7668 52.8792 26.9084Z" fill="#D9D9D9"/>
<circle cx="56.4591" cy="26.3524" r="2.16224" fill="#280410"/>
<ellipse cx="42.2019" cy="22.0952" rx="1.28383" ry="0.743271" transform="rotate(16.1777 42.2019 22.0952)" fill="#EAD1D0" fill-opacity="0.7"/>
<ellipse cx="56.7292" cy="30.4741" rx="1.75682" ry="0.878411" fill="#BA597E"/>
<path d="M47.9226 31.2622C47.8569 31.3149 47.7634 31.3149 47.6978 31.2622L46.5685 30.354C46.4365 30.2479 46.5116 30.0349 46.6808 30.0349H48.9395C49.1088 30.0349 49.1838 30.2479 49.0519 30.354L47.9226 31.2622Z" fill="#EAD1D0" fill-opacity="0.7"/>
<ellipse cx="39.4316" cy="30.4741" rx="1.75682" ry="0.878411" fill="#BA597E"/>
<path d="M23.7168 44.4202C25.9466 44.0148 36.7241 44.4202 45.9423 44.4202C55.1606 44.4202 65.0021 44.7314 68.1104 45.0017C68.1104 46.9795 55.1606 48.542 45.9423 48.542C36.7241 48.542 23.7168 46.3981 23.7168 44.4202Z" fill="#992049"/>
<ellipse cx="1.28383" cy="0.743271" rx="1.28383" ry="0.743271" transform="matrix(-0.960402 0.278618 0.278618 0.960402 54.6003 21.0818)" fill="#EAD1D0" fill-opacity="0.7"/>
<path d="M47.9301 41.7765L63.6549 42.2306L69.9711 64.2592L48.6842 63.4498L47.9301 41.7765Z" fill="black"/>
<path d="M47.9788 41.7663L32.1066 41.9353L27.2471 64.2573L48.6317 62.7259L47.9788 41.7663Z" fill="black"/>
<path d="M47.9115 103.421L62.8993 107.099L70.2505 79.0321L48.7603 79.8295L47.9115 103.421Z" fill="black"/>
<path d="M48.0779 103.599L32.905 106.64L27.2884 79.1413L48.673 80.6727L48.0779 103.599Z" fill="black"/>
<path d="M27.1316 63.8067C27.1316 60.3124 31.627 58.5474 37.5885 58.5474H59.1768C65.1383 58.5474 69.971 60.6683 69.971 64.1626V77.924C69.971 81.4183 65.1383 84.251 59.1768 84.251H37.5885C31.627 84.251 27.2665 82.1301 27.2665 78.6358L27.1316 63.8067Z" fill="black"/>
<rect x="58.3806" y="79.23" width="24.3252" height="9.05439" rx="4.5272" transform="rotate(-45 58.3806 79.23)" fill="black"/>
<rect width="24.3252" height="9.05439" rx="4.5272" transform="matrix(-0.707107 -0.707107 -0.707107 0.707107 38.063 79.0947)" fill="black"/>
<rect width="24.3252" height="9.05439" rx="4.5272" transform="matrix(0 -1 -1 0 41.8977 120)" fill="black"/>
<rect width="24.3252" height="9.05439" rx="4.5272" transform="matrix(0 -1 -1 0 63.9255 120)" fill="black"/>
<rect x="32.8435" y="88.5349" width="31.3525" height="22.2981" rx="3.58646" fill="black"/>
<path d="M72.5043 27.747C72.226 28.5458 70.6417 29.0642 68.9826 28.378C67.3235 27.6919 66.0886 26.1508 66.3669 25.352C66.6453 24.5532 68.3385 24.3267 69.9976 25.0129C71.6568 25.6991 72.7826 26.9482 72.5043 27.747Z" fill="#D9D9D9"/>
<path d="M65.0856 24.7083C65.5416 21.849 70.3964 21.6994 76.0888 22.7769C81.0675 23.7193 84.8899 26.7723 84.434 29.6316C83.978 32.4909 80.1523 35.0807 75.1736 34.1383C70.1949 33.1959 64.6297 27.5676 65.0856 24.7083Z" fill="#EF7BA2"/>
<path d="M61.0592 38.8735C60.6804 41.3959 63.538 42.8449 67.1736 43.4931C70.3534 44.06 73.3246 42.5416 73.7035 40.0192C74.0823 37.4969 72.3928 34.2819 69.213 33.715C66.0331 33.1481 61.4381 36.3512 61.0592 38.8735Z" fill="#EF7BA2"/>
<path d="M45.4066 11.7423C45.2087 13.0597 48.4801 14.1337 52.5382 14.8572C56.0876 15.49 59.2261 14.9798 59.424 13.6624C59.6219 12.345 57.4828 10.4417 53.9335 9.8089C50.3841 9.17608 45.6045 10.4248 45.4066 11.7423Z" fill="#EF7BA2"/>
<path d="M12.6266 37.265C13.5828 40.4252 17.9062 40.1433 22.7333 38.4095C26.9552 36.8931 29.746 33.1198 28.7898 29.9596C27.8336 26.7995 23.9486 24.2531 19.7268 25.7695C15.5049 27.2859 11.6703 34.1048 12.6266 37.265Z" fill="#EF7BA2"/>
<path d="M77.377 26.6357C78.561 24.5808 81.5953 24.3339 84.1541 26.0841C86.713 27.8344 87.8275 30.919 86.6434 32.9739C85.4593 35.0288 83.7526 32.5416 81.1938 30.7914C78.6349 29.0411 76.1929 28.6906 77.377 26.6357Z" fill="#D9D9D9"/>
<path d="M53.0404 11.2575C53.4528 9.8169 55.4976 9.2303 57.6075 9.94734C59.7175 10.6644 61.0936 12.4135 60.6811 13.8541C60.2687 15.2948 58.4008 16.4384 56.2908 15.7214C54.1809 15.0044 52.6279 12.6982 53.0404 11.2575Z" fill="#D9D9D9"/>
<path d="M58.122 40.6754C58.3309 39.3597 61.031 36.4932 63.5279 36.9638C66.0248 37.4343 67.3728 41.0637 67.164 42.3794C66.9551 43.6951 64.8096 43.766 62.3127 43.2954C59.8158 42.8249 57.9131 41.9911 58.122 40.6754Z" fill="#D9D9D9"/>
<path d="M43.4907 9.96209C43.5859 11.2991 41.9791 14.7545 39.867 14.8978C37.755 15.0411 35.11 13.2551 35.0148 11.9181C34.9196 10.5811 36.9571 10.0671 39.0691 9.92382C41.1812 9.78054 43.3956 8.6251 43.4907 9.96209Z" fill="#D9D9D9"/>
<path d="M19.4063 40.715C19.5526 39.0092 22.5694 35.3341 25.3351 35.4094C28.1007 35.4846 32.4215 38.0115 32.2752 39.7174C32.7461 41.2101 26.3288 41.9017 23.5149 42.1712C20.6777 42.234 19.26 42.4208 19.4063 40.715Z" fill="#D9D9D9"/>
<path d="M17.084 32.2937C16.2012 30.6544 14.0157 30.2651 12.2024 31.4241C10.3892 32.5832 9.63491 34.8517 10.5177 36.491C11.4004 38.1303 12.484 36.5588 14.2972 35.3997C16.1105 34.2406 17.9668 33.933 17.084 32.2937Z" fill="#D9D9D9"/>
<path d="M80.1886 38.1244C80.5003 36.0467 78.7978 32.3831 76.2118 31.9226C73.6259 31.4621 71.0515 34.0295 70.7398 36.1072C70.4281 38.185 71.9767 40.4481 74.5627 40.9086C77.1486 41.3691 79.8769 40.2021 80.1886 38.1244Z" fill="#D9D9D9"/>
<path d="M19.6625 25.7879C19.479 24.5647 21.3835 22.2474 23.9694 21.7869C26.5554 21.3263 28.9479 22.6816 29.1314 23.9047C29.3149 25.1278 27.6468 26.5948 25.0609 27.0554C22.4749 27.5159 19.846 27.011 19.6625 25.7879Z" fill="#D9D9D9"/>
<path d="M72.5786 24.949C72.7493 25.8334 71.4322 27.5901 69.5624 28.0187C67.6925 28.4473 65.9086 27.5461 65.7378 26.6617C65.567 25.7773 66.7377 24.6486 68.6075 24.22C70.4774 23.7915 72.4078 24.0646 72.5786 24.949Z" fill="#D9D9D9"/>
<circle cx="39.3934" cy="25.609" r="1.01355" fill="#D9D9D9"/>
<circle cx="56.421" cy="25.609" r="1.01355" fill="#D9D9D9"/>
</svg>
