<svg xmlns="http://www.w3.org/2000/svg" width="78" height="120" viewBox="0 0 78 120" fill="none">
  <path d="M71.0932 99.4207C71.9805 96.6329 70.439 93.6543 67.6501 92.7674C64.8612 91.8804 61.8814 93.4213 60.9941 96.2091C60.9076 96.4816 60.8446 96.756 60.8033 97.0304C60.3925 98.6239 59.3238 101.945 57.6196 101.523C57.5228 101.484 57.425 101.447 57.3244 101.415C55.1249 100.715 52.774 101.93 52.0737 104.129C51.3735 106.328 52.5898 108.678 54.7893 109.378L54.7987 109.388L54.8006 109.382C55.3044 109.54 55.8148 109.598 56.3121 109.567C64.9411 110.221 69.2602 103.237 70.6129 100.497C70.8027 100.172 70.9616 99.8229 71.0829 99.4508" fill="#C19863"/>
  <path d="M36.4251 105.812H28.9053V115.02H36.4251V105.812Z" fill="#C19863"/>
  <path d="M28.9052 117.921C28.9052 119.069 29.8368 120 30.9854 120H34.3439C35.4926 120 36.4241 119.069 36.4241 117.921V115.02H28.9043V117.921H28.9052Z" fill="#B41F24"/>
  <path d="M49.0208 105.812H41.501V115.02H49.0208V105.812Z" fill="#C19863"/>
  <path d="M41.5009 115.02V117.921C41.5009 119.069 42.4325 120 43.5811 120H46.9396C48.0883 120 49.0198 119.069 49.0198 117.921V115.02H41.5H41.5009Z" fill="#B41F24"/>
  <path d="M29.1543 86.8975C27.8186 85.1104 25.2854 84.743 23.4975 86.0791L13.687 93.4062L18.6567 99.7814L28.3365 92.5521C30.1253 91.2169 30.4919 88.6847 29.1552 86.8975H29.1543Z" fill="#79C0A9"/>
  <path d="M10.0173 96.1453C8.22857 97.4805 7.86198 100.013 9.19862 101.8C10.5343 103.588 13.0676 103.954 14.8554 102.618L16.6968 101.244L11.7272 94.8684L10.0173 96.1453Z" fill="#C19863"/>
  <path d="M69.9736 84.2535C71.0725 82.4316 70.485 80.0638 68.6624 78.9654C66.8398 77.867 64.471 78.4542 63.3722 80.2761C62.9971 80.8991 62.5619 81.4713 62.0769 81.99L68.2131 86.6899C68.8598 85.9354 69.4501 85.1217 69.9736 84.2535Z" fill="#C19863"/>
  <path d="M57.1203 84.8906C54.4902 85.5418 51.7615 85.1293 49.4369 83.7283C47.6143 82.6299 45.2456 83.2172 44.1468 85.0391C43.0479 86.861 43.6354 89.2288 45.458 90.3272C48.2798 92.0279 51.441 92.8998 54.651 92.8998C56.091 92.8998 57.5414 92.7241 58.9749 92.369C61.8023 91.668 64.36 90.3187 66.4843 88.4442L60.1498 83.593C59.2296 84.1812 58.2107 84.621 57.1203 84.8906Z" fill="#79C0A9"/>
  <path d="M68.213 86.6909L62.0769 81.991C61.5016 82.6055 60.8559 83.1429 60.1509 83.593L66.4854 88.4442C67.0992 87.903 67.6773 87.3176 68.214 86.6909H68.213Z" fill="#B41F24"/>
  <path d="M11.7283 94.8682L16.697 101.243L18.6559 99.7814L13.6862 93.4053L11.7283 94.8682Z" fill="#B41F24"/>
  <path d="M53.681 85.8921H24.2326L19.1558 108.971H58.7579L53.681 85.8921Z" fill="#79C0A9"/>
  <path d="M58.7578 108.971H19.1558C19.0796 109.316 18.5542 111.705 18.4658 112.107H59.4375C59.3679 111.646 58.8387 109.381 58.7588 108.971H58.7578Z" fill="#B41F24"/>
  <path d="M31.0497 12.9381C30.5399 8.41625 33.7987 4.3312 38.3223 3.82159C42.846 3.31198 46.9327 6.56953 47.4425 11.0914L48.2608 18.35C48.319 18.8663 47.9468 19.3319 47.4312 19.39L40.1698 20.208C35.6461 20.7176 31.5595 17.46 31.0497 12.9381Z" fill="#B5BF64"/>
  <path d="M32.6096 6.99729L32.8734 6.66671C35.8089 2.98695 41.1799 2.38188 44.8611 5.31624L33.9606 18.9804C30.2794 16.046 29.6741 10.6771 32.6096 6.99729Z" fill="#626A2E"/>
  <path d="M36.3668 9.00785C36.254 9.14879 36.0876 9.24745 35.8949 9.26906C34.6965 9.40437 33.5177 9.06517 32.5759 8.31442C31.634 7.56367 31.0409 6.49064 30.9056 5.29264C30.8623 4.90552 31.1405 4.55693 31.5269 4.5137C31.9141 4.47048 32.2629 4.74861 32.3061 5.13479C32.3992 5.95882 32.8071 6.69641 33.4538 7.21226C34.1015 7.72811 34.9117 7.96113 35.7361 7.86811C36.1234 7.82488 36.4721 8.10301 36.5153 8.48919C36.5369 8.68275 36.4787 8.86691 36.3659 9.00785H36.3668Z" fill="#626A2E"/>
  <path d="M43.1474 27.4266C41.7922 23.0825 44.2203 18.4555 48.5661 17.1008C52.912 15.7461 57.5407 18.1732 58.896 22.5174L61.0715 29.4907C61.2262 29.9867 60.9487 30.5142 60.4533 30.6686L53.4773 32.8432C49.1314 34.198 44.5027 31.7708 43.1474 27.4266Z" fill="#B8C13A"/>
  <path d="M43.5583 21.2939L43.7548 20.9194C45.942 16.7516 51.1019 15.1431 55.2714 17.3294L47.1497 32.806C42.9802 30.6197 41.3711 25.4618 43.5583 21.2939Z" fill="#585F29"/>
  <path d="M47.6324 22.5633C47.5488 22.7231 47.404 22.8509 47.2179 22.9091C46.0664 23.268 44.8454 23.1572 43.7785 22.5981C42.7117 22.039 41.9268 21.0966 41.5677 19.9456C41.4521 19.5735 41.6589 19.1789 42.0311 19.0633C42.4024 18.9477 42.7981 19.1544 42.9138 19.5265C43.161 20.3177 43.7005 20.966 44.4337 21.3503C45.1669 21.7346 46.0063 21.8107 46.7987 21.5636C47.17 21.448 47.5657 21.6547 47.6813 22.0268C47.7396 22.2129 47.7161 22.4045 47.6324 22.5643V22.5633Z" fill="#585F29"/>
  <path d="M38.706 25.9339C38.3512 30.4705 34.3784 33.8659 29.84 33.5112C25.3015 33.1566 21.9049 29.1853 22.2596 24.6487L22.8292 17.3664C22.8697 16.8483 23.3233 16.4616 23.8405 16.502L31.1257 17.0713C35.6641 17.4259 39.0608 21.3972 38.706 25.9339Z" fill="#B8C13A"/>
  <path d="M36.0494 31.4733L35.7279 31.7481C32.1492 34.8066 26.7606 34.3855 23.701 30.8083L36.9896 19.4511C40.0493 23.0283 39.628 28.4148 36.0494 31.4733Z" fill="#585F29"/>
  <path d="M32.7393 28.7876C32.8766 28.6701 33.058 28.6053 33.2526 28.6203C34.4548 28.7143 35.548 29.2696 36.331 30.1848C37.114 31.0999 37.4928 32.266 37.3988 33.4677C37.3687 33.8558 37.0294 34.1461 36.6412 34.1151C36.253 34.0851 35.9625 33.7459 35.9935 33.3578C36.0584 32.531 35.7971 31.7295 35.2594 31.1009C34.7217 30.4723 33.9698 30.0899 33.1426 30.025C32.7544 29.995 32.4639 29.6558 32.4949 29.2677C32.51 29.0741 32.6021 28.9041 32.7393 28.7866V28.7876Z" fill="#585F29"/>
  <path d="M54.7636 22.9062C56.9427 18.911 61.957 17.4358 65.9538 19.6141C69.9506 21.7924 71.4264 26.8046 69.2473 30.7999L65.7493 37.2132C65.5005 37.6694 64.9283 37.837 64.4728 37.5887L58.057 34.0921C54.0602 31.9138 52.5844 26.9015 54.7636 22.9062Z" fill="#B5BF64"/>
  <path d="M59.4559 18.9345L59.8617 18.8152C64.3785 17.4863 69.124 20.0726 70.4534 24.5877L53.6812 29.5221C52.3518 25.0071 54.9391 20.2634 59.4559 18.9345Z" fill="#626A2E"/>
  <path d="M61.3785 22.7421C61.2056 22.7928 61.0129 22.7778 60.8418 22.6847C59.7834 22.1078 59.0126 21.1532 58.6723 19.9984C58.3321 18.8436 58.4627 17.624 59.0408 16.566C59.2269 16.224 59.6556 16.0981 59.9977 16.2851C60.3399 16.4711 60.4658 16.8996 60.2788 17.2416C59.8821 17.9698 59.7919 18.8079 60.025 19.6019C60.259 20.3959 60.7882 21.0517 61.5167 21.4482C61.8589 21.6343 61.9848 22.0627 61.7978 22.4047C61.7047 22.5757 61.5505 22.6923 61.3776 22.743L61.3785 22.7421Z" fill="#626A2E"/>
  <path d="M39.1257 17.2198C43.4957 15.9449 48.0792 18.4564 49.3545 22.8247C50.6299 27.193 48.1175 31.7747 43.7475 33.0495L36.7327 35.096C36.2338 35.2416 35.7113 34.9545 35.5659 34.4566L33.5186 27.4447C32.2432 23.0764 34.7557 18.4947 39.1257 17.2198Z" fill="#B5BF64"/>
  <path d="M45.2477 17.7406L45.6186 17.9438C49.7474 20.2062 51.2617 25.3927 48.9984 29.5198L33.6672 21.1191C35.9304 16.992 41.119 15.4783 45.2477 17.7406Z" fill="#626A2E"/>
  <path d="M43.9091 21.7855C43.7512 21.6991 43.6261 21.5516 43.5707 21.3646C43.2323 20.207 43.3658 18.9883 43.9448 17.9322C44.5238 16.8761 45.4798 16.1084 46.6378 15.7711C47.0119 15.6621 47.403 15.8763 47.512 16.2503C47.621 16.6242 47.4067 17.0151 47.0326 17.1241C46.2365 17.3562 45.5785 17.8843 45.1809 18.6096C44.7833 19.335 44.6921 20.1731 44.9242 20.969C45.0333 21.343 44.819 21.7338 44.4449 21.8428C44.2578 21.8973 44.067 21.871 43.9081 21.7846L43.9091 21.7855Z" fill="#626A2E"/>
  <path d="M9.87215 27.1134C10.2642 22.5798 14.2647 19.2172 18.8001 19.609C23.3355 20.0009 26.6994 23.9998 26.3074 28.5334L25.6782 35.8108C25.6334 36.3285 25.1767 36.7116 24.6597 36.6669L17.3795 36.0379C12.8441 35.646 9.48014 31.6471 9.87215 27.1134Z" fill="#B5BF64"/>
  <path d="M12.575 21.5952L12.8987 21.323C16.5023 18.294 21.8873 18.7592 24.9175 22.3615L11.5361 33.6093C8.5059 30.0071 8.97134 24.6242 12.575 21.5952Z" fill="#626A2E"/>
  <path d="M15.8631 24.3093C15.725 24.4258 15.5426 24.4888 15.349 24.4719C14.1477 24.3676 13.0592 23.8029 12.2837 22.8821C11.5082 21.9603 11.1388 20.7914 11.2432 19.5906C11.277 19.2026 11.6182 18.916 12.0064 18.9489C12.3946 18.9827 12.6813 19.3238 12.6484 19.7118C12.577 20.5377 12.8308 21.342 13.3637 21.9753C13.8967 22.6086 14.6449 22.9967 15.4712 23.0681C15.8594 23.1019 16.1461 23.443 16.1132 23.8311C16.0962 24.0246 16.0023 24.1938 15.8641 24.3093H15.8631Z" fill="#626A2E"/>
  <path d="M77.6786 41.3547C77.3769 59.2881 68.7225 81.0419 50.3517 86.9671C47.7978 87.747 45.1273 88.1078 42.4766 88.0533C45.1273 87.9856 47.7573 87.5036 50.2379 86.6204C60.2515 83.0489 67.1678 73.9047 70.9061 64.2755C73.726 56.9992 74.9414 49.1291 74.7647 41.3547H77.6786Z" fill="#8E1A1F"/>
  <path d="M3.06529 41.3547C2.74946 56.7014 7.86292 73.5269 20.6456 82.9615C24.9065 86.0463 30.0586 87.9452 35.3534 88.0533C32.7027 88.1078 30.0322 87.746 27.4783 86.9661C17.0474 83.7705 9.53044 74.6761 5.24227 64.9737C1.96834 57.5498 0.341242 49.4673 0.151367 41.3547H3.06529Z" fill="#8E1A1F"/>
  <path d="M38.915 49.6233C60.4071 49.6233 77.8299 45.4375 77.8299 40.2742C77.8299 35.1108 60.4071 30.925 38.915 30.925C17.4228 30.925 0 35.1108 0 40.2742C0 45.4375 17.4228 49.6233 38.915 49.6233Z" fill="#FBAA1F"/>
  <path d="M38.915 49.6233C60.4071 49.6233 77.8299 45.9213 77.8299 41.3547C77.8299 36.7881 60.4071 33.0862 38.915 33.0862C17.4228 33.0862 0 36.7881 0 41.3547C0 45.9213 17.4228 49.6233 38.915 49.6233Z" fill="#EB892E"/>
  <path d="M34.7209 87.2067L36.277 86.8433C37.5905 86.5365 38.906 87.3534 39.2128 88.6664C39.5197 89.9794 38.7025 91.2944 37.389 91.6011L33.4531 92.5203L32.8971 90.1414C32.5902 88.8284 33.4074 87.5134 34.7209 87.2067Z" fill="#B41F24"/>
  <path d="M44.3926 92.5232L40.4567 91.604C39.1432 91.2973 38.326 89.9823 38.6328 88.6693C38.9397 87.3563 40.2552 86.5394 41.5687 86.8462L43.1247 87.2096C44.4382 87.5163 45.2554 88.8313 44.9486 90.1443L44.3926 92.5232Z" fill="#B41F24"/>
  <path d="M38.9149 89.4345C54.9006 89.4345 67.8595 77.6198 67.8595 63.0456C67.8595 48.4714 54.9006 36.6567 38.9149 36.6567C22.9292 36.6567 9.97021 48.4714 9.97021 63.0456C9.97021 77.6198 22.9292 89.4345 38.9149 89.4345Z" fill="#B41F24"/>
  <path d="M16.2033 58.3617C21.0572 58.3617 24.9921 54.4284 24.9921 49.5764C24.9921 44.7243 21.0572 40.791 16.2033 40.791C11.3494 40.791 7.41455 44.7243 7.41455 49.5764C7.41455 54.4284 11.3494 58.3617 16.2033 58.3617Z" fill="#C19863"/>
  <path d="M61.6982 57.422C66.5521 57.422 70.487 53.4887 70.487 48.6367C70.487 43.7846 66.5521 39.8513 61.6982 39.8513C56.8443 39.8513 52.9094 43.7846 52.9094 48.6367C52.9094 53.4887 56.8443 57.422 61.6982 57.422Z" fill="#C19863"/>
  <path d="M39.7911 55.79L45.2034 42.8553C43.1994 42.4288 41.1061 42.2004 38.9507 42.2004C36.7954 42.2004 34.702 42.4288 32.698 42.8553L38.1104 55.79C38.4224 56.5351 39.479 56.5351 39.7911 55.79Z" fill="#BF773B"/>
  <path d="M52.5784 45.5237L43.3592 52.9344C42.9785 53.2407 42.4389 52.8423 42.6203 52.3885L46.3191 43.1164C45.9507 43.0225 45.5794 42.9351 45.2043 42.8552L39.792 55.7899C39.4799 56.535 38.4234 56.535 38.1113 55.7899L32.6989 42.8552C32.3239 42.9351 31.9526 43.0225 31.5841 43.1164L35.2829 52.3885C35.4643 52.8423 34.9248 53.2407 34.5441 52.9344L25.3248 45.5237C17.7712 49.5311 12.7263 56.768 12.7263 65.0328C12.7263 77.6433 24.4675 87.8653 38.9516 87.8653C53.4357 87.8653 65.1769 77.6433 65.1769 65.0328C65.1769 56.768 60.1321 49.5311 52.5784 45.5237Z" fill="#C19863"/>
  <path d="M35.283 52.3875L31.5842 43.1155C29.3612 43.6811 27.2603 44.4967 25.324 45.5237L34.5432 52.9344C34.9239 53.2407 35.4635 52.8423 35.2821 52.3885L35.283 52.3875Z" fill="#BF773B"/>
  <path d="M43.3583 52.9344L52.5775 45.5237C50.6412 44.4967 48.5403 43.6811 46.3173 43.1155L42.6185 52.3875C42.4371 52.8414 42.9766 53.2398 43.3573 52.9334L43.3583 52.9344Z" fill="#BF773B"/>
  <path d="M53.1106 76.2707C52.8352 75.9954 52.3887 75.9954 52.1133 76.2707C50.0058 78.3773 47.1098 79.2286 44.366 78.8236C42.9974 78.6216 41.6664 78.1057 40.4895 77.2789C40.0665 76.982 39.6633 76.6475 39.2854 76.2707C39.136 76.1213 38.9357 76.0536 38.7402 76.0668C38.5447 76.0536 38.3445 76.1213 38.195 76.2707C37.8172 76.6484 37.4139 76.9829 36.9909 77.2789C35.8141 78.1057 34.4831 78.6216 33.1145 78.8236C30.3698 79.2276 27.4746 78.3773 25.3672 76.2707C25.0918 75.9954 24.6453 75.9954 24.3699 76.2707C24.0945 76.546 24.0945 76.9923 24.3699 77.2676C26.4134 79.3103 29.097 80.3317 31.7807 80.3317C32.4086 80.3317 33.0365 80.2753 33.6568 80.1635C35.4945 79.8318 37.2607 79.0087 38.7402 77.6933C40.2198 79.0087 41.985 79.8318 43.8236 80.1635C44.4431 80.2753 45.0719 80.3317 45.6998 80.3317C48.3834 80.3317 51.068 79.3103 53.1106 77.2676C53.386 76.9923 53.386 76.546 53.1106 76.2707Z" fill="#5B1111"/>
  <path d="M33.6567 80.1624C34.6071 81.911 36.3244 83.125 38.3171 83.2763V78.0464C36.9288 79.1551 35.3233 79.8617 33.6567 80.1624Z" fill="white"/>
  <path d="M43.8235 80.1624C42.1569 79.8617 40.5514 79.1561 39.1631 78.0464V83.2763C41.1558 83.125 42.8732 81.911 43.8235 80.1624Z" fill="white"/>
  <path d="M38.7401 77.6924C38.602 77.8155 38.46 77.9329 38.3171 78.0466V83.2765C38.4572 83.2868 38.5982 83.2925 38.7401 83.2925C38.8821 83.2925 39.0231 83.2868 39.1631 83.2765V78.0466C39.0202 77.932 38.8783 77.8155 38.7401 77.6924Z" fill="#EBEBEB"/>
  <path d="M38.7402 76.7911C37.4045 76.7911 36.0687 76.2828 35.0517 75.2661C34.3721 74.5877 34.3721 73.4865 35.0517 72.8081C35.7304 72.1297 36.832 72.1297 37.5107 72.8081C38.1884 73.4856 39.2919 73.4856 39.9696 72.8081C40.6483 72.1297 41.75 72.1297 42.4286 72.8081C43.1082 73.4865 43.1082 74.5877 42.4286 75.2661C41.4116 76.2828 40.0759 76.7911 38.7402 76.7911Z" fill="#5B1111"/>
  <path d="M28.7991 73.3954C31.1612 73.3954 33.076 71.4813 33.076 69.1202C33.076 66.7591 31.1612 64.845 28.7991 64.845C26.437 64.845 24.5222 66.7591 24.5222 69.1202C24.5222 71.4813 26.437 73.3954 28.7991 73.3954Z" fill="white"/>
  <path d="M28.7991 72.4559C30.642 72.4559 32.136 70.9625 32.136 69.1203C32.136 67.2781 30.642 65.7847 28.7991 65.7847C26.9561 65.7847 25.4622 67.2781 25.4622 69.1203C25.4622 70.9625 26.9561 72.4559 28.7991 72.4559Z" fill="#5B1111"/>
  <path d="M49.1026 73.3954C51.4646 73.3954 53.3795 71.4813 53.3795 69.1202C53.3795 66.7591 51.4646 64.845 49.1026 64.845C46.7405 64.845 44.8257 66.7591 44.8257 69.1202C44.8257 71.4813 46.7405 73.3954 49.1026 73.3954Z" fill="white"/>
  <path d="M49.1025 72.4559C50.9455 72.4559 52.4394 70.9625 52.4394 69.1203C52.4394 67.2781 50.9455 65.7847 49.1025 65.7847C47.2596 65.7847 45.7656 67.2781 45.7656 69.1203C45.7656 70.9625 47.2596 72.4559 49.1025 72.4559Z" fill="#5B1111"/>
  <path d="M38.9573 97.2615C39.6841 97.2615 40.2733 96.6726 40.2733 95.9461C40.2733 95.2196 39.6841 94.6306 38.9573 94.6306C38.2305 94.6306 37.6414 95.2196 37.6414 95.9461C37.6414 96.6726 38.2305 97.2615 38.9573 97.2615Z" fill="#B41F24"/>
  <path d="M38.9573 102.523C39.6841 102.523 40.2733 101.934 40.2733 101.208C40.2733 100.481 39.6841 99.8923 38.9573 99.8923C38.2305 99.8923 37.6414 100.481 37.6414 101.208C37.6414 101.934 38.2305 102.523 38.9573 102.523Z" fill="#B41F24"/>
</svg>