<svg xmlns="http://www.w3.org/2000/svg" width="92" height="120" viewBox="0 0 92 120" fill="none">
  <path d="M43.8182 8.60092C44.6047 6.88385 47.0444 6.88386 47.8309 8.60093L62.9813 41.6772C63.6508 43.1389 62.5827 44.803 60.975 44.803H30.6741C29.0664 44.803 27.9982 43.1389 28.6678 41.6772L43.8182 8.60092Z" fill="#914E8D"/>
  <path d="M60.553 10.8815C62.3694 11.4004 62.7366 13.8132 61.1568 14.849L53.0059 20.1929L46.3221 6.81636L60.553 10.8815Z" fill="#914E8D"/>
  <path d="M33.9581 29.1089C34.0525 28.8467 34.2688 28.6471 34.5377 28.574C41.8091 26.5982 49.4738 26.5816 56.7536 28.5261L56.9294 28.5731C57.2049 28.6467 57.4266 28.851 57.5225 29.1195L60.5128 37.4966C60.7978 38.2949 60.2059 39.1347 59.3582 39.1347H32.0933C31.2441 39.1347 30.6521 38.2924 30.9397 37.4935L33.9581 29.1089Z" fill="#004042"/>
  <ellipse cx="47.121" cy="50.3438" rx="36.7387" ry="17.97" fill="#B274AE"/>
  <ellipse cx="47.1221" cy="53.1391" rx="25.158" ry="11.1813" fill="#004042"/>
  <path d="M11.3826 47.1851C20.0197 44.53 29.3302 49.3313 31.9853 57.9684C32.0119 58.0548 31.9634 58.1463 31.877 58.1729C23.2399 60.828 14.0376 55.8222 11.3826 47.1851Z" fill="#E28EAE"/>
  <path d="M86.2576 47.1851C77.6204 44.53 68.3099 49.3313 65.6548 57.9684C65.6283 58.0548 65.6768 58.1463 65.7631 58.1729C74.4003 60.828 83.6025 55.8222 86.2576 47.1851Z" fill="#E28EAE"/>
  <path d="M12.7783 79.6887C21.4154 82.3438 30.726 77.5425 33.3811 68.9053C33.4076 68.819 33.3591 68.7274 33.2727 68.7009C24.6356 66.0458 15.4334 71.0516 12.7783 79.6887Z" fill="#E28EAE"/>
  <path d="M84.8584 79.6887C76.2213 82.3438 66.9107 77.5425 64.2557 68.9053C64.2291 68.819 64.2776 68.7274 64.364 68.7009C73.0011 66.0458 82.2033 71.0516 84.8584 79.6887Z" fill="#E28EAE"/>
  <path d="M6.37866 64.5178C12.4078 57.7874 22.8607 57.097 29.5911 63.1262C29.6584 63.1865 29.6641 63.2899 29.6038 63.3572C23.5746 70.0877 13.1091 70.547 6.37866 64.5178Z" fill="#E28EAE"/>
  <path d="M91.2583 64.5178C85.2291 57.7874 74.7763 57.097 68.0459 63.1262C67.9786 63.1865 67.9729 63.2899 68.0332 63.3572C74.0623 70.0877 84.5279 70.547 91.2583 64.5178Z" fill="#E28EAE"/>
  <rect x="14.3555" y="50.2334" width="2.75827" height="20.9304" rx="1.37913" transform="rotate(-62.0876 14.3555 50.2334)" fill="#EAD1D0"/>
  <rect width="2.75827" height="20.9304" rx="1.37913" transform="matrix(-0.468121 -0.883664 -0.883664 0.468121 83.2783 50.2334)" fill="#EAD1D0"/>
  <rect width="2.75827" height="20.9304" rx="1.37913" transform="matrix(0.468121 0.883664 0.883664 -0.468121 15.7544 76.6401)" fill="#EAD1D0"/>
  <rect x="81.8823" y="76.6401" width="2.75827" height="20.9304" rx="1.37913" transform="rotate(117.912 81.8823 76.6401)" fill="#EAD1D0"/>
  <path d="M26.9558 105.424H70.0839C64.8333 109.933 58.1412 112.412 51.2202 112.412H45.8195C38.8984 112.412 32.2064 109.933 26.9558 105.424Z" fill="#914E8D"/>
  <rect x="10.502" y="65.5942" width="2.75826" height="20.9304" rx="1.37913" transform="rotate(-93.1458 10.502 65.5942)" fill="#EAD1D0"/>
  <rect width="2.75827" height="20.9304" rx="1.37913" transform="matrix(0.0548769 -0.998493 -0.998493 -0.0548769 87.1348 65.5942)" fill="#EAD1D0"/>
  <path d="M25.4832 59.6791C27.6505 51.7903 34.8227 46.3228 43.0037 46.3228H52.4793C61.0112 46.3228 68.3939 52.2591 70.2254 60.5922C72.7168 71.9283 64.0859 82.6621 52.4792 82.6621H43.0038C31.0091 82.6621 22.3057 71.2452 25.4832 59.6791Z" fill="#EAD1D0"/>
  <path d="M28.7505 60.4992V60.4992C34.3872 62.9633 40.9174 62.1728 45.8034 58.4349L46.6812 57.7634C46.8816 57.61 47.1595 57.6086 47.3615 57.7598L48.227 58.4078C53.2565 62.1732 59.9124 62.9704 65.6889 60.4992V60.4992" stroke="#A53459" stroke-width="0.735599" stroke-linecap="round"/>
  <circle cx="45.2248" cy="55.807" r="0.499167" fill="#A53459"/>
  <circle cx="48.8175" cy="55.807" r="0.499167" fill="#A53459"/>
  <circle cx="38.1371" cy="54.7087" r="3.99334" fill="#E28EAE"/>
  <path d="M41.9712 53.6185C42.109 54.1272 42.1453 54.658 42.0779 55.1807C42.0105 55.7035 41.8409 56.2078 41.5786 56.6649C41.3163 57.1221 40.9666 57.5231 40.5493 57.845C40.1321 58.167 39.6555 58.4036 39.1468 58.5414C38.6381 58.6792 38.1072 58.7155 37.5845 58.6481C37.0618 58.5807 36.5575 58.4111 36.1003 58.1488C35.6432 57.8865 35.2422 57.5368 34.9202 57.1195C34.5982 56.7023 34.3616 56.2257 34.2238 55.717L38.0975 54.6677L41.9712 53.6185Z" fill="#0D3F41"/>
  <path d="M41.2505 53.8188C41.2898 53.9642 41.3002 54.1158 41.281 54.2652C41.2617 54.4146 41.2132 54.5587 41.1383 54.6893C41.0633 54.8199 40.9634 54.9345 40.8442 55.0265C40.7249 55.1185 40.5887 55.1862 40.4434 55.2255C40.298 55.2649 40.1463 55.2753 39.997 55.256C39.8476 55.2368 39.7035 55.1883 39.5729 55.1133C39.4422 55.0384 39.3276 54.9384 39.2356 54.8192C39.1436 54.7 39.076 54.5638 39.0366 54.4184L40.1436 54.1186L41.2505 53.8188Z" fill="#FFFACC"/>
  <path d="M37.3309 56.1039C37.3774 56.0187 37.4997 56.0187 37.5462 56.1039L37.6906 56.3686C37.7082 56.401 37.7394 56.4237 37.7756 56.4304L38.0721 56.486C38.1675 56.5038 38.2053 56.6202 38.1386 56.6907L37.9314 56.9099C37.9061 56.9366 37.8942 56.9733 37.8989 57.0099L37.9377 57.309C37.9502 57.4052 37.8513 57.4771 37.7636 57.4355L37.4911 57.3062C37.4578 57.2904 37.4192 57.2904 37.386 57.3062L37.1135 57.4355C37.0258 57.4771 36.9269 57.4052 36.9393 57.309L36.9782 57.0099C36.9829 56.9733 36.971 56.9366 36.9457 56.9099L36.7385 56.6907C36.6718 56.6202 36.7096 56.5038 36.805 56.486L37.1014 56.4304C37.1376 56.4237 37.1689 56.401 37.1865 56.3686L37.3309 56.1039Z" fill="#FFFACC"/>
  <circle cx="3.99334" cy="3.99334" r="3.99334" transform="matrix(-1 0 0 1 59.989 50.7153)" fill="#E28EAE"/>
  <path d="M52.1618 53.6185C52.024 54.1272 51.9878 54.658 52.0551 55.1807C52.1225 55.7035 52.2922 56.2078 52.5545 56.6649C52.8167 57.1221 53.1665 57.5231 53.5837 57.845C54.001 58.167 54.4776 58.4036 54.9863 58.5414C55.495 58.6792 56.0258 58.7155 56.5485 58.6481C57.0713 58.5807 57.5756 58.4111 58.0327 58.1488C58.4899 57.8865 58.8909 57.5368 59.2128 57.1195C59.5348 56.7023 59.7715 56.2257 59.9092 55.717L56.0355 54.6677L52.1618 53.6185Z" fill="#0D3F41"/>
  <path d="M52.8855 53.8188C52.8461 53.9642 52.8358 54.1158 52.855 54.2652C52.8743 54.4146 52.9228 54.5587 52.9977 54.6893C53.0727 54.8199 53.1726 54.9345 53.2918 55.0265C53.4111 55.1185 53.5472 55.1862 53.6926 55.2255C53.838 55.2649 53.9897 55.2753 54.139 55.256C54.2884 55.2368 54.4325 55.1883 54.5631 55.1133C54.6938 55.0384 54.8083 54.9384 54.9003 54.8192C54.9924 54.7 55.06 54.5638 55.0993 54.4184L53.9924 54.1186L52.8855 53.8188Z" fill="#FFFACC"/>
  <path d="M56.8051 56.1039C56.7586 56.0187 56.6363 56.0187 56.5898 56.1039L56.4454 56.3686C56.4278 56.401 56.3965 56.4237 56.3603 56.4304L56.0639 56.486C55.9685 56.5038 55.9307 56.6202 55.9974 56.6907L56.2046 56.9099C56.2299 56.9366 56.2418 56.9733 56.2371 57.0099L56.1982 57.309C56.1858 57.4052 56.2847 57.4771 56.3724 57.4355L56.6449 57.3062C56.6781 57.2904 56.7168 57.2904 56.75 57.3062L57.0225 57.4355C57.1102 57.4771 57.2091 57.4052 57.1966 57.309L57.1578 57.0099C57.1531 56.9733 57.165 56.9366 57.1903 56.9099L57.3975 56.6907C57.4642 56.6202 57.4264 56.5038 57.331 56.486L57.0346 56.4304C56.9984 56.4237 56.9671 56.401 56.9495 56.3686L56.8051 56.1039Z" fill="#FFFACC"/>
  <path d="M65.5014 79.5742L77.8341 92.2028C78.3258 92.7063 78.2937 93.5193 77.7639 93.9824L69.3081 101.375C68.7113 101.896 67.7837 101.723 67.4155 101.021L59.1016 85.169L65.5014 79.5742Z" fill="#B274AE"/>
  <path d="M34.8596 84.5376C33.8041 81.6257 30.6943 80.0074 27.7038 80.8138L17.026 83.6932C16.9752 83.7069 16.9469 83.7612 16.9649 83.8107L22.4575 98.9634C22.4842 99.0369 22.5743 99.0637 22.6367 99.0167L32.8419 91.3301C34.9333 89.7548 35.7519 86.9992 34.8596 84.5376Z" fill="#B274AE"/>
  <path d="M50.4471 13.0452C50.3584 12.8625 50.1384 12.7862 49.9556 12.8749C49.7729 12.9636 49.6966 13.1836 49.7853 13.3664L50.4471 13.0452ZM49.7853 13.3664L53.0798 20.1551L53.7416 19.8339L50.4471 13.0452L49.7853 13.3664Z" fill="#B274AE"/>
  <path d="M34.144 75.4739H62.4967V85.6569C62.4967 93.4863 56.1498 99.8332 48.3204 99.8332C40.491 99.8332 34.144 93.4863 34.144 85.6569V75.4739Z" fill="#EAD1D0"/>
  <path d="M43.5261 85.8569L48.7175 89.7504L53.9088 85.8569V100.832H43.5261V85.8569Z" fill="#0D3F41"/>
  <rect x="38.335" y="98.4358" width="21.3644" height="3.39434" fill="#964C1A"/>
  <path d="M33.1438 101.63H63.6928C63.6928 105.6 60.4747 108.818 56.5048 108.818H40.3318C36.362 108.818 33.1438 105.6 33.1438 101.63Z" fill="#0D3F41"/>
  <path d="M31.1484 81.6636L45.126 83.7601V96.4146C45.126 101.831 40.7349 106.223 35.3181 106.223H29.0694C27.515 106.223 26.3529 104.795 26.6684 103.273L31.1484 81.6636Z" fill="#B274AE"/>
  <path d="M65.9209 81.6636L51.9433 84.6586V96.4146C51.9433 101.831 56.3345 106.223 61.7513 106.223H68C69.5543 106.223 70.7165 104.795 70.4009 103.273L65.9209 81.6636Z" fill="#B274AE"/>
  <path d="M66.8215 79.2975C66.3793 78.2372 65.1612 77.7362 64.1009 78.1785L51.378 83.4854C50.72 83.7599 50.4064 84.5135 50.6753 85.1737C50.926 85.7891 51.6008 86.1159 52.2391 85.9311L65.4804 82.0963C66.6733 81.7508 67.2996 80.4437 66.8215 79.2975Z" fill="#FFB23E"/>
  <path d="M30.2478 79.2975C30.6901 78.2372 31.9081 77.7362 32.9684 78.1785L45.6914 83.4854C46.3493 83.7599 46.663 84.5135 46.394 85.1737C46.1433 85.7891 45.4685 86.1159 44.8303 85.9311L31.589 82.0963C30.396 81.7508 29.7697 80.4437 30.2478 79.2975Z" fill="#FFB23E"/>
  <path d="M36.1615 94.4292L37.5731 95.7181L39.4811 95.6007L38.6914 97.3415L39.3927 99.1198L37.493 98.9068L36.0185 100.123L35.6341 98.2507L34.0215 97.2242L35.6836 96.28L36.1615 94.4292Z" fill="#FFB23E"/>
  <path d="M61.5163 85.263L62.7498 85.5761L63.8329 84.9078L63.9163 86.1777L64.8866 87.0013L63.7046 87.473L63.2212 88.6503L62.4073 87.6719L61.1382 87.576L61.8172 86.4996L61.5163 85.263Z" fill="#FFB23E"/>
  <path d="M68.9218 84.36L69.4852 84.484L69.9662 84.1655L70.0224 84.7397L70.474 85.0987L69.9453 85.3296L69.7433 85.87L69.3604 85.4385L68.7841 85.4135L69.0761 84.9159L68.9218 84.36Z" fill="#FFB23E"/>
  <path d="M32.3923 83.2364L31.7369 83.3792L31.1784 83.0077L31.1117 83.6751L30.5858 84.0914L31.1999 84.3612L31.4334 84.99L31.8797 84.4893L32.5498 84.4615L32.2115 83.8823L32.3923 83.2364Z" fill="#FFB23E"/>
  <rect width="1.797" height="7.78701" rx="0.898501" transform="matrix(-0.345301 -0.938492 -0.938492 0.345301 19.752 89.3188)" fill="#EAD1D0"/>
  <rect width="1.797" height="7.78701" rx="0.898501" transform="matrix(-0.345301 -0.938492 -0.938492 0.345301 19.1323 87.6326)" fill="#EAD1D0"/>
  <rect width="1.797" height="7.78701" rx="0.898501" transform="matrix(-0.345301 -0.938492 -0.938492 0.345301 18.5125 85.9458)" fill="#EAD1D0"/>
  <path d="M72.3041 89.7499L73.4221 89.9959L74.3766 89.3639L74.4881 90.5032L75.3841 91.2157L74.335 91.6738L73.9343 92.7461L73.1744 91.8899L72.0307 91.8402L72.6102 90.8529L72.3041 89.7499Z" fill="#FFB23E"/>
  <path d="M28.4457 89.4953L27.1452 89.7786L26.037 89.0414L25.9046 90.3658L24.861 91.192L26.0797 91.7272L26.5429 92.975L27.4286 91.9814L28.7584 91.9263L28.0871 90.777L28.4457 89.4953Z" fill="#FFB23E"/>
  <path d="M34.0557 86.3592L34.8932 87.1288L36.0287 87.0626L35.5555 88.097L35.9694 89.1564L34.8394 89.026L33.9597 89.747L33.7346 88.6321L32.777 88.0182L33.7678 87.4596L34.0557 86.3592Z" fill="#FFB23E"/>
  <path d="M40.3661 90.9167L40.5008 91.4917L41.0076 91.795L40.5023 92.1008L40.3705 92.6764L39.9236 92.2904L39.3354 92.3429L39.5644 91.7986L39.3327 91.2554L39.9211 91.305L40.3661 90.9167Z" fill="#FFB23E"/>
  <path d="M56.4431 91.5033L56.6481 92.0572L57.1885 92.2952L56.7251 92.6613L56.6657 93.2489L56.1744 92.9213L55.5972 93.0463L55.7569 92.4778L55.4596 91.9675L56.0497 91.9438L56.4431 91.5033Z" fill="#FFB23E"/>
  <path d="M29.9666 102.026L30.4795 102.214L30.9715 101.976L30.951 102.522L31.3289 102.917L30.8034 103.066L30.545 103.547L30.2407 103.094L29.7031 102.997L30.0405 102.567L29.9666 102.026Z" fill="#FFB23E"/>
  <path d="M31.5052 94.1292L31.4713 94.4626L31.6871 94.7188L31.3596 94.7896L31.1826 95.0741L31.0141 94.7844L30.6889 94.704L30.9122 94.4543L30.8882 94.1201L31.1948 94.2553L31.5052 94.1292Z" fill="#FFB23E"/>
  <path d="M56.0681 97.2724L58.3488 97.8062L60.3187 96.5391L60.5159 98.8731L62.3296 100.355L60.1708 101.264L59.3218 103.447L57.7905 101.674L55.452 101.542L56.6644 99.5375L56.0681 97.2724Z" fill="#FFB23E"/>
  <path d="M68.476 103.085L61.9465 90.2126" stroke="#914E8D" stroke-width="0.735599" stroke-linecap="round"/>
  <path d="M28.2124 96.3391L30.5085 86.6553" stroke="#914E8D" stroke-width="0.735599" stroke-linecap="round"/>
  <path d="M77.163 91.8295C77.3582 91.6743 77.6389 91.6903 77.8152 91.8667L80.048 94.1013C80.2573 94.3108 80.2346 94.6566 79.9997 94.837L69.1705 103.15C68.9415 103.326 68.6109 103.267 68.457 103.022L66.8992 100.55C66.7658 100.338 66.8131 100.06 67.0088 99.9048L77.163 91.8295Z" fill="#FFB23E"/>
  <path d="M19.2359 83.2169C19.1401 82.9866 18.8867 82.865 18.647 82.9342L14.9626 83.9982C14.6781 84.0804 14.5307 84.394 14.6492 84.6655L21.0687 99.3773C21.1841 99.642 21.5021 99.7501 21.7549 99.6107L24.8695 97.8935C25.0885 97.7728 25.1815 97.5066 25.0855 97.2757L19.2359 83.2169Z" fill="#FFB23E"/>
  <rect x="6.78955" y="78.1121" width="2.22173" height="15.9734" rx="1.11086" transform="rotate(-27.9303 6.78955 78.1121)" fill="#964C1A"/>
  <rect width="1.797" height="2.37953" rx="0.898501" transform="matrix(-0.345301 -0.938492 -0.938492 0.345301 15.6318 87.813)" fill="#EAD1D0"/>
  <path d="M10.9932 73.879C11.0928 73.523 10.7777 73.189 10.4166 73.2677L8.14925 73.7616C8.0195 73.7899 7.88383 73.7643 7.77327 73.6908L5.84117 72.4056C5.5334 72.2008 5.11838 72.3973 5.0816 72.7651L4.8507 75.0741C4.83748 75.2062 4.77125 75.3273 4.66714 75.4098L2.8478 76.8501C2.558 77.0796 2.61657 77.535 2.95501 77.6836L5.07962 78.6167C5.20121 78.6701 5.29594 78.7706 5.34216 78.8951L6.14985 81.0705C6.2785 81.417 6.72972 81.502 6.97567 81.2261L8.51966 79.4938C8.60801 79.3946 8.73279 79.3356 8.86547 79.3301L11.184 79.2342C11.5533 79.2189 11.7736 78.816 11.5872 78.4969L10.4168 76.4931C10.3498 76.3785 10.3322 76.2415 10.368 76.1137L10.9932 73.879Z" fill="#FFB23E"/>
  <path d="M9.5284 75.3306C9.628 74.9746 9.31293 74.6406 8.95176 74.7193L7.97159 74.9328C7.84184 74.961 7.70618 74.9355 7.59561 74.8619L6.76036 74.3064C6.45259 74.1016 6.03757 74.2981 6.00079 74.6659L5.90097 75.664C5.88776 75.7962 5.82152 75.9173 5.71741 75.9997L4.93091 76.6224C4.6411 76.8519 4.69968 77.3073 5.03812 77.4559L5.95659 77.8593C6.07817 77.9127 6.1729 78.0131 6.21912 78.1376L6.56829 79.078C6.69695 79.4246 7.14817 79.5096 7.39411 79.2336L8.06158 78.4848C8.14994 78.3856 8.27472 78.3266 8.4074 78.3211L9.40969 78.2796C9.77902 78.2643 9.99931 77.8615 9.81288 77.5423L9.30692 76.6761C9.23994 76.5614 9.22233 76.4245 9.25811 76.2966L9.5284 75.3306Z" fill="#FFFACC"/>
  <rect x="38.9363" y="106.822" width="4.59234" height="8.38601" fill="#0D3F41"/>
  <path d="M37.9287 113.526C37.8825 113.369 38.0002 113.211 38.1639 113.211H43.7807C43.9161 113.211 44.0259 113.321 44.0259 113.456V120H36.6994C36.266 120 36.0457 119.479 36.3475 119.168L38.8345 116.606L37.9287 113.526Z" fill="#964C1A"/>
  <rect width="4.59234" height="8.38601" transform="matrix(-1 0 0 1 57.6052 106.822)" fill="#0D3F41"/>
  <path d="M58.6097 113.526C58.6558 113.369 58.5381 113.211 58.3744 113.211H52.7576C52.6222 113.211 52.5124 113.321 52.5124 113.456V120H59.8389C60.2723 120 60.4926 119.479 60.1908 119.168L57.7038 116.606L58.6097 113.526Z" fill="#964C1A"/>
  <circle cx="48.4196" cy="85.9565" r="3.8935" fill="#FCDC8F"/>
  <circle cx="48.4184" cy="85.9565" r="2.6955" fill="#A53459"/>
  <circle cx="47.4194" cy="84.9585" r="1.29783" fill="#EAD1D0"/>
</svg>