<svg xmlns="http://www.w3.org/2000/svg" width="87" height="120" viewBox="0 0 87 120" fill="none">
  <path d="M86.3488 2.89404C85.2791 13.0858 77.6838 33.6942 55.8608 34.5935" stroke="#0D3F41" stroke-width="0.806955"/>
  <path d="M86.9547 0L5.73365 80.8447L0.0412389 85.7309C-0.291976 88.3369 1.47591 88.791 2.40151 88.6922L86.9547 2.66521V0Z" fill="#633A14"/>
  <path fill-rule="evenodd" clip-rule="evenodd" d="M35.2232 51.4189V53.7786C35.414 54.7149 36.3222 57.0821 38.4284 59.0597C38.9245 58.6102 40.0768 56.9248 40.7179 53.7786V51.4189H35.2232Z" fill="#F5EA83"/>
  <path d="M61.2452 32.2218C61.2452 43.1586 50.8797 52.0246 38.0932 52.0246C25.3067 52.0246 14.9412 43.1586 14.9412 32.2218C14.9412 21.285 25.3067 12.419 38.0932 12.419C50.8797 12.419 61.2452 21.285 61.2452 32.2218Z" fill="#F5EA83"/>
  <path d="M21.674 6.17276C18.6796 8.74325 17.2399 19.1842 16.8943 24.0834C26.2018 23.7354 34.3825 18.3185 37.3094 15.6535C33.3453 11.4222 24.6685 3.60227 21.674 6.17276Z" fill="#F5EA83"/>
  <path d="M54.7231 6.06699C57.4001 8.83027 58.2511 19.3313 58.342 24.2364C49.6591 23.262 42.2696 17.3127 39.6602 14.4599C43.5657 10.5109 52.0461 3.30371 54.7231 6.06699Z" fill="#F5EA83"/>
  <path d="M22.4719 8.6427C20.849 8.89658 19.3676 15.0527 20.231 17.895C23.0056 18.0355 29.0626 14.9028 30.197 12.7926C27.6522 9.99135 24.4435 8.33427 22.4719 8.6427Z" fill="#B7D6D6"/>
  <path d="M52.9078 8.42224C54.462 8.671 55.9645 15.3994 55.1797 18.5344C52.5306 18.7396 46.6991 15.4132 45.5854 13.1184C47.9773 9.9975 51.0197 8.12002 52.9078 8.42224Z" fill="#B7D6D6"/>
  <path d="M8.14835 61.7181H11.2394V64.6583H8.14835C7.19634 66.0689 6.08766 67.0331 4.25592 67.0331C2.42419 67.0331 0.134521 65.7407 0.134521 62.6228C0.134521 59.5048 2.88212 58.5918 4.82834 58.7779C6.77456 58.964 7.63237 60.7192 8.14835 61.7181Z" fill="#F5EA83"/>
  <path d="M70.6472 61.7181H67.706V64.6583H70.6472C71.553 66.0689 72.608 67.0331 74.3509 67.0331C76.0938 67.0331 78.2725 65.7407 78.2725 62.6228C78.2725 59.5048 75.6581 58.5918 73.8062 58.7779C71.9544 58.964 71.1381 60.7192 70.6472 61.7181Z" fill="#F5EA83"/>
  <path d="M33.5837 99.5402V90.2524H36.8143V99.5402H33.5837Z" fill="#F5EA83"/>
  <path d="M41.4583 99.5402V90.2524H44.4869V99.5402H41.4583Z" fill="#F5EA83"/>
  <path d="M29.503 99.54H38.9008C38.6716 104.047 38.2819 113.33 38.557 114.412C38.8012 115.372 38.872 116.731 38.8925 117.679C38.9008 118.066 38.9008 118.385 38.9008 118.581V119.933H13.8016C13.6074 119.389 13.4073 118.571 13.3454 117.679C13.2489 116.291 13.4873 114.724 14.6039 113.736C16.896 111.708 23.5433 111.032 26.5231 110.581L29.503 110.356V99.54Z" fill="#0D3F41"/>
  <path fill-rule="evenodd" clip-rule="evenodd" d="M38.9008 118.581C38.9008 118.385 38.9008 118.066 38.8925 117.679H13.3454C13.4073 118.571 13.6074 119.389 13.8016 119.933H38.9008V118.581Z" fill="#B7D6D6"/>
  <ellipse cx="3.15002" cy="4.9752" rx="3.15002" ry="4.9752" transform="matrix(0.867064 -0.498197 0.510413 0.859929 16.4836 37.3296)" fill="#FFB23E"/>
  <ellipse cx="3.14689" cy="4.98022" rx="3.14689" ry="4.98022" transform="matrix(0.831285 0.555846 -0.568337 0.822796 54.8589 34.2212)" fill="#FFB23E"/>
  <path d="M37.26 18.1104C23.2751 18.3816 21.6832 30.199 22.6353 36.0738C32.4232 37.6555 52.9129 37.5426 53.4842 36.0738C55.2873 31.4377 54.741 17.7715 37.26 18.1104Z" fill="#0D3F41"/>
  <ellipse cx="28.8391" cy="35.6029" rx="6.15817" ry="5.85531" fill="#FFFACC"/>
  <ellipse cx="47.3809" cy="35.6029" rx="6.12452" ry="5.85531" fill="#FFFACC"/>
  <ellipse cx="28.9401" cy="35.9057" rx="3.97084" ry="3.93719" fill="#0D3F41"/>
  <ellipse cx="47.5489" cy="35.9057" rx="4.00449" ry="3.93719" fill="#0D3F41"/>
  <path d="M38.932 39.0354H37.1305C37.0562 39.0354 37.0142 39.1206 37.0593 39.1796L38.0075 40.4181C38.0445 40.4664 38.1179 40.4646 38.1525 40.4144L39.0058 39.1759C39.0468 39.1164 39.0042 39.0354 38.932 39.0354Z" fill="#FFB23E"/>
  <path d="M27.2573 43.0339C29.0487 44.0783 33.6378 44.5888 38.1201 41.5254C40.9788 43.7301 45.7355 45.169 49.669 43.0339" stroke="#FFB23E" stroke-width="1.1656"/>
  <rect x="32.9109" y="101.828" width="4.64386" height="1.74986" fill="#B7D6D6"/>
  <rect x="32.9109" y="104.453" width="4.64386" height="1.81716" fill="#B7D6D6"/>
  <rect x="32.9109" y="107.145" width="4.64386" height="1.74986" fill="#B7D6D6"/>
  <ellipse cx="12.9891" cy="80.258" rx="3.43242" ry="3.53337" fill="#FFFACC"/>
  <path d="M48.2669 99.54H38.968C39.1948 104.062 39.5804 113.376 39.3082 114.461C39.0665 115.425 38.9965 116.787 38.9763 117.739C38.968 118.127 38.968 118.447 38.968 118.643V120H63.803C63.9952 119.455 64.1932 118.634 64.2544 117.739C64.3499 116.346 64.114 114.774 63.0092 113.783C60.7411 111.748 54.1638 111.07 51.2154 110.618L48.2669 110.392V99.54Z" fill="#0D3F41"/>
  <path fill-rule="evenodd" clip-rule="evenodd" d="M38.968 118.643C38.968 118.447 38.968 118.127 38.9763 117.739H64.2544C64.1932 118.634 63.9952 119.455 63.803 120H38.968V118.643Z" fill="#B7D6D6"/>
  <rect width="4.64386" height="1.74986" transform="matrix(-1 0 0 1 44.6887 101.828)" fill="#B7D6D6"/>
  <rect width="4.64386" height="1.81716" transform="matrix(-1 0 0 1 44.6887 104.453)" fill="#B7D6D6"/>
  <rect width="4.64386" height="1.74986" transform="matrix(-1 0 0 1 44.6887 107.145)" fill="#B7D6D6"/>
  <path fill-rule="evenodd" clip-rule="evenodd" d="M43.3167 54.5494C42.9922 54.5233 42.682 54.4984 42.3429 54.4261C41.893 54.3301 41.3921 54.1508 40.7392 53.7747C40.0977 56.9156 38.9446 58.5983 38.4482 59.047C36.3405 57.0727 35.4317 54.7095 35.2408 53.7747C35.0781 53.9021 34.577 54.236 33.7516 54.6653C33.6086 54.7397 33.4559 54.8169 33.2934 54.8964C32.9557 55.0618 32.625 55.1662 32.3028 55.2679C31.3136 55.5802 30.4055 55.8668 29.6278 57.813C29.1718 58.9542 27.4833 58.7128 25.0183 58.3604C21.91 57.9161 17.5671 57.2953 12.9035 59.047C12.3274 59.2634 11.8308 59.5662 11.409 59.9444C5.70757 65.0546 13.6395 83.9144 22.984 88.9982C33.2934 94.607 42.1801 95.7485 51.1632 90.9052C61.3582 85.4085 67.773 76.3222 68.8039 65.7776C69.462 59.047 67.1768 58.2352 64.1074 57.5887C63.1562 57.3883 61.2905 57.3764 60.0981 57.5887C55.59 58.3913 48.2995 58.5983 47.3831 57.813C46.982 57.4693 46.7125 56.9321 46.4499 56.4085C46.1125 55.7359 45.7863 55.0856 45.2066 54.8964C44.4133 54.6375 43.8459 54.5919 43.3167 54.5494Z" fill="#B7D6D6"/>
  <path d="M59.7705 95.0185C59.0363 95.1089 58.8528 94.6796 58.8528 94.4537C56.9526 94.6527 55.5466 94.1722 54.5388 93.437C53.2588 92.5032 52.621 91.1587 52.4285 90.2738L59.7705 84.0605C61.1545 84.4694 61.8706 85.7413 62.221 86.8848C62.4516 87.637 62.5238 88.3336 62.5238 88.6923C62.5238 89.596 61.1472 92.5332 61.8355 92.9851C62.5238 93.437 62.0649 95.0185 61.1472 94.4537C60.612 94.1243 60.3694 93.8149 60.2772 93.613C60.3989 94.1336 60.4249 94.938 59.7705 95.0185Z" fill="#FFB23E"/>
  <path fill-rule="evenodd" clip-rule="evenodd" d="M52.4285 90.312C52.621 91.1897 53.2588 92.5235 54.5388 93.4497C55.0101 91.3206 57.2064 87.0398 62.221 86.9502C62.013 86.2769 61.6761 85.5587 61.1472 85.0013C60.7851 84.6197 60.333 84.3135 59.7705 84.1487L52.4285 90.312ZM60.2772 93.6244C60.2429 93.5499 60.2294 93.4902 60.2294 93.4497C60.2461 93.5025 60.2623 93.5613 60.2772 93.6244Z" fill="#F5EA83"/>
  <path d="M59.7705 84.1487C60.333 84.3135 60.7851 84.6197 61.1472 85.0013C61.8961 84.5303 63.0822 83.3867 61.8355 82.5798L59.7705 84.1487Z" fill="#F5EA83"/>
  <path d="M24.2277 15.9448C34.4289 8.82589 35.8475 2.96964 38.1459 2.96964C40.4443 2.70484 41.977 8.6946 52.225 16.0504C61.8542 22.9621 62.6097 22.2339 67.8006 22.962C71.5743 23.4914 74.1543 25.6299 70.0813 26.092C64.2595 26.7527 49.6965 27.9947 38.0182 27.6776C26.5772 27.9953 12.4377 26.6693 6.73428 26.0072C3.15898 25.5923 3.30012 23.7533 6.73428 22.962C10.1684 22.1707 15.0852 22.325 24.2277 15.9448Z" fill="#DE8E45"/>
  <path d="M35.6703 15.9506C42.8312 16.0583 48.3904 15.2551 50.2749 14.8401L53.0343 16.5226C52.6417 16.9152 51.2709 17.9091 48.9288 18.7436C46.0012 19.7868 26.719 15.816 35.6703 15.9506Z" fill="#F9C494"/>
  <path d="M34.244 20.3242C44.6577 20.3829 53.457 19.3398 56.1975 19.1138L58.3511 20.3242C58.3511 20.3242 56.931 21.3908 53.525 21.8452C49.2675 22.4133 21.2268 20.2509 34.244 20.3242Z" fill="#F9C494"/>
  <ellipse cx="59.5624" cy="90.69" rx="1.54795" ry="1.58161" fill="#FFFACC"/>
  <ellipse cx="59.5962" cy="90.7906" rx="0.84128" ry="0.740326" fill="#DE8E45"/>
  <path d="M33.6511 55.4189L19.5176 48.6594C23.1946 49.2002 35.6811 48.8847 36.4088 48.6594L38.3622 59.024L33.6511 55.4189Z" fill="#B7D6D6"/>
  <path d="M42.8455 55.4417L58.8894 47.7173C55.4428 48.2546 40.9426 48.9487 40.2605 48.7248L38.4295 59.0241L42.8455 55.4417Z" fill="#B7D6D6"/>
  <rect x="34.3242" y="55.7935" width="2.55749" height="2.55749" fill="#633A14"/>
  <rect x="40.0447" y="55.7935" width="2.55749" height="2.55749" fill="#633A14"/>
  <rect x="40.5159" y="56.5339" width="1.34605" height="1.27874" fill="#FFB23E"/>
  <rect x="34.7278" y="56.5339" width="1.41335" height="1.27874" fill="#FFB23E"/>
  <path d="M40.1794 57.464L36.4778 56.8032V57.2437L40.0672 58.0147L40.1794 57.464Z" fill="#633A14"/>
  <path d="M25.7095 48.9786C24.8808 49.0675 21.2973 48.7935 19.6091 48.6454C17.192 48.3123 22.4866 46.7575 22.832 47.0907C23.1082 47.3572 24.8654 48.4604 25.7095 48.9786Z" fill="#829C9C"/>
  <path d="M58.7614 47.579C57.9478 47.8393 53.7517 48.0489 51.7554 48.1212C52.117 48.0345 53.7894 46.7839 54.5804 46.1694C56.313 46.5309 59.575 47.3188 58.7614 47.579Z" fill="#829C9C"/>
  <path d="M44.5057 54.7168C46.6425 61.0107 48.6265 73.8681 39.4692 74.9471M39.4692 74.9471C30.3118 76.026 21.2308 64.0827 17.835 57.9761M39.4692 74.9471C40.1942 72.3996 41.2091 67.5743 39.4692 68.6532C37.7782 69.7018 38.6893 73.1001 39.4074 74.8036M39.4692 74.9471C35.4629 76.8203 28.4804 81.713 32.6012 86.2985C36.722 90.8841 38.8969 80.6415 39.4692 74.9471ZM39.4692 74.9471C40.9954 76.8577 43.9563 81.2185 43.59 83.3764M39.4692 74.9471C39.4488 74.9007 39.4282 74.8529 39.4074 74.8036M39.4074 74.8036C38.2452 75.1511 36.3328 78.4986 37.9811 89.1083" stroke="#0D3F41" stroke-width="1.07594"/>
  <path d="M13.618 80.7706C13.2495 79.6016 12.543 80.0587 12.2359 80.4334L10.1626 85.8289L13.618 87.6274C14.7238 87.2677 14.3091 86.6532 13.9636 86.3909L12.0055 85.6041L13.618 80.7706Z" fill="#F5EA83"/>
</svg>