<svg xmlns="http://www.w3.org/2000/svg" width="71" height="120" viewBox="0 0 71 120" fill="none">
  <path d="M27.6824 106.713H24.2395C22.873 106.713 21.7651 107.821 21.7651 109.187V117.279C21.7651 118.645 22.873 119.753 24.2395 119.753H27.6824C29.049 119.753 30.1568 118.645 30.1568 117.279V109.187C30.1568 107.821 29.049 106.713 27.6824 106.713Z" fill="#FFC259"/>
  <path d="M45.9124 106.96H42.4695C41.1029 106.96 39.9951 108.068 39.9951 109.434V117.526C39.9951 118.892 41.1029 120 42.4695 120H45.9124C47.279 120 48.3868 118.892 48.3868 117.526V109.434C48.3868 108.068 47.279 106.96 45.9124 106.96Z" fill="#FFC259"/>
  <path d="M55.5667 100.001L52.8033 80.6441C52.2091 76.4852 48.6476 73.396 44.4462 73.396H25.8296C21.6282 73.396 18.0667 76.4852 17.4725 80.6441L14.709 100.001C14.6374 100.501 14.6127 100.997 14.6287 101.482H55.6458C55.6619 100.995 55.6371 100.501 55.5655 100.001H55.5667Z" fill="#B274AE"/>
  <path d="M3.53315 98.5627L3.53398 98.5636C5.08793 100.282 7.74085 100.415 9.45943 98.8617L16.1045 92.8539C17.8231 91.3001 17.9565 88.6475 16.4026 86.9292L16.4017 86.9282C14.8478 85.2098 12.1949 85.0764 10.4763 86.6302L3.83125 92.638C2.11267 94.1917 1.9792 96.8443 3.53315 98.5627Z" fill="#FFC259"/>
  <path d="M6.07421 90.611L11.7024 96.8347L24.571 85.2002L18.9428 78.9765L6.07421 90.611Z" fill="#B274AE"/>
  <path d="M25.7712 85.0032L31.3772 86.1272L28.3655 79.908L25.7712 85.0032Z" fill="#F0D1D1"/>
  <path d="M28.5471 87.9418L32.6336 88.7619L30.4384 84.2288L28.5471 87.9418Z" fill="#F0D1D1"/>
  <path d="M44.2793 85.0032L38.6733 86.1272L41.6851 79.908L44.2793 85.0032Z" fill="#F0D1D1"/>
  <path d="M41.5035 87.9418L37.4182 88.7619L39.6122 84.2288L41.5035 87.9418Z" fill="#F0D1D1"/>
  <path d="M36.2027 84.0655L36.9254 90.5578L41.5567 80.9775H28.719L33.3503 90.5578L34.073 84.0655H36.2027Z" fill="white"/>
  <path d="M35.7764 79.2952H34.4978C33.8641 79.2952 33.2785 79.6336 32.9623 80.182L32.3236 81.2888C32.0074 81.8372 32.0074 82.5129 32.3236 83.0613L32.9623 84.168C33.2785 84.7165 33.8641 85.0549 34.4978 85.0549H35.7764C36.4101 85.0549 36.9957 84.7165 37.3119 84.168L37.9506 83.0613C38.2668 82.5129 38.2668 81.8372 37.9506 81.2888L37.3119 80.182C36.9957 79.6336 36.4101 79.2952 35.7764 79.2952Z" fill="#004042"/>
  <path d="M36.2027 84.0657H34.073L33.3503 90.5579L34.5709 93.0826L35.1379 94.2561L35.7049 93.0826L36.9254 90.5579L36.2027 84.0657Z" fill="#004042"/>
  <path d="M38.5843 102.964H35.3848V109.634H38.5843V102.964Z" fill="#004042"/>
  <path d="M46.4658 102.964V114.575H48.3868V109.551C48.8253 109.491 49.2515 109.395 49.6654 109.269V102.964H46.4658Z" fill="#004042"/>
  <path d="M45.9718 102.964H42.7722V114.575H45.9718V102.964Z" fill="#004042"/>
  <path d="M20.6101 102.964V109.271C20.9844 109.385 21.3698 109.474 21.7652 109.534V114.575H23.8096V102.964H20.6101Z" fill="#004042"/>
  <path d="M27.9976 102.964V114.575H30.1569V109.634H31.1971V102.964H27.9976Z" fill="#004042"/>
  <path d="M39.0786 102.964V109.634H39.9952V114.575H42.2781V102.964H39.0786Z" fill="#004042"/>
  <path d="M34.8907 102.964H31.6912V109.634H34.8907V102.964Z" fill="#004042"/>
  <path d="M27.5032 102.964H24.3037V114.575H27.5032V102.964Z" fill="#004042"/>
  <path d="M14.8115 102.964C15.0833 104.231 15.6429 105.401 16.4224 106.396V102.964H14.8115Z" fill="#004042"/>
  <path d="M16.9165 102.964V106.972C17.7936 107.907 18.8844 108.645 20.116 109.103V102.964H16.9165Z" fill="#004042"/>
  <path d="M53.8533 106.396C54.6328 105.401 55.1911 104.231 55.4629 102.964H53.8533V106.396Z" fill="#004042"/>
  <path d="M50.1594 102.964V109.103C51.3911 108.644 52.4806 107.906 53.359 106.971V102.964H50.1594Z" fill="#004042"/>
  <path d="M16.4224 102.964V106.396C16.578 106.594 16.7436 106.787 16.9165 106.971V102.963H16.4224V102.964Z" fill="#F6E972"/>
  <path d="M20.116 102.964V109.103C20.279 109.164 20.4433 109.22 20.6101 109.271V102.964H20.116Z" fill="#F6E972"/>
  <path d="M24.304 102.964H23.8098V114.575H24.304V102.964Z" fill="#F6E972"/>
  <path d="M27.9976 102.964H27.5034V114.575H27.9976V102.964Z" fill="#F6E972"/>
  <path d="M31.6912 102.964H31.197V109.634H31.6912V102.964Z" fill="#F6E972"/>
  <path d="M35.3848 102.964H34.8906V109.634H35.3848V102.964Z" fill="#F6E972"/>
  <path d="M42.7722 102.964H42.2781V114.575H42.7722V102.964Z" fill="#F6E972"/>
  <path d="M46.4661 102.964H45.9719V114.575H46.4661V102.964Z" fill="#F6E972"/>
  <path d="M39.0786 102.964H38.5845V109.634H39.0786V102.964Z" fill="#F6E972"/>
  <path d="M49.6653 102.964V109.269C49.8321 109.218 49.9976 109.164 50.1594 109.103V102.964H49.6653Z" fill="#F6E972"/>
  <path d="M53.3591 102.964V106.971C53.5321 106.787 53.6976 106.594 53.8533 106.396V102.964H53.3591Z" fill="#F6E972"/>
  <path d="M38.5843 101.482H35.3848V102.964H38.5843V101.482Z" fill="#F6E972"/>
  <path d="M49.6654 101.482H46.4658V102.964H49.6654V101.482Z" fill="#F6E972"/>
  <path d="M45.9718 101.482H42.7722V102.964H45.9718V101.482Z" fill="#F6E972"/>
  <path d="M23.8096 101.482H20.6101V102.964H23.8096V101.482Z" fill="#F6E972"/>
  <path d="M31.1971 101.482H27.9976V102.964H31.1971V101.482Z" fill="#F6E972"/>
  <path d="M42.2781 101.482H39.0786V102.964H42.2781V101.482Z" fill="#F6E972"/>
  <path d="M34.8907 101.482H31.6912V102.964H34.8907V101.482Z" fill="#F6E972"/>
  <path d="M27.5032 101.482H24.3037V102.964H27.5032V101.482Z" fill="#F6E972"/>
  <path d="M16.4221 101.482H14.6284C14.6445 101.987 14.7075 102.482 14.8112 102.964H16.4221V101.482Z" fill="#F6E972"/>
  <path d="M20.116 101.482H16.9165V102.964H20.116V101.482Z" fill="#F6E972"/>
  <path d="M53.853 101.482V102.964H55.4627C55.5665 102.482 55.6295 101.987 55.6455 101.482H53.8518H53.853Z" fill="#F6E972"/>
  <path d="M53.359 101.482H50.1594V102.964H53.359V101.482Z" fill="#F6E972"/>
  <path d="M16.9165 101.482H16.4224V102.964H16.9165V101.482Z" fill="#F6E972"/>
  <path d="M20.6101 101.482H20.116V102.964H20.6101V101.482Z" fill="#F6E972"/>
  <path d="M24.304 101.482H23.8098V102.964H24.304V101.482Z" fill="#F6E972"/>
  <path d="M27.9976 101.482H27.5034V102.964H27.9976V101.482Z" fill="#F6E972"/>
  <path d="M31.6912 101.482H31.197V102.964H31.6912V101.482Z" fill="#F6E972"/>
  <path d="M35.3848 101.482H34.8906V102.964H35.3848V101.482Z" fill="#F6E972"/>
  <path d="M42.7722 101.482H42.2781V102.964H42.7722V101.482Z" fill="#F6E972"/>
  <path d="M46.4661 101.482H45.9719V102.964H46.4661V101.482Z" fill="#F6E972"/>
  <path d="M39.0786 101.482H38.5845V102.964H39.0786V101.482Z" fill="#F6E972"/>
  <path d="M50.1594 101.482H49.6653V102.964H50.1594V101.482Z" fill="#F6E972"/>
  <path d="M53.8533 101.482H53.3591V102.964H53.8533V101.482Z" fill="#F6E972"/>
  <path d="M35.1377 97.0352C35.6835 97.0352 36.126 96.5927 36.126 96.047C36.126 95.5013 35.6835 95.0588 35.1377 95.0588C34.5919 95.0588 34.1494 95.5013 34.1494 96.047C34.1494 96.5927 34.5919 97.0352 35.1377 97.0352Z" fill="#004042"/>
  <path d="M35.1377 100.247C35.6835 100.247 36.126 99.8042 36.126 99.2584C36.126 98.7127 35.6835 98.2703 35.1377 98.2703C34.5919 98.2703 34.1494 98.7127 34.1494 99.2584C34.1494 99.8042 34.5919 100.247 35.1377 100.247Z" fill="#004042"/>
  <path d="M44.6499 89.3411H51.4443V92.6502C51.4443 94.5252 49.9223 96.047 48.0471 96.047C46.1718 96.047 44.6499 94.5252 44.6499 92.6502V89.3411Z" fill="#A6499B"/>
  <path d="M6.07397 90.6105L11.7021 96.8342L13.3478 95.3464L7.71966 89.1226L6.07397 90.6105Z" fill="#A6499B"/>
  <path d="M11.509 27.4213C12.3277 27.4213 12.9914 26.7576 12.9914 25.939C12.9914 25.1204 12.3277 24.4568 11.509 24.4568C10.6903 24.4568 10.0266 25.1204 10.0266 25.939C10.0266 26.7576 10.6903 27.4213 11.509 27.4213Z" fill="#D96892"/>
  <path d="M53.3279 35.4502H17.7451L15.4993 6.52803C15.4993 2.92248 18.4221 0 22.0281 0H49.045C52.651 0 55.5738 2.92248 55.5738 6.52803L53.3279 35.4502Z" fill="#B274AE"/>
  <path fill-rule="evenodd" clip-rule="evenodd" d="M56.8333 23.1293L56.8347 23.1261L58.0037 24.6291L57.5823 21.296C58.5544 18.6154 59.0551 15.7901 59.0659 12.9457C59.4833 13.442 59.9929 14.1053 60.1832 14.5494C59.9602 13.8109 59.4892 12.4865 59.0458 11.8509C59.0145 11.0766 58.9468 10.3022 58.8423 9.52997L58.8211 9.37329L59.0317 9.55837C61.6173 11.83 63.3355 14.8285 64.04 18.0657C63.8434 18.9974 63.5047 20.1677 63.0164 20.8696C63.3238 20.7344 63.8692 20.2828 64.2706 19.3966C64.5348 21.436 64.4025 23.5414 63.8391 25.597L62.799 29.392C62.4087 29.8123 61.9514 30.2507 61.5453 30.5135C61.7678 30.5337 62.148 30.5246 62.5166 30.4223L62.4357 30.7173C61.384 34.5547 57.8963 37.2151 53.9174 37.2151C52.8699 34.8908 52.8182 32.2462 53.7611 29.8911L54.8981 32.8018L54.2296 28.8387L56.8333 23.1293Z" fill="#A61E00"/>
  <path d="M61.4814 16.4563V17.0594C61.4814 19.1214 61.2605 21.1774 60.8224 23.1924V23.1924C60.3552 25.3418 59.6328 27.454 58.6912 29.4419V29.4419C57.6931 31.5489 56.4358 33.554 54.9689 35.3661L54.4016 36.0669C54.3994 36.0695 54.3977 36.0724 54.3963 36.0756L52.6003 40.2662" stroke="#CA6E91" stroke-width="1.66068" stroke-linecap="round"/>
  <path d="M52.4985 11.7971L41.9043 15.5566L47.2343 30.573L57.8285 26.8136L52.4985 11.7971Z" fill="#FFF9C8"/>
  <path d="M48.5508 24.0677C49.5407 24.0677 50.3433 23.2653 50.3433 22.2754C50.3433 21.2856 49.5407 20.4832 48.5508 20.4832C47.5608 20.4832 46.7583 21.2856 46.7583 22.2754C46.7583 23.2653 47.5608 24.0677 48.5508 24.0677Z" fill="#004042"/>
  <path d="M51.5762 22.9932C52.5661 22.9932 53.3687 22.1908 53.3687 21.201C53.3687 20.2111 52.5661 19.4087 51.5762 19.4087C50.5862 19.4087 49.7837 20.2111 49.7837 21.201C49.7837 22.1908 50.5862 22.9932 51.5762 22.9932Z" fill="#004042"/>
  <path d="M49.1721 21.1788C50.1621 21.1788 50.9646 20.3764 50.9646 19.3865C50.9646 18.3967 50.1621 17.5942 49.1721 17.5942C48.1822 17.5942 47.3796 18.3967 47.3796 19.3865C47.3796 20.3764 48.1822 21.1788 49.1721 21.1788Z" fill="#004042"/>
  <path d="M50.0936 21.9829L49.8577 25.1314L52.2616 24.2791L50.0936 21.9829Z" fill="#004042"/>
  <path d="M54.5098 35.0796H16.5626L15.7708 28.9148C15.7708 28.1576 16.3847 27.5449 17.1407 27.5449H53.9317C54.689 27.5449 55.3017 28.1588 55.3017 28.9148L54.5098 35.0796Z" fill="#004042"/>
  <path d="M21.5856 22.9316L14.5713 35.0797H32.3392L25.3249 22.9316C24.4936 21.4925 22.4169 21.4925 21.5856 22.9316Z" fill="#FBAA1F"/>
  <path d="M45.7477 22.9316L38.7334 35.0797H56.5013L49.4871 22.9316C48.6557 21.4925 46.5791 21.4925 45.7477 22.9316Z" fill="#FBAA1F"/>
  <path d="M11.7559 26.9087L8.59839 28.7318C8.79604 28.9838 8.91464 29.3 8.91464 29.6447C8.91464 29.951 8.82199 30.2351 8.66263 30.471L11.7559 32.2571V26.9087Z" fill="#AFD7D7"/>
  <path d="M17.5622 29.6447C18.381 29.6447 19.0447 28.981 19.0447 28.1624C19.0447 27.3438 18.381 26.6802 17.5622 26.6802C16.7435 26.6802 16.0798 27.3438 16.0798 28.1624C16.0798 28.981 16.7435 29.6447 17.5622 29.6447Z" fill="#D96892"/>
  <path d="M13.7486 26.5569H13.1309C11.2294 26.5569 9.68799 28.0981 9.68799 29.9994V34.3547C9.68799 36.2559 11.2294 37.7972 13.1309 37.7972H13.7486C15.65 37.7972 17.1915 36.2559 17.1915 34.3547V29.9994C17.1915 28.0981 15.65 26.5569 13.7486 26.5569Z" fill="#AFD7D7"/>
  <path d="M8.59863 28.7319L7.93031 29.1186C7.57206 29.3248 7.57206 29.8424 7.93031 30.0487L8.6641 30.4723C8.82346 30.2364 8.91611 29.9511 8.91611 29.646C8.91611 29.3014 8.79752 28.9851 8.59986 28.7332L8.59863 28.7319Z" fill="#D96892"/>
  <path d="M12.2551 29.8943C12.835 29.8943 13.3052 29.4242 13.3052 28.8444C13.3052 28.2645 12.835 27.7944 12.2551 27.7944C11.6752 27.7944 11.2051 28.2645 11.2051 28.8444C11.2051 29.4242 11.6752 29.8943 12.2551 29.8943Z" fill="white"/>
  <path d="M12.2551 29.5855C12.6645 29.5855 12.9963 29.2537 12.9963 28.8444C12.9963 28.4351 12.6645 28.1033 12.2551 28.1033C11.8458 28.1033 11.5139 28.4351 11.5139 28.8444C11.5139 29.2537 11.8458 29.5855 12.2551 29.5855Z" fill="#004042"/>
  <path d="M14.5591 30.6924C15.139 30.6924 15.6091 30.2223 15.6091 29.6424C15.6091 29.0626 15.139 28.5925 14.5591 28.5925C13.9792 28.5925 13.509 29.0626 13.509 29.6424C13.509 30.2223 13.9792 30.6924 14.5591 30.6924Z" fill="white"/>
  <path d="M14.5591 30.3834C14.9684 30.3834 15.3003 30.0516 15.3003 29.6422C15.3003 29.2329 14.9684 28.9011 14.5591 28.9011C14.1497 28.9011 13.8179 29.2329 13.8179 29.6422C13.8179 30.0516 14.1497 30.3834 14.5591 30.3834Z" fill="#004042"/>
  <path d="M63.5292 34.981H7.54351C4.34371 34.981 1.74976 37.5746 1.74976 40.774C1.74976 43.9735 4.34371 46.5671 7.54351 46.5671H63.5292C66.729 46.5671 69.323 43.9735 69.323 40.774C69.323 37.5746 66.729 34.981 63.5292 34.981Z" fill="#B274AE"/>
  <path d="M50.2518 39.0325H20.6974C9.34597 39.0325 0.143799 48.2336 0.143799 59.5837V61.9603C0.143799 73.3104 9.34597 82.5115 20.6974 82.5115H50.2518C61.6032 82.5115 70.8054 73.3104 70.8054 61.9603V59.5837C70.8054 48.2336 61.6032 39.0325 50.2518 39.0325Z" fill="#FBAA1F"/>
  <path d="M52.7649 83.0089L52.7659 83.0082C54.6827 81.7068 55.1814 79.0981 53.8798 77.1814L48.8471 69.7705C47.5455 67.8539 44.9365 67.3551 43.0197 68.6565L43.0186 68.6572C41.1019 69.9585 40.6032 72.5672 41.9048 74.4839L46.9375 81.8948C48.2391 83.8115 50.8481 84.3102 52.7649 83.0089Z" fill="#FFC259"/>
  <path d="M43.6039 76.9857L53.3502 91.3374C57.1843 88.7343 58.1819 83.5161 55.5783 79.6823L50.5462 72.2723L43.6039 76.9857Z" fill="#B274AE"/>
  <path d="M44.8507 78.7551L51.793 74.0417L50.5466 72.2064L43.6043 76.9198L44.8507 78.7551Z" fill="#A6499B"/>
  <path d="M31.7328 52.7443C31.7328 52.1679 31.4853 51.5972 31.0043 51.0646C30.5234 50.5321 29.8184 50.0482 28.9297 49.6406C28.0411 49.233 26.986 48.9097 25.8249 48.6891C24.6638 48.4685 23.4193 48.355 22.1625 48.355C20.9058 48.355 19.6613 48.4685 18.5002 48.6891C17.339 48.9097 16.284 49.233 15.3953 49.6406C14.5067 50.0482 13.8017 50.5321 13.3208 51.0646C12.8398 51.5972 12.5923 52.1679 12.5923 52.7443L22.1625 52.7443H31.7328Z" fill="#FFF9C8"/>
  <path d="M18.5647 52.0248C18.5647 49.998 20.2077 48.355 22.2345 48.355C24.2613 48.355 25.9043 49.998 25.9043 52.0248V52.7443H18.5647V52.0248Z" fill="#0D3F41"/>
  <path d="M58.5727 52.7443C58.5727 52.1679 58.3261 51.5972 57.847 51.0646C57.3678 50.5321 56.6655 50.0482 55.7802 49.6406C54.8948 49.233 53.8438 48.9097 52.687 48.6891C51.5303 48.4685 50.2905 48.355 49.0384 48.355C47.7864 48.355 46.5466 48.4685 45.3898 48.6891C44.2331 48.9097 43.182 49.233 42.2967 49.6406C41.4113 50.0482 40.709 50.5321 40.2299 51.0646C39.7508 51.5972 39.5042 52.1679 39.5042 52.7443L49.0384 52.7443H58.5727Z" fill="#FFF9C8"/>
  <path d="M45.4048 52.0608C45.4048 50.0141 47.0639 48.355 49.1106 48.355C51.1572 48.355 52.8163 50.0141 52.8163 52.0608V52.7443H45.4048V52.0608Z" fill="#0D3F41"/>
  <path d="M43.8936 58.6808C43.8936 59.3763 40.4396 61.775 35.4746 61.775C31.1826 61.775 26.6599 59.3763 26.6599 58.6808C26.6599 58.6808 31.1826 57.9253 35.4746 57.9253C39.7666 57.9253 44.3973 58.6808 43.8936 58.6808Z" fill="#A57421"/>
  <path d="M27.8472 45.8364C27.8472 44.7634 28.717 43.8936 29.79 43.8936C30.863 43.8936 31.7328 44.7634 31.7328 45.8364V47.7792H29.79C28.717 47.7792 27.8472 46.9094 27.8472 45.8364Z" fill="#FFF9C8"/>
  <path d="M43.246 58.393C43.246 59.0885 39.7667 60.9835 35.4747 60.9835C31.1827 60.9835 27.7034 59.0885 27.7034 58.393C27.7034 58.393 31.1827 57.1338 35.4747 57.1338C39.7667 57.1338 43.7497 58.393 43.246 58.393Z" fill="white"/>
  <path d="M43.3899 45.8364C43.3899 44.7634 42.5201 43.8936 41.4471 43.8936C40.3741 43.8936 39.5042 44.7634 39.5042 45.8364V47.7792H41.4471C42.5201 47.7792 43.3899 46.9094 43.3899 45.8364Z" fill="#FFF9C8"/>
  <path d="M17.4136 56.3423L21.9334 57.7454C24.8773 58.6594 28.029 58.6594 30.9729 57.7454V57.7454C33.9168 56.8315 37.0686 56.8315 40.0125 57.7454V57.7454C42.9564 58.6594 46.1082 58.6594 49.0521 57.7454L53.5719 56.3423" stroke="#A57421" stroke-width="1.10712" stroke-linecap="round"/>
  <path d="M36.9858 53.5719C36.9858 54.4064 36.3093 55.083 35.4747 55.083C34.6402 55.083 33.9636 54.4064 33.9636 53.5719C33.9636 52.7373 34.6402 52.7444 35.4747 52.7444C36.3093 52.7444 36.9858 52.7373 36.9858 53.5719Z" fill="#FECACA"/>
  <ellipse cx="7.62359" cy="65.8066" rx="5.79252" ry="7.33959" transform="rotate(-16.3414 7.62359 65.8066)" fill="#E37815"/>
  <ellipse cx="5.79252" cy="7.33959" rx="5.79252" ry="7.33959" transform="matrix(-0.959602 -0.281361 -0.281361 0.959602 70.7258 60.3933)" fill="#E37815"/>
  <circle cx="21.731" cy="50.5856" r="9.24934" transform="rotate(33.2901 21.731 50.5856)" fill="#AFD7D7" fill-opacity="0.5"/>
  <circle cx="13.4337" cy="50.4337" r="9.32661" stroke="#FCE699" stroke-width="2.21425"/>
  <circle cx="16.4062" cy="60.6596" r="0.647611" fill="#FCE699"/>
  <circle cx="15.3268" cy="62.3866" r="0.647611" fill="#FCE699"/>
  <circle cx="14.0314" cy="64.0417" r="0.647611" fill="#FCE699"/>
  <circle cx="12.4484" cy="65.4806" r="0.647611" fill="#FCE699"/>
  <circle cx="10.5775" cy="66.4882" r="0.647611" fill="#FCE699"/>
  <circle cx="8.56289" cy="67.1357" r="0.647611" fill="#FCE699"/>
  <circle cx="6.4042" cy="67.7834" r="0.647611" fill="#FCE699"/>
  <circle cx="4.24527" cy="67.2797" r="0.647611" fill="#FCE699"/>
  <circle cx="2.59024" cy="66.2721" r="0.647611" fill="#FCE699"/>
</svg>