<svg xmlns="http://www.w3.org/2000/svg" width="127" height="120" viewBox="0 0 127 120" fill="none">
  <path d="M93.9619 109.042C93.3002 107.837 92.7388 106.701 92.3161 105.786L61.1555 99.6877C57.9376 100.907 52.7861 104.078 53.4327 106.669C53.6162 107.405 53.4241 108.363 52.9952 109.414C51.2421 113.708 52.1544 118.117 56.792 118.181C61.722 118.25 67.0141 117.982 68.9681 117.982C72.5152 117.982 71.9315 115.627 77.2746 117.982C79.5159 118.97 84.7719 118.607 90.0524 118.055C93.2915 117.717 95.5298 111.896 93.9619 109.042Z" fill="#5B619B"/>
  <path d="M126.529 68.0198C126.529 78.9363 103.391 82.0664 74.849 82.0664C46.3069 82.0664 23.1689 78.9363 23.1689 68.0198C23.1689 53.7209 57.1134 48.2537 74.849 48.2537C95.4581 48.2537 126.529 53.1742 126.529 68.0198Z" fill="#C9345A"/>
  <path d="M71.3713 13.4836C73.7966 8.36622 81.1604 8.61184 83.2393 13.8795L103.28 64.6606C104.957 68.9076 101.826 73.5081 97.2606 73.5081H53.1525C48.4009 73.5081 45.2694 68.5585 47.3043 64.2647L71.3713 13.4836Z" fill="#C9345A"/>
  <mask id="mask0_1993_6" style="mask-type:alpha" maskUnits="userSpaceOnUse" x="23" y="48" width="104" height="34">
    <path d="M126.528 67.9351C126.528 78.8516 103.39 81.9817 74.8475 81.9817C46.3054 81.9817 23.1675 78.8516 23.1675 67.9351C23.1675 53.6362 57.112 48.1689 74.8475 48.1689C95.4566 48.1689 126.528 53.0895 126.528 67.9351Z" fill="#C9345A"/>
  </mask>
  <g mask="url(#mask0_1993_6)">
    <ellipse cx="5.77416" cy="5.44099" rx="5.77416" ry="5.44099" transform="matrix(0.979572 -0.201092 0.227839 0.973699 30.6216 50.6907)" fill="#FFDDDD"/>
    <ellipse cx="8.11067" cy="7.52182" rx="8.11067" ry="7.52182" transform="matrix(0.979572 -0.201092 0.227839 0.973699 101.988 49.8323)" fill="#FFDDDD"/>
  </g>
  <path d="M116.561 71.2491C116.561 77.6002 97.8854 80.0478 74.8484 80.0478C51.8114 80.0478 33.1362 77.6002 33.1362 71.2491C33.1362 64.898 51.8114 61.7957 74.8484 61.7957C97.8854 61.7957 116.561 64.898 116.561 71.2491Z" fill="#E28EAE"/>
  <path d="M45.1678 31.4122C37.6746 31.7734 35.2517 21.4846 42.2437 18.9949L73.6454 7.81317C77.1358 6.57029 81.0676 8.48328 82.2535 12.0014L85.4604 21.5148C86.8025 25.4962 84.0095 29.5398 79.7764 29.7438L45.1678 31.4122Z" fill="#C9345A"/>
  <path d="M60.3918 30.4637C61.2 28.193 64.2532 21.9267 59.8081 22.5999" stroke="#B1294C" stroke-width="1.84906" stroke-linecap="round" stroke-linejoin="round"/>
  <path d="M59.8112 48.1876C67.6174 47.15 81.885 46.8251 92.3646 48.8228" stroke="#F1698B" stroke-width="1.84906" stroke-linecap="round" stroke-linejoin="round"/>
  <path d="M49.749 16.5857C58.9535 12.8007 79.7386 1.96157 82.3746 10.79" stroke="#F1698B" stroke-width="1.84906" stroke-linecap="round" stroke-linejoin="round"/>
  <ellipse cx="3.76099" cy="3.54398" rx="3.76099" ry="3.54398" transform="matrix(0.979572 -0.201092 0.227839 0.973699 74.085 30.0825)" fill="#FFDDDD"/>
  <ellipse cx="2.10361" cy="1.98223" rx="2.10361" ry="1.98223" transform="matrix(0.979572 -0.201092 0.227839 0.973699 65.1055 15.6172)" fill="#FFDDDD"/>
  <ellipse cx="1.99866" cy="2.88532" rx="1.99866" ry="2.88532" transform="matrix(0.524391 -0.851478 0.879795 0.475353 46.9673 28.6106)" fill="#FFDDDD"/>
  <path d="M53.0732 86.8913C53.0732 74.8893 62.8028 65.1597 74.8049 65.1597C86.8069 65.1597 96.5365 74.8893 96.5365 86.8913V94.4304H53.0732V86.8913Z" fill="#FFD9E7"/>
  <path d="M86.7954 99.1596C88.2053 100.06 93.7061 104.02 101.07 101.412" stroke="#FFD9E7" stroke-width="1.84906"/>
  <path d="M62 100.516C59.7961 100.683 54.9539 102.024 53.2159 106.052" stroke="#E28EAE" stroke-width="1.84906"/>
  <path d="M60.9716 98.1811C61.9847 92.6005 66.8446 88.5435 72.5164 88.5435H76.4642C82.136 88.5435 86.9958 92.6005 88.009 98.1811C89.3164 105.383 83.7835 112.01 76.4642 112.01H72.5164C65.1971 112.01 59.6642 105.383 60.9716 98.1811Z" fill="#FFD9E7"/>
  <path d="M93.2604 107.678C94.0921 109.519 69.5738 103.747 58.6122 100.123C58.1307 99.9643 58.243 99.2933 58.7499 99.2774L89.6677 98.3108C89.8794 98.3042 90.0678 98.4406 90.1273 98.6437C90.8461 101.099 92.3186 105.593 93.2604 107.678Z" fill="#9096D1"/>
  <path d="M47.8647 86.819C47.8647 79.9671 53.4193 74.4126 60.2712 74.4126H89.4283C96.2801 74.4126 101.835 79.9671 101.835 86.819C101.835 93.6709 96.2801 99.2254 89.4283 99.2254H74.3406H60.2711C53.4193 99.2254 47.8647 93.6709 47.8647 86.819Z" fill="#FFD9E7"/>
  <ellipse cx="4.44993" cy="6.75889" rx="4.44993" ry="6.75889" transform="matrix(0.971342 0.237687 -0.268665 0.963234 50.8354 77.0601)" fill="#F1698B"/>
  <ellipse cx="4.44993" cy="6.75889" rx="4.44993" ry="6.75889" transform="matrix(-0.971342 0.237687 0.268665 0.963234 98.8057 77.0601)" fill="#F1698B"/>
  <path d="M59.9883 80.4688V80.4688C64.2514 84.123 70.5422 84.123 74.8053 80.4688V80.4688V80.4688C79.0684 84.123 85.3592 84.123 89.6223 80.4688V80.4688" stroke="#E28EAE" stroke-width="0.924528" stroke-linecap="round" stroke-linejoin="round"/>
  <path d="M72.5019 69.5963C72.6644 70.6269 71.187 70.9669 70.8301 69.9811C70.6522 69.4897 70.9482 68.9657 71.4596 68.8667C71.9474 68.7723 72.4246 69.1063 72.5019 69.5963Z" fill="#E28EAE"/>
  <path d="M77.0616 69.5963C76.8991 70.6269 78.3765 70.9669 78.7334 69.9811C78.9113 69.4897 78.6153 68.9657 78.1039 68.8667C77.6161 68.7723 77.1389 69.1063 77.0616 69.5963Z" fill="#E28EAE"/>
  <path d="M72.5601 76.8093C72.5601 78.7604 70.5499 80.342 68.0701 80.342C65.5903 80.342 63.5801 78.7604 63.5801 76.8093C63.5801 74.8583 65.5903 73.7393 68.0701 73.7393C70.5499 73.7393 72.5601 74.8583 72.5601 76.8093Z" fill="white"/>
  <path d="M71.0327 76.9351C71.0327 78.0038 69.907 78.8702 68.5183 78.8702C67.1296 78.8702 66.0039 78.0038 66.0039 76.9351C66.0039 75.8664 67.1296 75.2534 68.5183 75.2534C69.907 75.2534 71.0327 75.8664 71.0327 76.9351Z" fill="#C9345A"/>
  <path d="M77.1401 76.8093C77.1401 78.7604 79.1503 80.342 81.6301 80.342C84.1099 80.342 86.1201 78.7604 86.1201 76.8093C86.1201 74.8583 84.1099 73.7393 81.6301 73.7393C79.1503 73.7393 77.1401 74.8583 77.1401 76.8093Z" fill="white"/>
  <ellipse cx="3.96913" cy="3.77155" rx="3.96913" ry="3.77155" transform="matrix(0.949979 0.312313 -0.350905 0.936411 49.8833 102.504)" fill="#E28EAE"/>
  <path d="M78.5771 76.9351C78.5771 78.0038 79.7029 78.8702 81.0916 78.8702C82.4802 78.8702 83.606 78.0038 83.606 76.9351C83.606 75.8664 82.4802 75.2534 81.0916 75.2534C79.7029 75.2534 78.5771 75.8664 78.5771 76.9351Z" fill="#C9345A"/>
  <ellipse cx="101.027" cy="102.169" rx="4.75941" ry="4.4579" fill="#FFD9E7"/>
  <path fill-rule="evenodd" clip-rule="evenodd" d="M104.614 82.1085C104.16 81.9995 103.693 82.276 103.57 82.7259C103.446 83.1759 103.714 83.629 104.168 83.738L104.217 83.7498L102.439 90.2418C98.8207 90.3489 95.5619 92.669 94.6173 96.1189C93.4714 100.304 96.4767 103.425 100.944 104.499C105.412 105.572 109.651 104.19 110.796 100.005C111.741 96.5565 110.078 93.0547 106.962 91.3291L108.74 84.8364L108.875 84.8688C109.329 84.9777 109.796 84.7013 109.919 84.2513C110.043 83.8013 109.775 83.3482 109.321 83.2393L104.614 82.1085Z" fill="#B7D6D6" fill-opacity="0.5"/>
  <g style="mix-blend-mode:multiply">
    <path d="M109.445 99.1914C108.54 102.495 105.194 103.586 101.667 102.739C98.1398 101.891 95.7673 99.4268 96.6719 96.1231C97.5765 92.8194 100.31 97.0384 104.799 95.1877C106.955 94.5572 110.349 95.8877 109.445 99.1914Z" fill="#A977AB" fill-opacity="0.8"/>
  </g>
  <ellipse cx="105.652" cy="95.3982" rx="1.7511" ry="1.64017" fill="#CDABD9"/>
  <ellipse cx="99.9946" cy="98.426" rx="1.0327" ry="0.967279" fill="#CDABD9"/>
  <path d="M98.1519 94.0014C99.1696 92.8238 101.564 91.529 105.111 92.8747" stroke="#FFF2F7" stroke-width="1.84906" stroke-linecap="round"/>
  <path d="M68.5185 108.477C64.896 111.495 64.4775 112.983 64.4775 116.215" stroke="#FFD9E7" stroke-width="1.84906"/>
  <path d="M80.3716 108.477C83.9941 111.495 84.4126 112.983 84.4126 116.215" stroke="#FFD9E7" stroke-width="1.84906"/>
  <path d="M54.0591 117.771C54.0591 116.54 55.057 115.542 56.288 115.542H65.8229V118.931C65.8229 119.521 65.3441 120 64.7535 120H56.288C55.057 120 54.0591 119.002 54.0591 117.771Z" fill="#E28EAE"/>
  <path d="M94.8311 117.771C94.8311 116.54 93.8331 115.542 92.6021 115.542H83.0672V118.931C83.0672 119.521 83.546 120 84.1367 120H92.6021C93.8331 120 94.8311 119.002 94.8311 117.771Z" fill="#E28EAE"/>
</svg>