<svg xmlns="http://www.w3.org/2000/svg" width="108" height="103" viewBox="0 0 108 103" fill="none">
  <path d="M82.9021 78.4709C83.9466 79.5153 83.9466 81.2091 82.9021 82.2546L81.658 83.4987C80.6135 84.5432 78.9198 84.5432 77.8742 83.4987L76.6604 82.2849L81.6872 77.2581L82.9011 78.4719L82.9021 78.4709Z" fill="#AAD37E"/>
  <path d="M72.0098 67.579L66.9827 72.6062L76.6615 82.285L81.6886 77.2578L72.0098 67.579Z" fill="#F6E972"/>
  <path d="M24.7672 78.4709C23.7228 79.5153 23.7228 81.2091 24.7672 82.2546L26.0114 83.4987C27.0559 84.5432 28.7496 84.5432 29.7951 83.4987L31.009 82.2849L25.9821 77.2581L24.7683 78.4719L24.7672 78.4709Z" fill="#AAD37E"/>
  <path d="M35.6593 67.5793L25.9805 77.2581L31.0076 82.2852L40.6864 72.6064L35.6593 67.5793Z" fill="#F6E972"/>
  <path d="M71.0187 62.8521H36.6506L34.1863 77.0711H73.483L71.0187 62.8521Z" fill="#F6E972"/>
  <path d="M73.4832 77.0713H34.1864L32.6004 86.2216C31.8957 90.2887 35.027 94.0086 39.1547 94.0086H68.5149C72.6426 94.0086 75.7739 90.2887 75.0692 86.2216L73.4832 77.0713Z" fill="#79C0A9"/>
  <path d="M45.4279 65.1555H39.3577V79.3745H45.4279V65.1555Z" fill="#79C0A9"/>
  <path d="M68.312 65.1555H62.2417V79.3745H68.312V65.1555Z" fill="#79C0A9"/>
  <path d="M102.679 15.0282C104.357 15.5708 105.367 17.1527 105.02 18.6248L106.069 18.9635C106.576 16.9875 105.227 14.8453 102.973 14.1165C102.811 14.0643 102.648 14.0214 102.486 13.9858L102.189 14.9038C102.352 14.9341 102.515 14.9749 102.678 15.0272H102.679V15.0282Z" fill="#FBAA1E"/>
  <path d="M104.137 10.6862C105.815 11.2288 106.825 12.8107 106.477 14.2828L107.526 14.6215C108.033 12.6455 106.685 10.5032 104.43 9.77449C104.268 9.72221 104.105 9.67935 103.943 9.6438L103.646 10.5618C103.809 10.5921 103.972 10.6329 104.136 10.6851H104.137V10.6862Z" fill="#FBAA1E"/>
  <path d="M72.7388 69.0323H34.3683C24.4663 69.0323 16.9919 60.0503 18.7891 50.3134L20.4191 41.4882C22.8238 28.4642 34.1812 19.0117 47.4258 19.0117H59.6813C72.9259 19.0117 84.2833 28.4642 86.688 41.4882L88.318 50.3134C90.1163 60.0503 82.6408 69.0323 72.7388 69.0323Z" fill="#AAD37E"/>
  <path d="M9.46918 27.8283C7.79113 28.3709 6.78116 29.9528 7.12827 31.4248L6.07962 31.7636C5.57254 29.7876 6.92126 27.6453 9.17539 26.9166C9.33745 26.8643 9.50055 26.8214 9.6626 26.7859L9.95953 27.7039C9.79643 27.7342 9.63333 27.7749 9.47023 27.8272H9.46918V27.8283Z" fill="#FBAA1E"/>
  <path d="M99.3345 25.4887L107.018 2.478C107.093 2.25321 107.126 2.01483 107.097 1.77959C106.907 0.237457 105.022 -0.5885 103.749 0.490471L65.8843 32.5721L81.4928 35.7766C89.1857 37.3564 96.8472 32.9391 99.3345 25.4898V25.4887Z" fill="#AAD37E"/>
  <path d="M7.77348 25.4886L0.0899877 2.47785C0.0147106 2.25306 -0.0187459 2.01364 0.0105285 1.7784C0.200812 0.236261 2.08588 -0.588651 3.35931 0.489276L41.2237 32.5709L25.6152 35.7754C17.9223 37.3552 10.2608 32.9379 7.77348 25.4886Z" fill="#AAD37E"/>
  <path d="M41.0365 42.3193C36.3903 40.7238 31.2547 42.5399 27.6038 46.5411L35.328 49.1925C35.4775 46.5547 37.6627 44.4616 40.3381 44.4616C43.0136 44.4616 45.3566 46.7084 45.3566 49.48C45.3566 50.5391 45.0273 51.5209 44.4679 52.3301L49.0441 53.9015C48.6207 48.5014 45.6839 43.9147 41.0376 42.3193H41.0365Z" fill="white"/>
  <path d="M40.338 44.4614C37.6625 44.4614 35.4774 46.5545 35.3279 49.1924L44.4667 52.33C45.0271 51.5207 45.3554 50.538 45.3554 49.4799C45.3554 46.7082 43.1086 44.4614 40.3369 44.4614H40.338Z" fill="#014042"/>
  <path d="M66.7699 44.4616C69.4454 44.4616 71.6305 46.5547 71.78 49.1925L79.5043 46.5411C75.8533 42.5399 70.7188 40.7238 66.0715 42.3193C61.4242 43.9147 58.4884 48.5014 58.0649 53.9015L62.6412 52.3301C62.0808 51.5209 61.7525 50.5381 61.7525 49.48C61.7525 46.7084 63.9993 44.4616 66.7709 44.4616H66.7699Z" fill="white"/>
  <path d="M66.7699 44.4614C63.9983 44.4614 61.7515 46.7082 61.7515 49.4799C61.7515 50.539 62.0808 51.5207 62.6402 52.33L71.779 49.1924C71.6305 46.5545 69.4444 44.4614 66.7689 44.4614H66.7699Z" fill="#014042"/>
  <path d="M71.3177 57.7584C71.1546 57.5953 70.889 57.5953 70.7259 57.7584C67.834 60.6503 63.813 61.7418 60.068 61.034C57.8797 60.62 55.7855 59.5922 54.0667 57.9487C54.0008 57.8859 53.935 57.8222 53.8701 57.7573L53.7478 57.635H53.3599L53.2376 57.7573C53.1728 57.8222 53.108 57.8859 53.0421 57.9487C51.3599 59.5577 49.2877 60.6189 47.044 61.0423C46.3153 61.1804 45.5677 61.2514 44.8097 61.2514C41.6282 61.2514 38.6349 60.0104 36.3818 57.7573C36.2187 57.5942 35.9532 57.5942 35.79 57.7573C35.6269 57.9204 35.6269 58.185 35.79 58.3491C38.9255 61.4846 43.301 62.643 47.3534 61.8244C49.6107 61.3685 51.7676 60.299 53.5544 58.6157C55.3401 60.299 57.4981 61.3675 59.7553 61.8233C60.5939 61.9927 61.4459 62.0785 62.2991 62.0785C65.5653 62.0785 68.8315 60.8353 71.3188 58.3481C71.4818 58.185 71.4818 57.9204 71.3188 57.7563V57.7584H71.3177Z" fill="#8EB75C"/>
  <path d="M53.5536 58.6167C52.9482 59.1876 52.3 59.6852 51.6194 60.1149V64.9546H55.4878V60.1149C54.8082 59.6852 54.1589 59.1876 53.5536 58.6167Z" fill="white"/>
  <path d="M47.3536 61.8255L47.983 63.4147C48.3521 64.3442 49.2501 64.9548 50.2507 64.9548H51.0965V60.4287C49.9161 61.0968 48.6511 61.5631 47.3525 61.8255H47.3536Z" fill="white"/>
  <path d="M56.0112 60.4287V64.9548H56.8571C57.8576 64.9548 58.7557 64.3442 59.1248 63.4147L59.7552 61.8255C58.4567 61.5631 57.1916 61.0968 56.0112 60.4287Z" fill="white"/>
  <path d="M51.0977 60.4286V64.9547H51.6204V60.115C51.4479 60.2237 51.2743 60.3283 51.0977 60.4286Z" fill="#E4EEC4"/>
  <path d="M55.4888 60.115V64.9547H56.0115V60.4286C55.8348 60.3293 55.6613 60.2237 55.4888 60.115Z" fill="#E4EEC4"/>
  <path d="M56.2705 56.2769H50.837C49.4308 56.2769 48.3257 55.0725 48.448 53.6715L49.0136 47.1485C49.161 45.4516 50.5819 44.1489 52.285 44.1489H54.8235C56.5267 44.1489 57.9475 45.4516 58.0949 47.1485L58.6606 53.6715C58.7819 55.0725 57.6778 56.2769 56.2716 56.2769H56.2705Z" fill="#79C0A9"/>
  <path d="M51.8817 52.6699C51.8817 52.4963 51.7416 52.3562 51.568 52.3562C51.3945 52.3562 51.2544 52.4963 51.2544 52.6699V54.7609C51.2544 54.9344 51.3945 55.0745 51.568 55.0745C51.7416 55.0745 51.8817 54.9344 51.8817 54.7609V52.6699Z" fill="#50A889"/>
  <path d="M55.8548 52.6699C55.8548 52.4963 55.7147 52.3562 55.5412 52.3562C55.3676 52.3562 55.2275 52.4963 55.2275 52.6699V54.7609C55.2275 54.9344 55.3676 55.0745 55.5412 55.0745C55.7147 55.0745 55.8548 54.9344 55.8548 54.7609V52.6699Z" fill="#50A889"/>
  <path d="M106.478 14.2838C106.462 14.3518 106.445 14.4187 106.423 14.4856C105.929 16.0131 104.1 16.7941 102.345 16.2264C100.604 15.6639 99.5819 13.9817 100.048 12.4626C100.106 12.3821 100.144 12.2859 100.154 12.1792C100.182 11.8624 99.9489 11.5833 99.6332 11.555C99.3174 11.5268 99.0372 11.76 99.009 12.0757C99.009 12.0862 99.009 12.0956 99.0079 12.106C98.3649 14.1312 99.7262 16.3843 102.051 17.136C104.383 17.8898 106.814 16.8516 107.469 14.8223C107.491 14.7554 107.51 14.6885 107.527 14.6215L106.478 14.2828V14.2838Z" fill="#FBAA1E"/>
  <path d="M105.02 18.6247C105.004 18.6926 104.987 18.7595 104.965 18.8265C104.471 20.3539 102.642 21.1349 100.887 20.5672C99.1464 20.0047 98.1238 18.3225 98.5901 16.8034C98.6476 16.7229 98.6863 16.6267 98.6957 16.52C98.724 16.2033 98.4908 15.9241 98.1751 15.8959C97.8593 15.8676 97.5791 16.1008 97.5509 16.4165C97.5509 16.427 97.5509 16.4364 97.5509 16.4469C96.9079 18.472 98.2692 20.7251 100.594 21.4768C102.926 22.2306 105.357 21.1925 106.012 19.1631C106.034 19.0962 106.053 19.0293 106.07 18.9624L105.021 18.6236L105.02 18.6247Z" fill="#FBAA1E"/>
  <path d="M7.12824 31.4252C7.14392 31.4932 7.1617 31.5601 7.18365 31.627C7.67714 33.1545 9.50679 33.9355 11.2612 33.3678C13.0019 32.8053 14.0245 31.123 13.5582 29.6039C13.5007 29.5234 13.462 29.4272 13.4526 29.3206C13.4243 29.0038 13.6575 28.7246 13.9732 28.6964C14.29 28.6682 14.5692 28.9013 14.5974 29.2171C14.5974 29.2275 14.5974 29.2369 14.5984 29.2474C15.2414 31.2726 13.8802 33.5256 11.555 34.2774C9.22345 35.0312 6.79263 33.993 6.13709 31.9636C6.11514 31.8967 6.09632 31.8298 6.07959 31.7629L7.12824 31.4242V31.4252Z" fill="#FBAA1E"/>
  <path d="M25.6391 55.4927C26.0144 55.4927 26.3186 55.1885 26.3186 54.8131C26.3186 54.4378 26.0144 54.1335 25.6391 54.1335C25.2637 54.1335 24.9595 54.4378 24.9595 54.8131C24.9595 55.1885 25.2637 55.4927 25.6391 55.4927Z" fill="#E4EEC4"/>
  <path d="M29.5075 55.5972C29.8828 55.5972 30.1871 55.293 30.1871 54.9176C30.1871 54.5423 29.8828 54.238 29.5075 54.238C29.1321 54.238 28.8279 54.5423 28.8279 54.9176C28.8279 55.293 29.1321 55.5972 29.5075 55.5972Z" fill="#E4EEC4"/>
  <path d="M27.1032 59.1521C27.4785 59.1521 27.7828 58.8479 27.7828 58.4726C27.7828 58.0972 27.4785 57.793 27.1032 57.793C26.7278 57.793 26.4236 58.0972 26.4236 58.4726C26.4236 58.8479 26.7278 59.1521 27.1032 59.1521Z" fill="#E4EEC4"/>
  <path d="M81.4699 55.4927C81.8452 55.4927 82.1495 55.1885 82.1495 54.8131C82.1495 54.4378 81.8452 54.1335 81.4699 54.1335C81.0945 54.1335 80.7903 54.4378 80.7903 54.8131C80.7903 55.1885 81.0945 55.4927 81.4699 55.4927Z" fill="#E4EEC4"/>
  <path d="M77.6015 55.5972C77.9768 55.5972 78.281 55.293 78.281 54.9176C78.281 54.5423 77.9768 54.238 77.6015 54.238C77.2261 54.238 76.9219 54.5423 76.9219 54.9176C76.9219 55.293 77.2261 55.5972 77.6015 55.5972Z" fill="#E4EEC4"/>
  <path d="M80.0058 59.1521C80.3811 59.1521 80.6853 58.8479 80.6853 58.4726C80.6853 58.0972 80.3811 57.793 80.0058 57.793C79.6304 57.793 79.3262 58.0972 79.3262 58.4726C79.3262 58.8479 79.6304 59.1521 80.0058 59.1521Z" fill="#E4EEC4"/>
  <path d="M40.8527 37.4388C41.1945 36.0954 42.56 35.284 43.9024 35.6249C45.2459 35.9668 46.0572 37.3322 45.7164 38.6746L45.0985 41.1065L42.6666 40.4886C41.3231 40.1467 40.5118 38.7813 40.8527 37.4388Z" fill="#E4EEC4"/>
  <path d="M66.4351 37.4388C66.0943 36.0954 64.7278 35.284 63.3854 35.6249C62.0419 35.9668 61.2306 37.3322 61.5714 38.6746L62.1893 41.1065L64.6212 40.4886C65.9647 40.1467 66.776 38.7813 66.4351 37.4388Z" fill="#E4EEC4"/>
  <path d="M65.2769 81.7759C66.751 81.7759 67.9461 80.5809 67.9461 79.1067C67.9461 77.6325 66.751 76.4375 65.2769 76.4375C63.8027 76.4375 62.6077 77.6325 62.6077 79.1067C62.6077 80.5809 63.8027 81.7759 65.2769 81.7759Z" fill="#014042"/>
  <path d="M42.3926 81.7759C43.8667 81.7759 45.0618 80.5809 45.0618 79.1067C45.0618 77.6325 43.8667 76.4375 42.3926 76.4375C40.9184 76.4375 39.7234 77.6325 39.7234 79.1067C39.7234 80.5809 40.9184 81.7759 42.3926 81.7759Z" fill="#014042"/>
  <path d="M41.7131 78.7931C41.8863 78.7931 42.0267 78.6527 42.0267 78.4794C42.0267 78.3062 41.8863 78.1658 41.7131 78.1658C41.5398 78.1658 41.3994 78.3062 41.3994 78.4794C41.3994 78.6527 41.5398 78.7931 41.7131 78.7931Z" fill="#79C0A9"/>
  <path d="M43.072 78.7931C43.2452 78.7931 43.3856 78.6527 43.3856 78.4794C43.3856 78.3062 43.2452 78.1658 43.072 78.1658C42.8987 78.1658 42.7583 78.3062 42.7583 78.4794C42.7583 78.6527 42.8987 78.7931 43.072 78.7931Z" fill="#79C0A9"/>
  <path d="M41.7131 80.0477C41.8863 80.0477 42.0267 79.9073 42.0267 79.7341C42.0267 79.5608 41.8863 79.4204 41.7131 79.4204C41.5398 79.4204 41.3994 79.5608 41.3994 79.7341C41.3994 79.9073 41.5398 80.0477 41.7131 80.0477Z" fill="#79C0A9"/>
  <path d="M43.072 80.0477C43.2452 80.0477 43.3856 79.9073 43.3856 79.7341C43.3856 79.5608 43.2452 79.4204 43.072 79.4204C42.8987 79.4204 42.7583 79.5608 42.7583 79.7341C42.7583 79.9073 42.8987 80.0477 43.072 80.0477Z" fill="#79C0A9"/>
  <path d="M64.5973 78.7931C64.7706 78.7931 64.911 78.6527 64.911 78.4794C64.911 78.3062 64.7706 78.1658 64.5973 78.1658C64.4241 78.1658 64.2837 78.3062 64.2837 78.4794C64.2837 78.6527 64.4241 78.7931 64.5973 78.7931Z" fill="#79C0A9"/>
  <path d="M65.9565 78.7931C66.1297 78.7931 66.2701 78.6527 66.2701 78.4794C66.2701 78.3062 66.1297 78.1658 65.9565 78.1658C65.7833 78.1658 65.6428 78.3062 65.6428 78.4794C65.6428 78.6527 65.7833 78.7931 65.9565 78.7931Z" fill="#79C0A9"/>
  <path d="M64.5973 80.0477C64.7706 80.0477 64.911 79.9073 64.911 79.7341C64.911 79.5608 64.7706 79.4204 64.5973 79.4204C64.4241 79.4204 64.2837 79.5608 64.2837 79.7341C64.2837 79.9073 64.4241 80.0477 64.5973 80.0477Z" fill="#79C0A9"/>
  <path d="M65.9565 80.0477C66.1297 80.0477 66.2701 79.9073 66.2701 79.7341C66.2701 79.5608 66.1297 79.4204 65.9565 79.4204C65.7833 79.4204 65.6428 79.5608 65.6428 79.7341C65.6428 79.9073 65.7833 80.0477 65.9565 80.0477Z" fill="#79C0A9"/>
  <path d="M40.5566 100.325C40.5566 101.802 41.7548 103 43.2321 103H44.9907C46.468 103 47.6661 101.802 47.6661 100.325V98.6089H40.5566V100.325Z" fill="#AAD37E"/>
  <path d="M47.6661 89.0945H40.5566V98.6087H47.6661V89.0945Z" fill="#79C0A9"/>
  <path d="M67.1127 89.0945H60.0032V98.6087H67.1127V89.0945Z" fill="#79C0A9"/>
  <path d="M60.0032 98.6089V100.325C60.0032 101.802 61.2013 103 62.6787 103H64.4372C65.9145 103 67.1127 101.802 67.1127 100.325V98.6089H60.0032Z" fill="#AAD37E"/>
  <path d="M44.791 83.5535H62.8784V88.8448C62.8784 89.9635 61.9699 90.8721 60.8512 90.8721H46.8183C45.6996 90.8721 44.791 89.9635 44.791 88.8448V83.5535Z" fill="#50A889"/>
</svg>