<svg width="484" height="345" viewBox="0 0 484 345" fill="none" xmlns="http://www.w3.org/2000/svg">
<path d="M77.2485 54.2248C77.2485 51.4572 77.7936 48.7167 78.8527 46.1597C79.9118 43.6028 81.4642 41.2795 83.4212 39.3225C85.3782 37.3655 87.7015 35.8132 90.2584 34.754C92.8153 33.6949 95.5559 33.1498 98.3235 33.1498C101.091 33.1498 103.832 33.6949 106.389 34.754C108.945 35.8132 111.269 37.3655 113.226 39.3225C115.183 41.2795 116.735 43.6028 117.794 46.1598C118.853 48.7167 119.398 51.4572 119.398 54.2248L98.3235 54.2248H77.2485Z" fill="#A82748"/>
<path d="M249.488 79.9368C253.725 72.2485 263.631 69.8267 270.938 74.6922L350.022 127.351L288.387 171.263C262.569 189.657 231.588 199.399 199.889 199.091L183.897 198.935L249.488 79.9368Z" fill="#A82748"/>
<path d="M122.65 30.6985C122.183 28.7512 123.062 26.7301 124.805 25.7434L145.94 13.7741C151.949 10.3712 158.795 8.73016 165.694 9.03907L189.959 10.1256C191.959 10.2152 193.659 11.6182 194.125 13.5655C194.592 15.5128 193.713 17.5339 191.971 18.5207L170.836 30.49C164.827 33.8929 157.981 35.5339 151.082 35.225L126.817 34.1385C124.816 34.0489 123.117 32.6458 122.65 30.6985Z" fill="#A82748"/>
<path d="M82.7423 94.5752C74.458 94.5752 66.6359 87.9764 63.91 80.1535C62.3301 75.6196 61.2382 71.1736 63.0173 66.8785C66.6545 58.0976 82.2198 50.119 88.9404 43.3983C95.6611 36.6777 103.64 31.3466 112.421 27.7094C121.202 24.0722 130.613 22.2002 140.117 22.2002C149.622 22.2002 159.033 24.0722 167.814 27.7094C176.595 31.3466 184.573 36.6777 191.294 43.3983C198.015 50.119 203.346 58.0975 206.983 66.8785C210.62 75.6594 212.492 85.0708 212.492 94.5752L140.117 94.5752L82.7423 94.5752Z" fill="#C9345A"/>
<path d="M163.947 54.2254C163.947 56.993 163.402 59.7335 162.343 62.2904C161.283 64.8474 159.731 67.1707 157.774 69.1277C155.817 71.0847 153.494 72.637 150.937 73.6962C148.38 74.7553 145.639 75.3004 142.872 75.3004C140.104 75.3004 137.364 74.7553 134.807 73.6962C132.25 72.637 129.927 71.0847 127.97 69.1277C126.013 67.1707 124.46 64.8474 123.401 62.2904C122.342 59.7335 121.797 56.993 121.797 54.2254L142.872 54.2254H163.947Z" fill="#FFB23E"/>
<path d="M121.803 54.2248C121.803 51.4572 122.348 48.7167 123.407 46.1597C124.467 43.6028 126.019 41.2795 127.976 39.3225C129.933 37.3655 132.256 35.8132 134.813 34.754C137.37 33.6949 140.111 33.1498 142.878 33.1498C145.646 33.1498 148.386 33.6949 150.943 34.754C153.5 35.8132 155.823 37.3655 157.78 39.3225C159.737 41.2795 161.29 43.6028 162.349 46.1598C163.408 48.7167 163.953 51.4572 163.953 54.2248L142.878 54.2248H121.803Z" fill="#A82748"/>
<path d="M155.252 54.1502C155.252 55.7852 154.93 57.4041 154.304 58.9146C153.678 60.4251 152.761 61.7976 151.605 62.9537C150.449 64.1098 149.076 65.0268 147.566 65.6525C146.055 66.2782 144.437 66.6002 142.802 66.6002C141.167 66.6002 139.548 66.2782 138.037 65.6525C136.527 65.0268 135.154 64.1098 133.998 62.9537C132.842 61.7976 131.925 60.4251 131.299 58.9146C130.674 57.4041 130.352 55.7852 130.352 54.1502L142.802 54.1502H155.252Z" fill="#040404"/>
<path d="M106.823 325.213L109.923 219.897C109.936 219.456 110.325 219.121 110.763 219.175L169.937 226.389C170.407 226.447 170.707 226.92 170.558 227.37L139.419 321.158C139.329 321.429 139.093 321.625 138.81 321.664L107.676 325.978C107.216 326.042 106.809 325.677 106.823 325.213Z" fill="#A82748"/>
<path d="M301.855 70.5684C306.256 63.091 316.065 60.8962 323.233 65.7847L467.399 164.1L411.672 200.045C377.851 221.861 336.682 229.17 297.418 220.33L223.499 203.687L301.855 70.5684Z" fill="#C9345A"/>
<path d="M308.275 105.417C312.036 98.2799 320.768 95.3957 328.04 98.8887L465.673 165L408.273 203.216C376.716 224.226 338.374 232.507 300.959 226.395L248.998 217.906L308.275 105.417Z" fill="#FFB23E"/>
<ellipse cx="79.8" cy="75.5998" rx="2.55" ry="2.55" fill="#A82748"/>
<path d="M142.653 94.5H212.553V166.228C212.553 172.702 216.706 178.445 222.854 180.473L299.536 205.766C328.775 215.41 348.528 242.724 348.528 273.513C348.528 312.911 316.589 344.85 277.191 344.85H207.142C167.292 344.85 130.528 323.401 110.917 288.711C94.638 259.915 92.1114 225.341 104.031 194.484L142.653 94.5Z" fill="#C9345A"/>
<path d="M174.103 44.7991C173.637 42.8518 174.515 40.8307 176.258 39.844L197.393 27.8747C203.402 24.4718 210.248 22.8307 217.147 23.1397L241.412 24.2262C243.412 24.3158 245.112 25.7188 245.579 27.6661C246.045 29.6134 245.167 31.6345 243.424 32.6213L222.289 44.5906C216.28 47.9934 209.434 49.6345 202.535 49.3256L178.27 48.239C176.27 48.1495 174.57 46.7464 174.103 44.7991Z" fill="#C9345A"/>
<path d="M184.138 66.605C184.216 65.2048 185.211 64.0252 186.578 63.7129L203.162 59.9251C207.876 58.8482 212.799 59.1215 217.365 60.7136L233.427 66.3136C234.752 66.7753 235.61 68.0578 235.533 69.458C235.455 70.8582 234.46 72.0378 233.092 72.3501L216.509 76.1379C211.795 77.2148 206.872 76.9415 202.305 75.3494L186.243 69.7494C184.919 69.2878 184.06 68.0052 184.138 66.605Z" fill="#C9345A"/>
<path d="M185.529 47.9987C185.248 47.059 185.727 46.0594 186.635 45.6894L210.231 36.0784C212.073 35.3279 213.986 34.7628 215.941 34.3915L240.222 29.7788C240.532 29.7199 240.853 29.7638 241.136 29.9037C242.15 30.4058 242.224 31.8246 241.267 32.4287L219.62 46.0903C217.25 47.5862 214.525 48.4252 211.724 48.5214L187.419 49.356C186.554 49.3858 185.778 48.8281 185.529 47.9987Z" fill="#A82748" fill-opacity="0.5"/>
<path d="M191.164 71.0454C191.164 70.3584 191.686 69.7839 192.37 69.718L210.13 68.0062C211.517 67.8725 212.913 67.8774 214.299 68.0206L231.517 69.8002C231.737 69.8229 231.943 69.9167 232.105 70.0674C232.684 70.6079 232.449 71.5745 231.685 71.7877L214.42 76.6084C212.529 77.1362 210.532 77.1521 208.634 76.6544L192.159 72.3354C191.573 72.1816 191.164 71.6517 191.164 71.0454Z" fill="#A82748" fill-opacity="0.5"/>
<path d="M142.803 93.8252L154.578 97.1252H169.953C107.25 258.801 158.193 278.743 292.878 278.325C269.403 294.6 214.503 317.025 139.503 321.825C95.9568 291.007 80.2675 233.706 102.041 185.003L142.803 93.8252Z" fill="#FFB23E"/>
<path d="M81.75 93.1498L143.4 94.3498C153.55 98.3998 176.01 101.835 184.65 83.1748" stroke="#A82748" stroke-width="3" stroke-linecap="round"/>
<path d="M63.3707 101.325C68.021 100.874 70.286 98.3768 71.2629 95.7033C71.5623 94.8838 73.4386 94.6027 73.6666 95.445C77.2222 108.577 69.6272 117.652 63.6106 121.704C63.0023 122.113 62.2915 121.442 62.5387 120.752C63.4904 118.094 63.07 116.415 60.9706 116.175C57.7298 115.804 55.7327 123.237 55.7605 128.113C55.7643 128.767 55.0055 129.195 54.5087 128.768C43.3053 119.152 53.6862 102.264 63.3707 101.325Z" fill="#EB892E"/>
<path d="M185.328 48.5254C191.378 48.9504 212.673 48.8854 215.253 48.5254C217.833 48.1654 241.578 31.5754 243.078 31.2754" stroke="#A82748" stroke-width="3" stroke-linecap="round"/>
<ellipse cx="256.275" cy="269.626" rx="49.275" ry="49.275" fill="#C9345A"/>
<path d="M152.729 325.213L155.829 219.897C155.842 219.456 156.231 219.121 156.669 219.175L215.843 226.389C216.314 226.447 216.614 226.92 216.464 227.37L185.325 321.158C185.235 321.429 184.999 321.625 184.716 321.664L153.582 325.978C153.122 326.042 152.716 325.677 152.729 325.213Z" fill="#C9345A"/>
<path d="M190.927 71.3575C194.901 72.8571 209.202 77.0883 211.005 77.3646C212.808 77.641 232.171 71.198 233.179 70.8748" stroke="#A82748" stroke-width="3" stroke-linecap="round"/>
<path d="M0 343.875C0 341.124 2.02924 338.794 4.75456 338.416L346.35 291.075C337.474 322.318 308.94 343.875 276.46 343.875H0Z" fill="#C9345A"/>
<path d="M40.7266 335.176C115.726 325.701 267.721 304.921 275.701 297.601" stroke="#CA6E91" stroke-width="3" stroke-linecap="round" stroke-linejoin="round"/>
<path d="M344.853 197.319C345.125 199.708 341.718 200.449 340.973 198.162L310.819 105.655C308.642 98.9769 312.713 91.8803 319.576 90.3882C326.44 88.8962 333.09 93.6622 333.882 100.641L344.853 197.319Z" fill="#C9345A"/>
<path d="M133.203 118.8C136.728 123 144.078 126.9 155.253 124.725" stroke="#EB892E" stroke-width="3" stroke-linecap="round"/>
<path d="M109.047 172.8C112.572 177.034 119.622 183.975 131.097 183.975" stroke="#EB892E" stroke-width="3" stroke-linecap="round"/>
<path d="M94.5234 244.772C101.478 252 120.453 254.55 135.753 244.772" stroke="#EB892E" stroke-width="3" stroke-linecap="round"/>
<path d="M128.305 146.985C131.271 151.597 138.071 156.393 149.431 155.646" stroke="#EB892E" stroke-width="3" stroke-linecap="round"/>
<path d="M108.227 209.7C111.193 214.311 125.777 219.375 143.454 216.411" stroke="#EB892E" stroke-width="3" stroke-linecap="round"/>
<path d="M116.328 282.525C119.295 287.136 142.203 289.35 152.998 274.46" stroke="#EB892E" stroke-width="3" stroke-linecap="round"/>
<path d="M155.773 261.375C154.198 250.85 156.658 229.29 179.098 227.25" stroke="#CA6E91" stroke-width="3" stroke-linecap="round"/>
<path d="M207.602 273.075C208.177 256.975 219.512 225.195 260.252 226.875" stroke="#CA6E91" stroke-width="3" stroke-linecap="round"/>
<path d="M197.102 282.826C199.927 276.276 205.142 260.761 203.402 251.101" stroke="#A82748" stroke-width="3" stroke-linecap="round"/>
<path d="M288.977 293.1C293.277 290 301.817 281.28 301.577 271.2" stroke="#A82748" stroke-width="3" stroke-linecap="round"/>
<path d="M64.1266 108.975C68.8666 108.195 71.1016 102.2 71.6266 99.2998C72.8265 109.35 67.1266 116.1 66.1516 113.85C65.3716 112.05 60.1266 113.1 57.6016 113.85C57.8016 112.55 59.3866 109.755 64.1266 108.975Z" fill="#F6E972"/>
</svg>
