<svg width="390" height="216" viewBox="0 0 390 216" fill="none" xmlns="http://www.w3.org/2000/svg">
<g opacity="0.95" filter="url(#filter0_f_4110_196)">
<circle cx="345.003" cy="47.1982" r="33.8719" transform="rotate(-17.4462 345.003 47.1982)" fill="#D9D9D9"/>
</g>
<circle cx="345.003" cy="47.198" r="28.5237" transform="rotate(-17.4462 345.003 47.198)" fill="#D9D9D9"/>
<circle cx="354.301" cy="42.0961" r="33.5748" transform="rotate(-17.4462 354.301 42.0961)" fill="#004561"/>
<g opacity="0.8">
<ellipse cx="57.4088" cy="42.221" rx="57.4088" ry="42.221" transform="matrix(-1 0 0 1 411.322 54)" fill="#022838"/>
<ellipse cx="57.4088" cy="42.221" rx="57.4088" ry="42.221" transform="matrix(-1 0 0 1 411.322 54)" fill="#022838"/>
<ellipse cx="57.4088" cy="42.221" rx="57.4088" ry="42.221" transform="matrix(-1 0 0 1 411.322 54)" fill="#022838"/>
<ellipse cx="57.4088" cy="42.221" rx="57.4088" ry="42.221" transform="matrix(-1 0 0 1 411.322 54)" fill="#022838"/>
<ellipse cx="33.4125" cy="31.2861" rx="33.4125" ry="31.2861" transform="matrix(-1 0 0 1 312.912 83.7666)" fill="#022838"/>
<ellipse cx="33.4125" cy="31.2861" rx="33.4125" ry="31.2861" transform="matrix(-1 0 0 1 312.912 83.7666)" fill="#022838"/>
<ellipse cx="33.4125" cy="31.2861" rx="33.4125" ry="31.2861" transform="matrix(-1 0 0 1 312.912 83.7666)" fill="#022838"/>
<ellipse cx="33.4125" cy="31.2861" rx="33.4125" ry="31.2861" transform="matrix(-1 0 0 1 312.912 83.7666)" fill="#022838"/>
<path d="M223.002 139.262C223.002 147.76 278.892 145.979 346.985 145.979C415.079 145.979 476.937 148.538 476.937 140.04C476.937 131.542 416.686 121.433 348.592 121.433C280.499 121.433 223.002 130.764 223.002 139.262Z" fill="#022838"/>
<path d="M223.002 139.262C223.002 147.76 278.892 145.979 346.985 145.979C415.079 145.979 476.937 148.538 476.937 140.04C476.937 131.542 416.686 121.433 348.592 121.433C280.499 121.433 223.002 130.764 223.002 139.262Z" fill="#022838"/>
<path d="M223.002 139.262C223.002 147.76 278.892 145.979 346.985 145.979C415.079 145.979 476.937 148.538 476.937 140.04C476.937 131.542 416.686 121.433 348.592 121.433C280.499 121.433 223.002 130.764 223.002 139.262Z" fill="#022838"/>
<path d="M223.002 139.262C223.002 147.76 278.892 145.979 346.985 145.979C415.079 145.979 476.937 148.538 476.937 140.04C476.937 131.542 416.686 121.433 348.592 121.433C280.499 121.433 223.002 130.764 223.002 139.262Z" fill="#022838"/>
</g>
<g opacity="0.8">
<ellipse cx="38.2725" cy="28.1473" rx="38.2725" ry="28.1473" transform="matrix(-1 0 0 1 239.545 154)" fill="#022838"/>
<ellipse cx="38.2725" cy="28.1473" rx="38.2725" ry="28.1473" transform="matrix(-1 0 0 1 239.545 154)" fill="#022838"/>
<ellipse cx="38.2725" cy="28.1473" rx="38.2725" ry="28.1473" transform="matrix(-1 0 0 1 239.545 154)" fill="#022838"/>
<ellipse cx="38.2725" cy="28.1473" rx="38.2725" ry="28.1473" transform="matrix(-1 0 0 1 239.545 154)" fill="#022838"/>
<ellipse cx="22.275" cy="20.8573" rx="22.275" ry="20.8573" transform="matrix(-1 0 0 1 173.939 173.844)" fill="#022838"/>
<ellipse cx="22.275" cy="20.8573" rx="22.275" ry="20.8573" transform="matrix(-1 0 0 1 173.939 173.844)" fill="#022838"/>
<ellipse cx="22.275" cy="20.8573" rx="22.275" ry="20.8573" transform="matrix(-1 0 0 1 173.939 173.844)" fill="#022838"/>
<ellipse cx="22.275" cy="20.8573" rx="22.275" ry="20.8573" transform="matrix(-1 0 0 1 173.939 173.844)" fill="#022838"/>
<path d="M231.052 202.882C231.052 214.445 241.024 213.516 253.327 213.516C265.629 213.516 275.602 214.445 275.602 202.882C275.602 191.318 265.629 181.944 253.327 181.944C241.024 181.944 231.052 191.318 231.052 202.882Z" fill="#022838"/>
<path d="M231.052 202.882C231.052 214.445 241.024 213.516 253.327 213.516C265.629 213.516 275.602 214.445 275.602 202.882C275.602 191.318 265.629 181.944 253.327 181.944C241.024 181.944 231.052 191.318 231.052 202.882Z" fill="#022838"/>
<path d="M231.052 202.882C231.052 214.445 241.024 213.516 253.327 213.516C265.629 213.516 275.602 214.445 275.602 202.882C275.602 191.318 265.629 181.944 253.327 181.944C241.024 181.944 231.052 191.318 231.052 202.882Z" fill="#022838"/>
<path d="M231.052 202.882C231.052 214.445 241.024 213.516 253.327 213.516C265.629 213.516 275.602 214.445 275.602 202.882C275.602 191.318 265.629 181.944 253.327 181.944C241.024 181.944 231.052 191.318 231.052 202.882Z" fill="#022838"/>
<path d="M113.999 210.841C113.999 216.507 151.259 215.319 196.654 215.319C242.05 215.319 283.289 217.025 283.289 211.359C283.289 205.694 243.121 198.955 197.726 198.955C152.33 198.955 113.999 205.176 113.999 210.841Z" fill="#022838"/>
<path d="M113.999 210.841C113.999 216.507 151.259 215.319 196.654 215.319C242.05 215.319 283.289 217.025 283.289 211.359C283.289 205.694 243.121 198.955 197.726 198.955C152.33 198.955 113.999 205.176 113.999 210.841Z" fill="#022838"/>
<path d="M113.999 210.841C113.999 216.507 151.259 215.319 196.654 215.319C242.05 215.319 283.289 217.025 283.289 211.359C283.289 205.694 243.121 198.955 197.726 198.955C152.33 198.955 113.999 205.176 113.999 210.841Z" fill="#022838"/>
<path d="M113.999 210.841C113.999 216.507 151.259 215.319 196.654 215.319C242.05 215.319 283.289 217.025 283.289 211.359C283.289 205.694 243.121 198.955 197.726 198.955C152.33 198.955 113.999 205.176 113.999 210.841Z" fill="#022838"/>
</g>
<g opacity="0.8">
<ellipse cx="20.5164" cy="15.0887" rx="20.5164" ry="15.0887" transform="matrix(-1 0 0 1 38.3007 32)" fill="#022838"/>
<ellipse cx="20.5164" cy="15.0887" rx="20.5164" ry="15.0887" transform="matrix(-1 0 0 1 38.3007 32)" fill="#022838"/>
<ellipse cx="20.5164" cy="15.0887" rx="20.5164" ry="15.0887" transform="matrix(-1 0 0 1 38.3007 32)" fill="#022838"/>
<ellipse cx="20.5164" cy="15.0887" rx="20.5164" ry="15.0887" transform="matrix(-1 0 0 1 38.3007 32)" fill="#022838"/>
<ellipse cx="11.9408" cy="11.1808" rx="11.9408" ry="11.1808" transform="matrix(-1 0 0 1 3.13159 42.6377)" fill="#022838"/>
<ellipse cx="11.9408" cy="11.1808" rx="11.9408" ry="11.1808" transform="matrix(-1 0 0 1 3.13159 42.6377)" fill="#022838"/>
<ellipse cx="11.9408" cy="11.1808" rx="11.9408" ry="11.1808" transform="matrix(-1 0 0 1 3.13159 42.6377)" fill="#022838"/>
<ellipse cx="11.9408" cy="11.1808" rx="11.9408" ry="11.1808" transform="matrix(-1 0 0 1 3.13159 42.6377)" fill="#022838"/>
<path d="M33.7475 58.2036C33.7475 64.4023 39.0935 63.9045 45.6882 63.9045C52.283 63.9045 57.629 64.4023 57.629 58.2036C57.629 52.005 52.283 46.98 45.6882 46.98C39.0935 46.98 33.7475 52.005 33.7475 58.2036Z" fill="#022838"/>
<path d="M33.7475 58.2036C33.7475 64.4023 39.0935 63.9045 45.6882 63.9045C52.283 63.9045 57.629 64.4023 57.629 58.2036C57.629 52.005 52.283 46.98 45.6882 46.98C39.0935 46.98 33.7475 52.005 33.7475 58.2036Z" fill="#022838"/>
<path d="M33.7475 58.2036C33.7475 64.4023 39.0935 63.9045 45.6882 63.9045C52.283 63.9045 57.629 64.4023 57.629 58.2036C57.629 52.005 52.283 46.98 45.6882 46.98C39.0935 46.98 33.7475 52.005 33.7475 58.2036Z" fill="#022838"/>
<path d="M33.7475 58.2036C33.7475 64.4023 39.0935 63.9045 45.6882 63.9045C52.283 63.9045 57.629 64.4023 57.629 58.2036C57.629 52.005 52.283 46.98 45.6882 46.98C39.0935 46.98 33.7475 52.005 33.7475 58.2036Z" fill="#022838"/>
<path d="M-29 62.4704C-29 65.5073 -9.02654 64.8707 15.3083 64.8707C39.6432 64.8707 61.75 65.7851 61.75 62.7482C61.75 59.7112 40.2175 56.0986 15.8827 56.0986C-8.45216 56.0986 -29 59.4334 -29 62.4704Z" fill="#022838"/>
<path d="M-29 62.4704C-29 65.5073 -9.02654 64.8707 15.3083 64.8707C39.6432 64.8707 61.75 65.7851 61.75 62.7482C61.75 59.7112 40.2175 56.0986 15.8827 56.0986C-8.45216 56.0986 -29 59.4334 -29 62.4704Z" fill="#022838"/>
<path d="M-29 62.4704C-29 65.5073 -9.02654 64.8707 15.3083 64.8707C39.6432 64.8707 61.75 65.7851 61.75 62.7482C61.75 59.7112 40.2175 56.0986 15.8827 56.0986C-8.45216 56.0986 -29 59.4334 -29 62.4704Z" fill="#022838"/>
<path d="M-29 62.4704C-29 65.5073 -9.02654 64.8707 15.3083 64.8707C39.6432 64.8707 61.75 65.7851 61.75 62.7482C61.75 59.7112 40.2175 56.0986 15.8827 56.0986C-8.45216 56.0986 -29 59.4334 -29 62.4704Z" fill="#022838"/>
</g>
<g opacity="0.8">
<ellipse cx="120.677" cy="128.765" rx="25.515" ry="18.7649" fill="#022838"/>
<ellipse cx="120.677" cy="128.765" rx="25.515" ry="18.7649" fill="#022838"/>
<ellipse cx="120.677" cy="128.765" rx="25.515" ry="18.7649" fill="#022838"/>
<ellipse cx="120.677" cy="128.765" rx="25.515" ry="18.7649" fill="#021A23"/>
<ellipse cx="153.75" cy="137.134" rx="14.85" ry="13.9049" fill="#022838"/>
<ellipse cx="153.75" cy="137.134" rx="14.85" ry="13.9049" fill="#022838"/>
<ellipse cx="153.75" cy="137.134" rx="14.85" ry="13.9049" fill="#022838"/>
<ellipse cx="153.75" cy="137.134" rx="14.85" ry="13.9049" fill="#021A23"/>
<path d="M100.825 142.588C100.825 150.296 94.1764 149.677 85.975 149.677C77.7736 149.677 71.125 150.296 71.125 142.588C71.125 134.879 77.7736 128.629 85.975 128.629C94.1764 128.629 100.825 134.879 100.825 142.588Z" fill="#022838"/>
<path d="M100.825 142.588C100.825 150.296 94.1764 149.677 85.975 149.677C77.7736 149.677 71.125 150.296 71.125 142.588C71.125 134.879 77.7736 128.629 85.975 128.629C94.1764 128.629 100.825 134.879 100.825 142.588Z" fill="#022838"/>
<path d="M100.825 142.588C100.825 150.296 94.1764 149.677 85.975 149.677C77.7736 149.677 71.125 150.296 71.125 142.588C71.125 134.879 77.7736 128.629 85.975 128.629C94.1764 128.629 100.825 134.879 100.825 142.588Z" fill="#022838"/>
<path d="M100.825 142.588C100.825 150.296 94.1764 149.677 85.975 149.677C77.7736 149.677 71.125 150.296 71.125 142.588C71.125 134.879 77.7736 128.629 85.975 128.629C94.1764 128.629 100.825 134.879 100.825 142.588Z" fill="#021A23"/>
<path d="M178.86 147.894C178.86 151.671 154.02 150.879 123.757 150.879C93.4929 150.879 66 152.017 66 148.24C66 144.463 92.7785 139.97 123.042 139.97C153.306 139.97 178.86 144.117 178.86 147.894Z" fill="#022838"/>
<path d="M178.86 147.894C178.86 151.671 154.02 150.879 123.757 150.879C93.4929 150.879 66 152.017 66 148.24C66 144.463 92.7785 139.97 123.042 139.97C153.306 139.97 178.86 144.117 178.86 147.894Z" fill="#022838"/>
<path d="M178.86 147.894C178.86 151.671 154.02 150.879 123.757 150.879C93.4929 150.879 66 152.017 66 148.24C66 144.463 92.7785 139.97 123.042 139.97C153.306 139.97 178.86 144.117 178.86 147.894Z" fill="#022838"/>
<path d="M178.86 147.894C178.86 151.671 154.02 150.879 123.757 150.879C93.4929 150.879 66 152.017 66 148.24C66 144.463 92.7785 139.97 123.042 139.97C153.306 139.97 178.86 144.117 178.86 147.894Z" fill="#021A23"/>
</g>
<defs>
<filter id="filter0_f_4110_196" x="307.522" y="9.71738" width="74.962" height="74.9617" filterUnits="userSpaceOnUse" color-interpolation-filters="sRGB">
<feFlood flood-opacity="0" result="BackgroundImageFix"/>
<feBlend mode="normal" in="SourceGraphic" in2="BackgroundImageFix" result="shape"/>
<feGaussianBlur stdDeviation="1.8" result="effect1_foregroundBlur_4110_196"/>
</filter>
</defs>
</svg>
