<svg width="262" height="27" viewBox="0 0 262 27" fill="none" xmlns="http://www.w3.org/2000/svg">
<path d="M15.136 26L10.852 19.664H8.548V26H0.0520001V0.799998H12.184C19.204 0.799998 23.668 4.472 23.668 10.304C23.668 13.94 21.94 16.676 18.916 18.224L24.208 26H15.136ZM15.1 10.304C15.1 8.468 13.984 7.352 11.644 7.352H8.548V13.256H11.644C13.984 13.256 15.1 12.14 15.1 10.304ZM35.2282 19.592H47.8282V26H26.8762V0.799998H47.3602V7.208H35.2282V10.16H45.8842V16.28H35.2282V19.592ZM69.3233 0.799998H77.6753L67.0193 26H58.6673L48.0113 0.799998H57.1553L63.1673 15.524L69.3233 0.799998ZM78.5208 26V0.799998H87.0168V26H78.5208ZM99.4587 19.592H112.059V26H91.1067V0.799998H111.591V7.208H99.4587V10.16H110.115V16.28H99.4587V19.592ZM147.918 0.799998H155.982L147.918 26H138.81L134.742 12.536L130.458 26H121.35L113.286 0.799998H122.034L126.426 15.128L131.07 0.799998H138.882L143.274 15.308L147.918 0.799998ZM169.189 26V0.799998H177.685V26H169.189ZM198.335 0.799998H206.615V26H199.631L190.055 14.552V26H181.775V0.799998H188.759L198.335 12.248V0.799998ZM231.192 7.208H219.204V11.528H229.716V17.936H219.204V26H210.708V0.799998H231.192V7.208ZM246.912 26.576C238.704 26.576 232.692 21.032 232.692 13.4C232.692 5.768 238.704 0.223999 246.912 0.223999C255.12 0.223999 261.132 5.768 261.132 13.4C261.132 21.032 255.12 26.576 246.912 26.576ZM246.912 19.7C250.044 19.7 252.564 17.324 252.564 13.4C252.564 9.476 250.044 7.1 246.912 7.1C243.78 7.1 241.26 9.476 241.26 13.4C241.26 17.324 243.78 19.7 246.912 19.7Z" fill="#FFB23E"/>
</svg>
