<svg width="1179" height="223" viewBox="0 0 1179 223" fill="none" xmlns="http://www.w3.org/2000/svg">
<path opacity="0.8" d="M48.7 131V61H82.4C88.9333 61 94.5667 62.0667 99.3 64.2C104.1 66.3333 107.8 69.4 110.4 73.4C113 77.3333 114.3 82 114.3 87.4C114.3 92.8 113 97.4667 110.4 101.4C107.8 105.267 104.1 108.233 99.3 110.3C94.5667 112.367 88.9333 113.4 82.4 113.4H61.8L72.3 103.7V131H48.7ZM90.6 131L73.4 105.5H98.4L115.8 131H90.6ZM72.3 106.3L61.8 95.6H80.9C84.1667 95.6 86.5667 94.8667 88.1 93.4C89.7 91.9333 90.5 89.9333 90.5 87.4C90.5 84.8667 89.7 82.8667 88.1 81.4C86.5667 79.9333 84.1667 79.2 80.9 79.2H61.8L72.3 68.5V106.3ZM144.812 87H176.012V104H144.812V87ZM146.412 113.2H181.412V131H123.212V61H180.112V78.8H146.412V113.2ZM211.52 131L181.92 61H207.32L231.42 120.1H216.32L241.12 61H264.32L234.72 131H211.52ZM266.669 131V61H290.269V131H266.669ZM323.23 87H354.43V104H323.23V87ZM324.83 113.2H359.83V131H301.63V61H358.53V78.8H324.83V113.2ZM385.638 131L363.238 61H387.538L405.638 120.1H393.438L412.638 61H434.338L452.238 120.1H440.538L459.438 61H481.838L459.438 131H434.138L419.538 82.6H426.338L410.938 131H385.638ZM518.524 131V61H542.124V131H518.524ZM553.485 131V61H572.885L608.485 103.6H599.485V61H622.485V131H603.085L567.485 88.4H576.485V131H553.485ZM655.856 90.8H686.656V108.6H655.856V90.8ZM657.456 131H633.856V61H690.756V78.8H657.456V131ZM734.423 132.6C728.757 132.6 723.49 131.7 718.623 129.9C713.823 128.1 709.657 125.567 706.123 122.3C702.59 118.967 699.823 115.067 697.823 110.6C695.89 106.133 694.923 101.267 694.923 96C694.923 90.6667 695.89 85.8 697.823 81.4C699.823 76.9333 702.59 73.0667 706.123 69.8C709.657 66.4667 713.823 63.9 718.623 62.1C723.49 60.3 728.757 59.4 734.423 59.4C740.157 59.4 745.423 60.3 750.223 62.1C755.023 63.9 759.19 66.4667 762.723 69.8C766.257 73.0667 768.99 76.9333 770.923 81.4C772.923 85.8 773.923 90.6667 773.923 96C773.923 101.267 772.923 106.133 770.923 110.6C768.99 115.067 766.257 118.967 762.723 122.3C759.19 125.567 755.023 128.1 750.223 129.9C745.423 131.7 740.157 132.6 734.423 132.6ZM734.423 113.5C736.623 113.5 738.657 113.1 740.523 112.3C742.457 111.5 744.123 110.367 745.523 108.9C746.99 107.367 748.123 105.533 748.923 103.4C749.723 101.2 750.123 98.7333 750.123 96C750.123 93.2667 749.723 90.8333 748.923 88.7C748.123 86.5 746.99 84.6667 745.523 83.2C744.123 81.6667 742.457 80.5 740.523 79.7C738.657 78.9 736.623 78.5 734.423 78.5C732.223 78.5 730.157 78.9 728.223 79.7C726.357 80.5 724.69 81.6667 723.223 83.2C721.823 84.6667 720.723 86.5 719.923 88.7C719.123 90.8333 718.723 93.2667 718.723 96C718.723 98.7333 719.123 101.2 719.923 103.4C720.723 105.533 721.823 107.367 723.223 108.9C724.69 110.367 726.357 111.5 728.223 112.3C730.157 113.1 732.223 113.5 734.423 113.5Z" fill="#F9A01B"/>
<path opacity="0.8" d="M48.7 136V66H82.4C88.9333 66 94.5667 67.0667 99.3 69.2C104.1 71.3333 107.8 74.4 110.4 78.4C113 82.3333 114.3 87 114.3 92.4C114.3 97.8 113 102.467 110.4 106.4C107.8 110.267 104.1 113.233 99.3 115.3C94.5667 117.367 88.9333 118.4 82.4 118.4H61.8L72.3 108.7V136H48.7ZM90.6 136L73.4 110.5H98.4L115.8 136H90.6ZM72.3 111.3L61.8 100.6H80.9C84.1667 100.6 86.5667 99.8667 88.1 98.4C89.7 96.9333 90.5 94.9333 90.5 92.4C90.5 89.8667 89.7 87.8667 88.1 86.4C86.5667 84.9333 84.1667 84.2 80.9 84.2H61.8L72.3 73.5V111.3ZM144.812 92H176.012V109H144.812V92ZM146.412 118.2H181.412V136H123.212V66H180.112V83.8H146.412V118.2ZM211.52 136L181.92 66H207.32L231.42 125.1H216.32L241.12 66H264.32L234.72 136H211.52ZM266.669 136V66H290.269V136H266.669ZM323.23 92H354.43V109H323.23V92ZM324.83 118.2H359.83V136H301.63V66H358.53V83.8H324.83V118.2ZM385.638 136L363.238 66H387.538L405.638 125.1H393.438L412.638 66H434.338L452.238 125.1H440.538L459.438 66H481.838L459.438 136H434.138L419.538 87.6H426.338L410.938 136H385.638ZM518.524 136V66H542.124V136H518.524ZM553.485 136V66H572.885L608.485 108.6H599.485V66H622.485V136H603.085L567.485 93.4H576.485V136H553.485ZM655.856 95.8H686.656V113.6H655.856V95.8ZM657.456 136H633.856V66H690.756V83.8H657.456V136ZM734.423 137.6C728.757 137.6 723.49 136.7 718.623 134.9C713.823 133.1 709.657 130.567 706.123 127.3C702.59 123.967 699.823 120.067 697.823 115.6C695.89 111.133 694.923 106.267 694.923 101C694.923 95.6667 695.89 90.8 697.823 86.4C699.823 81.9333 702.59 78.0667 706.123 74.8C709.657 71.4667 713.823 68.9 718.623 67.1C723.49 65.3 728.757 64.4 734.423 64.4C740.157 64.4 745.423 65.3 750.223 67.1C755.023 68.9 759.19 71.4667 762.723 74.8C766.257 78.0667 768.99 81.9333 770.923 86.4C772.923 90.8 773.923 95.6667 773.923 101C773.923 106.267 772.923 111.133 770.923 115.6C768.99 120.067 766.257 123.967 762.723 127.3C759.19 130.567 755.023 133.1 750.223 134.9C745.423 136.7 740.157 137.6 734.423 137.6ZM734.423 118.5C736.623 118.5 738.657 118.1 740.523 117.3C742.457 116.5 744.123 115.367 745.523 113.9C746.99 112.367 748.123 110.533 748.923 108.4C749.723 106.2 750.123 103.733 750.123 101C750.123 98.2667 749.723 95.8333 748.923 93.7C748.123 91.5 746.99 89.6667 745.523 88.2C744.123 86.6667 742.457 85.5 740.523 84.7C738.657 83.9 736.623 83.5 734.423 83.5C732.223 83.5 730.157 83.9 728.223 84.7C726.357 85.5 724.69 86.6667 723.223 88.2C721.823 89.6667 720.723 91.5 719.923 93.7C719.123 95.8333 718.723 98.2667 718.723 101C718.723 103.733 719.123 106.2 719.923 108.4C720.723 110.533 721.823 112.367 723.223 113.9C724.69 115.367 726.357 116.5 728.223 117.3C730.157 118.1 732.223 118.5 734.423 118.5Z" fill="#F4D3A1"/>
<path d="M6.93159 48.981L10.3554 44.6178L16.0162 50.5945L11.2037 49.7843L6.93159 48.981Z" fill="#B9DCD9"/>
<path d="M10.3554 44.6185L12.2187 41.9815L13.8729 45.911L16.0163 50.5952L10.3554 44.6185Z" fill="#CAEDEB"/>
<path d="M1.73123 39.3106L10.3527 44.6184L6.92889 48.9816L1.73123 39.3106Z" fill="#BDEDE9"/>
<path d="M1.73628 39.3101L12.221 41.981L10.3577 44.618L1.73628 39.3101Z" fill="#E2F5F4"/>
<path d="M27.9708 14.1895L30.0962 12.9704L31.4234 16.3564L29.587 15.2267L27.9708 14.1895Z" fill="#B9DCD9"/>
<path d="M30.0925 12.9704L31.2927 12.1995L31.3186 14.0828L31.4197 16.3564L30.0925 12.9704Z" fill="#CAEDEB"/>
<path d="M27.4448 9.36716L30.0953 12.9701L27.9699 14.1892L27.4448 9.36716Z" fill="#BDEDE9"/>
<path d="M27.4473 9.36819L31.298 12.2002L30.0978 12.9711L27.4473 9.36819Z" fill="#E2F5F4"/>
<path d="M46.176 32.7846L48.6093 32.497L48.5019 36.1322L47.2558 34.3727L46.176 32.7846Z" fill="#B9DCD9"/>
<path d="M48.6069 32.4973L50.0134 32.259L49.2984 34.0016L48.4995 36.1326L48.6069 32.4973Z" fill="#CAEDEB"/>
<path d="M47.5837 28.1434L48.6083 32.4973L46.175 32.7849L47.5837 28.1434Z" fill="#BDEDE9"/>
<path d="M47.5823 28.143L50.0133 32.2586L48.6069 32.4969L47.5823 28.143Z" fill="#E2F5F4"/>
<path d="M28.1413 39.7813L29.2437 37.593L32.2166 39.6879L30.0616 39.7567L28.1413 39.7813Z" fill="#B9DCD9"/>
<path d="M29.2453 37.5928L29.8223 36.2882L30.8814 37.8459L32.2181 39.6877L29.2453 37.5928Z" fill="#CAEDEB"/>
<path d="M25.042 36.0456L29.2388 37.5926L28.1364 39.7809L25.042 36.0456Z" fill="#BDEDE9"/>
<path d="M25.0476 36.0459L29.8214 36.2885L29.2443 37.593L25.0476 36.0459Z" fill="#E2F5F4"/>
<path d="M63.0974 13.6497L69.3707 13.6261L68.0398 22.8418L65.3821 18.0036L63.0974 13.6497Z" fill="#B9DCD9"/>
<path d="M69.3774 13.6275L73.0243 13.4305L70.6986 17.6551L68.0466 22.8432L69.3774 13.6275Z" fill="#CAEDEB"/>
<path d="M68.026 2.25599L69.3657 13.6292L63.0925 13.6528L68.026 2.25599Z" fill="#BDEDE9"/>
<path d="M68.0271 2.25228L73.0137 13.4284L69.3668 13.6255L68.0271 2.25228Z" fill="#E2F5F4"/>
<path d="M75.8826 45.4564L79.9402 45.4411L79.0794 51.402L77.3604 48.2726L75.8826 45.4564Z" fill="#B9DCD9"/>
<path d="M79.9452 45.4413L82.304 45.3139L80.7997 48.0464L79.0843 51.4022L79.9452 45.4413Z" fill="#CAEDEB"/>
<path d="M79.0685 38.0851L79.9351 45.4414L75.8774 45.4567L79.0685 38.0851Z" fill="#BDEDE9"/>
<path d="M79.0701 38.0824L82.2955 45.3113L79.9366 45.4388L79.0701 38.0824Z" fill="#E2F5F4"/>
<path d="M21.1701 93.7089L21.414 89.6585L27.3077 90.8982L24.0749 92.4139L21.1701 93.7089Z" fill="#B9DCD9"/>
<path d="M21.4129 89.6552L21.4363 87.293L24.0672 88.9687L27.3066 90.8949L21.4129 89.6552Z" fill="#CAEDEB"/>
<path d="M14.0161 90.0536L21.4127 89.6586L21.1689 93.709L14.0161 90.0536Z" fill="#BDEDE9"/>
<path d="M14.0138 90.0555L21.434 87.2984L21.4105 89.6605L14.0138 90.0555Z" fill="#E2F5F4"/>
<path d="M27.3092 68.7725L28.5149 66.1799L32.0589 68.5146L29.548 68.6736L27.3092 68.7725Z" fill="#B9DCD9"/>
<path d="M28.516 66.1774L29.1413 64.6348L30.4335 66.4128L32.06 68.5121L28.516 66.1774Z" fill="#CAEDEB"/>
<path d="M23.5557 64.529L28.5071 66.18L27.3014 68.7725L23.5557 64.529Z" fill="#BDEDE9"/>
<path d="M23.5592 64.5293L29.1359 64.6376L28.5106 66.1803L23.5592 64.5293Z" fill="#E2F5F4"/>
<path d="M101.882 45.6827L105.809 46.3757L103.937 51.9908L102.82 48.6642L101.882 45.6827Z" fill="#B9DCD9"/>
<path d="M105.802 46.3777L108.105 46.6659L106.174 49.0463L103.929 51.9927L105.802 46.3777Z" fill="#CAEDEB"/>
<path d="M106.253 39.1117L105.808 46.3777L101.881 45.6847L106.253 39.1117Z" fill="#BDEDE9"/>
<path d="M106.249 39.1075L108.108 46.6617L105.804 46.3735L106.249 39.1075Z" fill="#E2F5F4"/>
<path d="M829.789 117.721L829.005 123.212L821.114 120.866L825.687 119.162L829.789 117.721Z" fill="#B9DCD9"/>
<path d="M829.01 123.21L828.715 126.425L825.318 123.849L821.119 120.864L829.01 123.21Z" fill="#CAEDEB"/>
<path d="M839.13 123.495L829.01 123.209L829.793 117.719L839.13 123.495Z" fill="#BDEDE9"/>
<path d="M839.132 123.496L828.717 126.425L829.012 123.21L839.132 123.496Z" fill="#E2F5F4"/>
<path d="M828.972 158.37L827.741 160.489L824.898 158.22L827.053 158.28L828.972 158.37Z" fill="#B9DCD9"/>
<path d="M827.739 160.487L827.085 161.755L826.121 160.137L824.897 158.219L827.739 160.487Z" fill="#CAEDEB"/>
<path d="M831.833 162.284L827.736 160.489L828.967 158.37L831.833 162.284Z" fill="#BDEDE9"/>
<path d="M831.839 162.281L827.088 161.754L827.742 160.486L831.839 162.281Z" fill="#E2F5F4"/>
<path d="M803.905 151.367L801.942 152.833L800.217 149.631L802.176 150.532L803.905 151.367Z" fill="#B9DCD9"/>
<path d="M801.947 152.832L800.848 153.741L800.596 151.875L800.223 149.63L801.947 152.832Z" fill="#CAEDEB"/>
<path d="M805.012 156.09L801.948 152.832L803.912 151.366L805.012 156.09Z" fill="#BDEDE9"/>
<path d="M805.007 156.091L800.844 153.742L801.943 152.833L805.007 156.091Z" fill="#E2F5F4"/>
<path d="M816.032 136.291L816.171 138.738L812.549 138.41L814.381 137.273L816.032 136.291Z" fill="#B9DCD9"/>
<path d="M816.17 138.737L816.322 140.155L814.626 139.336L812.548 138.409L816.17 138.737Z" fill="#CAEDEB"/>
<path d="M820.58 137.976L816.172 138.735L816.033 136.289L820.58 137.976Z" fill="#BDEDE9"/>
<path d="M820.579 137.979L816.323 140.156L816.171 138.737L820.579 137.979Z" fill="#E2F5F4"/>
<path d="M798.82 176.401L793.399 179.558L789.944 170.912L794.665 173.773L798.82 176.401Z" fill="#B9DCD9"/>
<path d="M793.391 179.559L790.331 181.553L790.233 176.731L789.935 170.912L793.391 179.559Z" fill="#CAEDEB"/>
<path d="M800.245 188.733L793.398 179.554L798.819 176.397L800.245 188.733Z" fill="#BDEDE9"/>
<path d="M800.25 188.735L790.343 181.55L793.403 179.556L800.25 188.735Z" fill="#E2F5F4"/>
<path d="M771.844 155.247L768.337 157.289L766.103 151.696L769.156 153.547L771.844 155.247Z" fill="#B9DCD9"/>
<path d="M768.336 157.291L766.357 158.581L766.293 155.462L766.101 151.698L768.336 157.291Z" fill="#CAEDEB"/>
<path d="M772.769 163.224L768.34 157.286L771.847 155.244L772.769 163.224Z" fill="#BDEDE9"/>
<path d="M772.774 163.226L766.366 158.578L768.345 157.289L772.774 163.226Z" fill="#E2F5F4"/>
<path d="M795.102 86.1034L796.916 89.7331L791.192 91.6063L793.234 88.6773L795.102 86.1034Z" fill="#B9DCD9"/>
<path d="M796.919 89.7356L798.08 91.7931L794.964 91.6573L791.195 91.6089L796.919 89.7356Z" fill="#CAEDEB"/>
<path d="M803.126 85.6922L796.918 89.7326L795.104 86.103L803.126 85.6922Z" fill="#BDEDE9"/>
<path d="M803.125 85.6894L798.078 91.7872L796.917 89.7298L803.125 85.6894Z" fill="#E2F5F4"/>
<path d="M802.256 110.768L802.508 113.616L798.272 113.366L800.367 111.973L802.256 110.768Z" fill="#B9DCD9"/>
<path d="M802.509 113.619L802.739 115.268L800.731 114.374L798.273 113.37L802.509 113.619Z" fill="#CAEDEB"/>
<path d="M807.623 112.569L802.51 113.615L802.258 110.767L807.623 112.569Z" fill="#BDEDE9"/>
<path d="M807.623 112.57L802.739 115.264L802.51 113.616L807.623 112.57Z" fill="#E2F5F4"/>
<path d="M749.218 168.051L745.471 169.414L744.285 163.615L746.915 165.938L749.218 168.051Z" fill="#B9DCD9"/>
<path d="M745.476 169.41L743.337 170.313L743.82 167.285L744.29 163.611L745.476 169.41Z" fill="#CAEDEB"/>
<path d="M748.721 175.927L745.473 169.412L749.221 168.049L748.721 175.927Z" fill="#BDEDE9"/>
<path d="M748.726 175.93L743.339 170.317L745.478 169.414L748.726 175.93Z" fill="#E2F5F4"/>
</svg>
