<svg width="1095" height="569" viewBox="0 0 1095 569" fill="none" xmlns="http://www.w3.org/2000/svg">
<path d="M401.299 290.503L401.244 290.479L401.196 290.443L191.258 129.821L-168.497 1.26247L-165.5 705.95V705.952V996.3L90.3038 952.513L347.211 770.68L347.293 770.622L347.392 770.6L1083.99 607.346L726.799 433.32L726.781 433.312L401.299 290.503Z" fill="#021821" stroke="black"/>
<path d="M395.757 453.084L401.869 465.015L396.952 477.807L382.933 477.321L372.053 473.752L367.009 469.65L365.226 460.632L364.535 444.579L374.813 440.379L395.757 453.084Z" fill="#010A0D"/>
<path d="M335.982 401.337L340.232 406.253L347.021 406.655L349.527 400.608L350.017 395.295L349.128 392.355L345.363 389.844L338.179 386.427L334.264 389.973L335.982 401.337Z" fill="#010A0D"/>
<path d="M373.844 389.666L364.122 382.913L352.504 385.509L351.466 397.592L353.431 407.373L356.467 412.218L364.111 414.889L377.976 417.516L382.692 409.235L373.844 389.666Z" fill="#010A0D"/>
<path d="M378.839 440.044L373.338 431.44L376.115 421.427L386.754 420.834L395.246 422.788L399.363 425.544L401.375 432.243L403.079 444.337L395.615 448.218L378.839 440.044Z" fill="#010A0D"/>
<path d="M314.855 387.774L309.933 377.536L308.947 363.988L316.422 366.712L328.656 373.205L336.323 376.459L332.899 389.816L324.848 390.589L314.855 387.774Z" fill="#010A0D"/>
<path d="M339.145 377.336L339.855 384.514L345.902 389.054L352.217 384.972L356.174 380.333L357.286 377.055L355.441 372.409L351.015 364.823L345.038 365.717L337.63 368.249L339.145 377.336Z" fill="#010A0D"/>
<path d="M367.811 438.787L357.083 441.678L348.345 439.369L347.879 430.706L349.628 423.805L352.058 420.467L357.923 418.863L365.075 417.265L369.879 424.384L367.811 438.787Z" fill="#010A0D"/>
<path d="M330.879 416.903L334.687 410.259L340.222 407.158L351.763 410.057L354.578 414.23L347.218 422.308L343.462 426.239L337.368 425.045L330.879 416.903Z" fill="#010A0D"/>
<path d="M400.887 469.561L404.695 462.917L410.23 459.817L421.77 462.716L424.586 466.888L417.226 474.967L413.47 478.897L407.376 477.703L400.887 469.561Z" fill="#010A0D"/>
<path d="M334.848 403.025L334.274 407.378L331.731 408.497L323.989 403.395L321.197 399.398L323.548 394.769L324.798 392.559L328.798 394.986L334.848 403.025Z" fill="#010A0D"/>
<path d="M415.862 452.388L413.913 456.212L411.299 456.342L401.474 457.61L399.58 449.985L405.022 444.171L408.63 440.724L410.465 439.123L413.19 442.794L415.862 452.388Z" fill="#010A0D"/>
<path d="M402.25 477.486L406.463 478.762L406.994 481.236L409.788 490.413L402.267 493.38L395.484 489.075L391.404 486.159L389.485 484.653L387.998 480.721L402.25 477.486Z" fill="#010A0D"/>
<path d="M303.266 345.06L307.115 347.149L307.105 349.675L310.852 361.178L300.91 361.542L294.164 355.05L290.797 351.383L289.242 349.527L293.191 347.104L303.266 345.06Z" fill="#010A0D"/>
<path d="M329.597 368.352L320.844 367.177L315.592 360.053L320.912 353.061L326.792 348.785L330.862 347.685L336.456 350.023L345.52 355.455L344.121 362.223L329.597 368.352Z" fill="#010A0D"/>
<path d="M309.778 350.091L311.24 354.245L313.963 354.852L320.495 348.363L322.405 343.909L319.144 339.825L317.463 337.9L314.044 341.048L309.778 350.091Z" fill="#010A0D"/>
<path d="M296.604 335.624L300.185 338.327L299.88 341.008L291.376 344.816L286.389 345.085L283.471 340.768L282.142 338.601L286.35 336.526L296.604 335.624Z" fill="#010A0D"/>
<path d="M306.156 311.778L303.782 321.672L309.755 330.342L320.079 327.612L327.512 323.123L330.513 319.224L330.201 312.225L327.802 300.186L319.406 298.804L306.156 311.778Z" fill="#010A0D"/>
<path d="M341.159 263.247L338.895 267.617L333.925 269.062L330.967 264.995L329.639 261.131L329.766 258.798L332.106 256.296L336.822 252.545L340.373 254.517L341.159 263.247Z" fill="#010A0D"/>
<path d="M310.929 260.975L316.924 254.317L326.023 254.282L328.987 263.08L329.302 270.677L327.926 274.788L322.734 278.064L312.913 282.358L307.907 277.004L310.929 260.975Z" fill="#010A0D"/>
<path d="M316.352 299.237L318.876 291.917L314.997 284.95L306.988 286.307L301.035 289.192L298.478 291.936L298.199 297.251L299.128 306.521L305.376 308.142L316.352 299.237Z" fill="#010A0D"/>
<path d="M334.459 245.954L335.234 251.406L331.567 255.8L326.136 253.835L322.355 251.058L320.935 248.811L321.462 245.049L323.373 238.667L327.974 238.321L333.935 238.95L334.459 245.954Z" fill="#010A0D"/>
<path d="M324.318 296.439L332.81 296.774L338.881 293.582L337.655 287.07L335.104 282.24L332.693 280.171L328.046 279.971L322.445 279.993L320.169 286.091L324.318 296.439Z" fill="#010A0D"/>
<path d="M347.776 273.945L343.742 269.653L339.068 268.286L331.023 272.389L329.689 275.964L336.621 280.72L340.124 283.004L344.434 281.088L347.776 273.945Z" fill="#010A0D"/>
<path d="M305.338 324.883L301.304 320.591L296.631 319.224L288.586 323.327L287.252 326.902L294.184 331.658L297.686 333.943L301.996 332.026L305.338 324.883Z" fill="#010A0D"/>
<path d="M342.311 264.308L343.527 267.444L345.619 267.845L350.443 262.748L351.791 259.308L349.205 256.267L347.876 254.837L345.345 257.315L342.311 264.308Z" fill="#010A0D"/>
<path d="M291.097 314.66L293.238 317.171L295.203 316.826L302.73 316.107L302.753 310.124L297.657 306.726L294.352 304.775L292.699 303.896L291.341 307.083L291.097 314.66Z" fill="#010A0D"/>
<path d="M305.757 331.001L302.86 332.661L302.914 334.588L302.505 341.876L308.629 342.809L312.885 338.465L315.387 335.61L316.538 334.167L316.929 330.996L305.757 331.001Z" fill="#010A0D"/>
<path d="M427.099 482.387L111.125 341.909L-178.001 268.074L-78.5622 966.923L-38.7752 1255.32L209.477 1179.13L439.355 966.099L1048.17 775.935L665 560.723L427.099 482.387Z" fill="#143846"/>
<path d="M468.777 518.977L462.905 501.17L464.315 494.139L512.811 510.061L512.811 514.726L510.256 537.152L495.069 540.885L468.777 518.977Z" fill="#021821"/>
<path d="M489.408 540.525L495.16 553.592L489.112 566.924L474.213 565.578L462.853 561.135L457.742 556.468L456.416 546.759L456.698 529.622L467.91 525.757L489.408 540.525Z" fill="#021821"/>
<path d="M504.43 544.517L519.956 542.691L531.581 547.679L530.331 559.799L526.391 569.023L522.287 573.161L513.793 574.192L503.516 574.951L498.407 564.089L504.43 544.517Z" fill="#021821"/>
<path d="M550.909 582.428L544.167 590.875L535.805 594.05L520.42 587.673L517.424 581.306L529.41 571.592L535.485 566.902L543.684 569.802L550.909 582.428Z" fill="#021821"/>
<path d="M462.321 493.174L452.437 503.128L441.913 507.123L422.552 499.097L415.829 488.98L429.326 480.629L462.321 493.174Z" fill="#021821"/>
<path d="M440.688 515.842L444.231 510.931L447.889 511.284L461.805 511.528L462.764 522.499L453.937 529.46L448.174 533.51L445.276 535.357L442.297 529.706L440.688 515.842Z" fill="#021821"/>
<path d="M465.103 483.774L459.534 481.143L459.338 477.601L457.47 464.292L468.56 461.707L477.034 469.066L482.059 473.946L484.392 476.428L485.595 482.19L465.103 483.774Z" fill="#021821"/>
</svg>
