<svg width="1277" height="706" viewBox="0 0 1277 706" fill="none" xmlns="http://www.w3.org/2000/svg">
<g filter="url(#filter0_d_4157_94)">
<g opacity="0.8">
<ellipse cx="63.7875" cy="45.2696" rx="63.7875" ry="45.2696" transform="matrix(-1 0 0 1 1317.88 0)" fill="#022838"/>
<ellipse cx="63.7875" cy="45.2696" rx="63.7875" ry="45.2696" transform="matrix(-1 0 0 1 1317.88 0)" fill="#022838"/>
<ellipse cx="63.7875" cy="45.2696" rx="63.7875" ry="45.2696" transform="matrix(-1 0 0 1 1317.88 0)" fill="#022838"/>
<ellipse cx="63.7875" cy="45.2696" rx="63.7875" ry="45.2696" transform="matrix(-1 0 0 1 1317.88 0)" fill="#022838"/>
<ellipse cx="37.125" cy="33.5451" rx="37.125" ry="33.5451" transform="matrix(-1 0 0 1 1208.52 31.916)" fill="#022838"/>
<ellipse cx="37.125" cy="33.5451" rx="37.125" ry="33.5451" transform="matrix(-1 0 0 1 1208.52 31.916)" fill="#022838"/>
<ellipse cx="37.125" cy="33.5451" rx="37.125" ry="33.5451" transform="matrix(-1 0 0 1 1208.52 31.916)" fill="#022838"/>
<ellipse cx="37.125" cy="33.5451" rx="37.125" ry="33.5451" transform="matrix(-1 0 0 1 1208.52 31.916)" fill="#022838"/>
<path d="M1108.62 91.4185C1108.62 100.53 1170.72 98.62 1246.38 98.62C1322.04 98.62 1390.77 101.363 1390.77 92.2519C1390.77 83.1403 1323.83 72.3018 1248.17 72.3018C1172.51 72.3018 1108.62 82.3069 1108.62 91.4185Z" fill="#022838"/>
<path d="M1108.62 91.4185C1108.62 100.53 1170.72 98.62 1246.38 98.62C1322.04 98.62 1390.77 101.363 1390.77 92.2519C1390.77 83.1403 1323.83 72.3018 1248.17 72.3018C1172.51 72.3018 1108.62 82.3069 1108.62 91.4185Z" fill="#022838"/>
<path d="M1108.62 91.4185C1108.62 100.53 1170.72 98.62 1246.38 98.62C1322.04 98.62 1390.77 101.363 1390.77 92.2519C1390.77 83.1403 1323.83 72.3018 1248.17 72.3018C1172.51 72.3018 1108.62 82.3069 1108.62 91.4185Z" fill="#022838"/>
<path d="M1108.62 91.4185C1108.62 100.53 1170.72 98.62 1246.38 98.62C1322.04 98.62 1390.77 101.363 1390.77 92.2519C1390.77 83.1403 1323.83 72.3018 1248.17 72.3018C1172.51 72.3018 1108.62 82.3069 1108.62 91.4185Z" fill="#022838"/>
</g>
<g opacity="0.8">
<ellipse cx="57.4088" cy="40.7424" rx="57.4088" ry="40.7424" transform="matrix(-1 0 0 1 652.32 163.178)" fill="#022838"/>
<ellipse cx="57.4088" cy="40.7424" rx="57.4088" ry="40.7424" transform="matrix(-1 0 0 1 652.32 163.178)" fill="#022838"/>
<ellipse cx="57.4088" cy="40.7424" rx="57.4088" ry="40.7424" transform="matrix(-1 0 0 1 652.32 163.178)" fill="#022838"/>
<ellipse cx="57.4088" cy="40.7424" rx="57.4088" ry="40.7424" transform="matrix(-1 0 0 1 652.32 163.178)" fill="#022838"/>
<ellipse cx="33.4125" cy="30.1904" rx="33.4125" ry="30.1904" transform="matrix(-1 0 0 1 553.914 191.901)" fill="#022838"/>
<ellipse cx="33.4125" cy="30.1904" rx="33.4125" ry="30.1904" transform="matrix(-1 0 0 1 553.914 191.901)" fill="#022838"/>
<ellipse cx="33.4125" cy="30.1904" rx="33.4125" ry="30.1904" transform="matrix(-1 0 0 1 553.914 191.901)" fill="#022838"/>
<ellipse cx="33.4125" cy="30.1904" rx="33.4125" ry="30.1904" transform="matrix(-1 0 0 1 553.914 191.901)" fill="#022838"/>
<path d="M639.573 233.933C639.573 250.671 654.533 249.327 672.986 249.327C691.439 249.327 706.398 250.671 706.398 233.933C706.398 217.195 691.439 203.627 672.986 203.627C654.533 203.627 639.573 217.195 639.573 233.933Z" fill="#022838"/>
<path d="M639.573 233.933C639.573 250.671 654.533 249.327 672.986 249.327C691.439 249.327 706.398 250.671 706.398 233.933C706.398 217.195 691.439 203.627 672.986 203.627C654.533 203.627 639.573 217.195 639.573 233.933Z" fill="#022838"/>
<path d="M639.573 233.933C639.573 250.671 654.533 249.327 672.986 249.327C691.439 249.327 706.398 250.671 706.398 233.933C706.398 217.195 691.439 203.627 672.986 203.627C654.533 203.627 639.573 217.195 639.573 233.933Z" fill="#022838"/>
<path d="M639.573 233.933C639.573 250.671 654.533 249.327 672.986 249.327C691.439 249.327 706.398 250.671 706.398 233.933C706.398 217.195 691.439 203.627 672.986 203.627C654.533 203.627 639.573 217.195 639.573 233.933Z" fill="#022838"/>
<path d="M464.002 245.454C464.002 253.654 519.892 251.935 587.985 251.935C656.079 251.935 717.938 254.404 717.938 246.204C717.938 238.004 657.686 228.249 589.592 228.249C521.499 228.249 464.002 237.254 464.002 245.454Z" fill="#022838"/>
<path d="M464.002 245.454C464.002 253.654 519.892 251.935 587.985 251.935C656.079 251.935 717.938 254.404 717.938 246.204C717.938 238.004 657.686 228.249 589.592 228.249C521.499 228.249 464.002 237.254 464.002 245.454Z" fill="#022838"/>
<path d="M464.002 245.454C464.002 253.654 519.892 251.935 587.985 251.935C656.079 251.935 717.938 254.404 717.938 246.204C717.938 238.004 657.686 228.249 589.592 228.249C521.499 228.249 464.002 237.254 464.002 245.454Z" fill="#022838"/>
<path d="M464.002 245.454C464.002 253.654 519.892 251.935 587.985 251.935C656.079 251.935 717.938 254.404 717.938 246.204C717.938 238.004 657.686 228.249 589.592 228.249C521.499 228.249 464.002 237.254 464.002 245.454Z" fill="#022838"/>
</g>
<g opacity="0.8">
<ellipse cx="720.859" cy="675.506" rx="26.5781" ry="18.8623" fill="#022838"/>
<ellipse cx="720.859" cy="675.506" rx="26.5781" ry="18.8623" fill="#022838"/>
<ellipse cx="720.859" cy="675.506" rx="26.5781" ry="18.8623" fill="#022838"/>
<ellipse cx="720.859" cy="675.506" rx="26.5781" ry="18.8623" fill="#021A23"/>
<ellipse cx="755.312" cy="683.919" rx="15.4688" ry="13.9771" fill="#022838"/>
<ellipse cx="755.312" cy="683.919" rx="15.4688" ry="13.9771" fill="#022838"/>
<ellipse cx="755.312" cy="683.919" rx="15.4688" ry="13.9771" fill="#022838"/>
<ellipse cx="755.312" cy="683.919" rx="15.4688" ry="13.9771" fill="#021A23"/>
<path d="M700.188 689.401C700.188 697.15 693.262 696.527 684.719 696.527C676.176 696.527 669.25 697.15 669.25 689.401C669.25 681.652 676.176 675.37 684.719 675.37C693.262 675.37 700.188 681.652 700.188 689.401Z" fill="#022838"/>
<path d="M700.188 689.401C700.188 697.15 693.262 696.527 684.719 696.527C676.176 696.527 669.25 697.15 669.25 689.401C669.25 681.652 676.176 675.37 684.719 675.37C693.262 675.37 700.188 681.652 700.188 689.401Z" fill="#022838"/>
<path d="M700.188 689.401C700.188 697.15 693.262 696.527 684.719 696.527C676.176 696.527 669.25 697.15 669.25 689.401C669.25 681.652 676.176 675.37 684.719 675.37C693.262 675.37 700.188 681.652 700.188 689.401Z" fill="#022838"/>
<path d="M700.188 689.401C700.188 697.15 693.262 696.527 684.719 696.527C676.176 696.527 669.25 697.15 669.25 689.401C669.25 681.652 676.176 675.37 684.719 675.37C693.262 675.37 700.188 681.652 700.188 689.401Z" fill="#021A23"/>
<path d="M781.469 694.734C781.469 698.53 755.594 697.734 724.069 697.734C692.545 697.734 663.906 698.878 663.906 695.081C663.906 691.285 691.801 686.769 723.325 686.769C754.85 686.769 781.469 690.937 781.469 694.734Z" fill="#022838"/>
<path d="M781.469 694.734C781.469 698.53 755.594 697.734 724.069 697.734C692.545 697.734 663.906 698.878 663.906 695.081C663.906 691.285 691.801 686.769 723.325 686.769C754.85 686.769 781.469 690.937 781.469 694.734Z" fill="#022838"/>
<path d="M781.469 694.734C781.469 698.53 755.594 697.734 724.069 697.734C692.545 697.734 663.906 698.878 663.906 695.081C663.906 691.285 691.801 686.769 723.325 686.769C754.85 686.769 781.469 690.937 781.469 694.734Z" fill="#022838"/>
<path d="M781.469 694.734C781.469 698.53 755.594 697.734 724.069 697.734C692.545 697.734 663.906 698.878 663.906 695.081C663.906 691.285 691.801 686.769 723.325 686.769C754.85 686.769 781.469 690.937 781.469 694.734Z" fill="#021A23"/>
</g>
<g opacity="0.8">
<ellipse cx="603.245" cy="630.065" rx="31.8938" ry="22.6348" fill="#022838"/>
<ellipse cx="603.245" cy="630.065" rx="31.8938" ry="22.6348" fill="#022838"/>
<ellipse cx="603.245" cy="630.065" rx="31.8938" ry="22.6348" fill="#022838"/>
<ellipse cx="603.245" cy="630.065" rx="31.8938" ry="22.6348" fill="#022838"/>
<ellipse cx="644.594" cy="640.162" rx="18.5625" ry="16.7725" fill="#022838"/>
<ellipse cx="644.594" cy="640.162" rx="18.5625" ry="16.7725" fill="#022838"/>
<ellipse cx="644.594" cy="640.162" rx="18.5625" ry="16.7725" fill="#022838"/>
<ellipse cx="644.594" cy="640.162" rx="18.5625" ry="16.7725" fill="#022838"/>
<path d="M578.438 646.74C578.438 656.039 570.127 655.292 559.875 655.292C549.623 655.292 541.312 656.039 541.312 646.74C541.312 637.441 549.623 629.903 559.875 629.903C570.127 629.903 578.438 637.441 578.438 646.74Z" fill="#022838"/>
<path d="M578.438 646.74C578.438 656.039 570.127 655.292 559.875 655.292C549.623 655.292 541.312 656.039 541.312 646.74C541.312 637.441 549.623 629.903 559.875 629.903C570.127 629.903 578.438 637.441 578.438 646.74Z" fill="#022838"/>
<path d="M578.438 646.74C578.438 656.039 570.127 655.292 559.875 655.292C549.623 655.292 541.312 656.039 541.312 646.74C541.312 637.441 549.623 629.903 559.875 629.903C570.127 629.903 578.438 637.441 578.438 646.74Z" fill="#022838"/>
<path d="M578.438 646.74C578.438 656.039 570.127 655.292 559.875 655.292C549.623 655.292 541.312 656.039 541.312 646.74C541.312 637.441 549.623 629.903 559.875 629.903C570.127 629.903 578.438 637.441 578.438 646.74Z" fill="#022838"/>
<path d="M675.981 653.139C675.981 657.695 644.932 656.74 607.102 656.74C569.272 656.74 534.906 658.112 534.906 653.556C534.906 649 568.379 643.581 606.209 643.581C644.039 643.581 675.981 648.584 675.981 653.139Z" fill="#022838"/>
<path d="M675.981 653.139C675.981 657.695 644.932 656.74 607.102 656.74C569.272 656.74 534.906 658.112 534.906 653.556C534.906 649 568.379 643.581 606.209 643.581C644.039 643.581 675.981 648.584 675.981 653.139Z" fill="#022838"/>
<path d="M675.981 653.139C675.981 657.695 644.932 656.74 607.102 656.74C569.272 656.74 534.906 658.112 534.906 653.556C534.906 649 568.379 643.581 606.209 643.581C644.039 643.581 675.981 648.584 675.981 653.139Z" fill="#022838"/>
<path d="M675.981 653.139C675.981 657.695 644.932 656.74 607.102 656.74C569.272 656.74 534.906 658.112 534.906 653.556C534.906 649 568.379 643.581 606.209 643.581C644.039 643.581 675.981 648.584 675.981 653.139Z" fill="#022838"/>
</g>
<g opacity="0.8">
<ellipse cx="38.2725" cy="27.1616" rx="38.2725" ry="27.1616" transform="matrix(-1 0 0 1 480.547 259.676)" fill="#022838"/>
<ellipse cx="38.2725" cy="27.1616" rx="38.2725" ry="27.1616" transform="matrix(-1 0 0 1 480.547 259.676)" fill="#022838"/>
<ellipse cx="38.2725" cy="27.1616" rx="38.2725" ry="27.1616" transform="matrix(-1 0 0 1 480.547 259.676)" fill="#022838"/>
<ellipse cx="38.2725" cy="27.1616" rx="38.2725" ry="27.1616" transform="matrix(-1 0 0 1 480.547 259.676)" fill="#022838"/>
<ellipse cx="22.275" cy="20.1269" rx="22.275" ry="20.1269" transform="matrix(-1 0 0 1 414.938 278.825)" fill="#022838"/>
<ellipse cx="22.275" cy="20.1269" rx="22.275" ry="20.1269" transform="matrix(-1 0 0 1 414.938 278.825)" fill="#022838"/>
<ellipse cx="22.275" cy="20.1269" rx="22.275" ry="20.1269" transform="matrix(-1 0 0 1 414.938 278.825)" fill="#022838"/>
<ellipse cx="22.275" cy="20.1269" rx="22.275" ry="20.1269" transform="matrix(-1 0 0 1 414.938 278.825)" fill="#022838"/>
<path d="M472.052 306.846C472.052 318.004 482.024 317.108 494.327 317.108C506.629 317.108 516.602 318.004 516.602 306.846C516.602 295.687 506.629 286.642 494.327 286.642C482.024 286.642 472.052 295.687 472.052 306.846Z" fill="#022838"/>
<path d="M472.052 306.846C472.052 318.004 482.024 317.108 494.327 317.108C506.629 317.108 516.602 318.004 516.602 306.846C516.602 295.687 506.629 286.642 494.327 286.642C482.024 286.642 472.052 295.687 472.052 306.846Z" fill="#022838"/>
<path d="M472.052 306.846C472.052 318.004 482.024 317.108 494.327 317.108C506.629 317.108 516.602 318.004 516.602 306.846C516.602 295.687 506.629 286.642 494.327 286.642C482.024 286.642 472.052 295.687 472.052 306.846Z" fill="#022838"/>
<path d="M472.052 306.846C472.052 318.004 482.024 317.108 494.327 317.108C506.629 317.108 516.602 318.004 516.602 306.846C516.602 295.687 506.629 286.642 494.327 286.642C482.024 286.642 472.052 295.687 472.052 306.846Z" fill="#022838"/>
<path d="M354.999 314.527C354.999 319.994 392.259 318.847 437.654 318.847C483.05 318.847 524.289 320.494 524.289 315.027C524.289 309.56 484.121 303.057 438.726 303.057C393.33 303.057 354.999 309.06 354.999 314.527Z" fill="#022838"/>
<path d="M354.999 314.527C354.999 319.994 392.259 318.847 437.654 318.847C483.05 318.847 524.289 320.494 524.289 315.027C524.289 309.56 484.121 303.057 438.726 303.057C393.33 303.057 354.999 309.06 354.999 314.527Z" fill="#022838"/>
<path d="M354.999 314.527C354.999 319.994 392.259 318.847 437.654 318.847C483.05 318.847 524.289 320.494 524.289 315.027C524.289 309.56 484.121 303.057 438.726 303.057C393.33 303.057 354.999 309.06 354.999 314.527Z" fill="#022838"/>
<path d="M354.999 314.527C354.999 319.994 392.259 318.847 437.654 318.847C483.05 318.847 524.289 320.494 524.289 315.027C524.289 309.56 484.121 303.057 438.726 303.057C393.33 303.057 354.999 309.06 354.999 314.527Z" fill="#022838"/>
</g>
<g opacity="0.8">
<ellipse cx="361.679" cy="235.324" rx="25.515" ry="18.1077" fill="#022838"/>
<ellipse cx="361.679" cy="235.324" rx="25.515" ry="18.1077" fill="#022838"/>
<ellipse cx="361.679" cy="235.324" rx="25.515" ry="18.1077" fill="#022838"/>
<ellipse cx="361.679" cy="235.324" rx="25.515" ry="18.1077" fill="#021A23"/>
<ellipse cx="394.748" cy="243.4" rx="14.85" ry="13.4179" fill="#022838"/>
<ellipse cx="394.748" cy="243.4" rx="14.85" ry="13.4179" fill="#022838"/>
<ellipse cx="394.748" cy="243.4" rx="14.85" ry="13.4179" fill="#022838"/>
<ellipse cx="394.748" cy="243.4" rx="14.85" ry="13.4179" fill="#021A23"/>
<path d="M341.825 248.663C341.825 256.102 335.176 255.504 326.975 255.504C318.774 255.504 312.125 256.102 312.125 248.663C312.125 241.224 318.774 235.193 326.975 235.193C335.176 235.193 341.825 241.224 341.825 248.663Z" fill="#022838"/>
<path d="M341.825 248.663C341.825 256.102 335.176 255.504 326.975 255.504C318.774 255.504 312.125 256.102 312.125 248.663C312.125 241.224 318.774 235.193 326.975 235.193C335.176 235.193 341.825 241.224 341.825 248.663Z" fill="#022838"/>
<path d="M341.825 248.663C341.825 256.102 335.176 255.504 326.975 255.504C318.774 255.504 312.125 256.102 312.125 248.663C312.125 241.224 318.774 235.193 326.975 235.193C335.176 235.193 341.825 241.224 341.825 248.663Z" fill="#022838"/>
<path d="M341.825 248.663C341.825 256.102 335.176 255.504 326.975 255.504C318.774 255.504 312.125 256.102 312.125 248.663C312.125 241.224 318.774 235.193 326.975 235.193C335.176 235.193 341.825 241.224 341.825 248.663Z" fill="#021A23"/>
<path d="M419.86 253.782C419.86 257.427 395.02 256.663 364.757 256.663C334.493 256.663 307 257.76 307 254.116C307 250.471 333.779 246.136 364.042 246.136C394.306 246.136 419.86 250.138 419.86 253.782Z" fill="#022838"/>
<path d="M419.86 253.782C419.86 257.427 395.02 256.663 364.757 256.663C334.493 256.663 307 257.76 307 254.116C307 250.471 333.779 246.136 364.042 246.136C394.306 246.136 419.86 250.138 419.86 253.782Z" fill="#022838"/>
<path d="M419.86 253.782C419.86 257.427 395.02 256.663 364.757 256.663C334.493 256.663 307 257.76 307 254.116C307 250.471 333.779 246.136 364.042 246.136C394.306 246.136 419.86 250.138 419.86 253.782Z" fill="#022838"/>
<path d="M419.86 253.782C419.86 257.427 395.02 256.663 364.757 256.663C334.493 256.663 307 257.76 307 254.116C307 250.471 333.779 246.136 364.042 246.136C394.306 246.136 419.86 250.138 419.86 253.782Z" fill="#021A23"/>
</g>
<g opacity="0.8">
<ellipse cx="95.1266" cy="426.882" rx="42.525" ry="30.1797" fill="#022838"/>
<ellipse cx="95.1266" cy="426.882" rx="42.525" ry="30.1797" fill="#022838"/>
<ellipse cx="95.1266" cy="426.882" rx="42.525" ry="30.1797" fill="#022838"/>
<ellipse cx="95.1266" cy="426.882" rx="42.525" ry="30.1797" fill="#021A23"/>
<ellipse cx="150.25" cy="440.343" rx="24.75" ry="22.3634" fill="#022838"/>
<ellipse cx="150.25" cy="440.343" rx="24.75" ry="22.3634" fill="#022838"/>
<ellipse cx="150.25" cy="440.343" rx="24.75" ry="22.3634" fill="#022838"/>
<ellipse cx="150.25" cy="440.343" rx="24.75" ry="22.3634" fill="#021A23"/>
<path d="M62.0469 449.114C62.0469 461.512 50.9659 460.517 37.2969 460.517C23.6278 460.517 12.5469 461.512 12.5469 449.114C12.5469 436.716 23.6278 426.665 37.2969 426.665C50.9659 426.665 62.0469 436.716 62.0469 449.114Z" fill="#022838"/>
<path d="M62.0469 449.114C62.0469 461.512 50.9659 460.517 37.2969 460.517C23.6278 460.517 12.5469 461.512 12.5469 449.114C12.5469 436.716 23.6278 426.665 37.2969 426.665C50.9659 426.665 62.0469 436.716 62.0469 449.114Z" fill="#022838"/>
<path d="M62.0469 449.114C62.0469 461.512 50.9659 460.517 37.2969 460.517C23.6278 460.517 12.5469 461.512 12.5469 449.114C12.5469 436.716 23.6278 426.665 37.2969 426.665C50.9659 426.665 62.0469 436.716 62.0469 449.114Z" fill="#022838"/>
<path d="M62.0469 449.114C62.0469 461.512 50.9659 460.517 37.2969 460.517C23.6278 460.517 12.5469 461.512 12.5469 449.114C12.5469 436.716 23.6278 426.665 37.2969 426.665C50.9659 426.665 62.0469 436.716 62.0469 449.114Z" fill="#021A23"/>
<path d="M192.1 457.648C192.1 463.722 150.7 462.449 100.261 462.449C49.8214 462.449 4 464.278 4 458.203C4 452.129 48.6309 444.903 99.0704 444.903C149.51 444.903 192.1 451.573 192.1 457.648Z" fill="#022838"/>
<path d="M192.1 457.648C192.1 463.722 150.7 462.449 100.261 462.449C49.8214 462.449 4 464.278 4 458.203C4 452.129 48.6309 444.903 99.0704 444.903C149.51 444.903 192.1 451.573 192.1 457.648Z" fill="#022838"/>
<path d="M192.1 457.648C192.1 463.722 150.7 462.449 100.261 462.449C49.8214 462.449 4 464.278 4 458.203C4 452.129 48.6309 444.903 99.0704 444.903C149.51 444.903 192.1 451.573 192.1 457.648Z" fill="#022838"/>
<path d="M192.1 457.648C192.1 463.722 150.7 462.449 100.261 462.449C49.8214 462.449 4 464.278 4 458.203C4 452.129 48.6309 444.903 99.0704 444.903C149.51 444.903 192.1 451.573 192.1 457.648Z" fill="#021A23"/>
</g>
<g opacity="0.8">
<ellipse cx="250.325" cy="476.812" rx="27.216" ry="19.315" fill="#022838"/>
<ellipse cx="250.325" cy="476.812" rx="27.216" ry="19.315" fill="#022838"/>
<ellipse cx="250.325" cy="476.812" rx="27.216" ry="19.315" fill="#022838"/>
<ellipse cx="250.325" cy="476.812" rx="27.216" ry="19.315" fill="#022838"/>
<ellipse cx="285.606" cy="485.427" rx="15.84" ry="14.3126" fill="#022838"/>
<ellipse cx="285.606" cy="485.427" rx="15.84" ry="14.3126" fill="#022838"/>
<ellipse cx="285.606" cy="485.427" rx="15.84" ry="14.3126" fill="#022838"/>
<ellipse cx="285.606" cy="485.427" rx="15.84" ry="14.3126" fill="#022838"/>
<path d="M229.149 491.04C229.149 498.975 222.057 498.338 213.309 498.338C204.561 498.338 197.469 498.975 197.469 491.04C197.469 483.105 204.561 476.673 213.309 476.673C222.057 476.673 229.149 483.105 229.149 491.04Z" fill="#022838"/>
<path d="M229.149 491.04C229.149 498.975 222.057 498.338 213.309 498.338C204.561 498.338 197.469 498.975 197.469 491.04C197.469 483.105 204.561 476.673 213.309 476.673C222.057 476.673 229.149 483.105 229.149 491.04Z" fill="#022838"/>
<path d="M229.149 491.04C229.149 498.975 222.057 498.338 213.309 498.338C204.561 498.338 197.469 498.975 197.469 491.04C197.469 483.105 204.561 476.673 213.309 476.673C222.057 476.673 229.149 483.105 229.149 491.04Z" fill="#022838"/>
<path d="M229.149 491.04C229.149 498.975 222.057 498.338 213.309 498.338C204.561 498.338 197.469 498.975 197.469 491.04C197.469 483.105 204.561 476.673 213.309 476.673C222.057 476.673 229.149 483.105 229.149 491.04Z" fill="#022838"/>
<path d="M312.384 496.502C312.384 500.39 285.888 499.575 253.607 499.575C221.326 499.575 192 500.745 192 496.858C192 492.97 220.564 488.346 252.845 488.346C285.126 488.346 312.384 492.615 312.384 496.502Z" fill="#022838"/>
<path d="M312.384 496.502C312.384 500.39 285.888 499.575 253.607 499.575C221.326 499.575 192 500.745 192 496.858C192 492.97 220.564 488.346 252.845 488.346C285.126 488.346 312.384 492.615 312.384 496.502Z" fill="#022838"/>
<path d="M312.384 496.502C312.384 500.39 285.888 499.575 253.607 499.575C221.326 499.575 192 500.745 192 496.858C192 492.97 220.564 488.346 252.845 488.346C285.126 488.346 312.384 492.615 312.384 496.502Z" fill="#022838"/>
<path d="M312.384 496.502C312.384 500.39 285.888 499.575 253.607 499.575C221.326 499.575 192 500.745 192 496.858C192 492.97 220.564 488.346 252.845 488.346C285.126 488.346 312.384 492.615 312.384 496.502Z" fill="#022838"/>
</g>
<g opacity="0.95" filter="url(#filter1_f_4157_94)">
<ellipse cx="51.1411" cy="49.6676" rx="51.1411" ry="49.6676" transform="matrix(0.956963 -0.290209 0.309663 0.950846 654.07 64.6973)" fill="#D9D9D9"/>
</g>
<ellipse cx="43.0662" cy="41.8253" rx="43.0662" ry="41.8253" transform="matrix(0.956963 -0.290209 0.309663 0.950846 664.227 69.8105)" fill="#D9D9D9"/>
<ellipse cx="50.6925" cy="49.2319" rx="50.6925" ry="49.2319" transform="matrix(0.956963 -0.290209 0.309663 0.950846 668.711 57.5254)" fill="#004561"/>
</g>
<defs>
<filter id="filter0_d_4157_94" x="0" y="0" width="1394.77" height="705.896" filterUnits="userSpaceOnUse" color-interpolation-filters="sRGB">
<feFlood flood-opacity="0" result="BackgroundImageFix"/>
<feColorMatrix in="SourceAlpha" type="matrix" values="0 0 0 0 0 0 0 0 0 0 0 0 0 0 0 0 0 0 127 0" result="hardAlpha"/>
<feOffset dy="4"/>
<feGaussianBlur stdDeviation="2"/>
<feComposite in2="hardAlpha" operator="out"/>
<feColorMatrix type="matrix" values="0 0 0 0 0 0 0 0 0 0 0 0 0 0 0 0 0 0 0.25 0"/>
<feBlend mode="normal" in2="BackgroundImageFix" result="effect1_dropShadow_4157_94"/>
<feBlend mode="normal" in="SourceGraphic" in2="effect1_dropShadow_4157_94" result="shape"/>
</filter>
<filter id="filter1_f_4157_94" x="663.478" y="43.9654" width="109.825" height="106.233" filterUnits="userSpaceOnUse" color-interpolation-filters="sRGB">
<feFlood flood-opacity="0" result="BackgroundImageFix"/>
<feBlend mode="normal" in="SourceGraphic" in2="BackgroundImageFix" result="shape"/>
<feGaussianBlur stdDeviation="1.8" result="effect1_foregroundBlur_4157_94"/>
</filter>
</defs>
</svg>
