<svg width="390" height="1062" viewBox="0 0 390 1062" fill="none" xmlns="http://www.w3.org/2000/svg">
<path d="M-34.5165 423.749L-15.6036 407.723L9.6136 417.511L16.7313 430.754L-34.6182 444.915L-34.5165 423.749Z" fill="#293634"/>
<path d="M28.9332 450.193L40.7283 453.264L61.7766 482.628L52.3201 494.048L37.7796 481.285L22.8323 471.688L14.9011 467.754L-34.6182 444.915L16.6297 430.713L22.8323 433.879L28.9332 450.193Z" fill="#121B17"/>
<path d="M28.9332 450.193L40.7283 453.263L61.7766 482.628L52.3201 494.047L37.7796 481.284L22.8323 471.688L14.9011 467.754L-34.6182 444.915L28.9332 450.193Z" fill="#1B2521"/>
<path d="M23.0356 471.784L37.7796 481.284L52.3201 494.047V513.24L-34.6182 496.158V444.915L18.1549 469.193L23.0356 471.784Z" fill="#293331"/>
<path d="M52.3201 513.239L68.7926 540.588L41.0334 533.487L-34.6182 496.158L52.3201 513.239Z" fill="#202926"/>
<path d="M41.0334 533.487L25.7811 556.326L-4.62192 562.084L-10.1128 541.164L-26.992 520.052L-34.6182 496.158L41.0334 533.487Z" fill="#2B3330"/>
<path d="M41.0336 533.487L68.7928 540.588L62.4885 553.159L25.7812 556.326L41.0336 533.487Z" fill="#111A17"/>
<path d="M421.284 704.566L409.229 706.542L376.912 688.468L380.297 674.332L399.22 680.015L417.077 682.67L426.029 683.032L481.141 683.733L441.223 717.225L434.181 716.86L421.284 704.566Z" fill="#121B17"/>
<path d="M421.284 704.565L409.229 706.541L376.911 688.468L380.297 674.331L399.219 680.014L417.077 682.669L426.029 683.032L481.14 683.733L421.284 704.565Z" fill="#1B2521"/>
<path d="M416.85 682.664L399.219 680.014L380.297 674.331L371.614 656.976L457.959 637.394L481.14 683.733L422.435 683.041L416.85 682.664Z" fill="#293331"/>
<path d="M371.615 656.975L344.347 638.881L372.661 634.118L457.959 637.393L371.615 656.975Z" fill="#202926"/>
<path d="M372.661 634.118L376.122 607.319L401.01 589.863L415.439 606.568L440.253 618.858L457.959 637.393L372.661 634.118Z" fill="#2B3330"/>
<path d="M372.662 634.118L344.347 638.881L344.361 624.973L376.122 607.32L372.662 634.118Z" fill="#111A17"/>
<g opacity="0.8">
<ellipse cx="132.646" cy="134.461" rx="132.646" ry="134.461" transform="matrix(-1 0 0 1 268.017 828.244)" fill="#A5A9D6"/>
<ellipse cx="65.941" cy="99.628" rx="65.941" ry="99.628" transform="matrix(-1 0 0 1 81.5889 857.65)" fill="#A5A9D6"/>
<path d="M214.596 998.621C214.596 1073.67 262.476 1067.65 321.539 1067.65C380.602 1067.65 428.482 1073.67 428.482 998.621C428.482 923.569 380.602 862.728 321.539 862.728C262.476 862.728 214.596 923.569 214.596 998.621Z" fill="#A5A9D6"/>
<path d="M-63.5982 1045.22C-63.5982 1072.28 46.7019 1066.61 181.087 1066.61C315.472 1066.61 437.554 1074.76 437.554 1047.7C437.554 1020.64 318.644 988.445 184.259 988.445C49.8738 988.445 -63.5982 1018.16 -63.5982 1045.22Z" fill="#A5A9D6"/>
</g>
<g opacity="0.8">
<ellipse cx="133.403" cy="134.461" rx="133.403" ry="134.461" transform="matrix(-1 0 0 1 362.191 671.863)" fill="#7E84C2"/>
<ellipse cx="103.393" cy="99.576" rx="103.393" ry="99.576" transform="matrix(-1 0 0 1 203.663 766.761)" fill="#7E84C2"/>
<path d="M294.56 905.352C294.56 960.586 323.763 956.151 359.787 956.151C395.811 956.151 425.014 960.586 425.014 905.352C425.014 850.119 395.811 805.343 359.787 805.343C323.763 805.343 294.56 850.119 294.56 905.352Z" fill="#7E84C2"/>
<path d="M-48.1884 943.375C-48.1884 970.436 60.9175 964.763 193.848 964.763C326.778 964.763 447.538 972.911 447.538 945.85C447.538 918.789 329.916 886.599 196.985 886.599C64.0551 886.599 -48.1884 916.314 -48.1884 943.375Z" fill="#7E84C2"/>
</g>
<g opacity="0.8">
<ellipse cx="120.315" cy="82.992" rx="120.315" ry="82.992" transform="matrix(-1 0 0 1 334.549 898.016)" fill="#D6D8EF"/>
<ellipse cx="70.0249" cy="61.4977" rx="70.0249" ry="61.4977" transform="matrix(-1 0 0 1 128.306 956.526)" fill="#D6D8EF"/>
<path d="M307.833 1042.14C307.833 1076.24 339.184 1073.5 377.858 1073.5C416.532 1073.5 447.883 1076.24 447.883 1042.14C447.883 1008.05 416.532 980.409 377.858 980.409C339.184 980.409 307.833 1008.05 307.833 1042.14Z" fill="#D6D8EF"/>
<path d="M-60.1257 1065.61C-60.1257 1082.32 57.0056 1078.82 199.714 1078.82C342.421 1078.82 472.063 1083.84 472.063 1067.14C472.063 1050.44 345.79 1030.57 203.082 1030.57C60.3739 1030.57 -60.1257 1048.91 -60.1257 1065.61Z" fill="#D6D8EF"/>
</g>
<path d="M305.028 999.181L306.224 1001.26L308.349 1002.32L306.274 1003.59L305.161 1005.79L303.979 1003.71L301.844 1002.64L303.929 1001.37L305.028 999.181Z" fill="#EEF0FF"/>
<path d="M298.897 993.113L299.725 994.551L301.197 995.283L299.76 996.166L298.989 997.692L298.171 996.247L296.693 995.505L298.136 994.631L298.897 993.113Z" fill="#EEF0FF"/>
<path d="M312.068 989.49L312.699 990.587L313.821 991.145L312.725 991.819L312.138 992.982L311.514 991.88L310.386 991.314L311.487 990.648L312.068 989.49Z" fill="#EEF0FF"/>
<path d="M262.964 1003.85L264.16 1005.92L266.285 1006.98L264.21 1008.26L263.097 1010.46L261.915 1008.37L259.78 1007.3L261.865 1006.04L262.964 1003.85Z" fill="#EEF0FF"/>
<path d="M251.665 1035.48L250.815 1037.21L251.027 1039.17L249.309 1038.24L247.394 1038.39L248.257 1036.67L248.05 1034.7L249.763 1035.64L251.665 1035.48Z" fill="#EEF0FF"/>
<path d="M305.439 986.224L304.589 987.953L304.801 989.906L303.084 988.981L301.169 989.131L302.032 987.408L301.825 985.443L303.537 986.38L305.439 986.224Z" fill="#EEF0FF"/>
<path d="M250.37 1047.48L251.118 1048.22L252.147 1048.41L251.406 1049.21L251.182 1050.29L250.438 1049.54L249.404 1049.35L250.151 1048.55L250.37 1047.48Z" fill="#EEF0FF"/>
<path d="M239.809 1041.36L240.922 1042.46L242.452 1042.75L241.35 1043.94L241.017 1045.54L239.912 1044.43L238.373 1044.14L239.483 1042.96L239.809 1041.36Z" fill="#EEF0FF"/>
<path d="M272.169 988.943L274.376 993.648L278.766 996.335L274.068 998.684L271.278 1003.22L269.103 998.492L264.695 995.773L269.411 993.456L272.169 988.943Z" fill="#EEF0FF"/>
<path d="M390.508 288.116L394.664 290.61L399.907 289.609L397.853 293.161L400.821 296.39L395.403 296.101L391.988 299.1L390.69 295.358L385.619 293.983L390.261 291.961L390.508 288.116Z" fill="#EEF0FF"/>
<path d="M383.514 314.955L382.636 315.634L382.431 316.555L381.444 315.907L380.133 315.725L381.018 315.05L381.228 314.125L382.21 314.777L383.514 314.955Z" fill="#EEF0FF"/>
<path d="M385.657 311.973L385.05 312.443L384.908 313.08L384.224 312.632L383.316 312.506L383.929 312.038L384.075 311.397L384.755 311.849L385.657 311.973Z" fill="#EEF0FF"/>
<path d="M389.622 316.569L389.159 316.928L389.051 317.414L388.529 317.072L387.837 316.976L388.304 316.619L388.415 316.131L388.934 316.475L389.622 316.569Z" fill="#EEF0FF"/>
<path d="M374.399 299.525L373.522 300.204L373.317 301.124L372.329 300.477L371.018 300.295L371.903 299.62L372.114 298.694L373.095 299.347L374.399 299.525Z" fill="#EEF0FF"/>
<path d="M356.319 298.684L355.293 298.55L354.323 298.842L354.524 298.091L354.141 297.382L355.166 297.521L356.144 297.229L355.935 297.98L356.319 298.684Z" fill="#EEF0FF"/>
<path d="M390.245 313.703L389.22 313.569L388.249 313.861L388.451 313.11L388.068 312.401L389.093 312.54L390.071 312.248L389.862 312.999L390.245 313.703Z" fill="#EEF0FF"/>
<path d="M349.94 299.498L349.679 299.862L349.745 300.272L349.215 300.079L348.624 300.111L348.889 299.748L348.824 299.335L349.353 299.532L349.94 299.498Z" fill="#EEF0FF"/>
<path d="M351.402 294.831L351.013 295.373L351.113 295.983L350.324 295.695L349.445 295.744L349.839 295.204L349.742 294.589L350.529 294.881L351.402 294.831Z" fill="#EEF0FF"/>
<path d="M383.537 301.392L381.469 302.74L380.787 304.696L378.829 303.171L376.051 302.607L378.135 301.269L378.83 299.303L380.775 300.838L383.537 301.392Z" fill="#EEF0FF"/>
<path d="M432.398 325.695L411.644 339.544L387.799 327.063L382.356 313.131L435.099 304.682L432.398 325.695Z" fill="#293634"/>
<path d="M372.624 292.488L361.286 288.148L343.986 256.679L354.781 246.371L367.656 260.639L381.324 271.805L388.719 276.581L435.099 304.683L382.452 313.183L376.68 309.359L372.624 292.488Z" fill="#121B17"/>
<path d="M372.624 292.488L361.285 288.147L343.986 256.678L354.781 246.37L367.656 260.638L381.324 271.805L388.718 276.58L435.099 304.682L372.624 292.488Z" fill="#1B2521"/>
<path d="M381.134 271.687L367.656 260.638L354.781 246.37L357.138 227.307L441.393 253.784L435.099 304.682L385.663 274.794L381.134 271.687Z" fill="#293331"/>
<path d="M357.139 227.308L344.136 198.341L370.836 208.431L441.393 253.784L357.139 227.308Z" fill="#202926"/>
<path d="M370.836 208.431L388.791 187.415L419.696 185.022L422.581 206.401L436.753 229.217L441.393 253.784L370.836 208.431Z" fill="#2B3330"/>
<path d="M370.836 208.431L344.136 198.341L351.942 186.544L388.791 187.415L370.836 208.431Z" fill="#111A17"/>
<path d="M-20.1727 849.911L2.79372 839.634L24.0118 855.795L26.8376 870.403L-26.659 870.174L-20.1727 849.911Z" fill="#293634"/>
<path d="M32.6662 892.318L43.0458 898.433L54.3589 932.239L41.8474 940.643L31.7615 924.5L20.33 911.283L13.9149 905.38L-26.6593 870.175L26.7521 870.338L31.742 875.041L32.6662 892.318Z" fill="#121B17"/>
<path d="M32.6663 892.317L43.0459 898.431L54.359 932.237L41.8475 940.642L31.7617 924.498L20.3301 911.282L13.915 905.378L-26.6592 870.173L32.6663 892.317Z" fill="#1B2521"/>
<path d="M20.496 911.428L31.7617 924.498L41.8475 940.642L36.0546 959.039L-42.1262 919.294L-26.6592 870.173L16.5995 907.633L20.496 911.428Z" fill="#293331"/>
<path d="M36.0544 959.04L43.5896 989.684L19.1238 975.415L-42.1265 919.295L36.0544 959.04Z" fill="#202926"/>
<path d="M19.1238 975.415L-2.39023 993.207L-33.2715 990.553L-32.2206 969.024L-42.0284 944.249L-42.1265 919.295L19.1238 975.415Z" fill="#2B3330"/>
<path d="M1.40707 781.04L2.47191 785.743L1.1685 789.882L4.96477 792.649L5.60019 797.032L1.31525 804.239L3.98743 812.597L0.323246 832.993L2.80554 839.595L-23.8459 852.143L1.40707 781.04Z" fill="#192320"/>
<path d="M19.1239 975.414L43.5897 989.684L33.7522 1000.04L-2.39013 993.207L19.1239 975.414Z" fill="#111A17"/>
<path d="M285.572 221.679L289.727 225.338L294.971 223.87L292.917 229.082L295.885 233.82L290.467 233.396L287.052 237.795L285.754 232.305L280.683 230.288L285.325 227.321L285.572 221.679Z" fill="#EEF0FF"/>
<path d="M226.495 192.881L225.132 194.428L224.814 196.525L223.28 195.049L221.244 194.635L222.619 193.097L222.946 190.988L224.47 192.476L226.495 192.881Z" fill="#EEF0FF"/>
<path d="M229.824 186.085L228.88 187.156L228.66 188.608L227.598 187.587L226.188 187.299L227.14 186.235L227.366 184.774L228.422 185.804L229.824 186.085Z" fill="#EEF0FF"/>
<path d="M235.98 196.557L235.26 197.374L235.093 198.481L234.283 197.702L233.208 197.483L233.934 196.671L234.106 195.558L234.911 196.343L235.98 196.557Z" fill="#EEF0FF"/>
<path d="M212.342 157.724L210.979 159.271L210.661 161.368L209.128 159.893L207.092 159.478L208.466 157.94L208.793 155.832L210.317 157.319L212.342 157.724Z" fill="#EEF0FF"/>
<path d="M184.267 155.811L182.675 155.505L181.168 156.172L181.481 154.46L180.886 152.844L182.477 153.162L183.996 152.496L183.671 154.207L184.267 155.811Z" fill="#EEF0FF"/>
<path d="M236.947 190.025L235.355 189.72L233.848 190.387L234.161 188.675L233.567 187.059L235.157 187.377L236.676 186.711L236.351 188.421L236.947 190.025Z" fill="#EEF0FF"/>
<path d="M174.363 157.666L173.958 158.495L174.061 159.43L173.238 158.989L172.32 159.063L172.732 158.236L172.631 157.295L173.452 157.742L174.363 157.666Z" fill="#EEF0FF"/>
<path d="M176.633 147.032L176.03 148.265L176.184 149.656L174.959 149L173.595 149.11L174.207 147.881L174.056 146.481L175.278 147.146L176.633 147.032Z" fill="#EEF0FF"/>
<path d="M226.531 161.978L223.319 165.048L222.261 169.504L219.22 166.031L214.908 164.745L218.143 161.697L219.222 157.218L222.242 160.715L226.531 161.978Z" fill="#EEF0FF"/>
<path d="M280.488 591.313L284.643 593.807L289.887 592.806L287.833 596.358L290.801 599.587L285.383 599.299L281.968 602.297L280.67 598.555L275.599 597.18L280.241 595.158L280.488 591.313Z" fill="#EEF0FF"/>
<path d="M273.494 618.152L272.616 618.831L272.411 619.752L271.424 619.104L270.113 618.922L270.998 618.247L271.208 617.322L272.19 617.974L273.494 618.152Z" fill="#EEF0FF"/>
<path d="M275.637 615.17L275.03 615.64L274.888 616.277L274.204 615.829L273.296 615.703L273.909 615.235L274.055 614.594L274.735 615.046L275.637 615.17Z" fill="#EEF0FF"/>
<path d="M279.602 619.766L279.139 620.125L279.031 620.611L278.509 620.269L277.817 620.173L278.284 619.816L278.395 619.328L278.914 619.672L279.602 619.766Z" fill="#EEF0FF"/>
<path d="M264.379 602.722L263.502 603.401L263.297 604.321L262.309 603.674L260.998 603.492L261.883 602.817L262.094 601.891L263.075 602.544L264.379 602.722Z" fill="#EEF0FF"/>
<path d="M246.299 601.881L245.273 601.747L244.303 602.04L244.504 601.288L244.121 600.579L245.146 600.718L246.124 600.426L245.915 601.177L246.299 601.881Z" fill="#EEF0FF"/>
<path d="M280.225 616.9L279.2 616.766L278.229 617.058L278.431 616.307L278.048 615.598L279.073 615.737L280.051 615.445L279.842 616.196L280.225 616.9Z" fill="#EEF0FF"/>
<path d="M239.92 602.695L239.659 603.059L239.725 603.469L239.195 603.276L238.604 603.308L238.869 602.946L238.804 602.532L239.333 602.729L239.92 602.695Z" fill="#EEF0FF"/>
<path d="M241.382 598.028L240.993 598.57L241.092 599.18L240.304 598.892L239.425 598.941L239.819 598.401L239.722 597.786L240.509 598.078L241.382 598.028Z" fill="#EEF0FF"/>
<path d="M273.517 604.589L271.449 605.937L270.767 607.893L268.809 606.368L266.031 605.804L268.115 604.466L268.81 602.5L270.755 604.035L273.517 604.589Z" fill="#EEF0FF"/>
<path d="M21.2386 195.503L24.7357 198.594L29.1482 197.354L27.4194 201.757L29.917 205.759L25.3583 205.401L22.4839 209.117L21.3915 204.479L17.1244 202.775L21.0311 200.269L21.2386 195.503Z" fill="#EEF0FF"/>
<path d="M15.3527 228.77L14.6142 229.612L14.4418 230.753L13.6108 229.95L12.5074 229.724L13.2523 228.888L13.4293 227.741L14.2556 228.55L15.3527 228.77Z" fill="#EEF0FF"/>
<path d="M17.1569 225.072L16.6455 225.655L16.5261 226.445L15.9506 225.889L15.1866 225.733L15.7024 225.154L15.825 224.36L16.3972 224.92L17.1569 225.072Z" fill="#EEF0FF"/>
<path d="M20.493 230.771L20.103 231.215L20.012 231.817L19.5732 231.394L18.9906 231.275L19.3839 230.833L19.4774 230.227L19.9137 230.654L20.493 230.771Z" fill="#EEF0FF"/>
<path d="M7.68281 209.644L6.94426 210.486L6.77188 211.626L5.94086 210.824L4.83749 210.598L5.58233 209.762L5.75941 208.614L6.58572 209.423L7.68281 209.644Z" fill="#EEF0FF"/>
<path d="M21.0179 227.217L20.1552 227.051L19.3384 227.414L19.508 226.483L19.1858 225.604L20.0479 225.777L20.8708 225.414L20.695 226.345L21.0179 227.217Z" fill="#EEF0FF"/>
<path d="M15.3724 211.958L13.6318 213.629L13.058 216.053L11.4101 214.163L9.07307 213.464L10.8263 211.806L11.4114 209.368L13.048 211.271L15.3724 211.958Z" fill="#EEF0FF"/>
<path d="M395.998 410.299L400.154 412.737L405.398 411.759L403.343 415.231L406.311 418.388L400.894 418.106L397.478 421.036L396.18 417.379L391.11 416.035L395.752 414.058L395.998 410.299Z" fill="#EEF0FF"/>
<path d="M389.005 436.536L388.127 437.2L387.922 438.1L386.935 437.467L385.623 437.289L386.509 436.629L386.719 435.724L387.701 436.362L389.005 436.536Z" fill="#EEF0FF"/>
<path d="M391.148 433.62L390.54 434.08L390.399 434.703L389.715 434.264L388.807 434.141L389.42 433.684L389.565 433.058L390.245 433.5L391.148 433.62Z" fill="#EEF0FF"/>
<path d="M379.89 421.452L379.012 422.116L378.807 423.015L377.82 422.382L376.509 422.205L377.394 421.545L377.604 420.64L378.586 421.278L379.89 421.452Z" fill="#EEF0FF"/>
<path d="M361.809 420.63L360.784 420.499L359.813 420.785L360.015 420.051L359.632 419.358L360.657 419.494L361.635 419.208L361.426 419.942L361.809 420.63Z" fill="#EEF0FF"/>
<path d="M355.431 421.426L355.169 421.782L355.236 422.183L354.706 421.994L354.115 422.026L354.38 421.671L354.315 421.267L354.844 421.459L355.431 421.426Z" fill="#EEF0FF"/>
<path d="M356.892 416.864L356.504 417.393L356.603 417.99L355.814 417.708L354.936 417.756L355.33 417.228L355.233 416.628L356.02 416.913L356.892 416.864Z" fill="#EEF0FF"/>
<path d="M389.028 423.277L386.959 424.594L386.277 426.506L384.319 425.016L381.542 424.464L383.625 423.156L384.321 421.234L386.266 422.735L389.028 423.277Z" fill="#EEF0FF"/>
<path d="M387.076 135.365L387.744 136.524L388.93 137.114L387.772 137.826L387.151 139.056L386.491 137.891L385.299 137.293L386.463 136.589L387.076 135.365Z" fill="#EEF0FF"/>
<path d="M383.655 131.978L384.117 132.78L384.939 133.189L384.137 133.682L383.707 134.534L383.25 133.727L382.425 133.313L383.23 132.825L383.655 131.978Z" fill="#EEF0FF"/>
<path d="M391.006 129.957L391.358 130.569L391.985 130.881L391.373 131.257L391.045 131.906L390.697 131.291L390.068 130.975L390.682 130.603L391.006 129.957Z" fill="#EEF0FF"/>
<path d="M363.599 137.97L364.266 139.13L365.453 139.72L364.294 140.432L363.673 141.661L363.013 140.497L361.822 139.899L362.986 139.194L363.599 137.97Z" fill="#EEF0FF"/>
<path d="M357.292 155.628L356.818 156.593L356.936 157.682L355.978 157.166L354.909 157.25L355.39 156.288L355.275 155.191L356.231 155.715L357.292 155.628Z" fill="#EEF0FF"/>
<path d="M387.306 128.133L386.832 129.098L386.95 130.188L385.991 129.672L384.923 129.756L385.404 128.794L385.289 127.697L386.244 128.22L387.306 128.133Z" fill="#EEF0FF"/>
<path d="M356.569 162.323L356.987 162.736L357.561 162.841L357.148 163.289L357.023 163.891L356.608 163.474L356.031 163.366L356.447 162.922L356.569 162.323Z" fill="#EEF0FF"/>
<path d="M350.676 158.909L351.297 159.523L352.151 159.68L351.536 160.345L351.35 161.241L350.733 160.622L349.874 160.461L350.494 159.799L350.676 158.909Z" fill="#EEF0FF"/>
<path d="M368.737 129.651L369.968 132.276L372.419 133.776L369.796 135.087L368.239 137.617L367.025 134.98L364.565 133.463L367.197 132.169L368.737 129.651Z" fill="#EEF0FF"/>
<path d="M49.1735 337.102L49.9241 338.406L51.2577 339.069L49.9554 339.87L49.2571 341.252L48.5152 339.943L47.1755 339.27L48.4838 338.479L49.1735 337.102Z" fill="#EEF0FF"/>
<path d="M45.3261 333.294L45.8459 334.196L46.7694 334.656L45.8676 335.21L45.384 336.168L44.8703 335.261L43.9425 334.795L44.8485 334.247L45.3261 333.294Z" fill="#EEF0FF"/>
<path d="M53.5915 331.02L53.9878 331.709L54.692 332.059L54.0044 332.482L53.6356 333.212L53.2439 332.52L52.5365 332.165L53.2273 331.747L53.5915 331.02Z" fill="#EEF0FF"/>
<path d="M22.7751 340.031L23.5256 341.334L24.8593 341.998L23.557 342.798L22.8586 344.181L22.1168 342.871L20.777 342.199L22.0854 341.407L22.7751 340.031Z" fill="#EEF0FF"/>
<path d="M15.6841 359.886L15.1505 360.971L15.2836 362.196L14.2059 361.616L13.0041 361.71L13.5456 360.628L13.4156 359.395L14.4902 359.983L15.6841 359.886Z" fill="#EEF0FF"/>
<path d="M49.4317 328.971L48.8981 330.056L49.0312 331.281L47.9534 330.701L46.7517 330.795L47.2931 329.714L47.1632 328.481L48.2378 329.069L49.4317 328.971Z" fill="#EEF0FF"/>
<path d="M14.8714 367.414L15.341 367.878L15.9866 367.997L15.5217 368.5L15.3813 369.177L14.9147 368.708L14.2654 368.587L14.734 368.087L14.8714 367.414Z" fill="#EEF0FF"/>
<path d="M8.24371 363.575L8.94212 364.265L9.90239 364.442L9.21085 365.19L9.002 366.197L8.30803 365.5L7.34243 365.319L8.03929 364.576L8.24371 363.575Z" fill="#EEF0FF"/>
<path d="M28.5524 330.677L29.9371 333.63L32.6921 335.316L29.7438 336.79L27.9928 339.634L26.628 336.67L23.8614 334.963L26.8213 333.509L28.5524 330.677Z" fill="#EEF0FF"/>
<path d="M46.4226 541.812L47.0901 542.971L48.2763 543.562L47.1181 544.274L46.497 545.503L45.8372 544.339L44.6457 543.741L45.8093 543.036L46.4226 541.812Z" fill="#EEF0FF"/>
<path d="M43.0017 538.425L43.4639 539.228L44.2853 539.637L43.4833 540.13L43.0532 540.981L42.5963 540.175L41.7712 539.761L42.577 539.273L43.0017 538.425Z" fill="#EEF0FF"/>
<path d="M50.3526 536.405L50.705 537.017L51.3314 537.328L50.7198 537.704L50.3918 538.354L50.0435 537.738L49.4143 537.423L50.0287 537.051L50.3526 536.405Z" fill="#EEF0FF"/>
<path d="M22.9456 544.417L23.6131 545.576L24.7992 546.166L23.641 546.878L23.0199 548.108L22.3601 546.943L21.1686 546.345L22.3322 545.641L22.9456 544.417Z" fill="#EEF0FF"/>
<path d="M16.6391 562.075L16.1645 563.04L16.2829 564.13L15.3244 563.614L14.2556 563.698L14.7371 562.736L14.6216 561.639L15.5773 562.162L16.6391 562.075Z" fill="#EEF0FF"/>
<path d="M46.6527 534.581L46.1782 535.546L46.2966 536.636L45.3381 536.12L44.2693 536.203L44.7508 535.241L44.6352 534.145L45.591 534.668L46.6527 534.581Z" fill="#EEF0FF"/>
<path d="M15.9161 568.77L16.3338 569.183L16.908 569.289L16.4945 569.736L16.3696 570.338L15.9546 569.922L15.3772 569.814L15.7939 569.369L15.9161 568.77Z" fill="#EEF0FF"/>
<path d="M10.0222 565.356L10.6434 565.97L11.4974 566.128L10.8824 566.793L10.6966 567.688L10.0794 567.069L9.22065 566.908L9.84041 566.247L10.0222 565.356Z" fill="#EEF0FF"/>
<path d="M28.0836 536.098L29.3151 538.724L31.7653 540.224L29.1432 541.535L27.5859 544.064L26.3721 541.428L23.9116 539.91L26.544 538.617L28.0836 536.098Z" fill="#EEF0FF"/>
<path fill-rule="evenodd" clip-rule="evenodd" d="M29.8581 29.6646C31.2316 30.2999 31.5898 34.4861 31.5973 36.4997C24.3552 39.6989 25.2649 40.858 26.625 41.0376C27.6546 40.8503 28.8697 40.6165 30.1571 40.352C29.6377 41.3238 29.0756 42.2136 28.7444 42.293C28.7334 42.2956 28.7232 42.2981 28.7139 42.3003C28.6556 42.3142 28.6296 42.3204 28.6299 42.3226C28.6302 42.3244 28.6475 42.3236 28.6787 42.3221C29.0012 42.3071 30.8106 42.2228 30.6596 44.2096C30.5103 46.1744 24.8685 47.7053 22.0662 48.2251C20.4502 48.4633 16.6919 48.613 14.587 47.3056C13.2227 46.7865 10.1072 46.299 8.55986 48.5023C9.3395 48.5601 10.9356 49.0166 11.0829 50.3796C11.2303 51.7426 12.8669 52.451 13.6669 52.6349C13.9586 53.3166 14.424 54.8764 13.9521 55.6618C13.4803 56.4472 14.2167 56.9955 14.6438 57.1715C17.2135 57.06 22.9001 56.5908 25.0896 55.6062C27.279 54.6217 29.3634 52.228 30.132 51.1542C29.2258 53.0214 27.8837 57.0115 28.9765 59.4092L15.7662 61.1451C15.5639 58.577 10.9158 56.9559 8.58513 56.4618L7.49477 56.5496L7.53001 57.2573L7.62307 59.1254L7 59.1756L7.76123 61.8993L7.13817 61.9495L7.19315 63.0534L7.88953 64.475L7.29185 65.0347C7.32794 65.7593 8.50463 66.3579 9.08846 66.5666C11.1527 65.9504 15.0862 64.2226 15.6935 61.9232L29.5875 60.1848C30.9666 60.4229 33.9075 60.6406 35.7055 59.7607C35.8484 61.2219 35.6639 64.2006 33.783 64.4253C31.9022 64.65 34.4634 66.6745 35.9791 67.6586C36.2399 67.2728 36.4636 66.2935 35.2722 65.4632C36.3383 63.9131 38.2859 60.6478 37.5476 59.9871C38.797 59.8635 39.9235 59.4129 40.732 58.7905L51.1302 57.4895L51.0812 56.5046L41.6865 57.7391C41.7032 57.7104 41.7193 57.6815 41.7347 57.6525C41.6569 55.6293 40.0868 46.1435 38.6715 45.1945C38.9667 45.2403 39.8984 45.2029 41.2638 44.6868C42.6291 44.1708 40.2618 42.7401 38.9074 42.0892C38.6477 41.4779 38.3103 40.2776 39.0383 40.3671L41.5683 40.6782C41.5187 40.3491 40.9977 39.6392 40.7313 39.6065C40.5816 39.588 40.4018 39.4825 40.2004 39.3644C39.7156 39.0799 39.1059 38.7221 38.4898 39.3309L38.2602 38.4015C40.6115 37.6994 42.1669 37.0114 41.7647 36.4997C40.7836 35.2518 36.956 35.0344 35.1648 35.0817C35.0934 31.9732 32.7567 29.7402 31.5973 29.0122C30.4453 28.965 28.4846 29.0293 29.8581 29.6646Z" fill="#2C315A"/>
<path fill-rule="evenodd" clip-rule="evenodd" d="M375.79 440.058C377.056 440.643 377.386 444.502 377.393 446.358C370.718 449.306 371.557 450.374 372.81 450.54C373.759 450.367 374.88 450.152 376.066 449.908C375.587 450.804 375.069 451.625 374.763 451.698C374.753 451.701 374.744 451.703 374.735 451.705C374.682 451.718 374.658 451.724 374.658 451.726C374.658 451.727 374.674 451.727 374.703 451.725C375 451.711 376.668 451.634 376.529 453.465C376.391 455.276 371.191 456.687 368.608 457.166C367.119 457.385 363.655 457.523 361.715 456.318C360.458 455.84 357.586 455.391 356.16 457.421C356.879 457.475 358.35 457.895 358.486 459.151C358.621 460.408 360.13 461.061 360.867 461.23C361.136 461.858 361.565 463.296 361.13 464.02C360.695 464.744 361.374 465.249 361.768 465.411C364.136 465.308 369.377 464.876 371.395 463.969C373.413 463.061 375.334 460.855 376.042 459.865C375.207 461.586 373.97 465.263 374.977 467.473L362.802 469.073C362.616 466.706 358.332 465.212 356.184 464.756L355.179 464.837L355.211 465.489L355.297 467.211L354.723 467.257L355.424 469.768L354.85 469.814L354.901 470.831L355.543 472.142L354.992 472.657C355.025 473.325 356.109 473.877 356.648 474.069C358.55 473.501 362.175 471.909 362.735 469.79L375.538 468.188C376.809 468.408 379.521 468.609 381.179 467.798C381.311 469.144 381.141 471.89 379.407 472.097C377.674 472.304 380.034 474.17 381.431 475.077C381.672 474.721 381.878 473.819 380.78 473.053C381.762 471.625 383.557 468.615 382.877 468.006C384.029 467.892 385.068 467.477 385.813 466.903L395.396 465.704L395.35 464.796L386.692 465.934C386.707 465.907 386.722 465.881 386.736 465.855C386.664 463.99 385.217 455.247 383.913 454.373C384.185 454.415 385.044 454.38 386.302 453.905C387.56 453.429 385.379 452.11 384.13 451.51C383.891 450.947 383.58 449.841 384.251 449.923L386.583 450.21C386.537 449.907 386.057 449.252 385.811 449.222C385.673 449.205 385.508 449.108 385.322 448.999C384.875 448.737 384.313 448.407 383.745 448.968L383.533 448.11C385.701 447.463 387.135 446.829 386.764 446.358C385.86 445.207 382.332 445.007 380.681 445.051C380.615 442.186 378.462 440.128 377.393 439.457C376.331 439.413 374.524 439.472 375.79 440.058Z" fill="#2C315A"/>
<path fill-rule="evenodd" clip-rule="evenodd" d="M388.527 116.884C387.008 117.729 386.612 123.299 386.604 125.978C394.613 130.235 393.607 131.777 392.103 132.016C390.964 131.767 389.62 131.456 388.197 131.104C388.771 132.397 389.393 133.581 389.759 133.686C389.771 133.69 389.782 133.693 389.793 133.696C389.857 133.715 389.886 133.723 389.886 133.726C389.885 133.728 389.866 133.727 389.832 133.725C389.475 133.705 387.474 133.593 387.641 136.236C387.806 138.851 394.046 140.887 397.145 141.579C398.932 141.896 403.089 142.095 405.417 140.356C406.926 139.665 410.372 139.016 412.083 141.948C411.221 142.025 409.455 142.632 409.292 144.446C409.129 146.259 407.319 147.202 406.435 147.446C406.112 148.353 405.597 150.428 406.119 151.473C406.641 152.518 405.827 153.248 405.354 153.482C402.512 153.334 396.223 152.709 393.801 151.4C391.38 150.09 389.074 146.905 388.224 145.476C389.226 147.96 390.71 153.268 389.503 156.458L404.112 158.767C404.337 155.351 409.477 153.194 412.054 152.537L413.26 152.654L413.221 153.595L413.119 156.081L413.808 156.148L412.966 159.772L413.655 159.838L413.594 161.307L412.824 163.199L413.485 163.943C413.445 164.907 412.144 165.704 411.498 165.982C409.214 165.161 404.863 162.862 404.192 159.802L388.831 157.49C387.308 157.807 384.051 158.099 382.06 156.927C381.902 158.871 382.106 162.834 384.186 163.133C386.266 163.432 383.434 166.126 381.758 167.435C381.469 166.922 381.222 165.619 382.539 164.514C381.36 162.452 379.206 158.107 380.023 157.228C378.64 157.064 377.393 156.463 376.499 155.634L365 153.903L365.054 152.593L375.444 154.235C375.426 154.198 375.409 154.16 375.392 154.122C375.478 151.43 377.214 138.809 378.78 137.547C378.453 137.608 377.423 137.558 375.913 136.871C374.403 136.185 377.021 134.281 378.519 133.415C378.806 132.602 379.179 131.005 378.374 131.124L375.576 131.538C375.631 131.1 376.207 130.156 376.502 130.112C376.667 130.087 376.866 129.947 377.089 129.79C377.625 129.411 378.299 128.935 378.981 129.745L379.235 128.509C376.634 127.574 374.914 126.659 375.359 125.978C376.444 124.318 380.677 124.029 382.658 124.092C382.737 119.956 385.321 116.985 386.604 116.016C387.878 115.953 390.046 116.039 388.527 116.884Z" fill="#2C315A"/>
<path fill-rule="evenodd" clip-rule="evenodd" d="M18.9041 712.285C17.385 713.13 16.9888 718.7 16.9806 721.379C24.9902 725.635 23.9841 727.177 22.4798 727.416C21.341 727.167 19.997 726.856 18.5731 726.504C19.1476 727.797 19.7693 728.981 20.1357 729.087C20.1479 729.09 20.1591 729.094 20.1694 729.096C20.2341 729.115 20.2628 729.123 20.2623 729.126C20.2618 729.129 20.2427 729.127 20.2084 729.126C19.8516 729.106 17.8505 728.993 18.0174 731.637C18.1825 734.251 24.4223 736.288 27.5216 736.979C29.3089 737.296 33.4656 737.495 35.7936 735.756C37.3025 735.065 40.7482 734.417 42.4595 737.348C41.5972 737.425 39.832 738.032 39.669 739.846C39.5061 741.659 37.6959 742.602 36.8112 742.847C36.4886 743.754 35.9739 745.829 36.4957 746.874C37.0176 747.919 36.2032 748.648 35.7307 748.882C32.8887 748.734 26.5994 748.11 24.1779 746.8C21.7564 745.49 19.451 742.305 18.601 740.877C19.6032 743.361 21.0875 748.669 19.879 751.86L34.4893 754.169C34.7143 750.753 39.854 748.597 42.4314 747.939L43.6374 748.056L43.5984 748.998L43.4955 751.483L44.1846 751.55L43.3427 755.174L44.0318 755.241L43.9709 756.709L43.2008 758.601L43.8618 759.346C43.8219 760.31 42.5205 761.106 41.8748 761.384C39.5914 760.564 35.24 758.264 34.5694 755.204L19.2036 752.892C17.6785 753.208 14.4255 753.498 12.4367 752.327C12.2787 754.272 12.4828 758.235 14.563 758.534C16.6431 758.832 13.8105 761.526 12.1342 762.835C11.8457 762.322 11.5983 761.019 12.9159 759.914C11.7369 757.852 9.58286 753.508 10.3994 752.629C9.0175 752.464 7.77145 751.865 6.87725 751.036L-4.62278 749.305L-4.56852 747.995L5.82172 749.637C5.80331 749.599 5.78557 749.561 5.7685 749.522C5.8545 746.831 7.59106 734.21 9.15638 732.947C8.82989 733.008 7.7994 732.958 6.28936 732.272C4.77931 731.585 7.39755 729.682 8.89543 728.816C9.18266 728.002 9.55583 726.405 8.75072 726.524L5.9525 726.938C6.00743 726.5 6.58368 725.556 6.87823 725.512C7.04387 725.488 7.24272 725.348 7.46539 725.19C8.00162 724.812 8.67598 724.336 9.35735 725.146L9.61131 723.909C7.01083 722.975 5.29069 722.059 5.73553 721.379C6.82058 719.718 11.0539 719.429 13.0349 719.492C13.1139 715.356 15.6982 712.385 16.9806 711.417C18.2547 711.354 20.4231 711.439 18.9041 712.285Z" fill="#2C315A"/>
<path d="M82.6866 40.1009L83.552 41.1209L84.825 41.4878L83.814 42.3968L83.4245 43.7182L82.5657 42.6913L81.286 42.3177L82.3037 41.4154L82.6866 40.1009Z" fill="#EEF0FF"/>
<path d="M78.7102 37.3847L79.3095 38.091L80.1911 38.3451L79.4909 38.9745L79.2212 39.8896L78.6265 39.1785L77.7404 38.9198L78.4451 38.295L78.7102 37.3847Z" fill="#EEF0FF"/>
<path d="M85.5778 34.073L86.0347 34.6115L86.7069 34.8053L86.1731 35.2852L85.9674 35.983L85.514 35.4407L84.8382 35.2435L85.3756 34.767L85.5778 34.073Z" fill="#EEF0FF"/>
<path d="M64.7921 50.614L65.6574 51.634L66.9305 52.0009L65.9194 52.9098L65.53 54.2313L64.6712 53.2043L63.3915 52.8308L64.4092 51.9285L64.7921 50.614Z" fill="#EEF0FF"/>
<path d="M52.6263 61.6188L52.3334 62.6535L52.6461 63.704L51.6103 63.369L50.5741 63.644L50.8745 62.6111L50.5632 61.553L51.5976 61.8955L52.6263 61.6188Z" fill="#EEF0FF"/>
<path d="M81.6097 32.9456L81.3168 33.9802L81.6295 35.0308L80.5937 34.6958L79.5575 34.9708L79.8579 33.9379L79.5466 32.8798L80.581 33.2223L81.6097 32.9456Z" fill="#EEF0FF"/>
<path d="M57.5332 72.1127L58.0184 72.4436L58.6022 72.4442L58.276 72.9586L58.2616 73.5733L57.7784 73.2386L57.191 73.236L57.5208 72.7237L57.5332 72.1127Z" fill="#EEF0FF"/>
<path d="M51.1207 69.8153L51.8423 70.3074L52.7106 70.3083L52.2255 71.0733L52.204 71.9876L51.4854 71.4898L50.6117 71.4859L51.1022 70.7239L51.1207 69.8153Z" fill="#EEF0FF"/>
<path d="M143.372 17.913L145.056 20.274L147.736 21.3081L145.393 23.0698L144.317 25.8386L142.648 23.4637L139.955 22.4141L142.311 20.6679L143.372 17.913Z" fill="#EEF0FF"/>
<path d="M335.922 50.9324L334.319 51.6932L332.819 51.8122L333.101 52.7769L332.474 54.0056L334.077 53.2375L335.588 53.1138L335.295 52.1539L335.922 50.9324Z" fill="#EEF0FF"/>
<path d="M341.796 49.176L340.686 49.7029L339.647 49.7853L339.842 50.4533L339.408 51.3042L340.518 50.7723L341.564 50.6866L341.361 50.0219L341.796 49.176Z" fill="#EEF0FF"/>
<path d="M337.711 45.1498L336.864 45.5515L336.072 45.6143L336.221 46.1237L335.89 46.7725L336.736 46.3669L337.534 46.3016L337.379 45.7947L337.711 45.1498Z" fill="#EEF0FF"/>
<path d="M345.14 63.0884L343.536 63.8493L342.036 63.9682L342.319 64.9329L341.692 66.1616L343.294 65.3935L344.806 65.2698L344.512 64.3099L345.14 63.0884Z" fill="#EEF0FF"/>
<path d="M348.486 74.755L347.984 75.7151L346.888 76.5918L348.136 76.4628L348.923 76.8721L349.417 75.9123L350.517 75.0288L349.264 75.1647L348.486 74.755Z" fill="#EEF0FF"/>
<path d="M342.374 44.7928L341.872 45.753L340.776 46.6297L342.024 46.5006L342.811 46.91L343.305 45.9502L344.405 45.0666L343.152 45.2025L342.374 44.7928Z" fill="#EEF0FF"/>
<path d="M220.023 16.1679L218.419 16.9287L216.919 17.0477L217.201 18.0124L216.574 19.2411L218.177 18.473L219.688 18.3492L219.395 17.3893L220.023 16.1679Z" fill="#EEF0FF"/>
<path d="M250.175 23.41L251.449 24.0792L252.347 25.0305L252.669 24.31L253.63 24.0607L252.352 23.3962L251.446 22.4397L251.133 23.1654L250.175 23.41Z" fill="#EEF0FF"/>
<path d="M335.827 83.2254L335.111 83.4393L334.55 83.3459L334.474 83.8523L334.022 84.397L334.739 84.1794L335.305 84.2716L335.377 83.7665L335.827 83.2254Z" fill="#EEF0FF"/>
<path d="M343.724 82.2297L342.658 82.5479L341.824 82.409L341.71 83.1621L341.038 83.9723L342.105 83.6486L342.947 83.7857L343.053 83.0344L343.724 82.2297Z" fill="#EEF0FF"/>
<path d="M294.46 21.5935L291.055 23.4061L287.699 23.8874L288.614 25.8188L287.55 28.435L290.951 26.6079L294.332 26.1149L293.392 24.1951L294.46 21.5935Z" fill="#EEF0FF"/>
<g opacity="0.85">
<ellipse cx="8.14817" cy="8.50258" rx="8.14817" ry="8.50258" transform="matrix(-0.18979 -0.981825 0.985501 -0.169669 97.1514 458.186)" fill="#C9CCE8"/>
<path d="M106.943 442.102C108.992 443.1 110.273 444.623 109.804 445.504C109.336 446.385 108.314 444.375 106.265 443.377C104.216 442.379 101.916 442.771 102.385 441.89C102.853 441.01 104.894 441.104 106.943 442.102Z" fill="white"/>
<path d="M101.817 455.394C99.6463 454.67 98.1613 453.325 98.5001 452.392C98.839 451.458 100.137 453.318 102.307 454.042C104.478 454.766 106.699 454.08 106.361 455.014C106.022 455.948 103.988 456.118 101.817 455.394Z" fill="white"/>
<ellipse cx="1.19826" cy="1.25038" rx="1.19826" ry="1.25038" transform="matrix(-0.18979 -0.981825 0.985501 -0.169669 96.9551 451.899)" fill="white"/>
</g>
<g opacity="0.85">
<ellipse cx="6.13798" cy="6.28502" rx="6.13798" ry="6.28502" transform="matrix(0.462745 -0.886492 0.90679 0.421582 87 533.087)" fill="#C9CCE8"/>
<path d="M100.439 527.558C101.197 529.015 101.247 530.464 100.551 530.795C99.8559 531.127 100.19 529.494 99.4321 528.037C98.6745 526.58 97.1122 525.85 97.8077 525.519C98.5032 525.188 99.6812 526.101 100.439 527.558Z" fill="white"/>
<path d="M91.1096 533.371C90.1502 532.027 89.8935 530.599 90.5362 530.182C91.1789 529.764 91.0805 531.423 92.04 532.767C92.9994 534.111 94.6532 534.632 94.0105 535.049C93.3678 535.467 92.0691 534.715 91.1096 533.371Z" fill="white"/>
<ellipse cx="0.902644" cy="0.924268" rx="0.902644" ry="0.924268" transform="matrix(0.462745 -0.886492 0.90679 0.421582 89.8428 529.239)" fill="white"/>
</g>
<g opacity="0.85">
<ellipse cx="20.8203" cy="19.5019" rx="20.8203" ry="19.5019" transform="matrix(-0.984194 -0.177091 0.198025 -0.980197 148.506 578.271)" fill="#C9CCE8"/>
<path d="M118.569 543.366C122.744 539.871 127.507 538.47 129.206 540.237C130.904 542.005 125.203 542.429 121.028 545.924C116.852 549.42 115.783 554.663 114.084 552.895C112.385 551.128 114.393 546.861 118.569 543.366Z" fill="white"/>
<path d="M145.899 565.893C142.271 569.886 137.759 571.877 135.82 570.34C133.882 568.803 139.465 567.661 143.092 563.667C146.72 559.674 147.017 554.341 148.956 555.878C150.895 557.415 149.526 561.899 145.899 565.893Z" fill="white"/>
<ellipse cx="3.06181" cy="2.86793" rx="3.06181" ry="2.86793" transform="matrix(-0.984194 -0.177091 0.198025 -0.980197 133.29 573.201)" fill="white"/>
</g>
</svg>
