<svg preserveAspectRatio='none' viewBox='0 0 1920 5211' fill="none" xmlns="http://www.w3.org/2000/svg">
<path d="M-214 2064.21L-121 1980.71L3 2031.71L38 2100.71L-214.5 2174.5L-214 2064.21Z" fill="#293634"/>
<path d="M98 2202L156 2218L259.5 2371L213 2430.5L141.5 2364L68 2314L29 2293.5L-214.5 2174.5L37.5 2100.5L68 2117L98 2202Z" fill="#121B17"/>
<path d="M98 2202L156 2218L259.5 2371L213 2430.5L141.5 2364L68 2314L29 2293.5L-214.5 2174.5L98 2202Z" fill="#1B2521"/>
<path d="M69 2314.5L141.5 2364L213 2430.5V2530.5L-214.5 2441.5V2174.5L45 2301L69 2314.5Z" fill="#293331"/>
<path d="M213 2530.5L294 2673L157.5 2636L-214.5 2441.5L213 2530.5Z" fill="#202926"/>
<path d="M157.5 2636L82.5 2755L-67 2785L-94 2676L-177 2566L-214.5 2441.5L157.5 2636Z" fill="#2B3330"/>
<path d="M157.5 2636L294 2673L263 2738.5L82.5 2755L157.5 2636Z" fill="#111A17"/>
<path d="M2027.3 3527.39L1968.02 3537.68L1809.11 3443.51L1825.76 3369.86L1918.81 3399.47L2006.62 3413.3L2050.64 3415.19L2321.63 3418.84L2125.35 3593.35L2090.72 3591.45L2027.3 3527.39Z" fill="#121B17"/>
<path d="M2027.3 3527.39L1968.03 3537.68L1809.11 3443.51L1825.76 3369.86L1918.81 3399.47L2006.62 3413.3L2050.64 3415.19L2321.63 3418.84L2027.3 3527.39Z" fill="#1B2521"/>
<path d="M2005.5 3413.28L1918.81 3399.47L1825.76 3369.86L1783.07 3279.43L2207.64 3177.4L2321.63 3418.84L2032.97 3415.24L2005.5 3413.28Z" fill="#293331"/>
<path d="M1783.07 3279.43L1648.98 3185.15L1788.21 3160.33L2207.64 3177.4L1783.07 3279.43Z" fill="#202926"/>
<path d="M1788.21 3160.33L1805.23 3020.7L1927.61 2929.75L1998.56 3016.79L2120.58 3080.83L2207.64 3177.4L1788.21 3160.33Z" fill="#2B3330"/>
<path d="M1927.61 2929.75L2029.83 2800.76L2126.74 3006.04L2207.64 3177.4L2120.58 3080.83L1998.56 3016.79L1927.61 2929.75Z" fill="#1C2622"/>
<path d="M1788.21 3160.33L1648.98 3185.15L1649.05 3112.68L1805.23 3020.7L1788.21 3160.33Z" fill="#111A17"/>
<path d="M2081.95 1553.32L1979.9 1625.48L1862.65 1560.45L1835.88 1487.86L2095.23 1443.84L2081.95 1553.32Z" fill="#293634"/>
<path d="M1788.03 1380.3L1732.27 1357.68L1647.21 1193.72L1700.29 1140.01L1763.6 1214.35L1830.81 1272.53L1867.17 1297.41L2095.23 1443.84L1836.35 1488.13L1807.97 1468.2L1788.03 1380.3Z" fill="#121B17"/>
<path d="M1788.03 1380.3L1732.27 1357.68L1647.21 1193.72L1700.29 1140.01L1763.6 1214.35L1830.81 1272.53L1867.17 1297.41L2095.23 1443.84L1788.03 1380.3Z" fill="#1B2521"/>
<path d="M1829.87 1271.92L1763.6 1214.35L1700.29 1140.01L1711.88 1040.68L2126.18 1178.64L2095.23 1443.84L1852.15 1288.11L1829.87 1271.92Z" fill="#293331"/>
<path d="M1711.88 1040.68L1647.94 889.753L1779.24 942.326L2126.18 1178.63L1711.88 1040.68Z" fill="#202926"/>
<path d="M1779.24 942.326L1867.52 832.821L2019.49 820.353L2033.68 931.748L2103.37 1050.63L2126.18 1178.63L1779.24 942.326Z" fill="#2B3330"/>
<path d="M1779.24 942.326L1647.94 889.753L1686.33 828.288L1867.52 832.822L1779.24 942.326Z" fill="#111A17"/>
<path d="M-143.467 4284.7L-30.535 4231.15L73.8004 4315.36L87.6955 4391.47L-175.362 4390.27L-143.467 4284.7Z" fill="#293634"/>
<path d="M116.358 4505.65L167.397 4537.51L223.027 4713.65L161.505 4757.44L111.909 4673.33L55.6971 4604.46L24.1523 4573.7L-175.362 4390.27L87.2767 4391.12L111.813 4415.63L116.358 4505.65Z" fill="#121B17"/>
<path d="M116.358 4505.65L167.397 4537.51L223.027 4713.65L161.505 4757.44L111.909 4673.33L55.6971 4604.47L24.1523 4573.71L-175.362 4390.27L116.358 4505.65Z" fill="#1B2521"/>
<path d="M56.5132 4605.23L111.909 4673.33L161.505 4757.44L133.019 4853.3L-251.418 4646.21L-175.362 4390.27L37.353 4585.45L56.5132 4605.23Z" fill="#293331"/>
<path d="M133.019 4853.3L170.072 5012.97L49.7666 4938.62L-251.418 4646.21L133.019 4853.3Z" fill="#202926"/>
<path d="M49.7666 4938.62L-56.0237 5031.33L-207.876 5017.5L-202.708 4905.32L-250.936 4776.24L-251.418 4646.21L49.7666 4938.62Z" fill="#2B3330"/>
<path d="M-37.351 3925.85L-32.1149 3950.35L-38.5241 3971.92L-19.8568 3986.33L-16.7323 4009.17L-37.8026 4046.72L-24.6627 4090.27L-42.6805 4196.54L-30.4744 4230.94L-161.527 4296.32L-37.351 3925.85Z" fill="#192320"/>
<path d="M49.7666 4938.62L170.072 5012.97L121.698 5066.92L-56.0237 5031.33L49.7666 4938.62Z" fill="#111A17"/>
<path d="M1359.97 1975.88L1380.4 2006.49L1406.19 1994.21L1396.09 2037.81L1410.68 2077.44L1384.04 2073.9L1367.25 2110.7L1360.86 2064.78L1335.93 2047.9L1358.76 2023.08L1359.97 1975.88Z" fill="#EEF0FF"/>
<path d="M1028.97 1394.08L1022.27 1407.03L1020.7 1424.57L1013.16 1412.23L1003.15 1408.76L1009.91 1395.89L1011.52 1378.25L1019.01 1390.69L1028.97 1394.08Z" fill="#EEF0FF"/>
<path d="M1045.34 1337.23L1040.69 1346.2L1039.61 1358.34L1034.39 1349.8L1027.46 1347.39L1032.14 1338.49L1033.25 1326.27L1038.44 1334.89L1045.34 1337.23Z" fill="#EEF0FF"/>
<path d="M1075.61 1424.85L1072.07 1431.68L1071.24 1440.94L1067.26 1434.42L1061.98 1432.59L1065.54 1425.8L1066.39 1416.49L1070.35 1423.06L1075.61 1424.85Z" fill="#EEF0FF"/>
<path d="M959.372 1099.98L952.671 1112.92L951.107 1130.46L943.567 1118.12L933.556 1114.65L940.314 1101.79L941.921 1084.15L949.418 1096.59L959.372 1099.98Z" fill="#EEF0FF"/>
<path d="M821.322 1083.97L813.494 1081.41L806.083 1086.99L807.623 1072.67L804.699 1059.15L812.521 1061.81L819.988 1056.24L818.392 1070.55L821.322 1083.97Z" fill="#EEF0FF"/>
<path d="M1080.36 1370.2L1072.54 1367.64L1065.12 1373.22L1066.66 1358.9L1063.74 1345.38L1071.56 1348.04L1079.03 1342.47L1077.43 1356.78L1080.36 1370.2Z" fill="#EEF0FF"/>
<path d="M772.62 1099.48L770.626 1106.42L771.136 1114.24L767.085 1110.55L762.575 1111.17L764.599 1104.25L764.101 1096.38L768.139 1100.12L772.62 1099.48Z" fill="#EEF0FF"/>
<path d="M783.781 1010.53L780.815 1020.85L781.573 1032.48L775.549 1027L768.841 1027.92L771.85 1017.63L771.11 1005.92L777.117 1011.49L783.781 1010.53Z" fill="#EEF0FF"/>
<path d="M1029.15 1135.56L1013.35 1161.25L1008.15 1198.52L993.194 1169.46L971.989 1158.71L987.897 1133.21L993.206 1095.74L1008.06 1124.99L1029.15 1135.56Z" fill="#EEF0FF"/>
<path d="M1875.97 2531.67L1896.4 2552.53L1922.19 2544.16L1912.09 2573.87L1926.68 2600.89L1900.04 2598.47L1883.25 2623.55L1876.86 2592.25L1851.93 2580.75L1874.76 2563.83L1875.97 2531.67Z" fill="#EEF0FF"/>
<path d="M1841.58 2756.2L1837.26 2761.88L1836.25 2769.58L1831.4 2764.16L1824.95 2762.64L1829.3 2756.99L1830.34 2749.25L1835.16 2754.71L1841.58 2756.2Z" fill="#EEF0FF"/>
<path d="M1852.12 2731.25L1849.13 2735.18L1848.43 2740.51L1845.07 2736.76L1840.6 2735.71L1843.62 2731.8L1844.33 2726.43L1847.68 2730.22L1852.12 2731.25Z" fill="#EEF0FF"/>
<path d="M1871.61 2769.7L1869.33 2772.7L1868.8 2776.77L1866.24 2773.91L1862.83 2773.1L1865.13 2770.12L1865.68 2766.03L1868.23 2768.92L1871.61 2769.7Z" fill="#EEF0FF"/>
<path d="M1796.76 2627.11L1792.44 2632.79L1791.43 2640.49L1786.58 2635.07L1780.13 2633.55L1784.48 2627.9L1785.52 2620.16L1790.35 2625.62L1796.76 2627.11Z" fill="#EEF0FF"/>
<path d="M1707.85 2620.08L1702.81 2618.96L1698.03 2621.41L1699.03 2615.12L1697.14 2609.19L1702.18 2610.35L1706.99 2607.91L1705.96 2614.19L1707.85 2620.08Z" fill="#EEF0FF"/>
<path d="M1874.68 2745.71L1869.64 2744.59L1864.86 2747.04L1865.85 2740.76L1863.97 2734.82L1869.01 2735.99L1873.82 2733.55L1872.79 2739.83L1874.68 2745.71Z" fill="#EEF0FF"/>
<path d="M1676.48 2626.89L1675.2 2629.93L1675.53 2633.37L1672.92 2631.75L1670.01 2632.02L1671.32 2628.98L1671 2625.53L1673.6 2627.17L1676.48 2626.89Z" fill="#EEF0FF"/>
<path d="M1683.67 2587.85L1681.76 2592.37L1682.25 2597.48L1678.37 2595.07L1674.05 2595.48L1675.99 2590.96L1675.51 2585.82L1679.38 2588.27L1683.67 2587.85Z" fill="#EEF0FF"/>
<path d="M1841.69 2642.72L1831.52 2654L1828.17 2670.36L1818.54 2657.61L1804.88 2652.89L1815.13 2641.69L1818.55 2625.25L1828.11 2638.09L1841.69 2642.72Z" fill="#EEF0FF"/>
<path d="M1334.97 5068.14L1355.4 5089L1381.19 5080.63L1371.09 5110.35L1385.68 5137.36L1359.04 5134.94L1342.25 5160.03L1335.86 5128.73L1310.93 5117.22L1333.76 5100.31L1334.97 5068.14Z" fill="#EEF0FF"/>
<path d="M1255.76 5163.58L1251.44 5169.26L1250.43 5176.96L1245.58 5171.54L1239.13 5170.02L1243.48 5164.37L1244.52 5156.63L1249.35 5162.09L1255.76 5163.58Z" fill="#EEF0FF"/>
<path d="M1166.85 5156.55L1161.81 5155.43L1157.03 5157.88L1158.03 5151.59L1156.14 5145.66L1161.18 5146.83L1165.99 5144.38L1164.96 5150.66L1166.85 5156.55Z" fill="#EEF0FF"/>
<path d="M1135.48 5163.36L1134.2 5166.41L1134.53 5169.84L1131.92 5168.22L1129.01 5168.49L1130.32 5165.46L1130 5162L1132.6 5163.64L1135.48 5163.36Z" fill="#EEF0FF"/>
<path d="M1142.67 5124.32L1140.76 5128.85L1141.25 5133.95L1137.37 5131.54L1133.05 5131.95L1134.99 5127.44L1134.51 5122.29L1138.38 5124.74L1142.67 5124.32Z" fill="#EEF0FF"/>
<path d="M1300.69 5179.2L1290.52 5190.47L1287.17 5206.83L1277.54 5194.08L1263.88 5189.36L1274.13 5178.17L1277.55 5161.72L1287.11 5174.56L1300.69 5179.2Z" fill="#EEF0FF"/>
<path d="M92.968 1753.2L113.403 1773.59L139.187 1765.41L129.085 1794.46L143.679 1820.86L117.041 1818.5L100.245 1843.02L93.862 1812.42L68.9277 1801.18L91.7558 1784.64L92.968 1753.2Z" fill="#EEF0FF"/>
<path d="M58.5755 1972.69L54.2599 1978.24L53.2526 1985.77L48.3967 1980.47L41.9492 1978.98L46.3016 1973.46L47.3364 1965.9L52.1648 1971.23L58.5755 1972.69Z" fill="#EEF0FF"/>
<path d="M69.1172 1948.3L66.1286 1952.14L65.4311 1957.35L62.0685 1953.69L57.6037 1952.65L60.6177 1948.83L61.3342 1943.59L64.6779 1947.29L69.1172 1948.3Z" fill="#EEF0FF"/>
<path d="M88.6135 1985.89L86.3347 1988.82L85.8029 1992.79L83.2388 1990L79.8344 1989.21L82.1326 1986.3L82.6789 1982.3L85.2285 1985.12L88.6135 1985.89Z" fill="#EEF0FF"/>
<path d="M13.7557 1846.49L9.44005 1852.05L8.43279 1859.57L3.57683 1854.28L-2.87059 1852.79L1.4818 1847.27L2.51653 1839.7L7.34502 1845.04L13.7557 1846.49Z" fill="#EEF0FF"/>
<path d="M91.6767 1962.44L86.6353 1961.34L81.8624 1963.74L82.8539 1957.59L80.9708 1951.79L86.0083 1952.93L90.8173 1950.54L89.7897 1956.68L91.6767 1962.44Z" fill="#EEF0FF"/>
<path d="M58.6907 1861.76L48.5199 1872.78L45.1666 1888.78L35.5376 1876.31L21.8813 1871.69L32.1259 1860.75L35.5451 1844.67L45.1083 1857.23L58.6907 1861.76Z" fill="#EEF0FF"/>
<path d="M1902.97 3553.82L1923.4 3574.21L1949.19 3566.03L1939.09 3595.08L1953.68 3621.49L1927.04 3619.13L1910.25 3643.65L1903.86 3613.05L1878.93 3601.8L1901.76 3585.27L1902.97 3553.82Z" fill="#EEF0FF"/>
<path d="M1868.58 3773.31L1864.26 3778.87L1863.25 3786.39L1858.4 3781.1L1851.95 3779.61L1856.3 3774.09L1857.34 3766.52L1862.16 3771.86L1868.58 3773.31Z" fill="#EEF0FF"/>
<path d="M1879.12 3748.92L1876.13 3752.77L1875.43 3757.98L1872.07 3754.31L1867.6 3753.28L1870.62 3749.46L1871.33 3744.22L1874.68 3747.91L1879.12 3748.92Z" fill="#EEF0FF"/>
<path d="M1898.61 3786.51L1896.33 3789.45L1895.8 3793.42L1893.24 3790.62L1889.83 3789.84L1892.13 3786.92L1892.68 3782.93L1895.23 3785.75L1898.61 3786.51Z" fill="#EEF0FF"/>
<path d="M1823.76 3647.12L1819.44 3652.67L1818.43 3660.2L1813.58 3654.9L1807.13 3653.42L1811.48 3647.9L1812.52 3640.33L1817.35 3645.67L1823.76 3647.12Z" fill="#EEF0FF"/>
<path d="M1734.85 3640.25L1729.81 3639.15L1725.03 3641.55L1726.03 3635.4L1724.14 3629.6L1729.18 3630.74L1733.99 3628.35L1732.96 3634.49L1734.85 3640.25Z" fill="#EEF0FF"/>
<path d="M1901.68 3763.07L1896.64 3761.97L1891.86 3764.36L1892.85 3758.22L1890.97 3752.42L1896.01 3753.56L1900.82 3751.17L1899.79 3757.31L1901.68 3763.07Z" fill="#EEF0FF"/>
<path d="M1703.48 3646.91L1702.2 3649.88L1702.53 3653.24L1699.92 3651.66L1697.01 3651.92L1698.32 3648.95L1698 3645.58L1700.6 3647.18L1703.48 3646.91Z" fill="#EEF0FF"/>
<path d="M1710.67 3608.74L1708.76 3613.17L1709.25 3618.16L1705.37 3615.8L1701.05 3616.2L1702.99 3611.79L1702.51 3606.76L1706.38 3609.15L1710.67 3608.74Z" fill="#EEF0FF"/>
<path d="M1868.69 3662.39L1858.52 3673.41L1855.17 3689.4L1845.54 3676.93L1831.88 3672.32L1842.13 3661.38L1845.55 3645.3L1855.11 3657.85L1868.69 3662.39Z" fill="#EEF0FF"/>
<path d="M1859.09 1253.79L1862.37 1263.49L1868.21 1268.43L1862.51 1274.39L1859.46 1284.67L1856.21 1274.93L1850.35 1269.93L1856.08 1264.03L1859.09 1253.79Z" fill="#EEF0FF"/>
<path d="M1842.27 1225.46L1844.54 1232.18L1848.58 1235.59L1844.64 1239.72L1842.52 1246.84L1840.27 1240.09L1836.22 1236.63L1840.18 1232.55L1842.27 1225.46Z" fill="#EEF0FF"/>
<path d="M1878.42 1208.56L1880.15 1213.68L1883.23 1216.28L1880.22 1219.43L1878.61 1224.86L1876.9 1219.71L1873.8 1217.07L1876.82 1213.96L1878.42 1208.56Z" fill="#EEF0FF"/>
<path d="M1743.65 1275.59L1746.93 1285.29L1752.76 1290.22L1747.07 1296.18L1744.01 1306.47L1740.77 1296.72L1734.91 1291.72L1740.63 1285.83L1743.65 1275.59Z" fill="#EEF0FF"/>
<path d="M1712.64 1423.31L1710.3 1431.38L1710.89 1440.5L1706.17 1436.18L1700.92 1436.88L1703.28 1428.83L1702.72 1419.66L1707.42 1424.04L1712.64 1423.31Z" fill="#EEF0FF"/>
<path d="M1860.22 1193.3L1857.89 1201.37L1858.47 1210.49L1853.76 1206.17L1848.5 1206.87L1850.87 1198.83L1850.3 1189.65L1855 1194.03L1860.22 1193.3Z" fill="#EEF0FF"/>
<path d="M1709.08 1479.32L1711.13 1482.77L1713.96 1483.66L1711.92 1487.4L1711.31 1492.44L1709.27 1488.95L1706.43 1488.05L1708.48 1484.33L1709.08 1479.32Z" fill="#EEF0FF"/>
<path d="M1680.1 1450.76L1683.15 1455.89L1687.35 1457.21L1684.33 1462.77L1683.41 1470.27L1680.38 1465.09L1676.16 1463.74L1679.2 1458.21L1680.1 1450.76Z" fill="#EEF0FF"/>
<path d="M1768.91 1205.99L1774.97 1227.96L1787.02 1240.5L1774.12 1251.47L1766.47 1272.63L1760.5 1250.58L1748.4 1237.88L1761.34 1227.06L1768.91 1205.99Z" fill="#EEF0FF"/>
<path d="M193.005 2978.02L196.288 2987.72L202.12 2992.66L196.425 2998.61L193.371 3008.9L190.126 2999.15L184.267 2994.15L189.989 2988.26L193.005 2978.02Z" fill="#EEF0FF"/>
<path d="M176.182 2949.69L178.455 2956.4L182.494 2959.82L178.55 2963.95L176.435 2971.07L174.188 2964.32L170.131 2960.86L174.093 2956.78L176.182 2949.69Z" fill="#EEF0FF"/>
<path d="M212.329 2932.78L214.062 2937.9L217.142 2940.51L214.135 2943.65L212.522 2949.09L210.809 2943.94L207.715 2941.3L210.736 2938.19L212.329 2932.78Z" fill="#EEF0FF"/>
<path d="M77.5613 2999.81L80.8437 3009.51L86.6762 3014.45L80.981 3020.41L77.9269 3030.69L74.6826 3020.95L68.8235 3015.95L74.5453 3010.05L77.5613 2999.81Z" fill="#EEF0FF"/>
<path d="M46.5506 3147.53L44.2172 3155.61L44.7992 3164.72L40.0859 3160.41L34.8303 3161.11L37.1983 3153.06L36.6299 3143.89L41.3295 3148.26L46.5506 3147.53Z" fill="#EEF0FF"/>
<path d="M194.136 2917.53L191.802 2925.6L192.384 2934.71L187.671 2930.4L182.415 2931.1L184.783 2923.05L184.215 2913.88L188.915 2918.25L194.136 2917.53Z" fill="#EEF0FF"/>
<path d="M42.9945 3203.55L45.048 3207L47.8716 3207.88L45.8382 3211.62L45.2241 3216.66L43.1836 3213.18L40.3444 3212.27L42.3934 3208.55L42.9945 3203.55Z" fill="#EEF0FF"/>
<path d="M14.0115 3174.98L17.0659 3180.12L21.2653 3181.44L18.2411 3187L17.3277 3194.49L14.2928 3189.31L10.07 3187.96L13.1176 3182.43L14.0115 3174.98Z" fill="#EEF0FF"/>
<path d="M102.826 2930.22L108.881 2952.18L120.93 2964.73L108.036 2975.7L100.379 2996.86L94.41 2974.8L82.3112 2962.11L95.2553 2951.29L102.826 2930.22Z" fill="#EEF0FF"/>
<path d="M184.005 4654.02L187.288 4663.72L193.12 4668.66L187.425 4674.61L184.371 4684.9L181.126 4675.15L175.267 4670.15L180.989 4664.26L184.005 4654.02Z" fill="#EEF0FF"/>
<path d="M167.182 4625.69L169.455 4632.4L173.494 4635.82L169.55 4639.95L167.435 4647.07L165.188 4640.32L161.131 4636.86L165.093 4632.78L167.182 4625.69Z" fill="#EEF0FF"/>
<path d="M203.329 4608.78L205.062 4613.9L208.142 4616.51L205.135 4619.65L203.522 4625.09L201.809 4619.94L198.715 4617.3L201.736 4614.19L203.329 4608.78Z" fill="#EEF0FF"/>
<path d="M68.5613 4675.81L71.8437 4685.51L77.6762 4690.45L71.981 4696.41L68.9269 4706.69L65.6826 4696.95L59.8235 4691.95L65.5453 4686.05L68.5613 4675.81Z" fill="#EEF0FF"/>
<path d="M37.5506 4823.53L35.2172 4831.61L35.7992 4840.72L31.0859 4836.41L25.8303 4837.11L28.1983 4829.06L27.6299 4819.89L32.3295 4824.26L37.5506 4823.53Z" fill="#EEF0FF"/>
<path d="M185.136 4593.53L182.802 4601.6L183.384 4610.71L178.671 4606.4L173.415 4607.1L175.783 4599.05L175.215 4589.88L179.915 4594.25L185.136 4593.53Z" fill="#EEF0FF"/>
<path d="M33.9945 4879.55L36.048 4883L38.8716 4883.88L36.8382 4887.62L36.2241 4892.66L34.1836 4889.18L31.3444 4888.27L33.3934 4884.55L33.9945 4879.55Z" fill="#EEF0FF"/>
<path d="M5.01154 4850.98L8.06587 4856.12L12.2653 4857.44L9.2411 4863L8.32773 4870.49L5.29283 4865.31L1.07005 4863.96L4.1176 4858.43L5.01154 4850.98Z" fill="#EEF0FF"/>
<path d="M93.8258 4606.22L99.8815 4628.18L111.93 4640.73L99.0362 4651.7L91.3787 4672.86L85.41 4650.8L73.3112 4638.11L86.2553 4627.29L93.8258 4606.22Z" fill="#EEF0FF"/>
<path fill-rule="evenodd" clip-rule="evenodd" d="M195.4 3.5698C202.154 6.87999 203.916 28.6917 203.952 39.1838C168.341 55.853 172.814 61.8921 179.502 62.828C184.565 61.8519 190.54 60.6337 196.871 59.2558C194.316 64.3201 191.551 68.9582 189.923 69.3718C189.868 69.3855 189.818 69.3982 189.772 69.4098C189.486 69.4824 189.358 69.5147 189.36 69.5262C189.361 69.5354 189.446 69.5312 189.599 69.5237C191.185 69.4454 200.083 69.0062 199.34 79.358C198.606 89.5955 170.864 97.5718 157.084 100.28C149.138 101.522 130.657 102.301 120.307 95.4897C113.598 92.7847 98.2781 90.2448 90.6696 101.725C94.5033 102.026 102.352 104.404 103.076 111.506C103.801 118.608 111.849 122.299 115.782 123.257C117.217 126.809 119.505 134.936 117.185 139.029C114.865 143.121 118.486 145.978 120.586 146.895C133.222 146.314 161.185 143.869 171.951 138.739C182.717 133.609 192.967 121.137 196.746 115.542C192.29 125.27 185.692 146.055 191.062 158.548L126.106 167.593C125.107 154.214 102.254 145.768 90.7945 143.194L85.4329 143.652L85.6062 147.339L86.0638 157.073L83 157.334L86.7432 171.526L83.6794 171.787L83.9498 177.539L87.3741 184.946L84.4351 187.863C84.6126 191.638 90.3987 194.757 93.2695 195.844C103.421 192.633 122.766 183.629 125.749 171.647L194.049 162.592C200.823 163.834 215.303 164.975 224.152 160.385C224.855 167.999 223.948 183.519 214.699 184.69C205.451 185.861 218.045 196.409 225.498 201.537C226.78 199.526 227.88 194.424 222.022 190.098C227.264 182.021 236.841 165.008 233.21 161.565C239.359 160.921 244.902 158.57 248.878 155.323L300 148.546L299.759 143.414L253.566 149.846C253.647 149.698 253.725 149.55 253.8 149.401C253.417 138.86 245.696 89.4346 238.737 84.4898C240.189 84.7283 244.77 84.5333 251.484 81.8447C258.198 79.1561 246.557 71.7012 239.897 68.3098C238.62 65.1247 236.961 58.871 240.541 59.3373L252.982 60.9578C252.737 59.2434 250.175 55.5445 248.866 55.3739C248.129 55.278 247.245 54.7283 246.255 54.1127C243.871 52.6303 240.873 50.766 237.843 53.9381L236.714 49.0935C248.277 45.4347 255.926 41.8497 253.948 39.1838C249.124 32.6817 230.302 31.5487 221.495 31.795C221.144 15.5988 209.653 3.96388 203.952 0.170953C198.287 -0.07534 188.646 0.259619 195.4 3.5698Z" fill="#2C315A"/>
<path fill-rule="evenodd" clip-rule="evenodd" d="M1905.69 484.607C1898.22 489.011 1896.27 518.031 1896.23 531.991C1935.61 554.169 1930.67 562.204 1923.27 563.449C1917.67 562.151 1911.06 560.53 1904.06 558.696C1906.89 565.435 1909.94 571.605 1911.74 572.156C1911.8 572.174 1911.86 572.191 1911.91 572.206C1912.23 572.303 1912.37 572.346 1912.37 572.361C1912.36 572.373 1912.27 572.368 1912.1 572.358C1910.35 572.254 1900.51 571.669 1901.33 585.442C1902.14 599.063 1932.82 609.676 1948.06 613.279C1956.85 614.931 1977.29 615.968 1988.74 606.905C1996.16 603.306 2013.1 599.927 2021.52 615.201C2017.28 615.602 2008.6 618.766 2007.8 628.215C2006.99 637.664 1998.09 642.575 1993.74 643.85C1992.16 648.576 1989.63 659.389 1992.19 664.833C1994.76 670.278 1990.75 674.079 1988.43 675.299C1974.46 674.526 1943.53 671.274 1931.62 664.448C1919.71 657.623 1908.38 641.029 1904.2 633.585C1909.13 646.527 1916.42 674.182 1910.48 690.804L1982.33 702.838C1983.43 685.037 2008.7 673.801 2021.38 670.375L2027.31 670.985L2027.12 675.89L2026.61 688.841L2030 689.189L2025.86 708.07L2029.25 708.418L2028.95 716.071L2025.16 725.926L2028.41 729.807C2028.22 734.83 2021.82 738.979 2018.64 740.426C2007.41 736.154 1986.02 724.174 1982.72 708.231L1907.18 696.184C1899.69 697.836 1883.67 699.354 1873.89 693.248C1873.11 703.378 1874.11 724.028 1884.34 725.585C1894.57 727.143 1880.64 741.177 1872.4 748C1870.98 745.325 1869.76 738.536 1876.24 732.78C1870.45 722.035 1859.85 699.398 1863.87 694.818C1857.07 693.96 1850.94 690.833 1846.54 686.513L1790 677.496L1790.27 670.668L1841.36 679.225C1841.27 679.029 1841.18 678.832 1841.1 678.634C1841.52 664.608 1850.06 598.849 1857.76 592.27C1856.15 592.588 1851.08 592.328 1843.66 588.751C1836.23 585.174 1849.11 575.255 1856.47 570.743C1857.89 566.505 1859.72 558.185 1855.76 558.805L1842 560.961C1842.27 558.68 1845.11 553.759 1846.55 553.532C1847.37 553.404 1848.35 552.673 1849.44 551.854C1852.08 549.881 1855.39 547.401 1858.74 551.621L1859.99 545.176C1847.21 540.308 1838.75 535.538 1840.93 531.991C1846.27 523.34 1867.09 521.833 1876.83 522.16C1877.21 500.611 1889.92 485.131 1896.23 480.085C1902.49 479.757 1913.16 480.203 1905.69 484.607Z" fill="#2C315A"/>
<path fill-rule="evenodd" clip-rule="evenodd" d="M1803.59 2149.19C1809.82 2152.24 1811.44 2172.35 1811.48 2182.02C1778.66 2197.38 1782.78 2202.94 1788.94 2203.81C1793.61 2202.91 1799.12 2201.78 1804.95 2200.51C1802.6 2205.18 1800.05 2209.46 1798.55 2209.84C1798.5 2209.85 1798.45 2209.86 1798.41 2209.87C1798.14 2209.94 1798.03 2209.97 1798.03 2209.98C1798.03 2209.99 1798.11 2209.99 1798.25 2209.98C1799.71 2209.91 1807.91 2209.5 1807.23 2219.04C1806.55 2228.48 1780.98 2235.83 1768.28 2238.33C1760.96 2239.47 1743.92 2240.19 1734.38 2233.91C1728.2 2231.42 1714.08 2229.08 1707.07 2239.66C1710.6 2239.93 1717.84 2242.13 1718.5 2248.67C1719.17 2255.22 1726.59 2258.62 1730.21 2259.5C1731.54 2262.78 1733.65 2270.27 1731.51 2274.04C1729.37 2277.81 1732.71 2280.44 1734.64 2281.29C1746.29 2280.75 1772.06 2278.5 1781.98 2273.77C1791.9 2269.04 1801.35 2257.55 1804.83 2252.39C1800.73 2261.36 1794.65 2280.51 1799.6 2292.03L1739.73 2300.36C1738.81 2288.03 1717.75 2280.25 1707.18 2277.88L1702.24 2278.3L1702.4 2281.7L1702.82 2290.67L1700 2290.91L1703.45 2303.99L1700.63 2304.23L1700.88 2309.53L1704.03 2316.36L1701.32 2319.05C1701.49 2322.53 1706.82 2325.4 1709.47 2326.4C1718.82 2323.44 1736.65 2315.14 1739.4 2304.1L1802.35 2295.76C1808.59 2296.9 1821.94 2297.95 1830.09 2293.72C1830.74 2300.74 1829.91 2315.04 1821.38 2316.12C1812.86 2317.2 1824.46 2326.92 1831.33 2331.65C1832.52 2329.8 1833.53 2325.09 1828.13 2321.11C1832.96 2313.66 1841.79 2297.98 1838.44 2294.81C1844.11 2294.22 1849.22 2292.05 1852.88 2289.06L1900 2282.81L1899.78 2278.08L1857.2 2284.01C1857.28 2283.87 1857.35 2283.74 1857.42 2283.6C1857.07 2273.88 1849.95 2228.33 1843.54 2223.77C1844.87 2223.99 1849.1 2223.81 1855.28 2221.33C1861.47 2218.86 1850.74 2211.99 1844.61 2208.86C1843.43 2205.92 1841.9 2200.16 1845.2 2200.59L1856.67 2202.08C1856.44 2200.5 1854.08 2197.09 1852.87 2196.94C1852.19 2196.85 1851.38 2196.34 1850.47 2195.77C1848.27 2194.41 1845.5 2192.69 1842.71 2195.61L1841.67 2191.15C1852.33 2187.78 1859.38 2184.47 1857.56 2182.02C1853.11 2176.02 1835.76 2174.98 1827.64 2175.21C1827.32 2160.28 1816.73 2149.55 1811.48 2146.06C1806.26 2145.83 1797.37 2146.14 1803.59 2149.19Z" fill="#2C315A"/>
<path fill-rule="evenodd" clip-rule="evenodd" d="M48.6867 3567.61C41.217 3572.01 39.2687 3601.03 39.2283 3614.99C78.6139 3637.17 73.6664 3645.2 66.2695 3646.45C60.6703 3645.15 54.0618 3643.53 47.0603 3641.7C49.8854 3648.43 52.9433 3654.61 54.7448 3655.16C54.8048 3655.17 54.8601 3655.19 54.9109 3655.21C55.2291 3655.3 55.3703 3655.35 55.3673 3655.36C55.365 3655.37 55.2711 3655.37 55.1022 3655.36C53.348 3655.25 43.5078 3654.67 44.3288 3668.44C45.1407 3682.06 75.8236 3692.68 91.0636 3696.28C99.8523 3697.93 120.292 3698.97 131.739 3689.91C139.159 3686.31 156.103 3682.93 164.517 3698.2C160.277 3698.6 151.597 3701.77 150.796 3711.22C149.995 3720.66 141.094 3725.58 136.743 3726.85C135.157 3731.58 132.626 3742.39 135.192 3747.83C137.758 3753.28 133.753 3757.08 131.43 3758.3C117.455 3757.53 86.5286 3754.27 74.6214 3747.45C62.7142 3740.62 51.378 3724.03 47.1983 3716.59C52.126 3729.53 59.4232 3757.18 53.485 3773.8L125.326 3785.84C126.43 3768.04 151.705 3756.8 164.379 3753.38L170.309 3753.98L170.118 3758.89L169.611 3771.84L173 3772.19L168.86 3791.07L172.249 3791.42L171.95 3799.07L168.162 3808.93L171.413 3812.81C171.217 3817.83 164.817 3821.98 161.642 3823.43C150.414 3819.15 129.019 3807.17 125.72 3791.23L50.1808 3779.18C42.6894 3780.84 26.6745 3782.35 16.887 3776.25C16.1101 3786.38 17.1135 3807.03 27.3423 3808.59C37.571 3810.14 23.6422 3824.18 15.3992 3831C13.9809 3828.33 12.7641 3821.54 19.2433 3815.78C13.4455 3805.03 2.8537 3782.4 6.86899 3777.82C0.0691223 3776.96 -6.06166 3773.83 -10.4593 3769.51L-66.9998 3760.5L-66.733 3753.67L-15.6444 3762.23C-15.7337 3762.03 -15.8197 3761.83 -15.9026 3761.63C-15.4797 3747.61 -6.94054 3681.85 0.756577 3675.27C-0.848862 3675.59 -5.91603 3675.33 -13.3414 3671.75C-20.7667 3668.17 -7.89206 3658.26 -0.526566 3653.74C0.885803 3649.51 2.72078 3641.18 -1.23813 3641.8L-14.9978 3643.96C-14.7276 3641.68 -11.8941 3636.76 -10.4457 3636.53C-9.63121 3636.4 -8.65341 3635.67 -7.55849 3634.85C-4.92168 3632.88 -1.60565 3630.4 1.74483 3634.62L2.99397 3628.18C-9.79463 3623.31 -18.2542 3618.54 -16.0667 3614.99C-10.7312 3606.34 10.0853 3604.83 19.8266 3605.16C20.2146 3583.61 32.9227 3568.13 39.2283 3563.08C45.4935 3562.76 56.1563 3563.2 48.6867 3567.61Z" fill="#2C315A"/>
</svg>
