<svg width="1620" height="703" viewBox="0 0 1620 703" fill="none" xmlns="http://www.w3.org/2000/svg">
<g filter="url(#filter0_d_3219_2)">
<g filter="url(#filter1_d_3219_2)">
<path d="M1526 530.815C1423.36 529.435 1249.64 500.327 1236.18 494L1197 655.098C1267.33 693.748 1392.15 676.327 1461.85 680.928C1421.93 661.603 1380.27 614.211 1364.43 592.931C1402.45 588.79 1487.98 549.795 1526 530.815Z" fill="#9C2A55"/>
<path d="M1526 530.815C1423.36 529.435 1249.64 500.327 1236.18 494L1197 655.098C1267.33 693.748 1392.15 676.327 1461.85 680.928C1421.93 661.603 1380.27 614.211 1364.43 592.931C1402.45 588.79 1487.98 549.795 1526 530.815Z" stroke="#992049" stroke-width="3"/>
</g>
<g filter="url(#filter2_d_3219_2)">
<path d="M13 518.85C121.725 517.393 305.738 486.676 320 480L361.5 650C287.003 690.786 154.779 672.403 80.9534 677.258C123.236 656.865 167.363 606.854 184.142 584.398C143.873 580.028 53.2687 538.878 13 518.85Z" fill="#9C2A55"/>
<path d="M13 518.85C121.725 517.393 305.738 486.676 320 480L361.5 650C287.003 690.786 154.779 672.403 80.9534 677.258C123.236 656.865 167.363 606.854 184.142 584.398C143.873 580.028 53.2687 538.878 13 518.85Z" stroke="#992049" stroke-width="3"/>
</g>
<g filter="url(#filter3_d_3219_2)">
<path d="M234.157 615.196C171.74 554.018 162.848 461.036 166.203 422.193C637.347 356.644 1169.57 394.881 1376.78 422.193C1394.9 481.914 1340.71 575.746 1311.34 615.196C930.806 536.538 434.662 582.422 234.157 615.196Z" fill="#992049"/>
<path d="M234.157 615.196C171.74 554.018 162.848 461.036 166.203 422.193C637.347 356.644 1169.57 394.881 1376.78 422.193C1394.9 481.914 1340.71 575.746 1311.34 615.196C930.806 536.538 434.662 582.422 234.157 615.196Z" stroke="#7B1034" stroke-width="15"/>
</g>
<path d="M357 602C336.6 604.4 266.167 614 233.5 618.5L361.5 649L357 602Z" fill="#7F2648"/>
<path d="M1195.17 655.683C1214.9 649.959 1282.79 628.899 1314.27 619.084L1243.5 605L1181 597.5L1195.17 655.683Z" fill="#7F2648"/>
</g>
<path d="M565.64 510V454H576.36L600.2 493.52H594.52L617.96 454H628.6L628.76 510H616.6L616.52 472.64H618.76L600.04 504.08H594.2L575.08 472.64H577.8V510H565.64ZM653.966 476.56H680.926V486.64H653.966V476.56ZM654.926 499.6H685.406V510H642.046V454H684.366V464.4H654.926V499.6ZM695.718 510V454H706.438L739.478 494.32H734.278V454H747.078V510H736.438L703.318 469.68H708.518V510H695.718ZM771.928 510V464.56H754.008V454H802.808V464.56H784.888V510H771.928ZM836.199 510.96C831.773 510.96 827.666 510.24 823.879 508.8C820.146 507.36 816.893 505.333 814.119 502.72C811.399 500.107 809.266 497.04 807.719 493.52C806.226 490 805.479 486.16 805.479 482C805.479 477.84 806.226 474 807.719 470.48C809.266 466.96 811.426 463.893 814.199 461.28C816.973 458.667 820.226 456.64 823.959 455.2C827.693 453.76 831.746 453.04 836.119 453.04C840.546 453.04 844.599 453.76 848.279 455.2C852.013 456.64 855.239 458.667 857.959 461.28C860.733 463.893 862.893 466.96 864.439 470.48C865.986 473.947 866.759 477.787 866.759 482C866.759 486.16 865.986 490.027 864.439 493.6C862.893 497.12 860.733 500.187 857.959 502.8C855.239 505.36 852.013 507.36 848.279 508.8C844.599 510.24 840.573 510.96 836.199 510.96ZM836.119 499.92C838.626 499.92 840.919 499.493 842.999 498.64C845.133 497.787 846.999 496.56 848.599 494.96C850.199 493.36 851.426 491.467 852.279 489.28C853.186 487.093 853.639 484.667 853.639 482C853.639 479.333 853.186 476.907 852.279 474.72C851.426 472.533 850.199 470.64 848.599 469.04C847.053 467.44 845.213 466.213 843.079 465.36C840.946 464.507 838.626 464.08 836.119 464.08C833.613 464.08 831.293 464.507 829.159 465.36C827.079 466.213 825.239 467.44 823.639 469.04C822.039 470.64 820.786 472.533 819.879 474.72C819.026 476.907 818.599 479.333 818.599 482C818.599 484.613 819.026 487.04 819.879 489.28C820.786 491.467 822.013 493.36 823.559 494.96C825.159 496.56 827.026 497.787 829.159 498.64C831.293 499.493 833.613 499.92 836.119 499.92ZM876.499 510V454H900.739C905.753 454 910.073 454.827 913.699 456.48C917.326 458.08 920.126 460.4 922.099 463.44C924.073 466.48 925.059 470.107 925.059 474.32C925.059 478.48 924.073 482.08 922.099 485.12C920.126 488.107 917.326 490.4 913.699 492C910.073 493.6 905.753 494.4 900.739 494.4H883.699L889.459 488.72V510H876.499ZM912.099 510L898.099 489.68H911.939L926.099 510H912.099ZM889.459 490.16L883.699 484.08H900.019C904.019 484.08 907.006 483.227 908.979 481.52C910.953 479.76 911.939 477.36 911.939 474.32C911.939 471.227 910.953 468.827 908.979 467.12C907.006 465.413 904.019 464.56 900.019 464.56H883.699L889.459 458.4V490.16ZM953.728 510.96C949.248 510.96 944.954 510.373 940.848 509.2C936.741 507.973 933.434 506.4 930.928 504.48L935.328 494.72C937.728 496.427 940.554 497.84 943.808 498.96C947.114 500.027 950.448 500.56 953.808 500.56C956.368 500.56 958.421 500.32 959.968 499.84C961.568 499.307 962.741 498.587 963.488 497.68C964.234 496.773 964.608 495.733 964.608 494.56C964.608 493.067 964.021 491.893 962.848 491.04C961.674 490.133 960.128 489.413 958.208 488.88C956.288 488.293 954.154 487.76 951.808 487.28C949.514 486.747 947.194 486.107 944.848 485.36C942.554 484.613 940.448 483.653 938.528 482.48C936.608 481.307 935.034 479.76 933.808 477.84C932.634 475.92 932.048 473.467 932.048 470.48C932.048 467.28 932.901 464.373 934.608 461.76C936.368 459.093 938.981 456.987 942.448 455.44C945.968 453.84 950.368 453.04 955.648 453.04C959.168 453.04 962.634 453.467 966.048 454.32C969.461 455.12 972.474 456.347 975.088 458L971.088 467.84C968.474 466.347 965.861 465.253 963.248 464.56C960.634 463.813 958.074 463.44 955.568 463.44C953.061 463.44 951.008 463.733 949.408 464.32C947.808 464.907 946.661 465.68 945.968 466.64C945.274 467.547 944.928 468.613 944.928 469.84C944.928 471.28 945.514 472.453 946.688 473.36C947.861 474.213 949.408 474.907 951.328 475.44C953.248 475.973 955.354 476.507 957.648 477.04C959.994 477.573 962.314 478.187 964.608 478.88C966.954 479.573 969.088 480.507 971.008 481.68C972.928 482.853 974.474 484.4 975.648 486.32C976.874 488.24 977.488 490.667 977.488 493.6C977.488 496.747 976.608 499.627 974.848 502.24C973.088 504.853 970.448 506.96 966.928 508.56C963.461 510.16 959.061 510.96 953.728 510.96Z" fill="white"/>
<g opacity="0.85">
<ellipse cx="359.576" cy="385.395" rx="102.576" ry="101.395" fill="#C9CCE8"/>
<path d="M435.665 435.074C418.906 456.81 397.27 468.366 387.339 460.884C377.409 453.403 404.532 445.981 421.291 424.245C438.05 402.509 438.098 374.69 448.029 382.172C457.96 389.653 452.424 413.339 435.665 435.074Z" fill="white"/>
<path d="M281.673 344.951C295.297 321.171 315.149 306.823 326.014 312.905C336.879 318.987 311.024 329.974 297.4 353.755C283.776 377.535 287.542 405.104 276.677 399.022C265.812 392.94 268.049 368.732 281.673 344.951Z" fill="white"/>
<ellipse cx="350.529" cy="310.841" rx="15.0848" ry="14.911" fill="white"/>
</g>
<g opacity="0.85">
<ellipse cx="508.103" cy="133.853" rx="52.0819" ry="51.4819" transform="rotate(27.8597 508.103 133.853)" fill="#C9CCE8"/>
<path d="M530.471 174.207C517.791 179.988 505.337 180.041 502.654 174.327C499.972 168.612 513.908 171.716 526.588 165.936C539.268 160.155 545.891 147.679 548.573 153.394C551.256 159.108 543.151 168.427 530.471 174.207Z" fill="white"/>
<path d="M482.729 97.2143C494.488 89.7721 506.803 88.042 510.237 93.3501C513.671 98.6581 499.458 97.4555 487.7 104.898C475.942 112.34 471.091 125.609 467.657 120.301C464.223 114.993 470.971 104.657 482.729 97.2143Z" fill="white"/>
<ellipse cx="521.731" cy="98.2403" rx="7.65911" ry="7.57087" transform="rotate(27.8597 521.731 98.2403)" fill="white"/>
</g>
<g opacity="0.85">
<ellipse cx="974.094" cy="78.7679" rx="42.3715" ry="41.8834" transform="rotate(-100.339 974.094 78.7679)" fill="#C9CCE8"/>
<path d="M988.641 44.1649C998.716 49.3638 1005.02 57.2994 1002.71 61.8896C1000.41 66.4797 995.381 56.008 985.306 50.809C975.231 45.6101 963.923 47.6526 966.227 43.0624C968.531 38.4723 978.566 38.9659 988.641 44.1649Z" fill="white"/>
<path d="M963.434 113.423C952.76 109.65 945.458 102.646 947.125 97.7801C948.791 92.9141 955.172 102.606 965.846 106.38C976.519 110.153 987.443 106.579 985.777 111.445C984.111 116.311 974.108 117.197 963.434 113.423Z" fill="white"/>
<ellipse cx="944.469" cy="87.9716" rx="6.23111" ry="6.15932" transform="rotate(-100.339 944.469 87.9716)" fill="white"/>
</g>
<g opacity="0.85">
<ellipse cx="974.804" cy="311.99" rx="31.6047" ry="31.2406" transform="rotate(-63.7738 974.804 311.99)" fill="#C9CCE8"/>
<path d="M998.895 297.724C1002.62 305.315 1002.87 312.869 999.449 314.595C996.029 316.321 997.67 307.814 993.945 300.222C990.219 292.631 982.537 288.83 985.957 287.104C989.377 285.377 995.169 290.132 998.895 297.724Z" fill="white"/>
<path d="M953.018 328.015C948.3 321.011 947.038 313.571 950.198 311.396C953.359 309.221 952.875 317.863 957.593 324.867C962.31 331.87 970.443 334.583 967.283 336.758C964.122 338.933 957.736 335.018 953.018 328.015Z" fill="white"/>
<ellipse cx="952.966" cy="304.34" rx="4.64775" ry="4.5942" transform="rotate(-63.7738 952.966 304.34)" fill="white"/>
</g>
<g opacity="0.85">
<ellipse cx="1192.54" cy="379.534" rx="102.576" ry="101.395" transform="rotate(-169.205 1192.54 379.534)" fill="#C9CCE8"/>
<path d="M1127.1 316.483C1147.64 298.271 1171.05 290.972 1179.41 300.181C1187.76 309.39 1159.73 311.6 1139.19 329.813C1118.66 348.025 1113.4 375.343 1105.05 366.134C1096.7 356.925 1106.57 334.695 1127.1 316.483Z" fill="white"/>
<path d="M1261.49 433.852C1243.65 454.66 1221.47 465.036 1211.93 457.027C1202.4 449.018 1229.85 443.067 1247.69 422.259C1265.53 401.451 1266.99 373.665 1276.53 381.674C1286.06 389.683 1279.33 413.044 1261.49 433.852Z" fill="white"/>
<ellipse cx="1187.46" cy="454.463" rx="15.0848" ry="14.911" transform="rotate(-169.205 1187.46 454.463)" fill="white"/>
</g>
<path d="M829.398 374.251C822.748 365.819 816.867 353.885 813.679 346.512L722.312 327.422C712.877 331.24 697.772 341.167 699.667 349.277C701.077 355.308 694.928 366.133 688.542 374.371C685.553 378.228 686.627 383.515 691.459 384.189C707.817 386.468 736.882 384.691 745.219 384.691C755.62 384.691 753.909 377.319 769.575 384.691C778.972 389.113 806.442 384.889 826.352 382.656C829.824 382.267 831.561 376.994 829.398 374.251Z" fill="#5B619B"/>
<path d="M914 228.287C914 262.461 846.156 272.259 762.467 272.259C678.777 272.259 610.934 262.461 610.934 228.287C610.934 183.525 710.464 166.41 762.467 166.41C822.896 166.41 914 181.813 914 228.287Z" fill="#C9345A"/>
<path d="M727.962 90.4838C740.048 58.7896 784.885 58.7896 796.972 90.4837L836.973 195.381C846.191 219.554 828.339 245.468 802.468 245.468H722.465C696.594 245.468 678.742 219.554 687.96 195.381L727.962 90.4838Z" fill="#C9345A"/>
<mask id="mask0_3219_2" style="mask-type:alpha" maskUnits="userSpaceOnUse" x="610" y="166" width="304" height="106">
<path d="M914 228.024C914 262.197 846.157 271.996 762.467 271.996C678.778 271.996 610.934 262.197 610.934 228.024C610.934 183.262 710.464 166.147 762.467 166.147C822.896 166.147 914 181.55 914 228.024Z" fill="#C9345A"/>
</mask>
<g mask="url(#mask0_3219_2)">
<circle cx="653.008" cy="186.991" r="16.9785" transform="rotate(-12.362 653.008 186.991)" fill="#FFDDDD"/>
<ellipse cx="870.362" cy="189.177" rx="23.8488" ry="23.4717" transform="rotate(-12.362 870.362 189.177)" fill="#FFDDDD"/>
</g>
<path d="M884.772 238.396C884.772 258.278 830.014 265.94 762.466 265.94C694.918 265.94 640.16 258.278 640.16 238.396C640.16 218.514 694.918 208.802 762.466 208.802C830.014 208.802 884.772 218.514 884.772 238.396Z" fill="#E28EAE"/>
<path d="M674.311 113.746C651.54 114.918 644.863 83.1806 666.176 75.0778L757.977 40.178C768.723 36.0924 780.694 41.8871 784.156 52.8508L793.531 82.5435C797.472 95.0255 788.559 107.866 775.487 108.539L674.311 113.746Z" fill="#C9345A"/>
<path d="M720.074 110.72C722.444 103.612 731.396 83.9951 718.363 86.1024" stroke="#B1294C" stroke-width="7.38574" stroke-linecap="round" stroke-linejoin="round"/>
<path d="M718.369 166.203C741.258 162.955 783.092 161.938 813.82 168.192" stroke="#F1698B" stroke-width="7.38574" stroke-linecap="round" stroke-linejoin="round"/>
<path d="M688.872 67.2746C715.861 55.4258 766.416 28.042 780.898 52.7923" stroke="#F1698B" stroke-width="7.38574" stroke-linecap="round" stroke-linejoin="round"/>
<circle cx="773.394" cy="117.961" r="11.0589" transform="rotate(-12.362 773.394 117.961)" fill="#FFDDDD"/>
<ellipse cx="741.264" cy="68.9605" rx="6.1855" ry="6.1855" transform="rotate(-12.362 741.264 68.9605)" fill="#FFDDDD"/>
<ellipse cx="691.227" cy="103.885" rx="6.15027" ry="8.59279" transform="rotate(-60.0218 691.227 103.885)" fill="#FFDDDD"/>
<path d="M698.615 283.055C698.615 247.863 727.143 219.335 762.335 219.335C797.527 219.335 826.055 247.863 826.055 283.055V310.965H698.615V283.055Z" fill="#FFD9E7"/>
<path d="M797.498 325.768C801.632 328.587 817.761 340.982 839.352 332.82" stroke="#FFD9E7" stroke-width="11.0786"/>
<path d="M724.793 330.015C718.331 330.538 704.133 334.735 699.037 347.346" stroke="#E28EAE" stroke-width="11.0786"/>
<path d="M721.706 323.108C724.708 305.451 740.007 292.534 757.918 292.534H764.909C782.819 292.534 798.118 305.451 801.121 323.108C804.934 345.532 787.656 365.997 764.909 365.997H757.918C735.171 365.997 717.893 345.532 721.706 323.108Z" fill="#FFD9E7"/>
<path d="M816.444 352.436C818.65 357.65 760.032 343.361 725.036 332.191C721.224 330.974 722.022 325.913 726.022 325.779L806.965 323.077C808.94 330.45 813.548 345.59 816.444 352.436Z" fill="#9096D1"/>
<path d="M683.343 287.136C683.343 265.687 700.731 248.298 722.181 248.298H802.752C824.202 248.298 841.59 265.687 841.59 287.136C841.59 308.586 824.202 325.974 802.752 325.974H760.974H722.181C700.731 325.974 683.343 308.586 683.343 287.136Z" fill="#FFD9E7"/>
<ellipse cx="699.4" cy="280.277" rx="13.0993" ry="21.0645" transform="rotate(14.6413 699.4 280.277)" fill="#F1698B"/>
<ellipse cx="13.0993" cy="21.0645" rx="13.0993" ry="21.0645" transform="matrix(-0.967527 0.252766 0.252766 0.967527 832.708 256.586)" fill="#F1698B"/>
<path d="M718.889 267.256V267.256C731.185 278.509 750.039 278.509 762.335 267.256V267.256V267.256C774.631 278.509 793.484 278.509 805.78 267.256V267.256" stroke="#E28EAE" stroke-width="3.69287" stroke-linecap="round" stroke-linejoin="round"/>
<path d="M755.559 233.064C756.013 236.136 751.62 237.197 750.623 234.255C750.131 232.804 751.021 231.25 752.521 230.94C753.956 230.643 755.345 231.614 755.559 233.064Z" fill="#E28EAE"/>
<path d="M768.977 233.064C768.523 236.136 772.917 237.197 773.914 234.255C774.406 232.804 773.516 231.25 772.016 230.94C770.581 230.643 769.192 231.614 768.977 233.064Z" fill="#E28EAE"/>
<path d="M755.752 255.803C755.752 261.91 749.857 266.861 742.586 266.861C735.315 266.861 729.421 261.91 729.421 255.803C729.421 249.695 735.315 246.192 742.586 246.192C749.857 246.192 755.752 249.695 755.752 255.803Z" fill="white"/>
<path d="M751.275 256.196C751.275 259.541 747.975 262.254 743.903 262.254C739.831 262.254 736.53 259.541 736.53 256.196C736.53 252.85 739.831 250.931 743.903 250.931C747.975 250.931 751.275 252.85 751.275 256.196Z" fill="#C9345A"/>
<path d="M769.181 255.803C769.181 261.91 775.075 266.861 782.346 266.861C789.617 266.861 795.512 261.91 795.512 255.803C795.512 249.695 789.617 246.192 782.346 246.192C775.075 246.192 769.181 249.695 769.181 255.803Z" fill="white"/>
<ellipse cx="696.436" cy="351.177" rx="11.7172" ry="11.7172" transform="rotate(19.3407 696.436 351.177)" fill="#E28EAE"/>
<path d="M773.394 256.196C773.394 259.541 776.695 262.254 780.767 262.254C784.838 262.254 788.139 259.541 788.139 256.196C788.139 252.85 784.838 250.931 780.767 250.931C776.695 250.931 773.394 252.85 773.394 256.196Z" fill="#C9345A"/>
<ellipse cx="839.221" cy="335.19" rx="13.9553" ry="13.9553" fill="#FFD9E7"/>
<path fill-rule="evenodd" clip-rule="evenodd" d="M849.879 272.43C848.47 272.068 847.035 272.917 846.674 274.326C846.313 275.735 847.162 277.169 848.57 277.531L843.358 297.854C832.749 298.191 823.196 305.453 820.427 316.252C817.067 329.352 825.879 339.125 838.979 342.484C852.079 345.844 864.507 341.519 867.867 328.419C870.636 317.62 865.758 306.657 856.621 301.256L861.833 280.932L862.088 280.998C863.497 281.359 864.932 280.51 865.293 279.101C865.654 277.693 864.805 276.258 863.397 275.897L849.879 272.43Z" fill="#B7D6D6" fill-opacity="0.5"/>
<g style="mix-blend-mode:multiply">
<path d="M863.9 325.868C861.247 336.21 851.436 339.624 841.094 336.972C830.752 334.319 823.796 326.604 826.448 316.262C829.1 305.92 837.114 319.128 850.279 313.334C856.599 311.36 866.552 315.526 863.9 325.868Z" fill="#A977AB" fill-opacity="0.8"/>
</g>
<circle cx="852.781" cy="313.993" r="5.13448" fill="#CDABD9"/>
<circle cx="836.192" cy="323.472" r="3.02803" fill="#CDABD9"/>
<path d="M830.794 309.621C833.779 305.935 840.8 301.881 851.201 306.094" stroke="#FFF2F7" stroke-width="3.69287" stroke-linecap="round"/>
<path d="M743.903 354.938C733.281 364.386 732.054 369.043 732.054 379.162" stroke="#FFD9E7" stroke-width="11.0786"/>
<path d="M778.66 354.938C789.281 364.386 790.509 369.043 790.509 379.162" stroke="#FFD9E7" stroke-width="11.0786"/>
<path d="M701.51 384.033C701.51 380.179 704.634 377.055 708.488 377.055H736.004V387.875C736.004 389.607 734.6 391.011 732.868 391.011H708.488C704.634 391.011 701.51 387.887 701.51 384.033Z" fill="#E28EAE"/>
<path d="M821.053 384.033C821.053 380.179 817.929 377.055 814.075 377.055H786.56V387.875C786.56 389.607 787.963 391.011 789.695 391.011H814.075C817.929 391.011 821.053 387.887 821.053 384.033Z" fill="#E28EAE"/>
<path d="M204.005 354.021L207.288 363.719L213.12 368.656L207.425 374.612L204.371 384.9L201.126 375.155L195.267 370.153L200.989 364.261L204.005 354.021Z" fill="#EEF0FF"/>
<path d="M187.182 325.687L189.455 332.402L193.494 335.821L189.55 339.946L187.435 347.07L185.188 340.321L181.131 336.858L185.093 332.778L187.182 325.687Z" fill="#EEF0FF"/>
<path d="M223.329 308.782L225.062 313.902L228.142 316.509L225.135 319.654L223.522 325.086L221.809 319.94L218.715 317.299L221.736 314.188L223.329 308.782Z" fill="#EEF0FF"/>
<path d="M108.144 413.579L111.426 423.276L117.259 428.213L111.563 434.169L108.509 444.457L105.265 434.712L99.4058 429.71L105.128 423.818L108.144 413.579Z" fill="#EEF0FF"/>
<path d="M39.5533 485.799L37.2199 493.872L37.8019 502.988L33.0886 498.671L27.833 499.373L30.201 491.325L29.6326 482.15L34.3322 486.527L39.5533 485.799Z" fill="#EEF0FF"/>
<path d="M205.136 293.526L202.802 301.599L203.384 310.715L198.671 306.398L193.415 307.1L195.783 299.052L195.215 289.877L199.915 294.254L205.136 293.526Z" fill="#EEF0FF"/>
<path d="M53.9945 579.546L56.048 583L58.8716 583.884L56.8382 587.625L56.2241 592.662L54.1836 589.18L51.3444 588.273L53.3934 584.554L53.9945 579.546Z" fill="#EEF0FF"/>
<path d="M25.0115 550.984L28.0659 556.121L32.2653 557.437L29.2411 563.001L28.3277 570.492L25.2928 565.313L21.07 563.965L24.1176 558.433L25.0115 550.984Z" fill="#EEF0FF"/>
<path d="M517.184 262.881L523.24 284.848L535.288 297.395L522.394 308.362L514.737 329.524L508.768 307.467L496.669 294.771L509.613 283.953L517.184 262.881Z" fill="#EEF0FF"/>
<path d="M1446.22 390.109L1438.34 396.474L1430.96 397.469L1432.35 405.539L1429.27 415.818L1437.15 409.393L1444.58 408.358L1443.14 400.327L1446.22 390.109Z" fill="#EEF0FF"/>
<path d="M1475.11 375.414L1469.65 379.821L1464.54 380.511L1465.5 386.099L1463.36 393.217L1468.82 388.768L1473.97 388.051L1472.97 382.49L1475.11 375.414Z" fill="#EEF0FF"/>
<path d="M1455.02 341.727L1450.86 345.088L1446.96 345.614L1447.69 349.875L1446.07 355.303L1450.23 351.91L1454.15 351.363L1453.39 347.123L1455.02 341.727Z" fill="#EEF0FF"/>
<path d="M1491.55 491.798L1483.66 498.163L1476.29 499.159L1477.68 507.229L1474.59 517.508L1482.47 511.082L1489.9 510.047L1488.46 502.017L1491.55 491.798Z" fill="#EEF0FF"/>
<path d="M1508 589.397L1505.53 597.43L1500.15 604.764L1506.28 603.685L1510.15 607.109L1512.58 599.08L1517.99 591.688L1511.83 592.825L1508 589.397Z" fill="#EEF0FF"/>
<path d="M1477.95 338.744L1475.48 346.776L1470.09 354.11L1476.23 353.031L1480.1 356.456L1482.52 348.426L1487.93 341.035L1481.78 342.171L1477.95 338.744Z" fill="#EEF0FF"/>
<path d="M876.312 99.2789L868.428 105.644L861.052 106.639L862.44 114.709L859.357 124.988L867.236 118.563L874.669 117.528L873.225 109.497L876.312 99.2789Z" fill="#EEF0FF"/>
<path d="M1024.58 159.863L1030.84 165.462L1035.26 173.42L1036.84 167.393L1041.57 165.308L1035.29 159.748L1030.83 151.747L1029.29 157.818L1024.58 159.863Z" fill="#EEF0FF"/>
<path d="M1445.76 660.259L1442.23 662.049L1439.47 661.267L1439.1 665.503L1436.88 670.061L1440.41 668.24L1443.19 669.011L1443.54 664.785L1445.76 660.259Z" fill="#EEF0FF"/>
<path d="M1484.58 651.933L1479.34 654.595L1475.24 653.433L1474.68 659.733L1471.38 666.511L1476.63 663.803L1480.77 664.951L1481.29 658.666L1484.58 651.933Z" fill="#EEF0FF"/>
<path d="M1242.34 144.67L1225.6 159.833L1209.09 163.86L1213.59 180.018L1208.36 201.905L1225.09 186.619L1241.71 182.495L1237.09 166.435L1242.34 144.67Z" fill="#EEF0FF"/>
<ellipse cx="761" cy="397" rx="86" ry="11" fill="url(#paint0_radial_3219_2)" fill-opacity="0.3"/>
<defs>
<filter id="filter0_d_3219_2" x="8.33203" y="378.5" width="1522.34" height="312" filterUnits="userSpaceOnUse" color-interpolation-filters="sRGB">
<feFlood flood-opacity="0" result="BackgroundImageFix"/>
<feColorMatrix in="SourceAlpha" type="matrix" values="0 0 0 0 0 0 0 0 0 0 0 0 0 0 0 0 0 0 127 0" result="hardAlpha"/>
<feOffset dy="4"/>
<feGaussianBlur stdDeviation="2"/>
<feComposite in2="hardAlpha" operator="out"/>
<feColorMatrix type="matrix" values="0 0 0 0 0 0 0 0 0 0 0 0 0 0 0 0 0 0 0.25 0"/>
<feBlend mode="normal" in2="BackgroundImageFix" result="effect1_dropShadow_3219_2"/>
<feBlend mode="normal" in="SourceGraphic" in2="effect1_dropShadow_3219_2" result="shape"/>
</filter>
<filter id="filter1_d_3219_2" x="1191.27" y="491.862" width="339.399" height="198.638" filterUnits="userSpaceOnUse" color-interpolation-filters="sRGB">
<feFlood flood-opacity="0" result="BackgroundImageFix"/>
<feColorMatrix in="SourceAlpha" type="matrix" values="0 0 0 0 0 0 0 0 0 0 0 0 0 0 0 0 0 0 127 0" result="hardAlpha"/>
<feOffset dy="4"/>
<feGaussianBlur stdDeviation="2"/>
<feComposite in2="hardAlpha" operator="out"/>
<feColorMatrix type="matrix" values="0 0 0 0 0 0 0 0 0 0 0 0 0 0 0 0 0 0 0.25 0"/>
<feBlend mode="normal" in2="BackgroundImageFix" result="effect1_dropShadow_3219_2"/>
<feBlend mode="normal" in="SourceGraphic" in2="effect1_dropShadow_3219_2" result="shape"/>
</filter>
<filter id="filter2_d_3219_2" x="8.33203" y="477.865" width="358.898" height="208.969" filterUnits="userSpaceOnUse" color-interpolation-filters="sRGB">
<feFlood flood-opacity="0" result="BackgroundImageFix"/>
<feColorMatrix in="SourceAlpha" type="matrix" values="0 0 0 0 0 0 0 0 0 0 0 0 0 0 0 0 0 0 127 0" result="hardAlpha"/>
<feOffset dy="4"/>
<feGaussianBlur stdDeviation="2"/>
<feComposite in2="hardAlpha" operator="out"/>
<feColorMatrix type="matrix" values="0 0 0 0 0 0 0 0 0 0 0 0 0 0 0 0 0 0 0.25 0"/>
<feBlend mode="normal" in2="BackgroundImageFix" result="effect1_dropShadow_3219_2"/>
<feBlend mode="normal" in="SourceGraphic" in2="effect1_dropShadow_3219_2" result="shape"/>
</filter>
<filter id="filter3_d_3219_2" x="154.095" y="378.5" width="1237.81" height="253.008" filterUnits="userSpaceOnUse" color-interpolation-filters="sRGB">
<feFlood flood-opacity="0" result="BackgroundImageFix"/>
<feColorMatrix in="SourceAlpha" type="matrix" values="0 0 0 0 0 0 0 0 0 0 0 0 0 0 0 0 0 0 127 0" result="hardAlpha"/>
<feOffset dy="4"/>
<feGaussianBlur stdDeviation="2"/>
<feComposite in2="hardAlpha" operator="out"/>
<feColorMatrix type="matrix" values="0 0 0 0 0 0 0 0 0 0 0 0 0 0 0 0 0 0 0.25 0"/>
<feBlend mode="normal" in2="BackgroundImageFix" result="effect1_dropShadow_3219_2"/>
<feBlend mode="normal" in="SourceGraphic" in2="effect1_dropShadow_3219_2" result="shape"/>
</filter>
<radialGradient id="paint0_radial_3219_2" cx="0" cy="0" r="1" gradientUnits="userSpaceOnUse" gradientTransform="translate(761 397) rotate(90) scale(11 86)">
<stop stop-color="#1E1E1E"/>
<stop offset="1" stop-color="#1E1E1E" stop-opacity="0"/>
</radialGradient>
</defs>
</svg>
