<svg width="130" height="268" viewBox="0 0 130 268" fill="none" xmlns="http://www.w3.org/2000/svg">
<path fill-rule="evenodd" clip-rule="evenodd" d="M115.687 4.60699C108.217 9.01115 106.269 38.0314 106.228 51.9911C145.614 74.1692 140.666 82.2042 133.27 83.4494C127.67 82.1507 121.062 80.5298 114.06 78.6965C116.885 85.4345 119.943 91.6055 121.745 92.1558C121.805 92.1741 121.86 92.1909 121.911 92.2064C122.229 92.3032 122.37 92.3462 122.367 92.3614C122.365 92.3735 122.271 92.3679 122.102 92.3579C120.348 92.2537 110.508 91.6694 111.329 105.442C112.141 119.063 142.824 129.676 158.064 133.279C166.852 134.931 187.292 135.968 198.739 126.905C206.159 123.306 223.103 119.927 231.517 135.201C227.277 135.602 218.597 138.766 217.796 148.215C216.995 157.664 208.094 162.575 203.743 163.85C202.157 168.576 199.626 179.389 202.192 184.833C204.758 190.278 200.753 194.079 198.43 195.299C184.455 194.526 153.529 191.274 141.621 184.448C129.714 177.623 118.378 161.029 114.198 153.585C119.126 166.527 126.423 194.182 120.485 210.804L192.326 222.838C193.43 205.037 218.705 193.801 231.379 190.375L237.309 190.985L237.118 195.89L236.611 208.841L240 209.189L235.86 228.07L239.249 228.418L238.95 236.071L235.162 245.926L238.413 249.807C238.217 254.83 231.817 258.979 228.642 260.426C217.414 256.154 196.019 244.174 192.72 228.231L117.181 216.184C109.689 217.836 93.6745 219.354 83.887 213.248C83.1101 223.378 84.1135 244.028 94.3423 245.585C104.571 247.143 90.6422 261.177 82.3992 268C80.9809 265.325 79.7641 258.536 86.2433 252.78C80.4455 242.035 69.8537 219.398 73.869 214.818C67.0691 213.96 60.9383 210.833 56.5407 206.513L0.000183105 197.496L0.266983 190.668L51.3556 199.225C51.2663 199.029 51.1803 198.832 51.0974 198.634C51.5203 184.608 60.0595 118.849 67.7566 112.27C66.1511 112.588 61.084 112.328 53.6586 108.751C46.2333 105.174 59.1079 95.255 66.4734 90.7428C67.8858 86.5051 69.7208 78.1846 65.7619 78.805L52.0022 80.9611C52.2724 78.6801 55.1059 73.7587 56.5543 73.5318C57.3688 73.4041 58.3466 72.6727 59.4415 71.8537C62.0783 69.8814 65.3943 67.401 68.7448 71.6215L69.994 65.1757C57.2054 60.3078 48.7458 55.538 50.9333 51.9911C56.2688 43.34 77.0853 41.8327 86.8266 42.1604C87.2146 20.6114 99.9227 5.1313 106.228 0.0848529C112.493 -0.242838 123.156 0.202822 115.687 4.60699Z" fill="#2C315A"/>
</svg>
