<svg width="217" height="202" viewBox="0 0 217 202" fill="none" xmlns="http://www.w3.org/2000/svg">
<path fill-rule="evenodd" clip-rule="evenodd" d="M112.4 3.5698C119.154 6.87999 120.916 28.6917 120.952 39.1838C85.341 55.853 89.8143 61.8921 96.5024 62.828C101.565 61.8519 107.54 60.6337 113.871 59.2558C111.316 64.3201 108.551 68.9582 106.923 69.3718C106.868 69.3855 106.818 69.3982 106.772 69.4098C106.486 69.4824 106.358 69.5147 106.36 69.5262C106.361 69.5354 106.446 69.5312 106.599 69.5237C108.185 69.4454 117.083 69.0062 116.34 79.358C115.606 89.5955 87.8637 97.5718 74.0842 100.28C66.1377 101.522 47.6572 102.301 37.3068 95.4897C30.5979 92.7847 15.2781 90.2448 7.66961 101.725C11.5033 102.026 19.3518 104.404 20.0762 111.506C20.8007 118.608 28.8488 122.299 32.7822 123.257C34.2165 126.809 36.5051 134.936 34.1848 139.029C31.8646 143.121 35.4857 145.978 37.5862 146.895C50.2218 146.314 78.1846 143.869 88.9507 138.739C99.7169 133.609 109.967 121.137 113.746 115.542C109.29 125.27 102.692 146.055 108.062 158.548L43.1056 167.593C42.1071 154.214 19.2543 145.768 7.79453 143.194L2.4329 143.652L2.60622 147.339L3.06379 157.073L0 157.334L3.7432 171.526L0.679414 171.787L0.949792 177.539L4.37408 184.946L1.43509 187.863C1.61257 191.638 7.39867 194.757 10.2695 195.844C20.4211 192.633 39.7659 183.629 42.7492 171.647L111.049 162.592C117.823 163.834 132.303 164.975 141.152 160.385C141.855 167.999 140.948 183.519 131.699 184.69C122.451 185.861 135.045 196.409 142.498 201.537C143.78 199.526 144.88 194.424 139.022 190.098C144.264 182.021 153.841 165.008 150.21 161.565C156.359 160.921 161.902 158.57 165.878 155.323L217 148.546L216.759 143.414L170.566 149.846C170.647 149.698 170.725 149.55 170.8 149.401C170.417 138.86 162.696 89.4346 155.737 84.4898C157.189 84.7283 161.77 84.5333 168.484 81.8447C175.198 79.1561 163.557 71.7012 156.897 68.3098C155.62 65.1247 153.961 58.871 157.541 59.3373L169.982 60.9578C169.737 59.2434 167.175 55.5445 165.866 55.3739C165.129 55.278 164.245 54.7283 163.255 54.1127C160.871 52.6303 157.873 50.766 154.843 53.9381L153.714 49.0935C165.277 45.4347 172.926 41.8497 170.948 39.1838C166.124 32.6817 147.302 31.5487 138.495 31.795C138.144 15.5988 126.653 3.96388 120.952 0.170953C115.287 -0.07534 105.646 0.259619 112.4 3.5698Z" fill="#2C315A"/>
</svg>
