<svg width="1250" height="2606" viewBox="0 0 1250 2606" fill="none" xmlns="http://www.w3.org/2000/svg">
<path d="M153.02 1510.4C149.778 1458.62 212.259 1430.25 249.132 1466.8L486.01 1701.33C514.131 1729.12 505.622 1776.53 469.64 1792.9L253.346 1891.12C217.365 1907.49 176.116 1882.69 173.604 1843.23L153.02 1510.4Z" fill="#C9345A"/>
<path d="M117.362 1639.66C65.9016 1666.33 17.116 1599.87 57.9598 1558.71L160.556 1455.3C183.409 1432.28 220.93 1433.18 242.648 1457.33L265.907 1483.26C290.624 1510.73 282.682 1554.17 249.861 1571.19L117.362 1639.66Z" fill="#C9345A"/>
<path d="M161.526 1621.52C160.959 1621.76 160.392 1621.92 159.743 1622C156.664 1622.33 153.827 1620.06 153.503 1616.98C153.26 1614.87 153.098 1612.44 152.936 1609.6C152.369 1602.39 151.72 1593.48 150.1 1585.78C147.831 1575.41 144.994 1573.06 143.86 1572.49C142.077 1571.6 139.159 1573.06 137.133 1574.43C134.54 1576.14 131.055 1575.49 129.273 1572.89C127.571 1570.3 128.219 1566.82 130.812 1565.03C135.351 1562.03 142.158 1559.12 148.803 1562.28C160.23 1567.87 162.58 1587.4 164.119 1608.63C164.282 1611.39 164.525 1613.74 164.687 1615.6C165.092 1618.28 163.714 1620.55 161.526 1621.52Z" fill="#B1294C"/>
<path d="M395.572 1650.68C395.248 1650.85 394.843 1650.93 394.519 1651.01C332.848 1665.19 252.457 1702.79 208.128 1730.99C205.535 1732.69 201.969 1731.88 200.348 1729.29C198.647 1726.7 199.457 1723.13 202.05 1721.51C224.741 1707.01 256.022 1690.64 287.952 1676.37C314.371 1664.62 353.837 1648.74 391.925 1639.99C395.005 1639.26 398.003 1641.2 398.652 1644.2C399.381 1646.96 398.003 1649.55 395.572 1650.68Z" fill="#F1698B"/>
<path d="M62.0916 1564.38C60.1466 1565.27 57.7154 1564.94 56.0136 1563.4C53.6635 1561.3 53.5014 1557.73 55.6084 1555.46C60.4708 1550.03 65.9004 1543.79 71.5732 1537.23C93.2106 1512.27 120.197 1481.15 147.426 1460.24C162.742 1448.49 176.357 1441.2 189.161 1438.04C204.478 1434.23 218.173 1436.5 230.005 1444.84C232.517 1446.63 233.166 1450.19 231.383 1452.7C229.6 1455.22 226.034 1455.86 223.522 1454.08C183.326 1425.72 121.25 1497.36 80.2444 1544.68C74.4906 1551.33 69.142 1557.57 64.1175 1563.08C63.4692 1563.57 62.8209 1564.05 62.0916 1564.38Z" fill="#F1698B"/>
<path d="M264.854 1584.88C277.968 1584.88 288.598 1574.25 288.598 1561.13C288.598 1548.02 277.968 1537.39 264.854 1537.39C251.74 1537.39 241.109 1548.02 241.109 1561.13C241.109 1574.25 251.74 1584.88 264.854 1584.88Z" fill="#FFDDDD"/>
<path d="M171.269 1526.57C177.148 1522.18 178.351 1513.85 173.957 1507.97C169.562 1502.09 161.234 1500.89 155.355 1505.28C149.477 1509.68 148.273 1518 152.668 1523.88C157.062 1529.76 165.39 1530.96 171.269 1526.57Z" fill="#FFDDDD"/>
<path d="M115.18 1630.39C115.887 1623.13 108.262 1616.45 98.15 1615.46C88.038 1614.48 79.2678 1619.57 78.561 1626.83C77.8542 1634.09 85.4784 1640.77 95.5905 1641.76C105.703 1642.74 114.473 1637.65 115.18 1630.39Z" fill="#FFDDDD"/>
<path d="M583.744 1663.98C579.449 1677.19 567.86 1687.4 553.111 1689.18C532.932 1691.61 514.536 1677.27 512.105 1657.01C510.971 1647.69 513.483 1638.69 518.426 1631.56C449.624 1608.3 365.991 1605.87 300.674 1613.81C246.945 1620.38 170.849 1642.34 108.691 1679.29C112.824 1683.91 115.661 1689.83 116.471 1696.47C118.578 1713.74 106.26 1729.38 88.9989 1731.48C76.1137 1733.02 64.1198 1726.62 58.0419 1716.09C19.4672 1750.93 -4.76356 1794.37 1.47647 1846.07C14.4428 1952.64 162.583 1965.69 340.707 1944.05C518.912 1922.41 659.597 1874.36 646.63 1767.71C641.12 1722 617.537 1688.29 583.744 1663.98Z" fill="#C9345A"/>
<path d="M88.9961 1731.4C106.257 1729.29 118.494 1713.65 116.468 1696.39C115.658 1689.75 112.822 1683.83 108.689 1679.21C90.2927 1690.15 73.0313 1702.39 58.0391 1716C64.198 1726.54 76.1919 1733.02 88.9961 1731.4Z" fill="#FFDDDD"/>
<path d="M553.109 1689.18C567.777 1687.4 579.366 1677.19 583.742 1663.98C564.697 1650.28 542.493 1639.67 518.424 1631.56C513.4 1638.69 510.968 1647.69 512.103 1657.01C514.534 1677.27 532.93 1691.61 553.109 1689.18Z" fill="#FFDDDD"/>
<path d="M501.648 2043.97C483.658 2027.93 465.829 2000.86 456.266 1984.49L256.829 1967.47C237.703 1978.01 208.124 2003.05 214.283 2019.82C219.226 2033.44 206.584 2061.48 193.942 2081.17C189.89 2087.41 192.402 2095.51 199.858 2096C233.895 2098.19 301.562 2085.71 320.363 2083.44C342.487 2080.76 336.977 2065.53 372.229 2077.12C394.433 2084.49 456.753 2066.26 498.893 2056.61C504.161 2055.56 505.619 2047.54 501.648 2043.97Z" fill="#5B619B"/>
<path d="M583.501 1767.06C593.712 1851.34 481.148 1898.02 337.304 1915.45C193.54 1932.87 72.9535 1914.55 62.7425 1830.27C52.5316 1745.99 164.123 1690.64 307.886 1673.22C451.65 1655.72 573.209 1682.7 583.501 1767.06Z" fill="#E28EAE"/>
<path d="M194.92 1879.22C185.844 1804.34 239.168 1736.18 314.129 1727.11C389.091 1718.03 457.164 1771.35 466.24 1846.31L473.453 1905.72L202.133 1938.62L194.92 1879.22Z" fill="#FFD9E7"/>
<path d="M478.152 1966.82C468.913 1967.95 459.513 1967.63 449.95 1965.93C433.013 1962.85 420.209 1956.12 414.131 1952.88C413.563 1952.56 413.077 1952.31 412.672 1952.07L420.452 1937C420.938 1937.24 421.505 1937.56 422.072 1937.89C465.753 1960.98 494.197 1946.15 503.517 1941.21L511.378 1956.2C500.6 1961.88 489.497 1965.36 478.152 1966.82Z" fill="#FFD9E7"/>
<path d="M194.51 1960.58L183.164 1973.14C194.023 1982.95 208.367 1988.54 224.656 1989.27C241.35 1990 254.236 1985.54 257.801 1984.16L251.723 1968.36C245.97 1970.55 236.083 1972.82 225.467 1972.33C212.905 1971.77 202.532 1967.88 194.51 1960.58Z" fill="#E28EAE"/>
<path d="M255.374 1939.67C256.67 1912.2 277.66 1889.59 304.97 1886.27L357.24 1879.94C384.55 1876.62 410.321 1893.48 418.182 1919.9L431.067 1963.25C441.035 1996.8 418.425 2031.16 383.74 2035.38L316.396 2043.56C281.712 2047.78 251.484 2019.74 253.186 1984.81L255.374 1939.67Z" fill="#FFD9E7"/>
<path d="M463.729 1996.4C470.05 2007.42 328.718 1990.16 253.189 1974.84C247.192 1973.63 247.516 1965.69 253.594 1964.71L435.933 1936.35C442.092 1951.58 455.787 1982.62 463.729 1996.4Z" fill="#9096D1"/>
<path d="M163.476 1891.86C157.966 1846.23 190.462 1804.66 236.087 1799.15L407.648 1778.32C453.273 1772.81 494.846 1805.31 500.357 1850.93C505.867 1896.56 473.371 1938.13 427.745 1943.64L338.764 1954.42L256.185 1964.47C210.56 1969.98 169.068 1937.48 163.476 1891.86Z" fill="#FFD9E7"/>
<path d="M223.534 1876.83C226.882 1852.12 217.12 1830.41 201.731 1828.32C186.342 1826.24 171.152 1844.57 167.804 1869.27C164.456 1893.98 174.217 1915.69 189.607 1917.78C204.996 1919.86 220.186 1901.53 223.534 1876.83Z" fill="#F1698B"/>
<path d="M480.415 1882.44C494.859 1876.73 499.141 1853.31 489.979 1830.13C480.817 1806.94 461.682 1792.78 447.238 1798.48C432.795 1804.19 428.513 1827.61 437.675 1850.8C446.836 1873.98 465.972 1888.15 480.415 1882.44Z" fill="#F1698B"/>
<path d="M304.969 1759.2C306.427 1764.47 298.891 1767.3 296.541 1762.36L291.516 1751.91C290.301 1749.47 291.597 1746.56 294.109 1745.67L296.054 1745.02C298.486 1744.21 301.16 1745.58 301.889 1748.1L304.969 1759.2Z" fill="#E28EAE"/>
<path d="M330.417 1756.04C330.254 1761.55 338.196 1762.44 339.331 1757.09L341.681 1745.75C342.248 1743.07 340.303 1740.56 337.629 1740.32L335.522 1740.15C332.929 1739.91 330.66 1741.94 330.66 1744.53L330.417 1756.04Z" fill="#E28EAE"/>
<path d="M180.247 1987C194.122 1987 205.369 1975.75 205.369 1961.88C205.369 1948 194.122 1936.76 180.247 1936.76C166.373 1936.76 155.125 1948 155.125 1961.88C155.125 1975.75 166.373 1987 180.247 1987Z" fill="#E28EAE"/>
<path d="M507.732 1983.76C524.247 1983.76 537.635 1970.37 537.635 1953.85C537.635 1937.34 524.247 1923.95 507.732 1923.95C491.216 1923.95 477.828 1937.34 477.828 1953.85C477.828 1970.37 491.216 1983.76 507.732 1983.76Z" fill="#FFD9E7"/>
<g opacity="0.5">
<path fill-rule="evenodd" clip-rule="evenodd" d="M514.21 1817.47C511.131 1817.06 508.294 1819.25 507.889 1822.33C507.484 1825.41 509.672 1828.24 512.752 1828.65L506.917 1873.22C484.388 1876.71 465.992 1894.62 462.831 1918.28C459.104 1947.05 480.336 1965.61 509.105 1969.33C537.874 1973.06 563.239 1960.66 566.967 1931.89C570.046 1908.23 556.837 1886.11 536.01 1876.95L541.845 1832.38L542.412 1832.46C545.491 1832.86 548.328 1830.68 548.733 1827.6C549.138 1824.52 546.95 1821.68 543.871 1821.28L514.21 1817.47Z" fill="#B7D6D6"/>
</g>
<g opacity="0.8">
<path d="M557.89 1927.59C554.891 1950.29 534.875 1960.09 512.184 1957.09C489.493 1954.09 472.637 1939.51 475.635 1916.82C478.633 1894.12 499.055 1920.14 525.636 1904.42C538.603 1898.58 560.888 1904.9 557.89 1927.59Z" fill="#A977AB"/>
</g>
<path d="M531.154 1916.25C537.241 1916.25 542.176 1911.32 542.176 1905.23C542.176 1899.14 537.241 1894.21 531.154 1894.21C525.067 1894.21 520.133 1899.14 520.133 1905.23C520.133 1911.32 525.067 1916.25 531.154 1916.25Z" fill="#CDABD9"/>
<path d="M498.249 1936.19C501.829 1936.19 504.732 1933.28 504.732 1929.7C504.732 1926.12 501.829 1923.22 498.249 1923.22C494.668 1923.22 491.766 1926.12 491.766 1929.7C491.766 1933.28 494.668 1936.19 498.249 1936.19Z" fill="#CDABD9"/>
<path d="M483.58 1904.42C482.931 1904.5 482.283 1904.34 481.716 1904.02C480.419 1903.2 480.014 1901.42 480.824 1900.12C483.174 1896.4 496.465 1878 526.449 1886.11C527.989 1886.51 528.881 1888.05 528.475 1889.59C528.07 1891.13 526.531 1892.02 524.991 1891.62C498.815 1884.57 487.551 1900.04 485.606 1903.2C485.119 1903.85 484.39 1904.26 483.58 1904.42Z" fill="#FFF2F7"/>
<path d="M299.376 2074.12L282.52 2076.14C279.521 2051.43 282.114 2039.11 303.509 2014.88L316.232 2026.06C297.836 2047.05 297.026 2054.99 299.376 2074.12Z" fill="#FFD9E7"/>
<path d="M423.851 2059.04L406.995 2061.06C404.645 2041.94 401.97 2034.4 379.117 2018.52L388.761 2004.58C415.342 2022.98 420.852 2034.32 423.851 2059.04Z" fill="#FFD9E7"/>
<path d="M227.254 2093.4C226.282 2085.22 232.117 2077.76 240.302 2076.71L298.893 2069.58L301.729 2092.59C302.216 2096.32 299.541 2099.64 295.895 2100.05L244.029 2106.37C235.682 2107.42 228.227 2101.59 227.254 2093.4Z" fill="#E28EAE"/>
<path d="M481.715 2062.52C480.743 2054.34 473.287 2048.5 465.021 2049.48L406.43 2056.61L409.266 2079.62C409.752 2083.35 413.075 2085.94 416.722 2085.46L468.587 2079.14C476.853 2078.16 482.688 2070.71 481.715 2062.52Z" fill="#E28EAE"/>
<path d="M366.885 1613.32C366.561 1613.4 366.237 1613.4 365.912 1613.4C310.32 1611.14 234.305 1626.69 191.03 1642.5C188.436 1643.47 185.6 1641.77 184.628 1638.85C183.655 1635.85 184.952 1632.69 187.545 1631.8C209.75 1623.7 239.653 1615.92 269.719 1610.49C294.598 1605.95 331.39 1600.84 365.831 1602.22C368.587 1602.3 370.856 1604.98 370.856 1608.06C370.856 1610.73 369.154 1612.92 366.885 1613.32Z" fill="#F1698B"/>
<path d="M326.608 1827.75C296.867 1831.4 272.798 1840.15 268.422 1848.5C285.44 1850.85 306.51 1850.93 329.12 1848.18C351.73 1845.42 372.152 1840.31 388.117 1833.99C381.877 1826.94 356.431 1824.11 326.608 1827.75Z" fill="#F1698B"/>
<path d="M295 1832.13C299.295 1831.64 302.375 1827.67 301.808 1823.38L301.402 1820.14C296.54 1821.92 291.435 1823.38 286.086 1824.35L286.167 1825.32C286.734 1829.54 290.624 1832.62 295 1832.13Z" fill="white"/>
<path d="M419.723 1798.34C419.723 1797.85 419.399 1797.37 418.832 1797.04C418.751 1797.04 418.67 1796.96 418.67 1796.96C417.535 1796.47 415.915 1796.64 414.861 1797.45C403.597 1806.2 388.361 1812.12 371.91 1814.14C369.965 1814.38 368.101 1814.55 366.157 1814.71L366.238 1815.6C366.724 1819.9 363.725 1823.78 359.43 1824.35C355.135 1824.84 351.245 1821.84 350.678 1817.54L350.273 1814.47C341.602 1813.57 333.336 1811.55 326.123 1808.31C324.989 1807.82 323.368 1807.98 322.314 1808.79C316.317 1813.49 309.186 1817.3 301.325 1820.22L301.73 1823.46C302.217 1827.76 299.218 1831.65 294.923 1832.21C290.628 1832.7 286.738 1829.7 286.171 1825.41L286.09 1824.43C283.902 1824.84 281.633 1825.24 279.363 1825.49C262.912 1827.51 246.705 1825.41 233.657 1819.57C232.523 1819.08 230.902 1819.25 229.848 1820.06C229.767 1820.14 229.767 1820.14 229.686 1820.22C229.2 1820.71 229.038 1821.19 229.119 1821.68C228.309 1823.7 228.066 1825.65 228.309 1827.59C229.605 1837.97 245.165 1845.42 268.423 1848.58C272.799 1840.32 296.868 1831.48 326.609 1827.84C356.351 1824.19 381.878 1827.03 388.037 1834C409.837 1825.32 423.208 1814.3 421.912 1804.01C421.749 1801.99 421.02 1800.12 419.723 1798.34Z" fill="#E28EAE"/>
<path d="M359.428 1824.27C363.723 1823.78 366.803 1819.81 366.235 1815.52L366.154 1814.63C360.806 1814.95 355.457 1814.87 350.352 1814.38L350.757 1817.46C351.243 1821.76 355.133 1824.84 359.428 1824.27Z" fill="white"/>
<path d="M265.581 1786.51C264.69 1779.38 271.254 1774.43 279.925 1773.38C288.596 1772.33 296.133 1775.57 296.943 1782.7C297.186 1784.73 296.862 1786.75 296.052 1788.53C299.375 1789.1 302.373 1789.99 304.885 1791.21C306.263 1787.89 306.83 1784.32 306.425 1780.75C304.885 1767.79 291.433 1761.79 275.873 1763.74C260.395 1765.6 248.725 1774.6 250.346 1787.56C250.751 1791.21 252.21 1794.53 254.317 1797.37C257.477 1794.77 261.853 1792.5 267.121 1790.88C266.311 1789.51 265.824 1788.13 265.581 1786.51Z" fill="white"/>
<path d="M279.925 1773.38C271.254 1774.43 264.69 1779.38 265.581 1786.51C265.743 1788.05 266.31 1789.51 267.121 1790.8C270.687 1789.67 274.658 1788.78 278.872 1788.21C285.112 1787.48 290.946 1787.64 296.052 1788.45C296.862 1786.59 297.186 1784.64 296.943 1782.62C296.133 1775.57 288.596 1772.33 279.925 1773.38Z" fill="#C9345A"/>
<path d="M344.11 1777.03C343.218 1769.9 349.782 1764.95 358.454 1763.9C367.125 1762.85 374.662 1766.09 375.472 1773.22C375.634 1774.76 375.472 1776.22 375.067 1777.68C380.739 1778 385.764 1779.22 389.573 1781C390.95 1777.68 391.518 1774.11 391.112 1770.55C389.573 1757.58 376.12 1751.58 360.561 1753.53C345.082 1755.39 333.412 1764.39 335.033 1777.35C335.438 1781 336.897 1784.32 339.004 1787.16C341.03 1785.54 343.542 1784 346.46 1782.7C345.163 1781 344.353 1779.05 344.11 1777.03Z" fill="white"/>
<path d="M358.456 1763.9C349.785 1764.96 343.221 1769.9 344.112 1777.03C344.355 1779.14 345.247 1781 346.544 1782.62C351.325 1780.43 357.241 1778.81 363.643 1778.08C367.695 1777.6 371.585 1777.52 375.15 1777.68C375.556 1776.22 375.718 1774.76 375.556 1773.22C374.583 1766.09 367.046 1762.85 358.456 1763.9Z" fill="#C9345A"/>
<path d="M361.374 2605.3H314.776L292.328 2480.83H383.821L361.374 2605.3Z" fill="#133F49"/>
<path d="M724.183 2605.3H677.586L655.219 2480.83H746.631L724.183 2605.3Z" fill="#133F49"/>
<path d="M178.547 2224.51H119.874C101.154 2224.51 86 2209.36 86 2190.64C86 2171.92 101.154 2156.77 119.874 2156.77H178.547C197.267 2156.77 212.421 2171.92 212.421 2190.64C212.421 2209.36 197.267 2224.51 178.547 2224.51Z" fill="#133F49"/>
<path d="M919.086 2224.51H860.414C841.693 2224.51 826.539 2209.36 826.539 2190.64C826.539 2171.92 841.693 2156.77 860.414 2156.77H919.086C937.806 2156.77 952.96 2171.92 952.96 2190.64C952.96 2209.36 937.806 2224.51 919.086 2224.51Z" fill="#133F49"/>
<path d="M519.482 2553.77C737.447 2553.77 914.143 2433.21 914.143 2284.48C914.143 2135.75 737.447 2015.19 519.482 2015.19C301.516 2015.19 124.82 2135.75 124.82 2284.48C124.82 2433.21 301.516 2553.77 519.482 2553.77Z" fill="#0E2E38"/>
<path d="M832.047 2057.49C772.645 2027.5 654.976 2007.16 519.479 2007.16C383.981 2007.16 266.393 2027.58 206.91 2057.49H165.742V2101.9C165.742 2154.25 324.093 2196.63 519.479 2196.63C714.864 2196.63 873.215 2154.25 873.215 2101.9V2057.49H832.047Z" fill="#133F49"/>
<path d="M519.479 2152.22C714.842 2152.22 873.215 2109.81 873.215 2057.49C873.215 2005.17 714.842 1962.75 519.479 1962.75C324.115 1962.75 165.742 2005.17 165.742 2057.49C165.742 2109.81 324.115 2152.22 519.479 2152.22Z" fill="#0E2E38"/>
<path d="M833.424 2057.49C833.424 2020.45 692.902 1990.39 519.477 1990.39C346.053 1990.39 205.531 2020.45 205.531 2057.49C205.531 2068.35 217.606 2078.64 239 2087.63C237.38 2084.88 236.569 2082.04 236.569 2079.21C236.569 2043.79 363.234 2015.18 519.477 2015.18C675.721 2015.18 802.386 2043.87 802.386 2079.21C802.386 2082.04 801.575 2084.88 799.954 2087.63C821.349 2078.64 833.424 2068.35 833.424 2057.49Z" fill="#133F49"/>
<path d="M519.478 2015.19C363.235 2015.19 236.57 2043.88 236.57 2079.21C236.57 2082.04 237.381 2084.88 239.001 2087.64C290.705 2109.52 396.866 2124.59 519.478 2124.59C642.091 2124.59 748.252 2109.6 799.955 2087.64C801.576 2084.88 802.387 2082.04 802.387 2079.21C802.387 2043.88 675.722 2015.19 519.478 2015.19Z" fill="#CA6E91"/>
<path d="M533.095 2063.24C544.866 2063.24 554.408 2058.63 554.408 2052.95C554.408 2047.27 544.866 2042.66 533.095 2042.66C521.324 2042.66 511.781 2047.27 511.781 2052.95C511.781 2058.63 521.324 2063.24 533.095 2063.24Z" fill="#E57FA8"/>
<path d="M561.135 2064.7C567.894 2064.7 573.372 2061.48 573.372 2057.49C573.372 2053.51 567.894 2050.28 561.135 2050.28C554.377 2050.28 548.898 2053.51 548.898 2057.49C548.898 2061.48 554.377 2064.7 561.135 2064.7Z" fill="#E57FA8"/>
<path d="M542.737 2078.07C548.064 2078.07 552.381 2075.5 552.381 2072.32C552.381 2069.14 548.064 2066.57 542.737 2066.57C537.411 2066.57 533.094 2069.14 533.094 2072.32C533.094 2075.5 537.411 2078.07 542.737 2078.07Z" fill="#E57FA8"/>
<path d="M650.112 2099.23C655.439 2099.23 659.756 2096.65 659.756 2093.47C659.756 2090.29 655.439 2087.72 650.112 2087.72C644.786 2087.72 640.469 2090.29 640.469 2093.47C640.469 2096.65 644.786 2099.23 650.112 2099.23Z" fill="#E57FA8"/>
<path d="M667.375 2087.72C671.583 2087.72 674.993 2085.69 674.993 2083.18C674.993 2080.67 671.583 2078.64 667.375 2078.64C663.168 2078.64 659.758 2080.67 659.758 2083.18C659.758 2085.69 663.168 2087.72 667.375 2087.72Z" fill="#E57FA8"/>
<path d="M628.399 2048.09C632.606 2048.09 636.017 2046.06 636.017 2043.55C636.017 2041.04 632.606 2039.01 628.399 2039.01C624.192 2039.01 620.781 2041.04 620.781 2043.55C620.781 2046.06 624.192 2048.09 628.399 2048.09Z" fill="#E57FA8"/>
<path d="M739.5 2078.96C743.708 2078.96 747.118 2076.93 747.118 2074.42C747.118 2071.92 743.708 2069.89 739.5 2069.89C735.293 2069.89 731.883 2071.92 731.883 2074.42C731.883 2076.93 735.293 2078.96 739.5 2078.96Z" fill="#E57FA8"/>
<path d="M394.11 2091.04C405.881 2091.04 415.424 2086.44 415.424 2080.75C415.424 2075.07 405.881 2070.46 394.11 2070.46C382.339 2070.46 372.797 2075.07 372.797 2080.75C372.797 2086.44 382.339 2091.04 394.11 2091.04Z" fill="#E57FA8"/>
<path d="M421.581 2102.55C426.907 2102.55 431.225 2099.97 431.225 2096.79C431.225 2093.62 426.907 2091.04 421.581 2091.04C416.255 2091.04 411.938 2093.62 411.938 2096.79C411.938 2099.97 416.255 2102.55 421.581 2102.55Z" fill="#E57FA8"/>
<path d="M302.86 2075C307.067 2075 310.478 2072.96 310.478 2070.46C310.478 2067.95 307.067 2065.92 302.86 2065.92C298.653 2065.92 295.242 2067.95 295.242 2070.46C295.242 2072.96 298.653 2075 302.86 2075Z" fill="#E57FA8"/>
<path d="M313.883 2071.1C318.09 2071.1 321.501 2069.07 321.501 2066.56C321.501 2064.06 318.09 2062.03 313.883 2062.03C309.676 2062.03 306.266 2064.06 306.266 2066.56C306.266 2069.07 309.676 2071.1 313.883 2071.1Z" fill="#E57FA8"/>
<path d="M437.706 2044.77C443.032 2044.77 447.35 2042.19 447.35 2039.01C447.35 2035.84 443.032 2033.26 437.706 2033.26C432.38 2033.26 428.062 2035.84 428.062 2039.01C428.062 2042.19 432.38 2044.77 437.706 2044.77Z" fill="#E57FA8"/>
<path d="M522.237 2054.41C523.714 2054.41 524.911 2053.22 524.911 2051.74C524.911 2050.26 523.714 2049.06 522.237 2049.06C520.76 2049.06 519.562 2050.26 519.562 2051.74C519.562 2053.22 520.76 2054.41 522.237 2054.41Z" fill="#FFA1CC"/>
<path d="M546.465 2072.88C547.495 2072.88 548.329 2072.05 548.329 2071.02C548.329 2069.99 547.495 2069.16 546.465 2069.16C545.436 2069.16 544.602 2069.99 544.602 2071.02C544.602 2072.05 545.436 2072.88 546.465 2072.88Z" fill="#FFA1CC"/>
<path d="M567.536 2058.79C568.565 2058.79 569.4 2057.96 569.4 2056.93C569.4 2055.9 568.565 2055.06 567.536 2055.06C566.506 2055.06 565.672 2055.9 565.672 2056.93C565.672 2057.96 566.506 2058.79 567.536 2058.79Z" fill="#FFA1CC"/>
<path d="M631.801 2044.85C632.831 2044.85 633.665 2044.01 633.665 2042.99C633.665 2041.96 632.831 2041.12 631.801 2041.12C630.772 2041.12 629.938 2041.96 629.938 2042.99C629.938 2044.01 630.772 2044.85 631.801 2044.85Z" fill="#FFA1CC"/>
<path d="M645.903 2093.47C646.932 2093.47 647.767 2092.64 647.767 2091.61C647.767 2090.58 646.932 2089.75 645.903 2089.75C644.874 2089.75 644.039 2090.58 644.039 2091.61C644.039 2092.64 644.874 2093.47 645.903 2093.47Z" fill="#FFA1CC"/>
<path d="M671.02 2084.07C672.05 2084.07 672.884 2083.24 672.884 2082.21C672.884 2081.18 672.05 2080.34 671.02 2080.34C669.991 2080.34 669.156 2081.18 669.156 2082.21C669.156 2083.24 669.991 2084.07 671.02 2084.07Z" fill="#FFA1CC"/>
<path d="M741.364 2074.83C742.393 2074.83 743.228 2074 743.228 2072.97C743.228 2071.94 742.393 2071.1 741.364 2071.1C740.334 2071.1 739.5 2071.94 739.5 2072.97C739.5 2074 740.334 2074.83 741.364 2074.83Z" fill="#FFA1CC"/>
<path d="M378.794 2080.83C379.823 2080.83 380.658 2080 380.658 2078.97C380.658 2077.94 379.823 2077.11 378.794 2077.11C377.764 2077.11 376.93 2077.94 376.93 2078.97C376.93 2080 377.764 2080.83 378.794 2080.83Z" fill="#FFA1CC"/>
<path d="M415.426 2098.66C416.456 2098.66 417.29 2097.82 417.29 2096.79C417.29 2095.76 416.456 2094.93 415.426 2094.93C414.397 2094.93 413.562 2095.76 413.562 2096.79C413.562 2097.82 414.397 2098.66 415.426 2098.66Z" fill="#FFA1CC"/>
<path d="M443.137 2039.82C444.167 2039.82 445.001 2038.99 445.001 2037.96C445.001 2036.93 444.167 2036.1 443.137 2036.1C442.108 2036.1 441.273 2036.93 441.273 2037.96C441.273 2038.99 442.108 2039.82 443.137 2039.82Z" fill="#FFA1CC"/>
<path d="M298.645 2072.32C299.675 2072.32 300.509 2071.48 300.509 2070.45C300.509 2069.42 299.675 2068.59 298.645 2068.59C297.616 2068.59 296.781 2069.42 296.781 2070.45C296.781 2071.48 297.616 2072.32 298.645 2072.32Z" fill="#FFA1CC"/>
<path d="M317.45 2067.38C318.479 2067.38 319.314 2066.54 319.314 2065.51C319.314 2064.48 318.479 2063.65 317.45 2063.65C316.42 2063.65 315.586 2064.48 315.586 2065.51C315.586 2066.54 316.42 2067.38 317.45 2067.38Z" fill="#FFA1CC"/>
<path d="M210.48 2212.59C218.804 2212.59 225.553 2205.84 225.553 2197.52C225.553 2189.19 218.804 2182.45 210.48 2182.45C202.155 2182.45 195.406 2189.19 195.406 2197.52C195.406 2205.84 202.155 2212.59 210.48 2212.59Z" fill="#205966"/>
<path d="M190.866 2236.9C196.371 2236.9 200.834 2232.44 200.834 2226.94C200.834 2221.43 196.371 2216.97 190.866 2216.97C185.361 2216.97 180.898 2221.43 180.898 2226.94C180.898 2232.44 185.361 2236.9 190.866 2236.9Z" fill="#205966"/>
<path d="M1249.5 833C1249.5 1052 929 1193.5 929 1494.75C963.5 1945.5 812.75 1974 443.75 2072.25C1206.5 1584 75.75 1263 43.5 690C43.5 438.572 205 0 764.5 0C1193.5 0 1249.5 614 1249.5 833Z" fill="#CA6E91" fill-opacity="0.3"/>
</svg>
