<svg width="1920" height="430" viewBox="0 0 1920 430" fill="none" xmlns="http://www.w3.org/2000/svg">
<path d="M262.6 361.72L1066 361.72L2032.5 361.72V510.2H647.594L262.6 361.72Z" fill="#020E0F"/>
<path d="M262.6 381.72L1066 381.72L2032.5 381.72V530.2H647.594L262.6 381.72Z" fill="#051E1F"/>
<path d="M-25.8164 377.144H526.632L759.08 603.192L765.736 647.736L675.112 624.44L620.584 589.112L567.848 618.808L526.632 594.744L487.208 512.056L423.464 502.584L345.384 455.992L273.96 478.008L232.744 420.408L51.2396 441.4L-8.1524 478.008L-25.8164 455.992V377.144Z" fill="#232A2A"/>
<path d="M-25.8164 360.248H526.632L759.08 586.296L765.736 630.84L675.112 607.544L620.584 572.216L567.848 601.912L526.632 577.848L487.208 495.16L423.464 485.688L345.384 439.096L273.96 461.112L232.744 403.512L51.2396 424.504L-8.1524 461.112L-25.8164 439.096V360.248Z" fill="#343F3F"/>
<path d="M-39.8959 339H512.552L751.656 609.592L661.032 586.296L606.504 550.968L553.768 580.664L512.552 556.6L473.128 473.912L409.384 464.44L252.2 439.864H259.88H-22.2319L-47 446.264L-39.8959 339Z" fill="#7D9090"/>
<path d="M159.529 212.28L176.681 218.68L156.457 251.448L156.969 254.264L150.313 275.768L142.889 278.84L126.761 308.792L100.393 306.488L118.825 292.92L121.897 278.84L147.241 243.512V234.808L159.529 212.28Z" fill="#282F27"/>
<path d="M143.144 214.328L147.24 235.064V243.512L121.896 278.84L118.824 292.92L100.392 306.488L96.2959 285.752L105.256 269.368L116.008 251.448L132.136 236.856V227.128L143.144 214.328Z" fill="#15201C"/>
<path d="M179.241 179L188.201 183.864L177.193 193.08L167.209 191.8L179.241 179Z" fill="#3E5246"/>
<path d="M157.16 205.88L159.72 212.6L147.24 235L143.08 214.2L157.16 205.88Z" fill="#3E5246"/>
<path d="M188.2 183.864L192.552 218.68L191.784 224.824L189.992 229.944L192.552 234.552V241.208L196.904 245.56L164.136 257.592L156.968 254.52L156.456 251.448L176.68 218.68L177.192 193.08L188.2 183.864Z" fill="#545A58"/>
<path d="M191.785 224.824L208.169 257.848L250.665 300.344L238.889 312.888L233.513 348.216L215.081 293.688L198.697 268.344L196.649 245.304L191.785 240.44V233.784L189.993 229.944L191.785 224.824Z" fill="#77867F"/>
<path d="M164.137 257.336L196.905 245.304L198.953 266.552H191.273L167.977 298.04L164.137 297.272V257.336Z" fill="#726F68"/>
<path d="M191.272 266.295H198.952L215.592 293.687L201.256 312.375L165.416 314.423L167.976 298.039L191.272 266.295Z" fill="#3E453D"/>
<path d="M165.414 314.424L201.254 312.376L208.678 352.568L151.846 346.424L165.414 314.424Z" fill="#182018"/>
<path d="M201.256 312.375L215.592 293.688L233.512 348.215L208.68 352.567L201.256 312.375Z" fill="#6B645C"/>
<path d="M156.968 254.264L164.136 257.336V297.272L167.976 298.04L165.416 314.68L151.848 346.424L156.2 278.84L150.312 275.768L156.968 254.264Z" fill="#1E201D"/>
<path d="M148.008 283.192L156.456 278.84L152.616 337.72L136.488 338.232L148.008 283.192Z" fill="#202624"/>
<path d="M142.888 278.84L148.008 283.192L136.488 338.232L134.696 322.872L126.76 308.792L142.888 278.84Z" fill="#1D1F1C"/>
<path d="M142.888 278.84L150.312 275.768L156.456 278.84L148.008 283.192L142.888 278.84Z" fill="#293430"/>
<path d="M167.209 191.8L177.193 193.08L176.681 218.68L159.529 212.28L157.225 205.88L167.209 191.8Z" fill="#1D2120"/>
<path d="M250.665 300.856L309.033 319.288L347.433 303.928L388.649 313.4L422.185 331.832H509.481L501.289 388.152L536.617 414.264L593.705 469.048L674.345 477.752L748.329 497.976V589.624L704.553 539.96L627.497 518.712L622.633 503.608V518.712H540.969L513.577 497.464L507.945 445.496L473.641 430.392L441.129 388.152H383.785L338.729 355.384L285.993 359.224L233.513 348.728V331.32L238.889 313.4L250.665 300.856Z" fill="#47524E"/>
<path d="M269.097 288.312L309.033 301.368L347.433 286.008L388.649 295.48L422.185 313.912L491.049 320.312L537.897 344.632L551.465 387.64L579.369 400.184L592.937 428.6L615.209 443.192L637.481 433.72L690.985 443.192L729.385 475.96L748.329 484.408V565.048L708.393 526.648L623.401 504.632H546.089L520.233 469.816L508.713 428.6L488.233 423.736L484.137 413.752L441.129 370.232L390.697 367.672L338.729 337.464L285.481 341.048L233.513 330.808L243.241 292.664L269.097 288.312Z" fill="#7C978D"/>
<path d="M-25.8157 301.88L-5.84766 309.304L25.6403 322.36L56.3603 309.304L80.9363 301.88L96.2963 295.48L100.392 316.216L126.76 318.52L134.696 332.6L136.488 347.96L152.616 347.448L151.848 356.152L122.92 361.784L96.2963 356.152L74.5363 353.592L56.3603 361.784L41.7683 347.96H4.13634L-8.15166 361.784L-29.7197 357.88L-25.8157 301.88Z" fill="#38433F"/>
<path d="M-30.6796 290.36L-5.84754 299.576L25.6405 312.632L56.3605 299.576L80.9365 292.152L96.2965 285.752L100.392 306.488L126.76 308.792L134.696 322.872L136.488 338.232L152.616 337.72L151.848 346.424L152.872 347.448L122.92 352.056L96.2965 346.424L74.5365 343.864L56.3605 352.056L41.7685 338.232H4.13646L-8.15155 352.056L-32.5996 347.32L-30.6796 290.36Z" fill="#60716B"/>
<path d="M118.056 322.872L126.76 308.792L134.952 322.872L136.488 338.232L152.616 337.72L152.104 343.608L143.4 341.048L122.152 347.96L99.1116 338.232L89.6396 324.408L118.056 322.872Z" fill="#364131"/>
<path d="M163.816 367.786L172.797 363.097L164.566 357.472L155.258 355.852L161.834 347.584L151.85 346.424L152.618 347.448L151.85 356.152L148.683 364.172L153.599 378.668L161.618 385.064L163.816 367.786Z" fill="#50594B"/>
<path d="M426.905 404.124L424.833 394.207L434.403 397.002L441.559 403.17L443.88 391.48L450.6 400.44L443.489 405.994L439.298 413.53L424.974 418.926L414.943 416.784L426.905 404.124Z" fill="#50594B"/>
<path d="M273.669 318.048L267.115 333.249L256.955 320.516L253.192 305.545L238.889 309.56L240.169 303.768L245.943 303.768L265.954 293.827L290.167 300.087L301.557 312.379L273.669 318.048Z" fill="#364131"/>
<path d="M441.127 370.232L537.895 344.888L553.475 388.92L522.279 395.32L492.071 388.92L472.103 402.488L441.127 370.232Z" fill="#596F67"/>
<path d="M537.384 430.392L559.912 431.672L572.968 421.944L579.368 400.184L592.936 428.6L574.76 433.976L562.728 444.728H543.016L520.232 469.048L514.088 448.056L524.328 442.936L537.384 430.392Z" fill="#5D7069"/>
<path d="M388.648 295.48L423.208 313.912L401.96 318.776L388.648 330.552L390.696 367.672L338.73 337.208L370.984 304.44L388.648 295.48Z" fill="#647971"/>
<path d="M400.452 266.317C403.385 267.622 406.821 266.302 408.126 263.37C409.432 260.438 408.111 257.002 405.179 255.698L400.867 253.78L396.731 264.662L400.452 266.317Z" fill="#91BCBB"/>
<path d="M367.757 251.771L396.732 264.662L400.867 253.78L372.483 241.153L367.757 251.771Z" fill="#ACBFBE"/>
<path d="M399.461 253.558L395.216 264.003C394.957 264.641 395.264 265.369 395.903 265.629C396.541 265.888 397.27 265.581 397.529 264.942L401.775 254.497C402.034 253.859 401.727 253.131 401.088 252.871C400.449 252.612 399.721 252.919 399.461 253.558Z" fill="#8BA5A3"/>
<path d="M298.849 269.9C296.478 272.064 296.311 275.74 298.475 278.11C300.639 280.48 304.316 280.648 306.687 278.484L310.172 275.303L301.857 267.156L298.849 269.902L298.849 269.9Z" fill="#91BCBB"/>
<path d="M325.277 245.775L301.858 267.154L310.173 275.303L333.117 254.357L325.277 245.775Z" fill="#ACBFBE"/>
<path d="M310.924 274.096L303.053 266.022C302.572 265.528 301.781 265.518 301.288 265.999C300.794 266.481 300.784 267.271 301.265 267.764L309.136 275.838C309.617 276.332 310.407 276.342 310.901 275.861C311.395 275.38 311.405 274.589 310.924 274.096Z" fill="#8BA5A3"/>
<path d="M298.766 279.918C299.697 279.837 300.386 279.016 300.304 278.085C300.222 277.154 299.402 276.466 298.471 276.548C297.54 276.63 296.851 277.45 296.933 278.381C297.015 279.312 297.836 280 298.766 279.918Z" fill="#91BCBB"/>
<path d="M297.282 277.395C298.213 277.313 298.901 276.492 298.82 275.562C298.738 274.631 297.917 273.943 296.986 274.024C296.055 274.106 295.367 274.927 295.449 275.858C295.53 276.788 296.351 277.477 297.282 277.395Z" fill="#91BCBB"/>
<path d="M301.253 281.467C302.184 281.385 302.872 280.564 302.79 279.634C302.709 278.703 301.888 278.015 300.957 278.096C300.026 278.178 299.338 278.999 299.419 279.929C299.501 280.86 300.322 281.549 301.253 281.467Z" fill="#91BCBB"/>
<path d="M335.352 299.947C339.391 299.593 342.378 296.032 342.024 291.994C341.669 287.956 338.108 284.97 334.069 285.324C330.03 285.678 327.043 289.239 327.398 293.277C327.752 297.316 331.313 300.302 335.352 299.947Z" fill="#91BCBB"/>
<path d="M332.499 301.337C333.762 301.226 334.696 300.113 334.585 298.85C334.474 297.587 333.36 296.653 332.097 296.764C330.834 296.875 329.9 297.989 330.011 299.251C330.122 300.514 331.236 301.448 332.499 301.337Z" fill="#91BCBB"/>
<path d="M329.219 299.092C330.482 298.981 331.416 297.868 331.305 296.605C331.195 295.342 330.081 294.408 328.818 294.519C327.555 294.63 326.621 295.744 326.732 297.006C326.843 298.269 327.956 299.203 329.219 299.092Z" fill="#91BCBB"/>
<path d="M336.446 301.807C337.709 301.696 338.643 300.583 338.532 299.32C338.421 298.058 337.308 297.124 336.045 297.235C334.782 297.345 333.848 298.459 333.958 299.722C334.069 300.984 335.183 301.918 336.446 301.807Z" fill="#91BCBB"/>
<path d="M383.569 269.999L383.255 254.718L316.161 256.093L316.475 271.375C316.527 273.905 317.098 276.301 318.083 278.467L382.253 277.151C383.148 274.947 383.621 272.529 383.571 270.001L383.569 269.999Z" fill="#ACBFBE"/>
<path d="M318.081 278.465C320.973 284.818 327.44 289.178 334.864 289.026L365.912 288.389C373.337 288.236 379.619 283.618 382.249 277.15L318.079 278.465L318.081 278.465Z" fill="#B7D6D6"/>
<path d="M339.545 270.831L313.968 271.355L315.919 258.673L344.902 258.078L345.046 265.1C345.109 268.201 342.646 270.768 339.545 270.831Z" fill="#8BA5A3"/>
<path d="M360.493 270.402L386.069 269.877L383.601 257.285L354.617 257.88L354.761 264.902C354.824 268.002 357.392 270.465 360.493 270.402Z" fill="#8BA5A3"/>
<path d="M393.341 258.983L306.255 260.766L316.157 244.891L382.799 243.526L393.341 258.983Z" fill="#A61E00"/>
<path d="M329.975 132.624C329.551 137.017 332.77 140.922 337.163 141.346C341.557 141.77 345.463 138.552 345.887 134.159C346.363 129.228 350.764 125.604 355.694 126.08C360.087 126.504 363.994 123.288 364.418 118.893C364.842 114.501 361.623 110.595 357.23 110.171C343.523 108.848 331.297 118.921 329.973 132.623L329.975 132.624Z" fill="#A61E00"/>
<path d="M341.626 142.217C348.763 141.59 354.041 135.298 353.415 128.162C352.788 121.027 346.495 115.75 339.358 116.376C332.221 117.003 326.943 123.295 327.569 130.431C328.196 137.566 334.489 142.843 341.626 142.217Z" fill="#A61E00"/>
<path d="M365.572 148.173C365.351 137.372 355.369 128.817 343.277 129.065C331.184 129.314 321.561 138.271 321.783 149.071C322.004 159.872 331.986 168.427 344.078 168.178C356.171 167.93 365.794 158.973 365.572 148.173Z" fill="#A61E00"/>
<path d="M299.754 149.291L299.576 181.74L334.363 161.913L306.346 145.534C303.434 143.832 299.772 145.92 299.754 149.291Z" fill="#B7D6D6"/>
<path d="M305.812 158.255L307.831 177.035L326.115 166.615L310.979 155.31C308.71 153.614 305.511 155.438 305.812 158.255Z" fill="#DB9EB7"/>
<path d="M395.561 147.327L397.067 179.74L361.497 161.352L388.821 143.84C391.66 142.021 395.406 143.956 395.562 147.325L395.561 147.327Z" fill="#B7D6D6"/>
<path d="M389.877 156.531L388.628 175.379L369.934 165.716L384.594 153.8C386.792 152.013 390.063 153.704 389.877 156.531Z" fill="#DB9EB7"/>
<path d="M405.434 202.268C404.861 174.365 379.035 152.265 347.748 152.908C316.461 153.55 291.562 176.691 292.134 204.594C292.706 232.497 318.533 254.597 349.82 253.955C381.106 253.312 406.006 230.172 405.434 202.268Z" fill="#ACBFBE"/>
<path d="M384.581 164.279L347.269 129.311L311.419 165.778C318.718 162.305 332.296 159.796 347.886 159.477C363.477 159.158 377.146 161.108 384.581 164.279Z" fill="#ACBFBE"/>
<path d="M384.662 168.272L347.35 133.304L311.5 169.771C318.799 166.298 332.377 163.789 347.967 163.47C363.558 163.151 377.227 165.101 384.662 168.272Z" fill="#8BA5A3"/>
<path d="M347.426 136.954L345.262 139.105L345.7 160.467C346.429 160.439 347.165 160.418 347.906 160.403C348.648 160.389 349.385 160.38 350.115 160.377L349.677 139.015L347.426 136.955L347.426 136.954Z" fill="#0D3F41"/>
<path d="M356.63 145.382L356.939 160.536C358.097 160.594 359.227 160.67 360.331 160.761L360.081 148.542L356.628 145.382L356.63 145.382Z" fill="#0D3F41"/>
<path d="M351.52 140.703L351.924 160.383C353.009 160.394 354.078 160.419 355.129 160.456L354.787 143.692L351.522 140.703L351.52 140.703Z" fill="#0D3F41"/>
<path d="M340.347 143.989L340.69 160.754C341.739 160.672 342.806 160.604 343.889 160.549L343.485 140.869L340.346 143.989L340.347 143.989Z" fill="#0D3F41"/>
<path d="M330.108 154.163L330.269 162.058C331.371 161.858 332.515 161.675 333.697 161.508L333.478 150.815L330.108 154.165L330.108 154.163Z" fill="#0D3F41"/>
<path d="M361.928 150.231L362.147 160.924C363.335 161.043 364.484 161.18 365.594 161.334L365.433 153.439L361.928 150.231Z" fill="#0D3F41"/>
<path d="M377.099 164.122L367.276 155.129L367.408 161.607C371.33 162.244 374.643 163.101 377.099 164.124L377.099 164.122Z" fill="#0D3F41"/>
<path d="M318.887 165.315C321.299 164.193 324.574 163.201 328.468 162.403L328.335 155.925L318.889 165.313L318.887 165.315Z" fill="#0D3F41"/>
<path d="M335.253 149.051L335.503 161.27C336.602 161.134 337.729 161.012 338.882 160.905L338.573 145.751L335.253 149.049L335.253 149.051Z" fill="#0D3F41"/>
<path d="M355.149 161.437L356.958 161.401L356.939 160.535C356.342 160.505 355.737 160.479 355.128 160.458L355.147 161.439L355.149 161.437Z" fill="#8BA5A3"/>
<path d="M373.737 175.764L373.915 184.47C373.975 187.373 371.669 189.775 368.766 189.835C365.863 189.895 363.46 187.589 363.4 184.686L363.146 172.298C360.908 171.797 358.606 171.417 356.253 171.164L356.655 190.789C356.742 195.026 353.378 198.53 349.141 198.617C344.904 198.704 341.4 195.341 341.313 191.105L340.908 171.369C338.251 171.725 335.662 172.242 333.164 172.912L333.418 185.3C333.478 188.203 331.172 190.605 328.268 190.665C325.365 190.725 322.963 188.419 322.903 185.516L322.725 176.81C308.063 183.997 298.391 196.892 298.688 211.411C298.783 216.092 299.911 220.561 301.891 224.69C303.581 223.718 305.532 223.143 307.618 223.101C314.242 222.965 319.722 228.224 319.857 234.846C319.909 237.387 319.165 239.758 317.856 241.726C326.616 247.096 337.717 250.196 349.739 249.949C361.76 249.703 372.725 246.15 381.258 240.426C379.87 238.514 379.028 236.176 378.976 233.633C378.84 227.011 384.101 221.532 390.724 221.396C392.812 221.353 394.785 221.847 396.512 222.749C398.321 218.543 399.265 214.03 399.17 209.35C398.873 194.831 388.68 182.344 373.737 175.762L373.737 175.764Z" fill="#B7D6D6"/>
<path d="M349.14 198.617C353.377 198.53 356.741 195.026 356.654 190.79L356.251 171.164C353.599 170.879 350.884 170.755 348.117 170.812C345.666 170.863 343.259 171.053 340.907 171.369L341.312 191.105C341.398 195.341 344.903 198.704 349.14 198.617Z" fill="#8BCCCA"/>
<path d="M368.766 189.833C371.669 189.773 373.975 187.371 373.915 184.469L373.737 175.762C370.423 174.303 366.875 173.132 363.148 172.295L363.402 184.683C363.462 187.585 365.864 189.891 368.768 189.831L368.766 189.833Z" fill="#8BCCCA"/>
<path d="M328.267 190.663C331.17 190.603 333.476 188.201 333.416 185.299L333.162 172.911C329.473 173.898 325.975 175.214 322.723 176.809L322.901 185.515C322.961 188.417 325.363 190.723 328.267 190.663Z" fill="#8BCCCA"/>
<path d="M307.618 223.101C305.53 223.143 303.581 223.718 301.89 224.69C305.15 231.486 310.726 237.358 317.855 241.726C319.165 239.76 319.909 237.387 319.857 234.846C319.721 228.224 314.241 222.965 307.618 223.101Z" fill="#72B0BA"/>
<path d="M396.511 222.75C394.782 221.847 392.81 221.355 390.723 221.398C384.1 221.534 378.84 227.012 378.975 233.635C379.027 236.176 379.869 238.516 381.257 240.427C388.202 235.771 393.534 229.675 396.511 222.752L396.511 222.75Z" fill="#72B0BA"/>
<path d="M363.143 128.65C365.697 128.426 367.585 126.174 367.361 123.621C367.137 121.068 364.885 119.18 362.332 119.404C359.778 119.628 357.89 121.88 358.114 124.433C358.338 126.986 360.589 128.874 363.143 128.65Z" fill="#A61E00"/>
<path d="M349.285 227.805C345.316 227.887 342.032 224.735 341.951 220.767L356.325 220.472C356.406 224.44 353.254 227.724 349.285 227.805Z" fill="#0D3F41"/>
<path d="M349.232 225.235C346.154 225.298 343.632 224.012 343.599 222.362L354.743 222.134C354.776 223.785 352.31 225.173 349.232 225.235Z" fill="#1C6666"/>
<path d="M333.454 200.789C335.485 200.747 337.166 202.361 337.208 204.39L337.283 208.067L333.605 208.143C331.574 208.185 329.893 206.57 329.852 204.541C329.81 202.51 331.425 200.83 333.454 200.789Z" fill="#0D3F41"/>
<path d="M364.147 207.521L360.469 207.596L360.394 203.919C360.352 201.888 361.967 200.208 363.997 200.166C366.028 200.125 367.708 201.739 367.75 203.768C367.791 205.799 366.177 207.479 364.147 207.521Z" fill="#0D3F41"/>
<path d="M337.462 221.967C337.462 221.967 328.092 226.856 319.201 224.146C310.309 221.437 305.262 212.155 305.262 212.155C305.262 212.155 314.631 207.266 323.522 209.976C332.415 212.686 337.462 221.967 337.462 221.967Z" fill="#FFFACC"/>
<path d="M321.968 223.97C325.784 223.635 328.607 220.271 328.272 216.455C327.937 212.639 324.572 209.817 320.755 210.152C316.939 210.487 314.116 213.852 314.451 217.668C314.786 221.483 318.151 224.305 321.968 223.97Z" fill="#0D3F41"/>
<path d="M319.922 217.014C321.241 216.899 322.217 215.736 322.101 214.417C321.986 213.098 320.822 212.122 319.503 212.238C318.184 212.354 317.208 213.517 317.324 214.836C317.44 216.155 318.603 217.13 319.922 217.014Z" fill="#1C6666"/>
<path d="M360.86 221.488C360.86 221.488 370.42 225.988 379.195 222.918C387.968 219.846 392.632 210.365 392.632 210.365C392.632 210.365 383.072 205.864 374.297 208.935C365.524 212.007 360.86 221.488 360.86 221.488Z" fill="#FFFACC"/>
<path d="M342.215 239.852C343.33 243.046 346.399 245.307 349.965 245.234C353.532 245.161 356.507 242.774 357.488 239.535C354.719 238.904 352.063 237.63 349.768 235.7C347.554 237.723 344.955 239.108 342.213 239.852L342.215 239.852Z" fill="#DB9EB7"/>
<path d="M374.843 232.575C374.341 232.095 373.545 232.11 373.064 232.612C370.124 235.675 366.168 237.411 361.93 237.498C360.531 237.527 359.158 237.372 357.833 237.05C355.143 236.395 352.657 235.043 350.606 233.074L349.698 232.204L348.827 233.111C346.856 235.165 344.429 236.616 341.768 237.38C340.457 237.756 339.091 237.968 337.693 237.995C333.454 238.082 329.43 236.51 326.367 233.57C325.865 233.089 325.069 233.105 324.588 233.607C324.108 234.109 324.123 234.904 324.625 235.385C329.455 240.02 336.18 241.492 342.214 239.855C344.956 239.112 347.554 237.726 349.769 235.704C352.064 237.633 354.718 238.908 357.489 239.539C358.967 239.876 360.475 240.032 361.982 240.001C366.692 239.905 371.366 238.015 374.88 234.357C375.361 233.855 375.345 233.059 374.843 232.579L374.843 232.575Z" fill="#26515B"/>
<path d="M308.063 178.403C309.433 178.283 310.447 177.074 310.327 175.704C310.207 174.334 308.998 173.32 307.627 173.441C306.257 173.561 305.243 174.769 305.363 176.14C305.484 177.51 306.692 178.523 308.063 178.403Z" fill="#CCD6D5"/>
<path d="M304.543 181.936C305.495 181.852 306.199 181.013 306.115 180.061C306.032 179.11 305.192 178.406 304.241 178.49C303.289 178.573 302.585 179.412 302.669 180.364C302.752 181.315 303.591 182.019 304.543 181.936Z" fill="#CCD6D5"/>
<path d="M401.582 195.963C402.534 195.88 403.238 195.041 403.154 194.089C403.071 193.138 402.231 192.434 401.28 192.518C400.328 192.601 399.624 193.44 399.708 194.392C399.791 195.343 400.63 196.047 401.582 195.963Z" fill="#CCD6D5"/>
<path d="M383.16 211.463L369.016 217.004C368.085 217.369 367.626 218.419 367.991 219.35C368.355 220.281 369.406 220.74 370.337 220.375L384.481 214.834C385.412 214.47 385.871 213.419 385.506 212.488C385.141 211.558 384.091 211.099 383.16 211.463Z" fill="#0D3F41"/>
<path d="M383.266 212.478L380.518 213.554C380.092 213.721 379.882 214.201 380.049 214.627C380.216 215.053 380.696 215.263 381.122 215.096L383.87 214.019C384.296 213.853 384.506 213.372 384.339 212.947C384.172 212.521 383.692 212.311 383.266 212.478Z" fill="#1C6666"/>
<path d="M357.38 262.949C357.295 258.799 353.861 255.504 349.711 255.588C345.56 255.673 342.264 259.106 342.349 263.256C342.428 267.132 345.43 270.262 349.208 270.588L349.162 268.379C348.316 268.071 347.705 267.271 347.686 266.318C347.66 265.08 348.645 264.054 349.884 264.03C351.122 264.006 352.148 264.989 352.172 266.227C352.19 267.179 351.612 268.003 350.782 268.346L350.828 270.556C354.588 270.075 357.46 266.825 357.38 262.949Z" fill="#F5EA83"/>
<path d="M352.174 266.227C352.148 264.989 351.124 264.006 349.886 264.03C348.647 264.054 347.664 265.079 347.688 266.317C347.707 267.269 348.32 268.07 349.164 268.378L349.21 270.588C349.477 270.611 349.746 270.62 350.02 270.616C350.293 270.61 350.562 270.59 350.828 270.556L350.782 268.346C351.614 268.005 352.192 267.18 352.172 266.227L352.174 266.227Z" fill="#FFB23E"/>
<path d="M345.587 261.038C346.181 260.985 346.62 260.462 346.568 259.868C346.516 259.274 345.993 258.835 345.399 258.887C344.805 258.939 344.365 259.463 344.418 260.057C344.47 260.651 344.993 261.09 345.587 261.038Z" fill="#FCF8DB"/>
<path d="M345.885 280.891L323.537 292.497C321.418 293.598 318.877 292.091 318.829 289.703L318.66 281.45L345.887 280.892L345.885 280.891Z" fill="#617A78"/>
<path d="M354.569 280.713L377.375 291.392C379.539 292.405 382.014 290.796 381.965 288.408L381.796 280.155L354.569 280.713Z" fill="#617A78"/>
<path d="M382.222 277.146L318.123 278.462C317.296 278.479 316.639 279.163 316.656 279.99C316.673 280.817 317.357 281.474 318.184 281.457L382.283 280.141C383.11 280.124 383.767 279.44 383.75 278.613C383.733 277.786 383.049 277.129 382.222 277.146Z" fill="#8BA5A3"/>
<path d="M368.882 299.177C372.921 298.823 375.908 295.262 375.554 291.224C375.199 287.186 371.638 284.199 367.599 284.554C363.56 284.908 360.573 288.469 360.928 292.507C361.282 296.545 364.844 299.532 368.882 299.177Z" fill="#91BCBB"/>
<path d="M370.647 287.663C371.91 287.552 372.844 286.439 372.733 285.176C372.622 283.913 371.509 282.979 370.246 283.09C368.983 283.201 368.049 284.315 368.16 285.577C368.27 286.84 369.384 287.774 370.647 287.663Z" fill="#91BCBB"/>
<path d="M373.996 289.801C375.259 289.69 376.193 288.577 376.082 287.314C375.971 286.051 374.857 285.118 373.594 285.228C372.331 285.339 371.397 286.453 371.508 287.715C371.619 288.978 372.733 289.912 373.996 289.801Z" fill="#91BCBB"/>
<path d="M366.687 287.32C367.95 287.209 368.884 286.096 368.773 284.833C368.662 283.57 367.549 282.636 366.286 282.747C365.023 282.858 364.089 283.972 364.2 285.234C364.31 286.497 365.424 287.431 366.687 287.32Z" fill="#91BCBB"/>
<path d="M366.566 285.939C367.066 285.895 367.436 285.454 367.392 284.954C367.348 284.454 366.907 284.085 366.407 284.128C365.907 284.172 365.538 284.613 365.581 285.113C365.625 285.613 366.066 285.983 366.566 285.939Z" fill="#DB9EB7"/>
<path d="M370.525 286.282C371.025 286.238 371.395 285.797 371.351 285.297C371.307 284.797 370.866 284.428 370.366 284.471C369.866 284.515 369.497 284.956 369.54 285.456C369.584 285.956 370.025 286.326 370.525 286.282Z" fill="#DB9EB7"/>
<path d="M373.874 288.42C374.374 288.376 374.744 287.935 374.7 287.435C374.656 286.935 374.215 286.566 373.715 286.61C373.215 286.653 372.845 287.094 372.889 287.594C372.933 288.094 373.374 288.464 373.874 288.42Z" fill="#DB9EB7"/>
<path d="M373.053 292.811C373.744 290.776 372.247 288.427 369.708 287.564C367.169 286.702 364.55 287.653 363.859 289.688C363.167 291.723 364.665 294.072 367.204 294.934C369.742 295.797 372.361 294.846 373.053 292.811Z" fill="#DB9EB7"/>
<path d="M432.039 198.693L406.912 242.02L411.884 244.902L442.004 192.966L432.039 198.693Z" fill="#89BEAA"/>
<path d="M441.98 204.457L442.003 192.966L411.884 244.902L416.855 247.783L441.98 204.457Z" fill="#B7D6D6"/>
<path d="M423.65 243.973L422.188 243.125L410.488 263.299L411.951 264.147L423.65 243.973Z" fill="#FF7F00"/>
<path d="M418.559 267.981L411.946 264.147L415.26 258.431L409.781 255.256L414.803 246.595L420.282 249.77L423.643 243.973L428.031 251.645L418.557 267.98L418.559 267.981Z" fill="#FBA036"/>
<path d="M395.147 254.41L390.673 246.886L400.233 230.401L406.846 234.236L403.485 240.033L408.964 243.208L403.941 251.869L398.463 248.694L395.149 254.41L395.147 254.41Z" fill="#FBA036"/>
<path d="M409.841 255.271L403.902 251.828L396.874 263.948L402.813 267.391L409.841 255.271Z" fill="#5B619B"/>
<path d="M414.706 245.378L410.069 242.689C409.66 242.453 409.157 242.452 408.749 242.686L404.102 245.356C403.693 245.592 403.44 246.027 403.44 246.5L403.43 251.858C403.43 252.331 403.679 252.767 404.088 253.003L408.725 255.692C409.134 255.928 409.637 255.929 410.045 255.695L414.692 253.024C415.1 252.788 415.354 252.353 415.354 251.881L415.364 246.522C415.364 246.05 415.115 245.614 414.706 245.378Z" fill="#FFDA40"/>
<path d="M411.965 245.185L411.6 244.974C410.243 244.188 408.57 244.185 407.21 244.966L406.845 245.177C405.485 245.958 404.646 247.405 404.643 248.974L404.642 249.396C404.639 250.963 405.473 252.413 406.829 253.201L407.194 253.412C408.551 254.198 410.224 254.201 411.584 253.42L411.949 253.209C413.309 252.428 414.148 250.981 414.151 249.412L414.152 248.99C414.155 247.423 413.321 245.973 411.965 245.185Z" fill="#45B236"/>
<path d="M409.59 258.222L410.587 256.504L402.46 251.793L401.464 253.511L409.59 258.222Z" fill="#FFDA40"/>
<path d="M394.729 266.065C393.559 268.082 394.246 270.667 396.265 271.836C398.283 273.006 400.868 272.319 402.038 270.3C402.196 270.027 402.319 269.744 402.411 269.456L395.279 265.321C395.075 265.545 394.889 265.792 394.731 266.063L394.729 266.065Z" fill="#398729"/>
<path d="M402.49 267.209L397.186 264.133L395.775 263.316L394.779 265.033L395.276 265.321L402.408 269.457L402.906 269.745L403.902 268.027L402.49 267.209Z" fill="#FFDA40"/>
<path d="M397.871 269.063L400.356 268.267L397.33 266.511L397.871 269.063Z" fill="#FFDA40"/>
<path d="M400.65 270.674L402.905 269.745L400.337 268.255L400.65 270.674Z" fill="#FFDA40"/>
<path d="M395.093 267.452L397.348 266.522L394.779 265.033L395.093 267.452Z" fill="#FFDA40"/>
<path d="M403.591 267.849L404.588 266.13L397.086 261.781L396.089 263.5L403.591 267.849Z" fill="#FBA036"/>
<path d="M404.412 264.635L398.473 261.193L398.248 261.579L404.187 265.022L404.412 264.635Z" fill="#495189"/>
<path d="M408.196 258.109L402.257 254.666L402.032 255.053L407.972 258.496L408.196 258.109Z" fill="#495189"/>
<path d="M405.167 263.33L399.228 259.888L399.003 260.275L404.942 263.717L405.167 263.33Z" fill="#495189"/>
<path d="M405.923 262.025L399.984 258.583L399.76 258.969L405.699 262.412L405.923 262.025Z" fill="#495189"/>
<path d="M406.682 260.72L400.743 257.277L400.519 257.664L406.458 261.107L406.682 260.72Z" fill="#495189"/>
<path d="M407.438 259.413L401.499 255.97L401.275 256.357L407.214 259.8L407.438 259.413Z" fill="#495189"/>
<path d="M399.627 271.666C399.918 271.64 400.133 271.384 400.107 271.094C400.082 270.803 399.825 270.588 399.535 270.614C399.244 270.639 399.029 270.895 399.055 271.186C399.08 271.476 399.337 271.691 399.627 271.666Z" fill="#A6F498"/>
<path d="M412.056 246.888L410.072 245.737C409.658 245.498 409.146 245.496 408.731 245.734L406.743 246.877C406.327 247.115 406.071 247.558 406.069 248.037L406.065 250.331C406.064 250.811 406.319 251.253 406.733 251.493L408.717 252.644C409.131 252.883 409.643 252.885 410.058 252.647L412.046 251.504C412.462 251.266 412.719 250.823 412.72 250.344L412.724 248.05C412.725 247.57 412.47 247.128 412.056 246.888Z" fill="#409E30"/>
<path d="M410.893 247.558L410.07 247.082C409.656 246.843 409.144 246.841 408.729 247.079L407.905 247.554C407.489 247.792 407.232 248.235 407.231 248.714L407.23 249.664C407.229 250.144 407.484 250.587 407.898 250.826L408.721 251.302C409.135 251.542 409.647 251.544 410.062 251.305L410.886 250.831C411.302 250.593 411.559 250.15 411.56 249.67L411.561 248.72C411.562 248.24 411.307 247.798 410.893 247.558Z" fill="#398729"/>
<path d="M409.539 246.367C409.928 246.332 410.216 245.989 410.182 245.6C410.148 245.211 409.804 244.923 409.415 244.957C409.026 244.991 408.738 245.334 408.772 245.724C408.806 246.113 409.149 246.401 409.539 246.367Z" fill="#62D34F"/>
<path d="M407.997 246.504C408.192 246.486 408.336 246.315 408.319 246.12C408.302 245.926 408.13 245.782 407.936 245.799C407.741 245.816 407.597 245.987 407.614 246.182C407.631 246.377 407.803 246.521 407.997 246.504Z" fill="#62D34F"/>
<path d="M391.876 248.921L390.671 246.886L400.233 230.401L402.016 231.436L391.876 248.921Z" fill="#FF7F00"/>
<path d="M405.671 263.65C406.624 263.567 407.328 262.727 407.245 261.774C407.161 260.822 406.321 260.117 405.368 260.201C404.416 260.285 403.711 261.125 403.795 262.077C403.878 263.029 404.719 263.734 405.671 263.65Z" fill="#91BCBB"/>
<path d="M403.592 265.81C404.545 265.727 405.249 264.887 405.166 263.934C405.082 262.982 404.242 262.277 403.289 262.361C402.337 262.445 401.632 263.285 401.716 264.237C401.799 265.19 402.639 265.894 403.592 265.81Z" fill="#91BCBB"/>
<path d="M406.513 260.773C407.466 260.689 408.17 259.849 408.087 258.897C408.003 257.944 407.163 257.24 406.21 257.324C405.258 257.407 404.553 258.247 404.637 259.2C404.72 260.152 405.56 260.857 406.513 260.773Z" fill="#91BCBB"/>
<path d="M387.635 254.809L372.241 255.125C371.574 255.138 371.045 255.69 371.059 256.356C371.073 257.022 371.624 257.551 372.29 257.538L387.684 257.222C388.351 257.208 388.88 256.657 388.866 255.99C388.853 255.324 388.301 254.795 387.635 254.809Z" fill="#C9361F"/>
<path d="M378.954 253.706L377.273 253.741L377.378 258.827L379.059 258.793L378.954 253.706Z" fill="#A61E00"/>
<path d="M314.022 256.32L312.601 256.349C311.935 256.363 311.406 256.914 311.419 257.581C311.433 258.247 311.984 258.776 312.651 258.762L314.071 258.733C314.738 258.72 315.267 258.168 315.253 257.502C315.24 256.836 314.688 256.306 314.022 256.32Z" fill="#C9361F"/>
<path d="M336.013 129.425C337.94 129.255 339.365 127.556 339.196 125.63C339.027 123.703 337.327 122.278 335.4 122.447C333.473 122.617 332.048 124.316 332.217 126.242C332.386 128.169 334.086 129.594 336.013 129.425Z" fill="#C9361F"/>
<path d="M331.502 132.775C332.409 132.695 333.08 131.896 333.001 130.989C332.921 130.082 332.121 129.411 331.214 129.49C330.307 129.57 329.636 130.37 329.715 131.277C329.795 132.184 330.595 132.855 331.502 132.775Z" fill="#C9361F"/>
<path d="M362.874 126.418C363.589 126.356 364.117 125.726 364.054 125.011C363.992 124.297 363.362 123.769 362.647 123.831C361.933 123.894 361.404 124.524 361.467 125.238C361.53 125.953 362.16 126.481 362.874 126.418Z" fill="#C9361F"/>
<path d="M92.7129 57.1213L102.557 53.7463L103.963 60.4963L98.6192 62.7463L92.7129 57.1213Z" fill="#497A76"/>
<path d="M102.557 53.7463L108.182 51.4963L106.775 59.3713L103.963 60.4963L102.557 53.7463Z" fill="#75A4A2"/>
<path d="M163.69 217.399L152.838 228.34L144.302 196.081L144.27 195.959L144.188 195.862L133.04 182.663L133.014 168.968L133.014 168.935L133.01 168.902L131.862 159.255L131.858 159.219L131.85 159.185L130.179 152.496L131.826 144.397L131.845 144.301L131.832 144.205L131.261 140.232L131.237 140.066L131.126 139.94L128.872 137.383L128.821 137.324L128.755 137.282L125.879 135.434L125.052 128.324L125.051 128.32L123.961 118.344L132.046 116.83L137.214 126.401L138.804 129.598L137.193 134.769L137.181 134.81L137.174 134.852L136.616 138.538L136.599 138.654L136.629 138.767L137.763 143.025L137.798 143.157L137.889 143.258L143.713 149.686L145.668 158.06L145.668 158.06L145.672 158.073L147.656 165.736L147.681 165.832L147.737 165.914L155.262 176.857L155.857 195.7L155.86 195.79L155.89 195.874L163.69 217.399Z" fill="#396D6F" stroke="#396260" stroke-width="1.125"/>
<path d="M117.337 120.216L126.34 118.538L131.759 128.707L133.471 132.192L131.817 137.681L131.275 141.441L132.43 145.791L138.388 152.489L140.418 161.187L142.44 169.017L150.118 180.358L150.806 199.759L158.836 222.103L147.084 234.184L138.388 199.759L126.689 187L126.689 172.387L125.496 162.536L123.762 155.576L125.398 147.192L124.808 143.135L122.54 140.515L119.429 138.468L118.535 130.935L117.337 120.216Z" fill="#326A67"/>
<path d="M159.28 221.789L148.412 232.657L139.944 200.696L139.907 200.557L139.808 200.453L129.824 189.912L128.712 173.801L128.711 173.787L128.71 173.774L127.582 164.211L127.577 164.176L127.569 164.141L125.912 157.515L127.574 149.485L127.602 149.346L127.562 149.211L125.314 141.617L125.258 141.426L125.094 141.313L120.815 138.372L120.273 131.33L119.744 123.675L127.849 122.155L132.995 131.631L134.574 134.789L132.96 139.63L132.916 139.764L132.94 139.904L134.346 148.06L134.37 148.2L134.457 148.311L139.441 154.682L141.384 162.999L141.398 163.059L141.424 163.114L144.799 170.145L144.805 170.157L144.811 170.168L150.936 181.583L151.494 200.294L151.497 200.385L151.528 200.47L159.28 221.789Z" fill="#86B3B5" stroke="#9BCDCB" stroke-width="1.125"/>
<path d="M123.755 99.3088L137.348 93.9651L145.883 89.1838L148.096 87.7776L149.677 86.3713L150.941 84.6838L151.889 82.9963L152.522 81.0276L152.838 79.9026L153.154 78.2151L153.47 76.5276L153.786 74.5588V73.4338V72.3088L153.47 67.5276L158.212 74.2776L160.108 77.9338L161.057 81.8713V86.6526L160.424 91.4338L158.528 95.0901L155.999 97.9026L122.807 118.153L123.755 99.3088Z" fill="#3C6162"/>
<path d="M110.209 102.905L95.756 105.009L85.9732 105.092L83.3543 104.969L81.2843 104.532L79.3492 103.694L77.6886 102.699L76.1629 101.303L75.3303 100.484L74.2187 99.1752L73.107 97.8668L71.8558 96.3143L71.2977 95.3375L70.7395 94.3607L68.642 90.0525L67.8737 98.2657L68.0408 102.381L69.1708 106.27L71.5428 110.422L74.4638 114.26L77.9246 116.493L81.5156 117.68L120.381 118.796L110.209 102.905Z" fill="#3C6162"/>
<path d="M157.295 98.8922L128.763 118.457L129.54 101.089L141.315 95.8858L141.353 95.8692L141.388 95.8473L148.981 91.0661L148.995 91.0574L149.009 91.0478L150.977 89.6416L151.015 89.6145L151.048 89.5816L152.454 88.1753L152.494 88.136L152.525 88.0896L153.65 86.4021L153.669 86.373L153.685 86.3416L154.529 84.6541L154.552 84.6074L154.566 84.5571L155.129 82.5884L155.131 82.5794L155.134 82.5703L155.415 81.4453L155.42 81.4235L155.424 81.4013L155.705 79.7138L155.987 78.0263L155.987 78.0263L155.989 78.0134L156.27 76.0446L156.275 76.0051V75.9651V74.8401V73.7151V73.6685L156.268 73.6226L155.987 71.9351L155.983 71.913L155.977 71.8912L155.933 71.7146L159.165 75.9751L160.801 79.5191L161.619 83.3372V88.0259L161.071 92.6856L159.45 96.1984L157.295 98.8922Z" fill="#B7D6D6" stroke="#84BCB9" stroke-width="1.125"/>
<path d="M82.57 120.169L116.786 121.045L107.072 106.958L94.3631 108.975L94.3225 108.981L94.2814 108.982L85.3084 109.085L85.292 109.085L85.2756 109.084L82.8589 108.971L82.8124 108.969L82.7668 108.959L80.8226 108.541L80.7682 108.529L80.7171 108.507L78.8565 107.7L78.8244 107.686L78.7942 107.668L77.17 106.708L77.125 106.681L77.0856 106.647L75.545 105.298L75.538 105.292L75.5311 105.286L74.6845 104.493L74.6681 104.478L74.653 104.461L73.5013 103.196L72.3495 101.931L72.3494 101.931L72.3408 101.921L71.0365 100.42L71.0103 100.39L70.9886 100.356L70.3783 99.4113L69.7679 98.4663L69.7323 98.4111L69.7103 98.3492L69.1198 96.6849L69.1107 96.6595L69.1042 96.6333L68.6609 94.8601L68.5633 95.9592L68.5633 101.911L69.1149 105.797L70.499 109.448L73.0427 113.387L76.0311 117.004L79.2989 119.075L82.57 120.169Z" fill="#B7D6D6" stroke="#84BCB9" stroke-width="1.125"/>
<path d="M139.118 108.028L127.998 113.579L126.155 105.99L135.684 102.874L138.837 101.559L140.524 100.715L141.649 99.8713L143.056 98.7463L143.618 98.1838L145.411 96.0022L145.587 97.6213L145.587 99.0276L145.306 100.434L144.743 101.84L143.899 103.528L143.056 104.934L139.118 108.028Z" fill="#304746"/>
<path d="M100.959 118.009L115.173 116.791L112.752 109.348L101.494 111.788L97.6093 112.353L95.4516 112.537L93.8553 112.42L91.8205 112.214L90.9434 112.036L87.9298 111.137L88.6629 112.609L89.4521 113.806L90.522 114.852L91.8726 115.749L93.6617 116.734L95.293 117.48L100.959 118.009Z" fill="#304746"/>
<path d="M131.61 108.47L132.887 107.315L131.248 106.786L131.61 108.47Z" fill="#84BCB9"/>
<path d="M131.605 108.468L132.885 107.315L133.244 108.999L131.605 108.468Z" fill="#84BCB9"/>
<path d="M132.528 105.631L132.887 107.316L134.166 106.162L132.528 105.631Z" fill="#84BCB9"/>
<path d="M133.255 108.996L132.885 107.314L134.527 107.835L133.255 108.996Z" fill="#84BCB9"/>
<path d="M134.526 107.843L132.887 107.315L134.164 106.159L134.526 107.843Z" fill="#84BCB9"/>
<path d="M131.244 106.795L132.886 107.316L132.516 105.634L131.244 106.795Z" fill="#84BCB9"/>
<path d="M132.021 108.148L132.895 107.357L131.773 106.996L132.021 108.148Z" fill="#A8D6D7"/>
<path d="M132.018 108.145L132.894 107.356L133.139 108.509L132.018 108.145Z" fill="#A8D6D7"/>
<path d="M132.648 106.204L132.893 107.357L133.769 106.568L132.648 106.204Z" fill="#A8D6D7"/>
<path d="M133.145 108.508L132.892 107.357L134.016 107.713L133.145 108.508Z" fill="#A8D6D7"/>
<path d="M134.016 107.719L132.894 107.357L133.768 106.567L134.016 107.719Z" fill="#A8D6D7"/>
<path d="M131.77 107.001L132.894 107.358L132.64 106.207L131.77 107.001Z" fill="#A8D6D7"/>
<path d="M136.495 106.129L137.371 105.336L136.247 104.974L136.495 106.129Z" fill="#84BCB9"/>
<path d="M136.491 106.127L137.368 105.336L137.615 106.492L136.491 106.127Z" fill="#84BCB9"/>
<path d="M137.123 104.182L137.369 105.338L138.247 104.547L137.123 104.182Z" fill="#84BCB9"/>
<path d="M137.621 106.49L137.368 105.336L138.494 105.694L137.621 106.49Z" fill="#84BCB9"/>
<path d="M138.492 105.699L137.368 105.337L138.244 104.544L138.492 105.699Z" fill="#84BCB9"/>
<path d="M136.242 104.98L137.368 105.337L137.115 104.183L136.242 104.98Z" fill="#84BCB9"/>
<path d="M136.775 105.909L137.375 105.367L136.605 105.119L136.775 105.909Z" fill="#A8D6D7"/>
<path d="M136.772 105.907L137.372 105.366L137.541 106.157L136.772 105.907Z" fill="#A8D6D7"/>
<path d="M137.204 104.576L137.372 105.367L137.973 104.825L137.204 104.576Z" fill="#A8D6D7"/>
<path d="M137.546 106.156L137.373 105.367L138.143 105.611L137.546 106.156Z" fill="#A8D6D7"/>
<path d="M138.145 105.615L137.376 105.367L137.975 104.825L138.145 105.615Z" fill="#A8D6D7"/>
<path d="M136.602 105.122L137.373 105.367L137.199 104.577L136.602 105.122Z" fill="#A8D6D7"/>
<path d="M140.037 104.164L140.685 103.577L139.853 103.309L140.037 104.164Z" fill="#84BCB9"/>
<path d="M140.034 104.163L140.683 103.578L140.865 104.433L140.034 104.163Z" fill="#84BCB9"/>
<path d="M140.501 102.724L140.683 103.579L141.332 102.994L140.501 102.724Z" fill="#84BCB9"/>
<path d="M140.87 104.431L140.682 103.578L141.515 103.842L140.87 104.431Z" fill="#84BCB9"/>
<path d="M141.517 103.846L140.685 103.578L141.333 102.992L141.517 103.846Z" fill="#84BCB9"/>
<path d="M139.85 103.315L140.683 103.579L140.496 102.726L139.85 103.315Z" fill="#84BCB9"/>
<path d="M140.243 104.002L140.687 103.601L140.118 103.418L140.243 104.002Z" fill="#A8D6D7"/>
<path d="M140.243 104.001L140.687 103.601L140.811 104.185L140.243 104.001Z" fill="#A8D6D7"/>
<path d="M140.562 103.016L140.687 103.601L141.131 103.201L140.562 103.016Z" fill="#A8D6D7"/>
<path d="M140.815 104.184L140.686 103.601L141.256 103.781L140.815 104.184Z" fill="#A8D6D7"/>
<path d="M141.258 103.784L140.689 103.601L141.132 103.2L141.258 103.784Z" fill="#A8D6D7"/>
<path d="M140.116 103.42L140.686 103.601L140.557 103.017L140.116 103.42Z" fill="#A8D6D7"/>
<path d="M109.264 114.599L107.588 114.201L108.771 112.949L109.264 114.599Z" fill="#84BCB9"/>
<path d="M109.267 114.595L107.59 114.2L108.087 115.85L109.267 114.595Z" fill="#84BCB9"/>
<path d="M107.093 112.553L107.59 114.202L105.913 113.807L107.093 112.553Z" fill="#84BCB9"/>
<path d="M108.075 115.853L107.589 114.2L106.401 115.447L108.075 115.853Z" fill="#84BCB9"/>
<path d="M106.406 115.454L107.589 114.201L105.913 113.803L106.406 115.454Z" fill="#84BCB9"/>
<path d="M108.778 112.955L107.59 114.202L107.104 112.549L108.778 112.955Z" fill="#84BCB9"/>
<path d="M108.747 114.515L107.6 114.243L108.409 113.386L108.747 114.515Z" fill="#A8D6D7"/>
<path d="M108.747 114.511L107.6 114.241L107.94 115.37L108.747 114.511Z" fill="#A8D6D7"/>
<path d="M107.262 113.113L107.602 114.242L106.454 113.972L107.262 113.113Z" fill="#A8D6D7"/>
<path d="M107.933 115.372L107.601 114.242L106.788 115.095L107.933 115.372Z" fill="#A8D6D7"/>
<path d="M106.791 115.1L107.6 114.243L106.453 113.97L106.791 115.1Z" fill="#A8D6D7"/>
<path d="M108.415 113.39L107.601 114.243L107.269 113.112L108.415 113.39Z" fill="#A8D6D7"/>
<path d="M103.857 114.899L102.707 114.626L103.518 113.767L103.857 114.899Z" fill="#84BCB9"/>
<path d="M103.86 114.895L102.71 114.625L103.05 115.756L103.86 114.895Z" fill="#84BCB9"/>
<path d="M102.369 113.495L102.71 114.626L101.56 114.356L102.369 113.495Z" fill="#84BCB9"/>
<path d="M103.044 115.758L102.711 114.625L101.896 115.48L103.044 115.758Z" fill="#84BCB9"/>
<path d="M101.899 115.484L102.71 114.625L101.561 114.352L101.899 115.484Z" fill="#84BCB9"/>
<path d="M103.525 113.77L102.71 114.626L102.377 113.492L103.525 113.77Z" fill="#84BCB9"/>
<path d="M103.507 114.841L102.72 114.654L103.275 114.067L103.507 114.841Z" fill="#A8D6D7"/>
<path d="M103.507 114.838L102.72 114.653L102.953 115.427L103.507 114.838Z" fill="#A8D6D7"/>
<path d="M102.488 113.879L102.721 114.653L101.934 114.468L102.488 113.879Z" fill="#A8D6D7"/>
<path d="M102.949 115.429L102.721 114.653L102.163 115.239L102.949 115.429Z" fill="#A8D6D7"/>
<path d="M102.163 115.243L102.718 114.655L101.932 114.468L102.163 115.243Z" fill="#A8D6D7"/>
<path d="M103.278 114.069L102.72 114.654L102.492 113.878L103.278 114.069Z" fill="#A8D6D7"/>
<path d="M97.599 64.3171C97.3826 63.7537 97.6492 63.12 98.2032 62.8808L108.596 58.3932C109.15 58.1538 109.795 58.3949 110.056 58.9394L112.617 64.2777C112.823 64.7082 112.736 65.2222 112.398 65.5598L110.869 67.0889C110.765 67.1928 110.642 67.2754 110.506 67.3319L107.336 68.6525L103.27 70.2791C103.169 70.3195 103.063 70.345 102.954 70.3549L100.868 70.5446C100.367 70.5902 99.8967 70.2975 99.7162 69.8277L97.599 64.3171Z" fill="#555555"/>
<path d="M99.809 114.882L98.959 114.68L99.5588 114.045L99.809 114.882Z" fill="#84BCB9"/>
<path d="M99.8117 114.88L98.9613 114.679L99.2131 115.516L99.8117 114.88Z" fill="#84BCB9"/>
<path d="M98.7097 113.844L98.9615 114.681L98.1111 114.48L98.7097 113.844Z" fill="#84BCB9"/>
<path d="M99.2083 115.518L98.962 114.679L98.3593 115.312L99.2083 115.518Z" fill="#84BCB9"/>
<path d="M98.3599 115.315L98.9596 114.68L98.1097 114.479L98.3599 115.315Z" fill="#84BCB9"/>
<path d="M99.5641 114.048L98.9614 114.68L98.7151 113.842L99.5641 114.048Z" fill="#84BCB9"/>
<path d="M99.5492 114.84L98.9677 114.702L99.378 114.267L99.5492 114.84Z" fill="#A8D6D7"/>
<path d="M99.549 114.838L98.9672 114.701L99.1394 115.274L99.549 114.838Z" fill="#A8D6D7"/>
<path d="M98.7949 114.129L98.9672 114.701L98.3854 114.565L98.7949 114.129Z" fill="#A8D6D7"/>
<path d="M99.1365 115.274L98.968 114.701L98.5556 115.134L99.1365 115.274Z" fill="#A8D6D7"/>
<path d="M98.5555 115.137L98.9658 114.703L98.3843 114.565L98.5555 115.137Z" fill="#A8D6D7"/>
<path d="M99.3815 114.269L98.9691 114.701L98.8006 114.128L99.3815 114.269Z" fill="#A8D6D7"/>
<path d="M103.12 70.3394L110.716 67.246L114.931 74.8395L118.588 82.4333L121.681 90.0271L124.494 99.0271L112.4 103.246L108.183 94.2465L106.212 86.934L104.244 78.4957L103.12 70.3394Z" fill="#253333"/>
<path d="M104.44 69.8727L109.587 67.8091L113.131 75.4068L116.443 83.1149L119.362 90.7666L122.226 99.7495L114.212 102.616L110.368 93.4934L108.261 86.2262L106.042 77.8708L104.44 69.8727Z" fill="#303F3F"/>
<path d="M107.337 106.339L115.213 92.8399L128.992 100.715L127.87 136.433L107.337 106.339Z" fill="#4B7270"/>
<path d="M110.075 108.131L116.448 97.2074L127.597 103.579L126.69 132.481L110.075 108.131Z" fill="#304746"/>
<path d="M118.728 111.601L119.402 107.747L115.728 109.09L118.728 111.601Z" fill="#84BCB9"/>
<path d="M118.722 111.601L119.404 107.749L122.399 110.265L118.722 111.601Z" fill="#84BCB9"/>
<path d="M116.408 105.232L119.403 107.748L120.085 103.896L116.408 105.232Z" fill="#84BCB9"/>
<path d="M122.413 110.244L119.402 107.747L123.07 106.387L122.413 110.244Z" fill="#84BCB9"/>
<path d="M123.076 106.405L119.402 107.747L120.077 103.894L123.076 106.405Z" fill="#84BCB9"/>
<path d="M115.735 109.109L119.403 107.749L116.391 105.252L115.735 109.109Z" fill="#84BCB9"/>
<path d="M119.02 110.447L119.481 107.811L116.967 108.73L119.02 110.447Z" fill="#A8D6D7"/>
<path d="M119.015 110.447L119.481 107.811L121.531 109.533L119.015 110.447Z" fill="#A8D6D7"/>
<path d="M117.432 106.089L119.481 107.811L119.948 105.175L117.432 106.089Z" fill="#A8D6D7"/>
<path d="M121.54 109.518L119.48 107.81L121.989 106.88L121.54 109.518Z" fill="#A8D6D7"/>
<path d="M121.995 106.892L119.481 107.811L119.943 105.174L121.995 106.892Z" fill="#A8D6D7"/>
<path d="M116.974 108.744L119.484 107.814L117.423 106.105L116.974 108.744Z" fill="#A8D6D7"/>
<path d="M135.834 186.163L141.083 185.933L138.259 181.502L135.834 186.163Z" fill="#68A4A1"/>
<path d="M135.832 186.156L141.082 185.935L138.648 190.592L135.832 186.156Z" fill="#68A4A1"/>
<path d="M143.517 181.281L141.083 185.938L146.333 185.718L143.517 181.281Z" fill="#68A4A1"/>
<path d="M138.68 190.608L141.084 185.936L143.928 190.354L138.68 190.608Z" fill="#68A4A1"/>
<path d="M143.907 190.364L141.083 185.933L146.332 185.703L143.907 190.364Z" fill="#68A4A1"/>
<path d="M138.236 181.516L141.081 185.934L143.484 181.262L138.236 181.516Z" fill="#68A4A1"/>
<path d="M137.382 186.174L140.975 186.061L139.081 183.006L137.382 186.174Z" fill="#8BCACC"/>
<path d="M137.382 186.171L140.975 186.065L139.27 189.23L137.382 186.171Z" fill="#8BCACC"/>
<path d="M142.678 182.896L140.973 186.061L144.567 185.955L142.678 182.896Z" fill="#8BCACC"/>
<path d="M139.291 189.238L140.975 186.062L142.884 189.109L139.291 189.238Z" fill="#8BCACC"/>
<path d="M142.869 189.117L140.975 186.062L144.568 185.949L142.869 189.117Z" fill="#8BCACC"/>
<path d="M139.063 183.019L140.971 186.065L142.655 182.889L139.063 183.019Z" fill="#8BCACC"/>
<path d="M134.854 176.358L137.396 176.075L135.88 174.014L134.854 176.358Z" fill="#68A4A1"/>
<path d="M134.852 176.354L137.395 176.076L136.364 178.418L134.852 176.354Z" fill="#68A4A1"/>
<path d="M138.429 173.738L137.399 176.079L139.942 175.801L138.429 173.738Z" fill="#68A4A1"/>
<path d="M136.379 178.423L137.394 176.075L138.92 178.128L136.379 178.423Z" fill="#68A4A1"/>
<path d="M138.912 178.135L137.396 176.075L139.938 175.792L138.912 178.135Z" fill="#68A4A1"/>
<path d="M135.867 174.022L137.393 176.075L138.408 173.727L135.867 174.022Z" fill="#68A4A1"/>
<path d="M135.622 176.335L137.362 176.141L136.324 174.732L135.622 176.335Z" fill="#8BCACC"/>
<path d="M135.623 176.334L137.363 176.143L136.658 177.745L135.623 176.334Z" fill="#8BCACC"/>
<path d="M138.071 174.537L137.366 176.139L139.105 175.949L138.071 174.537Z" fill="#8BCACC"/>
<path d="M136.673 177.749L137.367 176.143L138.411 177.547L136.673 177.749Z" fill="#8BCACC"/>
<path d="M138.401 177.551L137.363 176.141L139.103 175.948L138.401 177.551Z" fill="#8BCACC"/>
<path d="M136.317 174.739L137.361 176.144L138.055 174.537L136.317 174.739Z" fill="#8BCACC"/>
<path d="M133.487 168.517L135.128 168.334L134.149 167.004L133.487 168.517Z" fill="#68A4A1"/>
<path d="M133.487 168.514L135.128 168.334L134.463 169.846L133.487 168.514Z" fill="#68A4A1"/>
<path d="M135.793 166.825L135.128 168.336L136.77 168.157L135.793 166.825Z" fill="#68A4A1"/>
<path d="M134.473 169.851L135.129 168.335L136.114 169.66L134.473 169.851Z" fill="#68A4A1"/>
<path d="M136.107 169.664L135.128 168.334L136.77 168.152L136.107 169.664Z" fill="#68A4A1"/>
<path d="M134.143 167.009L135.128 168.334L135.783 166.818L134.143 167.009Z" fill="#68A4A1"/>
<path d="M133.986 168.501L135.109 168.376L134.439 167.466L133.986 168.501Z" fill="#8BCACC"/>
<path d="M133.986 168.5L135.11 168.377L134.654 169.411L133.986 168.5Z" fill="#8BCACC"/>
<path d="M135.563 167.341L135.108 168.375L136.231 168.252L135.563 167.341Z" fill="#8BCACC"/>
<path d="M134.661 169.414L135.109 168.376L135.783 169.283L134.661 169.414Z" fill="#8BCACC"/>
<path d="M135.778 169.286L135.109 168.376L136.232 168.251L135.778 169.286Z" fill="#8BCACC"/>
<path d="M134.434 167.47L135.108 168.377L135.557 167.34L134.434 167.47Z" fill="#8BCACC"/>
<path d="M142.269 195.972L143.91 195.789L142.932 194.459L142.269 195.972Z" fill="#68A4A1"/>
<path d="M142.269 195.969L143.91 195.79L143.245 197.301L142.269 195.969Z" fill="#68A4A1"/>
<path d="M144.577 194.28L143.911 195.792L145.553 195.612L144.577 194.28Z" fill="#68A4A1"/>
<path d="M143.256 197.306L143.911 195.79L144.896 197.116L143.256 197.306Z" fill="#68A4A1"/>
<path d="M144.889 197.12L143.911 195.79L145.552 195.607L144.889 197.12Z" fill="#68A4A1"/>
<path d="M142.925 194.464L143.91 195.789L144.566 194.274L142.925 194.464Z" fill="#68A4A1"/>
<path d="M142.769 195.956L143.891 195.831L143.222 194.921L142.769 195.956Z" fill="#8BCACC"/>
<path d="M142.769 195.955L143.892 195.833L143.437 196.867L142.769 195.955Z" fill="#8BCACC"/>
<path d="M144.346 194.796L143.891 195.83L145.014 195.707L144.346 194.796Z" fill="#8BCACC"/>
<path d="M143.443 196.869L143.891 195.832L144.565 196.739L143.443 196.869Z" fill="#8BCACC"/>
<path d="M144.561 196.742L143.891 195.832L145.014 195.707L144.561 196.742Z" fill="#8BCACC"/>
<path d="M143.217 194.926L143.891 195.833L144.339 194.796L143.217 194.926Z" fill="#8BCACC"/>
<path d="M123.847 119.73L122.612 117.59L121.376 119.73L123.847 119.73Z" fill="#84BCB9"/>
<path d="M123.845 119.732L122.614 117.59L125.084 117.595L123.845 119.732Z" fill="#84BCB9"/>
<path d="M120.143 117.585L122.613 117.59L121.382 115.448L120.143 117.585Z" fill="#84BCB9"/>
<path d="M125.084 117.578L122.613 117.59L123.838 115.444L125.084 117.578Z" fill="#84BCB9"/>
<path d="M123.847 115.45L122.612 117.59L121.376 115.45L123.847 115.45Z" fill="#84BCB9"/>
<path d="M121.388 119.736L122.614 117.59L120.143 117.602L121.388 119.736Z" fill="#84BCB9"/>
<path d="M123.521 119.054L122.676 117.59L121.831 119.054L123.521 119.054Z" fill="#A8D6D7"/>
<path d="M123.517 119.056L122.675 117.59L124.365 117.593L123.517 119.056Z" fill="#A8D6D7"/>
<path d="M120.985 117.587L122.676 117.59L121.833 116.124L120.985 117.587Z" fill="#A8D6D7"/>
<path d="M124.367 117.582L122.676 117.59L123.514 116.122L124.367 117.582Z" fill="#A8D6D7"/>
<path d="M123.521 116.126L122.676 117.59L121.831 116.126L123.521 116.126Z" fill="#A8D6D7"/>
<path d="M121.838 119.058L122.677 117.591L120.986 117.598L121.838 119.058Z" fill="#A8D6D7"/>
<path d="M94.4004 36.5901L102.557 53.7463L92.7129 57.1213L94.4004 36.5901Z" fill="#558B87"/>
<path d="M94.4004 36.5901L108.182 51.4963L102.557 53.7463L94.4004 36.5901Z" fill="#84BCB9"/>
<path d="M61.4623 26.5133L64.494 23.881L67.6989 28.9052L64.389 27.6697L61.4623 26.5133Z" fill="#B9DCD9"/>
<path d="M64.4928 23.881L66.1787 22.2618L66.816 25.2818L67.6976 28.9052L64.4928 23.881Z" fill="#CAEDEB"/>
<path d="M59.0928 18.9264L64.4938 23.881L61.462 26.5133L59.0928 18.9264Z" fill="#BDEDE9"/>
<path d="M59.0922 18.9265L66.1791 22.2619L64.4932 23.8811L59.0922 18.9265Z" fill="#E2F5F4"/>
<path d="M81.1826 4.66488L82.8605 4.0896L83.3399 6.67838L82.1894 5.62369L81.1826 4.66488Z" fill="#B9DCD9"/>
<path d="M82.8604 4.0897L83.8192 3.70618L83.5795 5.04851L83.3398 6.67848L82.8604 4.0897Z" fill="#CAEDEB"/>
<path d="M81.4703 1.16528L82.8605 4.08964L81.1826 4.66493L81.4703 1.16528Z" fill="#BDEDE9"/>
<path d="M81.4697 1.16537L83.8188 3.70621L82.86 4.08973L81.4697 1.16537Z" fill="#E2F5F4"/>
<path d="M91.5702 20.3778L93.3393 20.5069L92.7647 23.0762L92.1201 21.6547L91.5702 20.3778Z" fill="#B9DCD9"/>
<path d="M93.3398 20.5067L94.3722 20.5301L93.6251 21.6708L92.7652 23.076L93.3398 20.5067Z" fill="#CAEDEB"/>
<path d="M93.2079 17.2715L93.3396 20.5069L91.5705 20.3778L93.2079 17.2715Z" fill="#BDEDE9"/>
<path d="M93.2079 17.2715L94.3719 20.5302L93.3395 20.5068L93.2079 17.2715Z" fill="#E2F5F4"/>
<path d="M77.8013 22.8808L78.8848 21.4764L80.7109 23.3729L79.1697 23.1265L77.8013 22.8808Z" fill="#B9DCD9"/>
<path d="M78.8841 21.4767L79.4731 20.6285L80.0124 21.8808L80.7102 23.3733L78.8841 21.4767Z" fill="#CAEDEB"/>
<path d="M76.1141 19.8015L78.8853 21.4764L77.8018 22.8808L76.1141 19.8015Z" fill="#BDEDE9"/>
<path d="M76.1138 19.8018L79.4739 20.6284L78.885 21.4767L76.1138 19.8018Z" fill="#E2F5F4"/>
<path d="M106.229 9.09596L110.692 9.9389L108.483 16.3074L107.256 12.504L106.229 9.09596Z" fill="#B9DCD9"/>
<path d="M110.692 9.94015L113.312 10.2999L111.08 12.9842L108.483 16.3086L110.692 9.94015Z" fill="#CAEDEB"/>
<path d="M111.297 1.67284L110.691 9.94091L106.229 9.09797L111.297 1.67284Z" fill="#BDEDE9"/>
<path d="M111.293 1.66944L113.305 10.2973L110.686 9.93752L111.293 1.66944Z" fill="#E2F5F4"/>
<path d="M110.955 33.4566L113.841 34.0018L112.413 38.1211L111.619 35.661L110.955 33.4566Z" fill="#B9DCD9"/>
<path d="M113.843 34.0027L115.538 34.2354L114.094 35.9716L112.414 38.1219L113.843 34.0027Z" fill="#CAEDEB"/>
<path d="M114.232 28.6549L113.84 34.0028L110.954 33.4576L114.232 28.6549Z" fill="#BDEDE9"/>
<path d="M114.231 28.6529L115.533 34.2335L113.839 34.0008L114.231 28.6529Z" fill="#E2F5F4"/>
<path d="M65.4478 60.2578L66.1762 57.4121L70.1959 59.101L67.6901 59.7354L65.4478 60.2578Z" fill="#B9DCD9"/>
<path d="M66.1784 57.4101L66.5188 55.7341L68.1593 57.2859L70.198 59.099L66.1784 57.4101Z" fill="#CAEDEB"/>
<path d="M60.8659 56.6795L66.1779 57.4125L65.4494 60.2582L60.8659 56.6795Z" fill="#BDEDE9"/>
<path d="M60.8638 56.6804L66.5162 55.7374L66.1758 57.4133L60.8638 56.6804Z" fill="#E2F5F4"/>
<path d="M73.2387 43.3754L74.4511 41.6978L76.6504 43.8431L74.8437 43.6119L73.2387 43.3754Z" fill="#B9DCD9"/>
<path d="M74.4505 41.6962L75.1064 40.6853L75.7813 42.1263L76.6497 43.8414L74.4505 41.6962Z" fill="#CAEDEB"/>
<path d="M71.156 39.8457L74.4495 41.6979L73.2371 43.3755L71.156 39.8457Z" fill="#BDEDE9"/>
<path d="M71.1547 39.8461L75.1041 40.6874L74.4481 41.6983L71.1547 39.8461Z" fill="#E2F5F4"/>
<path d="M129.409 37.1816L132.105 38.2125L130.005 41.9473L129.667 39.4296L129.409 37.1816Z" fill="#B9DCD9"/>
<path d="M132.104 38.2134L133.702 38.734L132.003 40.1613L130.004 41.9482L132.104 38.2134Z" fill="#CAEDEB"/>
<path d="M133.416 33.1098L132.104 38.2137L129.407 37.1829L133.416 33.1098Z" fill="#BDEDE9"/>
<path d="M133.414 33.1067L133.7 38.7312L132.102 38.2106L133.414 33.1067Z" fill="#E2F5F4"/>
</svg>
