<svg width="233" height="241" viewBox="0 0 233 241" fill="none" xmlns="http://www.w3.org/2000/svg">
<path d="M33.27 27.7509L178.074 44.6817L169.125 56.2229L168.937 56.4655L168.84 56.7567L162.212 76.6388L162.163 76.7867L162.14 76.941L158.826 99.0321L158.806 99.1649L158.806 99.2991L158.806 117.649L12.2356 96.0949L12.7355 80.0999L14.9113 61.0613L21.9167 42.2006L33.27 27.7509Z" fill="#3B4339" stroke="#FFB23E" stroke-width="3.6"/>
<path d="M25.1869 168.955L12.6113 99.7893L158.632 121.263L151.296 187.817L25.1869 168.955Z" fill="#3B4339" stroke="#FFB23E" stroke-width="3.6"/>
<path d="M164.978 77.4418L170.968 57.2951L181.829 44.3652L186.42 47.1198L190.455 51.6599L190.455 75.1986L161.688 114.754L161.688 99.3783L164.978 77.4418Z" fill="#3B4339" stroke="#FFB23E" stroke-width="2.16"/>
<path d="M154.331 185.814L160.549 117.933L189.814 79.5867L178.907 149.703L154.331 185.814Z" fill="#3B4339" stroke="#FFB23E" stroke-width="2.16"/>
<path d="M75.5495 90.4644L90.4611 92.6735L87.1474 111.451L87.6997 128.019L73.3404 126.363L71.6836 109.794L75.5495 90.4644Z" fill="#C29641"/>
<ellipse cx="80.6077" cy="104.686" rx="3.69741" ry="3.92692" transform="rotate(3.11163 80.6077 104.686)" fill="#52401A"/>
<path d="M79.1862 107.656L81.3867 107.851L81.3867 116.971L77.7556 116.419L79.1862 107.656Z" fill="#52401A"/>
<path d="M3.17359 52.085L4.65397 53.5431L6.71748 53.9461L5.19961 55.4707L4.71279 57.5507L3.24218 56.081L1.16734 55.6687L2.69654 54.1534L3.17359 52.085Z" fill="#FFF5BF"/>
<path d="M46.106 16.5673L47.0253 17.4728L48.3067 17.723L47.3641 18.6698L47.0618 19.9614L46.1486 19.0488L44.8601 18.7927L45.8098 17.8518L46.106 16.5673Z" fill="#FFF5BF"/>
<path d="M75.0176 19.4336L76.8166 21.2056L79.3242 21.6952L77.4796 23.548L76.888 26.0757L75.101 24.2896L72.5796 23.7886L74.4379 21.9472L75.0176 19.4336Z" fill="#FFF5BF"/>
<path d="M200.185 44.6472L201.104 45.5527L202.386 45.8029L201.443 46.7497L201.141 48.0414L200.228 47.1287L198.939 46.8727L199.889 45.9317L200.185 44.6472Z" fill="#FFF5BF"/>
<path d="M180.744 17.7942L181.663 16.8887L182.944 16.6385L182.002 15.6917L181.7 14.4L180.786 15.3127L179.498 15.5687L180.447 16.5097L180.744 17.7942Z" fill="#FFF5BF"/>
<path d="M105.145 28.5942L106.064 27.6887L107.346 27.4385L106.403 26.4917L106.101 25.2001L105.188 26.1127L103.899 26.3688L104.849 27.3097L105.145 28.5942Z" fill="#FFF5BF"/>
<path d="M136.825 11.3143L137.744 10.4088L139.025 10.1586L138.083 9.21183L137.781 7.92017L136.867 8.83284L135.579 9.08887L136.529 10.0298L136.825 11.3143Z" fill="#FFF5BF"/>
<path d="M127.465 23.5543L128.385 22.6488L129.666 22.3986L128.724 21.4518L128.421 20.1602L127.508 21.0728L126.22 21.3289L127.169 22.2698L127.465 23.5543Z" fill="#FFF5BF"/>
<path d="M167.785 33.6342L168.704 32.7288L169.985 32.4786L169.043 31.5318L168.741 30.2401L167.827 31.1528L166.539 31.4088L167.488 32.3498L167.785 33.6342Z" fill="#FFF5BF"/>
<path d="M90.0259 11.3143L90.9452 10.4088L92.2266 10.1586L91.284 9.21183L90.9817 7.92017L90.0685 8.83284L88.7801 9.08887L89.7297 10.0298L90.0259 11.3143Z" fill="#FFF5BF"/>
<path d="M60.4669 10.7437L63.0001 8.24863L66.5311 7.55914L63.9338 4.95024L63.1007 1.39098L60.5843 3.90591L57.0339 4.61141L59.6506 7.20431L60.4669 10.7437Z" fill="#FFF5BF"/>
<path d="M215.794 19.0183L217.4 20.6004L219.639 21.0376L217.992 22.6918L217.464 24.9487L215.868 23.354L213.617 22.9067L215.276 21.2626L215.794 19.0183Z" fill="#FFF5BF"/>
<path d="M189.874 149.338L191.48 150.92L193.719 151.358L192.072 153.012L191.544 155.269L189.948 153.674L187.697 153.227L189.356 151.583L189.874 149.338Z" fill="#FFF5BF"/>
<path d="M189.385 131.047L190.305 131.953L191.586 132.203L190.643 133.15L190.341 134.441L189.428 133.529L188.139 133.273L189.089 132.332L189.385 131.047Z" fill="#FFF5BF"/>
<path d="M200.904 157.687L201.823 158.593L203.105 158.843L202.162 159.79L201.86 161.082L200.946 160.169L199.658 159.913L200.608 158.972L200.904 157.687Z" fill="#FFF5BF"/>
<path d="M7.94486 42.4873L8.86416 43.3928L10.1456 43.643L9.20299 44.5898L8.90068 45.8815L7.98746 44.9688L6.69902 44.7128L7.64862 43.7718L7.94486 42.4873Z" fill="#FFF5BF"/>
<path d="M11.5454 10.0873L12.4647 10.9928L13.7462 11.243L12.8036 12.1898L12.5013 13.4814L11.588 12.5688L10.2996 12.3127L11.2492 11.3718L11.5454 10.0873Z" fill="#FFF5BF"/>
<path d="M29.6323 24.8688L26.4627 21.7938L22.1432 22.6492L24.0796 18.7055L21.9277 14.8559L26.2881 15.4819L29.2831 12.2451L30.0445 16.5887L34.0407 18.4364L30.1287 20.4914L29.6323 24.8688Z" fill="#FFF5BF"/>
<path d="M8.44638 29.5949L6.39537 27.6051L3.60027 28.1586L4.85328 25.6067L3.46084 23.1157L6.28241 23.5208L8.22043 21.4262L8.71307 24.237L11.299 25.4326L8.76757 26.7623L8.44638 29.5949Z" fill="#FFF5BF"/>
<path d="M220.126 51.9148L218.075 49.9251L215.28 50.4786L216.533 47.9267L215.141 45.4356L217.962 45.8407L219.9 43.7462L220.393 46.5569L222.979 47.7525L220.447 49.0823L220.126 51.9148Z" fill="#FFF5BF"/>
<path d="M199.814 34.483L195.538 30.335L189.711 31.4889L192.323 26.1689L189.42 20.9759L195.302 21.8204L199.343 17.4539L200.37 23.3134L205.76 25.8059L200.483 28.578L199.814 34.483Z" fill="#FFF5BF"/>
<path d="M159.661 35.2362L157.16 32.8098L153.752 33.4848L155.28 30.3728L153.582 27.335L157.023 27.829L159.386 25.2748L159.987 28.7024L163.14 30.1604L160.053 31.782L159.661 35.2362Z" fill="#FFF5BF"/>
<path d="M110.332 12.3095L112.833 9.88301L116.241 10.558L114.713 7.44601L116.411 4.40826L112.971 4.90228L110.607 2.34804L110.006 5.77563L106.853 7.23366L109.94 8.85526L110.332 12.3095Z" fill="#FFF5BF"/>
<path d="M208.418 143.177L205.803 140.64L202.238 141.345L203.836 138.091L202.06 134.914L205.659 135.431L208.13 132.76L208.758 136.344L212.056 137.869L208.828 139.565L208.418 143.177Z" fill="#FFF5BF"/>
<path d="M81.9943 170.948L199.392 170.56L203.249 194.74L203.609 218.86L81.9943 214.9L77.3296 199.075L81.9943 170.948Z" fill="#E49724"/>
<path d="M82.0907 168.98C82.2031 168.269 82.8229 167.75 83.5423 167.765L198.678 170.115C199.475 170.131 200.107 170.791 200.089 171.587L199.442 200.377C199.424 201.172 198.765 201.802 197.97 201.784L78.9762 199.112C78.1045 199.092 77.45 198.308 77.5863 197.447L82.0907 168.98Z" fill="#FFDA40"/>
<path d="M138.936 168.77L161.251 169.271L118.07 199.99L94.316 199.456L138.936 168.77Z" fill="#FFEFAB"/>
<path d="M156.216 169.158L178.239 169.653L135.613 200.383L112.169 199.857L156.216 169.158Z" fill="#FFEFAB"/>
<path d="M81.9943 170.948L199.392 170.56L203.249 194.74L203.609 218.86L81.9943 214.9L77.3296 199.075L81.9943 170.948Z" fill="#D98D1B"/>
<path d="M82.0907 168.98C82.2031 168.269 82.8229 167.75 83.5423 167.765L198.678 170.115C199.475 170.131 200.107 170.791 200.089 171.587L199.442 200.377C199.424 201.172 198.765 201.802 197.97 201.784L78.9762 199.112C78.1045 199.092 77.45 198.308 77.5863 197.447L82.0907 168.98Z" fill="#FFDA40"/>
<path d="M138.936 168.77L161.251 169.271L118.07 199.99L94.316 199.456L138.936 168.77Z" fill="#FFEFAB"/>
<path d="M156.216 169.158L178.239 169.653L135.613 200.383L112.169 199.857L156.216 169.158Z" fill="#FFEFAB"/>
<path d="M200.101 171.009L200.099 171.009L203.605 194.74L203.605 218.86L199.409 201.817L200.101 171.009Z" fill="#B4771C"/>
<path d="M66.0736 194.215L173.494 146.85L186.71 167.463L196.698 189.42L83.6728 234.489L73.0617 221.856L66.0736 194.215Z" fill="#E49724"/>
<path d="M65.3745 192.372C65.1929 191.676 65.5532 190.952 66.2183 190.678L172.662 146.728C173.398 146.424 174.241 146.775 174.544 147.512L185.479 174.152C185.781 174.887 185.43 175.729 184.694 176.031L74.5862 221.23C73.7795 221.561 72.8659 221.105 72.6459 220.261L65.3745 192.372Z" fill="#FFDA40"/>
<path d="M117.38 169.418L138.028 160.942L110.761 206.38L88.7804 215.403L117.38 169.418Z" fill="#FFEFAB"/>
<path d="M133.369 162.854L153.748 154.489L126.993 199.717L105.3 208.622L133.369 162.854Z" fill="#FFEFAB"/>
<path d="M174.33 146.975L174.328 146.977L187.044 167.318L196.702 189.42L186.032 175.483L174.33 146.975Z" fill="#B4771C"/>
</svg>
