<svg width="22" height="22" viewBox="0 0 22 22" fill="none" xmlns="http://www.w3.org/2000/svg">
<path d="M10.8293 2.28003C5.97168 2.28003 2.03809 6.22243 2.03809 11.08C2.03809 15.9376 5.97168 19.88 10.8293 19.88C15.6957 19.88 19.6381 15.9376 19.6381 11.08C19.6381 6.22243 15.6957 2.28003 10.8293 2.28003ZM10.8381 18.12C6.94848 18.12 3.79809 14.9696 3.79809 11.08C3.79809 7.19043 6.94848 4.04003 10.8381 4.04003C14.7277 4.04003 17.8781 7.19043 17.8781 11.08C17.8781 14.9696 14.7277 18.12 10.8381 18.12Z" fill="#D2F0F0"/>
<path d="M11.278 6.67993H9.95801V11.9599L14.578 14.7319L15.238 13.6495L11.278 11.2999V6.67993Z" fill="#D2F0F0"/>
</svg>
