<svg xmlns="http://www.w3.org/2000/svg" fill="none" viewBox="17.52 47.12 366.7 93.38">
<g filter="url(#filter0_dd_2931_9061)">
<path d="M34.5748 74.022C37.7477 82.7502 44.2025 84.704 47.7719 84.8807C51.3412 85.0573 51.8483 81.7414 52.448 73.1565C53.0477 64.5717 47.1981 55.3965 44.2854 54.1599C38.3846 52.1149 35.9945 65.8603 34.5748 74.022Z" fill="#3C3B43"/>
<path d="M61.7371 79.5771L54.9915 67.3303L50.1996 61.9131L46.0833 58.7662L44.1166 58.085L41.9747 64.4027L40.2726 71.2203L60.1206 85.9447L61.7371 79.5771Z" fill="#293042"/>
<path d="M39.3434 67.6025L21.9022 68.9507L23.8882 79.1743L26.2243 89.3684L28.5392 102.107L27.3674 115.621L23.7747 129.12L25.0498 137.789L38.4847 135.634L45.4796 133.821L51.1471 131.168L53.447 127.388L57.1286 116.096L61.3665 103.098L59.6515 90.9988L55.3603 79.3615L53.4961 74.8619L49.0716 71.3708L44.6894 69.1387L39.3434 67.6025Z" fill="#343D52"/>
<path d="M17.678 104.39C17.8872 124.161 19.2864 137.094 24.0147 137.677C33.7988 137.785 36.4183 123.37 36.2648 103.962C36.1112 84.5546 31.8103 69.0903 22.0263 68.9823C16.7234 70.9251 17.4687 84.6192 17.678 104.39Z" fill="#293042"/>
<path d="M48.7532 67.4332L34.0635 73.9594L37.8966 81.8912L40.0492 90.4934L42.3384 101.306L42.3619 113.156L40.7795 125.247L39.3595 133.409L51.1855 131.357L60.3487 120.639L62.1207 110.454L64.1604 98.7307L62.3068 88.4102L62.8556 79.2634L59.9685 71.887L48.7532 67.4332Z" fill="#343D52"/>
<path d="M368.44 60.7648L351.149 61.2663L357.011 72.5196L359.164 81.1218L361.453 91.9348L361.476 103.785L359.894 115.876L351.316 126.227L370.3 121.985L379.463 111.267L382.863 100.717L384.221 89.9145L384.048 78.9236L381.97 69.8918L376.457 62.6304L368.44 60.7648Z" fill="#343D52"/>
<path d="M25.4671 66.4571L29.3887 77.1018L34.8383 81.5145L35.6829 88.9994L42.6495 98.1267L48.3372 108.933L52.8821 120.478L55.6744 128.385L63.9575 122.689L66.0087 109.947L62.5243 100.08L58.5136 88.7228L52.1239 79.9041L44.7383 72.2404L38.0984 68.0135L25.4671 66.4571Z" fill="#343D52"/>
<g filter="url(#filter1_dd_2931_9061)">
<path d="M343.168 47.1196L310.765 56.7331L261.494 64.2623L194.943 66.1509L98.5065 66.1114L67.8846 62.337L44.2837 54.163L59.6546 76.68L61.5317 98.8505L57.8694 119.9L44.7472 135.395L79.2116 129.116L114.018 126.82L270.267 127.655L304.972 131.932L335.282 140.495L353.284 126.918L365.46 110.867L368.972 84.5381L359.74 65.8448L343.168 47.1196Z" fill="#6D6C74"/>
</g>
<path d="M40.1505 91.1851L32.0888 84.3933L28.8698 89.7644L40.1505 91.1851Z" fill="#293042"/>
<path d="M37.5334 78.9932L27.0002 75.3094L26.4636 81.3082L37.5334 78.9932Z" fill="#293042"/>
<path d="M66.1035 81.095L57.6599 74.6402L54.7541 80.1364L66.1035 81.095Z" fill="#343D52"/>
<path d="M56.0481 66.78L47.6673 60.2676L44.7084 65.7437L56.0481 66.78Z" fill="#293042"/>
<path d="M64.7021 101.105L56.2586 94.6505L53.3527 100.147L64.7021 101.105Z" fill="#343D52"/>
<path d="M65.0624 123.088L56.6189 116.633L53.7131 122.129L65.0624 123.088Z" fill="#343D52"/>
<path d="M44.303 108.222L34.7673 102.954L32.9148 108.764L44.303 108.222Z" fill="#293042"/>
<path d="M40.1934 124.886L30.9329 119.281L28.7881 125.02L40.1934 124.886Z" fill="#293042"/>
<path d="M36.1837 132.539L27.6906 126.131L24.8272 131.643L36.1837 132.539Z" fill="#293042"/>
<path d="M34.5729 74.022C37.7457 82.7502 44.2005 84.704 47.7699 84.8807C51.3393 85.0573 51.8463 81.7414 52.4461 73.1565C53.0458 64.5717 47.1962 55.3965 44.2834 54.1599C38.3826 52.1149 35.9925 65.8603 34.5729 74.022Z" fill="#3C3B43"/>
<path d="M61.7489 79.5788L55.0032 67.332L50.2113 61.9148L46.095 58.7679L44.1283 58.0867L41.9865 64.4044L40.2843 71.222L60.1323 85.9464L61.7489 79.5788Z" fill="#293042"/>
<path d="M39.3434 67.6026L21.9022 68.9508L23.8882 79.1745L26.2243 89.3685L28.5392 102.108L27.3674 115.621L23.7747 129.12L25.0498 137.789L38.4847 135.634L45.4796 133.821L51.1471 131.169L53.447 127.388L57.1286 116.096L61.3665 103.098L59.6515 90.9989L55.3603 79.3616L53.4961 74.8621L49.0716 71.371L44.6894 69.1388L39.3434 67.6026Z" fill="#343D52"/>
<path d="M17.6799 104.39C17.8892 124.161 19.2883 137.093 24.0167 137.676C33.8008 137.784 36.4202 123.369 36.2667 103.962C36.1132 84.5543 31.8123 69.09 22.0282 68.982C16.7253 70.9247 17.4706 84.6189 17.6799 104.39Z" fill="#1D2331"/>
<path d="M48.7532 67.434L34.0635 73.9603L37.8966 81.8921L40.0492 90.4943L42.3384 101.307L42.3619 113.157L40.7795 125.248L39.3595 133.41L51.1855 131.357L60.3487 120.64L62.1207 110.455L64.1604 98.7316L62.3068 88.4111L62.8556 79.2643L59.9685 71.8879L48.7532 67.434Z" fill="#343D52"/>
<path d="M368.439 60.7643L351.148 61.2658L357.01 72.5191L359.163 81.1213L361.452 91.9343L361.475 103.784L359.893 115.875L351.315 126.226L370.299 121.984L379.462 111.267L382.862 100.716L384.22 89.914L384.047 78.9231L381.969 69.8913L376.456 62.63L368.439 60.7643Z" fill="#343D52"/>
<path d="M25.4603 66.4571L29.3819 77.1018L34.8314 81.5145L35.676 88.9994L42.6427 98.1267L48.3304 108.933L52.8753 120.478L55.6676 128.385L63.9506 122.689L66.0018 109.947L62.5175 100.08L58.5068 88.7228L52.1171 79.9041L44.7314 72.2404L38.0915 68.0135L25.4603 66.4571Z" fill="#343D52"/>
<path d="M343.198 47.1233L310.794 56.7368L261.523 64.266L194.972 66.1545L98.5358 66.1151L67.9139 62.3406L44.313 54.1666L59.6839 76.6836L61.561 98.8542L57.8987 119.903L44.7765 135.398L79.2409 129.12L114.047 126.824L270.296 127.658L305.001 131.936L335.312 140.499L353.313 126.921L365.49 110.871L369.001 84.5418L359.769 65.8484L343.198 47.1233Z" fill="#6D6C74"/>
<path d="M40.1505 91.1846L32.0888 84.3928L28.8698 89.7639L40.1505 91.1846Z" fill="#1D2331"/>
<path d="M37.5149 78.9908L26.9817 75.3069L26.4451 81.3057L37.5149 78.9908Z" fill="#1D2331"/>
<path d="M66.1035 81.0955L57.6599 74.6407L54.7541 80.1368L66.1035 81.0955Z" fill="#343D52"/>
<path d="M56.0608 66.7816L47.68 60.2692L44.7211 65.7453L56.0608 66.7816Z" fill="#293042"/>
<path d="M64.708 101.106L56.2644 94.6513L53.3586 100.147L64.708 101.106Z" fill="#343D52"/>
<path d="M65.0497 123.087L56.6062 116.632L53.7004 122.128L65.0497 123.087Z" fill="#343D52"/>
<path d="M44.302 108.223L34.7664 102.955L32.9138 108.765L44.302 108.223Z" fill="#1D2331"/>
<path d="M40.1748 124.883L30.9144 119.278L28.7696 125.017L40.1748 124.883Z" fill="#1D2331"/>
<path d="M36.1954 132.541L27.7023 126.132L24.8389 131.644L36.1954 132.541Z" fill="#1D2331"/>
<g filter="url(#filter2_i_2931_9061)">
<path d="M143.931 96.0168L161.401 83.1444L184.028 87.281L185.88 104.904L187.96 115.763L191.96 96.1215L198.019 90.0154L196.234 68.2074L190.578 73.7633L160.89 77.8773L153.739 84.5576L143.931 96.0168Z" fill="#5F5E63"/>
</g>
<g filter="url(#filter3_i_2931_9061)">
<path d="M359.657 65.8037L339.357 77.3105L296.686 75.0089L285.201 90.6042L243.549 122.412L318.512 91.064L367.394 97.0892L368.808 84.6433L359.657 65.8037Z" fill="#5F5E63"/>
</g>
<g filter="url(#filter4_i_2931_9061)">
<path d="M61.7396 97.0812L69.9427 95.3506L83.9253 99.8926L89.7123 95.6927L107.611 88.7382L78.6301 92.5941L60.4445 84.3481L61.0089 90.2947L61.7396 97.0812Z" fill="#5F5E63"/>
</g>
</g>
<defs>
<filter id="filter0_dd_2931_9061" x="16.0272" y="47.1196" width="369.687" height="96.3657" filterUnits="userSpaceOnUse" color-interpolation-filters="sRGB">
<feFlood flood-opacity="0" result="BackgroundImageFix"/>
<feColorMatrix in="SourceAlpha" type="matrix" values="0 0 0 0 0 0 0 0 0 0 0 0 0 0 0 0 0 0 127 0" result="hardAlpha"/>
<feOffset dy="1.49331"/>
<feGaussianBlur stdDeviation="0.746656"/>
<feComposite in2="hardAlpha" operator="out"/>
<feColorMatrix type="matrix" values="0 0 0 0 0 0 0 0 0 0 0 0 0 0 0 0 0 0 0.25 0"/>
<feBlend mode="normal" in2="BackgroundImageFix" result="effect1_dropShadow_2931_9061"/>
<feColorMatrix in="SourceAlpha" type="matrix" values="0 0 0 0 0 0 0 0 0 0 0 0 0 0 0 0 0 0 127 0" result="hardAlpha"/>
<feOffset dy="1.49331"/>
<feGaussianBlur stdDeviation="0.746656"/>
<feComposite in2="hardAlpha" operator="out"/>
<feColorMatrix type="matrix" values="0 0 0 0 0 0 0 0 0 0 0 0 0 0 0 0 0 0 0.25 0"/>
<feBlend mode="normal" in2="effect1_dropShadow_2931_9061" result="effect2_dropShadow_2931_9061"/>
<feBlend mode="normal" in="SourceGraphic" in2="effect2_dropShadow_2931_9061" result="shape"/>
</filter>
<filter id="filter1_dd_2931_9061" x="42.7909" y="47.1196" width="327.674" height="96.362" filterUnits="userSpaceOnUse" color-interpolation-filters="sRGB">
<feFlood flood-opacity="0" result="BackgroundImageFix"/>
<feColorMatrix in="SourceAlpha" type="matrix" values="0 0 0 0 0 0 0 0 0 0 0 0 0 0 0 0 0 0 127 0" result="hardAlpha"/>
<feOffset dy="1.49331"/>
<feGaussianBlur stdDeviation="0.746656"/>
<feComposite in2="hardAlpha" operator="out"/>
<feColorMatrix type="matrix" values="0 0 0 0 0 0 0 0 0 0 0 0 0 0 0 0 0 0 0.25 0"/>
<feBlend mode="normal" in2="BackgroundImageFix" result="effect1_dropShadow_2931_9061"/>
<feColorMatrix in="SourceAlpha" type="matrix" values="0 0 0 0 0 0 0 0 0 0 0 0 0 0 0 0 0 0 127 0" result="hardAlpha"/>
<feOffset dy="1.49331"/>
<feGaussianBlur stdDeviation="0.746656"/>
<feComposite in2="hardAlpha" operator="out"/>
<feColorMatrix type="matrix" values="0 0 0 0 0 0 0 0 0 0 0 0 0 0 0 0 0 0 0.25 0"/>
<feBlend mode="normal" in2="effect1_dropShadow_2931_9061" result="effect2_dropShadow_2931_9061"/>
<feBlend mode="normal" in="SourceGraphic" in2="effect2_dropShadow_2931_9061" result="shape"/>
</filter>
<filter id="filter2_i_2931_9061" x="143.932" y="68.2074" width="54.0869" height="49.0487" filterUnits="userSpaceOnUse" color-interpolation-filters="sRGB">
<feFlood flood-opacity="0" result="BackgroundImageFix"/>
<feBlend mode="normal" in="SourceGraphic" in2="BackgroundImageFix" result="shape"/>
<feColorMatrix in="SourceAlpha" type="matrix" values="0 0 0 0 0 0 0 0 0 0 0 0 0 0 0 0 0 0 127 0" result="hardAlpha"/>
<feOffset dy="1.49331"/>
<feGaussianBlur stdDeviation="0.746656"/>
<feComposite in2="hardAlpha" operator="arithmetic" k2="-1" k3="1"/>
<feColorMatrix type="matrix" values="0 0 0 0 0 0 0 0 0 0 0 0 0 0 0 0 0 0 0.25 0"/>
<feBlend mode="normal" in2="shape" result="effect1_innerShadow_2931_9061"/>
</filter>
<filter id="filter3_i_2931_9061" x="243.549" y="65.8037" width="125.26" height="58.1013" filterUnits="userSpaceOnUse" color-interpolation-filters="sRGB">
<feFlood flood-opacity="0" result="BackgroundImageFix"/>
<feBlend mode="normal" in="SourceGraphic" in2="BackgroundImageFix" result="shape"/>
<feColorMatrix in="SourceAlpha" type="matrix" values="0 0 0 0 0 0 0 0 0 0 0 0 0 0 0 0 0 0 127 0" result="hardAlpha"/>
<feOffset dy="1.49331"/>
<feGaussianBlur stdDeviation="0.746656"/>
<feComposite in2="hardAlpha" operator="arithmetic" k2="-1" k3="1"/>
<feColorMatrix type="matrix" values="0 0 0 0 0 0 0 0 0 0 0 0 0 0 0 0 0 0 0.25 0"/>
<feBlend mode="normal" in2="shape" result="effect1_innerShadow_2931_9061"/>
</filter>
<filter id="filter4_i_2931_9061" x="60.4443" y="84.3481" width="47.166" height="17.0377" filterUnits="userSpaceOnUse" color-interpolation-filters="sRGB">
<feFlood flood-opacity="0" result="BackgroundImageFix"/>
<feBlend mode="normal" in="SourceGraphic" in2="BackgroundImageFix" result="shape"/>
<feColorMatrix in="SourceAlpha" type="matrix" values="0 0 0 0 0 0 0 0 0 0 0 0 0 0 0 0 0 0 127 0" result="hardAlpha"/>
<feOffset dy="1.49331"/>
<feGaussianBlur stdDeviation="0.746655"/>
<feComposite in2="hardAlpha" operator="arithmetic" k2="-1" k3="1"/>
<feColorMatrix type="matrix" values="0 0 0 0 0 0 0 0 0 0 0 0 0 0 0 0 0 0 0.25 0"/>
<feBlend mode="normal" in2="shape" result="effect1_innerShadow_2931_9061"/>
</filter>
</defs>
</svg>