<svg width="324" height="118" viewBox="0 0 324 118" fill="none" xmlns="http://www.w3.org/2000/svg">
<path d="M13.208 94.564H30.004V102.52H13.208V94.564ZM13.936 115H3.64V78.6H32.188V86.556H13.936V115ZM46.4673 92.692H63.3673V100.388H46.4673V92.692ZM47.1953 107.044H66.2273V115H37.0033V78.6H65.5513V86.556H47.1953V107.044ZM71.9408 115V78.6H90.5568C95.3408 78.6 98.9114 79.484 101.269 81.252C103.626 82.9853 104.805 85.2733 104.805 88.116C104.805 89.988 104.302 91.6347 103.297 93.056C102.326 94.4427 100.939 95.552 99.1368 96.384C97.3688 97.1813 95.2541 97.58 92.7928 97.58L93.8328 95.084C96.3981 95.084 98.6341 95.4827 100.541 96.28C102.447 97.0427 103.921 98.1693 104.961 99.66C106.035 101.116 106.573 102.901 106.573 105.016C106.573 108.171 105.29 110.632 102.725 112.4C100.194 114.133 96.4848 115 91.5968 115H71.9408ZM82.1328 107.564H90.7648C92.5328 107.564 93.8674 107.269 94.7688 106.68C95.7048 106.056 96.1728 105.12 96.1728 103.872C96.1728 102.624 95.7048 101.705 94.7688 101.116C93.8674 100.492 92.5328 100.18 90.7648 100.18H81.4048V93.056H89.2048C90.9381 93.056 92.2381 92.7613 93.1048 92.172C93.9714 91.5827 94.4048 90.6987 94.4048 89.52C94.4048 88.3413 93.9714 87.4747 93.1048 86.92C92.2381 86.3307 90.9381 86.036 89.2048 86.036H82.1328V107.564ZM111.906 115V78.6H128.546C131.874 78.6 134.734 79.1373 137.126 80.212C139.552 81.2867 141.424 82.8467 142.742 84.892C144.059 86.9027 144.718 89.2947 144.718 92.068C144.718 94.8067 144.059 97.1813 142.742 99.192C141.424 101.168 139.552 102.693 137.126 103.768C134.734 104.808 131.874 105.328 128.546 105.328H117.626L122.202 101.012V115H111.906ZM134.422 115L125.374 101.74H136.346L145.446 115H134.422ZM122.202 102.104L117.626 97.372H127.922C130.071 97.372 131.666 96.904 132.706 95.968C133.78 95.032 134.318 93.732 134.318 92.068C134.318 90.3693 133.78 89.052 132.706 88.116C131.666 87.18 130.071 86.712 127.922 86.712H117.626L122.202 81.98V102.104ZM167.194 115.728C161.82 115.728 157.626 114.255 154.61 111.308C151.594 108.361 150.086 104.184 150.086 98.776V78.6H160.382V98.464C160.382 101.584 160.988 103.82 162.202 105.172C163.45 106.524 165.148 107.2 167.298 107.2C169.447 107.2 171.128 106.524 172.342 105.172C173.555 103.82 174.162 101.584 174.162 98.464V78.6H184.302V98.776C184.302 104.184 182.794 108.361 179.778 111.308C176.762 114.255 172.567 115.728 167.194 115.728ZM186.147 115L202.215 78.6H212.355L228.475 115H217.763L205.179 83.644H209.235L196.651 115H186.147ZM194.935 107.928L197.587 100.336H215.371L218.023 107.928H194.935ZM231.394 115V78.6H248.034C251.362 78.6 254.222 79.1373 256.614 80.212C259.041 81.2867 260.913 82.8467 262.23 84.892C263.547 86.9027 264.206 89.2947 264.206 92.068C264.206 94.8067 263.547 97.1813 262.23 99.192C260.913 101.168 259.041 102.693 256.614 103.768C254.222 104.808 251.362 105.328 248.034 105.328H237.114L241.69 101.012V115H231.394ZM253.91 115L244.862 101.74H255.834L264.934 115H253.91ZM241.69 102.104L237.114 97.372H247.41C249.559 97.372 251.154 96.904 252.194 95.968C253.269 95.032 253.806 93.732 253.806 92.068C253.806 90.3693 253.269 89.052 252.194 88.116C251.154 87.18 249.559 86.712 247.41 86.712H237.114L241.69 81.98V102.104ZM278.582 115V99.608L280.974 105.796L264.698 78.6H275.566L287.318 98.308H281.026L292.83 78.6H302.814L286.59 105.796L288.878 99.608V115H278.582Z" fill="#B7D6D6"/>
<rect x="223.585" y="65.2035" width="60.1199" height="13.68" rx="1.8" fill="#37394E"/>
<rect x="226.465" y="69.5233" width="53.2799" height="5.76" fill="#8D8D95"/>
<rect x="223.944" y="51.1633" width="60.1199" height="13.68" rx="1.8" fill="#343860"/>
<rect x="226.824" y="55.8431" width="53.2799" height="5.76" fill="#8D8D95"/>
<g filter="url(#filter0_i_5155_204)">
<path d="M277.115 45.2082C276.493 46.7115 275.496 46.9661 274.96 46.9465C274.424 46.927 274.405 46.3314 274.46 44.7998C274.516 43.2681 275.545 41.7237 276.001 41.5458C276.917 41.2671 277.041 43.7399 277.115 45.2082Z" fill="#3C3B43"/>
<path d="M272.965 45.8065L274.18 43.7299L274.987 42.8371L275.655 42.3375L275.961 42.2447L276.173 43.3961L276.312 44.6299L273.099 46.9593L272.965 45.8065Z" fill="#293042"/>
<path d="M276.508 44.0011L279.09 44.489L278.62 46.2745L278.098 48.0498L277.537 50.277L277.483 52.6913L277.791 55.1375L277.453 56.6574L275.484 56.0834L274.47 55.6619L273.669 55.1106L273.389 54.407L273.031 52.3511L272.618 49.9846L273.079 47.8624L273.917 45.8589L274.272 45.0872L274.992 44.5309L275.684 44.1974L276.508 44.0011Z" fill="#343D52"/>
<path d="M279.119 50.8374C278.752 54.3422 278.324 56.6167 277.608 56.6526C276.145 56.5323 275.999 53.9374 276.35 50.4963C276.702 47.0553 277.606 44.3729 279.069 44.4933C279.828 44.9136 279.485 47.3326 279.119 50.8374Z" fill="#293042"/>
<path d="M275.107 43.8371L277.19 45.2045L276.483 46.5571L276.016 48.0526L275.491 49.9384L275.287 52.0405L275.318 54.2082L275.392 55.6765L273.661 55.1437L272.474 53.1115L272.382 51.2792L272.276 49.1702L272.727 47.3656L272.8 45.7349L273.357 44.4674L275.107 43.8371Z" fill="#343D52"/>
<path d="M227.482 38.0951L230.055 38.4306L228.989 40.3436L228.522 41.8391L227.997 43.7249L227.793 45.827L227.824 47.9947L228.93 49.9535L226.167 48.9302L224.98 46.898L224.651 44.9776L224.631 43.0418L224.844 41.0942L225.307 39.5214L226.253 38.3118L227.482 38.0951Z" fill="#343D52"/>
<path d="M278.601 43.996L277.835 45.8286L276.947 46.5338L276.694 47.8497L275.499 49.3697L274.467 51.2058L273.592 53.1893L273.041 54.5523L271.901 53.4237L271.811 51.1337L272.498 49.4329L273.289 47.475L274.393 46.0016L275.626 44.7472L276.689 44.092L278.601 43.996Z" fill="#343D52"/>
<path d="M231.483 36.0344L236.159 38.2021L243.389 40.2406L253.295 41.5248L267.696 42.8931L272.333 42.6601L275.996 41.5464L273.319 45.3222L272.663 49.2289L272.853 53.0156L274.55 55.9519L269.51 54.3465L264.351 53.4428L241.005 51.3625L235.75 51.6265L231.078 52.7135L228.62 50.0479L227.074 47.0265L226.996 42.3052L228.691 39.1203L231.483 36.0344Z" fill="#6D6C74"/>
<g filter="url(#filter1_i_5155_204)">
<path d="M260.443 47.5612L258.049 45.0246L254.595 45.4364L254.019 48.5413L253.523 50.4409L253.258 46.8939L253.421 44.924L253.616 43.6064L253.844 42.941L258.214 44.096L259.171 45.3851L260.443 47.5612Z" fill="#5F5E63"/>
</g>
<g filter="url(#filter2_d_5155_204)">
<path d="M252.467 41.404L254.288 41.6319L253.641 43.5804L253.402 45.1891L253.281 47.0047L253.426 49.0973L253.807 51.1296L254.625 52.5788L252.38 52.3723L251.668 50.1146L251.424 48.1915L251.376 46.2585L251.474 44.3183L251.738 42.7567L252.314 41.5666L252.467 41.404Z" fill="#343D52"/>
</g>
<path d="M275.989 48.1738L277.308 47.0838L277.697 48.0826L275.989 48.1738Z" fill="#293042"/>
<path d="M276.59 46.048L278.225 45.5446L278.203 46.6166L276.59 46.048Z" fill="#293042"/>
<path d="M272.284 46.0134L273.654 44.9886L273.995 46.0052L272.284 46.0134Z" fill="#343D52"/>
<path d="M274.031 43.6169L275.393 42.5809L275.742 43.5947L274.031 43.6169Z" fill="#293042"/>
<path d="M272.153 49.5839L273.523 48.5591L273.864 49.5756L272.153 49.5839Z" fill="#343D52"/>
<path d="M271.731 53.4788L273.101 52.454L273.442 53.4705L271.731 53.4788Z" fill="#343D52"/>
<path d="M275.083 51.1373L276.596 50.3386L276.774 51.3958L275.083 51.1373Z" fill="#293042"/>
<path d="M275.414 54.1525L276.892 53.2901L277.115 54.3388L275.414 54.1525Z" fill="#293042"/>
<path d="M275.882 55.567L277.259 54.5512L277.593 55.5699L275.882 55.567Z" fill="#293042"/>
<path d="M252.918 38.1841C253.019 40.2014 253.438 41.6534 252.724 41.6893C252.01 41.7251 251.349 40.1188 251.248 38.1015C251.147 36.0842 251.643 34.4198 252.357 34.3839C253.313 35.0017 252.816 36.1668 252.918 38.1841Z" fill="#343D52"/>
<path d="M252.47 38.4762C252.557 40.2054 252.85 41.4215 252.618 41.4332C252.387 41.4448 252.129 40.0525 252.042 38.3234C251.955 36.5942 252.072 35.1831 252.304 35.1715C252.535 35.1598 252.383 36.7471 252.47 38.4762Z" fill="#505370"/>
<path d="M253.303 38.2708C253.049 40.3481 252.544 41.8221 253.205 41.9031C253.866 41.9841 254.609 40.3658 254.863 38.2885C255.118 36.2111 254.788 34.4614 254.127 34.3804C253.189 34.9595 253.558 36.1935 253.303 38.2708Z" fill="#343D52"/>
<path d="M253.736 38.6121C253.528 40.3118 253.084 41.4824 253.38 41.5186C253.675 41.5549 253.954 40.2295 254.162 38.5298C254.37 36.8302 254.43 35.4 254.134 35.3637C253.838 35.3274 253.944 36.9125 253.736 38.6121Z" fill="#505370"/>
<g filter="url(#filter3_i_5155_204)">
<path d="M228.694 39.1119L231.535 41.4463L237.955 41.6468L239.408 44.5818L245.098 50.8284L234.419 44.1878L227.006 44.5602L227.006 42.3286L228.694 39.1119Z" fill="#5F5E63"/>
</g>
<g filter="url(#filter4_i_5155_204)">
<path d="M272.716 48.9242L271.519 48.4995L269.351 49.1069L268.557 48.278L265.998 46.7867L270.266 47.8857L273.126 46.6803L272.941 47.7288L272.716 48.9242Z" fill="#5F5E63"/>
</g>
</g>
<path d="M266.033 18.3661L266.492 20.08L265.922 21.7821L267.694 21.2977L269.443 21.8129L268.972 20.1014L269.54 18.3869L267.77 18.8837L266.033 18.3661Z" fill="#A4CCCA"/>
<path d="M219.477 38.283L219.239 36.5249L220.021 34.9086L218.202 35.165L216.531 34.4325L216.782 36.1899L216.001 37.8187L217.82 37.5498L219.477 38.283Z" fill="#A4CCCA"/>
<path d="M251.325 28.317L250.518 27.1448L250.492 25.7049L249.283 26.5473L247.822 26.6281L248.638 27.7951L248.669 29.2437L249.873 28.3926L251.325 28.317Z" fill="#A4CCCA"/>
<path d="M230.458 26.0632L230.953 25.4514L231.712 25.2116L231.076 24.7029L230.804 23.9411L230.313 24.5569L229.55 24.8007L230.19 25.3054L230.458 26.0632Z" fill="#A4CCCA"/>
<path d="M289.669 32.7486L288.769 34.2778L288.864 36.0704L287.286 35.1304L285.462 35.1598L286.374 33.6363L286.284 31.8323L287.856 32.7836L289.669 32.7486Z" fill="#A4CCCA"/>
<path d="M237.509 8.27276L238.208 6.64203L237.887 4.87583L239.571 5.60856L241.377 5.34866L240.665 6.97523L240.983 8.75334L239.302 8.0087L237.509 8.27276Z" fill="#A4CCCA"/>
<path d="M204.237 23.4108L205.328 22.4967L205.738 21.1161L206.678 22.2508L208.065 22.7187L206.966 23.6253L206.55 25.0131L205.616 23.8713L204.237 23.4108Z" fill="#A4CCCA"/>
<path d="M299.469 17.0117L299.155 16.29L298.488 15.8562L299.237 15.5358L299.702 14.8743L300.01 15.5987L300.681 16.0373L299.929 16.3529L299.469 17.0117Z" fill="#A4CCCA"/>
<defs>
<filter id="filter0_i_5155_204" x="224.632" y="34.3804" width="54.8906" height="23.141" filterUnits="userSpaceOnUse" color-interpolation-filters="sRGB">
<feFlood flood-opacity="0" result="BackgroundImageFix"/>
<feBlend mode="normal" in="SourceGraphic" in2="BackgroundImageFix" result="shape"/>
<feColorMatrix in="SourceAlpha" type="matrix" values="0 0 0 0 0 0 0 0 0 0 0 0 0 0 0 0 0 0 127 0" result="hardAlpha"/>
<feOffset dy="0.863995"/>
<feGaussianBlur stdDeviation="0.431998"/>
<feComposite in2="hardAlpha" operator="arithmetic" k2="-1" k3="1"/>
<feColorMatrix type="matrix" values="0 0 0 0 0 0 0 0 0 0 0 0 0 0 0 0 0 0 0.25 0"/>
<feBlend mode="normal" in2="shape" result="effect1_innerShadow_5155_204"/>
</filter>
<filter id="filter1_i_5155_204" x="253.259" y="42.941" width="7.18359" height="8.36387" filterUnits="userSpaceOnUse" color-interpolation-filters="sRGB">
<feFlood flood-opacity="0" result="BackgroundImageFix"/>
<feBlend mode="normal" in="SourceGraphic" in2="BackgroundImageFix" result="shape"/>
<feColorMatrix in="SourceAlpha" type="matrix" values="0 0 0 0 0 0 0 0 0 0 0 0 0 0 0 0 0 0 127 0" result="hardAlpha"/>
<feOffset dy="0.863995"/>
<feGaussianBlur stdDeviation="0.431998"/>
<feComposite in2="hardAlpha" operator="arithmetic" k2="-1" k3="1"/>
<feColorMatrix type="matrix" values="0 0 0 0 0 0 0 0 0 0 0 0 0 0 0 0 0 0 0.25 0"/>
<feBlend mode="normal" in2="shape" result="effect1_innerShadow_5155_204"/>
</filter>
<filter id="filter2_d_5155_204" x="250.512" y="41.4041" width="4.97701" height="12.9027" filterUnits="userSpaceOnUse" color-interpolation-filters="sRGB">
<feFlood flood-opacity="0" result="BackgroundImageFix"/>
<feColorMatrix in="SourceAlpha" type="matrix" values="0 0 0 0 0 0 0 0 0 0 0 0 0 0 0 0 0 0 127 0" result="hardAlpha"/>
<feOffset dy="0.863995"/>
<feGaussianBlur stdDeviation="0.431998"/>
<feComposite in2="hardAlpha" operator="out"/>
<feColorMatrix type="matrix" values="0 0 0 0 0 0 0 0 0 0 0 0 0 0 0 0 0 0 0.25 0"/>
<feBlend mode="normal" in2="BackgroundImageFix" result="effect1_dropShadow_5155_204"/>
<feBlend mode="normal" in="SourceGraphic" in2="effect1_dropShadow_5155_204" result="shape"/>
</filter>
<filter id="filter3_i_5155_204" x="227.006" y="39.1118" width="18.0918" height="12.5805" filterUnits="userSpaceOnUse" color-interpolation-filters="sRGB">
<feFlood flood-opacity="0" result="BackgroundImageFix"/>
<feBlend mode="normal" in="SourceGraphic" in2="BackgroundImageFix" result="shape"/>
<feColorMatrix in="SourceAlpha" type="matrix" values="0 0 0 0 0 0 0 0 0 0 0 0 0 0 0 0 0 0 127 0" result="hardAlpha"/>
<feOffset dy="0.863995"/>
<feGaussianBlur stdDeviation="0.431997"/>
<feComposite in2="hardAlpha" operator="arithmetic" k2="-1" k3="1"/>
<feColorMatrix type="matrix" values="0 0 0 0 0 0 0 0 0 0 0 0 0 0 0 0 0 0 0.25 0"/>
<feBlend mode="normal" in2="shape" result="effect1_innerShadow_5155_204"/>
</filter>
<filter id="filter4_i_5155_204" x="265.998" y="46.6803" width="7.12793" height="3.29063" filterUnits="userSpaceOnUse" color-interpolation-filters="sRGB">
<feFlood flood-opacity="0" result="BackgroundImageFix"/>
<feBlend mode="normal" in="SourceGraphic" in2="BackgroundImageFix" result="shape"/>
<feColorMatrix in="SourceAlpha" type="matrix" values="0 0 0 0 0 0 0 0 0 0 0 0 0 0 0 0 0 0 127 0" result="hardAlpha"/>
<feOffset dy="0.863994"/>
<feGaussianBlur stdDeviation="0.431997"/>
<feComposite in2="hardAlpha" operator="arithmetic" k2="-1" k3="1"/>
<feColorMatrix type="matrix" values="0 0 0 0 0 0 0 0 0 0 0 0 0 0 0 0 0 0 0.25 0"/>
<feBlend mode="normal" in2="shape" result="effect1_innerShadow_5155_204"/>
</filter>
</defs>
</svg>
