<svg width="22" height="22" viewBox="0 0 22 22" fill="none" xmlns="http://www.w3.org/2000/svg">
<path d="M10.8377 6.56022C11.4212 6.56022 11.9808 6.792 12.3934 7.20458C12.8059 7.61716 13.0377 8.17674 13.0377 8.76022C13.0377 9.04913 12.9808 9.33521 12.8703 9.60212C12.7597 9.86904 12.5977 10.1116 12.3934 10.3159C12.1891 10.5201 11.9466 10.6822 11.6796 10.7928C11.4127 10.9033 11.1266 10.9602 10.8377 10.9602C10.2543 10.9602 9.69468 10.7284 9.2821 10.3159C8.86952 9.90327 8.63773 9.3437 8.63773 8.76022C8.63773 8.17674 8.86952 7.61716 9.2821 7.20458C9.69468 6.792 10.2543 6.56022 10.8377 6.56022ZM10.8377 2.60022C12.4715 2.60022 14.0383 3.24922 15.1935 4.40444C16.3487 5.55967 16.9977 7.12649 16.9977 8.76022C16.9977 13.3802 10.8377 20.2002 10.8377 20.2002C10.8377 20.2002 4.67773 13.3802 4.67773 8.76022C4.67773 7.12649 5.32673 5.55967 6.48196 4.40444C7.63718 3.24922 9.204 2.60022 10.8377 2.60022ZM10.8377 4.36022C9.67078 4.36022 8.55162 4.82379 7.72646 5.64895C6.9013 6.47411 6.43773 7.59327 6.43773 8.76022C6.43773 9.64022 6.43773 11.4002 10.8377 17.305C15.2377 11.4002 15.2377 9.64022 15.2377 8.76022C15.2377 7.59327 14.7742 6.47411 13.949 5.64895C13.1238 4.82379 12.0047 4.36022 10.8377 4.36022Z" fill="#D2F0F0"/>
</svg>
