<svg xmlns="http://www.w3.org/2000/svg" fill="none" viewBox="111.41 38.32 238.3 787.66">
<g filter="url(#filter0_dd_2931_449)">
<path d="M281.056 74.9549C258.781 81.77 253.795 95.6348 253.345 103.302C252.894 110.969 261.356 112.058 283.264 113.346C305.173 114.634 328.588 102.069 331.744 95.8129C336.962 83.1381 301.884 78.0042 281.056 74.9549Z" fill="#3C3B43"/>
<path d="M266.88 133.299L298.133 118.81L311.958 108.517L319.989 99.6754L321.727 95.4509L305.605 90.8503L288.206 87.1942L250.63 129.827L266.88 133.299Z" fill="#293042"/>
<path d="M297.439 85.1985L293.998 47.7352L267.908 52.001L241.892 57.019L209.383 61.9913L174.896 59.4743L140.446 51.7572L118.323 54.4961L123.823 83.354L128.451 98.3788L135.219 110.552L144.867 115.493L173.684 123.401L206.855 132.503L237.732 128.82L267.43 119.602L278.913 115.598L287.822 106.094L293.518 96.6815L297.439 85.1985Z" fill="#343D52"/>
<path d="M203.557 38.6622C153.101 39.1117 120.098 42.117 118.611 52.2734C118.335 73.2893 155.122 78.9159 204.65 78.5861C254.177 78.2564 293.642 69.0182 293.918 48.0022C288.96 36.6118 254.013 38.2126 203.557 38.6622Z" fill="#293042"/>
<path d="M297.872 105.411L281.217 73.8579L260.975 82.0913L239.022 86.7149L211.428 91.632L181.186 91.6825L150.331 88.2837L129.502 85.2334L134.74 110.635L162.091 130.318L188.083 134.124L218.001 138.505L244.338 134.524L267.681 135.703L286.506 129.501L297.872 105.411Z" fill="#343D52"/>
<path d="M314.89 792.09L313.61 754.95L284.892 767.541L262.939 772.165L235.344 777.082L205.103 777.132L174.247 773.733L147.831 755.308L158.656 796.085L186.008 815.767L212.933 823.07L240.5 825.987L268.549 825.615L291.598 821.152L310.129 809.309L314.89 792.09Z" fill="#343D52"/>
<path d="M300.362 55.3915L273.198 63.8149L261.936 75.5204L242.835 77.3346L219.542 92.2987L191.965 104.516L162.503 114.278L142.324 120.276L156.859 138.068L189.377 142.474L214.557 134.989L243.541 126.374L266.046 112.65L285.604 96.7854L296.391 82.5231L300.362 55.3915Z" fill="#343D52"/>
<g filter="url(#filter1_dd_2931_449)">
<path d="M349.712 737.808L325.179 668.206L305.964 562.373L301.145 419.423L301.245 212.281L310.878 146.506L331.738 95.8115L274.275 128.828L217.696 132.86L163.979 124.993L124.435 96.8069L140.458 170.836L146.317 245.598L144.188 581.218L133.271 655.763L111.419 720.869L146.069 759.537L187.029 785.691L254.221 793.234L301.926 773.403L349.712 737.808Z" fill="#6D6C74"/>
</g>
<path d="M237.257 86.9326L254.589 69.6163L240.882 62.7018L237.257 86.9326Z" fill="#293042"/>
<path d="M268.371 81.3119L277.772 58.6868L262.463 57.5343L268.371 81.3119Z" fill="#293042"/>
<path d="M263.007 142.68L279.48 124.543L265.454 118.301L263.007 142.68Z" fill="#343D52"/>
<path d="M299.537 121.081L316.157 103.079L302.182 96.7236L299.537 121.081Z" fill="#293042"/>
<path d="M211.94 139.67L228.412 121.533L214.386 115.292L211.94 139.67Z" fill="#343D52"/>
<path d="M155.842 140.443L172.315 122.307L158.289 116.065L155.842 140.443Z" fill="#343D52"/>
<path d="M193.778 95.8528L207.223 75.3705L192.395 71.3913L193.778 95.8528Z" fill="#293042"/>
<path d="M151.251 87.0242L165.555 67.133L150.911 62.526L151.251 87.0242Z" fill="#293042"/>
<path d="M131.722 78.4118L148.076 60.169L134.01 54.0184L131.722 78.4118Z" fill="#293042"/>
<path d="M281.057 74.9551C258.782 81.7703 253.796 95.6351 253.346 103.302C252.895 110.969 261.357 112.058 283.265 113.346C305.174 114.634 328.589 102.07 331.744 95.8131C336.963 83.1383 301.885 78.0044 281.057 74.9551Z" fill="#3C3B43"/>
<path d="M266.877 133.325L298.13 118.836L311.955 108.543L319.986 99.7014L321.724 95.4769L305.602 90.8763L288.203 87.2202L250.627 129.853L266.877 133.325Z" fill="#293042"/>
<path d="M297.44 85.1989L293.999 47.7356L267.909 52.0014L241.893 57.0193L209.384 61.9917L174.897 59.4747L140.447 51.7576L118.324 54.4965L123.824 83.3544L128.452 98.3792L135.22 110.553L144.868 115.493L173.685 123.401L206.856 132.504L237.733 128.82L267.431 119.603L278.914 115.599L287.823 106.095L293.519 96.6818L297.44 85.1989Z" fill="#343D52"/>
<path d="M203.558 38.6625C153.102 39.1121 120.099 42.1174 118.612 52.2737C118.336 73.2897 155.123 78.9163 204.651 78.5865C254.178 78.2567 293.643 69.0186 293.919 48.0026C288.961 36.6122 254.014 38.213 203.558 38.6625Z" fill="#1D2331"/>
<path d="M297.87 105.411L281.215 73.8581L260.973 82.0916L239.02 86.7151L211.426 91.6323L181.185 91.6828L150.329 88.2839L129.5 85.2337L134.738 110.636L162.089 130.318L188.081 134.124L217.999 138.505L244.337 134.524L267.679 135.703L286.504 129.501L297.87 105.411Z" fill="#343D52"/>
<path d="M314.891 792.089L313.611 754.949L284.893 767.54L262.94 772.163L235.345 777.08L205.104 777.131L174.248 773.732L147.832 755.307L158.657 796.084L186.009 815.766L212.934 823.068L240.501 825.986L268.55 825.614L291.599 821.151L310.13 809.308L314.891 792.089Z" fill="#343D52"/>
<path d="M300.362 55.3795L273.198 63.8029L261.936 75.5084L242.835 77.3226L219.542 92.2868L191.965 104.504L162.503 114.266L142.324 120.264L156.859 138.056L189.377 142.462L214.557 134.977L243.541 126.363L266.046 112.638L285.604 96.7734L296.391 82.5111L300.362 55.3795Z" fill="#343D52"/>
<path d="M349.702 737.871L325.169 668.269L305.954 562.436L301.135 419.486L301.236 212.343L310.868 146.568L331.728 95.8742L274.265 128.891L217.686 132.922L163.969 125.056L124.425 96.8697L140.449 170.898L146.307 245.661L144.178 581.28L133.261 655.826L111.41 720.932L146.059 759.599L187.019 785.754L254.211 793.297L301.916 773.465L349.702 737.871Z" fill="#6D6C74"/>
<path d="M237.258 86.9336L254.591 69.6173L240.884 62.7028L237.258 86.9336Z" fill="#1D2331"/>
<path d="M268.378 81.2741L277.779 58.649L262.47 57.4964L268.378 81.2741Z" fill="#1D2331"/>
<path d="M263.005 142.68L279.478 124.544L265.452 118.302L263.005 142.68Z" fill="#343D52"/>
<path d="M299.535 121.107L316.155 103.105L302.18 96.7496L299.535 121.107Z" fill="#293042"/>
<path d="M211.94 139.683L228.412 121.546L214.386 115.305L211.94 139.683Z" fill="#343D52"/>
<path d="M155.845 140.418L172.318 122.282L158.291 116.04L155.845 140.418Z" fill="#343D52"/>
<path d="M193.778 95.8533L207.222 75.371L192.394 71.3918L193.778 95.8533Z" fill="#1D2331"/>
<path d="M151.26 86.9861L165.564 67.0949L150.92 62.4879L151.26 86.9861Z" fill="#1D2331"/>
<path d="M131.718 78.4381L148.072 60.1952L134.006 54.0446L131.718 78.4381Z" fill="#1D2331"/>
<g filter="url(#filter2_i_2931_449)">
<path d="M224.927 309.854L257.777 347.378L247.22 395.981L202.246 399.958L174.535 404.427L224.66 413.018L240.242 426.032L295.896 422.199L281.717 410.049L271.219 346.281L254.171 330.92L224.927 309.854Z" fill="#5F5E63"/>
</g>
<g filter="url(#filter3_i_2931_449)">
<path d="M302.03 773.224L272.664 729.621L278.538 637.964L238.739 613.294L157.566 523.826L237.566 684.845L222.189 789.844L253.951 792.881L302.03 773.224Z" fill="#5F5E63"/>
</g>
<g filter="url(#filter4_i_2931_449)">
<path d="M222.21 133.304L226.627 150.924L215.036 180.959L225.754 193.389L243.502 231.834L233.661 169.585L254.705 130.522L239.529 131.735L222.21 133.304Z" fill="#5F5E63"/>
</g>
</g>
<defs>
<filter id="filter0_dd_2931_449" x="108.202" y="38.3242" width="244.718" height="794.078" filterUnits="userSpaceOnUse" color-interpolation-filters="sRGB">
<feFlood flood-opacity="0" result="BackgroundImageFix"/>
<feColorMatrix in="SourceAlpha" type="matrix" values="0 0 0 0 0 0 0 0 0 0 0 0 0 0 0 0 0 0 127 0" result="hardAlpha"/>
<feOffset dy="3.2076"/>
<feGaussianBlur stdDeviation="1.6038"/>
<feComposite in2="hardAlpha" operator="out"/>
<feColorMatrix type="matrix" values="0 0 0 0 0 0 0 0 0 0 0 0 0 0 0 0 0 0 0.25 0"/>
<feBlend mode="normal" in2="BackgroundImageFix" result="effect1_dropShadow_2931_449"/>
<feColorMatrix in="SourceAlpha" type="matrix" values="0 0 0 0 0 0 0 0 0 0 0 0 0 0 0 0 0 0 127 0" result="hardAlpha"/>
<feOffset dy="3.2076"/>
<feGaussianBlur stdDeviation="1.6038"/>
<feComposite in2="hardAlpha" operator="out"/>
<feColorMatrix type="matrix" values="0 0 0 0 0 0 0 0 0 0 0 0 0 0 0 0 0 0 0.25 0"/>
<feBlend mode="normal" in2="effect1_dropShadow_2931_449" result="effect2_dropShadow_2931_449"/>
<feBlend mode="normal" in="SourceGraphic" in2="effect2_dropShadow_2931_449" result="shape"/>
</filter>
<filter id="filter1_dd_2931_449" x="108.211" y="95.8115" width="244.708" height="703.838" filterUnits="userSpaceOnUse" color-interpolation-filters="sRGB">
<feFlood flood-opacity="0" result="BackgroundImageFix"/>
<feColorMatrix in="SourceAlpha" type="matrix" values="0 0 0 0 0 0 0 0 0 0 0 0 0 0 0 0 0 0 127 0" result="hardAlpha"/>
<feOffset dy="3.2076"/>
<feGaussianBlur stdDeviation="1.6038"/>
<feComposite in2="hardAlpha" operator="out"/>
<feColorMatrix type="matrix" values="0 0 0 0 0 0 0 0 0 0 0 0 0 0 0 0 0 0 0.25 0"/>
<feBlend mode="normal" in2="BackgroundImageFix" result="effect1_dropShadow_2931_449"/>
<feColorMatrix in="SourceAlpha" type="matrix" values="0 0 0 0 0 0 0 0 0 0 0 0 0 0 0 0 0 0 127 0" result="hardAlpha"/>
<feOffset dy="3.2076"/>
<feGaussianBlur stdDeviation="1.6038"/>
<feComposite in2="hardAlpha" operator="out"/>
<feColorMatrix type="matrix" values="0 0 0 0 0 0 0 0 0 0 0 0 0 0 0 0 0 0 0.25 0"/>
<feBlend mode="normal" in2="effect1_dropShadow_2931_449" result="effect2_dropShadow_2931_449"/>
<feBlend mode="normal" in="SourceGraphic" in2="effect2_dropShadow_2931_449" result="shape"/>
</filter>
<filter id="filter2_i_2931_449" x="174.535" y="309.854" width="121.361" height="119.386" filterUnits="userSpaceOnUse" color-interpolation-filters="sRGB">
<feFlood flood-opacity="0" result="BackgroundImageFix"/>
<feBlend mode="normal" in="SourceGraphic" in2="BackgroundImageFix" result="shape"/>
<feColorMatrix in="SourceAlpha" type="matrix" values="0 0 0 0 0 0 0 0 0 0 0 0 0 0 0 0 0 0 127 0" result="hardAlpha"/>
<feOffset dy="3.2076"/>
<feGaussianBlur stdDeviation="1.6038"/>
<feComposite in2="hardAlpha" operator="arithmetic" k2="-1" k3="1"/>
<feColorMatrix type="matrix" values="0 0 0 0 0 0 0 0 0 0 0 0 0 0 0 0 0 0 0.25 0"/>
<feBlend mode="normal" in2="shape" result="effect1_innerShadow_2931_449"/>
</filter>
<filter id="filter3_i_2931_449" x="157.566" y="523.826" width="144.463" height="272.262" filterUnits="userSpaceOnUse" color-interpolation-filters="sRGB">
<feFlood flood-opacity="0" result="BackgroundImageFix"/>
<feBlend mode="normal" in="SourceGraphic" in2="BackgroundImageFix" result="shape"/>
<feColorMatrix in="SourceAlpha" type="matrix" values="0 0 0 0 0 0 0 0 0 0 0 0 0 0 0 0 0 0 127 0" result="hardAlpha"/>
<feOffset dy="3.2076"/>
<feGaussianBlur stdDeviation="1.6038"/>
<feComposite in2="hardAlpha" operator="arithmetic" k2="-1" k3="1"/>
<feColorMatrix type="matrix" values="0 0 0 0 0 0 0 0 0 0 0 0 0 0 0 0 0 0 0.25 0"/>
<feBlend mode="normal" in2="shape" result="effect1_innerShadow_2931_449"/>
</filter>
<filter id="filter4_i_2931_449" x="215.035" y="130.522" width="39.6699" height="104.519" filterUnits="userSpaceOnUse" color-interpolation-filters="sRGB">
<feFlood flood-opacity="0" result="BackgroundImageFix"/>
<feBlend mode="normal" in="SourceGraphic" in2="BackgroundImageFix" result="shape"/>
<feColorMatrix in="SourceAlpha" type="matrix" values="0 0 0 0 0 0 0 0 0 0 0 0 0 0 0 0 0 0 127 0" result="hardAlpha"/>
<feOffset dy="3.2076"/>
<feGaussianBlur stdDeviation="1.6038"/>
<feComposite in2="hardAlpha" operator="arithmetic" k2="-1" k3="1"/>
<feColorMatrix type="matrix" values="0 0 0 0 0 0 0 0 0 0 0 0 0 0 0 0 0 0 0.25 0"/>
<feBlend mode="normal" in2="shape" result="effect1_innerShadow_2931_449"/>
</filter>
</defs>
</svg>