<svg width="297" height="180" viewBox="0 0 297 180" fill="none" xmlns="http://www.w3.org/2000/svg">
<path d="M11.1381 115.872L11.6439 118.183L10.7794 120.415L13.1692 119.878L15.4681 120.672L14.9452 118.363L15.8076 116.115L13.4199 116.668L11.1381 115.872Z" fill="#A4CCCA"/>
<path d="M92.6981 139.08L92.4888 136.723L93.6289 134.619L91.1904 134.848L89.0104 133.77L89.2369 136.126L88.0969 138.248L90.5354 138.001L92.6981 139.08Z" fill="#A4CCCA"/>
<path d="M70.8684 177.492L69.8651 175.881L69.9186 173.962L68.2564 175.009L66.3055 175.027L67.3211 176.632L67.2737 178.563L68.9298 177.503L70.8684 177.492Z" fill="#A4CCCA"/>
<path d="M18.2309 78.7329L18.9273 77.9484L19.9532 77.6757L19.137 76.959L18.8215 75.9276L18.1304 76.7177L17.0992 76.9955L17.9207 77.7071L18.2309 78.7329Z" fill="#A4CCCA"/>
<path d="M214.768 113.486L213.475 115.467L213.492 117.861L211.448 116.512L209.017 116.439L210.324 114.466L210.315 112.058L212.352 113.421L214.768 113.486Z" fill="#A4CCCA"/>
<path d="M194.563 160.181L195.594 158.052L195.275 155.68L197.473 156.759L199.894 156.524L198.847 158.647L199.16 161.035L196.968 159.94L194.563 160.181Z" fill="#A4CCCA"/>
<path d="M238.664 152.561L238.291 151.581L237.429 150.962L238.446 150.581L239.107 149.729L239.473 150.712L240.339 151.338L239.318 151.712L238.664 152.561Z" fill="#A4CCCA"/>
<path d="M272.262 47.9674L267.389 57.7418L256.61 59.2895L264.363 66.9022L262.5 77.6491L272.16 72.6114L281.803 77.7065L280.016 66.9477L287.824 59.3585L277.011 57.7732L272.262 47.9674Z" fill="#A4CCCA"/>
<path d="M85.6842 98.7145L78.5531 100.954L72.6721 96.3753L72.601 103.811L66.4196 107.996L73.4891 110.365L75.5563 117.537L80.0107 111.548L87.4585 111.793L83.1059 105.711L85.6842 98.7145Z" fill="#A4CCCA"/>
<path d="M173.79 83.2903L168.442 84.9697L164.031 81.5359L163.978 87.1128L159.342 90.2512L164.644 92.0282L166.194 97.4073L169.535 92.9155L175.121 93.0994L171.857 88.5377L173.79 83.2903Z" fill="#A4CCCA"/>
</svg>
