<svg width="272" height="150" viewBox="0 0 272 150" fill="none" xmlns="http://www.w3.org/2000/svg">
<path d="M267.758 79.0853L266.938 76.8663L267.486 74.5363L265.193 75.3976L262.807 74.9289L263.643 77.1431L263.1 79.4893L265.388 78.6118L267.758 79.0853Z" fill="#A4CCCA"/>
<path d="M177.047 55.8742L177.58 58.1791L176.741 60.4211L179.125 59.8569L181.432 60.6238L180.883 58.3215L181.719 56.063L179.338 56.6437L177.047 55.8742Z" fill="#A4CCCA"/>
<path d="M210.606 67.3669L211.822 68.8237L212.034 70.7322L213.536 69.465L215.465 69.1779L214.238 67.7291L214.018 65.8096L212.524 67.0878L210.606 67.3669Z" fill="#A4CCCA"/>
<path d="M210.934 95.0402L210.353 95.9134L209.374 96.3252L210.282 96.9223L210.737 97.9002L211.312 97.0223L212.295 96.6047L211.383 96.0134L210.934 95.0402Z" fill="#A4CCCA"/>
<path d="M48.9567 109.382L49.963 107.241L49.6157 104.873L51.8267 105.927L54.2445 105.663L53.222 107.798L53.5635 110.182L51.3582 109.113L48.9567 109.382Z" fill="#A4CCCA"/>
<path d="M14.1494 132.82L13.4221 135.071L14.0663 137.376L11.7397 136.611L9.37475 137.178L10.1188 134.931L9.4784 132.609L11.8013 133.391L14.1494 132.82Z" fill="#A4CCCA"/>
<path d="M7.43954 101.135L6.10353 102.482L5.72951 104.366L4.34149 102.975L2.44323 102.525L3.78981 101.186L4.1724 99.292L5.55185 100.693L7.43954 101.135Z" fill="#A4CCCA"/>
<path d="M71.4919 79.4425L71.9967 80.3621L72.9364 80.8558L71.9815 81.3734L71.4448 82.3089L70.9464 81.3851L70.0026 80.8852L70.9616 80.3738L71.4919 79.4425Z" fill="#A4CCCA"/>
<path d="M113.393 80.5985L116.869 70.245L127.332 67.2237L118.602 60.7544L118.963 49.8533L110.091 56.1766L99.8366 52.4618L103.092 62.8708L96.4068 71.4654L107.335 71.5424L113.393 80.5985Z" fill="#A4CCCA"/>
<path d="M183.336 30.7662L190.09 27.5638L196.546 31.2862L195.59 23.9118L201.134 18.9138L193.806 17.5433L190.768 10.7254L187.183 17.2721L179.773 18.0576L184.923 23.4807L183.336 30.7662Z" fill="#A4CCCA"/>
</svg>
