<svg width="336" height="166" viewBox="0 0 336 166" fill="none" xmlns="http://www.w3.org/2000/svg">
<path d="M103.918 60.8385L104.529 63.1237L103.769 65.3932L106.131 64.7473L108.464 65.4342L107.835 63.1522L108.593 60.8662L106.234 61.5287L103.918 60.8385Z" fill="#A4CCCA"/>
<path d="M23.2938 60.6104L22.9762 58.2662L24.018 56.1112L21.5927 56.453L19.3654 55.4763L19.7002 57.8195L18.6591 59.9912L21.0837 59.6327L23.2938 60.6104Z" fill="#A4CCCA"/>
<path d="M22.4373 5.20208L21.3608 3.63921L21.3259 1.71933L19.7138 2.84255L17.7657 2.9503L18.8542 4.50621L18.8957 6.43777L20.5013 5.30288L22.4373 5.20208Z" fill="#A4CCCA"/>
<path d="M63.4843 55.1016L64.1438 54.2858L65.156 53.9661L64.3077 53.2878L63.945 52.2721L63.291 53.0931L62.2737 53.4182L63.1271 54.0912L63.4843 55.1016Z" fill="#A4CCCA"/>
<path d="M240.041 149.631L238.842 151.67L238.969 154.06L236.865 152.807L234.433 152.846L235.648 150.815L235.528 148.409L237.625 149.678L240.041 149.631Z" fill="#A4CCCA"/>
<path d="M194.894 93.5963L195.826 91.422L195.397 89.0671L197.643 90.044L200.05 89.6975L199.102 91.8663L199.525 94.2371L197.284 93.2442L194.894 93.5963Z" fill="#A4CCCA"/>
<path d="M191.893 127.421L193.348 126.202L193.894 124.361L195.148 125.874L196.997 126.498L195.532 127.707L194.976 129.557L193.732 128.035L191.893 127.421Z" fill="#A4CCCA"/>
<path d="M226.342 103.368L225.924 102.406L225.034 101.827L226.033 101.4L226.653 100.518L227.064 101.484L227.958 102.069L226.956 102.49L226.342 103.368Z" fill="#A4CCCA"/>
<path d="M306.495 128.165L303.182 135.656L295.16 137.188L301.231 142.624L300.207 150.74L307.27 146.632L314.671 150.116L312.96 142.117L318.548 136.162L310.392 135.347L306.495 128.165Z" fill="#A4CCCA"/>
<path d="M151.095 87.301L144.074 89.8663L137.989 85.5637L138.26 92.995L132.278 97.4598L139.449 99.501L141.845 106.57L146.019 100.382L153.47 100.284L148.842 94.4088L151.095 87.301Z" fill="#A4CCCA"/>
</svg>
