<svg width="277" height="157" viewBox="0 0 277 157" fill="none" xmlns="http://www.w3.org/2000/svg">
<path d="M250.84 16.4197L250.02 14.2008L250.568 11.8707L248.275 12.732L245.889 12.2633L246.725 14.4776L246.182 16.8238L248.47 15.9463L250.84 16.4197Z" fill="#A4CCCA"/>
<path d="M258.609 87.1229L257.789 84.9039L258.337 82.5739L256.045 83.4352L253.658 82.9665L254.495 85.1807L253.951 87.5269L256.24 86.6494L258.609 87.1229Z" fill="#A4CCCA"/>
<path d="M215.222 40.3128L214.641 41.186L213.662 41.5977L214.57 42.1949L215.025 43.1728L215.6 42.2948L216.583 41.8773L215.671 41.2859L215.222 40.3128Z" fill="#A4CCCA"/>
<path d="M74.6729 26.074L73.9456 28.3251L74.5898 30.6304L72.2632 29.8649L69.8982 30.4322L70.6423 28.1852L70.0018 25.8635L72.3247 26.6453L74.6729 26.074Z" fill="#A4CCCA"/>
<path d="M43.5222 19.1639L44.027 20.0835L44.9667 20.5772L44.0118 21.0948L43.4751 22.0303L42.9767 21.1065L42.0329 20.6067L42.9919 20.0952L43.5222 19.1639Z" fill="#A4CCCA"/>
<path d="M8.74801 71.4872L15.5017 68.2848L21.9585 72.0073L21.0022 64.6329L26.5465 59.6349L19.2176 58.2644L16.18 51.4464L12.5952 57.9931L5.18486 58.7787L10.3356 64.2018L8.74801 71.4872Z" fill="#A4CCCA"/>
<path d="M178.73 49.0885L179.262 51.3934L178.424 53.6353L180.807 53.0711L183.115 53.838L182.565 51.5357L183.402 49.2772L181.02 49.858L178.73 49.0885Z" fill="#A4CCCA"/>
<path d="M233.41 38.1412L234.626 39.598L234.838 41.5065L236.339 40.2393L238.269 39.9522L237.042 38.5034L236.822 36.5839L235.328 37.8621L233.41 38.1412Z" fill="#A4CCCA"/>
<path d="M67.8737 58.0984L68.88 55.9574L68.5327 53.5891L70.7437 54.6429L73.1615 54.3795L72.139 56.5143L72.4805 58.8983L70.2752 57.8288L67.8737 58.0984Z" fill="#A4CCCA"/>
<path d="M99.088 39.4337L97.752 40.7814L97.3779 42.6649L95.9899 41.2742L94.0917 40.8235L95.4382 39.4847L95.8208 37.5909L97.2003 38.9919L99.088 39.4337Z" fill="#A4CCCA"/>
<path d="M241.574 143.781L248.328 140.579L254.785 144.301L253.828 136.927L259.373 131.929L252.044 130.559L249.006 123.741L245.421 130.287L238.011 131.073L243.162 136.496L241.574 143.781Z" fill="#A4CCCA"/>
<path d="M153.973 53.1033L157.133 43.691L166.644 40.9444L158.708 35.0633L159.036 25.1532L150.971 30.9016L141.649 27.5245L144.608 36.9872L138.531 44.8005L148.466 44.8705L153.973 53.1033Z" fill="#A4CCCA"/>
</svg>
