<svg width="88" height="50" viewBox="0 0 88 50" fill="none" xmlns="http://www.w3.org/2000/svg">
<path d="M68.7382 20.1201L68.7771 20.7868C68.7301 20.8071 68.7987 21.055 68.4699 21.054L68.7382 20.1201Z" fill="#D7D3AD"/>
<path d="M68.9323 10.4079C68.8097 10.151 68.419 10.2204 68.396 10.503L68.1214 13.8962C68.1165 13.958 68.1328 14.0199 68.1681 14.0715L69.3607 15.8199C69.4947 16.0163 69.8023 15.9679 69.8666 15.7401L70.4373 13.7191C70.4552 13.6557 70.4494 13.5882 70.421 13.5285L68.9323 10.4079Z" fill="#84283F"/>
<path d="M71.3363 18.4557C72.0603 17.6124 72.0012 16.3655 71.2008 15.5914L71.1472 15.5396C70.3261 14.7454 69.0025 14.7569 68.1959 15.5651C68.1155 15.6456 68.1169 15.7747 68.1991 15.8535L71.1462 18.6772L71.3363 18.4557Z" fill="#84283F"/>
<path d="M66.1889 11.6098C65.9702 11.4242 65.6422 11.6436 65.7389 11.9108L66.8998 15.1189C66.921 15.1775 66.9616 15.2272 67.0152 15.2603L68.8318 16.3807C69.0359 16.5066 69.2965 16.3394 69.2606 16.1059L68.9409 14.0324C68.9309 13.9674 68.8975 13.9081 68.8468 13.865L66.1889 11.6098Z" fill="#84283F"/>
<path d="M63.3414 15.4358C61.9606 17.4046 63.245 19.7272 65.2544 21.0799C67.2639 22.4327 69.412 23.1378 70.7928 21.169C72.1736 19.2003 71.6638 16.5076 69.6543 15.1549C67.6448 13.8021 64.7221 13.467 63.3414 15.4358Z" fill="#AE3352"/>
<path d="M71.6468 22.6966C73.6023 22.5067 74.4464 20.1701 73.0482 18.8173L71.7168 17.5289C71.0495 16.8834 70.0982 16.6053 69.1789 16.7871L64.6523 17.6827L69.854 22.8707L71.6468 22.6966Z" fill="#AE3352"/>
<path d="M70.7118 22.3226C71.7325 22.3421 72.4679 21.3692 72.1513 20.4183C71.9857 19.9213 71.5605 19.5495 71.0376 19.4448L66.3368 18.5042L69.1773 22.2934L70.7118 22.3226Z" fill="#84283F"/>
<path d="M69.2569 24.7156C68.7879 25.7179 67.368 25.8036 66.7771 24.8653L65.1956 22.3545L64.4201 21.0001C63.3958 20.2804 63.7441 18.7098 64.9808 18.4711L65.1176 18.4448L70.1338 22.8415L69.2569 24.7156Z" fill="#AE3352"/>
<path d="M69.0101 24.3096C68.8475 24.7463 68.2475 24.8169 67.9839 24.4305C67.5472 23.7906 67.2479 23.0701 67.1043 22.3133L66.3805 18.4998L69.7844 22.2301L69.0101 24.3096Z" fill="#84283F"/>
<path d="M69.9136 17.007C70.623 16.1807 70.5652 14.9591 69.7809 14.2006C68.9246 13.3723 67.5361 13.4107 66.7289 14.285L66.5559 14.4722C66.4648 14.5709 66.4772 14.7243 66.5832 14.8076L69.6976 17.2587L69.9136 17.007Z" fill="#AE3352"/>
<path d="M67.4069 14.9457C67.1957 15.1761 67.0864 15.4793 67.1034 15.7886C67.1202 16.0978 67.2618 16.3879 67.497 16.5948C67.7321 16.8019 68.0415 16.9089 68.3572 16.8924C68.6729 16.8758 68.9689 16.7371 69.1802 16.5066L68.2936 15.7262L67.4069 14.9457Z" fill="#DA9834"/>
<path d="M70.2283 16.6493C70.1971 16.7191 70.114 16.751 70.0427 16.7204C69.9715 16.69 69.9389 16.6086 69.9701 16.5387L70.2283 16.6493ZM69.9701 16.5387C70.1302 16.1798 70.3986 15.3131 69.7236 14.5492L69.9367 14.3685C70.7231 15.2584 70.4001 16.264 70.2283 16.6493L69.9701 16.5387Z" fill="#9E7371"/>
<path d="M70.5342 20.1917L71.4714 19.6279C71.2491 19.5232 71.1187 19.4541 70.9795 19.433L70.5342 20.1917Z" fill="#D7D3AD"/>
<path d="M71.601 21.3373L72.1761 20.5742C72.2594 20.7454 72.1852 21.1633 72.1489 21.1927L71.601 21.3373Z" fill="#D7D3AD"/>
<path d="M56.1035 8.40016C52.1572 11.7702 52.2053 15.5058 52.8335 17.3554L48.761 18.0348C49.2865 14.7131 45.5334 13.2234 43.5911 12.8938C46.4418 9.98253 43.2025 4.62264 42.1229 3.49978C45.7978 1.72018 54.557 5.87821 56.1035 8.40016Z" fill="#84283F"/>
<path fill-rule="evenodd" clip-rule="evenodd" d="M67.5945 16.6712C67.7433 16.7796 67.9153 16.852 68.0963 16.8837C68.1471 16.8546 68.1983 16.8203 68.2484 16.7809C68.5134 16.5726 68.6463 16.3037 68.5453 16.1804C68.4442 16.0571 68.1476 16.126 67.8825 16.3343C67.7481 16.44 67.6478 16.5611 67.5945 16.6712Z" fill="#0E3335"/>
<path d="M68.2183 23.3209L67.4221 23.3909C67.4779 23.4676 67.5392 23.7558 67.722 23.9977L68.2183 23.3209Z" fill="#D7D3AD"/>
<path d="M68.9226 23.9665L68.5491 24.6678C68.4993 24.6552 68.3765 24.7544 68.1188 24.5544L68.9226 23.9665Z" fill="#D7D3AD"/>
<path d="M68.5994 16.6325C68.551 16.5641 68.6316 16.4273 68.7015 16.38C68.7713 16.3326 68.8671 16.3496 68.9155 16.4181C68.9639 16.4865 68.9465 16.5803 68.8766 16.6277C68.8068 16.6751 68.6477 16.7009 68.5994 16.6325Z" fill="#C6C193" fill-opacity="0.3"/>
<path d="M46.8672 2.48031C43.3313 8.63887 45.1702 13.4572 46.8672 15.5682L41.8878 18.2981C40.9928 13.7556 35.398 13.5299 32.7125 13.985C35.0399 8.91834 28.274 3.44486 26.3346 2.48031C30.2732 -1.49434 43.6546 -0.0847595 46.8672 2.48031Z" fill="#AE3352"/>
<path d="M43.6191 3.08519C41.3798 4.99545 42.3129 11.6587 43.0593 14.7515C42.4011 15.2295 41.2423 16.1499 41.0091 16.6502C39.4975 14.4125 34.7334 13.9906 32.5408 14.1498C34.2762 9.34687 29.1804 4.24499 26.3346 2.40294C35.0119 0.656416 41.4732 2.13005 43.6191 3.08519Z" fill="#DA9834"/>
<path d="M68.4111 16.7024C68.2665 16.7392 67.8893 16.7284 67.5382 16.3905" stroke="#C6C193" stroke-opacity="0.3" stroke-width="0.210708" stroke-linecap="round"/>
<path d="M72.6973 18.5757C72.4818 18.328 71.577 17.242 70.531 16.9439L72.6973 18.5757Z" fill="#A67978"/>
<path d="M72.6973 18.5757C72.4818 18.328 71.577 17.242 70.531 16.9439" stroke="#A27D7B" stroke-width="0.210708"/>
<path d="M52.645 22.4919C54.7571 20.175 54.8262 16.6495 52.8077 14.1789L52.4779 13.7752C51.0965 12.0841 49.0175 11.1035 46.8416 11.1164L42.6452 11.1414C34.4543 11.1899 27.797 17.4791 27.3658 25.5755L27.3376 26.1043C27.1633 29.3789 29.505 32.3046 32.7749 32.8971L37.0924 33.6795C39.6943 34.1509 42.359 33.5613 44.478 32.045C47.0634 30.195 49.244 27.8495 50.8941 25.1436L51.9284 23.4474C52.1361 23.1068 52.3761 22.7869 52.645 22.4919Z" fill="#AE3352"/>
<path d="M56.1251 20.4524C61.5776 15.8758 62.7542 19.4831 64.0937 20.4524L65.194 21.4419L66.5298 13.6383C59.3956 8.18305 48.3752 11.479 44.8371 13.6383L56.1251 20.4524Z" fill="#AE3352"/>
<path d="M69.1823 15.1977C69.5071 15.4332 69.3864 16.1215 69.099 16.4389" stroke="#84283F" stroke-width="0.316061"/>
<path d="M72.6185 19.2832C72.6832 19.117 72.598 18.9309 72.4284 18.8676C72.2587 18.8041 72.0688 18.8876 72.0041 19.0537C71.9395 19.22 72.0245 19.406 72.1942 19.4695L72.5014 19.5841L72.6185 19.2832Z" fill="#84283F"/>
<path d="M65.5923 9.34535C65.4132 9.12259 65.0488 9.27727 65.0923 9.55765L65.6141 12.9229C65.6236 12.9843 65.654 13.0406 65.7003 13.083L67.2682 14.5192C67.4444 14.6806 67.7325 14.5647 67.7423 14.3287L67.8279 12.2334C67.8306 12.1677 67.8092 12.1032 67.7677 12.0515L65.5923 9.34535Z" fill="#AE3352"/>
<path d="M63.2008 11.1283C62.9447 10.9965 62.6763 11.2832 62.8327 11.5219L64.7091 14.3865C64.7433 14.4388 64.7946 14.4782 64.8545 14.4984L66.8838 15.1837C67.1118 15.2607 67.3267 15.0397 67.2373 14.8204L66.4438 12.8729C66.419 12.8118 66.3726 12.7614 66.3132 12.7308L63.2008 11.1283Z" fill="#AE3352"/>
<path d="M62.131 13.0677C61.8568 12.9951 61.6485 13.3376 61.8452 13.5372L63.7151 15.4339C63.7577 15.4771 63.8141 15.5041 63.8753 15.5109L65.6294 15.7065C65.8656 15.7328 66.0356 15.4683 65.9091 15.2717L65.0313 13.9079C64.9959 13.8527 64.9411 13.8131 64.8772 13.7961L62.131 13.0677Z" fill="#AE3352"/>
<path d="M65.3791 9.51833C65.3292 9.45991 65.3371 9.37286 65.3968 9.32399C65.4565 9.275 65.5454 9.28284 65.5953 9.34138L65.3791 9.51833ZM65.5953 9.34138L67.8327 11.9649L67.6164 12.1419L65.3791 9.51833L65.5953 9.34138ZM67.9309 12.2315L67.9272 13.6041L67.6454 13.6033L67.6491 12.2308L67.9309 12.2315ZM67.8327 11.9649C67.8965 12.0397 67.9313 12.134 67.9309 12.2315L67.6491 12.2308C67.6492 12.1984 67.6376 12.1669 67.6164 12.1419L67.8327 11.9649Z" fill="#9E7371"/>
<path d="M63.8173 11.7592C63.7479 11.7247 63.7204 11.6416 63.7557 11.5736C63.7909 11.5057 63.8758 11.4786 63.9452 11.5133L63.8173 11.7592ZM65.7197 12.5536L65.7838 12.4307L65.8405 12.459L65.8563 12.5195L65.7197 12.5536ZM63.9452 11.5133L65.7838 12.4307L65.6558 12.6766L63.8173 11.7592L63.9452 11.5133ZM65.8563 12.5195L66.135 13.5895L65.8621 13.6578L65.5832 12.5877L65.8563 12.5195Z" fill="#843B57"/>
<path d="M44.5433 38.2408C45.6754 37.5245 45.242 33.1699 44.8838 31.0821L36.5866 33.6674L36.8693 40.1616L39.344 43.0865L39.1844 40.8187L40.1033 42.1659L38.9166 36.7676C40.3205 37.5572 43.4112 38.9571 44.5433 38.2408Z" fill="#84283F"/>
<path d="M47.8015 29.0586C47.672 28.8736 49.4649 26.4539 50.3775 25.267L47.3272 24.4047C46.6934 25.9249 45.4518 29.0024 45.5554 29.1502C45.659 29.2981 47.1972 30.7178 47.9533 31.4092C47.8952 31.5849 47.9521 32.0687 47.8565 32.2426C47.7609 32.4165 47.8022 32.8748 47.9334 33.1267C47.8093 33.3698 47.6314 33.9788 47.4841 34.0788C47.3367 34.1787 46.9408 34.8882 46.7412 35.0235L48.117 34.5979L48.8572 33.8633C48.8099 34.0545 48.7098 34.4677 48.688 34.5916C48.6659 34.7155 48.1916 35.3678 47.8567 35.504C48.1119 35.5128 48.6738 35.4699 48.9504 35.2392C49.1211 35.0967 49.527 34.4315 49.7984 34.043C49.8557 33.4134 49.9315 32.0989 49.7761 31.8771L47.8015 29.0586Z" fill="#84283F"/>
<path d="M-0.99995 30.8472C17.4914 14.7093 32.3082 16.9627 37.4051 20.1068C36.0384 24.4253 31.5713 31.9774 24.6374 27.6378C17.7036 23.2981 4.65673 27.9691 -0.99995 30.8472Z" fill="#AE3352"/>
<path d="M26.5231 24.5088C18.5475 20.3007 4.87979 26.8997 -0.957082 30.7251C10.2915 24.9584 20.415 26.9276 23.6095 28.3293L26.5231 24.5088Z" fill="#DA9834"/>
<path d="M49.679 18.1622C54.7504 17.4238 58.789 15.229 59.8211 16.99C59.4497 17.2427 60.0332 17.5634 60.033 18.1625C59.7233 18.142 54.4565 21.5499 52.517 22.7548C49.6716 28.8469 44.3668 33.8919 38.7278 33.7811L37.6699 34.0678L37.1432 32.8148L35.0138 31.5163C33.7117 23.068 46.7714 18.5855 49.679 18.1622Z" fill="#DA9834"/>
<path d="M64.5191 20.922L64.6114 20.8178L64.6292 20.8329L64.641 20.8529L64.5191 20.922ZM63.265 17.3424C63.2879 17.2696 63.3669 17.2289 63.4413 17.2514C63.5155 17.274 63.5572 17.3513 63.5341 17.4241L63.265 17.3424ZM65.6345 23.0874L64.3971 20.9911L64.641 20.8529L65.8784 22.9492L65.6345 23.0874ZM64.4266 21.0261C63.2729 20.0437 62.8681 18.597 63.265 17.3424L63.5341 17.4241C63.1721 18.5687 63.5376 19.9032 64.6114 20.8178L64.4266 21.0261Z" fill="#84283F"/>
<path d="M45.983 22.8339C45.7442 22.6882 46.5205 19.0435 46.9385 17.2393L43.0886 17.7796C43.1519 19.8239 43.3264 23.9414 43.5173 24.0578C43.7083 24.1743 46.1499 25.0214 47.3469 25.4304C47.3712 25.6592 47.415 26.178 47.3964 26.4233C47.3777 26.6687 47.9223 27.1719 48.197 27.3929C48.1816 27.7311 48.1226 28.4545 48.0084 28.6417L47.4022 29.6358L48.927 28.8809L49.6045 27.7698C49.6486 28.0107 49.7465 28.5303 49.785 28.6822C49.8234 28.8339 49.2222 29.5155 48.9167 29.8373C49.2066 29.7199 49.8507 29.4603 50.1081 29.3605C50.3654 29.2607 50.6423 28.0817 50.7485 27.5047C50.4928 26.7606 49.9098 25.2284 49.6234 25.0538L45.983 22.8339Z" fill="#AE3352"/>
<path d="M41.5156 32.5022C41.2637 31.8384 40.2605 30.0596 38.2627 28.2556" stroke="#E37C32" stroke-width="0.390336"/>
<path d="M37.2189 34.3614C40.6711 31.9682 38.4852 24.2857 38.198 22.8178C35.2013 23.9512 28.8135 26.8503 28.4625 26.5437C28.0237 26.1604 24.5945 26.1697 23.9248 26.7868C23.3891 27.2803 21.509 32.2085 20.4405 34.5054L22.2883 33.0195L21.296 36.5325L23.598 34.4115L24.1631 36.1747L26.4441 31.7894C26.8357 31.9012 27.6784 32.3141 29.2661 34.0014C31.2506 36.1105 33.7666 36.7546 37.2189 34.3614Z" fill="#AE3352"/>
<path d="M36.74 35.2474C34.7279 36.2631 30.0598 36.671 27.524 30.826" stroke="#84283F" stroke-width="0.390336"/>
<path d="M31.5301 25.1485C30.4682 24.3944 28.3301 24.4174 27.3839 24.4837C26.9744 21.4119 30.9375 15.2026 34.5944 13.4392C30.3116 19.0141 31.0714 23.227 31.5301 25.1485Z" fill="#84283F"/>
<path d="M13.3904 21.243C19.087 18.8303 24.7163 19.1402 26.8188 19.5966L30.1433 17.6832C24.3434 16.9461 16.5581 19.7493 13.3904 21.243Z" fill="#84283F"/>
<path d="M43.677 3.12555C41.6663 3.80746 36.8444 6.75105 33.6427 13.0701" stroke="#E37C32" stroke-width="0.390336"/>
<path d="M43.0247 19.7782L43.0943 19.6226L43.1893 19.6656L43.1973 19.7681L43.0247 19.7782ZM41.1854 17.4902C41.1877 17.3956 41.267 17.3222 41.3626 17.3262C41.4581 17.3302 41.5337 17.4101 41.5314 17.5047L41.1854 17.4902ZM47.2925 25.5684C46.6283 25.3744 45.6309 25.0731 44.7979 24.7992C44.3818 24.6625 44.004 24.5318 43.7287 24.4244C43.5918 24.3708 43.4756 24.3214 43.3916 24.2784C43.3504 24.2575 43.3104 24.2347 43.2783 24.2107C43.2625 24.1988 43.2426 24.1823 43.2249 24.1611C43.2094 24.1425 43.1795 24.1009 43.1765 24.0416L43.5222 24.0309C43.5197 23.9819 43.4955 23.9519 43.4906 23.9461C43.4836 23.9376 43.4792 23.9351 43.4836 23.9384C43.4918 23.9445 43.5111 23.9566 43.5459 23.9744C43.6137 24.0091 43.7167 24.0534 43.8505 24.1057C44.1166 24.2095 44.487 24.3378 44.9015 24.4741C45.7295 24.7462 46.7227 25.0463 47.3848 25.2397L47.2925 25.5684ZM43.1765 24.0416C43.1684 23.88 42.9571 21.1416 42.8521 19.7882L43.1973 19.7681C43.3018 21.1162 43.5138 23.863 43.5222 24.0309L43.1765 24.0416ZM42.9551 19.9338C42.652 19.7964 42.2072 19.5142 41.8396 19.1067C41.4708 18.6981 41.1693 18.1509 41.1854 17.4902L41.5314 17.5047C41.5181 18.0508 41.7659 18.5152 42.0958 18.8809C42.4267 19.2477 42.8298 19.5025 43.0943 19.6226L42.9551 19.9338Z" fill="#84283F"/>
<path d="M45.9667 21.6386L46.4369 19.1964C46.7201 18.992 47.3059 18.3952 47.3837 17.6439" stroke="#BD9896" stroke-width="0.390336"/>
<path d="M59.7234 18.142C59.4861 17.9075 59.0321 17.3314 59.1134 16.9027" stroke="#E37C32" stroke-width="0.390336"/>
<path d="M56.2633 16.8775C56.2633 17.4268 56.4141 18.6959 57.0173 19.3779" stroke="#E37C32" stroke-width="0.390336"/>
<path d="M51.3828 24.3424C51.0679 23.4848 49.8855 21.4059 47.6747 19.9512" stroke="#E37C32" stroke-width="0.390336"/>
<path d="M37.4538 28.474C37.6955 27.6131 38.0101 25.5348 37.3345 24.1084" stroke="#E37C32" stroke-width="0.390336"/>
<path d="M20.9117 27.1565C21.3647 26.8176 22.3836 25.7415 22.8358 24.1495" stroke="#E37C32" stroke-width="0.390336"/>
<path d="M17.1857 26.6759C17.5688 26.4588 18.4043 25.7809 18.6824 24.8062" stroke="#E37C32" stroke-width="0.390336"/>
<path d="M13.1776 26.0738C13.4805 25.8027 14.0477 25.1387 13.8945 24.6519" stroke="#E37C32" stroke-width="0.390336"/>
<path d="M62.714 11.7801L64.3835 13.9547" stroke="#84283F" stroke-width="0.390336"/>
<path d="M71.3026 24.163L68.8166 20.6645L69.8206 25.9586L67.4069 28.1818L66.7378 30.1577L62.7596 33.4689H65.4857L64.9057 34.6072L63.3976 37.639L66.1237 36.9706L66.6147 39.5005L67.0709 43.6367L67.7106 41.8163L69.3771 40.3434L70.0823 42.711L71.0384 43.2467L70.9662 45.5914L72.6783 46.8471L72.7233 45.3896L73.7439 43.8342L74.3939 45.8831L74.8162 46.9104L76.5912 48.2315L76.642 46.5839L77.1935 45.5219L77.9908 47.0044L79.6104 47.0522L81.1005 47.0963L83.1151 49.0588L83.1737 47.1577L82.3253 45.2298L82.8706 42.2649L83.9801 44.1371L85.8885 45.3353L87.9617 45.3967L85.9393 43.6877L85.5737 40.8226L83.0132 37.639L83.064 35.9914L84.6837 36.0394L86.1464 36.9706L84.7931 32.4907L80.9743 30.1577L80.6461 28.1818L84.4529 28.8019L87.3035 28.8862L83.3219 27.6267L80.3079 24.4296L75.0602 24.2743L71.3026 24.163Z" fill="#E37C32"/>
<path d="M71.3409 24.1236L68.855 20.6249L69.859 25.9191L67.4453 28.1422L66.7762 30.1182L62.798 33.4294H65.524L64.944 34.5677L63.436 37.5995L66.1621 36.9311L66.6531 39.461L67.1092 43.5972L67.749 41.7767L69.4155 40.3038L70.1207 42.6715L71.0768 43.2072L71.0045 45.5518L72.7166 46.8075L72.7616 45.3501L73.7822 43.7946L74.4323 45.8436L74.8546 46.8709L76.6295 48.1919L76.6803 46.5443L77.2318 45.4824L78.0291 46.9648L79.6488 47.0127L81.1388 47.0568L83.1534 49.0192L83.212 47.1182L82.3636 45.1903L82.9089 42.2253L84.0184 44.0976L85.9268 45.2957L88 45.3571L85.9776 43.6481L85.612 40.7831L83.0515 37.5995L83.1023 35.9518L84.722 35.9998L86.1847 36.9311L84.8314 32.4511L81.0126 30.1182L80.6845 28.1422L84.4912 28.7623L87.3418 28.8466L83.3602 27.5872L80.3462 24.39L75.0985 24.2348L71.3409 24.1236Z" fill="#E37C32"/>
<path d="M72.852 25.3445L68.9658 21.1393L71.5179 27.1629L68.6758 28.9245L67.8638 33.3001L70.7059 32.3341L69.4879 34.6639V37.5621L72.1559 35.63L72.852 37.5621L74.128 40.3466L75.6941 42.7901V40.3466V36.3687L77.8981 37.8462H78.9422L80.6822 41.3694L81.2042 38.6986V36.3687L78.9422 33.3001H80.6822L81.9583 34.0957L80.6822 31.709H77.8981V28.5267L77.2601 26.6515L72.852 25.3445Z" fill="#DA9834"/>
<path d="M77.8401 34.4628L77.3599 32.9156L76.0018 33.3201L75.6041 32.0386L73.5462 32.6515L73.9439 33.933L72.567 34.3431L73.9586 35.6188L77.8401 34.4628Z" fill="#D7D3AD"/>
<path d="M76.1514 29.0201L74.8042 27.765L70.8879 28.9315L71.3583 30.4477L72.7352 30.0377L73.1249 31.2936L75.1827 30.6807L74.7931 29.4247L76.1514 29.0201Z" fill="#D7D3AD"/>
</svg>
