<svg width="1252" height="769" viewBox="0 0 1252 769" fill="none" xmlns="http://www.w3.org/2000/svg">
<path d="M626.207 2.38112C1251.48 2.38112 1251.69 -50.804 1251.69 345.547V829H0.723633V345.547C0.723633 -33.1354 13.794 2.38111 626.207 2.38112Z" fill="#ADB1B3"/>
<line x1="0.723633" y1="681.826" x2="38.4683" y2="681.826" stroke="#6A7274" stroke-width="2"/>
<line x1="0.723633" y1="742.136" x2="38.4683" y2="742.136" stroke="#6A7274" stroke-width="2"/>
<line x1="0.723633" y1="603.117" x2="38.4683" y2="603.117" stroke="#6A7274" stroke-width="2"/>
<line x1="0.723633" y1="527.975" x2="38.4683" y2="527.975" stroke="#6A7274"/>
<line x1="0.723633" y1="429.844" x2="38.4683" y2="429.844" stroke="#6A7274"/>
<line x1="0.723633" y1="327.625" x2="38.4683" y2="327.625" stroke="#6A7274"/>
<line x1="0.723633" y1="248.916" x2="38.4683" y2="248.916" stroke="#6A7274"/>
<line y1="-0.5" x2="42.2365" y2="-0.5" transform="matrix(0.989401 0.14521 -0.247314 0.968935 7.46436 161.507)" stroke="#6A7274"/>
<line y1="-0.5" x2="49.0611" y2="-0.5" transform="matrix(0.796818 0.60422 -0.796818 0.60422 54.6445 51.1097)" stroke="#6A7274"/>
<line y1="-1" x2="37.7447" y2="-1" transform="matrix(-1 0 0 1 1251.69 688.959)" stroke="#6A7274" stroke-width="2"/>
<line y1="-1" x2="37.7447" y2="-1" transform="matrix(-1 0 0 1 1251.69 610.25)" stroke="#6A7274" stroke-width="2"/>
<line y1="-0.5" x2="37.7447" y2="-0.5" transform="matrix(-1 0 0 1 1251.69 534.608)" stroke="#6A7274"/>
<line y1="-0.5" x2="37.7447" y2="-0.5" transform="matrix(-1 0 0 1 1251.69 436.477)" stroke="#6A7274"/>
<line y1="-0.5" x2="37.7447" y2="-0.5" transform="matrix(-1 0 0 1 1251.69 334.258)" stroke="#6A7274"/>
<line y1="-0.5" x2="37.7447" y2="-0.5" transform="matrix(-1 0 0 1 1251.69 255.549)" stroke="#6A7274"/>
<line y1="-0.5" x2="42.2365" y2="-0.5" transform="matrix(-0.989401 0.14521 0.247314 0.968935 1247.65 167.64)" stroke="#6A7274"/>
<line y1="-0.5" x2="49.0611" y2="-0.5" transform="matrix(-0.796818 0.60422 0.796818 0.60422 1208.55 51.1097)" stroke="#6A7274"/>
<line y1="-0.5" x2="40.4493" y2="-0.5" transform="matrix(-0.466568 0.884485 -0.956948 -0.290258 1085.88 5.11096)" stroke="#6A7274"/>
<line y1="-0.5" x2="36.6797" y2="-0.5" transform="matrix(0.220508 0.975385 -0.991656 0.128908 188.099 8.17749)" stroke="#6A7274"/>
<line y1="-0.5" x2="34.8578" y2="-0.5" transform="matrix(0.0773415 0.997005 -0.999007 0.044561 335.034 2.04443)" stroke="#6A7274"/>
<line y1="-0.5" x2="34.8578" y2="-0.5" transform="matrix(0.0773415 0.997005 -0.999007 0.044561 448.268 2.04443)" stroke="#6A7274"/>
<line x1="587.615" y1="2.01428" x2="587.615" y2="36.829" stroke="#6A7274"/>
<line x1="704.893" y1="2.04443" x2="704.893" y2="36.8591" stroke="#6A7274"/>
<line x1="822.17" y1="2.04443" x2="822.17" y2="36.8591" stroke="#6A7274"/>
<line x1="944.841" x2="944.841" y2="34.8147" stroke="#6A7274"/>
</svg>
