<svg width="761" height="469" viewBox="0 0 761 469" fill="none" xmlns="http://www.w3.org/2000/svg">
<rect x="188" y="106.01" width="83" height="344" fill="#797C9C"/>
<path d="M229.958 22.0105L189 85.0105H270L229.958 22.0105Z" fill="#52546D"/>
<rect x="189" y="85.0105" width="81" height="12" fill="#52546D"/>
<path d="M192.325 97.0105C190.406 88.6105 197.454 75.1772 201.051 74.0105C200.092 79.6105 203.85 83.0105 205.849 84.0105C211.606 71.2105 215.444 67.8438 220.241 66.0105C216.643 75.0105 223.182 78.5105 226.78 79.5105C231.38 75.6754 233.276 72.9128 232.367 72.1039C232.323 72.0725 232.279 72.0413 232.234 72.0105C232.284 72.038 232.328 72.0692 232.367 72.1039C240.909 78.1917 244.692 95.684 243.896 97.0105H192.325Z" fill="#FF8126"/>
<path d="M193.306 97.0105C191.498 91.0492 198.139 81.5159 201.529 80.6879C200.625 84.6621 204.167 87.075 206.05 87.7847C211.475 78.7008 212.189 75.3116 216.71 74.0105C213.319 80.3976 222.383 83.8815 225.774 84.5911C230.108 81.8695 231.894 79.9089 231.038 79.3349C230.997 79.3126 230.955 79.2904 230.913 79.2686C230.96 79.2881 231.001 79.3102 231.038 79.3349C239.087 83.6552 242.652 96.0691 241.902 97.0105H193.306Z" fill="#FFA928"/>
<rect x="177" y="95.1718" width="107.484" height="20.8387" fill="#616481"/>
<rect x="177" y="82.0105" width="15.3548" height="16.4516" fill="#616481"/>
<rect x="207.71" y="82.0105" width="15.3548" height="16.4516" fill="#616481"/>
<rect x="238.419" y="82.0105" width="15.3548" height="16.4516" fill="#616481"/>
<rect x="269.129" y="82.0105" width="15.3548" height="16.4516" fill="#616481"/>
<rect x="236" y="190.752" width="14.4637" height="7.31131" rx="0.794708" fill="#52546D"/>
<rect x="260.536" y="180.01" width="14.4637" height="7.31131" rx="0.794708" fill="#52546D"/>
<rect x="200" y="324.742" width="14.4637" height="7.31131" rx="0.794708" fill="#52546D"/>
<rect x="194" y="141" width="14.4637" height="7.31131" rx="0.794708" fill="#52546D"/>
<line x1="230" x2="230" y2="24.0208" stroke="#52546D"/>
<path d="M246.5 8.0105L230 1.0105V9.0105L246.5 8.0105Z" fill="#616481"/>
<path d="M127.227 394.65C110.194 409.716 57.8331 439.849 -15.3517 439.849H-17V474H761L759.352 415.24C731.605 422.774 676.936 430.809 647.267 434.827C624.191 436.836 603.587 430.809 544.248 394.65C460.184 339.406 232.718 320.824 127.227 394.65Z" fill="#5B847E"/>
<g style="mix-blend-mode:soft-light" opacity="0.3">
<path d="M149.124 556.297C149.124 556.297 262.823 522.24 249.478 504.732C236.124 487.23 160.566 516.771 202.618 493.277C244.67 469.783 325.599 434.066 285.942 428.928C285.942 428.928 359.788 392.104 290.129 390.024C220.471 387.944 -17 480.168 -17 480.168" fill="#DCF492"/>
</g>
<path d="M38.9213 459.7L43.1059 462.174L38.5506 461.436L36.1214 464L34.9826 461.607L30.5621 462.723V460.859H27.149C27.149 460.859 30.6901 460.034 30.6901 456.384C30.6901 452.734 30.8013 440.339 29.2279 438.948L29.9624 435.365C30.9462 434.27 21.0809 423.52 21.0809 423.52L7.18266 413.75L9.21097 414.424L16.4044 417.754L15.0499 415.385L17.0445 417.754C17.0445 417.754 21.8727 421.029 22.8936 421.174C23.9145 421.319 26.62 426.064 28.3485 425.946C30.0769 425.828 29.959 413.75 29.959 413.75L33.8337 414.145C33.8337 414.145 31.7043 426.56 33.0823 425.946C46.9671 419.769 50.2151 419.223 36.0473 426.418C36.0473 426.418 34.6052 428.935 34.9826 429.707C35.36 430.479 38.9213 459.703 38.9213 459.703V459.7Z" fill="#0D3F41"/>
<path d="M2.43921 414.957C-2.08626 414.957 -5.75488 411.287 -5.75488 406.761C-5.75488 402.235 -2.08626 398.565 2.43921 398.565C6.96468 398.565 10.6333 402.235 10.6333 406.761C10.6333 411.287 6.96468 414.957 2.43921 414.957Z" fill="#1D6645"/>
<path d="M8.20557 426.415C2.5692 426.415 -1.99997 421.845 -1.99997 416.208C-1.99997 410.57 2.5692 406 8.20557 406C13.8419 406 18.4111 410.57 18.4111 416.208C18.4111 421.845 13.8419 426.415 8.20557 426.415Z" fill="#1D6645"/>
<path d="M23.2056 426.415C17.5692 426.415 13 421.845 13 416.208C13 410.57 17.5692 406 23.2056 406C28.8419 406 33.4111 410.57 33.4111 416.208C33.4111 421.845 28.8419 426.415 23.2056 426.415Z" fill="#1D6645"/>
<path d="M23.2056 426.415C17.5692 426.415 13 421.845 13 416.208C13 410.57 17.5692 406 23.2056 406C28.8419 406 33.4111 410.57 33.4111 416.208C33.4111 421.845 28.8419 426.415 23.2056 426.415Z" fill="#1D6645"/>
<path d="M2.20557 403.415C-3.4308 403.415 -7.99997 398.845 -7.99997 393.208C-7.99997 387.57 -3.4308 383 2.20557 383C7.84194 383 12.4111 387.57 12.4111 393.208C12.4111 398.845 7.84194 403.415 2.20557 403.415Z" fill="#1D6645"/>
<path d="M51.6607 401.426C46.0243 401.426 41.4551 396.856 41.4551 391.218C41.4551 385.581 46.0243 381.011 51.6607 381.011C57.297 381.011 61.8662 385.581 61.8662 391.218C61.8662 396.856 57.297 401.426 51.6607 401.426Z" fill="#1D6645"/>
<path d="M38.1267 409.797C38.1267 411.091 38.2783 412.351 38.5681 413.558C38.6186 413.784 38.6793 414.003 38.7399 414.225C39.0937 415.469 39.5923 416.652 40.219 417.753C42.9919 422.647 48.2446 425.946 54.2689 425.946C55.0877 425.946 55.8929 425.885 56.6813 425.767C64.4509 424.601 70.4111 417.898 70.4111 409.797C70.4111 400.88 63.184 393.651 54.2689 393.651C53.1099 393.651 51.9812 393.773 50.8895 394.005H50.8862C50.0438 394.187 49.2251 394.433 48.4367 394.74H48.4333C47.6853 395.03 46.9643 395.373 46.2736 395.768C44.3666 396.856 42.7056 398.322 41.3848 400.064C39.3396 402.774 38.1267 406.144 38.1267 409.797Z" fill="#1D6645"/>
<path d="M3.47425 392.728C3.47425 402.285 9.12115 410.522 17.258 414.282C20.2802 415.681 23.6461 416.459 27.1973 416.459C31.446 416.459 35.4352 415.344 38.882 413.386C41.1024 412.129 43.097 410.522 44.7951 408.641C46.008 407.303 47.0694 405.824 47.9521 404.233C47.9589 404.223 47.9622 404.213 47.969 404.203C49.4919 401.456 50.4824 398.373 50.8093 395.094C50.8834 394.315 50.9238 393.527 50.9238 392.728C50.9238 379.622 40.3005 369 27.1973 369C14.0942 369 3.47425 379.622 3.47425 392.728Z" fill="#1D6645"/>
<path d="M48.531 409.646C44.4149 409.646 41.0782 406.308 41.0782 402.191C41.0782 398.075 44.4149 394.737 48.531 394.737C52.6471 394.737 55.9839 398.075 55.9839 402.191C55.9839 406.308 52.6471 409.646 48.531 409.646Z" fill="#13473D"/>
<path d="M11.9583 417.909C7.84219 417.909 4.50544 414.571 4.50544 410.454C4.50544 406.337 7.84219 403 11.9583 403C16.0744 403 19.4111 406.337 19.4111 410.454C19.4111 414.571 16.0744 417.909 11.9583 417.909Z" fill="#13473D"/>
<path d="M13.7513 404.335C13.7513 408.504 15.2237 412.332 17.6765 415.321C20.6988 416.72 24.0647 417.498 27.6159 417.498C28.4919 417.498 29.3578 417.451 30.2103 417.357C30.3888 417.34 30.5674 417.316 30.7426 417.293C30.7595 417.293 30.773 417.289 30.7864 417.286C31.0324 417.256 31.275 417.219 31.5142 417.178C31.7467 417.141 31.9791 417.101 32.2116 417.054C32.3093 417.033 32.407 417.013 32.5048 416.993C32.6564 416.963 32.8114 416.929 32.963 416.895C33.0607 416.872 33.155 416.848 33.2494 416.824C33.3942 416.791 33.5358 416.754 33.6773 416.717C33.7649 416.693 33.8491 416.673 33.9333 416.646C34.1018 416.602 34.2703 416.555 34.4354 416.504C34.6375 416.444 34.8363 416.38 35.0317 416.316C35.2507 416.245 35.4663 416.171 35.682 416.09C35.8471 416.032 36.0088 415.972 36.1672 415.908C36.3053 415.857 36.4401 415.803 36.5748 415.746C36.6254 415.726 36.6726 415.709 36.7197 415.685C36.8612 415.628 37.0027 415.567 37.1443 415.503C37.3094 415.433 37.4745 415.358 37.6362 415.281C37.6665 415.267 37.7002 415.254 37.7305 415.237C37.9394 415.139 38.1449 415.038 38.3471 414.934C38.5526 414.829 38.7548 414.725 38.9569 414.614C38.967 414.607 38.9771 414.604 38.9872 414.597C39.0917 414.543 39.1962 414.486 39.3006 414.425C39.2433 414.701 39.1961 414.981 39.1591 415.264C39.5129 416.508 40.0115 417.69 40.6382 418.792C43.6402 416.808 45.9853 413.909 47.2824 410.496C47.9057 408.858 48.2898 407.099 48.3842 405.269C48.3875 405.259 48.3875 405.248 48.3875 405.242C48.4044 404.942 48.4111 404.638 48.4111 404.335C48.4111 401.636 47.7946 399.081 46.6928 396.807C46.5985 396.608 46.4974 396.416 46.3963 396.224C43.4886 390.737 37.7204 387 31.0796 387C21.5108 387 13.7513 394.761 13.7513 404.335Z" fill="#13473D"/>
<path opacity="0.35" d="M229.315 389.329C226.379 389.329 224 388.136 224 386.664C224 385.193 226.379 384 229.315 384C232.25 384 234.63 385.193 234.63 386.664C234.63 388.136 232.25 389.329 229.315 389.329Z" fill="#DCF492"/>
<path opacity="0.35" d="M220.203 373.204C217.882 373.204 216 372.263 216 371.102C216 369.941 217.882 369 220.203 369C222.524 369 224.406 369.941 224.406 371.102C224.406 372.263 222.524 373.204 220.203 373.204Z" fill="#DCF492"/>
<path opacity="0.35" d="M185.203 384.204C182.882 384.204 181 383.263 181 382.102C181 380.941 182.882 380 185.203 380C187.524 380 189.406 380.941 189.406 382.102C189.406 383.263 187.524 384.204 185.203 384.204Z" fill="#DCF492"/>
<path opacity="0.35" d="M202.567 388.408C197.931 388.408 194.172 386.526 194.172 384.204C194.172 381.882 197.931 380 202.567 380C207.203 380 210.961 381.882 210.961 384.204C210.961 386.526 207.203 388.408 202.567 388.408Z" fill="#DCF492"/>
</svg>
