<svg width="273" height="377" viewBox="0 0 273 377" fill="none" xmlns="http://www.w3.org/2000/svg">
<path d="M170.58 219.902C155.388 216.569 144.075 205.493 132.524 172.029C130.906 171.046 126.658 167.805 122.608 162.71C119.101 158.45 113.819 142.938 111.289 139.455C108.758 135.971 103.388 127.172 102.149 119.842C101.265 113.02 95.2063 95.3299 78.047 79.1538C83.7512 81.07 96.5169 88.0523 101.946 100.652C104.236 106.238 109.11 118.681 110.286 123.767C113.013 129.602 121.681 142.159 134.534 145.704C136.735 146.821 141.483 148.135 142.862 144.459C141.401 139.767 136.034 128.026 126.25 118.603C128.294 118.77 134.879 122.064 144.866 133.907C145.656 133.398 145.7 130.448 139.556 122.718C132.734 113.687 117.602 92.937 111.641 82.1933C104.856 71.1024 91.631 44.488 93.0178 26.7571C97.5344 39.6519 109.237 69.3402 119.913 84.9353L126.592 92.886C127.865 92.2328 130.342 90.1199 130.072 86.8945C129.629 83.7825 127.783 76.171 123.945 70.6213C127.149 73.4498 133.842 80.4571 134.982 85.8583L139.329 96.7371C140.664 99.6183 145.114 107.62 152.236 116.58C152.895 116.056 153.424 115.34 153.514 114.131C153.503 113.065 152.398 109.571 148.069 104.125C150.228 105.037 155.732 108.354 160.48 114.328L174.271 131.676C175.478 133.345 178.733 136.658 182.098 136.563C179.249 132.378 174.052 123.106 176.061 119.502C178.892 125.016 185.952 137.084 191.547 141.237C196.399 144.786 207.033 154.586 210.75 165.393C215.067 171.876 220.422 188.38 207.305 202.535C202.947 209.225 189.5 222.064 170.58 219.902Z" fill="#FF8126" fill-opacity="0.3"/>
<path d="M167.395 212.303C152.203 208.97 140.89 197.894 129.34 164.429C127.722 163.446 123.473 160.205 119.423 155.111C115.917 150.85 110.635 135.339 108.104 131.855C105.574 128.371 100.204 119.572 98.9644 112.243C98.0801 105.42 92.0217 87.7302 74.8624 71.5542C80.5667 73.4704 93.3323 80.4527 98.761 93.0524C101.051 98.6382 105.925 111.081 107.101 116.167C109.829 122.003 118.497 134.56 131.349 138.105C133.551 139.221 138.299 140.536 139.677 136.86C138.217 132.167 132.85 120.427 123.065 111.003C125.109 111.17 131.694 114.465 141.681 126.307C142.472 125.799 142.516 122.849 136.371 115.119C129.55 106.087 114.417 85.3374 108.457 74.5937C101.671 63.5028 88.4464 36.8884 89.8333 19.1575C94.3498 32.0523 106.052 61.7406 116.729 77.3357L123.408 85.2864C124.68 84.6332 127.158 82.5203 126.887 79.2949C126.444 76.1829 124.598 68.5714 120.76 63.0216C123.964 65.8502 130.657 72.8575 131.797 78.2587L136.145 89.1375C137.48 92.0186 141.929 100.021 149.052 108.981C149.711 108.457 150.24 107.741 150.33 106.531C150.319 105.465 149.214 101.971 144.884 96.525C147.043 97.4372 152.547 100.755 157.295 106.728L171.086 124.076C172.293 125.745 175.548 129.059 178.914 128.964C176.064 124.778 170.868 115.506 172.877 111.902C175.707 117.417 182.767 129.484 188.362 133.637C193.215 137.186 203.848 146.987 207.565 157.793C211.882 164.276 217.238 180.781 204.12 194.935C199.762 201.625 186.316 214.464 167.395 212.303Z" fill="#FF8126"/>
<path d="M206.915 184.46C197.322 201.334 176.749 217.043 157.055 203.916C154.018 201.793 150.761 198.696 144.193 189.209C141.722 185.639 138.968 176.142 134.171 162.859C134.574 161.785 131.037 154.821 113.661 135.555C119.893 139.284 129.095 143.87 136.723 152.329C138.381 154.858 145.344 158.787 149.467 159.045C151.784 158.02 156.373 155.198 153.551 148.086C152.679 145.322 151.844 143.796 147.912 139.104C149.218 139.584 152.447 140.98 154.919 142.726C154.108 137.54 151.273 125.99 146.423 121.276C142.214 117.024 132.944 106.662 129.532 99.2289C131.435 101.892 135.688 106.884 137.48 105.553C136.696 103.301 133.946 96.7395 129.216 88.508C131.227 90.5997 135.667 95.8268 137.337 100.001C139.415 103.689 145.021 112.67 150.813 119.092C152.157 119.891 155.3 120.086 157.119 114.47C157.412 116.454 159.01 121.711 163.059 126.864C164.756 129.713 169.221 135.438 173.509 135.547C174.402 136.399 177.076 138.508 180.633 140.129C181.85 140.925 184.366 141.945 184.698 139.658C184.532 138.506 181.503 135.268 178.08 131.534C180.082 132.095 186.428 133.143 192.415 139.089C193.715 139.775 213.307 169.802 206.915 184.46Z" fill="#FFA928"/>
<path d="M113.952 108.87C114.161 113.697 119.835 116.635 122.645 117.501C112.547 117.516 106.537 111.027 108.882 110.318C110.757 109.751 110.34 104.388 109.897 101.778C111.161 102.131 113.742 104.043 113.952 108.87Z" fill="#FF8126"/>
<path d="M143.43 77.2086C145.221 72.7216 141.255 67.7121 139.048 65.7682C148.262 69.9021 151.076 78.2867 148.647 77.9701C146.704 77.7168 144.882 82.7779 144.214 85.3402C143.206 84.4992 141.639 81.6956 143.43 77.2086Z" fill="#FF8126"/>
<path d="M116.599 110.266C116.809 115.092 122.483 118.031 125.293 118.897C115.195 118.912 109.185 112.423 111.53 111.714C113.405 111.147 112.988 105.784 112.545 103.173C113.809 103.526 116.39 105.439 116.599 110.266Z" fill="#FF8126" fill-opacity="0.2"/>
<path d="M146.078 78.6042C147.869 74.1173 143.903 69.1077 141.696 67.1638C150.91 71.2977 153.724 79.6824 151.295 79.3657C149.352 79.1124 147.53 84.1736 146.862 86.7358C145.854 85.8948 144.287 83.0912 146.078 78.6042Z" fill="#FF8126" fill-opacity="0.2"/>
<path d="M31.9171 220.623C27.0845 217.215 24.7528 211.666 25.6383 198.237C25.2163 197.654 24.2052 195.892 23.537 193.509C22.9363 191.499 23.3718 185.285 22.9986 183.691C22.6254 182.097 22.0406 178.222 22.6869 175.471C23.3827 172.95 23.8674 165.858 20.2388 157.66C21.9553 159.172 25.3995 163.501 25.4445 168.716C25.4236 171.011 25.2974 176.09 24.9598 178.046C25.0553 180.493 26.2418 186.171 30.2231 189.308C30.83 190.024 32.3001 191.184 33.325 190.099C33.5049 188.24 33.3549 183.334 31.3152 178.589C32.0069 178.949 33.8288 181.075 35.5829 186.697C35.9348 186.635 36.3852 185.608 35.3714 181.993C34.3124 177.823 32.0682 168.321 31.5633 163.677C30.8203 158.79 30.1093 147.514 33.209 141.505C32.8909 146.69 32.6153 158.818 34.0578 165.857L35.2262 169.628C35.7685 169.587 36.9481 169.212 37.3288 168.041C37.6323 166.886 38.1076 163.946 37.5806 161.436C38.2865 162.899 39.599 166.341 39.2023 168.402L39.1221 172.855C39.1651 174.062 39.5448 177.522 40.7199 181.712C41.028 181.625 41.3191 181.452 41.5289 181.042C41.6821 180.666 41.81 179.279 41.0957 176.732C41.7176 177.37 43.1574 179.344 43.9408 182.137L46.2162 190.25C46.3932 191.012 47.0454 192.653 48.2386 193.116C47.8571 191.23 47.4029 187.214 48.6382 186.247C48.8172 188.597 49.5125 193.867 50.8609 196.147C52.0381 198.106 54.3197 203.108 54.0291 207.443C54.5864 210.351 54.03 216.924 47.3467 219.951C44.8333 221.652 38.2287 224.17 31.9171 220.623Z" fill="#FF8126" fill-opacity="0.3"/>
<path d="M31.3168 217.875C26.4842 214.467 24.1525 208.918 25.0379 195.488C24.6159 194.905 23.6049 193.143 22.9367 190.761C22.336 188.751 22.7714 182.537 22.3983 180.943C22.0251 179.349 21.4403 175.474 22.0865 172.723C22.7824 170.201 23.267 163.109 19.6384 154.911C21.3549 156.424 24.7991 160.752 24.8441 165.968C24.8233 168.263 24.6971 173.342 24.3594 175.297C24.455 177.744 25.6414 183.423 29.6227 186.559C30.2297 187.275 31.6998 188.436 32.7247 187.351C32.9046 185.491 32.7545 180.586 30.7148 175.841C31.4065 176.201 33.2284 178.326 34.9826 183.948C35.3345 183.887 35.7848 182.859 34.771 179.245C33.712 175.074 31.4678 165.572 30.9629 160.929C30.22 156.042 29.5089 144.766 32.6087 138.757C32.2905 143.941 32.0149 156.07 33.4575 163.109L34.6259 166.88C35.1681 166.838 36.3478 166.463 36.7285 165.293C37.032 164.137 37.5072 161.198 36.9803 158.687C37.6861 160.151 38.9987 163.593 38.6019 165.654L38.5217 170.107C38.5647 171.313 38.9445 174.773 40.1196 178.963C40.4277 178.877 40.7187 178.704 40.9286 178.293C41.0818 177.918 41.2096 176.531 40.4953 173.984C41.1173 174.622 42.5571 176.596 43.3405 179.389L45.6159 187.501C45.7928 188.264 46.4451 189.905 47.6383 190.368C47.2568 188.481 46.8026 184.466 48.0378 183.499C48.2169 185.849 48.9121 191.118 50.2606 193.399C51.4377 195.358 53.7194 200.359 53.4288 204.694C53.986 207.603 53.4297 214.176 46.7464 217.202C44.233 218.904 37.6283 221.421 31.3168 217.875Z" fill="#FF8126"/>
<path d="M49.3605 214.166C43.5112 218.665 33.8958 220.915 28.9293 213.411C28.1782 212.22 27.4932 210.654 26.5903 206.362C26.2504 204.746 26.6854 201.012 26.9624 195.65C27.262 195.333 27.049 192.371 23.8003 183.059C25.4342 185.284 27.9929 188.26 29.4192 192.349C29.6272 193.479 31.0817 195.388 32.4886 196.086C33.4518 196.069 35.892 196.151 35.9513 193.242C36.0533 192.145 35.9657 191.575 35.2795 189.352C35.6663 189.712 36.5921 190.677 37.2012 191.654C37.6813 189.717 38.3905 185.251 37.3858 182.884C36.5377 180.774 34.8166 175.776 34.7169 172.669C34.9911 173.882 35.7456 176.259 36.5698 176.056C36.6271 175.152 36.6306 172.447 36.1864 168.865C36.5828 169.894 37.3681 172.381 37.3379 174.09C37.5227 175.688 38.1631 179.662 39.2461 182.766C39.5993 183.244 40.6722 183.776 42.1373 182.076C41.9475 182.815 41.7327 184.892 42.392 187.295C42.5665 188.544 43.2872 191.208 44.7738 191.878C44.9611 192.308 45.5876 193.442 46.595 194.534C46.9041 194.992 47.6355 195.721 48.0888 194.968C48.2004 194.54 47.6165 192.959 46.9673 191.146C47.5863 191.638 49.6557 192.94 50.8769 195.907C51.2316 196.338 53.761 209.971 49.3605 214.166Z" fill="#FFA928"/>
<path d="M46.8911 177.769C48.1803 176.461 47.529 174.121 47.0422 173.114C49.6615 175.921 49.4118 179.274 48.6073 178.805C47.9636 178.43 46.579 179.935 45.9671 180.735C45.738 180.291 45.602 179.078 46.8911 177.769Z" fill="#FF8126"/>
<path d="M47.3933 178.829C48.6825 177.521 48.0312 175.181 47.5444 174.174C50.1637 176.981 49.914 180.334 49.1095 179.865C48.4658 179.49 47.0812 180.995 46.4693 181.795C46.2402 181.351 46.1042 180.138 47.3933 178.829Z" fill="#FF8126" fill-opacity="0.2"/>
<path d="M18.0506 168.874C19.3397 167.566 18.6884 165.226 18.2016 164.219C20.8209 167.026 20.5712 170.379 19.7667 169.91C19.1231 169.535 17.7384 171.04 17.1266 171.839C16.8974 171.396 16.7615 170.183 18.0506 168.874Z" fill="#FF8126"/>
<path d="M18.6826 169.644C19.9718 168.335 19.3205 165.995 18.8337 164.989C21.453 167.796 21.2033 171.149 20.3988 170.68C19.7552 170.305 18.3705 171.809 17.7586 172.609C17.5295 172.166 17.3935 170.952 18.6826 169.644Z" fill="#FF8126" fill-opacity="0.2"/>
<path d="M150.244 355.894C140.083 352.854 132.954 344.747 126.803 321.403C125.753 320.652 123.029 318.232 120.535 314.562C118.367 311.486 115.565 300.669 114.022 298.172C112.479 295.674 109.275 289.417 108.805 284.37C108.551 279.685 105.332 267.348 94.4877 255.475C98.269 257.068 106.594 262.466 109.644 271.31C110.917 275.225 113.598 283.935 114.139 287.453C115.696 291.56 120.951 300.54 129.51 303.605C130.95 304.476 134.112 305.612 135.236 303.182C134.482 299.917 131.43 291.66 125.257 284.754C126.638 284.972 130.948 287.547 137.137 296.109C137.7 295.803 137.88 293.799 134.095 288.23C129.917 281.741 120.683 266.861 117.177 259.252C113.127 251.365 105.49 232.594 107.336 220.608C109.75 229.606 116.196 250.39 122.662 261.538L126.799 267.284C127.698 266.905 129.49 265.594 129.47 263.387C129.327 261.249 128.46 255.979 126.132 252.01C128.167 254.096 132.362 259.202 132.862 262.933L135.264 270.552C136.025 272.579 138.644 278.247 143.031 284.702C143.505 284.379 143.902 283.919 144.024 283.101C144.071 282.376 143.498 279.944 140.831 276.02C142.252 276.75 145.826 279.286 148.751 283.59L157.245 296.089C157.981 297.285 160.026 299.704 162.319 299.811C160.595 296.82 157.533 290.25 159.083 287.902C160.727 291.796 164.913 300.361 168.506 303.47C171.625 306.13 178.357 313.336 180.334 320.874C182.94 325.502 185.741 336.997 176.1 345.954C172.796 350.282 162.999 358.328 150.244 355.894Z" fill="#FF8126" fill-opacity="0.3"/>
<path d="M147.656 351.563C137.495 348.523 130.366 340.415 124.215 317.071C123.165 316.32 120.441 313.9 117.947 310.23C115.779 307.154 112.977 296.338 111.434 293.84C109.891 291.342 106.687 285.085 106.217 280.038C105.964 275.354 102.744 263.016 91.8998 251.143C95.6811 252.736 104.006 258.134 107.056 266.979C108.329 270.893 111.01 279.603 111.551 283.121C113.108 287.228 118.363 296.208 126.922 299.273C128.362 300.144 131.524 301.28 132.649 298.851C131.894 295.585 128.843 287.328 122.669 280.422C124.05 280.64 128.36 283.216 134.549 291.777C135.112 291.471 135.292 289.468 131.507 283.898C127.329 277.41 118.095 262.529 114.589 254.92C110.54 247.033 102.902 228.262 104.748 216.276C107.162 225.274 113.608 246.058 120.074 257.206L124.211 262.953C125.11 262.573 126.902 261.263 126.882 259.056C126.739 256.917 125.872 251.647 123.544 247.678C125.579 249.764 129.774 254.87 130.274 258.601L132.676 266.22C133.437 268.247 136.056 273.915 140.443 280.37C140.917 280.048 141.314 279.588 141.437 278.77C141.483 278.044 140.91 275.612 138.243 271.688C139.664 272.418 143.238 274.955 146.163 279.258L154.657 291.757C155.393 292.953 157.438 295.372 159.731 295.479C158.007 292.488 154.945 285.918 156.495 283.57C158.139 287.464 162.325 296.029 165.918 299.138C169.037 301.798 175.769 309.004 177.746 316.542C180.352 321.17 183.153 332.666 173.513 341.623C170.208 345.95 160.411 353.996 147.656 351.563Z" fill="#FF8126"/>
<path d="M176.227 334.968C168.844 345.954 153.775 355.262 141.051 345.333C139.094 343.735 137.037 341.463 133.054 334.678C131.555 332.125 130.166 325.526 127.58 316.249C127.909 315.54 125.859 310.624 115.024 296.639C119.072 299.492 125.12 303.094 129.876 309.234C130.875 311.038 134.436 313.455 137.227 313.84C138.855 313.261 143.052 312.01 141.495 307.03C141.043 305.106 140.569 304.186 138.134 300.796C138.997 301.189 141.122 302.302 142.714 303.616C142.427 300.048 141.087 292.05 138.029 288.597C135.383 285.491 129.607 277.973 127.666 272.745C128.824 274.653 131.462 278.265 132.749 277.45C132.33 275.879 130.794 271.277 127.997 265.439C129.258 266.964 132.011 270.744 132.934 273.668C134.159 276.281 137.514 282.674 141.125 287.335C141.999 287.947 144.126 288.24 145.649 284.514C145.747 285.878 146.566 289.534 149.057 293.244C150.066 295.268 152.81 299.388 155.721 299.681C156.284 300.305 157.996 301.875 160.332 303.159C161.119 303.762 162.778 304.584 163.12 303.046C163.066 302.254 161.171 299.897 159.033 297.184C160.367 297.668 164.628 298.703 168.396 303.052C169.246 303.584 181.32 325.327 176.227 334.968Z" fill="#FFA928"/>
<path d="M151.277 274.48C152.724 271.52 150.282 267.911 148.88 266.477C154.935 269.757 156.422 275.602 154.786 275.263C153.478 274.992 151.981 278.341 151.396 280.049C150.754 279.426 149.831 277.44 151.277 274.48Z" fill="#FF8126"/>
<path d="M152.736 275.996C154.183 273.036 151.741 269.428 150.339 267.993C156.394 271.274 157.881 277.118 156.245 276.779C154.937 276.508 153.44 279.857 152.855 281.565C152.213 280.942 151.29 278.956 152.736 275.996Z" fill="#FF8126" fill-opacity="0.2"/>
<path d="M97.1596 275.794C98.606 272.834 96.1643 269.226 94.7626 267.791C100.817 271.072 102.304 276.916 100.669 276.577C99.3602 276.306 97.8634 279.655 97.2786 281.363C96.6363 280.74 95.7132 278.754 97.1596 275.794Z" fill="#FF8126"/>
<path d="M98.673 276.742C100.119 273.783 97.6777 270.174 96.276 268.74C102.331 272.02 103.818 277.865 102.182 277.526C100.874 277.255 99.3769 280.604 98.792 282.312C98.1497 281.689 97.2266 279.702 98.673 276.742Z" fill="#FF8126" fill-opacity="0.2"/>
</svg>
