<svg width="286" height="108" viewBox="0 0 286 108" fill="none" xmlns="http://www.w3.org/2000/svg">
<path opacity="0.11" d="M230.367 35.731C227.634 35.731 224.949 35.9286 222.322 36.3146C214.913 15.1922 194.447 0 170.333 0C142.814 0 120.018 19.7857 115.996 45.605C107.038 39.3925 96.0975 35.7404 84.2814 35.7404C62.3426 35.7404 43.406 48.3159 34.592 66.5014C33.5817 66.4073 32.5616 66.3508 31.5321 66.3508C14.1158 66.3508 0 80.1594 0 97.1966V101.903C0 105.019 2.57876 107.541 5.76373 107.541H275.274C280.826 107.541 285.329 103.136 285.329 97.7048V89.4969C285.329 59.7995 260.725 35.731 230.367 35.731Z" fill="#EBF6F7"/>
</svg>
