<svg width="104" height="96" viewBox="0 0 104 96" fill="none" xmlns="http://www.w3.org/2000/svg">
<path d="M0.650442 95.5882C-3.18739 69.8941 10.907 28.8039 18.103 25.2353C16.1846 42.3647 23.7006 52.7647 27.6983 55.8235C39.2118 16.6706 46.8875 6.37255 56.482 0.764709C49.2861 28.2941 62.3648 39 69.5607 42.0588C78.7597 30.328 82.551 21.8776 80.734 19.4035C80.6458 19.3073 80.5572 19.212 80.4685 19.1176C80.5674 19.2017 80.6559 19.2971 80.734 19.4035C97.8172 38.0248 105.384 91.5308 103.793 95.5882H0.650442Z" fill="#FF8126"/>
<path d="M0.650442 95.5884C-3.18739 77.3539 10.907 48.1931 18.103 45.6605C16.1846 57.8168 23.7006 65.1975 27.6983 67.3683C39.2118 39.5823 40.728 29.2152 50.3226 25.2354C43.1266 44.7724 62.3648 55.429 69.5607 57.5998C78.7597 49.2747 82.551 43.2776 80.734 41.5218C80.6458 41.4535 80.5573 41.3859 80.4685 41.3189C80.5674 41.3786 80.6559 41.4463 80.734 41.5218C97.8172 54.7369 105.384 92.7089 103.793 95.5884H0.650442Z" fill="#FFA928"/>
</svg>
