<svg width="328" height="708" viewBox="0 0 328 708" fill="none" xmlns="http://www.w3.org/2000/svg">
<rect width="140.584" height="328.468" transform="matrix(-1 0 0 1 151.095 189.854)" fill="#797C9C"/>
<path d="M85.18 41.387L156.35 150.856H15.6033L85.18 41.387Z" fill="#52546D"/>
<rect width="140.746" height="20.8513" transform="matrix(-1 0 0 1 156.35 150.856)" fill="#52546D"/>
<path d="M85.6928 168.833C87.8481 159.398 79.933 144.311 75.8919 143C76.9692 149.29 72.7485 153.109 70.5035 154.232C64.0378 139.855 59.7273 136.074 54.3392 134.015C58.3803 144.123 51.0356 148.054 46.9946 149.178C41.8287 144.87 39.6996 141.767 40.7199 140.859C40.7695 140.824 40.8192 140.789 40.8691 140.754C40.8135 140.785 40.7638 140.82 40.7199 140.859C31.1265 147.696 26.8773 167.343 27.7707 168.833H85.6928Z" fill="#FF8126"/>
<path d="M84.4026 168.833C86.4148 162.192 79.0253 151.573 75.2525 150.65C76.2583 155.077 72.3178 157.765 70.2218 158.556C64.1855 148.437 63.3906 144.661 58.3603 143.212C62.133 150.327 52.0467 154.208 48.274 154.998C43.4511 151.966 41.4633 149.782 42.416 149.143C42.4622 149.118 42.5087 149.094 42.5552 149.069C42.5033 149.091 42.4569 149.116 42.416 149.143C33.4595 153.956 29.4924 167.784 30.3265 168.833H84.4026Z" fill="#FFA928"/>
<rect width="161.606" height="21.6789" transform="matrix(-1 0 0 1 166.862 169.49)" fill="#616481"/>
<rect width="22.9928" height="19.7081" transform="matrix(-1 0 0 1 166.862 149.781)" fill="#616481"/>
<rect width="23.6497" height="19.7081" transform="matrix(-1 0 0 1 120.74 149.781)" fill="#616481"/>
<rect width="22.9928" height="19.7081" transform="matrix(-1 0 0 1 73.9609 149.781)" fill="#616481"/>
<rect width="22.9928" height="19.7081" transform="matrix(-1 0 0 1 27.8384 149.781)" fill="#616481"/>
<path d="M40.0718 313.358L140.583 371.826H40.0718V313.358Z" fill="#616481"/>
<path d="M40.0718 371.826H140.583V518.322H40.0718V371.826Z" fill="#616481"/>
<path d="M135.783 344.096H130.44C127.79 344.096 125.651 346.246 125.651 348.885V371.637H140.583V348.885C140.583 346.235 138.433 344.096 135.794 344.096H135.783Z" fill="#616481"/>
<path d="M76.0017 314.015H70.6585C68.0087 314.015 65.8693 316.166 65.8693 318.805V341.556H80.8018V318.805C80.8018 316.155 78.6515 314.015 76.0125 314.015H76.0017Z" fill="#616481"/>
<path d="M50.3816 299.563H45.0384C42.3886 299.563 40.2492 301.713 40.2492 304.352V327.104H55.1816V304.352C55.1816 301.702 53.0313 299.563 50.3924 299.563H50.3816Z" fill="#616481"/>
<path d="M106.221 330.439H100.878C98.2285 330.439 96.0891 332.589 96.0891 335.228V357.98H111.021V335.228C111.021 332.578 108.871 330.439 106.232 330.439H106.221Z" fill="#616481"/>
<path d="M103.814 375.959C99.6976 375.959 96.3527 379.304 96.3527 383.42V408.093H111.285V383.42C111.285 379.304 107.94 375.959 103.824 375.959H103.814Z" fill="#434559"/>
<path d="M70.0459 407.957C65.93 407.957 62.5852 411.302 62.5852 415.418V440.092H77.5176V415.418C77.5176 411.302 74.1727 407.957 70.0568 407.957H70.0459Z" fill="#434559"/>
<path d="M103.814 441.888C99.6976 441.888 96.3527 445.233 96.3527 449.349V474.023H111.285V449.349C111.285 445.233 107.94 441.888 103.824 441.888H103.814Z" fill="#434559"/>
<path d="M145.84 85.5503L145.903 86.6262C145.827 86.6591 145.938 87.0591 145.407 87.0575L145.84 85.5503Z" fill="#D7D3AD"/>
<path d="M146.153 69.8759C145.955 69.4614 145.325 69.5733 145.288 70.0294L144.845 75.5056C144.837 75.6054 144.863 75.7052 144.92 75.7885L146.845 78.6102C147.061 78.9272 147.557 78.849 147.661 78.4815L148.582 75.2199C148.611 75.1175 148.602 75.0086 148.556 74.9123L146.153 69.8759Z" fill="#84283F"/>
<path d="M150.033 82.8641C151.202 81.5031 151.106 79.4908 149.814 78.2415L149.728 78.1578C148.403 76.8761 146.267 76.8946 144.965 78.1989C144.835 78.329 144.837 78.5373 144.97 78.6645L149.726 83.2215L150.033 82.8641Z" fill="#84283F"/>
<path d="M141.726 71.8157C141.373 71.5162 140.843 71.8702 141 72.3014L142.873 77.479C142.907 77.5735 142.973 77.6538 143.059 77.7072L145.991 79.5153C146.32 79.7186 146.741 79.4487 146.683 79.0718L146.167 75.7255C146.151 75.6206 146.097 75.5248 146.015 75.4553L141.726 71.8157Z" fill="#84283F"/>
<path d="M137.13 77.9904C134.902 81.1678 136.975 84.9162 140.218 87.0992C143.461 89.2825 146.927 90.4204 149.156 87.243C151.384 84.0658 150.562 79.72 147.319 77.537C144.075 75.3537 139.359 74.813 137.13 77.9904Z" fill="#A62B4A"/>
<path d="M150.534 89.7084C153.69 89.4019 155.052 85.6309 152.796 83.4477L150.647 81.3684C149.57 80.3266 148.035 79.8777 146.551 80.1712L139.246 81.6166L147.641 89.9894L150.534 89.7084Z" fill="#A62B4A"/>
<path d="M149.025 89.1048C150.672 89.1362 151.859 87.5661 151.348 86.0314C151.081 85.2293 150.395 84.6294 149.551 84.4604L141.965 82.9423L146.549 89.0577L149.025 89.1048Z" fill="#84283F"/>
<path d="M146.677 92.9669C145.92 94.5844 143.629 94.7227 142.675 93.2084L140.123 89.1563L138.871 86.9705C137.218 85.8089 137.78 83.2742 139.776 82.889L139.997 82.8464L148.092 89.9422L146.677 92.9669Z" fill="#A62B4A"/>
<path d="M146.279 92.3116C146.016 93.0163 145.048 93.1304 144.623 92.5067C143.918 91.4739 143.435 90.3112 143.203 89.0898L142.035 82.9353L147.528 88.9555L146.279 92.3116Z" fill="#84283F"/>
<path d="M147.737 80.5262C148.882 79.1925 148.789 77.2211 147.523 75.997C146.141 74.6602 143.9 74.7222 142.597 76.1331L142.318 76.4354C142.171 76.5946 142.191 76.8422 142.362 76.9766L147.388 80.9323L147.737 80.5262Z" fill="#A62B4A"/>
<path d="M143.691 77.1995C143.351 77.5713 143.174 78.0606 143.202 78.5597C143.229 79.0588 143.457 79.5269 143.837 79.8609C144.216 80.1951 144.716 80.3677 145.225 80.3411C145.735 80.3143 146.212 80.0905 146.553 79.7186L145.122 78.459L143.691 77.1995Z" fill="#DA9834"/>
<path d="M148.245 79.9488C148.194 80.0614 148.06 80.113 147.945 80.0637C147.83 80.0145 147.778 79.8832 147.828 79.7704L148.245 79.9488ZM147.828 79.7704C148.086 79.1911 148.519 77.7924 147.43 76.5596L147.774 76.2679C149.043 77.7041 148.522 79.327 148.245 79.9488L147.828 79.7704Z" fill="#9E7371"/>
<path d="M148.738 85.6658L150.251 84.7558C149.892 84.5869 149.682 84.4754 149.457 84.4413L148.738 85.6658Z" fill="#D7D3AD"/>
<path d="M150.46 87.5147L151.388 86.2831C151.523 86.5595 151.403 87.2339 151.344 87.2813L150.46 87.5147Z" fill="#D7D3AD"/>
<path d="M125.449 66.6357C119.08 72.0744 119.158 78.1033 120.172 81.0883L113.599 82.1848C114.447 76.8239 108.39 74.4198 105.256 73.8879C109.856 69.1894 104.629 60.5392 102.886 58.7271C108.817 55.855 122.953 62.5656 125.449 66.6357Z" fill="#84283F"/>
<path fill-rule="evenodd" clip-rule="evenodd" d="M143.994 79.9841C144.234 80.159 144.512 80.2759 144.804 80.3271C144.886 80.2801 144.968 80.2247 145.049 80.1612C145.477 79.825 145.691 79.3911 145.528 79.192C145.365 78.993 144.887 79.1042 144.459 79.4404C144.242 79.611 144.08 79.8065 143.994 79.9841Z" fill="#0E3335"/>
<path d="M145.001 90.7159L143.716 90.8289C143.806 90.9527 143.905 91.4177 144.2 91.8082L145.001 90.7159Z" fill="#D7D3AD"/>
<path d="M146.138 91.7578L145.535 92.8897C145.455 92.8693 145.256 93.0295 144.84 92.7066L146.138 91.7578Z" fill="#D7D3AD"/>
<path d="M145.616 79.9217C145.538 79.8113 145.668 79.5904 145.781 79.5141C145.894 79.4376 146.048 79.4652 146.126 79.5756C146.204 79.686 146.176 79.8375 146.063 79.914C145.951 79.9905 145.694 80.0321 145.616 79.9217Z" fill="#C6C193" fill-opacity="0.3"/>
<ellipse cx="8.19546" cy="33.9869" rx="8.19546" ry="33.9869" transform="matrix(-0.616986 0.786974 0.786974 0.616986 89.0605 92.6279)" fill="black" fill-opacity="0.2"/>
<path d="M110.543 57.0818C104.836 67.021 107.804 74.7971 110.543 78.2041L102.507 82.6097C101.062 75.2787 92.0332 74.9145 87.6991 75.6489C91.4552 67.472 80.5359 58.6385 77.4058 57.0818C83.7623 50.6672 105.358 52.9421 110.543 57.0818Z" fill="#A62B4A"/>
<path d="M105.301 58.058C101.687 61.1409 103.193 71.8946 104.397 76.886C103.335 77.6575 101.465 79.1428 101.088 79.9502C98.649 76.3388 90.9603 75.658 87.4217 75.915C90.2224 68.1636 81.9984 59.9298 77.4057 56.9569C91.4098 54.1383 101.837 56.5165 105.301 58.058Z" fill="#DA9834"/>
<path d="M145.312 80.0344C145.079 80.0939 144.47 80.0764 143.903 79.5311" stroke="#C6C193" stroke-opacity="0.3" stroke-width="0.340056" stroke-linecap="round"/>
<path d="M152.229 83.0579C151.882 82.658 150.422 80.9054 148.733 80.4243L152.229 83.0579Z" fill="#A67978"/>
<path d="M152.229 83.0579C151.882 82.658 150.422 80.9054 148.733 80.4243" stroke="#A27D7B" stroke-width="0.340056"/>
<path d="M126.172 85.0522C127.135 80.0852 124.268 75.1694 119.411 73.4612L118.617 73.182C115.293 72.0127 111.605 72.4083 108.617 74.2545L102.856 77.8148C91.6107 84.7641 87.722 99.0238 93.9308 110.542L94.3364 111.294C96.8477 115.953 102.533 118.016 107.536 116.085L114.142 113.536C118.124 111.999 121.3 108.948 122.946 105.078C124.954 100.356 125.987 95.2921 125.987 90.1772V86.971C125.987 86.3272 126.049 85.6847 126.172 85.0522Z" fill="#A62B4A"/>
<path d="M125.484 86.0865C134.284 78.7005 136.183 84.5223 138.344 86.0865L140.12 87.6836L142.276 75.0895C130.762 66.2853 112.977 71.6045 107.267 75.0895L125.484 86.0865Z" fill="#A62B4A"/>
<path d="M146.557 77.6061C147.081 77.9861 146.886 79.0969 146.422 79.6092" stroke="#84283F" stroke-width="0.510083"/>
<path d="M152.102 84.1996C152.207 83.9314 152.069 83.6309 151.796 83.5288C151.522 83.4264 151.215 83.5611 151.111 83.8292C151.006 84.0976 151.144 84.3978 151.418 84.5002L151.913 84.6853L152.102 84.1996Z" fill="#84283F"/>
<path d="M140.763 68.1611C140.474 67.8016 139.886 68.0513 139.956 68.5038L140.798 73.9348C140.813 74.0339 140.862 74.1249 140.937 74.1933L143.467 76.5112C143.752 76.7716 144.217 76.5845 144.233 76.2036L144.371 72.822C144.375 72.716 144.341 72.612 144.274 72.5286L140.763 68.1611Z" fill="#A62B4A"/>
<path d="M136.903 71.0385C136.49 70.8258 136.057 71.2885 136.309 71.6737L139.338 76.2968C139.393 76.3812 139.475 76.4449 139.572 76.4775L142.847 77.5835C143.215 77.7077 143.562 77.3511 143.418 76.9971L142.137 73.854C142.097 73.7555 142.022 73.6741 141.926 73.6248L136.903 71.0385Z" fill="#A62B4A"/>
<path d="M135.177 74.1686C134.734 74.0514 134.398 74.6041 134.716 74.9263L137.733 77.9873C137.802 78.057 137.893 78.1006 137.992 78.1116L140.823 78.4273C141.204 78.4697 141.478 78.0428 141.274 77.7255L139.858 75.5245C139.8 75.4355 139.712 75.3715 139.609 75.3442L135.177 74.1686Z" fill="#A62B4A"/>
<path d="M140.419 68.4403C140.338 68.346 140.351 68.2055 140.447 68.1266C140.544 68.0476 140.687 68.0602 140.768 68.1547L140.419 68.4403ZM140.768 68.1547L144.379 72.3888L144.03 72.6744L140.419 68.4403L140.768 68.1547ZM144.537 72.8191L144.531 75.0343L144.076 75.033L144.082 72.8178L144.537 72.8191ZM144.379 72.3888C144.482 72.5095 144.538 72.6617 144.537 72.8191L144.082 72.8178C144.083 72.7655 144.064 72.7147 144.03 72.6744L144.379 72.3888Z" fill="#9E7371"/>
<path d="M137.898 72.0568C137.786 72.001 137.742 71.8669 137.799 71.7573C137.856 71.6476 137.993 71.6039 138.105 71.6599L137.898 72.0568ZM140.968 73.3389L141.072 73.1404L141.163 73.1861L141.189 73.2839L140.968 73.3389ZM138.105 71.6599L141.072 73.1404L140.865 73.5374L137.898 72.0568L138.105 71.6599ZM141.189 73.2839L141.639 75.0106L141.198 75.1208L140.748 73.3939L141.189 73.2839Z" fill="#843B57"/>
<path d="M128.515 111.774C129.189 109.719 124.178 104.743 121.588 102.511L113.913 114.25L120.933 122.045L127.018 123.146L124.49 120.486L127.018 121.22L119.997 115.717C122.556 115.259 127.841 113.828 128.515 111.774Z" fill="#84283F"/>
<path d="M125.016 98.17C124.682 98.024 125.119 93.1834 125.379 90.7811L120.452 92.156C120.856 94.7834 121.731 100.067 121.998 100.184C122.265 100.3 125.577 100.964 127.2 101.281C127.268 101.572 127.753 102.191 127.767 102.511C127.781 102.831 128.223 103.428 128.616 103.665C128.649 104.104 128.916 105.093 128.797 105.354C128.678 105.616 128.728 106.926 128.567 107.28L130.105 105.537L130.508 103.903C130.603 104.207 130.812 104.86 130.886 105.049C130.96 105.238 130.855 106.536 130.508 107.005C130.867 106.802 131.605 106.271 131.792 105.721C131.908 105.381 131.908 104.124 131.956 103.36C131.506 102.444 130.505 100.57 130.105 100.395L125.016 98.17Z" fill="#84283F"/>
<path d="M148.173 136.352C108.633 134.004 94.1304 114.647 91.8215 105.262C98.2804 101.838 111.966 98.2004 115.036 111.04C118.107 123.879 138.407 133.264 148.173 136.352Z" fill="#A62B4A"/>
<path d="M109.326 112.507C113.744 126.374 136.94 134.243 147.986 136.444C128.515 130.354 119.092 116.634 117.002 111.407L109.326 112.507Z" fill="#DA9834"/>
<path d="M118.499 81.9676C124.866 76.689 133.944 79.5832 136.846 81.1422C136.547 81.8025 136.94 83.9852 137.782 85.9112C134.562 84.5172 129.358 83.5267 126.268 85.9112C127.467 96.6963 124.396 108.105 116.533 112.691L115.316 113.975L113.538 112.691H109.513C100.62 102.144 114.848 84.9941 118.499 81.9676Z" fill="#DA9834"/>
<path d="M139.031 86.8445L139.18 86.6763L139.208 86.7007L139.228 86.7329L139.031 86.8445ZM137.007 81.0674C137.044 80.9499 137.171 80.8842 137.291 80.9205C137.411 80.957 137.478 81.0818 137.441 81.1993L137.007 81.0674ZM140.831 90.3392L138.834 86.956L139.228 86.7329L141.225 90.1161L140.831 90.3392ZM138.882 87.0125C137.02 85.427 136.366 83.0922 137.007 81.0674L137.441 81.1993C136.857 83.0466 137.447 85.2003 139.18 86.6763L138.882 87.0125Z" fill="#84283F"/>
<path d="M117.28 91.1213C116.828 91.1213 114.835 85.447 113.895 82.6099L109.045 86.5892C110.85 89.3528 114.55 94.8796 114.911 94.8796C115.272 94.8796 119.348 93.9953 121.341 93.5531C121.566 93.8479 122.063 94.526 122.243 94.8796C122.424 95.2334 123.597 95.4691 124.161 95.5429C124.424 96.0218 124.95 97.0682 124.95 97.422V99.3011L126.417 96.9798V94.8796C126.68 95.1744 127.252 95.8081 127.432 95.9851C127.613 96.1619 127.357 97.6061 127.207 98.3063C127.507 97.9009 128.177 97.002 128.448 96.6481C128.718 96.2945 128.109 94.4374 127.771 93.5531C126.793 92.7426 124.702 91.1213 124.161 91.1213H117.28Z" fill="#A62B4A"/>
<path d="M119.248 108.197C118.343 107.494 115.466 105.886 111.198 105.079" stroke="#D97A36" stroke-width="0.629955"/>
<path d="M114.661 110.948C117.38 104.738 107.874 96.031 106.237 94.257C103.078 98.3507 96.754 107.741 96.0122 107.617C95.0849 107.461 90.3806 110.377 89.9826 111.791C89.6641 112.923 91.2517 121.286 91.7274 125.347L93.0089 121.741L94.6186 127.408L95.9868 122.545L98.2556 124.49L97.6784 116.533C98.3112 116.355 99.8187 116.21 103.428 117.185C107.94 118.403 111.943 117.159 114.661 110.948Z" fill="#A62B4A"/>
<path d="M114.1 111.59C112.789 114.983 107.641 120.523 98.2799 116.267" stroke="#84283F" stroke-width="0.629955"/>
<path d="M95.0968 113.333C95.2216 114.189 96.1265 116.047 98.373 116.267" stroke="#84283F" stroke-width="0.629955"/>
<path d="M99.3101 106.455C97.2132 106.308 94.2865 108.136 93.0383 109.022C89.8931 105.134 90.1365 93.2482 93.6936 87.7456C92.4767 99.026 97.0635 104.192 99.3101 106.455Z" fill="#84283F"/>
<path d="M120.746 131.124C111.46 127.456 105.332 120.731 103.428 117.826L97.4373 116.267C103.278 123.678 115.41 129.26 120.746 131.124Z" fill="#84283F"/>
<path d="M105.394 58.1232C102.149 59.2237 94.367 63.9743 89.1999 74.1725" stroke="#D97A36" stroke-width="0.629955"/>
<path d="M110.636 89.3964L110.601 89.1235L110.768 89.1029L110.865 89.2376L110.636 89.3964ZM106.179 87.7893C106.103 87.657 106.151 87.4892 106.286 87.4144C106.421 87.3397 106.592 87.3863 106.668 87.5186L106.179 87.7893ZM121.382 93.7886C120.304 94.0795 118.676 94.5023 117.298 94.8249C116.61 94.9862 115.98 95.1235 115.51 95.2068C115.276 95.2481 115.075 95.2776 114.923 95.289C114.849 95.2947 114.774 95.2969 114.71 95.2908C114.678 95.2877 114.637 95.2817 114.595 95.2673C114.558 95.2547 114.481 95.2226 114.428 95.1434L114.895 94.8381C114.85 94.7727 114.792 94.7518 114.78 94.7479C114.763 94.742 114.755 94.7422 114.764 94.7431C114.78 94.7446 114.817 94.7452 114.88 94.7404C115.003 94.7312 115.182 94.7057 115.41 94.6654C115.864 94.5848 116.482 94.4504 117.168 94.2899C118.537 93.9691 120.158 93.5481 121.233 93.2582L121.382 93.7886ZM114.428 95.1434C114.281 94.9275 111.689 91.3319 110.407 89.5553L110.865 89.2376C112.142 91.0072 114.742 94.6138 114.895 94.8381L114.428 95.1434ZM110.671 89.6693C110.138 89.7346 109.288 89.7196 108.439 89.467C107.587 89.2137 106.712 88.7132 106.179 87.7893L106.668 87.5186C107.109 88.2821 107.84 88.7139 108.602 88.9406C109.366 89.1679 110.136 89.1803 110.601 89.1235L110.671 89.6693Z" fill="#84283F"/>
<path d="M116.253 89.4881L114.849 85.7279C115.067 85.2083 115.373 83.8937 114.849 82.7932" stroke="#BD9896" stroke-width="0.629955"/>
<path d="M131.043 83.8019C130.824 83.1599 130.406 81.5825 130.481 80.4086" stroke="#D97A36" stroke-width="0.629955"/>
<path d="M125.707 80.3171C125.707 81.2036 125.95 83.2519 126.924 84.3524" stroke="#D97A36" stroke-width="0.629955"/>
<path d="M125.988 88.6625C124.833 87.7454 121.457 85.8745 117.189 85.7278" stroke="#D97A36" stroke-width="0.629955"/>
<path d="M124.209 102.419C123.149 101.441 120.39 99.4661 117.844 99.3927" stroke="#D97A36" stroke-width="0.629955"/>
<path d="M118.78 115.809C117.875 115.687 115.485 115.772 113.163 117.093" stroke="#D97A36" stroke-width="0.629955"/>
<path d="M122.524 120.578C121.838 120.394 120.109 120.229 118.686 121.036" stroke="#D97A36" stroke-width="0.629955"/>
<path d="M126.456 125.805C125.801 125.775 124.397 125.897 124.022 126.631" stroke="#D97A36" stroke-width="0.629955"/>
<path d="M136.118 72.0905L138.812 75.6" stroke="#84283F" stroke-width="0.629955"/>
<path d="M149.979 92.0751L145.966 86.4288L147.587 94.9729L143.691 98.5608L142.612 101.75L136.191 107.094H140.591L139.655 108.931L137.221 113.824L141.62 112.745L142.413 116.828L143.149 123.503L144.182 120.565L146.871 118.188L148.009 122.009L149.552 122.874L149.436 126.658L152.199 128.684L152.271 126.332L153.918 123.822L154.968 127.129L155.649 128.787L158.514 130.919L158.596 128.26L159.486 126.546L160.772 128.938L163.386 129.015L165.791 129.087L169.042 132.254L169.137 129.186L167.768 126.074L168.648 121.289L170.438 124.311L173.518 126.244L176.864 126.344L173.6 123.585L173.01 118.962L168.878 113.824L168.96 111.165L171.574 111.242L173.935 112.745L171.751 105.515L165.587 101.75L165.058 98.5608L171.202 99.5616L175.802 99.6977L169.376 97.665L164.512 92.5052L156.043 92.2546L149.979 92.0751Z" fill="#D97A36"/>
<path d="M150.041 92.0114L146.029 86.365L147.649 94.9091L143.753 98.497L142.674 101.686L136.253 107.03H140.653L139.717 108.867L137.283 113.76L141.683 112.681L142.475 116.764L143.211 123.439L144.244 120.501L146.933 118.124L148.071 121.945L149.614 122.81L149.498 126.594L152.261 128.621L152.333 126.268L153.981 123.758L155.03 127.065L155.711 128.723L158.576 130.855L158.658 128.196L159.548 126.482L160.834 128.874L163.448 128.952L165.853 129.023L169.104 132.19L169.199 129.122L167.83 126.01L168.71 121.225L170.5 124.247L173.58 126.181L176.926 126.28L173.662 123.522L173.072 118.898L168.94 113.76L169.022 111.101L171.636 111.178L173.997 112.681L171.813 105.451L165.649 101.686L165.12 98.497L171.264 99.4977L175.864 99.6338L169.438 97.6012L164.574 92.4413L156.105 92.1908L150.041 92.0114Z" fill="#D97A36"/>
<path d="M152.479 93.9818L146.207 87.1952L150.326 96.9165L145.739 99.7595L144.429 106.821L149.015 105.262L147.05 109.022V113.699L151.356 110.581L152.479 113.699L154.538 118.193L157.066 122.137V118.193V111.774L160.623 114.158H162.308L165.116 119.844L165.958 115.534V111.774L162.308 106.821H165.116L167.175 108.105L165.116 104.253H160.623V99.1175L159.593 96.0911L152.479 93.9818Z" fill="#DA9834"/>
<path d="M160.529 108.698L159.754 106.201L157.562 106.853L156.921 104.785L153.6 105.774L154.241 107.843L152.019 108.504L154.265 110.563L160.529 108.698Z" fill="#D7D3AD"/>
<path d="M157.804 99.9138L155.63 97.8881L149.309 99.7707L150.068 102.218L152.29 101.556L152.919 103.583L156.24 102.594L155.612 100.567L157.804 99.9138Z" fill="#D7D3AD"/>
<rect width="18.9407" height="9.5744" rx="1.0407" transform="matrix(-1 0 0 1 140.583 221.01)" fill="#52546D"/>
<rect width="18.9407" height="9.5744" rx="1.0407" transform="matrix(-1 0 0 1 53.2114 271.315)" fill="#52546D"/>
<rect width="18.9407" height="9.5744" rx="1.0407" transform="matrix(-1 0 0 1 128.097 209.563)" fill="#52546D"/>
<line y1="-0.889114" x2="42.7145" y2="-0.889114" transform="matrix(0 1 1 0 86.0581 0)" stroke="#52546D" stroke-width="1.77823"/>
<path d="M55.8277 14.2445L85.1685 1.79688V16.0227L55.8277 14.2445Z" fill="#616481"/>
<rect width="4.59855" height="4.59855" transform="matrix(-1 0 0 1 87.3721 41.387)" fill="#52546D"/>
<path d="M786.773 637.972C803.805 653.039 856.166 683.172 929.351 683.172H931V717.323H153L154.648 658.563C182.394 666.096 237.063 674.132 266.733 678.149C289.809 680.158 310.413 674.132 369.752 637.972C453.815 582.728 681.281 564.146 786.773 637.972Z" fill="#5B847E"/>
<path d="M195 470.323L21.9995 470.826V534.323H138.403L195 470.323Z" fill="#8F93BA"/>
<path d="M96.2122 534.323C94.9575 525.923 99.5653 512.489 101.918 511.323C101.291 516.923 103.748 520.323 105.055 521.323C108.819 508.523 111.328 505.156 114.465 503.323C112.112 512.323 116.388 515.823 118.741 516.823C121.748 512.987 122.987 510.225 122.393 509.416C122.364 509.384 122.336 509.353 122.307 509.323C122.339 509.35 122.368 509.381 122.393 509.416C127.978 515.504 130.452 532.996 129.932 534.323H96.2122Z" fill="#FF8126"/>
<path d="M96.2122 534.323C94.9575 528.361 99.5653 518.828 101.918 518C101.291 521.974 103.748 524.387 105.055 525.097C108.819 516.013 109.314 512.624 112.451 511.323C110.099 517.71 116.388 521.193 118.741 521.903C121.748 519.181 122.987 517.221 122.393 516.647C122.364 516.625 122.336 516.602 122.307 516.581C122.339 516.6 122.368 516.622 122.393 516.647C127.978 520.967 130.452 533.381 129.932 534.323H96.2122Z" fill="#FFA928"/>
<path d="M130 534.19L195 471.323V708.323H130V534.19Z" fill="#797C9C"/>
<rect x="21.9995" y="534.323" width="108" height="175" fill="#797C9C"/>
<path d="M28.9995 533.323H138.823L194.999 470.323V499.323L167.255 560.823L138.823 631.323V550.323L28.9995 533.323Z" fill="#51536C"/>
<path d="M94.2591 565.323C99.4837 565.323 103.73 569.568 103.73 574.793V606.113H84.7749V574.793C84.7749 569.568 89.0207 565.323 94.2453 565.323H94.2591Z" fill="#434559"/>
<path d="M55.4837 646.323C60.7083 646.323 64.9542 650.568 64.9542 655.793V687.113H45.9995V655.793C45.9995 650.568 50.2453 646.323 55.4699 646.323H55.4837Z" fill="#434559"/>
<path d="M230.489 674.022L226.305 676.496L230.86 675.758L233.289 678.323L234.428 675.93L238.849 677.045V675.182H242.262C242.262 675.182 238.721 674.356 238.721 670.706C238.721 667.057 238.609 654.662 240.183 653.27C241.756 651.878 248.222 646.833 248.222 646.833L247.669 645.165C247.669 645.165 240.432 650.783 239.448 649.688C238.464 648.593 248.33 637.842 248.33 637.842L262.228 628.073L260.2 628.747L253.006 632.076L254.361 629.707L252.366 632.076C252.366 632.076 247.538 635.352 246.517 635.497C245.496 635.642 242.791 640.387 241.062 640.269C239.334 640.151 239.452 628.073 239.452 628.073L235.577 628.467C235.577 628.467 237.706 640.882 236.328 640.269C222.444 634.092 219.196 633.546 233.363 640.741C233.363 640.741 234.805 643.258 234.428 644.03C234.051 644.801 230.489 674.026 230.489 674.026V674.022Z" fill="#0D3F41"/>
<path d="M266.971 629.279C271.497 629.279 275.166 625.61 275.166 621.083C275.166 616.557 271.497 612.888 266.971 612.888C262.446 612.888 258.777 616.557 258.777 621.083C258.777 625.61 262.446 629.279 266.971 629.279Z" fill="#1D6645"/>
<path d="M254.205 652.738C259.841 652.738 264.411 648.168 264.411 642.53C264.411 636.893 259.841 632.323 254.205 632.323C248.569 632.323 244 636.893 244 642.53C244 648.168 248.569 652.738 254.205 652.738Z" fill="#1D6645"/>
<path d="M261.205 640.738C266.841 640.738 271.411 636.168 271.411 630.53C271.411 624.893 266.841 620.323 261.205 620.323C255.569 620.323 251 624.893 251 630.53C251 636.168 255.569 640.738 261.205 640.738Z" fill="#1D6645"/>
<path d="M267.205 617.738C272.841 617.738 277.411 613.168 277.411 607.53C277.411 601.893 272.841 597.323 267.205 597.323C261.569 597.323 257 601.893 257 607.53C257 613.168 261.569 617.738 267.205 617.738Z" fill="#1D6645"/>
<path d="M217.75 615.748C223.386 615.748 227.956 611.178 227.956 605.541C227.956 599.903 223.386 595.333 217.75 595.333C212.114 595.333 207.544 599.903 207.544 605.541C207.544 611.178 212.114 615.748 217.75 615.748Z" fill="#1D6645"/>
<path d="M231.284 624.119C231.284 625.414 231.132 626.674 230.843 627.88C230.792 628.106 230.731 628.325 230.671 628.548C230.317 629.791 229.818 630.974 229.192 632.076C226.419 636.969 221.166 640.268 215.142 640.268C214.323 640.268 213.518 640.208 212.729 640.09C204.96 638.924 199 632.221 199 624.119C199 615.203 206.227 607.974 215.142 607.974C216.301 607.974 217.429 608.095 218.521 608.328H218.524C219.367 608.51 220.186 608.756 220.974 609.062H220.977C221.725 609.352 222.446 609.696 223.137 610.09C225.044 611.179 226.705 612.645 228.026 614.387C230.071 617.096 231.284 620.466 231.284 624.119Z" fill="#1D6645"/>
<path d="M265.936 607.051C265.936 616.608 260.289 624.844 252.153 628.605C249.13 630.004 245.765 630.782 242.213 630.782C237.965 630.782 233.975 629.667 230.529 627.709C228.308 626.452 226.314 624.844 224.616 622.964C223.403 621.626 222.341 620.146 221.459 618.556C221.452 618.546 221.448 618.535 221.442 618.525C219.919 615.779 218.928 612.695 218.601 609.416C218.527 608.638 218.487 607.849 218.487 607.051C218.487 593.945 229.11 583.323 242.213 583.323C255.316 583.323 265.936 593.945 265.936 607.051Z" fill="#1D6645"/>
<path d="M220.88 623.968C224.996 623.968 228.332 620.631 228.332 616.514C228.332 612.397 224.996 609.06 220.88 609.06C216.764 609.06 213.427 612.397 213.427 616.514C213.427 620.631 216.764 623.968 220.88 623.968Z" fill="#13473D"/>
<path d="M257.452 632.231C261.568 632.231 264.905 628.894 264.905 624.777C264.905 620.66 261.568 617.323 257.452 617.323C253.336 617.323 250 620.66 250 624.777C250 628.894 253.336 632.231 257.452 632.231Z" fill="#13473D"/>
<path d="M254.452 643.231C258.568 643.231 261.905 639.894 261.905 635.777C261.905 631.66 258.568 628.323 254.452 628.323C250.336 628.323 247 631.66 247 635.777C247 639.894 250.336 643.231 254.452 643.231Z" fill="#13473D"/>
<path d="M230.671 628.548C230.317 629.791 229.818 630.974 229.192 632.076C226.419 636.969 221.166 640.268 215.142 640.268C214.323 640.268 213.518 640.208 212.729 640.09C209.401 638.007 207.184 634.304 207.184 630.084C207.184 625.346 209.977 621.265 214.003 619.391C215.516 618.687 217.2 618.293 218.976 618.293C219.822 618.293 220.651 618.384 221.446 618.552C221.453 618.552 221.456 618.556 221.459 618.556C223.434 618.98 225.226 619.897 226.698 621.171C228.619 622.839 230 625.117 230.529 627.708C230.587 627.985 230.634 628.265 230.671 628.548Z" fill="#13473D"/>
<path d="M256.079 617.619C256.079 621.788 254.606 625.616 252.154 628.605C249.131 630.004 245.765 630.782 242.214 630.782C241.338 630.782 240.472 630.735 239.62 630.641C239.441 630.624 239.263 630.6 239.087 630.576C239.071 630.576 239.057 630.573 239.044 630.57C238.798 630.539 238.555 630.502 238.316 630.462C238.083 630.425 237.851 630.384 237.618 630.337C237.521 630.317 237.423 630.297 237.325 630.277C237.174 630.246 237.019 630.213 236.867 630.179C236.769 630.155 236.675 630.132 236.581 630.108C236.436 630.074 236.294 630.037 236.153 630C236.065 629.977 235.981 629.956 235.897 629.929C235.728 629.886 235.56 629.838 235.395 629.788C235.193 629.727 234.994 629.663 234.798 629.599C234.579 629.528 234.364 629.454 234.148 629.373C233.983 629.316 233.821 629.255 233.663 629.191C233.525 629.141 233.39 629.087 233.255 629.03C233.205 629.009 233.158 628.993 233.11 628.969C232.969 628.912 232.827 628.851 232.686 628.787C232.521 628.716 232.356 628.642 232.194 628.565C232.164 628.551 232.13 628.538 232.1 628.521C231.891 628.423 231.685 628.322 231.483 628.217C231.277 628.113 231.075 628.009 230.873 627.897C230.863 627.891 230.853 627.887 230.843 627.88C230.738 627.827 230.634 627.769 230.529 627.709C230.587 627.985 230.634 628.265 230.671 628.548C230.317 629.791 229.819 630.974 229.192 632.076C226.19 630.091 223.845 627.193 222.548 623.779C221.924 622.141 221.54 620.382 221.446 618.552C221.443 618.542 221.443 618.532 221.443 618.525C221.426 618.225 221.419 617.922 221.419 617.619C221.419 614.92 222.036 612.365 223.137 610.09C223.232 609.892 223.333 609.699 223.434 609.507C226.341 604.021 232.11 600.284 238.751 600.284C248.319 600.284 256.079 608.045 256.079 617.619Z" fill="#13473D"/>
<path d="M208.861 287.052C203.325 284.975 199.667 280.195 197.132 266.977C196.577 266.52 195.154 265.07 193.905 262.934C192.817 261.141 191.668 255.018 190.905 253.57C190.141 252.122 188.597 248.52 188.527 245.695C188.564 243.08 187.242 236.095 181.66 229.079C183.703 230.109 188.129 233.428 189.49 238.463C190.049 240.689 191.21 245.635 191.377 247.612C192.087 249.956 194.669 255.15 199.314 257.18C200.082 257.719 201.797 258.471 202.515 257.162C202.219 255.318 200.835 250.609 197.663 246.533C198.424 246.707 200.723 248.303 203.84 253.3C204.165 253.151 204.342 252.044 202.448 248.802C200.37 245.034 195.799 236.407 194.137 232.042C192.184 227.501 188.649 216.77 190.13 210.173C191.132 215.269 193.928 227.075 197.102 233.521L199.185 236.875C199.699 236.698 200.745 236.037 200.818 234.808C200.82 233.613 200.537 230.649 199.394 228.353C200.446 229.591 202.586 232.59 202.722 234.684L203.769 239.013C204.115 240.17 205.357 243.422 207.552 247.179C207.828 247.018 208.066 246.777 208.165 246.326C208.219 245.925 207.992 244.55 206.658 242.266C207.421 242.726 209.312 244.273 210.776 246.777L215.026 254.052C215.39 254.746 216.436 256.169 217.707 256.315C216.861 254.586 215.408 250.815 216.359 249.568C217.126 251.796 219.129 256.72 221.01 258.585C222.643 260.184 226.114 264.447 226.928 268.715C228.202 271.388 229.323 277.889 223.621 282.505C221.619 284.786 215.864 288.89 208.861 287.052Z" fill="#FF8126" fill-opacity="0.3"/>
<path d="M207.586 284.544C202.049 282.468 198.392 277.688 195.857 264.47C195.301 264.012 193.878 262.562 192.63 260.426C191.541 258.633 190.393 252.51 189.63 251.062C188.866 249.614 187.321 246.012 187.252 243.187C187.288 240.572 185.966 233.587 180.385 226.571C182.428 227.601 186.853 230.92 188.214 235.955C188.774 238.181 189.934 243.127 190.101 245.105C190.812 247.448 193.394 252.643 198.038 254.672C198.806 255.212 200.522 255.963 201.24 254.655C200.944 252.81 199.56 248.101 196.388 244.026C197.148 244.199 199.448 245.795 202.565 250.792C202.89 250.644 203.066 249.536 201.172 246.295C199.094 242.527 194.523 233.899 192.862 229.534C190.909 224.993 187.373 214.262 188.855 207.665C189.856 212.762 192.653 224.567 195.826 231.013L197.909 234.367C198.423 234.19 199.47 233.529 199.543 232.301C199.545 231.106 199.262 228.141 198.118 225.845C199.171 227.083 201.31 230.082 201.447 232.176L202.494 236.506C202.84 237.662 204.081 240.914 206.276 244.671C206.553 244.51 206.791 244.269 206.89 243.819C206.943 243.417 206.717 242.042 205.383 239.759C206.145 240.219 208.037 241.765 209.5 244.27L213.751 251.545C214.115 252.238 215.16 253.661 216.432 253.807C215.586 252.078 214.132 248.308 215.084 247.06C215.85 249.289 217.854 254.212 219.734 256.078C221.368 257.676 224.839 261.939 225.653 266.207C226.926 268.88 228.048 275.381 222.346 279.997C220.344 282.279 214.589 286.382 207.586 284.544Z" fill="#FF8126"/>
<path d="M224.108 276.399C219.585 282.229 210.849 286.835 204.149 280.829C203.121 279.866 202.063 278.524 200.105 274.598C199.369 273.121 198.846 269.398 197.76 264.14C197.97 263.758 197.016 260.946 191.521 252.755C193.664 254.496 196.891 256.729 199.304 260.325C199.79 261.366 201.68 262.846 203.217 263.166C204.145 262.906 206.527 262.369 205.85 259.54C205.671 258.453 205.443 257.923 204.217 255.945C204.682 256.196 205.822 256.896 206.658 257.687C206.633 255.692 206.192 251.192 204.622 249.156C203.268 247.328 200.341 242.927 199.459 239.945C200.031 241.05 201.361 243.159 202.108 242.755C201.935 241.865 201.255 239.247 199.921 235.894C200.564 236.79 201.952 238.997 202.354 240.658C202.937 242.158 204.56 245.841 206.392 248.571C206.854 248.945 208.027 249.189 209.015 247.174C209.018 247.936 209.335 250.001 210.58 252.159C211.064 253.323 212.434 255.719 214.042 255.992C214.332 256.361 215.224 257.299 216.475 258.102C216.889 258.467 217.781 258.988 218.03 258.145C218.029 257.702 217.065 256.32 215.979 254.73C216.702 255.049 219.034 255.787 220.964 258.349C221.417 258.677 227.307 271.229 224.108 276.399Z" fill="#FFA928"/>
<path d="M212.527 241.806C213.444 240.215 212.223 238.115 211.498 237.264C214.741 239.318 215.346 242.626 214.449 242.375C213.732 242.175 212.772 243.98 212.382 244.908C212.048 244.537 211.61 243.398 212.527 241.806Z" fill="#FF8126"/>
<path d="M213.281 242.705C214.198 241.113 212.977 239.013 212.252 238.163C215.495 240.217 216.1 243.524 215.203 243.274C214.486 243.073 213.526 244.879 213.136 245.807C212.802 245.436 212.364 244.296 213.281 242.705Z" fill="#FF8126" fill-opacity="0.2"/>
<path d="M182.375 240.483C183.292 238.891 182.071 236.792 181.346 235.941C184.589 237.995 185.194 241.302 184.297 241.052C183.58 240.851 182.62 242.657 182.23 243.585C181.896 243.214 181.458 242.074 182.375 240.483Z" fill="#FF8126"/>
<path d="M183.181 241.068C184.098 239.476 182.877 237.377 182.151 236.526C185.395 238.58 186 241.887 185.103 241.637C184.386 241.436 183.426 243.242 183.036 244.17C182.702 243.799 182.264 242.659 183.181 241.068Z" fill="#FF8126" fill-opacity="0.2"/>
<path opacity="0.35" d="M311.394 695.731C306.758 695.731 303 693.849 303 691.527C303 689.205 306.758 687.323 311.394 687.323C316.03 687.323 319.788 689.205 319.788 691.527C319.788 693.849 316.03 695.731 311.394 695.731Z" fill="#DCF492"/>
</svg>
