<svg width="2075" height="1255" viewBox="0 0 2075 1255" fill="none" xmlns="http://www.w3.org/2000/svg">
<path d="M847.153 62.5801C843.667 62.5801 840.623 64.5167 839.019 67.3387H625.321C623.717 64.5167 620.673 62.5801 617.187 62.5801C611.986 62.5801 607.836 66.7854 607.836 71.9313C607.836 77.0772 612.041 81.2825 617.187 81.2825C620.673 81.2825 623.717 79.3459 625.321 76.5239H631.961V462.745L732.115 404.922L832.268 462.745V76.5239H838.908C840.513 79.3459 843.556 81.2825 847.042 81.2825C852.243 81.2825 856.393 77.0772 856.393 71.9313C856.393 66.7854 852.188 62.5801 847.042 62.5801H847.153ZM821.921 86.9817H642.364V76.5792H821.921V86.9817Z" fill="#07556D"/>
<path d="M763.712 280.867L747.388 280.756L748.218 171.64L733.278 142.757L717.896 171.419L717.065 280.535L700.687 280.424C696.758 280.424 693.549 283.523 693.549 287.451C693.549 291.38 696.703 294.589 700.576 294.589L720.441 294.755L720.164 330.057C715.737 334.927 714.631 342.175 717.951 348.262C722.156 355.898 731.729 358.72 739.42 354.57C747.056 350.364 749.878 340.792 745.728 333.101C745.12 331.994 744.4 330.998 743.57 330.057V325.907V322.754V317.718V314.564V309.584V306.43V301.34V298.186V294.977L763.435 295.143C767.364 295.143 770.573 292.044 770.573 288.115C770.573 284.187 767.419 280.977 763.546 280.977L763.712 280.867Z" fill="#0E6A7F"/>
<path d="M603.299 862.301L579.949 698.627C574.913 663.491 544.812 637.374 509.288 637.374H351.92C316.396 637.374 286.295 663.491 281.259 698.627L257.909 862.301C257.3 866.506 257.079 870.711 257.245 874.806H604.019C604.129 870.711 603.963 866.506 603.355 862.301H603.299Z" fill="#B274AE"/>
<path d="M163.399 850.128C176.513 864.68 198.979 865.787 213.476 852.673L269.639 801.878C284.192 788.764 285.299 766.299 272.185 751.802C259.071 737.25 236.605 736.143 222.108 749.257L165.945 800.052C151.392 813.166 150.285 835.631 163.399 850.128Z" fill="#FFC259"/>
<path d="M184.869 782.899L232.456 835.52L341.241 737.139L293.654 684.518L184.869 782.899Z" fill="#B274AE"/>
<path d="M351.422 735.479L398.843 744.996L373.389 692.43L351.477 735.534L351.422 735.479Z" fill="#F0D1D1"/>
<path d="M374.883 760.323L409.411 767.24L390.874 728.895L374.883 760.268V760.323Z" fill="#F0D1D1"/>
<path d="M507.905 735.479L460.484 744.996L485.938 692.43L507.85 735.534L507.905 735.479Z" fill="#F0D1D1"/>
<path d="M484.444 760.323L449.916 767.24L468.453 728.895L484.444 760.268V760.323Z" fill="#F0D1D1"/>
<path d="M439.624 727.566L445.71 782.456L484.886 701.449H376.322L415.498 782.456L421.585 727.566H439.568H439.624Z" fill="white"/>
<path d="M436.026 687.229H425.236C419.869 687.229 414.944 690.106 412.233 694.754L406.81 704.105C404.154 708.753 404.154 714.453 406.81 719.101L412.233 728.452C414.889 733.1 419.869 735.977 425.236 735.977H436.026C441.394 735.977 446.318 733.1 449.03 728.452L454.452 719.101C457.108 714.453 457.108 708.753 454.452 704.105L449.03 694.754C446.374 690.106 441.394 687.229 436.026 687.229Z" fill="#004042"/>
<path d="M439.623 727.566H421.639L415.553 782.456L425.845 803.815L430.659 813.719L435.473 803.815L445.765 782.456L439.678 727.566H439.623Z" fill="#004042"/>
<path d="M459.765 874.806H432.707V887.311H459.765V874.806Z" fill="#F6E972"/>
<path d="M553.445 874.806H526.387V887.311H553.445V874.806Z" fill="#F6E972"/>
<path d="M522.181 874.806H495.123V887.311H522.181V874.806Z" fill="#F6E972"/>
<path d="M334.822 874.806H307.764V887.311H334.822V874.806Z" fill="#F6E972"/>
<path d="M397.292 874.806H370.234V887.311H397.292V874.806Z" fill="#F6E972"/>
<path d="M490.972 874.806H463.914V887.311H490.972V874.806Z" fill="#F6E972"/>
<path d="M428.501 874.806H401.443V887.311H428.501V874.806Z" fill="#F6E972"/>
<path d="M366.031 874.806H338.973V887.311H366.031V874.806Z" fill="#F6E972"/>
<path d="M272.351 874.806H257.189C257.3 879.067 257.853 883.272 258.739 887.311H272.351V874.806Z" fill="#F6E972"/>
<path d="M303.615 874.806H276.557V887.311H303.615V874.806Z" fill="#F6E972"/>
<path d="M588.857 874.806V887.311H602.469C603.355 883.217 603.853 879.067 604.019 874.806H588.857Z" fill="#F6E972"/>
<path d="M584.652 874.806H557.594V887.311H584.652V874.806Z" fill="#F6E972"/>
<path d="M276.556 874.806H272.406V887.311H276.556V874.806Z" fill="#F6E972"/>
<path d="M307.763 874.806H303.613V887.311H307.763V874.806Z" fill="#F6E972"/>
<path d="M339.027 874.806H334.877V887.311H339.027V874.806Z" fill="#F6E972"/>
<path d="M370.236 874.806H366.086V887.311H370.236V874.806Z" fill="#F6E972"/>
<path d="M401.443 874.806H397.293V887.311H401.443V874.806Z" fill="#F6E972"/>
<path d="M432.707 874.806H428.557V887.311H432.707V874.806Z" fill="#F6E972"/>
<path d="M495.123 874.806H490.973V887.311H495.123V874.806Z" fill="#F6E972"/>
<path d="M526.386 874.806H522.236V887.311H526.386V874.806Z" fill="#F6E972"/>
<path d="M463.916 874.806H459.766V887.311H463.916V874.806Z" fill="#F6E972"/>
<path d="M557.593 874.806H553.443V887.311H557.593V874.806Z" fill="#F6E972"/>
<path d="M588.857 874.806H584.707V887.311H588.857V874.806Z" fill="#F6E972"/>
<path d="M430.603 837.235C435.196 837.235 438.959 833.473 438.959 828.88C438.959 824.288 435.196 820.525 430.603 820.525C426.011 820.525 422.248 824.288 422.248 828.88C422.248 833.473 426.011 837.235 430.603 837.235Z" fill="#004042"/>
<path d="M430.603 864.348C435.196 864.348 438.959 860.586 438.959 855.993C438.959 851.4 435.196 847.638 430.603 847.638C426.011 847.638 422.248 851.4 422.248 855.993C422.248 860.586 426.011 864.348 430.603 864.348Z" fill="#004042"/>
<path d="M511.004 772.164H568.44V800.162C568.44 816.043 555.547 828.88 539.722 828.88C523.897 828.88 511.004 815.987 511.004 800.162V772.164Z" fill="#A6499B"/>
<path d="M184.869 782.899L232.456 835.52L246.344 822.96L198.758 770.338L184.869 782.899Z" fill="#A6499B"/>
<path d="M230.851 248.663C237.768 248.663 243.412 243.075 243.412 236.158C243.412 229.241 237.823 223.653 230.851 223.653C223.879 223.653 218.346 229.241 218.346 236.158C218.346 243.075 223.934 248.663 230.851 248.663Z" fill="#D96892"/>
<path d="M584.375 316.556H283.528L264.549 72.042C264.549 41.5538 289.283 16.8755 319.771 16.8755H548.187C578.676 16.8755 603.41 41.6091 603.41 72.042L584.431 316.556H584.375Z" fill="#B274AE"/>
<path fill-rule="evenodd" clip-rule="evenodd" d="M614.035 212.365L623.939 225.036L620.398 196.872C628.643 174.186 632.848 150.337 632.959 126.268C636.5 130.473 640.816 136.062 642.421 139.824C640.539 133.572 636.555 122.394 632.793 117.027C632.516 110.498 631.963 103.913 631.077 97.3841L630.911 96.0562L632.682 97.6055C654.539 116.806 669.091 142.148 675.012 169.538C673.352 177.395 670.475 187.299 666.38 193.22C668.981 192.058 673.573 188.24 677.004 180.77C679.217 198.034 678.111 215.796 673.352 233.17L664.554 265.263C661.234 268.804 657.361 272.512 653.93 274.725C655.811 274.891 659.021 274.836 662.119 273.95L661.455 276.44C652.547 308.865 623.054 331.385 589.411 331.385C580.558 311.742 580.115 289.388 588.083 269.468L597.711 294.091L592.067 260.56L614.09 212.31L614.035 212.365Z" fill="#A61E00"/>
<path d="M578.232 361.818C577.624 361.818 577.015 361.708 576.462 361.431C574.138 360.435 573.086 357.779 574.082 355.455L589.244 320.042C589.41 319.655 589.631 319.268 589.963 318.88L594.722 312.96C606.895 297.909 617.298 281.42 625.598 263.769C633.455 247.169 639.431 229.74 643.304 211.922C646.956 195.212 648.782 178.114 648.782 161.016V155.926C648.782 153.381 650.83 151.389 653.32 151.389C655.81 151.389 657.857 153.436 657.857 155.926V161.016C657.857 178.723 655.92 196.54 652.158 213.859C648.118 232.34 641.976 250.434 633.787 267.698C625.155 285.957 614.365 303.11 601.749 318.714L597.322 324.192L582.382 359.052C581.663 360.767 579.948 361.818 578.177 361.818H578.232Z" fill="#CA6E91"/>
<path d="M577.403 116.584L487.818 148.345L532.86 275.278L622.444 243.517L577.403 116.584Z" fill="#FFF9C8"/>
<path d="M543.982 220.333C552.337 220.333 559.143 213.527 559.143 205.172C559.143 196.817 552.337 190.011 543.982 190.011C535.626 190.011 528.82 196.817 528.82 205.172C528.82 213.527 535.626 220.333 543.982 220.333Z" fill="#004042"/>
<path d="M569.601 211.203C577.956 211.203 584.762 204.397 584.762 196.042C584.762 187.687 577.956 180.881 569.601 180.881C561.245 180.881 554.439 187.687 554.439 196.042C554.439 204.397 561.245 211.203 569.601 211.203Z" fill="#004042"/>
<path d="M549.239 195.876C557.595 195.876 564.401 189.07 564.401 180.715C564.401 172.36 557.595 165.554 549.239 165.554C540.884 165.554 534.078 172.36 534.078 180.715C534.078 189.07 540.884 195.876 549.239 195.876Z" fill="#004042"/>
<path d="M557.041 202.682L555.049 229.297L575.356 222.104L557.041 202.682Z" fill="#004042"/>
<path d="M594.391 313.403H273.568L266.873 261.279C266.873 254.861 272.074 249.715 278.438 249.715H589.466C595.885 249.715 601.031 254.916 601.031 261.279L594.336 313.403H594.391Z" fill="#004042"/>
<path d="M316.009 210.705L256.691 313.402H406.921L347.604 210.705C340.577 198.532 323.036 198.532 316.009 210.705Z" fill="#FBAA1F"/>
<path d="M520.3 210.705L460.982 313.402H611.212L551.895 210.705C544.868 198.532 527.327 198.532 520.3 210.705Z" fill="#FBAA1F"/>
<path d="M232.897 244.347L206.227 259.785C207.887 261.943 208.883 264.599 208.883 267.476C208.883 270.077 208.108 272.456 206.725 274.448L232.897 289.554V244.347Z" fill="#AFD7D7"/>
<path d="M282.035 267.476C288.951 267.476 294.595 261.888 294.595 254.971C294.595 248.054 289.007 242.466 282.035 242.466C275.063 242.466 269.529 248.054 269.529 254.971C269.529 261.888 275.118 267.476 282.035 267.476Z" fill="#D96892"/>
<path d="M249.775 241.359H244.574C228.472 241.359 215.469 254.418 215.469 270.464V307.26C215.469 323.307 228.527 336.365 244.574 336.365H249.775C265.877 336.365 278.881 323.307 278.881 307.26V270.464C278.881 254.418 265.822 241.359 249.775 241.359Z" fill="#AFD7D7"/>
<path d="M206.227 259.73L200.583 262.995C197.54 264.765 197.54 269.136 200.583 270.852L206.781 274.448C208.109 272.456 208.939 270.022 208.939 267.477C208.939 264.544 207.943 261.888 206.283 259.785L206.227 259.73Z" fill="#D96892"/>
<path d="M237.158 269.579C242.083 269.579 246.011 265.595 246.011 260.726C246.011 255.856 242.027 251.873 237.158 251.873C232.289 251.873 228.305 255.856 228.305 260.726C228.305 265.595 232.289 269.579 237.158 269.579Z" fill="white"/>
<path d="M237.159 266.978C240.645 266.978 243.412 264.156 243.412 260.726C243.412 257.295 240.59 254.473 237.159 254.473C233.728 254.473 230.906 257.295 230.906 260.726C230.906 264.156 233.728 266.978 237.159 266.978Z" fill="#004042"/>
<path d="M256.637 276.329C261.561 276.329 265.49 272.345 265.49 267.476C265.49 262.607 261.506 258.623 256.637 258.623C251.767 258.623 247.783 262.607 247.783 267.476C247.783 272.345 251.767 276.329 256.637 276.329Z" fill="white"/>
<path d="M256.635 273.729C260.121 273.729 262.888 270.907 262.888 267.476C262.888 264.046 260.066 261.224 256.635 261.224C253.205 261.224 250.383 264.046 250.383 267.476C250.383 270.907 253.205 273.729 256.635 273.729Z" fill="#004042"/>
<path d="M670.641 312.572H197.32C170.262 312.572 148.35 334.484 148.35 361.542C148.35 388.599 170.262 410.511 197.32 410.511H670.641C697.699 410.511 719.611 388.599 719.611 361.542C719.611 334.484 697.699 312.572 670.641 312.572Z" fill="#B274AE"/>
<path d="M558.368 346.823H308.483C212.535 346.823 134.736 424.621 134.736 520.567V540.653C134.736 636.6 212.535 714.397 308.483 714.397H558.368C654.316 714.397 732.115 636.6 732.115 540.653V520.567C732.115 424.621 654.316 346.823 558.368 346.823Z" fill="#FBAA1F"/>
<path d="M579.617 718.602C595.83 707.591 600.035 685.513 589.024 669.356L546.473 606.72C535.461 590.507 513.383 586.302 497.226 597.313C481.013 608.324 476.808 630.402 487.819 646.559L530.371 709.196C541.382 725.408 563.46 729.613 579.617 718.602Z" fill="#FFC259"/>
<path d="M502.206 667.696L584.597 789.041C617.022 767.018 625.433 722.918 603.41 690.493L560.859 627.857L502.15 667.696H502.206Z" fill="#B274AE"/>
<path d="M512.718 682.692L571.427 642.852L560.914 627.359L502.205 667.199L512.718 682.692Z" fill="#A6499B"/>
<path d="M401.83 462.745C401.83 457.876 399.727 453.062 395.688 448.524C391.648 444.042 385.672 439.948 378.147 436.462C370.622 433.031 361.713 430.265 351.919 428.439C342.125 426.557 331.556 425.617 320.932 425.617C310.308 425.617 299.795 426.557 289.946 428.439C280.152 430.32 271.188 433.031 263.718 436.462C256.192 439.893 250.272 443.987 246.177 448.524C242.138 453.006 240.035 457.876 240.035 462.745H401.885H401.83Z" fill="#FFF9C8"/>
<path d="M290.5 449.963C290.5 436.517 301.401 425.617 314.847 425.617H328.237C341.683 425.617 352.584 436.517 352.584 449.963V462.745H290.555V449.963H290.5Z" fill="#0D3F41"/>
<path d="M628.753 462.745C628.753 457.876 626.65 453.062 622.611 448.524C618.572 443.987 612.596 439.948 605.126 436.462C597.656 433.031 588.747 430.265 578.953 428.439C569.159 426.557 558.701 425.617 548.132 425.617C537.564 425.617 527.05 426.557 517.312 428.439C507.518 430.32 498.664 433.031 491.139 436.462C483.669 439.893 477.693 443.987 473.654 448.524C469.614 453.062 467.512 457.876 467.512 462.745H628.753Z" fill="#FFF9C8"/>
<path d="M517.422 449.963C517.422 436.517 528.323 425.617 541.769 425.617H555.768C569.214 425.617 580.115 436.517 580.115 449.963V462.745H517.477V449.963H517.422Z" fill="#0D3F41"/>
<path d="M504.64 512.932C504.64 518.797 475.424 539.104 433.481 539.104C397.183 539.104 358.947 518.797 358.947 512.932C358.947 512.932 397.183 506.568 433.481 506.568C469.78 506.568 508.901 512.932 504.64 512.932Z" fill="#A57421"/>
<path d="M368.963 404.369C368.963 395.294 376.322 387.935 385.397 387.935C394.472 387.935 401.831 395.294 401.831 404.369V420.803H385.397C376.322 420.803 368.963 413.443 368.963 404.369Z" fill="#FFF9C8"/>
<path d="M499.162 510.497C499.162 516.362 469.725 532.409 433.481 532.409C397.238 532.409 367.801 516.362 367.801 510.497C367.801 510.497 397.238 499.873 433.481 499.873C469.725 499.873 503.423 510.497 499.162 510.497Z" fill="white"/>
<path d="M500.38 404.369C500.38 395.294 493.02 387.935 483.946 387.935C474.871 387.935 467.512 395.294 467.512 404.369V420.803H483.946C493.02 420.803 500.38 413.443 500.38 404.369Z" fill="#FFF9C8"/>
<path d="M510.007 513.927C496.838 513.927 483.669 511.935 470.887 507.951C446.485 500.371 420.699 500.371 396.242 507.951C370.678 515.919 343.62 515.919 318.001 507.951L279.765 496.11C278.161 495.612 277.275 493.897 277.773 492.292C278.271 490.688 279.987 489.802 281.591 490.3L319.827 502.141C344.229 509.722 370.014 509.722 394.471 502.141C420.035 494.173 447.093 494.173 472.713 502.141C497.115 509.722 522.9 509.722 547.357 502.141L585.593 490.3C587.197 489.802 588.913 490.688 589.411 492.292C589.909 493.897 589.023 495.612 587.419 496.11L549.183 507.951C536.401 511.935 523.232 513.927 510.063 513.927H510.007Z" fill="#A57421"/>
<path d="M446.209 469.772C446.209 476.854 440.509 482.554 433.427 482.554C426.344 482.554 420.645 476.854 420.645 469.772C420.645 462.689 426.344 462.8 433.427 462.8C440.509 462.8 446.209 462.745 446.209 469.772Z" fill="#FECACA"/>
<path d="M215.402 632.743C241.355 625.134 254.581 592.317 244.943 559.444C235.305 526.57 206.453 506.089 180.5 513.698C154.547 521.307 141.321 554.124 150.959 586.997C160.597 619.871 189.449 640.352 215.402 632.743Z" fill="#E37815"/>
<path d="M714.019 586.901C723.657 554.028 710.431 521.211 684.478 513.602C658.525 505.993 629.673 526.474 620.035 559.348C610.397 592.221 623.623 625.038 649.576 632.647C675.529 640.256 704.381 619.775 714.019 586.901Z" fill="#E37815"/>
<path d="M317.225 522.67C360.406 522.67 395.411 487.665 395.411 444.485C395.411 401.305 360.406 366.3 317.225 366.3C274.044 366.3 239.039 401.305 239.039 444.485C239.039 487.665 274.044 522.67 317.225 522.67Z" fill="#B7D6D6" fill-opacity="0.5"/>
<path d="M317.834 530.914C269.196 530.914 229.633 491.352 229.633 442.714C229.633 394.077 269.196 354.514 317.834 354.514C366.472 354.514 406.035 394.077 406.035 442.714C406.035 491.352 366.472 530.914 317.834 530.914ZM317.834 366.632C275.891 366.632 241.806 400.772 241.806 442.659C241.806 484.546 275.947 518.686 317.834 518.686C359.721 518.686 393.862 484.546 393.862 442.659C393.862 400.772 359.721 366.632 317.834 366.632Z" fill="#FCE699"/>
<path d="M272.24 535.175C275.265 535.175 277.718 532.722 277.718 529.697C277.718 526.672 275.265 524.219 272.24 524.219C269.214 524.219 266.762 526.672 266.762 529.697C266.762 532.722 269.214 535.175 272.24 535.175Z" fill="#FCE699"/>
<path d="M263.111 549.727C266.136 549.727 268.589 547.275 268.589 544.249C268.589 541.224 266.136 538.771 263.111 538.771C260.085 538.771 257.633 541.224 257.633 544.249C257.633 547.275 260.085 549.727 263.111 549.727Z" fill="#FCE699"/>
<path d="M252.154 563.726C255.179 563.726 257.632 561.274 257.632 558.248C257.632 555.223 255.179 552.771 252.154 552.771C249.128 552.771 246.676 555.223 246.676 558.248C246.676 561.274 249.128 563.726 252.154 563.726Z" fill="#FCE699"/>
<path d="M238.763 575.9C241.789 575.9 244.241 573.447 244.241 570.422C244.241 567.396 241.789 564.944 238.763 564.944C235.738 564.944 233.285 567.396 233.285 570.422C233.285 573.447 235.738 575.9 238.763 575.9Z" fill="#FCE699"/>
<path d="M222.939 584.421C225.964 584.421 228.417 581.969 228.417 578.943C228.417 575.918 225.964 573.465 222.939 573.465C219.914 573.465 217.461 575.918 217.461 578.943C217.461 581.969 219.914 584.421 222.939 584.421Z" fill="#FCE699"/>
<path d="M205.951 589.899C208.976 589.899 211.429 587.447 211.429 584.421C211.429 581.396 208.976 578.943 205.951 578.943C202.925 578.943 200.473 581.396 200.473 584.421C200.473 587.447 202.925 589.899 205.951 589.899Z" fill="#FCE699"/>
<path d="M187.691 595.377C190.716 595.377 193.169 592.924 193.169 589.899C193.169 586.873 190.716 584.421 187.691 584.421C184.665 584.421 182.213 586.873 182.213 589.899C182.213 592.924 184.665 595.377 187.691 595.377Z" fill="#FCE699"/>
<path d="M169.431 591.116C172.457 591.116 174.909 588.663 174.909 585.638C174.909 582.613 172.457 580.16 169.431 580.16C166.406 580.16 163.953 582.613 163.953 585.638C163.953 588.663 166.406 591.116 169.431 591.116Z" fill="#FCE699"/>
<path d="M155.431 582.595C158.457 582.595 160.909 580.142 160.909 577.117C160.909 574.092 158.457 571.639 155.431 571.639C152.406 571.639 149.953 574.092 149.953 577.117C149.953 580.142 152.406 582.595 155.431 582.595Z" fill="#FCE699"/>
<path opacity="0.24" d="M689.62 406.693C707.216 399.279 719.611 381.849 719.611 361.542C719.611 334.484 697.699 312.573 670.641 312.573H638.99C649.504 303.221 657.472 290.827 661.4 276.551L662.064 274.061C658.966 274.946 655.756 275.002 653.875 274.836C657.306 272.622 661.179 268.915 664.499 265.374L673.297 233.281C678.056 215.907 679.162 198.09 676.949 180.881C673.574 188.351 668.926 192.169 666.325 193.331C670.475 187.41 673.297 177.506 674.957 169.649C668.981 142.259 654.484 116.917 632.627 97.7163L630.856 96.167L631.022 97.4949C631.908 104.024 632.461 110.553 632.738 117.138C636.5 122.505 640.484 133.682 642.366 139.935C640.761 136.172 636.445 130.584 632.904 126.379C632.793 150.448 628.588 174.296 620.343 196.983L623.884 225.147L613.98 212.421L612.486 215.685L595.83 168.708L603.356 72.042C603.356 41.5538 578.622 16.8755 548.133 16.8755H319.717C289.228 16.8755 264.494 41.6091 264.494 72.042L277.774 243.13C274.454 244.292 271.743 246.837 270.415 250.047C265.158 244.68 257.799 241.36 249.72 241.36H244.519C243.689 241.36 242.914 241.415 242.14 241.47C242.914 239.866 243.357 238.04 243.357 236.103C243.357 229.186 237.768 223.598 230.796 223.598C223.824 223.598 218.291 229.186 218.291 236.103C218.291 241.415 221.611 245.952 226.259 247.778C225.872 248.11 225.484 248.442 225.042 248.829L206.173 259.73L200.529 262.995C197.486 264.765 197.486 269.136 200.529 270.852L206.726 274.448L215.358 279.428V307.261C215.358 309.087 215.524 310.857 215.856 312.573H197.209C170.151 312.573 148.239 334.484 148.239 361.542C148.239 381.572 160.246 398.781 177.455 406.361C150.784 436.905 134.627 476.855 134.627 520.567V540.653C134.627 622.047 190.624 690.383 266.21 709.251L222.054 749.202C222.054 749.202 222.054 749.202 221.998 749.202L189.684 778.417L184.814 782.844L165.835 799.997C151.282 813.111 150.176 835.576 163.29 850.073C176.404 864.625 198.869 865.732 213.366 852.618L232.346 835.465L265.933 805.087L257.799 862.19C257.19 866.396 256.969 870.601 257.135 874.696C257.246 878.956 257.799 883.162 258.684 887.201H303.504H588.748H602.36C603.245 883.106 603.743 878.956 603.909 874.696C604.02 870.601 603.854 866.396 603.245 862.19L591.957 783.12C613.703 763.698 621.118 732.989 611.379 706.097C681.431 683.688 732.116 618.063 732.116 540.598V520.512C732.116 476.965 716.07 437.126 689.62 406.638V406.693Z" fill="#004561"/>
<path d="M940.168 518.631H808.641V559.134H940.168V518.631Z" fill="#008982"/>
<path d="M849.091 559.134H825.076V572.303H849.091V559.134Z" fill="#00726A"/>
<path d="M923.79 559.134H899.775V572.303H923.79V559.134Z" fill="#00726A"/>
<path d="M815.171 518.631H801.67V559.134H815.171V518.631Z" fill="#00726A"/>
<path d="M682.537 820.525H601.031V846.033H682.537V820.525Z" fill="#00665E"/>
<path d="M956.436 820.525H874.93V846.033H956.436V820.525Z" fill="#00665E"/>
<path d="M977.241 702.279H580.225V832.311H977.241V702.279Z" fill="#008982"/>
<path d="M977.241 572.303H751.758V702.335H977.241V572.303Z" fill="#008982"/>
<path d="M719.222 702.224H580.225V832.31H719.222V702.224Z" fill="#00726A"/>
<path d="M631.408 702.224H751.758V572.303L631.408 702.224Z" fill="#00726A"/>
<path d="M977.241 702.39H580.225V706.927H977.241V702.39Z" fill="#00665E"/>
<path d="M977.241 811.616H580.225V816.153H977.241V811.616Z" fill="#00665E"/>
<path d="M969.054 582.54H888.488V606.554H969.054V582.54Z" fill="#00A599"/>
<path d="M876.757 582.54H842.34V606.554H876.757V582.54Z" fill="#00A599"/>
<path d="M1850.35 904.52H1336.52V257.516C1336.52 115.644 1451.56 0.607422 1593.43 0.607422C1735.31 0.607422 1850.35 115.644 1850.35 257.516V904.52Z" fill="#07556D"/>
<path d="M1822.73 874.087H1364.19V278.321C1364.19 147.681 1466.83 41.7749 1593.49 41.7749C1720.09 41.7749 1822.79 147.681 1822.79 278.321V874.087H1822.73Z" fill="#0E6A7F"/>
<path d="M1841.6 438.122H1610.75V21.9106H1576.11V438.122H1345.26V472.76H1576.11V886.869H1610.75V472.76H1841.6V438.122Z" fill="#07556D"/>
<path d="M1899.81 122.561H918.588V346.768H1899.81V122.561Z" fill="#00728C"/>
<path d="M1875.91 145.136H942.549V324.192H1875.91V145.136Z" fill="#B3F4FF"/>
<path d="M957.045 446.975L1054.98 326.073H993.51L957.045 446.975Z" fill="#00728C"/>
<path d="M1005.57 204.785H1011.11V217.29C1007.84 219.946 1003.25 221.274 998.822 221.274C989.083 221.274 981.945 214.523 981.945 205.172C981.945 195.821 989.083 189.07 998.933 189.07C1004.19 189.07 1008.56 190.841 1011.49 194.161L1007.84 197.758C1005.35 195.323 1002.58 194.161 999.209 194.161C992.514 194.161 987.866 198.698 987.866 205.172C987.866 211.646 992.569 216.183 999.209 216.183C1001.42 216.183 1003.64 215.741 1005.63 214.579V204.84L1005.57 204.785Z" fill="black"/>
<path d="M1032.02 196.65V201.962C1031.52 201.852 1031.14 201.852 1030.75 201.852C1026.49 201.852 1023.83 204.342 1023.83 209.211V220.831H1018.24V196.927H1023.56V200.413C1025.16 197.923 1028.09 196.65 1032.08 196.65H1032.02Z" fill="black"/>
<path d="M1058.91 210.65H1040.16C1040.82 214.136 1043.75 216.404 1047.9 216.404C1050.61 216.404 1052.72 215.574 1054.38 213.804L1057.36 217.234C1055.21 219.78 1051.83 221.107 1047.74 221.107C1039.71 221.107 1034.51 215.962 1034.51 208.824C1034.51 201.686 1039.77 196.595 1046.85 196.595C1053.93 196.595 1058.91 201.464 1058.91 208.934C1058.91 209.377 1058.91 210.041 1058.8 210.594L1058.91 210.65ZM1040.1 206.942H1053.66C1053.21 203.512 1050.56 201.132 1046.91 201.132C1043.25 201.132 1040.65 203.456 1040.1 206.942Z" fill="black"/>
<path d="M1086.75 210.65H1067.99C1068.65 214.136 1071.58 216.404 1075.73 216.404C1078.45 216.404 1080.55 215.574 1082.21 213.804L1085.2 217.234C1083.04 219.78 1079.66 221.107 1075.57 221.107C1067.55 221.107 1062.34 215.962 1062.34 208.824C1062.34 201.686 1067.6 196.595 1074.68 196.595C1081.77 196.595 1086.75 201.464 1086.75 208.934C1086.75 209.377 1086.75 210.041 1086.64 210.594L1086.75 210.65ZM1067.93 206.942H1081.49C1081.05 203.512 1078.39 201.132 1074.74 201.132C1071.09 201.132 1068.49 203.456 1067.93 206.942Z" fill="black"/>
<path d="M1106.56 219.503C1105.23 220.554 1103.18 221.108 1101.19 221.108C1095.93 221.108 1092.94 218.341 1092.94 213.029V201.52H1089.02V197.038H1092.94V191.56H1098.53V197.038H1104.95V201.52H1098.53V212.863C1098.53 215.187 1099.69 216.46 1101.85 216.46C1103.01 216.46 1104.12 216.128 1105.01 215.464L1106.56 219.448V219.503Z" fill="black"/>
<path d="M1110.43 189.568C1110.43 187.687 1111.92 186.193 1114.03 186.193C1116.13 186.193 1117.62 187.576 1117.62 189.402C1117.62 191.394 1116.13 192.888 1114.03 192.888C1111.92 192.888 1110.43 191.394 1110.43 189.513V189.568ZM1111.2 196.872H1116.79V220.776H1111.2V196.872Z" fill="black"/>
<path d="M1147.67 207.108V220.831H1142.08V207.828C1142.08 203.567 1139.98 201.52 1136.38 201.52C1132.4 201.52 1129.69 203.954 1129.69 208.713V220.776H1124.1V196.872H1129.41V199.971C1131.24 197.757 1134.17 196.595 1137.65 196.595C1143.41 196.595 1147.61 199.86 1147.61 207.053L1147.67 207.108Z" fill="black"/>
<path d="M1178.71 196.872V217.124C1178.71 225.811 1174.17 229.74 1165.82 229.74C1161.34 229.74 1156.91 228.578 1154.2 226.364L1156.69 222.159C1158.79 223.93 1162.22 225.036 1165.49 225.036C1170.74 225.036 1173.12 222.602 1173.12 217.788V216.515C1171.13 218.673 1168.31 219.669 1165.1 219.669C1158.24 219.669 1153.04 215.021 1153.04 208.049C1153.04 201.077 1158.29 196.54 1165.1 196.54C1168.47 196.54 1171.41 197.591 1173.4 199.971V196.817H1178.71V196.872ZM1173.23 208.105C1173.23 204.065 1170.19 201.354 1165.98 201.354C1161.78 201.354 1158.68 204.065 1158.68 208.105C1158.68 212.144 1161.72 214.966 1165.98 214.966C1170.24 214.966 1173.23 212.199 1173.23 208.105Z" fill="black"/>
<path d="M1183.36 218.396L1185.52 214.136C1187.62 215.519 1190.83 216.515 1193.82 216.515C1197.36 216.515 1198.85 215.519 1198.85 213.859C1198.85 209.266 1184.08 213.582 1184.08 204.065C1184.08 199.528 1188.17 196.595 1194.59 196.595C1197.74 196.595 1201.4 197.37 1203.55 198.642L1201.4 202.903C1199.13 201.575 1196.8 201.132 1194.54 201.132C1191.16 201.132 1189.5 202.239 1189.5 203.844C1189.5 208.658 1204.27 204.397 1204.27 213.748C1204.27 218.23 1200.18 221.107 1193.43 221.107C1189.44 221.107 1185.46 219.946 1183.3 218.396H1183.36Z" fill="black"/>
<path d="M1258.78 196.872L1249.98 220.776H1244.61L1238.42 204.287L1232.16 220.776H1226.8L1218 196.872H1223.25L1229.56 214.523L1236.15 196.872H1240.85L1247.27 214.578L1253.74 196.872H1258.72H1258.78Z" fill="black"/>
<path d="M1284.34 210.65H1265.58C1266.25 214.136 1269.18 216.404 1273.33 216.404C1276.04 216.404 1278.14 215.574 1279.8 213.804L1282.79 217.234C1280.63 219.78 1277.26 221.107 1273.16 221.107C1265.14 221.107 1259.94 215.962 1259.94 208.824C1259.94 201.686 1265.2 196.595 1272.28 196.595C1279.36 196.595 1284.34 201.464 1284.34 208.934C1284.34 209.377 1284.34 210.041 1284.23 210.594L1284.34 210.65ZM1265.53 206.942H1279.08C1278.64 203.512 1275.99 201.132 1272.33 201.132C1268.68 201.132 1266.08 203.456 1265.53 206.942Z" fill="black"/>
<path d="M1309.13 206.776V220.776H1303.88V217.843C1302.55 219.89 1299.95 221.052 1296.35 221.052C1290.87 221.052 1287.44 218.064 1287.44 213.914C1287.44 209.764 1290.15 206.776 1297.4 206.776H1303.6V206.444C1303.6 203.18 1301.61 201.243 1297.62 201.243C1294.91 201.243 1292.14 202.128 1290.37 203.622L1288.16 199.528C1290.71 197.536 1294.41 196.595 1298.29 196.595C1305.2 196.595 1309.19 199.86 1309.19 206.776H1309.13ZM1303.54 213.306V210.539H1297.79C1293.97 210.539 1292.97 211.978 1292.97 213.693C1292.97 215.685 1294.69 217.013 1297.57 217.013C1300.44 217.013 1302.66 215.74 1303.6 213.306H1303.54Z" fill="black"/>
<path d="M1330.1 196.65V201.962C1329.6 201.852 1329.22 201.852 1328.83 201.852C1324.57 201.852 1321.91 204.342 1321.91 209.211V220.831H1316.32V196.927H1321.64V200.413C1323.24 197.923 1326.17 196.65 1330.16 196.65H1330.1Z" fill="black"/>
<path d="M1358.1 196.872L1346.92 222.712C1344.71 228.135 1341.67 229.795 1337.68 229.795C1335.3 229.795 1332.81 228.965 1331.27 227.582L1333.48 223.487C1334.53 224.538 1336.08 225.147 1337.57 225.147C1339.57 225.147 1340.73 224.206 1341.78 221.827L1342.17 220.886L1331.71 196.872H1337.52L1345.04 214.578L1352.62 196.872H1357.99H1358.1Z" fill="black"/>
<path d="M1388.31 219.503C1386.99 220.554 1384.94 221.108 1382.95 221.108C1377.69 221.108 1374.7 218.341 1374.7 213.029V201.52H1370.77V197.038H1374.7V191.56H1380.29V197.038H1386.71V201.52H1380.29V212.863C1380.29 215.187 1381.45 216.46 1383.61 216.46C1384.77 216.46 1385.88 216.128 1386.76 215.464L1388.31 219.448V219.503Z" fill="black"/>
<path d="M1406.8 196.65V201.962C1406.3 201.852 1405.91 201.852 1405.52 201.852C1401.26 201.852 1398.61 204.342 1398.61 209.211V220.831H1393.02V196.927H1398.33V200.413C1399.93 197.923 1402.87 196.65 1406.85 196.65H1406.8Z" fill="black"/>
<path d="M1431.42 206.776V220.776H1426.16V217.843C1424.83 219.89 1422.23 221.052 1418.64 221.052C1413.16 221.052 1409.73 218.064 1409.73 213.914C1409.73 209.764 1412.44 206.776 1419.69 206.776H1425.88V206.444C1425.88 203.18 1423.89 201.243 1419.91 201.243C1417.2 201.243 1414.43 202.128 1412.66 203.622L1410.45 199.528C1412.99 197.536 1416.7 196.595 1420.57 196.595C1427.49 196.595 1431.47 199.86 1431.47 206.776H1431.42ZM1425.83 213.306V210.539H1420.07C1416.26 210.539 1415.26 211.978 1415.26 213.693C1415.26 215.685 1416.98 217.013 1419.85 217.013C1422.73 217.013 1424.94 215.74 1425.88 213.306H1425.83Z" fill="black"/>
<path d="M1460.52 196.872L1450.29 220.776H1444.53L1434.29 196.872H1440.11L1447.52 214.578L1455.16 196.872H1460.52Z" fill="black"/>
<path d="M1485.7 210.65H1466.94C1467.61 214.136 1470.54 216.404 1474.69 216.404C1477.4 216.404 1479.5 215.574 1481.16 213.804L1484.15 217.234C1481.99 219.78 1478.62 221.107 1474.52 221.107C1466.5 221.107 1461.3 215.962 1461.3 208.824C1461.3 201.686 1466.56 196.595 1473.64 196.595C1480.72 196.595 1485.7 201.464 1485.7 208.934C1485.7 209.377 1485.7 210.041 1485.59 210.594L1485.7 210.65ZM1466.89 206.942H1480.44C1480 203.512 1477.35 201.132 1473.69 201.132C1470.04 201.132 1467.44 203.456 1466.89 206.942Z" fill="black"/>
<path d="M1491.18 187.576H1496.77V220.776H1491.18V187.576Z" fill="black"/>
<path d="M1526.48 210.65H1507.72C1508.39 214.136 1511.32 216.404 1515.47 216.404C1518.18 216.404 1520.28 215.574 1521.94 213.804L1524.93 217.234C1522.77 219.78 1519.4 221.107 1515.3 221.107C1507.28 221.107 1502.08 215.962 1502.08 208.824C1502.08 201.686 1507.33 196.595 1514.42 196.595C1521.5 196.595 1526.48 201.464 1526.48 208.934C1526.48 209.377 1526.48 210.041 1526.37 210.594L1526.48 210.65ZM1507.67 206.942H1521.22C1520.78 203.512 1518.12 201.132 1514.47 201.132C1510.82 201.132 1508.22 203.456 1507.67 206.942Z" fill="black"/>
<path d="M1545.79 196.65V201.962C1545.29 201.852 1544.91 201.852 1544.52 201.852C1540.26 201.852 1537.6 204.342 1537.6 209.211V220.831H1532.01V196.927H1537.33V200.413C1538.93 197.923 1541.86 196.65 1545.85 196.65H1545.79Z" fill="black"/>
<path d="M1555.75 217.4C1555.75 218.396 1555.53 219.171 1554.7 221.273L1552.43 227.581H1548.78L1550.55 220.72C1549.28 220.167 1548.45 219.005 1548.45 217.4C1548.45 215.187 1550 213.693 1552.1 213.693C1554.2 213.693 1555.75 215.242 1555.75 217.4Z" fill="black"/>
<path d="M1598.97 208.824C1598.97 216.238 1593.82 221.107 1586.85 221.107C1583.58 221.107 1580.82 220.001 1578.94 217.732V220.831H1573.62V187.631H1579.21V199.86C1581.15 197.702 1583.81 196.706 1586.85 196.706C1593.82 196.706 1598.97 201.52 1598.97 208.934V208.824ZM1593.27 208.824C1593.27 204.231 1590.22 201.354 1586.19 201.354C1582.15 201.354 1579.05 204.286 1579.05 208.824C1579.05 213.361 1582.15 216.294 1586.19 216.294C1590.22 216.294 1593.27 213.361 1593.27 208.824Z" fill="black"/>
<path d="M1626.63 210.65H1607.88C1608.54 214.136 1611.47 216.404 1615.62 216.404C1618.33 216.404 1620.44 215.574 1622.1 213.804L1625.09 217.234C1622.93 219.78 1619.55 221.107 1615.46 221.107C1607.43 221.107 1602.23 215.962 1602.23 208.824C1602.23 201.686 1607.49 196.595 1614.57 196.595C1621.65 196.595 1626.63 201.464 1626.63 208.934C1626.63 209.377 1626.63 210.041 1626.52 210.594L1626.63 210.65ZM1607.82 206.942H1621.38C1620.94 203.512 1618.28 201.132 1614.63 201.132C1610.98 201.132 1608.37 203.456 1607.82 206.942Z" fill="black"/>
<path d="M1655.63 207.109V220.831H1650.04V207.828C1650.04 203.567 1647.94 201.52 1644.34 201.52C1640.36 201.52 1637.65 203.955 1637.65 208.713V220.776H1632.06V187.576H1637.65V199.639C1639.47 197.647 1642.29 196.595 1645.61 196.595C1651.37 196.595 1655.57 199.86 1655.57 207.053L1655.63 207.109Z" fill="black"/>
<path d="M1661 208.824C1661 201.686 1666.36 196.595 1673.72 196.595C1681.08 196.595 1686.5 201.631 1686.5 208.824C1686.5 216.017 1681.19 221.107 1673.72 221.107C1666.25 221.107 1661 216.017 1661 208.824ZM1680.86 208.824C1680.86 204.231 1677.82 201.354 1673.72 201.354C1669.63 201.354 1666.64 204.286 1666.64 208.824C1666.64 213.361 1669.68 216.294 1673.72 216.294C1677.76 216.294 1680.86 213.361 1680.86 208.824Z" fill="black"/>
<path d="M1691.87 187.576H1697.46V220.776H1691.87V187.576Z" fill="black"/>
<path d="M1728.23 187.576V220.775H1722.86V217.677C1720.98 219.945 1718.21 221.052 1714.95 221.052C1708.03 221.052 1702.88 216.238 1702.88 208.768C1702.88 201.298 1708.03 196.54 1714.95 196.54C1718.04 196.54 1720.76 197.591 1722.64 199.749V187.465H1728.23V187.576ZM1722.69 208.824C1722.69 204.231 1719.59 201.354 1715.55 201.354C1711.51 201.354 1708.42 204.286 1708.42 208.824C1708.42 213.361 1711.51 216.294 1715.55 216.294C1719.59 216.294 1722.69 213.361 1722.69 208.824Z" fill="black"/>
<path d="M1787.88 207.108V220.831H1782.29V207.828C1782.29 203.567 1780.3 201.52 1776.92 201.52C1773.27 201.52 1770.72 203.955 1770.72 208.658V220.776H1765.13V207.773C1765.13 203.512 1763.14 201.465 1759.77 201.465C1756.06 201.465 1753.57 203.899 1753.57 208.602V220.72H1747.98V196.817H1753.29V199.86C1755.06 197.702 1757.89 196.54 1761.15 196.54C1764.64 196.54 1767.57 197.813 1769.23 200.524C1771.17 198.034 1774.37 196.54 1778.19 196.54C1783.95 196.54 1787.99 199.805 1787.99 206.998L1787.88 207.108Z" fill="black"/>
<path d="M1816.98 196.872L1805.8 222.712C1803.59 228.135 1800.55 229.795 1796.56 229.795C1794.18 229.795 1791.69 228.965 1790.14 227.582L1792.36 223.487C1793.41 224.538 1794.96 225.147 1796.45 225.147C1798.44 225.147 1799.61 224.206 1800.66 221.827L1801.05 220.886L1790.59 196.872H1796.4L1803.92 214.578L1811.5 196.872H1816.87H1816.98Z" fill="black"/>
<path d="M1006.02 250.6L995.778 274.503H990.024L979.787 250.6H985.597L993.012 268.306L1000.65 250.6H1006.02Z" fill="black"/>
<path d="M1028.76 260.504V274.504H1023.5V271.571C1022.17 273.618 1019.57 274.78 1015.98 274.78C1010.5 274.78 1007.07 271.792 1007.07 267.642C1007.07 263.492 1009.78 260.504 1017.03 260.504H1023.22V260.172C1023.22 256.908 1021.23 254.971 1017.25 254.971C1014.54 254.971 1011.77 255.856 1010 257.35L1007.79 253.256C1010.33 251.264 1014.04 250.323 1017.91 250.323C1024.83 250.323 1028.81 253.588 1028.81 260.504H1028.76ZM1023.11 267.034V264.267H1017.36C1013.54 264.267 1012.54 265.706 1012.54 267.421C1012.54 269.413 1014.26 270.741 1017.14 270.741C1020.01 270.741 1022.23 269.468 1023.17 267.034H1023.11Z" fill="black"/>
<path d="M1049.73 250.323V255.635C1049.23 255.524 1048.84 255.524 1048.46 255.524C1044.2 255.524 1041.54 258.014 1041.54 262.884V274.504H1035.95V250.6H1041.26V254.086C1042.87 251.596 1045.8 250.323 1049.78 250.323H1049.73Z" fill="black"/>
<path d="M1053.71 243.296C1053.71 241.415 1055.26 239.921 1057.31 239.921C1059.36 239.921 1060.91 241.304 1060.91 243.13C1060.91 245.122 1059.41 246.616 1057.31 246.616C1055.21 246.616 1053.71 245.122 1053.71 243.241V243.296ZM1054.49 250.6H1060.08V274.504H1054.49V250.6Z" fill="black"/>
<path d="M1065.44 262.552C1065.44 255.414 1070.81 250.323 1078.17 250.323C1085.53 250.323 1090.95 255.358 1090.95 262.552C1090.95 269.745 1085.64 274.836 1078.17 274.836C1070.7 274.836 1065.44 269.745 1065.44 262.552ZM1085.25 262.552C1085.25 257.959 1082.21 255.082 1078.11 255.082C1074.02 255.082 1071.03 258.014 1071.03 262.552C1071.03 267.089 1074.08 270.022 1078.11 270.022C1082.15 270.022 1085.25 267.089 1085.25 262.552Z" fill="black"/>
<path d="M1119.39 250.6V274.503H1114.08V271.46C1112.31 273.673 1109.49 274.835 1106.39 274.835C1100.25 274.835 1096.1 271.46 1096.1 264.267V250.6H1101.69V263.492C1101.69 267.808 1103.73 269.911 1107.28 269.911C1111.15 269.911 1113.8 267.476 1113.8 262.717V250.655H1119.39V250.6Z" fill="black"/>
<path d="M1124.04 272.124L1126.2 267.864C1128.3 269.247 1131.51 270.243 1134.5 270.243C1138.04 270.243 1139.53 269.247 1139.53 267.587C1139.53 262.994 1124.76 267.31 1124.76 257.793C1124.76 253.256 1128.86 250.323 1135.27 250.323C1138.43 250.323 1142.08 251.098 1144.24 252.371L1142.08 256.631C1139.81 255.303 1137.49 254.86 1135.22 254.86C1131.84 254.86 1130.18 255.967 1130.18 257.572C1130.18 262.386 1144.96 258.125 1144.96 267.476C1144.96 271.958 1140.86 274.836 1134.11 274.836C1130.13 274.836 1126.14 273.673 1123.99 272.124H1124.04Z" fill="black"/>
<path d="M1176.55 273.231C1175.22 274.282 1173.18 274.836 1171.19 274.836C1165.93 274.836 1162.94 272.069 1162.94 266.757V255.248H1159.01V250.766H1162.94V245.288H1168.53V250.766H1174.95V255.248H1168.53V266.591C1168.53 268.915 1169.69 270.188 1171.85 270.188C1173.01 270.188 1174.12 269.856 1175 269.192L1176.55 273.176V273.231Z" fill="black"/>
<path d="M1194.98 250.323V255.635C1194.48 255.524 1194.09 255.524 1193.71 255.524C1189.45 255.524 1186.79 258.014 1186.79 262.884V274.504H1181.2V250.6H1186.51V254.086C1188.12 251.596 1191.05 250.323 1195.03 250.323H1194.98Z" fill="black"/>
<path d="M1221.87 264.323H1203.11C1203.78 267.809 1206.71 270.077 1210.86 270.077C1213.57 270.077 1215.67 269.247 1217.33 267.476L1220.32 270.907C1218.16 273.452 1214.79 274.78 1210.69 274.78C1202.67 274.78 1197.47 269.634 1197.47 262.497C1197.47 255.359 1202.73 250.268 1209.81 250.268C1216.89 250.268 1221.87 255.137 1221.87 262.607C1221.87 263.05 1221.87 263.714 1221.76 264.267L1221.87 264.323ZM1203.06 260.615H1216.61C1216.17 257.185 1213.52 254.805 1209.86 254.805C1206.21 254.805 1203.61 257.129 1203.06 260.615Z" fill="black"/>
<path d="M1246.66 260.504V274.504H1241.4V271.571C1240.07 273.618 1237.47 274.78 1233.88 274.78C1228.4 274.78 1224.97 271.792 1224.97 267.642C1224.97 263.492 1227.68 260.504 1234.93 260.504H1241.13V260.172C1241.13 256.908 1239.13 254.971 1235.15 254.971C1232.44 254.971 1229.67 255.856 1227.9 257.35L1225.69 253.256C1228.23 251.264 1231.94 250.323 1235.81 250.323C1242.73 250.323 1246.71 253.588 1246.71 260.504H1246.66ZM1241.07 267.034V264.267H1235.32C1231.5 264.267 1230.5 265.706 1230.5 267.421C1230.5 269.413 1232.22 270.741 1235.09 270.741C1237.97 270.741 1240.19 269.468 1241.13 267.034H1241.07Z" fill="black"/>
<path d="M1251.09 272.124L1253.24 267.864C1255.35 269.247 1258.56 270.243 1261.54 270.243C1265.09 270.243 1266.58 269.247 1266.58 267.587C1266.58 262.994 1251.81 267.31 1251.81 257.793C1251.81 253.256 1255.9 250.323 1262.32 250.323C1265.47 250.323 1269.13 251.098 1271.28 252.371L1269.13 256.631C1266.86 255.303 1264.53 254.86 1262.26 254.86C1258.89 254.86 1257.23 255.967 1257.23 257.572C1257.23 262.386 1272 258.125 1272 267.476C1272 271.958 1267.91 274.836 1261.16 274.836C1257.17 274.836 1253.19 273.673 1251.03 272.124H1251.09Z" fill="black"/>
<path d="M1300.06 250.6V274.503H1294.75V271.46C1292.97 273.673 1290.15 274.835 1287.05 274.835C1280.91 274.835 1276.76 271.46 1276.76 264.267V250.6H1282.35V263.492C1282.35 267.808 1284.4 269.911 1287.94 269.911C1291.81 269.911 1294.47 267.476 1294.47 262.717V250.655H1300.06V250.6Z" fill="black"/>
<path d="M1321.19 250.323V255.635C1320.7 255.524 1320.31 255.524 1319.92 255.524C1315.66 255.524 1313 258.014 1313 262.884V274.504H1307.42V250.6H1312.73V254.086C1314.33 251.596 1317.27 250.323 1321.25 250.323H1321.19Z" fill="black"/>
<path d="M1348.09 264.323H1329.33C1329.99 267.809 1332.92 270.077 1337.07 270.077C1339.79 270.077 1341.89 269.247 1343.55 267.476L1346.54 270.907C1344.38 273.452 1341 274.78 1336.91 274.78C1328.88 274.78 1323.68 269.634 1323.68 262.497C1323.68 255.359 1328.94 250.268 1336.02 250.268C1343.11 250.268 1348.09 255.137 1348.09 262.607C1348.09 263.05 1348.09 263.714 1347.97 264.267L1348.09 264.323ZM1329.33 260.615H1342.88C1342.44 257.185 1339.79 254.805 1336.13 254.805C1332.48 254.805 1329.88 257.129 1329.33 260.615Z" fill="black"/>
<path d="M1350.85 272.124L1353.01 267.864C1355.11 269.247 1358.32 270.243 1361.31 270.243C1364.85 270.243 1366.35 269.247 1366.35 267.587C1366.35 262.994 1351.57 267.31 1351.57 257.793C1351.57 253.256 1355.67 250.323 1362.08 250.323C1365.24 250.323 1368.89 251.098 1371.05 252.371L1368.89 256.631C1366.62 255.303 1364.3 254.86 1362.03 254.86C1358.65 254.86 1356.99 255.967 1356.99 257.572C1356.99 262.386 1371.77 258.125 1371.77 267.476C1371.77 271.958 1367.67 274.836 1360.92 274.836C1356.94 274.836 1352.95 273.673 1350.8 272.124H1350.85Z" fill="black"/>
<path d="M1374.76 271.128C1374.76 268.915 1376.42 267.421 1378.41 267.421C1380.4 267.421 1382.06 268.915 1382.06 271.128C1382.06 273.341 1380.4 274.835 1378.41 274.835C1376.42 274.835 1374.76 273.286 1374.76 271.128Z" fill="black"/>
<path d="M1385.66 271.128C1385.66 268.915 1387.32 267.421 1389.31 267.421C1391.3 267.421 1392.96 268.915 1392.96 271.128C1392.96 273.341 1391.3 274.835 1389.31 274.835C1387.32 274.835 1385.66 273.286 1385.66 271.128Z" fill="black"/>
<path d="M1396.56 271.128C1396.56 268.915 1398.22 267.421 1400.21 267.421C1402.2 267.421 1403.86 268.915 1403.86 271.128C1403.86 273.341 1402.2 274.835 1400.21 274.835C1398.22 274.835 1396.56 273.286 1396.56 271.128Z" fill="black"/>
<path d="M810.578 1056.13H230.906V1140.07H810.578V1056.13Z" fill="#006B8C"/>
<path d="M1220.21 923.499H-0.220703V1188.82H1220.21V923.499Z" fill="#2294AF"/>
<path d="M1165.54 970.587H-0.220703V1188.82H1165.54V970.587Z" fill="#04647A"/>
<path d="M312.025 1032.06H267.371C266.098 1032.06 265.047 1030.79 265.047 1029.18V1000.13H314.404V1029.18C314.404 1030.79 313.353 1032.06 312.08 1032.06H312.025Z" fill="#633A14"/>
<path opacity="0.66" d="M307.432 1014.74H271.853C266.26 1014.74 261.727 1019.28 261.727 1024.87C261.727 1030.46 266.26 1034.99 271.853 1034.99H307.432C313.024 1034.99 317.558 1030.46 317.558 1024.87C317.558 1019.28 313.024 1014.74 307.432 1014.74Z" fill="#89BEAA"/>
<path opacity="0.66" d="M268.534 1024.65C269.939 1024.65 271.079 1023.51 271.079 1022.1C271.079 1020.7 269.939 1019.56 268.534 1019.56C267.128 1019.56 265.988 1020.7 265.988 1022.1C265.988 1023.51 267.128 1024.65 268.534 1024.65Z" fill="#A6DDC6"/>
<path opacity="0.66" d="M287.678 1019.56H275.948C274.542 1019.56 273.402 1020.7 273.402 1022.1V1022.16C273.402 1023.56 274.542 1024.7 275.948 1024.7H287.678C289.084 1024.7 290.224 1023.56 290.224 1022.16V1022.1C290.224 1020.7 289.084 1019.56 287.678 1019.56Z" fill="#A6DDC6"/>
<path d="M314.35 1000.13C314.35 998.308 303.283 996.814 289.671 996.814C276.059 996.814 264.992 998.308 264.992 1000.13C264.992 1001.96 276.059 1003.45 289.671 1003.45C292.991 1003.45 296.09 1003.34 298.967 1003.23L301.568 1012.25L304.279 1002.79C310.366 1002.18 314.294 1001.24 314.294 1000.13H314.35Z" fill="#FFB23E"/>
<path d="M344.672 1105.88C345.059 1106.26 345.447 1106.59 345.834 1106.98C345.557 1106.59 345.17 1106.26 344.672 1105.88Z" fill="#89BEAA"/>
<path d="M233.451 1106.98C233.839 1106.59 234.226 1106.26 234.613 1105.88C234.115 1106.26 233.673 1106.59 233.451 1106.98Z" fill="#89BEAA"/>
<path d="M345.834 1106.98C346.11 1107.37 346.221 1107.7 346.221 1108.09C346.221 1113.34 320.878 1117.55 289.67 1117.55C258.407 1117.55 233.12 1113.29 233.12 1108.09C233.12 1107.7 233.23 1107.31 233.507 1106.98C222.938 1117.22 216.962 1132.71 218.899 1149.26L242.526 1220.58C243.854 1224.56 247.562 1227.27 251.767 1227.27H327.574C331.779 1227.27 335.486 1224.56 336.814 1220.58L360.442 1149.26C362.378 1132.71 356.402 1117.22 345.834 1106.98ZM230.962 1144.77C228.748 1144.77 226.978 1143 226.978 1140.79C226.978 1138.58 228.748 1136.81 230.962 1136.81C233.175 1136.81 234.946 1138.58 234.946 1140.79C234.946 1143 233.175 1144.77 230.962 1144.77ZM241.032 1133.82C237.657 1133.82 234.946 1131.11 234.946 1127.73C234.946 1124.36 237.657 1121.64 241.032 1121.64C244.408 1121.64 247.119 1124.36 247.119 1127.73C247.119 1131.11 244.408 1133.82 241.032 1133.82Z" fill="#C9345A"/>
<path d="M241.032 1133.82C244.394 1133.82 247.119 1131.09 247.119 1127.73C247.119 1124.37 244.394 1121.64 241.032 1121.64C237.67 1121.64 234.945 1124.37 234.945 1127.73C234.945 1131.09 237.67 1133.82 241.032 1133.82Z" fill="#E5557F"/>
<path d="M230.961 1144.77C233.161 1144.77 234.945 1142.99 234.945 1140.79C234.945 1138.59 233.161 1136.81 230.961 1136.81C228.76 1136.81 226.977 1138.59 226.977 1140.79C226.977 1142.99 228.76 1144.77 230.961 1144.77Z" fill="#E5557F"/>
<path d="M289.67 1117.61C320.933 1117.61 346.22 1113.34 346.22 1108.14C346.22 1107.76 346.11 1107.37 345.833 1107.04C345.446 1106.65 345.058 1106.32 344.671 1105.93C338.695 1101.78 316.34 1098.68 289.67 1098.68C262.999 1098.68 240.644 1101.78 234.668 1105.93C234.281 1106.32 233.894 1106.65 233.506 1107.04C233.23 1107.42 233.119 1107.76 233.119 1108.14C233.119 1113.4 258.462 1117.61 289.67 1117.61Z" fill="#E5557F"/>
<path opacity="0.2" d="M318.942 1085.51H303.614V1034.99H275.671V1085.51H260.344C229.357 1085.51 205.398 1114.73 209.271 1147.76L236.108 1228.66C237.602 1233.19 241.807 1236.24 246.566 1236.24H332.609C337.368 1236.24 341.573 1233.19 343.067 1228.66L369.904 1147.76C373.777 1114.73 349.818 1085.51 318.831 1085.51H318.942Z" fill="#89BEAA"/>
<path d="M32.2036 1040.47H-10.6797V1236.68H32.2036V1040.47Z" fill="#DD5740"/>
<path d="M32.093 1051.7H-10.6797V1060.28H32.093V1051.7Z" fill="#FFB23E"/>
<path d="M32.1496 1065.87H-10.623V1074.45H32.1496V1065.87Z" fill="#FFB23E"/>
<path d="M32.093 1202.71H-10.6797V1211.28H32.093V1202.71Z" fill="#FFB23E"/>
<path d="M32.1496 1216.87H-10.623V1225.45H32.1496V1216.87Z" fill="#FFB23E"/>
<path d="M39.4531 1009.82H32.0938V1236.68H39.4531V1009.82Z" fill="#C9345A"/>
<path d="M74.9765 1009.82H67.6172V1236.68H74.9765V1009.82Z" fill="#C9345A"/>
<path d="M67.6178 1015.07H39.4531V1231.48H67.6178V1015.07Z" fill="white"/>
<path d="M180.216 1063.23L171.133 1064.6L196.15 1231L205.233 1229.63L180.216 1063.23Z" fill="#A61E00"/>
<path d="M146.003 1068.37L136.373 1069.82L161.39 1236.22L171.02 1234.77L146.003 1068.37Z" fill="#A61E00"/>
<path d="M171.754 1068.81L146.639 1072.59L170.38 1230.51L195.496 1226.73L171.754 1068.81Z" fill="white"/>
<path d="M141.016 1019.92L96.8398 1016.33L79.242 1232.68L123.418 1236.27L141.016 1019.92Z" fill="#3C7C31"/>
<path d="M140.229 1029.69L96.0527 1026.1L95.3574 1034.65L139.534 1038.24L140.229 1029.69Z" fill="#FFB23E"/>
<path d="M124.899 1218.01L80.7227 1214.41L80.0274 1222.96L124.203 1226.55L124.899 1218.01Z" fill="#FFB23E"/>
<path d="M118.143 1126.91C119.121 1114.88 116.285 1104.83 111.807 1104.46C107.33 1104.1 102.907 1113.56 101.928 1125.59C100.95 1137.62 103.786 1147.67 108.263 1148.03C112.741 1148.4 117.164 1138.94 118.143 1126.91Z" fill="#FFB23E"/>
<path d="M485.163 1061.06H356.9C346.571 1061.06 338.197 1069.43 338.197 1079.76V1208.02C338.197 1218.35 346.571 1226.72 356.9 1226.72H485.163C495.492 1226.72 503.865 1218.35 503.865 1208.02V1079.76C503.865 1069.43 495.492 1061.06 485.163 1061.06Z" fill="#DD5740"/>
<path d="M460.206 1032.17H381.854C379.586 1032.17 377.76 1030.79 377.76 1029.13V998.364H464.301V1029.13C464.301 1030.84 462.475 1032.17 460.206 1032.17Z" fill="#633A14"/>
<path d="M464.301 998.585C464.301 996.648 444.934 995.099 421.03 995.099C397.126 995.099 377.76 996.648 377.76 998.585C377.76 1000.52 397.126 1002.07 421.03 1002.07C426.84 1002.07 432.318 1001.96 437.354 1001.79L441.946 1011.37L446.705 1001.35C457.329 1000.74 464.246 999.692 464.246 998.53L464.301 998.585Z" fill="#FFB23E"/>
<path opacity="0.2" d="M493.132 1049.99H448.312V1036.49H393.753V1049.99H348.933C337.313 1049.99 327.906 1059.4 327.906 1071.02V1215.21C327.906 1226.83 337.313 1236.24 348.933 1236.24H493.132C504.752 1236.24 514.158 1226.83 514.158 1215.21V1071.02C514.158 1059.4 504.752 1049.99 493.132 1049.99Z" fill="#89BEAA"/>
<path opacity="0.66" d="M457.053 1015.3H385.065C379.136 1015.3 374.33 1020.1 374.33 1026.03C374.33 1031.96 379.136 1036.76 385.065 1036.76H457.053C462.982 1036.76 467.788 1031.96 467.788 1026.03C467.788 1020.1 462.982 1015.3 457.053 1015.3Z" fill="#89BEAA"/>
<path opacity="0.66" d="M381.524 1025.75C383.021 1025.75 384.235 1024.54 384.235 1023.04C384.235 1021.54 383.021 1020.33 381.524 1020.33C380.026 1020.33 378.812 1021.54 378.812 1023.04C378.812 1024.54 380.026 1025.75 381.524 1025.75Z" fill="#A6DDC6"/>
<path opacity="0.66" d="M401.776 1020.33H389.381C387.884 1020.33 386.67 1021.54 386.67 1023.04C386.67 1024.54 387.884 1025.75 389.381 1025.75H401.776C403.273 1025.75 404.487 1024.54 404.487 1023.04C404.487 1021.54 403.273 1020.33 401.776 1020.33Z" fill="#A6DDC6"/>
<path d="M356.734 1092.37C361.257 1092.37 364.924 1088.71 364.924 1084.18C364.924 1079.66 361.257 1076 356.734 1076C352.211 1076 348.545 1079.66 348.545 1084.18C348.545 1088.71 352.211 1092.37 356.734 1092.37Z" fill="#F47160"/>
<path d="M348.544 1105.38C350.805 1105.38 352.639 1103.54 352.639 1101.28C352.639 1099.02 350.805 1097.19 348.544 1097.19C346.282 1097.19 344.449 1099.02 344.449 1101.28C344.449 1103.54 346.282 1105.38 348.544 1105.38Z" fill="#F47160"/>
<path d="M481.29 1211.23C483.551 1211.23 485.385 1209.39 485.385 1207.13C485.385 1204.87 483.551 1203.04 481.29 1203.04C479.029 1203.04 477.195 1204.87 477.195 1207.13C477.195 1209.39 479.029 1211.23 481.29 1211.23Z" fill="#F47160"/>
<path d="M896.51 1054.47L840.181 1054.3C838.576 1054.3 837.248 1052.64 837.248 1050.65L837.359 1014.08L899.553 1014.3L899.443 1050.87C899.443 1052.87 898.115 1054.53 896.51 1054.53V1054.47Z" fill="#633A14"/>
<path d="M938.282 1135.53L805.815 1135.1C780.084 1135.01 759.155 1155.8 759.07 1181.53C758.985 1207.26 779.775 1228.19 805.506 1228.27L937.973 1228.71C963.704 1228.8 984.633 1208.01 984.718 1182.28C984.804 1156.55 964.013 1135.62 938.282 1135.53Z" fill="#3C7C31"/>
<path d="M784.959 1156.06C788.107 1156.06 790.658 1153.51 790.658 1150.36C790.658 1147.21 788.107 1144.66 784.959 1144.66C781.811 1144.66 779.26 1147.21 779.26 1150.36C779.26 1153.51 781.811 1156.06 784.959 1156.06Z" fill="#519942"/>
<path d="M774.944 1166.63C777.266 1166.63 779.149 1164.75 779.149 1162.42C779.149 1160.1 777.266 1158.22 774.944 1158.22C772.621 1158.22 770.738 1160.1 770.738 1162.42C770.738 1164.75 772.621 1166.63 774.944 1166.63Z" fill="#519942"/>
<path d="M971.155 1204.2C973.477 1204.2 975.36 1202.32 975.36 1200C975.36 1197.67 973.477 1195.79 971.155 1195.79C968.832 1195.79 966.949 1197.67 966.949 1200C966.949 1202.32 968.832 1204.2 971.155 1204.2Z" fill="#519942"/>
<path d="M966.896 1211.23C968.149 1211.23 969.164 1210.21 969.164 1208.96C969.164 1207.71 968.149 1206.69 966.896 1206.69C965.643 1206.69 964.627 1207.71 964.627 1208.96C964.627 1210.21 965.643 1211.23 966.896 1211.23Z" fill="#519942"/>
<path opacity="0.2" d="M983.936 1128.17L930.097 1128.01C903.924 1127.9 882.732 1106.59 882.842 1080.42C882.842 1072.34 884.945 1064.71 888.542 1058.07L849.366 1057.96C852.907 1064.65 854.954 1072.29 854.899 1080.37C854.788 1106.54 833.485 1127.73 807.312 1127.62L760.168 1127.45C754.967 1127.45 750.706 1131.66 750.706 1136.86L750.43 1226.06C750.43 1231.26 754.635 1235.52 759.836 1235.52L983.604 1236.29C988.806 1236.29 993.066 1232.09 993.066 1226.89L993.343 1137.69C993.343 1132.49 989.138 1128.23 983.936 1128.23V1128.17Z" fill="#89BEAA"/>
<path opacity="0.66" d="M890.869 1032.63L846.049 1032.48C838.99 1032.45 833.249 1038.15 833.225 1045.19C833.202 1052.23 838.906 1057.96 845.965 1057.99L890.785 1058.13C897.844 1058.16 903.585 1052.47 903.609 1045.42C903.632 1038.38 897.928 1032.65 890.869 1032.63Z" fill="#89BEAA"/>
<path opacity="0.66" d="M841.731 1044.95C843.503 1044.95 844.94 1043.52 844.94 1041.74C844.94 1039.97 843.503 1038.54 841.731 1038.54C839.958 1038.54 838.521 1039.97 838.521 1041.74C838.521 1043.52 839.958 1044.95 841.731 1044.95Z" fill="#A6DDC6"/>
<path opacity="0.66" d="M866.005 1038.52L851.231 1038.47C849.458 1038.46 848.017 1039.9 848.011 1041.67L848.011 1041.72C848.005 1043.5 849.437 1044.94 851.209 1044.94L865.983 1044.99C867.756 1045 869.197 1043.57 869.203 1041.79L869.203 1041.74C869.209 1039.97 867.777 1038.53 866.005 1038.52Z" fill="#A6DDC6"/>
<path d="M899.554 1014.24C899.554 1011.98 885.665 1010.04 868.457 1009.98C851.248 1009.93 837.359 1011.75 837.359 1014.02C837.359 1016.29 851.248 1018.23 868.457 1018.28C872.607 1018.28 876.591 1018.23 880.187 1018.01L883.452 1029.41L886.938 1017.51C894.574 1016.79 899.554 1015.57 899.554 1014.19V1014.24Z" fill="#FFB23E"/>
<path d="M891.948 1058.19L844.859 1058.04L844.808 1073.53L891.896 1073.69L891.948 1058.19Z" fill="#A977AB"/>
<path d="M931.972 1076.97L888.154 1064.17L885.826 1072.13L929.643 1084.94L931.972 1076.97Z" fill="#A977AB"/>
<path d="M914.016 1100.47L887.598 1063.24L880.829 1068.04L907.247 1105.27L914.016 1100.47Z" fill="#A977AB"/>
<path d="M560.914 1163.42C568.218 1160.65 573.087 1151.86 570.154 1144.61C568.162 1139.68 562.906 1135.04 564.953 1130.11C566.834 1125.57 573.087 1125.52 578.012 1125.63C581.996 1125.74 585.924 1125.57 589.853 1125.02C591.734 1124.74 593.616 1124.41 595.276 1123.47C600.588 1120.48 601.252 1113.18 601.196 1107.04C601.196 1105.16 601.196 1103.22 600.256 1101.56C598.374 1098.07 593.726 1097.52 589.853 1096.8C585.371 1095.97 580.889 1094.31 577.514 1091.32C556.432 1107.2 542.543 1132.05 541.381 1160.16C547.08 1164.03 554.44 1165.74 560.803 1163.31L560.914 1163.42Z" fill="#A068A5"/>
<path d="M716.455 1129.67H602.801V1141.95L613.757 1148.26L603.465 1154.18L610.105 1158L602.801 1162.2V1185.22L611.433 1190.2L602.801 1195.18V1206.3H712.637C719.333 1193.63 723.151 1179.19 723.151 1163.86C723.151 1151.69 720.771 1140.13 716.4 1129.5L716.455 1129.67Z" fill="#F5EA83"/>
<path d="M681.818 1094.86C683.588 1098.96 686.798 1102.5 687.683 1106.93C688.845 1112.46 686.189 1118.05 686.244 1123.75C686.244 1125.79 686.742 1127.84 687.517 1129.72H716.456C709.318 1112.24 696.868 1097.41 681.098 1087.39C680.49 1089.77 680.822 1092.59 681.818 1094.92V1094.86Z" fill="#A068A5"/>
<path d="M652.048 1218.75C647.732 1224.23 640.373 1226.5 633.401 1226.83C626.429 1227.16 619.457 1225.84 612.485 1225.56C605.956 1225.28 599.426 1225.95 593.063 1227.44C590.02 1228.16 586.921 1229.16 584.32 1230.98C581.941 1232.7 580.17 1235.02 578.953 1237.62C593.893 1248.47 612.319 1254.89 632.184 1254.89C667.044 1254.89 697.311 1235.24 712.583 1206.41H657.637C656.088 1210.73 654.76 1215.21 651.993 1218.75H652.048Z" fill="#A068A5"/>
<path d="M584.43 1231.04C586.976 1229.21 590.074 1228.22 593.173 1227.5C599.536 1226 606.066 1225.34 612.595 1225.61C619.567 1225.89 626.539 1227.22 633.511 1226.89C640.483 1226.55 647.787 1224.29 652.158 1218.81C654.925 1215.32 656.253 1210.79 657.802 1206.47H602.912V1195.35L611.544 1190.37L602.912 1185.39V1162.37L610.216 1158.16L603.576 1154.35L613.868 1148.43L602.912 1142.12V1129.83H687.627C686.852 1127.95 686.41 1125.91 686.354 1123.86C686.299 1118.21 688.955 1112.57 687.793 1107.04C686.852 1102.67 683.698 1099.12 681.928 1094.97C680.932 1092.71 680.6 1089.83 681.208 1087.45C674.292 1083.02 666.766 1079.54 658.798 1077.1V1034.16H668.15V1016.84H596.77V1034.16H606.121V1077.1C595.774 1080.26 586.201 1085.18 577.79 1091.54C581.166 1094.53 585.648 1096.19 590.13 1097.02C594.003 1097.74 598.651 1098.29 600.532 1101.78C601.418 1103.44 601.473 1105.38 601.473 1107.26C601.473 1113.4 600.92 1120.7 595.552 1123.69C593.892 1124.63 592.011 1124.96 590.13 1125.24C586.201 1125.79 582.217 1126.02 578.288 1125.85C573.364 1125.68 567.111 1125.74 565.23 1130.33C563.182 1135.26 568.384 1139.9 570.431 1144.83C573.364 1152.02 568.494 1160.88 561.19 1163.64C554.772 1166.08 547.412 1164.36 541.768 1160.49C541.768 1161.71 541.713 1162.98 541.713 1164.25C541.713 1194.57 556.542 1221.41 579.395 1237.9C580.612 1235.24 582.383 1232.92 584.762 1231.26L584.43 1231.04Z" fill="#A977AB"/>
<path d="M583.157 1222.02C585.419 1222.02 587.252 1220.18 587.252 1217.92C587.252 1215.66 585.419 1213.83 583.157 1213.83C580.896 1213.83 579.062 1215.66 579.062 1217.92C579.062 1220.18 580.896 1222.02 583.157 1222.02Z" fill="#A068A5"/>
<path d="M596.66 1222.41C598.218 1222.41 599.482 1221.14 599.482 1219.58C599.482 1218.02 598.218 1216.76 596.66 1216.76C595.101 1216.76 593.838 1218.02 593.838 1219.58C593.838 1221.14 595.101 1222.41 596.66 1222.41Z" fill="#A068A5"/>
<path d="M584.265 1142.67C586.191 1142.67 587.751 1141.11 587.751 1139.18C587.751 1137.26 586.191 1135.7 584.265 1135.7C582.34 1135.7 580.779 1137.26 580.779 1139.18C580.779 1141.11 582.34 1142.67 584.265 1142.67Z" fill="#A068A5"/>
<path d="M676.449 1112.63C679.047 1112.63 681.153 1110.52 681.153 1107.92C681.153 1105.32 679.047 1103.22 676.449 1103.22C673.852 1103.22 671.746 1105.32 671.746 1107.92C671.746 1110.52 673.852 1112.63 676.449 1112.63Z" fill="#A068A5"/>
<path d="M669.258 1122.53C670.633 1122.53 671.748 1121.42 671.748 1120.04C671.748 1118.66 670.633 1117.55 669.258 1117.55C667.882 1117.55 666.768 1118.66 666.768 1120.04C666.768 1121.42 667.882 1122.53 669.258 1122.53Z" fill="#A068A5"/>
<path d="M659.849 1007.6H605.512V1016.73H659.849V1007.6Z" fill="#633A14"/>
<path d="M1131.35 1133.82H941.885L951.9 1197.12H1121.39L1131.35 1133.82Z" fill="#BF3C2B"/>
<path d="M958.097 1236.24H1115.19L1118.07 1217.87H955.164L958.097 1236.24Z" fill="#BF3C2B"/>
<path d="M951.898 1197.12L955.163 1217.87H1118.06L1121.38 1197.12H951.898Z" fill="#FFB23E"/>
<path d="M1112.64 1125.13H960.586C947.751 1125.13 937.346 1135.54 937.346 1148.37V1148.43C937.346 1161.26 947.751 1171.66 960.586 1171.66H1112.64C1125.48 1171.66 1135.88 1161.26 1135.88 1148.43V1148.37C1135.88 1135.54 1125.48 1125.13 1112.64 1125.13Z" fill="#DD5740"/>
<path d="M1070.26 1094.7H1003.47V1125.13H1070.26V1094.7Z" fill="#FFFACC"/>
<path d="M1140.64 1075.39C1129.85 1028.96 1088.74 994.214 1039.33 993.107C1039.33 1003.62 1030.8 1012.09 1020.29 1012.09C1011.82 1012.09 1004.63 1006.55 1002.14 998.862C985.818 1004.51 971.266 1013.97 959.59 1026.25C959.701 1026.25 959.812 1026.25 959.922 1026.25C971.93 1026.25 981.613 1033.39 981.613 1042.24C981.613 1051.1 971.874 1058.23 959.922 1058.23C952.452 1058.23 945.812 1055.41 941.939 1051.15C938.066 1058.73 935.078 1066.87 933.086 1075.33C930.208 1087.73 939.56 1099.57 952.286 1099.57H1121.44C1134.17 1099.57 1143.52 1087.73 1140.64 1075.33V1075.39ZM1023.22 1088.5C1015.31 1088.5 1008.89 1083.74 1008.89 1077.93C1008.89 1072.12 1015.31 1067.36 1023.22 1067.36C1031.14 1067.36 1037.55 1072.12 1037.55 1077.93C1037.55 1083.74 1031.14 1088.5 1023.22 1088.5ZM1082.32 1073.51C1069.81 1073.51 1059.63 1066.04 1059.63 1056.79C1059.63 1047.55 1069.76 1040.08 1082.32 1040.08C1094.88 1040.08 1105.01 1047.55 1105.01 1056.79C1105.01 1066.04 1094.88 1073.51 1082.32 1073.51Z" fill="#C9345A"/>
<path d="M1020.29 1012.14C1030.8 1012.14 1039.27 1003.62 1039.33 993.163C1038.5 993.163 1037.72 993.163 1036.89 993.163C1024.72 993.163 1013.04 995.21 1002.2 998.972C1004.63 1006.66 1011.83 1012.2 1020.35 1012.2L1020.29 1012.14Z" fill="#FFFACC"/>
<path d="M1082.32 1073.51C1094.85 1073.51 1105.01 1066.02 1105.01 1056.8C1105.01 1047.57 1094.85 1040.08 1082.32 1040.08C1069.79 1040.08 1059.63 1047.57 1059.63 1056.8C1059.63 1066.02 1069.79 1073.51 1082.32 1073.51Z" fill="#FFFACC"/>
<path d="M1023.22 1088.5C1031.14 1088.5 1037.56 1083.77 1037.56 1077.93C1037.56 1072.09 1031.14 1067.36 1023.22 1067.36C1015.31 1067.36 1008.89 1072.09 1008.89 1077.93C1008.89 1083.77 1015.31 1088.5 1023.22 1088.5Z" fill="#FFFACC"/>
<path d="M959.977 1058.23C971.985 1058.23 981.668 1051.1 981.668 1042.24C981.668 1033.39 971.929 1026.25 959.977 1026.25C959.867 1026.25 959.756 1026.25 959.645 1026.25C952.618 1033.61 946.697 1042.02 941.994 1051.15C945.867 1055.41 952.507 1058.23 959.977 1058.23Z" fill="#FFFACC"/>
<path d="M984.381 1107.09C988.531 1107.09 991.851 1103.72 991.851 1099.62H976.855C976.855 1103.77 980.231 1107.09 984.326 1107.09H984.381Z" fill="#CCC592"/>
<path d="M999.375 1107.09C1003.52 1107.09 1006.84 1103.72 1006.84 1099.62H991.85C991.85 1103.77 995.225 1107.09 999.32 1107.09H999.375Z" fill="#CCC592"/>
<path d="M1014.37 1107.09C1018.52 1107.09 1021.84 1103.72 1021.84 1099.62H1006.85C1006.85 1103.77 1010.22 1107.09 1014.32 1107.09H1014.37Z" fill="#CCC592"/>
<path d="M1029.37 1107.09C1033.52 1107.09 1036.84 1103.72 1036.84 1099.62H1021.84C1021.84 1103.77 1025.22 1107.09 1029.31 1107.09H1029.37Z" fill="#CCC592"/>
<path d="M1044.36 1107.09C1048.51 1107.09 1051.83 1103.72 1051.83 1099.62H1036.84C1036.84 1103.77 1040.21 1107.09 1044.31 1107.09H1044.36Z" fill="#CCC592"/>
<path d="M1059.36 1107.09C1063.51 1107.09 1066.83 1103.72 1066.83 1099.62H1051.83C1051.83 1103.77 1055.21 1107.09 1059.3 1107.09H1059.36Z" fill="#CCC592"/>
<path d="M1074.35 1107.09C1078.5 1107.09 1081.82 1103.72 1081.82 1099.62H1066.83C1066.83 1103.77 1070.2 1107.09 1074.3 1107.09H1074.35Z" fill="#CCC592"/>
<path d="M1089.35 1107.09C1093.5 1107.09 1096.82 1103.72 1096.82 1099.62H1081.82C1081.82 1103.77 1085.2 1107.09 1089.29 1107.09H1089.35Z" fill="#CCC592"/>
<path d="M1239.41 846.033H0V927.095H1239.41V846.033Z" fill="#006B8C"/>
<path d="M2078.15 1181.96H-3.20898V1248.47H2078.15V1181.96Z" fill="#00728C"/>
</svg>
