<svg width="1139" height="3227" viewBox="0 0 1139 3227" fill="none" xmlns="http://www.w3.org/2000/svg">
<path d="M959.107 437.691C955.647 437.691 952.646 439.587 951.034 442.383H739.419C737.824 439.587 734.807 437.691 731.347 437.691C726.213 437.691 722.059 441.846 722.059 446.98C722.059 452.114 726.213 456.269 731.347 456.269C734.807 456.269 737.808 454.373 739.419 451.577H746.022V834.106L845.227 776.825L944.431 834.106V451.577H951.034C952.63 454.373 955.647 456.269 959.107 456.269C964.241 456.269 968.395 452.114 968.395 446.98C968.395 441.846 964.241 437.691 959.107 437.691ZM934.147 461.845H756.322V451.546H934.147V461.845Z" fill="#07556D"/>
<path d="M876.505 653.892L860.36 653.766L861.182 545.681L846.364 517.088L831.12 545.46L830.299 653.529L814.06 653.402C810.174 653.371 806.999 656.498 806.967 660.385C806.935 664.271 810.063 667.446 813.949 667.478L833.601 667.62L833.332 702.563C828.941 707.365 827.851 714.585 831.136 720.619C835.275 728.202 844.785 730.998 852.367 726.859C859.95 722.72 862.746 713.21 858.607 705.628C858.007 704.522 857.28 703.527 856.474 702.642L856.506 698.535L856.538 695.391L856.569 690.431L856.601 687.287L856.632 682.343L856.664 679.199L856.696 674.144L856.727 671L856.759 667.841L876.426 667.983C880.312 668.015 883.487 664.887 883.519 661.001C883.55 657.115 880.423 653.939 876.536 653.908L876.505 653.892Z" fill="#0E6A7F"/>
<path d="M573.363 846.839H92.5215V241.333C92.5215 108.542 200.161 0.899658 332.95 0.899658C465.738 0.899658 573.378 108.542 573.378 241.333V846.839H573.363Z" fill="#07556D"/>
<path d="M547.503 818.341H118.381V260.795C118.381 138.525 214.442 39.3972 332.934 39.3972C451.426 39.3972 547.487 138.525 547.487 260.795V818.341H547.503Z" fill="#0E6A7F"/>
<path d="M565.181 410.347H349.143V20.8357H316.743V410.347H100.705V442.763H316.743V830.331H349.143V442.763H565.181V410.347Z" fill="#07556D"/>
<path d="M592.825 1228.1L569.809 1066.88C564.865 1032.23 535.198 1006.5 500.208 1006.5H345.146C310.156 1006.5 280.489 1032.23 275.545 1066.88L252.529 1228.1C251.929 1232.27 251.723 1236.4 251.865 1240.44H593.504C593.631 1236.38 593.426 1232.27 592.841 1228.1H592.825Z" fill="#B274AE"/>
<path d="M159.422 1216.11C172.359 1230.43 194.459 1231.55 208.771 1218.59L264.123 1168.55C278.435 1155.61 279.557 1133.51 266.603 1119.2C253.666 1104.89 231.566 1103.76 217.254 1116.72L161.902 1166.76C147.59 1179.7 146.468 1201.8 159.422 1216.11Z" fill="#FFC259"/>
<path d="M180.59 1149.88L227.475 1201.71L334.657 1104.81L287.772 1052.96L180.59 1149.88Z" fill="#B274AE"/>
<path d="M344.656 1103.18L391.352 1112.55L366.266 1060.75L344.656 1103.2V1103.18Z" fill="#F0D1D1"/>
<path d="M367.768 1127.65L401.81 1134.47L383.533 1096.72L367.783 1127.65H367.768Z" fill="#F0D1D1"/>
<path d="M498.803 1103.18L452.107 1112.55L477.193 1060.75L498.803 1103.2V1103.18Z" fill="#F0D1D1"/>
<path d="M475.691 1127.65L441.664 1134.47L459.941 1096.72L475.691 1127.65Z" fill="#F0D1D1"/>
<path d="M431.54 1095.36L437.558 1149.43L476.134 1069.64H369.205L407.781 1149.43L413.8 1095.36H431.54Z" fill="white"/>
<path d="M427.985 1055.63H417.338C412.062 1055.63 407.18 1058.46 404.542 1063.02L399.219 1072.25C396.581 1076.81 396.581 1082.44 399.219 1087L404.542 1096.23C407.18 1100.79 412.062 1103.62 417.338 1103.62H427.985C433.261 1103.62 438.142 1100.81 440.78 1096.23L446.104 1087C448.742 1082.44 448.742 1076.81 446.104 1072.25L440.78 1063.02C438.142 1058.46 433.261 1055.63 427.985 1055.63Z" fill="#004042"/>
<path d="M431.54 1095.36H413.8L407.781 1149.43L417.954 1170.46L422.678 1180.24L427.401 1170.46L437.574 1149.43L431.556 1095.36H431.54Z" fill="#004042"/>
<path d="M451.38 1240.43H424.73V1252.78H451.38V1240.43Z" fill="#F6E972"/>
<path d="M543.665 1240.43H517.016V1252.78H543.665V1240.43Z" fill="#F6E972"/>
<path d="M512.909 1240.43H486.26V1252.78H512.909V1240.43Z" fill="#F6E972"/>
<path d="M328.323 1240.43H301.674V1252.78H328.323V1240.43Z" fill="#F6E972"/>
<path d="M389.85 1240.43H363.201V1252.78H389.85V1240.43Z" fill="#F6E972"/>
<path d="M482.136 1240.43H455.486V1252.78H482.136V1240.43Z" fill="#F6E972"/>
<path d="M420.608 1240.43H393.959V1252.78H420.608V1240.43Z" fill="#F6E972"/>
<path d="M359.079 1240.43H332.43V1252.78H359.079V1240.43Z" fill="#F6E972"/>
<path d="M266.778 1240.43H251.834C251.96 1244.63 252.497 1248.75 253.35 1252.78H266.762V1240.43H266.778Z" fill="#F6E972"/>
<path d="M297.55 1240.43H270.9V1252.78H297.55V1240.43Z" fill="#F6E972"/>
<path d="M578.545 1240.43V1252.78H591.957C592.825 1248.77 593.347 1244.64 593.473 1240.43H578.529H578.545Z" fill="#F6E972"/>
<path d="M574.438 1240.43H547.789V1252.78H574.438V1240.43Z" fill="#F6E972"/>
<path d="M270.9 1240.43H266.777V1252.78H270.9V1240.43Z" fill="#F6E972"/>
<path d="M301.674 1240.43H297.551V1252.78H301.674V1240.43Z" fill="#F6E972"/>
<path d="M332.43 1240.43H328.307V1252.78H332.43V1240.43Z" fill="#F6E972"/>
<path d="M363.201 1240.43H359.078V1252.78H363.201V1240.43Z" fill="#F6E972"/>
<path d="M393.959 1240.43H389.836V1252.78H393.959V1240.43Z" fill="#F6E972"/>
<path d="M424.73 1240.43H420.607V1252.78H424.73V1240.43Z" fill="#F6E972"/>
<path d="M486.26 1240.43H482.137V1252.78H486.26V1240.43Z" fill="#F6E972"/>
<path d="M517.016 1240.43H512.893V1252.78H517.016V1240.43Z" fill="#F6E972"/>
<path d="M455.486 1240.43H451.363V1252.78H455.486V1240.43Z" fill="#F6E972"/>
<path d="M547.789 1240.43H543.666V1252.78H547.789V1240.43Z" fill="#F6E972"/>
<path d="M578.545 1240.43H574.422V1252.78H578.545V1240.43Z" fill="#F6E972"/>
<path d="M422.662 1203.4C427.211 1203.4 430.892 1199.72 430.892 1195.17C430.892 1190.62 427.211 1186.94 422.662 1186.94C418.112 1186.94 414.432 1190.62 414.432 1195.17C414.432 1199.72 418.112 1203.4 422.662 1203.4Z" fill="#004042"/>
<path d="M422.662 1230.14C427.211 1230.14 430.892 1226.46 430.892 1221.91C430.892 1217.36 427.211 1213.68 422.662 1213.68C418.112 1213.68 414.432 1217.36 414.432 1221.91C414.432 1226.46 418.112 1230.14 422.662 1230.14Z" fill="#004042"/>
<path d="M501.898 1139.31H558.483V1166.87C558.483 1182.5 545.814 1195.17 530.191 1195.17C514.568 1195.17 501.898 1182.5 501.898 1166.87V1139.31Z" fill="#A6499B"/>
<path d="M180.59 1149.88L227.475 1201.72L241.187 1189.32L194.302 1137.49L180.59 1149.88Z" fill="#A6499B"/>
<path d="M225.863 623.561C232.687 623.561 238.216 618.032 238.216 611.208C238.216 604.384 232.687 598.854 225.863 598.854C219.039 598.854 213.51 604.384 213.51 611.208C213.51 618.032 219.039 623.561 225.863 623.561Z" fill="#D96892"/>
<path d="M574.168 690.431H277.803L259.1 449.524C259.1 419.493 283.443 395.15 313.472 395.15H538.499C568.529 395.15 592.872 419.493 592.872 449.524L574.168 690.431Z" fill="#B274AE"/>
<path fill-rule="evenodd" clip-rule="evenodd" d="M603.378 587.812V587.781L613.124 600.292L609.617 572.537C617.721 550.215 621.892 526.677 621.971 502.982C625.446 507.121 629.695 512.634 631.275 516.346C629.411 510.201 625.493 499.159 621.797 493.867C621.528 487.421 620.975 480.96 620.106 474.531L619.933 473.22L621.686 474.768C643.217 493.693 657.529 518.668 663.406 545.634C661.763 553.39 658.951 563.137 654.875 568.982C657.435 567.861 661.984 564.101 665.317 556.708C667.513 573.69 666.423 591.225 661.715 608.349L653.059 639.959C649.805 643.466 645.998 647.115 642.617 649.295C644.465 649.469 647.64 649.39 650.705 648.537L650.026 651.001C641.259 682.959 612.224 705.122 579.082 705.122C570.362 685.771 569.92 663.734 577.787 644.114L587.249 668.362L581.689 635.346L603.378 587.797V587.812Z" fill="#A61E00"/>
<path d="M568.119 735.042C567.535 735.042 566.934 734.931 566.35 734.679C564.075 733.699 563.017 731.061 563.996 728.77L578.956 693.859C579.13 693.464 579.367 693.069 579.651 692.721L584.358 686.892C596.332 672.09 606.585 655.788 614.799 638.458C622.539 622.108 628.4 604.921 632.223 587.37C635.793 570.925 637.61 554.069 637.61 537.245V532.222C637.61 529.742 639.616 527.72 642.112 527.72C644.608 527.72 646.614 529.726 646.614 532.222V537.245C646.614 554.717 644.734 572.22 641.022 589.281C637.057 607.496 630.975 625.331 622.934 642.297C614.42 660.29 603.789 677.193 591.356 692.548L586.996 697.934L572.274 732.309C571.547 734.015 569.888 735.042 568.135 735.042H568.119ZM586.633 698.377H586.617C586.617 698.377 586.617 698.377 586.633 698.377ZM587.218 697.397V697.445C587.218 697.445 587.218 697.413 587.218 697.397Z" fill="#CA6E91"/>
<path d="M567.265 493.424L479.023 524.734L523.413 649.816L611.654 618.506L567.265 493.424Z" fill="#FFF9C8"/>
<path d="M534.393 595.632C542.639 595.632 549.321 588.95 549.321 580.704C549.321 572.458 542.639 565.775 534.393 565.775C526.147 565.775 519.465 572.458 519.465 580.704C519.465 588.95 526.147 595.632 534.393 595.632Z" fill="#004042"/>
<path d="M559.588 586.675C567.834 586.675 574.516 579.993 574.516 571.747C574.516 563.501 567.834 556.818 559.588 556.818C551.342 556.818 544.66 563.501 544.66 571.747C544.66 579.993 551.342 586.675 559.588 586.675Z" fill="#004042"/>
<path d="M539.559 571.573C547.805 571.573 554.487 564.89 554.487 556.644C554.487 548.398 547.805 541.716 539.559 541.716C531.313 541.716 524.631 548.398 524.631 556.644C524.631 564.89 531.313 571.573 539.559 571.573Z" fill="#004042"/>
<path d="M547.236 578.255L545.277 604.478L565.308 597.385L547.252 578.255H547.236Z" fill="#004042"/>
<path d="M584.026 687.35H267.962L261.375 635.993C261.375 629.69 266.493 624.588 272.78 624.588H579.208C585.511 624.588 590.613 629.706 590.613 635.993L584.026 687.35Z" fill="#004042"/>
<path d="M309.792 586.169L251.375 687.35H399.36L340.943 586.169C334.024 574.179 316.727 574.179 309.792 586.169Z" fill="#FBAA1F"/>
<path d="M511.044 586.169L452.627 687.35H600.612L542.195 586.169C535.276 574.179 517.979 574.179 511.044 586.169Z" fill="#FBAA1F"/>
<path d="M227.917 619.296L201.615 634.477C203.258 636.578 204.253 639.216 204.253 642.075C204.253 644.635 203.479 646.988 202.152 648.963L227.917 663.844V619.296Z" fill="#AFD7D7"/>
<path d="M276.271 642.075C283.095 642.075 288.624 636.546 288.624 629.722C288.624 622.898 283.095 617.369 276.271 617.369C269.447 617.369 263.918 622.898 263.918 629.722C263.918 636.546 269.447 642.075 276.271 642.075Z" fill="#D96892"/>
<path d="M244.52 616.358H239.371C223.526 616.358 210.699 629.201 210.699 645.03V681.3C210.699 697.129 223.542 709.972 239.371 709.972H244.52C260.365 709.972 273.192 697.129 273.192 681.3V645.03C273.192 629.201 260.349 616.358 244.52 616.358Z" fill="#AFD7D7"/>
<path d="M201.616 634.477L196.056 637.7C193.07 639.422 193.07 643.734 196.056 645.44L202.169 648.963C203.496 647.004 204.27 644.619 204.27 642.075C204.27 639.2 203.275 636.578 201.632 634.477H201.616Z" fill="#D96892"/>
<path d="M232.072 644.161C236.906 644.161 240.823 640.243 240.823 635.409C240.823 630.575 236.906 626.658 232.072 626.658C227.238 626.658 223.32 630.575 223.32 635.409C223.32 640.243 227.238 644.161 232.072 644.161Z" fill="white"/>
<path d="M232.071 641.586C235.483 641.586 238.248 638.821 238.248 635.409C238.248 631.997 235.483 629.232 232.071 629.232C228.659 629.232 225.895 631.997 225.895 635.409C225.895 638.821 228.659 641.586 232.071 641.586Z" fill="#004042"/>
<path d="M251.265 650.811C256.099 650.811 260.017 646.894 260.017 642.06C260.017 637.226 256.099 633.308 251.265 633.308C246.431 633.308 242.514 637.226 242.514 642.06C242.514 646.894 246.431 650.811 251.265 650.811Z" fill="white"/>
<path d="M251.264 648.237C254.677 648.237 257.441 645.472 257.441 642.06C257.441 638.648 254.677 635.883 251.264 635.883C247.852 635.883 245.088 638.648 245.088 642.06C245.088 645.472 247.852 648.237 251.264 648.237Z" fill="#004042"/>
<path d="M659.14 686.529H192.832C166.182 686.529 144.572 708.139 144.572 734.773C144.572 761.407 166.182 783.018 192.832 783.018H659.14C685.789 783.018 707.399 761.407 707.399 734.773C707.399 708.139 685.789 686.529 659.14 686.529Z" fill="#B274AE"/>
<path d="M548.547 720.271H302.384C207.84 720.271 131.193 796.904 131.193 891.45V911.244C131.193 1005.79 207.84 1082.42 302.384 1082.42H548.547C643.091 1082.42 719.738 1005.79 719.738 911.244V891.45C719.738 796.904 643.091 720.271 548.547 720.271Z" fill="#FBAA1F"/>
<path d="M569.494 1086.56C585.464 1075.72 589.619 1053.99 578.766 1038.03L536.841 976.297C526.005 960.326 504.268 956.171 488.298 967.024C472.327 977.877 468.172 999.598 479.025 1015.57L520.95 1077.29C531.786 1093.26 553.523 1097.41 569.494 1086.56Z" fill="#FFC259"/>
<path d="M493.178 1036.39L574.358 1155.93C606.299 1134.24 614.608 1090.78 592.919 1058.84L551.01 997.117L493.193 1036.37L493.178 1036.39Z" fill="#B274AE"/>
<path d="M503.572 1051.13L561.388 1011.87L551.01 996.596L493.193 1035.85L503.572 1051.14V1051.13Z" fill="#A6499B"/>
<path d="M394.305 834.486C394.305 829.683 392.235 824.928 388.239 820.489C384.226 816.05 378.366 812.022 370.957 808.626C363.548 805.229 354.765 802.544 345.098 800.695C335.43 798.863 325.067 797.915 314.594 797.915C304.12 797.915 293.758 798.863 284.09 800.695C274.422 802.528 265.639 805.229 258.231 808.626C250.822 812.022 244.961 816.05 240.949 820.489C236.936 824.928 234.883 829.683 234.883 834.486H394.305Z" fill="#FFF9C8"/>
<path d="M284.629 821.895C284.629 808.657 295.355 797.915 308.609 797.915H321.799C335.037 797.915 345.779 808.641 345.779 821.895V834.486H284.645V821.895H284.629Z" fill="#0D3F41"/>
<path d="M617.863 834.486C617.863 829.683 615.81 824.928 611.813 820.489C607.816 816.05 601.971 812.022 594.594 808.626C587.217 805.229 578.466 802.544 568.83 800.695C559.194 798.863 548.862 797.915 538.436 797.915C528.011 797.915 517.679 798.863 508.043 800.695C498.407 802.528 489.656 805.229 482.279 808.626C474.901 812.022 469.057 816.05 465.06 820.489C461.063 824.928 459.01 829.683 459.01 834.486H617.832H617.863Z" fill="#FFF9C8"/>
<path d="M508.186 821.895C508.186 808.657 518.912 797.915 532.165 797.915H545.956C559.194 797.915 569.936 808.641 569.936 821.895V834.486H508.201V821.895H508.186Z" fill="#0D3F41"/>
<path d="M495.595 883.93C495.595 889.728 466.829 909.696 425.473 909.696C389.724 909.696 352.049 889.712 352.049 883.93C352.049 883.93 389.724 877.643 425.473 877.643C461.221 877.643 499.797 883.93 495.595 883.93Z" fill="#A57421"/>
<path d="M361.938 776.952C361.938 768.01 369.188 760.775 378.114 760.775C387.039 760.775 394.29 768.026 394.29 776.952V793.128H378.114C369.172 793.128 361.938 785.877 361.938 776.952Z" fill="#FFF9C8"/>
<path d="M490.209 881.529C490.209 887.327 461.222 903.108 425.474 903.108C389.726 903.108 360.738 887.327 360.738 881.529C360.738 881.529 389.726 871.04 425.474 871.04C461.222 871.04 494.396 881.529 490.209 881.529Z" fill="white"/>
<path d="M491.393 776.952C491.393 768.01 484.142 760.775 475.217 760.775C466.292 760.775 459.041 768.026 459.041 776.952V793.128H475.217C484.158 793.128 491.393 785.877 491.393 776.952Z" fill="#FFF9C8"/>
<path d="M500.919 884.862C487.949 884.862 474.996 882.904 462.39 878.986C438.347 871.514 412.93 871.514 388.871 878.986C363.66 886.805 337.01 886.805 311.798 878.986L274.155 867.296C272.575 866.806 271.69 865.132 272.18 863.552C272.67 861.972 274.344 861.088 275.924 861.577L313.568 873.267C337.611 880.739 363.044 880.739 387.086 873.267C412.298 865.448 438.947 865.448 464.159 873.267C488.202 880.739 513.635 880.739 537.678 873.267L575.322 861.577C576.902 861.088 578.576 861.972 579.066 863.552C579.556 865.132 578.671 866.806 577.091 867.296L539.447 878.986C526.841 882.904 513.872 884.862 500.919 884.862Z" fill="#A57421"/>
<path d="M438.063 841.373C438.063 848.324 432.424 853.963 425.473 853.963C418.522 853.963 412.883 848.324 412.883 841.373C412.883 834.422 418.522 834.485 425.473 834.485C432.424 834.485 438.063 834.422 438.063 841.373Z" fill="#FECACA"/>
<path d="M210.666 1001.96C236.234 994.465 249.261 962.122 239.762 929.722C230.263 897.322 201.836 877.133 176.268 884.629C150.7 892.125 137.673 924.468 147.172 956.868C156.671 989.268 185.098 1009.46 210.666 1001.96Z" fill="#E37815"/>
<path d="M701.877 956.824C711.376 924.424 698.349 892.081 672.781 884.585C647.213 877.089 618.786 897.278 609.287 929.678C599.788 962.078 612.815 994.421 638.383 1001.92C663.951 1009.41 692.378 989.224 701.877 956.824Z" fill="#E37815"/>
<path d="M310.993 893.551C353.541 893.551 388.034 859.058 388.034 816.508C388.034 773.959 353.541 739.465 310.993 739.465C268.444 739.465 233.951 773.959 233.951 816.508C233.951 859.058 268.444 893.551 310.993 893.551Z" fill="#749BFF" fill-opacity="0.47"/>
<path d="M311.594 901.608C263.682 901.608 224.695 862.62 224.695 814.707C224.695 766.794 263.682 727.807 311.594 727.807C359.506 727.807 398.493 766.794 398.493 814.707C398.493 862.62 359.506 901.608 311.594 901.608ZM311.594 739.781C270.285 739.781 236.669 773.382 236.669 814.707C236.669 856.033 270.269 889.633 311.594 889.633C352.919 889.633 386.518 856.033 386.518 814.707C386.518 773.382 352.919 739.781 311.594 739.781Z" fill="#FCE699"/>
<path d="M266.65 905.794C269.625 905.794 272.037 903.382 272.037 900.407C272.037 897.432 269.625 895.02 266.65 895.02C263.675 895.02 261.264 897.432 261.264 900.407C261.264 903.382 263.675 905.794 266.65 905.794Z" fill="#FCE699"/>
<path d="M257.662 920.185C260.637 920.185 263.049 917.773 263.049 914.798C263.049 911.823 260.637 909.411 257.662 909.411C254.687 909.411 252.275 911.823 252.275 914.798C252.275 917.773 254.687 920.185 257.662 920.185Z" fill="#FCE699"/>
<path d="M246.873 933.96C249.848 933.96 252.26 931.548 252.26 928.573C252.26 925.598 249.848 923.187 246.873 923.187C243.898 923.187 241.486 925.598 241.486 928.573C241.486 931.548 243.898 933.96 246.873 933.96Z" fill="#FCE699"/>
<path d="M233.684 945.95C236.659 945.95 239.07 943.539 239.07 940.564C239.07 937.589 236.659 935.177 233.684 935.177C230.709 935.177 228.297 937.589 228.297 940.564C228.297 943.539 230.709 945.95 233.684 945.95Z" fill="#FCE699"/>
<path d="M218.107 954.339C221.082 954.339 223.494 951.927 223.494 948.952C223.494 945.977 221.082 943.565 218.107 943.565C215.132 943.565 212.721 945.977 212.721 948.952C212.721 951.927 215.132 954.339 218.107 954.339Z" fill="#FCE699"/>
<path d="M201.314 959.741C204.289 959.741 206.701 957.33 206.701 954.355C206.701 951.38 204.289 948.968 201.314 948.968C198.339 948.968 195.928 951.38 195.928 954.355C195.928 957.33 198.339 959.741 201.314 959.741Z" fill="#FCE699"/>
<path d="M183.338 965.128C186.313 965.128 188.725 962.716 188.725 959.741C188.725 956.766 186.313 954.354 183.338 954.354C180.363 954.354 177.951 956.766 177.951 959.741C177.951 962.716 180.363 965.128 183.338 965.128Z" fill="#FCE699"/>
<path d="M165.361 960.942C168.336 960.942 170.748 958.53 170.748 955.555C170.748 952.58 168.336 950.168 165.361 950.168C162.386 950.168 159.975 952.58 159.975 955.555C159.975 958.53 162.386 960.942 165.361 960.942Z" fill="#FCE699"/>
<path d="M151.57 952.553C154.545 952.553 156.957 950.142 156.957 947.167C156.957 944.192 154.545 941.78 151.57 941.78C148.595 941.78 146.184 944.192 146.184 947.167C146.184 950.142 148.595 952.553 151.57 952.553Z" fill="#FCE699"/>
<path opacity="0.24" d="M676.651 779.258C694.012 771.944 706.191 754.788 706.191 734.773C706.191 708.124 684.581 686.529 657.932 686.529H626.764C637.143 677.303 644.947 665.124 648.817 651.017L649.496 648.552C646.432 649.405 643.256 649.484 641.408 649.311C644.789 647.115 648.596 643.466 651.85 639.974L660.507 608.364C665.198 591.24 666.304 573.705 664.108 556.723C660.759 564.101 656.226 567.86 653.666 568.998C657.726 563.153 660.554 553.406 662.197 545.65C656.336 518.684 642.024 493.708 620.477 474.783L618.724 473.235L618.897 474.546C619.766 480.976 620.335 487.421 620.588 493.882C624.284 499.174 628.202 510.201 630.066 516.362C628.486 512.665 624.237 507.136 620.762 502.997C620.667 526.693 616.496 550.215 608.408 572.552L611.915 600.308L602.184 587.796V587.828L600.715 591.035L584.287 544.765L591.68 449.539C591.68 419.509 567.336 395.166 537.307 395.166H312.28C282.25 395.166 257.907 419.509 257.907 449.539L271.003 618.095C267.733 619.249 265.095 621.729 263.736 624.888C258.539 619.628 251.32 616.358 243.327 616.358H238.177C237.387 616.358 236.597 616.421 235.823 616.484C236.582 614.889 237.008 613.103 237.008 611.224C237.008 604.399 231.479 598.87 224.655 598.87C217.831 598.87 212.302 604.399 212.302 611.224C212.302 616.468 215.572 620.923 220.184 622.724C219.774 623.056 219.395 623.403 219.015 623.751L200.422 634.493L194.862 637.716C191.876 639.437 191.876 643.75 194.862 645.456L200.975 648.979L209.506 653.908V681.316C209.506 683.101 209.695 684.839 209.995 686.529H191.639C164.99 686.529 143.38 708.139 143.38 734.773C143.38 754.504 155.228 771.454 172.178 778.927C145.907 809.02 130 848.371 130 891.434V911.228C130 991.43 185.179 1058.74 259.645 1077.32L216.125 1116.65C216.125 1116.65 216.077 1116.69 216.061 1116.7L184.215 1145.5L179.397 1149.86L160.709 1166.75C146.397 1179.69 145.276 1201.79 158.229 1216.1C171.167 1230.41 193.266 1231.53 207.578 1218.58L226.25 1201.69L259.329 1171.79L251.288 1228.07C250.688 1232.24 250.483 1236.37 250.625 1240.41C250.751 1244.61 251.288 1248.73 252.141 1252.76H296.325H577.32H590.732C591.601 1248.75 592.122 1244.63 592.248 1240.41C592.375 1236.35 592.169 1232.24 591.585 1228.07L580.464 1150.16C601.884 1131.03 609.214 1100.78 599.578 1074.25C668.563 1052.17 718.513 987.528 718.513 911.212V891.418C718.513 848.497 702.716 809.273 676.619 779.243L676.651 779.258Z" fill="#004561"/>
<path d="M1125.32 1288.67H-0.285156V3227H1125.32V1288.67Z" fill="#2294AF"/>
<path d="M1138.42 1212.07H-0.285156V1291.91H1138.42V1212.07Z" fill="#006B8C"/>
<path d="M924.669 889.554H795.119V929.442H924.669V889.554Z" fill="#008982"/>
<path d="M834.911 929.442H811.279V942.428H834.911V929.442Z" fill="#00726A"/>
<path d="M908.509 929.442H884.877V942.428H908.509V929.442Z" fill="#00726A"/>
<path d="M801.533 889.554H788.232V929.442H801.533V889.554Z" fill="#00726A"/>
<path d="M670.846 1186.94H590.566V1212.07H670.846V1186.94Z" fill="#00665E"/>
<path d="M940.688 1186.94H860.408V1212.07H940.688V1186.94Z" fill="#00665E"/>
<path d="M961.193 1070.46H570.062V1198.59H961.193V1070.46Z" fill="#008982"/>
<path d="M961.208 942.428H739.072V1070.56H961.208V942.428Z" fill="#008982"/>
<path d="M707.021 1070.42H570.062V1198.59H707.021V1070.42Z" fill="#00726A"/>
<path d="M620.486 1070.42H739.073V942.428L620.486 1070.42Z" fill="#00726A"/>
<path d="M961.193 1070.56H570.062V1075.01H961.193V1070.56Z" fill="#00665E"/>
<path d="M961.193 1178.17H570.062V1182.62H961.193V1178.17Z" fill="#00665E"/>
<path d="M953.169 952.475H873.773V976.107H953.169V952.475Z" fill="#00A599"/>
<path d="M862.177 952.475H828.277V976.107H862.177V952.475Z" fill="#00A599"/>
<path d="M1040.14 1364.46H-0.285156V3226.98H1040.14V1364.46Z" fill="#045A68"/>
<path d="M873.314 176.232H42.209V366.13H873.314V176.232Z" fill="#00728C"/>
<path d="M853.031 195.347H62.4922V347.016H853.031V195.347Z" fill="#B3F4FF"/>
<path d="M660.562 451.025L743.512 348.596H691.461L660.562 451.025Z" fill="#00728C"/>
<path d="M115.839 245.882H120.499V256.466C117.735 258.709 113.864 259.847 110.105 259.847C101.875 259.847 95.8086 254.128 95.8086 246.198C95.8086 238.268 101.875 232.549 110.184 232.549C114.623 232.549 118.335 234.034 120.831 236.878L117.719 239.911C115.634 237.826 113.248 236.878 110.405 236.878C104.75 236.878 100.769 240.701 100.769 246.198C100.769 251.696 104.75 255.518 110.358 255.518C112.253 255.518 114.117 255.139 115.823 254.16V245.898L115.839 245.882Z" fill="black"/>
<path d="M138.239 238.979V243.497C137.828 243.418 137.481 243.386 137.133 243.386C133.531 243.386 131.257 245.503 131.257 249.642V259.468H126.518V239.216H131.035V242.17C132.394 240.053 134.858 238.979 138.239 238.979Z" fill="black"/>
<path d="M161.033 250.843H145.141C145.71 253.797 148.174 255.692 151.697 255.692C153.972 255.692 155.757 254.966 157.194 253.497L159.738 256.419C157.921 258.583 155.078 259.721 151.587 259.721C144.794 259.721 140.402 255.361 140.402 249.326C140.402 243.292 144.841 238.979 150.86 238.979C156.878 238.979 161.096 243.118 161.096 249.437C161.096 249.816 161.065 250.385 161.017 250.843H161.033ZM145.11 247.699H156.594C156.215 244.777 153.972 242.77 150.876 242.77C147.779 242.77 145.568 244.745 145.11 247.699Z" fill="black"/>
<path d="M184.619 250.843H168.727C169.296 253.797 171.76 255.692 175.283 255.692C177.558 255.692 179.343 254.966 180.78 253.497L183.324 256.419C181.507 258.583 178.664 259.721 175.172 259.721C168.38 259.721 163.988 255.361 163.988 249.326C163.988 243.292 168.427 238.979 174.446 238.979C180.464 238.979 184.682 243.118 184.682 249.437C184.682 249.816 184.651 250.385 184.603 250.843H184.619ZM168.68 247.699H180.164C179.785 244.777 177.542 242.77 174.446 242.77C171.35 242.77 169.138 244.745 168.68 247.699Z" fill="black"/>
<path d="M201.41 258.346C200.272 259.262 198.566 259.705 196.86 259.705C192.421 259.705 189.878 257.351 189.878 252.88V243.134H186.545V239.342H189.878V234.714H194.617V239.342H200.035V243.134H194.617V252.77C194.617 254.744 195.597 255.803 197.429 255.803C198.408 255.803 199.356 255.534 200.083 254.966L201.41 258.346Z" fill="black"/>
<path d="M204.664 233.023C204.664 231.428 205.959 230.18 207.697 230.18C209.435 230.18 210.73 231.349 210.73 232.913C210.73 234.587 209.482 235.867 207.697 235.867C205.912 235.867 204.664 234.619 204.664 233.023ZM205.312 239.2H210.051V259.452H205.312V239.2Z" fill="black"/>
<path d="M236.211 247.841V259.436H231.472V248.441C231.472 244.84 229.687 243.102 226.654 243.102C223.274 243.102 220.999 245.156 220.999 249.2V259.436H216.26V239.184H220.778V241.807C222.326 239.943 224.79 238.963 227.76 238.963C232.61 238.963 236.211 241.728 236.211 247.841Z" fill="black"/>
<path d="M262.528 239.2V256.372C262.528 263.733 258.705 267.066 251.612 267.066C247.821 267.066 244.061 266.087 241.755 264.191L243.872 260.621C245.657 262.106 248.532 263.054 251.344 263.054C255.814 263.054 257.789 261 257.789 256.909V255.85C256.114 257.667 253.729 258.536 250.996 258.536C245.199 258.536 240.76 254.587 240.76 248.71C240.76 242.833 245.199 238.963 250.996 238.963C253.84 238.963 256.335 239.879 258.01 241.886V239.2H262.528ZM257.852 248.726C257.852 245.314 255.277 243.007 251.707 243.007C248.137 243.007 245.53 245.314 245.53 248.726C245.53 252.138 248.105 254.523 251.707 254.523C255.309 254.523 257.852 252.17 257.852 248.726Z" fill="black"/>
<path d="M266.43 257.446L268.246 253.844C270.031 255.013 272.764 255.85 275.292 255.85C278.293 255.85 279.541 255.013 279.541 253.607C279.541 249.737 267.03 253.386 267.03 245.298C267.03 241.475 270.474 238.963 275.939 238.963C278.625 238.963 281.705 239.611 283.522 240.701L281.705 244.303C279.778 243.165 277.835 242.786 275.908 242.786C273.033 242.786 271.658 243.734 271.658 245.061C271.658 249.152 284.17 245.519 284.17 253.433C284.17 257.225 280.678 259.689 274.992 259.689C271.611 259.689 268.246 258.71 266.43 257.414V257.446Z" fill="black"/>
<path d="M330.313 239.2L322.841 259.452H318.292L313.063 245.503L307.755 259.452H303.206L295.781 239.2H300.252L305.591 254.144L311.167 239.2H315.148L320.614 254.208L326.111 239.2H330.313Z" fill="black"/>
<path d="M351.955 250.843H336.063C336.632 253.797 339.096 255.692 342.619 255.692C344.894 255.692 346.679 254.966 348.116 253.497L350.66 256.419C348.843 258.583 346 259.721 342.508 259.721C335.716 259.721 331.324 255.361 331.324 249.326C331.324 243.292 335.763 238.979 341.782 238.979C347.8 238.979 352.018 243.118 352.018 249.437C352.018 249.816 351.987 250.385 351.939 250.843H351.955ZM336.032 247.699H347.516C347.137 244.777 344.894 242.77 341.798 242.77C338.701 242.77 336.49 244.745 336.032 247.699Z" fill="black"/>
<path d="M372.964 247.588V259.452H368.493V256.988C367.356 258.725 365.16 259.721 362.127 259.721C357.499 259.721 354.576 257.177 354.576 253.654C354.576 250.132 356.851 247.62 362.996 247.62H368.225V247.32C368.225 244.555 366.55 242.928 363.185 242.928C360.911 242.928 358.557 243.686 357.04 244.934L355.176 241.491C357.341 239.816 360.484 238.995 363.738 238.995C369.583 238.995 372.948 241.759 372.948 247.604L372.964 247.588ZM368.225 253.117V250.764H363.328C360.105 250.764 359.236 251.98 359.236 253.449C359.236 255.155 360.674 256.261 363.106 256.261C365.539 256.261 367.435 255.203 368.225 253.117Z" fill="black"/>
<path d="M390.735 238.979V243.497C390.324 243.418 389.977 243.386 389.629 243.386C386.027 243.386 383.753 245.503 383.753 249.642V259.468H379.014V239.216H383.532V242.17C384.89 240.053 387.354 238.979 390.735 238.979Z" fill="black"/>
<path d="M414.477 239.2L404.999 261.079C403.135 265.66 400.56 267.066 397.196 267.066C395.189 267.066 393.057 266.387 391.777 265.202L393.673 261.711C394.589 262.58 395.869 263.117 397.164 263.117C398.839 263.117 399.818 262.327 400.734 260.305L401.082 259.515L392.251 239.2H397.18L403.546 254.176L409.96 239.2H414.509H414.477Z" fill="black"/>
<path d="M440.054 258.346C438.917 259.262 437.211 259.705 435.505 259.705C431.066 259.705 428.523 257.351 428.523 252.88V243.134H425.189V239.342H428.523V234.714H433.262V239.342H438.68V243.134H433.262V252.77C433.262 254.744 434.241 255.803 436.073 255.803C437.053 255.803 438.001 255.534 438.727 254.966L440.054 258.346Z" fill="black"/>
<path d="M455.676 238.979V243.497C455.266 243.418 454.918 243.386 454.571 243.386C450.969 243.386 448.694 245.503 448.694 249.642V259.468H443.955V239.216H448.473V242.17C449.831 240.053 452.296 238.979 455.676 238.979Z" fill="black"/>
<path d="M476.528 247.588V259.452H472.058V256.988C470.92 258.725 468.725 259.721 465.692 259.721C461.063 259.721 458.141 257.177 458.141 253.654C458.141 250.132 460.415 247.62 466.56 247.62H471.789V247.32C471.789 244.555 470.115 242.928 466.75 242.928C464.475 242.928 462.121 243.686 460.605 244.934L458.741 241.491C460.905 239.816 464.049 238.995 467.303 238.995C473.148 238.995 476.512 241.759 476.512 247.604L476.528 247.588ZM471.789 253.117V250.764H466.892C463.67 250.764 462.801 251.98 462.801 253.449C462.801 255.155 464.238 256.261 466.671 256.261C469.104 256.261 470.999 255.203 471.789 253.117Z" fill="black"/>
<path d="M501.172 239.2L492.484 259.452H487.587L478.898 239.2H483.827L490.114 254.208L496.591 239.2H501.14H501.172Z" fill="black"/>
<path d="M522.514 250.843H506.622C507.191 253.797 509.655 255.692 513.178 255.692C515.452 255.692 517.237 254.966 518.675 253.497L521.218 256.419C519.402 258.583 516.558 259.721 513.067 259.721C506.274 259.721 501.883 255.361 501.883 249.326C501.883 243.292 506.322 238.979 512.34 238.979C518.359 238.979 522.577 243.118 522.577 249.437C522.577 249.816 522.545 250.385 522.498 250.843H522.514ZM506.59 247.699H518.075C517.695 244.777 515.452 242.77 512.356 242.77C509.26 242.77 507.048 244.745 506.59 247.699Z" fill="black"/>
<path d="M527.143 231.317H531.882V259.452H527.143V231.317Z" fill="black"/>
<path d="M557.06 250.843H541.169C541.737 253.797 544.202 255.692 547.724 255.692C549.999 255.692 551.784 254.966 553.222 253.497L555.765 256.419C553.948 258.583 551.105 259.721 547.614 259.721C540.821 259.721 536.43 255.361 536.43 249.326C536.43 243.292 540.869 238.979 546.887 238.979C552.906 238.979 557.124 243.118 557.124 249.437C557.124 249.816 557.092 250.385 557.045 250.843H557.06ZM541.137 247.699H552.621C552.242 244.777 549.999 242.77 546.903 242.77C543.807 242.77 541.595 244.745 541.137 247.699Z" fill="black"/>
<path d="M573.395 238.979V243.497C572.984 243.418 572.637 243.386 572.289 243.386C568.688 243.386 566.413 245.503 566.413 249.642V259.468H561.674V239.216H566.192V242.17C567.55 240.053 570.015 238.979 573.395 238.979Z" fill="black"/>
<path d="M581.846 256.561C581.846 257.399 581.656 258.078 580.977 259.816L579.05 265.155H575.985L577.502 259.357C576.443 258.899 575.717 257.92 575.717 256.545C575.717 254.65 577.044 253.402 578.781 253.402C580.519 253.402 581.846 254.697 581.846 256.545V256.561Z" fill="black"/>
<path d="M618.431 249.326C618.431 255.613 614.071 259.721 608.163 259.721C605.399 259.721 603.045 258.773 601.45 256.845V259.468H596.932V231.333H601.671V241.68C603.298 239.863 605.573 238.995 608.147 238.995C614.055 238.995 618.415 243.055 618.415 249.342L618.431 249.326ZM613.629 249.326C613.629 245.456 611.054 242.991 607.642 242.991C604.23 242.991 601.608 245.456 601.608 249.326C601.608 253.196 604.23 255.661 607.642 255.661C611.054 255.661 613.629 253.196 613.629 249.326Z" fill="black"/>
<path d="M641.906 250.843H626.014C626.583 253.797 629.047 255.692 632.57 255.692C634.845 255.692 636.63 254.966 638.067 253.497L640.611 256.419C638.794 258.583 635.951 259.721 632.46 259.721C625.667 259.721 621.275 255.361 621.275 249.326C621.275 243.292 625.714 238.979 631.733 238.979C637.752 238.979 641.969 243.118 641.969 249.437C641.969 249.816 641.938 250.385 641.89 250.843H641.906ZM625.983 247.699H637.467C637.088 244.777 634.845 242.77 631.749 242.77C628.653 242.77 626.441 244.745 625.983 247.699Z" fill="black"/>
<path d="M666.471 247.841V259.436H661.732V248.441C661.732 244.84 659.947 243.102 656.914 243.102C653.533 243.102 651.259 245.156 651.259 249.2V259.436H646.52V231.302H651.259V241.538C652.807 239.864 655.208 238.963 658.004 238.963C662.854 238.963 666.455 241.728 666.455 247.841H666.471Z" fill="black"/>
<path d="M671.02 249.326C671.02 243.26 675.569 238.979 681.793 238.979C688.017 238.979 692.598 243.26 692.598 249.326C692.598 255.392 688.08 259.721 681.793 259.721C675.506 259.721 671.02 255.392 671.02 249.326ZM687.812 249.326C687.812 245.456 685.237 242.992 681.777 242.992C678.318 242.992 675.79 245.456 675.79 249.326C675.79 253.196 678.365 255.661 681.777 255.661C685.189 255.661 687.812 253.196 687.812 249.326Z" fill="black"/>
<path d="M697.148 231.317H701.887V259.452H697.148V231.317Z" fill="black"/>
<path d="M727.935 231.317V259.452H723.386V256.83C721.79 258.757 719.436 259.705 716.672 259.705C710.795 259.705 706.436 255.613 706.436 249.31C706.436 243.007 710.795 238.963 716.672 238.963C719.294 238.963 721.601 239.832 723.196 241.696V231.302H727.935V231.317ZM723.259 249.326C723.259 245.456 720.637 242.991 717.225 242.991C713.813 242.991 711.19 245.456 711.19 249.326C711.19 253.196 713.813 255.661 717.225 255.661C720.637 255.661 723.259 253.196 723.259 249.326Z" fill="black"/>
<path d="M778.47 247.841V259.436H773.731V248.441C773.731 244.84 772.057 243.102 769.182 243.102C766.07 243.102 763.905 245.156 763.905 249.168V259.436H759.166V248.441C759.166 244.84 757.492 243.102 754.617 243.102C751.473 243.102 749.341 245.156 749.341 249.168V259.436H744.602V239.184H749.119V241.759C750.636 239.942 752.99 238.947 755.754 238.947C758.708 238.947 761.172 240.053 762.578 242.328C764.205 240.243 766.938 238.947 770.161 238.947C775.058 238.947 778.47 241.712 778.47 247.825V247.841Z" fill="black"/>
<path d="M803.112 239.2L793.634 261.079C791.77 265.66 789.195 267.066 785.83 267.066C783.824 267.066 781.692 266.387 780.412 265.202L782.308 261.711C783.224 262.58 784.504 263.117 785.799 263.117C787.473 263.117 788.453 262.327 789.369 260.305L789.716 259.515L780.886 239.2H785.815L792.181 254.176L798.594 239.2H803.144H803.112Z" fill="black"/>
<path d="M116.217 284.696L107.529 304.948H102.632L93.9434 284.696H98.872L105.159 299.703L111.636 284.696H116.185H116.217Z" fill="black"/>
<path d="M135.473 293.084V304.948H131.003V302.484C129.866 304.221 127.67 305.217 124.637 305.217C120.008 305.217 117.086 302.673 117.086 299.151C117.086 295.628 119.361 293.116 125.506 293.116H130.734V292.816C130.734 290.051 129.06 288.424 125.695 288.424C123.42 288.424 121.067 289.183 119.55 290.43L117.686 286.987C119.85 285.312 122.994 284.491 126.248 284.491C132.093 284.491 135.458 287.255 135.458 293.1L135.473 293.084ZM130.734 298.613V296.26H125.837C122.615 296.26 121.746 297.476 121.746 298.945C121.746 300.651 123.184 301.757 125.616 301.757C128.049 301.757 129.945 300.699 130.734 298.613Z" fill="black"/>
<path d="M153.26 284.475V288.993C152.85 288.914 152.502 288.882 152.155 288.882C148.553 288.882 146.278 290.999 146.278 295.138V304.964H141.539V284.712H146.057V287.666C147.416 285.549 149.88 284.475 153.26 284.475Z" fill="black"/>
<path d="M156.627 278.519C156.627 276.924 157.922 275.676 159.66 275.676C161.398 275.676 162.693 276.845 162.693 278.409C162.693 280.083 161.445 281.363 159.66 281.363C157.875 281.363 156.627 280.115 156.627 278.519ZM157.275 284.696H162.014V304.948H157.275V284.696Z" fill="black"/>
<path d="M166.562 294.822C166.562 288.756 171.112 284.475 177.336 284.475C183.56 284.475 188.141 288.756 188.141 294.822C188.141 300.888 183.623 305.217 177.336 305.217C171.049 305.217 166.562 300.888 166.562 294.822ZM183.355 294.822C183.355 290.952 180.78 288.487 177.32 288.487C173.861 288.487 171.333 290.952 171.333 294.822C171.333 298.692 173.908 301.157 177.32 301.157C180.732 301.157 183.355 298.692 183.355 294.822Z" fill="black"/>
<path d="M212.295 284.696V304.948H207.777V302.373C206.261 304.237 203.875 305.216 201.253 305.216C196.056 305.216 192.533 302.373 192.533 296.275V284.712H197.272V295.627C197.272 299.308 199.01 301.046 202.011 301.046C205.313 301.046 207.54 298.992 207.54 294.948V284.712H212.279L212.295 284.696Z" fill="black"/>
<path d="M216.195 302.942L218.012 299.34C219.797 300.509 222.53 301.346 225.057 301.346C228.059 301.346 229.307 300.509 229.307 299.103C229.307 295.233 216.796 298.882 216.796 290.794C216.796 286.971 220.239 284.459 225.705 284.459C228.391 284.459 231.471 285.107 233.288 286.197L231.471 289.798C229.544 288.661 227.601 288.282 225.673 288.282C222.798 288.282 221.424 289.23 221.424 290.557C221.424 294.648 233.935 291.015 233.935 298.929C233.935 302.721 230.444 305.185 224.757 305.185C221.377 305.185 218.012 304.205 216.195 302.91V302.942Z" fill="black"/>
<path d="M260.664 303.842C259.526 304.758 257.82 305.201 256.114 305.201C251.675 305.201 249.132 302.847 249.132 298.376V288.629H245.799V284.838H249.132V280.209H253.871V284.838H259.289V288.629H253.871V298.266C253.871 300.24 254.85 301.299 256.683 301.299C257.662 301.299 258.61 301.03 259.337 300.461L260.664 303.842Z" fill="black"/>
<path d="M276.288 284.475V288.993C275.877 288.914 275.529 288.882 275.182 288.882C271.58 288.882 269.305 290.999 269.305 295.138V304.964H264.566V284.712H269.084V287.666C270.443 285.549 272.907 284.475 276.288 284.475Z" fill="black"/>
<path d="M299.066 296.339H283.175C283.743 299.293 286.208 301.188 289.73 301.188C292.005 301.188 293.79 300.462 295.228 298.992L297.771 301.915C295.954 304.079 293.111 305.217 289.62 305.217C282.827 305.217 278.436 300.857 278.436 294.822C278.436 288.787 282.874 284.475 288.893 284.475C294.912 284.475 299.129 288.614 299.129 294.933C299.129 295.312 299.098 295.88 299.05 296.339H299.066ZM283.143 293.195H294.627C294.248 290.272 292.005 288.266 288.909 288.266C285.813 288.266 283.601 290.241 283.143 293.195Z" fill="black"/>
<path d="M320.077 293.084V304.948H315.606V302.484C314.469 304.221 312.273 305.217 309.24 305.217C304.612 305.217 301.689 302.673 301.689 299.151C301.689 295.628 303.964 293.116 310.109 293.116H315.338V292.816C315.338 290.051 313.663 288.424 310.299 288.424C308.024 288.424 305.67 289.183 304.154 290.43L302.29 286.987C304.454 285.312 307.597 284.491 310.852 284.491C316.696 284.491 320.061 287.255 320.061 293.1L320.077 293.084ZM315.338 298.613V296.26H310.441C307.218 296.26 306.35 297.476 306.35 298.945C306.35 300.651 307.787 301.757 310.22 301.757C312.652 301.757 314.548 300.699 315.338 298.613Z" fill="black"/>
<path d="M323.82 302.942L325.637 299.34C327.422 300.509 330.155 301.346 332.682 301.346C335.684 301.346 336.932 300.509 336.932 299.103C336.932 295.233 324.421 298.882 324.421 290.794C324.421 286.971 327.864 284.459 333.33 284.459C336.015 284.459 339.096 285.107 340.913 286.197L339.096 289.798C337.169 288.661 335.226 288.282 333.298 288.282C330.423 288.282 329.049 289.23 329.049 290.557C329.049 294.648 341.56 291.015 341.56 298.929C341.56 302.721 338.069 305.185 332.382 305.185C329.002 305.185 325.637 304.205 323.82 302.91V302.942Z" fill="black"/>
<path d="M365.272 284.696V304.948H360.754V302.373C359.237 304.237 356.852 305.216 354.23 305.216C349.032 305.216 345.51 302.373 345.51 296.275V284.712H350.249V295.627C350.249 299.308 351.986 301.046 354.988 301.046C358.289 301.046 360.517 298.992 360.517 294.948V284.712H365.256L365.272 284.696Z" fill="black"/>
<path d="M383.2 284.475V288.993C382.789 288.914 382.442 288.882 382.094 288.882C378.492 288.882 376.218 290.999 376.218 295.138V304.964H371.479V284.712H375.996V287.666C377.355 285.549 379.819 284.475 383.2 284.475Z" fill="black"/>
<path d="M405.98 296.339H390.089C390.657 299.293 393.122 301.188 396.644 301.188C398.919 301.188 400.704 300.462 402.142 298.992L404.685 301.915C402.868 304.079 400.025 305.217 396.534 305.217C389.741 305.217 385.35 300.857 385.35 294.822C385.35 288.787 389.789 284.475 395.807 284.475C401.826 284.475 406.044 288.614 406.044 294.933C406.044 295.312 406.012 295.88 405.965 296.339H405.98ZM390.057 293.195H401.541C401.162 290.272 398.919 288.266 395.823 288.266C392.727 288.266 390.515 290.241 390.057 293.195Z" fill="black"/>
<path d="M408.285 302.942L410.102 299.34C411.887 300.509 414.62 301.346 417.147 301.346C420.149 301.346 421.397 300.509 421.397 299.103C421.397 295.233 408.885 298.882 408.885 290.794C408.885 286.971 412.329 284.459 417.795 284.459C420.48 284.459 423.561 285.107 425.377 286.197L423.561 289.798C421.634 288.661 419.691 288.282 417.763 288.282C414.888 288.282 413.514 289.23 413.514 290.557C413.514 294.648 426.025 291.015 426.025 298.929C426.025 302.721 422.534 305.185 416.847 305.185C413.467 305.185 410.102 304.205 408.285 302.91V302.942Z" fill="black"/>
<path d="M428.537 302.057C428.537 300.162 429.943 298.914 431.649 298.914C433.355 298.914 434.761 300.162 434.761 302.057C434.761 303.953 433.355 305.201 431.649 305.201C429.943 305.201 428.537 303.874 428.537 302.057Z" fill="black"/>
<path d="M437.795 302.057C437.795 300.162 439.201 298.914 440.907 298.914C442.613 298.914 444.019 300.162 444.019 302.057C444.019 303.953 442.613 305.201 440.907 305.201C439.201 305.201 437.795 303.874 437.795 302.057Z" fill="black"/>
<path d="M447.035 302.057C447.035 300.162 448.441 298.914 450.147 298.914C451.853 298.914 453.259 300.162 453.259 302.057C453.259 303.953 451.853 305.201 450.147 305.201C448.441 305.201 447.035 303.874 447.035 302.057Z" fill="black"/>
<path d="M1040.14 1661.8H-0.285156V1727.06H1040.14V1661.8Z" fill="#248696"/>
<path d="M1040.14 1727.07H-0.285156V1773.6H1040.14V1727.07Z" fill="#196C75"/>
<path d="M334.421 1474.57H287.283C285.924 1474.57 284.818 1473.2 284.818 1471.51V1440.89H336.869V1471.51C336.869 1473.2 335.763 1474.57 334.405 1474.57H334.421Z" fill="#633A14"/>
<path opacity="0.66" d="M332.241 1456.31H289.463C285.013 1456.31 281.406 1459.92 281.406 1464.37V1469.61C281.406 1474.06 285.013 1477.67 289.463 1477.67H332.241C336.69 1477.67 340.297 1474.06 340.297 1469.61V1464.37C340.297 1459.92 336.69 1456.31 332.241 1456.31Z" fill="#89BEAA"/>
<path opacity="0.66" d="M288.561 1466.75C290.052 1466.75 291.262 1465.54 291.262 1464.05C291.262 1462.56 290.052 1461.35 288.561 1461.35C287.069 1461.35 285.859 1462.56 285.859 1464.05C285.859 1465.54 287.069 1466.75 288.561 1466.75Z" fill="#A6DDC6"/>
<path opacity="0.66" d="M309.429 1461.33H295.764C294.639 1461.33 293.727 1462.25 293.727 1463.37V1464.71C293.727 1465.84 294.639 1466.75 295.764 1466.75H309.429C310.554 1466.75 311.466 1465.84 311.466 1464.71V1463.37C311.466 1462.25 310.554 1461.33 309.429 1461.33Z" fill="#A6DDC6"/>
<path d="M336.885 1440.89C336.885 1438.96 325.227 1437.42 310.852 1437.42C296.476 1437.42 284.818 1438.98 284.818 1440.89C284.818 1442.8 296.476 1444.37 310.852 1444.37C314.327 1444.37 317.644 1444.27 320.693 1444.11L323.442 1453.66L326.317 1443.69C332.73 1443.06 336.885 1442.05 336.885 1440.89Z" fill="#FFB23E"/>
<path d="M368.873 1552.45C369.3 1552.83 369.71 1553.23 370.121 1553.62C369.837 1553.23 369.426 1552.83 368.873 1552.45Z" fill="#89BEAA"/>
<path d="M251.58 1553.62C251.991 1553.23 252.402 1552.83 252.828 1552.45C252.275 1552.83 251.864 1553.23 251.58 1553.62Z" fill="#89BEAA"/>
<path d="M370.121 1553.62C370.39 1554.02 370.532 1554.39 370.532 1554.8C370.532 1560.33 343.804 1564.8 310.852 1564.8C277.883 1564.8 251.171 1560.33 251.171 1554.8C251.171 1554.41 251.313 1554.02 251.582 1553.62C240.429 1564.44 234.11 1580.76 236.164 1598.25L261.123 1673.49C262.513 1677.69 266.446 1680.52 270.87 1680.52H350.849C355.272 1680.52 359.206 1677.69 360.596 1673.49L385.555 1598.25C387.609 1580.78 381.274 1564.46 370.137 1553.62H370.121ZM248.912 1593.46C246.59 1593.46 244.71 1591.58 244.71 1589.26C244.71 1586.94 246.59 1585.06 248.912 1585.06C251.234 1585.06 253.114 1586.94 253.114 1589.26C253.114 1591.58 251.234 1593.46 248.912 1593.46ZM259.527 1581.93C255.989 1581.93 253.114 1579.05 253.114 1575.51C253.114 1571.98 255.989 1569.1 259.527 1569.1C263.066 1569.1 265.941 1571.98 265.941 1575.51C265.941 1579.05 263.066 1581.93 259.527 1581.93Z" fill="#C9345A"/>
<path d="M259.527 1581.93C263.069 1581.93 265.94 1579.06 265.94 1575.52C265.94 1571.97 263.069 1569.1 259.527 1569.1C255.985 1569.1 253.113 1571.97 253.113 1575.52C253.113 1579.06 255.985 1581.93 259.527 1581.93Z" fill="#E5557F"/>
<path d="M252.782 1590.86C253.67 1588.72 252.652 1586.26 250.508 1585.37C248.364 1584.49 245.906 1585.5 245.018 1587.65C244.13 1589.79 245.148 1592.25 247.292 1593.14C249.436 1594.03 251.894 1593.01 252.782 1590.86Z" fill="#E5557F"/>
<path d="M310.851 1564.8C343.819 1564.8 370.531 1560.33 370.531 1554.81C370.531 1554.41 370.389 1554.02 370.12 1553.62C369.71 1553.23 369.299 1552.83 368.872 1552.45C362.569 1548.06 338.985 1544.81 310.851 1544.81C282.716 1544.81 259.132 1548.08 252.829 1552.45C252.402 1552.83 251.991 1553.23 251.581 1553.62C251.312 1554.02 251.17 1554.39 251.17 1554.81C251.17 1560.33 277.898 1564.8 310.851 1564.8Z" fill="#E5557F"/>
<path opacity="0.2" d="M341.749 1530.95H325.605V1477.68H296.096V1530.95H279.952C247.268 1530.95 221.993 1561.76 226.101 1596.6L254.424 1681.97C256.004 1686.74 260.459 1689.95 265.482 1689.95H356.235C361.259 1689.95 365.713 1686.73 367.293 1681.97L395.617 1596.6C399.708 1561.76 374.449 1530.95 341.765 1530.95H341.749Z" fill="#89BEAA"/>
<path d="M39.2245 1483.43H-6.00195V1690.44H39.2245V1483.43Z" fill="#DD5740"/>
<path d="M39.1455 1495.3H-6.00195V1504.32H39.1455V1495.3Z" fill="#FFB23E"/>
<path d="M39.1768 1510.24H-5.9707V1519.26H39.1768V1510.24Z" fill="#FFB23E"/>
<path d="M39.1611 1654.61H-5.98633V1663.63H39.1611V1654.61Z" fill="#FFB23E"/>
<path d="M39.1924 1669.56H-5.95508V1678.58H39.1924V1669.56Z" fill="#FFB23E"/>
<path d="M46.8852 1451.1H39.1289V1690.44H46.8852V1451.1Z" fill="#C9345A"/>
<path d="M84.3402 1451.1H76.584V1690.44H84.3402V1451.1Z" fill="#C9345A"/>
<path d="M76.5831 1456.63H46.8691V1684.93H76.5831V1456.63Z" fill="white"/>
<path d="M195.355 1507.46L185.795 1508.9L212.188 1684.46L221.748 1683.02L195.355 1507.46Z" fill="#A61E00"/>
<path d="M159.318 1512.89L149.133 1514.42L175.526 1689.97L185.711 1688.44L159.318 1512.89Z" fill="#A61E00"/>
<path d="M186.47 1513.35L159.992 1517.33L185.044 1683.97L211.522 1679.99L186.47 1513.35Z" fill="white"/>
<path d="M153.989 1461.74L107.416 1457.95L88.8494 1686.23L135.423 1690.02L153.989 1461.74Z" fill="#3C7C31"/>
<path d="M153.163 1472.01L106.59 1468.23L105.859 1477.22L152.432 1481.01L153.163 1472.01Z" fill="#FFB23E"/>
<path d="M136.995 1670.74L90.4219 1666.95L89.6906 1675.94L136.264 1679.73L136.995 1670.74Z" fill="#FFB23E"/>
<path d="M129.951 1574.63C130.982 1561.95 127.983 1551.36 123.253 1550.98C118.522 1550.59 113.851 1560.56 112.82 1573.23C111.789 1585.91 114.788 1596.5 119.518 1596.89C124.249 1597.27 128.92 1587.31 129.951 1574.63Z" fill="#FFB23E"/>
<path d="M517.142 1505.15H381.826C370.921 1505.15 362.08 1514 362.08 1524.9V1660.22C362.08 1671.13 370.921 1679.97 381.826 1679.97H517.142C528.048 1679.97 536.888 1671.13 536.888 1660.22V1524.9C536.888 1514 528.048 1505.15 517.142 1505.15Z" fill="#DD5740"/>
<path d="M490.809 1474.68H408.16C405.775 1474.68 403.848 1473.23 403.848 1471.44V1439.01H495.122V1471.44C495.122 1473.23 493.195 1474.68 490.809 1474.68Z" fill="#633A14"/>
<path d="M495.122 1439.26C495.122 1437.23 474.681 1435.58 449.485 1435.58C424.273 1435.58 403.848 1437.23 403.848 1439.26C403.848 1441.3 424.289 1442.95 449.485 1442.95C455.582 1442.95 461.411 1442.85 466.735 1442.68L471.569 1452.79L476.608 1442.23C487.84 1441.57 495.122 1440.48 495.122 1439.28V1439.26Z" fill="#FFB23E"/>
<path opacity="0.2" d="M525.529 1493.45H478.249V1479.22H420.686V1493.45H373.406C361.147 1493.45 351.211 1503.39 351.211 1515.64V1667.76C351.211 1680.01 361.147 1689.95 373.406 1689.95H525.514C537.772 1689.95 547.708 1680.01 547.708 1667.76V1515.64C547.708 1503.39 537.772 1493.45 525.514 1493.45H525.529Z" fill="#89BEAA"/>
<path opacity="0.66" d="M490.256 1456.85H408.696C403.985 1456.85 400.166 1460.67 400.166 1465.38V1470.94C400.166 1475.65 403.985 1479.47 408.696 1479.47H490.256C494.967 1479.47 498.786 1475.65 498.786 1470.94V1465.38C498.786 1460.67 494.967 1456.85 490.256 1456.85Z" fill="#89BEAA"/>
<path opacity="0.66" d="M407.748 1467.92C409.336 1467.92 410.623 1466.63 410.623 1465.05C410.623 1463.46 409.336 1462.17 407.748 1462.17C406.16 1462.17 404.873 1463.46 404.873 1465.05C404.873 1466.63 406.16 1467.92 407.748 1467.92Z" fill="#A6DDC6"/>
<path opacity="0.66" d="M429.849 1462.17H415.379C414.184 1462.17 413.215 1463.14 413.215 1464.33V1465.74C413.215 1466.94 414.184 1467.9 415.379 1467.9H429.849C431.044 1467.9 432.013 1466.94 432.013 1465.74V1464.33C432.013 1463.14 431.044 1462.17 429.849 1462.17Z" fill="#A6DDC6"/>
<path d="M381.622 1538.23C386.402 1538.23 390.278 1534.36 390.278 1529.58C390.278 1524.8 386.402 1520.92 381.622 1520.92C376.841 1520.92 372.965 1524.8 372.965 1529.58C372.965 1534.36 376.841 1538.23 381.622 1538.23Z" fill="#F47160"/>
<path d="M372.965 1551.91C375.356 1551.91 377.293 1549.98 377.293 1547.59C377.293 1545.2 375.356 1543.26 372.965 1543.26C370.575 1543.26 368.637 1545.2 368.637 1547.59C368.637 1549.98 370.575 1551.91 372.965 1551.91Z" fill="#F47160"/>
<path d="M513.004 1663.58C515.395 1663.58 517.332 1661.65 517.332 1659.26C517.332 1656.87 515.395 1654.93 513.004 1654.93C510.614 1654.93 508.676 1656.87 508.676 1659.26C508.676 1661.65 510.614 1663.58 513.004 1663.58Z" fill="#F47160"/>
<path d="M596.995 1613.14C604.672 1610.25 609.837 1600.92 606.725 1593.32C604.593 1588.12 599.096 1583.22 601.26 1578.04C603.266 1573.24 609.869 1573.18 615.05 1573.34C619.237 1573.48 623.423 1573.26 627.577 1572.67C629.552 1572.4 631.574 1572.02 633.312 1571.04C638.951 1567.9 639.583 1560.19 639.551 1553.73C639.551 1551.76 639.504 1549.7 638.572 1547.96C636.582 1544.3 631.716 1543.7 627.609 1542.94C622.886 1542.07 618.178 1540.32 614.608 1537.16C592.398 1553.92 577.691 1580.11 576.49 1609.8C582.477 1613.9 590.234 1615.67 596.995 1613.13V1613.14Z" fill="#A068A5"/>
<path d="M761.125 1577.54H641.242V1590.52L652.806 1597.19L641.969 1603.44L648.967 1607.49L641.258 1611.94V1636.22L650.389 1641.5L641.258 1646.78V1658.53H757.16C764.221 1645.16 768.249 1629.94 768.249 1613.78C768.249 1600.95 765.722 1588.72 761.14 1577.55L761.125 1577.54Z" fill="#F5EA83"/>
<path d="M724.555 1540.78C726.435 1545.12 729.784 1548.87 730.763 1553.49C731.995 1559.32 729.199 1565.26 729.278 1571.22C729.31 1573.4 729.784 1575.53 730.589 1577.54H761.109C753.558 1559.07 740.415 1543.48 723.781 1532.86C723.149 1535.37 723.497 1538.36 724.539 1540.78H724.555Z" fill="#A068A5"/>
<path d="M693.198 1671.51C688.617 1677.3 680.892 1679.7 673.531 1680.05C666.169 1680.39 658.84 1679.02 651.478 1678.72C644.607 1678.45 637.688 1679.11 631.005 1680.72C627.767 1681.5 624.513 1682.53 621.812 1684.47C619.316 1686.25 617.452 1688.72 616.141 1691.48C631.938 1702.92 651.32 1709.68 672.314 1709.68C709.105 1709.68 741.047 1688.94 757.128 1658.53H699.153C697.526 1663.06 696.136 1667.82 693.198 1671.53V1671.51Z" fill="#A068A5"/>
<path d="M621.828 1684.45C624.545 1682.51 627.784 1681.5 631.022 1680.71C637.704 1679.1 644.623 1678.43 651.495 1678.7C658.856 1679 666.186 1680.38 673.547 1680.03C680.909 1679.68 688.633 1677.26 693.214 1671.5C696.153 1667.79 697.559 1663.05 699.17 1658.5H641.227V1646.74L650.357 1641.47L641.227 1636.19V1611.91L648.936 1607.46L641.938 1603.41L652.774 1597.16L641.211 1590.49V1577.51H730.574C729.768 1575.5 729.294 1573.37 729.263 1571.19C729.184 1565.23 731.98 1559.29 730.748 1553.46C729.768 1548.83 726.419 1545.09 724.54 1540.75C723.497 1538.33 723.149 1535.34 723.781 1532.83C716.499 1528.19 708.553 1524.49 700.118 1521.95V1476.64H709.959V1458.36H634.655V1476.64H644.497V1521.95C633.581 1525.25 623.487 1530.45 614.593 1537.16C618.148 1540.32 622.871 1542.07 627.594 1542.94C631.701 1543.7 636.567 1544.3 638.557 1547.96C639.489 1549.7 639.537 1551.76 639.537 1553.73C639.584 1560.19 638.936 1567.89 633.297 1571.04C631.543 1572.02 629.537 1572.39 627.563 1572.67C623.424 1573.24 619.222 1573.46 615.036 1573.34C609.838 1573.16 603.235 1573.24 601.245 1578.04C599.081 1583.22 604.578 1588.12 606.711 1593.32C609.823 1600.92 604.657 1610.25 596.98 1613.14C590.235 1615.69 582.478 1613.93 576.475 1609.81C576.428 1611.12 576.396 1612.43 576.396 1613.76C576.396 1645.73 592.067 1674.04 616.126 1691.47C617.437 1688.69 619.301 1686.24 621.797 1684.45H621.828Z" fill="#A977AB"/>
<path d="M620.469 1674.96C622.851 1674.96 624.781 1673.03 624.781 1670.65C624.781 1668.26 622.851 1666.33 620.469 1666.33C618.087 1666.33 616.156 1668.26 616.156 1670.65C616.156 1673.03 618.087 1674.96 620.469 1674.96Z" fill="#A068A5"/>
<path d="M634.718 1675.32C636.349 1675.32 637.672 1674 637.672 1672.37C637.672 1670.74 636.349 1669.41 634.718 1669.41C633.086 1669.41 631.764 1670.74 631.764 1672.37C631.764 1674 633.086 1675.32 634.718 1675.32Z" fill="#A068A5"/>
<path d="M621.702 1591.27C623.726 1591.27 625.367 1589.62 625.367 1587.6C625.367 1585.58 623.726 1583.94 621.702 1583.94C619.678 1583.94 618.037 1585.58 618.037 1587.6C618.037 1589.62 619.678 1591.27 621.702 1591.27Z" fill="#A068A5"/>
<path d="M718.9 1559.54C721.648 1559.54 723.876 1557.32 723.876 1554.57C723.876 1551.82 721.648 1549.59 718.9 1549.59C716.152 1549.59 713.924 1551.82 713.924 1554.57C713.924 1557.32 716.152 1559.54 718.9 1559.54Z" fill="#A068A5"/>
<path d="M711.317 1569.95C712.757 1569.95 713.924 1568.79 713.924 1567.35C713.924 1565.91 712.757 1564.74 711.317 1564.74C709.878 1564.74 708.711 1565.91 708.711 1567.35C708.711 1568.79 709.878 1569.95 711.317 1569.95Z" fill="#A068A5"/>
<path d="M701.381 1444.18H644.086V1458.38H701.381V1444.18Z" fill="#633A14"/>
<path d="M995.676 1581.88H795.814L806.351 1648.7H985.14L995.676 1581.88Z" fill="#BF3C2B"/>
<path d="M812.86 1689.95H978.632L981.681 1670.57H809.795L812.86 1689.95Z" fill="#BF3C2B"/>
<path d="M806.352 1648.7L809.795 1670.57H981.681L985.141 1648.7H806.352Z" fill="#FFB23E"/>
<path d="M989.689 1572.72H801.785C795.835 1572.72 791.012 1577.54 791.012 1583.49V1611.03C791.012 1616.98 795.835 1621.8 801.785 1621.8H989.689C995.639 1621.8 1000.46 1616.98 1000.46 1611.03V1583.49C1000.46 1577.54 995.639 1572.72 989.689 1572.72Z" fill="#DD5740"/>
<path d="M931.241 1540.64H860.771V1572.72H931.241V1540.64Z" fill="#FFFACC"/>
<path d="M1005.47 1520.27C994.081 1471.32 950.719 1434.65 898.589 1433.47C898.573 1444.54 889.6 1453.5 878.527 1453.5C869.57 1453.5 861.987 1447.64 859.412 1439.53C842.162 1445.47 826.824 1455.49 814.534 1468.43C814.66 1468.43 814.771 1468.43 814.897 1468.43C827.534 1468.43 837.787 1475.98 837.787 1485.3C837.787 1494.62 827.534 1502.17 814.897 1502.17C806.983 1502.17 800.016 1499.22 795.909 1494.71C791.818 1502.72 788.643 1511.27 786.557 1520.26C783.524 1533.32 793.382 1545.82 806.793 1545.82H985.266C998.678 1545.82 1008.54 1533.32 1005.5 1520.26L1005.47 1520.27ZM881.591 1534.11C873.235 1534.11 866.458 1529.12 866.458 1522.96C866.458 1516.8 873.235 1511.81 881.591 1511.81C889.948 1511.81 896.725 1516.8 896.725 1522.96C896.725 1529.12 889.948 1534.11 881.591 1534.11ZM943.957 1518.28C930.751 1518.28 920.041 1510.38 920.041 1500.65C920.041 1490.92 930.751 1483.02 943.957 1483.02C957.164 1483.02 967.874 1490.92 967.874 1500.65C967.874 1510.38 957.164 1518.28 943.957 1518.28Z" fill="#C9345A"/>
<path d="M878.513 1453.51C889.586 1453.51 898.559 1444.54 898.575 1433.48C897.722 1433.47 896.853 1433.45 896 1433.45C883.189 1433.45 870.867 1435.6 859.398 1439.55C861.989 1447.65 869.556 1453.51 878.513 1453.51Z" fill="#FFFACC"/>
<path d="M943.958 1518.28C957.166 1518.28 967.874 1510.39 967.874 1500.65C967.874 1490.92 957.166 1483.02 943.958 1483.02C930.749 1483.02 920.041 1490.92 920.041 1500.65C920.041 1510.39 930.749 1518.28 943.958 1518.28Z" fill="#FFFACC"/>
<path d="M881.592 1534.1C889.95 1534.1 896.726 1529.1 896.726 1522.94C896.726 1516.78 889.95 1511.79 881.592 1511.79C873.234 1511.79 866.459 1516.78 866.459 1522.94C866.459 1529.1 873.234 1534.1 881.592 1534.1Z" fill="#FFFACC"/>
<path d="M814.882 1502.19C827.52 1502.19 837.772 1494.63 837.772 1485.31C837.772 1475.99 827.52 1468.44 814.882 1468.44C814.756 1468.44 814.645 1468.44 814.519 1468.44C807.126 1476.23 800.839 1485.08 795.895 1494.73C800.002 1499.23 806.984 1502.19 814.882 1502.19Z" fill="#FFFACC"/>
<path d="M840.631 1553.75C845.007 1553.75 848.545 1550.21 848.545 1545.83H832.732C832.732 1550.21 836.271 1553.75 840.647 1553.75H840.631Z" fill="#CCC592"/>
<path d="M856.459 1553.75C860.835 1553.75 864.373 1550.21 864.373 1545.83H848.561C848.561 1550.21 852.099 1553.75 856.475 1553.75H856.459Z" fill="#CCC592"/>
<path d="M872.271 1553.75C876.647 1553.75 880.186 1550.21 880.186 1545.83H864.373C864.373 1550.21 867.912 1553.75 872.287 1553.75H872.271Z" fill="#CCC592"/>
<path d="M888.1 1553.75C892.475 1553.75 896.014 1550.21 896.014 1545.83H880.201C880.201 1550.21 883.74 1553.75 888.115 1553.75H888.1Z" fill="#CCC592"/>
<path d="M903.912 1553.75C908.288 1553.75 911.826 1550.21 911.826 1545.83H896.014C896.014 1550.21 899.552 1553.75 903.928 1553.75H903.912Z" fill="#CCC592"/>
<path d="M919.727 1553.75C924.102 1553.75 927.641 1550.21 927.641 1545.83H911.828C911.828 1550.21 915.367 1553.75 919.742 1553.75H919.727Z" fill="#CCC592"/>
<path d="M935.555 1553.75C939.93 1553.75 943.469 1550.21 943.469 1545.83H927.656C927.656 1550.21 931.195 1553.75 935.57 1553.75H935.555Z" fill="#CCC592"/>
<path d="M951.367 1553.75C955.743 1553.75 959.281 1550.21 959.281 1545.83H943.469C943.469 1550.21 947.007 1553.75 951.383 1553.75H951.367Z" fill="#CCC592"/>
<path d="M1040.14 2144.53H-0.285156V2209.79H1040.14V2144.53Z" fill="#248696"/>
<path d="M1040.14 2209.8H-0.285156V2256.33H1040.14V2209.8Z" fill="#196C75"/>
<path d="M516.178 2007.63H339.712C334.625 2007.63 330.502 2005.86 330.502 2003.68V1964.17H525.388V2003.68C525.388 2005.86 521.265 2007.63 516.178 2007.63Z" fill="#633A14"/>
<path d="M525.388 1964.28C525.388 1962.39 481.757 1960.86 427.953 1960.86C374.149 1960.86 330.518 1962.39 330.518 1964.28C330.518 1966.18 374.149 1967.71 427.953 1967.71C440.985 1967.71 453.401 1967.62 464.775 1967.46L475.091 1976.86L485.864 1967.03C509.844 1966.42 525.404 1965.41 525.404 1964.28H525.388Z" fill="#FFB23E"/>
<path d="M536.414 2038.44H319.302C291.305 2038.44 268.609 2061.13 268.609 2089.13V2115.53C268.609 2143.52 291.305 2166.22 319.302 2166.22H536.414C564.41 2166.22 587.106 2143.52 587.106 2115.53V2089.13C587.106 2061.13 564.41 2038.44 536.414 2038.44Z" fill="#3C7C31"/>
<path opacity="0.66" d="M521.233 2013.21H334.482C328.653 2013.21 323.914 2009.81 323.914 2005.63V1986.56C323.914 1982.37 328.637 1978.98 334.482 1978.98H521.233C527.062 1978.98 531.801 1982.37 531.801 1986.56V2005.63C531.801 2009.81 527.078 2013.21 521.233 2013.21Z" fill="#89BEAA"/>
<path opacity="0.66" d="M335.383 1995.72C337.782 1995.72 339.727 1993.78 339.727 1991.38C339.727 1988.98 337.782 1987.03 335.383 1987.03C332.984 1987.03 331.039 1988.98 331.039 1991.38C331.039 1993.78 332.984 1995.72 335.383 1995.72Z" fill="#A6DDC6"/>
<path opacity="0.66" d="M413.293 1987.03H348.004C345.605 1987.03 343.66 1988.97 343.66 1991.37C343.66 1993.76 345.605 1995.7 348.004 1995.7H413.293C415.692 1995.7 417.637 1993.76 417.637 1991.37C417.637 1988.97 415.692 1987.03 413.293 1987.03Z" fill="#A6DDC6"/>
<path opacity="0.2" d="M547.283 2024.98H510.603V2013.21H345.131V2024.98H308.45C277.647 2024.98 252.688 2052.45 252.688 2086.35V2118.31C252.688 2152.21 277.647 2179.68 308.45 2179.68H547.299C578.103 2179.68 603.062 2152.21 603.062 2118.31V2086.35C603.062 2052.45 578.103 2024.98 547.299 2024.98H547.283Z" fill="#89BEAA"/>
<path d="M311.578 2074.52C316.333 2074.52 320.187 2070.66 320.187 2065.91C320.187 2061.15 316.333 2057.3 311.578 2057.3C306.823 2057.3 302.969 2061.15 302.969 2065.91C302.969 2070.66 306.823 2074.52 311.578 2074.52Z" fill="#65A058"/>
<path d="M297.818 2089.4C301.491 2089.4 304.469 2086.42 304.469 2082.75C304.469 2079.07 301.491 2076.1 297.818 2076.1C294.145 2076.1 291.168 2079.07 291.168 2082.75C291.168 2086.42 294.145 2089.4 297.818 2089.4Z" fill="#65A058"/>
<path d="M192.959 1987.33C193.923 1988 194.476 1988.75 194.602 1989.61C195.582 1996.23 169.201 2005.59 135.696 2010.55C102.175 2015.51 74.2141 2014.17 73.2347 2007.55C73.1241 2006.78 73.3927 2005.96 73.993 2005.12C58.7806 2021.94 49.5078 2044.23 49.5078 2068.7C49.5078 2121.06 91.954 2163.5 144.305 2163.5C196.656 2163.5 239.102 2121.06 239.102 2068.7C239.102 2034.14 220.604 2003.89 192.959 1987.33Z" fill="#0D3F41"/>
<path d="M191.885 1986.7C192.248 1986.91 192.596 1987.11 192.943 1987.33C192.627 1987.11 192.28 1986.91 191.885 1986.7Z" fill="white"/>
<path d="M73.9922 2005.12C74.4187 2004.65 74.861 2004.17 75.2875 2003.71C74.7504 2004.19 74.3239 2004.66 73.9922 2005.12Z" fill="white"/>
<path d="M73.2351 2007.54C74.2145 2014.16 102.175 2015.5 135.696 2010.54C169.217 2005.58 195.582 1996.21 194.603 1989.59C194.476 1988.75 193.907 1988 192.96 1987.32C192.612 1987.11 192.249 1986.89 191.901 1986.68C184.019 1982.69 160.007 1982.47 132.157 1986.57C104.734 1990.63 82.0971 1997.65 75.3045 2003.68C74.8622 2004.14 74.4357 2004.61 74.0091 2005.09C73.4089 2005.93 73.1403 2006.75 73.2509 2007.52L73.2351 2007.54Z" fill="#156D6D"/>
<path d="M231.677 1956.86L183.244 1933.05C181.854 1932.37 181.412 1930.4 182.265 1928.68L197.73 1897.22L251.202 1923.51L235.737 1954.96C234.884 1956.7 233.067 1957.55 231.662 1956.86H231.677Z" fill="#633A14"/>
<path d="M251.218 1923.5C252.181 1921.52 240.997 1914.03 226.227 1906.78C211.457 1899.53 198.709 1895.23 197.73 1897.21C196.75 1899.18 207.95 1906.67 222.72 1913.92C226.29 1915.68 229.75 1917.26 232.957 1918.63L230.966 1929.83L238.959 1921.05C245.863 1923.64 250.649 1924.68 251.218 1923.51V1923.5Z" fill="#FFB23E"/>
<path opacity="0.2" d="M209.766 1985.25L222.862 1958.6L185.976 1940.48L172.881 1967.13C123.847 1953.73 70.6432 1976.5 47.406 2023.79C21.0568 2077.41 43.1566 2142.22 96.7712 2168.57C150.386 2194.92 215.2 2172.82 241.55 2119.21C264.803 2071.89 250.317 2015.88 209.766 1985.25Z" fill="#89BEAA"/>
<path opacity="0.66" d="M236.968 1938.29L193.67 1917.02C188.917 1914.68 183.171 1916.64 180.836 1921.39L178.509 1926.13C176.173 1930.88 178.132 1936.63 182.885 1938.96L226.183 1960.24C230.936 1962.58 236.683 1960.62 239.018 1955.86L241.345 1951.13C243.681 1946.38 241.721 1940.63 236.968 1938.29Z" fill="#89BEAA"/>
<path opacity="0.66" d="M188.393 1927.4C190.103 1927.4 191.489 1926.01 191.489 1924.3C191.489 1922.59 190.103 1921.21 188.393 1921.21C186.683 1921.21 185.297 1922.59 185.297 1924.3C185.297 1926.01 186.683 1927.4 188.393 1927.4Z" fill="#A6DDC6"/>
<path opacity="0.66" d="M210.618 1931.76L197.943 1925.54C196.408 1924.78 194.553 1925.41 193.799 1926.95C193.044 1928.48 193.677 1930.34 195.212 1931.09L207.887 1937.32C209.421 1938.08 211.277 1937.44 212.031 1935.91C212.785 1934.37 212.152 1932.52 210.618 1931.76Z" fill="#A6DDC6"/>
<path d="M72.2862 2038.21C75.0169 2038.21 77.2306 2036 77.2306 2033.27C77.2306 2030.54 75.0169 2028.33 72.2862 2028.33C69.5555 2028.33 67.3418 2030.54 67.3418 2033.27C67.3418 2036 69.5555 2038.21 72.2862 2038.21Z" fill="#156D6D"/>
<path d="M64.2139 2048.91C65.95 2048.91 67.3575 2047.5 67.3575 2045.77C67.3575 2044.03 65.95 2042.62 64.2139 2042.62C62.4777 2042.62 61.0703 2044.03 61.0703 2045.77C61.0703 2047.5 62.4777 2048.91 64.2139 2048.91Z" fill="#156D6D"/>
<path d="M850.392 1879.17H779.765C777.727 1879.17 776.084 1877.12 776.084 1874.59V1828.7H854.089V1874.59C854.089 1877.12 852.446 1879.17 850.408 1879.17H850.392Z" fill="#633A14"/>
<path d="M940.578 1980.71H699.502C687.907 1980.71 678.508 1990.11 678.508 2001.71V2076.63C678.508 2088.23 687.907 2097.63 699.502 2097.63H940.578C952.173 2097.63 961.572 2088.23 961.572 2076.63V2001.71C961.572 1990.11 952.173 1980.71 940.578 1980.71Z" fill="#C9345A"/>
<path d="M710.875 2007.08C714.845 2007.08 718.063 2003.86 718.063 1999.89C718.063 1995.92 714.845 1992.7 710.875 1992.7C706.906 1992.7 703.688 1995.92 703.688 1999.89C703.688 2003.86 706.906 2007.08 710.875 2007.08Z" fill="#E85B83"/>
<path d="M698.411 2020.36C701.325 2020.36 703.687 2018 703.687 2015.09C703.687 2012.17 701.325 2009.81 698.411 2009.81C695.497 2009.81 693.135 2012.17 693.135 2015.09C693.135 2018 695.497 2020.36 698.411 2020.36Z" fill="#E85B83"/>
<path d="M944.637 2066.68C947.551 2066.68 949.914 2064.32 949.914 2061.41C949.914 2058.49 947.551 2056.13 944.637 2056.13C941.723 2056.13 939.361 2058.49 939.361 2061.41C939.361 2064.32 941.723 2066.68 944.637 2066.68Z" fill="#E85B83"/>
<path d="M939.361 2075.43C940.914 2075.43 942.173 2074.17 942.173 2072.62C942.173 2071.07 940.914 2069.81 939.361 2069.81C937.808 2069.81 936.549 2071.07 936.549 2072.62C936.549 2074.17 937.808 2075.43 939.361 2075.43Z" fill="#E85B83"/>
<path opacity="0.2" d="M960.402 1971.39H892.854C859.997 1971.39 833.363 1944.76 833.363 1911.9C833.363 1901.74 835.922 1892.19 840.409 1883.81H791.249C795.735 1892.19 798.294 1901.74 798.294 1911.9C798.294 1944.76 771.661 1971.39 738.803 1971.39H679.691C673.151 1971.39 667.859 1976.69 667.859 1983.23V2095.13C667.859 2101.67 673.151 2106.96 679.691 2106.96H960.402C966.942 2106.96 972.234 2101.67 972.234 2095.13V1983.23C972.234 1976.69 966.942 1971.39 960.402 1971.39Z" fill="#89BEAA"/>
<path opacity="0.66" d="M849.62 1851.81H780.54C775.244 1851.81 770.951 1856.1 770.951 1861.4V1874.22C770.951 1879.52 775.244 1883.81 780.54 1883.81H849.62C854.915 1883.81 859.208 1879.52 859.208 1874.22V1861.4C859.208 1856.1 854.915 1851.81 849.62 1851.81Z" fill="#89BEAA"/>
<path opacity="0.66" d="M781.693 1867.46C783.935 1867.46 785.752 1865.65 785.752 1863.4C785.752 1861.16 783.935 1859.34 781.693 1859.34C779.45 1859.34 777.633 1861.16 777.633 1863.4C777.633 1865.65 779.45 1867.46 781.693 1867.46Z" fill="#A6DDC6"/>
<path opacity="0.66" d="M811.944 1859.34H793.478C791.236 1859.34 789.418 1861.16 789.418 1863.4C789.418 1865.65 791.236 1867.46 793.478 1867.46H811.944C814.186 1867.46 816.004 1865.65 816.004 1863.4C816.004 1861.16 814.186 1859.34 811.944 1859.34Z" fill="#A6DDC6"/>
<path d="M854.073 1828.7C854.073 1825.82 836.618 1823.48 815.071 1823.48C793.524 1823.48 776.068 1825.82 776.068 1828.7C776.068 1831.57 793.524 1833.91 815.071 1833.91C820.284 1833.91 825.26 1833.77 829.809 1833.53L833.932 1847.83L838.245 1832.9C847.849 1831.95 854.073 1830.43 854.073 1828.71V1828.7Z" fill="#FFB23E"/>
<path d="M844.611 1883.81H785.562V1903.23H844.611V1883.81Z" fill="#A977AB"/>
<path d="M894.986 1907.32L839.938 1891.43L837.046 1901.45L892.094 1917.34L894.986 1907.32Z" fill="#A977AB"/>
<path d="M872.48 1936.72L839.168 1890.1L830.685 1896.17L863.997 1942.78L872.48 1936.72Z" fill="#A977AB"/>
<path d="M990.053 2106.95H639.473V2119.98H988.078V2150.6H639.473V2163.63H990.053C997.588 2163.63 1003.7 2157.52 1003.7 2149.98V2120.6C1003.7 2113.06 997.588 2106.95 990.053 2106.95Z" fill="#DD5740"/>
<path d="M988.094 2119.98H650.373V2150.6H988.094V2119.98Z" fill="white"/>
<path d="M1040.14 2619.72H-0.285156V2684.98H1040.14V2619.72Z" fill="#248696"/>
<path d="M1040.14 2684.98H-0.285156V2731.51H1040.14V2684.98Z" fill="#196C75"/>
<path d="M1040.14 3118.66H-0.285156V3183.92H1040.14V3118.66Z" fill="#248696"/>
<path d="M383.563 2946H337.373V3157.48H383.563V2946Z" fill="#DD5740"/>
<path d="M383.517 2958.12H337.391V2967.34H383.517V2958.12Z" fill="#FFB23E"/>
<path d="M383.549 2973.39H337.422V2982.62H383.549V2973.39Z" fill="#FFB23E"/>
<path d="M383.533 3120.88H337.406V3130.1H383.533V3120.88Z" fill="#FFB23E"/>
<path d="M383.564 3136.15H337.438V3145.38H383.564V3136.15Z" fill="#FFB23E"/>
<path d="M391.399 2912.97H383.484V3157.48H391.399V2912.97Z" fill="#C9345A"/>
<path d="M429.676 2912.97H421.762V3157.48H429.676V2912.97Z" fill="#C9345A"/>
<path d="M421.76 2918.61H391.398V3151.84H421.76V2918.61Z" fill="white"/>
<path d="M302.067 2889.15C295.622 2886.82 288.498 2890.17 286.176 2896.62C286.128 2896.76 286.081 2896.92 286.033 2897.06C266.54 2900.22 252.765 2918.28 255.087 2938.07L258.752 2937.64C256.714 2920.2 268.515 2904.3 285.433 2900.93C285.481 2905.97 288.608 2910.69 293.632 2912.51L339.411 2928.99L347.815 2905.62L302.036 2889.15H302.067ZM301.625 2902.18C300.882 2904.23 298.624 2905.29 296.57 2904.55C294.516 2903.81 293.458 2901.55 294.2 2899.49C294.943 2897.44 297.202 2896.38 299.255 2897.12C301.309 2897.87 302.367 2900.13 301.625 2902.18Z" fill="#FFB23E"/>
<path d="M259.922 3056.37C259.922 3056.37 259.89 3056.41 259.874 3056.42L244.851 3043.26L239.275 3038.38L234.394 3034.12C234.394 3034.12 234.425 3034.09 234.441 3034.07C236.337 3031.91 236.116 3028.6 233.952 3026.69C231.787 3024.78 228.486 3025.02 226.574 3027.18C225.484 3028.43 225.089 3030.06 225.374 3031.57C223.842 3031.49 222.278 3032.09 221.188 3033.34C219.292 3035.51 219.513 3038.81 221.677 3040.72C223.842 3042.63 227.143 3042.39 229.055 3040.23C229.055 3040.21 229.086 3040.2 229.102 3040.18L244.125 3053.33L249.701 3058.21L254.566 3062.47C254.566 3062.47 254.535 3062.5 254.519 3062.52C252.623 3064.68 252.829 3067.99 255.009 3069.9C257.173 3071.79 260.474 3071.59 262.386 3069.41C263.476 3068.16 263.871 3066.53 263.586 3065.02C265.119 3065.1 266.683 3064.49 267.773 3063.25C269.668 3061.08 269.463 3057.78 267.283 3055.87C265.119 3053.97 261.817 3054.18 259.906 3056.36L259.922 3056.37Z" fill="#FFFACC"/>
<path d="M216.116 3129.1C227.475 3129.1 236.684 3119.9 236.684 3108.54C236.684 3097.18 227.475 3087.97 216.116 3087.97C204.757 3087.97 195.549 3097.18 195.549 3108.54C195.549 3119.9 204.757 3129.1 216.116 3129.1Z" fill="#FFFACC"/>
<path d="M212.42 3110.59C217.498 3110.59 221.614 3106.47 221.614 3101.4C221.614 3096.32 217.498 3092.2 212.42 3092.2C207.343 3092.2 203.227 3096.32 203.227 3101.4C203.227 3106.47 207.343 3110.59 212.42 3110.59Z" fill="#004561"/>
<path d="M212.129 3101.22C214.727 3100.17 216.294 3097.98 215.629 3096.33C214.964 3094.68 212.319 3094.19 209.721 3095.24C207.123 3096.29 205.557 3098.47 206.222 3100.12C206.887 3101.77 209.531 3102.26 212.129 3101.22Z" fill="#0E708E"/>
<path d="M111.605 3044.24C113.106 3044.97 114.764 3044.91 116.154 3044.24C116.486 3045.74 117.481 3047.09 118.982 3047.81C121.588 3049.06 124.7 3047.97 125.964 3045.36C127.228 3042.76 126.122 3039.65 123.516 3038.38C123.5 3038.38 123.468 3038.37 123.452 3038.35L132.109 3020.36L135.316 3013.68C133.61 3013.49 131.714 3013.36 129.724 3013.36C128.602 3013.36 127.512 3013.39 126.47 3013.47L123.326 3019.99L116.186 3034.84C116.186 3034.84 116.154 3034.83 116.123 3034.81C113.516 3033.56 110.404 3034.65 109.141 3037.26C107.877 3039.87 108.983 3042.98 111.589 3044.24H111.605Z" fill="#FFFACC"/>
<path opacity="0.83" d="M282.716 3009.11C279.351 3006.74 274.959 3005.3 270.157 3005.3H79.1888C74.3865 3005.3 69.995 3006.74 66.6303 3009.11H60.043V3129.89C60.043 3138.47 68.6207 3145.42 79.2046 3145.42H270.157C280.741 3145.42 289.319 3138.47 289.319 3129.89V3009.11H282.732H282.716Z" fill="#A977AB"/>
<path d="M174.665 3022.02C237.978 3022.02 289.303 3016.24 289.303 3009.11C289.303 3001.98 237.978 2996.2 174.665 2996.2C111.352 2996.2 60.0273 3001.98 60.0273 3009.11C60.0273 3016.24 111.352 3022.02 174.665 3022.02Z" fill="#C58FC9"/>
<path d="M151.983 2978.79C150.482 2978.07 148.823 2978.13 147.433 2978.79C147.101 2977.29 146.106 2975.95 144.605 2975.22C141.999 2973.98 138.887 2975.07 137.623 2977.67C136.359 2980.28 137.465 2983.39 140.072 2984.66C140.088 2984.66 140.119 2984.67 140.135 2984.69L131.478 3002.68L128.271 3009.36C129.978 3009.55 131.873 3009.68 133.864 3009.68C134.985 3009.68 136.075 3009.65 137.118 3009.57L140.261 3003.04L147.402 2988.19C147.402 2988.19 147.433 2988.21 147.465 2988.23C150.071 2989.47 153.183 2988.38 154.447 2985.78C155.711 2983.17 154.605 2980.06 151.998 2978.79H151.983Z" fill="#FFFACC"/>
<path d="M266.147 2958.21H83.0766C77.8005 2958.21 73.5195 2956.81 73.5195 2955.08V2923.79H275.688V2955.08C275.688 2956.81 271.407 2958.21 266.131 2958.21H266.147Z" fill="#633A14"/>
<path d="M275.704 2924.03C275.704 2922.07 230.446 2920.47 174.619 2920.47C118.793 2920.47 73.5352 2922.07 73.5352 2924.03C73.5352 2925.98 118.793 2927.58 174.619 2927.58C188.141 2927.58 201.032 2927.49 212.816 2927.31L223.511 2937.06L234.679 2926.87C259.559 2926.22 275.704 2925.18 275.704 2924.01V2924.03Z" fill="#FFB23E"/>
<path opacity="0.2" d="M280.569 3157.02H68.78C57.0429 3157.02 47.5332 3147.29 47.5332 3135.3V2982.68C47.5332 2970.68 57.0429 2960.96 68.78 2960.96H280.569C292.306 2960.96 301.815 2970.69 301.815 2982.68V3135.3C301.815 3147.3 292.306 3157.02 280.569 3157.02Z" fill="#89BEAA"/>
<path opacity="0.66" d="M270.426 2940.8H78.9207C73.625 2940.8 69.332 2945.1 69.332 2950.39V2951.37C69.332 2956.67 73.625 2960.96 78.9207 2960.96H270.426C275.722 2960.96 280.015 2956.67 280.015 2951.37V2950.39C280.015 2945.1 275.722 2940.8 270.426 2940.8Z" fill="#89BEAA"/>
<path opacity="0.66" d="M76.0786 2950.66C77.492 2950.66 78.6377 2949.51 78.6377 2948.1C78.6377 2946.69 77.492 2945.54 76.0786 2945.54C74.6653 2945.54 73.5195 2946.69 73.5195 2948.1C73.5195 2949.51 74.6653 2950.66 76.0786 2950.66Z" fill="#A6DDC6"/>
<path opacity="0.66" d="M163.167 2945.54H86.8677C85.4543 2945.54 84.3086 2946.68 84.3086 2948.09C84.3086 2949.5 85.4543 2950.64 86.8677 2950.64H163.167C164.58 2950.64 165.726 2949.5 165.726 2948.09C165.726 2946.68 164.58 2945.54 163.167 2945.54Z" fill="#A6DDC6"/>
<path d="M543.021 2970.56L533.258 2972.03L560.222 3151.38L569.985 3149.91L543.021 2970.56Z" fill="#A61E00"/>
<path d="M506.224 2976.09L495.82 2977.66L522.784 3157.01L533.188 3155.44L506.224 2976.09Z" fill="#A61E00"/>
<path d="M533.943 2976.59L506.902 2980.65L532.495 3150.88L559.535 3146.82L533.943 2976.59Z" fill="white"/>
<path d="M500.886 2923.82L453.305 2919.95L434.337 3153.16L481.918 3157.03L500.886 2923.82Z" fill="#3C7C31"/>
<path d="M500.024 2934.33L452.443 2930.46L451.695 2939.66L499.276 2943.53L500.024 2934.33Z" fill="#FFB23E"/>
<path d="M483.511 3137.34L435.93 3133.47L435.182 3142.66L482.763 3146.53L483.511 3137.34Z" fill="#FFB23E"/>
<path d="M476.237 3039.12C477.291 3026.16 474.232 3015.34 469.406 3014.95C464.58 3014.55 459.814 3024.74 458.76 3037.69C457.706 3050.65 460.764 3061.47 465.59 3061.87C470.416 3062.26 475.183 3052.07 476.237 3039.12Z" fill="#FFB23E"/>
<path d="M691.319 2532.16H82.002V2590.58H691.319V2532.16Z" fill="#A977AB"/>
<path d="M725.692 2590.52H47.627V2648.93H725.692V2590.52Z" fill="#945999"/>
<path d="M590.425 2502.68H573.459V2532.16H590.425V2502.68Z" fill="#C97200"/>
<path d="M209.214 2496H192.248V2532.16H209.214V2496Z" fill="#C97200"/>
<path d="M630.88 2424.46L288.009 2422.07L287.74 2461.41L698.743 2464.26L630.88 2424.46Z" fill="#89BEAA"/>
<path d="M630.326 2503.13L698.742 2464.26L287.739 2461.41L287.455 2500.72L630.326 2503.13Z" fill="#B7D6D6"/>
<path d="M173.612 2515.57L173.531 2527.14L333.186 2528.25L333.267 2516.69L173.612 2515.57Z" fill="#FF7F00"/>
<path d="M173.133 2579.39L173.512 2527.06L218.738 2527.37L219.039 2484.03L287.581 2484.5L287.281 2527.85L333.155 2528.16L302.414 2580.28L173.149 2579.38L173.133 2579.39Z" fill="#FBA036"/>
<path d="M174.43 2394.13L203.986 2341.99L334.436 2342.89L334.057 2395.23L288.183 2394.92L287.883 2438.26L219.34 2437.79L219.641 2394.44L174.414 2394.13H174.43Z" fill="#FBA036"/>
<path d="M123.562 2436.82L123.234 2483.82L219.151 2484.49L219.479 2437.49L123.562 2436.82Z" fill="#5B619B"/>
<path d="M294.47 2479.79L294.723 2443.1C294.739 2439.87 293.048 2436.87 290.268 2435.23L258.627 2416.67C255.831 2415.04 252.387 2415.01 249.575 2416.6L217.682 2434.72C214.87 2436.32 213.132 2439.29 213.1 2442.51L212.848 2479.21C212.832 2482.43 214.522 2485.43 217.302 2487.08L248.944 2505.64C251.74 2507.26 255.183 2507.3 257.995 2505.7L289.889 2487.58C292.701 2485.99 294.439 2483.02 294.47 2479.79Z" fill="#FFDA40"/>
<path d="M286.319 2462.83V2459.94C286.413 2449.21 280.758 2439.24 271.501 2433.81L269.005 2432.35C259.748 2426.92 248.296 2426.84 238.96 2432.15L236.448 2433.57C227.112 2438.86 221.33 2448.75 221.236 2459.49V2462.38C221.141 2473.11 226.796 2483.08 236.053 2488.51L238.549 2489.97C247.806 2495.4 259.259 2495.48 268.595 2490.17L271.106 2488.75C280.442 2483.46 286.224 2473.57 286.319 2462.83Z" fill="#45B236"/>
<path d="M201.185 2428.7L200.736 2493L214.337 2493.1L214.786 2428.79L201.185 2428.7Z" fill="#FFDA40"/>
<path d="M103.706 2431.19C87.7355 2431.07 74.7031 2443.92 74.5925 2459.9C74.4819 2475.88 87.3248 2488.91 103.311 2489.02C105.475 2489.02 107.576 2488.8 109.598 2488.37L109.993 2431.94C107.971 2431.49 105.87 2431.22 103.722 2431.2H103.706V2431.19Z" fill="#398729"/>
<path d="M123.231 2481.23L123.515 2439.27L123.61 2428.09L110.009 2428.01L109.977 2431.93L109.582 2488.37L109.551 2492.3L123.152 2492.4L123.231 2481.23Z" fill="#FFDA40"/>
<path d="M96.5352 2460.06L109.694 2472.13L109.868 2448.18L96.5352 2460.06Z" fill="#FFDA40"/>
<path d="M96.377 2482.05L109.552 2492.3L109.694 2471.99L96.377 2482.05Z" fill="#FFDA40"/>
<path d="M96.6777 2438.07L109.868 2448.31L110.01 2428.01L96.6777 2438.07Z" fill="#FFDA40"/>
<path d="M123.553 2430.62L123.139 2489.98L136.739 2490.08L137.154 2430.71L123.553 2430.62Z" fill="#FBA036"/>
<path d="M142.309 2436.94L141.98 2483.94L145.045 2483.96L145.373 2436.96L142.309 2436.94Z" fill="#495189"/>
<path d="M193.961 2437.29L193.633 2484.29L196.697 2484.31L197.025 2437.31L193.961 2437.29Z" fill="#495189"/>
<path d="M152.664 2437.01L152.336 2484L155.401 2484.02L155.729 2437.03L152.664 2437.01Z" fill="#495189"/>
<path d="M162.988 2437.08L162.66 2484.08L165.725 2484.1L166.053 2437.11L162.988 2437.08Z" fill="#495189"/>
<path d="M173.297 2437.16L172.969 2484.16L176.033 2484.18L176.361 2437.19L173.297 2437.16Z" fill="#495189"/>
<path d="M183.637 2437.24L183.309 2484.24L186.373 2484.26L186.701 2437.27L183.637 2437.24Z" fill="#495189"/>
<path d="M89.9788 2480.88C91.9767 2480.88 93.5963 2479.26 93.5963 2477.27C93.5963 2475.27 91.9767 2473.65 89.9788 2473.65C87.9809 2473.65 86.3613 2475.27 86.3613 2477.27C86.3613 2479.26 87.9809 2480.88 89.9788 2480.88Z" fill="#A6F498"/>
<path d="M276.509 2469.16L276.62 2453.46C276.636 2450.19 274.914 2447.12 272.086 2445.47L258.548 2437.52C255.721 2435.86 252.214 2435.83 249.355 2437.46L235.706 2445.21C232.847 2446.84 231.078 2449.86 231.062 2453.13L230.951 2468.83C230.935 2472.1 232.657 2475.16 235.485 2476.82L249.023 2484.77C251.851 2486.43 255.357 2486.46 258.217 2484.83L271.865 2477.08C274.724 2475.45 276.494 2472.43 276.509 2469.16Z" fill="#409E30"/>
<path d="M268.578 2464.52L268.626 2458.01C268.642 2454.74 266.92 2451.67 264.092 2450.02L258.484 2446.73C255.657 2445.07 252.15 2445.04 249.29 2446.67L243.635 2449.89C240.776 2451.52 239.007 2454.53 238.991 2457.8L238.943 2464.31C238.928 2467.58 240.65 2470.65 243.477 2472.31L249.085 2475.59C251.913 2477.25 255.42 2477.28 258.279 2475.65L263.934 2472.43C266.793 2470.8 268.563 2467.79 268.578 2464.52Z" fill="#398729"/>
<path d="M275.039 2454.5C277.717 2454.5 279.889 2452.33 279.889 2449.65C279.889 2446.97 277.717 2444.8 275.039 2444.8C272.361 2444.8 270.189 2446.97 270.189 2449.65C270.189 2452.33 272.361 2454.5 275.039 2454.5Z" fill="#62D34F"/>
<path d="M267.03 2444.76C268.365 2444.76 269.447 2443.67 269.447 2442.34C269.447 2441 268.365 2439.92 267.03 2439.92C265.695 2439.92 264.613 2441 264.613 2442.34C264.613 2443.67 265.695 2444.76 267.03 2444.76Z" fill="#62D34F"/>
<path d="M195.977 2356.07L203.986 2342.01L334.436 2342.93L334.341 2357.03L195.977 2356.07Z" fill="#FF7F00"/>
<path d="M236.954 2484.44H164.525V2496H236.954V2484.44Z" fill="#C97200"/>
<path d="M618.163 2502.68H545.734V2512.11H618.163V2502.68Z" fill="#C97200"/>
<path d="M738.598 2865.09H674.605C672.756 2865.09 671.271 2863.22 671.271 2860.93V2819.37H741.947V2860.93C741.947 2863.22 740.446 2865.09 738.614 2865.09H738.598Z" fill="#633A14"/>
<path opacity="0.66" d="M736.988 2840.3H676.218C670.922 2840.3 666.629 2844.59 666.629 2849.89V2859.72C666.629 2865.01 670.922 2869.3 676.218 2869.3H736.988C742.284 2869.3 746.577 2865.01 746.577 2859.72V2849.89C746.577 2844.59 742.284 2840.3 736.988 2840.3Z" fill="#89BEAA"/>
<path opacity="0.66" d="M676.358 2854.49C678.391 2854.49 680.039 2852.84 680.039 2850.81C680.039 2848.77 678.391 2847.13 676.358 2847.13C674.326 2847.13 672.678 2848.77 672.678 2850.81C672.678 2852.84 674.326 2854.49 676.358 2854.49Z" fill="#A6DDC6"/>
<path opacity="0.66" d="M703.767 2847.13H687.038C685.005 2847.13 683.357 2848.77 683.357 2850.8C683.357 2852.83 685.005 2854.47 687.038 2854.47H703.767C705.8 2854.47 707.448 2852.83 707.448 2850.8C707.448 2848.77 705.8 2847.13 703.767 2847.13Z" fill="#A6DDC6"/>
<path d="M741.947 2819.37C741.947 2816.76 726.134 2814.65 706.609 2814.65C687.1 2814.65 671.271 2816.76 671.271 2819.37C671.271 2821.98 687.084 2824.09 706.609 2824.09C711.332 2824.09 715.834 2823.97 719.957 2823.75L723.701 2836.7L727.603 2823.18C736.307 2822.32 741.947 2820.93 741.947 2819.39V2819.37Z" fill="#FFB23E"/>
<path d="M785.389 2970.82C785.957 2971.34 786.526 2971.86 787.079 2972.4C786.7 2971.86 786.131 2971.32 785.389 2970.82Z" fill="#89BEAA"/>
<path d="M626.156 2972.41C626.709 2971.88 627.278 2971.34 627.847 2970.83C627.104 2971.35 626.535 2971.88 626.156 2972.41Z" fill="#89BEAA"/>
<path d="M787.063 2972.41C787.426 2972.93 787.632 2973.47 787.632 2974.02C787.632 2981.53 751.362 2987.61 706.61 2987.61C661.857 2987.61 625.587 2981.53 625.587 2974.02C625.587 2973.49 625.777 2972.95 626.156 2972.41C611.023 2987.1 602.429 3009.27 605.225 3032.98L639.11 3135.11C641.005 3140.81 646.329 3144.67 652.347 3144.67H760.919C766.922 3144.67 772.261 3140.81 774.157 3135.11L808.041 3032.98C810.837 3009.25 802.228 2987.1 787.111 2972.41H787.063ZM622.523 3026.5C619.363 3026.5 616.82 3023.94 616.82 3020.8C616.82 3017.66 619.379 3015.1 622.523 3015.1C625.682 3015.1 628.226 3017.66 628.226 3020.8C628.226 3023.94 625.666 3026.5 622.523 3026.5ZM636.945 3010.83C632.143 3010.83 628.241 3006.93 628.241 3002.13C628.241 2997.33 632.143 2993.42 636.945 2993.42C641.748 2993.42 645.65 2997.33 645.65 3002.13C645.65 3006.93 641.748 3010.83 636.945 3010.83Z" fill="#C9345A"/>
<path d="M636.946 3010.83C641.753 3010.83 645.65 3006.93 645.65 3002.13C645.65 2997.32 641.753 2993.42 636.946 2993.42C632.139 2993.42 628.242 2997.32 628.242 3002.13C628.242 3006.93 632.139 3010.83 636.946 3010.83Z" fill="#E5557F"/>
<path d="M627.794 3022.98C628.999 3020.07 627.617 3016.73 624.708 3015.53C621.798 3014.32 618.462 3015.71 617.257 3018.62C616.051 3021.53 617.433 3024.86 620.343 3026.07C623.253 3027.27 626.588 3025.89 627.794 3022.98Z" fill="#E5557F"/>
<path d="M706.61 2987.59C751.363 2987.59 787.633 2981.51 787.633 2974.01C787.633 2973.47 787.443 2972.93 787.064 2972.4C786.511 2971.86 785.942 2971.32 785.374 2970.82C776.812 2964.86 744.791 2960.42 706.595 2960.42C668.398 2960.42 636.377 2964.85 627.816 2970.82C627.247 2971.34 626.678 2971.86 626.125 2972.4C625.762 2972.92 625.557 2973.46 625.557 2974.01C625.557 2981.51 661.826 2987.59 706.579 2987.59H706.61Z" fill="#E5557F"/>
<path opacity="0.2" d="M748.55 2941.62H726.64V2869.3H686.595V2941.62H664.685C620.311 2941.62 586.016 2983.44 591.577 3030.75L630.026 3146.64C632.175 3153.12 638.225 3157.48 645.033 3157.48H768.233C775.057 3157.48 781.108 3153.12 783.24 3146.64L821.69 3030.75C827.25 2983.46 792.94 2941.62 748.582 2941.62H748.55Z" fill="#89BEAA"/>
<path d="M873.899 2982.7C872.998 2983.33 872.461 2984.04 872.335 2984.85C871.403 2991.1 896.362 2999.98 928.082 3004.67C959.802 3009.36 986.246 3008.08 987.178 3001.83C987.289 3001.1 987.036 3000.33 986.467 2999.52C1000.87 3015.43 1009.64 3036.53 1009.64 3059.69C1009.64 3109.23 969.486 3149.39 919.947 3149.39C870.408 3149.39 830.252 3109.23 830.252 3059.69C830.252 3026.98 847.755 2998.37 873.914 2982.7H873.899Z" fill="#FFB23E"/>
<path d="M874.894 2982.11C874.562 2982.3 874.23 2982.51 873.883 2982.71C874.183 2982.51 874.515 2982.3 874.894 2982.11Z" fill="#FFB23E"/>
<path d="M986.466 2999.54C986.056 2999.09 985.645 2998.65 985.234 2998.21C985.74 2998.65 986.151 2999.11 986.466 2999.54Z" fill="#FFB23E"/>
<path d="M987.178 3001.83C986.246 3008.08 959.802 3009.36 928.082 3004.67C896.362 2999.98 871.419 2991.1 872.335 2984.85C872.446 2984.06 872.983 2983.33 873.899 2982.7C874.231 2982.49 874.562 2982.3 874.91 2982.1C882.366 2978.32 905.098 2978.1 931.447 2982C957.401 2985.84 978.822 2992.48 985.235 2998.19C985.646 2998.64 986.057 2999.08 986.467 2999.52C987.036 3000.31 987.289 3001.08 987.178 3001.83Z" fill="#FFC06E"/>
<path d="M837.25 2953.5L883.076 2930.98C884.403 2930.33 884.814 2928.46 884.008 2926.84L869.381 2897.08L818.783 2921.94L833.411 2951.7C834.217 2953.35 835.939 2954.15 837.266 2953.5H837.25Z" fill="#633A14"/>
<path d="M818.768 2921.94C817.852 2920.08 828.436 2913 842.416 2906.13C856.396 2899.26 868.465 2895.21 869.381 2897.08C870.298 2898.94 859.714 2906.02 845.733 2912.89C842.353 2914.55 839.083 2916.05 836.05 2917.34L837.93 2927.94L830.379 2919.63C823.855 2922.08 819.321 2923.08 818.784 2921.96L818.768 2921.94Z" fill="#FFB23E"/>
<path opacity="0.2" d="M857.407 2981.09L845.006 2955.86L879.901 2938.7L892.302 2963.93C938.697 2951.24 989.026 2972.79 1011.03 3017.55C1035.96 3068.27 1015.04 3129.61 964.32 3154.54C913.596 3179.47 852.257 3158.55 827.329 3107.83C805.324 3063.06 819.036 3010.06 857.407 2981.07V2981.09Z" fill="#89BEAA"/>
<path opacity="0.66" d="M843.158 2956.32L883.195 2936.65C887.948 2934.31 889.907 2928.57 887.572 2923.81L885.823 2920.26C883.487 2915.5 877.741 2913.54 872.988 2915.88L832.951 2935.55C828.198 2937.89 826.239 2943.64 828.574 2948.39L830.323 2951.95C832.658 2956.7 838.405 2958.66 843.158 2956.32Z" fill="#89BEAA"/>
<path opacity="0.66" d="M878.212 2925.65C879.834 2925.65 881.15 2924.34 881.15 2922.71C881.15 2921.09 879.834 2919.78 878.212 2919.78C876.589 2919.78 875.273 2921.09 875.273 2922.71C875.273 2924.34 876.589 2925.65 878.212 2925.65Z" fill="#A6DDC6"/>
<path opacity="0.66" d="M859.996 2934.89L871.976 2929.01C873.433 2928.29 874.035 2926.53 873.321 2925.08C872.607 2923.63 870.848 2923.03 869.391 2923.75L857.411 2929.63C855.955 2930.35 855.353 2932.11 856.067 2933.56C856.781 2935.01 858.54 2935.61 859.996 2934.89Z" fill="#A6DDC6"/>
<path d="M988.063 3030.85C990.645 3030.85 992.738 3028.75 992.738 3026.17C992.738 3023.59 990.645 3021.49 988.063 3021.49C985.48 3021.49 983.387 3023.59 983.387 3026.17C983.387 3028.75 985.48 3030.85 988.063 3030.85Z" fill="#FFCD8A"/>
<path d="M995.708 3040.96C997.348 3040.96 998.678 3039.63 998.678 3037.99C998.678 3036.35 997.348 3035.02 995.708 3035.02C994.068 3035.02 992.738 3036.35 992.738 3037.99C992.738 3039.63 994.068 3040.96 995.708 3040.96Z" fill="#FFCD8A"/>
<path d="M972.424 2424.54H808.105C794.861 2424.54 784.125 2435.27 784.125 2448.52V2612.84C784.125 2626.08 794.861 2636.82 808.105 2636.82H972.424C985.667 2636.82 996.403 2626.08 996.403 2612.84V2448.52C996.403 2435.27 985.667 2424.54 972.424 2424.54Z" fill="#DD5740"/>
<path d="M940.452 2387.52H840.078C837.188 2387.52 834.85 2385.77 834.85 2383.59V2344.21H945.696V2383.59C945.696 2385.75 943.358 2387.52 940.467 2387.52H940.452Z" fill="#633A14"/>
<path d="M945.679 2344.51C945.679 2342.04 920.862 2340.04 890.248 2340.04C859.633 2340.04 834.816 2342.04 834.816 2344.51C834.816 2346.97 859.633 2348.98 890.248 2348.98C897.656 2348.98 904.733 2348.87 911.194 2348.65L917.055 2360.92L923.184 2348.09C936.833 2347.27 945.679 2345.98 945.679 2344.49V2344.51Z" fill="#FFB23E"/>
<path opacity="0.2" d="M982.614 2410.32H925.208V2393.04H855.306V2410.32H797.901C783.02 2410.32 770.951 2422.39 770.951 2437.27V2621.98C770.951 2636.86 783.02 2648.93 797.901 2648.93H982.614C997.494 2648.93 1009.56 2636.86 1009.56 2621.98V2437.27C1009.56 2422.39 997.494 2410.32 982.614 2410.32Z" fill="#89BEAA"/>
<path opacity="0.66" d="M940.546 2365.86H839.968C834.672 2365.86 830.379 2370.16 830.379 2375.45V2383.75C830.379 2389.04 834.672 2393.34 839.968 2393.34H940.546C945.842 2393.34 950.135 2389.04 950.135 2383.75V2375.45C950.135 2370.16 945.842 2365.86 940.546 2365.86Z" fill="#89BEAA"/>
<path opacity="0.66" d="M839.589 2379.29C841.508 2379.29 843.064 2377.74 843.064 2375.82C843.064 2373.9 841.508 2372.34 839.589 2372.34C837.669 2372.34 836.113 2373.9 836.113 2375.82C836.113 2377.74 837.669 2379.29 839.589 2379.29Z" fill="#A6DDC6"/>
<path opacity="0.66" d="M865.589 2372.34H849.714C847.794 2372.34 846.238 2373.9 846.238 2375.82V2375.83C846.238 2377.75 847.794 2379.31 849.714 2379.31H865.589C867.509 2379.31 869.065 2377.75 869.065 2375.83V2375.82C869.065 2373.9 867.509 2372.34 865.589 2372.34Z" fill="#A6DDC6"/>
<path d="M807.853 2464.71C813.663 2464.71 818.373 2460 818.373 2454.19C818.373 2448.38 813.663 2443.67 807.853 2443.67C802.042 2443.67 797.332 2448.38 797.332 2454.19C797.332 2460 802.042 2464.71 807.853 2464.71Z" fill="#F47160"/>
<path d="M797.346 2481.33C800.251 2481.33 802.607 2478.97 802.607 2476.07C802.607 2473.16 800.251 2470.8 797.346 2470.8C794.441 2470.8 792.086 2473.16 792.086 2476.07C792.086 2478.97 794.441 2481.33 797.346 2481.33Z" fill="#F47160"/>
<path d="M967.401 2616.93C970.306 2616.93 972.661 2614.57 972.661 2611.67C972.661 2608.76 970.306 2606.41 967.401 2606.41C964.496 2606.41 962.141 2608.76 962.141 2611.67C962.141 2614.57 964.496 2616.93 967.401 2616.93Z" fill="#F47160"/>
</svg>
