<svg viewBox="0 0 500 332" fill="none" xmlns="http://www.w3.org/2000/svg">
<path d="M142.784 31.0396C142.784 31.0396 253.892 -23.6065 368.719 31.0396C368.719 31.0396 400.277 168.985 362.249 209.519C362.249 209.519 267.327 266.262 145.421 215.177C145.421 215.177 97.2046 137.018 142.806 31.0396H142.784Z" fill="#FDDF00"/>
<path d="M254.838 0.334961C216.067 0.334961 176.528 8.69853 139.38 26.6434C126.261 58.0469 120.287 90.3973 120.287 121.936C120.287 153.475 126.193 185.375 139.29 217.071C176.619 235.129 215.976 243.402 254.816 243.402C293.655 243.402 333.058 235.129 370.342 217.071C383.461 185.375 389.367 153.407 389.367 121.936C389.367 90.465 383.371 58.0469 370.274 26.6434C333.148 8.67599 293.61 0.334961 254.816 0.334961H254.838ZM254.816 10.6148C293.159 10.6148 329.902 19.0915 362.159 34.2184C373.047 61.4738 378.998 91.0511 378.998 121.959C378.998 152.866 373.069 182.353 362.227 209.519C329.947 224.668 293.182 233.145 254.816 233.145C216.45 233.145 179.707 224.668 147.427 209.519C136.585 182.353 130.634 152.799 130.634 121.959C130.634 91.1187 136.585 61.4513 147.472 34.2184C179.752 19.0915 216.472 10.6148 254.793 10.6148H254.816ZM254.816 18.3249C219.741 18.3249 184.869 25.8093 153.671 39.8992C143.595 66.1402 138.433 93.7338 138.433 121.959C138.433 150.184 143.573 177.664 153.626 203.883C184.824 217.995 219.763 225.435 254.838 225.435C289.913 225.435 324.853 217.995 356.05 203.883L356.095 203.838C349.31 192.679 340.204 183.661 340.091 183.571C339.978 183.526 338.197 182.962 338.197 182.962C318.857 177.011 306.188 172.547 300.575 169.639C292.866 165.626 284.774 155.91 283.872 154.805C274.833 154.129 267.371 154.264 260.158 155.143L255.582 155.729C246.859 156.856 237.819 158.051 228.983 156.631C223.1 155.662 217.374 153.791 211.333 151.829C202.001 148.786 192.443 145.63 181.51 145.652H181.059L181.262 146.036C183.742 150.86 193.548 165.513 205.833 169.526C208.538 170.18 210.499 170.901 211.355 171.555C211.355 171.578 216.044 181.136 217.329 183.729C209.687 180.257 186.064 168.241 166.993 145.044C166.993 144.705 166.498 140.197 166.407 139.205C177.768 134.966 203.331 132.509 206.216 132.239H206.419L206.509 131.991C208.019 118.532 211.22 107.779 217.194 95.9882C217.352 95.6275 217.464 95.312 217.464 95.0189C217.464 94.816 217.419 94.6131 217.306 94.4328C216.968 93.8015 216.157 93.6664 216.112 93.6664C216.112 93.6664 199.611 90.7805 198.71 90.6227C198.619 90.3297 196.974 85.28 196.839 84.8742C209.372 80.2076 224.835 75.8342 233.694 73.918C235.182 71.5283 235.61 70.2206 235.61 68.6651C235.61 67.335 234.979 66.2079 233.694 65.3512C227.428 61.0904 207.659 63.6605 187.687 71.3254C187.642 71.2352 187.642 71.2353 187.596 71.1451C191.744 68.0341 199.16 63.4125 204.661 60.865L204.886 60.7296L204.818 60.5268C203.331 55.477 193.57 51.5994 192.466 51.2162C192.488 51.0584 192.511 50.9233 192.511 50.8106C202.429 50.1343 209.011 54.7782 211.04 58.0922L211.13 58.2499L211.333 58.1824C212.595 57.7766 217.104 56.3337 221.95 55.7701H222.22L222.13 55.477C220.552 46.978 212.415 41.2971 209.665 39.5838C209.755 39.4485 209.755 39.3809 209.845 39.2907C219.425 40.0347 228.284 48.2856 230.268 55.2516L230.313 55.4544H230.516C233.086 55.5672 236.196 55.8604 238.293 56.1986H238.518L238.608 56.0406C239.375 54.192 239.758 52.2534 239.758 50.247C239.758 43.9573 236.196 37.2391 231.846 32.9783C231.936 32.8431 231.981 32.7528 232.071 32.6401C244.65 37.4194 247.85 46.4821 247.85 54.936C247.85 60.8425 246.272 66.4783 245.258 70.0628L244.83 71.5508C244.83 71.5508 263.359 69.3191 264.621 69.1613C262.728 71.5509 258.67 75.8115 250.555 80.2752C250.555 80.2301 242.192 79.2157 242.192 79.2157H241.967L241.899 79.4185C241.336 81.1544 236.444 96.6195 236.422 107.982C236.422 112.197 237.616 115.466 239.983 117.72C244.176 121.756 251.119 121.981 255.988 121.801C276.636 121.034 292.731 122.319 303.889 125.633L304.543 125.814L304.633 125.656C305.332 124.596 305.873 122.612 305.873 119.975C305.873 114.993 303.889 107.576 297.171 99.1669C297.239 99.1218 297.239 99.0769 297.329 99.0092C298.434 99.6179 316.535 109.92 318.969 125.43C318.541 125.588 310.291 128.947 310.291 128.947L310.561 129.218C318.225 137.221 320.863 146.892 322.959 154.647C324.65 160.779 326.656 164.702 329.339 167.001C332.427 169.661 344.148 175.252 347.665 176.898C350.595 181.046 355.6 188.824 359.251 194.865C367.163 171.375 371.221 146.892 371.221 121.891C371.221 93.6436 366.059 66.0502 356.005 39.8317C324.808 25.7644 289.891 18.2572 254.838 18.2572L254.816 18.3249Z" fill="#367E3D"/>
<path d="M0.275391 319.893C0.275391 319.893 6.38418 322.08 13.2368 322.08C20.5178 322.08 25.0712 321.088 27.6184 318.518C29.7148 316.399 30.5714 312.882 30.4587 307.675V273.047H41.2561V309.185C41.0983 325.191 33.3215 331.999 15.2205 331.999C6.42928 331.999 0.297954 330.602 0.297954 330.602V319.893H0.275391Z" fill="#367E3D"/>
<path d="M75.2034 322.509C68.9143 322.509 58.3423 320.569 58.3423 307.584C58.3423 298.274 64.4961 292.931 75.2034 292.931C85.9107 292.931 92.0645 298.274 92.0645 307.584C92.0645 320.569 81.5151 322.509 75.2034 322.509ZM47.5898 308.08C47.5898 319.104 54.8257 331.999 75.2034 331.999C95.5811 331.999 102.839 319.104 102.839 308.08C102.839 292.638 92.5154 283.44 75.2034 283.44C57.8914 283.44 47.5898 292.66 47.5898 308.08Z" fill="#367E3D"/>
<path d="M147.968 284.522V302.963H119.971V284.522H109.219V330.895H119.971V312.454H147.968V330.895H158.72V284.522H147.968Z" fill="#367E3D"/>
<path d="M206.216 330.895L178.219 299.288V330.895H167.467V284.522H178.129L206.193 315.813V284.522H216.968V330.895H206.193H206.216Z" fill="#367E3D"/>
<path d="M312.569 321.403V312.454H337.387V302.985H312.569V294.036H344.668V284.544H301.816V330.917H344.668V321.426H312.569V321.403Z" fill="#367E3D"/>
<path d="M263.36 272.979C283.963 272.979 296.293 283.981 296.293 302.354C296.293 315.542 287.66 330.895 263.36 330.895H237.324V272.979H263.36ZM248.144 282.561V321.359H263.36C271.61 321.359 285.473 318.811 285.473 301.791C285.473 289.572 277.426 282.583 263.36 282.583H248.144V282.561Z" fill="#367E3D"/>
<path d="M432.874 304.473C435.105 304.473 438.825 303.774 438.825 299.175C438.825 295.884 436.661 294.013 432.874 294.013H413.217V304.428H432.874V304.473ZM451.245 330.895H438.239L425.277 313.919H412.631V330.895H401.879V284.522H432.288C442.769 284.522 449.013 290.091 449.013 299.401C449.013 304.992 445.88 311.259 437.743 313.22L451.267 330.895H451.245Z" fill="#367E3D"/>
<path d="M362.612 321.403V312.454H387.43V302.985H362.612V294.036H394.711V284.544H351.859V330.917H394.711V321.426H362.612V321.403Z" fill="#367E3D"/>
<path d="M466.934 321.403V312.454H491.752V302.985H466.934V294.036H499.033V284.544H456.182V330.917H499.033V321.426H466.934V321.403Z" fill="#367E3D"/>
</svg>
