<svg viewBox="0 0 699 105" fill="none" xmlns="http://www.w3.org/2000/svg">
<mask id="mask0_3521_1164" style="mask-type:luminance" maskUnits="userSpaceOnUse" x="0" y="0" width="699" height="105">
<path d="M698.502 0.702148H0.634766V104.539H698.502V0.702148Z" fill="white"/>
</mask>
<g mask="url(#mask0_3521_1164)">
<mask id="mask1_3521_1164" style="mask-type:luminance" maskUnits="userSpaceOnUse" x="0" y="0" width="699" height="105">
<path d="M698.502 0.702148H0.634766V104.539H698.502V0.702148Z" fill="white"/>
</mask>
<g mask="url(#mask1_3521_1164)">
<path d="M118.641 82.5586L99.4803 103.074C99.052 103.524 98.556 103.885 97.9925 104.133C97.4289 104.381 96.8205 104.516 96.2119 104.516H5.36886C4.94057 104.516 4.51219 104.381 4.15152 104.156C3.79085 103.908 3.49784 103.592 3.34005 103.186C3.18226 102.78 3.11476 102.352 3.18238 101.924C3.25001 101.495 3.45288 101.112 3.74592 100.774L22.9063 80.2141C23.3346 79.7632 23.8304 79.4024 24.3939 79.1544C24.9574 78.9065 25.5661 78.7712 26.1748 78.7712H117.018C117.446 78.7712 117.874 78.884 118.257 79.132C118.618 79.38 118.911 79.7182 119.091 80.124C119.272 80.5297 119.317 80.958 119.249 81.4088C119.182 81.8597 118.979 82.243 118.663 82.5586H118.641ZM99.4803 41.1908C99.0746 40.7399 98.556 40.3791 97.9925 40.1311C97.4289 39.8831 96.8205 39.7479 96.2119 39.7479H5.39142C4.96313 39.7479 4.53475 39.8833 4.17408 40.1087C3.81342 40.3567 3.52041 40.6723 3.36262 41.0781C3.18228 41.4839 3.13732 41.9122 3.20495 42.3405C3.27257 42.7688 3.47545 43.1521 3.76849 43.4677L22.9289 64.0502C23.3347 64.5011 23.8529 64.8617 24.4165 65.1097C24.98 65.3577 25.5887 65.4929 26.1973 65.4929H117.04C117.469 65.4929 117.897 65.3577 118.257 65.1323C118.618 64.8843 118.911 64.5687 119.069 64.1629C119.249 63.7571 119.294 63.3288 119.227 62.9005C119.159 62.4721 118.956 62.0889 118.663 61.7733L99.5029 41.1908H99.4803ZM5.39142 26.4246H96.2342C96.8428 26.4246 97.4515 26.2892 98.0151 26.0413C98.5786 25.7933 99.0746 25.4326 99.5029 24.9818L118.663 4.46696C118.956 4.15134 119.159 3.74553 119.227 3.3172C119.294 2.88887 119.227 2.46054 119.069 2.05475C118.889 1.64897 118.618 1.31083 118.257 1.08539C117.897 0.837405 117.469 0.724609 117.04 0.724609H26.1973C25.5887 0.724609 24.98 0.859834 24.4165 1.10782C23.8529 1.3558 23.3572 1.71657 22.9289 2.16745L3.76849 22.6823C3.47545 22.9979 3.27257 23.4037 3.20495 23.832C3.13732 24.2603 3.20483 24.6887 3.36262 25.0945C3.52041 25.5002 3.81342 25.8384 4.17408 26.0638C4.53475 26.3118 4.96313 26.4246 5.39142 26.4246Z" fill="url(#paint0_linear_3521_1164)"/>
<path d="M228.779 44.5498H180.201V28.4085H241.402V12.2671H180.066C175.806 12.2671 171.748 13.9579 168.728 16.9562C165.707 19.9546 164.039 24.0349 164.039 28.2957V44.6851C164.039 46.8042 164.445 48.8783 165.256 50.8171C166.068 52.7558 167.24 54.5368 168.728 56.0247C171.726 59.023 175.806 60.7137 180.066 60.7137H228.644V76.8551H165.189V92.9965H228.734C232.994 92.9965 237.051 91.3058 240.072 88.3074C243.07 85.3091 244.761 81.2286 244.761 76.9678V60.5784C244.761 58.4593 244.355 56.3854 243.544 54.4466C242.732 52.5078 241.56 50.7269 240.072 49.239C238.584 47.7511 236.826 46.5787 234.865 45.7672C232.926 44.9556 230.83 44.5498 228.734 44.5498H228.779Z" fill="#010101"/>
<path d="M322.778 12.2446H274.088C269.827 12.2446 265.77 13.9355 262.749 16.9338C259.729 19.9321 258.061 24.0126 258.061 28.2734V76.9454C258.061 81.2062 259.751 85.2641 262.749 88.285C265.747 91.3058 269.827 92.974 274.088 92.974H322.778C324.897 92.974 326.971 92.5683 328.909 91.7567C330.848 90.9451 332.628 89.7729 334.116 88.285C335.604 86.7971 336.776 85.0387 337.588 83.0774C338.399 81.1386 338.805 79.0419 338.805 76.9454V28.2734C338.805 26.1543 338.399 24.0802 337.588 22.1414C336.776 20.2026 335.604 18.4217 334.116 16.9338C332.628 15.4459 330.87 14.2737 328.909 13.4621C326.971 12.6505 324.874 12.2446 322.778 12.2446ZM322.642 76.8552H274.2V28.4086H322.642V76.8552Z" fill="#010101"/>
<path d="M493.396 12.2446H445.81C443.691 12.2446 441.618 12.6505 439.679 13.4621C437.74 14.2737 435.96 15.4459 434.472 16.9338C432.984 18.4217 431.812 20.1801 431 22.1414C430.189 24.1027 429.783 26.1768 429.783 28.2734V92.9965H445.923V66.4626H493.215V92.9965H509.355V28.2734C509.355 24.0351 507.687 19.9547 504.689 16.9563C501.691 13.958 497.634 12.2446 493.396 12.2446ZM493.283 50.3211H445.991V28.4086H493.283V50.3211Z" fill="#010101"/>
<path d="M682.498 12.2446H634.913C630.675 12.2446 626.617 13.958 623.619 16.9563C620.621 19.9547 618.953 24.0351 618.953 28.2734V92.9965H635.093V66.4626H682.385V92.9965H698.525V28.2734C698.525 26.1543 698.119 24.0802 697.308 22.1414C696.496 20.2026 695.325 18.4217 693.837 16.9338C692.349 15.4459 690.591 14.2737 688.63 13.4621C686.668 12.6505 684.595 12.2446 682.498 12.2446ZM682.363 50.3211H635.07V28.4086H682.363V50.3211Z" fill="#010101"/>
<path d="M588.409 76.8552H581.962L558.902 18.9628C558.09 16.9789 556.716 15.2655 554.935 14.0707C553.154 12.8758 551.035 12.2446 548.894 12.2446H534.489C531.649 12.2446 528.944 13.3719 526.938 15.3783C524.932 17.3846 523.805 20.1125 523.805 22.9305V92.9965H539.945V28.3861H546.391L569.542 86.2785C570.353 88.2624 571.706 89.9757 573.487 91.1705C575.267 92.3653 577.364 93.0191 579.505 92.9965H593.932C595.329 92.9965 596.727 92.7261 598.012 92.185C599.297 91.644 600.491 90.8549 601.483 89.8629C602.475 88.871 603.264 87.6988 603.805 86.3912C604.346 85.0837 604.617 83.7085 604.617 82.3108V12.2446H588.477L588.432 76.8552H588.409Z" fill="#010101"/>
<path d="M369.327 12.2446H353.188V76.9679C353.188 81.2287 354.878 85.2867 357.876 88.3075C360.874 91.3059 364.954 92.9965 369.215 92.9965H417.792V76.8552H369.35V12.2446H369.327Z" fill="#010101"/>
</g>
</g>
<defs>
<linearGradient id="paint0_linear_3521_1164" x1="12.9429" y1="107.019" x2="108.214" y2="-0.371093" gradientUnits="userSpaceOnUse">
<stop offset="0.08" stop-color="#7B5CA7"/>
<stop offset="0.3" stop-color="#745FA9"/>
<stop offset="0.5" stop-color="#5697D1"/>
<stop offset="0.6" stop-color="#42B4CA"/>
<stop offset="0.72" stop-color="#5EC3AC"/>
<stop offset="0.97" stop-color="#70C388"/>
</linearGradient>
</defs>
</svg>
