<svg preserveAspectRatio='none' viewBox="0 0 646 152" fill="none" xmlns="http://www.w3.org/2000/svg">
<path d="M96.5783 148.878H22.4838C10.4917 148.878 0.753906 139.161 0.753906 127.145V42.8316C0.753906 30.8383 10.4691 21.0996 22.4838 21.0996H128.52L96.5783 148.878Z" fill="#006EA9"/>
<path d="M97.1406 0.268555H171.235C183.227 0.268555 192.965 9.98497 192.965 22.0008V106.337C192.965 118.331 183.25 128.07 171.235 128.07H65.1992L97.1406 0.268555Z" fill="#8874B5"/>
<mask id="mask0_3569_101" style="mask-type:luminance" maskUnits="userSpaceOnUse" x="65" y="0" width="128" height="129">
<path d="M97.1406 0.268555H171.235C183.227 0.268555 192.965 9.98497 192.965 22.0008V106.337C192.965 118.331 183.25 128.07 171.235 128.07H65.1992L97.1406 0.268555Z" fill="white"/>
</mask>
<g mask="url(#mask0_3569_101)">
<path d="M65.1992 51.3306L127.707 128.07H65.1992V51.3306Z" fill="#499BD5"/>
<path d="M65.1992 47.4756L130.841 128.07H127.707L65.1992 51.3305V47.4756Z" fill="#499BD5"/>
<path d="M65.1992 43.6206L133.974 128.07H130.841L65.1992 47.4755V43.6206Z" fill="#4A9CD4"/>
<path d="M65.1992 39.7881L137.107 128.07H133.974L65.1992 43.6207V39.7881Z" fill="#4B9DD3"/>
<path d="M65.1992 35.9331L140.24 128.07H137.107L65.1992 39.788V35.9331Z" fill="#4C9ED2"/>
<path d="M65.1992 32.0781L143.374 128.07H140.24L65.1992 35.933V32.0781Z" fill="#4D9FD1"/>
<path d="M65.1992 28.2231L146.507 128.07H143.374L65.1992 32.0783V28.2231Z" fill="#4EA0D0"/>
<path d="M65.1992 24.3906L149.64 128.07H146.507L65.1992 28.223V24.3906Z" fill="#4FA1CF"/>
<path d="M65.1992 20.5356L152.774 128.069H149.64L65.1992 24.3905V20.5356Z" fill="#50A2CE"/>
<path d="M65.1992 20.4906L67.0475 18.9575L155.907 128.07H152.774L65.1992 20.5358V20.4906Z" fill="#50A3CD"/>
<path d="M67.0469 18.9576L68.9406 17.4248L159.062 128.07H155.906L67.0469 18.9576Z" fill="#51A4CC"/>
<path d="M68.9414 17.4247L70.8123 15.8916L162.196 128.07H159.063L68.9414 17.4247Z" fill="#52A5CB"/>
<path d="M70.8125 15.8915L72.7059 14.3584L165.33 128.069H162.197L70.8125 15.8915Z" fill="#53A6CA"/>
<path d="M72.7051 14.3585L74.5985 12.8257L168.462 128.07H165.329L72.7051 14.3585Z" fill="#54A7C9"/>
<path d="M74.5996 12.8256L76.4707 11.2925L171.596 128.069H168.463L74.5996 12.8256Z" fill="#55A8C8"/>
<path d="M76.4707 11.2926L78.3641 9.75977L174.73 128.07H171.596L76.4707 11.2926Z" fill="#56A9C7"/>
<path d="M78.3633 9.75966L80.2567 8.22656L177.862 128.069H174.729L78.3633 9.75966Z" fill="#57AAC6"/>
<path d="M80.2559 8.22667L82.127 6.69385L180.995 128.07H177.861L80.2559 8.22667Z" fill="#58ABC5"/>
<path d="M82.1289 6.69385L84.0223 5.13818L184.13 128.07H180.997L82.1289 6.69385Z" fill="#59ACC4"/>
<path d="M84.0215 5.13829L85.8923 3.60547L187.262 128.07H184.129L84.0215 5.13829Z" fill="#5AADC3"/>
<path d="M85.8926 3.60537L87.7863 2.07227L190.396 128.07H190.373H187.263L85.8926 3.60537Z" fill="#5BAEC2"/>
<path d="M89.6493 0.865391L87.7617 2.40283L190.366 128.4L192.254 126.862L89.6493 0.865391Z" fill="#5CAFC1"/>
<path d="M89.6797 0.539344L89.9953 0.268555H92.5877L192.965 123.516V125.973L192.289 126.536L89.6797 0.539344Z" fill="#5DB0C0"/>
<path d="M95.7209 0.268555L192.966 119.661V123.516L92.5879 0.268555H95.7209Z" fill="#5DB2BF"/>
<path d="M98.854 0.268555L192.965 115.806V119.661L95.7207 0.268555H98.854Z" fill="#5EB3BE"/>
<path d="M101.987 0.268555L192.965 111.973V115.806L98.8535 0.268555H101.987Z" fill="#5FB4BD"/>
<path d="M105.142 0.268555L192.964 108.118V111.973L101.986 0.268555H105.142Z" fill="#60B5BC"/>
<path d="M108.276 0.268555L192.965 104.263V108.118L105.143 0.268555H108.276Z" fill="#61B6BB"/>
<path d="M111.409 0.268555L192.964 100.408V104.263L108.275 0.268555H111.409Z" fill="#62B7BA"/>
<path d="M114.543 0.268555L192.966 96.5533V100.408L111.41 0.268555H114.543Z" fill="#63B8B9"/>
<path d="M117.676 0.268555L192.965 92.7207V96.5533L114.543 0.268555H117.676Z" fill="#64B9B8"/>
<path d="M120.809 0.268555L192.965 88.8658V92.7207L117.676 0.268555H120.809Z" fill="#65BAB7"/>
<path d="M123.942 0.268555L192.964 85.0109V88.8658L120.809 0.268555H123.942Z" fill="#66BBB6"/>
<path d="M127.077 0.268555L192.966 81.1557V85.0109L123.943 0.268555H127.077Z" fill="#67BCB5"/>
<path d="M130.209 0.268555L192.965 77.3234V81.1557L127.076 0.268555H130.209Z" fill="#68BDB4"/>
<path d="M133.342 0.268555L192.965 73.4685V77.3234L130.209 0.268555H133.342Z" fill="#69BEB3"/>
<path d="M136.475 0.268555L192.964 69.6133V73.4685L133.342 0.268555H136.475Z" fill="#6ABFB2"/>
<path d="M139.632 0.268555L192.966 65.7584V69.6133L136.477 0.268555H139.632Z" fill="#6AC0B1"/>
<path d="M142.764 0.268555L192.964 61.9261V65.7584L139.631 0.268555H142.764Z" fill="#6BC1B0"/>
<path d="M145.899 0.268555L192.966 58.0709V61.9261L142.766 0.268555H145.899Z" fill="#6CC2AF"/>
<path d="M149.032 0.268555L192.965 54.216V58.0709L145.898 0.268555H149.032Z" fill="#6DC3AE"/>
<path d="M152.165 0.268555L192.965 50.3611V54.216L149.031 0.268555H152.165Z" fill="#6EC4AD"/>
<path d="M155.297 0.268555L192.964 46.5059V50.3611L152.164 0.268555H155.297Z" fill="#6FC5AC"/>
<path d="M158.432 0.268555L192.966 42.6736V46.5059L155.299 0.268555H158.432Z" fill="#70C6AB"/>
<path d="M161.565 0.268555L192.965 38.8187V42.6736L158.432 0.268555H161.565Z" fill="#71C7AA"/>
<path d="M192.965 38.8187L161.564 0.268555H192.965V38.8187Z" fill="#71C7AA"/>
</g>
<path d="M236.517 22.0913H252.16L275.243 97.5453L299.611 22.0913H313.429L336.512 97.5453L360.676 22.0913H375.757L344.852 114.814H328.487L306.125 45.92L282.862 114.814L266.497 114.994L236.494 22.0913H236.517Z" fill="black"/>
<path d="M472.775 22.0913V114.814H459.881L457.875 99.9126C450.121 110.576 439.526 115.919 426.069 115.919C417.458 115.919 409.771 114.047 402.986 110.283C396.314 106.518 391.039 101.085 387.184 93.9159C383.42 86.7695 381.549 78.2704 381.549 68.4638C381.549 58.6573 383.42 50.9023 387.184 43.7333C391.061 36.5869 396.381 30.9963 403.189 27.006C409.974 22.9932 417.616 21.0093 426.091 21.0093C433.485 21.0093 439.842 22.3844 445.184 25.1798C450.526 27.9753 454.764 31.7851 457.92 36.632L459.926 22.0913H472.82H472.775ZM427.511 102.64C433.44 102.64 438.715 101.265 443.313 98.4697C448.024 95.5616 451.676 91.5489 454.223 86.4766C456.77 81.2689 458.033 75.3848 458.033 68.8246C458.033 62.2643 456.77 56.2226 454.223 51.0149C451.676 45.6721 448.047 41.5466 443.313 38.6384C438.715 35.7303 433.44 34.265 427.511 34.265C418.314 34.265 410.853 37.4889 405.15 43.8913C399.582 50.181 396.787 58.3644 396.787 68.419C396.787 78.4735 399.582 86.7245 405.15 93.1494C410.853 99.4392 418.314 102.618 427.511 102.618V102.64Z" fill="black"/>
<path d="M540.176 22.0914V36.6321H532.714C523.878 36.6321 517.499 39.608 513.621 45.537C509.857 51.466 507.986 58.8153 507.986 67.5398V114.814H493.086V22.0688H505.98L507.986 36.0685C510.646 31.8302 514.117 28.4263 518.355 25.8789C522.593 23.3314 528.476 22.0688 536.005 22.0688H540.176V22.0914Z" fill="black"/>
<path d="M600.519 21.009C609.13 21.009 616.749 22.8801 623.421 26.6449C630.206 30.4098 635.481 35.8428 639.223 43.0118C643.1 50.1582 645.039 58.657 645.039 68.4635C645.039 78.2701 643.1 86.0254 639.223 93.1943C635.481 100.341 630.184 105.931 623.421 109.922C616.636 113.934 608.994 115.918 600.519 115.918C593.012 115.918 586.565 114.588 581.246 111.905C575.903 109.11 571.733 105.345 568.713 100.634V151.177H553.812V22.0685H566.706L568.713 36.9699C576.467 26.3067 587.061 20.9639 600.519 20.9639V21.009ZM599.054 102.64C608.251 102.64 615.667 99.484 621.234 93.1717C626.937 86.7467 629.778 78.5183 629.778 68.4412C629.778 58.3642 626.915 50.2033 621.234 43.9136C615.667 37.4886 608.273 34.2873 599.054 34.2873C593.125 34.2873 587.783 35.7525 583.049 38.6607C578.45 41.4561 574.866 45.4465 572.319 50.6542C569.772 55.7491 568.51 61.5653 568.51 68.103C568.51 74.6407 569.772 80.7726 572.319 86.0929C574.866 91.3006 578.45 95.3585 583.049 98.2667C587.76 101.175 593.103 102.64 599.054 102.64Z" fill="black"/>
</svg>
