<svg xmlns="http://www.w3.org/2000/svg" fill="none" viewBox="5.05 18.14 351.35 59.26">
<rect x="147" y="27.5999" width="207.596" height="40.8" rx="6" fill="#89751F"/>
<rect x="148.805" y="30.5999" width="207.596" height="37.8" rx="6" fill="#EECE42"/>
<path d="M244.5 30.5L266 30.5L221.5 68.5H197L244.5 30.5Z" fill="#F6E6A3"/>
<path d="M266 30.5L289 30.5L245 68.5H221L266 30.5Z" fill="#F6E6A3"/>
<path d="M39.9059 54.1493L39.7717 47.7571L43.9851 48.1965L44.3025 51.7447L39.9059 54.1493Z" fill="#C49E00"/>
<path d="M39.7709 47.7571L39.5061 44.0443L43.8519 46.3401L43.9843 48.1965L39.7709 47.7571Z" fill="#F7D548"/>
<path d="M146.981 42.5861L151.355 50.9835L130.879 49.9458L130.801 49.9419L130.729 49.9716L120.92 54.0272L112.9 51.4814L112.88 51.4753L112.861 51.4715L107 50.3385L106.978 50.3344L106.956 50.333L102.729 50.0597L98.2976 47.5812L98.2454 47.552L98.1863 47.5421L95.7548 47.1328L95.6531 47.1157L95.5587 47.1571L93.6404 47.998L93.5963 48.0173L93.5591 48.048L91.9399 49.385L87.6243 48.5398L87.6231 48.5396L81.5791 47.3116L82.2054 42.297L88.7731 41.0623L90.9415 40.7296L93.6667 42.6394L93.6883 42.6545L93.7118 42.6661L95.7649 43.682L95.8294 43.7139L95.9012 43.7174L98.605 43.8501L98.6887 43.8543L98.765 43.8196L103.616 41.6135L108.882 42.0352L108.882 42.0353L108.891 42.0358L113.747 42.3076L113.808 42.311L113.866 42.2934L121.678 39.936L132.817 43.1122L132.87 43.1273L132.925 43.1252L146.981 42.5861Z" fill="#89751F" stroke="#776415" stroke-width="0.6912"/>
<path d="M81.4367 51.5379L82.1384 45.9556L89.1031 44.6858L91.4631 44.3355L94.3663 46.3305L96.4652 47.3504L99.227 47.4882L104.261 45.254L109.732 45.6929L114.692 45.9739L122.765 43.6015L134.248 46.8271L148.827 46.3063L153.699 55.4434L132.168 54.3356L122.038 58.4215L113.719 55.8219L107.73 54.6778L103.333 54.3914L98.7317 51.8659L96.2474 51.4521L94.2897 52.2894L92.5098 53.7275L87.9341 52.8419L81.4367 51.5379Z" fill="#A4880F"/>
<path d="M148.726 45.9875L153.054 54.3805L132.764 53.3591L132.676 53.3547L132.597 53.3929L124.561 57.2651L114.924 54.9025L114.916 54.9005L114.908 54.8989L109.1 53.7707L109.079 53.7665L109.057 53.7651L104.869 53.4952L100.48 51.021L100.404 50.9784L100.318 50.9765L95.4531 50.872L95.3307 50.8693L95.234 50.9443L92.7124 52.8981L88.4911 51.8985L88.4898 51.8982L83.9108 50.7766L84.5371 45.7487L91.0452 44.5093L93.1888 44.1758L95.7202 46.0256L95.7903 46.0769L95.8764 46.0889L100.913 46.7914L100.999 46.8034L101.08 46.7732L105.741 45.0478L110.972 45.4664L111.01 45.4694L111.047 45.4642L115.793 44.804L115.801 44.8029L115.808 44.8015L123.634 43.3517L134.69 46.5243L134.743 46.5396L134.799 46.5374L148.726 45.9875Z" fill="#E3C856" stroke="#F9E077" stroke-width="0.6912"/>
<path d="M70.4012 43.8722L69.816 34.9176L68.614 29.0283L68.2049 27.4702L67.6775 26.2822L66.9264 25.2266L66.1161 24.356L65.0822 23.6178L64.4829 23.2224L63.5544 22.7217L62.6259 22.2211L61.5328 21.6679L60.8744 21.4575L60.216 21.2471L57.3587 20.5379L62.1959 19.0253L64.6905 18.599L67.1722 18.7804L69.9704 19.6746L72.6504 20.9388L74.4355 22.7327L75.6085 24.7387L81.252 47.9514L70.4012 43.8722Z" fill="#776415"/>
<path d="M69.9725 52.4719L68.5007 61.3241L66.7197 67.0649L66.1578 68.5746L65.515 69.7044L64.6627 70.6802L63.77 71.466L62.6679 72.0978L62.0323 72.4318L61.0587 72.8377L60.085 73.2436L58.9424 73.6854L58.2664 73.8294L57.5903 73.9734L54.6767 74.3952L59.3397 76.3809L61.7796 77.0528L64.2671 77.1188L67.1403 76.507L69.9325 75.5153L71.887 73.9076L73.2535 72.028L81.1749 49.4907L69.9725 52.4719Z" fill="#776415"/>
<path d="M76.4296 24.1655L82.5436 44.5226L72.5244 40.8192L71.6817 32.9551L71.679 32.93L71.6727 32.9055L70.2947 27.5671L70.2922 27.5574L70.2891 27.5478L69.8343 26.1326L69.8255 26.1053L69.8124 26.0799L69.2524 24.9939L69.2367 24.9635L69.2154 24.9367L68.4382 23.9627L68.4248 23.9459L68.4094 23.9309L67.5796 23.1215L67.5566 23.0991L67.5298 23.0813L66.4828 22.3839L66.4829 22.3837L66.4731 22.3776L65.8673 22.0026L65.8556 21.9954L65.8433 21.9891L64.9083 21.5089L63.9733 21.0287L63.9734 21.0286L63.9661 21.0251L62.8665 20.4923L62.8444 20.4816L62.821 20.4741L62.1626 20.2637L61.5042 20.0533L61.477 20.0446L61.4487 20.0405L60.4085 19.8895L60.3948 19.8875L60.3811 19.8866L60.2695 19.8794L63.3674 18.7847L65.7474 18.4902L68.1349 18.7255L70.8789 19.6023L73.5035 20.7946L75.2561 22.4005L76.4296 24.1655Z" fill="#FFE887" stroke="#CFB02B" stroke-width="0.6912"/>
<path d="M74.9074 71.8765L81.819 52.0158L71.7582 55.0665L70.5616 62.8811L70.5578 62.9061L70.5504 62.9302L68.9326 68.2009L68.9296 68.2105L68.9261 68.22L68.4079 69.6132L68.3979 69.64L68.3836 69.6648L67.7751 70.7244L67.7581 70.7541L67.7356 70.7798L66.9152 71.7177L66.901 71.7339L66.8849 71.7482L66.0194 72.5193L65.9954 72.5407L65.9679 72.5572L64.8905 73.2066L64.8906 73.2068L64.8805 73.2124L64.2584 73.5597L64.2463 73.5664L64.2338 73.5721L63.2781 74.0096L62.3223 74.4471L62.3224 74.4472L62.315 74.4503L61.1924 74.9329L61.1699 74.9426L61.1461 74.949L60.4789 75.1295L59.8117 75.3099L59.7727 75.3204L59.7324 75.3217L58.6479 75.3561L58.6313 75.3566L58.6148 75.3556L57.4941 75.2834L58.1192 75.546L61.6026 76.6592L63.9799 77.0631L66.3756 76.936L69.1565 76.1839L71.8322 75.1114L73.6556 73.5864L74.9074 71.8765Z" fill="#FFE887" stroke="#CFB02B" stroke-width="0.6912"/>
<path d="M78.3768 36.511L79.5457 44.0573L74.7599 43.7162L74.7185 37.5567L74.5384 35.4658L74.3602 34.3204L74.0768 33.5042L73.6814 32.4708L73.4574 32.0364L72.5159 30.5791L73.4964 30.779L74.3194 31.042L75.0898 31.4696L75.8076 32.0618L76.6374 32.8712L77.3026 33.628L78.3768 36.511Z" fill="#B09523"/>
<path d="M77.0824 60.7105L79.028 52.1642L74.2191 52.1887L73.5414 59.2341L73.1458 61.6131L72.8498 62.9102L72.4828 63.8225L71.9816 64.9748L71.7133 65.4548L70.6236 67.0504L71.6223 66.8967L72.4704 66.6586L73.283 66.2282L74.0601 65.6054L74.9714 64.7426L75.7131 63.9275L77.0824 60.7105Z" fill="#B09523"/>
<path d="M77.2316 40.9891L76.7942 40.0253L76.1783 40.886L77.2316 40.9891Z" fill="#84BCB9"/>
<path d="M77.2289 40.9912L76.7933 40.0267L77.8464 40.1317L77.2289 40.9912Z" fill="#84BCB9"/>
<path d="M75.7417 39.9205L76.7948 40.0256L76.3593 39.061L75.7417 39.9205Z" fill="#84BCB9"/>
<path d="M77.8469 40.1244L76.7931 40.0262L77.405 39.1627L77.8469 40.1244Z" fill="#84BCB9"/>
<path d="M77.4098 39.1651L76.7938 40.0257L76.3564 39.062L77.4098 39.1651Z" fill="#84BCB9"/>
<path d="M76.1826 40.8898L76.7945 40.0263L75.7408 39.9281L76.1826 40.8898Z" fill="#84BCB9"/>
<path d="M77.1193 40.6871L76.82 40.0277L76.3986 40.6166L77.1193 40.6871Z" fill="#A8D6D7"/>
<path d="M77.1172 40.6882L76.8192 40.0283L77.5397 40.1002L77.1172 40.6882Z" fill="#A8D6D7"/>
<path d="M76.0998 39.9568L76.8204 40.0287L76.5223 39.3688L76.0998 39.9568Z" fill="#A8D6D7"/>
<path d="M77.5415 40.0961L76.8205 40.0289L77.2391 39.4381L77.5415 40.0961Z" fill="#A8D6D7"/>
<path d="M77.2411 39.4394L76.8197 40.0283L76.5205 39.3689L77.2411 39.4394Z" fill="#A8D6D7"/>
<path d="M76.4016 40.6193L76.8203 40.0285L76.0993 39.9613L76.4016 40.6193Z" fill="#A8D6D7"/>
<path d="M76.7752 37.6913L76.4751 37.0302L76.0527 37.6206L76.7752 37.6913Z" fill="#84BCB9"/>
<path d="M76.7734 37.6937L76.4746 37.0321L77.197 37.1042L76.7734 37.6937Z" fill="#84BCB9"/>
<path d="M75.7535 36.9595L76.4759 37.0315L76.1771 36.3699L75.7535 36.9595Z" fill="#84BCB9"/>
<path d="M77.1971 37.0994L76.4743 37.0321L76.894 36.4398L77.1971 37.0994Z" fill="#84BCB9"/>
<path d="M76.8968 36.4417L76.4744 37.032L76.1744 36.371L76.8968 36.4417Z" fill="#84BCB9"/>
<path d="M76.055 37.6243L76.4747 37.032L75.7519 36.9647L76.055 37.6243Z" fill="#84BCB9"/>
<path d="M76.7001 37.4869L76.4948 37.0346L76.2058 37.4385L76.7001 37.4869Z" fill="#A8D6D7"/>
<path d="M76.699 37.4875L76.4946 37.0349L76.9888 37.0842L76.699 37.4875Z" fill="#A8D6D7"/>
<path d="M75.9999 36.986L76.4941 37.0353L76.2897 36.5826L75.9999 36.986Z" fill="#A8D6D7"/>
<path d="M76.9885 37.0814L76.4939 37.0353L76.7811 36.6301L76.9885 37.0814Z" fill="#A8D6D7"/>
<path d="M76.7845 36.6295L76.4955 37.0335L76.2902 36.5812L76.7845 36.6295Z" fill="#A8D6D7"/>
<path d="M76.2074 37.4405L76.4946 37.0353L76 36.9892L76.2074 37.4405Z" fill="#A8D6D7"/>
<path d="M76.2878 35.2509L76.0659 34.7622L75.7536 35.1987L76.2878 35.2509Z" fill="#84BCB9"/>
<path d="M76.2864 35.2528L76.0655 34.7636L76.5996 34.8169L76.2864 35.2528Z" fill="#84BCB9"/>
<path d="M75.5328 34.71L76.0669 34.7633L75.846 34.2741L75.5328 34.71Z" fill="#84BCB9"/>
<path d="M76.6001 34.8137L76.0657 34.764L76.376 34.326L76.6001 34.8137Z" fill="#84BCB9"/>
<path d="M76.3781 34.326L76.0657 34.7625L75.8439 34.2737L76.3781 34.326Z" fill="#84BCB9"/>
<path d="M75.7568 35.2014L76.0671 34.7634L75.5327 34.7136L75.7568 35.2014Z" fill="#84BCB9"/>
<path d="M76.2318 35.1L76.08 34.7656L75.8663 35.0643L76.2318 35.1Z" fill="#A8D6D7"/>
<path d="M76.2314 35.1002L76.0803 34.7655L76.4457 34.8019L76.2314 35.1002Z" fill="#A8D6D7"/>
<path d="M75.7142 34.7292L76.0796 34.7657L75.9285 34.431L75.7142 34.7292Z" fill="#A8D6D7"/>
<path d="M76.4458 34.7999L76.0801 34.7659L76.2924 34.4662L76.4458 34.7999Z" fill="#A8D6D7"/>
<path d="M76.2947 34.4658L76.0809 34.7644L75.9292 34.43L76.2947 34.4658Z" fill="#A8D6D7"/>
<path d="M75.8674 35.0659L76.0797 34.7663L75.714 34.7322L75.8674 35.0659Z" fill="#A8D6D7"/>
<path d="M76.6412 55.2115L76.0949 56.1179L75.583 55.1915L76.6412 55.2115Z" fill="#84BCB9"/>
<path d="M76.6381 55.2091L76.0934 56.1166L77.1516 56.1345L76.6381 55.2091Z" fill="#84BCB9"/>
<path d="M75.0371 56.0999L76.0953 56.1178L75.5507 57.0253L75.0371 56.0999Z" fill="#84BCB9"/>
<path d="M77.1523 56.1418L76.0942 56.1169L76.6018 57.0457L77.1523 56.1418Z" fill="#84BCB9"/>
<path d="M76.6065 57.0439L76.0946 56.1176L75.5483 57.024L76.6065 57.0439Z" fill="#84BCB9"/>
<path d="M75.5874 55.1883L76.095 56.117L75.0369 56.0922L75.5874 55.1883Z" fill="#84BCB9"/>
<path d="M76.4952 55.4985L76.1213 56.1187L75.7711 55.4849L76.4952 55.4985Z" fill="#A8D6D7"/>
<path d="M76.4931 55.4971L76.1205 56.118L76.8445 56.1302L76.4931 55.4971Z" fill="#A8D6D7"/>
<path d="M75.3968 56.1053L76.1208 56.1175L75.7482 56.7384L75.3968 56.1053Z" fill="#A8D6D7"/>
<path d="M76.8444 56.1342L76.1205 56.1172L76.4677 56.7527L76.8444 56.1342Z" fill="#A8D6D7"/>
<path d="M76.4717 56.752L76.1215 56.1182L75.7477 56.7384L76.4717 56.752Z" fill="#A8D6D7"/>
<path d="M75.7734 55.4823L76.1207 56.1178L75.3967 56.1008L75.7734 55.4823Z" fill="#A8D6D7"/>
<path d="M75.8033 58.4328L75.4285 59.0545L75.0775 58.4191L75.8033 58.4328Z" fill="#84BCB9"/>
<path d="M75.8016 58.4302L75.4281 59.0526L76.1539 59.0649L75.8016 58.4302Z" fill="#84BCB9"/>
<path d="M74.703 59.041L75.4288 59.0533L75.0552 59.6758L74.703 59.041Z" fill="#84BCB9"/>
<path d="M76.1535 59.0697L75.4278 59.0527L75.7759 59.6897L76.1535 59.0697Z" fill="#84BCB9"/>
<path d="M75.7798 59.688L75.4288 59.0526L75.054 59.6744L75.7798 59.688Z" fill="#84BCB9"/>
<path d="M75.0801 58.4157L75.4282 59.0527L74.7025 59.0357L75.0801 58.4157Z" fill="#84BCB9"/>
<path d="M75.7041 58.6272L75.4477 59.0526L75.2075 58.6179L75.7041 58.6272Z" fill="#A8D6D7"/>
<path d="M75.7025 58.6262L75.4469 59.0521L75.9436 59.0605L75.7025 58.6262Z" fill="#A8D6D7"/>
<path d="M74.9503 59.0434L75.4469 59.0518L75.1913 59.4777L74.9503 59.0434Z" fill="#A8D6D7"/>
<path d="M75.9435 59.0635L75.447 59.0519L75.6852 59.4877L75.9435 59.0635Z" fill="#A8D6D7"/>
<path d="M75.6881 59.4885L75.4479 59.0538L75.1915 59.4792L75.6881 59.4885Z" fill="#A8D6D7"/>
<path d="M75.2095 58.6161L75.4477 59.052L74.9512 59.0403L75.2095 58.6161Z" fill="#A8D6D7"/>
<path d="M45.03 52.6355C44.6599 52.6568 44.3388 52.3823 44.3024 52.0133L43.6197 45.092C43.5833 44.7227 43.8449 44.3906 44.2125 44.3395L47.8156 43.8391C48.1062 43.7988 48.3906 43.9463 48.5251 44.207L49.134 45.3879C49.1753 45.4681 49.2006 45.5557 49.2083 45.6456L49.3884 47.7476L49.5799 50.4316C49.5846 50.4983 49.5797 50.5653 49.5652 50.6306L49.2861 51.8869C49.219 52.1887 48.9597 52.4093 48.6511 52.4271L45.03 52.6355Z" fill="#706432"/>
<path d="M75.0366 60.7989L74.7595 61.2586L74.4999 60.7888L75.0366 60.7989Z" fill="#84BCB9"/>
<path d="M75.0359 60.797L74.7597 61.2572L75.2963 61.2663L75.0359 60.797Z" fill="#84BCB9"/>
<path d="M74.2239 61.2486L74.7606 61.2577L74.4844 61.7179L74.2239 61.2486Z" fill="#84BCB9"/>
<path d="M75.2967 61.2696L74.7601 61.257L75.0175 61.728L75.2967 61.2696Z" fill="#84BCB9"/>
<path d="M75.0193 61.7281L74.7598 61.2583L74.4827 61.718L75.0193 61.7281Z" fill="#84BCB9"/>
<path d="M74.5032 60.7864L74.7605 61.2574L74.224 61.2448L74.5032 60.7864Z" fill="#84BCB9"/>
<path d="M74.9629 60.9428L74.7733 61.2573L74.5957 60.9359L74.9629 60.9428Z" fill="#A8D6D7"/>
<path d="M74.9628 60.9425L74.7738 61.2573L75.141 61.2636L74.9628 60.9425Z" fill="#A8D6D7"/>
<path d="M74.406 61.2509L74.7732 61.2572L74.5842 61.572L74.406 61.2509Z" fill="#A8D6D7"/>
<path d="M75.1405 61.2654L74.7734 61.2567L74.9495 61.579L75.1405 61.2654Z" fill="#A8D6D7"/>
<path d="M74.9512 61.5799L74.7737 61.2584L74.5841 61.573L74.9512 61.5799Z" fill="#A8D6D7"/>
<path d="M74.5977 60.9342L74.7738 61.2564L74.4067 61.2478L74.5977 60.9342Z" fill="#A8D6D7"/>
<path d="M49.587 50.5303L49.1972 45.5065L54.4296 44.4596L59.5577 43.7398L64.5805 43.3494L70.3737 43.3866L70.5809 51.2534L64.5254 52.0383L59.8772 51.8241L54.5706 51.3982L49.587 50.5303Z" fill="#2B1F0E"/>
<path d="M49.5613 49.6704L49.3162 46.2724L54.4255 45.6193L59.5559 45.1227L64.5799 44.8454L70.3728 44.8494L70.5518 50.0757L64.4938 50.6189L59.8466 50.4932L54.5416 50.2292L49.5613 49.6704Z" fill="#483416"/>
<path d="M71.4446 54.7949L65.017 47.6611L72.2026 41.0695L92.897 48.4062L71.4446 54.7949Z" fill="#A18B2A"/>
<path d="M73.0058 53.528L67.8048 47.7557L73.6191 42.4221L90.3641 48.3586L73.0058 53.528Z" fill="#776415"/>
<path d="M76.654 49.113L74.5249 47.9977L74.6236 50.3992L76.654 49.113Z" fill="#84BCB9"/>
<path d="M76.6525 49.1163L74.5255 47.997L76.5584 46.7147L76.6525 49.1163Z" fill="#84BCB9"/>
<path d="M72.4936 49.2796L74.5265 47.9972L72.3995 46.8779L72.4936 49.2796Z" fill="#84BCB9"/>
<path d="M76.5497 46.702L74.5253 47.9976L74.4155 45.5966L76.5497 46.702Z" fill="#84BCB9"/>
<path d="M74.4255 45.5964L74.5241 47.9979L72.3951 46.8826L74.4255 45.5964Z" fill="#84BCB9"/>
<path d="M74.6356 50.3982L74.5258 47.9972L72.5014 49.2928L74.6356 50.3982Z" fill="#84BCB9"/>
<path d="M76.0333 48.7263L74.5766 47.9632L74.6441 49.6063L76.0333 48.7263Z" fill="#A8D6D7"/>
<path d="M76.0319 48.7287L74.5766 47.9629L75.9675 47.0855L76.0319 48.7287Z" fill="#A8D6D7"/>
<path d="M73.1859 48.8402L74.5768 47.9629L73.1215 47.197L73.1859 48.8402Z" fill="#A8D6D7"/>
<path d="M75.9613 47.0768L74.5762 47.9632L74.5011 46.3204L75.9613 47.0768Z" fill="#A8D6D7"/>
<path d="M74.509 46.3199L74.5765 47.963L73.1198 47.1999L74.509 46.3199Z" fill="#A8D6D7"/>
<path d="M74.6542 49.6048L74.5791 47.962L73.194 48.8484L74.6542 49.6048Z" fill="#A8D6D7"/>
<path d="M123.491 53.0466L124.338 49.9315L121.216 50.7555L123.491 53.0466Z" fill="#84BCB9"/>
<path d="M123.486 53.0466L124.339 49.9331L126.609 52.2285L123.486 53.0466Z" fill="#84BCB9"/>
<path d="M122.071 47.6373L124.341 49.9327L125.194 46.8192L122.071 47.6373Z" fill="#84BCB9"/>
<path d="M126.626 52.2124L124.341 49.9318L127.458 49.0934L126.626 52.2124Z" fill="#84BCB9"/>
<path d="M127.459 49.108L124.338 49.932L125.185 46.8169L127.459 49.108Z" fill="#84BCB9"/>
<path d="M121.222 50.7715L124.339 49.933L122.054 47.6525L121.222 50.7715Z" fill="#84BCB9"/>
<path d="M123.787 52.1428L124.393 50.0188L122.25 50.5559L123.787 52.1428Z" fill="#A8D6D7"/>
<path d="M123.786 52.1417L124.396 50.0189L125.929 51.6087L123.786 52.1417Z" fill="#A8D6D7"/>
<path d="M122.859 48.4296L124.392 50.0194L125.002 47.8966L122.859 48.4296Z" fill="#A8D6D7"/>
<path d="M125.937 51.5982L124.394 50.0184L126.534 49.4714L125.937 51.5982Z" fill="#A8D6D7"/>
<path d="M126.536 49.482L124.393 50.0191L124.999 47.8951L126.536 49.482Z" fill="#A8D6D7"/>
<path d="M122.255 50.5683L124.395 50.0213L122.851 48.4415L122.255 50.5683Z" fill="#A8D6D7"/>
<path d="M117.57 51.7865L117.88 50.2457L116.39 50.7478L117.57 51.7865Z" fill="#84BCB9"/>
<path d="M117.567 51.7873L117.88 50.247L119.058 51.288L117.567 51.7873Z" fill="#84BCB9"/>
<path d="M116.704 49.2045L117.882 50.2455L118.194 48.7052L116.704 49.2045Z" fill="#84BCB9"/>
<path d="M119.063 51.2806L117.879 50.2473L119.366 49.7383L119.063 51.2806Z" fill="#84BCB9"/>
<path d="M119.368 49.7444L117.879 50.2465L118.188 48.7056L119.368 49.7444Z" fill="#84BCB9"/>
<path d="M116.392 50.7567L117.879 50.2477L116.694 49.2144L116.392 50.7567Z" fill="#84BCB9"/>
<path d="M117.699 51.3324L117.911 50.2781L116.892 50.6217L117.699 51.3324Z" fill="#A8D6D7"/>
<path d="M117.699 51.3316L117.913 50.2777L118.719 50.99L117.699 51.3316Z" fill="#A8D6D7"/>
<path d="M117.105 49.5628L117.911 50.2751L118.125 49.2212L117.105 49.5628Z" fill="#A8D6D7"/>
<path d="M118.723 50.982L117.913 50.275L118.93 49.9267L118.723 50.982Z" fill="#A8D6D7"/>
<path d="M118.93 49.9335L117.911 50.2771L118.123 49.2228L118.93 49.9335Z" fill="#A8D6D7"/>
<path d="M116.896 50.6273L117.913 50.279L117.103 49.572L116.896 50.6273Z" fill="#A8D6D7"/>
<path d="M112.724 51.1191L112.924 50.1245L111.963 50.4486L112.724 51.1191Z" fill="#84BCB9"/>
<path d="M112.723 51.119L112.925 50.1247L113.685 50.7967L112.723 51.119Z" fill="#84BCB9"/>
<path d="M112.166 49.4528L112.926 50.1248L113.128 49.1305L112.166 49.4528Z" fill="#84BCB9"/>
<path d="M113.69 50.7915L112.925 50.1245L113.885 49.7959L113.69 50.7915Z" fill="#84BCB9"/>
<path d="M113.886 49.8003L112.925 50.1245L113.125 49.1298L113.886 49.8003Z" fill="#84BCB9"/>
<path d="M111.964 50.4535L112.924 50.1249L112.159 49.4579L111.964 50.4535Z" fill="#84BCB9"/>
<path d="M112.808 50.8241L112.944 50.1435L112.287 50.3653L112.808 50.8241Z" fill="#A8D6D7"/>
<path d="M112.807 50.8235L112.945 50.1432L113.465 50.603L112.807 50.8235Z" fill="#A8D6D7"/>
<path d="M112.424 49.6839L112.944 50.1437L113.082 49.4634L112.424 49.6839Z" fill="#A8D6D7"/>
<path d="M113.468 50.5996L112.945 50.1433L113.602 49.9185L113.468 50.5996Z" fill="#A8D6D7"/>
<path d="M113.603 49.9217L112.945 50.1435L113.082 49.4629L113.603 49.9217Z" fill="#A8D6D7"/>
<path d="M112.288 50.3687L112.945 50.1439L112.422 49.6875L112.288 50.3687Z" fill="#A8D6D7"/>
<path d="M130.435 51.1154L130.635 50.1207L129.674 50.4448L130.435 51.1154Z" fill="#84BCB9"/>
<path d="M130.433 51.1153L130.635 50.121L131.395 50.793L130.433 51.1153Z" fill="#84BCB9"/>
<path d="M129.876 49.4489L130.636 50.1209L130.838 49.1266L129.876 49.4489Z" fill="#84BCB9"/>
<path d="M131.4 50.7877L130.635 50.1207L131.595 49.7921L131.4 50.7877Z" fill="#84BCB9"/>
<path d="M131.596 49.7966L130.635 50.1207L130.835 49.126L131.596 49.7966Z" fill="#84BCB9"/>
<path d="M129.675 50.4496L130.635 50.121L129.87 49.454L129.675 50.4496Z" fill="#84BCB9"/>
<path d="M130.519 50.8203L130.656 50.1398L129.998 50.3615L130.519 50.8203Z" fill="#A8D6D7"/>
<path d="M130.519 50.8199L130.657 50.1396L131.177 50.5993L130.519 50.8199Z" fill="#A8D6D7"/>
<path d="M130.136 49.6801L130.656 50.1399L130.794 49.4596L130.136 49.6801Z" fill="#A8D6D7"/>
<path d="M131.18 50.5959L130.657 50.1395L131.314 49.9147L131.18 50.5959Z" fill="#A8D6D7"/>
<path d="M131.315 49.9179L130.657 50.1397L130.794 49.4592L131.315 49.9179Z" fill="#A8D6D7"/>
<path d="M130 50.3652L130.657 50.1404L130.134 49.684L130 50.3652Z" fill="#A8D6D7"/>
<path d="M82.3694 47.6373L80.8861 47.9601L81.9073 49.0833L82.3694 47.6373Z" fill="#84BCB9"/>
<path d="M82.3703 47.6393L80.8864 47.9593L81.3512 46.5142L82.3703 47.6393Z" fill="#84BCB9"/>
<path d="M80.4222 49.4045L80.887 47.9594L79.4031 48.2794L80.4222 49.4045Z" fill="#84BCB9"/>
<path d="M81.3416 46.5119L80.8862 47.96L79.8598 46.8416L81.3416 46.5119Z" fill="#84BCB9"/>
<path d="M79.8652 46.8369L80.8864 47.9601L79.4031 48.2829L79.8652 46.8369Z" fill="#84BCB9"/>
<path d="M81.9133 49.0776L80.8869 47.9592L80.4315 49.4073L81.9133 49.0776Z" fill="#84BCB9"/>
<path d="M81.913 47.7016L80.8981 47.9225L81.5968 48.6909L81.913 47.7016Z" fill="#A8D6D7"/>
<path d="M81.9131 47.7043L80.8978 47.9232L81.2158 46.9345L81.9131 47.7043Z" fill="#A8D6D7"/>
<path d="M80.5803 48.9112L80.8984 47.9224L79.8831 48.1414L80.5803 48.9112Z" fill="#A8D6D7"/>
<path d="M81.2101 46.9312L80.8986 47.922L80.1963 47.1568L81.2101 46.9312Z" fill="#A8D6D7"/>
<path d="M80.1992 47.154L80.8979 47.9224L79.8831 48.1433L80.1992 47.154Z" fill="#A8D6D7"/>
<path d="M81.6008 48.6871L80.8985 47.9219L80.5869 48.9127L81.6008 48.6871Z" fill="#A8D6D7"/>
<path d="M28.2052 49.322L39.7712 47.7572L39.9054 54.1494L28.2052 49.322Z" fill="#D7B214"/>
<path d="M28.2047 49.3219L39.5059 44.0443L39.7707 47.7571L28.2047 49.3219Z" fill="#FFE887"/>
<path d="M16.1484 66.7144L15.1748 64.4478L18.7146 63.5118L17.3725 65.2179L16.1484 66.7144Z" fill="#FBCB00"/>
<path d="M15.1744 64.4479L14.5421 63.1584L16.4287 63.3502L18.7142 63.5119L15.1744 64.4479Z" fill="#FFDA3C"/>
<path d="M11.2648 66.6822L15.1745 64.4479L16.1481 66.7145L11.2648 66.6822Z" fill="#FFDC4A"/>
<path d="M11.2646 66.6822L14.542 63.1584L15.1743 64.4479L11.2646 66.6822Z" fill="#FFF1B7"/>
<path d="M7.0486 51.0874L7.02572 49.9979L8.63045 50.2015L7.79802 50.6776L7.0486 51.0874Z" fill="#FBCB00"/>
<path d="M7.02621 49.9982L6.98108 49.3654L7.72184 49.7567L8.63094 50.2018L7.02621 49.9982Z" fill="#FFDA3C"/>
<path d="M5.0538 50.2645L7.02527 49.9978L7.04815 51.0874L5.0538 50.2645Z" fill="#FFDC4A"/>
<path d="M5.05446 50.2648L6.9808 49.3652L7.02593 49.9981L5.05446 50.2648Z" fill="#FFF1B7"/>
<path d="M18.1874 47.9456L18.5938 46.9344L19.99 47.7512L19.0375 47.8626L18.1874 47.9456Z" fill="#FBCB00"/>
<path d="M18.5934 46.9347L18.8001 46.3348L19.328 46.9854L19.9896 47.7515L18.5934 46.9347Z" fill="#FFDA3C"/>
<path d="M16.6761 46.4063L18.5941 46.9344L18.1878 47.9456L16.6761 46.4063Z" fill="#FFDC4A"/>
<path d="M16.6757 46.4066L18.8005 46.3348L18.5938 46.9346L16.6757 46.4066Z" fill="#FFF1B7"/>
<path d="M17.0776 56.4727L16.4583 55.5759L17.9098 54.8619L17.4773 55.7178L17.0776 56.4727Z" fill="#FBCB00"/>
<path d="M16.4583 55.5761L16.072 55.0728L16.9058 54.9914L17.9098 54.8621L16.4583 55.5761Z" fill="#FFDA3C"/>
<path d="M14.96 56.8842L16.4585 55.5756L17.0778 56.4724L14.96 56.8842Z" fill="#FFDC4A"/>
<path d="M14.9594 56.8846L16.0716 55.0727L16.4579 55.576L14.9594 56.8846Z" fill="#FFF1B7"/>
<path d="M14.3271 37.2571L15.655 34.8031L18.969 37.2869L16.5137 37.2932L14.3271 37.2571Z" fill="#FBCB00"/>
<path d="M15.6559 34.8023L16.3563 33.3366L17.5098 35.145L18.9699 37.2862L15.6559 34.8023Z" fill="#FFDA3C"/>
<path d="M10.9304 32.903L15.6559 34.8042L14.3279 37.2582L10.9304 32.903Z" fill="#FFDC4A"/>
<path d="M10.9286 32.9047L16.3545 33.3402L15.6541 34.8059L10.9286 32.9047Z" fill="#FFF1B7"/>
<path d="M29.4679 39.0478L30.3268 37.4605L32.4704 39.0671L30.8823 39.0711L29.4679 39.0478Z" fill="#FBCB00"/>
<path d="M30.3279 37.4592L30.7809 36.5112L31.527 37.6809L32.4714 39.0658L30.3279 37.4592Z" fill="#FFDA3C"/>
<path d="M27.2709 36.2311L30.3274 37.4609L29.4685 39.0482L27.2709 36.2311Z" fill="#FFDC4A"/>
<path d="M27.2697 36.2313L30.7792 36.513L30.3262 37.461L27.2697 36.2313Z" fill="#FFF1B7"/>
<path d="M36.6424 70.6925L35.1132 69.7339L36.8534 67.6974L36.7561 69.2825L36.6424 70.6925Z" fill="#FBCB00"/>
<path d="M35.1119 69.733L34.1947 69.2203L35.4097 68.5504L36.8521 67.6964L35.1119 69.733Z" fill="#FFDA3C"/>
<path d="M33.6908 72.7053L35.1132 69.7336L36.6424 70.6921L33.6908 72.7053Z" fill="#FFDC4A"/>
<path d="M33.6913 72.7066L34.1965 69.2222L35.1137 69.7349L33.6913 72.7066Z" fill="#FFF1B7"/>
<path d="M28.2186 62.9758L27.4635 61.9525L29.1303 61.0667L28.6571 62.0808L28.2186 62.9758Z" fill="#FBCB00"/>
<path d="M27.4624 61.9527L26.9935 61.3798L27.963 61.2543L29.1292 61.0668L27.4624 61.9527Z" fill="#FFDA3C"/>
<path d="M25.7632 63.5345L27.4631 61.9535L28.2182 62.9768L25.7632 63.5345Z" fill="#FFDC4A"/>
<path d="M25.7635 63.5355L26.9945 61.3815L27.4634 61.9545L25.7635 63.5355Z" fill="#FFF1B7"/>
<path d="M35.0986 28.9441L36.2062 27.5588L37.9991 29.4865L36.4624 29.2134L35.0986 28.9441Z" fill="#FBCB00"/>
<path d="M36.2057 27.56L36.8092 26.7221L37.3268 27.9836L37.9986 29.4878L36.2057 27.56Z" fill="#FFDA3C"/>
<path d="M33.4644 25.8377L36.2061 27.5602L35.0985 28.9456L33.4644 25.8377Z" fill="#FFDC4A"/>
<path d="M33.4628 25.8382L36.808 26.7228L36.2045 27.5607L33.4628 25.8382Z" fill="#FFF1B7"/>
<path d="M262.277 49.1111H269.254V52.4159H262.277V49.1111ZM262.58 57.5999H258.303V42.4798H270.161V45.7846H262.58V57.5999ZM272.161 57.5999V42.4798H279.073C280.456 42.4798 281.644 42.703 282.637 43.1494C283.645 43.5958 284.423 44.2438 284.97 45.0934C285.517 45.9286 285.791 46.9222 285.791 48.0743C285.791 49.2119 285.517 50.1983 284.97 51.0335C284.423 51.8543 283.645 52.4879 282.637 52.9343C281.644 53.3663 280.456 53.5823 279.073 53.5823H274.537L276.438 51.7895V57.5999H272.161ZM281.514 57.5999L277.756 52.0919H282.313L286.093 57.5999H281.514ZM276.438 52.2431L274.537 50.2775H278.814C279.707 50.2775 280.369 50.0831 280.801 49.6943C281.248 49.3055 281.471 48.7655 281.471 48.0743C281.471 47.3687 281.248 46.8215 280.801 46.4326C280.369 46.0438 279.707 45.8494 278.814 45.8494H274.537L276.438 43.8838V52.2431ZM288.151 57.5999V42.4798H292.427V57.5999H288.151ZM295.47 57.5999V42.4798H302.62C304.29 42.4798 305.759 42.7894 307.026 43.4086C308.293 44.0278 309.28 44.899 309.985 46.0222C310.705 47.1454 311.065 48.4847 311.065 50.0399C311.065 51.5807 310.705 52.9199 309.985 54.0575C309.28 55.1807 308.293 56.0519 307.026 56.6711C305.759 57.2903 304.29 57.5999 302.62 57.5999H295.47ZM299.747 54.1871H302.447C303.311 54.1871 304.06 54.0287 304.693 53.7119C305.341 53.3807 305.845 52.9055 306.205 52.2863C306.565 51.6527 306.745 50.9039 306.745 50.0399C306.745 49.1615 306.565 48.4127 306.205 47.7935C305.845 47.1743 305.341 46.7062 304.693 46.3894C304.06 46.0582 303.311 45.8926 302.447 45.8926H299.747V54.1871ZM311.29 57.5999L317.964 42.4798H322.176L328.872 57.5999H324.423L319.196 44.575H320.88L315.653 57.5999H311.29ZM314.94 54.6623L316.042 51.5087H323.429L324.531 54.6623H314.94ZM332.959 57.5999V51.2063L333.953 53.7767L327.192 42.4798H331.706L336.588 50.6663H333.974L338.877 42.4798H343.025L336.285 53.7767L337.236 51.2063V57.5999H332.959Z" fill="#71611B"/>
<path d="M165.276 57.5999V54.9215L170.935 49.6295C171.338 49.2551 171.633 48.9239 171.821 48.6359C172.022 48.3479 172.152 48.0887 172.209 47.8583C172.281 47.6135 172.317 47.3903 172.317 47.1887C172.317 46.699 172.152 46.3174 171.821 46.0438C171.504 45.7702 171.021 45.6334 170.373 45.6334C169.826 45.6334 169.315 45.7558 168.84 46.0007C168.365 46.2454 167.976 46.6126 167.673 47.1022L164.498 45.331C165.06 44.3806 165.873 43.6174 166.939 43.0414C168.005 42.4654 169.279 42.1774 170.762 42.1774C171.929 42.1774 172.951 42.3646 173.829 42.739C174.708 43.1134 175.392 43.6462 175.881 44.3374C176.385 45.0286 176.637 45.8422 176.637 46.7782C176.637 47.2679 176.573 47.7575 176.443 48.2471C176.313 48.7223 176.061 49.2335 175.687 49.7807C175.327 50.3135 174.787 50.9111 174.067 51.5735L169.574 55.7207L168.861 54.2087H177.048V57.5999H165.276ZM183.347 57.9023C182.296 57.9023 181.245 57.7727 180.193 57.5135C179.157 57.2543 178.249 56.8871 177.472 56.4119L179.027 53.1935C179.632 53.5967 180.301 53.9063 181.036 54.1223C181.785 54.3383 182.512 54.4463 183.217 54.4463C183.952 54.4463 184.535 54.3095 184.967 54.0359C185.399 53.7623 185.615 53.3735 185.615 52.8695C185.615 52.4231 185.435 52.0703 185.075 51.8111C184.715 51.5375 184.125 51.4007 183.304 51.4007H181.511V48.7007L185.572 44.3158L185.982 45.7846H178.249V42.4798H189.179V45.1582L185.118 49.5431L183.023 48.3551H184.189C186.076 48.3551 187.501 48.7799 188.466 49.6295C189.445 50.4647 189.935 51.5447 189.935 52.8695C189.935 53.7335 189.697 54.5471 189.222 55.3103C188.761 56.0735 188.049 56.6999 187.084 57.1895C186.119 57.6647 184.873 57.9023 183.347 57.9023Z" fill="#F99600"/>
</svg>