<svg xmlns="http://www.w3.org/2000/svg" fill="none" viewBox="5.05 90.74 351.35 59.26">
<rect x="147" y="100.2" width="207.596" height="40.8" rx="6" fill="#396D6F"/>
<rect x="148.805" y="103.2" width="207.596" height="37.8" rx="6" fill="#B7D6D6"/>
<path d="M257 103.182L280 103.182L236 141.182L212 141.182L257 103.182Z" fill="#D2FFFF"/>
<path d="M234 103.182L257 103.182L213 141.182L189 141.182L234 103.182Z" fill="#D2FFFF"/>
<path d="M39.9059 126.749L39.7717 120.357L43.9851 120.797L44.3025 124.345L39.9059 126.749Z" fill="#497A76"/>
<path d="M39.7709 120.357L39.5061 116.644L43.8519 118.94L43.9843 120.797L39.7709 120.357Z" fill="#75A4A2"/>
<path d="M146.982 115.186L151.356 123.584L130.88 122.546L130.802 122.542L130.73 122.572L120.921 126.627L112.901 124.081L112.881 124.075L112.862 124.072L107.001 122.939L106.979 122.934L106.957 122.933L102.73 122.66L98.2986 120.181L98.2464 120.152L98.1873 120.142L95.7557 119.733L95.6541 119.716L95.5596 119.757L93.6414 120.598L93.5973 120.617L93.5601 120.648L91.9408 121.985L87.6253 121.14L87.6241 121.14L81.5801 119.912L82.2064 114.897L88.7741 113.662L90.9425 113.33L93.6677 115.239L93.6892 115.255L93.7128 115.266L95.7659 116.282L95.8304 116.314L95.9022 116.318L98.606 116.45L98.6897 116.454L98.766 116.42L103.617 114.214L108.883 114.635L108.883 114.635L108.892 114.636L113.748 114.908L113.809 114.911L113.867 114.894L121.679 112.536L132.818 115.712L132.871 115.727L132.926 115.725L146.982 115.186Z" fill="#396D6F" stroke="#396260" stroke-width="0.6912"/>
<path d="M81.4367 124.138L82.1384 118.556L89.1031 117.286L91.4631 116.936L94.3663 118.931L96.4652 119.95L99.227 120.088L104.261 117.854L109.732 118.293L114.692 118.574L122.765 116.202L134.248 119.427L148.827 118.906L153.699 128.044L132.168 126.936L122.038 131.022L113.719 128.422L107.73 127.278L103.333 126.992L98.7317 124.466L96.2474 124.052L94.2897 124.89L92.5098 126.328L87.9341 125.442L81.4367 124.138Z" fill="#326A67"/>
<path d="M148.726 118.588L153.054 126.981L132.764 125.959L132.676 125.955L132.597 125.993L124.561 129.865L114.924 127.503L114.916 127.501L114.908 127.499L109.1 126.371L109.079 126.367L109.057 126.365L104.869 126.095L100.48 123.621L100.404 123.578L100.318 123.577L95.4531 123.472L95.3307 123.469L95.234 123.544L92.7124 125.498L88.4911 124.499L88.4898 124.498L83.9108 123.377L84.5371 118.349L91.0452 117.109L93.1888 116.776L95.7202 118.626L95.7903 118.677L95.8764 118.689L100.913 119.391L100.999 119.403L101.08 119.373L105.741 117.648L110.972 118.066L111.01 118.069L111.047 118.064L115.793 117.404L115.801 117.403L115.808 117.402L123.634 115.952L134.69 119.124L134.743 119.14L134.799 119.138L148.726 118.588Z" fill="#86B3B5" stroke="#9BCDCB" stroke-width="0.6912"/>
<path d="M70.4012 116.472L69.816 107.518L68.614 101.628L68.2049 100.07L67.6775 98.8823L66.9264 97.8267L66.1161 96.9561L65.0822 96.2179L64.4829 95.8224L63.5544 95.3218L62.6259 94.8212L61.5328 94.268L60.8744 94.0576L60.216 93.8472L57.3587 93.138L62.1959 91.6254L64.6905 91.1991L67.1722 91.3805L69.9704 92.2747L72.6504 93.5389L74.4355 95.3328L75.6085 97.3388L81.252 120.551L70.4012 116.472Z" fill="#3C6162"/>
<path d="M69.9725 125.072L68.5007 133.924L66.7197 139.665L66.1578 141.175L65.515 142.305L64.6627 143.28L63.77 144.066L62.6679 144.698L62.0323 145.032L61.0587 145.438L60.085 145.844L58.9424 146.286L58.2664 146.43L57.5903 146.574L54.6767 146.995L59.3397 148.981L61.7796 149.653L64.2671 149.719L67.1403 149.107L69.9325 148.115L71.887 146.508L73.2535 144.628L81.1749 122.091L69.9725 125.072Z" fill="#3C6162"/>
<path d="M76.4296 96.7656L82.5436 117.123L72.5244 113.419L71.6817 105.555L71.679 105.53L71.6727 105.506L70.2947 100.167L70.2922 100.157L70.2891 100.148L69.8343 98.7327L69.8255 98.7054L69.8124 98.68L69.2524 97.594L69.2367 97.5636L69.2154 97.5368L68.4382 96.5628L68.4248 96.546L68.4094 96.531L67.5796 95.7216L67.5566 95.6992L67.5298 95.6814L66.4828 94.984L66.4829 94.9838L66.4731 94.9777L65.8673 94.6027L65.8556 94.5955L65.8433 94.5892L64.9083 94.109L63.9733 93.6288L63.9734 93.6287L63.9661 93.6252L62.8665 93.0924L62.8444 93.0817L62.821 93.0742L62.1626 92.8638L61.5042 92.6534L61.477 92.6447L61.4487 92.6406L60.4085 92.4896L60.3948 92.4876L60.3811 92.4867L60.2695 92.4795L63.3674 91.3848L65.7474 91.0903L68.1349 91.3255L70.8789 92.2024L73.5035 93.3947L75.2561 95.0006L76.4296 96.7656Z" fill="#B7D6D6" stroke="#84BCB9" stroke-width="0.6912"/>
<path d="M74.9074 144.477L81.819 124.616L71.7582 127.667L70.5616 135.481L70.5578 135.506L70.5504 135.53L68.9326 140.801L68.9296 140.811L68.9261 140.82L68.4079 142.213L68.3979 142.24L68.3836 142.265L67.7751 143.324L67.7581 143.354L67.7356 143.38L66.9152 144.318L66.901 144.334L66.8849 144.348L66.0194 145.119L65.9954 145.141L65.9679 145.157L64.8905 145.807L64.8906 145.807L64.8805 145.813L64.2584 146.16L64.2463 146.166L64.2338 146.172L63.2781 146.61L62.3223 147.047L62.3224 147.047L62.315 147.05L61.1924 147.533L61.1699 147.543L61.1461 147.549L60.4789 147.73L59.8117 147.91L59.7727 147.921L59.7324 147.922L58.6479 147.956L58.6313 147.957L58.6148 147.956L57.4941 147.883L58.1192 148.146L61.6026 149.259L63.9799 149.663L66.3756 149.536L69.1565 148.784L71.8322 147.712L73.6556 146.186L74.9074 144.477Z" fill="#B7D6D6" stroke="#84BCB9" stroke-width="0.6912"/>
<path d="M78.3768 109.111L79.5457 116.657L74.7599 116.316L74.7185 110.157L74.5384 108.066L74.3602 106.92L74.0768 106.104L73.6814 105.071L73.4574 104.636L72.5159 103.179L73.4964 103.379L74.3194 103.642L75.0898 104.07L75.8076 104.662L76.6374 105.471L77.3026 106.228L78.3768 109.111Z" fill="#304746"/>
<path d="M77.0824 133.311L79.028 124.764L74.2191 124.789L73.5414 131.834L73.1458 134.213L72.8498 135.51L72.4828 136.423L71.9816 137.575L71.7133 138.055L70.6236 139.651L71.6223 139.497L72.4704 139.259L73.283 138.828L74.0601 138.206L74.9714 137.343L75.7131 136.528L77.0824 133.311Z" fill="#304746"/>
<path d="M77.2316 113.589L76.7942 112.625L76.1783 113.486L77.2316 113.589Z" fill="#84BCB9"/>
<path d="M77.2289 113.591L76.7933 112.627L77.8464 112.732L77.2289 113.591Z" fill="#84BCB9"/>
<path d="M75.7417 112.521L76.7948 112.626L76.3593 111.661L75.7417 112.521Z" fill="#84BCB9"/>
<path d="M77.8469 112.725L76.7931 112.626L77.405 111.763L77.8469 112.725Z" fill="#84BCB9"/>
<path d="M77.4098 111.765L76.7938 112.626L76.3564 111.662L77.4098 111.765Z" fill="#84BCB9"/>
<path d="M76.1826 113.49L76.7945 112.626L75.7408 112.528L76.1826 113.49Z" fill="#84BCB9"/>
<path d="M77.1203 113.287L76.821 112.628L76.3996 113.217L77.1203 113.287Z" fill="#A8D6D7"/>
<path d="M77.1182 113.288L76.8201 112.628L77.5407 112.7L77.1182 113.288Z" fill="#A8D6D7"/>
<path d="M76.1008 112.557L76.8213 112.629L76.5233 111.969L76.1008 112.557Z" fill="#A8D6D7"/>
<path d="M77.5415 112.696L76.8205 112.629L77.2391 112.038L77.5415 112.696Z" fill="#A8D6D7"/>
<path d="M77.2421 112.039L76.8207 112.628L76.5214 111.969L77.2421 112.039Z" fill="#A8D6D7"/>
<path d="M76.4026 113.219L76.8213 112.629L76.1003 112.561L76.4026 113.219Z" fill="#A8D6D7"/>
<path d="M76.7761 110.291L76.4761 109.63L76.0537 110.221L76.7761 110.291Z" fill="#84BCB9"/>
<path d="M76.7744 110.294L76.4756 109.632L77.1979 109.704L76.7744 110.294Z" fill="#84BCB9"/>
<path d="M75.7545 109.559L76.4769 109.632L76.1781 108.97L75.7545 109.559Z" fill="#84BCB9"/>
<path d="M77.1981 109.699L76.4753 109.632L76.895 109.04L77.1981 109.699Z" fill="#84BCB9"/>
<path d="M76.8978 109.042L76.4754 109.632L76.1753 108.971L76.8978 109.042Z" fill="#84BCB9"/>
<path d="M76.056 110.224L76.4757 109.632L75.7529 109.565L76.056 110.224Z" fill="#84BCB9"/>
<path d="M76.7011 110.087L76.4958 109.635L76.2067 110.038L76.7011 110.087Z" fill="#A8D6D7"/>
<path d="M76.7 110.088L76.4956 109.635L76.9898 109.684L76.7 110.088Z" fill="#A8D6D7"/>
<path d="M76.0008 109.586L76.4951 109.635L76.2907 109.183L76.0008 109.586Z" fill="#A8D6D7"/>
<path d="M76.9895 109.681L76.4949 109.635L76.7821 109.23L76.9895 109.681Z" fill="#A8D6D7"/>
<path d="M76.7855 109.23L76.4965 109.633L76.2912 109.181L76.7855 109.23Z" fill="#A8D6D7"/>
<path d="M76.2084 110.041L76.4956 109.635L76.001 109.589L76.2084 110.041Z" fill="#A8D6D7"/>
<path d="M76.2878 107.851L76.0659 107.362L75.7536 107.799L76.2878 107.851Z" fill="#84BCB9"/>
<path d="M76.2864 107.853L76.0655 107.364L76.5996 107.417L76.2864 107.853Z" fill="#84BCB9"/>
<path d="M75.5328 107.31L76.0669 107.363L75.846 106.874L75.5328 107.31Z" fill="#84BCB9"/>
<path d="M76.6001 107.414L76.0657 107.364L76.376 106.926L76.6001 107.414Z" fill="#84BCB9"/>
<path d="M76.3781 106.926L76.0657 107.363L75.8439 106.874L76.3781 106.926Z" fill="#84BCB9"/>
<path d="M75.7568 107.801L76.0671 107.364L75.5327 107.314L75.7568 107.801Z" fill="#84BCB9"/>
<path d="M76.2318 107.7L76.08 107.366L75.8663 107.664L76.2318 107.7Z" fill="#A8D6D7"/>
<path d="M76.2314 107.7L76.0803 107.366L76.4457 107.402L76.2314 107.7Z" fill="#A8D6D7"/>
<path d="M75.7142 107.329L76.0796 107.366L75.9285 107.031L75.7142 107.329Z" fill="#A8D6D7"/>
<path d="M76.4458 107.4L76.0801 107.366L76.2924 107.066L76.4458 107.4Z" fill="#A8D6D7"/>
<path d="M76.2947 107.066L76.0809 107.365L75.9292 107.03L76.2947 107.066Z" fill="#A8D6D7"/>
<path d="M75.8674 107.666L76.0797 107.366L75.714 107.332L75.8674 107.666Z" fill="#A8D6D7"/>
<path d="M76.6412 127.811L76.0949 128.718L75.583 127.792L76.6412 127.811Z" fill="#84BCB9"/>
<path d="M76.6381 127.809L76.0934 128.717L77.1516 128.735L76.6381 127.809Z" fill="#84BCB9"/>
<path d="M75.0371 128.7L76.0953 128.718L75.5507 129.625L75.0371 128.7Z" fill="#84BCB9"/>
<path d="M77.1523 128.742L76.0942 128.717L76.6018 129.646L77.1523 128.742Z" fill="#84BCB9"/>
<path d="M76.6065 129.644L76.0946 128.718L75.5483 129.624L76.6065 129.644Z" fill="#84BCB9"/>
<path d="M75.5874 127.788L76.095 128.717L75.0369 128.692L75.5874 127.788Z" fill="#84BCB9"/>
<path d="M76.4952 128.098L76.1213 128.719L75.7711 128.085L76.4952 128.098Z" fill="#A8D6D7"/>
<path d="M76.4931 128.097L76.1205 128.718L76.8445 128.73L76.4931 128.097Z" fill="#A8D6D7"/>
<path d="M75.3968 128.705L76.1208 128.718L75.7482 129.338L75.3968 128.705Z" fill="#A8D6D7"/>
<path d="M76.8444 128.734L76.1205 128.717L76.4677 129.353L76.8444 128.734Z" fill="#A8D6D7"/>
<path d="M76.4717 129.352L76.1215 128.718L75.7477 129.338L76.4717 129.352Z" fill="#A8D6D7"/>
<path d="M75.7734 128.082L76.1207 128.718L75.3967 128.701L75.7734 128.082Z" fill="#A8D6D7"/>
<path d="M75.8042 131.033L75.4295 131.655L75.0784 131.019L75.8042 131.033Z" fill="#84BCB9"/>
<path d="M75.8026 131.03L75.4291 131.653L76.1549 131.665L75.8026 131.03Z" fill="#84BCB9"/>
<path d="M74.704 131.641L75.4298 131.653L75.0562 132.276L74.704 131.641Z" fill="#84BCB9"/>
<path d="M76.1545 131.67L75.4288 131.653L75.7769 132.29L76.1545 131.67Z" fill="#84BCB9"/>
<path d="M75.7808 132.288L75.4298 131.653L75.055 132.274L75.7808 132.288Z" fill="#84BCB9"/>
<path d="M75.0811 131.016L75.4292 131.653L74.7035 131.636L75.0811 131.016Z" fill="#84BCB9"/>
<path d="M75.7051 131.227L75.4487 131.653L75.2085 131.218L75.7051 131.227Z" fill="#A8D6D7"/>
<path d="M75.7035 131.226L75.4479 131.652L75.9445 131.661L75.7035 131.226Z" fill="#A8D6D7"/>
<path d="M74.9513 131.643L75.4479 131.652L75.1923 132.078L74.9513 131.643Z" fill="#A8D6D7"/>
<path d="M75.9445 131.664L75.448 131.652L75.6861 132.088L75.9445 131.664Z" fill="#A8D6D7"/>
<path d="M75.6891 132.089L75.4489 131.654L75.1924 132.079L75.6891 132.089Z" fill="#A8D6D7"/>
<path d="M75.2105 131.216L75.4487 131.652L74.9521 131.64L75.2105 131.216Z" fill="#A8D6D7"/>
<path d="M45.031 125.236C44.6608 125.257 44.3398 124.982 44.3034 124.613L43.6207 117.692C43.5843 117.323 43.8459 116.991 44.2135 116.94L47.8166 116.439C48.1072 116.399 48.3916 116.546 48.526 116.807L49.1349 117.988C49.1763 118.068 49.2016 118.156 49.2093 118.246L49.3894 120.348L49.5808 123.032C49.5856 123.098 49.5806 123.165 49.5661 123.231L49.2871 124.487C49.22 124.789 48.9607 125.009 48.652 125.027L45.031 125.236Z" fill="#555555"/>
<path d="M75.0366 133.399L74.7595 133.859L74.4999 133.389L75.0366 133.399Z" fill="#84BCB9"/>
<path d="M75.0359 133.397L74.7597 133.857L75.2963 133.866L75.0359 133.397Z" fill="#84BCB9"/>
<path d="M74.2239 133.849L74.7606 133.858L74.4844 134.318L74.2239 133.849Z" fill="#84BCB9"/>
<path d="M75.2967 133.87L74.7601 133.857L75.0175 134.328L75.2967 133.87Z" fill="#84BCB9"/>
<path d="M75.0193 134.328L74.7598 133.858L74.4827 134.318L75.0193 134.328Z" fill="#84BCB9"/>
<path d="M74.5032 133.387L74.7605 133.858L74.224 133.845L74.5032 133.387Z" fill="#84BCB9"/>
<path d="M74.9629 133.543L74.7733 133.857L74.5957 133.536L74.9629 133.543Z" fill="#A8D6D7"/>
<path d="M74.9628 133.542L74.7738 133.857L75.141 133.864L74.9628 133.542Z" fill="#A8D6D7"/>
<path d="M74.406 133.851L74.7732 133.857L74.5842 134.172L74.406 133.851Z" fill="#A8D6D7"/>
<path d="M75.1405 133.865L74.7734 133.857L74.9495 134.179L75.1405 133.865Z" fill="#A8D6D7"/>
<path d="M74.9512 134.18L74.7737 133.858L74.5841 134.173L74.9512 134.18Z" fill="#A8D6D7"/>
<path d="M74.5977 133.534L74.7738 133.856L74.4067 133.848L74.5977 133.534Z" fill="#A8D6D7"/>
<path d="M49.587 123.13L49.1972 118.107L54.4296 117.06L59.5577 116.34L64.5805 115.95L70.3737 115.987L70.5809 123.854L64.5254 124.638L59.8772 124.424L54.5706 123.998L49.587 123.13Z" fill="#253333"/>
<path d="M49.5613 122.27L49.3162 118.872L54.4255 118.219L59.5559 117.723L64.5799 117.445L70.3728 117.449L70.5518 122.676L64.4938 123.219L59.8466 123.093L54.5416 122.829L49.5613 122.27Z" fill="#303F3F"/>
<path d="M71.4446 127.395L65.017 120.261L72.2026 113.67L92.897 121.006L71.4446 127.395Z" fill="#4B7270"/>
<path d="M73.0058 126.128L67.8048 120.356L73.6191 115.022L90.3641 120.959L73.0058 126.128Z" fill="#304746"/>
<path d="M76.655 121.713L74.5259 120.598L74.6245 122.999L76.655 121.713Z" fill="#84BCB9"/>
<path d="M76.6535 121.717L74.5265 120.597L76.5594 119.315L76.6535 121.717Z" fill="#84BCB9"/>
<path d="M72.4946 121.88L74.5275 120.597L72.4005 119.478L72.4946 121.88Z" fill="#84BCB9"/>
<path d="M76.5507 119.302L74.5262 120.598L74.4165 118.197L76.5507 119.302Z" fill="#84BCB9"/>
<path d="M74.4265 118.197L74.5251 120.598L72.3961 119.483L74.4265 118.197Z" fill="#84BCB9"/>
<path d="M74.6366 122.998L74.5268 120.597L72.5024 121.893L74.6366 122.998Z" fill="#84BCB9"/>
<path d="M76.0343 121.326L74.5775 120.563L74.645 122.206L76.0343 121.326Z" fill="#A8D6D7"/>
<path d="M76.0329 121.329L74.5776 120.563L75.9685 119.686L76.0329 121.329Z" fill="#A8D6D7"/>
<path d="M73.1869 121.44L74.5778 120.563L73.1225 119.797L73.1869 121.44Z" fill="#A8D6D7"/>
<path d="M75.9623 119.677L74.5772 120.563L74.5021 118.921L75.9623 119.677Z" fill="#A8D6D7"/>
<path d="M74.51 118.92L74.5775 120.563L73.1207 119.8L74.51 118.92Z" fill="#A8D6D7"/>
<path d="M74.6552 122.205L74.5801 120.562L73.1949 121.449L74.6552 122.205Z" fill="#A8D6D7"/>
<path d="M123.491 125.647L124.338 122.532L121.216 123.356L123.491 125.647Z" fill="#68A4A1"/>
<path d="M123.486 125.647L124.339 122.533L126.609 124.829L123.486 125.647Z" fill="#68A4A1"/>
<path d="M122.071 120.237L124.341 122.533L125.194 119.419L122.071 120.237Z" fill="#68A4A1"/>
<path d="M126.626 124.812L124.341 122.532L127.458 121.693L126.626 124.812Z" fill="#68A4A1"/>
<path d="M127.459 121.708L124.338 122.532L125.185 119.417L127.459 121.708Z" fill="#68A4A1"/>
<path d="M121.222 123.372L124.339 122.533L122.054 120.253L121.222 123.372Z" fill="#68A4A1"/>
<path d="M123.787 124.743L124.393 122.619L122.25 123.156L123.787 124.743Z" fill="#8BCACC"/>
<path d="M123.786 124.742L124.396 122.619L125.929 124.209L123.786 124.742Z" fill="#8BCACC"/>
<path d="M122.859 121.03L124.392 122.62L125.002 120.497L122.859 121.03Z" fill="#8BCACC"/>
<path d="M125.937 124.198L124.394 122.619L126.534 122.071L125.937 124.198Z" fill="#8BCACC"/>
<path d="M126.536 122.082L124.393 122.619L124.999 120.495L126.536 122.082Z" fill="#8BCACC"/>
<path d="M122.255 123.168L124.395 122.621L122.851 121.042L122.255 123.168Z" fill="#8BCACC"/>
<path d="M117.57 124.387L117.88 122.846L116.39 123.348L117.57 124.387Z" fill="#68A4A1"/>
<path d="M117.567 124.387L117.88 122.847L119.058 123.888L117.567 124.387Z" fill="#68A4A1"/>
<path d="M116.704 121.805L117.882 122.846L118.194 121.305L116.704 121.805Z" fill="#68A4A1"/>
<path d="M119.063 123.881L117.879 122.847L119.366 122.338L119.063 123.881Z" fill="#68A4A1"/>
<path d="M119.368 122.344L117.879 122.847L118.188 121.306L119.368 122.344Z" fill="#68A4A1"/>
<path d="M116.392 123.357L117.879 122.848L116.694 121.815L116.392 123.357Z" fill="#68A4A1"/>
<path d="M117.7 123.933L117.912 122.878L116.893 123.222L117.7 123.933Z" fill="#8BCACC"/>
<path d="M117.7 123.932L117.914 122.878L118.72 123.59L117.7 123.932Z" fill="#8BCACC"/>
<path d="M117.106 122.163L117.912 122.875L118.126 121.821L117.106 122.163Z" fill="#8BCACC"/>
<path d="M118.724 123.582L117.914 122.875L118.931 122.527L118.724 123.582Z" fill="#8BCACC"/>
<path d="M118.931 122.534L117.912 122.877L118.124 121.823L118.931 122.534Z" fill="#8BCACC"/>
<path d="M116.897 123.227L117.914 122.879L117.104 122.172L116.897 123.227Z" fill="#8BCACC"/>
<path d="M112.725 123.719L112.925 122.725L111.964 123.049L112.725 123.719Z" fill="#68A4A1"/>
<path d="M112.724 123.719L112.926 122.725L113.686 123.397L112.724 123.719Z" fill="#68A4A1"/>
<path d="M112.167 122.053L112.927 122.725L113.129 121.731L112.167 122.053Z" fill="#68A4A1"/>
<path d="M113.691 123.392L112.926 122.725L113.886 122.396L113.691 123.392Z" fill="#68A4A1"/>
<path d="M113.887 122.4L112.926 122.725L113.126 121.73L113.887 122.4Z" fill="#68A4A1"/>
<path d="M111.965 123.054L112.925 122.725L112.16 122.058L111.965 123.054Z" fill="#68A4A1"/>
<path d="M112.808 123.424L112.945 122.744L112.288 122.965L112.808 123.424Z" fill="#8BCACC"/>
<path d="M112.808 123.424L112.946 122.743L113.466 123.203L112.808 123.424Z" fill="#8BCACC"/>
<path d="M112.425 122.284L112.945 122.744L113.083 122.063L112.425 122.284Z" fill="#8BCACC"/>
<path d="M113.469 123.2L112.946 122.743L113.603 122.518L113.469 123.2Z" fill="#8BCACC"/>
<path d="M113.604 122.522L112.946 122.743L113.083 122.063L113.604 122.522Z" fill="#8BCACC"/>
<path d="M112.289 122.969L112.946 122.744L112.423 122.287L112.289 122.969Z" fill="#8BCACC"/>
<path d="M130.435 123.715L130.635 122.721L129.674 123.045L130.435 123.715Z" fill="#68A4A1"/>
<path d="M130.433 123.715L130.635 122.721L131.395 123.393L130.433 123.715Z" fill="#68A4A1"/>
<path d="M129.876 122.049L130.636 122.721L130.838 121.727L129.876 122.049Z" fill="#68A4A1"/>
<path d="M131.4 123.388L130.635 122.721L131.595 122.392L131.4 123.388Z" fill="#68A4A1"/>
<path d="M131.596 122.397L130.635 122.721L130.835 121.726L131.596 122.397Z" fill="#68A4A1"/>
<path d="M129.675 123.05L130.635 122.721L129.87 122.054L129.675 123.05Z" fill="#68A4A1"/>
<path d="M130.518 123.42L130.655 122.74L129.997 122.962L130.518 123.42Z" fill="#8BCACC"/>
<path d="M130.518 123.42L130.656 122.74L131.176 123.199L130.518 123.42Z" fill="#8BCACC"/>
<path d="M130.135 122.28L130.655 122.74L130.793 122.06L130.135 122.28Z" fill="#8BCACC"/>
<path d="M131.179 123.196L130.656 122.739L131.313 122.515L131.179 123.196Z" fill="#8BCACC"/>
<path d="M131.314 122.518L130.656 122.74L130.793 122.059L131.314 122.518Z" fill="#8BCACC"/>
<path d="M129.999 122.965L130.656 122.74L130.133 122.284L129.999 122.965Z" fill="#8BCACC"/>
<path d="M82.3694 120.237L80.8861 120.56L81.9073 121.683L82.3694 120.237Z" fill="#84BCB9"/>
<path d="M82.3703 120.239L80.8864 120.559L81.3512 119.114L82.3703 120.239Z" fill="#84BCB9"/>
<path d="M80.4222 122.005L80.887 120.559L79.4031 120.879L80.4222 122.005Z" fill="#84BCB9"/>
<path d="M81.3416 119.112L80.8862 120.56L79.8598 119.442L81.3416 119.112Z" fill="#84BCB9"/>
<path d="M79.8652 119.437L80.8864 120.56L79.4031 120.883L79.8652 119.437Z" fill="#84BCB9"/>
<path d="M81.9133 121.678L80.8869 120.559L80.4315 122.007L81.9133 121.678Z" fill="#84BCB9"/>
<path d="M81.913 120.302L80.8981 120.523L81.5968 121.291L81.913 120.302Z" fill="#A8D6D7"/>
<path d="M81.9131 120.304L80.8978 120.523L81.2158 119.535L81.9131 120.304Z" fill="#A8D6D7"/>
<path d="M80.5803 121.511L80.8984 120.523L79.8831 120.741L80.5803 121.511Z" fill="#A8D6D7"/>
<path d="M81.2101 119.531L80.8986 120.522L80.1963 119.757L81.2101 119.531Z" fill="#A8D6D7"/>
<path d="M80.1992 119.754L80.8979 120.523L79.8831 120.743L80.1992 119.754Z" fill="#A8D6D7"/>
<path d="M81.6008 121.287L80.8985 120.522L80.5869 121.513L81.6008 121.287Z" fill="#A8D6D7"/>
<path d="M28.2052 121.922L39.7712 120.357L39.9054 126.749L28.2052 121.922Z" fill="#558B87"/>
<path d="M28.2047 121.922L39.5059 116.644L39.7707 120.357L28.2047 121.922Z" fill="#84BCB9"/>
<path d="M16.1484 139.314L15.1748 137.048L18.7146 136.112L17.3725 137.818L16.1484 139.314Z" fill="#B9DCD9"/>
<path d="M15.1744 137.048L14.5421 135.759L16.4287 135.95L18.7142 136.112L15.1744 137.048Z" fill="#CAEDEB"/>
<path d="M11.2648 139.282L15.1745 137.048L16.1481 139.315L11.2648 139.282Z" fill="#BDEDE9"/>
<path d="M11.2646 139.282L14.542 135.759L15.1743 137.048L11.2646 139.282Z" fill="#E2F5F4"/>
<path d="M7.04957 123.687L7.0267 122.598L8.63142 122.801L7.79899 123.278L7.04957 123.687Z" fill="#B9DCD9"/>
<path d="M7.02621 122.598L6.98108 121.965L7.72184 122.357L8.63094 122.802L7.02621 122.598Z" fill="#CAEDEB"/>
<path d="M5.05477 122.864L7.02625 122.598L7.04912 123.687L5.05477 122.864Z" fill="#BDEDE9"/>
<path d="M5.05543 122.865L6.98177 121.965L7.02691 122.598L5.05543 122.865Z" fill="#E2F5F4"/>
<path d="M18.1884 120.546L18.5948 119.535L19.991 120.351L19.0385 120.463L18.1884 120.546Z" fill="#B9DCD9"/>
<path d="M18.5943 119.535L18.8011 118.935L19.329 119.585L19.9906 120.352L18.5943 119.535Z" fill="#CAEDEB"/>
<path d="M16.677 119.006L18.5951 119.534L18.1887 120.546L16.677 119.006Z" fill="#BDEDE9"/>
<path d="M16.6767 119.007L18.8015 118.935L18.5947 119.535L16.6767 119.007Z" fill="#E2F5F4"/>
<path d="M17.0785 129.073L16.4593 128.176L17.9107 127.462L17.4782 128.318L17.0785 129.073Z" fill="#B9DCD9"/>
<path d="M16.4593 128.176L16.073 127.673L16.9068 127.591L17.9107 127.462L16.4593 128.176Z" fill="#CAEDEB"/>
<path d="M14.961 129.484L16.4595 128.176L17.0787 129.072L14.961 129.484Z" fill="#BDEDE9"/>
<path d="M14.9604 129.485L16.0726 127.673L16.4589 128.176L14.9604 129.485Z" fill="#E2F5F4"/>
<path d="M14.3271 109.857L15.655 107.403L18.969 109.887L16.5137 109.893L14.3271 109.857Z" fill="#B9DCD9"/>
<path d="M15.6559 107.403L16.3563 105.937L17.5098 107.745L18.9699 109.886L15.6559 107.403Z" fill="#CAEDEB"/>
<path d="M10.9304 105.503L15.6559 107.404L14.3279 109.858L10.9304 105.503Z" fill="#BDEDE9"/>
<path d="M10.9286 105.505L16.3545 105.94L15.6541 107.406L10.9286 105.505Z" fill="#E2F5F4"/>
<path d="M29.4669 111.648L30.3259 110.06L32.4694 111.667L30.8813 111.671L29.4669 111.648Z" fill="#B9DCD9"/>
<path d="M30.3269 110.059L30.78 109.111L31.5261 110.281L32.4705 111.666L30.3269 110.059Z" fill="#CAEDEB"/>
<path d="M27.2699 108.831L30.3264 110.061L29.4675 111.648L27.2699 108.831Z" fill="#BDEDE9"/>
<path d="M27.2687 108.831L30.7782 109.113L30.3252 110.061L27.2687 108.831Z" fill="#E2F5F4"/>
<path d="M36.6424 143.292L35.1132 142.334L36.8534 140.297L36.7561 141.882L36.6424 143.292Z" fill="#B9DCD9"/>
<path d="M35.1119 142.333L34.1947 141.82L35.4097 141.15L36.8521 140.296L35.1119 142.333Z" fill="#CAEDEB"/>
<path d="M33.6908 145.305L35.1132 142.334L36.6424 143.292L33.6908 145.305Z" fill="#BDEDE9"/>
<path d="M33.6913 145.307L34.1965 141.822L35.1137 142.335L33.6913 145.307Z" fill="#E2F5F4"/>
<path d="M28.2195 135.576L27.4645 134.553L29.1313 133.667L28.6581 134.681L28.2195 135.576Z" fill="#B9DCD9"/>
<path d="M27.4634 134.553L26.9945 133.98L27.964 133.854L29.1302 133.667L27.4634 134.553Z" fill="#CAEDEB"/>
<path d="M25.7642 136.134L27.4641 134.553L28.2191 135.577L25.7642 136.134Z" fill="#BDEDE9"/>
<path d="M25.7645 136.136L26.9954 133.982L27.4644 134.554L25.7645 136.136Z" fill="#E2F5F4"/>
<path d="M35.0986 101.544L36.2062 100.159L37.9991 102.086L36.4624 101.813L35.0986 101.544Z" fill="#B9DCD9"/>
<path d="M36.2057 100.16L36.8092 99.322L37.3268 100.583L37.9986 102.088L36.2057 100.16Z" fill="#CAEDEB"/>
<path d="M33.4644 98.4375L36.2061 100.16L35.0985 101.545L33.4644 98.4375Z" fill="#BDEDE9"/>
<path d="M33.4628 98.438L36.808 99.3227L36.2045 100.161L33.4628 98.438Z" fill="#E2F5F4"/>
<path d="M164.284 129.6L164.284 126.921L169.944 121.629C170.347 121.255 170.642 120.924 170.829 120.636C171.031 120.348 171.16 120.089 171.218 119.858C171.29 119.613 171.326 119.39 171.326 119.189C171.326 118.699 171.16 118.317 170.829 118.044C170.512 117.77 170.03 117.633 169.382 117.633C168.835 117.633 168.324 117.756 167.848 118.001C167.373 118.245 166.984 118.613 166.682 119.102L163.507 117.331C164.068 116.381 164.882 115.617 165.948 115.041C167.013 114.465 168.288 114.177 169.771 114.177C170.937 114.177 171.96 114.365 172.838 114.739C173.716 115.113 174.4 115.646 174.89 116.337C175.394 117.029 175.646 117.842 175.646 118.778C175.646 119.268 175.581 119.757 175.452 120.247C175.322 120.722 175.07 121.233 174.696 121.781C174.336 122.313 173.796 122.911 173.076 123.573L168.583 127.721L167.87 126.209L176.056 126.209L176.056 129.6L164.284 129.6ZM177.023 126.705L177.023 123.919L183.806 114.48L188.234 114.48L181.646 123.919L179.615 123.314L191.431 123.314L191.431 126.705L177.023 126.705ZM185.015 129.6L185.015 126.705L185.145 123.314L185.145 120.744L189.184 120.744L189.184 129.6L185.015 129.6Z" fill="#478585"/>
<path d="M224.729 129.902C223.49 129.902 222.295 129.751 221.143 129.449C220.005 129.132 219.077 128.729 218.357 128.239L219.761 125.085C220.437 125.517 221.215 125.877 222.093 126.165C222.986 126.439 223.872 126.576 224.75 126.576C225.341 126.576 225.816 126.525 226.176 126.425C226.536 126.309 226.795 126.165 226.953 125.993C227.126 125.805 227.213 125.589 227.213 125.345C227.213 124.999 227.054 124.725 226.737 124.524C226.421 124.322 226.01 124.157 225.506 124.027C225.002 123.897 224.441 123.768 223.821 123.638C223.217 123.509 222.605 123.343 221.985 123.141C221.381 122.94 220.826 122.681 220.322 122.364C219.818 122.033 219.408 121.608 219.091 121.089C218.774 120.557 218.616 119.887 218.616 119.081C218.616 118.173 218.861 117.353 219.35 116.618C219.854 115.884 220.603 115.293 221.597 114.847C222.59 114.401 223.829 114.177 225.312 114.177C226.305 114.177 227.277 114.293 228.228 114.523C229.193 114.739 230.049 115.063 230.798 115.495L229.481 118.67C228.761 118.281 228.048 117.993 227.342 117.806C226.637 117.605 225.953 117.504 225.29 117.504C224.7 117.504 224.225 117.569 223.865 117.698C223.505 117.813 223.245 117.972 223.087 118.173C222.929 118.375 222.849 118.605 222.849 118.865C222.849 119.196 223.001 119.462 223.303 119.664C223.62 119.851 224.03 120.009 224.534 120.139C225.053 120.254 225.614 120.377 226.219 120.506C226.838 120.636 227.45 120.801 228.055 121.003C228.674 121.19 229.236 121.449 229.74 121.781C230.244 122.097 230.647 122.522 230.949 123.055C231.266 123.573 231.425 124.229 231.425 125.021C231.425 125.899 231.173 126.713 230.669 127.461C230.179 128.196 229.437 128.786 228.444 129.233C227.465 129.679 226.226 129.902 224.729 129.902ZM231.586 129.6L238.26 114.48L242.472 114.48L249.168 129.6L244.719 129.6L239.491 116.575L241.176 116.575L235.949 129.6L231.586 129.6ZM235.236 126.662L236.338 123.509L243.725 123.509L244.827 126.662L235.236 126.662ZM252.84 129.6L252.84 117.871L248.196 117.871L248.196 114.48L261.739 114.48L261.739 117.871L257.116 117.871L257.116 129.6L252.84 129.6ZM270.077 129.902C267.845 129.902 266.103 129.29 264.85 128.066C263.597 126.842 262.971 125.107 262.971 122.861L262.971 114.48L267.247 114.48L267.247 122.731C267.247 124.027 267.499 124.956 268.003 125.517C268.522 126.079 269.227 126.36 270.12 126.36C271.013 126.36 271.711 126.079 272.215 125.517C272.719 124.956 272.971 124.027 272.971 122.731L272.971 114.48L277.183 114.48L277.183 122.861C277.183 125.107 276.557 126.842 275.304 128.066C274.051 129.29 272.309 129.902 270.077 129.902ZM280.081 129.6L280.081 114.48L286.993 114.48C288.375 114.48 289.563 114.703 290.557 115.149C291.565 115.596 292.342 116.244 292.889 117.093C293.437 117.929 293.71 118.922 293.71 120.074C293.71 121.212 293.437 122.198 292.889 123.033C292.342 123.854 291.565 124.488 290.557 124.934C289.563 125.366 288.375 125.582 286.993 125.582L282.457 125.582L284.357 123.789L284.357 129.6L280.081 129.6ZM289.433 129.6L285.675 124.092L290.233 124.092L294.013 129.6L289.433 129.6ZM284.357 124.243L282.457 122.277L286.733 122.277C287.626 122.277 288.289 122.083 288.721 121.694C289.167 121.305 289.39 120.765 289.39 120.074C289.39 119.369 289.167 118.821 288.721 118.433C288.289 118.044 287.626 117.849 286.733 117.849L282.457 117.849L284.357 115.884L284.357 124.243ZM296.07 129.6L296.07 114.48L303.219 114.48C304.89 114.48 306.358 114.789 307.626 115.409C308.893 116.028 309.879 116.899 310.585 118.022C311.305 119.145 311.665 120.485 311.665 122.04C311.665 123.581 311.305 124.92 310.585 126.057C309.879 127.181 308.893 128.052 307.626 128.671C306.358 129.29 304.89 129.6 303.219 129.6L296.07 129.6ZM300.346 126.187L303.046 126.187C303.91 126.187 304.659 126.029 305.293 125.712C305.941 125.381 306.445 124.905 306.805 124.286C307.165 123.653 307.345 122.904 307.345 122.04C307.345 121.161 307.165 120.413 306.805 119.793C306.445 119.174 305.941 118.706 305.293 118.389C304.659 118.058 303.91 117.893 303.046 117.893L300.346 117.893L300.346 126.187ZM311.89 129.6L318.564 114.48L322.776 114.48L329.472 129.6L325.022 129.6L319.795 116.575L321.48 116.575L316.253 129.6L311.89 129.6ZM315.54 126.662L316.642 123.509L324.029 123.509L325.13 126.662L315.54 126.662ZM333.559 129.6L333.559 123.206L334.552 125.777L327.791 114.48L332.306 114.48L337.187 122.666L334.574 122.666L339.477 114.48L343.624 114.48L336.885 125.777L337.835 123.206L337.835 129.6L333.559 129.6Z" fill="#395F60"/>
</svg>