<svg xmlns="http://www.w3.org/2000/svg" fill="none" viewBox="5.05 18.14 351.35 59.26">
<rect x="147" y="27.5999" width="207.596" height="40.8" rx="6" fill="#396D6F"/>
<rect x="148.805" y="30.5999" width="207.596" height="37.8" rx="6" fill="#B7D6D6"/>
<path d="M226.5 30.5L248 30.5L203.5 68.5H179L226.5 30.5Z" fill="#D2FFFF"/>
<path d="M248 30.5L271 30.5L227 68.5H203L248 30.5Z" fill="#D2FFFF"/>
<path d="M39.9059 54.1493L39.7717 47.7571L43.9851 48.1965L44.3025 51.7447L39.9059 54.1493Z" fill="#497A76"/>
<path d="M39.7709 47.7571L39.5061 44.0443L43.8519 46.3401L43.9843 48.1965L39.7709 47.7571Z" fill="#75A4A2"/>
<path d="M146.982 42.5862L151.356 50.9835L130.88 49.9458L130.802 49.9419L130.73 49.9716L120.921 54.0272L112.901 51.4814L112.881 51.4753L112.862 51.4715L107.001 50.3385L106.979 50.3344L106.957 50.333L102.73 50.0597L98.2986 47.5812L98.2464 47.552L98.1873 47.5421L95.7557 47.1328L95.6541 47.1157L95.5596 47.1571L93.6414 47.998L93.5973 48.0173L93.5601 48.048L91.9408 49.385L87.6253 48.5398L87.6241 48.5396L81.5801 47.3116L82.2064 42.297L88.7741 41.0623L90.9425 40.7296L93.6677 42.6394L93.6892 42.6545L93.7128 42.6661L95.7659 43.682L95.8304 43.7139L95.9022 43.7174L98.606 43.8501L98.6897 43.8543L98.766 43.8196L103.617 41.6135L108.883 42.0352L108.883 42.0353L108.892 42.0358L113.748 42.3076L113.809 42.311L113.867 42.2934L121.679 39.936L132.818 43.1122L132.871 43.1273L132.926 43.1252L146.982 42.5862Z" fill="#396D6F" stroke="#396260" stroke-width="0.6912"/>
<path d="M81.4367 51.5379L82.1384 45.9556L89.1031 44.6858L91.4631 44.3355L94.3663 46.3305L96.4652 47.3504L99.227 47.4882L104.261 45.254L109.732 45.6929L114.692 45.9739L122.765 43.6015L134.248 46.8271L148.827 46.3063L153.699 55.4434L132.168 54.3356L122.038 58.4215L113.719 55.8219L107.73 54.6778L103.333 54.3914L98.7317 51.8659L96.2474 51.4521L94.2897 52.2894L92.5098 53.7275L87.9341 52.8419L81.4367 51.5379Z" fill="#326A67"/>
<path d="M148.726 45.9875L153.054 54.3805L132.764 53.3591L132.676 53.3547L132.597 53.3929L124.561 57.2651L114.924 54.9025L114.916 54.9005L114.908 54.8989L109.1 53.7707L109.079 53.7665L109.057 53.7651L104.869 53.4952L100.48 51.021L100.404 50.9784L100.318 50.9765L95.4531 50.872L95.3307 50.8693L95.234 50.9443L92.7124 52.8981L88.4911 51.8985L88.4898 51.8982L83.9108 50.7766L84.5371 45.7487L91.0452 44.5093L93.1888 44.1758L95.7202 46.0256L95.7903 46.0769L95.8764 46.0889L100.913 46.7914L100.999 46.8034L101.08 46.7732L105.741 45.0478L110.972 45.4664L111.01 45.4694L111.047 45.4642L115.793 44.804L115.801 44.8029L115.808 44.8015L123.634 43.3517L134.69 46.5243L134.743 46.5396L134.799 46.5374L148.726 45.9875Z" fill="#86B3B5" stroke="#9BCDCB" stroke-width="0.6912"/>
<path d="M70.4012 43.8722L69.816 34.9176L68.614 29.0283L68.2049 27.4702L67.6775 26.2822L66.9264 25.2266L66.1161 24.356L65.0822 23.6178L64.4829 23.2224L63.5544 22.7217L62.6259 22.2211L61.5328 21.6679L60.8744 21.4575L60.216 21.2471L57.3587 20.5379L62.1959 19.0253L64.6905 18.599L67.1722 18.7804L69.9704 19.6746L72.6504 20.9388L74.4355 22.7327L75.6085 24.7387L81.252 47.9514L70.4012 43.8722Z" fill="#3C6162"/>
<path d="M69.9725 52.4721L68.5007 61.3242L66.7197 67.065L66.1578 68.5747L65.515 69.7045L64.6627 70.6803L63.77 71.4661L62.6679 72.098L62.0323 72.4319L61.0587 72.8378L60.085 73.2437L58.9424 73.6856L58.2664 73.8295L57.5903 73.9735L54.6767 74.3953L59.3397 76.381L61.7796 77.0529L64.2671 77.119L67.1403 76.5071L69.9325 75.5154L71.887 73.9078L73.2535 72.0282L81.1749 49.4909L69.9725 52.4721Z" fill="#3C6162"/>
<path d="M76.4296 24.1655L82.5436 44.5226L72.5244 40.8192L71.6817 32.9551L71.679 32.93L71.6727 32.9055L70.2947 27.5671L70.2922 27.5574L70.2891 27.5478L69.8343 26.1326L69.8255 26.1053L69.8124 26.0799L69.2524 24.9939L69.2367 24.9635L69.2154 24.9367L68.4382 23.9627L68.4248 23.9459L68.4094 23.9309L67.5796 23.1215L67.5566 23.0991L67.5298 23.0813L66.4828 22.3839L66.4829 22.3837L66.4731 22.3776L65.8673 22.0026L65.8556 21.9954L65.8433 21.9891L64.9083 21.5089L63.9733 21.0287L63.9734 21.0286L63.9661 21.0251L62.8665 20.4923L62.8444 20.4816L62.821 20.4741L62.1626 20.2637L61.5042 20.0533L61.477 20.0446L61.4487 20.0405L60.4085 19.8895L60.3948 19.8875L60.3811 19.8866L60.2695 19.8794L63.3674 18.7847L65.7474 18.4902L68.1349 18.7255L70.8789 19.6023L73.5035 20.7946L75.2561 22.4005L76.4296 24.1655Z" fill="#B7D6D6" stroke="#84BCB9" stroke-width="0.6912"/>
<path d="M74.9074 71.8765L81.819 52.0158L71.7582 55.0665L70.5616 62.8811L70.5578 62.9061L70.5504 62.9302L68.9326 68.2009L68.9296 68.2105L68.9261 68.22L68.4079 69.6132L68.3979 69.64L68.3836 69.6648L67.7751 70.7244L67.7581 70.7541L67.7356 70.7798L66.9152 71.7177L66.901 71.7339L66.8849 71.7482L66.0194 72.5193L65.9954 72.5407L65.9679 72.5572L64.8905 73.2066L64.8906 73.2068L64.8805 73.2124L64.2584 73.5597L64.2463 73.5664L64.2338 73.5721L63.2781 74.0096L62.3223 74.4471L62.3224 74.4472L62.315 74.4503L61.1924 74.9329L61.1699 74.9426L61.1461 74.949L60.4789 75.1295L59.8117 75.3099L59.7727 75.3204L59.7324 75.3217L58.6479 75.3561L58.6313 75.3566L58.6148 75.3556L57.4941 75.2834L58.1192 75.546L61.6026 76.6592L63.9799 77.0631L66.3756 76.936L69.1565 76.1839L71.8322 75.1114L73.6556 73.5864L74.9074 71.8765Z" fill="#B7D6D6" stroke="#84BCB9" stroke-width="0.6912"/>
<path d="M78.3768 36.5111L79.5457 44.0575L74.7599 43.7163L74.7185 37.5569L74.5384 35.4659L74.3602 34.3205L74.0768 33.5043L73.6814 32.4709L73.4574 32.0365L72.5159 30.5792L73.4964 30.7791L74.3194 31.0421L75.0898 31.4697L75.8076 32.0619L76.6374 32.8713L77.3026 33.6281L78.3768 36.5111Z" fill="#304746"/>
<path d="M77.0824 60.7106L79.028 52.1644L74.2191 52.1889L73.5414 59.2342L73.1458 61.6132L72.8498 62.9103L72.4828 63.8226L71.9816 64.975L71.7133 65.4549L70.6236 67.0506L71.6223 66.8968L72.4704 66.6588L73.283 66.2284L74.0601 65.6056L74.9714 64.7428L75.7131 63.9276L77.0824 60.7106Z" fill="#304746"/>
<path d="M77.2316 40.9891L76.7942 40.0253L76.1783 40.886L77.2316 40.9891Z" fill="#84BCB9"/>
<path d="M77.2289 40.9912L76.7933 40.0267L77.8464 40.1317L77.2289 40.9912Z" fill="#84BCB9"/>
<path d="M75.7417 39.9205L76.7948 40.0256L76.3593 39.061L75.7417 39.9205Z" fill="#84BCB9"/>
<path d="M77.8469 40.1244L76.7931 40.0262L77.405 39.1627L77.8469 40.1244Z" fill="#84BCB9"/>
<path d="M77.4098 39.1651L76.7938 40.0257L76.3564 39.062L77.4098 39.1651Z" fill="#84BCB9"/>
<path d="M76.1826 40.8898L76.7945 40.0263L75.7408 39.9281L76.1826 40.8898Z" fill="#84BCB9"/>
<path d="M77.1203 40.6872L76.821 40.0278L76.3996 40.6167L77.1203 40.6872Z" fill="#A8D6D7"/>
<path d="M77.1182 40.6884L76.8201 40.0284L77.5407 40.1003L77.1182 40.6884Z" fill="#A8D6D7"/>
<path d="M76.1008 39.9568L76.8213 40.0287L76.5233 39.3688L76.1008 39.9568Z" fill="#A8D6D7"/>
<path d="M77.5415 40.0961L76.8205 40.0289L77.2391 39.4381L77.5415 40.0961Z" fill="#A8D6D7"/>
<path d="M77.2421 39.4394L76.8207 40.0283L76.5214 39.3689L77.2421 39.4394Z" fill="#A8D6D7"/>
<path d="M76.4026 40.6195L76.8213 40.0286L76.1003 39.9615L76.4026 40.6195Z" fill="#A8D6D7"/>
<path d="M76.7761 37.6914L76.4761 37.0304L76.0537 37.6207L76.7761 37.6914Z" fill="#84BCB9"/>
<path d="M76.7744 37.6939L76.4756 37.0323L77.1979 37.1043L76.7744 37.6939Z" fill="#84BCB9"/>
<path d="M75.7545 36.9596L76.4769 37.0317L76.1781 36.3701L75.7545 36.9596Z" fill="#84BCB9"/>
<path d="M77.1981 37.0995L76.4753 37.0322L76.895 36.4399L77.1981 37.0995Z" fill="#84BCB9"/>
<path d="M76.8978 36.4418L76.4754 37.0322L76.1753 36.3711L76.8978 36.4418Z" fill="#84BCB9"/>
<path d="M76.056 37.6245L76.4757 37.0322L75.7529 36.9648L76.056 37.6245Z" fill="#84BCB9"/>
<path d="M76.7011 37.487L76.4958 37.0347L76.2067 37.4386L76.7011 37.487Z" fill="#A8D6D7"/>
<path d="M76.7 37.4876L76.4956 37.035L76.9898 37.0843L76.7 37.4876Z" fill="#A8D6D7"/>
<path d="M76.0008 36.9861L76.4951 37.0354L76.2907 36.5827L76.0008 36.9861Z" fill="#A8D6D7"/>
<path d="M76.9895 37.0815L76.4949 37.0354L76.7821 36.6302L76.9895 37.0815Z" fill="#A8D6D7"/>
<path d="M76.7855 36.6297L76.4965 37.0336L76.2912 36.5813L76.7855 36.6297Z" fill="#A8D6D7"/>
<path d="M76.2084 37.4407L76.4956 37.0354L76.001 36.9893L76.2084 37.4407Z" fill="#A8D6D7"/>
<path d="M76.2878 35.2509L76.0659 34.7622L75.7536 35.1987L76.2878 35.2509Z" fill="#84BCB9"/>
<path d="M76.2864 35.2528L76.0655 34.7636L76.5996 34.8169L76.2864 35.2528Z" fill="#84BCB9"/>
<path d="M75.5328 34.7099L76.0669 34.7632L75.846 34.274L75.5328 34.7099Z" fill="#84BCB9"/>
<path d="M76.6001 34.8136L76.0657 34.7638L76.376 34.3259L76.6001 34.8136Z" fill="#84BCB9"/>
<path d="M76.3781 34.326L76.0657 34.7625L75.8439 34.2737L76.3781 34.326Z" fill="#84BCB9"/>
<path d="M75.7568 35.2014L76.0671 34.7634L75.5327 34.7136L75.7568 35.2014Z" fill="#84BCB9"/>
<path d="M76.2318 35.1L76.08 34.7656L75.8663 35.0643L76.2318 35.1Z" fill="#A8D6D7"/>
<path d="M76.2314 35.1002L76.0803 34.7655L76.4457 34.8019L76.2314 35.1002Z" fill="#A8D6D7"/>
<path d="M75.7142 34.7292L76.0796 34.7657L75.9285 34.431L75.7142 34.7292Z" fill="#A8D6D7"/>
<path d="M76.4458 34.7999L76.0801 34.7659L76.2924 34.4662L76.4458 34.7999Z" fill="#A8D6D7"/>
<path d="M76.2947 34.4658L76.0809 34.7644L75.9292 34.43L76.2947 34.4658Z" fill="#A8D6D7"/>
<path d="M75.8674 35.0659L76.0797 34.7663L75.714 34.7322L75.8674 35.0659Z" fill="#A8D6D7"/>
<path d="M76.6412 55.2115L76.0949 56.1179L75.583 55.1915L76.6412 55.2115Z" fill="#84BCB9"/>
<path d="M76.6381 55.2091L76.0934 56.1166L77.1516 56.1345L76.6381 55.2091Z" fill="#84BCB9"/>
<path d="M75.0371 56.0999L76.0953 56.1178L75.5507 57.0253L75.0371 56.0999Z" fill="#84BCB9"/>
<path d="M77.1523 56.1418L76.0942 56.1169L76.6018 57.0457L77.1523 56.1418Z" fill="#84BCB9"/>
<path d="M76.6065 57.0439L76.0946 56.1176L75.5483 57.024L76.6065 57.0439Z" fill="#84BCB9"/>
<path d="M75.5874 55.1883L76.095 56.117L75.0369 56.0922L75.5874 55.1883Z" fill="#84BCB9"/>
<path d="M76.4952 55.4985L76.1213 56.1187L75.7711 55.4849L76.4952 55.4985Z" fill="#A8D6D7"/>
<path d="M76.4931 55.4971L76.1205 56.118L76.8445 56.1302L76.4931 55.4971Z" fill="#A8D6D7"/>
<path d="M75.3968 56.1053L76.1208 56.1175L75.7482 56.7384L75.3968 56.1053Z" fill="#A8D6D7"/>
<path d="M76.8444 56.1342L76.1205 56.1172L76.4677 56.7527L76.8444 56.1342Z" fill="#A8D6D7"/>
<path d="M76.4717 56.752L76.1215 56.1182L75.7477 56.7384L76.4717 56.752Z" fill="#A8D6D7"/>
<path d="M75.7734 55.4823L76.1207 56.1178L75.3967 56.1008L75.7734 55.4823Z" fill="#A8D6D7"/>
<path d="M75.8042 58.4328L75.4295 59.0545L75.0784 58.4191L75.8042 58.4328Z" fill="#84BCB9"/>
<path d="M75.8026 58.4302L75.4291 59.0526L76.1549 59.0649L75.8026 58.4302Z" fill="#84BCB9"/>
<path d="M74.704 59.041L75.4298 59.0533L75.0562 59.6758L74.704 59.041Z" fill="#84BCB9"/>
<path d="M76.1545 59.0697L75.4288 59.0527L75.7769 59.6897L76.1545 59.0697Z" fill="#84BCB9"/>
<path d="M75.7808 59.688L75.4298 59.0526L75.055 59.6744L75.7808 59.688Z" fill="#84BCB9"/>
<path d="M75.0811 58.4157L75.4292 59.0527L74.7035 59.0357L75.0811 58.4157Z" fill="#84BCB9"/>
<path d="M75.7051 58.6272L75.4487 59.0526L75.2085 58.6179L75.7051 58.6272Z" fill="#A8D6D7"/>
<path d="M75.7035 58.6262L75.4479 59.0521L75.9445 59.0605L75.7035 58.6262Z" fill="#A8D6D7"/>
<path d="M74.9513 59.0434L75.4479 59.0518L75.1923 59.4777L74.9513 59.0434Z" fill="#A8D6D7"/>
<path d="M75.9445 59.0635L75.448 59.0519L75.6861 59.4877L75.9445 59.0635Z" fill="#A8D6D7"/>
<path d="M75.6891 59.4885L75.4489 59.0538L75.1924 59.4792L75.6891 59.4885Z" fill="#A8D6D7"/>
<path d="M75.2105 58.6161L75.4487 59.052L74.9521 59.0403L75.2105 58.6161Z" fill="#A8D6D7"/>
<path d="M45.031 52.6355C44.6608 52.6568 44.3398 52.3823 44.3034 52.0133L43.6207 45.092C43.5843 44.7227 43.8459 44.3906 44.2135 44.3395L47.8166 43.8391C48.1072 43.7988 48.3916 43.9463 48.526 44.207L49.1349 45.3879C49.1763 45.4681 49.2016 45.5557 49.2093 45.6456L49.3894 47.7476L49.5808 50.4316C49.5856 50.4983 49.5806 50.5653 49.5661 50.6306L49.2871 51.8869C49.22 52.1887 48.9607 52.4093 48.652 52.4271L45.031 52.6355Z" fill="#555555"/>
<path d="M75.0366 60.7989L74.7595 61.2586L74.4999 60.7888L75.0366 60.7989Z" fill="#84BCB9"/>
<path d="M75.0359 60.797L74.7597 61.2572L75.2963 61.2663L75.0359 60.797Z" fill="#84BCB9"/>
<path d="M74.2239 61.2486L74.7606 61.2577L74.4844 61.7179L74.2239 61.2486Z" fill="#84BCB9"/>
<path d="M75.2967 61.2696L74.7601 61.257L75.0175 61.728L75.2967 61.2696Z" fill="#84BCB9"/>
<path d="M75.0193 61.7281L74.7598 61.2583L74.4827 61.718L75.0193 61.7281Z" fill="#84BCB9"/>
<path d="M74.5032 60.7866L74.7605 61.2576L74.224 61.245L74.5032 60.7866Z" fill="#84BCB9"/>
<path d="M74.9629 60.9428L74.7733 61.2573L74.5957 60.9359L74.9629 60.9428Z" fill="#A8D6D7"/>
<path d="M74.9628 60.9425L74.7738 61.2573L75.141 61.2636L74.9628 60.9425Z" fill="#A8D6D7"/>
<path d="M74.406 61.2509L74.7732 61.2572L74.5842 61.572L74.406 61.2509Z" fill="#A8D6D7"/>
<path d="M75.1405 61.2654L74.7734 61.2567L74.9495 61.579L75.1405 61.2654Z" fill="#A8D6D7"/>
<path d="M74.9512 61.5799L74.7737 61.2584L74.5841 61.573L74.9512 61.5799Z" fill="#A8D6D7"/>
<path d="M74.5977 60.9342L74.7738 61.2564L74.4067 61.2478L74.5977 60.9342Z" fill="#A8D6D7"/>
<path d="M49.587 50.5303L49.1972 45.5065L54.4296 44.4596L59.5577 43.7398L64.5805 43.3494L70.3737 43.3866L70.5809 51.2534L64.5254 52.0383L59.8772 51.8241L54.5706 51.3982L49.587 50.5303Z" fill="#253333"/>
<path d="M49.5613 49.6704L49.3162 46.2724L54.4255 45.6193L59.5559 45.1227L64.5799 44.8454L70.3728 44.8494L70.5518 50.0757L64.4938 50.6189L59.8466 50.4932L54.5416 50.2292L49.5613 49.6704Z" fill="#303F3F"/>
<path d="M71.4446 54.795L65.017 47.6612L72.2026 41.0696L92.897 48.4063L71.4446 54.795Z" fill="#4B7270"/>
<path d="M73.0058 53.528L67.8048 47.7557L73.6191 42.4221L90.3641 48.3586L73.0058 53.528Z" fill="#304746"/>
<path d="M76.655 49.1131L74.5259 47.9978L74.6245 50.3993L76.655 49.1131Z" fill="#84BCB9"/>
<path d="M76.6535 49.1166L74.5265 47.9972L76.5594 46.7149L76.6535 49.1166Z" fill="#84BCB9"/>
<path d="M72.4946 49.2797L74.5275 47.9974L72.4005 46.878L72.4946 49.2797Z" fill="#84BCB9"/>
<path d="M76.5507 46.7021L74.5262 47.9977L74.4165 45.5967L76.5507 46.7021Z" fill="#84BCB9"/>
<path d="M74.4265 45.5966L74.5251 47.9981L72.3961 46.8827L74.4265 45.5966Z" fill="#84BCB9"/>
<path d="M74.6366 50.3984L74.5268 47.9974L72.5024 49.2929L74.6366 50.3984Z" fill="#84BCB9"/>
<path d="M76.0343 48.7263L74.5775 47.9632L74.645 49.6063L76.0343 48.7263Z" fill="#A8D6D7"/>
<path d="M76.0329 48.7287L74.5776 47.9629L75.9685 47.0855L76.0329 48.7287Z" fill="#A8D6D7"/>
<path d="M73.1869 48.8402L74.5778 47.9629L73.1225 47.197L73.1869 48.8402Z" fill="#A8D6D7"/>
<path d="M75.9623 47.0766L74.5772 47.9631L74.5021 46.3203L75.9623 47.0766Z" fill="#A8D6D7"/>
<path d="M74.51 46.3199L74.5775 47.963L73.1207 47.1999L74.51 46.3199Z" fill="#A8D6D7"/>
<path d="M74.6552 49.6048L74.5801 47.962L73.1949 48.8484L74.6552 49.6048Z" fill="#A8D6D7"/>
<path d="M123.491 53.0466L124.338 49.9315L121.216 50.7555L123.491 53.0466Z" fill="#68A4A1"/>
<path d="M123.486 53.0466L124.339 49.9331L126.609 52.2285L123.486 53.0466Z" fill="#68A4A1"/>
<path d="M122.071 47.6373L124.341 49.9327L125.194 46.8192L122.071 47.6373Z" fill="#68A4A1"/>
<path d="M126.626 52.2124L124.341 49.9318L127.458 49.0934L126.626 52.2124Z" fill="#68A4A1"/>
<path d="M127.459 49.108L124.338 49.932L125.185 46.8169L127.459 49.108Z" fill="#68A4A1"/>
<path d="M121.222 50.7715L124.339 49.933L122.054 47.6525L121.222 50.7715Z" fill="#68A4A1"/>
<path d="M123.787 52.1428L124.393 50.0188L122.25 50.5559L123.787 52.1428Z" fill="#8BCACC"/>
<path d="M123.786 52.1417L124.396 50.0189L125.929 51.6087L123.786 52.1417Z" fill="#8BCACC"/>
<path d="M122.859 48.4296L124.392 50.0194L125.002 47.8966L122.859 48.4296Z" fill="#8BCACC"/>
<path d="M125.937 51.5982L124.394 50.0184L126.534 49.4714L125.937 51.5982Z" fill="#8BCACC"/>
<path d="M126.536 49.482L124.393 50.0191L124.999 47.8951L126.536 49.482Z" fill="#8BCACC"/>
<path d="M122.255 50.5682L124.395 50.0212L122.851 48.4414L122.255 50.5682Z" fill="#8BCACC"/>
<path d="M117.57 51.7866L117.88 50.2458L116.39 50.7479L117.57 51.7866Z" fill="#68A4A1"/>
<path d="M117.567 51.7874L117.88 50.2471L119.058 51.2881L117.567 51.7874Z" fill="#68A4A1"/>
<path d="M116.704 49.2046L117.882 50.2456L118.194 48.7053L116.704 49.2046Z" fill="#68A4A1"/>
<path d="M119.063 51.2807L117.879 50.2474L119.366 49.7384L119.063 51.2807Z" fill="#68A4A1"/>
<path d="M119.368 49.7445L117.879 50.2466L118.188 48.7057L119.368 49.7445Z" fill="#68A4A1"/>
<path d="M116.392 50.7568L117.879 50.2478L116.694 49.2146L116.392 50.7568Z" fill="#68A4A1"/>
<path d="M117.7 51.3324L117.912 50.2781L116.893 50.6217L117.7 51.3324Z" fill="#8BCACC"/>
<path d="M117.7 51.3316L117.914 50.2777L118.72 50.99L117.7 51.3316Z" fill="#8BCACC"/>
<path d="M117.106 49.5628L117.912 50.2751L118.126 49.2212L117.106 49.5628Z" fill="#8BCACC"/>
<path d="M118.724 50.982L117.914 50.275L118.931 49.9267L118.724 50.982Z" fill="#8BCACC"/>
<path d="M118.931 49.9335L117.912 50.2771L118.124 49.2228L118.931 49.9335Z" fill="#8BCACC"/>
<path d="M116.897 50.6273L117.914 50.279L117.104 49.572L116.897 50.6273Z" fill="#8BCACC"/>
<path d="M112.725 51.1191L112.925 50.1245L111.964 50.4486L112.725 51.1191Z" fill="#68A4A1"/>
<path d="M112.724 51.119L112.926 50.1247L113.686 50.7967L112.724 51.119Z" fill="#68A4A1"/>
<path d="M112.167 49.4528L112.927 50.1248L113.129 49.1305L112.167 49.4528Z" fill="#68A4A1"/>
<path d="M113.691 50.7915L112.926 50.1245L113.886 49.7959L113.691 50.7915Z" fill="#68A4A1"/>
<path d="M113.887 49.8003L112.926 50.1245L113.126 49.1298L113.887 49.8003Z" fill="#68A4A1"/>
<path d="M111.965 50.4535L112.925 50.1249L112.16 49.4579L111.965 50.4535Z" fill="#68A4A1"/>
<path d="M112.808 50.8241L112.945 50.1435L112.288 50.3653L112.808 50.8241Z" fill="#8BCACC"/>
<path d="M112.808 50.8235L112.946 50.1432L113.466 50.603L112.808 50.8235Z" fill="#8BCACC"/>
<path d="M112.425 49.6839L112.945 50.1437L113.083 49.4634L112.425 49.6839Z" fill="#8BCACC"/>
<path d="M113.469 50.5996L112.946 50.1433L113.603 49.9185L113.469 50.5996Z" fill="#8BCACC"/>
<path d="M113.604 49.9217L112.946 50.1435L113.083 49.4629L113.604 49.9217Z" fill="#8BCACC"/>
<path d="M112.289 50.3687L112.946 50.1439L112.423 49.6875L112.289 50.3687Z" fill="#8BCACC"/>
<path d="M130.435 51.1155L130.635 50.1208L129.674 50.4449L130.435 51.1155Z" fill="#68A4A1"/>
<path d="M130.433 51.1154L130.635 50.1212L131.395 50.7931L130.433 51.1154Z" fill="#68A4A1"/>
<path d="M129.876 49.4491L130.636 50.121L130.838 49.1268L129.876 49.4491Z" fill="#68A4A1"/>
<path d="M131.4 50.7878L130.635 50.1208L131.595 49.7923L131.4 50.7878Z" fill="#68A4A1"/>
<path d="M131.596 49.7967L130.635 50.1208L130.835 49.1261L131.596 49.7967Z" fill="#68A4A1"/>
<path d="M129.675 50.4497L130.635 50.1211L129.87 49.4541L129.675 50.4497Z" fill="#68A4A1"/>
<path d="M130.519 50.8203L130.656 50.1398L129.998 50.3615L130.519 50.8203Z" fill="#8BCACC"/>
<path d="M130.519 50.8199L130.657 50.1396L131.177 50.5993L130.519 50.8199Z" fill="#8BCACC"/>
<path d="M130.136 49.6803L130.656 50.14L130.794 49.4597L130.136 49.6803Z" fill="#8BCACC"/>
<path d="M131.18 50.596L130.657 50.1396L131.314 49.9148L131.18 50.596Z" fill="#8BCACC"/>
<path d="M131.315 49.9181L130.657 50.1398L130.794 49.4593L131.315 49.9181Z" fill="#8BCACC"/>
<path d="M130 50.3652L130.657 50.1404L130.134 49.684L130 50.3652Z" fill="#8BCACC"/>
<path d="M82.3694 47.6373L80.8861 47.9601L81.9073 49.0833L82.3694 47.6373Z" fill="#84BCB9"/>
<path d="M82.3703 47.6393L80.8864 47.9593L81.3512 46.5142L82.3703 47.6393Z" fill="#84BCB9"/>
<path d="M80.4222 49.4045L80.887 47.9594L79.4031 48.2794L80.4222 49.4045Z" fill="#84BCB9"/>
<path d="M81.3416 46.5119L80.8862 47.96L79.8598 46.8416L81.3416 46.5119Z" fill="#84BCB9"/>
<path d="M79.8652 46.8369L80.8864 47.9601L79.4031 48.2829L79.8652 46.8369Z" fill="#84BCB9"/>
<path d="M81.9133 49.0776L80.8869 47.9592L80.4315 49.4073L81.9133 49.0776Z" fill="#84BCB9"/>
<path d="M81.913 47.7016L80.8981 47.9225L81.5968 48.6909L81.913 47.7016Z" fill="#A8D6D7"/>
<path d="M81.9131 47.7043L80.8978 47.9232L81.2158 46.9345L81.9131 47.7043Z" fill="#A8D6D7"/>
<path d="M80.5803 48.9112L80.8984 47.9224L79.8831 48.1414L80.5803 48.9112Z" fill="#A8D6D7"/>
<path d="M81.2101 46.9312L80.8986 47.922L80.1963 47.1568L81.2101 46.9312Z" fill="#A8D6D7"/>
<path d="M80.1992 47.154L80.8979 47.9224L79.8831 48.1433L80.1992 47.154Z" fill="#A8D6D7"/>
<path d="M81.6008 48.6871L80.8985 47.9219L80.5869 48.9127L81.6008 48.6871Z" fill="#A8D6D7"/>
<path d="M28.2052 49.322L39.7712 47.7572L39.9054 54.1494L28.2052 49.322Z" fill="#558B87"/>
<path d="M28.2047 49.3219L39.5059 44.0443L39.7707 47.7571L28.2047 49.3219Z" fill="#84BCB9"/>
<path d="M16.1484 66.7144L15.1748 64.4478L18.7146 63.5118L17.3725 65.2179L16.1484 66.7144Z" fill="#B9DCD9"/>
<path d="M15.1744 64.4479L14.5421 63.1584L16.4287 63.3502L18.7142 63.5119L15.1744 64.4479Z" fill="#CAEDEB"/>
<path d="M11.2648 66.6822L15.1745 64.4479L16.1481 66.7145L11.2648 66.6822Z" fill="#BDEDE9"/>
<path d="M11.2646 66.6822L14.542 63.1584L15.1743 64.4479L11.2646 66.6822Z" fill="#E2F5F4"/>
<path d="M7.04957 51.0874L7.0267 49.9979L8.63142 50.2015L7.79899 50.6776L7.04957 51.0874Z" fill="#B9DCD9"/>
<path d="M7.02719 49.9982L6.98205 49.3654L7.72281 49.7567L8.63192 50.2018L7.02719 49.9982Z" fill="#CAEDEB"/>
<path d="M5.05477 50.2645L7.02625 49.9978L7.04912 51.0874L5.05477 50.2645Z" fill="#BDEDE9"/>
<path d="M5.05543 50.2648L6.98177 49.3652L7.02691 49.9981L5.05543 50.2648Z" fill="#E2F5F4"/>
<path d="M18.1884 47.9456L18.5948 46.9344L19.991 47.7512L19.0385 47.8626L18.1884 47.9456Z" fill="#B9DCD9"/>
<path d="M18.5943 46.9347L18.8011 46.3348L19.329 46.9854L19.9906 47.7515L18.5943 46.9347Z" fill="#CAEDEB"/>
<path d="M16.677 46.4063L18.5951 46.9344L18.1887 47.9456L16.677 46.4063Z" fill="#BDEDE9"/>
<path d="M16.6767 46.4066L18.8015 46.3348L18.5947 46.9346L16.6767 46.4066Z" fill="#E2F5F4"/>
<path d="M17.0785 56.4727L16.4593 55.5759L17.9107 54.8619L17.4782 55.7178L17.0785 56.4727Z" fill="#B9DCD9"/>
<path d="M16.4593 55.5761L16.073 55.0728L16.9068 54.9914L17.9107 54.8621L16.4593 55.5761Z" fill="#CAEDEB"/>
<path d="M14.961 56.8843L16.4595 55.5757L17.0787 56.4725L14.961 56.8843Z" fill="#BDEDE9"/>
<path d="M14.9604 56.8846L16.0726 55.0727L16.4589 55.576L14.9604 56.8846Z" fill="#E2F5F4"/>
<path d="M14.3271 37.2572L15.655 34.8032L18.969 37.287L16.5137 37.2933L14.3271 37.2572Z" fill="#B9DCD9"/>
<path d="M15.6559 34.8024L16.3563 33.3368L17.5098 35.1452L18.9699 37.2863L15.6559 34.8024Z" fill="#CAEDEB"/>
<path d="M10.9304 32.9031L15.6559 34.8043L14.3279 37.2583L10.9304 32.9031Z" fill="#BDEDE9"/>
<path d="M10.9286 32.9048L16.3545 33.3403L15.6541 34.806L10.9286 32.9048Z" fill="#E2F5F4"/>
<path d="M29.4679 39.0478L30.3268 37.4605L32.4704 39.0671L30.8823 39.0711L29.4679 39.0478Z" fill="#B9DCD9"/>
<path d="M30.3279 37.4593L30.7809 36.5113L31.527 37.681L32.4714 39.066L30.3279 37.4593Z" fill="#CAEDEB"/>
<path d="M27.2709 36.2313L30.3274 37.461L29.4685 39.0483L27.2709 36.2313Z" fill="#BDEDE9"/>
<path d="M27.2697 36.2314L30.7792 36.5131L30.3262 37.4611L27.2697 36.2314Z" fill="#E2F5F4"/>
<path d="M36.6424 70.6925L35.1132 69.7339L36.8534 67.6974L36.7561 69.2825L36.6424 70.6925Z" fill="#B9DCD9"/>
<path d="M35.1119 69.733L34.1947 69.2203L35.4097 68.5504L36.8521 67.6964L35.1119 69.733Z" fill="#CAEDEB"/>
<path d="M33.6908 72.7053L35.1132 69.7336L36.6424 70.6921L33.6908 72.7053Z" fill="#BDEDE9"/>
<path d="M33.6913 72.7066L34.1965 69.2222L35.1137 69.7349L33.6913 72.7066Z" fill="#E2F5F4"/>
<path d="M28.2195 62.9758L27.4645 61.9525L29.1313 61.0667L28.6581 62.0808L28.2195 62.9758Z" fill="#B9DCD9"/>
<path d="M27.4634 61.9526L26.9945 61.3797L27.964 61.2542L29.1302 61.0667L27.4634 61.9526Z" fill="#CAEDEB"/>
<path d="M25.7642 63.5345L27.4641 61.9535L28.2191 62.9768L25.7642 63.5345Z" fill="#BDEDE9"/>
<path d="M25.7645 63.5355L26.9954 61.3815L27.4644 61.9545L25.7645 63.5355Z" fill="#E2F5F4"/>
<path d="M35.0986 28.9441L36.2062 27.5588L37.9991 29.4865L36.4624 29.2134L35.0986 28.9441Z" fill="#B9DCD9"/>
<path d="M36.2057 27.56L36.8092 26.7221L37.3268 27.9836L37.9986 29.4878L36.2057 27.56Z" fill="#CAEDEB"/>
<path d="M33.4644 25.8377L36.2061 27.5602L35.0985 28.9456L33.4644 25.8377Z" fill="#BDEDE9"/>
<path d="M33.4628 25.8382L36.808 26.7228L36.2045 27.5607L33.4628 25.8382Z" fill="#E2F5F4"/>
<path d="M165.223 58.2V55.5216L170.882 50.2295C171.285 49.8551 171.581 49.5239 171.768 49.2359C171.969 48.9479 172.099 48.6887 172.157 48.4583C172.229 48.2135 172.265 47.9903 172.265 47.7887C172.265 47.2991 172.099 46.9175 171.768 46.6439C171.451 46.3703 170.969 46.2335 170.321 46.2335C169.773 46.2335 169.262 46.3559 168.787 46.6007C168.312 46.8455 167.923 47.2127 167.621 47.7023L164.445 45.9311C165.007 44.9807 165.821 44.2175 166.886 43.6415C167.952 43.0655 169.226 42.7775 170.709 42.7775C171.876 42.7775 172.898 42.9647 173.777 43.3391C174.655 43.7135 175.339 44.2463 175.829 44.9375C176.333 45.6287 176.585 46.4423 176.585 47.3783C176.585 47.8679 176.52 48.3575 176.39 48.8471C176.261 49.3223 176.009 49.8335 175.634 50.3807C175.274 50.9135 174.734 51.5111 174.014 52.1735L169.521 56.3208L168.809 54.8088H176.995V58.2H165.223ZM183.532 58.5024C182.495 58.5024 181.451 58.3728 180.4 58.1136C179.349 57.8544 178.442 57.4872 177.678 57.012L179.212 53.7935C179.831 54.1967 180.501 54.5063 181.221 54.7223C181.955 54.9383 182.682 55.0464 183.402 55.0464C184.122 55.0464 184.706 54.9096 185.152 54.636C185.598 54.348 185.822 53.9519 185.822 53.4479C185.822 53.1455 185.735 52.8791 185.562 52.6487C185.39 52.4039 185.094 52.2239 184.677 52.1087C184.259 51.9791 183.662 51.9143 182.884 51.9143H178.78L179.536 43.0799H189.17V46.3847H181.048L183.23 44.5055L182.733 50.4671L180.551 48.5879H183.899C185.397 48.5879 186.599 48.8039 187.506 49.2359C188.414 49.6535 189.076 50.2223 189.494 50.9423C189.911 51.6479 190.12 52.4471 190.12 53.3399C190.12 54.2327 189.882 55.0752 189.407 55.8672C188.946 56.6448 188.234 57.2784 187.269 57.768C186.304 58.2576 185.058 58.5024 183.532 58.5024Z" fill="#478585"/>
<path d="M252.416 58.5024C251.177 58.5024 249.982 58.3512 248.83 58.0488C247.692 57.732 246.764 57.3288 246.044 56.8392L247.448 53.6855C248.124 54.1175 248.902 54.4775 249.78 54.7656C250.673 55.0392 251.559 55.176 252.437 55.176C253.028 55.176 253.503 55.1256 253.863 55.0248C254.223 54.9096 254.482 54.7656 254.64 54.5927C254.813 54.4055 254.9 54.1895 254.9 53.9447C254.9 53.5991 254.741 53.3255 254.424 53.1239C254.108 52.9223 253.697 52.7567 253.193 52.6271C252.689 52.4975 252.128 52.3679 251.508 52.2383C250.904 52.1087 250.292 51.9431 249.672 51.7415C249.068 51.5399 248.513 51.2807 248.009 50.9639C247.505 50.6327 247.095 50.2079 246.778 49.6895C246.461 49.1567 246.303 48.4871 246.303 47.6807C246.303 46.7735 246.548 45.9527 247.037 45.2183C247.541 44.4839 248.29 43.8935 249.284 43.4471C250.277 43.0007 251.516 42.7775 252.999 42.7775C253.992 42.7775 254.964 42.8927 255.915 43.1231C256.88 43.3391 257.736 43.6631 258.485 44.0951L257.168 47.2703C256.448 46.8815 255.735 46.5935 255.029 46.4063C254.324 46.2047 253.64 46.1039 252.977 46.1039C252.387 46.1039 251.912 46.1687 251.552 46.2983C251.192 46.4135 250.932 46.5719 250.774 46.7735C250.616 46.9751 250.536 47.2055 250.536 47.4647C250.536 47.7959 250.688 48.0623 250.99 48.2639C251.307 48.4511 251.717 48.6095 252.221 48.7391C252.74 48.8543 253.301 48.9767 253.906 49.1063C254.525 49.2359 255.137 49.4015 255.742 49.6031C256.361 49.7903 256.923 50.0495 257.427 50.3807C257.931 50.6975 258.334 51.1223 258.636 51.6551C258.953 52.1735 259.112 52.8287 259.112 53.6207C259.112 54.4991 258.86 55.3128 258.356 56.0616C257.866 56.796 257.124 57.3864 256.131 57.8328C255.152 58.2792 253.913 58.5024 252.416 58.5024ZM268.064 58.5024C265.832 58.5024 264.09 57.8904 262.837 56.6664C261.584 55.4424 260.958 53.7071 260.958 51.4607V43.0799H265.234V51.3311C265.234 52.6271 265.486 53.5559 265.99 54.1175C266.509 54.6792 267.214 54.96 268.107 54.96C269 54.96 269.698 54.6792 270.202 54.1175C270.706 53.5559 270.958 52.6271 270.958 51.3311V43.0799H275.17V51.4607C275.17 53.7071 274.544 55.4424 273.291 56.6664C272.038 57.8904 270.296 58.5024 268.064 58.5024ZM278.068 58.2V43.0799H281.589L289.926 53.1455H288.263V43.0799H292.453V58.2H288.933L280.595 48.1343H282.258V58.2H278.068ZM295.47 58.2V43.0799H302.62C304.29 43.0799 305.759 43.3895 307.026 44.0087C308.293 44.6279 309.28 45.4991 309.985 46.6223C310.705 47.7455 311.065 49.0847 311.065 50.6399C311.065 52.1807 310.705 53.5199 309.985 54.6576C309.28 55.7808 308.293 56.652 307.026 57.2712C305.759 57.8904 304.29 58.2 302.62 58.2H295.47ZM299.747 54.7872H302.447C303.311 54.7872 304.06 54.6288 304.693 54.3119C305.341 53.9807 305.845 53.5055 306.205 52.8863C306.565 52.2527 306.745 51.5039 306.745 50.6399C306.745 49.7615 306.565 49.0127 306.205 48.3935C305.845 47.7743 305.341 47.3063 304.693 46.9895C304.06 46.6583 303.311 46.4927 302.447 46.4927H299.747V54.7872ZM311.29 58.2L317.964 43.0799H322.176L328.872 58.2H324.423L319.196 45.1751H320.88L315.653 58.2H311.29ZM314.94 55.2624L316.042 52.1087H323.429L324.531 55.2624H314.94ZM332.959 58.2V51.8063L333.953 54.3768L327.192 43.0799H331.706L336.588 51.2663H333.974L338.877 43.0799H343.025L336.285 54.3768L337.236 51.8063V58.2H332.959Z" fill="#395F60"/>
</svg>