<svg width="1512" height="824" viewBox="0 0 1512 824" fill="none" xmlns="http://www.w3.org/2000/svg">
<rect y="615" width="1512" height="209" fill="#4F526F"/>
<path d="M239 482.261H-34V138.5C-34 63.0754 27.0753 2 102.5 2C177.925 2 239 63.0754 239 138.5V482.261Z" fill="#4F526F"/>
<path d="M224.382 466.029H-19.291V149.532C-19.291 80.1163 35.2373 23.884 102.501 23.884C169.764 23.884 224.292 80.1163 224.292 149.532V466.029H224.382Z" fill="#746287"/>
<path d="M234.424 234.463H111.736V13.3005H93.3502V234.463H-29.3384V252.848H93.3502V472.844H111.736V252.848H234.424V234.463Z" fill="#4F526F"/>
<rect y="738" width="1512" height="86" fill="#3F4156"/>
<path d="M1539 480.261H1266V136.5C1266 61.0754 1327.08 0 1402.5 0C1477.92 0 1539 61.0754 1539 136.5V480.261Z" fill="#4F526F"/>
<path d="M1524.38 464.029H1280.71V147.532C1280.71 78.1163 1335.24 21.884 1402.5 21.884C1469.76 21.884 1524.29 78.1163 1524.29 147.532V464.029H1524.38Z" fill="#746287"/>
<path d="M1534.42 232.463H1411.74V11.3005H1393.35V232.463H1270.66V250.848H1393.35V470.844H1411.74V250.848H1534.42V232.463Z" fill="#4F526F"/>
</svg>
