<svg width="1148" height="584" viewBox="0 0 1148 584" fill="none" xmlns="http://www.w3.org/2000/svg">
<rect x="13" y="13" width="1116" height="571" rx="10" fill="#633C17"/>
<rect width="1148" height="27" rx="5" fill="#4A2B0F"/>
<rect x="39" y="51" width="1067" height="348" fill="#735641"/>
<path d="M1030.54 140.054C982.692 185.325 1121.7 178.409 1092.89 237.642C1085.01 253.836 1070.01 266.42 1045.09 278C1184.15 157.869 812.199 189.869 823.242 114.421C823.242 66.0165 900.113 71.1578 950.347 71.1578C1000.58 71.1578 1086.25 87.3367 1030.54 140.054Z" fill="#50B4B0" fill-opacity="0.7"/>
<path d="M169.9 215.5C157.665 216.599 178.287 230.556 224.5 244.5L194.69 228.918C185.062 222.053 224.658 225.411 237.294 221.845C264.372 211.11 258.355 196.809 233.082 193.479C227.065 192.687 203.597 184.324 203.597 176.787C204.801 172.076 212.864 165.601 233.082 155.049C274.716 149.505 326.977 136.964 325 110.5C315.608 80.9822 277.369 71 211.42 71C145.47 71 96.4999 68 92.043 107.643C101.069 174.064 201.19 142.33 205.402 155.049C205.402 159.289 174.113 167.57 169.9 173.694C170.502 184.058 199.996 190.962 214.438 204.623C216.845 207.515 210.818 211.824 169.9 215.5Z" fill="#8DB863" fill-opacity="0.7"/>
<path d="M152.478 367.968C152.524 368.021 152.524 368.021 152.478 367.968L133.672 367.717L126.7 367.624L120.613 367.506C120.613 367.506 120.613 367.507 120.618 367.408C120.552 364.645 118.348 362.441 115.598 362.406C112.848 362.372 110.733 364.509 110.798 367.273C110.821 368.851 111.59 370.245 112.774 371.182C111.651 372.072 110.947 373.441 110.97 375.019C111.036 377.783 113.24 379.987 115.99 380.021C118.74 380.055 120.855 377.918 120.79 375.155C120.79 375.155 120.79 375.155 120.795 375.057L139.596 375.405L146.568 375.499L152.655 375.616C152.655 375.616 152.655 375.616 152.65 375.714C152.715 378.478 154.92 380.682 157.67 380.716C160.419 380.75 162.535 378.613 162.47 375.85C162.447 374.272 161.678 372.878 160.494 371.941C161.617 371.05 162.321 369.681 162.297 368.103C162.232 365.34 160.028 363.135 157.278 363.101C154.528 363.067 152.459 365.257 152.478 367.968Z" fill="#FFFACC"/>
<path d="M181.331 361.848C181.346 361.917 181.346 361.917 181.331 361.848L165.091 352.363L159.071 348.845L153.832 345.744C153.832 345.744 153.832 345.744 153.885 345.661C155.19 343.224 154.358 340.219 151.982 338.835C149.606 337.45 146.712 338.267 145.407 340.703C144.649 342.088 144.631 343.68 145.2 345.078C143.784 345.3 142.497 346.144 141.739 347.529C140.434 349.966 141.266 352.97 143.642 354.355C146.018 355.74 148.912 354.923 150.217 352.486C150.217 352.486 150.217 352.486 150.269 352.403L166.457 361.972L172.478 365.489L177.716 368.59C177.716 368.59 177.716 368.591 177.664 368.674C176.359 371.11 177.191 374.115 179.567 375.5C181.943 376.884 184.837 376.068 186.142 373.631C186.899 372.246 186.917 370.654 186.349 369.256C187.765 369.034 189.052 368.19 189.809 366.805C191.114 364.368 190.283 361.364 187.907 359.979C185.531 358.594 182.651 359.48 181.331 361.848Z" fill="#FFFACC"/>
<path d="M165.331 310.848C165.346 310.917 165.346 310.917 165.331 310.848L149.091 301.363L143.071 297.845L137.832 294.744C137.832 294.744 137.832 294.744 137.885 294.661C139.19 292.224 138.358 289.219 135.982 287.835C133.606 286.45 130.712 287.267 129.407 289.703C128.649 291.088 128.631 292.68 129.2 294.078C127.784 294.3 126.497 295.144 125.739 296.529C124.434 298.966 125.266 301.97 127.642 303.355C130.018 304.74 132.912 303.923 134.217 301.486C134.217 301.486 134.217 301.486 134.269 301.403L150.457 310.972L156.478 314.489L161.716 317.59C161.716 317.59 161.716 317.591 161.664 317.674C160.359 320.11 161.191 323.115 163.567 324.5C165.943 325.884 168.837 325.068 170.142 322.631C170.899 321.246 170.917 319.654 170.349 318.256C171.765 318.034 173.052 317.19 173.809 315.805C175.114 313.368 174.283 310.364 171.907 308.979C169.531 307.594 166.651 308.48 165.331 310.848Z" fill="#FFFACC"/>
<path d="M300.451 374.385C300.38 374.383 300.38 374.383 300.451 374.385L313.355 360.703L318.14 355.631L322.344 351.227C322.344 351.227 322.344 351.227 322.413 351.297C324.493 353.118 327.607 352.986 329.492 350.984C331.377 348.981 331.235 345.977 329.155 344.156C327.977 343.106 326.43 342.729 324.939 342.968C325.043 341.538 324.511 340.094 323.333 339.044C321.253 337.222 318.139 337.355 316.254 339.357C314.369 341.359 314.511 344.363 316.591 346.184C316.591 346.184 316.591 346.184 316.66 346.254L303.686 359.866L298.901 364.938L294.698 369.342C294.698 369.342 294.698 369.342 294.629 369.272C292.549 367.451 289.434 367.583 287.549 369.586C285.664 371.588 285.807 374.592 287.887 376.413C289.065 377.463 290.612 377.84 292.102 377.602C291.999 379.031 292.531 380.476 293.709 381.526C295.788 383.347 298.903 383.214 300.788 381.212C302.673 379.21 302.46 376.204 300.451 374.385Z" fill="#FFFACC"/>
<path d="M257.423 314.369C258.634 314.997 260.026 314.934 261.176 314.369C261.479 315.625 262.266 316.817 263.477 317.383C265.596 318.45 268.199 317.508 269.228 315.311C270.258 313.113 269.349 310.414 267.23 309.346H267.17L274.314 293.964L276.978 288.251C275.585 288.063 274.011 288 272.376 288C271.468 288 270.56 288.063 269.713 288.063L267.109 293.65L261.237 306.333H261.176C259.057 305.265 256.454 306.207 255.425 308.404C254.396 310.665 255.304 313.302 257.423 314.369Z" fill="#FFFACC"/>
<rect x="39" y="418" width="538" height="138" fill="#735641"/>
<rect x="600" y="418" width="506" height="136" fill="#735641"/>
<g opacity="0.9">
<path opacity="0.9" d="M330.997 278.691C327.524 276.839 323.07 275.681 318.087 275.681H122.091C117.184 275.681 112.654 276.839 109.181 278.691H102.386V287.897V303.413V373.756C102.386 380.53 111.22 385.972 122.016 385.972H318.011C328.883 385.972 337.641 380.472 337.641 373.756V303.413V287.897V278.691H330.997Z" fill="#85BC44"/>
<path d="M220.445 289.289C285.409 289.289 338.072 284.753 338.072 279.157C338.072 273.562 285.409 269.025 220.445 269.025C155.481 269.025 102.817 273.562 102.817 279.157C102.817 284.753 155.481 289.289 220.445 289.289Z" fill="#BCF25F"/>
</g>
<path opacity="0.2" d="M330.181 396.371H112.819C100.739 396.371 91 388.728 91 379.291V259.158C91 249.721 100.739 242.079 112.819 242.079H330.181C342.261 242.079 352 249.721 352 259.158V379.291C352 388.671 342.261 396.371 330.181 396.371Z" fill="#89BEAA"/>
<path opacity="0.66" d="M326.042 241.921H118.949C116.382 241.921 114.343 240.358 114.343 238.39V229.532C114.343 227.563 116.382 226 118.949 226H326.042C328.609 226 330.648 227.563 330.648 229.532V238.39C330.648 240.358 328.534 241.921 326.042 241.921Z" fill="#89BEAA"/>
<path opacity="0.66" d="M121.29 233.817C122.75 233.817 123.933 232.909 123.933 231.79C123.933 230.671 122.75 229.764 121.29 229.764C119.831 229.764 118.648 230.671 118.648 231.79C118.648 232.909 119.831 233.817 121.29 233.817Z" fill="#A6DDC6"/>
<path opacity="0.66" d="M210.837 233.815H132.242C130.883 233.815 129.751 232.947 129.751 231.905V231.731C129.751 230.689 130.883 229.821 132.242 229.821H210.837C212.196 229.821 213.328 230.689 213.328 231.731V231.905C213.328 232.947 212.196 233.815 210.837 233.815Z" fill="#A6DDC6"/>
<path d="M488 382.741C493.523 382.741 498 378.098 498 372.37C498 366.643 493.523 362 488 362C482.477 362 478 366.643 478 372.37C478 378.098 482.477 382.741 488 382.741Z" fill="#FFFACC"/>
<path d="M486.214 373.408C488.68 373.408 490.679 371.335 490.679 368.778C490.679 366.221 488.68 364.148 486.214 364.148C483.749 364.148 481.75 366.221 481.75 368.778C481.75 371.335 483.749 373.408 486.214 373.408Z" fill="#004561"/>
<path d="M486.164 368.707C487.426 368.179 488.187 367.075 487.863 366.24C487.538 365.405 486.252 365.156 484.989 365.684C483.727 366.211 482.967 367.315 483.291 368.15C483.615 368.985 484.902 369.234 486.164 368.707Z" fill="#0E708E"/>
<path d="M684.025 332.205C685.534 337.517 691.224 340.555 696.733 338.99C702.243 337.424 705.485 331.849 703.976 326.536C702.466 321.223 696.776 318.186 691.267 319.751C685.758 321.316 682.515 326.892 684.025 332.205Z" fill="#FFFACC"/>
<path d="M692.515 327.936C693.188 330.308 695.729 331.664 698.188 330.965C700.648 330.266 702.095 327.777 701.421 325.406C700.747 323.034 698.207 321.678 695.748 322.377C693.288 323.075 691.841 325.565 692.515 327.936Z" fill="#004561"/>
<path d="M697.023 326.603C697.875 327.673 699.145 328.103 699.86 327.563C700.574 327.023 700.462 325.717 699.61 324.647C698.757 323.577 697.487 323.147 696.773 323.687C696.058 324.227 696.17 325.533 697.023 326.603Z" fill="#0E708E"/>
<path d="M678.14 367.705C673.481 370.671 672.197 376.992 675.273 381.824C678.349 386.655 684.619 388.168 689.278 385.202C693.937 382.236 695.22 375.915 692.144 371.083C689.069 366.252 682.798 364.74 678.14 367.705Z" fill="#FFFACC"/>
<path d="M684.658 374.62C682.578 375.944 682.005 378.766 683.378 380.923C684.751 383.079 687.55 383.755 689.63 382.431C691.71 381.107 692.283 378.285 690.91 376.128C689.537 373.971 686.738 373.296 684.658 374.62Z" fill="#004561"/>
<path d="M687.225 378.558C686.443 379.681 686.394 381.021 687.116 381.551C687.838 382.081 689.057 381.601 689.839 380.478C690.621 379.355 690.669 378.015 689.947 377.485C689.225 376.955 688.006 377.435 687.225 378.558Z" fill="#0E708E"/>
<path d="M610.436 367.37C605.777 370.336 604.494 376.657 607.569 381.489C610.645 386.32 616.915 387.832 621.574 384.867C626.233 381.901 627.516 375.58 624.441 370.748C621.365 365.917 615.095 364.404 610.436 367.37Z" fill="#FFFACC"/>
<path d="M613.766 372.397C611.686 373.721 611.113 376.543 612.486 378.7C613.859 380.857 616.659 381.532 618.738 380.208C620.818 378.884 621.391 376.062 620.018 373.906C618.645 371.749 615.846 371.073 613.766 372.397Z" fill="#004561"/>
<path d="M614.416 375.033C613.634 376.156 613.585 377.496 614.307 378.026C615.029 378.556 616.248 378.076 617.03 376.953C617.812 375.83 617.86 374.49 617.138 373.96C616.416 373.43 615.197 373.91 614.416 375.033Z" fill="#0E708E"/>
<path d="M514 382.741C519.523 382.741 524 378.098 524 372.37C524 366.643 519.523 362 514 362C508.477 362 504 366.643 504 372.37C504 378.098 508.477 382.741 514 382.741Z" fill="#FFFACC"/>
<path d="M512.214 373.408C514.68 373.408 516.679 371.335 516.679 368.778C516.679 366.221 514.68 364.148 512.214 364.148C509.749 364.148 507.75 366.221 507.75 368.778C507.75 371.335 509.749 373.408 512.214 373.408Z" fill="#004561"/>
<path d="M512.164 368.707C513.426 368.179 514.187 367.075 513.863 366.24C513.538 365.405 512.252 365.156 510.989 365.684C509.727 366.211 508.967 367.315 509.291 368.15C509.615 368.985 510.902 369.234 512.164 368.707Z" fill="#0E708E"/>
<path d="M993.747 250.273C994.816 250.849 995.395 251.416 995.578 252.114C996.559 257.341 966.963 264.208 929.382 267.45C891.803 270.624 860.503 268.986 859.522 263.759C859.436 263.133 859.742 262.513 860.443 261.832C843.204 274.837 832.461 292.272 832.092 311.64C831.303 353.084 878.184 387.519 936.7 388.633C995.314 389.749 1043.38 357.052 1044.16 315.678C1044.69 288.257 1024.42 263.982 993.747 250.273Z" fill="#42B1B1"/>
<path d="M992.588 249.765C992.978 249.911 993.367 250.127 993.757 250.273C993.368 250.058 992.978 249.911 992.588 249.765Z" fill="white"/>
<path d="M860.346 261.83C860.844 261.493 861.342 261.085 861.84 260.748C861.244 261.083 860.747 261.421 860.346 261.83Z" fill="white"/>
<path d="M859.518 263.69C860.499 268.917 891.798 270.624 929.378 267.381C966.958 264.208 996.652 257.343 995.574 252.044C995.489 251.348 994.812 250.78 993.743 250.204C993.353 250.058 992.964 249.842 992.574 249.695C983.797 246.403 956.899 245.683 925.714 248.353C894.922 250.961 869.486 256.032 861.835 260.679C861.337 261.016 860.838 261.423 860.341 261.761C859.64 262.442 859.332 263.131 859.518 263.69Z" fill="#84EBEB"/>
<path opacity="0.2" d="M1026 258.351L1059 243.851L1074.5 274.851L1049 287.351C1063.53 326.123 1039.96 373.2 988.754 391.58C930.712 412.388 860.511 394.909 832.013 352.531C803.514 310.153 827.453 258.897 885.495 238.09C936.602 219.779 992.846 226.308 1026 258.351Z" fill="#89BEAA"/>
<path opacity="0.66" d="M1041.45 247.819L1061.23 288.159C1062.28 290.242 1064.78 291.075 1066.86 290.103L1076.65 285.312C1078.73 284.271 1079.56 281.771 1078.59 279.688L1058.8 239.348C1057.76 237.265 1055.26 236.432 1053.18 237.404L1043.39 242.195C1041.24 243.236 1040.41 245.736 1041.45 247.819Z" fill="#89BEAA"/>
<path opacity="0.66" d="M1068.87 280.666C1068.87 279.323 1069.96 278.235 1071.3 278.235C1072.64 278.235 1073.73 279.323 1073.73 280.666C1073.73 282.008 1072.64 283.096 1071.3 283.096C1069.96 283.096 1068.87 282.008 1068.87 280.666Z" fill="#A6DDC6"/>
<path opacity="0.66" d="M1060.89 265.035L1066.09 275.589C1066.65 276.63 1067.9 277.116 1069.01 276.561L1069.57 276.283C1070.61 275.728 1071.09 274.478 1070.54 273.367L1065.33 262.813C1064.78 261.772 1063.53 261.286 1062.42 261.841L1061.86 262.119C1060.82 262.674 1060.4 263.994 1060.89 265.035Z" fill="#A6DDC6"/>
<path d="M1018.47 282.886C1018.47 285.033 1020.21 286.774 1022.36 286.774C1024.51 286.774 1026.25 285.033 1026.25 282.886C1026.25 280.739 1024.51 278.998 1022.36 278.998C1020.21 278.998 1018.47 280.739 1018.47 282.886Z" fill="#B4F5F5"/>
<path d="M1010 276.499C1010 277.88 1011.12 278.999 1012.5 278.999C1013.88 278.999 1015 277.88 1015 276.499C1015 275.119 1013.88 274 1012.5 274C1011.12 274 1010 275.119 1010 276.499Z" fill="#B4F5F5"/>
<path d="M549.889 346.919C553.909 350.706 560.352 350.396 564.279 346.227C568.206 342.058 568.131 335.609 564.111 331.822C560.091 328.035 553.648 328.345 549.721 332.514C545.794 336.682 545.869 343.132 549.889 346.919Z" fill="#FFFACC"/>
<path d="M554.989 338.901C556.784 340.592 559.66 340.453 561.413 338.592C563.167 336.731 563.133 333.852 561.338 332.161C559.544 330.471 556.668 330.609 554.914 332.47C553.161 334.331 553.195 337.21 554.989 338.901Z" fill="#004561"/>
<path d="M558.176 335.445C559.456 335.927 560.767 335.644 561.104 334.814C561.44 333.984 560.674 332.921 559.394 332.439C558.113 331.957 556.802 332.24 556.466 333.07C556.13 333.9 556.895 334.963 558.176 335.445Z" fill="#0E708E"/>
<path d="M574.909 372.664C580.372 371.855 584.121 366.606 583.282 360.941C582.443 355.275 577.334 351.338 571.871 352.147C566.407 352.956 562.659 358.204 563.497 363.87C564.336 369.536 569.445 373.473 574.909 372.664Z" fill="#FFFACC"/>
<path d="M571.775 363.693C574.214 363.332 575.888 360.989 575.513 358.459C575.139 355.93 572.858 354.172 570.419 354.534C567.98 354.895 566.307 357.238 566.681 359.767C567.056 362.296 569.336 364.054 571.775 363.693Z" fill="#004561"/>
<path d="M571.037 359.05C572.209 358.344 572.799 357.14 572.356 356.361C571.913 355.583 570.604 355.525 569.432 356.232C568.261 356.938 567.67 358.142 568.113 358.921C568.556 359.699 569.865 359.757 571.037 359.05Z" fill="#0E708E"/>
<path d="M531.07 449H528.01C524.691 449 522 451.703 522 455.038V510.632C522 513.967 524.691 516.67 528.01 516.67H531.07C534.389 516.67 537.08 513.967 537.08 510.632V455.038C537.08 451.703 534.389 449 531.07 449Z" fill="#FCB13F"/>
<path d="M644.07 449H641.01C637.691 449 635 451.703 635 455.038V510.632C635 513.967 637.691 516.67 641.01 516.67H644.07C647.389 516.67 650.08 513.967 650.08 510.632V455.038C650.08 451.703 647.389 449 644.07 449Z" fill="#FCB13F"/>
<path d="M612.077 208.97C624.257 209.979 637.116 215.198 591.111 228L608.482 216.971C618.067 210.668 574.936 212.769 562.357 209.495C535.4 199.639 541.391 186.508 566.55 183.452C572.54 182.724 595.903 175.046 595.903 168.126C594.704 163.801 550.429 165.73 530.302 156.042C491 139.5 474.204 122.399 476.173 98.1012C485.523 71 519.346 65.5 585 65.5C650.654 65.5 704 76.5 702 107C693.015 167.983 598.299 136.49 594.106 148.168C594.106 152.061 625.255 159.664 629.449 165.286C628.85 174.802 585.719 181.289 571.342 193.832C568.946 196.487 571.342 205.595 612.077 208.97Z" fill="#CE5A52" fill-opacity="0.7"/>
<path d="M291.555 254.454C290.344 253.826 288.951 253.889 287.801 254.454C287.498 253.199 286.711 252.006 285.501 251.441C283.382 250.373 280.778 251.315 279.749 253.512C278.72 255.71 279.628 258.41 281.747 259.477H281.808L274.664 274.859L272 280.572C273.392 280.76 274.966 280.823 276.601 280.823C277.509 280.823 278.417 280.76 279.265 280.76L281.868 275.173L287.741 262.49H287.801C289.92 263.558 292.523 262.616 293.552 260.419C294.582 258.158 293.674 255.521 291.555 254.454Z" fill="#FFFACC"/>
<path d="M177.08 118V100.3H170.12V97H187.94V100.3H180.98V118H177.08ZM190.831 124.03C190.051 124.03 189.271 123.9 188.491 123.64C187.711 123.38 187.061 123.02 186.541 122.56L188.041 119.8C188.421 120.14 188.851 120.41 189.331 120.61C189.811 120.81 190.301 120.91 190.801 120.91C191.481 120.91 192.031 120.74 192.451 120.4C192.871 120.06 193.261 119.49 193.621 118.69L194.551 116.59L194.851 116.14L200.911 101.98H204.511L197.011 119.29C196.511 120.49 195.951 121.44 195.331 122.14C194.731 122.84 194.051 123.33 193.291 123.61C192.551 123.89 191.731 124.03 190.831 124.03ZM194.131 118.57L186.901 101.98H190.801L196.681 115.81L194.131 118.57ZM215.735 118.21C214.435 118.21 213.245 117.91 212.165 117.31C211.105 116.71 210.255 115.81 209.615 114.61C208.995 113.39 208.685 111.85 208.685 109.99C208.685 108.11 208.985 106.57 209.585 105.37C210.205 104.17 211.045 103.28 212.105 102.7C213.165 102.1 214.375 101.8 215.735 101.8C217.315 101.8 218.705 102.14 219.905 102.82C221.125 103.5 222.085 104.45 222.785 105.67C223.505 106.89 223.865 108.33 223.865 109.99C223.865 111.65 223.505 113.1 222.785 114.34C222.085 115.56 221.125 116.51 219.905 117.19C218.705 117.87 217.315 118.21 215.735 118.21ZM206.855 123.82V101.98H210.425V105.76L210.305 110.02L210.605 114.28V123.82H206.855ZM215.315 115C216.215 115 217.015 114.8 217.715 114.4C218.435 114 219.005 113.42 219.425 112.66C219.845 111.9 220.055 111.01 220.055 109.99C220.055 108.95 219.845 108.06 219.425 107.32C219.005 106.56 218.435 105.98 217.715 105.58C217.015 105.18 216.215 104.98 215.315 104.98C214.415 104.98 213.605 105.18 212.885 105.58C212.165 105.98 211.595 106.56 211.175 107.32C210.755 108.06 210.545 108.95 210.545 109.99C210.545 111.01 210.755 111.9 211.175 112.66C211.595 113.42 212.165 114 212.885 114.4C213.605 114.8 214.415 115 215.315 115ZM234.951 118.21C233.171 118.21 231.611 117.86 230.271 117.16C228.951 116.44 227.921 115.46 227.181 114.22C226.461 112.98 226.101 111.57 226.101 109.99C226.101 108.39 226.451 106.98 227.151 105.76C227.871 104.52 228.851 103.55 230.091 102.85C231.351 102.15 232.781 101.8 234.381 101.8C235.941 101.8 237.331 102.14 238.551 102.82C239.771 103.5 240.731 104.46 241.431 105.7C242.131 106.94 242.481 108.4 242.481 110.08C242.481 110.24 242.471 110.42 242.451 110.62C242.451 110.82 242.441 111.01 242.421 111.19H229.071V108.7H240.441L238.971 109.48C238.991 108.56 238.801 107.75 238.401 107.05C238.001 106.35 237.451 105.8 236.751 105.4C236.071 105 235.281 104.8 234.381 104.8C233.461 104.8 232.651 105 231.951 105.4C231.271 105.8 230.731 106.36 230.331 107.08C229.951 107.78 229.761 108.61 229.761 109.57V110.17C229.761 111.13 229.981 111.98 230.421 112.72C230.861 113.46 231.481 114.03 232.281 114.43C233.081 114.83 234.001 115.03 235.041 115.03C235.941 115.03 236.751 114.89 237.471 114.61C238.191 114.33 238.831 113.89 239.391 113.29L241.401 115.6C240.681 116.44 239.771 117.09 238.671 117.55C237.591 117.99 236.351 118.21 234.951 118.21Z" fill="white"/>
<path d="M549.33 118.3C547.69 118.3 546.12 118.07 544.62 117.61C543.12 117.13 541.93 116.52 541.05 115.78L542.4 112.75C543.24 113.41 544.28 113.96 545.52 114.4C546.76 114.84 548.03 115.06 549.33 115.06C550.43 115.06 551.32 114.94 552 114.7C552.68 114.46 553.18 114.14 553.5 113.74C553.82 113.32 553.98 112.85 553.98 112.33C553.98 111.69 553.75 111.18 553.29 110.8C552.83 110.4 552.23 110.09 551.49 109.87C550.77 109.63 549.96 109.41 549.06 109.21C548.18 109.01 547.29 108.78 546.39 108.52C545.51 108.24 544.7 107.89 543.96 107.47C543.24 107.03 542.65 106.45 542.19 105.73C541.73 105.01 541.5 104.09 541.5 102.97C541.5 101.83 541.8 100.79 542.4 99.85C543.02 98.89 543.95 98.13 545.19 97.57C546.45 96.99 548.04 96.7 549.96 96.7C551.22 96.7 552.47 96.86 553.71 97.18C554.95 97.5 556.03 97.96 556.95 98.56L555.72 101.59C554.78 101.03 553.81 100.62 552.81 100.36C551.81 100.08 550.85 99.94 549.93 99.94C548.85 99.94 547.97 100.07 547.29 100.33C546.63 100.59 546.14 100.93 545.82 101.35C545.52 101.77 545.37 102.25 545.37 102.79C545.37 103.43 545.59 103.95 546.03 104.35C546.49 104.73 547.08 105.03 547.8 105.25C548.54 105.47 549.36 105.69 550.26 105.91C551.16 106.11 552.05 106.34 552.93 106.6C553.83 106.86 554.64 107.2 555.36 107.62C556.1 108.04 556.69 108.61 557.13 109.33C557.59 110.05 557.82 110.96 557.82 112.06C557.82 113.18 557.51 114.22 556.89 115.18C556.29 116.12 555.36 116.88 554.1 117.46C552.84 118.02 551.25 118.3 549.33 118.3ZM567.357 118.21C565.597 118.21 564.237 117.76 563.277 116.86C562.317 115.94 561.837 114.59 561.837 112.81V98.44H565.587V112.72C565.587 113.48 565.777 114.07 566.157 114.49C566.557 114.91 567.107 115.12 567.807 115.12C568.647 115.12 569.347 114.9 569.907 114.46L570.957 117.13C570.517 117.49 569.977 117.76 569.337 117.94C568.697 118.12 568.037 118.21 567.357 118.21ZM559.197 105.1V102.1H569.877V105.1H559.197ZM583.912 118V114.76L583.702 114.07V108.4C583.702 107.3 583.372 106.45 582.712 105.85C582.052 105.23 581.052 104.92 579.712 104.92C578.812 104.92 577.922 105.06 577.042 105.34C576.182 105.62 575.452 106.01 574.852 106.51L573.382 103.78C574.242 103.12 575.262 102.63 576.442 102.31C577.642 101.97 578.882 101.8 580.162 101.8C582.482 101.8 584.272 102.36 585.532 103.48C586.812 104.58 587.452 106.29 587.452 108.61V118H583.912ZM578.872 118.21C577.672 118.21 576.622 118.01 575.722 117.61C574.822 117.19 574.122 116.62 573.622 115.9C573.142 115.16 572.902 114.33 572.902 113.41C572.902 112.51 573.112 111.7 573.532 110.98C573.972 110.26 574.682 109.69 575.662 109.27C576.642 108.85 577.942 108.64 579.562 108.64H584.212V111.13H579.832C578.552 111.13 577.692 111.34 577.252 111.76C576.812 112.16 576.592 112.66 576.592 113.26C576.592 113.94 576.862 114.48 577.402 114.88C577.942 115.28 578.692 115.48 579.652 115.48C580.572 115.48 581.392 115.27 582.112 114.85C582.852 114.43 583.382 113.81 583.702 112.99L584.332 115.24C583.972 116.18 583.322 116.91 582.382 117.43C581.462 117.95 580.292 118.21 578.872 118.21ZM598.295 118.21C596.535 118.21 595.175 117.76 594.215 116.86C593.255 115.94 592.775 114.59 592.775 112.81V98.44H596.525V112.72C596.525 113.48 596.715 114.07 597.095 114.49C597.495 114.91 598.045 115.12 598.745 115.12C599.585 115.12 600.285 114.9 600.845 114.46L601.895 117.13C601.455 117.49 600.915 117.76 600.275 117.94C599.635 118.12 598.975 118.21 598.295 118.21ZM590.135 105.1V102.1H600.815V105.1H590.135ZM611.76 118.21C610.4 118.21 609.2 117.96 608.16 117.46C607.12 116.94 606.31 116.16 605.73 115.12C605.15 114.06 604.86 112.73 604.86 111.13V101.98H608.61V110.62C608.61 112.06 608.93 113.14 609.57 113.86C610.23 114.56 611.16 114.91 612.36 114.91C613.24 114.91 614 114.73 614.64 114.37C615.3 114.01 615.81 113.47 616.17 112.75C616.55 112.03 616.74 111.14 616.74 110.08V101.98H620.49V118H616.92V113.68L617.55 115C617.01 116.04 616.22 116.84 615.18 117.4C614.14 117.94 613 118.21 611.76 118.21ZM630.349 118.21C629.009 118.21 627.719 118.04 626.479 117.7C625.259 117.34 624.289 116.91 623.569 116.41L625.009 113.56C625.729 114.02 626.589 114.4 627.589 114.7C628.589 115 629.589 115.15 630.589 115.15C631.769 115.15 632.619 114.99 633.139 114.67C633.679 114.35 633.949 113.92 633.949 113.38C633.949 112.94 633.769 112.61 633.409 112.39C633.049 112.15 632.579 111.97 631.999 111.85C631.419 111.73 630.769 111.62 630.049 111.52C629.349 111.42 628.639 111.29 627.919 111.13C627.219 110.95 626.579 110.7 625.999 110.38C625.419 110.04 624.949 109.59 624.589 109.03C624.229 108.47 624.049 107.73 624.049 106.81C624.049 105.79 624.339 104.91 624.919 104.17C625.499 103.41 626.309 102.83 627.349 102.43C628.409 102.01 629.659 101.8 631.099 101.8C632.179 101.8 633.269 101.92 634.369 102.16C635.469 102.4 636.379 102.74 637.099 103.18L635.659 106.03C634.899 105.57 634.129 105.26 633.349 105.1C632.589 104.92 631.829 104.83 631.069 104.83C629.929 104.83 629.079 105 628.519 105.34C627.979 105.68 627.709 106.11 627.709 106.63C627.709 107.11 627.889 107.47 628.249 107.71C628.609 107.95 629.079 108.14 629.659 108.28C630.239 108.42 630.879 108.54 631.579 108.64C632.299 108.72 633.009 108.85 633.709 109.03C634.409 109.21 635.049 109.46 635.629 109.78C636.229 110.08 636.709 110.51 637.069 111.07C637.429 111.63 637.609 112.36 637.609 113.26C637.609 114.26 637.309 115.13 636.709 115.87C636.129 116.61 635.299 117.19 634.219 117.61C633.139 118.01 631.849 118.21 630.349 118.21Z" fill="white"/>
<path d="M879.85 122L889.3 101H893.14L902.62 122H898.54L890.41 103.07H891.97L883.87 122H879.85ZM884.2 117.14L885.25 114.08H896.59L897.64 117.14H884.2ZM912.134 122.21C910.454 122.21 908.954 121.86 907.634 121.16C906.334 120.44 905.314 119.46 904.574 118.22C903.834 116.98 903.464 115.57 903.464 113.99C903.464 112.39 903.834 110.98 904.574 109.76C905.314 108.52 906.334 107.55 907.634 106.85C908.954 106.15 910.454 105.8 912.134 105.8C913.694 105.8 915.064 106.12 916.244 106.76C917.444 107.38 918.354 108.3 918.974 109.52L916.094 111.2C915.614 110.44 915.024 109.88 914.324 109.52C913.644 109.16 912.904 108.98 912.104 108.98C911.184 108.98 910.354 109.18 909.614 109.58C908.874 109.98 908.294 110.56 907.874 111.32C907.454 112.06 907.244 112.95 907.244 113.99C907.244 115.03 907.454 115.93 907.874 116.69C908.294 117.43 908.874 118 909.614 118.4C910.354 118.8 911.184 119 912.104 119C912.904 119 913.644 118.82 914.324 118.46C915.024 118.1 915.614 117.54 916.094 116.78L918.974 118.46C918.354 119.66 917.444 120.59 916.244 121.25C915.064 121.89 913.694 122.21 912.134 122.21ZM928.451 122.21C926.691 122.21 925.331 121.76 924.371 120.86C923.411 119.94 922.931 118.59 922.931 116.81V102.44H926.681V116.72C926.681 117.48 926.871 118.07 927.251 118.49C927.651 118.91 928.201 119.12 928.901 119.12C929.741 119.12 930.441 118.9 931.001 118.46L932.051 121.13C931.611 121.49 931.071 121.76 930.431 121.94C929.791 122.12 929.131 122.21 928.451 122.21ZM920.291 109.1V106.1H930.971V109.1H920.291ZM935.136 122V105.98H938.886V122H935.136ZM937.026 103.34C936.326 103.34 935.746 103.12 935.286 102.68C934.846 102.24 934.626 101.71 934.626 101.09C934.626 100.45 934.846 99.92 935.286 99.5C935.746 99.06 936.326 98.84 937.026 98.84C937.726 98.84 938.296 99.05 938.736 99.47C939.196 99.87 939.426 100.38 939.426 101C939.426 101.66 939.206 102.22 938.766 102.68C938.326 103.12 937.746 103.34 937.026 103.34ZM951.008 122.21C949.368 122.21 947.908 121.86 946.628 121.16C945.348 120.44 944.338 119.46 943.598 118.22C942.858 116.98 942.488 115.57 942.488 113.99C942.488 112.39 942.858 110.98 943.598 109.76C944.338 108.52 945.348 107.55 946.628 106.85C947.908 106.15 949.368 105.8 951.008 105.8C952.668 105.8 954.138 106.15 955.418 106.85C956.718 107.55 957.728 108.51 958.448 109.73C959.188 110.95 959.558 112.37 959.558 113.99C959.558 115.57 959.188 116.98 958.448 118.22C957.728 119.46 956.718 120.44 955.418 121.16C954.138 121.86 952.668 122.21 951.008 122.21ZM951.008 119C951.928 119 952.748 118.8 953.468 118.4C954.188 118 954.748 117.42 955.148 116.66C955.568 115.9 955.778 115.01 955.778 113.99C955.778 112.95 955.568 112.06 955.148 111.32C954.748 110.56 954.188 109.98 953.468 109.58C952.748 109.18 951.938 108.98 951.038 108.98C950.118 108.98 949.298 109.18 948.578 109.58C947.878 109.98 947.318 110.56 946.898 111.32C946.478 112.06 946.268 112.95 946.268 113.99C946.268 115.01 946.478 115.9 946.898 116.66C947.318 117.42 947.878 118 948.578 118.4C949.298 118.8 950.108 119 951.008 119ZM972.234 105.8C973.514 105.8 974.654 106.05 975.654 106.55C976.674 107.05 977.474 107.82 978.054 108.86C978.634 109.88 978.924 111.2 978.924 112.82V122H975.174V113.3C975.174 111.88 974.834 110.82 974.154 110.12C973.494 109.42 972.564 109.07 971.364 109.07C970.484 109.07 969.704 109.25 969.024 109.61C968.344 109.97 967.814 110.51 967.434 111.23C967.074 111.93 966.894 112.82 966.894 113.9V122H963.144V105.98H966.714V110.3L966.084 108.98C966.644 107.96 967.454 107.18 968.514 106.64C969.594 106.08 970.834 105.8 972.234 105.8ZM988.631 122.21C987.291 122.21 986.001 122.04 984.761 121.7C983.541 121.34 982.571 120.91 981.851 120.41L983.291 117.56C984.011 118.02 984.871 118.4 985.871 118.7C986.871 119 987.871 119.15 988.871 119.15C990.051 119.15 990.901 118.99 991.421 118.67C991.961 118.35 992.231 117.92 992.231 117.38C992.231 116.94 992.051 116.61 991.691 116.39C991.331 116.15 990.861 115.97 990.281 115.85C989.701 115.73 989.051 115.62 988.331 115.52C987.631 115.42 986.921 115.29 986.201 115.13C985.501 114.95 984.861 114.7 984.281 114.38C983.701 114.04 983.231 113.59 982.871 113.03C982.511 112.47 982.331 111.73 982.331 110.81C982.331 109.79 982.621 108.91 983.201 108.17C983.781 107.41 984.591 106.83 985.631 106.43C986.691 106.01 987.941 105.8 989.381 105.8C990.461 105.8 991.551 105.92 992.651 106.16C993.751 106.4 994.661 106.74 995.381 107.18L993.941 110.03C993.181 109.57 992.411 109.26 991.631 109.1C990.871 108.92 990.111 108.83 989.351 108.83C988.211 108.83 987.361 109 986.801 109.34C986.261 109.68 985.991 110.11 985.991 110.63C985.991 111.11 986.171 111.47 986.531 111.71C986.891 111.95 987.361 112.14 987.941 112.28C988.521 112.42 989.161 112.54 989.861 112.64C990.581 112.72 991.291 112.85 991.991 113.03C992.691 113.21 993.331 113.46 993.911 113.78C994.511 114.08 994.991 114.51 995.351 115.07C995.711 115.63 995.891 116.36 995.891 117.26C995.891 118.26 995.591 119.13 994.991 119.87C994.411 120.61 993.581 121.19 992.501 121.61C991.421 122.01 990.131 122.21 988.631 122.21Z" fill="white"/>
<g opacity="0.9">
<path opacity="0.9" d="M719.316 389.816H478.85C472.83 389.816 467.882 385.984 467.882 381.322V314.397C467.882 309.736 472.83 305.904 478.85 305.904H719.316C725.336 305.904 730.284 309.736 730.284 314.397V381.322C730.284 385.984 725.418 389.816 719.316 389.816Z" fill="#F93E3E"/>
<path d="M497.903 324.806C501.592 324.806 504.583 322.49 504.583 319.633C504.583 316.776 501.592 314.461 497.903 314.461C494.214 314.461 491.224 316.776 491.224 319.633C491.224 322.49 494.214 324.806 497.903 324.806Z" fill="#DD6B67"/>
<path d="M486.357 334.32C489.044 334.32 491.222 332.634 491.222 330.553C491.222 328.472 489.044 326.785 486.357 326.785C483.67 326.785 481.491 328.472 481.491 330.553C481.491 332.634 483.67 334.32 486.357 334.32Z" fill="#DD6B67"/>
<path d="M714.617 367.528C717.304 367.528 719.483 365.841 719.483 363.76C719.483 361.679 717.304 359.992 714.617 359.992C711.93 359.992 709.752 361.679 709.752 363.76C709.752 365.841 711.93 367.528 714.617 367.528Z" fill="#E85B83"/>
<path d="M709.758 373.915C711.216 373.915 712.397 373 712.397 371.871C712.397 370.743 711.216 369.828 709.758 369.828C708.301 369.828 707.12 370.743 707.12 371.871C707.12 373 708.301 373.915 709.758 373.915Z" fill="#E85B83"/>
<path opacity="0.2" d="M729.225 299.902H666.635C636.206 299.902 611.466 280.808 611.466 257.18C611.466 249.9 613.858 243.003 617.981 237H572.378C576.501 243.003 578.893 249.836 578.893 257.18C578.893 280.744 554.236 299.902 523.724 299.902H468.968C462.948 299.902 458 303.733 458 308.395V388.731C458 393.392 462.948 397.224 468.968 397.224H729.143C735.163 397.224 740.111 393.392 740.111 388.731V308.395C740.193 303.67 735.245 299.902 729.225 299.902Z" fill="#89BEAA"/>
<path opacity="0.66" d="M630.426 236.296H558.6C555.796 236.296 553.569 234.572 553.569 232.4V217.202C553.569 215.03 555.796 213.306 558.6 213.306H630.426C633.23 213.306 635.457 215.03 635.457 217.202V232.4C635.457 234.572 633.148 236.296 630.426 236.296Z" fill="#89BEAA"/>
<path opacity="0.66" d="M563.546 224.609C565.641 224.609 567.34 223.294 567.34 221.671C567.34 220.049 565.641 218.734 563.546 218.734C561.451 218.734 559.753 220.049 559.753 221.671C559.753 223.294 561.451 224.609 563.546 224.609Z" fill="#A6DDC6"/>
<path opacity="0.66" d="M591.576 224.545H574.424C572.362 224.545 570.63 223.268 570.63 221.608C570.63 220.011 572.28 218.67 574.424 218.67H591.576C593.638 218.67 595.37 219.947 595.37 221.608C595.37 223.268 593.72 224.545 591.576 224.545Z" fill="#A6DDC6"/>
</g>
</svg>
