<svg width="503" height="211" viewBox="0 0 503 211" fill="none" xmlns="http://www.w3.org/2000/svg">
<path d="M339.635 16.4188L305.148 21.0569L327.168 184.783L361.654 180.145L339.635 16.4188Z" fill="#ADA34A"/>
<path d="M340.843 25.8227L306.412 30.4534L307.369 37.5719L341.801 32.9412L340.843 25.8227Z" fill="#FFB23E"/>
<path d="M342.486 37.6035L308.055 42.2342L309.013 49.3527L343.444 44.722L342.486 37.6035Z" fill="#FFB23E"/>
<path d="M357.785 151.793L323.354 156.424L324.311 163.542L358.743 158.911L357.785 151.793Z" fill="#FFB23E"/>
<path d="M359.436 163.63L325.004 168.261L325.962 175.38L360.393 170.749L359.436 163.63Z" fill="#FFB23E"/>
<path d="M429.944 82.0002L409 84.817L422.373 184.251L443.317 181.434L429.944 82.0002Z" fill="#3C7C31"/>
<path d="M430.678 87.7114L409.768 90.5237L410.349 94.8469L431.26 92.0346L430.678 87.7114Z" fill="#FFB23E"/>
<path d="M431.676 94.866L410.765 97.6783L411.347 102.002L432.257 99.1892L431.676 94.866Z" fill="#FFB23E"/>
<path d="M440.967 164.216L420.057 167.028L420.638 171.351L441.549 168.539L440.967 164.216Z" fill="#FFB23E"/>
<path d="M441.97 171.405L421.059 174.217L421.641 178.54L442.551 175.728L441.97 171.405Z" fill="#FFB23E"/>
<path d="M408.997 19.0002H362V184.2H408.997V19.0002Z" fill="#CA6E91"/>
<path d="M409 28.0002H362V40.0002H409V28.0002Z" fill="#FFB23E"/>
<path d="M409 164H362.078V174.72H409V164Z" fill="#FFB23E"/>
<path d="M55.9841 19.0002H50V210H55.9841V19.0002Z" fill="#C9345A"/>
<path d="M84.7942 19.0002H78.8101V210H84.7942V19.0002Z" fill="#C9345A"/>
<path d="M78.8139 23.4246H55.9302V205.633H78.8139V23.4246Z" fill="white"/>
<path d="M50.1354 28.0248L14.2939 25.0005L0.000209756 207.18L35.8417 210.205L50.1354 28.0248Z" fill="#89BEAA"/>
<path d="M49.5329 36.2425L13.6914 33.2182L13.1297 40.3771L48.9712 43.4014L49.5329 36.2425Z" fill="#FFB23E"/>
<path d="M37.0646 194.831L1.22314 191.806L0.66146 198.965L36.503 201.989L37.0646 194.831Z" fill="#FFB23E"/>
<path d="M31.6319 118.169C32.4261 108.047 30.1276 99.5938 26.4981 99.2875C22.8685 98.9813 19.2823 106.938 18.4882 117.06C17.6941 127.181 19.9927 135.635 23.6222 135.941C27.2518 136.247 30.8378 128.29 31.6319 118.169Z" fill="#FFB23E"/>
<path d="M304.214 3.01401L268.246 2.93652L268.927 185.675L304.895 185.752L304.214 3.01401Z" fill="#A977AB"/>
<path d="M304.288 11.2534L268.319 11.1759L268.346 18.3568L304.314 18.4343L304.288 11.2534Z" fill="#FFB23E"/>
<path d="M304.855 170.33L268.887 170.252L268.913 177.433L304.882 177.511L304.855 170.33Z" fill="#FFB23E"/>
<path d="M293.159 94.3711C293.121 84.2184 290.138 75.9817 286.495 75.9739C282.853 75.966 279.931 84.19 279.969 94.3427C280.006 104.495 282.99 112.732 286.632 112.74C290.275 112.748 293.197 104.524 293.159 94.3711Z" fill="#FFB23E"/>
<path d="M502.508 184.577H93V196.63H502.508V184.577Z" fill="#138699"/>
<path d="M133.255 196.789H112.025V210.101H133.255V196.789Z" fill="#07556D"/>
<path d="M489.157 196.789H467.928V210.101H489.157V196.789Z" fill="#07556D"/>
<path d="M240.831 128.3H137.984L143.393 162.677H235.35L240.831 128.3Z" fill="#BF3C2B"/>
<path d="M146.738 183.887H232.005L233.571 173.922H145.172L146.738 183.887Z" fill="#BF3C2B"/>
<path d="M143.393 162.677L145.172 173.922H233.571L235.35 162.677H143.393Z" fill="#FFB23E"/>
<path d="M140.404 148.869H238.411C241.115 148.869 243.251 146.663 243.251 144.029V128.513C243.251 125.808 241.044 123.673 238.411 123.673H140.404C137.699 123.673 135.564 125.88 135.564 128.513V144.029C135.564 146.663 137.699 148.869 140.404 148.869Z" fill="#DD5740"/>
<path d="M207.663 107.09H171.436V123.602H207.663V107.09Z" fill="#FFFACC"/>
<path d="M245.813 96.6271C239.976 71.4314 217.628 52.5701 190.866 52.0007C190.866 57.6947 186.24 62.321 180.546 62.321C175.92 62.321 172.076 59.332 170.724 55.1327C161.827 58.1932 153.998 63.3176 147.663 70.008C147.735 70.008 147.806 70.008 147.877 70.008C154.354 70.008 159.621 73.9224 159.621 78.6911C159.621 83.4597 154.354 87.3744 147.877 87.3744C143.82 87.3744 140.19 85.8799 138.126 83.5311C135.991 87.6592 134.425 92.072 133.286 96.6983C131.72 103.389 136.774 109.866 143.678 109.866H235.492C242.325 109.794 247.378 103.389 245.813 96.6271ZM182.112 103.745C177.841 103.745 174.354 101.182 174.354 97.9793C174.354 94.7765 177.841 92.2141 182.112 92.2141C186.382 92.2141 189.87 94.7765 189.87 97.9793C189.87 101.182 186.382 103.745 182.112 103.745ZM214.211 95.6307C207.45 95.6307 201.898 91.5737 201.898 86.5915C201.898 81.6093 207.379 77.5525 214.211 77.5525C220.973 77.5525 226.524 81.6093 226.524 86.5915C226.524 91.5737 220.973 95.6307 214.211 95.6307Z" fill="#DE8E45"/>
<path d="M180.546 62.321C186.24 62.321 190.866 57.6947 190.866 52.0007C190.439 52.0007 190.012 52.0007 189.514 52.0007C182.895 52.0007 176.56 53.1398 170.653 55.1327C172.005 59.2608 175.92 62.321 180.546 62.321Z" fill="#FFFACC"/>
<path d="M214.212 95.5595C221.012 95.5595 226.525 91.5124 226.525 86.5202C226.525 81.528 221.012 77.4813 214.212 77.4813C207.411 77.4813 201.898 81.528 201.898 86.5202C201.898 91.5124 207.411 95.5595 214.212 95.5595Z" fill="#FFFACC"/>
<path d="M182.112 103.816C186.397 103.816 189.87 101.235 189.87 98.0506C189.87 94.8666 186.397 92.2854 182.112 92.2854C177.827 92.2854 174.354 94.8666 174.354 98.0506C174.354 101.235 177.827 103.816 182.112 103.816Z" fill="#FFFACC"/>
<path d="M147.806 87.3745C154.283 87.3745 159.55 83.4597 159.55 78.6911C159.55 73.9224 154.283 70.008 147.806 70.008C147.735 70.008 147.664 70.008 147.592 70.008C143.82 73.9938 140.546 78.5489 137.984 83.5311C140.19 85.8087 143.749 87.3745 147.806 87.3745Z" fill="#FFFACC"/>
<path d="M161.044 113.851C163.322 113.851 165.101 112.001 165.101 109.794H156.987C156.987 112.001 158.838 113.851 161.044 113.851Z" fill="#CCC592"/>
<path d="M169.229 113.851C171.507 113.851 173.286 112.001 173.286 109.794H165.172C165.101 112.001 166.952 113.851 169.229 113.851Z" fill="#CCC592"/>
<path d="M177.343 113.851C179.621 113.851 181.4 112.001 181.4 109.794H173.286C173.286 112.001 175.065 113.851 177.343 113.851Z" fill="#CCC592"/>
<path d="M185.457 113.851C187.734 113.851 189.514 112.001 189.514 109.794H181.4C181.4 112.001 183.25 113.851 185.457 113.851Z" fill="#CCC592"/>
<path d="M193.571 113.851C195.848 113.851 197.628 112.001 197.628 109.794H189.514C189.514 112.001 191.364 113.851 193.571 113.851Z" fill="#CCC592"/>
<path d="M201.756 113.851C204.033 113.851 205.813 112.001 205.813 109.794H197.699C197.699 112.001 199.478 113.851 201.756 113.851Z" fill="#CCC592"/>
<path d="M209.869 113.851C212.147 113.851 213.926 112.001 213.926 109.794H205.812C205.812 112.001 207.592 113.851 209.869 113.851Z" fill="#CCC592"/>
<path d="M217.984 113.851C220.261 113.851 222.041 112.001 222.041 109.794H213.927C213.927 112.001 215.777 113.851 217.984 113.851Z" fill="#CCC592"/>
</svg>
