<svg width="170" height="982" viewBox="0 0 170 982" fill="none" xmlns="http://www.w3.org/2000/svg">
<path d="M-27.3097 0V396.469C81.6626 396.469 170 307.718 170 198.235C170 88.7516 81.6626 0 -27.3097 0Z" fill="#A62322"/>
<path d="M3.38453 85.4111L-14.1508 97.6056C13.0386 137.064 23.3132 184.76 14.7852 231.896C9.30397 262.171 -3.51989 289.906 -22.401 313.115L-20.9869 343.269C8.46438 314.405 28.2692 277.197 35.7655 235.739C45.311 182.967 33.8103 129.586 3.37648 85.4115L3.38453 85.4111Z" fill="#B52D25"/>
<path d="M8.44618 370.09L-2.22424 352.937C36.0041 328.932 62.6358 291.447 72.7586 247.383C82.8814 203.32 75.3034 157.898 51.4097 119.482L68.4825 108.762C95.2189 151.757 103.707 202.6 92.368 251.93C81.0292 301.261 51.2245 343.228 8.43005 370.09H8.44618Z" fill="#B52D25"/>
<path d="M64.7669 377.854L52.3944 357.554C88.0762 324.801 110.834 276.358 116.468 221.144C122.102 165.93 109.953 110.485 82.2473 65.0213L98.1827 50.3943C129.186 101.278 142.791 163.34 136.477 225.154C130.163 286.968 104.696 341.204 64.7509 377.855L64.7669 377.854Z" fill="#B52D25"/>
<path d="M95 985H-27L-27 355H95L95 985Z" fill="#A62322"/>
<path d="M-27.4677 355.019H97.0322V385.646H-27.4677V355.019Z" fill="#61170C"/>
<path d="M-3 386H18V985H-3V386Z" fill="#B52D25"/>
<path d="M50 386H71V985H50V386Z" fill="#B52D25"/>
</svg>
