<svg width="342" height="740" viewBox="0 0 342 740" fill="none" xmlns="http://www.w3.org/2000/svg">
<rect y="154" width="342" height="27" rx="5" fill="#4A2B0F"/>
<rect x="7" y="181" width="329" height="559" fill="#633C17"/>
<path d="M127.602 153.262H93.4209L171.338 120.919L127.602 153.262Z" fill="#633A14"/>
<path d="M216.178 153.63H249.256L171.338 121.287L216.178 153.63Z" fill="#633A14"/>
<path d="M163.253 0V14.3339V24.6249H179.792V0H163.253Z" fill="#633A14"/>
<path d="M41.0509 83.0933L38.3693 75.4494L82.6825 59.8595L87.6875 74.1109L86.727 75.2315L88.1142 75.4756L87.1985 76.5526L88.6423 76.8338L92.4323 87.5845L91.7119 88.425L92.7981 88.634L98.0666 103.609L97.5995 104.161L98.2451 104.276L97.9231 104.657L98.4727 104.757L103.864 120.064L75.9276 129.902L74.9356 129.042L74.6905 130.307L73.8861 129.618L73.6825 130.683L59.5511 135.654L41.4875 84.2944L42.3083 83.3253L41.0509 83.0933Z" fill="#D3BDAB"/>
<path fill-rule="evenodd" clip-rule="evenodd" d="M286.877 60.8953L289.231 65.3444L289.659 56.4758C293.425 49.944 296.026 42.8126 297.362 35.4201C298.226 36.9046 299.233 38.863 299.536 40.119C299.303 38.1052 298.691 34.4244 297.826 32.5722C298.098 30.5327 298.283 28.49 298.363 26.438L298.38 26.0105L298.836 26.5975C304.522 33.7054 307.611 42.3035 307.954 51.0511C307.011 53.3917 305.583 56.2825 303.995 57.8725C304.854 57.6694 306.487 56.741 307.93 54.6113C307.682 60.0517 306.363 65.4602 303.947 70.5489L299.495 79.9501C298.275 80.8695 296.904 81.7881 295.721 82.2858C296.285 82.4287 297.276 82.5884 298.297 82.4973L297.956 83.2194C293.449 92.7344 283.142 98.0483 272.782 96.2127C271.124 89.6753 272.21 82.7717 275.752 77.0824L277.364 85.1845L277.442 74.5494L286.877 60.8953Z" fill="#0D3F41"/>
<path d="M267.723 104.961C267.538 104.929 267.364 104.857 267.202 104.745C266.549 104.316 266.352 103.437 266.786 102.764L273.406 92.6767C273.481 92.5688 273.576 92.4667 273.69 92.3704L275.484 90.8187C280.036 86.8512 284.147 82.3225 287.671 77.3629C291.007 72.6729 293.779 67.6233 295.944 62.3537C297.971 57.411 299.457 52.2457 300.388 46.9832L300.671 45.4228C300.812 44.6425 301.548 44.1222 302.328 44.2635C303.108 44.4049 303.629 45.1405 303.487 45.9207L303.205 47.4812C302.235 52.9487 300.691 58.3132 298.592 63.4293C296.348 68.8924 293.453 74.1436 290.004 78.9954C286.337 84.151 282.094 88.8357 277.364 92.9674L275.711 94.4089L269.203 104.334C268.841 104.834 268.258 105.053 267.723 104.961ZM275.531 94.5076C275.525 94.5275 275.525 94.5275 275.531 94.5076V94.5076Z" fill="#B7D6D6"/>
<path d="M64.0645 148.347V24.9098L76.4418 18.6818L76.9522 15.1941L80.2602 18.6821C95.1896 15.7757 155.963 -1.42198 171.888 22.294C175.673 16.855 200.088 10.1652 219.994 6.47824C233.477 5.52329 260.444 9.21541 266.568 15.1942V19.1801L278.563 24.5361V149.219C244.749 132.528 181.688 141.051 171.378 143.642C137.308 132.93 69.781 144.661 64.0645 148.347Z" fill="#D7CF8B"/>
<path d="M69.6729 141.452V28.0699H272.694V143.353C237.879 132.181 201.024 132.776 171.438 143.353C152.692 138.718 127.187 124.694 69.6729 141.452Z" fill="#EAE294"/>
<path d="M170.425 143.098L170.936 18.8966C204.488 -0.501866 248.636 5.99852 265.813 11.6735L266.324 130.847C207.25 112.597 178.301 135.237 170.425 143.098Z" fill="#FFF8BE" stroke="#CEC88C" stroke-width="0.510104"/>
<path d="M171.695 142.995L171.185 18.8869C137.722 -0.497077 93.692 5.99844 76.561 11.6692L76.0509 130.753C134.968 112.517 163.84 135.14 171.695 142.995Z" fill="#FFF8BE" stroke="#CEC88C" stroke-width="0.510104"/>
<path d="M90.8945 33.4457V7.71822L101.186 6.24808V33.4457L96.7751 27.1976L90.8945 33.4457Z" fill="#A61E00"/>
<path d="M54.7218 64.0694L51.129 63.2071L48.3841 65.6646L48.0967 61.9999L44.9062 60.146L48.3122 58.7376L49.0883 55.1305L51.4883 57.9329L55.153 57.5592L53.2129 60.7065L54.7218 64.0694Z" fill="#EBD2D2"/>
<path d="M61.6633 63.0349L59.6369 62.8624L57.8405 63.8109L58.013 61.7846L57.0645 59.9738L59.0908 60.1606L60.9016 59.2121L60.7148 61.2385L61.6633 63.0349Z" fill="#EBD2D2"/>
<path d="M291.975 106.083L288.795 107.965L288.534 111.64L285.777 109.209L282.196 110.098L283.661 106.716L281.708 103.586L285.382 103.928L287.753 101.109L288.55 104.719L291.975 106.083Z" fill="#EBD2D2"/>
<path d="M296.239 100.509L294.664 101.796L294.035 103.727L292.748 102.152L290.807 101.512L292.392 100.236L293.031 98.2946L294.308 99.8796L296.239 100.509Z" fill="#EBD2D2"/>
<path d="M58.4185 56.4153L57.8724 54.9351L56.6221 54.0009L58.0879 53.4548L59.0364 52.1902L59.5826 53.6704L60.8329 54.6045L59.367 55.1507L58.4185 56.4153Z" fill="#EBD2D2"/>
<rect opacity="0.8" x="27" y="196" width="290" height="143" fill="#735641"/>
<rect opacity="0.8" x="27" y="348" width="290" height="143" fill="#735641"/>
<rect opacity="0.8" x="27" y="500" width="290" height="143" fill="#735641"/>
<rect opacity="0.8" x="27" y="652" width="290" height="143" fill="#735641"/>
<path d="M116.586 311.83C116.622 311.871 116.622 311.871 116.586 311.83L102.248 311.64L96.9318 311.569L92.2909 311.479C92.2909 311.479 92.2909 311.479 92.2945 311.404C92.2447 309.297 90.5639 307.616 88.4674 307.59C86.3708 307.565 84.7575 309.194 84.8073 311.301C84.8251 312.504 85.4114 313.567 86.314 314.281C85.4576 314.96 84.921 316.004 84.9388 317.207C84.9885 319.314 86.6693 320.995 88.7659 321.021C90.8625 321.047 92.4757 319.418 92.426 317.311C92.426 317.311 92.4259 317.311 92.4295 317.236L106.764 317.502L112.08 317.573L116.721 317.662C116.721 317.662 116.721 317.662 116.718 317.737C116.767 319.844 118.448 321.525 120.545 321.551C122.641 321.577 124.255 319.947 124.205 317.84C124.187 316.637 123.601 315.574 122.698 314.86C123.555 314.181 124.091 313.137 124.073 311.934C124.024 309.827 122.343 308.146 120.246 308.12C118.15 308.094 116.572 309.764 116.586 311.83Z" fill="#FFFACC"/>
<path d="M138.585 307.165C138.596 307.217 138.596 307.217 138.585 307.165L126.203 299.933L121.612 297.251L117.618 294.886C117.618 294.886 117.618 294.886 117.658 294.823C118.653 292.965 118.019 290.674 116.208 289.618C114.396 288.562 112.189 289.185 111.194 291.043C110.617 292.098 110.603 293.312 111.037 294.379C109.957 294.548 108.975 295.191 108.398 296.247C107.403 298.105 108.037 300.396 109.849 301.452C111.66 302.507 113.867 301.885 114.862 300.027C114.862 300.027 114.862 300.027 114.902 299.963L127.244 307.259L131.835 309.94L135.829 312.305C135.829 312.305 135.829 312.306 135.789 312.369C134.794 314.227 135.428 316.518 137.24 317.573C139.051 318.629 141.258 318.006 142.253 316.149C142.83 315.093 142.844 313.879 142.411 312.813C143.491 312.644 144.472 312 145.049 310.944C146.044 309.086 145.41 306.796 143.599 305.74C141.787 304.684 139.591 305.359 138.585 307.165Z" fill="#FFFACC"/>
<path d="M126.386 268.279C126.397 268.332 126.397 268.332 126.386 268.279L114.004 261.047L109.413 258.366L105.419 256.001C105.419 256.001 105.419 256.001 105.459 255.937C106.454 254.08 105.82 251.789 104.008 250.733C102.197 249.677 99.9902 250.3 98.9951 252.158C98.4177 253.213 98.404 254.427 98.8374 255.494C97.7576 255.662 96.7763 256.306 96.1988 257.362C95.2038 259.22 95.838 261.511 97.6495 262.566C99.461 263.622 101.668 263 102.663 261.142C102.663 261.142 102.663 261.142 102.703 261.078L115.045 268.374L119.636 271.055L123.63 273.42C123.63 273.42 123.63 273.42 123.59 273.484C122.595 275.342 123.229 277.633 125.04 278.688C126.852 279.744 129.059 279.121 130.054 277.264C130.631 276.208 130.645 274.994 130.211 273.928C131.291 273.759 132.273 273.115 132.85 272.059C133.845 270.201 133.211 267.91 131.399 266.855C129.588 265.799 127.392 266.474 126.386 268.279Z" fill="#FFFACC"/>
<path d="M229.409 316.723C229.355 316.722 229.355 316.722 229.409 316.723L239.248 306.292L242.896 302.425L246.101 299.067C246.101 299.067 246.101 299.067 246.154 299.12C247.739 300.509 250.114 300.408 251.551 298.881C252.988 297.354 252.88 295.064 251.294 293.676C250.396 292.875 249.216 292.588 248.08 292.769C248.159 291.679 247.753 290.578 246.855 289.777C245.269 288.389 242.895 288.49 241.457 290.016C240.02 291.543 240.129 293.833 241.714 295.222C241.714 295.222 241.714 295.222 241.767 295.275L231.875 305.653L228.227 309.521L225.022 312.878C225.022 312.878 225.022 312.878 224.969 312.825C223.384 311.437 221.009 311.538 219.572 313.064C218.135 314.591 218.243 316.881 219.829 318.27C220.727 319.07 221.907 319.358 223.043 319.176C222.964 320.266 223.37 321.367 224.268 322.168C225.854 323.557 228.229 323.455 229.666 321.929C231.103 320.402 230.94 318.111 229.409 316.723Z" fill="#FFFACC"/>
<path d="M196.602 270.964C197.525 271.443 198.587 271.395 199.464 270.964C199.695 271.921 200.295 272.831 201.218 273.262C202.834 274.076 204.819 273.358 205.603 271.682C206.388 270.007 205.696 267.948 204.08 267.135H204.034L209.481 255.407L211.512 251.05C210.45 250.907 209.25 250.859 208.004 250.859C207.311 250.859 206.619 250.907 205.973 250.907L203.988 255.167L199.51 264.837H199.464C197.849 264.023 195.864 264.741 195.079 266.417C194.294 268.14 194.987 270.15 196.602 270.964Z" fill="#FFFACC"/>
<g opacity="0.9">
<path opacity="0.9" d="M254.986 242.999C252.339 241.587 248.942 240.704 245.143 240.704H95.7059C91.9643 240.704 88.5104 241.587 85.8624 242.999H80.6816V250.018V261.848V315.481C80.6816 320.646 87.4167 324.796 95.6484 324.796H245.085C253.375 324.796 260.052 320.602 260.052 315.481V261.848V250.018V242.999H254.986Z" fill="#85BC44"/>
<path d="M170.695 251.079C220.227 251.079 260.38 247.621 260.38 243.354C260.38 239.088 220.227 235.629 170.695 235.629C121.163 235.629 81.0098 239.088 81.0098 243.354C81.0098 247.621 121.163 251.079 170.695 251.079Z" fill="#BCF25F"/>
</g>
<path opacity="0.2" d="M254.364 332.724H88.6361C79.4258 332.724 72 326.897 72 319.702V228.106C72 220.911 79.4258 215.084 88.6361 215.084H254.364C263.574 215.084 271 220.911 271 228.106V319.702C271 326.853 263.574 332.724 254.364 332.724Z" fill="#89BEAA"/>
<path opacity="0.66" d="M251.208 214.964H93.3093C91.3521 214.964 89.7979 213.772 89.7979 212.271V205.517C89.7979 204.017 91.3521 202.825 93.3093 202.825H251.208C253.165 202.825 254.72 204.017 254.72 205.517V212.271C254.72 213.772 253.108 214.964 251.208 214.964Z" fill="#89BEAA"/>
<path opacity="0.66" d="M95.0948 208.784C96.2075 208.784 97.1096 208.093 97.1096 207.239C97.1096 206.386 96.2075 205.694 95.0948 205.694C93.9821 205.694 93.0801 206.386 93.0801 207.239C93.0801 208.093 93.9821 208.784 95.0948 208.784Z" fill="#A6DDC6"/>
<path opacity="0.66" d="M163.37 208.784H103.446C102.409 208.784 101.546 208.121 101.546 207.327V207.194C101.546 206.4 102.409 205.738 103.446 205.738H163.37C164.406 205.738 165.27 206.4 165.27 207.194V207.327C165.27 208.121 164.406 208.784 163.37 208.784Z" fill="#A6DDC6"/>
<path d="M222.626 224.52C221.703 224.041 220.641 224.089 219.764 224.52C219.534 223.562 218.934 222.653 218.01 222.222C216.395 221.408 214.41 222.126 213.625 223.802C212.84 225.477 213.533 227.535 215.148 228.349H215.195L209.748 240.077L207.717 244.433C208.778 244.577 209.979 244.625 211.225 244.625C211.917 244.625 212.61 244.577 213.256 244.577L215.241 240.316L219.718 230.647H219.764C221.38 231.461 223.365 230.743 224.15 229.067C224.934 227.344 224.242 225.333 222.626 224.52Z" fill="#FFFACC"/>
<path d="M152.904 268V258.192H149.064V256.8H158.328V258.192H154.488V268H152.904ZM165.315 259.52H166.819L162.707 268.848C161.955 270.64 160.979 271.2 159.683 271.2C158.867 271.2 158.035 270.928 157.507 270.416L158.163 269.264C158.579 269.664 159.107 269.888 159.683 269.888C160.419 269.888 160.883 269.552 161.299 268.576L161.571 267.984L157.827 259.52H159.427L162.387 266.304L165.315 259.52ZM172.749 259.44C175.229 259.44 177.037 261.168 177.037 263.76C177.037 266.368 175.229 268.096 172.749 268.096C171.549 268.096 170.493 267.632 169.789 266.72V271.104H168.253V259.52H169.725V260.864C170.413 259.92 171.501 259.44 172.749 259.44ZM172.621 266.752C174.253 266.752 175.485 265.568 175.485 263.76C175.485 261.968 174.253 260.784 172.621 260.784C171.005 260.784 169.773 261.968 169.773 263.76C169.773 265.568 171.005 266.752 172.621 266.752ZM186.823 263.808C186.823 263.936 186.807 264.128 186.791 264.272H179.911C180.103 265.76 181.303 266.752 182.983 266.752C183.975 266.752 184.807 266.416 185.431 265.728L186.279 266.72C185.511 267.616 184.343 268.096 182.935 268.096C180.199 268.096 178.375 266.288 178.375 263.76C178.375 261.248 180.183 259.44 182.631 259.44C185.079 259.44 186.823 261.2 186.823 263.808ZM182.631 260.736C181.159 260.736 180.071 261.728 179.911 263.168H185.351C185.191 261.744 184.119 260.736 182.631 260.736ZM189.324 261.632C188.732 261.632 188.236 261.168 188.236 260.528C188.236 259.888 188.732 259.44 189.324 259.44C189.9 259.44 190.38 259.888 190.38 260.528C190.38 261.168 189.9 261.632 189.324 261.632ZM189.324 268.096C188.732 268.096 188.236 267.632 188.236 266.992C188.236 266.352 188.732 265.904 189.324 265.904C189.9 265.904 190.38 266.352 190.38 266.992C190.38 267.632 189.9 268.096 189.324 268.096Z" fill="white"/>
<path d="M94.7025 478.923C98.5137 478.923 101.603 475.719 101.603 471.767C101.603 467.815 98.5137 464.611 94.7025 464.611C90.8913 464.611 87.8018 467.815 87.8018 471.767C87.8018 475.719 90.8913 478.923 94.7025 478.923Z" fill="#FFFACC"/>
<path d="M93.4704 472.483C95.1718 472.483 96.5511 471.052 96.5511 469.288C96.5511 467.523 95.1718 466.093 93.4704 466.093C91.7689 466.093 90.3896 467.523 90.3896 469.288C90.3896 471.052 91.7689 472.483 93.4704 472.483Z" fill="#004561"/>
<path d="M93.4358 469.239C94.307 468.875 94.8318 468.113 94.608 467.537C94.3842 466.96 93.4965 466.788 92.6253 467.152C91.7541 467.516 91.2293 468.279 91.4531 468.855C91.6769 469.431 92.5646 469.603 93.4358 469.239Z" fill="#0E708E"/>
<path d="M229.975 444.049C231.016 447.716 234.943 449.812 238.745 448.732C242.547 447.651 244.784 443.804 243.742 440.138C242.701 436.472 238.774 434.375 234.973 435.455C231.171 436.536 228.933 440.383 229.975 444.049Z" fill="#FFFACC"/>
<path d="M235.833 441.104C236.298 442.741 238.051 443.676 239.748 443.194C241.446 442.712 242.445 440.994 241.98 439.358C241.515 437.721 239.762 436.785 238.065 437.267C236.367 437.75 235.368 439.467 235.833 441.104Z" fill="#004561"/>
<path d="M238.945 440.184C239.533 440.922 240.409 441.219 240.902 440.846C241.395 440.473 241.318 439.573 240.73 438.834C240.142 438.095 239.265 437.799 238.772 438.172C238.279 438.544 238.357 439.445 238.945 440.184Z" fill="#0E708E"/>
<path d="M225.914 468.548C222.699 470.594 221.814 474.956 223.936 478.29C226.059 481.625 230.386 482.668 233.601 480.622C236.816 478.575 237.701 474.213 235.579 470.879C233.456 467.545 229.129 466.501 225.914 468.548Z" fill="#FFFACC"/>
<path d="M230.412 473.319C228.977 474.233 228.582 476.18 229.529 477.669C230.477 479.157 232.408 479.623 233.844 478.709C235.279 477.796 235.674 475.848 234.727 474.36C233.779 472.871 231.848 472.405 230.412 473.319Z" fill="#004561"/>
<path d="M232.184 476.037C231.645 476.812 231.611 477.737 232.109 478.102C232.607 478.468 233.449 478.137 233.988 477.362C234.528 476.587 234.561 475.662 234.063 475.296C233.565 474.93 232.723 475.262 232.184 476.037Z" fill="#0E708E"/>
<path d="M179.193 468.316C175.978 470.363 175.092 474.725 177.214 478.059C179.337 481.393 183.664 482.437 186.879 480.39C190.094 478.344 190.98 473.982 188.857 470.647C186.735 467.313 182.408 466.27 179.193 468.316Z" fill="#FFFACC"/>
<path d="M181.491 471.786C180.056 472.699 179.661 474.647 180.608 476.135C181.556 477.623 183.487 478.089 184.923 477.176C186.358 476.262 186.753 474.315 185.806 472.826C184.858 471.338 182.927 470.872 181.491 471.786Z" fill="#004561"/>
<path d="M181.939 473.604C181.399 474.379 181.366 475.304 181.864 475.67C182.362 476.036 183.204 475.704 183.743 474.929C184.282 474.154 184.316 473.23 183.818 472.864C183.319 472.498 182.478 472.83 181.939 473.604Z" fill="#0E708E"/>
<path d="M112.645 478.923C116.456 478.923 119.546 475.719 119.546 471.767C119.546 467.815 116.456 464.611 112.645 464.611C108.834 464.611 105.744 467.815 105.744 471.767C105.744 475.719 108.834 478.923 112.645 478.923Z" fill="#FFFACC"/>
<path d="M111.413 472.483C113.114 472.483 114.493 471.052 114.493 469.288C114.493 467.523 113.114 466.093 111.413 466.093C109.711 466.093 108.332 467.523 108.332 469.288C108.332 471.052 109.711 472.483 111.413 472.483Z" fill="#004561"/>
<path d="M111.378 469.239C112.249 468.875 112.774 468.113 112.55 467.537C112.327 466.96 111.439 466.788 110.568 467.152C109.696 467.516 109.172 468.279 109.395 468.855C109.619 469.431 110.507 469.603 111.378 469.239Z" fill="#0E708E"/>
<path d="M137.411 454.203C140.185 456.817 144.631 456.603 147.341 453.726C150.051 450.849 149.999 446.399 147.225 443.785C144.451 441.172 140.005 441.386 137.295 444.263C134.585 447.139 134.637 451.59 137.411 454.203Z" fill="#FFFACC"/>
<path d="M140.93 448.67C142.169 449.837 144.154 449.742 145.364 448.457C146.573 447.173 146.55 445.186 145.312 444.019C144.073 442.853 142.089 442.948 140.879 444.232C139.669 445.517 139.692 447.504 140.93 448.67Z" fill="#004561"/>
<path d="M143.13 446.285C144.013 446.618 144.918 446.423 145.15 445.85C145.382 445.277 144.854 444.543 143.97 444.211C143.087 443.879 142.182 444.073 141.95 444.646C141.718 445.219 142.246 445.953 143.13 446.285Z" fill="#0E708E"/>
<path d="M154.677 471.97C158.447 471.411 161.034 467.789 160.455 463.88C159.876 459.97 156.35 457.253 152.58 457.811C148.81 458.369 146.223 461.991 146.802 465.901C147.381 469.811 150.907 472.528 154.677 471.97Z" fill="#FFFACC"/>
<path d="M152.515 465.779C154.198 465.53 155.353 463.913 155.094 462.167C154.836 460.422 153.262 459.209 151.579 459.458C149.896 459.707 148.741 461.324 148.999 463.07C149.258 464.815 150.832 466.028 152.515 465.779Z" fill="#004561"/>
<path d="M152.005 462.575C152.813 462.087 153.221 461.257 152.915 460.719C152.609 460.182 151.706 460.142 150.897 460.63C150.089 461.118 149.681 461.948 149.987 462.485C150.293 463.023 151.196 463.063 152.005 462.575Z" fill="#0E708E"/>
<g opacity="0.9">
<path opacity="0.9" d="M254.329 483.806H88.388C84.2338 483.806 80.8193 481.162 80.8193 477.945V431.761C80.8193 428.544 84.2338 425.9 88.388 425.9H254.329C258.483 425.9 261.897 428.544 261.897 431.761V477.945C261.897 481.162 258.54 483.806 254.329 483.806Z" fill="#F93E3E"/>
<path d="M101.536 438.944C104.082 438.944 106.146 437.345 106.146 435.374C106.146 433.403 104.082 431.805 101.536 431.805C98.9905 431.805 96.9268 433.403 96.9268 435.374C96.9268 437.345 98.9905 438.944 101.536 438.944Z" fill="#DD6B67"/>
<path d="M93.5684 445.509C95.4227 445.509 96.926 444.345 96.926 442.909C96.926 441.473 95.4227 440.309 93.5684 440.309C91.7141 440.309 90.2109 441.473 90.2109 442.909C90.2109 444.345 91.7141 445.509 93.5684 445.509Z" fill="#DD6B67"/>
<path d="M251.086 468.425C252.94 468.425 254.444 467.261 254.444 465.825C254.444 464.389 252.94 463.225 251.086 463.225C249.232 463.225 247.729 464.389 247.729 465.825C247.729 467.261 249.232 468.425 251.086 468.425Z" fill="#E85B83"/>
<path d="M247.733 472.833C248.739 472.833 249.554 472.201 249.554 471.422C249.554 470.644 248.739 470.012 247.733 470.012C246.727 470.012 245.912 470.644 245.912 471.422C245.912 472.201 246.727 472.833 247.733 472.833Z" fill="#E85B83"/>
<path opacity="0.2" d="M261.167 421.758H217.975C196.976 421.758 179.904 408.581 179.904 392.276C179.904 387.252 181.554 382.493 184.4 378.351H152.93C155.775 382.493 157.426 387.208 157.426 392.276C157.426 408.537 140.41 421.758 119.355 421.758H81.5686C77.4144 421.758 74 424.402 74 427.619V483.057C74 486.274 77.4144 488.918 81.5686 488.918H261.11C265.264 488.918 268.679 486.274 268.679 483.057V427.619C268.736 424.358 265.321 421.758 261.167 421.758Z" fill="#89BEAA"/>
<path opacity="0.66" d="M192.987 377.865H143.422C141.487 377.865 139.95 376.675 139.95 375.176V364.688C139.95 363.19 141.487 362 143.422 362H192.987C194.922 362 196.459 363.19 196.459 364.688V375.176C196.459 376.675 194.865 377.865 192.987 377.865Z" fill="#89BEAA"/>
<path opacity="0.66" d="M146.835 369.8C148.281 369.8 149.453 368.892 149.453 367.773C149.453 366.653 148.281 365.746 146.835 365.746C145.39 365.746 144.218 366.653 144.218 367.773C144.218 368.892 145.39 369.8 146.835 369.8Z" fill="#A6DDC6"/>
<path opacity="0.66" d="M166.178 369.756H154.341C152.919 369.756 151.724 368.875 151.724 367.729C151.724 366.627 152.862 365.702 154.341 365.702H166.178C167.601 365.702 168.796 366.583 168.796 367.729C168.796 368.875 167.658 369.756 166.178 369.756Z" fill="#A6DDC6"/>
</g>
<path d="M147.944 444.128C146.232 444.128 144.552 443.552 143.656 442.72L144.248 441.472C145.08 442.224 146.504 442.768 147.944 442.768C149.88 442.768 150.712 442.016 150.712 441.04C150.712 438.304 143.928 440.032 143.928 435.872C143.928 434.144 145.272 432.672 148.216 432.672C149.528 432.672 150.888 433.024 151.816 433.664L151.288 434.944C150.312 434.32 149.208 434.032 148.216 434.032C146.312 434.032 145.496 434.832 145.496 435.808C145.496 438.544 152.28 436.832 152.28 440.944C152.28 442.656 150.904 444.128 147.944 444.128ZM158.682 442.4L159.162 443.504C158.698 443.904 157.994 444.096 157.306 444.096C155.594 444.096 154.618 443.152 154.618 441.44V436.784H153.178V435.52H154.618V433.664H156.154V435.52H158.586V436.784H156.154V441.376C156.154 442.288 156.634 442.8 157.482 442.8C157.93 442.8 158.362 442.656 158.682 442.4ZM164.107 435.44C166.427 435.44 167.739 436.56 167.739 438.88V444H166.283V442.88C165.771 443.648 164.827 444.096 163.499 444.096C161.579 444.096 160.363 443.072 160.363 441.6C160.363 440.24 161.243 439.12 163.771 439.12H166.203V438.816C166.203 437.52 165.451 436.768 163.931 436.768C162.923 436.768 161.899 437.12 161.243 437.68L160.603 436.528C161.483 435.824 162.747 435.44 164.107 435.44ZM163.755 442.912C164.907 442.912 165.819 442.384 166.203 441.408V440.224H163.835C162.315 440.224 161.883 440.816 161.883 441.536C161.883 442.384 162.587 442.912 163.755 442.912ZM174.869 442.4L175.349 443.504C174.885 443.904 174.181 444.096 173.493 444.096C171.781 444.096 170.805 443.152 170.805 441.44V436.784H169.365V435.52H170.805V433.664H172.341V435.52H174.773V436.784H172.341V441.376C172.341 442.288 172.821 442.8 173.669 442.8C174.117 442.8 174.549 442.656 174.869 442.4ZM183.574 435.52H185.11V444H183.654V442.72C183.03 443.6 181.974 444.096 180.774 444.096C178.582 444.096 177.126 442.896 177.126 440.4V435.52H178.662V440.224C178.662 441.888 179.494 442.72 180.95 442.72C182.55 442.72 183.574 441.728 183.574 439.904V435.52ZM190.466 444.096C189.058 444.096 187.666 443.664 186.962 443.104L187.602 441.888C188.322 442.4 189.474 442.768 190.578 442.768C192.002 442.768 192.594 442.336 192.594 441.616C192.594 439.712 187.234 441.36 187.234 437.984C187.234 436.464 188.594 435.44 190.77 435.44C191.874 435.44 193.122 435.728 193.858 436.208L193.202 437.424C192.434 436.928 191.586 436.752 190.754 436.752C189.41 436.752 188.754 437.248 188.754 437.92C188.754 439.92 194.13 438.288 194.13 441.584C194.13 443.12 192.722 444.096 190.466 444.096ZM196.418 437.632C195.826 437.632 195.33 437.168 195.33 436.528C195.33 435.888 195.826 435.44 196.418 435.44C196.994 435.44 197.474 435.888 197.474 436.528C197.474 437.168 196.994 437.632 196.418 437.632ZM196.418 444.096C195.826 444.096 195.33 443.632 195.33 442.992C195.33 442.352 195.826 441.904 196.418 441.904C196.994 441.904 197.474 442.352 197.474 442.992C197.474 443.632 196.994 444.096 196.418 444.096Z" fill="white"/>
<path d="M209.422 534.082C210.169 534.498 210.574 534.907 210.702 535.411C211.387 539.186 190.704 544.144 164.441 546.486C138.179 548.777 116.305 547.595 115.619 543.82C115.559 543.368 115.773 542.921 116.262 542.429C104.215 551.819 96.7071 564.408 96.4494 578.393C95.898 608.318 128.661 633.182 169.555 633.986C210.518 634.792 244.105 611.183 244.656 581.309C245.021 561.509 230.861 543.981 209.422 534.082Z" fill="#42B1B1"/>
<path d="M208.612 533.716C208.885 533.821 209.157 533.977 209.429 534.083C209.158 533.927 208.885 533.821 208.612 533.716Z" fill="white"/>
<path d="M116.195 542.427C116.543 542.184 116.891 541.89 117.239 541.646C116.823 541.888 116.475 542.132 116.195 542.427Z" fill="white"/>
<path d="M115.617 543.77C116.302 547.544 138.175 548.777 164.439 546.436C190.701 544.144 211.453 539.187 210.699 535.361C210.64 534.859 210.167 534.448 209.42 534.033C209.147 533.927 208.875 533.771 208.603 533.665C202.469 531.288 183.672 530.768 161.878 532.696C140.359 534.579 122.583 538.241 117.235 541.596C116.888 541.84 116.539 542.134 116.191 542.378C115.702 542.869 115.487 543.367 115.617 543.77Z" fill="#84EBEB"/>
<path opacity="0.2" d="M231.962 539.915L255.024 529.446L265.856 551.829L248.036 560.855C258.193 588.85 241.716 622.843 205.933 636.114C165.371 651.139 116.311 638.518 96.3944 607.919C76.4782 577.32 93.2079 540.31 133.77 525.286C169.487 512.064 208.793 516.778 231.962 539.915Z" fill="#89BEAA"/>
<path opacity="0.66" d="M242.758 532.31L256.587 561.439C257.315 562.943 259.061 563.544 260.517 562.842L267.359 559.383C268.815 558.631 269.397 556.826 268.718 555.322L254.889 526.194C254.161 524.69 252.414 524.088 250.958 524.79L244.116 528.25C242.612 529.002 242.03 530.806 242.758 532.31Z" fill="#89BEAA"/>
<path opacity="0.66" d="M261.925 556.028C261.925 555.059 262.685 554.273 263.623 554.273C264.561 554.273 265.321 555.059 265.321 556.028C265.321 556.997 264.561 557.782 263.623 557.782C262.685 557.782 261.925 556.997 261.925 556.028Z" fill="#A6DDC6"/>
<path opacity="0.66" d="M256.344 544.742L259.983 552.362C260.371 553.114 261.245 553.465 262.021 553.064L262.409 552.863C263.137 552.462 263.477 551.56 263.089 550.758L259.449 543.137C259.061 542.385 258.188 542.034 257.411 542.435L257.023 542.636C256.295 543.037 256.004 543.99 256.344 544.742Z" fill="#A6DDC6"/>
<path d="M226.701 557.631C226.701 559.181 227.918 560.438 229.418 560.438C230.919 560.438 232.136 559.181 232.136 557.631C232.136 556.08 230.919 554.823 229.418 554.823C227.918 554.823 226.701 556.08 226.701 557.631Z" fill="#B4F5F5"/>
<path d="M220.781 553.02C220.781 554.016 221.563 554.824 222.528 554.824C223.492 554.824 224.274 554.016 224.274 553.02C224.274 552.023 223.492 551.215 222.528 551.215C221.563 551.215 220.781 552.023 220.781 553.02Z" fill="#B4F5F5"/>
<path d="M149.048 570L147.816 567.2H141.864L140.632 570H138.984L144.056 558.8H145.64L150.728 570H149.048ZM142.424 565.92H147.256L144.84 560.432L142.424 565.92ZM155.793 570.096C153.185 570.096 151.313 568.288 151.313 565.76C151.313 563.232 153.185 561.44 155.793 561.44C157.313 561.44 158.577 562.064 159.249 563.248L158.081 564C157.537 563.168 156.705 562.784 155.777 562.784C154.113 562.784 152.865 563.952 152.865 565.76C152.865 567.6 154.113 568.752 155.777 568.752C156.705 568.752 157.537 568.368 158.081 567.536L159.249 568.272C158.577 569.456 157.313 570.096 155.793 570.096ZM165.635 568.4L166.115 569.504C165.651 569.904 164.947 570.096 164.259 570.096C162.547 570.096 161.571 569.152 161.571 567.44V562.784H160.131V561.52H161.571V559.664H163.107V561.52H165.539V562.784H163.107V567.376C163.107 568.288 163.587 568.8 164.435 568.8C164.883 568.8 165.315 568.656 165.635 568.4ZM168.74 559.888C168.148 559.888 167.7 559.456 167.7 558.896C167.7 558.336 168.148 557.888 168.74 557.888C169.332 557.888 169.78 558.32 169.78 558.864C169.78 559.44 169.348 559.888 168.74 559.888ZM167.972 570V561.52H169.508V570H167.972ZM176.072 570.096C173.528 570.096 171.656 568.288 171.656 565.76C171.656 563.232 173.528 561.44 176.072 561.44C178.616 561.44 180.472 563.232 180.472 565.76C180.472 568.288 178.616 570.096 176.072 570.096ZM176.072 568.752C177.704 568.752 178.92 567.568 178.92 565.76C178.92 563.952 177.704 562.784 176.072 562.784C174.44 562.784 173.208 563.952 173.208 565.76C173.208 567.568 174.44 568.752 176.072 568.752ZM187.125 561.44C189.189 561.44 190.645 562.624 190.645 565.12V570H189.109V565.296C189.109 563.632 188.277 562.816 186.821 562.816C185.189 562.816 184.133 563.792 184.133 565.632V570H182.597V561.52H184.069V562.8C184.693 561.936 185.781 561.44 187.125 561.44ZM195.919 570.096C194.511 570.096 193.119 569.664 192.415 569.104L193.055 567.888C193.775 568.4 194.927 568.768 196.031 568.768C197.455 568.768 198.047 568.336 198.047 567.616C198.047 565.712 192.687 567.36 192.687 563.984C192.687 562.464 194.047 561.44 196.223 561.44C197.327 561.44 198.575 561.728 199.311 562.208L198.655 563.424C197.887 562.928 197.039 562.752 196.207 562.752C194.863 562.752 194.207 563.248 194.207 563.92C194.207 565.92 199.583 564.288 199.583 567.584C199.583 569.12 198.175 570.096 195.919 570.096ZM201.871 563.632C201.279 563.632 200.783 563.168 200.783 562.528C200.783 561.888 201.279 561.44 201.871 561.44C202.447 561.44 202.927 561.888 202.927 562.528C202.927 563.168 202.447 563.632 201.871 563.632ZM201.871 570.096C201.279 570.096 200.783 569.632 200.783 568.992C200.783 568.352 201.279 567.904 201.871 567.904C202.447 567.904 202.927 568.352 202.927 568.992C202.927 569.632 202.447 570.096 201.871 570.096Z" fill="white"/>
<path d="M205.375 701.07L205.375 698.01C205.375 694.691 202.672 692 199.337 692L143.743 692C140.408 692 137.705 694.691 137.705 698.01L137.705 701.07C137.705 704.389 140.408 707.08 143.743 707.08L199.337 707.08C202.672 707.08 205.375 704.389 205.375 701.07Z" fill="#FCB13F"/>
</svg>
