<svg width="309" height="54" viewBox="0 0 309 54" fill="none" xmlns="http://www.w3.org/2000/svg">
<rect x="1.90594" y="1.90594" width="305.188" height="50.1881" rx="25.0941" stroke="white" stroke-width="3.81188"/>
<path d="M99.7347 35V18.2H107.679C113.247 18.2 117.063 21.44 117.063 26.6C117.063 31.76 113.247 35 107.679 35H99.7347ZM104.487 31.208H107.487C110.343 31.208 112.263 29.504 112.263 26.6C112.263 23.696 110.343 21.992 107.487 21.992H104.487V31.208ZM124.267 31.328H133.051V35H119.563V18.2H132.739V21.872H124.267V24.704H131.731V28.256H124.267V31.328ZM144.04 35.336C138.712 35.336 134.8 31.712 134.8 26.6C134.8 21.488 138.712 17.864 144.04 17.864C147.136 17.864 149.632 18.992 151.264 21.032L148.24 23.768C147.184 22.496 145.888 21.8 144.28 21.8C141.52 21.8 139.6 23.72 139.6 26.6C139.6 29.48 141.52 31.4 144.28 31.4C145.888 31.4 147.184 30.704 148.24 29.432L151.264 32.168C149.632 34.208 147.136 35.336 144.04 35.336ZM153.383 35V18.2H158.135V31.232H166.151V35H153.383ZM168.032 35V18.2H172.784V35H168.032ZM187.492 18.2H192.148V35H188.236L180.82 26.048V35H176.164V18.2H180.076L187.492 27.152V18.2ZM200.204 31.328H208.988V35H195.5V18.2H208.676V21.872H200.204V24.704H207.668V28.256H200.204V31.328Z" fill="white"/>
</svg>
