<svg width="112" height="844" viewBox="0 0 112 844" fill="none" xmlns="http://www.w3.org/2000/svg">
<path d="M197.31 -138V258.469C88.3374 258.469 0 169.718 0 60.2346C0 -49.2484 88.3374 -138 197.31 -138Z" fill="#A62322"/>
<path d="M161.554 232.09L172.225 214.937C133.996 190.932 107.365 153.447 97.2419 109.383C87.1191 65.3204 94.6971 19.8981 118.591 -18.5175L101.518 -29.238C74.7816 13.7571 66.2936 64.6002 77.6325 113.93C88.9713 163.261 118.776 205.228 161.57 232.09H161.554Z" fill="#B52D25"/>
<path d="M105.233 239.854L117.605 219.554C81.9233 186.801 59.1658 138.358 53.5315 83.144C47.8972 27.9304 60.0464 -27.5149 87.7522 -72.9787L71.8168 -87.6057C40.8138 -36.7218 27.209 25.34 33.5228 87.1542C39.8365 148.968 65.3038 203.204 105.249 239.855L105.233 239.854Z" fill="#B52D25"/>
<path d="M75 847H197L197 217H75L75 847Z" fill="#A62322"/>
<path d="M197.468 217.019H72.9678V247.646H197.468V217.019Z" fill="#61170C"/>
<path d="M120 248H99V847H120V248Z" fill="#B52D25"/>
</svg>
