<svg width="309" height="54" viewBox="0 0 309 54" fill="none" xmlns="http://www.w3.org/2000/svg">
<rect width="309" height="54" rx="27" fill="#FFB23E"/>
<path d="M125.902 3H166L89.6848 52H47L125.902 3Z" fill="#F5EA83"/>
<path d="M188.902 3H229L152.685 52H110L188.902 3Z" fill="#F5EA83"/>
<path d="M102.231 36.9697C96.9028 36.9697 92.9908 33.3457 92.9908 28.2337C92.9908 23.1217 96.9028 19.4977 102.231 19.4977C105.327 19.4977 107.823 20.6257 109.455 22.6657L106.431 25.4017C105.375 24.1297 104.079 23.4337 102.471 23.4337C99.7108 23.4337 97.7908 25.3537 97.7908 28.2337C97.7908 31.1137 99.7108 33.0337 102.471 33.0337C104.079 33.0337 105.375 32.3377 106.431 31.0657L109.455 33.8017C107.823 35.8417 105.327 36.9697 102.231 36.9697ZM119.694 36.9697C114.318 36.9697 110.358 33.2737 110.358 28.2337C110.358 23.1937 114.318 19.4977 119.694 19.4977C125.07 19.4977 129.03 23.1937 129.03 28.2337C129.03 33.2737 125.07 36.9697 119.694 36.9697ZM119.694 33.0337C122.238 33.0337 124.23 31.1377 124.23 28.2337C124.23 25.3297 122.238 23.4337 119.694 23.4337C117.15 23.4337 115.158 25.3297 115.158 28.2337C115.158 31.1377 117.15 33.0337 119.694 33.0337ZM142.847 19.8337H147.503V36.6337H143.591L136.175 27.6817V36.6337H131.519V19.8337H135.431L142.847 28.7857V19.8337ZM164.031 23.5057H155.607V27.2017H163.023V30.8737H155.607V36.6337H150.855V19.8337H164.031V23.5057ZM166.253 36.6337V19.8337H171.005V36.6337H166.253ZM184.778 36.6337L181.73 32.1697H179.138V36.6337H174.386V19.8337H182.066C186.65 19.8337 189.53 22.2097 189.53 26.0497C189.53 28.5217 188.33 30.3457 186.242 31.3537L189.866 36.6337H184.778ZM184.73 26.0497C184.73 24.4897 183.746 23.5777 181.778 23.5777H179.138V28.4977H181.778C183.746 28.4977 184.73 27.5857 184.73 26.0497ZM211.688 36.6337H207.32L207.272 27.7297L202.952 34.9777H200.84L196.544 27.9697V36.6337H192.152V19.8337H196.064L201.968 29.5297L207.728 19.8337H211.64L211.688 36.6337Z" fill="#A61E00"/>
</svg>
