<svg width="115" height="844" viewBox="0 0 115 844" fill="none" xmlns="http://www.w3.org/2000/svg">
<path d="M-82.3097 -138V258.469C26.6626 258.469 115 169.718 115 60.2346C115 -49.2484 26.6626 -138 -82.3097 -138Z" fill="#A62322"/>
<path d="M-46.5543 232.09L-57.2247 214.937C-18.9964 190.932 7.63533 153.447 17.7581 109.383C27.8809 65.3204 20.3029 19.8981 -3.59077 -18.5175L13.482 -29.238C40.2184 13.7571 48.7064 64.6002 37.3675 113.93C26.0287 163.261 -3.77599 205.228 -46.5704 232.09H-46.5543Z" fill="#B52D25"/>
<path d="M9.76741 239.854L-2.60508 219.554C33.0767 186.801 55.8342 138.358 61.4685 83.144C67.1028 27.9304 54.9536 -27.5149 27.2478 -72.9787L43.1832 -87.6057C74.1862 -36.7218 87.791 25.34 81.4772 87.1542C75.1635 148.968 49.6962 203.204 9.75134 239.855L9.76741 239.854Z" fill="#B52D25"/>
<path d="M40 847H-82L-82 217H40L40 847Z" fill="#A62322"/>
<path d="M-82.4677 217.019H42.0322V247.646H-82.4677V217.019Z" fill="#61170C"/>
<path d="M-5 248H16V847H-5V248Z" fill="#B52D25"/>
</svg>
