<svg width="378" height="209" viewBox="0 0 378 209" fill="none" xmlns="http://www.w3.org/2000/svg">
<path d="M121.5 208.5H75L181 164.5L121.5 208.5Z" fill="#633A14"/>
<path d="M242 209H287L181 165L242 209Z" fill="#633A14"/>
<path d="M170 0V19.5V33.5H192.5V0H170Z" fill="#633A14"/>
<path d="M3.75464 113.041L0.106554 102.642L60.3908 81.4337L67.1996 100.821L65.893 102.346L67.7801 102.678L66.5344 104.143L68.4986 104.526L73.6546 119.151L72.6746 120.295L74.1522 120.579L81.3195 140.951L80.6841 141.702L81.5623 141.859L81.1243 142.376L81.872 142.513L89.2067 163.336L51.2013 176.72L49.8518 175.55L49.5184 177.271L48.424 176.334L48.1471 177.783L28.9225 184.545L4.34863 114.675L5.4652 113.357L3.75464 113.041Z" fill="#D3BDAB"/>
<path fill-rule="evenodd" clip-rule="evenodd" d="M338.179 82.8428L341.382 88.8953L341.963 76.8305C347.087 67.9445 350.625 58.2428 352.444 48.186C353.619 50.2054 354.988 52.8698 355.401 54.5785C355.083 51.8388 354.251 46.8314 353.075 44.3116C353.444 41.5371 353.696 38.7581 353.806 35.9666L353.828 35.385L354.448 36.1835C362.183 45.8533 366.386 57.5502 366.852 69.4506C365.57 72.6347 363.627 76.5674 361.466 78.7305C362.635 78.4542 364.857 77.1912 366.82 74.294C366.483 81.6951 364.688 89.053 361.402 95.9756L355.345 108.765C353.685 110.016 351.821 111.266 350.211 111.943C350.978 112.137 352.326 112.354 353.715 112.23L353.252 113.213C347.12 126.157 333.098 133.386 319.004 130.889C316.748 121.995 318.226 112.604 323.044 104.864L325.238 115.886L325.344 101.418L338.179 82.8428Z" fill="#0D3F41"/>
<path d="M312.121 142.791C311.87 142.747 311.634 142.648 311.413 142.496C310.525 141.913 310.256 140.717 310.847 139.801L319.853 126.079C319.955 125.932 320.084 125.793 320.24 125.662L322.68 123.551C328.873 118.154 334.465 111.993 339.259 105.245C343.798 98.8652 347.568 91.9957 350.514 84.8268C353.271 78.1027 355.293 71.0758 356.56 63.9166L356.944 61.7937C357.137 60.7323 358.137 60.0245 359.199 60.2167C360.26 60.409 360.968 61.4097 360.776 62.4712L360.391 64.5941C359.073 72.0322 356.971 79.3301 354.116 86.2901C351.064 93.7221 347.125 100.866 342.434 107.466C337.445 114.48 331.673 120.853 325.238 126.474L322.989 128.435L314.135 141.938C313.643 142.617 312.85 142.915 312.121 142.791ZM322.744 128.569C322.736 128.597 322.736 128.597 322.744 128.569V128.569Z" fill="#B7D6D6"/>
<path d="M35.0625 201.814V33.8877L51.9008 25.415L52.5952 20.6703L57.0955 25.4154C77.4056 21.4615 160.083 -1.93447 181.747 30.3291C186.897 22.9297 220.111 13.8289 247.191 8.8131C265.534 7.51398 302.219 12.5368 310.552 20.6704V26.0929L326.869 33.3793V203C280.868 180.293 195.079 191.888 181.053 195.413C134.704 180.84 42.8394 196.798 35.0625 201.814Z" fill="#D7CF8B"/>
<path d="M42.6919 192.433V38.1866H318.885V195.02C271.522 179.821 221.384 180.63 181.135 195.02C155.633 188.714 120.935 169.635 42.6919 192.433Z" fill="#EAE294"/>
<path d="M179.756 194.673L180.452 25.7072C226.097 -0.682731 286.156 8.16049 309.523 15.8808L310.219 178.006C229.854 153.178 190.472 183.978 179.756 194.673Z" fill="#FFF8BE" stroke="#CEC88C" stroke-width="0.693952"/>
<path d="M181.484 194.533L180.79 25.694C135.267 -0.676215 75.3676 8.16037 52.0624 15.8749L51.3684 177.878C131.52 153.069 170.798 183.846 181.484 194.533Z" fill="#FFF8BE" stroke="#CEC88C" stroke-width="0.693952"/>
<path d="M71.5625 45.5V10.5L85.5625 8.5V45.5L79.5625 37L71.5625 45.5Z" fill="#A61E00"/>
<path d="M22.3533 87.1609L17.4655 85.9878L13.7313 89.331L13.3403 84.3455L9 81.8235L13.6336 79.9075L14.6893 75.0002L17.9543 78.8127L22.9398 78.3043L20.3004 82.586L22.3533 87.1609Z" fill="#EBD2D2"/>
<path d="M31.7954 85.7535L29.0387 85.5189L26.5948 86.8093L26.8294 84.0526L25.5391 81.5892L28.2957 81.8434L30.7592 80.553L30.505 83.3097L31.7954 85.7535Z" fill="#EBD2D2"/>
<path d="M345.114 144.317L340.789 146.877L340.434 151.877L336.684 148.569L331.812 149.779L333.805 145.178L331.147 140.92L336.145 141.385L339.371 137.55L340.456 142.461L345.114 144.317Z" fill="#EBD2D2"/>
<path d="M350.917 136.734L348.774 138.484L347.917 141.112L346.167 138.969L343.526 138.099L345.682 136.362L346.553 133.721L348.289 135.878L350.917 136.734Z" fill="#EBD2D2"/>
<path d="M27.3814 76.7482L26.6384 74.7344L24.9375 73.4636L26.9317 72.7207L28.2221 71.0002L28.965 73.0139L30.6659 74.2848L28.6717 75.0277L27.3814 76.7482Z" fill="#EBD2D2"/>
</svg>
