<svg width="169" height="982" viewBox="0 0 169 982" fill="none" xmlns="http://www.w3.org/2000/svg">
<path d="M197.31 -3V393.469C88.3374 393.469 0 304.718 0 195.235C0 85.7516 88.3374 -3 197.31 -3Z" fill="#A62322"/>
<path d="M166.615 82.4111L184.151 94.6056C156.961 134.064 146.687 181.76 155.215 228.896C160.696 259.171 173.52 286.906 192.401 310.115L190.987 340.269C161.536 311.405 141.731 274.197 134.235 232.739C124.689 179.967 136.19 126.586 166.624 82.4115L166.615 82.4111Z" fill="#B52D25"/>
<path d="M161.554 367.09L172.224 349.937C133.996 325.932 107.364 288.447 97.2414 244.383C87.1186 200.32 94.6966 154.898 118.59 116.482L101.518 105.762C74.7811 148.757 66.2931 199.6 77.632 248.93C88.9708 298.261 118.776 340.228 161.57 367.09H161.554Z" fill="#B52D25"/>
<path d="M105.233 374.854L117.606 354.554C81.9238 321.801 59.1662 273.358 53.5319 218.144C47.8976 162.93 60.0469 107.485 87.7527 62.0213L71.8173 47.3943C40.8143 98.2782 27.2095 160.34 33.5232 222.154C39.837 283.968 65.3043 338.204 105.249 374.855L105.233 374.854Z" fill="#B52D25"/>
<path d="M75 982H197L197 352H75L75 982Z" fill="#A62322"/>
<path d="M197.468 352.019H72.9678V382.646H197.468V352.019Z" fill="#61170C"/>
<path d="M173 383H152V982H173V383Z" fill="#B52D25"/>
<path d="M120 383H99V982H120V383Z" fill="#B52D25"/>
</svg>
