<svg width="560" height="93" viewBox="0 0 560 93" fill="none" xmlns="http://www.w3.org/2000/svg">
<g filter="url(#filter0_b_1716_4476)">
<rect width="560" height="92.5322" rx="36.4819" fill="#FFB23E"/>
<path d="M249.356 4.09802H284.168L192.339 87.0943H156.824L249.356 4.09802Z" fill="#F5EA83"/>
<path d="M311.617 4.09802H359.867L268.037 87.0943H216.675L311.617 4.09802Z" fill="#F5EA83"/>
<path d="M383.354 4.80685H416.996L325.665 87.8031H288.412L383.354 4.80685Z" fill="#F5EA83"/>
<path d="M81.6543 60.906C79.8375 60.906 78.152 60.6214 76.5979 60.0523C75.0656 59.4613 73.7304 58.6295 72.5922 57.557C71.4758 56.4844 70.6003 55.2258 69.9655 53.7811C69.3307 52.3145 69.0133 50.7057 69.0133 48.9545C69.0133 47.2034 69.3307 45.6055 69.9655 44.1608C70.6003 42.6942 71.4758 41.4247 72.5922 40.3521C73.7304 39.2795 75.0656 38.4587 76.5979 37.8896C78.152 37.2986 79.8375 37.0031 81.6543 37.0031C83.7775 37.0031 85.6709 37.3752 87.3345 38.1194C89.02 38.8636 90.4209 39.9362 91.5372 41.3371L87.4002 45.0802C86.6559 44.2046 85.8351 43.537 84.9376 43.0773C84.0621 42.6176 83.0771 42.3878 81.9826 42.3878C81.0414 42.3878 80.1768 42.541 79.3887 42.8475C78.6007 43.1539 77.9222 43.6026 77.3531 44.1936C76.8058 44.7628 76.368 45.4523 76.0397 46.2622C75.7333 47.0721 75.58 47.9695 75.58 48.9545C75.58 49.9395 75.7333 50.837 76.0397 51.6469C76.368 52.4568 76.8058 53.1572 77.3531 53.7482C77.9222 54.3174 78.6007 54.7551 79.3887 55.0616C80.1768 55.368 81.0414 55.5213 81.9826 55.5213C83.0771 55.5213 84.0621 55.2914 84.9376 54.8318C85.8351 54.3721 86.6559 53.7045 87.4002 52.8289L91.5372 56.5719C90.4209 57.951 89.02 59.0235 87.3345 59.7896C85.6709 60.5339 83.7775 60.906 81.6543 60.906ZM102.494 60.7418C100.546 60.7418 98.8165 60.3478 97.3062 59.5598C95.7958 58.7718 94.6029 57.6883 93.7273 56.3093C92.8736 54.9084 92.4468 53.3105 92.4468 51.5156C92.4468 49.7207 92.8736 48.1337 93.7273 46.7547C94.6029 45.3757 95.7958 44.3031 97.3062 43.537C98.8165 42.749 100.546 42.355 102.494 42.355C104.442 42.355 106.171 42.749 107.682 43.537C109.214 44.3031 110.407 45.3757 111.261 46.7547C112.114 48.1337 112.541 49.7207 112.541 51.5156C112.541 53.3105 112.114 54.9084 111.261 56.3093C110.407 57.6883 109.214 58.7718 107.682 59.5598C106.171 60.3478 104.442 60.7418 102.494 60.7418ZM102.494 55.7839C103.216 55.7839 103.851 55.6198 104.398 55.2914C104.967 54.9631 105.416 54.4815 105.744 53.8467C106.073 53.1901 106.237 52.413 106.237 51.5156C106.237 50.6181 106.073 49.8629 105.744 49.25C105.416 48.6153 104.967 48.1337 104.398 47.8054C103.851 47.477 103.216 47.3128 102.494 47.3128C101.793 47.3128 101.159 47.477 100.59 47.8054C100.042 48.1337 99.5936 48.6153 99.2434 49.25C98.915 49.8629 98.7509 50.6181 98.7509 51.5156C98.7509 52.413 98.915 53.1901 99.2434 53.8467C99.5936 54.4815 100.042 54.9631 100.59 55.2914C101.159 55.6198 101.793 55.7839 102.494 55.7839ZM127.021 42.355C128.4 42.355 129.648 42.6395 130.764 43.2086C131.881 43.7559 132.756 44.6095 133.391 45.7697C134.048 46.9298 134.376 48.4292 134.376 50.2679V60.4463H128.138V51.2857C128.138 50.0162 127.875 49.0968 127.35 48.5277C126.846 47.9367 126.135 47.6412 125.215 47.6412C124.559 47.6412 123.957 47.7944 123.409 48.1009C122.862 48.3854 122.435 48.8341 122.129 49.447C121.823 50.0599 121.669 50.8589 121.669 51.8439V60.4463H115.431V42.6505H121.374V47.7069L120.225 46.2293C120.903 44.9379 121.833 43.9748 123.015 43.34C124.197 42.6833 125.533 42.355 127.021 42.355ZM147.218 67.1116C145.511 67.1116 143.88 66.9146 142.326 66.5206C140.794 66.1265 139.48 65.5465 138.386 64.7804L140.651 60.4135C141.395 61.0045 142.315 61.4642 143.409 61.7925C144.526 62.1427 145.609 62.3178 146.66 62.3178C148.345 62.3178 149.56 61.9457 150.304 61.2015C151.049 60.4792 151.421 59.4175 151.421 58.0166V55.9153L151.749 50.9246L151.716 45.901V42.6505H157.659V57.1958C157.659 60.5667 156.751 63.0621 154.934 64.6819C153.117 66.3017 150.545 67.1116 147.218 67.1116ZM146.134 59.527C144.558 59.527 143.103 59.1768 141.768 58.4763C140.454 57.754 139.393 56.758 138.583 55.4884C137.795 54.197 137.401 52.6757 137.401 50.9246C137.401 49.1734 137.795 47.6631 138.583 46.3935C139.393 45.102 140.454 44.1061 141.768 43.4056C143.103 42.7052 144.558 42.355 146.134 42.355C147.645 42.355 148.936 42.6614 150.009 43.2743C151.081 43.8653 151.891 44.7956 152.439 46.0652C153.008 47.3347 153.292 48.9545 153.292 50.9246C153.292 52.8946 153.008 54.5144 152.439 55.7839C151.891 57.0535 151.081 57.9947 150.009 58.6076C148.936 59.2205 147.645 59.527 146.134 59.527ZM147.612 54.5691C148.356 54.5691 149.013 54.4159 149.582 54.1094C150.173 53.803 150.633 53.3761 150.961 52.8289C151.311 52.2817 151.486 51.6469 151.486 50.9246C151.486 50.2022 151.311 49.5674 150.961 49.0202C150.633 48.473 150.173 48.0571 149.582 47.7725C149.013 47.4661 148.356 47.3128 147.612 47.3128C146.868 47.3128 146.2 47.4661 145.609 47.7725C145.018 48.0571 144.548 48.473 144.197 49.0202C143.869 49.5674 143.705 50.2022 143.705 50.9246C143.705 51.6469 143.869 52.2817 144.197 52.8289C144.548 53.3761 145.018 53.803 145.609 54.1094C146.2 54.4159 146.868 54.5691 147.612 54.5691ZM161.667 60.4463V42.6505H167.61V47.8382L166.724 46.3607C167.249 45.0254 168.103 44.0295 169.285 43.3728C170.467 42.6942 171.901 42.355 173.586 42.355V47.9695C173.301 47.9257 173.05 47.9039 172.831 47.9039C172.634 47.882 172.415 47.871 172.174 47.871C170.905 47.871 169.876 48.2212 169.088 48.9217C168.3 49.6003 167.906 50.7166 167.906 52.2707V60.4463H161.667ZM185.97 60.4463V57.1301L185.543 56.3093V50.2022C185.543 49.2172 185.237 48.462 184.624 47.9367C184.033 47.3895 183.081 47.1158 181.767 47.1158C180.914 47.1158 180.049 47.2581 179.174 47.5427C178.298 47.8054 177.554 48.1775 176.941 48.659L174.84 44.4235C175.846 43.7668 177.05 43.2634 178.451 42.9131C179.874 42.541 181.286 42.355 182.687 42.355C185.576 42.355 187.809 43.0226 189.385 44.3578C190.983 45.6712 191.782 47.7397 191.782 50.5634V60.4463H185.97ZM180.717 60.7418C179.294 60.7418 178.09 60.501 177.105 60.0195C176.12 59.5379 175.365 58.8812 174.84 58.0495C174.336 57.2177 174.084 56.2874 174.084 55.2586C174.084 54.1641 174.358 53.2229 174.905 52.4349C175.474 51.625 176.339 51.0121 177.499 50.5962C178.659 50.1584 180.159 49.9395 181.997 49.9395H186.2V53.1901H182.851C181.844 53.1901 181.133 53.3542 180.717 53.6826C180.323 54.0109 180.126 54.4487 180.126 54.9959C180.126 55.5432 180.334 55.9809 180.75 56.3093C181.166 56.6376 181.735 56.8018 182.457 56.8018C183.136 56.8018 183.748 56.6376 184.296 56.3093C184.865 55.959 185.281 55.4337 185.543 54.7333L186.397 57.0316C186.069 58.2574 185.423 59.1877 184.46 59.8225C183.519 60.4354 182.271 60.7418 180.717 60.7418ZM203.665 60.7418C201.389 60.7418 199.616 60.1837 198.346 59.0673C197.077 57.9291 196.442 56.2217 196.442 53.9453V38.6776H202.68V53.8796C202.68 54.5144 202.855 55.0178 203.206 55.3899C203.556 55.7402 204.005 55.9153 204.552 55.9153C205.296 55.9153 205.931 55.7292 206.456 55.3571L207.999 59.724C207.474 60.0742 206.828 60.3259 206.062 60.4792C205.296 60.6543 204.497 60.7418 203.665 60.7418ZM193.848 47.9695V43.3071H206.752V47.9695H193.848ZM216.873 60.7418C215.363 60.7418 213.885 60.5667 212.441 60.2165C211.018 59.8663 209.869 59.4285 208.993 58.9031L210.865 54.6348C211.696 55.1382 212.67 55.5432 213.787 55.8496C214.903 56.1342 215.998 56.2764 217.07 56.2764C218.121 56.2764 218.843 56.167 219.237 55.9481C219.653 55.7292 219.861 55.4337 219.861 55.0616C219.861 54.7114 219.664 54.4596 219.27 54.3064C218.898 54.1313 218.394 54 217.76 53.9124C217.147 53.8249 216.468 53.7264 215.724 53.6169C214.98 53.5075 214.225 53.3652 213.458 53.1901C212.714 52.9931 212.025 52.7085 211.39 52.3364C210.777 51.9424 210.284 51.4171 209.912 50.7604C209.54 50.1037 209.354 49.2719 209.354 48.265C209.354 47.1268 209.683 46.1199 210.339 45.2443C211.018 44.3469 212.003 43.6464 213.294 43.143C214.586 42.6176 216.162 42.355 218.022 42.355C219.27 42.355 220.529 42.4863 221.798 42.749C223.09 42.9897 224.173 43.3619 225.049 43.8653L223.177 48.1009C222.302 47.5974 221.426 47.2581 220.55 47.083C219.675 46.886 218.843 46.7875 218.055 46.7875C217.004 46.7875 216.26 46.9079 215.822 47.1487C215.407 47.3895 215.199 47.685 215.199 48.0352C215.199 48.3854 215.385 48.659 215.757 48.856C216.129 49.0311 216.621 49.1734 217.234 49.2829C217.869 49.3704 218.559 49.4689 219.303 49.5784C220.047 49.6659 220.791 49.8082 221.535 50.0052C222.302 50.2022 222.991 50.4977 223.604 50.8917C224.239 51.2638 224.742 51.7782 225.114 52.4349C225.486 53.0697 225.673 53.8905 225.673 54.8974C225.673 55.9919 225.333 56.9769 224.655 57.8525C223.998 58.728 223.013 59.4285 221.7 59.9538C220.408 60.4792 218.799 60.7418 216.873 60.7418ZM228.82 52.0737L227.606 37.4627H235.026L233.778 52.0737H228.82ZM231.316 60.7418C230.221 60.7418 229.324 60.4025 228.623 59.724C227.923 59.0454 227.573 58.2355 227.573 57.2943C227.573 56.3312 227.923 55.5322 228.623 54.8974C229.324 54.2408 230.221 53.9124 231.316 53.9124C232.41 53.9124 233.297 54.2408 233.975 54.8974C234.676 55.5322 235.026 56.3312 235.026 57.2943C235.026 58.2355 234.676 59.0454 233.975 59.724C233.297 60.4025 232.41 60.7418 231.316 60.7418ZM259.546 60.906C257.729 60.906 256.044 60.6214 254.49 60.0523C252.957 59.4613 251.622 58.6295 250.484 57.557C249.368 56.4844 248.492 55.2258 247.857 53.7811C247.223 52.3145 246.905 50.7057 246.905 48.9545C246.905 47.2034 247.223 45.6055 247.857 44.1608C248.492 42.6942 249.368 41.4247 250.484 40.3521C251.622 39.2795 252.957 38.4587 254.49 37.8896C256.044 37.2986 257.729 37.0031 259.546 37.0031C261.669 37.0031 263.563 37.3752 265.226 38.1194C266.912 38.8636 268.313 39.9362 269.429 41.3371L265.292 45.0802C264.548 44.2046 263.727 43.537 262.829 43.0773C261.954 42.6176 260.969 42.3878 259.874 42.3878C258.933 42.3878 258.069 42.541 257.281 42.8475C256.493 43.1539 255.814 43.6026 255.245 44.1936C254.698 44.7628 254.26 45.4523 253.932 46.2622C253.625 47.0721 253.472 47.9695 253.472 48.9545C253.472 49.9395 253.625 50.837 253.932 51.6469C254.26 52.4568 254.698 53.1572 255.245 53.7482C255.814 54.3174 256.493 54.7551 257.281 55.0616C258.069 55.368 258.933 55.5213 259.874 55.5213C260.969 55.5213 261.954 55.2914 262.829 54.8318C263.727 54.3721 264.548 53.7045 265.292 52.8289L269.429 56.5719C268.313 57.951 266.912 59.0235 265.226 59.7896C263.563 60.5339 261.669 60.906 259.546 60.906ZM272.032 60.4463V36.0837H278.271V60.4463H272.032ZM282.325 60.4463V42.6505H288.563V60.4463H282.325ZM285.444 40.6804C284.306 40.6804 283.386 40.3631 282.686 39.7283C281.985 39.0935 281.635 38.3055 281.635 37.3642C281.635 36.423 281.985 35.635 282.686 35.0002C283.386 34.3654 284.306 34.048 285.444 34.048C286.582 34.048 287.502 34.3545 288.202 34.9674C288.902 35.5584 289.253 36.3245 289.253 37.2657C289.253 38.2508 288.902 39.0716 288.202 39.7283C287.523 40.3631 286.604 40.6804 285.444 40.6804ZM301.712 60.7418C299.742 60.7418 297.98 60.3478 296.426 59.5598C294.894 58.7718 293.69 57.6883 292.814 56.3093C291.939 54.9084 291.501 53.3105 291.501 51.5156C291.501 49.7207 291.939 48.1337 292.814 46.7547C293.69 45.3757 294.894 44.3031 296.426 43.537C297.98 42.749 299.742 42.355 301.712 42.355C303.726 42.355 305.466 42.7818 306.933 43.6355C308.399 44.4892 309.439 45.6931 310.052 47.2472L305.225 49.7097C304.81 48.8779 304.295 48.276 303.682 47.9039C303.069 47.5098 302.402 47.3128 301.679 47.3128C300.957 47.3128 300.3 47.477 299.709 47.8054C299.118 48.1337 298.648 48.6153 298.298 49.25C297.969 49.8629 297.805 50.6181 297.805 51.5156C297.805 52.4349 297.969 53.212 298.298 53.8467C298.648 54.4815 299.118 54.9631 299.709 55.2914C300.3 55.6198 300.957 55.7839 301.679 55.7839C302.402 55.7839 303.069 55.5979 303.682 55.2258C304.295 54.8318 304.81 54.2189 305.225 53.3871L310.052 55.8496C309.439 57.4037 308.399 58.6076 306.933 59.4613C305.466 60.315 303.726 60.7418 301.712 60.7418ZM317.524 57.163L317.689 49.7097L324.945 42.6505H332.332L324.288 50.9574L321.103 53.5184L317.524 57.163ZM312.337 60.4463V36.0837H318.575V60.4463H312.337ZM325.405 60.4463L319.954 53.6169L323.829 48.8232L332.956 60.4463H325.405ZM349.589 60.4463V42.6176H342.529V37.4627H363.116V42.6176H356.09V60.4463H349.589ZM372.378 60.7418C370.43 60.7418 368.7 60.3478 367.19 59.5598C365.68 58.7718 364.487 57.6883 363.611 56.3093C362.758 54.9084 362.331 53.3105 362.331 51.5156C362.331 49.7207 362.758 48.1337 363.611 46.7547C364.487 45.3757 365.68 44.3031 367.19 43.537C368.7 42.749 370.43 42.355 372.378 42.355C374.326 42.355 376.055 42.749 377.565 43.537C379.098 44.3031 380.291 45.3757 381.144 46.7547C381.998 48.1337 382.425 49.7207 382.425 51.5156C382.425 53.3105 381.998 54.9084 381.144 56.3093C380.291 57.6883 379.098 58.7718 377.565 59.5598C376.055 60.3478 374.326 60.7418 372.378 60.7418ZM372.378 55.7839C373.1 55.7839 373.735 55.6198 374.282 55.2914C374.851 54.9631 375.3 54.4815 375.628 53.8467C375.957 53.1901 376.121 52.413 376.121 51.5156C376.121 50.6181 375.957 49.8629 375.628 49.25C375.3 48.6153 374.851 48.1337 374.282 47.8054C373.735 47.477 373.1 47.3128 372.378 47.3128C371.677 47.3128 371.043 47.477 370.473 47.8054C369.926 48.1337 369.477 48.6153 369.127 49.25C368.799 49.8629 368.635 50.6181 368.635 51.5156C368.635 52.413 368.799 53.1901 369.127 53.8467C369.477 54.4815 369.926 54.9631 370.473 55.2914C371.043 55.6198 371.677 55.7839 372.378 55.7839ZM395.165 60.4463V37.4627H405.672C407.773 37.4627 409.579 37.802 411.09 38.4806C412.622 39.1592 413.804 40.1442 414.636 41.4356C415.468 42.7052 415.883 44.2155 415.883 45.9667C415.883 47.6959 415.468 49.1953 414.636 50.4649C413.804 51.7126 412.622 52.6757 411.09 53.3542C409.579 54.0109 407.773 54.3393 405.672 54.3393H398.777L401.666 51.6141V60.4463H395.165ZM409.382 60.4463L403.669 52.0737H410.597L416.343 60.4463H409.382ZM401.666 52.3036L398.777 49.3157H405.278C406.635 49.3157 407.642 49.0202 408.299 48.4292C408.977 47.8382 409.317 47.0173 409.317 45.9667C409.317 44.8941 408.977 44.0623 408.299 43.4713C407.642 42.8803 406.635 42.5848 405.278 42.5848H398.777L401.666 39.5969V52.3036ZM427.547 60.906C425.665 60.906 423.848 60.6762 422.097 60.2165C420.367 59.7349 418.956 59.122 417.861 58.3778L419.995 53.5841C421.024 54.2408 422.206 54.788 423.541 55.2258C424.898 55.6417 426.245 55.8496 427.58 55.8496C428.477 55.8496 429.2 55.773 429.747 55.6198C430.294 55.4447 430.688 55.2258 430.929 54.9631C431.192 54.6785 431.323 54.3502 431.323 53.9781C431.323 53.4527 431.082 53.0369 430.601 52.7304C430.119 52.424 429.495 52.1722 428.729 51.9752C427.963 51.7782 427.109 51.5812 426.168 51.3842C425.249 51.1872 424.318 50.9355 423.377 50.629C422.458 50.3226 421.615 49.9286 420.849 49.447C420.083 48.9436 419.459 48.2979 418.977 47.5098C418.496 46.7 418.255 45.6821 418.255 44.4563C418.255 43.0773 418.627 41.8296 419.371 40.7133C420.138 39.5969 421.276 38.6995 422.786 38.0209C424.297 37.3424 426.179 37.0031 428.434 37.0031C429.944 37.0031 431.421 37.1782 432.866 37.5284C434.333 37.8567 435.635 38.3493 436.773 39.0059L434.77 43.8325C433.676 43.2415 432.593 42.8037 431.52 42.5191C430.447 42.2127 429.408 42.0595 428.401 42.0595C427.503 42.0595 426.781 42.158 426.234 42.355C425.686 42.5301 425.292 42.7709 425.052 43.0773C424.811 43.3837 424.691 43.734 424.691 44.128C424.691 44.6314 424.92 45.0364 425.38 45.3428C425.862 45.6274 426.485 45.8682 427.252 46.0652C428.04 46.2403 428.893 46.4263 429.813 46.6233C430.754 46.8203 431.684 47.0721 432.603 47.3785C433.545 47.6631 434.398 48.0571 435.164 48.5605C435.931 49.0421 436.544 49.6878 437.003 50.4977C437.485 51.2857 437.726 52.2817 437.726 53.4856C437.726 54.8208 437.342 56.0576 436.576 57.1958C435.832 58.3121 434.705 59.2096 433.194 59.8881C431.706 60.5667 429.824 60.906 427.547 60.906ZM447.788 60.4463L437.971 37.4627H444.997L453.271 57.36H449.134L457.605 37.4627H464.04L454.19 60.4463H447.788ZM465.386 60.4463V37.4627H475.893C477.994 37.4627 479.8 37.802 481.31 38.4806C482.842 39.1592 484.024 40.1442 484.856 41.4356C485.688 42.7052 486.104 44.2155 486.104 45.9667C486.104 47.6959 485.688 49.1953 484.856 50.4649C484.024 51.7344 482.842 52.7195 481.31 53.4199C479.8 54.0985 477.994 54.4378 475.893 54.4378H468.998L471.887 51.6141V60.4463H465.386ZM471.887 52.3036L468.998 49.3157H475.499C476.856 49.3157 477.863 49.0202 478.519 48.4292C479.198 47.8382 479.537 47.0173 479.537 45.9667C479.537 44.8941 479.198 44.0623 478.519 43.4713C477.863 42.8803 476.856 42.5848 475.499 42.5848H468.998L471.887 39.5969V52.3036Z" fill="#A61E00"/>
</g>
<defs>
<filter id="filter0_b_1716_4476" x="-5.99756" y="-5.99756" width="571.995" height="104.527" filterUnits="userSpaceOnUse" color-interpolation-filters="sRGB">
<feFlood flood-opacity="0" result="BackgroundImageFix"/>
<feGaussianBlur in="BackgroundImageFix" stdDeviation="2.99878"/>
<feComposite in2="SourceAlpha" operator="in" result="effect1_backgroundBlur_1716_4476"/>
<feBlend mode="normal" in="SourceGraphic" in2="effect1_backgroundBlur_1716_4476" result="shape"/>
</filter>
</defs>
</svg>
