<svg width="1177" height="304" viewBox="0 0 1177 304" fill="none" xmlns="http://www.w3.org/2000/svg">
<path opacity="0.8" d="M46.7 212V142H81.2C89 142 95.8667 143.433 101.8 146.3C107.733 149.1 112.367 153.1 115.7 158.3C119.033 163.5 120.7 169.7 120.7 176.9C120.7 184.167 119.033 190.433 115.7 195.7C112.367 200.9 107.733 204.933 101.8 207.8C95.8667 210.6 89 212 81.2 212H46.7ZM70.3 193.6H80.2C83.5333 193.6 86.4333 192.967 88.9 191.7C91.4333 190.433 93.4 188.567 94.8 186.1C96.2 183.567 96.9 180.5 96.9 176.9C96.9 173.367 96.2 170.367 94.8 167.9C93.4 165.433 91.4333 163.567 88.9 162.3C86.4333 161.033 83.5333 160.4 80.2 160.4H70.3V193.6ZM150.917 168H182.117V185H150.917V168ZM152.517 194.2H187.517V212H129.317V142H186.217V159.8H152.517V194.2ZM196.602 212V142H216.002L244.002 187.7H233.802L261.002 142H280.402L280.602 212H259.102L258.902 174.4H262.302L243.702 205.7H233.302L213.902 174.4H218.102V212H196.602ZM328.713 213.6C323.046 213.6 317.779 212.7 312.913 210.9C308.113 209.1 303.946 206.567 300.413 203.3C296.879 199.967 294.113 196.067 292.113 191.6C290.179 187.133 289.213 182.267 289.213 177C289.213 171.667 290.179 166.8 292.113 162.4C294.113 157.933 296.879 154.067 300.413 150.8C303.946 147.467 308.113 144.9 312.913 143.1C317.779 141.3 323.046 140.4 328.713 140.4C334.446 140.4 339.713 141.3 344.513 143.1C349.313 144.9 353.479 147.467 357.013 150.8C360.546 154.067 363.279 157.933 365.213 162.4C367.213 166.8 368.213 171.667 368.213 177C368.213 182.267 367.213 187.133 365.213 191.6C363.279 196.067 360.546 199.967 357.013 203.3C353.479 206.567 349.313 209.1 344.513 210.9C339.713 212.7 334.446 213.6 328.713 213.6ZM328.713 194.5C330.913 194.5 332.946 194.1 334.813 193.3C336.746 192.5 338.413 191.367 339.813 189.9C341.279 188.367 342.413 186.533 343.213 184.4C344.013 182.2 344.413 179.733 344.413 177C344.413 174.267 344.013 171.833 343.213 169.7C342.413 167.5 341.279 165.667 339.813 164.2C338.413 162.667 336.746 161.5 334.813 160.7C332.946 159.9 330.913 159.5 328.713 159.5C326.513 159.5 324.446 159.9 322.513 160.7C320.646 161.5 318.979 162.667 317.513 164.2C316.113 165.667 315.013 167.5 314.213 169.7C313.413 171.833 313.013 174.267 313.013 177C313.013 179.733 313.413 182.2 314.213 184.4C315.013 186.533 316.113 188.367 317.513 189.9C318.979 191.367 320.646 192.5 322.513 193.3C324.446 194.1 326.513 194.5 328.713 194.5ZM413.078 213.6C407.411 213.6 402.178 212.733 397.378 211C392.645 209.2 388.511 206.667 384.978 203.4C381.511 200.133 378.811 196.267 376.878 191.8C374.945 187.333 373.978 182.4 373.978 177C373.978 171.6 374.945 166.667 376.878 162.2C378.811 157.733 381.545 153.867 385.078 150.6C388.611 147.333 392.778 144.833 397.578 143.1C402.445 141.3 407.778 140.4 413.578 140.4C420.511 140.4 426.678 141.567 432.078 143.9C437.545 146.233 442.045 149.567 445.578 153.9L430.478 167.2C428.278 164.667 425.878 162.767 423.278 161.5C420.745 160.167 417.911 159.5 414.778 159.5C412.178 159.5 409.811 159.9 407.678 160.7C405.611 161.5 403.845 162.667 402.378 164.2C400.911 165.733 399.778 167.567 398.978 169.7C398.178 171.833 397.778 174.267 397.778 177C397.778 179.6 398.178 182 398.978 184.2C399.778 186.333 400.911 188.167 402.378 189.7C403.845 191.233 405.578 192.433 407.578 193.3C409.645 194.1 411.945 194.5 414.478 194.5C417.145 194.5 419.745 194.067 422.278 193.2C424.811 192.267 427.511 190.7 430.378 188.5L443.578 204.7C439.311 207.567 434.445 209.767 428.978 211.3C423.511 212.833 418.211 213.6 413.078 213.6ZM423.078 201.7V175.1H443.578V204.7L423.078 201.7ZM453.634 212V142H487.334C493.867 142 499.5 143.067 504.234 145.2C509.034 147.333 512.734 150.4 515.334 154.4C517.934 158.333 519.234 163 519.234 168.4C519.234 173.8 517.934 178.467 515.334 182.4C512.734 186.267 509.034 189.233 504.234 191.3C499.5 193.367 493.867 194.4 487.334 194.4H466.734L477.234 184.7V212H453.634ZM495.534 212L478.334 186.5H503.334L520.734 212H495.534ZM477.234 187.3L466.734 176.6H485.834C489.1 176.6 491.5 175.867 493.034 174.4C494.634 172.933 495.434 170.933 495.434 168.4C495.434 165.867 494.634 163.867 493.034 162.4C491.5 160.933 489.1 160.2 485.834 160.2H466.734L477.234 149.5V187.3ZM520.545 212L551.145 142H574.345L604.945 212H580.545L557.945 153.2H567.145L544.545 212H520.545ZM538.745 199.8L544.745 182.8H576.945L582.945 199.8H538.745ZM608.712 212V142H642.412C648.945 142 654.578 143.067 659.312 145.2C664.112 147.333 667.812 150.4 670.412 154.4C673.012 158.333 674.312 163 674.312 168.4C674.312 173.8 673.012 178.467 670.412 182.4C667.812 186.333 664.112 189.4 659.312 191.6C654.578 193.733 648.945 194.8 642.412 194.8H621.812L632.312 184.7V212H608.712ZM632.312 187.3L621.812 176.6H640.912C644.178 176.6 646.578 175.867 648.112 174.4C649.712 172.933 650.512 170.933 650.512 168.4C650.512 165.867 649.712 163.867 648.112 162.4C646.578 160.933 644.178 160.2 640.912 160.2H621.812L632.312 149.5V187.3ZM727.452 142H751.052V212H727.452V142ZM705.652 212H682.052V142H705.652V212ZM729.052 186.2H704.052V166.8H729.052V186.2ZM762.423 212V142H786.023V212H762.423ZM833.584 213.6C827.984 213.6 822.784 212.733 817.984 211C813.25 209.2 809.117 206.667 805.584 203.4C802.117 200.133 799.417 196.267 797.484 191.8C795.55 187.333 794.584 182.4 794.584 177C794.584 171.6 795.55 166.667 797.484 162.2C799.417 157.733 802.117 153.867 805.584 150.6C809.117 147.333 813.25 144.833 817.984 143.1C822.784 141.3 827.984 140.4 833.584 140.4C840.45 140.4 846.517 141.6 851.784 144C857.117 146.4 861.517 149.867 864.984 154.4L850.084 167.7C848.017 165.1 845.717 163.1 843.184 161.7C840.717 160.233 837.917 159.5 834.784 159.5C832.317 159.5 830.084 159.9 828.084 160.7C826.084 161.5 824.35 162.667 822.884 164.2C821.484 165.733 820.384 167.6 819.584 169.8C818.784 171.933 818.384 174.333 818.384 177C818.384 179.667 818.784 182.1 819.584 184.3C820.384 186.433 821.484 188.267 822.884 189.8C824.35 191.333 826.084 192.5 828.084 193.3C830.084 194.1 832.317 194.5 834.784 194.5C837.917 194.5 840.717 193.8 843.184 192.4C845.717 190.933 848.017 188.9 850.084 186.3L864.984 199.6C861.517 204.067 857.117 207.533 851.784 210C846.517 212.4 840.45 213.6 833.584 213.6ZM896.921 213.6C891.054 213.6 885.388 212.933 879.921 211.6C874.454 210.267 869.954 208.533 866.421 206.4L874.021 189.2C877.354 191.133 881.054 192.7 885.121 193.9C889.254 195.033 893.254 195.6 897.121 195.6C899.388 195.6 901.154 195.467 902.421 195.2C903.754 194.867 904.721 194.433 905.321 193.9C905.921 193.3 906.221 192.6 906.221 191.8C906.221 190.533 905.521 189.533 904.121 188.8C902.721 188.067 900.854 187.467 898.521 187C896.254 186.467 893.754 185.933 891.021 185.4C888.288 184.8 885.521 184.033 882.721 183.1C879.988 182.167 877.454 180.933 875.121 179.4C872.854 177.867 871.021 175.867 869.621 173.4C868.221 170.867 867.521 167.733 867.521 164C867.521 159.667 868.721 155.733 871.121 152.2C873.588 148.6 877.221 145.733 882.021 143.6C886.888 141.467 892.921 140.4 900.121 140.4C904.854 140.4 909.521 140.9 914.121 141.9C918.721 142.9 922.854 144.433 926.521 146.5L919.421 163.6C915.954 161.867 912.588 160.567 909.321 159.7C906.121 158.833 902.988 158.4 899.921 158.4C897.654 158.4 895.854 158.6 894.521 159C893.188 159.4 892.221 159.933 891.621 160.6C891.088 161.267 890.821 162 890.821 162.8C890.821 164 891.521 164.967 892.921 165.7C894.321 166.367 896.154 166.933 898.421 167.4C900.754 167.867 903.288 168.367 906.021 168.9C908.821 169.433 911.588 170.167 914.321 171.1C917.054 172.033 919.554 173.267 921.821 174.8C924.154 176.333 926.021 178.333 927.421 180.8C928.821 183.267 929.521 186.333 929.521 190C929.521 194.267 928.288 198.2 925.821 201.8C923.421 205.333 919.821 208.2 915.021 210.4C910.221 212.533 904.188 213.6 896.921 213.6Z" fill="#46C7C0"/>
<path opacity="0.8" d="M46.7 217V147H81.2C89 147 95.8667 148.433 101.8 151.3C107.733 154.1 112.367 158.1 115.7 163.3C119.033 168.5 120.7 174.7 120.7 181.9C120.7 189.167 119.033 195.433 115.7 200.7C112.367 205.9 107.733 209.933 101.8 212.8C95.8667 215.6 89 217 81.2 217H46.7ZM70.3 198.6H80.2C83.5333 198.6 86.4333 197.967 88.9 196.7C91.4333 195.433 93.4 193.567 94.8 191.1C96.2 188.567 96.9 185.5 96.9 181.9C96.9 178.367 96.2 175.367 94.8 172.9C93.4 170.433 91.4333 168.567 88.9 167.3C86.4333 166.033 83.5333 165.4 80.2 165.4H70.3V198.6ZM150.917 173H182.117V190H150.917V173ZM152.517 199.2H187.517V217H129.317V147H186.217V164.8H152.517V199.2ZM196.602 217V147H216.002L244.002 192.7H233.802L261.002 147H280.402L280.602 217H259.102L258.902 179.4H262.302L243.702 210.7H233.302L213.902 179.4H218.102V217H196.602ZM328.713 218.6C323.046 218.6 317.779 217.7 312.913 215.9C308.113 214.1 303.946 211.567 300.413 208.3C296.879 204.967 294.113 201.067 292.113 196.6C290.179 192.133 289.213 187.267 289.213 182C289.213 176.667 290.179 171.8 292.113 167.4C294.113 162.933 296.879 159.067 300.413 155.8C303.946 152.467 308.113 149.9 312.913 148.1C317.779 146.3 323.046 145.4 328.713 145.4C334.446 145.4 339.713 146.3 344.513 148.1C349.313 149.9 353.479 152.467 357.013 155.8C360.546 159.067 363.279 162.933 365.213 167.4C367.213 171.8 368.213 176.667 368.213 182C368.213 187.267 367.213 192.133 365.213 196.6C363.279 201.067 360.546 204.967 357.013 208.3C353.479 211.567 349.313 214.1 344.513 215.9C339.713 217.7 334.446 218.6 328.713 218.6ZM328.713 199.5C330.913 199.5 332.946 199.1 334.813 198.3C336.746 197.5 338.413 196.367 339.813 194.9C341.279 193.367 342.413 191.533 343.213 189.4C344.013 187.2 344.413 184.733 344.413 182C344.413 179.267 344.013 176.833 343.213 174.7C342.413 172.5 341.279 170.667 339.813 169.2C338.413 167.667 336.746 166.5 334.813 165.7C332.946 164.9 330.913 164.5 328.713 164.5C326.513 164.5 324.446 164.9 322.513 165.7C320.646 166.5 318.979 167.667 317.513 169.2C316.113 170.667 315.013 172.5 314.213 174.7C313.413 176.833 313.013 179.267 313.013 182C313.013 184.733 313.413 187.2 314.213 189.4C315.013 191.533 316.113 193.367 317.513 194.9C318.979 196.367 320.646 197.5 322.513 198.3C324.446 199.1 326.513 199.5 328.713 199.5ZM413.078 218.6C407.411 218.6 402.178 217.733 397.378 216C392.645 214.2 388.511 211.667 384.978 208.4C381.511 205.133 378.811 201.267 376.878 196.8C374.945 192.333 373.978 187.4 373.978 182C373.978 176.6 374.945 171.667 376.878 167.2C378.811 162.733 381.545 158.867 385.078 155.6C388.611 152.333 392.778 149.833 397.578 148.1C402.445 146.3 407.778 145.4 413.578 145.4C420.511 145.4 426.678 146.567 432.078 148.9C437.545 151.233 442.045 154.567 445.578 158.9L430.478 172.2C428.278 169.667 425.878 167.767 423.278 166.5C420.745 165.167 417.911 164.5 414.778 164.5C412.178 164.5 409.811 164.9 407.678 165.7C405.611 166.5 403.845 167.667 402.378 169.2C400.911 170.733 399.778 172.567 398.978 174.7C398.178 176.833 397.778 179.267 397.778 182C397.778 184.6 398.178 187 398.978 189.2C399.778 191.333 400.911 193.167 402.378 194.7C403.845 196.233 405.578 197.433 407.578 198.3C409.645 199.1 411.945 199.5 414.478 199.5C417.145 199.5 419.745 199.067 422.278 198.2C424.811 197.267 427.511 195.7 430.378 193.5L443.578 209.7C439.311 212.567 434.445 214.767 428.978 216.3C423.511 217.833 418.211 218.6 413.078 218.6ZM423.078 206.7V180.1H443.578V209.7L423.078 206.7ZM453.634 217V147H487.334C493.867 147 499.5 148.067 504.234 150.2C509.034 152.333 512.734 155.4 515.334 159.4C517.934 163.333 519.234 168 519.234 173.4C519.234 178.8 517.934 183.467 515.334 187.4C512.734 191.267 509.034 194.233 504.234 196.3C499.5 198.367 493.867 199.4 487.334 199.4H466.734L477.234 189.7V217H453.634ZM495.534 217L478.334 191.5H503.334L520.734 217H495.534ZM477.234 192.3L466.734 181.6H485.834C489.1 181.6 491.5 180.867 493.034 179.4C494.634 177.933 495.434 175.933 495.434 173.4C495.434 170.867 494.634 168.867 493.034 167.4C491.5 165.933 489.1 165.2 485.834 165.2H466.734L477.234 154.5V192.3ZM520.545 217L551.145 147H574.345L604.945 217H580.545L557.945 158.2H567.145L544.545 217H520.545ZM538.745 204.8L544.745 187.8H576.945L582.945 204.8H538.745ZM608.712 217V147H642.412C648.945 147 654.578 148.067 659.312 150.2C664.112 152.333 667.812 155.4 670.412 159.4C673.012 163.333 674.312 168 674.312 173.4C674.312 178.8 673.012 183.467 670.412 187.4C667.812 191.333 664.112 194.4 659.312 196.6C654.578 198.733 648.945 199.8 642.412 199.8H621.812L632.312 189.7V217H608.712ZM632.312 192.3L621.812 181.6H640.912C644.178 181.6 646.578 180.867 648.112 179.4C649.712 177.933 650.512 175.933 650.512 173.4C650.512 170.867 649.712 168.867 648.112 167.4C646.578 165.933 644.178 165.2 640.912 165.2H621.812L632.312 154.5V192.3ZM727.452 147H751.052V217H727.452V147ZM705.652 217H682.052V147H705.652V217ZM729.052 191.2H704.052V171.8H729.052V191.2ZM762.423 217V147H786.023V217H762.423ZM833.584 218.6C827.984 218.6 822.784 217.733 817.984 216C813.25 214.2 809.117 211.667 805.584 208.4C802.117 205.133 799.417 201.267 797.484 196.8C795.55 192.333 794.584 187.4 794.584 182C794.584 176.6 795.55 171.667 797.484 167.2C799.417 162.733 802.117 158.867 805.584 155.6C809.117 152.333 813.25 149.833 817.984 148.1C822.784 146.3 827.984 145.4 833.584 145.4C840.45 145.4 846.517 146.6 851.784 149C857.117 151.4 861.517 154.867 864.984 159.4L850.084 172.7C848.017 170.1 845.717 168.1 843.184 166.7C840.717 165.233 837.917 164.5 834.784 164.5C832.317 164.5 830.084 164.9 828.084 165.7C826.084 166.5 824.35 167.667 822.884 169.2C821.484 170.733 820.384 172.6 819.584 174.8C818.784 176.933 818.384 179.333 818.384 182C818.384 184.667 818.784 187.1 819.584 189.3C820.384 191.433 821.484 193.267 822.884 194.8C824.35 196.333 826.084 197.5 828.084 198.3C830.084 199.1 832.317 199.5 834.784 199.5C837.917 199.5 840.717 198.8 843.184 197.4C845.717 195.933 848.017 193.9 850.084 191.3L864.984 204.6C861.517 209.067 857.117 212.533 851.784 215C846.517 217.4 840.45 218.6 833.584 218.6ZM896.921 218.6C891.054 218.6 885.388 217.933 879.921 216.6C874.454 215.267 869.954 213.533 866.421 211.4L874.021 194.2C877.354 196.133 881.054 197.7 885.121 198.9C889.254 200.033 893.254 200.6 897.121 200.6C899.388 200.6 901.154 200.467 902.421 200.2C903.754 199.867 904.721 199.433 905.321 198.9C905.921 198.3 906.221 197.6 906.221 196.8C906.221 195.533 905.521 194.533 904.121 193.8C902.721 193.067 900.854 192.467 898.521 192C896.254 191.467 893.754 190.933 891.021 190.4C888.288 189.8 885.521 189.033 882.721 188.1C879.988 187.167 877.454 185.933 875.121 184.4C872.854 182.867 871.021 180.867 869.621 178.4C868.221 175.867 867.521 172.733 867.521 169C867.521 164.667 868.721 160.733 871.121 157.2C873.588 153.6 877.221 150.733 882.021 148.6C886.888 146.467 892.921 145.4 900.121 145.4C904.854 145.4 909.521 145.9 914.121 146.9C918.721 147.9 922.854 149.433 926.521 151.5L919.421 168.6C915.954 166.867 912.588 165.567 909.321 164.7C906.121 163.833 902.988 163.4 899.921 163.4C897.654 163.4 895.854 163.6 894.521 164C893.188 164.4 892.221 164.933 891.621 165.6C891.088 166.267 890.821 167 890.821 167.8C890.821 169 891.521 169.967 892.921 170.7C894.321 171.367 896.154 171.933 898.421 172.4C900.754 172.867 903.288 173.367 906.021 173.9C908.821 174.433 911.588 175.167 914.321 176.1C917.054 177.033 919.554 178.267 921.821 179.8C924.154 181.333 926.021 183.333 927.421 185.8C928.821 188.267 929.521 191.333 929.521 195C929.521 199.267 928.288 203.2 925.821 206.8C923.421 210.333 919.821 213.2 915.021 215.4C910.221 217.533 904.188 218.6 896.921 218.6Z" fill="#B6F7F3"/>
<path d="M834.828 38.033L841.302 35.8135L842.227 40.2526L838.712 41.7323L834.828 38.033Z" fill="#497A76"/>
<path d="M841.305 35.8137L845.004 34.334L844.079 39.5129L842.229 40.2528L841.305 35.8137Z" fill="#75A4A2"/>
<path d="M881.011 143.33L874.589 149.805L869.166 129.31L869.12 129.137L869.005 129L861.774 120.439L861.757 111.588L861.756 111.541L861.751 111.495L860.997 105.15L860.991 105.1L860.978 105.052L859.903 100.746L860.967 95.5149L860.994 95.3796L860.975 95.243L860.6 92.6305L860.566 92.3953L860.409 92.217L858.927 90.5352L858.853 90.4519L858.76 90.3918L857.039 89.2856L856.518 84.8107L855.843 78.6425L860.466 77.7772L863.714 83.7912L864.68 85.7339L863.672 88.9713L863.654 89.0291L863.644 89.0889L863.278 91.5133L863.253 91.6772L863.296 91.8374L864.041 94.6373L864.091 94.8239L864.22 94.9671L867.976 99.1129L869.237 104.512L869.239 104.521L869.242 104.531L870.547 109.57L870.582 109.706L870.661 109.822L875.539 116.915L875.926 129.182L875.93 129.309L875.974 129.429L881.011 143.33Z" fill="#396D6F" stroke="#396260" stroke-width="1.59285"/>
<path d="M851.026 79.5277L856.946 78.4244L860.51 85.1117L861.637 87.4038L860.548 91.0139L860.192 93.4862L860.952 96.347L864.87 100.752L866.205 106.472L867.535 111.622L872.584 119.08L873.036 131.839L878.317 146.533L870.589 154.478L864.703 132.164L857.237 123.167L857.176 113.838L856.392 107.359L855.251 102.782L856.327 97.2683L855.939 94.6005L854.448 92.8773L852.402 91.5311L851.814 86.5772L851.026 79.5277Z" fill="#326A67"/>
<path d="M878.11 146.217L871.679 152.648L866.299 132.345L866.247 132.149L866.108 132.001L859.647 125.181L858.926 114.738L858.925 114.719L858.922 114.7L858.181 108.411L858.175 108.36L858.162 108.311L857.097 104.048L858.17 98.8621L858.21 98.6664L858.153 98.4747L856.675 93.4808L856.595 93.2104L856.363 93.0506L853.717 91.2317L853.376 86.8055L853.054 82.1517L857.706 81.2792L860.939 87.2318L861.895 89.1442L860.89 92.1603L860.826 92.3502L860.86 92.5475L861.785 97.9114L861.819 98.1089L861.943 98.2668L865.162 102.382L866.419 107.76L866.438 107.845L866.476 107.924L868.696 112.548L868.703 112.564L868.712 112.58L872.692 119.998L873.057 132.203L873.061 132.331L873.104 132.451L878.11 146.217Z" fill="#86B3B5" stroke="#9BCDCB" stroke-width="1.59285"/>
<path d="M855.241 65.7777L864.18 62.2634L869.793 59.119L871.248 58.1942L872.288 57.2694L873.12 56.1596L873.743 55.0499L874.159 53.7551L874.367 53.0153L874.575 51.9055L874.783 50.7957L874.991 49.501V48.7612V48.0213L874.783 44.877L877.901 49.316L879.148 51.7205L879.772 54.31V57.4544L879.356 60.5987L878.109 63.0032L876.446 64.8529L854.617 78.1701L855.241 65.7777Z" fill="#3C6162"/>
<path d="M846.335 68.1422L836.83 69.5258L830.397 69.5804L828.674 69.4994L827.313 69.2121L826.04 68.6611L824.948 68.0069L823.945 67.089L823.398 66.5498L822.666 65.6893L821.935 64.8289L821.113 63.8079L820.745 63.1655L820.378 62.5231L818.999 59.6899L818.494 65.0912L818.604 67.7978L819.347 70.3555L820.907 73.0856L822.828 75.6095L825.104 77.0784L827.465 77.8592L853.025 78.5926L846.335 68.1422Z" fill="#3C6162"/>
<path d="M877.006 65.1877L859 77.5347L859.461 67.2314L866.963 63.9167L867.016 63.8932L867.065 63.8622L872.059 60.7178L872.079 60.7054L872.098 60.6919L873.393 59.7671L873.446 59.7288L873.493 59.6822L874.418 58.7574L874.474 58.7016L874.517 58.636L875.257 57.5262L875.285 57.485L875.307 57.4406L875.862 56.3308L875.895 56.2646L875.915 56.1935L876.285 54.8987L876.289 54.886L876.292 54.8731L876.477 54.1333L876.485 54.1024L876.49 54.071L876.675 52.9613L876.86 51.8515L876.861 51.8423L876.863 51.8332L877.048 50.5384L877.056 50.4824V50.4258V49.686V49.195L878.162 50.6532L879.198 52.8988L879.717 55.3192V58.3325L879.367 61.3047L878.351 63.5062L877.006 65.1877Z" fill="#B7D6D6" stroke="#84BCB9" stroke-width="1.59285"/>
<path d="M828.233 79.071L849.833 79.6239L844.073 71.2712L835.981 72.5551L835.923 72.5642L835.865 72.5649L829.964 72.6328L829.941 72.633L829.918 72.632L828.328 72.5575L828.262 72.5544L828.198 72.5405L826.919 72.2654L826.842 72.2488L826.77 72.2174L825.546 71.6865L825.501 71.6667L825.458 71.6415L824.39 71.0103L824.326 70.9726L824.271 70.9239L823.257 70.0369L823.247 70.0282L823.238 70.0191L822.681 69.4979L822.658 69.4762L822.636 69.4527L821.879 68.6208L821.121 67.7888L821.115 67.782L821.109 67.775L820.251 66.7877L820.214 66.745L820.184 66.6974L819.782 66.0759L819.381 65.4544L819.373 65.4429L819.373 67.4585L819.725 69.9372L820.603 72.2519L822.237 74.7832L824.144 77.0903L826.192 78.3885L828.233 79.071Z" fill="#B7D6D6" stroke="#84BCB9" stroke-width="1.59285"/>
<path d="M865.341 71.5118L858.028 75.1624L856.817 70.1716L863.083 68.1225L865.157 67.2577L866.266 66.7028L867.006 66.1479L867.931 65.408L868.301 65.0381L869.48 63.6034L869.596 64.6682L869.596 65.593L869.411 66.5178L869.041 67.4426L868.486 68.5524L867.931 69.4772L865.341 71.5118Z" fill="#304746"/>
<path d="M840.251 78.077L849.599 77.2761L848.007 72.381L840.603 73.9856L838.048 74.3574L836.629 74.4782L835.579 74.4012L834.241 74.2657L833.664 74.1485L831.683 73.5574L832.165 74.5256L832.684 75.3127L833.387 76.001L834.276 76.5904L835.452 77.2385L836.525 77.7291L840.251 78.077Z" fill="#304746"/>
<path d="M860.419 71.8052L861.259 71.0452L860.181 70.6976L860.419 71.8052Z" fill="#84BCB9"/>
<path d="M860.411 71.8037L861.252 71.0453L861.488 72.1533L860.411 71.8037Z" fill="#84BCB9"/>
<path d="M861.006 69.9379L861.242 71.0458L862.084 70.2875L861.006 69.9379Z" fill="#84BCB9"/>
<path d="M861.494 72.1499L861.251 71.0435L862.33 71.386L861.494 72.1499Z" fill="#84BCB9"/>
<path d="M862.327 71.3929L861.249 71.0453L862.089 70.2853L862.327 71.3929Z" fill="#84BCB9"/>
<path d="M860.18 70.7032L861.259 71.0458L861.016 69.9394L860.18 70.7032Z" fill="#84BCB9"/>
<path d="M860.668 71.5914L861.243 71.0714L860.505 70.8336L860.668 71.5914Z" fill="#A8D6D7"/>
<path d="M860.657 71.5897L861.233 71.0708L861.394 71.8289L860.657 71.5897Z" fill="#A8D6D7"/>
<path d="M861.066 70.3133L861.227 71.0714L861.803 70.5525L861.066 70.3133Z" fill="#A8D6D7"/>
<path d="M861.402 71.8285L861.235 71.0715L861.974 71.3059L861.402 71.8285Z" fill="#A8D6D7"/>
<path d="M861.973 71.309L861.235 71.0712L861.81 70.5512L861.973 71.309Z" fill="#A8D6D7"/>
<path d="M860.502 70.8375L861.241 71.0718L861.075 70.3148L860.502 70.8375Z" fill="#A8D6D7"/>
<path d="M863.63 70.2617L864.206 69.7404L863.467 69.502L863.63 70.2617Z" fill="#84BCB9"/>
<path d="M863.617 70.2614L864.195 69.7412L864.357 70.5012L863.617 70.2614Z" fill="#84BCB9"/>
<path d="M864.042 68.981L864.204 69.741L864.781 69.2208L864.042 68.981Z" fill="#84BCB9"/>
<path d="M864.361 70.5001L864.195 69.7412L864.935 69.9761L864.361 70.5001Z" fill="#84BCB9"/>
<path d="M864.933 69.9787L864.193 69.7403L864.77 69.219L864.933 69.9787Z" fill="#84BCB9"/>
<path d="M863.456 69.5055L864.196 69.7405L864.03 68.9816L863.456 69.5055Z" fill="#84BCB9"/>
<path d="M863.8 70.1176L864.194 69.7609L863.688 69.5978L863.8 70.1176Z" fill="#A8D6D7"/>
<path d="M863.811 70.1168L864.206 69.7609L864.317 70.2808L863.811 70.1168Z" fill="#A8D6D7"/>
<path d="M864.084 69.2406L864.195 69.7606L864.59 69.4047L864.084 69.2406Z" fill="#A8D6D7"/>
<path d="M864.309 70.2793L864.195 69.76L864.702 69.9208L864.309 70.2793Z" fill="#A8D6D7"/>
<path d="M864.702 69.9237L864.196 69.7606L864.59 69.4039L864.702 69.9237Z" fill="#A8D6D7"/>
<path d="M863.699 69.6006L864.205 69.7613L864.091 69.2421L863.699 69.6006Z" fill="#A8D6D7"/>
<path d="M865.949 68.969L866.375 68.5835L865.828 68.4073L865.949 68.969Z" fill="#84BCB9"/>
<path d="M865.947 68.9695L866.373 68.5849L866.493 69.1468L865.947 68.9695Z" fill="#84BCB9"/>
<path d="M866.254 68.0228L866.373 68.5847L866.8 68.2001L866.254 68.0228Z" fill="#84BCB9"/>
<path d="M866.496 69.1458L866.373 68.5847L866.921 68.7584L866.496 69.1458Z" fill="#84BCB9"/>
<path d="M866.918 68.7606L866.371 68.5843L866.797 68.1989L866.918 68.7606Z" fill="#84BCB9"/>
<path d="M865.837 68.4118L866.384 68.5856L866.261 68.0245L865.837 68.4118Z" fill="#84BCB9"/>
<path d="M866.083 68.8644L866.373 68.6013L866 68.481L866.083 68.8644Z" fill="#A8D6D7"/>
<path d="M866.086 68.8635L866.377 68.601L866.459 68.9845L866.086 68.8635Z" fill="#A8D6D7"/>
<path d="M866.301 68.2141L866.382 68.5976L866.674 68.3351L866.301 68.2141Z" fill="#A8D6D7"/>
<path d="M866.464 68.9852L866.38 68.6022L866.753 68.7208L866.464 68.9852Z" fill="#A8D6D7"/>
<path d="M866.754 68.7202L866.381 68.5999L866.672 68.3369L866.754 68.7202Z" fill="#A8D6D7"/>
<path d="M865.994 68.4799L866.368 68.5985L866.284 68.2155L865.994 68.4799Z" fill="#A8D6D7"/>
<path d="M845.715 75.832L844.613 75.5703L845.391 74.7466L845.715 75.832Z" fill="#84BCB9"/>
<path d="M845.71 75.8298L844.607 75.5701L844.934 76.6549L845.71 75.8298Z" fill="#84BCB9"/>
<path d="M844.277 74.4878L844.604 75.5726L843.501 75.3129L844.277 74.4878Z" fill="#84BCB9"/>
<path d="M844.92 76.6574L844.601 75.5705L843.819 76.3906L844.92 76.6574Z" fill="#84BCB9"/>
<path d="M843.824 76.3943L844.602 75.5706L843.499 75.3089L843.824 76.3943Z" fill="#84BCB9"/>
<path d="M845.388 74.7506L844.606 75.5706L844.287 74.4837L845.388 74.7506Z" fill="#84BCB9"/>
<path d="M845.38 75.7795L844.626 75.6004L845.158 75.0368L845.38 75.7795Z" fill="#A8D6D7"/>
<path d="M845.371 75.7775L844.617 75.5999L844.84 76.3421L845.371 75.7775Z" fill="#A8D6D7"/>
<path d="M844.397 74.8574L844.62 75.5997L843.865 75.422L844.397 74.8574Z" fill="#A8D6D7"/>
<path d="M844.848 76.344L844.629 75.6004L844.095 76.1615L844.848 76.344Z" fill="#A8D6D7"/>
<path d="M844.092 76.1639L844.624 75.6004L843.87 75.4213L844.092 76.1639Z" fill="#A8D6D7"/>
<path d="M845.157 75.0397L844.623 75.6008L844.404 74.8571L845.157 75.0397Z" fill="#A8D6D7"/>
<path d="M842.153 76.0293L841.397 75.8498L841.93 75.2848L842.153 76.0293Z" fill="#84BCB9"/>
<path d="M842.152 76.0265L841.396 75.8484L841.62 76.5924L842.152 76.0265Z" fill="#84BCB9"/>
<path d="M841.171 75.1057L841.395 75.8498L840.639 75.6717L841.171 75.1057Z" fill="#84BCB9"/>
<path d="M841.622 76.5942L841.403 75.8487L840.867 76.4112L841.622 76.5942Z" fill="#84BCB9"/>
<path d="M840.866 76.4132L841.4 75.8482L840.644 75.6687L840.866 76.4132Z" fill="#84BCB9"/>
<path d="M841.931 75.2859L841.395 75.8484L841.176 75.1029L841.931 75.2859Z" fill="#84BCB9"/>
<path d="M841.914 75.9908L841.397 75.8679L841.762 75.4814L841.914 75.9908Z" fill="#A8D6D7"/>
<path d="M841.919 75.9903L841.402 75.8684L841.555 76.3775L841.919 75.9903Z" fill="#A8D6D7"/>
<path d="M841.244 75.3584L841.397 75.8675L840.88 75.7457L841.244 75.3584Z" fill="#A8D6D7"/>
<path d="M841.548 76.3784L841.398 75.8683L841.031 76.2532L841.548 76.3784Z" fill="#A8D6D7"/>
<path d="M841.033 76.2535L841.398 75.867L840.881 75.7442L841.033 76.2535Z" fill="#A8D6D7"/>
<path d="M841.758 75.483L841.392 75.8678L841.242 75.3577L841.758 75.483Z" fill="#A8D6D7"/>
<path d="M838.338 43.5301C838.032 42.7325 838.409 41.8352 839.194 41.4965L844.524 39.1949C845.309 38.8559 846.221 39.1973 846.591 39.9683L847.659 42.195C847.952 42.8045 847.828 43.5322 847.35 44.0103L846.891 44.4693C846.744 44.6164 846.569 44.7333 846.377 44.8133L844.448 45.6169L841.89 46.6403C841.747 46.6976 841.596 46.7338 841.442 46.7477L840.837 46.8028C840.127 46.8673 839.461 46.4528 839.206 45.7878L838.338 43.5301Z" fill="#555555"/>
<path d="M839.507 76.0185L838.948 75.8858L839.342 75.4681L839.507 76.0185Z" fill="#84BCB9"/>
<path d="M839.498 76.0164L838.939 75.8847L839.105 76.4348L839.498 76.0164Z" fill="#84BCB9"/>
<path d="M838.776 75.3358L838.942 75.8859L838.382 75.7542L838.776 75.3358Z" fill="#84BCB9"/>
<path d="M839.104 76.4366L838.942 75.8854L838.545 76.3013L839.104 76.4366Z" fill="#84BCB9"/>
<path d="M838.549 76.3032L838.944 75.8855L838.385 75.7527L838.549 76.3032Z" fill="#84BCB9"/>
<path d="M839.344 75.4696L838.947 75.8855L838.785 75.3343L839.344 75.4696Z" fill="#84BCB9"/>
<path d="M839.329 75.9908L838.947 75.9002L839.217 75.6151L839.329 75.9908Z" fill="#A8D6D7"/>
<path d="M839.333 75.9902L838.951 75.9004L839.064 76.2759L839.333 75.9902Z" fill="#A8D6D7"/>
<path d="M838.838 75.5245L838.951 75.9001L838.569 75.8102L838.838 75.5245Z" fill="#A8D6D7"/>
<path d="M839.055 76.2785L838.944 75.9023L838.674 76.1861L839.055 76.2785Z" fill="#A8D6D7"/>
<path d="M838.666 76.1861L838.935 75.901L838.553 75.8104L838.666 76.1861Z" fill="#A8D6D7"/>
<path d="M839.22 75.6147L838.95 75.8986L838.839 75.5223L839.22 75.6147Z" fill="#A8D6D7"/>
<path d="M841.674 46.7266L846.67 44.6922L849.442 49.686L851.847 54.6801L853.881 59.6741L855.731 65.5928L847.777 68.3673L845.004 62.4489L843.708 57.6399L842.413 52.0905L841.674 46.7266Z" fill="#253333"/>
<path d="M842.547 46.4194L845.932 45.0623L848.263 50.0589L850.441 55.128L852.36 60.1601L854.244 66.0677L848.973 67.9531L846.446 61.9534L845.06 57.1741L843.6 51.6793L842.547 46.4194Z" fill="#303F3F"/>
<path d="M844.446 70.4023L849.626 61.5245L858.688 66.7032L857.95 90.1933L844.446 70.4023Z" fill="#4B7270"/>
<path d="M846.252 71.58L850.442 64.3965L857.775 68.5868L857.178 87.594L846.252 71.58Z" fill="#304746"/>
<path d="M851.942 73.8613L852.385 71.3271L849.969 72.2101L851.942 73.8613Z" fill="#84BCB9"/>
<path d="M851.941 73.8619L852.389 71.3286L854.359 72.9835L851.941 73.8619Z" fill="#84BCB9"/>
<path d="M850.421 69.6736L852.391 71.3284L852.839 68.7951L850.421 69.6736Z" fill="#84BCB9"/>
<path d="M854.365 72.9694L852.385 71.3274L854.797 70.4332L854.365 72.9694Z" fill="#84BCB9"/>
<path d="M854.799 70.4445L852.382 71.3276L852.826 68.7934L854.799 70.4445Z" fill="#84BCB9"/>
<path d="M849.979 72.2224L852.392 71.3282L850.411 69.6862L849.979 72.2224Z" fill="#84BCB9"/>
<path d="M852.126 73.1033L852.43 71.3694L850.777 71.9736L852.126 73.1033Z" fill="#A8D6D7"/>
<path d="M852.12 73.1021L852.427 71.3688L853.775 72.5011L852.12 73.1021Z" fill="#A8D6D7"/>
<path d="M851.081 70.2371L852.428 71.3693L852.735 69.636L851.081 70.2371Z" fill="#A8D6D7"/>
<path d="M853.774 72.4939L852.419 71.3704L854.069 70.7586L853.774 72.4939Z" fill="#A8D6D7"/>
<path d="M854.083 70.7657L852.429 71.3699L852.733 69.636L854.083 70.7657Z" fill="#A8D6D7"/>
<path d="M850.782 71.9836L852.433 71.3718L851.078 70.2483L850.782 71.9836Z" fill="#A8D6D7"/>
<path d="M863.197 122.897L866.649 122.746L864.792 119.832L863.197 122.897Z" fill="#68A4A1"/>
<path d="M863.19 122.893L866.642 122.748L865.041 125.811L863.19 122.893Z" fill="#68A4A1"/>
<path d="M868.257 119.688L866.656 122.75L870.108 122.606L868.257 119.688Z" fill="#68A4A1"/>
<path d="M865.068 125.822L866.649 122.749L868.52 125.654L865.068 125.822Z" fill="#68A4A1"/>
<path d="M868.507 125.661L866.65 122.747L870.102 122.595L868.507 125.661Z" fill="#68A4A1"/>
<path d="M864.767 119.842L866.638 122.748L868.218 119.675L864.767 119.842Z" fill="#68A4A1"/>
<path d="M864.204 122.904L866.567 122.83L865.321 120.821L864.204 122.904Z" fill="#8BCACC"/>
<path d="M864.21 122.904L866.573 122.834L865.452 124.916L864.21 122.904Z" fill="#8BCACC"/>
<path d="M867.69 120.749L866.569 122.831L868.932 122.761L867.69 120.749Z" fill="#8BCACC"/>
<path d="M865.471 124.92L866.578 122.832L867.833 124.835L865.471 124.92Z" fill="#8BCACC"/>
<path d="M867.808 124.842L866.562 122.832L868.925 122.758L867.808 124.842Z" fill="#8BCACC"/>
<path d="M865.306 120.83L866.561 122.834L867.668 120.745L865.306 120.83Z" fill="#8BCACC"/>
<path d="M862.544 116.448L864.216 116.262L863.219 114.907L862.544 116.448Z" fill="#68A4A1"/>
<path d="M862.548 116.446L864.22 116.263L863.542 117.803L862.548 116.446Z" fill="#68A4A1"/>
<path d="M864.886 114.725L864.208 116.265L865.881 116.082L864.886 114.725Z" fill="#68A4A1"/>
<path d="M863.553 117.806L864.221 116.262L865.225 117.612L863.553 117.806Z" fill="#68A4A1"/>
<path d="M865.222 117.617L864.225 116.262L865.897 116.076L865.222 117.617Z" fill="#68A4A1"/>
<path d="M863.216 114.913L864.22 116.263L864.887 114.719L863.216 114.913Z" fill="#68A4A1"/>
<path d="M863.05 116.435L864.194 116.307L863.512 115.38L863.05 116.435Z" fill="#8BCACC"/>
<path d="M863.049 116.433L864.193 116.308L863.73 117.361L863.049 116.433Z" fill="#8BCACC"/>
<path d="M864.66 115.252L864.196 116.305L865.34 116.18L864.66 115.252Z" fill="#8BCACC"/>
<path d="M863.744 117.364L864.201 116.308L864.888 117.231L863.744 117.364Z" fill="#8BCACC"/>
<path d="M864.871 117.234L864.188 116.307L865.332 116.179L864.871 117.234Z" fill="#8BCACC"/>
<path d="M863.502 115.384L864.188 116.308L864.645 115.252L863.502 115.384Z" fill="#8BCACC"/>
<path d="M861.637 111.293L862.717 111.173L862.073 110.298L861.637 111.293Z" fill="#68A4A1"/>
<path d="M861.635 111.291L862.715 111.173L862.277 112.167L861.635 111.291Z" fill="#68A4A1"/>
<path d="M863.15 110.181L862.713 111.175L863.792 111.057L863.15 110.181Z" fill="#68A4A1"/>
<path d="M862.282 112.172L862.713 111.175L863.361 112.046L862.282 112.172Z" fill="#68A4A1"/>
<path d="M863.361 112.048L862.718 111.173L863.797 111.053L863.361 112.048Z" fill="#68A4A1"/>
<path d="M862.071 110.302L862.719 111.174L863.15 110.177L862.071 110.302Z" fill="#68A4A1"/>
<path d="M861.981 111.281L862.719 111.199L862.279 110.6L861.981 111.281Z" fill="#8BCACC"/>
<path d="M861.978 111.281L862.716 111.2L862.417 111.88L861.978 111.281Z" fill="#8BCACC"/>
<path d="M863.011 110.518L862.712 111.198L863.45 111.118L863.011 110.518Z" fill="#8BCACC"/>
<path d="M862.424 111.882L862.719 111.2L863.162 111.797L862.424 111.882Z" fill="#8BCACC"/>
<path d="M863.16 111.798L862.719 111.2L863.458 111.118L863.16 111.798Z" fill="#8BCACC"/>
<path d="M862.275 110.605L862.718 111.201L863.013 110.519L862.275 110.605Z" fill="#8BCACC"/>
<path d="M867.411 129.349L868.49 129.229L867.846 128.354L867.411 129.349Z" fill="#68A4A1"/>
<path d="M867.409 129.347L868.488 129.229L868.051 130.223L867.409 129.347Z" fill="#68A4A1"/>
<path d="M868.924 128.237L868.486 129.231L869.566 129.113L868.924 128.237Z" fill="#68A4A1"/>
<path d="M868.056 130.227L868.487 129.23L869.134 130.102L868.056 130.227Z" fill="#68A4A1"/>
<path d="M869.135 130.104L868.491 129.229L869.57 129.109L869.135 130.104Z" fill="#68A4A1"/>
<path d="M867.845 128.358L868.493 129.229L868.924 128.233L867.845 128.358Z" fill="#68A4A1"/>
<path d="M867.746 129.339L868.485 129.256L868.045 128.658L867.746 129.339Z" fill="#8BCACC"/>
<path d="M867.743 129.338L868.482 129.257L868.182 129.937L867.743 129.338Z" fill="#8BCACC"/>
<path d="M868.777 128.575L868.477 129.255L869.216 129.174L868.777 128.575Z" fill="#8BCACC"/>
<path d="M868.189 129.939L868.484 129.257L868.928 129.853L868.189 129.939Z" fill="#8BCACC"/>
<path d="M868.925 129.854L868.485 129.256L869.223 129.173L868.925 129.854Z" fill="#8BCACC"/>
<path d="M868.041 128.66L868.484 129.257L868.779 128.575L868.041 128.66Z" fill="#8BCACC"/>
<path d="M855.313 79.2081L854.5 77.8009L853.688 79.2081L855.313 79.2081Z" fill="#84BCB9"/>
<path d="M855.296 79.2092L854.487 77.8005L856.111 77.8035L855.296 79.2092Z" fill="#84BCB9"/>
<path d="M852.866 77.7977L854.491 77.8008L853.681 76.3921L852.866 77.7977Z" fill="#84BCB9"/>
<path d="M856.113 77.7931L854.488 77.8006L855.294 76.3897L856.113 77.7931Z" fill="#84BCB9"/>
<path d="M855.313 76.3935L854.5 77.8006L853.688 76.3935L855.313 76.3935Z" fill="#84BCB9"/>
<path d="M853.688 79.2124L854.494 77.8015L852.869 77.8091L853.688 79.2124Z" fill="#84BCB9"/>
<path d="M855.094 78.7644L854.538 77.8017L853.983 78.7644L855.094 78.7644Z" fill="#A8D6D7"/>
<path d="M855.093 78.7654L854.538 77.8015L855.65 77.8036L855.093 78.7654Z" fill="#A8D6D7"/>
<path d="M853.421 77.7996L854.533 77.8017L853.979 76.8379L853.421 77.7996Z" fill="#A8D6D7"/>
<path d="M855.643 77.7966L854.531 77.8018L855.082 76.8364L855.643 77.7966Z" fill="#A8D6D7"/>
<path d="M855.094 76.8391L854.538 77.8019L853.983 76.8391L855.094 76.8391Z" fill="#A8D6D7"/>
<path d="M853.986 78.7675L854.537 77.8022L853.425 77.8073L853.986 78.7675Z" fill="#A8D6D7"/>
<path d="M835.938 24.5312L841.302 35.8139L834.828 38.0335L835.938 24.5312Z" fill="#558B87"/>
<path d="M835.938 24.5311L845.001 34.3341L841.301 35.8138L835.938 24.5311Z" fill="#84BCB9"/>
<path d="M814.274 17.9051L816.268 16.174L818.376 19.4781L816.199 18.6656L814.274 17.9051Z" fill="#B9DCD9"/>
<path d="M816.269 16.1737L817.378 15.1089L817.797 17.0949L818.377 19.4779L816.269 16.1737Z" fill="#CAEDEB"/>
<path d="M812.717 12.9145L816.269 16.1729L814.275 17.904L812.717 12.9145Z" fill="#BDEDE9"/>
<path d="M812.72 12.9149L817.38 15.1084L816.272 16.1732L812.72 12.9149Z" fill="#E2F5F4"/>
<path d="M827.25 3.53458L828.353 3.15625L828.669 4.85874L827.912 4.16513L827.25 3.53458Z" fill="#B9DCD9"/>
<path d="M828.352 3.15749L828.982 2.90527L828.824 3.78805L828.667 4.85999L828.352 3.15749Z" fill="#CAEDEB"/>
<path d="M827.439 1.23438L828.353 3.15756L827.25 3.53589L827.439 1.23438Z" fill="#BDEDE9"/>
<path d="M827.438 1.2338L828.982 2.90476L828.352 3.15699L827.438 1.2338Z" fill="#E2F5F4"/>
<path d="M834.07 13.8695L835.234 13.9544L834.856 15.6441L834.432 14.7092L834.07 13.8695Z" fill="#B9DCD9"/>
<path d="M835.237 13.9556L835.916 13.971L835.425 14.7212L834.859 15.6453L835.237 13.9556Z" fill="#CAEDEB"/>
<path d="M835.158 11.8262L835.245 13.9539L834.082 13.869L835.158 11.8262Z" fill="#BDEDE9"/>
<path d="M835.156 11.8265L835.922 13.9696L835.243 13.9542L835.156 11.8265Z" fill="#E2F5F4"/>
<path d="M825.013 15.5169L825.726 14.5933L826.927 15.8406L825.913 15.6785L825.013 15.5169Z" fill="#B9DCD9"/>
<path d="M825.717 14.5933L826.104 14.0355L826.459 14.8591L826.918 15.8406L825.717 14.5933Z" fill="#CAEDEB"/>
<path d="M823.9 13.4905L825.723 14.592L825.01 15.5156L823.9 13.4905Z" fill="#BDEDE9"/>
<path d="M823.912 13.4906L826.121 14.0342L825.734 14.592L823.912 13.4906Z" fill="#E2F5F4"/>
<path d="M843.709 6.45045L846.643 7.0048L845.191 11.193L844.384 8.69171L843.709 6.45045Z" fill="#B9DCD9"/>
<path d="M846.65 7.00473L848.372 7.2413L846.904 9.0066L845.197 11.1929L846.65 7.00473Z" fill="#CAEDEB"/>
<path d="M847.054 1.56849L846.655 7.00592L843.72 6.45157L847.054 1.56849Z" fill="#BDEDE9"/>
<path d="M847.045 1.56568L848.368 7.2397L846.646 7.00312L847.045 1.56568Z" fill="#E2F5F4"/>
<path d="M846.823 22.4704L848.721 22.829L847.782 25.538L847.26 23.9201L846.823 22.4704Z" fill="#B9DCD9"/>
<path d="M848.723 22.8289L849.837 22.9819L848.888 24.1238L847.784 25.5379L848.723 22.8289Z" fill="#CAEDEB"/>
<path d="M848.983 19.313L848.725 22.8301L846.827 22.4715L848.983 19.313Z" fill="#BDEDE9"/>
<path d="M848.987 19.3122L849.843 22.9823L848.729 22.8293L848.987 19.3122Z" fill="#E2F5F4"/>
<path d="M816.907 40.0958L817.386 38.2243L820.029 39.335L818.381 39.7522L816.907 40.0958Z" fill="#B9DCD9"/>
<path d="M817.38 38.2234L817.604 37.1212L818.683 38.1417L820.024 39.3341L817.38 38.2234Z" fill="#CAEDEB"/>
<path d="M813.891 37.743L817.384 38.225L816.905 40.0965L813.891 37.743Z" fill="#BDEDE9"/>
<path d="M813.875 37.7432L817.593 37.1231L817.369 38.2252L813.875 37.7432Z" fill="#E2F5F4"/>
<path d="M822.012 28.9915L822.81 27.8882L824.256 29.299L823.068 29.1471L822.012 28.9915Z" fill="#B9DCD9"/>
<path d="M822.81 27.8879L823.242 27.2231L823.686 28.1707L824.257 29.2987L822.81 27.8879Z" fill="#CAEDEB"/>
<path d="M820.649 26.6705L822.815 27.8886L822.018 28.9919L820.649 26.6705Z" fill="#BDEDE9"/>
<path d="M820.645 26.6712L823.242 27.2245L822.811 27.8893L820.645 26.6712Z" fill="#E2F5F4"/>
<path d="M858.949 24.922L860.723 25.5999L859.341 28.0561L859.119 26.4003L858.949 24.922Z" fill="#B9DCD9"/>
<path d="M860.721 25.5994L861.772 25.9417L860.655 26.8804L859.34 28.0555L860.721 25.5994Z" fill="#CAEDEB"/>
<path d="M861.58 22.2441L860.717 25.6007L858.944 24.9228L861.58 22.2441Z" fill="#BDEDE9"/>
<path d="M861.582 22.2423L861.77 25.9412L860.719 25.5989L861.582 22.2423Z" fill="#E2F5F4"/>
<path d="M6.93159 129.981L10.3554 125.618L16.0162 131.594L11.2037 130.784L6.93159 129.981Z" fill="#B9DCD9"/>
<path d="M10.3554 125.619L12.2187 122.982L13.8729 126.911L16.0163 131.595L10.3554 125.619Z" fill="#CAEDEB"/>
<path d="M1.73123 120.311L10.3527 125.618L6.92889 129.982L1.73123 120.311Z" fill="#BDEDE9"/>
<path d="M1.73628 120.31L12.221 122.981L10.3577 125.618L1.73628 120.31Z" fill="#E2F5F4"/>
<path d="M27.9708 95.1895L30.0962 93.9704L31.4234 97.3564L29.587 96.2267L27.9708 95.1895Z" fill="#B9DCD9"/>
<path d="M30.0925 93.9704L31.2927 93.1995L31.3186 95.0828L31.4197 97.3564L30.0925 93.9704Z" fill="#CAEDEB"/>
<path d="M27.4448 90.3672L30.0953 93.9701L27.9699 95.1892L27.4448 90.3672Z" fill="#BDEDE9"/>
<path d="M27.4473 90.3682L31.298 93.2002L30.0978 93.9711L27.4473 90.3682Z" fill="#E2F5F4"/>
<path d="M46.176 113.785L48.6093 113.497L48.5019 117.132L47.2558 115.373L46.176 113.785Z" fill="#B9DCD9"/>
<path d="M48.6069 113.497L50.0134 113.259L49.2984 115.002L48.4995 117.133L48.6069 113.497Z" fill="#CAEDEB"/>
<path d="M47.5837 109.143L48.6083 113.497L46.175 113.785L47.5837 109.143Z" fill="#BDEDE9"/>
<path d="M47.5823 109.143L50.0133 113.259L48.6069 113.497L47.5823 109.143Z" fill="#E2F5F4"/>
<path d="M28.1413 120.781L29.2437 118.593L32.2166 120.688L30.0616 120.757L28.1413 120.781Z" fill="#B9DCD9"/>
<path d="M29.2453 118.593L29.8223 117.288L30.8814 118.846L32.2181 120.688L29.2453 118.593Z" fill="#CAEDEB"/>
<path d="M25.042 117.046L29.2388 118.593L28.1364 120.781L25.042 117.046Z" fill="#BDEDE9"/>
<path d="M25.0476 117.046L29.8214 117.288L29.2443 118.593L25.0476 117.046Z" fill="#E2F5F4"/>
<path d="M63.0974 94.6497L69.3707 94.6261L68.0398 103.842L65.3821 99.0036L63.0974 94.6497Z" fill="#B9DCD9"/>
<path d="M69.3774 94.6275L73.0243 94.4305L70.6986 98.6551L68.0466 103.843L69.3774 94.6275Z" fill="#CAEDEB"/>
<path d="M68.026 83.256L69.3657 94.6292L63.0925 94.6528L68.026 83.256Z" fill="#BDEDE9"/>
<path d="M68.0271 83.2523L73.0137 94.4284L69.3668 94.6255L68.0271 83.2523Z" fill="#E2F5F4"/>
<path d="M75.8826 126.456L79.9402 126.441L79.0794 132.402L77.3604 129.273L75.8826 126.456Z" fill="#B9DCD9"/>
<path d="M79.9452 126.441L82.304 126.314L80.7997 129.046L79.0843 132.402L79.9452 126.441Z" fill="#CAEDEB"/>
<path d="M79.0685 119.085L79.9351 126.441L75.8774 126.457L79.0685 119.085Z" fill="#BDEDE9"/>
<path d="M79.0701 119.082L82.2955 126.311L79.9366 126.439L79.0701 119.082Z" fill="#E2F5F4"/>
<path d="M21.1701 174.709L21.414 170.659L27.3077 171.898L24.0749 173.414L21.1701 174.709Z" fill="#B9DCD9"/>
<path d="M21.4129 170.655L21.4363 168.293L24.0672 169.969L27.3066 171.895L21.4129 170.655Z" fill="#CAEDEB"/>
<path d="M14.0161 171.054L21.4127 170.659L21.1689 174.709L14.0161 171.054Z" fill="#BDEDE9"/>
<path d="M14.0138 171.056L21.434 168.298L21.4105 170.661L14.0138 171.056Z" fill="#E2F5F4"/>
<path d="M27.3092 149.772L28.5149 147.18L32.0589 149.515L29.548 149.674L27.3092 149.772Z" fill="#B9DCD9"/>
<path d="M28.516 147.177L29.1413 145.635L30.4335 147.413L32.06 149.512L28.516 147.177Z" fill="#CAEDEB"/>
<path d="M23.5557 145.529L28.5071 147.18L27.3014 149.773L23.5557 145.529Z" fill="#BDEDE9"/>
<path d="M23.5592 145.529L29.1359 145.638L28.5106 147.18L23.5592 145.529Z" fill="#E2F5F4"/>
<path d="M101.882 126.683L105.809 127.376L103.937 132.991L102.82 129.664L101.882 126.683Z" fill="#B9DCD9"/>
<path d="M105.802 127.378L108.105 127.666L106.174 130.046L103.929 132.993L105.802 127.378Z" fill="#CAEDEB"/>
<path d="M106.253 120.112L105.808 127.378L101.881 126.685L106.253 120.112Z" fill="#BDEDE9"/>
<path d="M106.249 120.108L108.108 127.662L105.804 127.374L106.249 120.108Z" fill="#E2F5F4"/>
<path d="M978.789 193.721L978.005 199.212L970.114 196.866L974.687 195.162L978.789 193.721Z" fill="#B9DCD9"/>
<path d="M978.01 199.21L977.715 202.425L974.318 199.849L970.119 196.864L978.01 199.21Z" fill="#CAEDEB"/>
<path d="M988.13 199.495L978.01 199.209L978.793 193.719L988.13 199.495Z" fill="#BDEDE9"/>
<path d="M988.132 199.496L977.717 202.425L978.012 199.21L988.132 199.496Z" fill="#E2F5F4"/>
<path d="M977.972 234.37L976.741 236.489L973.898 234.22L976.053 234.28L977.972 234.37Z" fill="#B9DCD9"/>
<path d="M976.739 236.487L976.085 237.755L975.121 236.137L973.897 234.219L976.739 236.487Z" fill="#CAEDEB"/>
<path d="M980.833 238.284L976.736 236.489L977.967 234.37L980.833 238.284Z" fill="#BDEDE9"/>
<path d="M980.839 238.281L976.088 237.754L976.742 236.486L980.839 238.281Z" fill="#E2F5F4"/>
<path d="M952.905 227.367L950.942 228.833L949.217 225.631L951.176 226.532L952.905 227.367Z" fill="#B9DCD9"/>
<path d="M950.947 228.832L949.848 229.741L949.596 227.875L949.223 225.63L950.947 228.832Z" fill="#CAEDEB"/>
<path d="M954.012 232.09L950.948 228.832L952.912 227.366L954.012 232.09Z" fill="#BDEDE9"/>
<path d="M954.007 232.091L949.844 229.742L950.943 228.833L954.007 232.091Z" fill="#E2F5F4"/>
<path d="M965.032 212.291L965.171 214.738L961.549 214.41L963.381 213.273L965.032 212.291Z" fill="#B9DCD9"/>
<path d="M965.17 214.737L965.322 216.155L963.626 215.336L961.548 214.409L965.17 214.737Z" fill="#CAEDEB"/>
<path d="M969.58 213.976L965.172 214.735L965.033 212.289L969.58 213.976Z" fill="#BDEDE9"/>
<path d="M969.579 213.979L965.323 216.156L965.171 214.737L969.579 213.979Z" fill="#E2F5F4"/>
<path d="M947.82 252.401L942.399 255.558L938.944 246.912L943.665 249.773L947.82 252.401Z" fill="#B9DCD9"/>
<path d="M942.391 255.559L939.331 257.553L939.233 252.731L938.935 246.912L942.391 255.559Z" fill="#CAEDEB"/>
<path d="M949.245 264.733L942.398 255.554L947.819 252.397L949.245 264.733Z" fill="#BDEDE9"/>
<path d="M949.25 264.735L939.343 257.55L942.403 255.556L949.25 264.735Z" fill="#E2F5F4"/>
<path d="M920.844 231.247L917.337 233.289L915.103 227.696L918.156 229.547L920.844 231.247Z" fill="#B9DCD9"/>
<path d="M917.336 233.291L915.357 234.581L915.293 231.462L915.101 227.698L917.336 233.291Z" fill="#CAEDEB"/>
<path d="M921.769 239.224L917.34 233.286L920.847 231.244L921.769 239.224Z" fill="#BDEDE9"/>
<path d="M921.774 239.226L915.366 234.578L917.345 233.289L921.774 239.226Z" fill="#E2F5F4"/>
<path d="M944.102 162.103L945.916 165.733L940.192 167.606L942.234 164.677L944.102 162.103Z" fill="#B9DCD9"/>
<path d="M945.919 165.736L947.08 167.793L943.964 167.657L940.195 167.609L945.919 165.736Z" fill="#CAEDEB"/>
<path d="M952.126 161.692L945.918 165.733L944.104 162.103L952.126 161.692Z" fill="#BDEDE9"/>
<path d="M952.125 161.689L947.078 167.787L945.917 165.73L952.125 161.689Z" fill="#E2F5F4"/>
<path d="M951.256 186.768L951.508 189.616L947.272 189.366L949.367 187.973L951.256 186.768Z" fill="#B9DCD9"/>
<path d="M951.509 189.619L951.739 191.268L949.731 190.374L947.273 189.37L951.509 189.619Z" fill="#CAEDEB"/>
<path d="M956.623 188.569L951.51 189.615L951.258 186.767L956.623 188.569Z" fill="#BDEDE9"/>
<path d="M956.623 188.57L951.739 191.264L951.51 189.616L956.623 188.57Z" fill="#E2F5F4"/>
<path d="M898.218 244.051L894.471 245.414L893.285 239.615L895.915 241.938L898.218 244.051Z" fill="#B9DCD9"/>
<path d="M894.476 245.41L892.337 246.313L892.82 243.285L893.29 239.611L894.476 245.41Z" fill="#CAEDEB"/>
<path d="M897.721 251.927L894.473 245.412L898.221 244.049L897.721 251.927Z" fill="#BDEDE9"/>
<path d="M897.726 251.93L892.339 246.317L894.478 245.414L897.726 251.93Z" fill="#E2F5F4"/>
</svg>
