<svg width="1920" height="2756" viewBox="0 0 1920 2756" fill="none" xmlns="http://www.w3.org/2000/svg">
<path d="M108.467 954.439L236.5 870.483L441 792.174L623 683.789H1220H1606L1836.39 1139.75L1920.05 1551.4L1959 1852.46L1836.39 2221.76L1893.86 2442.95L1836.39 2705.98L1430.3 2736.53L1108.21 2980.3L584.024 2833.51L108.467 2736.53V2483.48L45.3292 2221.76L151.495 2024.95L45.3292 1852.46V1657.84L108.467 1267.95L-33 1191.56V1139.75L108.467 954.439Z" fill="#659090"/>
<path d="M1694.39 2709.96H1504.34L1416.13 2771.47L961.462 2718.75H403.362L257.93 2587.37L67 2362.9L180.5 2019.59L86 1830.06L180.5 1124.14L218.5 983.406L654.5 882.399L762.5 983.406L829.5 882.399L1265 951.061L1615 839.272L1694.39 1200.74L1787.5 1705.21L1746.88 1871.62L1658.63 2001.81L1746.88 2115.91L1746.88 2244.65L1694.39 2502.57L1812 2553.1V2587.37L1694.39 2709.96Z" fill="#537878"/>
<path d="M413.002 2419.3L559.325 2581.81L626.356 2627.34L971.885 2588.31H1396.02L1506.54 2491.09L1559.39 2289.56L1584 2142.17L1506.54 1961.37L1542.85 1853.09L1506.54 1724.32L1249.98 1709.36L1046.5 1590.02L715.332 1661.88L414.889 1709.36V1833.25L375 1961.37L442.072 2057.73L375 2142.17L375 2237.45L414.889 2428.33L413.002 2419.3Z" fill="#335757"/>
<path d="M1171.33 2561L981.977 2566.39L840.856 2590.82L631.853 2629.61L560.399 2581.48L414.513 2418.77L377.595 2238.83V2141.5L443.69 2058.53L377 1962.27L858.719 2126.41L1037.47 2369.93L1140.96 2397.95L1315.5 2590.82L1171.33 2561Z" fill="#162828"/>
<path d="M963.5 2592.72H1084L1293.82 2606.98H1508.05L1563.87 2557.97L1590.57 2456.39L1603 2382.1L1563.87 2290.97L1582.21 2236.39L1603 2163.95L1560 2085.98L1446.64 2140.07L1236.73 2207.93L1095.99 2354.09L992.331 2382.1L770.5 2610.88L963.5 2592.72Z" fill="#283E3E"/>
<path d="M549.5 1996.32L590.531 1908.79V1781.83L677 1669.47L520.574 1677.75L422 1669.47L444.694 1730.67L520.574 1829.2L549.5 1996.32Z" fill="#537878"/>
<path d="M1446.86 1894.18L1419.13 1843.42V1769.81L1343 1709.69L1533 1704.65L1517.67 1740.14L1466.4 1797.27L1446.86 1894.18Z" fill="#537878"/>
<ellipse cx="986" cy="2543.92" rx="10" ry="3.97222" fill="#1B2C2C"/>
<ellipse cx="960.5" cy="2554.13" rx="7.5" ry="3.97222" fill="#1B2C2C"/>
<ellipse cx="10" cy="6.24205" rx="10" ry="6.24205" transform="matrix(-1 0 0 1 1531 2159.75)" fill="#1B2C2C"/>
<ellipse cx="7.5" cy="2.8373" rx="7.5" ry="2.8373" transform="matrix(-1 0 0 1 1553 2173.37)" fill="#1B2C2C"/>
<path d="M407.052 2365.86L403.602 2334.65L384.719 2324.55L284.703 2371.74L255.079 2421.9L221.295 2500.72L195.141 2632.81L157.369 2745.98L151.146 2973.04L195.905 2989.37L291.933 2845.63L293.411 2878.05L376.671 2641.16L394.722 2540.16L407.052 2365.86Z" fill="#80B3B0"/>
<path d="M405.015 2348.28L320.11 2413.69L285.852 2576.87L269 2717.72L239.738 2829.99L193.721 2988.84L230.463 2993.22L293.409 2878.06L376.669 2641.17L386.681 2590.06L395.792 2542.4L407.051 2365.87L405.015 2348.28Z" fill="#98C8C6"/>
<path d="M253.03 2391.52L248.948 2366.31L233.174 2359.09L153.739 2402.74L131.688 2445.11L107.425 2511L91.545 2619.84L65.441 2713.89L69.655 2898.93L106.734 2909.86L178.981 2787.87L181.508 2814.17L239.562 2617.08L250.12 2533.96L253.03 2391.52Z" fill="#80B3B0"/>
<path d="M250.662 2377.33L184.264 2435.01L163.062 2569.56L155.107 2685.03L135.889 2777.9L104.943 2909.55L135.012 2911.18L181.514 2814.18L239.568 2617.09L245.625 2574.98L251.09 2535.73L253.037 2391.53L250.662 2377.33Z" fill="#98C8C6"/>
<path d="M118.065 2281.87L108.665 2251.24L87.7092 2245.67L-4.18652 2317.69L-24.5417 2375.51L-43.6543 2463.24L-44.9679 2602.82L-61.5855 2726.16L-24.7854 2956.63L23.4435 2962.16L93.0012 2793.75L100.643 2826.09L139.657 2566.88L138.697 2460.63L118.065 2281.87Z" fill="#80B3B0"/>
<path d="M112.682 2264.64L39.4797 2351.34L35.8932 2524.25L45.6209 2670.39L37.4129 2790.74L21.1479 2962.16L59.0271 2957.6L100.65 2826.09L139.663 2566.89L140.062 2512.91L140.209 2462.63L118.071 2281.87L112.682 2264.64Z" fill="#98C8C6"/>
<path d="M1041.92 2673.26L1038.47 2642.05L1019.59 2631.95L919.57 2679.14L889.946 2729.3L856.162 2808.12L830.007 2940.21L792.236 3053.38L786.013 3280.44L830.772 3296.77L926.8 3153.03L928.278 3185.45L1011.54 2948.56L1029.59 2847.56L1041.92 2673.26Z" fill="#80B3B0"/>
<path d="M1039.88 2655.68L954.977 2721.09L920.719 2884.27L903.867 3025.12L874.605 3137.39L828.588 3296.24L865.33 3300.62L928.276 3185.46L1011.54 2948.57L1021.55 2897.46L1030.66 2849.8L1041.92 2673.27L1039.88 2655.68Z" fill="#98C8C6"/>
<path d="M606.569 2599.95L602.487 2574.74L586.713 2567.52L507.278 2611.18L485.227 2653.54L460.964 2719.44L445.084 2828.27L418.98 2922.32L423.194 3107.37L460.273 3118.29L532.52 2996.3L535.047 3022.6L593.101 2825.51L603.659 2742.4L606.569 2599.95Z" fill="#80B3B0"/>
<path d="M604.201 2585.76L537.803 2643.44L516.601 2777.99L508.646 2893.46L489.428 2986.33L458.482 3117.98L488.551 3119.61L535.053 3022.61L593.107 2825.52L599.164 2783.41L604.629 2744.17L606.576 2599.96L604.201 2585.76Z" fill="#98C8C6"/>
<path d="M701.776 2743.27L698.38 2722.3L685.258 2716.29L619.179 2752.6L600.836 2787.85L580.653 2842.66L567.443 2933.2L545.728 3011.43L549.233 3165.36L580.078 3174.45L640.177 3072.98L642.279 3094.86L690.572 2930.9L699.355 2861.76L701.776 2743.27Z" fill="#80B3B0"/>
<path d="M699.808 2731.46L644.574 2779.44L626.936 2891.37L620.319 2987.42L604.332 3064.68L578.59 3174.19L603.603 3175.55L642.286 3094.86L690.579 2930.91L695.618 2895.88L700.164 2863.23L701.783 2743.27L699.808 2731.46Z" fill="#98C8C6"/>
<path d="M826.893 2676.83L823.497 2655.86L810.375 2649.86L744.296 2686.17L725.953 2721.41L705.77 2776.22L692.56 2866.76L670.845 2945L674.35 3098.93L705.195 3108.02L765.294 3006.54L767.396 3028.42L815.689 2864.46L824.472 2795.32L826.893 2676.83Z" fill="#80B3B0"/>
<path d="M824.925 2665.02L769.691 2713L752.054 2824.93L745.436 2920.99L729.45 2998.24L703.707 3107.75L728.721 3109.11L767.404 3028.42L815.697 2864.47L820.735 2829.44L825.281 2796.8L826.9 2676.84L824.925 2665.02Z" fill="#98C8C6"/>
<path d="M452.955 2446.67L443.556 2416.05L422.6 2410.48L330.704 2482.5L310.349 2540.32L291.236 2628.04L289.923 2767.63L273.305 2890.96L310.105 3121.44L358.334 3126.96L427.892 2958.56L435.534 2990.9L474.547 2731.69L473.588 2625.44L452.955 2446.67Z" fill="#80B3B0"/>
<path d="M447.573 2429.44L374.37 2516.14L370.784 2689.05L380.512 2835.19L372.304 2955.54L356.038 3126.96L393.918 3122.4L435.54 2990.9L474.554 2731.7L474.953 2677.72L475.1 2627.44L452.962 2446.68L447.573 2429.44Z" fill="#9AD7D4"/>
<path d="M299.143 2505.25L289.744 2477.12L268.788 2472.01L176.892 2538.15L156.537 2591.25L137.424 2671.83L136.111 2800.02L119.493 2913.3L156.293 3124.97L204.522 3130.05L274.08 2975.38L281.722 3005.08L320.735 2767.02L319.776 2669.43L299.143 2505.25Z" fill="#80B3B0"/>
<path d="M293.76 2489.43L220.558 2569.05L216.971 2727.86L226.699 2862.08L218.491 2972.61L202.226 3130.05L240.105 3125.86L281.728 3005.09L320.741 2767.02L321.14 2717.45L321.287 2671.27L299.15 2505.26L293.76 2489.43Z" fill="#9AD7D4"/>
<path d="M222.834 2686.22L222.401 2658.97L206.949 2648.29L116.918 2678.47L87.3063 2718.59L51.7784 2782.97L18.4895 2894.06L-23.2703 2987.63L-47.1117 3182.65L-9.86777 3201.41L84.5839 3087.61L83.2186 3115.71L174.248 2920.29L198.023 2835.14L222.834 2686.22Z" fill="#80B3B0"/>
<path d="M222.514 2670.86L144.023 2718.33L101.221 2855.36L75.2355 2974.98L40.8822 3068.66L-11.7016 3200.73L19.6054 3208.36L83.2223 3115.71L174.251 2920.29L187.038 2877.3L198.768 2837.18L222.837 2686.23L222.514 2670.86Z" fill="#98C8C6"/>
<path d="M1654.12 2402.02L1657.57 2370.81L1676.45 2360.71L1776.47 2407.9L1806.09 2458.06L1839.87 2536.88L1866.03 2668.97L1903.8 2782.14L1910.02 3009.2L1865.26 3025.53L1769.24 2881.78L1767.76 2914.21L1684.5 2677.32L1666.45 2576.32L1654.12 2402.02Z" fill="#80B3B0"/>
<path d="M1656.15 2384.43L1741.06 2449.85L1775.32 2613.03L1792.17 2753.88L1821.43 2866.14L1867.45 3025L1830.71 3029.38L1767.76 2914.22L1684.5 2677.33L1674.49 2626.22L1665.38 2578.56L1654.12 2402.02L1656.15 2384.43Z" fill="#98C8C6"/>
<path d="M1280.12 2671L1283.57 2639.78L1302.45 2629.69L1402.47 2676.88L1432.09 2727.04L1465.87 2805.86L1492.03 2937.95L1529.8 3051.11L1536.02 3278.18L1491.26 3294.5L1395.24 3150.76L1393.76 3183.19L1310.5 2946.3L1292.45 2845.3L1280.12 2671Z" fill="#80B3B0"/>
<path d="M1282.15 2653.41L1367.06 2718.82L1401.32 2882.01L1418.17 3022.86L1447.43 3135.12L1493.45 3293.97L1456.71 3298.36L1393.76 3183.19L1310.5 2946.3L1300.49 2895.19L1291.38 2847.54L1280.12 2671L1282.15 2653.41Z" fill="#98C8C6"/>
<path d="M1411.12 2732.18L1413.31 2712.4L1425.28 2706.01L1488.65 2735.91L1507.43 2767.7L1528.83 2817.64L1545.41 2901.34L1569.34 2973.05L1573.29 3116.94L1544.92 3127.29L1484.07 3036.2L1483.14 3056.75L1430.38 2906.64L1418.94 2842.63L1411.12 2732.18Z" fill="#80B3B0"/>
<path d="M1412.41 2721.04L1466.21 2762.49L1487.92 2865.9L1498.6 2955.15L1517.14 3026.29L1546.3 3126.95L1523.02 3129.73L1483.13 3056.75L1430.37 2906.64L1424.03 2874.25L1418.26 2844.05L1411.12 2732.19L1412.41 2721.04Z" fill="#98C8C6"/>
<path d="M1568.42 2496.78L1570.96 2458.76L1590.39 2447.25L1696.81 2509.43L1729.58 2572.1L1767.7 2670L1799.67 2832.73L1843.16 2972.83L1857.53 3250.83L1811.2 3268.8L1705.62 3088.71L1705.19 3128.31L1609.77 2834.86L1587.37 2710.52L1568.42 2496.78Z" fill="#80B3B0"/>
<path d="M1569.95 2475.37L1661.17 2559.15L1702.7 2760.27L1725.23 2933.29L1759.77 3071.91L1813.47 3268.25L1775.13 3271.98L1705.2 3128.32L1609.78 2834.87L1597.52 2771.91L1586.33 2713.22L1568.43 2496.79L1569.95 2475.37Z" fill="#98C8C6"/>
<path d="M1796.54 2430.17L1800.62 2404.96L1816.4 2397.74L1895.83 2441.39L1917.88 2483.76L1942.15 2549.65L1958.03 2658.49L1984.13 2752.54L1979.92 2937.58L1942.84 2948.51L1870.59 2826.52L1868.07 2852.82L1810.01 2655.73L1799.45 2572.61L1796.54 2430.17Z" fill="#80B3B0"/>
<path d="M1798.91 2415.98L1865.31 2473.66L1886.51 2608.21L1894.47 2723.68L1913.68 2816.55L1944.63 2948.2L1914.56 2949.83L1868.06 2852.83L1810 2655.74L1803.95 2613.63L1798.48 2574.38L1796.54 2430.18L1798.91 2415.98Z" fill="#98C8C6"/>
<path d="M1478.58 2521.36L1482.66 2496.15L1498.44 2488.93L1577.87 2532.59L1599.92 2574.95L1624.19 2640.85L1640.07 2749.68L1666.17 2843.73L1661.96 3028.77L1624.88 3039.7L1552.63 2917.71L1550.1 2944.01L1492.05 2746.92L1481.49 2663.8L1478.58 2521.36Z" fill="#80B3B0"/>
<path d="M1480.95 2507.17L1547.35 2564.85L1568.55 2699.4L1576.51 2814.87L1595.72 2907.74L1626.67 3039.39L1596.6 3041.02L1550.1 2944.02L1492.04 2746.93L1485.99 2704.82L1480.52 2665.58L1478.58 2521.37L1480.95 2507.17Z" fill="#98C8C6"/>
<path d="M1928.48 2259.46L1937.88 2228.84L1958.84 2223.27L2050.74 2295.29L2071.09 2353.11L2090.2 2440.83L2091.52 2580.42L2108.13 2703.75L2071.33 2934.23L2023.11 2939.75L1953.55 2771.35L1945.91 2803.68L1906.89 2544.48L1907.85 2438.23L1928.48 2259.46Z" fill="#80B3B0"/>
<path d="M1933.87 2242.23L2007.07 2328.93L2010.66 2501.84L2000.93 2647.98L2009.14 2768.33L2025.4 2939.75L1987.52 2935.19L1945.9 2803.69L1906.89 2544.49L1906.49 2490.5L1906.34 2440.23L1928.48 2259.47L1933.87 2242.23Z" fill="#98C8C6"/>
<path d="M407.052 970.141L403.602 1001.35L384.719 1011.45L284.703 964.259L255.079 914.099L221.295 835.282L195.141 703.189L157.369 590.023L151.146 362.958L195.905 346.633L291.933 490.376L293.411 457.948L376.671 694.838L394.722 795.841L407.052 970.141Z" fill="#80B3B0"/>
<path d="M405.015 987.724L320.11 922.313L285.852 759.131L269 618.281L239.738 506.015L193.721 347.162L230.463 342.78L293.409 457.943L376.669 694.832L386.681 745.942L395.792 793.598L407.051 970.136L405.015 987.724Z" fill="#98C8C6"/>
<path d="M253.03 944.481L248.948 969.69L233.174 976.909L153.738 933.257L131.688 890.893L107.425 824.997L91.5447 716.163L65.4408 622.114L69.6548 437.068L106.734 426.142L178.98 548.131L181.507 521.829L239.562 718.921L250.12 802.038L253.03 944.481Z" fill="#80B3B0"/>
<path d="M250.662 958.674L184.263 900.994L163.061 766.442L155.106 650.973L135.888 558.104L104.943 426.455L135.012 424.824L181.514 521.822L239.568 718.914L245.625 761.019L251.09 800.266L253.036 944.473L250.662 958.674Z" fill="#98C8C6"/>
<path d="M118.065 1054.13L108.665 1084.76L87.7092 1090.33L-4.18652 1018.31L-24.5417 960.491L-43.6543 872.764L-44.9679 733.182L-61.5855 609.845L-24.7854 379.371L23.4435 373.846L93.0012 542.249L100.643 509.913L139.657 769.117L138.697 875.371L118.065 1054.13Z" fill="#80B3B0"/>
<path d="M112.682 1071.37L39.4797 984.665L35.8932 811.755L45.6209 665.615L37.4129 545.265L21.1479 373.847L59.0271 378.406L100.65 509.908L139.663 769.112L140.062 823.093L140.209 873.371L118.071 1054.13L112.682 1071.37Z" fill="#98C8C6"/>
<path d="M1041.92 662.738L1038.47 693.949L1019.59 704.045L919.57 656.856L889.946 606.695L856.162 527.878L830.008 395.786L792.236 282.62L786.013 55.5552L830.773 39.2294L926.8 182.972L928.278 150.545L1011.54 387.434L1029.59 488.438L1041.92 662.738Z" fill="#80B3B0"/>
<path d="M1039.88 680.321L954.977 614.91L920.719 451.728L903.867 310.877L874.605 198.611L828.588 39.7586L865.33 35.3768L928.276 150.54L1011.54 387.429L1021.55 438.539L1030.66 486.194L1041.92 662.732L1039.88 680.321Z" fill="#98C8C6"/>
<path d="M600.655 813.564L596.573 838.773L580.799 845.992L501.364 802.34L479.313 759.976L455.05 694.08L439.17 585.246L413.066 491.197L417.28 306.151L454.359 295.225L526.606 417.214L529.133 390.912L587.187 588.004L597.745 671.121L600.655 813.564Z" fill="#80B3B0"/>
<path d="M598.287 827.758L531.889 770.078L510.687 635.526L502.732 520.057L483.514 427.188L452.568 295.539L482.637 293.908L529.139 390.906L587.193 587.998L593.25 630.103L598.715 669.35L600.662 813.557L598.287 827.758Z" fill="#98C8C6"/>
<path d="M701.776 592.73L698.38 613.701L685.258 619.707L619.179 583.394L600.836 548.153L580.653 493.337L567.443 402.802L545.728 324.566L549.233 170.634L580.078 161.546L640.177 263.023L642.279 241.143L690.572 405.097L699.355 474.238L701.776 592.73Z" fill="#80B3B0"/>
<path d="M699.808 604.539L644.574 556.558L626.936 444.629L620.319 348.575L604.332 271.321L578.59 161.807L603.603 160.45L642.286 241.139L690.579 405.092L695.618 440.118L700.164 472.766L701.783 592.726L699.808 604.539Z" fill="#98C8C6"/>
<path d="M826.893 659.17L823.497 680.14L810.375 686.146L744.296 649.834L725.953 614.592L705.77 559.776L692.56 469.241L670.845 391.006L674.35 237.074L705.195 227.985L765.294 329.463L767.396 307.583L815.689 471.536L824.472 540.677L826.893 659.17Z" fill="#80B3B0"/>
<path d="M824.925 670.979L769.691 622.997L752.054 511.069L745.436 415.014L729.45 337.76L703.707 228.247L728.721 226.89L767.404 307.578L815.697 471.532L820.735 506.557L825.281 539.205L826.9 659.165L824.925 670.979Z" fill="#98C8C6"/>
<path d="M452.956 889.325L443.556 919.953L422.6 925.519L330.704 853.499L310.349 795.683L291.237 707.955L289.923 568.373L273.305 445.036L310.105 214.562L358.334 209.038L427.892 377.44L435.534 345.104L474.548 604.308L473.588 710.563L452.956 889.325Z" fill="#80B3B0"/>
<path d="M447.573 906.557L374.371 819.856L370.784 646.946L380.512 500.806L372.304 380.456L356.039 209.038L393.918 213.598L435.541 345.099L474.554 604.303L474.953 658.285L475.1 708.563L452.962 889.32L447.573 906.557Z" fill="#9AD7D4"/>
<path d="M299.143 830.75L289.744 858.879L268.788 863.991L176.892 797.845L156.537 744.745L137.424 664.174L136.111 535.977L119.493 422.701L156.293 211.027L204.522 205.953L274.08 360.619L281.722 330.921L320.735 568.981L319.776 666.569L299.143 830.75Z" fill="#80B3B0"/>
<path d="M293.76 846.575L220.558 766.946L216.971 608.14L226.699 473.921L218.491 363.388L202.226 205.952L240.105 210.14L281.728 330.915L320.741 568.975L321.14 618.554L321.287 664.731L299.15 830.744L293.76 846.575Z" fill="#9AD7D4"/>
<path d="M222.834 649.778L222.401 677.036L206.949 687.716L116.918 657.533L87.3065 617.412L51.7787 553.031L18.4898 441.939L-23.2701 348.374L-47.1115 153.349L-9.86752 134.588L84.5841 248.396L83.2189 220.296L174.248 415.713L198.024 500.863L222.834 649.778Z" fill="#80B3B0"/>
<path d="M222.515 665.143L144.023 617.673L101.221 480.639L75.2357 361.024L40.8824 267.343L-11.7014 135.272L19.6056 127.644L83.2225 220.291L174.252 415.708L187.039 458.704L198.769 498.817L222.838 649.772L222.515 665.143Z" fill="#98C8C6"/>
<path d="M1654.12 933.984L1657.57 965.195L1676.45 975.291L1776.47 928.102L1806.09 877.941L1839.87 799.124L1866.03 667.032L1903.8 553.866L1910.02 326.801L1865.26 310.476L1769.24 454.218L1767.76 421.791L1684.5 658.68L1666.45 759.684L1654.12 933.984Z" fill="#80B3B0"/>
<path d="M1656.15 951.567L1741.06 886.156L1775.32 722.974L1792.17 582.124L1821.43 469.857L1867.45 311.005L1830.71 306.623L1767.76 421.786L1684.5 658.675L1674.49 709.785L1665.38 757.441L1654.12 933.978L1656.15 951.567Z" fill="#98C8C6"/>
<path d="M1280.12 665.007L1283.57 696.218L1302.45 706.315L1402.47 659.125L1432.09 608.965L1465.87 530.148L1492.03 398.055L1529.8 284.889L1536.02 57.8247L1491.26 41.499L1395.24 185.242L1393.76 152.814L1310.5 389.704L1292.45 490.707L1280.12 665.007Z" fill="#80B3B0"/>
<path d="M1282.15 682.59L1367.06 617.179L1401.32 453.998L1418.17 313.147L1447.43 200.881L1493.45 42.0281L1456.71 37.6463L1393.76 152.809L1310.5 389.699L1300.49 440.808L1291.38 488.464L1280.12 665.002L1282.15 682.59Z" fill="#98C8C6"/>
<path d="M1411.12 603.817L1413.31 623.595L1425.28 629.993L1488.65 600.09L1507.43 568.305L1528.83 518.36L1545.41 434.656L1569.34 362.945L1573.29 219.06L1544.92 208.714L1484.07 299.801L1483.14 279.253L1430.38 429.364L1418.94 493.368L1411.12 603.817Z" fill="#80B3B0"/>
<path d="M1412.41 614.959L1466.21 573.51L1487.92 470.105L1498.6 380.852L1517.14 309.711L1546.3 209.05L1523.02 206.273L1483.13 279.249L1430.37 429.361L1424.03 461.748L1418.26 491.946L1411.12 603.814L1412.41 614.959Z" fill="#98C8C6"/>
<path d="M1238.12 497.041L1240.31 516.819L1252.28 523.217L1315.65 493.314L1334.43 461.528L1355.83 411.584L1372.41 327.88L1396.34 256.169L1400.29 112.283L1371.92 101.938L1311.07 193.025L1310.14 172.476L1257.38 322.588L1245.94 386.591L1238.12 497.041Z" fill="#80B3B0"/>
<path d="M1239.41 508.182L1293.21 466.733L1314.92 363.328L1325.6 274.074L1344.14 202.934L1373.3 102.273L1350.02 99.4959L1310.13 172.472L1257.37 322.583L1251.03 354.97L1245.26 385.169L1238.12 497.037L1239.41 508.182Z" fill="#98C8C6"/>
<path d="M1568.42 839.219L1570.96 877.24L1590.39 888.748L1696.81 826.575L1729.58 763.905L1767.7 665.999L1799.67 503.271L1843.16 363.175L1857.53 85.1737L1811.2 67.1991L1705.62 247.289L1705.19 207.692L1609.77 501.141L1587.37 625.483L1568.42 839.219Z" fill="#80B3B0"/>
<path d="M1569.95 860.633L1661.17 776.848L1702.7 575.734L1725.23 402.708L1759.77 264.091L1813.47 67.7486L1775.13 64.0256L1705.2 207.685L1609.78 501.134L1597.52 564.092L1586.33 622.786L1568.43 839.212L1569.95 860.633Z" fill="#98C8C6"/>
<path d="M1796.54 905.828L1800.62 931.037L1816.4 938.257L1895.83 894.605L1917.88 852.24L1942.15 786.345L1958.03 677.51L1984.13 583.462L1979.92 398.416L1942.84 387.49L1870.59 509.479L1868.07 483.177L1810.01 680.269L1799.45 763.386L1796.54 905.828Z" fill="#80B3B0"/>
<path d="M1798.91 920.023L1865.31 862.343L1886.51 727.791L1894.47 612.322L1913.68 519.453L1944.63 387.804L1914.56 386.172L1868.06 483.17L1810 680.263L1803.95 722.368L1798.48 761.615L1796.54 905.822L1798.91 920.023Z" fill="#98C8C6"/>
<path d="M1478.58 814.639L1482.66 839.848L1498.44 847.068L1577.87 803.416L1599.92 761.051L1624.19 695.155L1640.07 586.321L1666.17 492.272L1661.96 307.226L1624.88 296.301L1552.63 418.289L1550.1 391.987L1492.05 589.08L1481.49 672.196L1478.58 814.639Z" fill="#80B3B0"/>
<path d="M1480.95 828.834L1547.35 771.154L1568.55 636.602L1576.51 521.132L1595.72 428.263L1626.67 296.614L1596.6 294.983L1550.1 391.981L1492.04 589.073L1485.99 631.178L1480.52 670.426L1478.58 814.633L1480.95 828.834Z" fill="#98C8C6"/>
<path d="M1928.48 1076.54L1937.88 1107.17L1958.84 1112.73L2050.74 1040.71L2071.09 982.896L2090.2 895.169L2091.52 755.587L2108.13 632.25L2071.33 401.776L2023.11 396.252L1953.55 564.654L1945.91 532.318L1906.89 791.522L1907.85 897.777L1928.48 1076.54Z" fill="#80B3B0"/>
<path d="M1933.87 1093.77L2007.07 1007.07L2010.66 834.16L2000.93 688.02L2009.14 567.67L2025.4 396.252L1987.52 400.811L1945.9 532.313L1906.89 791.517L1906.49 845.498L1906.34 895.777L1928.48 1076.53L1933.87 1093.77Z" fill="#98C8C6"/>
<path d="M196.007 1044.51L187.818 1071.19L169.561 1076.04L89.5027 1013.3L71.7696 962.932L55.1188 886.504L53.9744 764.902L39.4973 657.452L71.5572 456.666L113.574 451.853L174.172 598.564L180.829 570.393L214.817 796.209L213.981 888.776L196.007 1044.51Z" fill="#84BCB9"/>
<path d="M191.317 1059.52L127.544 983.99L124.42 833.353L132.894 706.037L125.744 601.189L111.574 451.852L144.574 455.824L180.835 570.387L214.823 796.203L215.171 843.23L215.298 887.032L196.012 1044.51L191.317 1059.52Z" fill="#B6F7F3"/>
<path d="M504.007 862.924L495.818 889.607L477.561 894.456L397.503 831.713L379.77 781.344L363.119 704.917L361.974 583.314L347.497 475.865L379.557 275.078L421.574 270.265L482.172 416.976L488.829 388.805L522.817 614.621L521.981 707.188L504.007 862.924Z" fill="#84BCB9"/>
<path d="M499.317 877.935L435.544 802.402L432.42 651.765L440.894 524.449L433.744 419.602L419.574 270.264L452.574 274.236L488.835 388.799L522.823 614.615L523.171 661.643L523.298 705.444L504.012 862.918L499.317 877.935Z" fill="#B6F7F3"/>
<path d="M1629.6 905.853L1633.16 927.814L1646.9 934.104L1716.1 896.075L1735.31 859.167L1756.45 801.76L1770.28 706.944L1793.03 625.01L1789.35 463.8L1757.05 454.282L1694.11 560.557L1691.91 537.643L1641.33 709.348L1632.13 781.758L1629.6 905.853Z" fill="#84BCB9"/>
<path d="M1631.66 918.221L1689.51 867.971L1707.98 750.75L1714.91 650.155L1731.65 569.248L1758.61 454.557L1732.42 453.136L1691.9 537.639L1641.33 709.344L1636.05 746.025L1631.29 780.217L1629.6 905.849L1631.66 918.221Z" fill="#B6F7F3"/>
<path d="M1352.6 826.41L1356.15 848.372L1369.89 854.662L1439.1 816.632L1458.31 779.725L1479.45 722.317L1493.28 627.502L1516.02 545.568L1512.35 384.358L1480.05 374.839L1417.11 481.115L1414.91 458.201L1364.33 629.905L1355.13 702.316L1352.6 826.41Z" fill="#84BCB9"/>
<path d="M1354.66 838.777L1412.51 788.527L1430.98 671.307L1437.91 570.711L1454.65 489.805L1481.61 375.114L1455.41 373.693L1414.9 458.196L1364.33 629.901L1359.05 666.582L1354.29 700.774L1352.59 826.406L1354.66 838.777Z" fill="#B6F7F3"/>
<path d="M1744.55 1054.58L1752.74 1081.26L1770.99 1086.11L1851.05 1023.36L1868.79 972.996L1885.44 896.569L1886.58 774.967L1901.06 667.517L1869 466.731L1826.98 461.917L1766.38 608.628L1759.73 580.457L1725.74 806.273L1726.57 898.841L1744.55 1054.58Z" fill="#84BCB9"/>
<path d="M1749.24 1069.59L1813.01 994.054L1816.13 843.417L1807.66 716.102L1814.81 611.254L1828.98 461.916L1795.98 465.889L1759.72 580.451L1725.73 806.267L1725.38 853.295L1725.26 897.097L1744.54 1054.57L1749.24 1069.59Z" fill="#B6F7F3"/>
<path d="M1029.97 2282.94L1177.26 2302.48L1168.39 2315.46L1168.18 2315.78L1168.07 2316.15L1161.27 2339.31L1161.21 2339.49L1161.19 2339.68L1157.79 2365.41L1157.77 2365.58L1157.77 2365.74L1157.77 2386.67L1008.63 2361.78L1009.13 2343.53L1011.36 2321.38L1018.54 2299.45L1029.97 2282.94Z" fill="#3B4339" stroke="#FFB23E" stroke-width="5"/>
<path d="M1021.85 2446.64L1009.08 2366.92L1157.55 2391.7L1150.1 2468.41L1021.85 2446.64Z" fill="#3B4339" stroke="#FFB23E" stroke-width="5"/>
<path d="M1165.03 2340.46L1171.16 2317.07L1182.12 2302.26L1186.57 2305.28L1190.6 2310.43L1190.6 2337.61L1161.66 2382.76L1161.66 2365.96L1165.03 2340.46Z" fill="#3B4339" stroke="#FFB23E" stroke-width="3"/>
<path d="M1154.22 2465.37L1160.49 2387.58L1189.77 2344.05L1178.75 2424.47L1154.22 2465.37Z" fill="#3B4339" stroke="#FFB23E" stroke-width="3"/>
<path d="M1072.96 2355.53L1088.26 2358.1L1084.86 2379.97L1085.43 2399.27L1070.69 2397.34L1068.99 2378.04L1072.96 2355.53Z" fill="#C29641"/>
<ellipse cx="3.79642" cy="4.57263" rx="3.79642" ry="4.57263" transform="matrix(0.998102 0.0615789 -0.0478443 0.998855 1074.58 2367.29)" fill="#52401A"/>
<path d="M1076.69 2375.55L1078.95 2375.78L1078.95 2386.4L1075.22 2385.76L1076.69 2375.55Z" fill="#52401A"/>
<path d="M998.676 2295.63L1000.19 2297.57L1002.31 2298.1L1000.75 2300.13L1000.26 2302.9L998.746 2300.95L996.616 2300.4L998.186 2298.38L998.676 2295.63Z" fill="#FFF5BF"/>
<path d="M1042.74 2248.35L1043.68 2249.56L1045 2249.89L1044.03 2251.15L1043.72 2252.87L1042.78 2251.65L1041.46 2251.31L1042.43 2250.06L1042.74 2248.35Z" fill="#FFF5BF"/>
<path d="M1072.41 2252.16L1074.26 2254.52L1076.83 2255.17L1074.94 2257.64L1074.33 2261.01L1072.5 2258.63L1069.91 2257.96L1071.82 2255.51L1072.41 2252.16Z" fill="#FFF5BF"/>
<path d="M1200.88 2285.73L1201.82 2286.93L1203.14 2287.26L1202.17 2288.52L1201.86 2290.24L1200.92 2289.03L1199.6 2288.69L1200.57 2287.44L1200.88 2285.73Z" fill="#FFF5BF"/>
<path d="M1180.93 2249.98L1181.87 2248.78L1183.18 2248.44L1182.22 2247.18L1181.91 2245.46L1180.97 2246.68L1179.65 2247.02L1180.62 2248.27L1180.93 2249.98Z" fill="#FFF5BF"/>
<path d="M1103.33 2264.36L1104.28 2263.15L1105.59 2262.82L1104.62 2261.56L1104.31 2259.84L1103.38 2261.06L1102.06 2261.4L1103.03 2262.65L1103.33 2264.36Z" fill="#FFF5BF"/>
<path d="M1135.85 2241.36L1136.79 2240.15L1138.11 2239.82L1137.14 2238.56L1136.83 2236.84L1135.89 2238.05L1134.57 2238.39L1135.54 2239.65L1135.85 2241.36Z" fill="#FFF5BF"/>
<path d="M1126.24 2257.65L1127.19 2256.44L1128.5 2256.11L1127.53 2254.85L1127.22 2253.13L1126.29 2254.35L1124.96 2254.69L1125.94 2255.94L1126.24 2257.65Z" fill="#FFF5BF"/>
<path d="M1167.62 2271.07L1168.57 2269.86L1169.88 2269.53L1168.92 2268.27L1168.6 2266.55L1167.67 2267.76L1166.35 2268.1L1167.32 2269.36L1167.62 2271.07Z" fill="#FFF5BF"/>
<path d="M1087.82 2241.36L1088.76 2240.15L1090.07 2239.82L1089.11 2238.56L1088.8 2236.84L1087.86 2238.05L1086.54 2238.39L1087.51 2239.65L1087.82 2241.36Z" fill="#FFF5BF"/>
<path d="M1057.48 2240.6L1060.08 2237.28L1063.7 2236.36L1061.04 2232.89L1060.18 2228.15L1057.6 2231.5L1053.96 2232.44L1056.64 2235.89L1057.48 2240.6Z" fill="#FFF5BF"/>
<path d="M1216.9 2251.61L1218.55 2253.72L1220.85 2254.3L1219.15 2256.5L1218.61 2259.51L1216.97 2257.38L1214.66 2256.79L1216.37 2254.6L1216.9 2251.61Z" fill="#FFF5BF"/>
<path d="M1190.3 2425.08L1191.94 2427.19L1194.24 2427.77L1192.55 2429.97L1192.01 2432.97L1190.37 2430.85L1188.06 2430.26L1189.76 2428.07L1190.3 2425.08Z" fill="#FFF5BF"/>
<path d="M1189.79 2400.73L1190.74 2401.94L1192.05 2402.27L1191.08 2403.53L1190.77 2405.25L1189.84 2404.04L1188.51 2403.69L1189.49 2402.44L1189.79 2400.73Z" fill="#FFF5BF"/>
<path d="M1201.62 2436.19L1202.56 2437.4L1203.87 2437.73L1202.91 2438.99L1202.6 2440.71L1201.66 2439.5L1200.34 2439.15L1201.31 2437.9L1201.62 2436.19Z" fill="#FFF5BF"/>
<path d="M1003.57 2282.85L1004.52 2284.06L1005.83 2284.39L1004.86 2285.65L1004.55 2287.37L1003.62 2286.15L1002.29 2285.81L1003.27 2284.56L1003.57 2282.85Z" fill="#FFF5BF"/>
<path d="M1007.27 2239.73L1008.21 2240.93L1009.53 2241.26L1008.56 2242.52L1008.25 2244.24L1007.31 2243.03L1005.99 2242.69L1006.96 2241.43L1007.27 2239.73Z" fill="#FFF5BF"/>
<path d="M1025.83 2259.4L1022.58 2255.31L1018.15 2256.45L1020.13 2251.2L1017.92 2246.07L1022.4 2246.9L1025.47 2242.6L1026.25 2248.38L1030.36 2250.84L1026.34 2253.57L1025.83 2259.4Z" fill="#FFF5BF"/>
<path d="M1004.09 2265.69L1001.98 2263.04L999.114 2263.78L1000.4 2260.38L998.971 2257.07L1001.87 2257.6L1003.86 2254.82L1004.36 2258.56L1007.02 2260.15L1004.42 2261.92L1004.09 2265.69Z" fill="#FFF5BF"/>
<path d="M1221.34 2295.4L1219.24 2292.75L1216.37 2293.49L1217.66 2290.09L1216.23 2286.78L1219.12 2287.32L1221.11 2284.53L1221.62 2288.27L1224.27 2289.86L1221.67 2291.63L1221.34 2295.4Z" fill="#FFF5BF"/>
<path d="M1200.5 2272.2L1196.11 2266.68L1190.13 2268.21L1192.81 2261.13L1189.83 2254.22L1195.87 2255.34L1200.01 2249.53L1201.07 2257.33L1206.6 2260.65L1201.18 2264.34L1200.5 2272.2Z" fill="#FFF5BF"/>
<path d="M1159.29 2273.2L1156.72 2269.97L1153.22 2270.87L1154.79 2266.73L1153.05 2262.68L1156.58 2263.34L1159 2259.94L1159.62 2264.5L1162.86 2266.44L1159.69 2268.6L1159.29 2273.2Z" fill="#FFF5BF"/>
<path d="M1108.66 2242.68L1111.22 2239.45L1114.72 2240.35L1113.15 2236.21L1114.9 2232.16L1111.37 2232.82L1108.94 2229.42L1108.32 2233.98L1105.09 2235.93L1108.26 2238.08L1108.66 2242.68Z" fill="#FFF5BF"/>
<path d="M1209.33 2416.88L1206.64 2413.5L1202.98 2414.44L1204.62 2410.11L1202.8 2405.88L1206.5 2406.57L1209.03 2403.01L1209.68 2407.78L1213.06 2409.81L1209.75 2412.07L1209.33 2416.88Z" fill="#FFF5BF"/>
<path d="M1079.57 2449.27L1200.06 2448.82L1204.02 2476.99L1204.39 2505.08L1079.57 2500.47L1074.79 2482.03L1079.57 2449.27Z" fill="#E49724"/>
<path d="M1079.63 2447.29C1079.77 2446.29 1080.63 2445.55 1081.64 2445.57L1198.81 2448.29C1199.91 2448.31 1200.79 2449.23 1200.77 2450.34L1200.12 2483.23C1200.1 2484.33 1199.19 2485.2 1198.08 2485.18L1077.04 2482.09C1075.84 2482.06 1074.93 2480.99 1075.1 2479.8L1079.63 2447.29Z" fill="#FFDA40"/>
<path d="M1138.02 2446.73L1160.92 2447.32L1116.6 2483.1L1092.22 2482.48L1138.02 2446.73Z" fill="#FFEFAB"/>
<path d="M1155.75 2447.19L1178.35 2447.76L1134.6 2483.56L1110.54 2482.94L1155.75 2447.19Z" fill="#FFEFAB"/>
<path d="M1079.57 2449.27L1200.06 2448.82L1204.02 2476.99L1204.39 2505.08L1079.57 2500.47L1074.79 2482.03L1079.57 2449.27Z" fill="#D98D1B"/>
<path d="M1079.63 2447.29C1079.77 2446.29 1080.63 2445.55 1081.64 2445.57L1198.81 2448.29C1199.91 2448.31 1200.79 2449.23 1200.77 2450.34L1200.12 2483.23C1200.1 2484.33 1199.19 2485.2 1198.08 2485.18L1077.04 2482.09C1075.84 2482.06 1074.93 2480.99 1075.1 2479.8L1079.63 2447.29Z" fill="#FFDA40"/>
<path d="M1138.02 2446.73L1160.92 2447.32L1116.6 2483.1L1092.22 2482.48L1138.02 2446.73Z" fill="#FFEFAB"/>
<path d="M1155.75 2447.19L1178.35 2447.76L1134.6 2483.56L1110.54 2482.94L1155.75 2447.19Z" fill="#FFEFAB"/>
<path d="M1200.79 2449.34L1200.79 2449.34L1204.39 2476.99L1204.39 2505.08L1200.08 2485.23L1200.79 2449.34Z" fill="#B4771C"/>
<path d="M1063.23 2476.38L1173.48 2421.2L1187.05 2445.21L1197.3 2470.79L1081.3 2523.29L1070.41 2508.57L1063.23 2476.38Z" fill="#E49724"/>
<path d="M1062.59 2474.55C1062.36 2473.56 1062.87 2472.49 1063.78 2472.07L1172.19 2421.27C1173.19 2420.8 1174.31 2421.27 1174.68 2422.31L1185.66 2452.67C1186.04 2453.71 1185.54 2454.93 1184.54 2455.4L1072.45 2507.62C1071.37 2508.12 1070.17 2507.52 1069.89 2506.34L1062.59 2474.55Z" fill="#FFDA40"/>
<path d="M1115.89 2447.49L1137.08 2437.62L1109.1 2490.55L1086.54 2501.06L1115.89 2447.49Z" fill="#FFEFAB"/>
<path d="M1132.3 2439.85L1153.22 2430.1L1125.76 2482.78L1103.49 2493.16L1132.3 2439.85Z" fill="#FFEFAB"/>
<path d="M1174.34 2421.35L1174.34 2421.35L1187.39 2445.04L1197.3 2470.79L1186.35 2454.55L1174.34 2421.35Z" fill="#B4771C"/>
<ellipse cx="15" cy="6.80951" rx="15" ry="6.80951" transform="matrix(-1 0 0 1 1340 2457.1)" fill="#1B2C2C"/>
<ellipse cx="10.5" cy="3.97222" rx="10.5" ry="3.97222" transform="matrix(-1 0 0 1 1301 2442.34)" fill="#1B2C2C"/>
<ellipse cx="7" cy="3.40476" rx="7" ry="3.40476" transform="matrix(-1 0 0 1 1277 2463.91)" fill="#1B2C2C"/>
</svg>
