<svg width="1512" height="2901" viewBox="0 0 1512 2901" fill="none" xmlns="http://www.w3.org/2000/svg">
<path d="M-7.56387 669.298H199.998L45 277L744 172.5H1489L1561.19 891.098L1673 1511.19L1613.37 1744.12L1561.19 2186.13L1613.37 2450.86L1561.19 2765.67L1192.51 2802.24L900.09 3094L424.188 2918.31L-7.56387 2802.24V2423.83V1044.53L-136 953.107V891.098L-7.56387 669.298Z" fill="#B7D6D6"/>
<path d="M61.4152 424.752H244.702L329.764 302L768.235 407.216H1306.45L1446.7 669.38L1513.78 1212.78L1545 1610.19L1446.7 2097.69L1492.78 2389.67L1446.7 2736.88L1121.14 2777.21L862.917 3099L442.673 2905.23L61.4152 2777.21V2443.17L10.7971 2097.69L95.9105 1837.89L10.7971 1610.19V1353.29L61.4152 838.603L-52 737.771V669.38L61.4152 424.752Z" fill="#659090"/>
<path d="M1397.36 2722.64H1237.94L1163.96 2808L782.596 2734.83H314.479L192.496 2552.53L134.158 2174.66L107 1898.3L192.496 1559.3L152.422 1356.26L192.496 1114.81L475.656 1086.77L700.246 863L1065.76 997.748L1397.36 1086.77V1319.06L1441.38 1559.3L1367.35 1739.96L1441.38 1898.3V2076.95L1397.36 2434.85L1496 2504.97V2552.53L1397.36 2722.64Z" fill="#537878"/>
<path d="M323.342 2320L446.005 2545.76L502.198 2609L791.858 2554.79H1147.41L1240.06 2419.73L1284.37 2139.77L1305 1935.03L1240.06 1683.87L1270.5 1533.44L1240.06 1354.56L1024.99 1333.78L854.406 1168L576.787 1267.83L324.923 1333.78L324.923 1505.88L291.484 1683.87L347.711 1817.72L291.484 1935.03V2067.38L324.923 2332.54L323.342 2320Z" fill="#335757"/>
<path d="M958.5 2517L799.5 2524.5L681 2558.5L505.5 2612.5L445.5 2545.5L323 2319L292 2068.5V1933L347.5 1817.5L291.5 1683.5L696 1912L846.094 2251L933 2290.01L1095.09 2612.5L958.5 2517Z" fill="#162828"/>
<path d="M787 2553H885L1061.87 2581.61H1241.48L1288.29 2513.38L1310.67 2371.94L1321.09 2268.51L1288.29 2141.62L1303.67 2065.62L1321.09 1964.75L1303.67 1911.5L1190 1931.5L1014 2026L896 2229.5L809.094 2268.51L647 2591L787 2553Z" fill="#283E3E"/>
<path d="M437 1731L471.434 1609.41V1433.08L544 1277L412.725 1288.5L330 1277L349.045 1362.02L412.725 1498.88L437 1731Z" fill="#537878"/>
<path d="M1189.91 1589L1166.71 1518.57V1416.42L1103 1333L1262 1326L1249.17 1375.25L1206.27 1454.53L1189.91 1589Z" fill="#537878"/>
<path d="M1298 1405L1263.57 1300.82V1149.73L1191 1016H1405L1385.95 1088.85L1322.28 1206.11L1298 1405Z" fill="#659090"/>
<path d="M296 1458L261.566 1353.82V1202.73L189 1069H403L383.955 1141.85L320.275 1259.11L296 1458Z" fill="#659090"/>
<path d="M268.254 950.004L265.583 970.519L250.959 977.156L173.508 946.137L150.567 913.166L124.405 861.359L104.151 774.533L74.9014 700.147L70.0821 550.895L104.744 540.164L179.107 634.648L180.251 613.333L244.727 769.043L258.706 835.434L268.254 950.004Z" fill="#80B3B0"/>
<path d="M266.675 961.561L200.925 918.566L174.396 811.305L161.346 718.722L138.686 644.928L103.05 540.512L131.503 537.632L180.248 613.33L244.724 769.04L252.477 802.635L259.533 833.96L268.251 950.001L266.675 961.561Z" fill="#A6DAD7"/>
<path d="M183.034 1073.2L178.952 1095.41L163.177 1101.78L83.742 1063.31L61.6917 1025.98L37.4286 967.922L21.5484 872.026L-4.55556 789.158L-0.34152 626.11L36.7376 616.483L108.984 723.97L111.511 700.795L169.565 874.457L180.124 947.693L183.034 1073.2Z" fill="#80B3B0"/>
<path d="M180.664 1085.71L114.265 1034.89L93.0632 916.33L85.1084 814.587L65.8903 732.758L34.9448 616.76L65.014 615.322L111.516 700.789L169.57 874.451L175.627 911.551L181.092 946.132L183.038 1073.2L180.664 1085.71Z" fill="#A6DAD7"/>
<path d="M48.0663 1169.82L38.6667 1196.81L17.7106 1201.71L-74.185 1138.25L-94.5402 1087.31L-113.653 1010.01L-114.966 887.022L-131.584 778.347L-94.7839 575.272L-46.555 570.404L23.0027 718.787L30.6446 690.295L69.6581 918.685L68.6987 1012.31L48.0663 1169.82Z" fill="#80B3B0"/>
<path d="M42.6807 1185L-30.5217 1108.61L-34.1082 956.254L-24.3806 827.487L-32.5885 721.444L-48.8536 570.404L-10.9743 574.422L30.6483 690.29L69.6618 918.681L70.0609 966.245L70.2075 1010.55L48.0699 1169.81L42.6807 1185Z" fill="#A6DAD7"/>
<path d="M536.573 889.545L532.491 911.757L516.716 918.118L437.281 879.656L415.231 842.327L390.968 784.265L375.087 688.369L348.984 605.501L353.198 442.453L390.277 432.826L462.523 540.313L465.05 517.138L523.104 690.8L533.663 764.036L536.573 889.545Z" fill="#80B3B0"/>
<path d="M534.203 902.052L467.804 851.229L446.602 732.672L438.647 630.93L419.429 549.101L388.484 433.102L418.553 431.665L465.055 517.132L523.109 690.794L529.166 727.893L534.631 762.475L536.577 889.539L534.203 902.052Z" fill="#A6DAD7"/>
<path d="M631.775 763.268L628.379 781.746L615.257 787.037L549.178 755.042L530.835 723.99L510.652 675.69L497.442 595.918L475.727 526.983L479.233 391.351L510.077 383.342L570.176 472.757L572.278 453.478L620.571 597.94L629.354 658.862L631.775 763.268Z" fill="#80B3B0"/>
<path d="M629.81 773.673L574.576 731.395L556.939 632.773L550.321 548.137L534.335 480.067L508.592 383.572L533.606 382.377L572.289 453.473L620.582 597.936L625.62 628.797L630.166 657.564L631.785 763.264L629.81 773.673Z" fill="#A6DAD7"/>
<path d="M756.892 821.809L753.497 840.287L740.375 845.579L674.295 813.583L655.953 782.531L635.769 734.231L622.559 654.459L600.844 585.524L604.35 449.892L635.194 441.883L695.293 531.298L697.395 512.019L745.688 656.481L754.471 717.403L756.892 821.809Z" fill="#80B3B0"/>
<path d="M754.927 832.214L699.693 789.936L682.056 691.314L675.439 606.678L659.452 538.608L633.709 442.113L658.723 440.918L697.406 512.014L745.699 656.477L750.737 687.338L755.283 716.105L756.903 821.805L754.927 832.214Z" fill="#A6DAD7"/>
<path d="M152.833 813.532L152.4 837.55L136.948 846.961L46.9168 820.366L17.3053 785.014L-18.2225 728.286L-51.5114 630.401L-93.2713 547.96L-117.113 376.118L-79.8688 359.588L14.5829 459.867L13.2177 435.107L104.247 607.293L128.022 682.321L152.833 813.532Z" fill="#80B3B0"/>
<path d="M152.516 827.071L74.0246 785.245L31.2225 664.501L5.23744 559.106L-29.1158 476.562L-81.6997 360.191L-50.3927 353.47L13.2243 435.103L104.253 607.289L117.04 645.173L128.77 680.518L152.839 813.528L152.516 827.071Z" fill="#A6DAD7"/>
<path d="M1232.4 1115.32L1235.85 1142.82L1254.73 1151.72L1354.75 1110.14L1384.37 1065.94L1418.16 996.496L1444.31 880.106L1482.08 780.394L1488.31 580.322L1443.55 565.937L1347.52 692.592L1346.04 664.02L1262.78 872.748L1244.73 961.744L1232.4 1115.32Z" fill="#80B3B0"/>
<path d="M1234.44 1130.82L1319.34 1073.18L1353.6 929.398L1370.45 805.292L1399.71 706.372L1445.73 566.404L1408.99 562.543L1346.04 664.015L1262.78 872.743L1252.77 917.777L1243.66 959.768L1232.4 1115.32L1234.44 1130.82Z" fill="#A6DAD7"/>
<path d="M974.142 832.951L977.592 860.452L996.475 869.348L1096.49 827.768L1126.12 783.571L1159.9 714.124L1186.05 597.734L1223.83 498.022L1230.05 297.95L1185.29 283.565L1089.26 410.22L1087.78 381.648L1004.52 590.376L986.472 679.372L974.142 832.951Z" fill="#80B3B0"/>
<path d="M976.18 848.444L1061.09 790.809L1095.34 647.026L1112.2 522.92L1141.46 424L1187.47 284.032L1150.73 280.171L1087.79 381.643L1004.53 590.371L994.515 635.405L985.403 677.395L974.145 832.947L976.18 848.444Z" fill="#A6DAD7"/>
<path d="M882.681 779.738L884.868 797.165L896.834 802.802L960.211 776.454L978.984 748.447L1000.39 704.44L1016.97 630.687L1040.9 567.501L1044.84 440.72L1016.48 431.605L955.63 511.863L954.693 493.757L901.934 626.024L890.495 682.419L882.681 779.738Z" fill="#80B3B0"/>
<path d="M883.974 789.555L937.777 753.033L959.485 661.921L970.164 583.278L988.706 520.595L1017.87 431.9L994.584 429.453L954.696 493.754L901.936 626.02L895.592 654.557L889.819 681.166L882.684 779.735L883.974 789.555Z" fill="#A6DAD7"/>
<path d="M816.103 700.536L818.289 717.963L830.256 723.6L893.633 697.252L912.406 669.245L933.813 625.238L950.387 551.485L974.322 488.299L978.265 361.518L949.902 352.403L889.052 432.661L888.115 414.555L835.355 546.822L823.917 603.216L816.103 700.536Z" fill="#80B3B0"/>
<path d="M817.396 710.353L871.198 673.831L892.907 582.719L903.586 504.076L922.128 441.393L951.288 352.698L928.006 350.251L888.118 414.552L835.358 546.818L829.014 575.355L823.241 601.963L816.106 700.533L817.396 710.353Z" fill="#A6DAD7"/>
<path d="M1146.4 1002.04L1148.93 1035.54L1168.37 1045.68L1274.79 990.895L1307.56 935.675L1345.68 849.408L1377.65 706.025L1421.13 582.583L1435.51 337.631L1389.18 321.793L1283.6 480.474L1283.17 445.585L1187.75 704.148L1165.34 813.708L1146.4 1002.04Z" fill="#80B3B0"/>
<path d="M1147.93 1020.9L1239.15 947.079L1280.68 769.873L1303.21 617.417L1337.75 495.279L1391.45 322.277L1353.11 318.997L1283.18 445.578L1187.75 704.142L1175.5 759.616L1164.3 811.332L1146.4 1002.03L1147.93 1020.9Z" fill="#A6DAD7"/>
<path d="M1374.52 1060.73L1378.6 1082.94L1394.38 1089.3L1473.81 1050.84L1495.86 1013.51L1520.13 955.448L1536.01 859.552L1562.11 776.683L1557.9 613.636L1520.82 604.009L1448.57 711.496L1446.04 688.32L1387.99 861.982L1377.43 935.218L1374.52 1060.73Z" fill="#80B3B0"/>
<path d="M1376.89 1073.23L1443.29 1022.41L1464.49 903.855L1472.45 802.112L1491.66 720.284L1522.61 604.285L1492.54 602.848L1446.04 688.315L1387.98 861.977L1381.93 899.076L1376.46 933.658L1374.52 1060.72L1376.89 1073.23Z" fill="#A6DAD7"/>
<path d="M1056.56 980.378L1060.64 1002.59L1076.42 1008.95L1155.85 970.489L1177.9 933.16L1202.17 875.098L1218.05 779.202L1244.15 696.334L1239.94 533.286L1202.86 523.659L1130.61 631.146L1128.08 607.971L1070.03 781.633L1059.47 854.869L1056.56 980.378Z" fill="#80B3B0"/>
<path d="M1058.93 992.885L1125.33 942.062L1146.53 823.505L1154.49 721.763L1173.7 639.934L1204.65 523.935L1174.58 522.498L1128.08 607.965L1070.02 781.627L1063.97 818.726L1058.5 853.308L1056.56 980.372L1058.93 992.885Z" fill="#A6DAD7"/>
<path d="M1506.46 1211.14L1515.86 1238.13L1536.82 1243.03L1628.72 1179.58L1649.07 1128.63L1668.18 1051.33L1669.5 928.345L1686.12 819.67L1649.32 616.595L1601.09 611.727L1531.53 760.11L1523.89 731.618L1484.87 960.008L1485.83 1053.63L1506.46 1211.14Z" fill="#80B3B0"/>
<path d="M1511.85 1226.33L1585.05 1149.93L1588.64 997.577L1578.91 868.811L1587.12 762.768L1603.38 611.728L1565.51 615.745L1523.88 731.614L1484.87 960.004L1484.47 1007.57L1484.32 1051.87L1506.46 1211.14L1511.85 1226.33Z" fill="#A6DAD7"/>
<path d="M1134.56 2414.19L1138.01 2386.69L1156.89 2377.79L1256.91 2419.37L1286.53 2463.57L1320.31 2533.02L1346.47 2649.41L1384.24 2749.12L1390.46 2949.19L1345.7 2963.58L1249.68 2836.92L1248.2 2865.49L1164.94 2656.76L1146.89 2567.77L1134.56 2414.19Z" fill="#80B3B0"/>
<path d="M1136.59 2398.7L1221.5 2456.33L1255.76 2600.11L1272.61 2724.22L1301.87 2823.14L1347.89 2963.11L1311.15 2966.97L1248.2 2865.5L1164.94 2656.77L1154.93 2611.74L1145.82 2569.75L1134.56 2414.19L1136.59 2398.7Z" fill="#B6F7F3"/>
<path d="M1288.58 2436.8L1292.66 2414.59L1308.43 2408.22L1387.87 2446.69L1409.92 2484.02L1434.18 2542.08L1450.06 2637.97L1476.16 2720.84L1471.95 2883.89L1434.87 2893.52L1362.63 2786.03L1360.1 2809.2L1302.04 2635.54L1291.49 2562.31L1288.58 2436.8Z" fill="#80B3B0"/>
<path d="M1290.95 2424.29L1357.34 2475.11L1378.55 2593.67L1386.5 2695.41L1405.72 2777.24L1436.66 2893.24L1406.6 2894.68L1360.09 2809.21L1302.04 2635.55L1295.98 2598.45L1290.52 2563.87L1288.57 2436.8L1290.95 2424.29Z" fill="#B6F7F3"/>
<path d="M1423.54 2340.18L1432.94 2313.19L1453.9 2308.29L1545.79 2371.75L1566.15 2422.69L1585.26 2499.99L1586.58 2622.98L1603.19 2731.65L1566.39 2934.73L1518.16 2939.6L1448.61 2791.21L1440.96 2819.7L1401.95 2591.31L1402.91 2497.69L1423.54 2340.18Z" fill="#79A7A4"/>
<path d="M1428.93 2325L1502.13 2401.39L1505.72 2553.75L1495.99 2682.51L1504.2 2788.56L1520.46 2939.6L1482.58 2935.58L1440.96 2819.71L1401.95 2591.32L1401.55 2543.76L1401.4 2499.45L1423.54 2340.19L1428.93 2325Z" fill="#B6F7F3"/>
<path d="M928.095 2395.41L931.545 2367.91L950.428 2359.02L1050.44 2400.59L1080.07 2444.79L1113.85 2514.24L1140.01 2630.63L1177.78 2730.34L1184 2930.41L1139.24 2944.8L1043.21 2818.14L1041.74 2846.72L958.476 2637.99L940.425 2548.99L928.095 2395.41Z" fill="#80B3B0"/>
<path d="M930.134 2379.92L1015.04 2437.55L1049.3 2581.34L1066.15 2705.44L1095.41 2804.36L1141.43 2944.33L1104.69 2948.19L1041.74 2846.72L958.479 2637.99L948.468 2592.96L939.357 2550.97L928.098 2395.42L930.134 2379.92Z" fill="#B6F7F3"/>
<path d="M935.037 2620.46L939.118 2598.24L954.893 2591.88L1034.33 2630.34L1056.38 2667.67L1080.64 2725.73L1096.52 2821.63L1122.63 2904.5L1118.41 3067.55L1081.33 3077.17L1009.09 2969.69L1006.56 2992.86L948.505 2819.2L937.947 2745.96L935.037 2620.46Z" fill="#80B3B0"/>
<path d="M937.407 2607.95L1003.8 2658.77L1025.01 2777.33L1032.96 2879.07L1052.18 2960.9L1083.13 3076.9L1053.06 3078.33L1006.55 2992.87L948.5 2819.21L942.444 2782.11L936.979 2747.52L935.032 2620.46L937.407 2607.95Z" fill="#B6F7F3"/>
<path d="M839.834 2746.73L843.23 2728.25L856.352 2722.96L922.431 2754.96L940.774 2786.01L960.957 2834.31L974.168 2914.08L995.882 2983.02L992.377 3118.65L961.532 3126.66L901.433 3037.24L899.331 3056.52L851.038 2912.06L842.255 2851.14L839.834 2746.73Z" fill="#80B3B0"/>
<path d="M841.799 2736.33L897.033 2778.61L914.671 2877.23L921.288 2961.86L937.275 3029.93L963.017 3126.43L938.004 3127.62L899.321 3056.53L851.028 2912.06L845.99 2881.2L841.443 2852.44L839.824 2746.74L841.799 2736.33Z" fill="#B6F7F3"/>
<path d="M714.717 2688.19L718.113 2669.71L731.235 2664.42L797.314 2696.42L815.657 2727.47L835.84 2775.77L849.05 2855.54L870.765 2924.48L867.26 3060.11L836.415 3068.12L776.316 2978.7L774.214 2997.98L725.921 2853.52L717.138 2792.6L714.717 2688.19Z" fill="#80B3B0"/>
<path d="M716.682 2677.79L771.916 2720.06L789.553 2818.69L796.171 2903.32L812.158 2971.39L837.9 3067.89L812.887 3069.08L774.204 2997.99L725.911 2853.52L720.872 2822.66L716.326 2793.89L714.707 2688.2L716.682 2677.79Z" fill="#B6F7F3"/>
<path d="M1070 2523.84L1079.4 2496.85L1100.36 2491.95L1192.26 2555.4L1212.61 2606.35L1231.72 2683.65L1233.04 2806.63L1249.65 2915.31L1212.85 3118.38L1164.63 3123.25L1095.07 2974.87L1087.43 3003.36L1048.41 2774.97L1049.37 2681.35L1070 2523.84Z" fill="#80B3B0"/>
<path d="M1075.39 2508.65L1148.59 2585.05L1152.18 2737.4L1142.45 2866.17L1150.66 2972.21L1166.92 3123.25L1129.04 3119.23L1087.42 3003.37L1048.41 2774.98L1048.01 2727.41L1047.86 2683.11L1070 2523.84L1075.39 2508.65Z" fill="#B6F7F3"/>
<path d="M1223.82 2575.45L1233.22 2550.66L1254.17 2546.16L1346.07 2604.44L1366.42 2651.23L1385.54 2722.22L1386.85 2835.18L1403.47 2934.99L1366.67 3121.5L1318.44 3125.97L1248.88 2989.69L1241.24 3015.86L1202.22 2806.1L1203.18 2720.11L1223.82 2575.45Z" fill="#80B3B0"/>
<path d="M1229.2 2561.5L1302.4 2631.67L1305.99 2771.59L1296.26 2889.86L1304.47 2987.25L1320.74 3125.97L1282.86 3122.28L1241.23 3015.86L1202.22 2806.1L1201.82 2762.42L1201.68 2721.73L1223.81 2575.45L1229.2 2561.5Z" fill="#B6F7F3"/>
<path d="M1318.78 2696.47L1319.21 2672.45L1334.66 2663.04L1424.69 2689.63L1454.3 2724.99L1489.83 2781.71L1523.12 2879.6L1564.88 2962.04L1588.72 3133.88L1551.48 3150.41L1457.03 3050.13L1458.39 3074.89L1367.36 2902.71L1343.59 2827.68L1318.78 2696.47Z" fill="#80B3B0"/>
<path d="M1319.09 2682.93L1397.58 2724.76L1440.39 2845.5L1466.37 2950.89L1500.73 3033.44L1553.31 3149.81L1522 3156.53L1458.39 3074.9L1367.36 2902.71L1354.57 2864.83L1342.84 2829.48L1318.77 2696.47L1319.09 2682.93Z" fill="#B6F7F3"/>
<path d="M239.21 2394.68L235.76 2367.18L216.876 2358.28L116.86 2399.86L87.2361 2444.06L53.4525 2513.5L27.298 2629.89L-10.4735 2729.61L-16.6967 2929.68L28.0629 2944.06L124.09 2817.41L125.568 2845.98L208.828 2637.25L226.879 2548.26L239.21 2394.68Z" fill="#79A7A5"/>
<path d="M237.171 2379.18L152.266 2436.82L118.008 2580.6L101.156 2704.71L71.8944 2803.63L25.8771 2943.6L62.6195 2947.46L125.565 2845.98L208.825 2637.26L218.837 2592.22L227.948 2550.23L239.207 2394.68L237.171 2379.18Z" fill="#B6F7F3"/>
<path d="M497.468 2677.05L494.018 2649.55L475.134 2640.65L375.118 2682.23L345.494 2726.43L311.71 2795.88L285.556 2912.27L247.784 3011.98L241.561 3212.05L286.321 3226.43L382.348 3099.78L383.826 3128.35L467.086 2919.62L485.137 2830.63L497.468 2677.05Z" fill="#80B3B0"/>
<path d="M495.429 2661.56L410.524 2719.19L376.266 2862.97L359.414 2987.08L330.152 3086L284.135 3225.97L320.877 3229.83L383.823 3128.36L467.083 2919.63L477.095 2874.59L486.206 2832.6L497.465 2677.05L495.429 2661.56Z" fill="#B6F7F3"/>
<path d="M119.962 1615.71L137.991 1606.84L150.904 1614.73L165.583 1691.87L150.625 1727.42L122.033 1775.56L61.9747 1837.78L16.6447 1900.39L-102.032 1983.89L-128.581 1962.52L-90.1518 1853.89L-108.043 1864.38L-14.8255 1730.78L31.8738 1684.38L119.962 1615.71Z" fill="#83B5B2"/>
<path d="M130.15 1610.77L129.085 1685.15L55.6677 1763.2L-12.771 1822.86L-61.0122 1880.01L-127.433 1963.65L-144.414 1942.94L-108.051 1864.38L-14.8335 1730.78L8.44774 1706.77L30.2446 1684.52L119.954 1615.71L130.15 1610.77Z" fill="#B6F7F3"/>
<path d="M588.928 2730.26L586.742 2712.84L574.776 2707.2L511.398 2733.55L492.626 2761.55L471.218 2805.56L454.644 2879.31L430.709 2942.5L426.766 3069.28L455.129 3078.4L515.979 2998.14L516.916 3016.24L569.676 2883.98L581.114 2827.58L588.928 2730.26Z" fill="#80B3B0"/>
<path d="M587.635 2720.44L533.833 2756.97L512.124 2848.08L501.446 2926.72L482.903 2989.41L453.743 3078.1L477.026 3080.55L516.913 3016.25L569.673 2883.98L576.017 2855.44L581.791 2828.83L588.925 2730.27L587.635 2720.44Z" fill="#B6F7F3"/>
<path d="M655.506 2809.46L653.32 2792.04L641.354 2786.4L577.976 2812.75L559.204 2840.76L537.796 2884.76L521.222 2958.52L497.287 3021.7L493.344 3148.48L521.707 3157.6L582.558 3077.34L583.494 3095.44L636.254 2963.18L647.693 2906.78L655.506 2809.46Z" fill="#80B3B0"/>
<path d="M654.213 2799.65L600.411 2836.17L578.703 2927.28L568.024 3005.92L549.481 3068.61L520.321 3157.3L543.604 3159.75L583.491 3095.45L636.251 2963.18L642.595 2934.64L648.369 2908.04L655.503 2809.47L654.213 2799.65Z" fill="#B6F7F3"/>
<path d="M325.211 2507.96L322.676 2474.46L303.241 2464.32L196.823 2519.1L164.051 2574.33L125.931 2660.59L93.9611 2803.98L50.475 2927.42L36.1036 3172.37L82.4336 3188.21L188.012 3029.53L188.439 3064.42L283.861 2805.85L306.266 2696.29L325.211 2507.96Z" fill="#80B3B0"/>
<path d="M323.68 2489.1L232.463 2562.92L190.929 2740.13L168.403 2892.58L133.864 3014.72L80.1586 3187.72L118.502 3191L188.432 3064.42L283.855 2805.86L296.111 2750.38L307.305 2698.67L325.205 2507.97L323.68 2489.1Z" fill="#B6F7F3"/>
<path d="M97.0883 2449.27L93.0065 2427.06L77.2321 2420.7L-2.20336 2459.16L-24.2536 2496.49L-48.5167 2554.55L-64.3969 2650.45L-90.5009 2733.32L-86.2868 2896.36L-49.2077 2905.99L23.0386 2798.5L25.5658 2821.68L83.6201 2648.02L94.1783 2574.78L97.0883 2449.27Z" fill="#79A7A5"/>
<path d="M94.7183 2436.77L28.3201 2487.59L7.11793 2606.15L-0.836947 2707.89L-20.0551 2789.72L-51.0005 2905.72L-20.9314 2907.15L25.5705 2821.69L83.6248 2648.02L89.6812 2610.92L95.1463 2576.34L97.093 2449.28L94.7183 2436.77Z" fill="#B6F7F3"/>
<path d="M415.049 2529.62L410.967 2507.41L395.193 2501.05L315.758 2539.51L293.707 2576.84L269.444 2634.9L253.564 2730.8L227.46 2813.67L231.674 2976.71L268.753 2986.34L341 2878.85L343.527 2902.03L401.581 2728.37L412.139 2655.13L415.049 2529.62Z" fill="#80B3B0"/>
<path d="M412.679 2517.12L346.281 2567.94L325.079 2686.49L317.124 2788.24L297.906 2870.07L266.96 2986.06L297.03 2987.5L343.531 2902.04L401.586 2728.37L407.642 2691.27L413.107 2656.69L415.054 2529.63L412.679 2517.12Z" fill="#B6F7F3"/>
<path d="M-34.8556 2298.86L-44.2552 2271.87L-65.2112 2266.97L-157.107 2330.42L-177.462 2381.37L-196.575 2458.67L-197.888 2581.66L-214.506 2690.33L-177.706 2893.4L-129.477 2898.27L-59.9192 2749.89L-52.2773 2778.38L-13.2638 2549.99L-14.2232 2456.37L-34.8556 2298.86Z" fill="#80B3B0"/>
<path d="M-40.2412 2283.67L-113.444 2360.07L-117.03 2512.42L-107.302 2641.19L-115.51 2747.23L-131.775 2898.27L-93.8962 2894.25L-52.2736 2778.39L-13.2601 2550L-12.861 2502.43L-12.7144 2458.13L-34.8519 2298.86L-40.2412 2283.67Z" fill="#B6F7F3"/>
<path d="M370.054 941.811L366.604 969.311L347.72 978.207L247.704 936.628L218.08 892.43L184.296 822.983L158.142 706.594L120.37 606.881L114.147 406.81L158.907 392.425L254.934 519.08L256.412 490.507L339.672 699.235L357.723 788.231L370.054 941.811Z" fill="#80B3B0"/>
<path d="M368.015 957.303L283.11 899.668L248.852 755.886L232 631.779L202.738 532.859L156.721 392.891L193.463 389.03L256.409 490.503L339.669 699.231L349.681 744.265L358.792 786.255L370.051 941.806L368.015 957.303Z" fill="#98C8C6"/>
<path d="M216.034 919.202L211.952 941.414L196.177 947.776L116.742 909.313L94.6917 871.984L70.4286 813.922L54.5484 718.026L28.4444 635.158L32.6585 472.11L69.7376 462.483L141.984 569.97L144.511 546.795L202.565 720.457L213.124 793.693L216.034 919.202Z" fill="#80B3B0"/>
<path d="M213.664 931.709L147.265 880.886L126.063 762.33L118.108 660.587L98.8903 578.758L67.9448 462.76L98.014 461.322L144.516 546.789L202.57 720.451L208.627 757.551L214.092 792.132L216.038 919.196L213.664 931.709Z" fill="#98C8C6"/>
<path d="M81.0663 1015.82L71.6667 1042.81L50.7106 1047.71L-41.185 984.252L-61.5402 933.309L-80.6529 856.01L-81.9664 733.022L-98.584 624.347L-61.7839 421.272L-13.555 416.404L56.0027 564.787L63.6446 536.295L102.658 764.685L101.699 858.308L81.0663 1015.82Z" fill="#80B3B0"/>
<path d="M75.6807 1031L2.47828 954.609L-1.10823 802.254L8.61942 673.487L0.411484 567.444L-15.8536 416.404L22.0257 420.422L63.6483 536.29L102.662 764.681L103.061 812.245L103.207 856.546L81.0699 1015.81L75.6807 1031Z" fill="#98C8C6"/>
<path d="M576.515 960.588L573.065 988.089L554.181 996.985L454.165 955.405L424.541 911.208L390.757 841.761L364.603 725.371L326.831 625.658L320.608 425.587L365.368 411.202L461.395 537.857L462.873 509.284L546.133 718.013L564.184 807.009L576.515 960.588Z" fill="#80B3B0"/>
<path d="M574.476 976.081L489.571 918.446L455.313 774.663L438.461 650.557L409.199 551.637L363.182 411.668L399.924 407.808L462.87 509.28L546.13 718.008L556.141 763.042L565.253 805.032L576.512 960.583L574.476 976.081Z" fill="#98C8C6"/>
<path d="M569.573 735.545L565.491 757.757L549.716 764.118L470.281 725.656L448.231 688.327L423.968 630.265L408.087 534.369L381.984 451.501L386.198 288.453L423.277 278.826L495.523 386.313L498.05 363.138L556.104 536.8L566.663 610.036L569.573 735.545Z" fill="#80B3B0"/>
<path d="M567.203 748.052L500.804 697.229L479.602 578.672L471.647 476.93L452.429 395.101L421.484 279.102L451.553 277.665L498.055 363.132L556.109 536.794L562.166 573.893L567.631 608.475L569.577 735.539L567.203 748.052Z" fill="#98C8C6"/>
<path d="M664.775 609.268L661.379 627.746L648.257 633.037L582.178 601.042L563.835 569.99L543.652 521.69L530.442 441.918L508.727 372.983L512.233 237.351L543.077 229.342L603.176 318.757L605.278 299.478L653.571 443.94L662.354 504.862L664.775 609.268Z" fill="#80B3B0"/>
<path d="M662.81 619.673L607.576 577.395L589.939 478.773L583.321 394.137L567.335 326.067L541.592 229.572L566.606 228.377L605.289 299.473L653.582 443.936L658.62 474.797L663.166 503.564L664.785 609.264L662.81 619.673Z" fill="#98C8C6"/>
<path d="M789.892 667.809L786.497 686.287L773.375 691.579L707.295 659.583L688.953 628.531L668.769 580.231L655.559 500.459L633.844 431.524L637.35 295.892L668.194 287.883L728.293 377.298L730.395 358.019L778.688 502.481L787.471 563.403L789.892 667.809Z" fill="#80B3B0"/>
<path d="M787.927 678.214L732.693 635.936L715.056 537.314L708.439 452.678L692.452 384.608L666.709 288.113L691.723 286.918L730.406 358.014L778.699 502.477L783.737 533.338L788.283 562.105L789.903 667.805L787.927 678.214Z" fill="#98C8C6"/>
<path d="M415.957 870.604L406.557 897.59L385.601 902.495L293.706 839.036L273.35 788.093L254.238 710.795L252.924 587.806L236.307 479.131L273.107 276.056L321.336 271.188L390.893 419.571L398.535 391.079L437.549 619.469L436.589 713.092L415.957 870.604Z" fill="#80B3B0"/>
<path d="M410.571 885.787L337.369 809.393L333.782 657.038L343.51 528.271L335.302 422.229L319.037 271.188L356.916 275.206L398.539 391.075L437.552 619.465L437.952 667.029L438.098 711.33L415.961 870.599L410.571 885.787Z" fill="#9AD7D4"/>
<path d="M262.144 818.991L252.745 843.777L231.789 848.281L139.893 789.999L119.538 743.211L100.425 672.218L99.1117 559.261L82.4941 459.452L119.294 272.941L167.523 268.47L237.081 404.75L244.723 378.582L283.736 588.342L282.777 674.328L262.144 818.991Z" fill="#80B3B0"/>
<path d="M256.759 832.936L183.556 762.773L179.97 622.846L189.698 504.582L181.49 407.189L165.225 268.47L203.104 272.159L244.726 378.577L283.74 588.337L284.139 632.021L284.286 672.709L262.148 818.986L256.759 832.936Z" fill="#9AD7D4"/>
<path d="M185.833 659.532L185.4 683.55L169.948 692.961L79.9168 666.366L50.3053 631.014L14.7775 574.286L-18.5114 476.401L-60.2713 393.96L-84.1127 222.118L-46.8688 205.588L47.5829 305.867L46.2177 281.107L137.247 453.293L161.022 528.321L185.833 659.532Z" fill="#80B3B0"/>
<path d="M185.516 673.071L107.025 631.245L64.2225 510.501L38.2374 405.106L3.88415 322.562L-48.6997 206.191L-17.3927 199.47L46.2243 281.103L137.253 453.289L150.04 491.173L161.77 526.518L185.839 659.528L185.516 673.071Z" fill="#98C8C6"/>
<path d="M1265.4 961.323L1268.85 988.824L1287.73 997.72L1387.75 956.14L1417.37 911.943L1451.16 842.496L1477.31 726.106L1515.08 626.394L1521.31 426.322L1476.55 411.937L1380.52 538.592L1379.04 510.02L1295.78 718.748L1277.73 807.744L1265.4 961.323Z" fill="#80B3B0"/>
<path d="M1267.44 976.816L1352.34 919.181L1386.6 775.398L1403.45 651.292L1432.71 552.372L1478.73 412.404L1441.99 408.543L1379.04 510.015L1295.78 718.743L1285.77 763.777L1276.66 805.768L1265.4 961.319L1267.44 976.816Z" fill="#98C8C6"/>
<path d="M1007.14 678.951L1010.59 706.452L1029.48 715.348L1129.49 673.768L1159.12 629.571L1192.9 560.124L1219.05 443.734L1256.83 344.022L1263.05 143.95L1218.29 129.565L1122.26 256.22L1120.78 227.648L1037.52 436.376L1019.47 525.372L1007.14 678.951Z" fill="#80B3B0"/>
<path d="M1009.18 694.444L1094.09 636.809L1128.34 493.026L1145.2 368.92L1174.46 270L1220.47 130.032L1183.73 126.171L1120.79 227.643L1037.53 436.371L1027.51 481.405L1018.4 523.395L1007.14 678.947L1009.18 694.444Z" fill="#98C8C6"/>
<path d="M915.681 625.738L917.868 643.165L929.834 648.802L993.211 622.454L1011.98 594.447L1033.39 550.44L1049.97 476.687L1073.9 413.501L1077.84 286.72L1049.48 277.605L988.63 357.863L987.693 339.757L934.934 472.024L923.495 528.419L915.681 625.738Z" fill="#80B3B0"/>
<path d="M916.974 635.555L970.777 599.033L992.485 507.921L1003.16 429.278L1021.71 366.595L1050.87 277.9L1027.58 275.453L987.696 339.754L934.936 472.02L928.592 500.557L922.819 527.166L915.684 625.735L916.974 635.555Z" fill="#98C8C6"/>
<path d="M849.103 546.536L851.289 563.963L863.256 569.6L926.633 543.252L945.406 515.245L966.813 471.238L983.387 397.485L1007.32 334.299L1011.27 207.518L982.902 198.403L922.052 278.661L921.115 260.555L868.355 392.822L856.917 449.216L849.103 546.536Z" fill="#80B3B0"/>
<path d="M850.396 556.353L904.198 519.831L925.907 428.719L936.586 350.076L955.128 287.393L984.288 198.698L961.006 196.251L921.118 260.552L868.358 392.818L862.014 421.355L856.241 447.963L849.106 546.533L850.396 556.353Z" fill="#98C8C6"/>
<path d="M1179.4 848.036L1181.93 881.537L1201.37 891.676L1307.79 836.895L1340.56 781.675L1378.68 695.408L1410.65 552.025L1454.13 428.583L1468.51 183.631L1422.18 167.793L1316.6 326.474L1316.17 291.585L1220.75 550.148L1198.34 659.708L1179.4 848.036Z" fill="#80B3B0"/>
<path d="M1180.93 866.904L1272.15 793.079L1313.68 615.873L1336.21 463.417L1370.75 341.279L1424.45 168.277L1386.11 164.997L1316.18 291.578L1220.75 550.142L1208.5 605.616L1197.3 657.332L1179.4 848.029L1180.93 866.904Z" fill="#98C8C6"/>
<path d="M1407.52 906.727L1411.6 928.94L1427.38 935.301L1506.81 896.838L1528.86 859.51L1553.13 801.448L1569.01 705.552L1595.11 622.683L1590.9 459.636L1553.82 450.009L1481.57 557.496L1479.04 534.32L1420.99 707.982L1410.43 781.218L1407.52 906.727Z" fill="#80B3B0"/>
<path d="M1409.89 919.234L1476.29 868.411L1497.49 749.855L1505.45 648.112L1524.66 566.284L1555.61 450.285L1525.54 448.848L1479.04 534.315L1420.98 707.977L1414.93 745.076L1409.46 779.658L1407.52 906.722L1409.89 919.234Z" fill="#98C8C6"/>
<path d="M1089.56 826.378L1093.64 848.59L1109.42 854.951L1188.85 816.489L1210.9 779.16L1235.17 721.098L1251.05 625.202L1277.15 542.334L1272.94 379.286L1235.86 369.659L1163.61 477.146L1161.08 453.971L1103.03 627.633L1092.47 700.869L1089.56 826.378Z" fill="#80B3B0"/>
<path d="M1091.93 838.885L1158.33 788.062L1179.53 669.505L1187.49 567.763L1206.7 485.934L1237.65 369.935L1207.58 368.498L1161.08 453.965L1103.02 627.627L1096.97 664.726L1091.5 699.308L1089.56 826.372L1091.93 838.885Z" fill="#98C8C6"/>
<path d="M1539.46 1057.14L1548.86 1084.13L1569.82 1089.03L1661.72 1025.58L1682.07 974.632L1701.18 897.334L1702.5 774.345L1719.12 665.67L1682.32 462.595L1634.09 457.727L1564.53 606.11L1556.89 577.618L1517.87 806.008L1518.83 899.631L1539.46 1057.14Z" fill="#80B3B0"/>
<path d="M1544.85 1072.33L1618.05 995.932L1621.64 843.577L1611.91 714.811L1620.12 608.768L1636.38 457.728L1598.51 461.745L1556.88 577.614L1517.87 806.004L1517.47 853.568L1517.32 897.869L1539.46 1057.14L1544.85 1072.33Z" fill="#98C8C6"/>
<path d="M387.764 737.732L384.758 761.691L368.307 769.441L281.174 733.217L255.366 694.713L225.934 634.211L203.149 532.814L170.242 445.945L164.821 271.645L203.815 259.113L287.473 369.454L288.761 344.562L361.296 526.403L377.022 603.936L387.764 737.732Z" fill="#84BCB9"/>
<path d="M385.989 751.229L312.021 701.018L282.176 575.756L267.494 467.636L242.002 381.458L201.912 259.519L233.921 256.156L288.759 344.557L361.294 526.399L370.016 565.632L377.954 602.213L387.762 737.728L385.989 751.229Z" fill="#A6E3DF"/>
<path d="M253.586 718.035L250.03 737.386L236.287 742.928L167.084 709.42L147.874 676.9L126.736 626.317L112.901 542.773L90.16 470.579L93.8312 328.534L126.134 320.147L189.074 413.788L191.276 393.598L241.852 544.89L251.051 608.693L253.586 718.035Z" fill="#84BCB9"/>
<path d="M251.523 728.932L193.677 684.655L175.206 581.37L168.276 492.733L151.533 421.445L124.574 320.388L150.77 319.136L191.282 393.594L241.858 544.886L247.134 577.207L251.895 607.334L253.591 718.031L251.523 728.932Z" fill="#B6F7F3"/>
<path d="M136.003 802.208L127.815 825.719L109.558 829.991L29.4993 774.707L11.7661 730.326L-4.88462 662.984L-6.02897 555.838L-20.5061 461.162L11.5538 284.245L53.5703 280.004L114.168 409.274L120.826 384.452L154.814 583.423L153.978 664.986L136.003 802.208Z" fill="#84BCB9"/>
<path d="M131.314 815.435L67.5408 748.882L64.4163 616.152L72.8909 503.972L65.7403 411.588L51.5703 280.004L84.5703 283.504L120.831 384.447L154.82 583.418L155.167 624.856L155.295 663.45L136.009 802.204L131.314 815.435Z" fill="#B6F7F3"/>
<path d="M567.639 754.092L564.633 778.05L548.182 785.8L461.049 749.576L435.241 711.072L405.809 650.57L383.024 549.173L350.117 462.304L344.696 288.005L383.69 275.473L467.348 385.813L468.636 360.921L541.171 542.763L556.897 620.295L567.639 754.092Z" fill="#84BCB9"/>
<path d="M565.864 767.588L491.896 717.378L462.051 592.116L447.369 483.996L421.877 397.818L381.787 275.879L413.796 272.515L468.634 360.917L541.169 542.758L549.891 581.991L557.829 618.573L567.637 754.087L565.864 767.588Z" fill="#B6F7F3"/>
<path d="M561.586 558.035L558.03 577.386L544.287 582.928L475.084 549.42L455.874 516.9L434.736 466.317L420.901 382.773L398.16 310.579L401.831 168.534L434.134 160.147L497.074 253.788L499.276 233.598L549.852 384.89L559.051 448.693L561.586 558.035Z" fill="#84BCB9"/>
<path d="M559.523 568.932L501.677 524.655L483.206 421.37L476.276 332.733L459.533 261.445L432.574 160.388L458.77 159.136L499.282 233.594L549.858 384.886L555.134 417.207L559.895 447.334L561.591 558.031L559.523 568.932Z" fill="#B6F7F3"/>
<path d="M644.53 448.025L641.572 464.123L630.14 468.733L572.573 440.859L556.593 413.807L539.009 371.729L527.501 302.232L508.583 242.177L511.637 124.015L538.508 117.038L590.866 194.935L592.697 178.139L634.77 303.993L642.421 357.068L644.53 448.025Z" fill="#84BCB9"/>
<path d="M642.816 457.09L594.696 420.258L579.331 334.339L573.566 260.606L559.639 201.304L537.212 117.239L559.003 116.197L592.704 178.136L634.776 303.99L639.165 330.876L643.126 355.938L644.537 448.022L642.816 457.09Z" fill="#B6F7F3"/>
<path d="M753.53 499.025L750.572 515.123L739.14 519.733L681.573 491.859L665.593 464.807L648.009 422.729L636.501 353.232L617.583 293.177L620.637 175.015L647.508 168.038L699.866 245.935L701.697 229.139L743.77 354.993L751.421 408.068L753.53 499.025Z" fill="#84BCB9"/>
<path d="M751.816 508.09L703.696 471.258L688.331 385.339L682.566 311.606L668.639 252.304L646.212 168.239L668.003 167.197L701.704 229.136L743.776 354.99L748.165 381.876L752.126 406.938L753.537 499.022L751.816 508.09Z" fill="#B6F7F3"/>
<path d="M444.003 642.208L435.815 665.719L417.558 669.991L337.499 614.707L319.766 570.326L303.115 502.984L301.971 395.838L287.494 301.162L319.554 124.245L361.57 120.004L422.168 249.274L428.826 224.452L462.814 423.423L461.978 504.986L444.003 642.208Z" fill="#84BCB9"/>
<path d="M439.314 655.435L375.541 588.882L372.416 456.152L380.891 343.972L373.74 251.588L359.57 120.004L392.57 123.504L428.831 224.447L462.82 423.418L463.167 464.856L463.295 503.45L444.009 642.204L439.314 655.435Z" fill="#B6F7F3"/>
<path d="M310.003 597.244L301.815 618.837L283.558 622.761L203.499 571.986L185.766 531.225L169.115 469.377L167.971 370.97L153.494 284.017L185.554 121.531L227.57 117.636L288.168 236.361L294.826 213.564L328.814 396.305L327.978 471.215L310.003 597.244Z" fill="#84BCB9"/>
<path d="M305.314 609.393L241.541 548.268L238.416 426.365L246.891 323.335L239.74 238.488L225.57 117.636L258.57 120.851L294.831 213.56L328.82 396.301L329.167 434.359L329.295 469.805L310.009 597.241L305.314 609.393Z" fill="#B6F7F3"/>
<path d="M7.56302 2024.41L20.572 2015.3L31.6099 2019.91L52.391 2078.38L45.0024 2107.95L28.486 2149L-10.9049 2204.85L-38.7458 2259.22L-121.348 2338.77L-144.664 2325.29L-127.77 2235.81L-140.476 2246.16L-83.8091 2130.56L-52.9405 2088.68L7.56302 2024.41Z" fill="#79A7A4"/>
<path d="M14.9246 2019.32L23.0768 2077.54L-24.8365 2147.36L-71.0813 2202.22L-101.856 2252.68L-143.629 2326.03L-159.393 2311.91L-140.481 2246.16L-83.8136 2130.56L-68.5307 2108.99L-54.1947 2088.98L7.55856 2024.41L14.9246 2019.32Z" fill="#B6F7F3"/>
<path d="M122.83 2042.66L140.858 2033.79L153.771 2041.68L168.45 2118.82L153.492 2154.37L124.9 2202.51L64.8419 2264.73L19.5119 2327.34L-99.1645 2410.84L-125.713 2389.47L-87.2846 2280.84L-105.176 2291.33L-11.9583 2157.73L34.741 2111.33L122.83 2042.66Z" fill="#84BCB9"/>
<path d="M133.018 2037.72L131.952 2112.1L58.5349 2190.15L-9.90386 2249.81L-58.145 2306.95L-124.566 2390.6L-141.547 2369.89L-105.184 2291.33L-11.9663 2157.73L11.3149 2133.72L33.1118 2111.47L122.822 2042.66L133.018 2037.72Z" fill="#B6F7F3"/>
<path d="M162.955 1716.71L180.983 1707.84L193.896 1715.73L208.575 1792.87L193.617 1828.42L165.025 1876.56L104.967 1938.78L59.6369 2001.39L-59.0395 2084.89L-85.5883 2063.52L-47.1596 1954.89L-65.0512 1965.38L28.1667 1831.78L74.866 1785.38L162.955 1716.71Z" fill="#84BCB9"/>
<path d="M173.143 1711.77L172.077 1786.15L98.6599 1864.2L30.2211 1923.86L-18.02 1981.01L-84.4412 2064.65L-101.422 2043.94L-65.0591 1965.38L28.1587 1831.78L51.4399 1807.77L73.2368 1785.52L162.947 1716.71L173.143 1711.77Z" fill="#B6F7F3"/>
<path d="M49.9546 1548.71L67.9831 1539.84L80.8958 1547.73L95.5752 1624.87L80.6168 1660.42L52.0254 1708.56L-8.03308 1770.78L-53.3631 1833.39L-172.04 1916.89L-198.588 1895.52L-160.16 1786.89L-178.051 1797.38L-84.8333 1663.78L-38.134 1617.38L49.9546 1548.71Z" fill="#83B5B2"/>
<path d="M60.1426 1543.77L59.0774 1618.15L-14.3401 1696.2L-82.7789 1755.86L-131.02 1813.01L-197.441 1896.65L-214.422 1875.94L-178.059 1797.38L-84.8413 1663.78L-61.5601 1639.77L-39.7632 1617.52L49.9466 1548.71L60.1426 1543.77Z" fill="#B6F7F3"/>
<path d="M174.354 2144.44L191.295 2136.67L204.011 2144.76L221.246 2219.3L208.338 2252.78L182.86 2297.75L127.754 2354.95L86.8001 2413.13L-23.6988 2488.34L-50.0516 2466.76L-17.598 2364.2L-34.3422 2373.53L49.6787 2249.25L92.6079 2206.68L174.354 2144.44Z" fill="#84BCB9"/>
<path d="M183.933 2140.11L185.944 2211.38L118.661 2283.2L55.4078 2337.61L11.4369 2390.42L-48.9021 2467.9L-66.0447 2447.35L-34.3477 2373.53L49.6732 2249.25L71.0391 2227.18L91.052 2206.74L174.348 2144.44L183.933 2140.11Z" fill="#B6F7F3"/>
<path d="M1487.01 1925.41L1474 1916.3L1462.96 1920.91L1442.18 1979.38L1449.57 2008.95L1466.08 2050L1505.48 2105.85L1533.32 2160.22L1615.92 2239.77L1639.23 2226.29L1622.34 2136.81L1635.05 2147.16L1578.38 2031.56L1547.51 1989.68L1487.01 1925.41Z" fill="#79A7A4"/>
<path d="M1479.65 1920.32L1471.49 1978.54L1519.41 2048.36L1565.65 2103.22L1596.43 2153.68L1638.2 2227.03L1653.96 2212.91L1635.05 2147.16L1578.38 2031.56L1563.1 2009.99L1548.77 1989.98L1487.01 1925.41L1479.65 1920.32Z" fill="#B6F7F3"/>
<path d="M1465.22 1746.41L1452.21 1737.3L1441.17 1741.91L1420.39 1800.38L1427.78 1829.95L1444.3 1871L1483.69 1926.85L1511.53 1981.22L1594.13 2060.77L1617.44 2047.29L1600.55 1957.81L1613.26 1968.16L1556.59 1852.56L1525.72 1810.68L1465.22 1746.41Z" fill="#83B5B2"/>
<path d="M1457.86 1741.32L1449.7 1799.54L1497.62 1869.36L1543.86 1924.22L1574.64 1974.68L1616.41 2048.03L1632.17 2033.91L1613.26 1968.16L1556.59 1852.56L1541.31 1830.99L1526.98 1810.98L1465.22 1746.41L1457.86 1741.32Z" fill="#B6F7F3"/>
<path d="M1371.74 1943.66L1353.71 1934.79L1340.8 1942.68L1326.12 2019.82L1341.08 2055.37L1369.67 2103.51L1429.73 2165.73L1475.06 2228.34L1593.73 2311.84L1620.28 2290.47L1581.85 2181.84L1599.75 2192.33L1506.53 2058.73L1459.83 2012.33L1371.74 1943.66Z" fill="#84BCB9"/>
<path d="M1361.55 1938.72L1362.62 2013.1L1436.04 2091.15L1504.47 2150.81L1552.72 2207.95L1619.14 2291.6L1636.12 2270.89L1599.75 2192.33L1506.54 2058.73L1483.26 2034.72L1461.46 2012.47L1371.75 1943.66L1361.55 1938.72Z" fill="#B6F7F3"/>
<path d="M1320.22 2045.43L1303.27 2037.67L1290.56 2045.76L1273.32 2120.3L1286.23 2153.77L1311.71 2198.75L1366.82 2255.95L1407.77 2314.13L1518.27 2389.33L1544.62 2367.76L1512.17 2265.2L1528.91 2274.53L1444.89 2150.25L1401.96 2107.67L1320.22 2045.43Z" fill="#84BCB9"/>
<path d="M1310.64 2041.11L1308.63 2112.37L1375.91 2184.2L1439.16 2238.6L1483.13 2291.42L1543.47 2368.89L1560.62 2348.35L1528.92 2274.52L1444.9 2150.25L1423.53 2128.18L1403.52 2107.74L1320.22 2045.43L1310.64 2041.11Z" fill="#B6F7F3"/>
<path d="M227.281 491.814L226.903 512.738L213.442 520.936L135.008 497.767L109.21 466.969L78.2589 417.549L49.258 332.272L12.8773 260.45L-7.89314 110.744L24.5534 96.3424L106.839 183.704L105.649 162.134L184.953 312.141L205.666 377.504L227.281 491.814Z" fill="#84BCB9"/>
<path d="M227.002 503.608L158.621 467.17L121.332 361.979L98.6945 270.16L68.7663 198.249L22.9559 96.8677L50.2302 91.0126L105.653 162.13L184.956 312.137L196.096 345.141L206.315 375.933L227.284 491.81L227.002 503.608Z" fill="#B6F7F3"/>
<path d="M1167.79 754.732L1170.8 778.691L1187.25 786.441L1274.38 750.217L1300.19 711.713L1329.62 651.211L1352.41 549.814L1385.31 462.945L1390.73 288.645L1351.74 276.113L1268.08 386.454L1266.79 361.562L1194.26 543.403L1178.53 620.936L1167.79 754.732Z" fill="#84BCB9"/>
<path d="M1169.57 768.229L1243.53 718.018L1273.38 592.756L1288.06 484.636L1313.55 398.458L1353.64 276.519L1321.63 273.156L1266.8 361.557L1194.26 543.399L1185.54 582.632L1177.6 619.213L1167.79 754.728L1169.57 768.229Z" fill="#B6F7F3"/>
<path d="M942.791 508.732L945.796 532.691L962.248 540.441L1049.38 504.217L1075.19 465.713L1104.62 405.211L1127.41 303.814L1160.31 216.945L1165.73 42.6453L1126.74 30.1132L1043.08 140.454L1041.79 115.562L969.259 297.403L953.533 374.936L942.791 508.732Z" fill="#84BCB9"/>
<path d="M944.566 522.229L1018.53 472.018L1048.38 346.756L1063.06 238.636L1088.55 152.458L1128.64 30.5194L1096.63 27.1558L1041.8 115.557L969.261 297.399L960.539 336.632L952.601 373.213L942.792 508.728L944.566 522.229Z" fill="#B6F7F3"/>
<path d="M863.118 462.373L865.022 477.555L875.447 482.466L930.661 459.512L947.015 435.112L965.665 396.774L980.104 332.521L1000.96 277.474L1004.39 167.024L979.682 159.083L926.67 229.003L925.854 213.23L879.89 328.458L869.925 377.589L863.118 462.373Z" fill="#84BCB9"/>
<path d="M864.239 470.925L911.111 439.108L930.023 359.732L939.326 291.219L955.48 236.61L980.884 159.34L960.601 157.208L925.851 213.226L879.887 328.455L874.361 353.316L869.331 376.497L863.115 462.37L864.239 470.925Z" fill="#B6F7F3"/>
<path d="M766.416 490.218L768.762 508.925L781.607 514.976L849.641 486.693L869.792 456.629L892.773 409.389L910.564 330.218L936.257 262.39L940.49 126.297L910.043 116.512L844.723 202.666L843.717 183.23L787.082 325.212L774.803 385.75L766.416 490.218Z" fill="#84BCB9"/>
<path d="M767.794 500.757L825.549 461.552L848.852 363.747L860.315 279.327L880.22 212.039L911.522 116.829L886.529 114.202L843.711 183.226L787.076 325.209L780.266 355.842L774.068 384.405L766.409 490.215L767.794 500.757Z" fill="#A6E2DF"/>
<path d="M812.984 457.373L811.079 472.555L800.655 477.466L745.441 454.512L729.086 430.112L710.436 391.774L695.998 327.521L675.146 272.474L671.71 162.024L696.42 154.083L749.432 224.003L750.248 208.23L796.212 323.458L806.177 372.589L812.984 457.373Z" fill="#84BCB9"/>
<path d="M811.863 465.925L764.991 434.108L746.078 354.732L736.775 286.219L720.621 231.61L695.217 154.34L715.501 152.208L750.25 208.226L796.214 323.455L801.741 348.316L806.771 371.497L812.986 457.37L811.863 465.925Z" fill="#B6F7F3"/>
<path d="M863.951 351.497L860.177 366.325L849.223 369.904L797.286 340.272L784.088 314.031L770.341 273.674L763.992 208.125L750.136 150.916L760.44 40.894L785.944 36.082L829.865 112.043L832.633 96.4928L863.935 216.537L867.723 266.524L863.951 351.497Z" fill="#84BCB9"/>
<path d="M861.773 359.844L819.214 322.454L810.304 241.344L809.579 172.206L800.33 116.014L784.716 36.1876L805.107 36.591L832.633 96.49L863.935 216.534L866.332 241.889L868.445 265.515L863.951 351.495L861.773 359.844Z" fill="#B6F7F3"/>
<path d="M1092.86 656.037L1095.07 685.223L1112 694.057L1204.71 646.332L1233.26 598.224L1266.47 523.069L1294.32 398.156L1332.21 290.615L1344.73 77.215L1304.37 63.4173L1212.39 201.658L1212.02 171.263L1128.89 396.521L1109.37 491.968L1092.86 656.037Z" fill="#84BCB9"/>
<path d="M1094.2 672.475L1173.66 608.159L1209.85 453.779L1229.47 320.961L1259.56 214.556L1306.35 63.8383L1272.94 60.9804L1212.02 171.257L1128.89 396.515L1118.21 444.843L1108.46 489.898L1092.87 656.031L1094.2 672.475Z" fill="#B6F7F3"/>
<path d="M1291.6 707.168L1295.16 726.519L1308.9 732.061L1378.1 698.552L1397.31 666.032L1418.45 615.449L1432.29 531.906L1455.03 459.712L1451.36 317.666L1419.05 309.28L1356.11 402.921L1353.91 382.731L1303.34 534.023L1294.14 597.826L1291.6 707.168Z" fill="#84BCB9"/>
<path d="M1293.66 718.065L1351.51 673.788L1369.98 570.503L1376.91 481.866L1393.65 410.578L1420.61 309.521L1394.42 308.269L1353.91 382.727L1303.33 534.019L1298.05 566.34L1293.29 596.467L1291.6 707.163L1293.66 718.065Z" fill="#B6F7F3"/>
<path d="M1014.6 637.168L1018.16 656.519L1031.9 662.061L1101.1 628.552L1120.31 596.032L1141.45 545.449L1155.29 461.906L1178.03 389.712L1174.36 247.666L1142.05 239.28L1079.11 332.921L1076.91 312.731L1026.34 464.023L1017.14 527.826L1014.6 637.168Z" fill="#84BCB9"/>
<path d="M1016.66 648.065L1074.51 603.788L1092.98 500.503L1099.91 411.866L1116.65 340.578L1143.61 239.521L1117.42 238.269L1076.91 312.727L1026.33 464.019L1021.05 496.34L1016.29 526.467L1014.6 637.163L1016.66 648.065Z" fill="#B6F7F3"/>
<path d="M1406.55 838.208L1414.74 861.719L1433 865.991L1513.06 810.707L1530.79 766.326L1547.44 698.984L1548.58 591.838L1563.06 497.162L1531 320.245L1488.98 316.004L1428.39 445.274L1421.73 420.452L1387.74 619.423L1388.58 700.986L1406.55 838.208Z" fill="#84BCB9"/>
<path d="M1411.24 851.435L1475.01 784.882L1478.14 652.152L1469.66 539.972L1476.81 447.588L1490.98 316.004L1457.98 319.504L1421.72 420.447L1387.74 619.418L1387.39 660.856L1387.26 699.45L1406.55 838.204L1411.24 851.435Z" fill="#B6F7F3"/>
<ellipse cx="1172.5" cy="2268.5" rx="12.5" ry="6.5" fill="#1B2C2C"/>
<ellipse cx="1201.5" cy="2250.5" rx="8.5" ry="4.5" fill="#1B2C2C"/>
<ellipse cx="1218.5" cy="2272.5" rx="6.5" ry="3.5" fill="#1B2C2C"/>
<ellipse cx="825.5" cy="2354.5" rx="8.5" ry="4.5" fill="#1B2C2C"/>
<ellipse cx="804.5" cy="2364.5" rx="6.5" ry="3.5" fill="#1B2C2C"/>
<ellipse cx="8.5" cy="4.5" rx="8.5" ry="4.5" transform="matrix(-1 0 0 1 1283 1956)" fill="#1B2C2C"/>
<ellipse cx="6.5" cy="3.5" rx="6.5" ry="3.5" transform="matrix(-1 0 0 1 1302 1967)" fill="#1B2C2C"/>
<ellipse cx="12.5" cy="6.5" rx="12.5" ry="6.5" transform="matrix(-1 0 0 1 1006 2210)" fill="#1B2C2C"/>
<ellipse cx="8.5" cy="4.5" rx="8.5" ry="4.5" transform="matrix(-1 0 0 1 973 2194)" fill="#1B2C2C"/>
<ellipse cx="6.5" cy="3.5" rx="6.5" ry="3.5" transform="matrix(-1 0 0 1 954 2217)" fill="#1B2C2C"/>
<path d="M679.314 670.679L707.221 682.672L710.846 705.258L638.164 793.972L465.156 809.475L310.156 772.472L199.232 785.472L75.6562 765.972L47.6562 722.972L43.6562 688.472L199.232 663.374L169.597 653.132L414.675 628.923L513.865 636.973L679.314 670.679Z" fill="#608987"/>
<path d="M711.372 677.46L622.719 749.347L467.156 769.474L311.156 741.733L201.164 752.972L83.164 731.974L43.8075 688.59L172.915 653.143L414.156 619.974L475.793 632.036L523.94 635.201L695.285 670.608L711.372 677.46Z" fill="#D3ECEB"/>
<path d="M312.005 634.001L262 641L391.507 756L465.005 769.001L312.005 634.001Z" fill="#E6FFFD"/>
<path d="M268.5 640L217.5 647L326.504 744.568L405.499 758.501L268.5 640Z" fill="#E6FFFD"/>
<path d="M235.596 687.022L251.846 687.022L251.846 694.422L235.596 694.422L235.596 687.022ZM236.296 700.822L254.596 700.822L254.596 708.472L226.496 708.472L226.496 673.472L253.946 673.472L253.946 681.122L236.296 681.122L236.296 700.822ZM260.09 708.472L260.09 673.472L276.64 673.472C280.507 673.472 283.907 674.188 286.84 675.622C289.773 677.055 292.057 679.072 293.69 681.672C295.357 684.272 296.19 687.372 296.19 690.972C296.19 694.538 295.357 697.638 293.69 700.272C292.057 702.872 289.773 704.888 286.84 706.322C283.907 707.755 280.507 708.472 276.64 708.472L260.09 708.472ZM269.99 700.572L276.24 700.572C278.24 700.572 279.973 700.205 281.44 699.472C282.94 698.705 284.107 697.605 284.94 696.172C285.773 694.705 286.19 692.972 286.19 690.972C286.19 688.938 285.773 687.205 284.94 685.772C284.107 684.338 282.94 683.255 281.44 682.522C279.973 681.755 278.24 681.372 276.24 681.372L269.99 681.372L269.99 700.572ZM317.548 709.172C312.382 709.172 308.348 707.755 305.448 704.922C302.548 702.088 301.098 698.072 301.098 692.872L301.098 673.472L310.998 673.472L310.998 692.572C310.998 695.572 311.582 697.722 312.748 699.022C313.948 700.322 315.582 700.972 317.648 700.972C319.715 700.972 321.332 700.322 322.498 699.022C323.665 697.722 324.248 695.572 324.248 692.572L324.248 673.472L333.998 673.472L333.998 692.872C333.998 698.072 332.548 702.088 329.648 704.922C326.748 707.755 322.715 709.172 317.548 709.172ZM358.155 709.172C355.388 709.172 352.822 708.738 350.455 707.872C348.122 706.972 346.088 705.705 344.355 704.072C342.655 702.438 341.322 700.522 340.355 698.322C339.388 696.088 338.905 693.638 338.905 690.972C338.905 688.305 339.388 685.872 340.355 683.672C341.322 681.438 342.655 679.505 344.355 677.872C346.088 676.238 348.122 674.988 350.455 674.122C352.822 673.222 355.388 672.772 358.155 672.772C361.388 672.772 364.272 673.338 366.805 674.472C369.372 675.605 371.505 677.238 373.205 679.372L366.905 685.072C365.772 683.738 364.522 682.722 363.155 682.022C361.822 681.322 360.322 680.972 358.655 680.972C357.222 680.972 355.905 681.205 354.705 681.672C353.505 682.138 352.472 682.822 351.605 683.722C350.772 684.588 350.105 685.638 349.605 686.872C349.138 688.105 348.905 689.472 348.905 690.972C348.905 692.472 349.138 693.838 349.605 695.072C350.105 696.305 350.772 697.372 351.605 698.272C352.472 699.138 353.505 699.805 354.705 700.272C355.905 700.738 357.222 700.972 358.655 700.972C360.322 700.972 361.822 700.622 363.155 699.922C364.522 699.222 365.772 698.205 366.905 696.872L373.205 702.572C371.505 704.672 369.372 706.305 366.805 707.472C364.272 708.605 361.388 709.172 358.155 709.172ZM372.833 708.472L388.283 673.472L398.033 673.472L413.533 708.472L403.233 708.472L391.133 678.322L395.033 678.322L382.933 708.472L372.833 708.472ZM381.283 701.672L383.833 694.372L400.933 694.372L403.483 701.672L381.283 701.672ZM422.032 708.472L422.032 681.322L411.282 681.322L411.282 673.472L442.632 673.472L442.632 681.322L431.932 681.322L431.932 708.472L422.032 708.472ZM446.32 708.472L446.32 673.472L456.22 673.472L456.22 708.472L446.32 708.472ZM480.914 709.172C478.114 709.172 475.53 708.722 473.164 707.822C470.797 706.922 468.73 705.655 466.964 704.022C465.23 702.355 463.88 700.422 462.914 698.222C461.947 696.022 461.464 693.605 461.464 690.972C461.464 688.338 461.947 685.922 462.914 683.722C463.88 681.522 465.23 679.605 466.964 677.972C468.73 676.305 470.797 675.022 473.164 674.122C475.53 673.222 478.114 672.772 480.914 672.772C483.747 672.772 486.33 673.222 488.664 674.122C491.03 675.022 493.08 676.305 494.814 677.972C496.547 679.605 497.897 681.522 498.864 683.722C499.864 685.922 500.364 688.338 500.364 690.972C500.364 693.605 499.864 696.038 498.864 698.272C497.897 700.472 496.547 702.388 494.814 704.022C493.08 705.655 491.03 706.922 488.664 707.822C486.33 708.722 483.747 709.172 480.914 709.172ZM480.914 700.972C482.247 700.972 483.48 700.738 484.614 700.272C485.78 699.805 486.78 699.138 487.614 698.272C488.48 697.372 489.147 696.305 489.614 695.072C490.114 693.838 490.364 692.472 490.364 690.972C490.364 689.438 490.114 688.072 489.614 686.872C489.147 685.638 488.48 684.588 487.614 683.722C486.78 682.822 485.78 682.138 484.614 681.672C483.48 681.205 482.247 680.972 480.914 680.972C479.58 680.972 478.33 681.205 477.164 681.672C476.03 682.138 475.03 682.822 474.164 683.722C473.33 684.588 472.664 685.638 472.164 686.872C471.697 688.072 471.464 689.438 471.464 690.972C471.464 692.472 471.697 693.838 472.164 695.072C472.664 696.305 473.33 697.372 474.164 698.272C475.03 699.138 476.03 699.805 477.164 700.272C478.33 700.738 479.58 700.972 480.914 700.972ZM505.549 708.472L505.549 673.472L513.699 673.472L532.999 696.772L529.149 696.772L529.149 673.472L538.849 673.472L538.849 708.472L530.699 708.472L511.399 685.172L515.249 685.172L515.249 708.472L505.549 708.472Z" fill="#0D3F41"/>
<path d="M1008.42 1999.07L1209.54 2022.59L1197.11 2038.62L1196.85 2038.95L1196.71 2039.36L1187.51 2066.97L1187.44 2067.18L1187.41 2067.39L1182.81 2098.08L1182.78 2098.26L1182.78 2098.45L1182.78 2123.93L979.207 2094L979.902 2071.78L982.924 2045.34L992.653 2019.14L1008.42 1999.07Z" fill="#3B4339" stroke="#FFB23E" stroke-width="5"/>
<path d="M997.197 2195.19L979.731 2099.13L1182.54 2128.95L1172.35 2221.39L997.197 2195.19Z" fill="#3B4339" stroke="#FFB23E" stroke-width="5"/>
<path d="M1199.67 2040.11L1214.75 2022.15L1221.13 2025.97L1226.73 2032.28L1226.73 2064.97L1186.78 2119.91L1186.78 2098.56L1191.35 2068.09L1199.67 2040.11Z" fill="#3B4339" stroke="#FFB23E" stroke-width="3"/>
<path d="M1176.56 2218.61L1185.19 2124.33L1225.84 2071.07L1210.69 2168.45L1176.56 2218.61Z" fill="#3B4339" stroke="#FFB23E" stroke-width="3"/>
<path d="M1067.14 2086.18L1087.85 2089.24L1083.25 2115.32L1084.02 2138.34L1064.07 2136.03L1061.77 2113.02L1067.14 2086.18Z" fill="#C29641"/>
<ellipse cx="1074.17" cy="2105.93" rx="5.13529" ry="5.45405" transform="rotate(3.11163 1074.17 2105.93)" fill="#52401A"/>
<path d="M1072.2 2110.05L1075.25 2110.32L1075.25 2122.99L1070.21 2122.22L1072.2 2110.05Z" fill="#52401A"/>
<path d="M966.623 2032.87L968.679 2034.9L971.545 2035.46L969.437 2037.57L968.76 2040.46L966.718 2038.42L963.836 2037.85L965.96 2035.74L966.623 2032.87Z" fill="#FFF5BF"/>
<path d="M1026.25 1983.54L1027.52 1984.8L1029.3 1985.15L1027.99 1986.46L1027.57 1988.25L1026.3 1986.99L1024.52 1986.63L1025.83 1985.32L1026.25 1983.54Z" fill="#FFF5BF"/>
<path d="M1066.4 1987.52L1068.9 1989.98L1072.39 1990.66L1069.82 1993.24L1069 1996.75L1066.52 1994.27L1063.02 1993.57L1065.6 1991.01L1066.4 1987.52Z" fill="#FFF5BF"/>
<path d="M1240.25 2022.54L1241.52 2023.8L1243.3 2024.15L1241.99 2025.46L1241.57 2027.25L1240.3 2025.99L1238.52 2025.63L1239.83 2024.32L1240.25 2022.54Z" fill="#FFF5BF"/>
<path d="M1213.25 1985.24L1214.52 1983.99L1216.3 1983.64L1214.99 1982.32L1214.57 1980.53L1213.3 1981.8L1211.52 1982.15L1212.83 1983.46L1213.25 1985.24Z" fill="#FFF5BF"/>
<path d="M1108.25 2000.24L1109.52 1998.99L1111.3 1998.64L1109.99 1997.32L1109.57 1995.53L1108.3 1996.8L1106.52 1997.15L1107.83 1998.46L1108.25 2000.24Z" fill="#FFF5BF"/>
<path d="M1152.25 1976.24L1153.52 1974.99L1155.3 1974.64L1153.99 1973.32L1153.57 1971.53L1152.3 1972.8L1150.52 1973.15L1151.83 1974.46L1152.25 1976.24Z" fill="#FFF5BF"/>
<path d="M1139.25 1993.24L1140.52 1991.99L1142.3 1991.64L1140.99 1990.32L1140.57 1988.53L1139.3 1989.8L1137.52 1990.15L1138.83 1991.46L1139.25 1993.24Z" fill="#FFF5BF"/>
<path d="M1195.25 2007.24L1196.52 2005.99L1198.3 2005.64L1196.99 2004.32L1196.57 2002.53L1195.3 2003.8L1193.52 2004.15L1194.83 2005.46L1195.25 2007.24Z" fill="#FFF5BF"/>
<path d="M1087.25 1976.24L1088.52 1974.99L1090.3 1974.64L1088.99 1973.32L1088.57 1971.53L1087.3 1972.8L1085.52 1973.15L1086.83 1974.46L1087.25 1976.24Z" fill="#FFF5BF"/>
<path d="M1046.19 1975.45L1049.71 1971.99L1054.62 1971.03L1051.01 1967.41L1049.85 1962.46L1046.36 1965.96L1041.43 1966.94L1045.06 1970.54L1046.19 1975.45Z" fill="#FFF5BF"/>
<path d="M1261.93 1986.94L1264.16 1989.14L1267.27 1989.75L1264.99 1992.05L1264.25 1995.18L1262.04 1992.97L1258.91 1992.35L1261.21 1990.06L1261.93 1986.94Z" fill="#FFF5BF"/>
<path d="M1225.93 2167.94L1228.16 2170.14L1231.27 2170.75L1228.99 2173.05L1228.25 2176.18L1226.04 2173.97L1222.91 2173.35L1225.21 2171.06L1225.93 2167.94Z" fill="#FFF5BF"/>
<path d="M1225.25 2142.54L1226.52 2143.8L1228.3 2144.15L1226.99 2145.46L1226.57 2147.25L1225.3 2145.99L1223.52 2145.63L1224.83 2144.32L1225.25 2142.54Z" fill="#FFF5BF"/>
<path d="M1241.25 2179.54L1242.52 2180.8L1244.3 2181.15L1242.99 2182.46L1242.57 2184.25L1241.3 2182.99L1239.52 2182.63L1240.83 2181.32L1241.25 2179.54Z" fill="#FFF5BF"/>
<path d="M973.245 2019.54L974.522 2020.8L976.302 2021.15L974.993 2022.46L974.573 2024.25L973.305 2022.99L971.515 2022.63L972.834 2021.32L973.245 2019.54Z" fill="#FFF5BF"/>
<path d="M978.245 1974.54L979.522 1975.8L981.302 1976.15L979.993 1977.46L979.573 1979.25L978.305 1977.99L976.515 1977.63L977.834 1976.32L978.245 1974.54Z" fill="#FFF5BF"/>
<path d="M1003.37 1995.07L998.97 1990.8L992.971 1991.99L995.66 1986.51L992.671 1981.16L998.728 1982.03L1002.89 1977.54L1003.94 1983.57L1009.5 1986.14L1004.06 1988.99L1003.37 1995.07Z" fill="#FFF5BF"/>
<path d="M973.945 2001.63L971.096 1998.87L967.214 1999.64L968.954 1996.1L967.02 1992.64L970.939 1993.2L973.631 1990.29L974.315 1994.19L977.907 1995.85L974.391 1997.7L973.945 2001.63Z" fill="#FFF5BF"/>
<path d="M1267.94 2032.63L1265.1 2029.87L1261.21 2030.64L1262.95 2027.1L1261.02 2023.64L1264.94 2024.2L1267.63 2021.29L1268.32 2025.19L1271.91 2026.85L1268.39 2028.7L1267.94 2032.63Z" fill="#FFF5BF"/>
<path d="M1239.74 2008.42L1233.8 2002.66L1225.7 2004.27L1229.33 1996.88L1225.3 1989.66L1233.47 1990.84L1239.08 1984.77L1240.51 1992.91L1247.99 1996.37L1240.67 2000.22L1239.74 2008.42Z" fill="#FFF5BF"/>
<path d="M1183.96 2009.47L1180.49 2006.1L1175.76 2007.04L1177.88 2002.71L1175.52 1998.5L1180.3 1999.18L1183.58 1995.63L1184.42 2000.39L1188.79 2002.42L1184.51 2004.67L1183.96 2009.47Z" fill="#FFF5BF"/>
<path d="M1115.45 1977.63L1118.92 1974.26L1123.66 1975.19L1121.54 1970.87L1123.89 1966.65L1119.12 1967.34L1115.83 1963.79L1115 1968.55L1110.62 1970.58L1114.91 1972.83L1115.45 1977.63Z" fill="#FFF5BF"/>
<path d="M1251.68 2159.39L1248.05 2155.86L1243.1 2156.84L1245.32 2152.32L1242.85 2147.91L1247.85 2148.63L1251.28 2144.92L1252.15 2149.9L1256.73 2152.02L1252.25 2154.37L1251.68 2159.39Z" fill="#FFF5BF"/>
<path d="M1076.09 2197.96L1239.14 2197.42L1244.5 2231L1245 2264.5L1076.09 2259L1069.61 2237.02L1076.09 2197.96Z" fill="#E49724"/>
<path d="M1076.23 2195.22C1076.38 2194.24 1077.24 2193.52 1078.24 2193.54L1238.16 2196.8C1239.26 2196.82 1240.14 2197.74 1240.11 2198.85L1239.22 2238.83C1239.19 2239.94 1238.28 2240.81 1237.17 2240.79L1071.9 2237.07C1070.69 2237.05 1069.78 2235.96 1069.97 2234.76L1076.23 2195.22Z" fill="#FFDA40"/>
<path d="M1155.18 2194.93L1186.17 2195.63L1126.2 2238.29L1093.21 2237.55L1155.18 2194.93Z" fill="#FFEFAB"/>
<path d="M1179.18 2195.47L1209.77 2196.16L1150.57 2238.84L1118 2238.11L1179.18 2195.47Z" fill="#FFEFAB"/>
<path d="M1076.09 2197.96L1239.14 2197.42L1244.5 2231L1245 2264.5L1076.09 2259L1069.61 2237.02L1076.09 2197.96Z" fill="#D98D1B"/>
<path d="M1076.23 2195.22C1076.38 2194.24 1077.24 2193.52 1078.24 2193.54L1238.16 2196.8C1239.26 2196.82 1240.14 2197.74 1240.11 2198.85L1239.22 2238.83C1239.19 2239.94 1238.28 2240.81 1237.17 2240.79L1071.9 2237.07C1070.69 2237.05 1069.78 2235.96 1069.97 2234.76L1076.23 2195.22Z" fill="#FFDA40"/>
<path d="M1155.18 2194.93L1186.17 2195.63L1126.2 2238.29L1093.21 2237.55L1155.18 2194.93Z" fill="#FFEFAB"/>
<path d="M1179.18 2195.47L1209.77 2196.16L1150.57 2238.84L1118 2238.11L1179.18 2195.47Z" fill="#FFEFAB"/>
<path d="M1240.14 2198.04L1240.13 2198.04L1245 2231L1245 2264.5L1239.17 2240.83L1240.14 2198.04Z" fill="#B4771C"/>
<path d="M1053.99 2230.27L1203.18 2164.49L1221.54 2193.12L1235.41 2223.61L1078.43 2286.21L1063.69 2268.66L1053.99 2230.27Z" fill="#E49724"/>
<path d="M1053.02 2227.71C1052.76 2226.75 1053.26 2225.74 1054.19 2225.36L1202.03 2164.32C1203.05 2163.9 1204.22 2164.39 1204.64 2165.41L1219.83 2202.41C1220.25 2203.43 1219.76 2204.6 1218.74 2205.02L1065.81 2267.79C1064.69 2268.25 1063.42 2267.62 1063.12 2266.45L1053.02 2227.71Z" fill="#FFDA40"/>
<path d="M1125.25 2195.83L1153.93 2184.06L1116.06 2247.17L1085.53 2259.7L1125.25 2195.83Z" fill="#FFEFAB"/>
<path d="M1147.45 2186.72L1175.76 2175.1L1138.6 2237.92L1108.47 2250.28L1147.45 2186.72Z" fill="#FFEFAB"/>
<path d="M1204.34 2164.66L1204.34 2164.66L1222 2192.92L1235.41 2223.61L1220.59 2204.26L1204.34 2164.66Z" fill="#B4771C"/>
</svg>
