<svg width="1313" height="636" viewBox="0 0 1313 636" fill="none" xmlns="http://www.w3.org/2000/svg">
<path d="M650 549.667L704.464 529L758 540.413L656.189 591L661.14 586.682L663.616 582.055L665.473 576.194L666.092 570.642L664.854 563.547L661.45 555.527L656.499 551.209L650 549.667Z" fill="#5F402C"/>
<path d="M566.952 509.179L625.01 504.418L673.285 530.222L561.442 550.609L567.396 547.832L571.057 544.072L574.466 538.956L576.599 533.793L577.376 526.633L576.328 517.984L572.768 512.462L566.952 509.179Z" fill="#5F402C"/>
<ellipse cx="562.479" cy="530.093" rx="14.5" ry="21" transform="rotate(16.0912 562.479 530.093)" fill="#3E2318"/>
<path d="M858.734 534.416L802.213 520.316L750.396 537.963L857.463 576.191L852.037 572.486L849.033 568.184L846.498 562.583L845.228 557.142L845.621 549.951L848.055 541.586L852.463 536.714L858.734 534.416Z" fill="#5F402C"/>
<ellipse cx="14.5" cy="21" rx="14.5" ry="21" transform="matrix(-0.993022 0.11793 0.11793 0.993022 871.688 533.215)" fill="#3E2318"/>
<path d="M936.252 496.179L878.193 491.418L829.918 517.222L941.761 537.609L935.807 534.832L932.146 531.072L928.738 525.956L926.604 520.793L925.827 513.633L926.875 504.984L930.435 499.462L936.252 496.179Z" fill="#5F402C"/>
<ellipse cx="14.5" cy="21" rx="14.5" ry="21" transform="matrix(-0.960822 0.277167 0.277167 0.960822 948.836 492.896)" fill="#3E2318"/>
<path d="M929 408C929 483.111 842.591 544 736 544C629.409 544 543 483.111 543 408C543 332.889 629.409 272 736 272C842.591 272 929 332.889 929 408Z" fill="#191824"/>
<path d="M717.802 272.866L584.239 324.568L617.395 287.946L617.395 249.75L659.33 268.25L717.802 272.866Z" fill="#191824"/>
<path d="M738.424 274.712L888.249 324.58L855.093 287.958L855.093 249.762L813.158 268.262L738.424 274.712Z" fill="#191824"/>
<path d="M898 389.813C898 453.054 825.246 504.321 735.5 504.321C645.754 504.321 573 453.054 573 389.813C573 326.573 645.754 275.306 735.5 275.306C825.246 275.306 898 326.573 898 389.813Z" fill="#1F1E2E"/>
<path d="M720.182 276.035L607.726 319.566L635.643 288.732L635.643 256.572L670.95 272.149L720.182 276.035Z" fill="#1F1E2E"/>
<path d="M737.544 277.589L863.691 319.576L835.775 288.741L835.775 256.581L800.468 272.158L737.544 277.589Z" fill="#1F1E2E"/>
<ellipse cx="736" cy="227" rx="148" ry="50" fill="#27233C"/>
<ellipse cx="735.5" cy="223" rx="139.5" ry="47" fill="#383450"/>
<ellipse cx="736" cy="226.5" rx="125" ry="30.5" fill="#151420"/>
<ellipse cx="733" cy="200" rx="50" ry="37" fill="#BD7E96"/>
<ellipse cx="797.5" cy="216.5" rx="28.5" ry="27.5" fill="#BD7E96"/>
<path d="M784 228.051C784 238.021 775.493 236.968 765 236.968C754.507 236.968 746 238.021 746 228.051C746 218.082 754.507 210 765 210C775.493 210 784 218.082 784 228.051Z" fill="#BD7E96"/>
<path d="M694 227.174C694 242.182 681.016 240.977 665 240.977C648.984 240.977 636 242.182 636 227.174C636 212.166 648.984 200 665 200C681.016 200 694 212.166 694 227.174Z" fill="#BD7E96"/>
<path d="M847 237.659C847 245.122 797.688 257 738.158 257C678.628 257 625 245.805 625 238.341C625 230.878 677.674 222 737.204 222C796.734 222 847 230.195 847 237.659Z" fill="#BD7E96"/>
<ellipse cx="653.5" cy="570" rx="14.5" ry="21" fill="#3E2318"/>
<circle cx="907.405" cy="139.405" r="23.4053" fill="#E28EAE"/>
<path d="M924.767 150.873C920.943 155.89 916.006 158.558 913.741 156.831C911.475 155.104 917.663 153.391 921.487 148.373C925.311 143.356 925.322 136.934 927.588 138.661C929.854 140.388 928.591 145.856 924.767 150.873Z" fill="#D3E8E8"/>
<path d="M889.63 130.069C892.738 124.58 897.268 121.268 899.747 122.672C902.226 124.076 896.327 126.612 893.218 132.102C890.11 137.591 890.969 143.955 888.49 142.551C886.011 141.147 886.521 135.559 889.63 130.069Z" fill="#D3E8E8"/>
<path d="M709.966 173.144C720.84 167.584 731.253 166.204 733.225 170.06C735.196 173.917 723.694 173.166 712.82 178.726C701.946 184.285 695.819 194.048 693.848 190.192C691.876 186.336 699.093 178.703 709.966 173.144Z" fill="#D3E8E8"/>
<path d="M646.448 211.818C650.694 207.069 655.874 204.774 658.019 206.691C660.163 208.608 653.798 209.844 649.552 214.593C645.307 219.342 644.788 225.805 642.644 223.888C640.499 221.971 642.202 216.567 646.448 211.818Z" fill="#D3E8E8"/>
<path d="M817.169 200.905C813.121 195.987 808.039 193.483 805.817 195.311C803.596 197.139 809.906 198.634 813.954 203.552C818.003 208.47 818.257 214.949 820.478 213.121C822.699 211.293 821.218 205.823 817.169 200.905Z" fill="#D3E8E8"/>
<circle cx="905.333" cy="122.196" r="3.44195" fill="#D3E8E8"/>
<circle cx="690.442" cy="200.442" r="3.44195" fill="#D3E8E8"/>
<circle cx="597" cy="86" r="13" fill="#E28EAE"/>
<path d="M606.644 92.3697C604.52 95.1565 601.778 96.638 600.52 95.6788C599.261 94.7196 602.699 93.768 604.823 90.9812C606.947 88.1944 606.953 84.6277 608.211 85.5869C609.47 86.5461 608.768 89.5829 606.644 92.3697Z" fill="#D3E8E8"/>
<path d="M587.128 80.8149C588.855 77.7659 591.371 75.9264 592.748 76.7062C594.125 77.486 590.848 78.8947 589.122 81.9436C587.395 84.9925 587.872 88.5272 586.495 87.7474C585.118 86.9676 585.402 83.8638 587.128 80.8149Z" fill="#D3E8E8"/>
<circle cx="595.849" cy="76.4411" r="1.91176" fill="#D3E8E8"/>
<circle cx="764.889" cy="102.889" r="5.88921" fill="#E28EAE"/>
<path d="M769.257 105.775C768.295 107.037 767.053 107.709 766.482 107.274C765.912 106.839 767.469 106.408 768.432 105.146C769.394 103.883 769.397 102.268 769.967 102.702C770.537 103.137 770.219 104.512 769.257 105.775Z" fill="#D3E8E8"/>
<path d="M760.418 100.541C761.2 99.1593 762.34 98.326 762.963 98.6792C763.587 99.0325 762.103 99.6706 761.321 101.052C760.538 102.433 760.755 104.034 760.131 103.681C759.507 103.328 759.635 101.922 760.418 100.541Z" fill="#D3E8E8"/>
<circle cx="764.366" cy="98.5584" r="0.86606" fill="#D3E8E8"/>
<circle cx="739.055" cy="124.945" r="10.0554" fill="#E28EAE"/>
<path d="M746.512 129.872C744.869 132.027 742.748 133.173 741.775 132.431C740.801 131.69 743.46 130.953 745.103 128.798C746.746 126.642 746.751 123.884 747.724 124.625C748.697 125.367 748.155 127.716 746.512 129.872Z" fill="#D3E8E8"/>
<path d="M731.42 120.934C732.755 118.576 734.701 117.153 735.766 117.756C736.831 118.359 734.297 119.449 732.961 121.807C731.626 124.166 731.995 126.9 730.93 126.297C729.865 125.693 730.084 123.293 731.42 120.934Z" fill="#D3E8E8"/>
<circle cx="738.166" cy="117.551" r="1.47873" fill="#D3E8E8"/>
<circle cx="652" cy="120" r="15" fill="#E28EAE"/>
<path d="M663.131 127.349C660.68 130.565 657.516 132.274 656.064 131.167C654.612 130.061 658.578 128.963 661.028 125.747C663.479 122.532 663.486 118.416 664.939 119.523C666.391 120.63 665.581 124.134 663.131 127.349Z" fill="#D3E8E8"/>
<path d="M640.609 114.017C642.601 110.499 645.505 108.376 647.093 109.276C648.682 110.176 644.901 111.801 642.909 115.319C640.917 118.837 641.467 122.916 639.879 122.016C638.29 121.116 638.617 117.535 640.609 114.017Z" fill="#D3E8E8"/>
<circle cx="650.675" cy="108.971" r="2.20588" fill="#D3E8E8"/>
<circle cx="954.5" cy="92.5" r="16.5" fill="#E28EAE"/>
<path d="M966.737 100.584C964.042 104.121 960.561 106.002 958.964 104.784C957.366 103.567 961.729 102.359 964.425 98.8221C967.121 95.285 967.129 90.7581 968.726 91.9755C970.324 93.193 969.433 97.0473 966.737 100.584Z" fill="#D3E8E8"/>
<path d="M941.968 85.9183C944.159 82.0485 947.353 79.7138 949.1 80.7035C950.848 81.6932 946.689 83.4811 944.498 87.351C942.306 91.2208 942.912 95.707 941.164 94.7173C939.416 93.7276 939.776 89.7881 941.968 85.9183Z" fill="#D3E8E8"/>
<circle cx="953.044" cy="80.3679" r="2.42647" fill="#D3E8E8"/>
<circle cx="893.5" cy="85.5" r="9.5" fill="#E28EAE"/>
<path d="M900.544 90.155C898.991 92.1915 896.988 93.2741 896.068 92.5732C895.148 91.8722 897.66 91.1768 899.212 89.1403C900.764 87.1038 900.769 84.4974 901.689 85.1983C902.608 85.8993 902.096 88.1184 900.544 90.155Z" fill="#D3E8E8"/>
<path d="M886.281 81.7104C887.543 79.4823 889.382 78.1381 890.388 78.7079C891.394 79.2778 889 80.3072 887.738 82.5353C886.476 84.7633 886.825 87.3463 885.819 86.7765C884.812 86.2066 885.02 83.9385 886.281 81.7104Z" fill="#D3E8E8"/>
<circle cx="892.663" cy="78.5152" r="1.39706" fill="#D3E8E8"/>
<circle cx="554.899" cy="108.812" r="7.18789" fill="#E28EAE"/>
<path d="M560.232 112.334C559.058 113.875 557.542 114.694 556.846 114.164C556.15 113.634 558.051 113.107 559.225 111.567C560.4 110.026 560.403 108.054 561.099 108.584C561.795 109.114 561.407 110.793 560.232 112.334Z" fill="#D3E8E8"/>
<path d="M549.438 105.944C550.393 104.259 551.784 103.242 552.545 103.673C553.307 104.104 551.495 104.883 550.54 106.569C549.586 108.254 549.849 110.209 549.088 109.778C548.327 109.346 548.484 107.63 549.438 105.944Z" fill="#D3E8E8"/>
<circle cx="554.268" cy="103.527" r="1.05704" fill="#D3E8E8"/>
<circle cx="603.889" cy="120.889" r="5.88927" fill="#E28EAE"/>
<path d="M608.257 123.775C607.295 125.037 606.053 125.709 605.482 125.274C604.912 124.84 606.469 124.408 607.432 123.146C608.394 121.883 608.397 120.268 608.967 120.702C609.537 121.137 609.219 122.512 608.257 123.775Z" fill="#D3E8E8"/>
<path d="M599.418 118.54C600.2 117.158 601.34 116.325 601.963 116.678C602.587 117.031 601.103 117.67 600.321 119.051C599.538 120.432 599.755 122.033 599.131 121.68C598.507 121.327 598.635 119.921 599.418 118.54Z" fill="#D3E8E8"/>
<circle cx="603.374" cy="116.559" r="0.866069" fill="#D3E8E8"/>
<path d="M847.208 36.0562L840.355 37.6287L835.452 42.7845L833.861 35.68L828.811 30.5076L835.68 28.984L840.63 23.8129L842.173 30.9328L847.208 36.0562Z" fill="#B7D6D6"/>
<path d="M688.56 12.8646L684.998 19.1014L685.277 26.3667L679.21 22.6186L672.143 22.811L675.75 16.5967L675.493 9.28529L681.538 13.0795L688.56 12.8646Z" fill="#B7D6D6"/>
<path d="M929.303 267.319L922.125 267.556L916.085 271.604L916.094 264.472L912.224 258.556L919.407 258.369L925.498 254.315L925.438 261.452L929.303 267.319Z" fill="#B7D6D6"/>
<path d="M551.676 170.631L558.67 172.585L565.642 170.583L563.618 177.336L565.682 184.116L558.697 182.113L551.674 184.105L553.749 177.362L551.676 170.631Z" fill="#B7D6D6"/>
<path d="M103 79C103 67.9543 111.954 59 123 59H520C531.046 59 540 67.9543 540 79V445C540 456.046 531.046 465 520 465H123C111.954 465 103 456.046 103 445V79Z" fill="#091515"/>
<path d="M131 109C131 97.9543 139.954 89 151 89H493C504.046 89 513 97.9543 513 109V417C513 428.046 504.046 437 493 437H151C139.954 437 131 428.046 131 417V109Z" fill="#030E0E"/>
<path d="M118 248H526V274H118V248Z" fill="#091515"/>
<path d="M140 327C140 321.477 144.477 317 150 317H195C200.523 317 205 321.477 205 327V356H140V327Z" fill="#4F5066"/>
<rect x="124" y="356" width="96" height="177" rx="5" fill="#4F5066"/>
<path d="M131 423H212V518C212 520.761 209.761 523 207 523H136C133.239 523 131 520.761 131 518V423Z" fill="#8CAEAC"/>
<path d="M131 368C131 365.239 133.239 363 136 363H207C209.761 363 212 365.239 212 368V423H131V368Z" fill="#8687A0" fill-opacity="0.5"/>
<rect x="138.242" y="316.051" width="66.9953" height="18.6482" rx="5" fill="#B69073"/>
<path d="M138.242 320.54H205.238V329.699C205.238 332.46 202.999 334.699 200.238 334.699H143.242C140.481 334.699 138.242 332.46 138.242 329.699V320.54Z" fill="#633A14"/>
<rect x="136" y="329" width="72" height="14" rx="5" fill="#89BEAA"/>
<rect x="144" y="330" width="16" height="3" rx="1.5" fill="#D3E8E8"/>
<circle cx="200.496" cy="297.672" r="2.18074" transform="rotate(-47.2096 200.496 297.672)" fill="#84BCB9"/>
<path d="M202.377 297.212C202.478 297.791 202.348 298.297 202.087 298.343C201.825 298.388 202.1 297.857 201.999 297.278C201.898 296.699 201.459 296.292 201.721 296.246C201.982 296.2 202.276 296.633 202.377 297.212Z" fill="#D3E8E8"/>
<path d="M198.735 298.297C198.557 297.737 198.617 297.218 198.87 297.137C199.123 297.057 198.923 297.621 199.102 298.181C199.28 298.741 199.77 299.085 199.517 299.165C199.264 299.246 198.914 298.857 198.735 298.297Z" fill="#D3E8E8"/>
<circle cx="199.188" cy="296.725" r="0.320696" transform="rotate(-47.2096 199.188 296.725)" fill="#D3E8E8"/>
<circle cx="133.746" cy="305.728" r="5.15461" transform="rotate(28.2804 133.746 305.728)" fill="#84BCB9"/>
<path d="M135.914 309.763C134.649 310.337 133.413 310.339 133.154 309.768C132.895 309.197 134.274 309.51 135.539 308.936C136.804 308.362 137.476 307.118 137.736 307.689C137.995 308.26 137.179 309.189 135.914 309.763Z" fill="#D3E8E8"/>
<path d="M131.276 302.062C132.452 301.322 133.676 301.152 134.01 301.683C134.344 302.214 132.936 302.091 131.76 302.831C130.584 303.571 130.087 304.895 129.752 304.364C129.418 303.833 130.1 302.802 131.276 302.062Z" fill="#D3E8E8"/>
<circle cx="135.144" cy="302.174" r="0.758031" transform="rotate(28.2804 135.144 302.174)" fill="#D3E8E8"/>
<circle cx="141.43" cy="331.43" r="1.42967" fill="#D3E8E8"/>
<circle cx="208.103" cy="307.557" r="3.89823" transform="rotate(-47.2096 208.103 307.557)" fill="#84BCB9"/>
<path d="M211.47 306.733C211.65 307.768 211.418 308.673 210.95 308.755C210.483 308.836 210.974 307.886 210.793 306.851C210.612 305.816 209.829 305.088 210.296 305.006C210.764 304.925 211.289 305.698 211.47 306.733Z" fill="#D3E8E8"/>
<path d="M204.953 308.673C204.634 307.672 204.742 306.744 205.194 306.6C205.646 306.455 205.289 307.463 205.608 308.465C205.927 309.466 206.802 310.081 206.35 310.225C205.898 310.369 205.273 309.674 204.953 308.673Z" fill="#D3E8E8"/>
<circle cx="205.763" cy="305.861" r="0.573269" transform="rotate(-47.2096 205.763 305.861)" fill="#D3E8E8"/>
<circle cx="139.094" cy="293.85" r="3.89823" transform="rotate(28.2804 139.094 293.85)" fill="#84BCB9"/>
<path d="M140.734 296.902C139.777 297.336 138.842 297.338 138.646 296.905C138.45 296.473 139.493 296.71 140.45 296.276C141.406 295.842 141.915 294.901 142.111 295.333C142.307 295.765 141.69 296.468 140.734 296.902Z" fill="#D3E8E8"/>
<path d="M137.224 291.078C138.113 290.518 139.038 290.39 139.291 290.791C139.544 291.193 138.479 291.099 137.589 291.659C136.7 292.219 136.324 293.22 136.071 292.819C135.819 292.417 136.334 291.638 137.224 291.078Z" fill="#D3E8E8"/>
<circle cx="140.147" cy="291.163" r="0.573269" transform="rotate(28.2804 140.147 291.163)" fill="#D3E8E8"/>
<circle cx="148.477" cy="297.915" r="1.99888" transform="rotate(28.2804 148.477 297.915)" fill="#84BCB9"/>
<path d="M149.315 299.479C148.824 299.702 148.345 299.703 148.245 299.481C148.144 299.26 148.679 299.381 149.169 299.159C149.66 298.936 149.921 298.453 150.021 298.675C150.122 298.897 149.806 299.257 149.315 299.479Z" fill="#D3E8E8"/>
<path d="M147.52 296.494C147.976 296.207 148.45 296.141 148.58 296.347C148.71 296.553 148.163 296.505 147.707 296.792C147.252 297.079 147.059 297.592 146.929 297.386C146.799 297.181 147.064 296.781 147.52 296.494Z" fill="#D3E8E8"/>
<circle cx="149.018" cy="296.538" r="0.293953" transform="rotate(28.2804 149.018 296.538)" fill="#D3E8E8"/>
<path d="M447.984 336.506C447.984 330.983 452.462 326.506 457.984 326.506H471.148C476.671 326.506 481.148 330.983 481.148 336.506V346.404H447.984V336.506Z" fill="#4F5066"/>
<rect x="439.82" y="346.403" width="48.9804" height="90.3076" rx="5" fill="#4F5066"/>
<path d="M443.391 380.588H484.718V426.609C484.718 429.371 482.479 431.609 479.718 431.609H448.391C445.629 431.609 443.391 429.371 443.391 426.609V380.588Z" fill="#FFFACC"/>
<path d="M443.391 354.975C443.391 352.213 445.629 349.975 448.391 349.975H479.718C482.479 349.975 484.718 352.213 484.718 354.975V380.587H443.391V354.975Z" fill="#8687A0" fill-opacity="0.5"/>
<path d="M447.073 328.182C446.979 327.018 447.898 326.021 449.066 326.021H479.281C480.491 326.021 481.424 327.087 481.264 328.286L480.735 332.238C480.601 333.243 479.736 333.988 478.723 333.973L449.319 333.528C448.288 333.512 447.438 332.716 447.356 331.689L447.073 328.182Z" fill="#B69073"/>
<path d="M447.086 328.312H481.268V330.536C481.268 333.297 479.029 335.536 476.268 335.536H452.086C449.325 335.536 447.086 333.297 447.086 330.536V328.312Z" fill="#633A14"/>
<rect x="445.938" y="332.629" width="36.7353" height="7.14297" rx="3.57149" fill="#FFB23E"/>
<rect x="450.023" y="333.139" width="8.1634" height="1.53064" rx="0.765318" fill="#D3E8E8"/>
<circle cx="478.846" cy="316.644" r="1.11264" transform="rotate(-47.2096 478.846 316.644)" fill="#FFFACC"/>
<path d="M479.806 316.41C479.857 316.705 479.791 316.964 479.657 316.987C479.524 317.01 479.664 316.739 479.613 316.444C479.561 316.148 479.337 315.941 479.471 315.917C479.604 315.894 479.754 316.115 479.806 316.41Z" fill="#D3E8E8"/>
<path d="M477.945 316.964C477.854 316.678 477.884 316.413 478.013 316.372C478.142 316.331 478.04 316.619 478.132 316.904C478.223 317.19 478.472 317.366 478.343 317.407C478.214 317.448 478.036 317.25 477.945 316.964Z" fill="#D3E8E8"/>
<circle cx="478.177" cy="316.161" r="0.163623" transform="rotate(-47.2096 478.177 316.161)" fill="#D3E8E8"/>
<circle cx="444.789" cy="320.753" r="2.62995" transform="rotate(28.2804 444.789 320.753)" fill="#FFFACC"/>
<path d="M445.893 322.813C445.247 323.105 444.617 323.107 444.484 322.815C444.352 322.524 445.056 322.683 445.701 322.391C446.347 322.098 446.69 321.463 446.822 321.754C446.954 322.046 446.538 322.52 445.893 322.813Z" fill="#D3E8E8"/>
<path d="M443.527 318.884C444.127 318.506 444.752 318.419 444.922 318.69C445.093 318.961 444.374 318.898 443.774 319.276C443.174 319.653 442.921 320.329 442.75 320.058C442.579 319.787 442.927 319.261 443.527 318.884Z" fill="#D3E8E8"/>
<circle cx="445.501" cy="318.941" r="0.386757" transform="rotate(28.2804 445.501 318.941)" fill="#D3E8E8"/>
<circle cx="448.706" cy="333.867" r="0.729437" fill="#D3E8E8"/>
<circle cx="482.725" cy="321.687" r="1.98892" transform="rotate(-47.2096 482.725 321.687)" fill="#FFFACC"/>
<path d="M484.444 321.267C484.536 321.795 484.417 322.257 484.179 322.299C483.94 322.34 484.191 321.855 484.099 321.327C484.007 320.799 483.607 320.428 483.845 320.386C484.084 320.345 484.352 320.739 484.444 321.267Z" fill="#D3E8E8"/>
<path d="M481.117 322.257C480.954 321.746 481.009 321.272 481.24 321.199C481.47 321.125 481.288 321.64 481.451 322.15C481.614 322.661 482.06 322.975 481.83 323.048C481.599 323.122 481.28 322.768 481.117 322.257Z" fill="#D3E8E8"/>
<circle cx="481.531" cy="320.822" r="0.292489" transform="rotate(-47.2096 481.531 320.822)" fill="#D3E8E8"/>
<circle cx="447.52" cy="314.694" r="1.98892" transform="rotate(28.2804 447.52 314.694)" fill="#FFFACC"/>
<path d="M448.357 316.251C447.869 316.473 447.392 316.474 447.292 316.253C447.192 316.033 447.724 316.154 448.213 315.932C448.701 315.711 448.96 315.23 449.06 315.451C449.16 315.671 448.846 316.03 448.357 316.251Z" fill="#D3E8E8"/>
<path d="M446.564 313.28C447.018 312.994 447.49 312.929 447.619 313.134C447.748 313.339 447.204 313.291 446.751 313.576C446.297 313.862 446.105 314.373 445.976 314.168C445.847 313.963 446.11 313.566 446.564 313.28Z" fill="#D3E8E8"/>
<circle cx="448.056" cy="313.324" r="0.292489" transform="rotate(28.2804 448.056 313.324)" fill="#D3E8E8"/>
<circle cx="452.306" cy="316.769" r="1.01985" transform="rotate(28.2804 452.306 316.769)" fill="#FFFACC"/>
<path d="M452.729 317.567C452.478 317.681 452.234 317.681 452.183 317.568C452.131 317.455 452.404 317.517 452.655 317.403C452.905 317.29 453.038 317.044 453.089 317.157C453.14 317.27 452.979 317.453 452.729 317.567Z" fill="#D3E8E8"/>
<path d="M451.816 316.044C452.049 315.898 452.291 315.864 452.357 315.969C452.423 316.074 452.145 316.05 451.912 316.196C451.679 316.343 451.581 316.605 451.515 316.5C451.449 316.395 451.584 316.191 451.816 316.044Z" fill="#D3E8E8"/>
<circle cx="452.584" cy="316.066" r="0.149978" transform="rotate(28.2804 452.584 316.066)" fill="#D3E8E8"/>
<path d="M386.984 336.506C386.984 330.983 391.462 326.506 396.984 326.506H410.148C415.671 326.506 420.148 330.983 420.148 336.506V346.404H386.984V336.506Z" fill="#4F5066"/>
<rect x="378.82" y="346.403" width="48.9804" height="90.3076" rx="5" fill="#4F5066"/>
<path d="M382.391 380.588H423.718V426.609C423.718 429.371 421.479 431.609 418.718 431.609H387.391C384.629 431.609 382.391 429.371 382.391 426.609V380.588Z" fill="#89BEAA"/>
<path d="M382.391 354.975C382.391 352.213 384.629 349.975 387.391 349.975H418.718C421.479 349.975 423.718 352.213 423.718 354.975V380.587H382.391V354.975Z" fill="#8687A0" fill-opacity="0.5"/>
<path d="M386.079 328.016C386.07 326.905 386.968 326 388.079 326H418.323C419.493 326 420.413 327 420.316 328.166L420.15 330.166C420.063 331.203 419.197 332 418.156 332H388.095C386.996 332 386.104 331.114 386.095 330.016L386.079 328.016Z" fill="#B69073"/>
<path d="M386.086 328.312H420.268V330.536C420.268 333.297 418.029 335.536 415.268 335.536H391.086C388.325 335.536 386.086 333.297 386.086 330.536V328.312Z" fill="#633A14"/>
<rect x="384.938" y="332.629" width="36.7353" height="7.14297" rx="3.57149" fill="#0D3F41"/>
<rect x="389.023" y="333.139" width="8.1634" height="1.53064" rx="0.765318" fill="#D3E8E8"/>
<circle cx="417.846" cy="316.644" r="1.11264" transform="rotate(-47.2096 417.846 316.644)" fill="#89BEAA"/>
<path d="M418.806 316.41C418.857 316.705 418.791 316.964 418.657 316.987C418.524 317.01 418.664 316.739 418.613 316.444C418.561 316.148 418.337 315.941 418.471 315.917C418.604 315.894 418.754 316.115 418.806 316.41Z" fill="#D3E8E8"/>
<path d="M416.945 316.964C416.854 316.678 416.884 316.413 417.013 316.372C417.142 316.331 417.04 316.619 417.132 316.904C417.223 317.19 417.472 317.366 417.343 317.407C417.214 317.448 417.036 317.25 416.945 316.964Z" fill="#D3E8E8"/>
<circle cx="417.177" cy="316.161" r="0.163623" transform="rotate(-47.2096 417.177 316.161)" fill="#D3E8E8"/>
<circle cx="383.789" cy="320.753" r="2.62995" transform="rotate(28.2804 383.789 320.753)" fill="#89BEAA"/>
<path d="M384.893 322.813C384.247 323.105 383.617 323.107 383.484 322.815C383.352 322.524 384.056 322.683 384.701 322.391C385.347 322.098 385.69 321.463 385.822 321.754C385.954 322.046 385.538 322.52 384.893 322.813Z" fill="#D3E8E8"/>
<path d="M382.527 318.884C383.127 318.506 383.752 318.419 383.922 318.69C384.093 318.961 383.374 318.898 382.774 319.276C382.174 319.653 381.921 320.329 381.75 320.058C381.579 319.787 381.927 319.261 382.527 318.884Z" fill="#D3E8E8"/>
<circle cx="384.501" cy="318.941" r="0.386757" transform="rotate(28.2804 384.501 318.941)" fill="#D3E8E8"/>
<circle cx="387.706" cy="333.867" r="0.729437" fill="#D3E8E8"/>
<circle cx="421.725" cy="321.687" r="1.98892" transform="rotate(-47.2096 421.725 321.687)" fill="#89BEAA"/>
<path d="M423.444 321.267C423.536 321.795 423.417 322.257 423.179 322.299C422.94 322.34 423.191 321.855 423.099 321.327C423.007 320.799 422.607 320.428 422.845 320.386C423.084 320.345 423.352 320.739 423.444 321.267Z" fill="#D3E8E8"/>
<path d="M420.117 322.257C419.954 321.746 420.009 321.272 420.24 321.199C420.47 321.125 420.288 321.64 420.451 322.15C420.614 322.661 421.06 322.975 420.83 323.048C420.599 323.122 420.28 322.768 420.117 322.257Z" fill="#D3E8E8"/>
<circle cx="420.531" cy="320.822" r="0.292489" transform="rotate(-47.2096 420.531 320.822)" fill="#D3E8E8"/>
<circle cx="386.52" cy="314.694" r="1.98892" transform="rotate(28.2804 386.52 314.694)" fill="#89BEAA"/>
<path d="M387.357 316.251C386.869 316.473 386.392 316.474 386.292 316.253C386.192 316.033 386.724 316.154 387.213 315.932C387.701 315.711 387.96 315.23 388.06 315.451C388.16 315.671 387.846 316.03 387.357 316.251Z" fill="#D3E8E8"/>
<path d="M385.564 313.28C386.018 312.994 386.49 312.929 386.619 313.134C386.748 313.339 386.204 313.291 385.751 313.576C385.297 313.862 385.105 314.373 384.976 314.168C384.847 313.963 385.11 313.566 385.564 313.28Z" fill="#D3E8E8"/>
<circle cx="387.056" cy="313.324" r="0.292489" transform="rotate(28.2804 387.056 313.324)" fill="#D3E8E8"/>
<circle cx="391.306" cy="316.769" r="1.01985" transform="rotate(28.2804 391.306 316.769)" fill="#89BEAA"/>
<path d="M391.729 317.567C391.478 317.681 391.234 317.681 391.183 317.568C391.131 317.455 391.404 317.517 391.655 317.403C391.905 317.29 392.038 317.044 392.089 317.157C392.14 317.27 391.979 317.453 391.729 317.567Z" fill="#D3E8E8"/>
<path d="M390.816 316.044C391.049 315.898 391.291 315.864 391.357 315.969C391.423 316.074 391.145 316.05 390.912 316.196C390.679 316.343 390.581 316.605 390.515 316.5C390.449 316.395 390.584 316.191 390.816 316.044Z" fill="#D3E8E8"/>
<circle cx="391.584" cy="316.066" r="0.149978" transform="rotate(28.2804 391.584 316.066)" fill="#D3E8E8"/>
<path d="M447.984 147.506C447.984 141.983 452.462 137.506 457.984 137.506H471.148C476.671 137.506 481.148 141.983 481.148 147.506V157.404H447.984V147.506Z" fill="#4F5066"/>
<rect x="439.82" y="157.403" width="48.9804" height="90.3076" rx="5" fill="#4F5066"/>
<path d="M443.391 191.588H484.718V237.609C484.718 240.371 482.479 242.609 479.718 242.609H448.391C445.629 242.609 443.391 240.371 443.391 237.609V191.588Z" fill="#BD7E96"/>
<path d="M443.391 165.975C443.391 163.213 445.629 160.975 448.391 160.975H479.718C482.479 160.975 484.718 163.213 484.718 165.975V191.587H443.391V165.975Z" fill="#8687A0" fill-opacity="0.5"/>
<path d="M447.086 139.021C447.086 137.917 447.981 137.021 449.086 137.021H479.38C480.423 137.021 481.268 137.867 481.268 138.909C481.268 139.936 480.448 140.774 479.422 140.797L449.131 141.473C448.009 141.498 447.086 140.596 447.086 139.474V139.021Z" fill="#B69073"/>
<path d="M447.086 139.312H481.268V141.536C481.268 144.297 479.029 146.536 476.268 146.536H452.086C449.325 146.536 447.086 144.297 447.086 141.536V139.312Z" fill="#633A14"/>
<rect x="445.938" y="143.629" width="36.7353" height="7.14297" rx="3.57149" fill="#914E8D"/>
<rect x="450.023" y="144.139" width="8.1634" height="1.53064" rx="0.765318" fill="#D3E8E8"/>
<circle cx="478.846" cy="127.644" r="1.11264" transform="rotate(-47.2096 478.846 127.644)" fill="#BD7E96"/>
<path d="M479.806 127.41C479.857 127.705 479.791 127.964 479.657 127.987C479.524 128.01 479.664 127.739 479.613 127.444C479.561 127.148 479.337 126.941 479.471 126.917C479.604 126.894 479.754 127.115 479.806 127.41Z" fill="#D3E8E8"/>
<path d="M477.945 127.964C477.854 127.678 477.884 127.413 478.013 127.372C478.142 127.331 478.04 127.619 478.132 127.904C478.223 128.19 478.472 128.366 478.343 128.407C478.214 128.448 478.036 128.25 477.945 127.964Z" fill="#D3E8E8"/>
<circle cx="478.177" cy="127.161" r="0.163623" transform="rotate(-47.2096 478.177 127.161)" fill="#D3E8E8"/>
<circle cx="444.789" cy="131.753" r="2.62995" transform="rotate(28.2804 444.789 131.753)" fill="#BD7E96"/>
<path d="M445.893 133.813C445.247 134.105 444.617 134.107 444.484 133.815C444.352 133.524 445.056 133.683 445.701 133.391C446.347 133.098 446.69 132.463 446.822 132.754C446.954 133.046 446.538 133.52 445.893 133.813Z" fill="#D3E8E8"/>
<path d="M443.527 129.884C444.127 129.506 444.752 129.419 444.922 129.69C445.093 129.961 444.374 129.898 443.774 130.276C443.174 130.653 442.921 131.329 442.75 131.058C442.579 130.787 442.927 130.261 443.527 129.884Z" fill="#D3E8E8"/>
<circle cx="445.501" cy="129.941" r="0.386757" transform="rotate(28.2804 445.501 129.941)" fill="#D3E8E8"/>
<circle cx="448.706" cy="144.867" r="0.729437" fill="#D3E8E8"/>
<circle cx="482.725" cy="132.687" r="1.98892" transform="rotate(-47.2096 482.725 132.687)" fill="#BD7E96"/>
<path d="M484.444 132.267C484.536 132.795 484.417 133.257 484.179 133.299C483.94 133.34 484.191 132.855 484.099 132.327C484.007 131.799 483.607 131.428 483.845 131.386C484.084 131.345 484.352 131.739 484.444 132.267Z" fill="#D3E8E8"/>
<path d="M481.117 133.257C480.954 132.746 481.009 132.272 481.24 132.199C481.47 132.125 481.288 132.64 481.451 133.15C481.614 133.661 482.06 133.975 481.83 134.048C481.599 134.122 481.28 133.768 481.117 133.257Z" fill="#D3E8E8"/>
<circle cx="481.531" cy="131.822" r="0.292489" transform="rotate(-47.2096 481.531 131.822)" fill="#D3E8E8"/>
<circle cx="447.52" cy="125.694" r="1.98892" transform="rotate(28.2804 447.52 125.694)" fill="#BD7E96"/>
<path d="M448.357 127.251C447.869 127.473 447.392 127.474 447.292 127.253C447.192 127.033 447.724 127.154 448.213 126.932C448.701 126.711 448.96 126.23 449.06 126.451C449.16 126.671 448.846 127.03 448.357 127.251Z" fill="#D3E8E8"/>
<path d="M446.564 124.28C447.018 123.994 447.49 123.929 447.619 124.134C447.748 124.339 447.204 124.291 446.751 124.576C446.297 124.862 446.105 125.373 445.976 125.168C445.847 124.963 446.11 124.566 446.564 124.28Z" fill="#D3E8E8"/>
<circle cx="448.056" cy="124.324" r="0.292489" transform="rotate(28.2804 448.056 124.324)" fill="#D3E8E8"/>
<circle cx="452.306" cy="127.769" r="1.01985" transform="rotate(28.2804 452.306 127.769)" fill="#BD7E96"/>
<path d="M452.729 128.567C452.478 128.681 452.234 128.681 452.183 128.568C452.131 128.455 452.404 128.517 452.655 128.403C452.905 128.29 453.038 128.044 453.089 128.157C453.14 128.27 452.979 128.453 452.729 128.567Z" fill="#D3E8E8"/>
<path d="M451.816 127.044C452.049 126.898 452.291 126.864 452.357 126.969C452.423 127.074 452.145 127.05 451.912 127.196C451.679 127.343 451.581 127.605 451.515 127.5C451.449 127.395 451.584 127.191 451.816 127.044Z" fill="#D3E8E8"/>
<circle cx="452.584" cy="127.066" r="0.149978" transform="rotate(28.2804 452.584 127.066)" fill="#D3E8E8"/>
<rect x="137" y="430" width="70" height="92" fill="#B8DEDC"/>
<path d="M131.744 424.713C131.105 424.086 131.549 423 132.444 423H210.756C211.621 423 212.078 424.025 211.499 424.669L207.003 429.669C206.813 429.88 206.543 430 206.259 430H137.533C137.271 430 137.019 429.897 136.832 429.713L131.744 424.713Z" fill="#CEEAEA"/>
<path d="M133.487 519.573C132.21 520.828 133.099 523 134.889 523H208.511C210.243 523 211.156 520.95 209.999 519.663L207.301 516.663C206.921 516.241 206.381 516 205.813 516H137.942C137.418 516 136.914 516.206 136.54 516.573L133.487 519.573Z" fill="#7C9F9F"/>
<g filter="url(#filter0_i_4147_72)">
<path d="M415.529 530.801C412.305 537.607 407.636 538.553 405.162 538.338C402.689 538.123 402.737 535.365 403.351 528.296C403.965 521.227 409.082 514.324 411.231 513.608C415.53 512.532 415.53 523.995 415.529 530.801Z" fill="#3C3B43"/>
<path d="M396.2 532.603L402.299 523.284L406.24 519.343L409.445 517.188L410.878 516.83L411.594 522.203L411.949 527.941L396.549 537.964L396.2 532.603Z" fill="#293042"/>
<path d="M413.001 525.078L424.825 527.934L422.238 536.081L419.414 544.168L416.3 554.336L415.489 565.486L416.344 576.869L414.432 583.818L405.457 580.707L400.867 578.522L397.29 575.787L396.162 572.469L394.982 562.879L393.624 551.841L396.249 542.136L400.589 533.067L402.408 529.581L405.866 527.176L409.144 525.794L413.001 525.078Z" fill="#343D52"/>
<path d="M423.485 557.294C420.978 573.415 418.47 583.832 415.151 583.832C408.415 582.936 408.338 570.903 410.764 555.074C413.19 539.245 417.994 527.053 424.731 527.949C428.142 530.069 425.993 541.174 423.485 557.294Z" fill="#293042"/>
<path d="M406.564 523.995L415.878 530.801L412.295 536.891L409.788 543.698L406.922 552.295L405.489 561.967L405.131 571.998V578.804L397.25 575.938L392.234 566.266V557.773V547.996L394.742 539.757L395.458 532.234L398.324 526.503L406.564 523.995Z" fill="#343D52"/>
<path d="M187.687 486.381L199.509 488.53L194.136 497.128L191.628 503.934L188.762 512.532L187.329 522.204L186.971 532.234L191.628 541.548L179.09 536.175L174.075 526.503L173 517.547L173.358 508.591L174.791 499.635L177.299 492.471L181.956 487.097L187.687 486.381Z" fill="#343D52"/>
<path d="M422.685 525.541L418.718 533.837L414.445 536.891L412.97 542.917L407.092 549.667L401.891 557.917L397.388 566.885L394.524 573.06L389.513 567.576L389.627 556.967L393.201 549.262L397.315 540.394L402.76 533.837L408.751 528.323L413.819 525.541L422.685 525.541Z" fill="#343D52"/>
<path d="M206.667 477.783L227.784 488.892L260.742 499.997L306.247 508.236L372.52 517.908L394.013 517.908L411.208 513.61L397.954 530.446L394.013 548.358L394.013 565.911L401.178 579.882L378.246 571.288L354.603 565.911L247.134 550.869L222.774 550.869L200.922 554.809L190.175 541.913L183.727 527.584L184.462 505.735L193.041 491.403L206.667 477.783Z" fill="#6D6C74"/>
<g filter="url(#filter1_i_4147_72)">
<path d="M337.891 537.808L327.41 525.523L311.343 526.625L307.958 540.847L305.226 549.516L304.826 533.053L306.035 523.983L307.245 517.936L308.454 514.912L328.392 521.268L332.513 527.45L337.891 537.808Z" fill="#5F5E63"/>
</g>
<g filter="url(#filter2_d_4147_72)">
<path d="M302.445 507.485L310.812 508.962L307.367 517.821L305.89 525.204L304.906 533.571L305.092 543.28L306.383 552.766L309.828 559.656L299.492 558.18L296.725 547.576L296.047 538.627L296.273 529.678L297.178 520.729L298.761 513.57L301.7 508.201L302.445 507.485Z" fill="#343D52"/>
</g>
<path d="M409.633 544.251L415.984 539.517L417.554 544.226L409.633 544.251Z" fill="#293042"/>
<path d="M412.904 534.561L420.583 532.614L420.234 537.565L412.904 534.561Z" fill="#293042"/>
<path d="M393 533.402L399.574 528.982L400.913 533.761L393 533.402Z" fill="#343D52"/>
<path d="M401.634 522.726L408.171 518.253L409.55 523.021L401.634 522.726Z" fill="#293042"/>
<path d="M391.57 549.88L398.144 545.46L399.484 550.24L391.57 549.88Z" fill="#343D52"/>
<path d="M388.711 567.791L395.285 563.371L396.624 568.151L388.711 567.791Z" fill="#343D52"/>
<path d="M404.752 557.744L411.934 554.402L412.513 559.332L404.752 557.744Z" fill="#293042"/>
<path d="M405.584 571.762L412.618 568.118L413.406 573.019L405.584 571.762Z" fill="#293042"/>
<path d="M407.416 578.412L414.018 574.034L415.327 578.822L407.416 578.412Z" fill="#293042"/>
<path d="M305.272 492.701C305.272 502.053 306.869 508.864 303.561 508.864C300.252 508.864 297.57 501.283 297.57 491.932C297.57 482.581 300.252 475 303.561 475C307.84 478.079 305.272 483.35 305.272 492.701Z" fill="#343D52"/>
<path d="M303.137 493.948C303.137 501.963 304.21 507.655 303.137 507.655C302.065 507.655 301.195 501.157 301.195 493.142C301.195 485.127 302.065 478.629 303.137 478.629C304.21 478.629 303.137 485.933 303.137 493.948Z" fill="#505370"/>
<path d="M307.037 493.192C305.377 502.738 302.702 509.436 305.739 509.964C308.776 510.493 312.584 503.182 314.244 493.636C315.904 484.09 314.788 475.923 311.75 475.395C307.276 477.855 308.697 483.646 307.037 493.192Z" fill="#343D52"/>
<path d="M308.958 494.871C307.6 502.681 305.276 507.991 306.636 508.227C307.995 508.463 309.59 502.399 310.948 494.589C312.306 486.779 312.913 480.179 311.554 479.943C310.195 479.707 310.316 487.06 308.958 494.871Z" fill="#505370"/>
<g filter="url(#filter3_i_4147_72)">
<path d="M193.052 491.364L205.644 502.818L235.285 505.236L241.322 519.145L266.178 549.349L218.343 516.163L183.981 516.163L184.498 505.845L193.052 491.364Z" fill="#5F5E63"/>
</g>
<g filter="url(#filter4_i_4147_72)">
<path d="M394.325 546.961L388.887 544.719L378.72 547.024L375.241 543.007L363.756 535.517L383.238 541.59L396.741 536.681L395.64 541.486L394.325 546.961Z" fill="#5F5E63"/>
</g>
</g>
<path d="M13.6644 14.8468L15.2432 8.82667L19.7091 7.40313L40.7471 19.6078L46.0385 30.3197L51.5113 46.775L53.9018 73.4549L59.37 96.7651L54.8565 141.485L40.0707 143.81L26.8268 112.343L25.6554 118.659L13.2755 69.7408L11.8811 49.3977L13.6644 14.8468Z" fill="#84BCB9"/>
<path d="M14.5764 11.4566L31.7773 26.7897L35.164 59.8063L35.2562 87.9298L38.8535 110.813L43.2809 138.976L25.6573 118.659L13.2774 69.7404L12.3765 59.4205L11.5864 49.8046L13.6663 14.8463L14.5764 11.4566Z" fill="#B6F7F3"/>
<path d="M41.328 154.073L57.522 151.528L60.3752 178.856L64.9379 198.701L68.0371 218.416L69.4846 236.802L70.423 251.951L77.9988 281.784L80.0327 315.374L82.8459 347.037L85.1257 373.013L93.7485 416.39L103.709 454.506L106.531 472.46L111.683 498.345L114.279 521.746L107.495 526.781L98.6939 528.164L93.8607 524.956L91.5916 510.522L86.9428 480.951L84.6784 459.662L78.1925 406.931L72.7796 383.973L71.8281 366.446L69.3115 334.375L68.9687 320.72L63.213 284.108L58.5642 254.536L53.9947 239.237L49.3788 221.349L46.9837 201.524L46.2935 181.07L41.328 154.073Z" fill="#1E1B16"/>
<path d="M49.2883 53.2571L50.3505 71.488L54.1538 91.0917L57.2976 99.616L59.3225 96.4117L60.1906 122.609L57.578 151.879L42.956 136.862L49.368 127.196L53.5064 116.806L53.8865 107.728L52.815 103.206L51.3914 98.7404L47.9863 93.1431L45.768 85.9162L45.5865 80.1729L43.5696 76.5218L40.3106 74.1482L38.9977 70.3864L37.9633 61.53L40.5365 68.7015L44.3691 72.4283L47.6174 63.2595L49.2883 53.2571Z" fill="#1E1B16"/>
<path d="M24.1959 61.1695L26.9168 71.564L28.3312 82.8854L30.4588 94.0951L29.252 97.8923L31.3705 109.103L37.2598 118.999L37.824 127.207L43.6577 136.752L57.5795 151.879L41.4113 155.757L30.7788 135.169L25.8287 119.714L25.4411 110.395L25.6163 97.7419L25.6102 79.345L24.1959 61.1695Z" fill="#1E1B16"/>
<path d="M41.328 154.073L57.522 151.528L60.3752 178.856L64.9379 198.701L68.0371 218.416L69.4846 236.802L70.423 251.951L77.9988 281.784L80.0327 315.374L82.8459 347.037L85.1257 373.013L93.7485 416.39L103.709 454.506L106.531 472.46L111.683 498.345L114.279 521.746L107.495 526.781L98.6939 528.164L93.8607 524.956L91.5916 510.522L86.9428 480.951L84.6784 459.662L78.1925 406.931L72.7796 383.973L71.8281 366.446L69.3115 334.375L68.9687 320.72L63.213 284.108L58.5642 254.536L53.9947 239.237L49.3788 221.349L46.9837 201.524L46.2935 181.07L41.328 154.073Z" fill="#141414"/>
<path d="M49.2883 53.2571L50.3505 71.488L54.1538 91.0917L57.2976 99.616L59.3225 96.4117L60.1906 122.609L57.578 151.879L42.956 136.862L49.368 127.196L53.5064 116.806L53.8865 107.728L52.815 103.206L51.3914 98.7404L47.9863 93.1431L45.768 85.9162L45.5865 80.1729L43.5696 76.5218L40.3106 74.1482L38.9977 70.3864L37.9633 61.53L40.5365 68.7015L44.3691 72.4283L47.6174 63.2595L49.2883 53.2571Z" fill="#141414"/>
<path d="M24.1959 61.1695L26.9168 71.564L28.3312 82.8854L30.4588 94.0951L29.252 97.8923L31.3705 109.103L37.2598 118.999L37.824 127.207L43.6577 136.752L57.5795 151.879L41.4113 155.757L30.7788 135.169L25.8287 119.714L25.4411 110.395L25.6163 97.7419L25.6102 79.345L24.1959 61.1695Z" fill="#141414"/>
<path d="M1138.09 94.9159C1140.46 89.7242 1147.84 89.7242 1150.22 94.9159L1208.84 222.907C1210.87 227.326 1207.64 232.358 1202.78 232.358H1085.53C1080.66 232.358 1077.44 227.326 1079.46 222.907L1138.09 94.9159Z" fill="#914E8D"/>
<path d="M1202.04 107.317C1207.53 108.886 1208.64 116.181 1203.86 119.313L1170.82 140.978L1146 91.3098L1202.04 107.317Z" fill="#914E8D"/>
<path d="M1100.09 174.085C1100.44 173.111 1101.24 172.37 1102.24 172.099C1129.24 164.762 1157.7 164.701 1184.73 171.921L1185.38 172.095C1186.41 172.368 1187.23 173.127 1187.59 174.124L1199.09 206.358C1199.95 208.772 1198.16 211.311 1195.6 211.311H1091.96C1089.39 211.311 1087.6 208.765 1088.47 206.349L1100.09 174.085Z" fill="#004042"/>
<ellipse cx="1148.97" cy="252.93" rx="136.414" ry="66.7244" fill="#B274AE"/>
<ellipse cx="1148.96" cy="263.31" rx="93.4139" ry="41.5174" fill="#004042"/>
<path d="M1016.26 241.202C1048.33 231.344 1082.9 249.171 1092.76 281.242C1092.86 281.563 1092.68 281.902 1092.36 282.001C1060.28 291.86 1026.12 273.273 1016.26 241.202Z" fill="#E28EAE"/>
<path d="M1294.27 241.202C1262.2 231.344 1227.63 249.171 1217.77 281.242C1217.68 281.563 1217.86 281.902 1218.18 282.001C1250.25 291.86 1284.41 273.273 1294.27 241.202Z" fill="#E28EAE"/>
<path d="M1021.45 361.893C1053.52 371.751 1088.09 353.923 1097.95 321.853C1098.04 321.532 1097.86 321.192 1097.54 321.094C1065.47 311.235 1031.3 329.822 1021.45 361.893Z" fill="#E28EAE"/>
<path d="M1289.09 361.893C1257.02 371.751 1222.44 353.923 1212.59 321.853C1212.49 321.532 1212.67 321.192 1212.99 321.094C1245.06 311.235 1279.23 329.822 1289.09 361.893Z" fill="#E28EAE"/>
<path d="M997.688 305.561C1020.07 280.57 1058.89 278.007 1083.88 300.393C1084.13 300.617 1084.15 301.001 1083.92 301.251C1061.54 326.242 1022.68 327.947 997.688 305.561Z" fill="#E28EAE"/>
<path d="M1312.85 305.561C1290.46 280.57 1251.65 278.007 1226.66 300.393C1226.41 300.617 1226.39 301.001 1226.61 301.251C1249 326.242 1287.86 327.947 1312.85 305.561Z" fill="#E28EAE"/>
<rect width="10.2417" height="77.7163" rx="5.12085" transform="matrix(0.46812 -0.883665 0.883664 0.468122 1027.3 252.521)" fill="#EAD1D0"/>
<rect width="10.2417" height="77.7163" rx="5.12085" transform="matrix(-0.46812 -0.883665 -0.883664 0.468122 1283.23 252.521)" fill="#EAD1D0"/>
<rect width="10.2417" height="77.7163" rx="5.12085" transform="matrix(0.46812 0.883665 0.883664 -0.468122 1032.5 350.572)" fill="#EAD1D0"/>
<rect width="10.2417" height="77.7163" rx="5.12085" transform="matrix(-0.46812 0.883665 -0.883664 -0.468122 1278.04 350.572)" fill="#EAD1D0"/>
<path d="M1074.09 457.45H1234.22C1214.73 474.193 1189.88 483.399 1164.18 483.399H1144.13C1118.43 483.399 1093.58 474.193 1074.09 457.45Z" fill="#914E8D"/>
<rect x="1012.98" y="309.559" width="10.2417" height="77.7162" rx="5.12085" transform="rotate(-93.1458 1012.98 309.559)" fill="#EAD1D0"/>
<rect width="10.2417" height="77.7162" rx="5.12085" transform="matrix(0.0548768 -0.998493 -0.998493 -0.054877 1297.54 309.559)" fill="#EAD1D0"/>
<path d="M1068.62 287.594C1076.66 258.302 1103.29 238.001 1133.67 238.001H1168.85C1200.53 238.001 1227.95 260.043 1234.75 290.985C1244 333.077 1211.95 372.932 1168.85 372.932H1133.67C1089.13 372.932 1056.82 330.54 1068.62 287.594Z" fill="#EAD1D0"/>
<path d="M1080.76 290.638V290.638C1101.69 299.788 1125.93 296.853 1144.08 282.974L1147.34 280.48C1148.08 279.911 1149.11 279.905 1149.86 280.467L1153.08 282.873C1171.75 296.854 1196.46 299.814 1217.91 290.638V290.638" stroke="#A53459" stroke-width="2.22414" stroke-linecap="round"/>
<ellipse cx="1141.92" cy="273.216" rx="1.85345" ry="1.85345" fill="#A53459"/>
<ellipse cx="1155.26" cy="273.216" rx="1.85345" ry="1.85345" fill="#A53459"/>
<ellipse cx="1115.6" cy="269.138" rx="14.8276" ry="14.8276" fill="#E28EAE"/>
<path d="M1129.84 265.091C1130.35 266.98 1130.49 268.952 1130.24 270.892C1129.99 272.833 1129.36 274.706 1128.38 276.403C1127.41 278.101 1126.11 279.59 1124.56 280.785C1123.01 281.981 1121.24 282.859 1119.36 283.371C1117.47 283.883 1115.5 284.017 1113.55 283.767C1111.61 283.517 1109.74 282.887 1108.04 281.913C1106.35 280.939 1104.86 279.641 1103.66 278.091C1102.47 276.542 1101.59 274.772 1101.08 272.883L1115.46 268.987L1129.84 265.091Z" fill="#0D3F41"/>
<path d="M1127.15 265.835C1127.3 266.374 1127.34 266.938 1127.27 267.492C1127.2 268.047 1127.02 268.582 1126.74 269.067C1126.46 269.552 1126.09 269.978 1125.65 270.319C1125.2 270.661 1124.7 270.912 1124.16 271.058C1123.62 271.204 1123.05 271.243 1122.5 271.171C1121.94 271.1 1121.41 270.92 1120.92 270.641C1120.44 270.363 1120.01 269.992 1119.67 269.549C1119.33 269.107 1119.08 268.601 1118.93 268.061L1123.04 266.948L1127.15 265.835Z" fill="#FFFACC"/>
<path d="M1112.68 274.183C1112.82 273.925 1113.19 273.925 1113.33 274.183L1113.96 275.337C1114.02 275.435 1114.11 275.504 1114.22 275.524L1115.51 275.766C1115.8 275.82 1115.92 276.172 1115.71 276.385L1114.81 277.341C1114.73 277.422 1114.7 277.533 1114.71 277.643L1114.88 278.947C1114.92 279.238 1114.62 279.456 1114.36 279.33L1113.17 278.766C1113.07 278.718 1112.95 278.718 1112.85 278.766L1111.66 279.33C1111.4 279.456 1111.1 279.238 1111.13 278.947L1111.3 277.643C1111.32 277.533 1111.28 277.422 1111.21 277.341L1110.3 276.385C1110.1 276.172 1110.21 275.82 1110.5 275.766L1111.8 275.524C1111.91 275.504 1112 275.435 1112.05 275.337L1112.68 274.183Z" fill="#FFFACC"/>
<ellipse cx="14.8276" cy="14.8276" rx="14.8276" ry="14.8276" transform="matrix(-1 0 0 1 1196.75 254.311)" fill="#E28EAE"/>
<path d="M1167.68 265.091C1167.17 266.98 1167.03 268.952 1167.28 270.892C1167.53 272.833 1168.16 274.706 1169.14 276.403C1170.11 278.101 1171.41 279.59 1172.96 280.785C1174.51 281.981 1176.28 282.859 1178.17 283.371C1180.06 283.883 1182.03 284.017 1183.97 283.767C1185.91 283.517 1187.78 282.887 1189.48 281.913C1191.18 280.939 1192.67 279.641 1193.86 278.091C1195.06 276.542 1195.94 274.772 1196.45 272.883L1182.06 268.987L1167.68 265.091Z" fill="#0D3F41"/>
<path d="M1170.36 265.835C1170.22 266.374 1170.18 266.938 1170.25 267.492C1170.32 268.047 1170.5 268.582 1170.78 269.067C1171.06 269.552 1171.43 269.978 1171.87 270.319C1172.31 270.661 1172.82 270.912 1173.36 271.058C1173.9 271.204 1174.46 271.243 1175.02 271.171C1175.57 271.1 1176.11 270.92 1176.59 270.641C1177.08 270.363 1177.5 269.992 1177.84 269.549C1178.18 269.107 1178.44 268.601 1178.58 268.061L1174.47 266.948L1170.36 265.835Z" fill="#FFFACC"/>
<path d="M1184.84 274.184C1184.7 273.926 1184.33 273.926 1184.19 274.184L1183.56 275.338C1183.51 275.436 1183.41 275.505 1183.3 275.525L1182.01 275.767C1181.72 275.821 1181.61 276.173 1181.81 276.386L1182.71 277.342C1182.79 277.423 1182.83 277.534 1182.81 277.644L1182.64 278.948C1182.6 279.239 1182.9 279.457 1183.17 279.331L1184.36 278.767C1184.46 278.719 1184.57 278.719 1184.67 278.767L1185.86 279.331C1186.13 279.457 1186.43 279.239 1186.39 278.948L1186.22 277.644C1186.21 277.534 1186.24 277.423 1186.32 277.342L1187.22 276.386C1187.42 276.173 1187.31 275.821 1187.02 275.767L1185.73 275.525C1185.62 275.505 1185.52 275.436 1185.47 275.338L1184.84 274.184Z" fill="#FFFACC"/>
<path d="M1217.21 361.467L1263.63 408.997C1265.12 410.519 1265.02 412.978 1263.42 414.378L1230.54 443.119C1228.74 444.697 1225.93 444.173 1224.82 442.05L1193.45 382.241L1217.21 361.467Z" fill="#B274AE"/>
<path d="M1103.44 379.896C1099.52 369.084 1087.97 363.075 1076.87 366.07L1037.22 376.761C1037.03 376.812 1036.93 377.013 1036.99 377.197L1057.39 433.461C1057.49 433.734 1057.82 433.833 1058.05 433.658L1095.95 405.118C1103.71 399.268 1106.75 389.036 1103.44 379.896Z" fill="#B274AE"/>
<path d="M1161.08 114.549C1160.81 113.996 1160.15 113.766 1159.59 114.034C1159.04 114.302 1158.81 114.967 1159.08 115.52L1161.08 114.549ZM1159.08 115.52L1171.31 140.727L1173.31 139.756L1161.08 114.549L1159.08 115.52Z" fill="#B274AE"/>
<path d="M1100.77 346.243H1206.05V384.054C1206.05 413.125 1182.48 436.692 1153.41 436.692C1124.34 436.692 1100.77 413.125 1100.77 384.054V346.243Z" fill="#EAD1D0"/>
<path d="M1135.62 384.794L1154.89 399.251L1174.17 384.794V440.398H1135.62V384.794Z" fill="#0D3F41"/>
<rect x="1116.34" y="431.502" width="79.3277" height="12.6035" fill="#964C1A"/>
<path d="M1097.07 443.363H1210.5C1210.5 458.104 1198.55 470.053 1183.81 470.053H1123.76C1109.02 470.053 1097.07 458.104 1097.07 443.363Z" fill="#0D3F41"/>
<path d="M1089.66 369.226L1141.56 377.01V430.76C1141.56 447.138 1128.28 460.416 1111.9 460.416H1079.86C1075.16 460.416 1071.64 456.099 1072.6 451.497L1089.66 369.226Z" fill="#B274AE"/>
<path d="M1218.77 369.226L1166.87 380.346V430.76C1166.87 447.138 1180.14 460.416 1196.52 460.416H1228.56C1233.26 460.416 1236.78 456.099 1235.82 451.497L1218.77 369.226Z" fill="#B274AE"/>
<path d="M1222.11 360.439C1220.46 356.502 1215.94 354.642 1212 356.284L1164.76 375.989C1162.32 377.008 1161.16 379.807 1162.15 382.258C1163.08 384.543 1165.59 385.756 1167.96 385.07L1217.13 370.831C1221.56 369.548 1223.88 364.695 1222.11 360.439Z" fill="#FFB23E"/>
<path d="M1086.31 360.439C1087.95 356.502 1092.47 354.642 1096.41 356.284L1143.65 375.989C1146.09 377.008 1147.26 379.807 1146.26 382.258C1145.33 384.543 1142.82 385.756 1140.45 385.07L1091.29 370.831C1086.86 369.548 1084.53 364.695 1086.31 360.439Z" fill="#FFB23E"/>
<path d="M1108.27 416.624L1113.51 421.41L1120.59 420.974L1117.66 427.438L1120.26 434.04L1113.21 433.249L1107.74 437.766L1106.31 430.813L1100.32 427.002L1106.49 423.496L1108.27 416.624Z" fill="#FFB23E"/>
<path d="M1202.41 382.589L1206.99 383.752L1211.01 381.27L1211.32 385.986L1214.92 389.044L1210.53 390.795L1208.74 395.167L1205.72 391.534L1201 391.178L1203.53 387.181L1202.41 382.589Z" fill="#FFB23E"/>
<path d="M1229.91 379.238L1232 379.698L1233.79 378.515L1234 380.647L1235.67 381.981L1233.71 382.838L1232.96 384.844L1231.54 383.242L1229.4 383.149L1230.48 381.302L1229.91 379.238Z" fill="#FFB23E"/>
<path d="M1094.28 375.064L1091.84 375.594L1089.77 374.215L1089.52 376.693L1087.57 378.239L1089.85 379.241L1090.72 381.576L1092.37 379.716L1094.86 379.613L1093.6 377.463L1094.28 375.064Z" fill="#FFB23E"/>
<rect width="6.67244" height="28.9138" rx="3.33622" transform="matrix(-0.3453 -0.938492 -0.938492 0.345302 1047.34 397.649)" fill="#EAD1D0"/>
<rect width="6.67244" height="28.9138" rx="3.33622" transform="matrix(-0.3453 -0.938492 -0.938492 0.345302 1045.04 391.387)" fill="#EAD1D0"/>
<rect width="6.67244" height="28.9138" rx="3.33622" transform="matrix(-0.3453 -0.938492 -0.938492 0.345302 1042.73 385.125)" fill="#EAD1D0"/>
<path d="M1242.47 399.25L1246.62 400.163L1250.17 397.817L1250.58 402.047L1253.91 404.693L1250.01 406.394L1248.52 410.375L1245.7 407.196L1241.45 407.012L1243.61 403.346L1242.47 399.25Z" fill="#FFB23E"/>
<path d="M1079.63 398.304L1074.8 399.356L1070.68 396.619L1070.19 401.536L1066.31 404.604L1070.84 406.591L1072.56 411.224L1075.85 407.535L1080.79 407.331L1078.29 403.063L1079.63 398.304Z" fill="#FFB23E"/>
<path d="M1100.45 386.659L1103.56 389.517L1107.78 389.271L1106.02 393.112L1107.55 397.045L1103.36 396.561L1100.09 399.238L1099.26 395.099L1095.7 392.819L1099.38 390.745L1100.45 386.659Z" fill="#FFB23E"/>
<path d="M1123.89 403.583L1124.39 405.718L1126.27 406.844L1124.39 407.979L1123.9 410.116L1122.24 408.683L1120.06 408.878L1120.91 406.857L1120.05 404.84L1122.23 405.024L1123.89 403.583Z" fill="#FFB23E"/>
<path d="M1183.58 405.76L1184.34 407.816L1186.35 408.7L1184.63 410.059L1184.4 412.241L1182.58 411.025L1180.44 411.489L1181.03 409.378L1179.93 407.483L1182.12 407.395L1183.58 405.76Z" fill="#FFB23E"/>
<path d="M1085.28 444.832L1087.19 445.53L1089.01 444.648L1088.94 446.675L1090.34 448.14L1088.39 448.694L1087.43 450.481L1086.3 448.797L1084.3 448.437L1085.56 446.841L1085.28 444.832Z" fill="#FFB23E"/>
<path d="M1090.98 415.512L1090.86 416.749L1091.66 417.701L1090.44 417.963L1089.78 419.02L1089.16 417.944L1087.95 417.646L1088.78 416.718L1088.69 415.478L1089.83 415.98L1090.98 415.512Z" fill="#FFB23E"/>
<path d="M1182.19 427.18L1190.66 429.162L1197.97 424.457L1198.7 433.124L1205.44 438.627L1197.42 442.001L1194.27 450.106L1188.58 443.525L1179.9 443.032L1184.4 435.591L1182.19 427.18Z" fill="#FFB23E"/>
<path d="M1228.25 448.766L1204.01 400.969" stroke="#914E8D" stroke-width="2.22414" stroke-linecap="round"/>
<path d="M1078.76 423.717L1087.29 387.76" stroke="#914E8D" stroke-width="2.22414" stroke-linecap="round"/>
<path d="M1260.75 406.783C1261.34 406.314 1262.19 406.362 1262.72 406.896L1271.5 415.679C1272.13 416.313 1272.07 417.358 1271.36 417.903L1230.55 449.23C1229.85 449.762 1228.85 449.583 1228.39 448.845L1222.24 439.095C1221.84 438.455 1221.98 437.615 1222.58 437.144L1260.75 406.783Z" fill="#FFB23E"/>
<path d="M1045.32 374.713C1045.03 374.016 1044.26 373.649 1043.54 373.858L1029.19 377.999C1028.33 378.248 1027.89 379.196 1028.25 380.017L1052.39 435.337C1052.73 436.137 1053.7 436.463 1054.46 436.042L1066.62 429.341C1067.28 428.976 1067.56 428.171 1067.27 427.473L1045.32 374.713Z" fill="#FFB23E"/>
<rect width="8.24946" height="59.3105" rx="4.12473" transform="matrix(0.883517 -0.468398 0.468397 0.883518 999.203 356.037)" fill="#964C1A"/>
<rect width="6.67244" height="8.8354" rx="3.33622" transform="matrix(-0.3453 -0.938492 -0.938492 0.345302 1032.04 392.058)" fill="#EAD1D0"/>
<path d="M1014.97 339.778C1015.27 338.702 1014.32 337.692 1013.23 337.93L1004.12 339.914C1003.73 339.999 1003.32 339.922 1002.98 339.7L995.22 334.537C994.29 333.918 993.035 334.512 992.923 335.624L991.996 344.899C991.956 345.299 991.756 345.665 991.441 345.914L984.133 351.7C983.257 352.394 983.434 353.771 984.457 354.22L992.991 357.969C993.359 358.13 993.645 358.434 993.785 358.81L997.03 367.549C997.419 368.596 998.783 368.853 999.527 368.019L1005.73 361.061C1006 360.761 1006.37 360.582 1006.77 360.566L1016.09 360.18C1017.2 360.134 1017.87 358.916 1017.31 357.951L1012.61 349.902C1012.4 349.555 1012.35 349.141 1012.46 348.755L1014.97 339.778Z" fill="#FFB23E"/>
<path d="M1009.52 345.168C1009.83 344.092 1008.87 343.082 1007.78 343.32L1003.45 344.263C1003.06 344.349 1002.65 344.271 1002.32 344.049L998.627 341.595C997.696 340.976 996.441 341.57 996.33 342.682L995.889 347.09C995.85 347.49 995.649 347.856 995.334 348.105L991.861 350.855C990.985 351.549 991.162 352.926 992.185 353.375L996.241 355.157C996.609 355.318 996.895 355.622 997.035 355.998L998.577 360.151C998.966 361.199 1000.33 361.456 1001.07 360.622L1004.02 357.315C1004.29 357.015 1004.67 356.836 1005.07 356.82L1009.49 356.636C1010.61 356.59 1011.28 355.372 1010.71 354.407L1008.48 350.582C1008.28 350.235 1008.22 349.821 1008.33 349.435L1009.52 345.168Z" fill="#FFFACC"/>
<rect x="1118.57" y="462.639" width="17.0517" height="31.138" fill="#0D3F41"/>
<path d="M1114.77 487.314C1114.63 486.839 1114.98 486.363 1115.48 486.363H1136.73C1137.14 486.363 1137.47 486.695 1137.47 487.105V511.57H1109.47C1108.16 511.57 1107.49 509.995 1108.4 509.055L1118.19 498.967L1114.77 487.314Z" fill="#964C1A"/>
<rect width="17.0517" height="31.138" transform="matrix(-1 0 0 1 1187.88 462.639)" fill="#0D3F41"/>
<path d="M1191.69 487.314C1191.83 486.839 1191.47 486.363 1190.98 486.363H1169.72C1169.32 486.363 1168.98 486.695 1168.98 487.105V511.57H1196.99C1198.3 511.57 1198.96 509.995 1198.05 509.055L1188.26 498.967L1191.69 487.314Z" fill="#964C1A"/>
<ellipse cx="1153.79" cy="385.165" rx="14.4569" ry="14.4569" fill="#FCDC8F"/>
<ellipse cx="1153.78" cy="385.165" rx="10.0086" ry="10.0087" fill="#A53459"/>
<ellipse cx="1150.08" cy="381.458" rx="4.81897" ry="4.81898" fill="#EAD1D0"/>
<defs>
<filter id="filter0_i_4147_72" x="173" y="475" width="253.5" height="112.832" filterUnits="userSpaceOnUse" color-interpolation-filters="sRGB">
<feFlood flood-opacity="0" result="BackgroundImageFix"/>
<feBlend mode="normal" in="SourceGraphic" in2="BackgroundImageFix" result="shape"/>
<feColorMatrix in="SourceAlpha" type="matrix" values="0 0 0 0 0 0 0 0 0 0 0 0 0 0 0 0 0 0 127 0" result="hardAlpha"/>
<feOffset dy="4"/>
<feGaussianBlur stdDeviation="2"/>
<feComposite in2="hardAlpha" operator="arithmetic" k2="-1" k3="1"/>
<feColorMatrix type="matrix" values="0 0 0 0 0 0 0 0 0 0 0 0 0 0 0 0 0 0 0.25 0"/>
<feBlend mode="normal" in2="shape" result="effect1_innerShadow_4147_72"/>
</filter>
<filter id="filter1_i_4147_72" x="304.828" y="514.912" width="33.0625" height="38.6035" filterUnits="userSpaceOnUse" color-interpolation-filters="sRGB">
<feFlood flood-opacity="0" result="BackgroundImageFix"/>
<feBlend mode="normal" in="SourceGraphic" in2="BackgroundImageFix" result="shape"/>
<feColorMatrix in="SourceAlpha" type="matrix" values="0 0 0 0 0 0 0 0 0 0 0 0 0 0 0 0 0 0 127 0" result="hardAlpha"/>
<feOffset dy="4"/>
<feGaussianBlur stdDeviation="2"/>
<feComposite in2="hardAlpha" operator="arithmetic" k2="-1" k3="1"/>
<feColorMatrix type="matrix" values="0 0 0 0 0 0 0 0 0 0 0 0 0 0 0 0 0 0 0.25 0"/>
<feBlend mode="normal" in2="shape" result="effect1_innerShadow_4147_72"/>
</filter>
<filter id="filter2_d_4147_72" x="292.047" y="507.485" width="22.7656" height="60.1709" filterUnits="userSpaceOnUse" color-interpolation-filters="sRGB">
<feFlood flood-opacity="0" result="BackgroundImageFix"/>
<feColorMatrix in="SourceAlpha" type="matrix" values="0 0 0 0 0 0 0 0 0 0 0 0 0 0 0 0 0 0 127 0" result="hardAlpha"/>
<feOffset dy="4"/>
<feGaussianBlur stdDeviation="2"/>
<feComposite in2="hardAlpha" operator="out"/>
<feColorMatrix type="matrix" values="0 0 0 0 0 0 0 0 0 0 0 0 0 0 0 0 0 0 0.25 0"/>
<feBlend mode="normal" in2="BackgroundImageFix" result="effect1_dropShadow_4147_72"/>
<feBlend mode="normal" in="SourceGraphic" in2="effect1_dropShadow_4147_72" result="shape"/>
</filter>
<filter id="filter3_i_4147_72" x="183.984" y="491.363" width="82.1953" height="61.9854" filterUnits="userSpaceOnUse" color-interpolation-filters="sRGB">
<feFlood flood-opacity="0" result="BackgroundImageFix"/>
<feBlend mode="normal" in="SourceGraphic" in2="BackgroundImageFix" result="shape"/>
<feColorMatrix in="SourceAlpha" type="matrix" values="0 0 0 0 0 0 0 0 0 0 0 0 0 0 0 0 0 0 127 0" result="hardAlpha"/>
<feOffset dy="4"/>
<feGaussianBlur stdDeviation="2"/>
<feComposite in2="hardAlpha" operator="arithmetic" k2="-1" k3="1"/>
<feColorMatrix type="matrix" values="0 0 0 0 0 0 0 0 0 0 0 0 0 0 0 0 0 0 0.25 0"/>
<feBlend mode="normal" in2="shape" result="effect1_innerShadow_4147_72"/>
</filter>
<filter id="filter4_i_4147_72" x="363.758" y="535.517" width="32.9844" height="15.5068" filterUnits="userSpaceOnUse" color-interpolation-filters="sRGB">
<feFlood flood-opacity="0" result="BackgroundImageFix"/>
<feBlend mode="normal" in="SourceGraphic" in2="BackgroundImageFix" result="shape"/>
<feColorMatrix in="SourceAlpha" type="matrix" values="0 0 0 0 0 0 0 0 0 0 0 0 0 0 0 0 0 0 127 0" result="hardAlpha"/>
<feOffset dy="4"/>
<feGaussianBlur stdDeviation="2"/>
<feComposite in2="hardAlpha" operator="arithmetic" k2="-1" k3="1"/>
<feColorMatrix type="matrix" values="0 0 0 0 0 0 0 0 0 0 0 0 0 0 0 0 0 0 0.25 0"/>
<feBlend mode="normal" in2="shape" result="effect1_innerShadow_4147_72"/>
</filter>
</defs>
</svg>
