<svg width="335" height="74" viewBox="0 0 335 74" fill="none" xmlns="http://www.w3.org/2000/svg">
<path d="M304.458 10.621L306.289 9.99316L306.55 11.2488L305.556 11.6673L304.458 10.621Z" fill="#497A76"/>
<path d="M306.289 9.99324L307.335 9.57471L307.074 11.0396L306.551 11.2488L306.289 9.99324Z" fill="#75A4A2"/>
<path d="M317.519 40.4043L315.702 42.2357L314.168 36.4388L314.155 36.3898L314.123 36.351L312.078 33.9295L312.073 31.4259L312.073 31.4128L312.071 31.3997L311.858 29.6051L311.856 29.591L311.853 29.5771L311.548 28.3594L311.849 26.8797L311.857 26.8414L311.852 26.8028L311.745 26.0639L311.736 25.9973L311.691 25.9469L311.272 25.4712L311.251 25.4476L311.225 25.4307L310.738 25.1178L310.591 23.852L310.4 22.1074L311.708 21.8626L312.626 23.5637L312.9 24.1132L312.614 25.0288L312.609 25.0452L312.607 25.0621L312.503 25.7479L312.496 25.7942L312.508 25.8395L312.719 26.6315L312.733 26.6843L312.77 26.7248L313.832 27.8974L314.189 29.4245L314.188 29.4245L314.19 29.4298L314.559 30.8553L314.569 30.8937L314.591 30.9265L315.971 32.9328L316.081 36.4026L316.082 36.4384L316.094 36.4722L317.519 40.4043Z" fill="#396D6F" stroke="#396260" stroke-width="0.450538"/>
<path d="M309.038 22.3575L310.712 22.0454L311.72 23.9369L312.039 24.5852L311.731 25.6063L311.63 26.3056L311.845 27.1148L312.953 28.3607L313.331 29.9788L313.707 31.4352L315.135 33.5448L315.263 37.1536L316.757 41.3099L314.571 43.5572L312.906 37.2457L310.794 34.7007L310.777 32.062L310.555 30.2296L310.233 28.935L310.537 27.3754L310.427 26.6208L310.005 26.1334L309.427 25.7526L309.26 24.3514L309.038 22.3575Z" fill="#326A67"/>
<path d="M316.7 41.2205L314.881 43.0395L313.359 37.2969L313.344 37.2414L313.305 37.1997L311.477 35.2704L311.273 32.3167L311.274 32.3167L311.272 32.3058L311.063 30.5271L311.061 30.5128L311.057 30.4988L310.756 29.2931L311.06 27.8263L311.071 27.7709L311.055 27.7167L310.637 26.3041L310.614 26.2277L310.548 26.1825L309.8 25.668L309.704 24.416L309.613 23.0997L310.929 22.8529L311.843 24.5366L312.113 25.0775L311.829 25.9306L311.811 25.9844L311.821 26.0401L312.082 27.5573L312.092 27.6132L312.127 27.6579L313.037 28.822L313.393 30.3431L313.398 30.3671L313.409 30.3894L314.037 31.6972L314.037 31.6973L314.041 31.7062L315.167 33.8045L315.27 37.2567L315.271 37.2929L315.284 37.327L316.7 41.2205Z" fill="#86B3B5" stroke="#9BCDCB" stroke-width="0.450538"/>
<path d="M310.232 18.4684L312.76 17.4744L314.348 16.585L314.759 16.3234L315.053 16.0618L315.289 15.7479L315.465 15.434L315.583 15.0678L315.641 14.8586L315.7 14.5447L315.759 14.2308L315.818 13.8646V13.6553V13.446L315.759 12.5566L316.641 13.8122L316.994 14.4923L317.17 15.2248V16.1142L317.053 17.0035L316.7 17.6836L316.229 18.2068L310.055 21.9736L310.232 18.4684Z" fill="#3C6162"/>
<path d="M307.712 19.1369L305.024 19.5283L303.204 19.5437L302.717 19.5208L302.332 19.4396L301.972 19.2837L301.663 19.0987L301.379 18.8391L301.224 18.6865L301.017 18.4432L300.811 18.1998L300.578 17.911L300.474 17.7293L300.37 17.5476L299.98 16.7462L299.837 18.274L299.868 19.0395L300.078 19.763L300.52 20.5352L301.063 21.2491L301.707 21.6645L302.375 21.8854L309.604 22.0929L307.712 19.1369Z" fill="#3C6162"/>
<path d="M316.387 18.3015L311.294 21.7939L311.425 18.8796L313.547 17.942L313.562 17.9354L313.576 17.9266L314.988 17.0372L314.988 17.0375L314.999 17.0299L315.365 16.7683L315.38 16.7575L315.394 16.7443L315.655 16.4827L315.671 16.4669L315.683 16.4484L315.893 16.1345L315.9 16.1228L315.907 16.1103L316.064 15.7964L316.073 15.7776L316.079 15.7575L316.183 15.3913L316.184 15.3913L316.185 15.384L316.238 15.1748L316.24 15.1661L316.241 15.1572L316.294 14.8433L316.346 14.5294L316.346 14.5294L316.347 14.5242L316.399 14.158L316.401 14.1421V14.1261V13.9169V13.778L316.714 14.1905L317.007 14.8256L317.154 15.5102V16.3625L317.055 17.2032L316.768 17.8259L316.387 18.3015Z" fill="#B7D6D6" stroke="#84BCB9" stroke-width="0.450538"/>
<path d="M302.592 22.2284L308.702 22.3848L307.073 20.0223L304.784 20.3854L304.768 20.388L304.751 20.3882L303.082 20.4074L303.082 20.4078L303.069 20.4072L302.619 20.3861L302.601 20.3852L302.582 20.3813L302.221 20.3035L302.199 20.2988L302.179 20.2899L301.832 20.1397L301.82 20.1342L301.808 20.127L301.505 19.9485L301.487 19.9378L301.472 19.924L301.185 19.6732L301.185 19.6732L301.179 19.6681L301.022 19.5207L301.015 19.5146L301.009 19.5079L300.795 19.2726L300.581 19.0373L300.581 19.0373L300.577 19.0334L300.335 18.7541L300.324 18.742L300.316 18.7286L300.202 18.5528L300.089 18.377L300.086 18.3737L300.086 18.9439L300.186 19.645L300.434 20.2997L300.897 21.0156L301.436 21.6682L302.015 22.0354L302.592 22.2284Z" fill="#B7D6D6" stroke="#84BCB9" stroke-width="0.450538"/>
<path d="M313.088 20.0904L311.02 21.1229L310.677 19.7113L312.45 19.1317L313.036 18.8871L313.35 18.7302L313.559 18.5732L313.821 18.3639L313.925 18.2593L314.259 17.8535L314.292 18.1547L314.292 18.4163L314.239 18.6778L314.135 18.9394L313.978 19.2533L313.821 19.5149L313.088 20.0904Z" fill="#304746"/>
<path d="M305.992 21.9471L308.636 21.7205L308.185 20.336L306.091 20.7898L305.368 20.895L304.967 20.9291L304.67 20.9074L304.292 20.8691L304.129 20.8359L303.568 20.6687L303.704 20.9426L303.851 21.1652L304.05 21.3599L304.301 21.5266L304.634 21.7099L304.938 21.8487L305.992 21.9471Z" fill="#304746"/>
<path d="M311.695 20.1735L311.932 19.9585L311.627 19.8602L311.695 20.1735Z" fill="#84BCB9"/>
<path d="M311.693 20.1726L311.931 19.9581L311.997 20.2715L311.693 20.1726Z" fill="#84BCB9"/>
<path d="M311.863 19.6448L311.929 19.9582L312.167 19.7437L311.863 19.6448Z" fill="#84BCB9"/>
<path d="M311.999 20.2707L311.93 19.9578L312.235 20.0547L311.999 20.2707Z" fill="#84BCB9"/>
<path d="M312.235 20.0567L311.93 19.9584L312.167 19.7435L312.235 20.0567Z" fill="#84BCB9"/>
<path d="M311.627 19.8618L311.933 19.9587L311.864 19.6458L311.627 19.8618Z" fill="#84BCB9"/>
<path d="M311.766 20.1126L311.929 19.9655L311.72 19.8982L311.766 20.1126Z" fill="#A8D6D7"/>
<path d="M311.763 20.112L311.926 19.9653L311.971 20.1797L311.763 20.112Z" fill="#A8D6D7"/>
<path d="M311.88 19.7512L311.926 19.9657L312.088 19.8189L311.88 19.7512Z" fill="#A8D6D7"/>
<path d="M311.975 20.18L311.928 19.9659L312.137 20.0322L311.975 20.18Z" fill="#A8D6D7"/>
<path d="M312.136 20.0332L311.927 19.9659L312.09 19.8188L312.136 20.0332Z" fill="#A8D6D7"/>
<path d="M311.72 19.8995L311.929 19.9658L311.881 19.7517L311.72 19.8995Z" fill="#A8D6D7"/>
<path d="M312.603 19.7362L312.766 19.5888L312.557 19.5213L312.603 19.7362Z" fill="#84BCB9"/>
<path d="M312.599 19.7362L312.762 19.5891L312.808 19.8041L312.599 19.7362Z" fill="#84BCB9"/>
<path d="M312.719 19.374L312.765 19.589L312.928 19.4418L312.719 19.374Z" fill="#84BCB9"/>
<path d="M312.811 19.8034L312.764 19.5888L312.973 19.6552L312.811 19.8034Z" fill="#84BCB9"/>
<path d="M312.972 19.6564L312.763 19.589L312.926 19.4415L312.972 19.6564Z" fill="#84BCB9"/>
<path d="M312.553 19.5224L312.762 19.5888L312.715 19.3742L312.553 19.5224Z" fill="#84BCB9"/>
<path d="M312.651 19.6951L312.762 19.5942L312.619 19.5481L312.651 19.6951Z" fill="#A8D6D7"/>
<path d="M312.653 19.6949L312.765 19.5942L312.796 19.7413L312.653 19.6949Z" fill="#A8D6D7"/>
<path d="M312.732 19.4473L312.763 19.5944L312.875 19.4937L312.732 19.4473Z" fill="#A8D6D7"/>
<path d="M312.795 19.7413L312.762 19.5945L312.906 19.6399L312.795 19.7413Z" fill="#A8D6D7"/>
<path d="M312.907 19.6403L312.764 19.5941L312.875 19.4933L312.907 19.6403Z" fill="#A8D6D7"/>
<path d="M312.621 19.5492L312.764 19.5946L312.732 19.4478L312.621 19.5492Z" fill="#A8D6D7"/>
<path d="M313.258 19.3711L313.378 19.2621L313.224 19.2122L313.258 19.3711Z" fill="#84BCB9"/>
<path d="M313.258 19.3711L313.379 19.2623L313.413 19.4213L313.258 19.3711Z" fill="#84BCB9"/>
<path d="M313.346 19.1033L313.379 19.2623L313.5 19.1535L313.346 19.1033Z" fill="#84BCB9"/>
<path d="M313.414 19.4208L313.379 19.2621L313.534 19.3113L313.414 19.4208Z" fill="#84BCB9"/>
<path d="M313.533 19.312L313.379 19.2621L313.499 19.1531L313.533 19.312Z" fill="#84BCB9"/>
<path d="M313.226 19.2137L313.381 19.2628L313.346 19.1041L313.226 19.2137Z" fill="#84BCB9"/>
<path d="M313.298 19.3414L313.38 19.267L313.275 19.233L313.298 19.3414Z" fill="#A8D6D7"/>
<path d="M313.299 19.3412L313.381 19.2669L313.404 19.3754L313.299 19.3412Z" fill="#A8D6D7"/>
<path d="M313.358 19.1576L313.381 19.2661L313.464 19.1918L313.358 19.1576Z" fill="#A8D6D7"/>
<path d="M313.404 19.3757L313.38 19.2673L313.486 19.3009L313.404 19.3757Z" fill="#A8D6D7"/>
<path d="M313.486 19.3008L313.381 19.2667L313.463 19.1923L313.486 19.3008Z" fill="#A8D6D7"/>
<path d="M313.273 19.233L313.379 19.2665L313.355 19.1582L313.273 19.233Z" fill="#A8D6D7"/>
<path d="M307.536 21.3122L307.224 21.2382L307.444 21.0052L307.536 21.3122Z" fill="#84BCB9"/>
<path d="M307.534 21.3116L307.222 21.2382L307.315 21.545L307.534 21.3116Z" fill="#84BCB9"/>
<path d="M307.13 20.932L307.222 21.2389L306.91 21.1654L307.13 20.932Z" fill="#84BCB9"/>
<path d="M307.312 21.5453L307.222 21.2379L307.001 21.4698L307.312 21.5453Z" fill="#84BCB9"/>
<path d="M307.002 21.4714L307.222 21.2385L306.91 21.1644L307.002 21.4714Z" fill="#84BCB9"/>
<path d="M307.443 21.0066L307.222 21.2385L307.131 20.9311L307.443 21.0066Z" fill="#84BCB9"/>
<path d="M307.442 21.2971L307.228 21.2465L307.379 21.0871L307.442 21.2971Z" fill="#A8D6D7"/>
<path d="M307.439 21.2963L307.226 21.246L307.289 21.456L307.439 21.2963Z" fill="#A8D6D7"/>
<path d="M307.164 21.0363L307.227 21.2463L307.014 21.196L307.164 21.0363Z" fill="#A8D6D7"/>
<path d="M307.291 21.4572L307.229 21.2469L307.078 21.4056L307.291 21.4572Z" fill="#A8D6D7"/>
<path d="M307.077 21.4057L307.227 21.2463L307.014 21.1957L307.077 21.4057Z" fill="#A8D6D7"/>
<path d="M307.38 21.0878L307.229 21.2465L307.167 21.0361L307.38 21.0878Z" fill="#A8D6D7"/>
<path d="M306.529 21.3681L306.316 21.3174L306.466 21.1576L306.529 21.3681Z" fill="#84BCB9"/>
<path d="M306.53 21.3673L306.316 21.3169L306.379 21.5273L306.53 21.3673Z" fill="#84BCB9"/>
<path d="M306.252 21.1067L306.316 21.3172L306.102 21.2668L306.252 21.1067Z" fill="#84BCB9"/>
<path d="M306.379 21.5278L306.317 21.3169L306.165 21.476L306.379 21.5278Z" fill="#84BCB9"/>
<path d="M306.165 21.4766L306.316 21.3168L306.102 21.266L306.165 21.4766Z" fill="#84BCB9"/>
<path d="M306.468 21.1579L306.316 21.317L306.254 21.1061L306.468 21.1579Z" fill="#84BCB9"/>
<path d="M306.464 21.3571L306.317 21.3223L306.421 21.213L306.464 21.3571Z" fill="#A8D6D7"/>
<path d="M306.464 21.3568L306.318 21.3223L306.361 21.4663L306.464 21.3568Z" fill="#A8D6D7"/>
<path d="M306.273 21.1786L306.317 21.3226L306.17 21.2881L306.273 21.1786Z" fill="#A8D6D7"/>
<path d="M306.358 21.4669L306.316 21.3227L306.212 21.4315L306.358 21.4669Z" fill="#A8D6D7"/>
<path d="M306.214 21.4317L306.317 21.3223L306.171 21.2876L306.214 21.4317Z" fill="#A8D6D7"/>
<path d="M306.42 21.2137L306.316 21.3225L306.274 21.1782L306.42 21.2137Z" fill="#A8D6D7"/>
<path d="M305.449 12.1755C305.362 11.9499 305.469 11.6961 305.691 11.6003L307.199 10.9493C307.421 10.8534 307.679 10.9499 307.783 11.168L308.086 11.7978C308.168 11.9702 308.133 12.1761 307.998 12.3113L307.868 12.4411C307.826 12.4827 307.777 12.5158 307.723 12.5384L307.177 12.7657L306.454 13.0552C306.413 13.0714 306.37 13.0816 306.327 13.0856L306.156 13.1011C305.955 13.1194 305.767 13.0022 305.694 12.814L305.449 12.1755Z" fill="#555555"/>
<path d="M305.782 21.3646L305.624 21.3271L305.735 21.2089L305.782 21.3646Z" fill="#84BCB9"/>
<path d="M305.779 21.3643L305.62 21.327L305.667 21.4826L305.779 21.3643Z" fill="#84BCB9"/>
<path d="M305.575 21.1714L305.622 21.327L305.464 21.2898L305.575 21.1714Z" fill="#84BCB9"/>
<path d="M305.667 21.4829L305.621 21.327L305.509 21.4446L305.667 21.4829Z" fill="#84BCB9"/>
<path d="M305.509 21.445L305.621 21.3269L305.463 21.2893L305.509 21.445Z" fill="#84BCB9"/>
<path d="M305.735 21.2096L305.623 21.3273L305.577 21.1714L305.735 21.2096Z" fill="#84BCB9"/>
<path d="M305.731 21.3571L305.623 21.3315L305.699 21.2508L305.731 21.3571Z" fill="#A8D6D7"/>
<path d="M305.731 21.3571L305.623 21.3317L305.655 21.4379L305.731 21.3571Z" fill="#A8D6D7"/>
<path d="M305.59 21.2251L305.622 21.3313L305.514 21.3059L305.59 21.2251Z" fill="#A8D6D7"/>
<path d="M305.653 21.4385L305.622 21.3321L305.546 21.4124L305.653 21.4385Z" fill="#A8D6D7"/>
<path d="M305.543 21.4123L305.619 21.3316L305.511 21.306L305.543 21.4123Z" fill="#A8D6D7"/>
<path d="M305.699 21.2509L305.623 21.3312L305.591 21.2248L305.699 21.2509Z" fill="#A8D6D7"/>
<path d="M306.394 13.0799L307.807 12.5045L308.591 13.917L309.271 15.3296L309.846 16.7421L310.37 18.4163L308.12 19.201L307.336 17.527L306.969 16.1668L306.603 14.5971L306.394 13.0799Z" fill="#253333"/>
<path d="M306.64 12.9931L307.597 12.6093L308.256 14.0225L308.872 15.4564L309.415 16.8797L309.948 18.5506L308.457 19.0839L307.742 17.3869L307.35 16.0351L306.938 14.4809L306.64 12.9931Z" fill="#303F3F"/>
<path d="M307.177 19.7766L308.642 17.2656L311.205 18.7303L310.997 25.3745L307.177 19.7766Z" fill="#4B7270"/>
<path d="M307.688 20.1095L308.873 18.0776L310.947 19.2628L310.778 24.639L307.688 20.1095Z" fill="#304746"/>
<path d="M309.296 20.7547L309.422 20.0379L308.738 20.2877L309.296 20.7547Z" fill="#84BCB9"/>
<path d="M309.296 20.7551L309.422 20.0386L309.979 20.5067L309.296 20.7551Z" fill="#84BCB9"/>
<path d="M308.866 19.5704L309.423 20.0385L309.55 19.322L308.866 19.5704Z" fill="#84BCB9"/>
<path d="M309.983 20.5025L309.423 20.038L310.105 19.7851L309.983 20.5025Z" fill="#84BCB9"/>
<path d="M310.104 19.7883L309.421 20.0381L309.546 19.3213L310.104 19.7883Z" fill="#84BCB9"/>
<path d="M308.741 20.2916L309.423 20.0386L308.863 19.5742L308.741 20.2916Z" fill="#84BCB9"/>
<path d="M309.35 20.5405L309.435 20.0501L308.968 20.221L309.35 20.5405Z" fill="#A8D6D7"/>
<path d="M309.347 20.5402L309.434 20.0499L309.815 20.3702L309.347 20.5402Z" fill="#A8D6D7"/>
<path d="M309.055 19.7298L309.436 20.0501L309.523 19.5598L309.055 19.7298Z" fill="#A8D6D7"/>
<path d="M309.816 20.368L309.433 20.0502L309.9 19.8772L309.816 20.368Z" fill="#A8D6D7"/>
<path d="M309.902 19.8793L309.434 20.0502L309.52 19.5598L309.902 19.8793Z" fill="#A8D6D7"/>
<path d="M308.97 20.2235L309.436 20.0504L309.053 19.7327L308.97 20.2235Z" fill="#A8D6D7"/>
<path d="M312.482 34.6248L313.458 34.582L312.933 33.7578L312.482 34.6248Z" fill="#68A4A1"/>
<path d="M312.48 34.6235L313.457 34.5825L313.004 35.4487L312.48 34.6235Z" fill="#68A4A1"/>
<path d="M313.912 33.717L313.459 34.5832L314.435 34.5422L313.912 33.717Z" fill="#68A4A1"/>
<path d="M313.01 35.4518L313.458 34.5827L313.987 35.4045L313.01 35.4518Z" fill="#68A4A1"/>
<path d="M313.984 35.4061L313.458 34.5819L314.435 34.539L313.984 35.4061Z" fill="#68A4A1"/>
<path d="M312.926 33.7606L313.456 34.5823L313.903 33.7132L312.926 33.7606Z" fill="#68A4A1"/>
<path d="M312.766 34.6265L313.434 34.6055L313.082 34.0372L312.766 34.6265Z" fill="#8BCACC"/>
<path d="M312.767 34.6259L313.436 34.6062L313.118 35.195L312.767 34.6259Z" fill="#8BCACC"/>
<path d="M313.752 34.0162L313.434 34.605L314.103 34.5853L313.752 34.0162Z" fill="#8BCACC"/>
<path d="M313.123 35.1967L313.436 34.6059L313.791 35.1727L313.123 35.1967Z" fill="#8BCACC"/>
<path d="M313.786 35.1742L313.434 34.6058L314.102 34.5849L313.786 35.1742Z" fill="#8BCACC"/>
<path d="M313.078 34.0398L313.433 34.6066L313.747 34.0158L313.078 34.0398Z" fill="#8BCACC"/>
<path d="M312.296 32.7999L312.769 32.7472L312.487 32.364L312.296 32.7999Z" fill="#68A4A1"/>
<path d="M312.297 32.7993L312.77 32.7476L312.579 33.1831L312.297 32.7993Z" fill="#68A4A1"/>
<path d="M312.96 32.3126L312.769 32.7481L313.242 32.6964L312.96 32.3126Z" fill="#68A4A1"/>
<path d="M312.582 33.1843L312.771 32.7475L313.055 33.1294L312.582 33.1843Z" fill="#68A4A1"/>
<path d="M313.054 33.131L312.772 32.7477L313.245 32.6951L313.054 33.131Z" fill="#68A4A1"/>
<path d="M312.487 32.3654L312.771 32.7474L312.96 32.3106L312.487 32.3654Z" fill="#68A4A1"/>
<path d="M312.44 32.7964L312.763 32.7604L312.57 32.4982L312.44 32.7964Z" fill="#8BCACC"/>
<path d="M312.438 32.7962L312.762 32.7608L312.631 33.0588L312.438 32.7962Z" fill="#8BCACC"/>
<path d="M312.895 32.4619L312.764 32.7598L313.087 32.7244L312.895 32.4619Z" fill="#8BCACC"/>
<path d="M312.635 33.0596L312.764 32.7607L312.958 33.0221L312.635 33.0596Z" fill="#8BCACC"/>
<path d="M312.954 33.0223L312.761 32.76L313.085 32.724L312.954 33.0223Z" fill="#8BCACC"/>
<path d="M312.566 32.4997L312.76 32.761L312.89 32.4622L312.566 32.4997Z" fill="#8BCACC"/>
<path d="M312.038 31.3425L312.343 31.3086L312.161 31.0612L312.038 31.3425Z" fill="#68A4A1"/>
<path d="M312.038 31.3421L312.344 31.3087L312.22 31.5898L312.038 31.3421Z" fill="#68A4A1"/>
<path d="M312.466 31.0276L312.342 31.3087L312.647 31.2753L312.466 31.0276Z" fill="#68A4A1"/>
<path d="M312.221 31.5911L312.343 31.3091L312.526 31.5557L312.221 31.5911Z" fill="#68A4A1"/>
<path d="M312.525 31.5558L312.343 31.3084L312.648 31.2744L312.525 31.5558Z" fill="#68A4A1"/>
<path d="M312.162 31.0617L312.346 31.3083L312.467 31.0263L312.162 31.0617Z" fill="#68A4A1"/>
<path d="M312.136 31.3389L312.345 31.3157L312.221 31.1464L312.136 31.3389Z" fill="#8BCACC"/>
<path d="M312.135 31.3391L312.344 31.3163L312.259 31.5086L312.135 31.3391Z" fill="#8BCACC"/>
<path d="M312.428 31.1231L312.344 31.3154L312.552 31.2926L312.428 31.1231Z" fill="#8BCACC"/>
<path d="M312.261 31.5091L312.344 31.3161L312.469 31.4848L312.261 31.5091Z" fill="#8BCACC"/>
<path d="M312.469 31.4851L312.344 31.3158L312.553 31.2926L312.469 31.4851Z" fill="#8BCACC"/>
<path d="M312.219 31.1475L312.345 31.3162L312.428 31.1233L312.219 31.1475Z" fill="#8BCACC"/>
<path d="M313.671 36.4495L313.976 36.4155L313.794 36.1681L313.671 36.4495Z" fill="#68A4A1"/>
<path d="M313.672 36.449L313.977 36.4156L313.853 36.6967L313.672 36.449Z" fill="#68A4A1"/>
<path d="M314.099 36.135L313.975 36.4162L314.28 36.3827L314.099 36.135Z" fill="#68A4A1"/>
<path d="M313.854 36.698L313.976 36.416L314.159 36.6626L313.854 36.698Z" fill="#68A4A1"/>
<path d="M314.158 36.6632L313.976 36.4158L314.281 36.3818L314.158 36.6632Z" fill="#68A4A1"/>
<path d="M313.795 36.1691L313.979 36.4157L314.1 36.1337L313.795 36.1691Z" fill="#68A4A1"/>
<path d="M313.769 36.4468L313.978 36.4236L313.853 36.2543L313.769 36.4468Z" fill="#8BCACC"/>
<path d="M313.768 36.4466L313.977 36.4237L313.892 36.6161L313.768 36.4466Z" fill="#8BCACC"/>
<path d="M314.061 36.231L313.976 36.4233L314.185 36.4005L314.061 36.231Z" fill="#8BCACC"/>
<path d="M313.894 36.6165L313.977 36.4236L314.102 36.5923L313.894 36.6165Z" fill="#8BCACC"/>
<path d="M314.102 36.5925L313.977 36.4233L314.186 36.4L314.102 36.5925Z" fill="#8BCACC"/>
<path d="M313.852 36.2549L313.978 36.4236L314.061 36.2307L313.852 36.2549Z" fill="#8BCACC"/>
<path d="M310.251 22.2673L310.021 21.8693L309.791 22.2673L310.251 22.2673Z" fill="#84BCB9"/>
<path d="M310.246 22.2676L310.017 21.8691L310.477 21.87L310.246 22.2676Z" fill="#84BCB9"/>
<path d="M309.559 21.8682L310.019 21.8691L309.79 21.4706L309.559 21.8682Z" fill="#84BCB9"/>
<path d="M310.477 21.8671L310.017 21.8693L310.245 21.4702L310.477 21.8671Z" fill="#84BCB9"/>
<path d="M310.251 21.471L310.021 21.869L309.791 21.471L310.251 21.471Z" fill="#84BCB9"/>
<path d="M309.792 22.2683L310.02 21.8692L309.561 21.8714L309.792 22.2683Z" fill="#84BCB9"/>
<path d="M310.189 22.1416L310.031 21.8693L309.874 22.1416L310.189 22.1416Z" fill="#A8D6D7"/>
<path d="M310.188 22.1417L310.032 21.8691L310.346 21.8697L310.188 22.1417Z" fill="#A8D6D7"/>
<path d="M309.716 21.8688L310.031 21.8694L309.874 21.5968L309.716 21.8688Z" fill="#A8D6D7"/>
<path d="M310.346 21.8681L310.031 21.8696L310.187 21.5965L310.346 21.8681Z" fill="#A8D6D7"/>
<path d="M310.189 21.5972L310.031 21.8695L309.874 21.5972L310.189 21.5972Z" fill="#A8D6D7"/>
<path d="M309.876 22.1427L310.032 21.8697L309.718 21.8711L309.876 22.1427Z" fill="#A8D6D7"/>
<path d="M304.771 6.80176L306.289 9.99306L304.458 10.6209L304.771 6.80176Z" fill="#558B87"/>
<path d="M304.77 6.80211L307.334 9.57488L306.287 9.99341L304.77 6.80211Z" fill="#84BCB9"/>
<path d="M298.644 4.92764L299.208 4.438L299.804 5.37258L299.189 5.14276L298.644 4.92764Z" fill="#B9DCD9"/>
<path d="M299.208 4.43776L299.521 4.13659L299.64 4.69833L299.804 5.37234L299.208 4.43776Z" fill="#CAEDEB"/>
<path d="M298.203 3.51607L299.208 4.43769L298.644 4.92734L298.203 3.51607Z" fill="#BDEDE9"/>
<path d="M298.203 3.51602L299.522 4.13646L299.208 4.43764L298.203 3.51602Z" fill="#E2F5F4"/>
<path d="M302.313 0.863358L302.625 0.756348L302.714 1.2379L302.5 1.04171L302.313 0.863358Z" fill="#B9DCD9"/>
<path d="M302.626 0.756399L302.804 0.685059L302.759 0.93475L302.715 1.23795L302.626 0.756399Z" fill="#CAEDEB"/>
<path d="M302.366 0.212402L302.625 0.756374L302.313 0.863385L302.366 0.212402Z" fill="#BDEDE9"/>
<path d="M302.366 0.21248L302.803 0.685111L302.625 0.756451L302.366 0.21248Z" fill="#E2F5F4"/>
<path d="M304.244 3.78593L304.573 3.80994L304.467 4.28787L304.347 4.02345L304.244 3.78593Z" fill="#B9DCD9"/>
<path d="M304.574 3.81025L304.766 3.8146L304.627 4.02678L304.467 4.28818L304.574 3.81025Z" fill="#CAEDEB"/>
<path d="M304.551 3.20849L304.576 3.81031L304.247 3.7863L304.551 3.20849Z" fill="#BDEDE9"/>
<path d="M304.551 3.2083L304.767 3.81446L304.575 3.81011L304.551 3.2083Z" fill="#E2F5F4"/>
<path d="M301.681 4.25191L301.882 3.99067L302.222 4.34346L301.935 4.29761L301.681 4.25191Z" fill="#B9DCD9"/>
<path d="M301.88 3.99069L301.989 3.83291L302.09 4.06587L302.22 4.34348L301.88 3.99069Z" fill="#CAEDEB"/>
<path d="M301.366 3.67902L301.882 3.99058L301.68 4.25181L301.366 3.67902Z" fill="#BDEDE9"/>
<path d="M301.368 3.67916L301.993 3.83293L301.884 3.99071L301.368 3.67916Z" fill="#E2F5F4"/>
<path d="M306.968 1.68788L307.798 1.84468L307.388 3.02931L307.159 2.32182L306.968 1.68788Z" fill="#B9DCD9"/>
<path d="M307.801 1.84482L308.288 1.91173L307.873 2.41105L307.39 3.02945L307.801 1.84482Z" fill="#CAEDEB"/>
<path d="M307.914 0.306967L307.801 1.84494L306.971 1.68814L307.914 0.306967Z" fill="#BDEDE9"/>
<path d="M307.912 0.306044L308.287 1.91094L307.799 1.84402L307.912 0.306044Z" fill="#E2F5F4"/>
<path d="M307.849 6.219L308.386 6.32042L308.12 7.08665L307.973 6.62904L307.849 6.219Z" fill="#B9DCD9"/>
<path d="M308.388 6.32048L308.703 6.36376L308.434 6.68672L308.122 7.08671L308.388 6.32048Z" fill="#CAEDEB"/>
<path d="M308.461 5.32602L308.388 6.32081L307.851 6.21939L308.461 5.32602Z" fill="#BDEDE9"/>
<path d="M308.462 5.32544L308.704 6.36351L308.389 6.32023L308.462 5.32544Z" fill="#E2F5F4"/>
<path d="M299.387 11.2042L299.522 10.6748L300.27 10.989L299.804 11.107L299.387 11.2042Z" fill="#B9DCD9"/>
<path d="M299.522 10.6742L299.585 10.3625L299.89 10.6511L300.27 10.9884L299.522 10.6742Z" fill="#CAEDEB"/>
<path d="M298.534 10.5387L299.522 10.6751L299.387 11.2044L298.534 10.5387Z" fill="#BDEDE9"/>
<path d="M298.53 10.5387L299.582 10.3632L299.518 10.675L298.53 10.5387Z" fill="#E2F5F4"/>
<path d="M300.832 8.06344L301.057 7.75138L301.466 8.15042L301.13 8.10743L300.832 8.06344Z" fill="#B9DCD9"/>
<path d="M301.058 7.75111L301.18 7.56308L301.305 7.83112L301.467 8.15016L301.058 7.75111Z" fill="#CAEDEB"/>
<path d="M300.445 7.40686L301.058 7.75139L300.832 8.06345L300.445 7.40686Z" fill="#BDEDE9"/>
<path d="M300.444 7.40719L301.179 7.56368L301.057 7.75172L300.444 7.40719Z" fill="#E2F5F4"/>
<path d="M311.281 6.91204L311.782 7.10379L311.391 7.79851L311.329 7.33018L311.281 6.91204Z" fill="#B9DCD9"/>
<path d="M311.78 7.10379L312.078 7.20063L311.762 7.46614L311.39 7.79852L311.78 7.10379Z" fill="#CAEDEB"/>
<path d="M312.025 6.15492L311.781 7.10432L311.279 6.91258L312.025 6.15492Z" fill="#BDEDE9"/>
<path d="M312.024 6.15423L312.078 7.20047L311.78 7.10363L312.024 6.15423Z" fill="#E2F5F4"/>
<path d="M16.052 65V39.8H28.472C31.28 39.8 33.752 40.316 35.888 41.348C38.024 42.356 39.692 43.796 40.892 45.668C42.092 47.54 42.692 49.772 42.692 52.364C42.692 54.98 42.092 57.236 40.892 59.132C39.692 61.004 38.024 62.456 35.888 63.488C33.752 64.496 31.28 65 28.472 65H16.052ZM24.548 58.376H28.112C29.312 58.376 30.356 58.148 31.244 57.692C32.156 57.236 32.864 56.564 33.368 55.676C33.872 54.764 34.124 53.66 34.124 52.364C34.124 51.092 33.872 50.012 33.368 49.124C32.864 48.236 32.156 47.564 31.244 47.108C30.356 46.652 29.312 46.424 28.112 46.424H24.548V58.376ZM53.5702 49.16H64.8022V55.28H53.5702V49.16ZM54.1462 58.592H66.7462V65H45.7942V39.8H66.2782V46.208H54.1462V58.592ZM70.0168 65V39.8H77.0008L87.0808 56.252H83.4088L93.2008 39.8H100.185L100.257 65H92.5168L92.4448 51.464H93.6688L86.9728 62.732H83.2288L76.2448 51.464H77.7568V65H70.0168ZM117.577 65.576C115.537 65.576 113.641 65.252 111.889 64.604C110.161 63.956 108.661 63.044 107.389 61.868C106.117 60.668 105.121 59.264 104.401 57.656C103.705 56.048 103.357 54.296 103.357 52.4C103.357 50.48 103.705 48.728 104.401 47.144C105.121 45.536 106.117 44.144 107.389 42.968C108.661 41.768 110.161 40.844 111.889 40.196C113.641 39.548 115.537 39.224 117.577 39.224C119.641 39.224 121.537 39.548 123.265 40.196C124.993 40.844 126.493 41.768 127.765 42.968C129.037 44.144 130.021 45.536 130.717 47.144C131.437 48.728 131.797 50.48 131.797 52.4C131.797 54.296 131.437 56.048 130.717 57.656C130.021 59.264 129.037 60.668 127.765 61.868C126.493 63.044 124.993 63.956 123.265 64.604C121.537 65.252 119.641 65.576 117.577 65.576ZM117.577 58.7C118.369 58.7 119.101 58.556 119.773 58.268C120.469 57.98 121.069 57.572 121.573 57.044C122.101 56.492 122.509 55.832 122.797 55.064C123.085 54.272 123.229 53.384 123.229 52.4C123.229 51.416 123.085 50.54 122.797 49.772C122.509 48.98 122.101 48.32 121.573 47.792C121.069 47.24 120.469 46.82 119.773 46.532C119.101 46.244 118.369 46.1 117.577 46.1C116.785 46.1 116.041 46.244 115.345 46.532C114.673 46.82 114.073 47.24 113.545 47.792C113.041 48.32 112.645 48.98 112.357 49.772C112.069 50.54 111.925 51.416 111.925 52.4C111.925 53.384 112.069 54.272 112.357 55.064C112.645 55.832 113.041 56.492 113.545 57.044C114.073 57.572 114.673 57.98 115.345 58.268C116.041 58.556 116.785 58.7 117.577 58.7ZM147.948 65.576C145.908 65.576 144.024 65.264 142.296 64.64C140.592 63.992 139.104 63.08 137.832 61.904C136.584 60.728 135.612 59.336 134.916 57.728C134.22 56.12 133.872 54.344 133.872 52.4C133.872 50.456 134.22 48.68 134.916 47.072C135.612 45.464 136.596 44.072 137.868 42.896C139.14 41.72 140.64 40.82 142.368 40.196C144.12 39.548 146.04 39.224 148.128 39.224C150.624 39.224 152.844 39.644 154.788 40.484C156.756 41.324 158.376 42.524 159.648 44.084L154.212 48.872C153.42 47.96 152.556 47.276 151.62 46.82C150.708 46.34 149.688 46.1 148.56 46.1C147.624 46.1 146.772 46.244 146.004 46.532C145.26 46.82 144.624 47.24 144.096 47.792C143.568 48.344 143.16 49.004 142.872 49.772C142.584 50.54 142.44 51.416 142.44 52.4C142.44 53.336 142.584 54.2 142.872 54.992C143.16 55.76 143.568 56.42 144.096 56.972C144.624 57.524 145.248 57.956 145.968 58.268C146.712 58.556 147.54 58.7 148.452 58.7C149.412 58.7 150.348 58.544 151.26 58.232C152.172 57.896 153.144 57.332 154.176 56.54L158.928 62.372C157.392 63.404 155.64 64.196 153.672 64.748C151.704 65.3 149.796 65.576 147.948 65.576ZM151.548 61.292V51.716H158.928V62.372L151.548 61.292ZM162.548 65V39.8H174.68C177.032 39.8 179.06 40.184 180.764 40.952C182.492 41.72 183.824 42.824 184.76 44.264C185.696 45.68 186.164 47.36 186.164 49.304C186.164 51.248 185.696 52.928 184.76 54.344C183.824 55.736 182.492 56.804 180.764 57.548C179.06 58.292 177.032 58.664 174.68 58.664H167.264L171.044 55.172V65H162.548ZM177.632 65L171.44 55.82H180.44L186.704 65H177.632ZM171.044 56.108L167.264 52.256H174.14C175.316 52.256 176.18 51.992 176.732 51.464C177.308 50.936 177.596 50.216 177.596 49.304C177.596 48.392 177.308 47.672 176.732 47.144C176.18 46.616 175.316 46.352 174.14 46.352H167.264L171.044 42.5V56.108ZM186.636 65L197.652 39.8H206.004L217.02 65H208.236L200.1 43.832H203.412L195.276 65H186.636ZM193.188 60.608L195.348 54.488H206.94L209.1 60.608H193.188ZM218.376 65V39.8H230.508C232.86 39.8 234.888 40.184 236.592 40.952C238.32 41.72 239.652 42.824 240.588 44.264C241.524 45.68 241.992 47.36 241.992 49.304C241.992 51.248 241.524 52.928 240.588 54.344C239.652 55.76 238.32 56.864 236.592 57.656C234.888 58.424 232.86 58.808 230.508 58.808H223.092L226.872 55.172V65H218.376ZM226.872 56.108L223.092 52.256H229.968C231.144 52.256 232.008 51.992 232.56 51.464C233.136 50.936 233.424 50.216 233.424 49.304C233.424 48.392 233.136 47.672 232.56 47.144C232.008 46.616 231.144 46.352 229.968 46.352H223.092L226.872 42.5V56.108ZM261.123 39.8H269.619V65H261.123V39.8ZM253.275 65H244.779V39.8H253.275V65ZM261.699 55.712H252.699V48.728H261.699V55.712ZM273.712 65V39.8H282.208V65H273.712ZM299.33 65.576C297.314 65.576 295.442 65.264 293.714 64.64C292.01 63.992 290.522 63.08 289.25 61.904C288.002 60.728 287.03 59.336 286.334 57.728C285.638 56.12 285.29 54.344 285.29 52.4C285.29 50.456 285.638 48.68 286.334 47.072C287.03 45.464 288.002 44.072 289.25 42.896C290.522 41.72 292.01 40.82 293.714 40.196C295.442 39.548 297.314 39.224 299.33 39.224C301.802 39.224 303.986 39.656 305.882 40.52C307.802 41.384 309.386 42.632 310.634 44.264L305.27 49.052C304.526 48.116 303.698 47.396 302.786 46.892C301.898 46.364 300.89 46.1 299.762 46.1C298.874 46.1 298.07 46.244 297.35 46.532C296.63 46.82 296.006 47.24 295.478 47.792C294.974 48.344 294.578 49.016 294.29 49.808C294.002 50.576 293.858 51.44 293.858 52.4C293.858 53.36 294.002 54.236 294.29 55.028C294.578 55.796 294.974 56.456 295.478 57.008C296.006 57.56 296.63 57.98 297.35 58.268C298.07 58.556 298.874 58.7 299.762 58.7C300.89 58.7 301.898 58.448 302.786 57.944C303.698 57.416 304.526 56.684 305.27 55.748L310.634 60.536C309.386 62.144 307.802 63.392 305.882 64.28C303.986 65.144 301.802 65.576 299.33 65.576ZM322.132 65.576C320.02 65.576 317.98 65.336 316.012 64.856C314.044 64.376 312.424 63.752 311.152 62.984L313.888 56.792C315.088 57.488 316.42 58.052 317.884 58.484C319.372 58.892 320.812 59.096 322.204 59.096C323.02 59.096 323.656 59.048 324.112 58.952C324.592 58.832 324.94 58.676 325.156 58.484C325.372 58.268 325.48 58.016 325.48 57.728C325.48 57.272 325.228 56.912 324.724 56.648C324.22 56.384 323.548 56.168 322.708 56C321.892 55.808 320.992 55.616 320.008 55.424C319.024 55.208 318.028 54.932 317.02 54.596C316.036 54.26 315.124 53.816 314.284 53.264C313.468 52.712 312.808 51.992 312.304 51.104C311.8 50.192 311.548 49.064 311.548 47.72C311.548 46.16 311.98 44.744 312.844 43.472C313.732 42.176 315.04 41.144 316.768 40.376C318.52 39.608 320.692 39.224 323.284 39.224C324.988 39.224 326.668 39.404 328.324 39.764C329.98 40.124 331.468 40.676 332.788 41.42L330.232 47.576C328.984 46.952 327.772 46.484 326.596 46.172C325.444 45.86 324.316 45.704 323.212 45.704C322.396 45.704 321.748 45.776 321.268 45.92C320.788 46.064 320.44 46.256 320.224 46.496C320.032 46.736 319.936 47 319.936 47.288C319.936 47.72 320.188 48.068 320.692 48.332C321.196 48.572 321.856 48.776 322.672 48.944C323.512 49.112 324.424 49.292 325.408 49.484C326.416 49.676 327.412 49.94 328.396 50.276C329.38 50.612 330.28 51.056 331.096 51.608C331.936 52.16 332.608 52.88 333.112 53.768C333.616 54.656 333.868 55.76 333.868 57.08C333.868 58.616 333.424 60.032 332.536 61.328C331.672 62.6 330.376 63.632 328.648 64.424C326.92 65.192 324.748 65.576 322.132 65.576Z" fill="#D3ECEB"/>
<path d="M1.96157 31.8547L2.92999 30.6205L4.53116 32.311L3.16994 32.0818L1.96157 31.8547Z" fill="#B9DCD9"/>
<path d="M2.92889 30.6201L3.45591 29.8742L3.9238 30.9856L4.53007 32.3105L2.92889 30.6201Z" fill="#CAEDEB"/>
<path d="M0.490313 29.1189L2.92888 30.6203L1.96047 31.8544L0.490313 29.1189Z" fill="#BDEDE9"/>
<path d="M0.490137 29.1188L3.45573 29.8743L2.92871 30.6201L0.490137 29.1188Z" fill="#E2F5F4"/>
<path d="M7.91194 22.0132L8.51311 21.6684L8.88852 22.6261L8.3691 22.3066L7.91194 22.0132Z" fill="#B9DCD9"/>
<path d="M8.5125 21.6686L8.85198 21.4506L8.8593 21.9833L8.88791 22.6263L8.5125 21.6686Z" fill="#CAEDEB"/>
<path d="M7.76343 20.6496L8.51311 21.6687L7.91194 22.0135L7.76343 20.6496Z" fill="#BDEDE9"/>
<path d="M7.76252 20.6499L8.85169 21.4509L8.51221 21.669L7.76252 20.6499Z" fill="#E2F5F4"/>
<path d="M13.0605 27.2734L13.7487 27.1921L13.7183 28.2203L13.3659 27.7226L13.0605 27.2734Z" fill="#B9DCD9"/>
<path d="M13.7477 27.1919L14.1455 27.1245L13.9432 27.6174L13.7173 28.2201L13.7477 27.1919Z" fill="#CAEDEB"/>
<path d="M13.458 25.9602L13.7478 27.1917L13.0595 27.2731L13.458 25.9602Z" fill="#BDEDE9"/>
<path d="M13.4587 25.9604L14.1463 27.1245L13.7485 27.1919L13.4587 25.9604Z" fill="#E2F5F4"/>
<path d="M7.95958 29.2521L8.27139 28.6331L9.11226 29.2257L8.50273 29.2451L7.95958 29.2521Z" fill="#B9DCD9"/>
<path d="M8.27123 28.6331L8.43445 28.2641L8.734 28.7046L9.1121 29.2256L8.27123 28.6331Z" fill="#CAEDEB"/>
<path d="M7.08282 28.1954L8.26988 28.633L7.95807 29.2519L7.08282 28.1954Z" fill="#BDEDE9"/>
<path d="M7.08409 28.1954L8.43436 28.264L8.27114 28.633L7.08409 28.1954Z" fill="#E2F5F4"/>
<path d="M17.8474 21.861L19.6218 21.8543L19.2454 24.461L18.4936 23.0925L17.8474 21.861Z" fill="#B9DCD9"/>
<path d="M19.6225 21.8546L20.6541 21.7989L19.9962 22.9938L19.2461 24.4613L19.6225 21.8546Z" fill="#CAEDEB"/>
<path d="M19.242 18.6382L19.621 21.8551L17.8466 21.8618L19.242 18.6382Z" fill="#BDEDE9"/>
<path d="M19.2417 18.6374L20.6521 21.7985L19.6206 21.8543L19.2417 18.6374Z" fill="#E2F5F4"/>
<path d="M21.4626 30.8574L22.6103 30.8531L22.3669 32.5392L21.8806 31.654L21.4626 30.8574Z" fill="#B9DCD9"/>
<path d="M22.6116 30.8532L23.2788 30.8172L22.8533 31.5901L22.3681 32.5392L22.6116 30.8532Z" fill="#CAEDEB"/>
<path d="M22.3643 28.7726L22.6094 30.8533L21.4617 30.8577L22.3643 28.7726Z" fill="#BDEDE9"/>
<path d="M22.364 28.772L23.2763 30.8167L22.6091 30.8527L22.364 28.772Z" fill="#E2F5F4"/>
<path d="M5.98802 44.5054L6.05699 43.3598L7.72404 43.7104L6.80964 44.1392L5.98802 44.5054Z" fill="#B9DCD9"/>
<path d="M6.05687 43.3591L6.0635 42.6909L6.80766 43.1649L7.72392 43.7097L6.05687 43.3591Z" fill="#CAEDEB"/>
<path d="M3.96512 43.4719L6.05727 43.3602L5.98829 44.5059L3.96512 43.4719Z" fill="#BDEDE9"/>
<path d="M3.9636 43.4722L6.06238 42.6924L6.05575 43.3605L3.9636 43.4722Z" fill="#E2F5F4"/>
<path d="M7.72352 37.4523L8.06457 36.719L9.06698 37.3793L8.35677 37.4243L7.72352 37.4523Z" fill="#B9DCD9"/>
<path d="M8.06576 36.7183L8.24264 36.282L8.60813 36.7849L9.06818 37.3787L8.06576 36.7183Z" fill="#CAEDEB"/>
<path d="M6.66388 36.2521L8.06439 36.7191L7.72335 37.4524L6.66388 36.2521Z" fill="#BDEDE9"/>
<path d="M6.6642 36.2521L8.24158 36.2827L8.06471 36.719L6.6642 36.2521Z" fill="#E2F5F4"/>
<path d="M28.8169 30.9212L29.9277 31.1173L29.3981 32.7055L29.0823 31.7646L28.8169 30.9212Z" fill="#B9DCD9"/>
<path d="M29.9267 31.1177L30.5783 31.1993L30.0319 31.8726L29.3971 32.706L29.9267 31.1177Z" fill="#CAEDEB"/>
<path d="M30.0536 29.0631L29.9277 31.1183L28.817 30.9223L30.0536 29.0631Z" fill="#BDEDE9"/>
<path d="M30.053 29.0614L30.5787 31.1981L29.9271 31.1166L30.053 29.0614Z" fill="#E2F5F4"/>
</svg>
