<svg width="390" height="937" viewBox="0 0 390 937" fill="none" xmlns="http://www.w3.org/2000/svg">
<path d="M125.038 113.206L128.232 121.775L119.313 120.579L112.09 116.045L106.226 124.411L104.529 120.168L108.52 118.107L112.703 106.494L124.754 99.7361L133.995 100.287L125.038 113.206Z" fill="#222B2B"/>
<path d="M15.1 133.135H66.9759L91.0509 86L215.152 126.401H367.483L407.178 227.068L426.162 435.723L435 588.322L407.178 775.515L420.219 887.628L407.178 1020.95L315.034 1036.44L241.949 1160L123.008 1085.59L-29 1036.44L-40.5 905.067L-56 775.515L-36.5 672.22L0.773506 588.322V489.676L-24.5 294.868L-17 253.329V227.068L15.1 133.135Z" fill="#335757"/>
<path d="M30.7185 615.931L71.989 691.759L90.8952 713L188.352 694.793H307.979L339.152 649.428L354.06 555.397L361 486.628L339.152 402.269L349.393 351.745L339.152 291.662L266.79 284.683L209.397 229L115.991 262.531L31.2507 284.683L31.2507 342.487L20 402.269L38.9178 447.226L20 486.628L20 531.083L31.2507 620.145L30.7185 615.931Z" fill="#294646"/>
<path d="M244.106 681.927L190.683 684.446L143 706.5L91.902 714L71.7426 691.498L30.5837 615.429L20.168 531.3V485.793L38.8155 447.003L20 402L155.908 478.741L206.338 592.592L235.538 605.692L284 684.446L244.106 681.927Z" fill="#162828"/>
<path d="M186.937 694.249H219.793L279.091 703.851H339.31L355.002 680.955L362.506 633.498L366 598.79L355.002 556.214L360.157 530.715L366 496.869L360.157 479L322.049 485.711L263.042 517.419L223.481 585.702L194.344 598.79L140 707L186.937 694.249Z" fill="#283E3E"/>
</svg>
