<svg width="390" height="680" viewBox="0 0 390 680" fill="none" xmlns="http://www.w3.org/2000/svg">
<path d="M-36.5415 -23.2687L-42.2876 -52.4926L53.305 -39.6771L311.716 -45.3831L460.327 -55L427.27 9.43097L460.327 100.849L442.696 135.19L427.27 200.355L442.696 239.383L427.27 285.796L454.98 327.554L362.205 333.069L241.004 371.961L55.172 335.898L-36.5415 291.187V235.399V32.0512L-74.5144 18.5728V9.43097L-36.5415 -23.2687Z" fill="#2F3939"/>
<path d="M-36.4856 1.80176H22.8041L50.3198 -13.1074L192.156 -0.328121H366.259L411.627 31.5136L443.564 114.579L426.531 145.782L411.627 204.993L426.531 240.455L411.627 282.627L306.314 287.526L222.784 326.609L140.027 304.218L59.4148 310.441L-36.4856 287.526V236.834V52.067L-73.1731 39.8202V31.5136L-36.4856 1.80176Z" fill="#0F1A1A"/>
<path d="M25.2476 47.6651H73.3519L95.6765 36.4961L210.755 46.0695H352.011L388.82 69.9233L414.733 132.15L400.913 155.526L388.82 199.882L400.913 226.449L388.82 258.041L303.375 261.711L235.604 290.989L125.31 273.358L25.2476 261.711L9.21 226.449L-22.6614 175.811L-4.51859 69.9233L25.2476 47.6651Z" fill="#172525"/>
<path d="M262.402 93.3726L270.655 63.3988L296.498 43.8285H220.284L227.067 54.4886L249.746 71.6489L262.402 93.3726Z" fill="#0F1A1A"/>
<path d="M13.9989 55.4155L-3.12155 40.5486V18.9871L-39.2009 -0.0972862L23.9841 -3.62022L49.8475 -16.0038H65.3982L57.7297 10.2982L26.0685 27.0325L13.9989 55.4155Z" fill="#2F3939"/>
<path d="M213.173 29.4448H231.508L242.781 18.678L296.5 -1.88642L202.423 -5.68255L168.78 -10.3103L133.12 -9.67252L155.249 0.608007L213.173 29.4448Z" fill="#2F3939"/>
<path d="M93.965 6.37109H83.1545L76.5079 -0.0403085L44.835 -12.286L100.303 -14.5465L120.139 -17.3022L141.165 -16.9224L128.117 -10.8006L93.965 6.37109Z" fill="#2F3939"/>
<path d="M190.523 56.4141H179.663L172.985 50.0027L141.165 37.757L196.891 35.4965L216.819 32.7408L237.942 33.1206L224.834 39.2424L190.523 56.4141Z" fill="#0F1A1A"/>
<path d="M344.276 39.1338L350.622 27.9722V11.7846L363.997 -2.54333L340.574 -5.18823L332.198 -8.41254L323.319 -7.96818L328.065 5.26122L339.801 17.8248L344.276 39.1338Z" fill="#2F3939"/>
<path d="M313.874 23.9512L320.15 17.3621V7.80596L333.378 -0.652336L310.213 -2.21371L301.929 -4.11714L293.148 -3.85481L297.841 3.95497L309.449 11.3717L313.874 23.9512Z" fill="#2F3939"/>
<path d="M124.069 88.478L114.323 73.2836V51.247L93.7844 31.7421H154.354L148.963 42.3666L130.94 59.4696L124.069 88.478Z" fill="#0F1A1A"/>
<path d="M313.487 77.3911L308.02 68.8844V56.547L296.501 45.627H330.473L327.45 51.5752L317.34 61.1505L313.487 77.3911Z" fill="#0F1A1A"/>
<path d="M25.1901 261.792L20.0988 250.478L15.1489 239.305L113.863 231.81H202.678H332.365L388.369 257.832L302.948 261.509L235.489 290.925L104.105 271.974L25.1901 261.792Z" fill="#050F0F" fill-opacity="0.8"/>
<path d="M363.278 409.36L389.49 422.541L398.107 451.358L373.645 468.449L374.789 488.184L342.304 490.489L336.414 475.329L321.421 461.734L298.949 434.355L310.839 413.804L363.278 409.36Z" fill="#405A5A"/>
<path d="M368.332 399.366L394.543 412.548L403.161 441.365L378.698 458.456L367.399 482.874L347.358 480.496L341.467 465.336L326.474 451.741L304.002 424.362L315.892 403.811L368.332 399.366Z" fill="#4E7979"/>
<path d="M61.1974 487.988L34.0175 476.941L23.127 448.904L46.1474 429.914L51.4914 415.023L75.6284 405.443L82.7101 420.084L98.7403 432.44L116.875 443.711L122.838 457.619L113.114 479.372L61.1974 487.988Z" fill="#415E5C"/>
<path d="M54.8451 473.17L27.6652 462.123L16.7747 434.085L39.7952 415.096L57.1113 407.673L76.3578 405.266L92.3881 417.621L116.974 443.119L106.762 464.554L54.8451 473.17Z" fill="#77AAAA"/>
<path d="M-19.5366 462.182L-7.26448 435.533L21.2395 425.929L39.1618 449.79L58.8458 447.968L62.2659 480.354L47.3177 486.762L34.246 502.213L7.65605 525.614L-13.292 514.437L-19.5366 462.182Z" fill="#334949"/>
<path d="M-24.5527 450.484L-12.2806 423.834L16.2234 414.231L34.1457 438.092L58.9377 448.544L57.2498 468.656L42.3016 475.064L29.2298 490.515L2.63994 513.916L-18.3081 502.739L-24.5527 450.484Z" fill="#4E7979"/>
<path d="M254.641 398.501L279.372 382.717L308.543 390.048L310.721 419.81L328.265 428.92L313.633 458.013L297.593 455.323L278.243 461.254L243.223 466.565L231.643 445.837L254.641 398.501Z" fill="#4E7979"/>
<path d="M259.788 386.607L284.519 370.823L313.69 378.154L315.867 407.917L331.073 430.113L318.78 446.12L302.74 443.429L283.39 449.361L248.37 454.671L236.79 433.943L259.788 386.607Z" fill="#4E7979"/>
<path d="M110.574 460.34L87.3691 442.386L84.4255 412.452L111.707 400.358L114.361 380.769L146.686 384.724L149.566 400.73L161.68 416.944L178.498 448.117L162.894 466.013L110.574 460.34Z" fill="#415E5C"/>
<path d="M97.9012 459.397L74.6968 441.444L71.7531 411.51L99.0345 399.416L114.797 377.611L134.013 383.781L136.894 399.788L149.008 416.001L165.826 447.175L150.222 465.071L97.9012 459.397Z" fill="#598888"/>
<path d="M374.844 514.769L360.193 489.35L368.834 460.54L398.665 459.709L421.525 445.521L436.96 458.525L433.548 474.426L438.599 494.025L445.978 514.062L442.133 528.697L421.093 539.881L374.844 514.769Z" fill="#426363"/>
<path d="M378.94 499.175L364.289 473.756L372.931 444.946L402.761 444.115L425.622 429.927L441.057 442.931L437.644 458.833L442.696 478.431L446.419 513.655L425.19 524.287L378.94 499.175Z" fill="#4E7979"/>
<path d="M-46.2007 448.016L384.355 367.327L591.542 472.258L601.859 498.654L528.548 497.577L481.983 483.836L444.302 509.783L409.409 501.019L369.163 455.974L318.393 459.465L252.176 442.243L199.046 466.201L140.31 448.016L21.2521 476.239L-20.8205 507.406L-37.122 496.459L-46.2007 448.016Z" fill="#232A2A"/>
<path d="M-48.1277 437.729L382.428 357.041L589.615 461.972L599.932 488.367L526.621 487.291L480.056 473.55L442.375 499.497L407.482 490.732L367.236 445.688L316.466 449.178L250.249 431.957L197.119 455.915L139.744 437.729L19.3251 465.953L-22.7475 497.12L-39.049 486.173L-48.1277 437.729Z" fill="#343F3F"/>
<path d="M-50.8371 423.272L-42.6453 390.945L394.993 352.239L597.222 473.91L523.911 472.834L477.347 459.093L439.666 485.04L404.773 476.275L364.527 431.231L313.757 434.721L247.54 417.5L194.41 441.458L139.461 424.288L16.6157 451.496L-25.4569 482.663L-41.7584 471.716L-50.8371 423.272Z" fill="#7D9090"/>
<path d="M331.148 306.695L360.439 305.004L382.311 325.652L369.671 352.685L380.529 369.204L353.549 387.442L340.868 377.258L321.086 372.981L287.935 360.507L287.957 336.763L331.148 306.695Z" fill="#222B2B"/>
<path d="M330.528 295.514L359.819 293.824L381.691 314.471L369.051 341.504L371.475 368.3L352.929 376.261L340.248 366.078L320.466 361.8L287.315 349.326L287.337 325.583L330.528 295.514Z" fill="#455353"/>
<path d="M311.271 352.951L335.483 351.554L353.563 368.622L343.115 390.968L352.091 404.623L329.788 419.699L319.306 411.281L302.954 407.745L275.55 397.434L275.568 377.807L311.271 352.951Z" fill="#222B2B"/>
<path d="M310.76 343.709L334.972 342.312L353.052 359.38L342.603 381.726L344.607 403.876L329.277 410.457L318.794 402.039L302.442 398.503L275.038 388.191L275.056 368.565L310.76 343.709Z" fill="#607070"/>
<path d="M44.0938 395.197L23.4652 374.334L24.5027 344.274L53.143 335.891L63.922 324.31L89.8809 325.015L90.6209 341.262L100.486 358.934L112.713 376.439L112.713 391.571L95.2058 407.734L44.0938 395.197Z" fill="#273131"/>
<path d="M44.0938 379.074L23.4652 358.212L24.5027 328.151L53.143 319.768L71.9832 319.768L90.6209 325.14L100.486 342.811L113.038 375.934L95.2058 391.611L44.0938 379.074Z" fill="#607070"/>
<path d="M-19.9419 339.668L1.83749 320.01L31.8195 322.414L38.8908 351.407L57.7002 357.488L48.0834 388.601H31.8195L13.7172 397.652L-19.9419 408.684L-34.7915 390.157L-19.9419 339.668Z" fill="#222B2B"/>
<path d="M-19.9417 326.94L1.83774 307.282L31.8198 309.686L38.891 338.679L57.5591 358.054L48.0836 375.873H31.8198L13.7174 384.924L-19.9417 395.956L-34.7913 377.429L-19.9417 326.94Z" fill="#434A4A"/>
<path d="M231.635 351.611L245.161 325.576L274.09 317.34L290.857 342.026L310.605 341.143L312.48 373.654L297.244 379.344L283.452 394.156L255.779 416.265L235.386 404.104L231.635 351.611Z" fill="#222B2B"/>
<path d="M230.146 338.738L243.672 312.703L272.6 304.466L289.367 329.152L313.634 340.773L310.991 360.781L295.755 366.471L281.963 381.283L254.289 403.392L233.897 391.231L230.146 338.738Z" fill="#434A4A"/>
<path d="M100.371 389.24L86.1172 363.596L95.2059 334.924L125.046 334.558L135.203 317.599L163.355 333.97L159.695 349.817L164.441 369.491L167.616 404.769L146.223 415.07L100.371 389.24Z" fill="#222B2B"/>
<path d="M89.0945 383.381L74.8411 357.737L83.9298 329.065L113.769 328.698L136.848 314.868L152.079 328.11L148.419 343.957L153.165 363.632L156.34 398.91L135.784 409.156L89.0945 383.381Z" fill="#304343"/>
<path d="M0.777281 376.874L15.0589 363.983L34.7194 365.56L39.3563 384.571L51.6904 388.559L45.3842 408.961H34.7194L22.8489 414.897L0.777281 422.13L-8.96021 409.981L0.777281 376.874Z" fill="#222B2B"/>
<path d="M0.777281 368.528L15.0589 355.637L34.7194 357.214L39.3563 376.225L51.5977 388.93L45.3842 400.615H34.7194L22.8489 406.55L0.777281 413.784L-8.96021 401.635L0.777281 368.528Z" fill="#546C6C"/>
<path d="M432.659 366.71L413.61 349.529L387.387 351.63L381.202 376.969L364.751 382.284L373.162 409.478H387.387L403.22 417.388L432.659 427.03L445.646 410.837L432.659 366.71Z" fill="#222B2B"/>
<path d="M432.639 355.459L413.561 338.215L387.298 340.324L381.104 365.755L364.751 382.751L373.051 398.382H387.298L403.155 406.322L432.639 415.998L445.646 399.747L432.639 355.459Z" fill="#435353"/>
<path d="M357.133 414.402L366.479 397.587L360.519 378.785L340.952 378.545L334.291 367.424L315.831 378.159L318.231 388.55L315.119 401.452L313.037 424.585L327.065 431.34L357.133 414.402Z" fill="#222B2B"/>
<path d="M364.527 410.56L373.873 393.744L367.914 374.943L348.346 374.702L333.213 365.634L323.225 374.317L325.625 384.708L322.513 397.61L320.431 420.743L334.459 427.497L364.527 410.56Z" fill="#395151"/>
<path d="M197.07 418.238L168.141 413.351L151.427 388.343L169.78 364.812L173.396 338.151L193.25 334.529L203.34 347.285L221.668 355.869L241.816 362.937L250.654 375.221L245.881 398.565L197.07 418.238Z" fill="#273131"/>
<path d="M187.654 405.151L158.725 400.263L142.012 375.256L160.364 351.725L163.98 325.064L183.835 321.441L193.924 334.198L212.253 342.781L241.785 362.338L236.466 385.478L187.654 405.151Z" fill="#4E6060"/>
<path d="M393.869 392.198L368.471 377.51L361.55 348.239L386.968 332.604L399.672 308.887L419.541 312.431L424.537 327.908L438.711 342.355L455.119 356.019L459.107 370.616L446.478 390.821L393.869 392.198Z" fill="#273131"/>
<path d="M389.62 376.646L364.222 361.958L357.301 332.687L382.719 317.052L395.423 293.335L415.292 296.879L420.287 312.356L434.462 326.803L455.298 355.447L442.229 375.269L389.62 376.646Z" fill="#4E6060"/>
<path d="M110.179 407.651L108.73 398.621L117.241 401.547L123.431 407.412L124.47 402.864L128.43 405.039L127.337 406.092L120.953 416.657L107.809 420.914L98.8564 418.557L110.179 407.651Z" fill="#50594B"/>
<path d="M287.582 418.841L290.673 424.557L284.273 424.59L278.741 422.107L279.629 425.844L275.936 424.922L276.428 423.908L278.235 415.327L286.061 409.391L292.624 408.873L287.582 418.841Z" fill="#50594B"/>
<path d="M220.658 461.194L228.551 464.586L229.576 470.975L209.018 496.067L160.083 500.452L116.242 489.986L84.8666 493.663L49.9134 488.147L41.9936 475.985L40.8622 466.226L84.8666 459.128L76.4846 456.231L145.805 449.383L173.86 451.66L220.658 461.194Z" fill="#608987"/>
<path d="M229.726 463.112L204.65 483.445L160.649 489.138L116.525 481.292L85.4136 484.471L52.0374 478.531L40.9054 466.26L77.4235 456.234L145.658 446.852L163.092 450.264L176.711 451.159L225.175 461.174L229.726 463.112Z" fill="#D3ECEB"/>
<path d="M116.765 450.82L102.621 452.799L139.252 485.327L160.041 489.004L116.765 450.82Z" fill="#E6FFFD"/>
<path d="M104.459 452.517L90.0342 454.496L120.866 482.093L143.21 486.034L104.459 452.517Z" fill="#E6FFFD"/>
<path d="M87.0542 471.706L93.2762 471.706L93.2762 474.307L83.7222 474.307L83.7222 462.407L93.0552 462.407L93.0552 465.008L87.0542 465.008L87.0542 467.014L92.3412 467.014L92.3412 469.53L87.0542 469.53L87.0542 471.706ZM95.1441 474.307L95.1441 462.407L100.771 462.407C104.715 462.407 107.418 464.702 107.418 468.357C107.418 472.012 104.715 474.307 100.771 474.307L95.1441 474.307ZM98.5101 471.621L100.635 471.621C102.658 471.621 104.018 470.414 104.018 468.357C104.018 466.3 102.658 465.093 100.635 465.093L98.5101 465.093L98.5101 471.621ZM114.68 474.545C111.161 474.545 109.087 472.556 109.087 469.003L109.087 462.407L112.453 462.407L112.453 468.901C112.453 470.941 113.303 471.757 114.714 471.757C116.108 471.757 116.958 470.941 116.958 468.901L116.958 462.407L120.273 462.407L120.273 469.003C120.273 472.556 118.199 474.545 114.68 474.545ZM128.486 474.545C124.712 474.545 121.941 471.978 121.941 468.357C121.941 464.736 124.712 462.169 128.486 462.169C130.679 462.169 132.447 462.968 133.603 464.413L131.461 466.351C130.713 465.45 129.795 464.957 128.656 464.957C126.701 464.957 125.341 466.317 125.341 468.357C125.341 470.397 126.701 471.757 128.656 471.757C129.795 471.757 130.713 471.264 131.461 470.363L133.603 472.301C132.447 473.746 130.679 474.545 128.486 474.545ZM143.813 474.307L142.878 471.995L137.846 471.995L136.911 474.307L133.477 474.307L138.73 462.407L142.045 462.407L147.315 474.307L143.813 474.307ZM138.832 469.513L141.892 469.513L140.362 465.705L138.832 469.513ZM150.204 474.307L150.204 465.076L146.549 465.076L146.549 462.407L157.208 462.407L157.208 465.076L153.57 465.076L153.57 474.307L150.204 474.307ZM158.462 474.307L158.462 462.407L161.828 462.407L161.828 474.307L158.462 474.307ZM170.224 474.545C166.416 474.545 163.611 471.927 163.611 468.357C163.611 464.787 166.416 462.169 170.224 462.169C174.032 462.169 176.837 464.787 176.837 468.357C176.837 471.927 174.032 474.545 170.224 474.545ZM170.224 471.757C172.026 471.757 173.437 470.414 173.437 468.357C173.437 466.3 172.026 464.957 170.224 464.957C168.422 464.957 167.011 466.3 167.011 468.357C167.011 470.414 168.422 471.757 170.224 471.757ZM186.624 462.407L189.922 462.407L189.922 474.307L187.151 474.307L181.898 467.966L181.898 474.307L178.6 474.307L178.6 462.407L181.371 462.407L186.624 468.748L186.624 462.407Z" fill="#0D3F41"/>
</svg>
