<svg width="431" height="480" viewBox="0 0 431 480" fill="none" xmlns="http://www.w3.org/2000/svg">
<g clip-path="url(#clip0_2135_4173)">
<path d="M200.238 427.32C208.121 423.746 211.615 414.458 208.04 406.574C204.466 398.69 195.178 395.196 187.295 398.77C179.411 402.344 175.918 411.632 179.492 419.516C183.067 427.4 192.355 430.894 200.238 427.32Z" fill="#D3A1A1"/>
<path d="M190.572 431.175C193.036 430.058 194.128 427.155 193.011 424.691C191.894 422.226 188.99 421.134 186.526 422.251C184.062 423.368 182.97 426.272 184.087 428.736C185.205 431.2 188.108 432.292 190.572 431.175Z" fill="#D3A1A1"/>
<path d="M183.597 426.348C186.061 425.23 187.153 422.327 186.036 419.863C184.918 417.399 182.015 416.306 179.551 417.424C177.087 418.541 175.995 421.444 177.112 423.908C178.229 426.373 181.133 427.465 183.597 426.348Z" fill="#D3A1A1"/>
<path d="M198.992 432.226C201.456 431.108 202.548 428.205 201.431 425.741C200.314 423.276 197.411 422.184 194.947 423.302C192.482 424.419 191.391 427.322 192.508 429.786C193.625 432.251 196.528 433.343 198.992 432.226Z" fill="#D3A1A1"/>
<path d="M267.791 426.863C275.674 423.289 279.168 414.001 275.593 406.117C272.019 398.233 262.731 394.739 254.848 398.313C246.964 401.887 243.471 411.175 247.045 419.059C250.62 426.943 259.908 430.437 267.791 426.863Z" fill="#D3A1A1"/>
<path d="M268.747 430.647C271.211 429.53 272.303 426.627 271.186 424.163C270.069 421.698 267.165 420.606 264.701 421.723C262.237 422.84 261.145 425.744 262.262 428.208C263.38 430.672 266.283 431.765 268.747 430.647Z" fill="#D3A1A1"/>
<path d="M275.658 425.725C278.122 424.607 279.214 421.704 278.097 419.24C276.979 416.776 274.076 415.683 271.612 416.801C269.148 417.918 268.056 420.821 269.173 423.285C270.29 425.75 273.194 426.842 275.658 425.725Z" fill="#D3A1A1"/>
<path d="M260.344 431.81C262.808 430.693 263.9 427.79 262.783 425.326C261.665 422.861 258.762 421.769 256.298 422.886C253.834 424.004 252.742 426.907 253.859 429.371C254.976 431.835 257.88 432.928 260.344 431.81Z" fill="#D3A1A1"/>
<path d="M126.459 324.215L124.579 343.564L138.076 344.877L139.957 325.527L126.459 324.215Z" fill="#AFE8D0"/>
<path d="M139.959 325.528L138.079 344.878L174.874 348.456L176.755 329.107L139.959 325.528Z" fill="#89BEAA"/>
<path d="M123.615 347.693C131.69 344.032 135.268 334.518 131.607 326.443C127.946 318.367 118.432 314.788 110.357 318.449C102.282 322.11 98.7042 331.624 102.365 339.7C106.026 347.775 115.54 351.354 123.615 347.693Z" fill="#EBD2D2"/>
<path d="M124.01 333.742C124.577 327.907 121.244 322.808 116.566 322.353C111.887 321.898 107.635 326.259 107.068 332.094C106.501 337.929 109.834 343.028 114.512 343.483C119.191 343.938 123.443 339.577 124.01 333.742Z" fill="#E8A6A6"/>
<path d="M107.278 336.282L115.541 334.79L112.909 320.218L104.646 321.71L107.278 336.282Z" fill="#FFB23E"/>
<path d="M106.478 277.65L113.475 316.374L108.106 317.343L99.2712 268.45L106.478 277.65Z" fill="#89BEAA"/>
<path d="M95.7401 279.591L99.2709 268.45L108.105 317.342L102.736 318.311L95.7401 279.591Z" fill="#B7D6D6"/>
<path d="M97.8477 324.219L120.147 320.192C121.536 319.941 122.458 318.613 122.208 317.225C121.957 315.838 120.628 314.916 119.24 315.167L96.9402 319.194C95.5517 319.445 94.6292 320.773 94.8798 322.16C95.1305 323.548 96.4592 324.469 97.8477 324.219Z" fill="#DE8E45"/>
<path d="M114.264 343.625C117.121 342.33 118.386 338.965 117.091 336.108C115.796 333.251 112.431 331.985 109.574 333.28C106.718 334.575 105.452 337.941 106.747 340.798C108.042 343.654 111.408 344.92 114.264 343.625Z" fill="#FFB23E"/>
<path d="M105.274 325.2L113.536 323.708L113.333 322.584L105.071 324.076L105.274 325.2Z" fill="#DE8E45"/>
<path d="M105.805 328.128L114.068 326.636L113.865 325.512L105.602 327.004L105.805 328.128Z" fill="#DE8E45"/>
<path d="M106.327 331.021L114.589 329.529L114.386 328.405L106.124 329.897L106.327 331.021Z" fill="#DE8E45"/>
<path d="M106.849 333.922L115.111 332.43L114.908 331.306L106.646 332.798L106.849 333.922Z" fill="#DE8E45"/>
<path d="M113.166 341.204C114.686 340.515 115.359 338.725 114.67 337.206C113.981 335.686 112.191 335.013 110.672 335.702C109.152 336.39 108.479 338.181 109.168 339.7C109.857 341.22 111.647 341.893 113.166 341.204Z" fill="#DE8E45"/>
<path d="M105.185 336.277C107.711 335.132 108.83 332.157 107.685 329.631C106.54 327.105 103.564 325.986 101.039 327.131C98.5134 328.276 97.3943 331.252 98.5393 333.777C99.6843 336.303 102.66 337.422 105.185 336.277Z" fill="#EBD2D2"/>
<path d="M107.803 327.991C110.328 326.846 111.447 323.87 110.302 321.344C109.157 318.819 106.182 317.699 103.656 318.844C101.131 319.989 100.011 322.965 101.156 325.491C102.302 328.016 105.277 329.136 107.803 327.991Z" fill="#EBD2D2"/>
<path d="M106.704 344.837C109.23 343.692 110.349 340.716 109.204 338.191C108.059 335.665 105.083 334.546 102.558 335.691C100.032 336.836 98.9131 339.811 100.058 342.337C101.203 344.862 104.179 345.982 106.704 344.837Z" fill="#EBD2D2"/>
<path d="M309.258 317.33L313.003 336.407L326.311 333.794L322.565 314.717L309.258 317.33Z" fill="#AFE8D0"/>
<path d="M272.98 324.453L276.725 343.53L313.001 336.409L309.256 317.332L272.98 324.453Z" fill="#89BEAA"/>
<path d="M339.482 337.23C347.557 333.569 351.135 324.055 347.474 315.979C343.813 307.904 334.299 304.325 326.224 307.986C318.15 311.647 314.571 321.161 318.232 329.236C321.893 337.312 331.407 340.89 339.482 337.23Z" fill="#EBD2D2"/>
<path d="M342.632 320.683C341.502 314.931 336.848 311.001 332.235 311.906C327.623 312.812 324.799 318.21 325.929 323.962C327.058 329.715 331.713 333.645 336.325 332.739C340.938 331.834 343.761 326.436 342.632 320.683Z" fill="#E8A6A6"/>
<path d="M344.038 310.126L335.669 309.439L334.458 324.197L342.826 324.885L344.038 310.126Z" fill="#FFB23E"/>
<path d="M337.95 266.434L334.734 305.651L340.172 306.096L344.231 256.579L337.95 266.434Z" fill="#89BEAA"/>
<path d="M348.825 267.325L344.233 256.578L340.174 306.095L345.609 306.542L348.825 267.325Z" fill="#B7D6D6"/>
<path d="M351.459 306.871L328.875 305.017C327.469 304.901 326.235 305.947 326.12 307.352C326.005 308.757 327.051 309.99 328.457 310.106L351.042 311.96C352.448 312.076 353.681 311.03 353.797 309.625C353.912 308.22 352.866 306.987 351.459 306.871Z" fill="#DE8E45"/>
<path d="M340.764 332.65C343.621 331.355 344.886 327.99 343.591 325.133C342.296 322.276 338.931 321.01 336.074 322.305C333.218 323.6 331.952 326.966 333.247 329.822C334.542 332.679 337.908 333.945 340.764 332.65Z" fill="#FFB23E"/>
<path d="M343.842 312.521L335.474 311.833L335.38 312.972L343.749 313.659L343.842 312.521Z" fill="#DE8E45"/>
<path d="M343.597 315.483L335.229 314.796L335.135 315.935L343.503 316.622L343.597 315.483Z" fill="#DE8E45"/>
<path d="M343.358 318.414L334.99 317.727L334.896 318.865L343.264 319.552L343.358 318.414Z" fill="#DE8E45"/>
<path d="M343.116 321.35L334.747 320.663L334.654 321.801L343.022 322.488L343.116 321.35Z" fill="#DE8E45"/>
<path d="M339.666 330.229C341.186 329.54 341.859 327.75 341.17 326.23C340.481 324.711 338.691 324.038 337.172 324.726C335.652 325.415 334.979 327.205 335.668 328.725C336.357 330.244 338.147 330.918 339.666 330.229Z" fill="#DE8E45"/>
<path d="M348.606 324.483C351.131 323.338 352.25 320.362 351.105 317.837C349.96 315.311 346.985 314.192 344.459 315.337C341.934 316.482 340.814 319.457 341.959 321.983C343.104 324.508 346.08 325.628 348.606 324.483Z" fill="#EBD2D2"/>
<path d="M345.201 316.487C347.726 315.342 348.846 312.366 347.701 309.841C346.556 307.315 343.58 306.196 341.055 307.34C338.529 308.485 337.41 311.461 338.555 313.987C339.7 316.512 342.675 317.632 345.201 316.487Z" fill="#EBD2D2"/>
<path d="M347.923 333.147C350.448 332.002 351.567 329.027 350.422 326.501C349.277 323.976 346.302 322.856 343.776 324.001C341.251 325.146 340.132 328.122 341.277 330.647C342.422 333.173 345.397 334.292 347.923 333.147Z" fill="#EBD2D2"/>
<path d="M169.711 337.656L280.834 332.268L282.654 369.768C283.681 390.922 267.339 408.931 246.186 409.957L211.724 411.628C190.571 412.653 172.562 396.309 171.535 375.156L169.715 337.656L169.711 337.656Z" fill="#EBD2D2"/>
<path d="M252.869 382.809L256.632 388.549L327.567 385.112L323.401 379.389L252.869 382.809Z" fill="#AFE8D0"/>
<path d="M290.937 334.787L227.272 337.871L225.564 341.125L252.869 382.809L323.401 379.389L290.937 334.787Z" fill="#89BEAA"/>
<path d="M128.3 394.768L199.235 391.332L202.421 385.251L131.892 388.669L128.3 394.768Z" fill="#AFE8D0"/>
<path d="M223.55 338.051L159.889 341.137L131.893 388.669L202.422 385.251L225.564 341.125L223.55 338.051Z" fill="#89BEAA"/>
<path d="M227.272 337.87L223.55 338.051L225.565 341.125L227.272 337.87Z" fill="#89BEAA"/>
<path d="M293.87 336.726C293.661 332.41 263.878 330.347 227.348 332.118C190.818 333.889 161.374 338.824 161.584 343.14C161.793 347.455 191.576 349.518 228.106 347.747C264.636 345.976 294.08 341.041 293.87 336.726Z" fill="#FFB23E"/>
<path d="M291.141 326.256L161.934 332.52C159.012 332.662 156.758 335.145 156.899 338.067C157.041 340.989 159.525 343.243 162.448 343.101L291.655 336.836C294.578 336.695 296.832 334.211 296.69 331.289C296.548 328.368 294.064 326.114 291.141 326.256Z" fill="#FFB23E"/>
<path d="M287.63 317.166L158.424 323.431C155.501 323.573 153.247 326.056 153.388 328.978C153.53 331.9 156.014 334.153 158.937 334.012L288.144 327.747C291.067 327.605 293.321 325.122 293.179 322.2C293.037 319.278 290.553 317.025 287.63 317.166Z" fill="#FFB23E"/>
<path d="M213.311 333.778L203.216 371.835L211.633 363.378L214.748 374.896L224.847 336.838L213.311 333.778Z" fill="#AFE8D0"/>
<path d="M236.539 332.65L250.27 369.555L241.074 361.951L239.09 373.718L225.356 336.815L236.539 332.65Z" fill="#AFE8D0"/>
<path d="M245.202 105.769L183.24 108.771C162.522 109.776 143.914 121.756 134.423 140.203L101.687 203.837C94.8941 217.042 95.6628 232.867 103.702 245.352L146.205 311.364C155.107 325.191 170.71 333.219 187.135 332.423L262.975 328.748C279.399 327.952 294.152 318.454 301.674 303.831L337.589 234.018C344.382 220.814 343.613 204.989 335.574 192.504L296.832 132.333C285.604 114.892 265.921 104.767 245.202 105.769Z" fill="#89BEAA"/>
<path d="M328.486 232.715C326.003 181.555 275.683 142.424 216.094 145.313C156.506 148.203 110.212 192.018 112.695 243.178C115.178 294.338 165.497 333.469 225.086 330.58C284.675 327.691 330.969 283.875 328.486 232.715Z" fill="#649B85"/>
<path d="M270.48 291.748C269.831 278.373 280.148 267.005 293.522 266.358C302.96 265.899 311.393 270.91 315.771 278.595C324.62 265.324 329.335 250.126 328.56 234.178C326.252 186.609 276.061 150.388 216.452 153.278C156.846 156.165 110.394 197.068 112.702 244.637C113.474 260.586 119.638 275.256 129.732 287.609C133.346 279.536 141.255 273.738 150.693 273.279C164.067 272.632 175.435 282.95 176.083 296.325C176.453 303.964 173.244 310.944 167.936 315.648C184.705 322.855 204.194 326.536 224.81 325.537C245.425 324.537 264.464 318.987 280.458 310.194C274.719 306.024 270.849 299.387 270.48 291.748Z" fill="#EBD2D2"/>
<path d="M176.082 296.321C175.434 282.946 164.066 272.628 150.692 273.276C141.255 273.734 133.345 279.533 129.731 287.606C139.326 299.352 152.475 308.997 167.935 315.645C173.243 310.94 176.452 303.96 176.082 296.321Z" fill="#E8A6A6"/>
<path d="M315.769 278.592C311.392 270.907 302.96 265.899 293.521 266.354C280.146 267.002 269.83 278.37 270.478 291.745C270.848 299.384 274.717 306.021 280.456 310.191C295.201 302.081 307.354 291.209 315.769 278.592Z" fill="#E8A6A6"/>
<path d="M221.826 264.066C215.192 264.386 209.556 259.268 209.233 252.639L233.253 251.476C233.574 258.111 228.457 263.747 221.828 264.069L221.826 264.066Z" fill="#6D3232"/>
<path d="M221.616 259.772C216.472 260.021 212.198 257.989 212.064 255.232L230.685 254.329C230.819 257.086 226.76 259.523 221.616 259.772Z" fill="#934141"/>
<path d="M224.617 321.584C230.591 321.295 235.51 315.671 237.685 307.699C234.018 305.78 229.127 304.726 223.809 304.985C218.491 305.244 213.728 306.762 210.261 309.028C213.199 316.753 218.639 321.875 224.613 321.586L224.617 321.584Z" fill="#C9345A"/>
<path d="M229.344 275.196L229.857 285.729C230.046 289.574 227.079 292.843 223.233 293.028C219.387 293.212 216.119 290.248 215.934 286.402L215.421 275.869C210.602 280.128 207.56 288.506 208.02 297.992C208.214 302.001 209.014 305.746 210.263 309.028C213.73 306.763 218.493 305.244 223.811 304.985C229.129 304.726 234.016 305.782 237.686 307.699C238.611 304.312 239.045 300.506 238.852 296.498C238.391 287.012 234.554 278.968 229.344 275.196Z" fill="#CA6E91"/>
<path d="M215.42 275.868L215.933 286.402C216.105 289.97 218.937 292.778 222.414 293.016L221.443 272.984C219.248 273.272 217.212 274.289 215.421 275.872L215.42 275.868Z" fill="#FFFACC"/>
<path d="M223.072 272.903L224.043 292.936C227.482 292.363 230.029 289.296 229.857 285.729L229.344 275.195C227.408 273.791 225.283 272.981 223.072 272.903Z" fill="#FFFACC"/>
<path d="M222.258 272.907C221.984 272.921 221.715 272.946 221.444 272.984L222.415 293.016C222.684 293.036 222.955 293.043 223.232 293.027C223.509 293.012 223.778 292.979 224.043 292.936L223.072 272.903C222.799 272.893 222.528 272.894 222.258 272.907Z" fill="#EACACA"/>
<path d="M193.069 248.734C193.444 256.44 187.499 262.988 179.797 263.362C172.092 263.737 165.544 257.79 165.17 250.088C164.846 243.403 169.278 237.589 175.49 235.926L164.571 232.847C159.704 237.127 156.756 243.502 157.093 250.478C157.683 262.641 168.023 272.024 180.185 271.435C192.348 270.845 201.73 260.506 201.14 248.343C201.048 246.448 200.718 244.617 200.183 242.882L189.245 239.799C191.468 242.14 192.897 245.256 193.064 248.732L193.069 248.734Z" fill="#FFFACC"/>
<path d="M165.169 250.088C165.544 257.794 172.091 263.737 179.796 263.362C187.501 262.986 193.444 256.44 193.068 248.734C192.9 245.258 191.472 242.142 189.249 239.801L175.492 235.925C169.281 237.588 164.845 243.403 165.172 250.087L165.169 250.088ZM171.26 248.894L174.544 247.3C174.923 247.115 175.183 246.758 175.247 246.343L175.798 242.732C175.957 241.686 177.246 241.28 177.977 242.041L180.506 244.674C180.797 244.976 181.219 245.118 181.634 245.048L185.234 244.455C186.276 244.283 187.063 245.383 186.564 246.316L184.842 249.536C184.644 249.906 184.642 250.35 184.832 250.722L186.509 253.965C186.996 254.905 186.193 255.992 185.151 255.806L181.555 255.163C181.141 255.091 180.718 255.222 180.423 255.522L177.857 258.118C177.114 258.87 175.833 258.444 175.688 257.397L175.188 253.779C175.129 253.363 174.872 253.001 174.498 252.813L171.235 251.175C170.29 250.702 170.301 249.349 171.249 248.887L171.26 248.894Z" fill="#6D3232"/>
<path d="M171.246 251.182L174.51 252.82C174.883 253.008 175.144 253.369 175.199 253.786L175.699 257.404C175.845 258.451 177.126 258.877 177.869 258.125L180.435 255.529C180.729 255.229 181.153 255.098 181.567 255.17L185.163 255.813C186.205 255.999 187.007 254.912 186.52 253.972L184.843 250.729C184.65 250.358 184.652 249.915 184.853 249.543L186.576 246.323C187.075 245.39 186.287 244.29 185.245 244.462L181.645 245.055C181.23 245.125 180.809 244.983 180.518 244.681L177.988 242.048C177.256 241.283 175.968 241.693 175.809 242.739L175.259 246.35C175.195 246.765 174.931 247.124 174.555 247.307L171.272 248.901C170.319 249.361 170.311 250.713 171.257 251.189L171.246 251.182Z" fill="#934141"/>
<path d="M248.97 246.028C249.346 253.734 255.892 259.677 263.597 259.301C271.302 258.926 277.245 252.379 276.869 244.674C276.546 237.988 271.569 232.633 265.223 231.575L275.794 227.457C281.053 231.248 284.603 237.307 284.941 244.283C285.531 256.446 276.148 266.785 263.985 267.375C251.823 267.964 241.484 258.581 240.894 246.417C240.802 244.523 240.952 242.668 241.319 240.89L251.906 236.764C249.922 239.308 248.801 242.548 248.968 246.025L248.97 246.028Z" fill="#FFFACC"/>
<path d="M265.223 231.575L251.906 236.764C249.922 239.308 248.801 242.548 248.968 246.025C249.344 253.73 255.89 259.673 263.595 259.298C271.301 258.923 277.243 252.376 276.867 244.67C276.544 237.985 271.567 232.629 265.222 231.572L265.223 231.575ZM270.923 246.351L267.836 248.298C267.481 248.52 267.258 248.905 267.242 249.326L267.094 252.974C267.052 254.028 265.817 254.58 265.002 253.902L262.197 251.565C261.876 251.296 261.441 251.205 261.036 251.316L257.522 252.304C256.504 252.591 255.6 251.584 255.992 250.603L257.345 247.212C257.501 246.821 257.456 246.382 257.223 246.029L255.197 242.994C254.612 242.114 255.287 240.944 256.341 241.013L259.982 241.255C260.401 241.284 260.806 241.101 261.066 240.771L263.328 237.907C263.983 237.078 265.304 237.36 265.565 238.383L266.463 241.922C266.567 242.329 266.862 242.658 267.257 242.804L270.682 244.073C271.672 244.44 271.815 245.784 270.918 246.349L270.923 246.351Z" fill="#6D3232"/>
<path d="M270.923 246.35L267.836 248.298C267.482 248.519 267.258 248.905 267.242 249.326L267.094 252.974C267.052 254.028 265.817 254.58 265.002 253.902L262.197 251.565C261.876 251.296 261.441 251.205 261.036 251.316L257.522 252.304C256.504 252.591 255.601 251.584 255.992 250.602L257.345 247.212C257.501 246.821 257.456 246.382 257.223 246.029L255.197 242.993C254.612 242.114 255.287 240.943 256.341 241.013L259.982 241.254C260.402 241.284 260.806 241.1 261.066 240.771L263.328 237.907C263.983 237.078 265.305 237.36 265.565 238.382L266.463 241.921C266.567 242.329 266.862 242.658 267.257 242.804L270.682 244.073C271.672 244.44 271.815 245.784 270.918 246.349L270.923 246.35Z" fill="#934141"/>
<path d="M185.839 218.235C189.801 218.043 193.174 221.104 193.366 225.067L193.715 232.246L186.536 232.594C182.573 232.786 179.2 229.726 179.008 225.763C178.816 221.8 181.876 218.428 185.839 218.235Z" fill="#E8A6A6"/>
<path d="M253.909 229.339L246.73 229.687L246.381 222.508C246.189 218.545 249.25 215.173 253.212 214.981C257.174 214.788 260.547 217.849 260.739 221.812C260.932 225.775 257.871 229.147 253.909 229.339Z" fill="#E8A6A6"/>
<path d="M181.78 142.799L163.207 149.226C159.989 150.339 156.449 148.851 154.995 145.771L128.395 89.441C122.471 76.8945 128.745 61.9809 141.855 57.4462C154.968 52.9099 169.114 60.7588 172.21 74.2865L186.101 135.014C186.86 138.336 184.997 141.694 181.779 142.807L181.78 142.799Z" fill="#EBD2D2"/>
<path d="M180.152 143.363L165.986 148.263L147.631 105.895C143.903 97.2856 146.07 87.8914 152.287 85.7386C158.501 83.5873 166.012 89.6332 168.4 98.7077L180.152 143.363Z" fill="#CA6E91"/>
<path d="M249.946 139.498L269.052 144.099C272.365 144.895 275.743 143.071 276.892 139.866L297.918 81.2287C302.6 68.1691 294.911 53.9304 281.423 50.6835C267.935 47.4366 254.612 56.6147 252.839 70.3774L244.89 132.16C244.455 135.536 246.633 138.702 249.946 139.498Z" fill="#EBD2D2"/>
<path d="M251.627 139.901L266.203 143.409L280.371 99.4629C283.252 90.5327 280.18 81.3943 273.786 79.852C267.393 78.313 260.5 85.0552 259.005 94.3193L251.63 139.899L251.627 139.901Z" fill="#CA6E91"/>
<path d="M141.648 159.73C144.53 158.424 145.808 155.027 144.501 152.145C143.194 149.262 139.798 147.984 136.915 149.291C134.033 150.598 132.755 153.994 134.062 156.877C135.369 159.76 138.765 161.037 141.648 159.73Z" fill="#AFE8D0"/>
<path d="M134.112 168.124C135.923 167.303 136.726 165.169 135.905 163.357C135.083 161.546 132.949 160.743 131.138 161.564C129.327 162.386 128.524 164.52 129.345 166.331C130.166 168.143 132.301 168.946 134.112 168.124Z" fill="#AFE8D0"/>
<path d="M328.096 197.213C329.908 196.392 330.71 194.258 329.889 192.446C329.068 190.635 326.934 189.832 325.122 190.653C323.311 191.474 322.508 193.609 323.33 195.42C324.151 197.232 326.285 198.034 328.096 197.213Z" fill="#AFE8D0"/>
<path d="M203.815 331.454L204.183 339.032C204.426 344.049 208.69 347.92 213.706 347.676C218.723 347.433 222.592 343.168 222.348 338.151L221.98 330.573C221.737 325.555 217.473 321.685 212.457 321.928C207.441 322.171 203.572 326.436 203.815 331.454Z" fill="#89BEAA"/>
<path d="M228.106 330.275L228.474 337.854C228.717 342.871 232.981 346.741 237.997 346.498C243.013 346.255 246.882 341.99 246.639 336.973L246.271 329.395C246.028 324.377 241.764 320.507 236.748 320.75C231.731 320.993 227.862 325.258 228.106 330.275Z" fill="#89BEAA"/>
<path d="M219.611 330.787L219.969 338.17C220.05 339.82 221.452 341.092 223.102 341.012L227.999 340.775C229.649 340.695 230.921 339.292 230.841 337.642L230.483 330.26C230.403 328.61 229.001 327.337 227.351 327.417L222.454 327.655C220.804 327.735 219.531 329.137 219.611 330.787Z" fill="#AFE8D0"/>
<path d="M215.39 330.973C214.986 330.872 214.576 331.117 214.475 331.52C214.374 331.923 214.62 332.332 215.024 332.433L235.065 337.454C235.469 337.555 235.879 337.31 235.98 336.907C236.081 336.504 235.835 336.095 235.431 335.994L215.39 330.973Z" fill="#AFE8D0"/>
<path d="M215.243 336.979C214.851 337.119 214.646 337.549 214.785 337.941C214.925 338.332 215.356 338.536 215.748 338.396L235.209 331.46C235.601 331.32 235.806 330.89 235.667 330.498C235.527 330.107 235.096 329.903 234.704 330.043L215.243 336.979Z" fill="#AFE8D0"/>
</g>
<defs>
<clipPath id="clip0_2135_4173">
<rect width="294.6" height="392.4" fill="white" transform="translate(0 121.641) rotate(-24.3872)"/>
</clipPath>
</defs>
</svg>
