<svg width="1920" height="1052" viewBox="0 0 1920 1052" fill="none" xmlns="http://www.w3.org/2000/svg">
<path d="M-104 701.217L1933.37 619.494L2867.08 799.961L2913.57 845.357L2583.19 843.506L2373.34 819.873L2203.53 864.499L2046.28 849.425L1864.9 771.954L1636.1 777.958L1504 761.5L1155.5 826.5L712.5 777.958L297.002 806.808L107.397 860.41L-104 789.543L-104 701.217Z" fill="#232A2A"/>
<path d="M-15.6661 740.573L1924.68 601.8L2858.4 782.267L2904.89 827.663L2574.5 825.812L2364.66 802.179L2194.84 846.805L2037.59 831.731L1856.22 754.26L1627.42 760.264L1329 730.645L1089.57 771.85L830.999 740.573L288.318 789.114L98.7127 842.716L-80.4998 771.85L-15.6661 740.573Z" fill="#343F3F"/>
<path d="M-141 717.46L-77.9997 524.216L1981.31 593.545L2892.68 802.802L2562.29 800.951L2352.45 777.318L2182.63 821.944L2025.38 806.87L1950.5 681L1641 689L1316.79 705.784L1077.36 746.989L829.726 717.46L276.108 764.253L86.5025 817.855L13.0377 799.028L-141 717.46Z" fill="#7D9090"/>
<path d="M-87.1718 14.7252L-112.87 -43.0435L314.654 -17.7104L1470.36 -28.9897L2135 -48L1987.16 79.3646L2135 260.077L2056.15 327.96L1987.16 456.775L2056.15 533.926L1987.16 625.672L2111.09 708.217L1696.16 719.12L1154.11 796L323.004 724.711L-87.1718 636.329V526.048V124.079L-257 97.4358V79.3646L-87.1718 14.7252Z" fill="#2F3939"/>
<path d="M-87.7807 77.7116H177.61L300.774 48L935.658 73.4671H1714.97L1918.04 136.923L2061 302.459L1984.76 364.641L1918.04 482.638L1984.76 553.309L1918.04 637.351L1446.64 647.113L1072.75 725L702.317 680.379L341.485 692.78L-87.7807 647.113V546.094V177.882L-252 153.476V136.923L-87.7807 77.7116Z" fill="#0F1A1A"/>
<path d="M270.374 168.295H476.585L572.285 146L1065.6 165.11H1671.13L1828.92 212.725L1940 336.938L1880.76 383.597L1828.92 472.139L1880.76 525.169L1828.92 588.231L1462.64 595.556L1172.12 654L699.316 618.806L270.374 595.556L201.625 525.169L65 424.091L142.774 212.725L270.374 168.295Z" fill="#172525"/>
<path d="M1314.71 276L1350.12 200.981L1461 152H1134L1163.1 178.68L1260.41 221.63L1314.71 276Z" fill="#0F1A1A"/>
<path d="M187.856 195L114.529 160.861V111.35L-40 67.5262L230.623 59.4365L341.396 31H408L375.156 91.3972L239.55 129.824L187.856 195Z" fill="#2F3939"/>
<path d="M1075.48 145H1154.15L1202.51 120.355L1433 73.2824L1029.35 64.593L885.002 54L732 55.4599L826.947 78.9921L1075.48 145Z" fill="#2F3939"/>
<path d="M980.658 197H934.085L905.451 182.375L769 154.442L1007.96 149.286L1093.42 143L1184 143.866L1127.79 157.83L980.658 197Z" fill="#0F1A1A"/>
<path d="M1638.16 168L1665.46 142.412V105.302L1723 72.4551L1622.23 66.3917L1586.2 59L1548 60.0187L1568.41 90.3471L1618.91 119.149L1638.16 168Z" fill="#2F3939"/>
<path d="M1507.13 133L1534.12 117.741V95.6112L1591 76.0237L1491.38 72.4079L1455.76 68L1418 68.6075L1438.18 86.6932L1488.1 103.869L1507.13 133Z" fill="#2F3939"/>
<path d="M676.5 269L634.825 234.452V184.348L547 140H806L782.95 164.157L705.88 203.044L676.5 269Z" fill="#0F1A1A"/>
<path d="M1533.5 236L1510.17 214.575V183.503L1461 156H1606L1593.1 170.981L1549.95 195.097L1533.5 236Z" fill="#0F1A1A"/>
<path d="M287 573.966L222 526.724L173 487L623.5 453L1001.5 487H1595.96L1855 532L1830 569H1471.5L1182.47 615L623.5 585.483L287 573.966Z" fill="#050F0F" fill-opacity="0.8"/>
<path d="M1494.25 472.089C1494.25 520.729 1438.29 560.158 1369.27 560.158C1300.25 560.158 1244.29 520.729 1244.29 472.089C1244.29 423.45 1300.25 384.021 1369.27 384.021C1438.29 384.021 1494.25 423.45 1494.25 472.089Z" fill="#191824"/>
<path d="M1357.49 384.581L1271 418.062L1292.47 394.347L1292.47 369.612L1319.62 381.592L1357.49 384.581Z" fill="#191824"/>
<path d="M1370.84 385.777L1467.86 418.069L1446.39 394.354L1446.39 369.619L1419.24 381.6L1370.84 385.777Z" fill="#191824"/>
<path d="M1474.18 460.312C1474.18 501.265 1427.06 534.464 1368.95 534.464C1310.83 534.464 1263.72 501.265 1263.72 460.312C1263.72 419.36 1310.83 386.161 1368.95 386.161C1427.06 386.161 1474.18 419.36 1474.18 460.312Z" fill="#1F1E2E"/>
<path d="M1359.02 386.634L1286.2 414.823L1304.28 394.856L1304.28 374.03L1327.14 384.117L1359.02 386.634Z" fill="#1F1E2E"/>
<path d="M1370.27 387.64L1451.96 414.829L1433.88 394.861L1433.88 374.036L1411.02 384.123L1370.27 387.64Z" fill="#1F1E2E"/>
<ellipse cx="1369" cy="354.876" rx="96" ry="32" fill="#27233C"/>
<ellipse cx="1369" cy="352.376" rx="90" ry="30.5" fill="#383450"/>
<ellipse cx="1369" cy="354.376" rx="81" ry="19.5" fill="#151420"/>
<ellipse cx="1367.5" cy="337.376" rx="32.5" ry="23.5" fill="#BD7E96"/>
<ellipse cx="1409.5" cy="347.876" rx="18.5" ry="18" fill="#BD7E96"/>
<path d="M1342 355.108C1342 364.626 1333.72 363.861 1323.5 363.861C1313.28 363.861 1305 364.626 1305 355.108C1305 345.591 1313.28 337.876 1323.5 337.876C1333.72 337.876 1342 345.591 1342 355.108Z" fill="#BD7E96"/>
<path d="M1441 361.719C1441 366.41 1409.01 373.876 1370.4 373.876C1331.79 373.876 1297 366.839 1297 362.148C1297 357.456 1331.17 351.876 1369.78 351.876C1408.4 351.876 1441 357.027 1441 361.719Z" fill="#BD7E96"/>
<path d="M1314 564.209L1349.3 550.876L1384 558.239L1318.01 590.876L1321.22 588.09L1322.83 585.105L1324.03 581.324L1324.43 577.742L1323.63 573.165L1321.42 567.99L1318.21 565.204L1314 564.209Z" fill="#5F402C"/>
<path d="M1259.8 537.61L1297.4 534.526L1328.66 551.236L1256.23 564.438L1260.09 562.64L1262.46 560.205L1264.66 556.892L1266.05 553.548L1266.55 548.912L1265.87 543.311L1263.57 539.736L1259.8 537.61Z" fill="#5F402C"/>
<ellipse cx="1256.9" cy="551.152" rx="9.3897" ry="13.5989" transform="rotate(16.0912 1256.9 551.152)" fill="#3E2318"/>
<path d="M1448.75 553.952L1412.15 544.821L1378.59 556.249L1447.93 581.004L1444.41 578.605L1442.47 575.819L1440.83 572.192L1440 568.669L1440.26 564.012L1441.83 558.595L1444.69 555.44L1448.75 553.952Z" fill="#5F402C"/>
<ellipse cx="9.3897" cy="13.5989" rx="9.3897" ry="13.5989" transform="matrix(-0.993022 0.11793 0.11793 0.993022 1457.14 553.174)" fill="#3E2318"/>
<path d="M1498.95 529.192L1461.35 526.108L1430.09 542.818L1502.52 556.02L1498.66 554.222L1496.29 551.787L1494.08 548.474L1492.7 545.131L1492.2 540.494L1492.88 534.893L1495.18 531.318L1498.95 529.192Z" fill="#5F402C"/>
<ellipse cx="9.3897" cy="13.5989" rx="9.3897" ry="13.5989" transform="matrix(-0.960822 0.277167 0.277167 0.960822 1507.1 527.065)" fill="#3E2318"/>
<ellipse cx="1315.5" cy="577.376" rx="9.5" ry="13.5" fill="#3E2318"/>
<circle cx="1480.27" cy="298.156" r="15.1564" fill="#E28EAE"/>
<path d="M1491.51 305.582C1489.03 308.831 1485.84 310.559 1484.37 309.44C1482.9 308.322 1486.91 307.213 1489.38 303.964C1491.86 300.715 1491.87 296.556 1493.34 297.675C1494.8 298.793 1493.98 302.333 1491.51 305.582Z" fill="#D3E8E8"/>
<path d="M1468.75 292.111C1470.77 288.556 1473.7 286.411 1475.31 287.32C1476.91 288.23 1473.09 289.872 1471.08 293.427C1469.06 296.981 1469.62 301.102 1468.02 300.193C1466.41 299.284 1466.74 295.665 1468.75 292.111Z" fill="#D3E8E8"/>
<path d="M1352.41 320.005C1359.45 316.405 1366.19 315.511 1367.47 318.008C1368.75 320.505 1361.3 320.019 1354.26 323.619C1347.22 327.219 1343.25 333.542 1341.97 331.045C1340.69 328.547 1345.37 323.605 1352.41 320.005Z" fill="#D3E8E8"/>
<path d="M1311.28 345.048C1314.03 341.973 1317.38 340.486 1318.77 341.728C1320.16 342.97 1316.04 343.77 1313.29 346.845C1310.54 349.92 1310.2 354.106 1308.81 352.864C1307.43 351.623 1308.53 348.123 1311.28 345.048Z" fill="#D3E8E8"/>
<path d="M1421.83 337.982C1419.21 334.797 1415.92 333.175 1414.48 334.359C1413.04 335.543 1417.13 336.511 1419.75 339.696C1422.37 342.88 1422.54 347.076 1423.97 345.892C1425.41 344.708 1424.45 341.167 1421.83 337.982Z" fill="#D3E8E8"/>
<circle cx="1478.93" cy="287.012" r="2.22889" fill="#D3E8E8"/>
<circle cx="1339.77" cy="337.682" r="2.22889" fill="#D3E8E8"/>
<circle cx="1281.42" cy="243.418" r="8.41835" fill="#E28EAE"/>
<path d="M1287.66 247.543C1286.29 249.347 1284.51 250.307 1283.7 249.686C1282.88 249.065 1285.11 248.448 1286.48 246.644C1287.86 244.839 1287.86 242.529 1288.68 243.151C1289.49 243.772 1289.04 245.738 1287.66 247.543Z" fill="#D3E8E8"/>
<path d="M1275.03 240.061C1276.14 238.087 1277.77 236.895 1278.66 237.4C1279.56 237.905 1277.43 238.818 1276.32 240.792C1275.2 242.766 1275.51 245.055 1274.62 244.55C1273.72 244.045 1273.91 242.035 1275.03 240.061Z" fill="#D3E8E8"/>
<circle cx="1280.68" cy="237.228" r="1.23799" fill="#D3E8E8"/>
<circle cx="1387.98" cy="298.634" r="3.81365" fill="#E28EAE"/>
<path d="M1390.81 300.503C1390.18 301.321 1389.38 301.755 1389.01 301.474C1388.64 301.192 1389.65 300.913 1390.27 300.096C1390.9 299.278 1390.9 298.232 1391.27 298.513C1391.64 298.795 1391.43 299.686 1390.81 300.503Z" fill="#D3E8E8"/>
<path d="M1385.08 297.113C1385.59 296.218 1386.33 295.679 1386.73 295.908C1387.13 296.136 1386.17 296.55 1385.67 297.444C1385.16 298.338 1385.3 299.375 1384.9 299.147C1384.49 298.918 1384.58 298.007 1385.08 297.113Z" fill="#D3E8E8"/>
<circle cx="1387.64" cy="295.829" r="0.560831" fill="#D3E8E8"/>
<circle cx="1362.51" cy="274.512" r="6.51153" fill="#E28EAE"/>
<path d="M1367.34 277.702C1366.28 279.098 1364.9 279.84 1364.27 279.36C1363.64 278.879 1365.37 278.403 1366.43 277.007C1367.49 275.611 1367.5 273.825 1368.13 274.305C1368.76 274.785 1368.41 276.307 1367.34 277.702Z" fill="#D3E8E8"/>
<path d="M1357.57 271.915C1358.43 270.388 1359.69 269.466 1360.38 269.857C1361.07 270.247 1359.43 270.953 1358.57 272.48C1357.7 274.007 1357.94 275.778 1357.25 275.387C1356.56 274.997 1356.7 273.442 1357.57 271.915Z" fill="#D3E8E8"/>
<circle cx="1361.94" cy="269.723" r="0.957577" fill="#D3E8E8"/>
<circle cx="1322.71" cy="291.713" r="9.71348" fill="#E28EAE"/>
<path d="M1329.92 296.472C1328.33 298.555 1326.29 299.662 1325.35 298.945C1324.4 298.228 1326.97 297.517 1328.56 295.435C1330.15 293.353 1330.15 290.688 1331.09 291.404C1332.03 292.121 1331.51 294.39 1329.92 296.472Z" fill="#D3E8E8"/>
<path d="M1315.34 287.839C1316.63 285.561 1318.51 284.186 1319.54 284.769C1320.57 285.352 1318.12 286.404 1316.83 288.682C1315.54 290.96 1315.89 293.602 1314.87 293.019C1313.84 292.436 1314.05 290.117 1315.34 287.839Z" fill="#D3E8E8"/>
<circle cx="1321.85" cy="284.571" r="1.42845" fill="#D3E8E8"/>
<circle cx="1516.68" cy="351.685" r="10.6848" fill="#E28EAE"/>
<path d="M1524.61 356.92C1522.87 359.211 1520.61 360.429 1519.58 359.64C1518.54 358.852 1521.37 358.07 1523.11 355.779C1524.86 353.489 1524.86 350.557 1525.9 351.346C1526.93 352.134 1526.36 354.63 1524.61 356.92Z" fill="#D3E8E8"/>
<path d="M1508.57 347.423C1509.99 344.917 1512.06 343.405 1513.19 344.046C1514.32 344.687 1511.63 345.844 1510.21 348.35C1508.79 350.856 1509.18 353.761 1508.05 353.121C1506.92 352.48 1507.15 349.929 1508.57 347.423Z" fill="#D3E8E8"/>
<circle cx="1515.74" cy="343.828" r="1.5713" fill="#D3E8E8"/>
<circle cx="1443.15" cy="289.152" r="6.15187" fill="#E28EAE"/>
<path d="M1447.71 292.166C1446.71 293.485 1445.41 294.186 1444.82 293.732C1444.22 293.278 1445.85 292.828 1446.85 291.509C1447.86 290.19 1447.86 288.502 1448.46 288.956C1449.05 289.41 1448.72 290.847 1447.71 292.166Z" fill="#D3E8E8"/>
<path d="M1438.48 286.697C1439.3 285.255 1440.49 284.384 1441.14 284.753C1441.79 285.122 1440.24 285.789 1439.42 287.232C1438.61 288.674 1438.83 290.347 1438.18 289.978C1437.53 289.609 1437.66 288.14 1438.48 286.697Z" fill="#D3E8E8"/>
<circle cx="1442.61" cy="284.628" r="0.904687" fill="#D3E8E8"/>
<circle cx="1252" cy="302.469" r="4.65463" fill="#E28EAE"/>
<path d="M1255.45 304.75C1254.69 305.748 1253.71 306.278 1253.26 305.935C1252.8 305.591 1254.04 305.25 1254.8 304.253C1255.56 303.255 1255.56 301.978 1256.01 302.321C1256.46 302.665 1256.21 303.752 1255.45 304.75Z" fill="#D3E8E8"/>
<path d="M1248.46 300.612C1249.08 299.52 1249.98 298.861 1250.47 299.141C1250.97 299.42 1249.79 299.924 1249.17 301.016C1248.56 302.108 1248.73 303.373 1248.23 303.094C1247.74 302.815 1247.84 301.703 1248.46 300.612Z" fill="#D3E8E8"/>
<circle cx="1251.59" cy="299.047" r="0.684504" fill="#D3E8E8"/>
<circle cx="1283.72" cy="310.29" r="3.81369" fill="#E28EAE"/>
<path d="M1286.55 312.159C1285.93 312.977 1285.12 313.411 1284.75 313.13C1284.38 312.849 1285.39 312.57 1286.02 311.752C1286.64 310.934 1286.64 309.888 1287.01 310.17C1287.38 310.451 1287.17 311.342 1286.55 312.159Z" fill="#D3E8E8"/>
<path d="M1280.82 308.768C1281.33 307.874 1282.07 307.334 1282.47 307.563C1282.88 307.792 1281.91 308.205 1281.41 309.099C1280.9 309.994 1281.04 311.031 1280.64 310.802C1280.23 310.573 1280.32 309.663 1280.82 308.768Z" fill="#D3E8E8"/>
<circle cx="1283.39" cy="307.487" r="0.560836" fill="#D3E8E8"/>
<path d="M1630.12 266.392C1632.49 261.201 1639.87 261.201 1642.25 266.392L1676.55 341.276C1678.57 345.696 1675.34 350.727 1670.48 350.727H1601.88C1597.02 350.727 1593.79 345.696 1595.82 341.276L1630.12 266.392Z" fill="#914E8D"/>
<path d="M1668.73 268.345C1674.22 269.913 1675.33 277.209 1670.55 280.34L1653.45 291.553L1637.38 259.39L1668.73 268.345Z" fill="#914E8D"/>
<path d="M1607.65 312.992C1607.88 312.361 1608.4 311.881 1609.05 311.706C1626.53 306.955 1644.96 306.915 1662.46 311.59L1662.89 311.703C1663.55 311.88 1664.08 312.371 1664.31 313.017L1671.14 332.145C1672 334.559 1670.21 337.098 1667.65 337.098H1604.25C1601.68 337.098 1599.89 334.552 1600.76 332.136L1607.65 312.992Z" fill="#004042"/>
<ellipse cx="1639.3" cy="364.049" rx="88.337" ry="43.2084" fill="#B274AE"/>
<ellipse cx="1639.3" cy="370.771" rx="60.4916" ry="26.8852" fill="#004042"/>
<path d="M1553.36 356.455C1574.13 350.071 1596.52 361.616 1602.9 382.383C1602.97 382.591 1602.85 382.811 1602.64 382.875C1581.88 389.259 1559.75 377.223 1553.36 356.455Z" fill="#E28EAE"/>
<path d="M1733.4 356.455C1712.63 350.071 1690.24 361.616 1683.86 382.383C1683.8 382.591 1683.91 382.811 1684.12 382.875C1704.89 389.259 1727.01 377.223 1733.4 356.455Z" fill="#E28EAE"/>
<path d="M1556.72 434.609C1577.49 440.993 1599.88 429.449 1606.26 408.681C1606.33 408.473 1606.21 408.253 1606 408.189C1585.24 401.805 1563.11 413.842 1556.72 434.609Z" fill="#E28EAE"/>
<path d="M1730.04 434.609C1709.27 440.993 1686.88 429.449 1680.5 408.681C1680.44 408.473 1680.55 408.253 1680.76 408.189C1701.53 401.805 1723.65 413.842 1730.04 434.609Z" fill="#E28EAE"/>
<path d="M1541.34 398.131C1555.84 381.948 1580.97 380.288 1597.15 394.785C1597.32 394.93 1597.33 395.178 1597.18 395.34C1582.69 411.523 1557.52 412.628 1541.34 398.131Z" fill="#E28EAE"/>
<path d="M1745.43 398.131C1730.93 381.948 1705.8 380.288 1689.61 394.785C1689.45 394.93 1689.44 395.178 1689.58 395.34C1704.08 411.523 1729.24 412.628 1745.43 398.131Z" fill="#E28EAE"/>
<rect width="6.63217" height="50.3264" rx="3.31608" transform="matrix(0.46812 -0.883665 0.883664 0.468122 1560.52 363.785)" fill="#EAD1D0"/>
<rect width="6.63217" height="50.3264" rx="3.31608" transform="matrix(-0.46812 -0.883665 -0.883664 0.468122 1726.24 363.785)" fill="#EAD1D0"/>
<rect width="6.63217" height="50.3264" rx="3.31608" transform="matrix(0.46812 0.883665 0.883664 -0.468122 1563.88 427.279)" fill="#EAD1D0"/>
<rect width="6.63217" height="50.3264" rx="3.31608" transform="matrix(-0.46812 0.883665 -0.883664 -0.468122 1722.88 427.279)" fill="#EAD1D0"/>
<path d="M1590.81 496.489H1694.51C1681.89 507.331 1665.79 513.293 1649.15 513.293H1636.17C1619.53 513.293 1603.43 507.331 1590.81 496.489Z" fill="#914E8D"/>
<rect x="1551.25" y="400.72" width="6.63217" height="50.3263" rx="3.31608" transform="rotate(-93.1458 1551.25 400.72)" fill="#EAD1D0"/>
<rect width="6.63217" height="50.3263" rx="3.31608" transform="matrix(0.0548768 -0.998493 -0.998493 -0.054877 1735.52 400.72)" fill="#EAD1D0"/>
<path d="M1587.27 386.497C1592.48 367.528 1609.73 354.382 1629.4 354.382H1652.18C1672.7 354.382 1690.45 368.656 1694.85 388.692C1700.84 415.95 1680.09 441.759 1652.18 441.759H1629.4C1600.56 441.759 1579.63 414.307 1587.27 386.497Z" fill="#EAD1D0"/>
<path d="M1595.13 388.468V388.468C1608.68 394.393 1624.39 392.492 1636.13 383.505L1638.24 381.89C1638.73 381.521 1639.39 381.518 1639.88 381.881L1641.96 383.439C1654.05 392.493 1670.06 394.41 1683.95 388.468V388.468" stroke="#A53459" stroke-width="2.22414" stroke-linecap="round"/>
<ellipse cx="1634.74" cy="377.186" rx="1.20023" ry="1.20023" fill="#A53459"/>
<ellipse cx="1643.38" cy="377.186" rx="1.20023" ry="1.20023" fill="#A53459"/>
<ellipse cx="1617.69" cy="374.545" rx="9.60185" ry="9.60187" fill="#E28EAE"/>
<path d="M1626.92 371.925C1627.25 373.148 1627.34 374.424 1627.17 375.681C1627.01 376.938 1626.6 378.151 1625.97 379.25C1625.34 380.349 1624.5 381.313 1623.5 382.087C1622.49 382.862 1621.35 383.431 1620.13 383.762C1618.9 384.093 1617.63 384.18 1616.37 384.018C1615.11 383.856 1613.9 383.448 1612.8 382.818C1611.7 382.187 1610.74 381.346 1609.96 380.343C1609.19 379.34 1608.62 378.194 1608.29 376.97L1617.6 374.448L1626.92 371.925Z" fill="#0D3F41"/>
<path d="M1625.18 372.406C1625.27 372.756 1625.3 373.12 1625.25 373.48C1625.2 373.839 1625.09 374.185 1624.91 374.499C1624.73 374.813 1624.49 375.089 1624.2 375.31C1623.91 375.531 1623.59 375.694 1623.24 375.789C1622.89 375.883 1622.52 375.908 1622.16 375.862C1621.8 375.816 1621.46 375.699 1621.14 375.519C1620.83 375.339 1620.55 375.098 1620.33 374.812C1620.11 374.525 1619.95 374.198 1619.85 373.848L1622.52 373.127L1625.18 372.406Z" fill="#FFFACC"/>
<path d="M1615.69 378.023C1615.83 377.765 1616.2 377.765 1616.34 378.023L1616.61 378.505C1616.66 378.603 1616.75 378.672 1616.86 378.692L1617.4 378.793C1617.69 378.847 1617.81 379.199 1617.61 379.413L1617.23 379.812C1617.15 379.893 1617.11 380.004 1617.13 380.115L1617.2 380.66C1617.24 380.951 1616.94 381.168 1616.67 381.043L1616.18 380.807C1616.08 380.759 1615.96 380.759 1615.86 380.807L1615.36 381.043C1615.1 381.168 1614.8 380.951 1614.83 380.66L1614.91 380.115C1614.92 380.004 1614.88 379.893 1614.81 379.812L1614.43 379.413C1614.23 379.199 1614.34 378.847 1614.63 378.793L1615.17 378.692C1615.28 378.672 1615.38 378.603 1615.43 378.505L1615.69 378.023Z" fill="#FFFACC"/>
<ellipse cx="9.60185" cy="9.60187" rx="9.60185" ry="9.60187" transform="matrix(-1 0 0 1 1670.24 364.943)" fill="#E28EAE"/>
<path d="M1651.42 371.925C1651.09 373.148 1651 374.424 1651.16 375.681C1651.33 376.938 1651.73 378.151 1652.36 379.25C1652.99 380.349 1653.84 381.313 1654.84 382.087C1655.84 382.862 1656.99 383.431 1658.21 383.762C1659.43 384.093 1660.71 384.18 1661.97 384.018C1663.22 383.856 1664.44 383.448 1665.54 382.818C1666.64 382.187 1667.6 381.346 1668.37 380.343C1669.15 379.34 1669.72 378.194 1670.05 376.97L1660.73 374.448L1651.42 371.925Z" fill="#0D3F41"/>
<path d="M1653.16 372.406C1653.06 372.756 1653.04 373.12 1653.09 373.48C1653.13 373.839 1653.25 374.185 1653.43 374.499C1653.61 374.813 1653.85 375.089 1654.14 375.31C1654.42 375.531 1654.75 375.694 1655.1 375.789C1655.45 375.883 1655.81 375.908 1656.17 375.862C1656.53 375.816 1656.88 375.699 1657.19 375.519C1657.51 375.339 1657.78 375.098 1658 374.812C1658.22 374.525 1658.39 374.198 1658.48 373.848L1655.82 373.127L1653.16 372.406Z" fill="#FFFACC"/>
<path d="M1662.65 378.023C1662.51 377.765 1662.14 377.765 1662 378.023L1661.74 378.505C1661.68 378.603 1661.59 378.672 1661.48 378.692L1660.94 378.793C1660.65 378.847 1660.54 379.199 1660.74 379.413L1661.11 379.812C1661.19 379.893 1661.23 380.004 1661.21 380.115L1661.14 380.66C1661.1 380.951 1661.4 381.168 1661.67 381.043L1662.17 380.807C1662.27 380.759 1662.38 380.759 1662.48 380.807L1662.98 381.043C1663.25 381.168 1663.54 380.951 1663.51 380.66L1663.44 380.115C1663.42 380.004 1663.46 379.893 1663.53 379.812L1663.91 379.413C1664.11 379.199 1664 378.847 1663.71 378.793L1663.17 378.692C1663.06 378.672 1662.97 378.603 1662.91 378.505L1662.65 378.023Z" fill="#FFFACC"/>
<path d="M1683.5 434.334L1712.59 464.125C1714.08 465.647 1713.98 468.105 1712.38 469.506L1693.38 486.119C1691.57 487.696 1688.77 487.172 1687.65 485.049L1668.11 447.786L1683.5 434.334Z" fill="#B274AE"/>
<path d="M1609.82 446.268C1607.28 439.267 1599.8 435.376 1592.61 437.315L1566.94 444.238C1566.82 444.271 1566.75 444.401 1566.79 444.521L1580 480.955C1580.06 481.132 1580.28 481.196 1580.43 481.083L1604.97 462.601C1610 458.813 1611.97 452.187 1609.82 446.268Z" fill="#B274AE"/>
<path d="M1647.5 274.267C1647.23 273.715 1646.57 273.484 1646.01 273.752C1645.46 274.021 1645.23 274.686 1645.5 275.238L1647.5 274.267ZM1645.5 275.238L1653.42 291.562L1655.42 290.591L1647.5 274.267L1645.5 275.238Z" fill="#B274AE"/>
<path d="M1608.09 424.476H1676.27V448.96C1676.27 467.786 1661.01 483.047 1642.18 483.047C1623.35 483.047 1608.09 467.786 1608.09 448.96V424.476Z" fill="#EAD1D0"/>
<path d="M1630.66 449.439L1643.14 458.801L1655.62 449.439V485.446H1630.66V449.439Z" fill="#0D3F41"/>
<rect x="1618.17" y="479.687" width="51.3699" height="8.16159" fill="#964C1A"/>
<path d="M1605.69 487.367H1679.15C1679.15 496.913 1671.41 504.651 1661.87 504.651H1622.98C1613.43 504.651 1605.69 496.913 1605.69 487.367Z" fill="#0D3F41"/>
<path d="M1600.89 439.358L1634.5 444.399V468.755C1634.5 485.133 1621.23 498.41 1604.85 498.41H1597.76C1593.06 498.41 1589.55 494.093 1590.5 489.491L1600.89 439.358Z" fill="#B274AE"/>
<path d="M1684.5 439.358L1650.89 446.56V468.755C1650.89 485.133 1664.17 498.41 1680.55 498.41H1687.64C1692.34 498.41 1695.85 494.093 1694.9 489.491L1684.5 439.358Z" fill="#B274AE"/>
<path d="M1686.66 433.669C1685.6 431.119 1682.67 429.915 1680.12 430.978L1649.53 443.739C1647.95 444.399 1647.19 446.211 1647.84 447.798C1648.44 449.278 1650.07 450.064 1651.6 449.619L1683.44 440.398C1686.31 439.568 1687.81 436.425 1686.66 433.669Z" fill="#FFB23E"/>
<path d="M1598.73 433.669C1599.79 431.119 1602.72 429.915 1605.27 430.978L1635.86 443.739C1637.44 444.399 1638.2 446.211 1637.55 447.798C1636.95 449.278 1635.33 450.064 1633.79 449.619L1601.95 440.398C1599.08 439.568 1597.58 436.425 1598.73 433.669Z" fill="#FFB23E"/>
<path d="M1612.95 470.052L1616.34 473.151L1620.93 472.869L1619.03 477.055L1620.72 481.331L1616.15 480.818L1612.6 483.743L1611.68 479.241L1607.8 476.773L1611.8 474.502L1612.95 470.052Z" fill="#FFB23E"/>
<path d="M1673.91 448.012L1676.88 448.765L1679.48 447.158L1679.68 450.211L1682.01 452.191L1679.17 453.326L1678.01 456.157L1676.05 453.804L1673 453.573L1674.63 450.985L1673.91 448.012Z" fill="#FFB23E"/>
<path d="M1691.72 445.842L1693.07 446.141L1694.23 445.375L1694.37 446.755L1695.45 447.619L1694.18 448.174L1693.69 449.473L1692.77 448.436L1691.39 448.375L1692.09 447.179L1691.72 445.842Z" fill="#FFB23E"/>
<path d="M1603.89 443.14L1602.31 443.483L1600.97 442.59L1600.81 444.195L1599.54 445.196L1601.02 445.844L1601.58 447.356L1602.66 446.152L1604.27 446.086L1603.45 444.693L1603.89 443.14Z" fill="#FFB23E"/>
<rect width="4.32084" height="18.7236" rx="2.16042" transform="matrix(-0.3453 -0.938492 -0.938492 0.345302 1573.49 457.765)" fill="#EAD1D0"/>
<rect width="4.32084" height="18.7236" rx="2.16042" transform="matrix(-0.3453 -0.938492 -0.938492 0.345302 1572 453.709)" fill="#EAD1D0"/>
<rect width="4.32084" height="18.7236" rx="2.16042" transform="matrix(-0.3453 -0.938492 -0.938492 0.345302 1570.51 449.654)" fill="#EAD1D0"/>
<path d="M1699.85 458.801L1702.54 459.393L1704.83 457.873L1705.1 460.613L1707.26 462.326L1704.73 463.427L1703.77 466.006L1701.94 463.947L1699.19 463.827L1700.59 461.454L1699.85 458.801Z" fill="#FFB23E"/>
<path d="M1594.4 458.188L1591.27 458.869L1588.61 457.097L1588.29 460.281L1585.78 462.268L1588.71 463.555L1589.82 466.555L1591.95 464.166L1595.15 464.034L1593.54 461.27L1594.4 458.188Z" fill="#FFB23E"/>
<path d="M1607.88 450.647L1609.9 452.498L1612.63 452.339L1611.49 454.826L1612.48 457.373L1609.77 457.06L1607.65 458.793L1607.11 456.113L1604.81 454.637L1607.19 453.293L1607.88 450.647Z" fill="#FFB23E"/>
<path d="M1623.06 461.607L1623.38 462.989L1624.6 463.719L1623.39 464.454L1623.07 465.838L1622 464.91L1620.58 465.036L1621.13 463.727L1620.58 462.421L1621.99 462.54L1623.06 461.607Z" fill="#FFB23E"/>
<path d="M1661.72 463.017L1662.21 464.348L1663.51 464.921L1662.39 465.801L1662.25 467.214L1661.07 466.426L1659.68 466.727L1660.07 465.36L1659.35 464.133L1660.77 464.076L1661.72 463.017Z" fill="#FFB23E"/>
<path d="M1598.06 488.319L1599.29 488.771L1600.48 488.2L1600.43 489.513L1601.34 490.461L1600.07 490.82L1599.45 491.977L1598.72 490.886L1597.43 490.653L1598.24 489.62L1598.06 488.319Z" fill="#FFB23E"/>
<path d="M1601.75 469.332L1601.67 470.134L1602.19 470.75L1601.4 470.92L1600.98 471.604L1600.57 470.907L1599.79 470.714L1600.33 470.114L1600.27 469.31L1601.01 469.635L1601.75 469.332Z" fill="#FFB23E"/>
<path d="M1660.82 476.887L1666.3 478.171L1671.04 475.124L1671.51 480.736L1675.87 484.3L1670.68 486.485L1668.64 491.733L1664.96 487.472L1659.33 487.152L1662.25 482.334L1660.82 476.887Z" fill="#FFB23E"/>
<path d="M1690.64 490.866L1674.94 459.914" stroke="#914E8D" stroke-width="2.22414" stroke-linecap="round"/>
<path d="M1593.84 474.645L1599.36 451.36" stroke="#914E8D" stroke-width="2.22414" stroke-linecap="round"/>
<path d="M1711.33 463.969C1711.92 463.5 1712.76 463.548 1713.3 464.082L1718.23 469.018C1718.86 469.652 1718.79 470.697 1718.08 471.243L1692.58 490.817C1691.89 491.349 1690.89 491.17 1690.43 490.432L1687 484.999C1686.6 484.359 1686.74 483.519 1687.34 483.048L1711.33 463.969Z" fill="#FFB23E"/>
<path d="M1572.36 443.342C1572.07 442.646 1571.31 442.278 1570.58 442.487L1562.31 444.875C1561.45 445.123 1561.01 446.071 1561.37 446.892L1576.53 481.644C1576.88 482.444 1577.84 482.771 1578.61 482.35L1585.56 478.513C1586.23 478.148 1586.51 477.343 1586.22 476.645L1572.36 443.342Z" fill="#FFB23E"/>
<rect width="5.34207" height="38.4074" rx="2.67103" transform="matrix(0.883517 -0.468398 0.468397 0.883518 1542.32 430.818)" fill="#964C1A"/>
<rect width="4.32084" height="5.7215" rx="2.16042" transform="matrix(-0.3453 -0.938492 -0.938492 0.345302 1563.59 454.144)" fill="#EAD1D0"/>
<path d="M1552.3 421.126C1552.6 420.05 1551.65 419.04 1550.55 419.278L1545.72 420.33C1545.33 420.416 1544.92 420.339 1544.58 420.116L1540.47 417.377C1539.53 416.758 1538.28 417.352 1538.17 418.464L1537.68 423.386C1537.64 423.785 1537.44 424.151 1537.12 424.401L1533.24 427.471C1532.37 428.165 1532.54 429.542 1533.57 429.991L1538.1 431.98C1538.46 432.142 1538.75 432.445 1538.89 432.822L1540.61 437.459C1541 438.506 1542.36 438.764 1543.11 437.929L1546.4 434.237C1546.67 433.937 1547.04 433.758 1547.45 433.742L1552.39 433.537C1553.5 433.491 1554.17 432.273 1553.61 431.308L1551.11 427.037C1550.91 426.69 1550.86 426.276 1550.96 425.889L1552.3 421.126Z" fill="#FFB23E"/>
<path d="M1548.77 424.616C1549.07 423.54 1548.12 422.53 1547.03 422.768L1545.29 423.146C1544.9 423.232 1544.49 423.155 1544.15 422.932L1542.67 421.947C1541.74 421.328 1540.49 421.922 1540.38 423.034L1540.2 424.804C1540.16 425.204 1539.96 425.57 1539.64 425.819L1538.25 426.923C1537.37 427.617 1537.55 428.994 1538.57 429.443L1540.2 430.159C1540.57 430.32 1540.86 430.624 1541 431L1541.61 432.668C1542 433.716 1543.37 433.973 1544.11 433.138L1545.3 431.811C1545.56 431.511 1545.94 431.332 1546.34 431.316L1548.12 431.242C1549.23 431.196 1549.9 429.978 1549.34 429.013L1548.44 427.477C1548.24 427.13 1548.18 426.716 1548.29 426.329L1548.77 424.616Z" fill="#FFFACC"/>
<rect x="1619.62" y="499.85" width="11.0421" height="20.1639" fill="#0D3F41"/>
<path d="M1617.25 516.163C1617.12 515.689 1617.47 515.213 1617.97 515.213H1631.12C1631.53 515.213 1631.86 515.545 1631.86 515.954V531.536H1614.96C1613.65 531.536 1612.98 529.961 1613.9 529.021L1619.38 523.374L1617.25 516.163Z" fill="#964C1A"/>
<rect width="11.0421" height="20.1639" transform="matrix(-1 0 0 1 1664.5 499.85)" fill="#0D3F41"/>
<path d="M1666.87 516.163C1667.01 515.689 1666.65 515.213 1666.16 515.213H1653C1652.59 515.213 1652.26 515.545 1652.26 515.954V531.536H1669.16C1670.47 531.536 1671.14 529.961 1670.23 529.021L1664.75 523.374L1666.87 516.163Z" fill="#964C1A"/>
<ellipse cx="1642.42" cy="449.68" rx="9.3618" ry="9.36182" fill="#FCDC8F"/>
<ellipse cx="1642.42" cy="449.68" rx="6.48125" ry="6.48126" fill="#A53459"/>
<ellipse cx="1640.02" cy="447.28" rx="3.1206" ry="3.12061" fill="#EAD1D0"/>
<path d="M865.338 290C865.338 278.954 874.292 270 885.338 270H1128.34C1139.38 270 1148.34 278.954 1148.34 290V513C1148.34 524.046 1139.38 533 1128.34 533H885.338C874.292 533 865.338 524.046 865.338 513V290Z" fill="#091515"/>
<path d="M883.338 310C883.338 298.954 892.292 290 903.338 290H1111.34C1122.38 290 1131.34 298.954 1131.34 310V495C1131.34 506.046 1122.38 515 1111.34 515H903.338C892.292 515 883.338 506.046 883.338 495V310Z" fill="#030E0E"/>
<path d="M875.338 393H1139.34V409H875.338V393Z" fill="#091515"/>
<path d="M889.659 447.284C889.659 441.761 894.136 437.284 899.659 437.284H921.751C927.274 437.284 931.751 441.761 931.751 447.284V462.539H889.659V447.284Z" fill="#4F5066"/>
<rect x="879.298" y="462.539" width="62.1663" height="114.619" rx="5" fill="#4F5066"/>
<path d="M883.831 505.926H936.284V565.682C936.284 568.444 934.045 570.682 931.284 570.682H888.831C886.069 570.682 883.831 568.444 883.831 565.682V505.926Z" fill="#8CAEAC"/>
<path d="M883.831 472.072C883.831 469.311 886.069 467.072 888.831 467.072H931.284C934.045 467.072 936.284 469.311 936.284 472.072V505.926H883.831V472.072Z" fill="#8687A0" fill-opacity="0.5"/>
<rect x="888.519" y="436.669" width="43.3839" height="12.0759" rx="5" fill="#B69073"/>
<path d="M888.519 439.576H931.902V443.745C931.902 446.506 929.664 448.745 926.902 448.745H893.519C890.757 448.745 888.519 446.506 888.519 443.745V439.576Z" fill="#633A14"/>
<rect x="887.069" y="445.055" width="46.6247" height="9.06592" rx="4.53296" fill="#89BEAA"/>
<rect x="892.249" y="445.702" width="10.361" height="1.9427" rx="0.971348" fill="#D3E8E8"/>
<circle cx="928.836" cy="424.768" r="1.41217" transform="rotate(-47.2096 928.836 424.768)" fill="#84BCB9"/>
<path d="M930.056 424.47C930.122 424.845 930.038 425.173 929.868 425.202C929.699 425.232 929.877 424.888 929.811 424.513C929.746 424.138 929.462 423.874 929.631 423.845C929.801 423.815 929.991 424.095 930.056 424.47Z" fill="#D3E8E8"/>
<path d="M927.694 425.173C927.578 424.81 927.617 424.474 927.781 424.422C927.945 424.37 927.815 424.735 927.931 425.097C928.046 425.46 928.363 425.683 928.199 425.735C928.036 425.787 927.809 425.536 927.694 425.173Z" fill="#D3E8E8"/>
<circle cx="927.989" cy="424.155" r="0.207672" transform="rotate(-47.2096 927.989 424.155)" fill="#D3E8E8"/>
<circle cx="885.607" cy="429.985" r="3.33795" transform="rotate(28.2804 885.607 429.985)" fill="#84BCB9"/>
<path d="M887.012 432.598C886.193 432.97 885.393 432.971 885.225 432.601C885.057 432.231 885.95 432.434 886.769 432.062C887.588 431.691 888.024 430.885 888.192 431.255C888.36 431.625 887.832 432.226 887.012 432.598Z" fill="#D3E8E8"/>
<path d="M884.006 427.611C884.767 427.132 885.56 427.022 885.777 427.366C885.993 427.709 885.081 427.629 884.319 428.109C883.558 428.588 883.236 429.445 883.02 429.102C882.803 428.758 883.245 428.09 884.006 427.611Z" fill="#D3E8E8"/>
<circle cx="886.51" cy="427.683" r="0.490875" transform="rotate(28.2804 886.51 427.683)" fill="#D3E8E8"/>
<circle cx="890.583" cy="446.629" r="0.925807" fill="#D3E8E8"/>
<circle cx="933.76" cy="431.169" r="2.52436" transform="rotate(-47.2096 933.76 431.169)" fill="#84BCB9"/>
<path d="M935.939 430.635C936.056 431.305 935.905 431.891 935.603 431.944C935.3 431.997 935.618 431.381 935.501 430.711C935.384 430.041 934.877 429.57 935.179 429.517C935.482 429.464 935.822 429.965 935.939 430.635Z" fill="#D3E8E8"/>
<path d="M931.719 431.892C931.512 431.244 931.582 430.642 931.874 430.549C932.167 430.456 931.936 431.108 932.142 431.757C932.349 432.405 932.916 432.803 932.623 432.897C932.33 432.99 931.925 432.54 931.719 431.892Z" fill="#D3E8E8"/>
<circle cx="932.247" cy="430.071" r="0.371229" transform="rotate(-47.2096 932.247 430.071)" fill="#D3E8E8"/>
<circle cx="889.075" cy="422.293" r="2.52436" transform="rotate(28.2804 889.075 422.293)" fill="#84BCB9"/>
<path d="M890.137 424.27C889.517 424.551 888.912 424.552 888.785 424.272C888.658 423.992 889.333 424.146 889.953 423.865C890.573 423.583 890.902 422.974 891.029 423.254C891.156 423.534 890.756 423.988 890.137 424.27Z" fill="#D3E8E8"/>
<path d="M887.863 420.498C888.439 420.136 889.038 420.053 889.202 420.313C889.366 420.573 888.676 420.512 888.1 420.875C887.524 421.237 887.28 421.885 887.117 421.625C886.953 421.365 887.287 420.861 887.863 420.498Z" fill="#D3E8E8"/>
<circle cx="889.758" cy="420.554" r="0.371229" transform="rotate(28.2804 889.758 420.554)" fill="#D3E8E8"/>
<circle cx="895.148" cy="424.926" r="1.2944" transform="rotate(28.2804 895.148 424.926)" fill="#84BCB9"/>
<path d="M895.693 425.939C895.375 426.083 895.065 426.083 895 425.94C894.934 425.796 895.281 425.875 895.598 425.731C895.916 425.587 896.085 425.274 896.15 425.418C896.215 425.561 896.01 425.794 895.693 425.939Z" fill="#D3E8E8"/>
<path d="M894.527 424.006C894.823 423.82 895.13 423.777 895.214 423.911C895.298 424.044 894.944 424.013 894.649 424.199C894.354 424.385 894.229 424.717 894.145 424.584C894.061 424.451 894.232 424.192 894.527 424.006Z" fill="#D3E8E8"/>
<circle cx="895.5" cy="424.034" r="0.190354" transform="rotate(28.2804 895.5 424.034)" fill="#D3E8E8"/>
<path d="M1089.1 453.439C1089.1 447.917 1093.57 443.439 1099.1 443.439H1100.57C1106.1 443.439 1110.57 447.917 1110.57 453.439V456.325H1089.1V453.439Z" fill="#4F5066"/>
<rect x="1083.81" y="456.324" width="31.718" height="58.4801" rx="5" fill="#4F5066"/>
<path d="M1086.12 478.461H1112.89V506.501C1112.89 509.262 1110.65 511.501 1107.89 511.501H1091.12C1088.36 511.501 1086.12 509.262 1086.12 506.501V478.461Z" fill="#FFFACC"/>
<path d="M1086.12 463.638C1086.12 460.876 1088.36 458.638 1091.12 458.638H1107.89C1110.65 458.638 1112.89 460.876 1112.89 463.638V478.461H1086.12V463.638Z" fill="#8687A0" fill-opacity="0.5"/>
<path d="M1088.57 445.287C1088.47 444.123 1089.39 443.126 1090.56 443.126H1108.56C1109.77 443.126 1110.7 444.192 1110.54 445.391L1110.39 446.531C1110.25 447.536 1109.39 448.281 1108.38 448.266L1090.6 447.996C1089.57 447.981 1088.72 447.185 1088.64 446.157L1088.57 445.287Z" fill="#B69073"/>
<path d="M1088.52 444.609H1110.65C1110.65 447.193 1108.56 449.287 1105.97 449.287H1093.19C1090.61 449.287 1088.52 447.193 1088.52 444.609Z" fill="#633A14"/>
<rect x="1087.77" y="447.405" width="23.7885" height="4.62554" rx="2.31277" fill="#FFB23E"/>
<rect x="1090.42" y="447.735" width="5.28633" height="0.991187" rx="0.495594" fill="#D3E8E8"/>
<circle cx="1109.08" cy="437.053" r="0.720506" transform="rotate(-47.2096 1109.08 437.053)" fill="#FFFACC"/>
<path d="M1109.71 436.901C1109.74 437.093 1109.7 437.26 1109.61 437.275C1109.52 437.29 1109.61 437.115 1109.58 436.923C1109.55 436.732 1109.4 436.597 1109.49 436.582C1109.58 436.567 1109.67 436.71 1109.71 436.901Z" fill="#D3E8E8"/>
<path d="M1108.5 437.26C1108.44 437.075 1108.46 436.904 1108.55 436.877C1108.63 436.85 1108.56 437.037 1108.62 437.222C1108.68 437.407 1108.84 437.52 1108.76 437.547C1108.68 437.574 1108.56 437.445 1108.5 437.26Z" fill="#D3E8E8"/>
<circle cx="1108.65" cy="436.74" r="0.10639" transform="rotate(-47.2096 1108.65 436.74)" fill="#D3E8E8"/>
<circle cx="1087.03" cy="439.715" r="1.70306" transform="rotate(28.2804 1087.03 439.715)" fill="#FFFACC"/>
<path d="M1087.75 441.048C1087.33 441.238 1086.92 441.239 1086.83 441.05C1086.75 440.861 1087.2 440.965 1087.62 440.775C1088.04 440.585 1088.26 440.174 1088.35 440.363C1088.43 440.552 1088.16 440.859 1087.75 441.048Z" fill="#D3E8E8"/>
<path d="M1086.22 438.504C1086.6 438.26 1087.01 438.204 1087.12 438.379C1087.23 438.555 1086.76 438.514 1086.38 438.758C1085.99 439.003 1085.82 439.44 1085.71 439.265C1085.6 439.089 1085.83 438.749 1086.22 438.504Z" fill="#D3E8E8"/>
<circle cx="1087.49" cy="438.541" r="0.25045" transform="rotate(28.2804 1087.49 438.541)" fill="#D3E8E8"/>
<circle cx="1089.57" cy="448.207" r="0.472358" fill="#D3E8E8"/>
<circle cx="1111.6" cy="440.319" r="1.28796" transform="rotate(-47.2096 1111.6 440.319)" fill="#FFFACC"/>
<path d="M1112.71 440.047C1112.77 440.389 1112.69 440.688 1112.54 440.715C1112.39 440.742 1112.55 440.428 1112.49 440.086C1112.43 439.744 1112.17 439.503 1112.32 439.476C1112.48 439.45 1112.65 439.705 1112.71 440.047Z" fill="#D3E8E8"/>
<path d="M1110.56 440.688C1110.45 440.358 1110.49 440.051 1110.64 440.003C1110.79 439.956 1110.67 440.289 1110.77 440.619C1110.88 440.95 1111.17 441.153 1111.02 441.201C1110.87 441.249 1110.66 441.019 1110.56 440.688Z" fill="#D3E8E8"/>
<circle cx="1110.83" cy="439.759" r="0.189406" transform="rotate(-47.2096 1110.83 439.759)" fill="#D3E8E8"/>
<circle cx="1088.8" cy="435.79" r="1.28796" transform="rotate(28.2804 1088.8 435.79)" fill="#FFFACC"/>
<path d="M1089.34 436.799C1089.03 436.943 1088.72 436.943 1088.65 436.8C1088.59 436.658 1088.93 436.736 1089.25 436.592C1089.57 436.449 1089.73 436.138 1089.8 436.281C1089.86 436.424 1089.66 436.656 1089.34 436.799Z" fill="#D3E8E8"/>
<path d="M1088.18 434.875C1088.47 434.69 1088.78 434.648 1088.86 434.781C1088.95 434.913 1088.6 434.882 1088.3 435.067C1088.01 435.252 1087.88 435.583 1087.8 435.45C1087.72 435.318 1087.89 435.06 1088.18 434.875Z" fill="#D3E8E8"/>
<circle cx="1089.15" cy="434.903" r="0.189406" transform="rotate(28.2804 1089.15 434.903)" fill="#D3E8E8"/>
<circle cx="1091.9" cy="437.135" r="0.660421" transform="rotate(28.2804 1091.9 437.135)" fill="#FFFACC"/>
<path d="M1092.17 437.652C1092.01 437.725 1091.85 437.726 1091.82 437.653C1091.78 437.579 1091.96 437.62 1092.12 437.546C1092.29 437.472 1092.37 437.313 1092.4 437.386C1092.44 437.459 1092.33 437.578 1092.17 437.652Z" fill="#D3E8E8"/>
<path d="M1091.58 436.666C1091.73 436.571 1091.89 436.549 1091.93 436.617C1091.97 436.685 1091.79 436.669 1091.64 436.764C1091.49 436.859 1091.43 437.028 1091.39 436.96C1091.34 436.892 1091.43 436.76 1091.58 436.666Z" fill="#D3E8E8"/>
<circle cx="1092.08" cy="436.681" r="0.0975182" transform="rotate(28.2804 1092.08 436.681)" fill="#D3E8E8"/>
<path d="M1049.6 453.439C1049.6 447.917 1054.07 443.439 1059.6 443.439H1061.07C1066.59 443.439 1071.07 447.917 1071.07 453.439V456.325H1049.6V453.439Z" fill="#4F5066"/>
<rect x="1044.31" y="456.324" width="31.718" height="58.4801" rx="5" fill="#4F5066"/>
<path d="M1046.62 478.461H1073.39V506.501C1073.39 509.262 1071.15 511.501 1068.39 511.501H1051.62C1048.86 511.501 1046.62 509.262 1046.62 506.501V478.461Z" fill="#89BEAA"/>
<path d="M1046.62 463.638C1046.62 460.876 1048.86 458.638 1051.62 458.638H1068.39C1071.15 458.638 1073.39 460.876 1073.39 463.638V478.461H1046.62V463.638Z" fill="#8687A0" fill-opacity="0.5"/>
<path d="M1049.02 445.071C1049.01 443.992 1049.88 443.112 1050.96 443.112H1069.19C1070.33 443.112 1071.22 444.084 1071.13 445.216C1071.04 446.223 1070.2 446.998 1069.19 446.998H1050.96C1049.89 446.998 1049.03 446.137 1049.02 445.071Z" fill="#B69073"/>
<path d="M1049.01 444.609H1071.15C1071.15 447.193 1069.06 449.287 1066.47 449.287H1053.69C1051.11 449.287 1049.01 447.193 1049.01 444.609Z" fill="#633A14"/>
<rect x="1048.27" y="447.405" width="23.7885" height="4.62554" rx="2.31277" fill="#0D3F41"/>
<rect x="1050.92" y="447.735" width="5.28633" height="0.991187" rx="0.495594" fill="#D3E8E8"/>
<circle cx="1069.58" cy="437.053" r="0.720506" transform="rotate(-47.2096 1069.58 437.053)" fill="#89BEAA"/>
<path d="M1070.2 436.901C1070.24 437.093 1070.2 437.26 1070.11 437.275C1070.02 437.29 1070.11 437.115 1070.08 436.923C1070.05 436.732 1069.9 436.597 1069.99 436.582C1070.07 436.567 1070.17 436.71 1070.2 436.901Z" fill="#D3E8E8"/>
<path d="M1069 437.26C1068.94 437.075 1068.96 436.904 1069.05 436.877C1069.13 436.85 1069.06 437.037 1069.12 437.222C1069.18 437.407 1069.34 437.52 1069.26 437.547C1069.18 437.574 1069.06 437.445 1069 437.26Z" fill="#D3E8E8"/>
<circle cx="1069.15" cy="436.74" r="0.10639" transform="rotate(-47.2096 1069.15 436.74)" fill="#D3E8E8"/>
<circle cx="1047.53" cy="439.715" r="1.70306" transform="rotate(28.2804 1047.53 439.715)" fill="#89BEAA"/>
<path d="M1048.24 441.048C1047.83 441.238 1047.42 441.239 1047.33 441.05C1047.25 440.861 1047.7 440.965 1048.12 440.775C1048.54 440.585 1048.76 440.174 1048.85 440.363C1048.93 440.552 1048.66 440.859 1048.24 441.048Z" fill="#D3E8E8"/>
<path d="M1046.71 438.504C1047.1 438.26 1047.51 438.204 1047.62 438.379C1047.73 438.555 1047.26 438.514 1046.87 438.758C1046.49 439.003 1046.32 439.44 1046.21 439.265C1046.1 439.089 1046.33 438.749 1046.71 438.504Z" fill="#D3E8E8"/>
<circle cx="1047.99" cy="438.541" r="0.25045" transform="rotate(28.2804 1047.99 438.541)" fill="#D3E8E8"/>
<circle cx="1050.07" cy="448.207" r="0.472358" fill="#D3E8E8"/>
<circle cx="1072.1" cy="440.319" r="1.28796" transform="rotate(-47.2096 1072.1 440.319)" fill="#89BEAA"/>
<path d="M1073.21 440.047C1073.27 440.389 1073.19 440.688 1073.04 440.715C1072.88 440.742 1073.05 440.428 1072.99 440.086C1072.93 439.744 1072.67 439.503 1072.82 439.476C1072.98 439.45 1073.15 439.705 1073.21 440.047Z" fill="#D3E8E8"/>
<path d="M1071.06 440.688C1070.95 440.358 1070.99 440.051 1071.13 440.003C1071.28 439.956 1071.17 440.289 1071.27 440.619C1071.38 440.95 1071.67 441.153 1071.52 441.201C1071.37 441.249 1071.16 441.019 1071.06 440.688Z" fill="#D3E8E8"/>
<circle cx="1071.32" cy="439.759" r="0.189406" transform="rotate(-47.2096 1071.32 439.759)" fill="#D3E8E8"/>
<circle cx="1049.3" cy="435.79" r="1.28796" transform="rotate(28.2804 1049.3 435.79)" fill="#89BEAA"/>
<path d="M1049.84 436.799C1049.53 436.943 1049.22 436.943 1049.15 436.8C1049.09 436.658 1049.43 436.736 1049.75 436.592C1050.06 436.449 1050.23 436.138 1050.3 436.281C1050.36 436.424 1050.16 436.656 1049.84 436.799Z" fill="#D3E8E8"/>
<path d="M1048.68 434.875C1048.97 434.69 1049.28 434.648 1049.36 434.781C1049.45 434.913 1049.09 434.882 1048.8 435.067C1048.51 435.252 1048.38 435.583 1048.3 435.45C1048.22 435.318 1048.39 435.06 1048.68 434.875Z" fill="#D3E8E8"/>
<circle cx="1049.65" cy="434.903" r="0.189406" transform="rotate(28.2804 1049.65 434.903)" fill="#D3E8E8"/>
<circle cx="1052.39" cy="437.135" r="0.660421" transform="rotate(28.2804 1052.39 437.135)" fill="#89BEAA"/>
<path d="M1052.67 437.652C1052.51 437.725 1052.35 437.726 1052.32 437.653C1052.28 437.579 1052.46 437.62 1052.62 437.546C1052.78 437.472 1052.87 437.313 1052.9 437.386C1052.94 437.459 1052.83 437.578 1052.67 437.652Z" fill="#D3E8E8"/>
<path d="M1052.08 436.666C1052.23 436.571 1052.39 436.549 1052.43 436.617C1052.47 436.685 1052.29 436.669 1052.14 436.764C1051.99 436.859 1051.93 437.028 1051.88 436.96C1051.84 436.892 1051.93 436.76 1052.08 436.666Z" fill="#D3E8E8"/>
<circle cx="1052.58" cy="436.681" r="0.0975182" transform="rotate(28.2804 1052.58 436.681)" fill="#D3E8E8"/>
<path d="M1089.1 331.051C1089.1 325.528 1093.57 321.051 1099.1 321.051H1100.57C1106.1 321.051 1110.57 325.528 1110.57 331.051V333.936H1089.1V331.051Z" fill="#4F5066"/>
<rect x="1083.81" y="333.936" width="31.718" height="58.4801" rx="5" fill="#4F5066"/>
<path d="M1086.12 356.072H1112.89V384.112C1112.89 386.873 1110.65 389.112 1107.89 389.112H1091.12C1088.36 389.112 1086.12 386.873 1086.12 384.112V356.072Z" fill="#BD7E96"/>
<path d="M1086.12 341.248C1086.12 338.487 1088.36 336.248 1091.12 336.248H1107.89C1110.65 336.248 1112.89 338.487 1112.89 341.248V356.072H1086.12V341.248Z" fill="#8687A0" fill-opacity="0.5"/>
<path d="M1088.52 322.176C1088.52 321.381 1089.16 320.736 1089.96 320.736H1109.43C1110.1 320.736 1110.65 321.284 1110.65 321.959C1110.65 322.623 1110.12 323.166 1109.46 323.181L1089.99 323.616C1089.18 323.634 1088.52 322.984 1088.52 322.176Z" fill="#B69073"/>
<path d="M1088.52 322.22H1110.65C1110.65 324.803 1108.56 326.898 1105.97 326.898H1093.19C1090.61 326.898 1088.52 324.803 1088.52 322.22Z" fill="#633A14"/>
<rect x="1087.77" y="325.016" width="23.7885" height="4.62554" rx="2.31277" fill="#914E8D"/>
<rect x="1090.42" y="325.346" width="5.28633" height="0.991187" rx="0.495594" fill="#D3E8E8"/>
<circle cx="1109.08" cy="314.664" r="0.720506" transform="rotate(-47.2096 1109.08 314.664)" fill="#BD7E96"/>
<path d="M1109.71 314.512C1109.74 314.703 1109.7 314.87 1109.61 314.886C1109.52 314.901 1109.61 314.725 1109.58 314.534C1109.55 314.342 1109.4 314.208 1109.49 314.193C1109.58 314.178 1109.67 314.321 1109.71 314.512Z" fill="#D3E8E8"/>
<path d="M1108.5 314.87C1108.44 314.685 1108.46 314.514 1108.55 314.487C1108.63 314.461 1108.56 314.647 1108.62 314.832C1108.68 315.017 1108.84 315.131 1108.76 315.157C1108.68 315.184 1108.56 315.055 1108.5 314.87Z" fill="#D3E8E8"/>
<circle cx="1108.65" cy="314.351" r="0.10639" transform="rotate(-47.2096 1108.65 314.351)" fill="#D3E8E8"/>
<circle cx="1087.03" cy="317.325" r="1.70306" transform="rotate(28.2804 1087.03 317.325)" fill="#BD7E96"/>
<path d="M1087.75 318.659C1087.33 318.848 1086.92 318.849 1086.83 318.66C1086.75 318.472 1087.2 318.575 1087.62 318.385C1088.04 318.196 1088.26 317.785 1088.35 317.973C1088.43 318.162 1088.16 318.469 1087.75 318.659Z" fill="#D3E8E8"/>
<path d="M1086.22 316.115C1086.6 315.87 1087.01 315.814 1087.12 315.989C1087.23 316.165 1086.76 316.124 1086.38 316.369C1085.99 316.613 1085.82 317.051 1085.71 316.875C1085.6 316.7 1085.83 316.359 1086.22 316.115Z" fill="#D3E8E8"/>
<circle cx="1087.49" cy="316.152" r="0.25045" transform="rotate(28.2804 1087.49 316.152)" fill="#D3E8E8"/>
<circle cx="1089.57" cy="325.817" r="0.472358" fill="#D3E8E8"/>
<circle cx="1111.6" cy="317.93" r="1.28796" transform="rotate(-47.2096 1111.6 317.93)" fill="#BD7E96"/>
<path d="M1112.71 317.658C1112.77 318 1112.69 318.299 1112.54 318.326C1112.39 318.353 1112.55 318.039 1112.49 317.697C1112.43 317.355 1112.17 317.115 1112.32 317.088C1112.48 317.061 1112.65 317.316 1112.71 317.658Z" fill="#D3E8E8"/>
<path d="M1110.56 318.299C1110.45 317.968 1110.49 317.661 1110.64 317.614C1110.79 317.566 1110.67 317.899 1110.77 318.23C1110.88 318.561 1111.17 318.764 1111.02 318.811C1110.87 318.859 1110.66 318.63 1110.56 318.299Z" fill="#D3E8E8"/>
<circle cx="1110.83" cy="317.37" r="0.189406" transform="rotate(-47.2096 1110.83 317.37)" fill="#D3E8E8"/>
<circle cx="1088.8" cy="313.401" r="1.28796" transform="rotate(28.2804 1088.8 313.401)" fill="#BD7E96"/>
<path d="M1089.34 314.409C1089.03 314.553 1088.72 314.553 1088.65 314.411C1088.59 314.268 1088.93 314.346 1089.25 314.203C1089.57 314.059 1089.73 313.748 1089.8 313.891C1089.86 314.034 1089.66 314.266 1089.34 314.409Z" fill="#D3E8E8"/>
<path d="M1088.18 312.486C1088.47 312.301 1088.78 312.258 1088.86 312.391C1088.95 312.524 1088.6 312.493 1088.3 312.678C1088.01 312.863 1087.88 313.193 1087.8 313.061C1087.72 312.928 1087.89 312.671 1088.18 312.486Z" fill="#D3E8E8"/>
<circle cx="1089.15" cy="312.513" r="0.189406" transform="rotate(28.2804 1089.15 312.513)" fill="#D3E8E8"/>
<circle cx="1091.9" cy="314.745" r="0.660421" transform="rotate(28.2804 1091.9 314.745)" fill="#BD7E96"/>
<path d="M1092.17 315.262C1092.01 315.336 1091.85 315.336 1091.82 315.263C1091.78 315.19 1091.96 315.23 1092.12 315.156C1092.29 315.083 1092.37 314.923 1092.4 314.997C1092.44 315.07 1092.33 315.189 1092.17 315.262Z" fill="#D3E8E8"/>
<path d="M1091.58 314.276C1091.73 314.181 1091.89 314.159 1091.93 314.227C1091.97 314.295 1091.79 314.279 1091.64 314.374C1091.49 314.469 1091.43 314.639 1091.39 314.571C1091.34 314.503 1091.43 314.371 1091.58 314.276Z" fill="#D3E8E8"/>
<circle cx="1092.08" cy="314.29" r="0.0975182" transform="rotate(28.2804 1092.08 314.29)" fill="#D3E8E8"/>
<rect x="887.338" y="510" width="46" height="60" fill="#B8DEDC"/>
<path d="M885.374 507.757C884.672 507.152 885.1 506 886.027 506H934.882C935.779 506 936.223 507.089 935.581 507.715L933.533 509.715C933.346 509.898 933.096 510 932.835 510H888.344C888.104 510 887.872 509.914 887.691 509.757L885.374 507.757Z" fill="#CEEAEA"/>
<g filter="url(#filter0_i_2740_4903)">
<path d="M1068.08 575.734C1066 580.142 1062.97 580.754 1061.37 580.615C1059.77 580.476 1059.8 578.69 1060.2 574.112C1060.59 569.534 1063.91 565.065 1065.3 564.601C1068.08 563.904 1068.08 571.327 1068.08 575.734Z" fill="#3C3B43"/>
<path d="M1055.56 576.902L1059.51 570.867L1062.06 568.315L1064.14 566.919L1065.07 566.687L1065.53 570.167L1065.76 573.882L1055.79 580.373L1055.56 576.902Z" fill="#293042"/>
<path d="M1066.45 572.028L1074.1 573.877L1072.43 579.153L1070.6 584.39L1068.58 590.974L1068.06 598.195L1068.61 605.566L1067.37 610.066L1061.56 608.051L1058.59 606.637L1056.27 604.865L1055.54 602.717L1054.78 596.507L1053.9 589.359L1055.6 583.074L1058.41 577.201L1059.59 574.944L1061.83 573.386L1063.95 572.492L1066.45 572.028Z" fill="#343D52"/>
<path d="M1073.23 592.891C1071.61 603.33 1069.99 610.076 1067.84 610.076C1063.48 609.495 1063.43 601.704 1065 591.453C1066.57 581.203 1069.68 573.307 1074.04 573.888C1076.25 575.261 1074.86 582.452 1073.23 592.891Z" fill="#293042"/>
<path d="M1062.27 571.327L1068.31 575.735L1065.99 579.678L1064.36 584.086L1062.51 589.653L1061.58 595.917L1061.35 602.412V606.82L1056.24 604.964L1053 598.7V593.2V586.87L1054.62 581.534L1055.08 576.663L1056.94 572.951L1062.27 571.327Z" fill="#343D52"/>
<path d="M920.54 546.97L928.195 548.362L924.715 553.929L923.091 558.337L921.236 563.904L920.308 570.167L920.076 576.663L923.091 582.694L914.972 579.215L911.724 572.951L911.029 567.152L911.261 561.352L912.188 555.553L913.812 550.913L916.828 547.434L920.54 546.97Z" fill="#343D52"/>
<path d="M1072.71 572.328L1070.14 577.7L1067.38 579.678L1066.42 583.58L1062.62 587.952L1059.25 593.294L1056.33 599.101L1054.48 603.1L1051.23 599.549L1051.31 592.678L1053.62 587.689L1056.28 581.946L1059.81 577.7L1063.69 574.13L1066.97 572.328L1072.71 572.328Z" fill="#343D52"/>
<path d="M932.831 541.402L946.506 548.596L967.848 555.787L997.315 561.122L1040.23 567.386L1054.15 567.386L1065.28 564.602L1056.7 575.505L1054.15 587.104L1054.15 598.471L1058.79 607.518L1043.94 601.952L1028.63 598.471L959.036 588.73L943.261 588.73L929.111 591.281L922.151 582.93L917.976 573.651L918.452 559.503L924.007 550.222L932.831 541.402Z" fill="#6D6C74"/>
<g filter="url(#filter1_i_2740_4903)">
<path d="M1017.81 580.272L1011.02 572.317L1000.62 573.03L998.424 582.24L996.655 587.854L996.395 577.193L997.178 571.32L997.961 567.404L998.745 565.446L1011.66 569.561L1014.32 573.565L1017.81 580.272Z" fill="#5F5E63"/>
</g>
<g filter="url(#filter2_d_2740_4903)">
<path d="M994.854 560.636L1000.27 561.592L998.041 567.329L997.085 572.11L996.448 577.528L996.568 583.815L997.404 589.958L999.635 594.42L992.942 593.464L991.15 586.597L990.711 580.802L990.857 575.007L991.443 569.212L992.468 564.576L994.372 561.099L994.854 560.636Z" fill="#343D52"/>
</g>
<path d="M1064.26 584.445L1068.38 581.379L1069.39 584.429L1064.26 584.445Z" fill="#293042"/>
<path d="M1066.38 578.169L1071.35 576.908L1071.13 580.114L1066.38 578.169Z" fill="#293042"/>
<path d="M1053.49 577.418L1057.75 574.556L1058.62 577.651L1053.49 577.418Z" fill="#343D52"/>
<path d="M1059.08 570.505L1063.32 567.608L1064.21 570.696L1059.08 570.505Z" fill="#293042"/>
<path d="M1052.57 588.089L1056.83 585.227L1057.69 588.322L1052.57 588.089Z" fill="#343D52"/>
<path d="M1050.72 599.688L1054.97 596.825L1055.84 599.92L1050.72 599.688Z" fill="#343D52"/>
<path d="M1061.1 593.181L1065.75 591.017L1066.13 594.21L1061.1 593.181Z" fill="#293042"/>
<path d="M1061.64 602.259L1066.2 599.9L1066.71 603.073L1061.64 602.259Z" fill="#293042"/>
<path d="M1062.83 606.565L1067.1 603.73L1067.95 606.831L1062.83 606.565Z" fill="#293042"/>
<path d="M996.684 551.062C996.684 557.118 997.718 561.529 995.576 561.529C993.433 561.529 991.697 556.62 991.697 550.564C991.697 544.509 993.433 539.6 995.576 539.6C998.347 541.593 996.684 545.007 996.684 551.062Z" fill="#343D52"/>
<path d="M995.301 551.869C995.301 557.06 995.996 560.745 995.301 560.745C994.607 560.745 994.043 556.538 994.043 551.347C994.043 546.157 994.607 541.949 995.301 541.949C995.996 541.949 995.301 546.679 995.301 551.869Z" fill="#505370"/>
<path d="M997.826 551.38C996.751 557.562 995.019 561.899 996.986 562.241C998.953 562.583 1001.42 557.849 1002.49 551.668C1003.57 545.486 1002.85 540.197 1000.88 539.855C997.981 541.448 998.901 545.198 997.826 551.38Z" fill="#343D52"/>
<path d="M999.073 552.467C998.193 557.525 996.688 560.963 997.569 561.116C998.449 561.269 999.482 557.343 1000.36 552.285C1001.24 547.227 1001.63 542.954 1000.75 542.801C999.873 542.648 999.952 547.409 999.073 552.467Z" fill="#505370"/>
<g filter="url(#filter3_i_2740_4903)">
<path d="M924.014 550.196L932.169 557.614L951.363 559.18L955.272 568.187L971.368 587.746L940.392 566.256L918.14 566.256L918.475 559.574L924.014 550.196Z" fill="#5F5E63"/>
</g>
<g filter="url(#filter4_i_2740_4903)">
<path d="M1054.35 586.199L1050.83 584.747L1044.25 586.24L1041.99 583.638L1034.56 578.788L1047.17 582.721L1055.92 579.542L1055.2 582.653L1054.35 586.199Z" fill="#5F5E63"/>
</g>
</g>
<path d="M807.851 241.621L808.873 237.722L811.765 236.8L825.389 244.704L828.815 251.64L832.359 262.296L833.907 279.573L837.448 294.668L834.525 323.627L824.951 325.133L816.374 304.756L815.616 308.846L807.599 277.168L806.696 263.995L807.851 241.621Z" fill="#84BCB9"/>
<path d="M808.441 239.426L819.579 249.355L821.773 270.735L821.832 288.947L824.162 303.765L827.029 322.003L815.616 308.846L807.6 277.168L807.016 270.485L806.504 264.258L807.851 241.621L808.441 239.426Z" fill="#B6F7F3"/>
<path d="M825.76 331.779L836.246 330.131L838.094 347.828L841.049 360.679L843.056 373.445L843.993 385.351L844.601 395.161L849.507 414.48L850.824 436.232L852.645 456.736L854.122 473.557L859.706 501.646L866.155 526.329L867.983 537.955L871.319 554.718L873 569.871L868.607 573.131L862.908 574.027L859.778 571.95L858.309 562.603L855.298 543.453L853.832 529.668L849.632 495.521L846.127 480.654L845.511 469.304L843.881 448.536L843.659 439.694L839.932 415.985L836.921 396.835L833.962 386.928L830.973 375.344L829.422 362.506L828.975 349.261L825.76 331.779Z" fill="#1E1B16"/>
<path d="M830.915 266.495L831.602 278.3L834.065 290.995L836.101 296.515L837.412 294.44L837.975 311.404L836.283 330.359L826.814 320.635L830.966 314.375L833.646 307.646L833.892 301.768L833.198 298.84L832.277 295.948L830.071 292.323L828.635 287.644L828.517 283.924L827.211 281.56L825.101 280.023L824.251 277.587L823.581 271.852L825.247 276.496L827.729 278.909L829.833 272.972L830.915 266.495Z" fill="#1E1B16"/>
<path d="M814.666 271.618L816.428 278.349L817.344 285.68L818.722 292.939L817.941 295.398L819.312 302.658L823.126 309.067L823.492 314.382L827.269 320.563L836.285 330.358L825.815 332.87L818.929 319.537L815.724 309.529L815.473 303.495L815.586 295.301L815.582 283.388L814.666 271.618Z" fill="#1E1B16"/>
<path d="M825.76 331.779L836.246 330.131L838.094 347.828L841.049 360.679L843.056 373.445L843.993 385.351L844.601 395.161L849.507 414.48L850.824 436.232L852.645 456.736L854.122 473.557L859.706 501.646L866.155 526.329L867.983 537.955L871.319 554.718L873 569.871L868.607 573.131L862.908 574.027L859.778 571.95L858.309 562.603L855.298 543.453L853.832 529.668L849.632 495.521L846.127 480.654L845.511 469.304L843.881 448.536L843.659 439.694L839.932 415.985L836.921 396.835L833.962 386.928L830.973 375.344L829.422 362.506L828.975 349.261L825.76 331.779Z" fill="#141414"/>
<path d="M830.915 266.495L831.602 278.3L834.065 290.995L836.101 296.515L837.412 294.44L837.975 311.404L836.283 330.359L826.814 320.635L830.966 314.375L833.646 307.646L833.892 301.768L833.198 298.84L832.277 295.948L830.071 292.323L828.635 287.644L828.517 283.924L827.211 281.56L825.101 280.023L824.251 277.587L823.581 271.852L825.247 276.496L827.729 278.909L829.833 272.972L830.915 266.495Z" fill="#141414"/>
<path d="M814.666 271.618L816.428 278.349L817.344 285.68L818.722 292.939L817.941 295.398L819.312 302.658L823.126 309.067L823.492 314.382L827.269 320.563L836.285 330.358L825.815 332.87L818.929 319.537L815.724 309.529L815.473 303.495L815.586 295.301L815.582 283.388L814.666 271.618Z" fill="#141414"/>
<path d="M1441.28 255.355L1436.85 256.373L1433.67 259.712L1432.64 255.111L1429.37 251.762L1433.82 250.775L1437.03 247.426L1438.02 252.037L1441.28 255.355Z" fill="#B7D6D6"/>
<path d="M1338.55 240.337L1336.24 244.375L1336.42 249.08L1332.49 246.653L1327.92 246.777L1330.25 242.753L1330.09 238.019L1334 240.476L1338.55 240.337Z" fill="#B7D6D6"/>
<path d="M294.68 393.722L287.159 406.89L287.748 422.228L274.939 414.315L260.019 414.721L267.635 401.602L267.091 386.165L279.855 394.176L294.68 393.722Z" fill="#B7D6D6"/>
<path d="M1097.17 210.902L1094.86 214.941L1095.04 219.645L1091.12 217.218L1086.54 217.343L1088.88 213.319L1088.71 208.584L1092.62 211.041L1097.17 210.902Z" fill="#B7D6D6"/>
<path d="M757.171 375.902L754.864 379.941L755.045 384.645L751.116 382.218L746.539 382.343L748.876 378.319L748.709 373.584L752.623 376.041L757.171 375.902Z" fill="#B7D6D6"/>
<path d="M445.171 446.902L442.864 450.941L443.045 455.645L439.116 453.218L434.539 453.343L436.876 449.319L436.709 444.584L440.623 447.041L445.171 446.902Z" fill="#B7D6D6"/>
<path d="M1494.45 405.113L1489.8 405.266L1485.89 407.887L1485.89 403.269L1483.39 399.438L1488.04 399.317L1491.98 396.692L1491.94 401.314L1494.45 405.113Z" fill="#B7D6D6"/>
<path d="M1249.91 342.5L1254.44 343.766L1258.95 342.47L1257.64 346.843L1258.98 351.233L1254.46 349.936L1249.91 351.226L1251.25 346.859L1249.91 342.5Z" fill="#B7D6D6"/>
<path d="M1143.73 409.704L1148.26 410.969L1152.78 409.673L1151.47 414.046L1152.8 418.436L1148.28 417.139L1143.73 418.429L1145.08 414.062L1143.73 409.704Z" fill="#B7D6D6"/>
<path d="M622.741 496.401L691.513 493.494L742.866 529.005L713.189 575.497L738.683 603.908L675.336 635.274L645.562 617.76L599.116 610.404L521.279 588.949L521.331 548.114L622.741 496.401Z" fill="#222B2B"/>
<path d="M621.285 477.172L690.057 474.264L741.41 509.775L711.733 556.268L717.424 602.353L673.88 616.045L644.106 598.531L597.66 591.174L519.823 569.72L519.874 528.885L621.285 477.172Z" fill="#455353"/>
<path d="M-127.944 565.452L-76.807 531.643L-6.41129 535.777L10.1915 585.64L54.3548 596.099L31.7751 649.609L-6.4113 649.609L-48.9144 665.176L-127.944 684.148L-162.809 652.285L-127.944 565.452Z" fill="#222B2B"/>
<path d="M-127.943 543.56L-76.8065 509.751L-6.41082 513.886L10.1919 563.748L54.0232 597.071L31.7755 627.717L-6.41083 627.717L-48.9139 643.284L-127.943 662.256L-162.809 630.393L-127.943 543.56Z" fill="#434A4A"/>
<path d="M358.21 587.338L389.968 542.561L457.891 528.396L497.258 570.853L543.626 569.334L548.029 625.249L512.256 635.034L479.873 660.509L414.898 698.534L367.018 677.618L358.21 587.338Z" fill="#222B2B"/>
<path d="M354.713 565.195L386.471 520.419L454.393 506.253L493.761 548.71L550.737 568.695L544.532 603.107L508.758 612.892L476.375 638.367L411.401 676.391L363.521 655.476L354.713 565.195Z" fill="#434A4A"/>
<path d="M154.542 650.706L121.076 606.602L142.416 557.29L212.477 556.66L236.326 527.493L302.425 555.649L293.833 582.903L304.976 616.741L312.43 677.414L262.201 695.129L154.542 650.706Z" fill="#222B2B"/>
<path d="M128.067 640.631L94.6004 596.527L115.94 547.214L186.002 546.584L240.189 522.799L275.949 545.573L267.357 572.827L278.5 606.665L285.954 667.338L237.691 684.96L128.067 640.631Z" fill="#304343"/>
<path d="M922.442 642.006L877.717 612.457L816.148 616.071L801.626 659.651L763 668.792L782.749 715.56L816.148 715.56L853.321 729.165L922.442 745.747L952.936 717.899L922.442 642.006Z" fill="#222B2B"/>
<path d="M922.395 622.657L877.602 593L815.938 596.627L801.395 640.366L763.001 669.596L782.489 696.479L815.938 696.479L853.169 710.134L922.395 726.776L952.936 698.826L922.395 622.657Z" fill="#435353"/>
<path d="M762.401 647.981L784.346 619.06L770.353 586.724L724.411 586.311L708.772 567.185L665.429 585.648L671.063 603.52L663.756 625.709L658.868 665.494L691.805 677.111L762.401 647.981Z" fill="#222B2B"/>
<path d="M779.762 641.374L801.707 612.453L787.714 580.117L741.772 579.704L706.239 564.107L682.79 579.041L688.424 596.912L681.117 619.101L676.229 658.887L709.166 670.503L779.762 641.374Z" fill="#395151"/>
<path d="M1640.63 563.594L1685.36 534.045L1746.93 537.659L1761.45 581.239L1800.08 590.38L1780.33 637.148L1746.93 637.148L1709.75 650.753L1640.63 667.335L1610.14 639.486L1640.63 563.594Z" fill="#222B2B"/>
<path d="M1640.68 544.245L1685.47 514.588L1747.14 518.215L1761.68 561.954L1800.08 591.184L1780.59 618.067L1747.14 618.067L1709.91 631.722L1640.68 648.364L1610.14 620.414L1640.68 544.245Z" fill="#435353"/>
<path d="M1817.96 645.621L1796.02 616.7L1810.01 584.364L1855.95 583.951L1871.59 564.825L1914.94 583.288L1909.3 601.159L1916.61 623.348L1921.5 663.134L1888.56 674.75L1817.96 645.621Z" fill="#222B2B"/>
<path d="M1800.6 639.014L1778.66 610.093L1792.65 577.757L1838.59 577.343L1874.13 561.746L1897.57 576.68L1891.94 594.552L1899.25 616.741L1904.14 656.527L1871.2 668.143L1800.6 639.014Z" fill="#395151"/>
<path d="M697.649 629.64L729.181 636.962L729.181 664.219L656.499 752.933L483.491 768.436L328.491 731.433L217.566 744.433L93.9909 724.933L65.9909 681.933L61.9909 647.433L217.566 622.335L187.932 612.093L433.009 587.884L532.2 595.934L697.649 629.64Z" fill="#608987"/>
<path d="M729.708 636.422L641.054 708.309L485.492 728.436L329.492 700.695L219.5 711.934L101.5 690.936L62.1432 647.552L191.251 612.105L432.492 578.936L494.129 590.998L542.275 594.163L713.621 629.57L729.708 636.422Z" fill="#D3ECEB"/>
<path d="M330.341 592.963L280.336 599.962L409.843 714.962L483.341 727.963L330.341 592.963Z" fill="#E6FFFD"/>
<path d="M286.835 598.962L235.836 605.962L344.84 703.53L423.835 717.463L286.835 598.962Z" fill="#E6FFFD"/>
<path d="M253.932 645.984H270.182V653.384H253.932V645.984ZM254.632 659.784H272.932V667.434H244.832V632.434H272.282V640.084H254.632V659.784ZM278.426 667.434V632.434H294.976C298.842 632.434 302.242 633.15 305.176 634.584C308.109 636.017 310.392 638.034 312.026 640.634C313.692 643.234 314.526 646.334 314.526 649.934C314.526 653.5 313.692 656.6 312.026 659.234C310.392 661.834 308.109 663.85 305.176 665.284C302.242 666.717 298.842 667.434 294.976 667.434H278.426ZM288.326 659.534H294.576C296.576 659.534 298.309 659.167 299.776 658.434C301.276 657.667 302.442 656.567 303.276 655.134C304.109 653.667 304.526 651.934 304.526 649.934C304.526 647.9 304.109 646.167 303.276 644.734C302.442 643.3 301.276 642.217 299.776 641.484C298.309 640.717 296.576 640.334 294.576 640.334H288.326V659.534ZM335.884 668.134C330.718 668.134 326.684 666.717 323.784 663.884C320.884 661.05 319.434 657.034 319.434 651.834V632.434H329.334V651.534C329.334 654.534 329.918 656.684 331.084 657.984C332.284 659.284 333.918 659.934 335.984 659.934C338.051 659.934 339.668 659.284 340.834 657.984C342.001 656.684 342.584 654.534 342.584 651.534V632.434H352.334V651.834C352.334 657.034 350.884 661.05 347.984 663.884C345.084 666.717 341.051 668.134 335.884 668.134ZM376.491 668.134C373.724 668.134 371.158 667.7 368.791 666.834C366.458 665.934 364.424 664.667 362.691 663.034C360.991 661.4 359.658 659.484 358.691 657.284C357.724 655.05 357.241 652.6 357.241 649.934C357.241 647.267 357.724 644.834 358.691 642.634C359.658 640.4 360.991 638.467 362.691 636.834C364.424 635.2 366.458 633.95 368.791 633.084C371.158 632.184 373.724 631.734 376.491 631.734C379.724 631.734 382.608 632.3 385.141 633.434C387.708 634.567 389.841 636.2 391.541 638.334L385.241 644.034C384.108 642.7 382.858 641.684 381.491 640.984C380.158 640.284 378.658 639.934 376.991 639.934C375.558 639.934 374.241 640.167 373.041 640.634C371.841 641.1 370.808 641.784 369.941 642.684C369.108 643.55 368.441 644.6 367.941 645.834C367.474 647.067 367.241 648.434 367.241 649.934C367.241 651.434 367.474 652.8 367.941 654.034C368.441 655.267 369.108 656.334 369.941 657.234C370.808 658.1 371.841 658.767 373.041 659.234C374.241 659.7 375.558 659.934 376.991 659.934C378.658 659.934 380.158 659.584 381.491 658.884C382.858 658.184 384.108 657.167 385.241 655.834L391.541 661.534C389.841 663.634 387.708 665.267 385.141 666.434C382.608 667.567 379.724 668.134 376.491 668.134ZM391.169 667.434L406.619 632.434H416.369L431.869 667.434H421.569L409.469 637.284H413.369L401.269 667.434H391.169ZM399.619 660.634L402.169 653.334H419.269L421.819 660.634H399.619ZM440.368 667.434V640.284H429.618V632.434H460.968V640.284H450.268V667.434H440.368ZM464.656 667.434V632.434H474.556V667.434H464.656ZM499.25 668.134C496.45 668.134 493.866 667.684 491.5 666.784C489.133 665.884 487.066 664.617 485.3 662.984C483.566 661.317 482.216 659.384 481.25 657.184C480.283 654.984 479.8 652.567 479.8 649.934C479.8 647.3 480.283 644.884 481.25 642.684C482.216 640.484 483.566 638.567 485.3 636.934C487.066 635.267 489.133 633.984 491.5 633.084C493.866 632.184 496.45 631.734 499.25 631.734C502.083 631.734 504.666 632.184 507 633.084C509.366 633.984 511.416 635.267 513.15 636.934C514.883 638.567 516.233 640.484 517.2 642.684C518.2 644.884 518.7 647.3 518.7 649.934C518.7 652.567 518.2 655 517.2 657.234C516.233 659.434 514.883 661.35 513.15 662.984C511.416 664.617 509.366 665.884 507 666.784C504.666 667.684 502.083 668.134 499.25 668.134ZM499.25 659.934C500.583 659.934 501.816 659.7 502.95 659.234C504.116 658.767 505.116 658.1 505.95 657.234C506.816 656.334 507.483 655.267 507.95 654.034C508.45 652.8 508.7 651.434 508.7 649.934C508.7 648.4 508.45 647.034 507.95 645.834C507.483 644.6 506.816 643.55 505.95 642.684C505.116 641.784 504.116 641.1 502.95 640.634C501.816 640.167 500.583 639.934 499.25 639.934C497.916 639.934 496.666 640.167 495.5 640.634C494.366 641.1 493.366 641.784 492.5 642.684C491.666 643.55 491 644.6 490.5 645.834C490.033 647.034 489.8 648.4 489.8 649.934C489.8 651.434 490.033 652.8 490.5 654.034C491 655.267 491.666 656.334 492.5 657.234C493.366 658.1 494.366 658.767 495.5 659.234C496.666 659.7 497.916 659.934 499.25 659.934ZM523.885 667.434V632.434H532.035L551.335 655.734H547.485V632.434H557.185V667.434H549.035L529.735 644.134H533.585V667.434H523.885Z" fill="#0D3F41"/>
<defs>
<filter id="filter0_i_2740_4903" x="911.029" y="539.6" width="164.157" height="74.4766" filterUnits="userSpaceOnUse" color-interpolation-filters="sRGB">
<feFlood flood-opacity="0" result="BackgroundImageFix"/>
<feBlend mode="normal" in="SourceGraphic" in2="BackgroundImageFix" result="shape"/>
<feColorMatrix in="SourceAlpha" type="matrix" values="0 0 0 0 0 0 0 0 0 0 0 0 0 0 0 0 0 0 127 0" result="hardAlpha"/>
<feOffset dy="4"/>
<feGaussianBlur stdDeviation="2"/>
<feComposite in2="hardAlpha" operator="arithmetic" k2="-1" k3="1"/>
<feColorMatrix type="matrix" values="0 0 0 0 0 0 0 0 0 0 0 0 0 0 0 0 0 0 0.25 0"/>
<feBlend mode="normal" in2="shape" result="effect1_innerShadow_2740_4903"/>
</filter>
<filter id="filter1_i_2740_4903" x="996.395" y="565.445" width="21.4119" height="26.4082" filterUnits="userSpaceOnUse" color-interpolation-filters="sRGB">
<feFlood flood-opacity="0" result="BackgroundImageFix"/>
<feBlend mode="normal" in="SourceGraphic" in2="BackgroundImageFix" result="shape"/>
<feColorMatrix in="SourceAlpha" type="matrix" values="0 0 0 0 0 0 0 0 0 0 0 0 0 0 0 0 0 0 127 0" result="hardAlpha"/>
<feOffset dy="4"/>
<feGaussianBlur stdDeviation="2"/>
<feComposite in2="hardAlpha" operator="arithmetic" k2="-1" k3="1"/>
<feColorMatrix type="matrix" values="0 0 0 0 0 0 0 0 0 0 0 0 0 0 0 0 0 0 0.25 0"/>
<feBlend mode="normal" in2="shape" result="effect1_innerShadow_2740_4903"/>
</filter>
<filter id="filter2_d_2740_4903" x="986.711" y="560.636" width="17.5615" height="41.7842" filterUnits="userSpaceOnUse" color-interpolation-filters="sRGB">
<feFlood flood-opacity="0" result="BackgroundImageFix"/>
<feColorMatrix in="SourceAlpha" type="matrix" values="0 0 0 0 0 0 0 0 0 0 0 0 0 0 0 0 0 0 127 0" result="hardAlpha"/>
<feOffset dy="4"/>
<feGaussianBlur stdDeviation="2"/>
<feComposite in2="hardAlpha" operator="out"/>
<feColorMatrix type="matrix" values="0 0 0 0 0 0 0 0 0 0 0 0 0 0 0 0 0 0 0.25 0"/>
<feBlend mode="normal" in2="BackgroundImageFix" result="effect1_dropShadow_2740_4903"/>
<feBlend mode="normal" in="SourceGraphic" in2="effect1_dropShadow_2740_4903" result="shape"/>
</filter>
<filter id="filter3_i_2740_4903" x="918.14" y="550.196" width="53.2275" height="41.5498" filterUnits="userSpaceOnUse" color-interpolation-filters="sRGB">
<feFlood flood-opacity="0" result="BackgroundImageFix"/>
<feBlend mode="normal" in="SourceGraphic" in2="BackgroundImageFix" result="shape"/>
<feColorMatrix in="SourceAlpha" type="matrix" values="0 0 0 0 0 0 0 0 0 0 0 0 0 0 0 0 0 0 127 0" result="hardAlpha"/>
<feOffset dy="4"/>
<feGaussianBlur stdDeviation="2"/>
<feComposite in2="hardAlpha" operator="arithmetic" k2="-1" k3="1"/>
<feColorMatrix type="matrix" values="0 0 0 0 0 0 0 0 0 0 0 0 0 0 0 0 0 0 0.25 0"/>
<feBlend mode="normal" in2="shape" result="effect1_innerShadow_2740_4903"/>
</filter>
<filter id="filter4_i_2740_4903" x="1034.56" y="578.788" width="21.3596" height="11.4512" filterUnits="userSpaceOnUse" color-interpolation-filters="sRGB">
<feFlood flood-opacity="0" result="BackgroundImageFix"/>
<feBlend mode="normal" in="SourceGraphic" in2="BackgroundImageFix" result="shape"/>
<feColorMatrix in="SourceAlpha" type="matrix" values="0 0 0 0 0 0 0 0 0 0 0 0 0 0 0 0 0 0 127 0" result="hardAlpha"/>
<feOffset dy="4"/>
<feGaussianBlur stdDeviation="2"/>
<feComposite in2="hardAlpha" operator="arithmetic" k2="-1" k3="1"/>
<feColorMatrix type="matrix" values="0 0 0 0 0 0 0 0 0 0 0 0 0 0 0 0 0 0 0.25 0"/>
<feBlend mode="normal" in2="shape" result="effect1_innerShadow_2740_4903"/>
</filter>
</defs>
</svg>
