<svg width="1512" height="2452" viewBox="0 0 1512 2452" fill="none" xmlns="http://www.w3.org/2000/svg">
<path d="M-120.749 -32.8156L-141.064 -136.135L196.899 -90.8268L1110.5 -111L1635.9 -145L1519.03 82.7925L1635.9 405.998L1573.57 527.407L1519.03 757.794L1573.57 895.778L1519.03 1059.87L1617 1207.5L1289 1227L860.5 1364.5L203.5 1237L-120.749 1078.93V881.69V162.765L-255 115.113V82.7925L-120.749 -32.8156Z" fill="#2F3939"/>
<path d="M-120.551 55.821H89.0649L186.345 3.11035L687.802 48.2909H1303.33L1463.73 160.866L1576.64 454.54L1516.42 564.856L1463.73 774.192L1516.42 899.569L1463.73 1048.66L1091.4 1065.98L796.084 1204.16L503.5 1125L218.5 1147L-120.551 1065.98V886.767V233.531L-250.258 190.233V160.866L-120.551 55.821Z" fill="#0F1A1A"/>
<path d="M97.7001 217.968H267.77L346.698 178.48L753.551 212.327H1252.96L1383.09 296.661L1474.71 516.662L1425.85 599.303L1383.09 756.124L1425.85 850.048L1383.09 961.741L1081.01 974.715L841.405 1078.23L451.465 1015.89L97.7001 974.715L41 850.048L-71.6797 671.023L-7.53677 296.661L97.7001 217.968Z" fill="#172525"/>
<path d="M936.15 379.564L965.325 273.594L1056.69 204.404H787.242L811.222 242.092L891.402 302.762L936.15 379.564Z" fill="#0F1A1A"/>
<path d="M57.9368 245.369L-2.59192 192.808V116.578L-130.149 49.1063L93.239 36.6512L184.677 -7.13052H239.656L212.545 85.8589L100.608 145.022L57.9368 245.369Z" fill="#2F3939"/>
<path d="M762.102 153.551H826.925L866.78 115.485L1056.7 42.7807L724.096 29.3597L605.152 12.9985L479.078 15.2533L557.314 51.5996L762.102 153.551Z" fill="#2F3939"/>
<path d="M340.652 71.9736H302.432L278.933 49.3064L166.955 6.01257L363.06 -1.97935L433.19 -11.7221L507.523 -10.3794L461.395 11.264L340.652 71.9736Z" fill="#2F3939"/>
<path d="M682.026 248.899H643.628L620.021 226.232L507.523 182.938L704.538 174.946L774.994 165.204L849.672 166.546L803.33 188.19L682.026 248.899Z" fill="#0F1A1A"/>
<path d="M1225.61 187.805L1248.05 148.344V91.113L1295.34 40.4573L1212.53 31.1064L1182.91 19.707L1151.52 21.278L1168.3 68.0499L1209.79 112.468L1225.61 187.805Z" fill="#2F3939"/>
<path d="M1118.13 134.128L1140.32 110.833V77.0473L1187.08 47.1434L1105.18 41.6233L1075.9 34.8938L1044.85 35.8212L1061.44 63.4324L1102.48 89.6538L1118.13 134.128Z" fill="#2F3939"/>
<path d="M447.079 362.259L412.622 308.54V230.63L340.009 161.672H554.148L535.091 199.234L471.37 259.701L447.079 362.259Z" fill="#0F1A1A"/>
<path d="M1116.76 323.062L1097.43 292.986V249.368L1056.7 210.761H1176.81L1166.12 231.791L1130.38 265.644L1116.76 323.062Z" fill="#0F1A1A"/>
<path d="M97.5 975L79.5 935L62 895.5L411 869H725H1183.5L1381.5 961L1079.5 974L841 1078L376.5 1011L97.5 975Z" fill="#050F0F" fill-opacity="0.8"/>
<path d="M1292.79 1496.72L1385.46 1543.32L1415.92 1645.2L1329.44 1705.63L1333.48 1775.4L1218.64 1783.55L1197.81 1729.95L1144.8 1681.88L1065.35 1585.09L1107.39 1512.43L1292.79 1496.72Z" fill="#405A5A"/>
<path d="M1310.65 1461.39L1403.32 1507.99L1433.79 1609.87L1347.3 1670.3L1307.36 1756.63L1236.5 1748.22L1215.68 1694.62L1162.67 1646.56L1083.22 1549.76L1125.26 1477.1L1310.65 1461.39Z" fill="#6EA2A2"/>
<path d="M224.792 1774.7L128.699 1735.65L90.196 1636.52L171.584 1569.39L190.477 1516.74L275.812 1482.87L300.849 1534.64L357.523 1578.32L421.639 1618.16L442.718 1667.34L408.342 1744.24L224.792 1774.7Z" fill="#415E5C"/>
<path d="M202.339 1722.32L106.246 1683.26L67.7429 1584.14L149.131 1517L210.351 1490.75L278.396 1482.25L335.07 1525.93L421.994 1616.07L385.889 1691.86L202.339 1722.32Z" fill="#77AAAA"/>
<path d="M-60.6367 1683.47L-17.2492 1589.25L83.5252 1555.3L146.889 1639.66L216.481 1633.22L228.572 1747.71L175.723 1770.37L129.509 1825L35.5016 1907.73L-38.5591 1868.21L-60.6367 1683.47Z" fill="#334949"/>
<path d="M-78.3711 1642.11L-34.9835 1547.89L65.7908 1513.94L129.154 1598.3L216.805 1635.25L210.838 1706.36L157.989 1729.01L111.775 1783.64L17.7673 1866.37L-56.2934 1826.86L-78.3711 1642.11Z" fill="#4E7D7D"/>
<path d="M908.7 1458.33L996.137 1402.52L1099.27 1428.44L1106.97 1533.67L1168.99 1565.87L1117.27 1668.73L1060.56 1659.22L992.145 1680.19L868.333 1698.97L827.393 1625.68L908.7 1458.33Z" fill="#405A5A"/>
<path d="M926.896 1416.28L1014.33 1360.47L1117.47 1386.39L1125.16 1491.62L1178.92 1570.09L1135.46 1626.68L1078.75 1617.17L1010.34 1638.14L886.528 1656.92L845.588 1583.63L926.896 1416.28Z" fill="#538181"/>
<path d="M399.361 1676.96L317.323 1613.48L306.916 1507.65L403.368 1464.89L412.751 1395.64L527.034 1409.62L537.217 1466.21L580.046 1523.53L639.504 1633.74L584.338 1697.01L399.361 1676.96Z" fill="#415E5C"/>
<path d="M354.557 1673.62L272.518 1610.15L262.111 1504.32L358.563 1461.56L414.292 1384.47L482.229 1406.29L492.412 1462.88L535.241 1520.2L594.7 1630.41L539.533 1693.68L354.557 1673.62Z" fill="#598888"/>
<path d="M1333.68 1869.39L1281.88 1779.52L1312.43 1677.66L1417.9 1674.72L1498.72 1624.57L1553.29 1670.54L1541.22 1726.76L1559.08 1796.05L1585.17 1866.89L1571.58 1918.63L1497.19 1958.17L1333.68 1869.39Z" fill="#426363"/>
<path d="M1348.16 1814.26L1296.37 1724.39L1326.92 1622.53L1432.38 1619.6L1513.2 1569.44L1567.77 1615.41L1555.71 1671.63L1573.57 1740.92L1586.73 1865.45L1511.68 1903.04L1348.16 1814.26Z" fill="#4E7979"/>
<path d="M-154.898 1633.39L1367.31 1348.11L2099.81 1719.09L2136.28 1812.41L1877.1 1808.61L1712.47 1760.03L1579.25 1851.76L1455.89 1820.77L1313.6 1661.52L1134.1 1673.86L899.997 1612.98L712.159 1697.68L504.5 1633.39L83.5776 1733.17L-65.168 1843.36L-122.801 1804.66L-154.898 1633.39Z" fill="#232A2A"/>
<path d="M-161.711 1597.02L1360.5 1311.75L2093 1682.73L2129.47 1776.05L1870.28 1772.24L1705.66 1723.66L1572.44 1815.4L1449.08 1784.41L1306.79 1625.15L1127.29 1637.5L893.185 1576.61L705.347 1661.31L502.5 1597.02L76.7651 1696.8L-71.9805 1806.99L-129.614 1768.29L-161.711 1597.02Z" fill="#343F3F"/>
<path d="M-171.291 1545.91L-142.329 1431.62L1404.92 1294.77L2119.89 1724.94L1860.7 1721.13L1696.08 1672.55L1562.86 1764.29L1439.5 1733.3L1297.21 1574.04L1117.71 1586.39L883.605 1525.5L695.767 1610.2L501.5 1549.5L67.1854 1645.69L-81.5602 1755.88L-139.193 1717.18L-171.291 1545.91Z" fill="#7D9090"/>
<path d="M1179.2 1133.75L1282.75 1127.77L1360.08 1200.77L1315.39 1296.34L1353.78 1354.75L1258.4 1419.23L1213.56 1383.22L1143.62 1368.1L1026.42 1324L1026.5 1240.05L1179.2 1133.75Z" fill="#222B2B"/>
<path d="M1177.01 1094.22L1280.57 1088.24L1357.89 1161.24L1313.21 1256.82L1321.78 1351.55L1256.21 1379.7L1211.38 1343.69L1141.44 1328.57L1024.23 1284.47L1024.31 1200.53L1177.01 1094.22Z" fill="#455353"/>
<path d="M1108.93 1297.29L1194.53 1292.35L1258.45 1352.69L1221.51 1431.7L1253.24 1479.97L1174.39 1533.27L1137.33 1503.51L1079.52 1491.01L982.636 1454.56L982.701 1385.17L1108.93 1297.29Z" fill="#222B2B"/>
<path d="M1107.12 1264.62L1192.72 1259.68L1256.64 1320.02L1219.7 1399.02L1226.78 1477.33L1172.58 1500.6L1135.52 1470.84L1077.71 1458.34L980.824 1421.88L980.888 1352.49L1107.12 1264.62Z" fill="#607070"/>
<path d="M164.328 1446.65L91.3967 1372.89L95.0647 1266.61L196.321 1236.97L234.43 1196.03L326.206 1198.52L328.822 1255.96L363.701 1318.44L406.93 1380.33L406.93 1433.83L345.032 1490.97L164.328 1446.65Z" fill="#273131"/>
<path d="M164.328 1389.65L91.3967 1315.89L95.0647 1209.61L196.321 1179.97L262.93 1179.97L328.822 1198.96L363.701 1261.44L408.076 1378.54L345.032 1433.97L164.328 1389.65Z" fill="#607070"/>
<path d="M-62.0625 1250.33L14.9375 1180.83L120.938 1189.33L145.938 1291.83L212.438 1313.33L178.438 1423.33H120.938L56.9375 1455.33L-62.0625 1494.33L-114.562 1428.83L-62.0625 1250.33Z" fill="#222B2B"/>
<path d="M-62.0625 1205.33L14.9375 1135.83L120.938 1144.33L145.938 1246.83L211.938 1315.33L178.438 1378.33H120.938L56.9375 1410.33L-62.0625 1449.33L-114.562 1383.83L-62.0625 1205.33Z" fill="#434A4A"/>
<path d="M827.371 1292.55L875.192 1200.51L977.468 1171.39L1036.75 1258.66L1106.57 1255.54L1113.2 1370.48L1059.33 1390.6L1010.57 1442.97L912.731 1521.13L840.634 1478.14L827.371 1292.55Z" fill="#222B2B"/>
<path d="M822.105 1247.04L869.926 1154.99L972.202 1125.87L1031.48 1213.15L1117.27 1254.23L1107.93 1324.97L1054.06 1345.09L1005.3 1397.45L907.465 1475.62L835.368 1432.62L822.105 1247.04Z" fill="#434A4A"/>
<path d="M363.296 1425.59L312.904 1334.93L345.036 1233.56L450.533 1232.26L486.445 1172.3L585.974 1230.18L573.036 1286.21L589.815 1355.77L601.039 1480.49L525.406 1516.91L363.296 1425.59Z" fill="#222B2B"/>
<path d="M323.433 1404.87L273.04 1314.21L305.173 1212.84L410.67 1211.54L492.264 1162.65L546.11 1209.47L533.173 1265.49L549.952 1335.05L561.176 1459.78L488.502 1496L323.433 1404.87Z" fill="#304343"/>
<path d="M11.192 1381.87L61.6841 1336.3L131.193 1341.87L147.586 1409.08L191.193 1423.18L168.898 1495.31H131.193L89.2252 1516.3L11.192 1541.87L-23.2344 1498.92L11.192 1381.87Z" fill="#222B2B"/>
<path d="M11.192 1352.36L61.6841 1306.79L131.193 1312.36L147.586 1379.58L190.865 1424.49L168.898 1465.81H131.193L89.2252 1486.79L11.192 1512.36L-23.2344 1469.41L11.192 1352.36Z" fill="#546C6C"/>
<path d="M1538.08 1345.93L1470.74 1285.19L1378.03 1292.62L1356.16 1382.2L1298 1401L1327.74 1497.14H1378.03L1434 1525.1L1538.08 1559.19L1584 1501.94L1538.08 1345.93Z" fill="#222B2B"/>
<path d="M1538.01 1306.16L1470.56 1245.19L1377.71 1252.65L1355.81 1342.56L1298 1402.65L1327.34 1457.91H1377.71L1433.77 1485.98L1538.01 1520.19L1584 1462.73L1538.01 1306.16Z" fill="#435353"/>
<path d="M1271.07 1514.55L1304.11 1455.1L1283.04 1388.62L1213.86 1387.78L1190.31 1348.46L1125.05 1386.41L1133.53 1423.15L1122.53 1468.76L1115.17 1550.55L1164.77 1574.43L1271.07 1514.55Z" fill="#222B2B"/>
<path d="M1297.21 1500.96L1330.25 1441.51L1309.18 1375.04L1240 1374.19L1186.5 1342.13L1151.19 1372.83L1159.67 1409.57L1148.67 1455.18L1141.31 1536.97L1190.91 1560.85L1297.21 1500.96Z" fill="#395151"/>
<path d="M705.177 1528.11L602.9 1510.83L543.811 1422.42L608.696 1339.23L621.48 1244.97L691.675 1232.16L727.344 1277.26L792.145 1307.61L863.378 1332.6L894.622 1376.02L877.749 1458.56L705.177 1528.11Z" fill="#273131"/>
<path d="M671.888 1481.84L569.611 1464.56L510.522 1376.15L575.407 1292.96L588.191 1198.7L658.386 1185.89L694.055 1230.99L758.856 1261.34L863.265 1330.48L844.46 1412.29L671.888 1481.84Z" fill="#4E6060"/>
<path d="M1400.94 1436.05L1311.15 1384.12L1286.68 1280.63L1376.55 1225.36L1421.46 1141.51L1491.71 1154.03L1509.37 1208.75L1559.48 1259.83L1617.49 1308.14L1631.59 1359.75L1586.94 1431.18L1400.94 1436.05Z" fill="#273131"/>
<path d="M1385.92 1381.06L1296.13 1329.13L1271.66 1225.65L1361.52 1170.37L1406.44 1086.52L1476.68 1099.05L1494.34 1153.77L1544.46 1204.85L1618.12 1306.11L1571.92 1376.19L1385.92 1381.06Z" fill="#4E6060"/>
<path d="M83.9215 1558.36L95.9001 1528.33L64.2787 1531.84L38.3865 1547.29L35 1534L24.5 1537.5L39.7856 1581.09L81.8386 1605.94L114.546 1604.74L83.9215 1558.36Z" fill="#50594B"/>
<path d="M397.973 1490.68L392.853 1458.76L422.94 1469.1L444.827 1489.84L448.5 1473.76L462.5 1481.44L458.637 1485.17L436.066 1522.52L389.595 1537.57L357.944 1529.24L397.973 1490.68Z" fill="#50594B"/>
<path d="M1461.83 1687.15L1431.99 1699.59L1456.61 1719.74L1485.76 1727.45L1470.5 1741L1489 1746L1489.05 1741.65L1508.95 1702.81L1497.31 1655.37L1473.58 1632.83L1461.83 1687.15Z" fill="#50594B"/>
<path d="M1025.17 1530.24L1036.1 1550.45L1013.47 1550.57L993.916 1541.79L997.055 1555L984 1551.74L985.74 1548.16L992.129 1517.82L1019.8 1496.83L1043 1495L1025.17 1530.24Z" fill="#50594B"/>
</svg>
