<svg width="1512" height="982" viewBox="0 0 1512 982" fill="none" xmlns="http://www.w3.org/2000/svg">
    <g clip-path="url(#clip0_4115_72)">
    <rect width="1512" height="982" fill="#414674" fill-opacity="0.8"/>
    <g filter="url(#filter0_d_4115_72)">
    <rect x="-249" y="157" width="781" height="935" rx="100" fill="#414358"/>
    <rect x="585" y="579" width="895" height="513" rx="40" fill="#414358"/>
    <rect x="658" y="659" width="749" height="468" rx="40" fill="#2A2B3A"/>
    <rect x="-296" y="241" width="749" height="777" rx="40" fill="#2A2B3A"/>
    <rect x="617" y="809" width="844" height="55" rx="27.5" fill="#414358"/>
    <rect x="-370" y="809" width="844" height="55" rx="27.5" fill="#414358"/>
    </g>
    <rect x="1262" y="545" width="167" height="38" rx="5" fill="#313242"/>
    <rect x="1270" y="557" width="148" height="16" fill="#8D8D95"/>
    <rect x="1253" y="557" width="17" height="16" fill="#65698E"/>
    <rect x="1263" y="506" width="167" height="38" rx="5" fill="#2E325C"/>
    <rect x="1271" y="519" width="148" height="16" fill="#8D8D95"/>
    <rect x="1254" y="519" width="17" height="16" fill="#65698E"/>
    <g filter="url(#filter1_i_4115_72)">
    <path d="M1410.7 489.458C1408.97 493.633 1406.2 494.341 1404.71 494.286C1403.23 494.232 1403.17 492.578 1403.33 488.323C1403.48 484.068 1406.34 479.778 1407.61 479.284C1410.15 478.51 1410.49 485.379 1410.7 489.458Z" fill="#3C3B43"/>
    <path d="M1399.17 491.12L1402.55 485.352L1404.79 482.872L1406.65 481.484L1407.49 481.226L1408.08 484.424L1408.47 487.852L1399.54 494.322L1399.17 491.12Z" fill="#293042"/>
    <path d="M1409.02 486.105L1416.19 487.46L1414.88 492.42L1413.43 497.351L1411.87 503.538L1411.72 510.244L1412.58 517.039L1411.64 521.261L1406.17 519.667L1403.35 518.496L1401.13 516.964L1400.35 515.01L1399.36 509.299L1398.21 502.726L1399.49 496.831L1401.82 491.265L1402.8 489.122L1404.8 487.577L1406.73 486.65L1409.02 486.105Z" fill="#343D52"/>
    <path d="M1416.26 505.095C1415.25 514.83 1414.06 521.148 1412.07 521.248C1408.01 520.914 1407.6 513.706 1408.57 504.147C1409.55 494.589 1412.06 487.138 1416.13 487.472C1418.24 488.64 1417.28 495.359 1416.26 505.095Z" fill="#293042"/>
    <path d="M1405.13 485.65L1410.91 489.448L1408.95 493.205L1407.65 497.359L1406.19 502.598L1405.62 508.437L1405.71 514.458L1405.92 518.537L1401.11 517.057L1397.81 511.412L1397.56 506.322L1397.26 500.464L1398.52 495.451L1398.72 490.921L1400.26 487.4L1405.13 485.65Z" fill="#343D52"/>
    <path d="M1272.83 469.699L1279.98 470.632L1277.02 475.945L1275.72 480.099L1274.26 485.338L1273.7 491.177L1273.78 497.198L1276.85 502.639L1269.18 499.797L1265.88 494.152L1264.97 488.818L1264.91 483.44L1265.5 478.03L1266.79 473.662L1269.42 470.301L1272.83 469.699Z" fill="#343D52"/>
    <path d="M1414.83 486.091L1412.71 491.182L1410.24 493.14L1409.54 496.796L1406.22 501.018L1403.35 506.118L1400.92 511.628L1399.39 515.414L1396.22 512.279L1395.97 505.918L1397.88 501.193L1400.08 495.755L1403.14 491.662L1406.57 488.178L1409.52 486.358L1414.83 486.091Z" fill="#343D52"/>
    <path d="M1283.95 463.976L1296.94 469.997L1317.02 475.66L1344.54 479.227L1384.54 483.027L1397.42 482.38L1407.6 479.287L1400.16 489.775L1398.34 500.627L1398.87 511.146L1403.58 519.302L1389.58 514.842L1375.25 512.332L1310.4 506.554L1295.8 507.287L1282.83 510.306L1276 502.902L1271.7 494.509L1271.48 481.394L1276.19 472.547L1283.95 463.976Z" fill="#6D6C74"/>
    <g filter="url(#filter2_i_4115_72)">
    <path d="M1364.38 495.994L1357.73 488.948L1348.14 490.092L1346.54 498.717L1345.16 503.993L1344.43 494.141L1344.88 488.669L1345.42 485.009L1346.06 483.16L1358.19 486.369L1360.85 489.949L1364.38 495.994Z" fill="#5F5E63"/>
    </g>
    <g filter="url(#filter3_d_4115_72)">
    <path d="M1342.23 478.89L1347.29 479.523L1345.49 484.936L1344.83 489.404L1344.49 494.448L1344.9 500.261L1345.96 505.906L1348.23 509.931L1341.99 509.358L1340.01 503.086L1339.34 497.744L1339.2 492.375L1339.47 486.985L1340.21 482.648L1341.81 479.342L1342.23 478.89Z" fill="#343D52"/>
    </g>
    <path d="M1407.57 497.695L1411.23 494.667L1412.32 497.442L1407.57 497.695Z" fill="#293042"/>
    <path d="M1409.24 491.791L1413.78 490.392L1413.72 493.37L1409.24 491.791Z" fill="#293042"/>
    <path d="M1397.28 491.695L1401.09 488.848L1402.03 491.672L1397.28 491.695Z" fill="#343D52"/>
    <path d="M1402.13 485.037L1405.91 482.16L1406.88 484.976L1402.13 485.037Z" fill="#293042"/>
    <path d="M1396.91 501.613L1400.72 498.766L1401.67 501.59L1396.91 501.613Z" fill="#343D52"/>
    <path d="M1395.74 512.431L1399.55 509.585L1400.5 512.408L1395.74 512.431Z" fill="#343D52"/>
    <path d="M1405.05 505.927L1409.25 503.709L1409.75 506.646L1405.05 505.927Z" fill="#293042"/>
    <path d="M1405.97 514.303L1410.08 511.908L1410.7 514.821L1405.97 514.303Z" fill="#293042"/>
    <path d="M1407.27 518.233L1411.09 515.411L1412.02 518.24L1407.27 518.233Z" fill="#293042"/>
    <path d="M1343.48 469.947C1343.77 475.551 1344.93 479.584 1342.95 479.684C1340.96 479.783 1339.13 475.321 1338.85 469.718C1338.56 464.114 1339.94 459.491 1341.93 459.391C1344.58 461.107 1343.2 464.343 1343.48 469.947Z" fill="#343D52"/>
    <path d="M1342.24 470.758C1342.48 475.561 1343.3 478.94 1342.65 478.972C1342.01 479.004 1341.3 475.137 1341.05 470.334C1340.81 465.53 1341.14 461.611 1341.78 461.578C1342.42 461.546 1342 465.955 1342.24 470.758Z" fill="#505370"/>
    <path d="M1344.56 470.187C1343.85 475.958 1342.45 480.052 1344.29 480.277C1346.12 480.502 1348.18 476.007 1348.89 470.236C1349.6 464.466 1348.68 459.606 1346.85 459.381C1344.24 460.989 1345.27 464.417 1344.56 470.187Z" fill="#343D52"/>
    <path d="M1345.76 471.136C1345.18 475.857 1343.94 479.109 1344.77 479.209C1345.59 479.31 1346.36 475.628 1346.94 470.907C1347.52 466.186 1347.68 462.213 1346.86 462.112C1346.04 462.012 1346.33 466.415 1345.76 471.136Z" fill="#505370"/>
    <g filter="url(#filter4_i_4115_72)">
    <path d="M1276.2 472.523L1284.09 479.008L1301.92 479.565L1305.96 487.718L1321.76 505.069L1292.1 486.623L1271.51 487.658L1271.51 481.459L1276.2 472.523Z" fill="#5F5E63"/>
    </g>
    <g filter="url(#filter5_i_4115_72)">
    <path d="M1398.48 499.78L1395.15 498.6L1389.13 500.287L1386.93 497.985L1379.82 493.842L1391.67 496.895L1399.62 493.547L1399.1 496.459L1398.48 499.78Z" fill="#5F5E63"/>
    </g>
    </g>
    </g>
    <defs>
    <filter id="filter0_d_4115_72" x="-374" y="157" width="1858" height="978" filterUnits="userSpaceOnUse" color-interpolation-filters="sRGB">
    <feFlood flood-opacity="0" result="BackgroundImageFix"/>
    <feColorMatrix in="SourceAlpha" type="matrix" values="0 0 0 0 0 0 0 0 0 0 0 0 0 0 0 0 0 0 127 0" result="hardAlpha"/>
    <feOffset dy="4"/>
    <feGaussianBlur stdDeviation="2"/>
    <feComposite in2="hardAlpha" operator="out"/>
    <feColorMatrix type="matrix" values="0 0 0 0 0 0 0 0 0 0 0 0 0 0 0 0 0 0 0.25 0"/>
    <feBlend mode="normal" in2="BackgroundImageFix" result="effect1_dropShadow_4115_72"/>
    <feBlend mode="normal" in="SourceGraphic" in2="effect1_dropShadow_4115_72" result="shape"/>
    </filter>
    <filter id="filter1_i_4115_72" x="1264.91" y="459.381" width="152.477" height="64.2808" filterUnits="userSpaceOnUse" color-interpolation-filters="sRGB">
    <feFlood flood-opacity="0" result="BackgroundImageFix"/>
    <feBlend mode="normal" in="SourceGraphic" in2="BackgroundImageFix" result="shape"/>
    <feColorMatrix in="SourceAlpha" type="matrix" values="0 0 0 0 0 0 0 0 0 0 0 0 0 0 0 0 0 0 127 0" result="hardAlpha"/>
    <feOffset dy="2.39999"/>
    <feGaussianBlur stdDeviation="1.19999"/>
    <feComposite in2="hardAlpha" operator="arithmetic" k2="-1" k3="1"/>
    <feColorMatrix type="matrix" values="0 0 0 0 0 0 0 0 0 0 0 0 0 0 0 0 0 0 0.25 0"/>
    <feBlend mode="normal" in2="shape" result="effect1_innerShadow_4115_72"/>
    </filter>
    <filter id="filter2_i_4115_72" x="1344.43" y="483.16" width="19.9531" height="23.233" filterUnits="userSpaceOnUse" color-interpolation-filters="sRGB">
    <feFlood flood-opacity="0" result="BackgroundImageFix"/>
    <feBlend mode="normal" in="SourceGraphic" in2="BackgroundImageFix" result="shape"/>
    <feColorMatrix in="SourceAlpha" type="matrix" values="0 0 0 0 0 0 0 0 0 0 0 0 0 0 0 0 0 0 127 0" result="hardAlpha"/>
    <feOffset dy="2.39999"/>
    <feGaussianBlur stdDeviation="1.19999"/>
    <feComposite in2="hardAlpha" operator="arithmetic" k2="-1" k3="1"/>
    <feColorMatrix type="matrix" values="0 0 0 0 0 0 0 0 0 0 0 0 0 0 0 0 0 0 0.25 0"/>
    <feBlend mode="normal" in2="shape" result="effect1_innerShadow_4115_72"/>
    </filter>
    <filter id="filter3_d_4115_72" x="1336.8" y="478.891" width="13.8234" height="35.841" filterUnits="userSpaceOnUse" color-interpolation-filters="sRGB">
    <feFlood flood-opacity="0" result="BackgroundImageFix"/>
    <feColorMatrix in="SourceAlpha" type="matrix" values="0 0 0 0 0 0 0 0 0 0 0 0 0 0 0 0 0 0 127 0" result="hardAlpha"/>
    <feOffset dy="2.39999"/>
    <feGaussianBlur stdDeviation="1.19999"/>
    <feComposite in2="hardAlpha" operator="out"/>
    <feColorMatrix type="matrix" values="0 0 0 0 0 0 0 0 0 0 0 0 0 0 0 0 0 0 0.25 0"/>
    <feBlend mode="normal" in2="BackgroundImageFix" result="effect1_dropShadow_4115_72"/>
    <feBlend mode="normal" in="SourceGraphic" in2="effect1_dropShadow_4115_72" result="shape"/>
    </filter>
    <filter id="filter4_i_4115_72" x="1271.51" y="472.523" width="50.25" height="34.9459" filterUnits="userSpaceOnUse" color-interpolation-filters="sRGB">
    <feFlood flood-opacity="0" result="BackgroundImageFix"/>
    <feBlend mode="normal" in="SourceGraphic" in2="BackgroundImageFix" result="shape"/>
    <feColorMatrix in="SourceAlpha" type="matrix" values="0 0 0 0 0 0 0 0 0 0 0 0 0 0 0 0 0 0 127 0" result="hardAlpha"/>
    <feOffset dy="2.39999"/>
    <feGaussianBlur stdDeviation="1.19999"/>
    <feComposite in2="hardAlpha" operator="arithmetic" k2="-1" k3="1"/>
    <feColorMatrix type="matrix" values="0 0 0 0 0 0 0 0 0 0 0 0 0 0 0 0 0 0 0.25 0"/>
    <feBlend mode="normal" in2="shape" result="effect1_innerShadow_4115_72"/>
    </filter>
    <filter id="filter5_i_4115_72" x="1379.82" y="493.547" width="19.7969" height="9.14022" filterUnits="userSpaceOnUse" color-interpolation-filters="sRGB">
    <feFlood flood-opacity="0" result="BackgroundImageFix"/>
    <feBlend mode="normal" in="SourceGraphic" in2="BackgroundImageFix" result="shape"/>
    <feColorMatrix in="SourceAlpha" type="matrix" values="0 0 0 0 0 0 0 0 0 0 0 0 0 0 0 0 0 0 127 0" result="hardAlpha"/>
    <feOffset dy="2.39999"/>
    <feGaussianBlur stdDeviation="1.19999"/>
    <feComposite in2="hardAlpha" operator="arithmetic" k2="-1" k3="1"/>
    <feColorMatrix type="matrix" values="0 0 0 0 0 0 0 0 0 0 0 0 0 0 0 0 0 0 0.25 0"/>
    <feBlend mode="normal" in2="shape" result="effect1_innerShadow_4115_72"/>
    </filter>
    <clipPath id="clip0_4115_72">
    <rect width="1512" height="982" fill="white"/>
    </clipPath>
    </defs>
    </svg>
    