<svg width="365" height="122" viewBox="0 0 365 122" fill="none" xmlns="http://www.w3.org/2000/svg">
    <rect y="5" width="365" height="117" rx="50" fill="#0D3F41"/>
    <rect x="3.5" y="1.5" width="360" height="102" rx="48.5" fill="#89BEAA" stroke="#0D3F41" stroke-width="3"/>
    <path d="M186.043 3L244 3L133.696 101H72L186.043 3Z" fill="#B7D6D6"/>
    <path d="M230.717 3L288 3L178.978 101H118L230.717 3Z" fill="#B7D6D6"/>
    <path d="M134.862 47.692H151.762V55.388H134.862V47.692ZM135.59 62.044H154.622V70H125.398V33.6H153.946V41.556H135.59V62.044ZM156.287 70L172.199 47.9L172.147 55.232L156.859 33.6H168.455L178.231 47.692L173.291 47.744L182.911 33.6H194.039L178.751 54.816V47.536L194.871 70H183.015L173.083 55.18H177.815L168.039 70H156.287ZM197.253 70V33.6H207.549V70H197.253ZM222.622 70V41.764H211.442V33.6H244.046V41.764H232.918V70H222.622Z" fill="#FFFACC"/>
    </svg>
    