<svg width="373" height="380" viewBox="0 0 373 380" fill="none" xmlns="http://www.w3.org/2000/svg">
<g clip-path="url(#clip0_2272_19279)">
<path d="M148.96 386.719C157.471 388.929 166.163 383.817 168.374 375.302C170.584 366.787 165.477 358.093 156.966 355.883C148.454 353.674 139.763 358.785 137.552 367.3C135.341 375.815 140.449 384.509 148.96 386.719Z" fill="#C6824B"/>
<path d="M146.172 389.923C148.833 390.614 151.551 389.015 152.243 386.352C152.934 383.689 151.337 380.97 148.675 380.279C146.014 379.588 143.296 381.187 142.604 383.85C141.913 386.513 143.51 389.232 146.172 389.923Z" fill="#C6824B"/>
<path d="M139.167 384.898C141.829 385.589 144.547 383.99 145.238 381.327C145.93 378.664 144.332 375.946 141.671 375.255C139.009 374.564 136.291 376.162 135.6 378.825C134.908 381.488 136.506 384.207 139.167 384.898Z" fill="#C6824B"/>
<path d="M217.591 387.414C226.103 389.624 234.794 384.512 237.005 375.997C239.216 367.482 234.108 358.788 225.597 356.578C217.086 354.368 208.394 359.48 206.183 367.995C203.973 376.51 209.08 385.204 217.591 387.414Z" fill="#C6824B"/>
<path d="M225.592 390.727C228.254 391.418 230.972 389.82 231.663 387.157C232.355 384.494 230.757 381.775 228.096 381.084C225.434 380.393 222.716 381.992 222.025 384.655C221.333 387.317 222.931 390.036 225.592 390.727Z" fill="#C6824B"/>
<path d="M232.7 385.845C235.362 386.536 238.08 384.938 238.771 382.275C239.462 379.612 237.865 376.893 235.204 376.202C232.542 375.511 229.824 377.11 229.133 379.773C228.441 382.436 230.038 385.154 232.7 385.845Z" fill="#C6824B"/>
<path d="M114.753 335.468L260.563 336.937C260.419 350.866 249.001 362.059 235.078 361.918L139.722 360.957C125.799 360.817 114.613 349.396 114.756 335.468L114.753 335.468Z" fill="#DE8E45"/>
<path d="M136.004 335.684L239.313 336.725C239.242 343.689 233.53 349.287 226.569 349.217L148.489 348.43C141.527 348.36 135.933 342.648 136.004 335.684Z" fill="#FFFACC"/>
<path d="M255.555 251.584L121.498 250.228L105.206 325.128L270.293 326.798L255.555 251.584Z" fill="#A977AB"/>
<path d="M191.87 278.123L184.641 278.05L184.148 325.916L191.377 325.989L191.87 278.123Z" fill="#88538C"/>
<path d="M299.355 251.365C310.438 254.242 321.756 247.586 324.634 236.498C327.513 225.41 320.862 214.089 309.779 211.212C298.697 208.335 287.379 214.991 284.5 226.079C281.622 237.167 288.272 248.487 299.355 251.365Z" fill="#DE8E45"/>
<path d="M318.666 226.275C322.132 227.174 325.67 225.093 326.57 221.626C327.47 218.16 325.391 214.62 321.926 213.72C318.46 212.821 314.922 214.902 314.022 218.369C313.122 221.835 315.201 225.375 318.666 226.275Z" fill="#DE8E45"/>
<path d="M322.851 236.694C326.316 237.593 329.855 235.512 330.755 232.045C331.655 228.579 329.576 225.039 326.11 224.139C322.645 223.24 319.106 225.321 318.206 228.787C317.306 232.254 319.386 235.794 322.851 236.694Z" fill="#DE8E45"/>
<path d="M310.14 218.976C313.605 219.876 317.144 217.794 318.044 214.328C318.944 210.861 316.865 207.321 313.399 206.421C309.934 205.522 306.395 207.603 305.495 211.07C304.595 214.537 306.675 218.076 310.14 218.976Z" fill="#DE8E45"/>
<path d="M311.125 215.184C312.497 215.541 313.899 214.716 314.255 213.344C314.612 211.971 313.788 210.569 312.416 210.212C311.044 209.856 309.642 210.68 309.286 212.053C308.929 213.426 309.753 214.828 311.125 215.184Z" fill="#FFFACC"/>
<path d="M319.652 222.483C321.024 222.839 322.425 222.015 322.782 220.642C323.138 219.269 322.315 217.868 320.942 217.511C319.57 217.155 318.169 217.979 317.812 219.352C317.456 220.725 318.279 222.127 319.652 222.483Z" fill="#FFFACC"/>
<path d="M323.835 232.903C325.207 233.259 326.608 232.435 326.965 231.062C327.321 229.689 326.498 228.287 325.125 227.931C323.753 227.574 322.352 228.399 321.995 229.772C321.639 231.145 322.462 232.546 323.835 232.903Z" fill="#FFFACC"/>
<path d="M314.085 241.355C319.02 237.813 319.443 229.953 315.031 223.799C310.618 217.646 303.04 215.529 298.106 219.071C293.171 222.613 292.748 230.472 297.16 236.626C301.573 242.78 309.15 244.897 314.085 241.355Z" fill="#FFFACC"/>
<path d="M273.372 232.798L211.538 277.18L231.33 304.782L293.165 260.399L273.372 232.798Z" fill="#A977AB"/>
<path d="M284.478 224.828L273.374 232.798L293.166 260.4L304.27 252.429L284.478 224.828Z" fill="#FFB23E"/>
<path d="M67.7004 249.02C78.7832 251.897 90.101 245.241 92.9796 234.153C95.8582 223.065 89.2074 211.744 78.1247 208.867C67.042 205.99 55.7241 212.646 52.8455 223.734C49.9669 234.821 56.6177 246.142 67.7004 249.02Z" fill="#DE8E45"/>
<path d="M55.7914 223.614C59.2566 224.514 62.7954 222.433 63.6954 218.966C64.5955 215.499 62.516 211.959 59.0507 211.06C55.5855 210.16 52.0467 212.241 51.1467 215.708C50.2466 219.175 52.3261 222.714 55.7914 223.614Z" fill="#DE8E45"/>
<path d="M51.3964 233.947C54.8616 234.847 58.4003 232.766 59.3004 229.299C60.2004 225.832 58.1209 222.292 54.6557 221.393C51.1905 220.493 47.6517 222.574 46.7517 226.041C45.8516 229.508 47.9311 233.047 51.3964 233.947Z" fill="#DE8E45"/>
<path d="M64.4696 216.489C67.9348 217.389 71.4736 215.308 72.3736 211.841C73.2737 208.374 71.1942 204.834 67.7289 203.935C64.2637 203.035 60.725 205.116 59.8249 208.583C58.9249 212.05 61.0044 215.589 64.4696 216.489Z" fill="#DE8E45"/>
<path d="M65.4533 212.698C66.8256 213.054 68.227 212.23 68.5835 210.857C68.9399 209.484 68.1164 208.082 66.7441 207.726C65.3718 207.369 63.9703 208.194 63.6139 209.567C63.2574 210.939 64.081 212.341 65.4533 212.698Z" fill="#FFFACC"/>
<path d="M56.7765 219.823C58.1489 220.179 59.5503 219.355 59.9067 217.982C60.2632 216.609 59.4396 215.207 58.0673 214.851C56.695 214.494 55.2936 215.319 54.9371 216.692C54.5807 218.064 55.4042 219.466 56.7765 219.823Z" fill="#FFFACC"/>
<path d="M52.3801 230.156C53.7524 230.512 55.1538 229.688 55.5102 228.315C55.8667 226.942 55.0432 225.54 53.6708 225.184C52.2985 224.828 50.8971 225.652 50.5406 227.025C50.1842 228.398 51.0077 229.8 52.3801 230.156Z" fill="#FFFACC"/>
<path d="M80.2088 234.414C84.7483 228.351 84.4883 220.484 79.6281 216.843C74.7679 213.201 67.148 215.164 62.6085 221.226C58.0691 227.289 58.3291 235.156 63.1893 238.797C68.0495 242.439 75.6694 240.476 80.2088 234.414Z" fill="#FFFACC"/>
<path d="M104.069 231.066L83.7075 258.26L144.608 303.89L164.969 276.697L104.069 231.066Z" fill="#A977AB"/>
<path d="M93.1313 222.872L72.77 250.065L83.7067 258.26L104.068 231.067L93.1313 222.872Z" fill="#FFB23E"/>
<path d="M129.56 288.124L131.887 290.234C132.158 290.478 132.532 290.575 132.887 290.494L135.946 289.771C136.84 289.56 137.591 290.468 137.212 291.309L135.926 294.175C135.774 294.508 135.8 294.894 135.989 295.206L137.62 297.89C138.099 298.677 137.465 299.67 136.552 299.573L133.431 299.234C133.069 299.194 132.708 299.336 132.469 299.612L130.421 301.994C129.82 302.691 128.68 302.399 128.492 301.493L127.851 298.417C127.776 298.059 127.53 297.76 127.193 297.621L124.296 296.408C123.447 296.051 123.376 294.878 124.174 294.419L126.901 292.856C127.218 292.676 127.426 292.347 127.456 291.983L127.716 288.85C127.79 287.934 128.885 287.501 129.568 288.119L129.56 288.124Z" fill="#FFB23E"/>
<path d="M151.685 313.241L152.736 314.675C152.856 314.843 153.054 314.938 153.26 314.931L155.035 314.879C155.555 314.864 155.866 315.453 155.562 315.873L154.522 317.314C154.401 317.481 154.371 317.699 154.44 317.894L155.036 319.568C155.213 320.058 154.747 320.538 154.252 320.379L152.56 319.837C152.365 319.773 152.147 319.812 151.985 319.937L150.576 321.023C150.162 321.342 149.566 321.048 149.565 320.528L149.558 318.751C149.558 318.542 149.454 318.351 149.283 318.232L147.816 317.23C147.387 316.937 147.481 316.275 147.973 316.113L149.66 315.557C149.858 315.492 150.008 315.336 150.067 315.136L150.568 313.429C150.715 312.928 151.369 312.814 151.676 313.235L151.685 313.241Z" fill="#FFB23E"/>
<path d="M158.839 284.657L158.859 286.435C158.86 286.64 158.966 286.835 159.138 286.951L160.614 287.942C161.048 288.233 160.958 288.892 160.464 289.061L158.78 289.631C158.585 289.697 158.435 289.856 158.376 290.056L157.891 291.767C157.747 292.269 157.094 292.39 156.783 291.971L155.723 290.545C155.599 290.38 155.402 290.284 155.195 290.292L153.42 290.357C152.9 290.376 152.584 289.792 152.886 289.365L153.914 287.914C154.034 287.743 154.062 287.529 153.993 287.333L153.382 285.665C153.202 285.175 153.662 284.693 154.16 284.85L155.856 285.379C156.055 285.441 156.27 285.401 156.43 285.272L157.828 284.173C158.239 283.853 158.837 284.138 158.845 284.659L158.839 284.657Z" fill="#FFB23E"/>
<path d="M172.323 305.219L172.904 308.307C172.971 308.666 173.21 308.97 173.547 309.116L176.419 310.388C177.261 310.76 177.311 311.937 176.503 312.38L173.746 313.887C173.424 314.063 173.211 314.384 173.174 314.75L172.85 317.876C172.756 318.79 171.653 319.201 170.984 318.569L168.7 316.412C168.434 316.162 168.062 316.059 167.705 316.133L164.635 316.795C163.735 316.988 163.005 316.064 163.398 315.234L164.743 312.393C164.901 312.062 164.885 311.676 164.7 311.361L163.126 308.644C162.663 307.848 163.314 306.866 164.229 306.984L167.344 307.386C167.707 307.433 168.07 307.298 168.311 307.026L170.407 304.684C171.022 304 172.155 304.315 172.326 305.22L172.323 305.219Z" fill="#FFB23E"/>
<path d="M119.484 313.272L119.762 315.028C119.795 315.231 119.926 315.409 120.111 315.498L121.714 316.266C122.185 316.491 122.192 317.158 121.729 317.393L120.143 318.201C119.959 318.293 119.834 318.472 119.804 318.68L119.568 320.442C119.499 320.957 118.87 321.173 118.502 320.804L117.244 319.545C117.098 319.398 116.89 319.333 116.685 319.372L114.939 319.694C114.426 319.79 114.03 319.253 114.265 318.792L115.072 317.209C115.168 317.025 115.163 316.805 115.064 316.623L114.217 315.061C113.97 314.604 114.354 314.058 114.869 314.14L116.623 314.418C116.826 314.45 117.035 314.382 117.177 314.231L118.402 312.944C118.76 312.565 119.397 312.765 119.479 313.278L119.484 313.272Z" fill="#FFB23E"/>
<path d="M97.2901 254.417L98.4179 255.792C98.5502 255.953 98.7498 256.039 98.9559 256.021L100.725 255.872C101.245 255.829 101.588 256.4 101.308 256.836L100.349 258.332C100.239 258.505 100.22 258.726 100.301 258.914L100.988 260.551C101.192 261.03 100.754 261.535 100.251 261.404L98.5309 260.958C98.3303 260.902 98.1191 260.953 97.9616 261.087L96.6151 262.25C96.2193 262.591 95.6078 262.33 95.5789 261.81L95.4765 260.035C95.4656 259.827 95.3503 259.64 95.1734 259.533L93.6543 258.613C93.2088 258.343 93.2654 257.678 93.7511 257.49L95.4071 256.844C95.6009 256.768 95.7427 256.604 95.7918 256.401L96.1971 254.669C96.3155 254.16 96.9652 254.012 97.2941 254.415L97.2901 254.417Z" fill="#FFB23E"/>
<path d="M131.462 269.897L131.805 271.642C131.844 271.843 131.981 272.015 132.171 272.099L133.8 272.805C134.279 273.012 134.31 273.679 133.856 273.93L132.304 274.794C132.124 274.894 132.005 275.078 131.985 275.285L131.816 277.054C131.766 277.574 131.146 277.809 130.762 277.457L129.462 276.248C129.311 276.107 129.1 276.052 128.897 276.095L127.162 276.481C126.654 276.595 126.236 276.077 126.454 275.604L127.201 273.991C127.287 273.802 127.276 273.584 127.172 273.407L126.268 271.878C126.002 271.43 126.369 270.873 126.885 270.935L128.649 271.147C128.854 271.173 129.059 271.093 129.195 270.937L130.371 269.603C130.715 269.211 131.36 269.385 131.458 269.899L131.462 269.897Z" fill="#FFB23E"/>
<path d="M214.592 289.125L216.544 291.589C216.769 291.876 217.125 292.033 217.489 292.008L220.623 291.797C221.54 291.735 222.133 292.753 221.623 293.522L219.885 296.138C219.683 296.444 219.645 296.827 219.779 297.165L220.947 300.081C221.289 300.935 220.504 301.814 219.617 301.563L216.594 300.717C216.241 300.618 215.865 300.698 215.582 300.932L213.172 302.946C212.465 303.538 211.388 303.06 211.35 302.138L211.22 299C211.205 298.634 211.012 298.301 210.7 298.107L208.042 296.437C207.261 295.947 207.384 294.777 208.246 294.454L211.189 293.361C211.532 293.235 211.788 292.946 211.88 292.591L212.648 289.542C212.873 288.648 214.022 288.403 214.596 289.123L214.592 289.125Z" fill="#FFB23E"/>
<path d="M206.971 312.931L208.022 314.365C208.143 314.532 208.34 314.628 208.547 314.62L210.321 314.569C210.841 314.553 211.152 315.143 210.848 315.563L209.809 317.004C209.687 317.17 209.658 317.388 209.726 317.583L210.322 319.258C210.499 319.748 210.033 320.228 209.539 320.069L207.846 319.527C207.651 319.463 207.433 319.501 207.271 319.627L205.862 320.712C205.448 321.032 204.852 320.737 204.851 320.218L204.845 318.44C204.844 318.232 204.74 318.041 204.57 317.921L203.103 316.919C202.673 316.627 202.767 315.964 203.259 315.802L204.947 315.246C205.144 315.181 205.294 315.026 205.353 314.826L205.854 313.119C206.001 312.617 206.655 312.504 206.962 312.925L206.971 312.931Z" fill="#FFB23E"/>
<path d="M248.939 305.993L249.52 309.08C249.587 309.439 249.825 309.744 250.163 309.89L253.035 311.161C253.877 311.533 253.926 312.711 253.118 313.153L250.362 314.661C250.039 314.837 249.826 315.157 249.789 315.523L249.466 318.649C249.372 319.564 248.269 319.974 247.6 319.343L245.316 317.186C245.05 316.936 244.678 316.832 244.32 316.907L241.251 317.568C240.35 317.761 239.621 316.838 240.014 316.007L241.359 313.167C241.517 312.836 241.501 312.449 241.316 312.135L239.741 309.417C239.279 308.621 239.93 307.639 240.845 307.757L243.959 308.159C244.323 308.206 244.685 308.071 244.927 307.799L247.023 305.458C247.637 304.774 248.771 305.089 248.942 305.994L248.939 305.993Z" fill="#FFB23E"/>
<path d="M240.401 283.381L240.421 285.159C240.422 285.364 240.529 285.559 240.7 285.675L242.177 286.667C242.61 286.957 242.521 287.616 242.026 287.785L240.342 288.355C240.148 288.421 239.997 288.58 239.939 288.78L239.453 290.491C239.309 290.993 238.657 291.114 238.345 290.695L237.285 289.269C237.161 289.104 236.964 289.008 236.757 289.016L234.982 289.081C234.462 289.1 234.146 288.516 234.448 288.089L235.477 286.638C235.596 286.468 235.625 286.253 235.556 286.058L234.944 284.389C234.765 283.899 235.224 283.417 235.723 283.574L237.418 284.103C237.617 284.165 237.833 284.125 237.992 283.996L239.39 282.897C239.801 282.577 240.4 282.862 240.408 283.383L240.401 283.381Z" fill="#FFB23E"/>
<path d="M276.026 258.462L277.077 259.896C277.197 260.064 277.394 260.16 277.601 260.152L279.376 260.1C279.895 260.085 280.207 260.675 279.903 261.094L278.863 262.535C278.742 262.702 278.712 262.92 278.781 263.115L279.377 264.79C279.554 265.279 279.088 265.759 278.593 265.6L276.901 265.059C276.706 264.994 276.488 265.033 276.325 265.158L274.917 266.244C274.503 266.564 273.907 266.269 273.905 265.749L273.899 263.972C273.899 263.763 273.795 263.572 273.624 263.453L272.157 262.451C271.728 262.158 271.821 261.496 272.314 261.334L274.001 260.778C274.199 260.713 274.349 260.557 274.407 260.357L274.909 258.65C275.056 258.149 275.71 258.035 276.017 258.457L276.026 258.462Z" fill="#FFB23E"/>
<path d="M105.207 325.128L102.983 335.352L272.307 337.068L270.293 326.798L105.207 325.128Z" fill="#FFB23E"/>
<path d="M246.77 220.526L130.937 219.359C116.443 219.213 104.573 230.848 104.424 245.347C104.274 259.847 115.903 271.719 130.396 271.865L246.23 273.033C260.723 273.179 272.594 261.543 272.743 247.044C272.892 232.545 261.264 220.672 246.77 220.526Z" fill="#FFFACC"/>
<path d="M227.406 237.415C213.686 237.275 202.677 226.037 202.82 212.311L197.509 136.539C194.941 136.306 192.344 136.171 189.712 136.144C187.081 136.116 184.481 136.203 181.91 136.379L175.032 212.029C174.889 225.755 163.653 236.771 149.933 236.631L128.634 236.415C120.787 236.335 113.499 233.968 107.397 229.953C117.286 260.916 149.601 283.809 188.178 284.198C226.758 284.59 259.539 262.351 270.066 231.6C263.884 235.493 256.549 237.711 248.701 237.633L227.402 237.418L227.406 237.415Z" fill="#FFFACC"/>
<path d="M197.51 136.536L202.821 212.308C202.678 226.033 213.687 237.275 227.407 237.412L248.706 237.628C256.553 237.708 263.889 235.487 270.071 231.594C272.303 225.074 273.538 218.175 273.613 211.023C274.011 172.437 240.578 140.412 197.511 136.532L197.51 136.536Z" fill="#DE8E45"/>
<path d="M149.932 236.631C163.652 236.771 174.892 225.755 175.032 212.029L181.909 136.378C138.773 139.386 104.684 170.728 104.282 209.313C104.207 216.465 105.301 223.388 107.396 229.952C113.498 233.968 120.785 236.338 128.633 236.415L149.932 236.631Z" fill="#DE8E45"/>
<path d="M145.722 231.273C154.364 233.516 163.189 228.326 165.434 219.68C167.679 211.034 162.493 202.207 153.851 199.963C145.209 197.72 136.384 202.91 134.139 211.556C131.894 220.201 137.08 229.029 145.722 231.273Z" fill="#FFFACC"/>
<path d="M146.954 226.528C152.977 228.092 159.127 224.475 160.691 218.449C162.256 212.424 158.641 206.272 152.619 204.708C146.596 203.144 140.446 206.762 138.881 212.787C137.317 218.812 140.931 224.964 146.954 226.528Z" fill="#770000"/>
<path d="M144.681 215.454C146.176 215.842 147.701 214.944 148.09 213.449C148.478 211.954 147.581 210.428 146.087 210.04C144.593 209.652 143.067 210.55 142.679 212.045C142.291 213.539 143.187 215.066 144.681 215.454Z" fill="#A32626"/>
<path d="M223.927 232.066C232.569 234.309 241.394 229.119 243.639 220.473C245.883 211.827 240.697 203 232.055 200.756C223.413 198.513 214.588 203.703 212.343 212.349C210.099 220.994 215.285 229.822 223.927 232.066Z" fill="#FFFACC"/>
<path d="M225.159 227.321C231.181 228.885 237.332 225.268 238.896 219.242C240.46 213.217 236.846 207.065 230.823 205.501C224.801 203.937 218.65 207.554 217.086 213.58C215.522 219.605 219.136 225.757 225.159 227.321Z" fill="#770000"/>
<path d="M231.75 216.335C233.244 216.722 234.77 215.825 235.158 214.33C235.546 212.835 234.649 211.309 233.155 210.921C231.661 210.533 230.135 211.431 229.747 212.925C229.359 214.42 230.256 215.947 231.75 216.335Z" fill="#A32626"/>
<path d="M188.733 231.005C181.985 230.937 176.573 225.41 176.642 218.659L201.073 218.906C201.004 225.657 195.478 231.072 188.73 231.004L188.733 231.005Z" fill="#770000"/>
<path d="M188.778 226.636C183.549 226.582 179.331 224.265 179.36 221.458L198.303 221.65C198.274 224.456 194.012 226.686 188.779 226.632L188.778 226.636Z" fill="#A32626"/>
<path d="M188.42 261.414C196.686 261.497 203.89 264.133 207.804 267.993C211.07 264.34 213.312 259.752 214.085 254.673C205.037 255.602 195.682 252.77 188.576 246.203C182.502 251.599 174.76 254.507 166.589 254.425C165.346 254.413 164.115 254.329 162.898 254.18C163.568 259.265 165.716 263.89 168.902 267.603C172.895 263.821 180.153 261.334 188.419 261.417L188.42 261.414Z" fill="#EBD2D2"/>
<path d="M188.26 276.627C196.016 276.704 203.009 273.356 207.801 267.992C203.888 264.131 196.684 261.496 188.417 261.413C180.148 261.328 172.894 263.816 168.901 267.598C173.583 273.059 180.502 276.546 188.261 276.624L188.26 276.627Z" fill="#CA6E91"/>
<path d="M171.77 250.729L180.089 250.812L180.046 254.974C180.023 257.271 178.14 259.116 175.844 259.093C173.548 259.07 171.704 257.187 171.727 254.89L171.77 250.729Z" fill="white"/>
<path d="M196.984 250.983L205.304 251.067L205.261 255.228C205.237 257.525 203.354 259.37 201.058 259.347C198.762 259.324 196.918 257.441 196.942 255.144L196.984 250.983Z" fill="white"/>
<path d="M233.594 243.153C232.947 242.49 231.881 242.48 231.221 243.128C226.468 247.789 220.52 250.489 214.375 251.257C205.605 252.351 196.444 249.495 189.798 242.711L188.624 241.512L187.425 242.686C181.83 248.17 174.442 251.145 166.625 251.066C165.291 251.051 163.973 250.948 162.677 250.761C156.363 249.85 150.548 246.909 146.002 242.266C145.355 241.603 144.289 241.593 143.629 242.241C142.966 242.888 142.956 243.955 143.604 244.615C148.841 249.963 155.588 253.282 162.899 254.176C164.117 254.325 165.348 254.409 166.591 254.421C174.758 254.503 182.504 251.596 188.578 246.199C195.683 252.767 205.041 255.599 214.086 254.669C221.184 253.94 228.091 250.898 233.572 245.525C234.235 244.877 234.246 243.811 233.598 243.151L233.594 243.153Z" fill="#D3CB90"/>
<path d="M159.413 183.69C162.654 183.722 165.257 186.38 165.224 189.622L165.163 195.495L159.292 195.436C156.051 195.404 153.448 192.746 153.482 189.504C153.515 186.261 156.172 183.657 159.413 183.69Z" fill="#FFFACC"/>
<path d="M218.905 196.049L213.034 195.99L213.095 190.116C213.128 186.874 215.785 184.269 219.026 184.302C222.267 184.335 224.87 186.992 224.837 190.235C224.803 193.477 222.146 196.081 218.905 196.049Z" fill="#FFFACC"/>
<path d="M237.747 137.365L204.039 54.3194L201.775 55.7839C201.467 55.9808 201.277 56.3206 201.268 56.6837L201.176 59.8256C201.148 60.7473 200.079 61.238 199.366 60.6568L196.928 58.6749C196.643 58.4439 196.267 58.3668 195.916 58.4703L192.901 59.3541C192.018 59.6132 191.222 58.7475 191.555 57.8878L192.687 54.9581C192.82 54.6169 192.773 54.2325 192.568 53.93L190.798 51.3359C190.278 50.5761 190.855 49.551 191.775 49.5985L194.911 49.7708C195.275 49.7901 195.627 49.6289 195.853 49.3391L197.772 46.8525C198.333 46.1239 199.488 46.3555 199.724 47.2467L200.53 50.2835C200.623 50.6355 200.886 50.9225 201.23 51.0458L202.966 51.6674L193.039 27.227C192.241 25.2646 189.474 25.2359 188.637 27.1837L182.842 40.6576L184.274 40.401C184.786 40.3086 185.182 40.8452 184.942 41.3089L184.126 42.8898C184.03 43.0733 184.032 43.2922 184.131 43.4751L184.97 45.0419C185.216 45.5018 184.829 46.0435 184.316 45.958L182.561 45.6697C182.358 45.6375 182.149 45.7062 182.005 45.8532L180.774 47.1354C180.559 47.3595 180.244 47.3767 180.009 47.2408L169.316 72.0992C169.429 72.166 169.532 72.2543 169.618 72.3689L171.54 74.8553C171.761 75.1451 172.116 75.3054 172.48 75.2838L175.617 75.1113C176.535 75.0594 177.115 76.0875 176.597 76.8477L174.827 79.4447C174.622 79.7467 174.577 80.1311 174.707 80.4722L175.84 83.4029C176.174 84.2613 175.375 85.1297 174.493 84.8701L171.479 83.9886C171.127 83.8868 170.749 83.9628 170.467 84.1936L168.03 86.1769C167.316 86.7598 166.245 86.27 166.218 85.3478L166.126 82.2059C166.115 81.841 165.925 81.505 165.619 81.3059L165.414 81.1742L141.664 136.39L237.747 137.365Z" fill="#A977AB"/>
<path d="M166.127 82.2059L166.219 85.3478C166.247 86.2668 167.318 86.7566 168.031 86.1769L170.468 84.1936C170.75 83.9628 171.131 83.8877 171.481 83.9886L174.495 84.8701C175.376 85.1297 176.175 84.2614 175.841 83.403L174.708 80.4722C174.575 80.1303 174.62 79.7459 174.828 79.4447L176.598 76.8478C177.116 76.0876 176.539 75.0634 175.618 75.1113L172.481 75.2838C172.117 75.3054 171.763 75.1419 171.541 74.8553L169.619 72.3689C169.533 72.2543 169.427 72.1652 169.317 72.0992L165.415 81.1742L165.62 81.3059C165.926 81.505 166.116 81.841 166.127 82.2059Z" fill="#FFB23E"/>
<path d="M200.524 50.2818L199.719 47.245C199.482 46.3538 198.327 46.1222 197.766 46.8508L195.847 49.3374C195.625 49.628 195.273 49.7892 194.909 49.77L191.772 49.5977C190.854 49.547 190.276 50.5752 190.796 51.3351L192.566 53.9291C192.771 54.2316 192.818 54.616 192.685 54.9572L191.552 57.8869C191.22 58.7466 192.016 59.6123 192.899 59.3532L195.914 58.4694C196.265 58.3659 196.644 58.4438 196.926 58.674L199.364 60.656C200.076 61.2371 201.146 60.7464 201.174 59.8247L201.266 56.6828C201.275 56.3166 201.465 55.9799 201.772 55.783L204.037 54.3185L202.958 51.6616L201.222 51.0401C200.878 50.9167 200.617 50.6338 200.522 50.2778L200.524 50.2818Z" fill="#FFB23E"/>
<path d="M180.775 47.1325L182.005 45.8503C182.15 45.7001 182.356 45.6305 182.558 45.666L184.313 45.9543C184.827 46.0398 185.214 45.4949 184.968 45.0381L184.128 43.4713C184.032 43.2893 184.028 43.0696 184.123 42.886L184.94 41.3052C185.18 40.8415 184.783 40.3048 184.271 40.3973L182.839 40.6539L180.006 47.2402C180.241 47.373 180.556 47.359 180.771 47.1348L180.775 47.1325Z" fill="#FFB23E"/>
<path d="M141.665 136.391L137.403 146.301L241.803 147.358L237.748 137.365L141.665 136.391Z" fill="#FFB23E"/>
<path d="M209.691 98.4132L210.927 101.302C211.072 101.637 211.371 101.882 211.731 101.955L214.809 102.573C215.712 102.753 216.013 103.893 215.32 104.499L212.956 106.569C212.682 106.809 212.54 107.172 212.583 107.534L212.947 110.655C213.054 111.57 212.066 112.208 211.273 111.736L208.575 110.127C208.261 109.94 207.875 109.918 207.541 110.071L204.685 111.382C203.848 111.766 202.935 111.023 203.14 110.127L203.837 107.063C203.919 106.706 203.818 106.335 203.57 106.065L201.443 103.754C200.82 103.077 201.242 101.978 202.161 101.895L205.29 101.611C205.653 101.579 205.978 101.366 206.156 101.051L207.696 98.312C208.147 97.5104 209.322 97.5729 209.686 98.4188L209.691 98.4132Z" fill="#FFB23E"/>
<path d="M174.592 102.278L176.782 104.53C177.039 104.792 177.403 104.914 177.764 104.85L180.861 104.322C181.768 104.169 182.46 105.12 182.03 105.934L180.564 108.712C180.395 109.037 180.394 109.423 180.562 109.746L182.021 112.529C182.448 113.344 181.756 114.298 180.848 114.141L177.754 113.607C177.395 113.545 177.026 113.664 176.77 113.926L174.576 116.173C173.933 116.833 172.813 116.467 172.681 115.555L172.233 112.444C172.18 112.082 171.954 111.77 171.627 111.607L168.811 110.213C167.986 109.804 167.988 108.626 168.813 108.219L171.632 106.83C171.96 106.67 172.188 106.357 172.241 105.995L172.697 102.886C172.831 101.975 173.949 101.613 174.591 102.271L174.592 102.278Z" fill="#FFB23E"/>
<path d="M201.946 123.839L202.449 125.544C202.506 125.743 202.661 125.899 202.855 125.964L204.545 126.515C205.039 126.677 205.135 127.334 204.707 127.629L203.241 128.635C203.07 128.752 202.968 128.947 202.97 129.152L202.969 130.931C202.966 131.453 202.371 131.746 201.958 131.431L200.55 130.348C200.384 130.223 200.169 130.184 199.975 130.25L198.283 130.797C197.787 130.959 197.324 130.48 197.496 129.989L198.088 128.312C198.156 128.118 198.126 127.902 198.003 127.733L196.96 126.294C196.653 125.873 196.963 125.284 197.485 125.297L199.261 125.345C199.468 125.351 199.664 125.255 199.786 125.085L200.831 123.649C201.139 123.227 201.795 123.342 201.942 123.841L201.946 123.839Z" fill="#FFB23E"/>
<path d="M202.103 80.7134L202.005 82.4875C201.992 82.6926 202.084 82.8938 202.249 83.0188L203.657 84.1048C204.069 84.4236 203.937 85.0758 203.434 85.2116L201.715 85.6668C201.514 85.7204 201.356 85.8673 201.284 86.0639L200.686 87.7389C200.511 88.2296 199.849 88.307 199.567 87.8684L198.603 86.375C198.49 86.2025 198.3 86.0949 198.093 86.0891L196.318 86.038C195.796 86.0221 195.52 85.4175 195.85 85.0116L196.973 83.6331C197.103 83.4723 197.145 83.2578 197.088 83.0585L196.589 81.3512C196.442 80.8521 196.935 80.3995 197.418 80.5898L199.074 81.2315C199.267 81.3054 199.485 81.2801 199.655 81.1637L201.124 80.1619C201.555 79.8675 202.132 80.1949 202.106 80.7174L202.103 80.7134Z" fill="#FFB23E"/>
<path d="M158.31 124.433L159.559 125.696C159.705 125.843 159.913 125.911 160.118 125.872L161.869 125.558C162.381 125.465 162.777 126.002 162.537 126.466L161.721 128.047C161.625 128.23 161.627 128.449 161.726 128.632L162.565 130.199C162.811 130.659 162.424 131.2 161.911 131.115L160.156 130.827C159.953 130.794 159.744 130.863 159.603 131.011L158.372 132.293C158.012 132.667 157.378 132.469 157.297 131.952L157.029 130.196C156.997 129.99 156.868 129.816 156.683 129.727L155.085 128.954C154.615 128.726 154.611 128.059 155.077 127.828L156.664 127.027C156.848 126.935 156.976 126.757 157.006 126.553L157.248 124.792C157.32 124.275 157.951 124.066 158.317 124.434L158.31 124.433Z" fill="#FFB23E"/>
<path d="M120.679 184.763C109.25 181.386 106.615 156.193 114.799 128.497C120.539 109.07 135.697 95.23 144.24 88.6986C147.319 86.3458 151.805 87.671 153.107 91.3183C156.728 101.445 161.934 121.299 156.193 140.729C148.009 168.428 132.11 188.144 120.678 184.767L120.679 184.763Z" fill="#DE8E45"/>
<path d="M257.724 186.151C269.221 183.006 272.374 157.874 264.768 130.016C259.429 110.476 244.562 96.3335 236.158 89.63C233.129 87.2147 228.617 88.4476 227.236 92.071C223.408 102.121 217.794 121.868 223.129 141.407C230.738 169.265 246.226 189.3 257.723 186.154L257.724 186.151Z" fill="#DE8E45"/>
<path d="M139.278 136.799C132.715 156.989 117.91 170.272 117.91 170.272C117.91 170.272 113.747 150.821 120.313 130.632C126.875 110.442 141.68 97.1591 141.68 97.1591C141.68 97.1591 145.844 116.61 139.278 136.799Z" fill="#EBD2D2"/>
<path d="M240.124 137.821C246.27 158.141 260.795 171.72 260.795 171.72C260.795 171.72 265.358 152.357 259.215 132.04C253.069 111.72 238.543 98.1411 238.543 98.1411C238.543 98.1411 233.981 117.505 240.124 137.821Z" fill="#EBD2D2"/>
<g opacity="0.82">
<path d="M85.8521 197.448L88.2218 181.391L76.9184 189.983L66.7951 164.405L56.1477 189.771L45.0249 180.955L47.064 197.057C45.368 199.447 44.3861 202.191 44.3578 205.114C44.262 214.542 54.0378 222.288 66.1993 222.409C78.3599 222.533 88.2963 214.987 88.3921 205.559C88.4212 202.633 87.5 199.871 85.8521 197.448Z" fill="#FF7336"/>
<path d="M75.5216 205.302L76.6405 197.731L71.308 201.783L66.5338 189.721L61.5128 201.685L56.2673 197.527L57.2276 205.122C56.4264 206.249 55.9642 207.543 55.9508 208.922C55.9053 213.371 60.5175 217.024 66.2509 217.081C71.9875 217.14 76.6728 213.582 76.7183 209.133C76.7317 207.754 76.2988 206.45 75.5199 205.308L75.5216 205.302Z" fill="#FFB23E"/>
<path d="M331.074 199.928L333.444 183.871L322.14 192.463L312.017 166.885L301.369 192.251L290.247 183.435L292.286 199.537C290.59 201.927 289.608 204.671 289.579 207.594C289.484 217.022 299.259 224.768 311.421 224.889C323.582 225.013 333.518 217.467 333.614 208.039C333.643 205.113 332.722 202.351 331.074 199.928Z" fill="#FF7336"/>
<path d="M320.747 207.786L321.866 200.215L316.533 204.268L311.759 192.206L306.738 204.17L301.492 200.011L302.453 207.606C301.651 208.733 301.189 210.027 301.176 211.407C301.13 215.855 305.743 219.508 311.476 219.566C317.213 219.624 321.898 216.066 321.943 211.618C321.957 210.238 321.524 208.934 320.745 207.793L320.747 207.786Z" fill="#FFB23E"/>
</g>
<path d="M131.464 223.51L165.877 223.857L165.825 228.927C165.808 230.593 164.443 231.935 162.774 231.918L131.378 231.601L131.461 223.51L131.464 223.51Z" fill="#DE8E45"/>
<path d="M246.659 232.778L215.262 232.462C213.597 232.445 212.257 231.08 212.274 229.41L212.326 224.34L246.739 224.687L246.656 232.778L246.659 232.778Z" fill="#DE8E45"/>
</g>
<defs>
<clipPath id="clip0_2272_19279">
<rect width="289.4" height="363.8" fill="white" transform="translate(92) rotate(14.5537)"/>
</clipPath>
</defs>
</svg>
