<svg width="1909" height="2054" viewBox="0 0 1909 2054" fill="none" xmlns="http://www.w3.org/2000/svg">
<path opacity="0.24" d="M1372.93 1385.43C1376.73 1385.43 1379.81 1382.42 1379.81 1378.7C1379.81 1374.99 1376.73 1371.97 1372.93 1371.97C1369.13 1371.97 1366.05 1374.99 1366.05 1378.7C1366.05 1382.42 1369.13 1385.43 1372.93 1385.43Z" fill="#FFFACC"/>
<path opacity="0.24" d="M1229.85 817.969C1233.65 817.969 1236.73 814.957 1236.73 811.241C1236.73 807.525 1233.65 804.513 1229.85 804.513C1226.05 804.513 1222.97 807.525 1222.97 811.241C1222.97 814.957 1226.05 817.969 1229.85 817.969Z" fill="#FFFACC"/>
<path opacity="0.1" d="M474.085 975.601C481.312 975.601 487.17 969.87 487.17 962.8C487.17 955.731 481.312 950 474.085 950C466.858 950 461 955.731 461 962.8C461 969.87 466.858 975.601 474.085 975.601Z" fill="#FFFACC"/>
<path opacity="0.33" d="M915.553 1070.69C919.17 1070.69 922.102 1067.82 922.102 1064.28C922.102 1060.74 919.17 1057.88 915.553 1057.88C911.936 1057.88 909.004 1060.74 909.004 1064.28C909.004 1067.82 911.936 1070.69 915.553 1070.69Z" fill="#FFFACC"/>
<path opacity="0.33" d="M22.5489 1199.15C26.1658 1199.15 29.0978 1196.28 29.0978 1192.74C29.0978 1189.2 26.1658 1186.34 22.5489 1186.34C18.9321 1186.34 16 1189.2 16 1192.74C16 1196.28 18.9321 1199.15 22.5489 1199.15Z" fill="#FFFACC"/>
<path opacity="0.24" d="M494.224 1183.93C503.252 1183.93 510.57 1176.77 510.57 1167.94C510.57 1159.11 503.252 1151.95 494.224 1151.95C485.195 1151.95 477.876 1159.11 477.876 1167.94C477.876 1176.77 485.195 1183.93 494.224 1183.93Z" fill="#FFFACC"/>
<path opacity="0.24" d="M1563 1038C1576.81 1038 1588 1027.03 1588 1013.5C1588 999.969 1576.81 989 1563 989C1549.19 989 1538 999.969 1538 1013.5C1538 1027.03 1549.19 1038 1563 1038Z" fill="#FFFACC"/>
<path opacity="0.24" d="M1703 2054C1716.81 2054 1728 2043.03 1728 2029.5C1728 2015.97 1716.81 2005 1703 2005C1689.19 2005 1678 2015.97 1678 2029.5C1678 2043.03 1689.19 2054 1703 2054Z" fill="#FFFACC"/>
<path opacity="0.24" d="M839.5 1648C847.508 1648 854 1641.73 854 1634C854 1626.27 847.508 1620 839.5 1620C831.492 1620 825 1626.27 825 1634C825 1641.73 831.492 1648 839.5 1648Z" fill="#FFFACC"/>
<path opacity="0.24" d="M40.5 1852C44.6422 1852 48 1848.87 48 1845C48 1841.13 44.6422 1838 40.5 1838C36.3579 1838 33 1841.13 33 1845C33 1848.87 36.3579 1852 40.5 1852Z" fill="#FFFACC"/>
<path opacity="0.24" d="M1823.5 805C1830.4 805 1836 799.627 1836 793C1836 786.373 1830.4 781 1823.5 781C1816.6 781 1811 786.373 1811 793C1811 799.627 1816.6 805 1823.5 805Z" fill="#FFFACC"/>
<path opacity="0.24" d="M1324.5 2025C1331.4 2025 1337 2019.63 1337 2013C1337 2006.37 1331.4 2001 1324.5 2001C1317.6 2001 1312 2006.37 1312 2013C1312 2019.63 1317.6 2025 1324.5 2025Z" fill="#FFFACC"/>
<path opacity="0.24" d="M1487.53 1486C1496.56 1486 1503.88 1478.84 1503.88 1470.01C1503.88 1461.18 1496.56 1454.02 1487.53 1454.02C1478.5 1454.02 1471.18 1461.18 1471.18 1470.01C1471.18 1478.84 1478.5 1486 1487.53 1486Z" fill="#FFFACC"/>
<path opacity="0.4" d="M245.07 1323.47C250.213 1323.47 254.382 1319.4 254.382 1314.37C254.382 1309.34 250.213 1305.26 245.07 1305.26C239.927 1305.26 235.758 1309.34 235.758 1314.37C235.758 1319.4 239.927 1323.47 245.07 1323.47Z" fill="#FFFACC"/>
<path opacity="0.73" d="M1916.55 925.94C1921.07 925.94 1924.73 922.357 1924.73 917.938C1924.73 913.519 1921.07 909.936 1916.55 909.936C1912.03 909.936 1908.37 913.519 1908.37 917.938C1908.37 922.357 1912.03 925.94 1916.55 925.94Z" fill="#B7D6D6"/>
<path opacity="0.24" d="M551.801 614.43C548.002 614.43 544.923 611.418 544.923 607.703C544.923 603.987 548.002 600.975 551.801 600.975C555.599 600.975 558.678 603.987 558.678 607.703C558.678 611.418 555.599 614.43 551.801 614.43Z" fill="#FFFACC"/>
<path opacity="0.24" d="M694.879 46.969C691.08 46.969 688.001 43.9568 688.001 40.2411C688.001 36.5254 691.08 33.5132 694.879 33.5132C698.677 33.5132 701.756 36.5254 701.756 40.2411C701.756 43.9568 698.677 46.969 694.879 46.969Z" fill="#FFFACC"/>
<path opacity="0.33" d="M1468.08 293.601C1460.86 293.601 1455 287.87 1455 280.8C1455 273.731 1460.86 268 1468.08 268C1475.31 268 1481.17 273.731 1481.17 280.8C1481.17 287.87 1475.31 293.601 1468.08 293.601Z" fill="#FFFACC"/>
<path opacity="0.33" d="M1009.18 299.688C1005.56 299.688 1002.63 296.82 1002.63 293.282C1002.63 289.744 1005.56 286.875 1009.18 286.875C1012.79 286.875 1015.73 289.744 1015.73 293.282C1015.73 296.82 1012.79 299.688 1009.18 299.688Z" fill="#FFFACC"/>
<path opacity="0.33" d="M1902.18 428.149C1898.56 428.149 1895.63 425.281 1895.63 421.743C1895.63 418.205 1898.56 415.336 1902.18 415.336C1905.8 415.336 1908.73 418.205 1908.73 421.743C1908.73 425.281 1905.8 428.149 1902.18 428.149Z" fill="#FFFACC"/>
<path opacity="0.24" d="M1152.35 263.982C1143.32 263.982 1136 256.823 1136 247.991C1136 239.159 1143.32 232 1152.35 232C1161.37 232 1168.69 239.159 1168.69 247.991C1168.69 256.823 1161.37 263.982 1152.35 263.982Z" fill="#FFFACC"/>
<path opacity="0.24" d="M437.198 714.999C428.17 714.999 420.851 707.84 420.851 699.008C420.851 690.177 428.17 683.017 437.198 683.017C446.226 683.017 453.545 690.177 453.545 699.008C453.545 707.84 446.226 714.999 437.198 714.999Z" fill="#FFFACC"/>
<path opacity="0.4" d="M1679.66 552.474C1674.52 552.474 1670.35 548.396 1670.35 543.366C1670.35 538.336 1674.52 534.259 1679.66 534.259C1684.8 534.259 1688.97 538.336 1688.97 543.366C1688.97 548.396 1684.8 552.474 1679.66 552.474Z" fill="#FFFACC"/>
<path opacity="0.73" d="M8.17959 154.94C3.662 154.94 -0.000190735 151.357 -0.000190735 146.938C-0.000190735 142.519 3.662 138.936 8.17959 138.936C12.6972 138.936 16.3594 142.519 16.3594 146.938C16.3594 151.357 12.6972 154.94 8.17959 154.94Z" fill="#B7D6D6"/>
<path opacity="0.73" d="M1242.61 16.0035C1238.09 16.0035 1234.43 12.421 1234.43 8.00175C1234.43 3.5825 1238.09 0 1242.61 0C1247.13 0 1250.79 3.5825 1250.79 8.00175C1250.79 12.421 1247.13 16.0035 1242.61 16.0035Z" fill="#B7D6D6"/>
</svg>
