<svg width="1006" height="595" viewBox="0 0 1006 595" fill="none" xmlns="http://www.w3.org/2000/svg">
<path d="M1006 454.137L986 404.137H612L570 454.137H66L38 564.137H960L1006 527.137V454.137Z" fill="#092C2E"/>
<path d="M211 299.137H91L0 568.137L376 534.137L584 466.074L592 444.487L605 466.074L611 425.779L641 461.757L664 437.292L657 466.074L870 444.487L865 432.255L890 437.292V421.461L912 437.292L920 417.864L929 437.292L984 425.779V407.07L920 383.325L881 356.701L811 337.993L806 330.078L797 337.993L773 322.163L779 334.395L211 299.137Z" fill="#0D3F41"/>
<path d="M324 398.137L402 368.137L436 380.137L366 418.137H414H444L472 388.137L500 398.137L402 518.137L366 594.137L54 544.137C48 537.47 44.8 511.737 80 462.137C115.2 412.537 233.333 398.803 288 398.137H324Z" fill="#092C2E"/>
<path d="M607.5 357.137L620 384.637L740.5 408.637L679.5 392.637V384.637L666.5 389.137V379.137L655 389.137V375.137L643 389.137L635 369.137L630 384.637L607.5 357.137Z" fill="#092C2E"/>
<path d="M130 406.637L121 390.137L140 406.637V390.137L152 406.637L159.5 390.137L168.5 406.637H152H140H130Z" fill="#092C2E"/>
<path d="M382.142 196.388C383.29 186.281 391.842 178.645 402.014 178.645L444.641 178.645C457.082 178.645 466.504 189.882 464.335 202.132L454.218 259.268C453.375 264.028 450.836 268.321 447.072 271.354L442.336 275.17C438.849 277.979 436.406 281.877 435.398 286.239L431.719 302.154C431.5 303.099 431.351 304.058 431.272 305.024L430.399 315.655C430.156 318.629 429.25 321.51 427.748 324.087L425.924 327.218V327.218C423.344 330.928 422.171 335.436 422.615 339.933L424.421 358.216L423.64 361.594L433.672 375.923L422.169 379.532L399.637 373.131L408.44 358.08L405.843 353.922L407.692 335.422C407.966 332.674 407.075 329.936 405.235 327.875V327.875C403.261 325.665 402.387 322.684 402.852 319.758L405.25 304.699L405.752 286.273C405.913 280.373 403.459 274.703 399.048 270.782L398.295 270.112C396.817 268.798 395.543 267.273 394.513 265.586L381.033 243.505C378.715 239.708 377.729 235.247 378.231 230.827L382.142 196.388Z" fill="#48210F"/>
<path d="M272.285 177.272C274.489 171.496 279.24 167.063 285.155 165.265L309.99 157.716C325.052 153.137 339.255 166.95 335.096 182.134L317.992 244.59C317.192 247.513 315.737 250.216 313.739 252.494L307.129 260.031C304.234 263.333 302.505 267.495 302.211 271.877L301.015 289.659C300.842 292.233 300.172 294.75 299.043 297.071L296.192 302.928C294.294 306.827 294.24 311.369 296.045 315.311L296.841 317.05C298.13 319.866 298.1 323.109 296.759 325.901V325.901C295.86 327.775 295.541 329.875 295.844 331.932L304.325 389.513L304.057 393.504L317.113 405.524L308.447 411.81L282.697 405.599L286.097 392.297L282.375 388.037L279.606 334.813C279.42 331.24 277.728 327.912 274.949 325.657V325.657C272.557 323.715 270.956 320.965 270.448 317.925L269.11 309.911C268.408 305.708 269.279 301.392 271.556 297.789V297.789C273.964 293.978 274.794 289.379 273.869 284.967L270.389 268.358C269.638 264.771 267.915 261.46 265.41 258.786L256.745 249.535C251.516 243.954 249.929 235.879 252.655 228.734L272.285 177.272Z" fill="#753214"/>
<path d="M484.278 0.685168L499.148 39.3006L482.572 47.8258C470.573 28.7424 478.71 8.44731 484.278 0.685168Z" fill="#753214"/>
<path d="M237.57 197.262C237.57 156.324 270.757 123.137 311.695 123.137L312.7 123.137C320.191 123.137 327.64 124.257 334.8 126.461L391.834 144.015C392.096 144.095 392.37 144.13 392.644 144.116L432.759 142.148C432.91 142.141 433.048 142.06 433.129 141.932L479.259 68.7005C489.185 52.9442 511.462 51.1387 523.795 65.091V65.091C529.448 71.4861 531.864 80.116 530.354 88.5169L518.517 154.387C516.937 163.178 516.851 172.172 518.262 180.991L520.214 193.183C527.056 235.937 493.387 274.399 450.103 273.275V273.275C442.021 273.065 433.964 274.274 426.299 276.845L420.894 278.659C402.191 284.934 382.065 285.621 362.978 280.635L344.508 275.81C339.006 274.372 333.389 273.416 327.721 272.951L305.635 271.139C267.176 267.984 237.57 235.85 237.57 197.262V197.262Z" fill="#964C1A"/>
<path d="M475.399 50.9079C482.341 28.421 508.736 20.537 527.57 35.3245V35.3245L544.564 45.2503C546.056 46.1221 546.155 48.3009 544.741 49.1699V49.1699C543.423 49.9797 543.398 51.9653 544.693 52.9401L562.9 66.6418C563.91 67.4018 565.073 67.9024 566.286 68.0998V68.0998C570.923 68.8545 573.97 73.7554 572.643 78.3251L567.991 94.3371C566.121 100.776 558.088 102.292 553.654 97.0431V97.0431C552.444 95.6109 550.844 94.5941 549.086 94.1397L538.209 91.3286C537.262 91.0837 536.302 90.911 535.337 90.8119L517.847 89.0159C516.184 88.8452 514.539 88.4564 512.951 87.859L483.662 76.8384C475.612 73.8095 471.143 64.692 473.68 56.4738L475.399 50.9079Z" fill="#964C1A"/>
<path d="M570.333 73.2598C570.258 72.4632 568.218 72.1182 567.206 72.0453C564.928 73.4633 567.138 74.8973 568.528 75.4371L570.798 78.2381L570.333 73.2598Z" fill="#2B2B2B"/>
<ellipse cx="22.1014" cy="24.9145" rx="22.1014" ry="24.9145" transform="matrix(0.993235 -0.11612 0.0724675 0.997371 499.414 46.4497)" fill="#964C1A"/>
<path d="M289.731 178.555C288.577 165.878 299.402 155.362 312.04 156.884L394.199 166.778C407.006 168.32 415.025 181.405 410.586 193.517L384.521 264.632C383.478 267.478 381.802 270.049 379.619 272.152L372.4 279.108C369.238 282.155 367.166 286.158 366.505 290.499L363.822 308.118C363.434 310.669 362.555 313.121 361.235 315.338L357.902 320.936C355.684 324.661 355.249 329.183 356.717 333.263L357.364 335.062C358.412 337.976 358.11 341.205 356.54 343.875V343.875C355.486 345.667 354.992 347.733 355.122 349.808L358.742 407.898L358.139 411.852L370.936 427.457L350.26 430.377L335.84 422.112L340.344 409.142L336.992 404.585L338.7 351.317C338.814 347.74 337.407 344.282 334.828 341.802V341.802C332.606 339.666 331.242 336.792 330.991 333.72L329.925 320.657C329.836 319.571 329.837 318.48 329.926 317.395L330.799 306.75C331.303 300.606 328.945 294.572 324.408 290.397L315.399 282.108C313.37 280.241 311.749 277.974 310.638 275.451L296.724 243.857C295.852 241.876 295.307 239.767 295.11 237.611L289.731 178.555Z" fill="#964C1A"/>
<path d="M358.5 413.137C349.7 413.937 341.667 409.137 339.5 407.637L333.5 427.637C342.3 442.037 366.333 432.47 375.5 427.637L358.5 413.137Z" fill="#041F20"/>
<path d="M422.156 212.25C420.539 199.765 430.721 188.909 443.285 189.724L493.781 192.999C504.302 193.682 512.486 202.414 512.486 212.957L512.486 243.647C512.486 248.476 510.739 253.143 507.566 256.784L494.756 271.489C491.583 275.131 489.836 279.797 489.836 284.627L489.836 317.454C489.836 320.798 488.997 324.089 487.396 327.026L485.512 330.482C483.714 333.782 483.486 337.713 484.891 341.198L485.629 343.028C486.558 345.331 486.414 347.929 485.237 350.116V350.116C484.295 351.867 484.007 353.897 484.427 355.841L489.127 377.632L488.736 381.077L500.332 394.171L482.521 397.381L469.76 390.696L473.235 379.315L470.181 375.479L469.914 356.889C469.874 354.127 468.677 351.508 466.614 349.67V349.67C464.402 347.699 463.194 344.837 463.324 341.877L463.993 326.643L463.993 299.547C463.993 294.298 461.93 289.26 458.249 285.519L451.496 278.657C450.502 277.646 449.402 276.744 448.217 275.966L436.431 268.229C431.556 265.029 428.321 259.861 427.572 254.078L422.156 212.25Z" fill="#964C1A"/>
<path d="M281.152 231.67C289.821 303.62 248.055 390.496 248.055 390.496C227.689 388.825 182.413 297.818 200.193 240.079C217.973 182.339 255.873 155.348 276.239 157.018C296.605 158.689 275.779 187.081 281.152 231.67Z" fill="#2B2B2B"/>
<path d="M398.163 199.128C403.872 246.954 380.681 273.614 368.372 280.966C440.352 303.727 459.42 239.27 459.956 204.197C459.378 207.159 457.893 229.36 443.075 250.973C429.398 270.922 405.984 275.021 412.685 254.5C418.045 238.083 404.66 213.708 398.163 199.128Z" fill="#753214"/>
<path d="M515.353 67.1724C506.863 73.6782 516.018 102.179 533.333 90.6317C516.374 95.6215 511.434 75.6498 515.353 67.1724Z" fill="#753214"/>
<path d="M477.104 31.3004C487.262 24.7138 519.261 21.8724 523.528 39.933L510.344 41.4743C490.812 43.7578 476.441 69.6212 473.545 90.7686L473.484 91.2142C470.605 112.252 467.357 135.981 451.475 146.215C438.679 154.459 428.374 153.602 424.821 152.143C429.802 150.211 436.583 144.581 439.35 142.008C429.356 145.426 420.728 143.248 417.663 141.732C425.639 137.65 432.818 126.65 435.41 121.66L422.714 123.144C427.468 118.089 430.397 104.624 431.266 98.5234C424.788 101.53 417.364 99.2115 414.462 97.6761C418.816 96.6046 429.806 85.1966 434.65 77.319C438.526 71.0169 445.843 66.4496 449.017 64.9537C441.205 65.8671 435.266 60.9374 433.273 58.3584C456.711 55.6182 464.406 39.5337 477.104 31.3004Z" fill="#2B2B2B"/>
<path d="M521.993 1.59048L525.062 43.8338L507.061 45.9382C501.171 23.3711 514.561 6.9701 521.993 1.59048Z" fill="#964C1A"/>
<path d="M304 391.637C297.2 393.637 289.833 393.303 287 391.637C284.5 396.303 279.9 406.537 281.5 410.137C283.1 413.737 297.167 414.97 304 415.137L317 405.637L304 391.637Z" fill="#041F20"/>
<path d="M423.922 361.558C416.036 364.296 410.35 360.418 408.493 358.137L399.064 373.962C407.636 386.622 426.636 381.804 435.064 377.812L423.922 361.558Z" fill="#041F20"/>
<path d="M488.779 381.717C481.922 383.781 475.35 380.857 472.922 379.137L466.064 396.768C481.836 404.68 496.636 400.065 502.064 396.768L488.779 381.717Z" fill="#041F20"/>
<g style="mix-blend-mode:multiply" opacity="0.5">
<path fill-rule="evenodd" clip-rule="evenodd" d="M520.009 6.13758C520.009 5.15543 520.12 4.0728 520.32 2.91745C515.283 7.20055 508.664 15.5544 506.407 26.8353C502.462 26.1768 498.248 26.0995 494.208 26.4495L484.287 0.686523C480.302 6.24125 475.002 18.2142 476.707 31.5684C472.964 34.0651 469.643 37.2357 466.199 40.5233L466.199 40.5234C458.182 48.1765 449.502 56.4635 433.282 58.3598C435.275 60.9388 441.214 65.8684 449.027 64.955C445.852 66.4509 438.535 71.0183 434.659 77.3204C429.815 85.1979 418.825 96.606 414.471 97.6774C417.373 99.2128 424.797 101.532 431.276 98.5248C430.406 104.625 427.477 118.09 422.723 123.145L435.419 121.661C432.827 126.651 425.649 137.651 417.672 141.733C418.341 142.064 419.275 142.426 420.43 142.755L392.653 144.118C392.38 144.131 392.106 144.097 391.844 144.016L334.81 126.462C327.65 124.258 320.2 123.138 312.709 123.138H311.705C279.654 123.138 252.354 143.48 242.011 171.958C226.169 185.413 210.081 208.001 200.202 240.08C182.422 297.82 227.698 388.826 248.065 390.497C248.065 390.497 262.133 361.232 272.245 322.607C272.973 323.755 273.886 324.788 274.959 325.658C277.737 327.914 279.43 331.241 279.615 334.815L282.384 388.039L286.107 392.298L285.52 394.594C283.067 399.741 280.194 407.18 281.509 410.138C283.109 413.738 297.176 414.971 304.009 415.138L317.009 405.638L316.992 405.62L317.123 405.526L315.623 404.145L304.179 391.821L304.334 389.514L295.853 331.933C295.55 329.876 295.869 327.776 296.769 325.902C298.109 323.11 298.139 319.867 296.85 317.051L296.054 315.313C294.249 311.371 294.303 306.828 296.201 302.93L299.052 297.072C300.182 294.752 300.851 292.235 301.024 289.66L302.22 271.878C302.244 271.515 302.279 271.153 302.322 270.794C303.422 270.933 304.529 271.049 305.644 271.14L308.865 271.405L310.647 275.452C311.759 277.976 313.38 280.242 315.408 282.109L324.417 290.399C328.954 294.573 331.312 300.607 330.808 306.751L329.935 317.396C329.846 318.482 329.846 319.573 329.934 320.658L331 333.721C331.251 336.793 332.615 339.667 334.837 341.803C337.416 344.284 338.824 347.741 338.709 351.318L337.002 404.587L339.433 407.892L333.509 427.638C342.309 442.038 366.343 432.471 375.509 427.638L360.814 415.104L358.149 411.853L358.751 407.899L355.131 349.809C355.002 347.734 355.496 345.668 356.549 343.876C358.119 341.207 358.421 337.977 357.373 335.063L356.726 333.264C355.258 329.185 355.693 324.663 357.911 320.937L361.244 315.339C361.335 315.187 361.423 315.034 361.509 314.88V281.138C375.009 271.971 401.109 241.738 397.509 194.138C399.843 214.638 397.809 260.738 371.009 281.138L370.724 282.338C372.583 282.671 374.448 282.952 376.318 283.18C387.467 285.858 397.23 286.31 405.758 285.052C405.771 285.458 405.773 285.866 405.762 286.275L405.26 304.7L402.862 319.76C402.396 322.686 403.271 325.666 405.244 327.877C407.084 329.937 407.976 332.675 407.701 335.424L405.852 353.923L408.449 358.082L403.781 366.063L399.074 373.963C407.645 386.624 426.645 381.805 435.074 377.813L423.931 361.56C423.848 361.589 423.766 361.617 423.683 361.644L423.649 361.596L424.43 358.218L422.624 339.934C422.18 335.437 423.353 330.929 425.934 327.219L427.757 324.089C429.259 321.511 430.165 318.63 430.409 315.657L431.281 305.025C431.36 304.059 431.51 303.1 431.728 302.156L435.407 286.241C436.416 281.878 438.859 277.981 442.345 275.171L444.441 273.483L448.226 275.967C449.411 276.746 450.511 277.648 451.506 278.659L458.258 285.52C461.939 289.261 464.002 294.3 464.002 299.548V326.644L463.333 341.878C463.203 344.839 464.411 347.701 466.624 349.672C468.686 351.51 469.883 354.128 469.923 356.89L470.191 375.48L473.244 379.316L473.235 379.345C473.127 379.275 473.026 379.205 472.931 379.138L466.074 396.769C474.419 400.956 482.492 401.635 489.049 400.858L484.009 383.638L478.509 355.138L481.509 346.138L478.509 340.138L484.009 322.638L487.009 273.638C492.343 266.638 503.609 251.638 506.009 247.638C508.409 243.638 499.676 213.638 495.009 199.138L512.009 226.138C522.009 205.338 510.176 175.804 503.009 163.638L512.009 171.638L526.112 112.176L529.637 92.5634C530.665 92.1818 531.729 91.6549 532.827 90.9664C533.024 90.8524 533.221 90.7353 533.415 90.615L535.346 90.8133C536.311 90.9124 537.271 91.0851 538.219 91.3299L549.095 94.141C550.853 94.5954 552.453 95.6123 553.663 97.0444C558.097 102.293 566.13 100.777 568.001 94.3385L569.086 90.6007L566.009 77.1376C557.676 70.1376 540.609 55.1376 539.009 51.1376C537.409 47.1376 525.676 41.4709 520.009 39.1376V6.13758Z" fill="#041F20"/>
</g>
<path d="M425.5 171.637C423.085 170.059 391.336 165.424 386.5 165.137L397.827 150.56C399.321 143.032 404.447 128.15 413.008 128.839C421.569 129.527 430.576 141.972 421.311 154.637L439.145 162.89C441.772 164.105 442.821 167.29 441.43 169.829L432.5 186.137C436.219 188.897 440.285 203.01 437.5 204.637C434.715 206.263 421.311 189.637 419.5 187.637C419.263 182.844 427.915 173.214 425.5 171.637Z" fill="#5B619B"/>
<circle cx="399" cy="89.1367" r="37" fill="#5B619B"/>
<path d="M424 150.637C417.6 152.237 409.667 149.97 406.5 148.637L405.5 154.137L422.5 155.137L424 150.637Z" fill="#838AC8"/>
<path d="M424 171.637L431 159.637C447.8 160.837 443.333 170.47 439 175.137L424 171.637Z" fill="#838AC8"/>
<path d="M414.665 88.4197C414.184 83.3233 416.005 78.2785 419.629 74.6635L429.651 64.6668C429.727 64.5917 429.849 64.5954 429.92 64.6747L431.014 65.9035C441.412 77.58 442.753 94.7552 434.294 107.904V107.904C434.244 107.982 434.141 108.007 434.06 107.961L423.158 101.659C418.351 98.8803 415.187 93.9471 414.665 88.4197V88.4197Z" fill="#838AC8"/>
<ellipse cx="423.843" cy="88.7237" rx="5.5" ry="6.5" transform="rotate(-13.2405 423.843 88.7237)" fill="#5B619B"/>
<ellipse cx="423.921" cy="88.4838" rx="3.15153" ry="3.72453" transform="rotate(-13.2405 423.921 88.4838)" fill="#838AC8"/>
<path d="M353 24.1368C387 8.93677 402.5 37.4701 406 53.6368C388.8 36.8368 381.5 44.9701 380 51.1367L373.5 39.1367V51.1367C370.833 53.4701 364.2 58.4367 359 59.6367C352.5 61.1367 310.5 43.1368 353 24.1368Z" fill="#56182D"/>
<path d="M424.763 120.609C422.929 129.817 372.296 127.492 363.088 125.658C353.88 123.823 347.903 114.872 349.737 105.664C351.571 96.4562 360.523 90.4786 369.731 92.3129C378.938 94.1471 426.597 111.402 424.763 120.609Z" fill="#56182D"/>
<path d="M308.5 118.137C320.5 123.737 347.5 112.47 359.5 106.137L407.5 118.137C402 135.637 414.5 152.637 418 161.637C421.5 170.637 419 196.137 407.5 183.137C396 170.137 372 177.137 359.5 183.137C347 189.137 333 143.637 326.5 132.137C320 120.637 304.5 126.137 297 123.637C289.5 121.137 293.5 111.137 308.5 118.137Z" fill="#56182D"/>
<g style="mix-blend-mode:multiply" opacity="0.3">
<path fill-rule="evenodd" clip-rule="evenodd" d="M391.159 99.4428C399.424 106.046 406.212 111.79 406 112.637C405.6 114.237 382.5 114.97 371 115.137C378 117.137 392.4 121.537 394 123.137C396 125.137 422.5 167.137 412 172.637C407.413 175.04 403.303 174.389 399.128 173.727C394.326 172.967 389.439 172.193 383.641 176.035C392.721 175.111 401.7 176.58 407.5 183.137C419 196.137 421.5 170.637 418 161.637C417.253 159.717 416.097 157.433 414.793 154.857L414.793 154.857C411.003 147.37 405.967 137.421 406.125 126.8C416.134 125.986 424.057 124.151 424.763 120.609C425.922 114.793 407.332 105.766 391.159 99.4428ZM355.221 96.1851C352.911 98.2009 351.13 100.852 350.174 103.939C350.573 103.829 351.014 103.728 351.5 103.637C357.9 102.437 374.167 104.803 381.5 106.137C375.875 102.531 363.811 96.2551 355.221 96.1851ZM319.592 119.535C315.288 119.869 311.443 119.51 308.5 118.137C293.5 111.137 289.5 121.137 297 123.637C299.396 124.435 302.608 124.418 306.082 124.398C313.484 124.358 322.076 124.31 326.5 132.137C328.133 135.025 330.239 140.059 332.675 145.883L332.675 145.883C339.938 163.245 350.14 187.63 359.5 183.137C364.77 180.607 372.084 177.9 379.643 176.588C383.208 171.695 390.55 163.297 392 162.137C394.5 160.137 388 130.637 385 131.137C384.093 131.288 382.637 133.816 380.951 136.745C377.06 143.502 371.942 152.392 369.5 139.137C366 120.137 363.5 115.137 361 115.137C359 115.137 356.167 113.47 355 112.637C357.333 114.97 362.1 120.337 362.5 123.137C362.569 123.618 362.751 124.59 363.001 125.924C364.569 134.301 368.813 156.961 364.5 162.137C363.678 163.123 362.815 164.204 361.941 165.3C357.498 170.869 352.753 176.815 351.5 172.637C350 167.637 330 124.637 324 121.637C322.649 120.961 321.135 120.244 319.592 119.535Z" fill="#0D3F41"/>
</g>
<path d="M436 152.137L416 137.637L429 124.137L441 137.637L456 139.137C458.333 137.47 463.2 134.537 464 136.137C464.8 137.737 462.333 140.137 461 141.137C464.333 142.137 471.2 144.737 472 147.137C473 150.137 465 154.637 461 155.637C457.8 156.437 454.333 152.637 453 150.637L436 152.137Z" fill="#5B619B"/>
<circle cx="419" cy="129.137" r="16" fill="#838AC8"/>
<path d="M430 148.637L441 140.137L446 153.137C444.333 153.803 440.2 155.137 437 155.137C433.8 155.137 431 150.803 430 148.637Z" fill="#838AC8"/>
<g style="mix-blend-mode:multiply" opacity="0.5">
<path fill-rule="evenodd" clip-rule="evenodd" d="M360.183 21.4761C372.27 20.5347 391.803 25.7448 405.5 52.1366C405.56 52.1793 405.62 52.2227 405.682 52.2671C405.723 52.4325 405.763 52.5969 405.801 52.7602C406.052 52.8068 406.302 52.8559 406.551 52.9076C411.545 56.6591 420.523 64.5663 423.5 71.6367L430.5 69.6367C434.5 76.1367 440.6 92.1367 433 104.137H428V107.637L422.5 113.637C426.833 117.47 434.5 127.037 430.5 134.637C431.333 134.47 433.4 133.537 435 131.137C434.833 131.97 434.4 133.837 434 134.637L440.5 139.637L454.5 141.637C454.667 142.137 455 143.237 455 143.637C455 144.037 456 142.803 456.5 142.137C460.704 143.354 468.051 146.788 471.112 149.779C468.995 152.3 463.927 154.905 461 155.637C457.8 156.437 454.333 152.637 453 150.637L445.3 151.316L446 153.136C444.333 153.803 440.2 155.136 437 155.136C433.8 155.136 431 150.803 430 148.636L430.567 148.198L425.207 144.311C425.117 146.364 424.623 148.523 423.62 150.727C423.747 150.698 423.874 150.668 424 150.636L422.5 155.136L422.375 155.129L423.026 155.43C422.777 155.469 422.6 155.537 422.5 155.636L429.5 162.136C433.333 161.97 440.4 163.536 438 171.136C435.6 178.736 432 184.303 430.5 186.136H425L430.5 189.136L437.187 204.739C434.329 205.107 424.76 193.821 420.916 189.287C420.252 188.504 419.758 187.921 419.5 187.636C419.384 185.304 421.374 181.827 423.168 178.69C424.811 175.818 426.291 173.232 425.846 172.067L424 171.636L424.272 171.169C423.182 170.852 421.5 170.475 419.437 170.068C419.813 180.549 416.279 193.06 407.5 183.136C406.781 182.324 406.014 181.59 405.203 180.928C399.473 176.253 391.596 175.225 383.642 176.035C382.032 176.198 380.418 176.438 378.819 176.737C371.554 178.096 364.578 180.699 359.5 183.136C358.33 183.698 357.147 183.808 355.958 183.538C347.635 181.643 339.031 161.075 332.675 145.883L332.675 145.883L332.222 144.8C329.977 139.438 328.031 134.845 326.5 132.136C325.947 131.158 325.329 130.303 324.656 129.555C319.947 124.322 312.559 124.362 306.082 124.398L306.065 124.398C305.853 124.399 305.643 124.401 305.434 124.402C302.209 124.416 299.246 124.385 297 123.636C292.751 122.22 292.193 118.397 295.235 116.621C297.563 115.262 301.998 115.102 308.5 118.136C311.443 119.51 315.288 119.869 319.592 119.535C328.908 118.812 340.376 114.845 349.512 110.891C349.321 109.191 349.385 107.432 349.737 105.664C349.854 105.075 350.001 104.5 350.174 103.939L350.202 103.85C351.164 100.801 352.934 98.1812 355.221 96.1848C357.205 94.4529 359.579 93.1901 362.153 92.5226C362.052 91.4074 362 90.278 362 89.1365C362 68.7019 378.565 52.1365 399 52.1365C401.017 52.1365 402.997 52.2979 404.927 52.6087C388.495 37.178 381.468 45.0996 380 51.1365L373.5 39.1365V51.1365C370.833 53.4698 364.2 58.4365 359 59.6365C352.5 61.1365 310.5 43.1365 353 24.1365C355.493 23.0219 357.887 22.1425 360.183 21.4761Z" fill="#0D3F41"/>
</g>
<path d="M657.211 22.5516C805.97 93.9403 812.885 139.441 827.121 150.129C841.357 160.818 861.562 157.943 872.251 143.707C882.94 129.472 880.064 109.267 865.829 98.5777C851.593 87.8889 702.745 -0.841825 657.211 22.5516Z" fill="url(#paint0_linear_1964_48)"/>
<path d="M847.23 112.503C847.979 111.077 850.021 111.077 850.77 112.503L853.727 118.125C854.016 118.676 854.546 119.06 855.159 119.166L861.419 120.24C863.007 120.513 863.638 122.454 862.513 123.607L858.08 128.156C857.646 128.602 857.444 129.224 857.533 129.84L858.446 136.126C858.677 137.72 857.026 138.92 855.582 138.207L849.885 135.396C849.327 135.121 848.673 135.121 848.115 135.396L842.418 138.207C840.974 138.92 839.323 137.72 839.554 136.126L840.467 129.84C840.556 129.224 840.354 128.602 839.92 128.156L835.487 123.607C834.362 122.454 834.993 120.513 836.581 120.24L842.841 119.166C843.454 119.06 843.984 118.676 844.273 118.125L847.23 112.503Z" fill="#FFFACC"/>
<path d="M200.256 35.2495C200.125 33.6442 201.849 32.551 203.245 33.3533L203.923 33.7425C204.462 34.0523 205.115 34.0936 205.689 33.8541L206.41 33.5533C207.896 32.9332 209.469 34.2347 209.137 35.8108L208.976 36.5752C208.848 37.1839 209.011 37.8176 209.416 38.2896L209.925 38.8823C210.974 40.1043 210.222 42.0019 208.621 42.1736L207.844 42.2569C207.226 42.3233 206.673 42.6736 206.349 43.2049L205.943 43.8719C205.105 45.2473 203.068 45.1186 202.41 43.6486L202.09 42.9357C201.836 42.368 201.332 41.9509 200.727 41.8072L199.967 41.6268C198.4 41.2548 197.893 39.2777 199.088 38.1974L199.667 37.6735C200.128 37.2563 200.369 36.6481 200.319 36.0281L200.256 35.2495Z" fill="#FFFACC" fill-opacity="0.2"/>
<path d="M918.486 264.48C918.356 262.875 920.079 261.781 921.476 262.584L922.153 262.973C922.693 263.283 923.345 263.324 923.92 263.085L924.64 262.784C926.127 262.164 927.699 263.465 927.368 265.041L927.207 265.806C927.079 266.414 927.241 267.048 927.647 267.52L928.155 268.113C929.205 269.335 928.453 271.232 926.851 271.404L926.075 271.487C925.456 271.554 924.904 271.904 924.58 272.435L924.173 273.102C923.335 274.478 921.298 274.349 920.64 272.879L920.321 272.166C920.067 271.598 919.563 271.181 918.958 271.038L918.198 270.857C916.63 270.485 916.123 268.508 917.318 267.428L917.897 266.904C918.359 266.487 918.6 265.879 918.549 265.259L918.486 264.48Z" fill="#FFFACC" fill-opacity="0.2"/>
<defs>
<linearGradient id="paint0_linear_1964_48" x1="812.234" y1="127.071" x2="627.805" y2="16.495" gradientUnits="userSpaceOnUse">
<stop stop-color="#FFFACC" stop-opacity="0.46"/>
<stop offset="1" stop-color="#FFFACC" stop-opacity="0"/>
</linearGradient>
</defs>
</svg>
