<svg width="1573" height="889" viewBox="0 0 1573 889" fill="none" xmlns="http://www.w3.org/2000/svg">
<path d="M645 587C651.4 620.6 441 665 221 701L4.51648 754.337C-1.4501 755.807 -0.0199203 764.659 6.10602 764.176L248.033 745.076C248.672 745.026 249.314 745.099 249.926 745.291L387.168 788.424C388.347 788.795 389.619 788.72 390.738 788.195C436.788 766.614 481.199 725 497 725C517 725 548 667 564 665C576.571 663.429 594.35 679.733 642.344 639.271C643.932 637.932 646.209 637.651 648.038 638.636L694.6 663.708C696.096 664.513 697.858 664.527 699.346 663.706C758.119 631.309 873.106 569 881 569C888.955 569 993.468 461.236 1052.98 414.791C1053.67 414.259 1054.45 413.935 1055.31 413.811L1238.95 387.295C1240.26 387.106 1241.44 386.419 1242.23 385.36C1260.59 360.866 1295 314.564 1295 313C1295 311.435 1354.92 288.069 1386.87 275.815C1388.24 275.293 1389.28 274.211 1389.77 272.839L1426.28 171.003C1426.74 169.723 1427.7 168.685 1428.94 168.129L1523.16 125.825C1524.34 125.296 1525.27 124.331 1525.75 123.132L1572.3 7.62041C1574.19 2.92612 1568.71 -1.28515 1564.66 1.75153L1483.57 62.5724C1483.19 62.856 1482.78 63.0846 1482.33 63.2513L1346.42 114.464C1345.49 114.813 1344.69 115.43 1344.12 116.237L1295 185L1250.19 239.55C1249.42 240.485 1248.35 241.113 1247.15 241.285C1238.17 242.569 1219.37 243.977 1203 241C1187.21 238.128 1182.04 228.6 1181.15 222.821C1180.97 221.652 1181.42 220.505 1182.18 219.602L1223.82 170.398C1224.58 169.495 1225 168.351 1225 167.168V122.893C1225 117.695 1218.05 115.948 1215.59 120.529L1181.95 183.229C1181.34 184.365 1180.31 185.222 1179.09 185.621L953.35 258.887C953.117 258.962 952.879 259.02 952.638 259.061L789.793 286.529C788.06 286.821 786.608 288.001 785.968 289.637L751.829 376.883C751.302 378.228 750.243 379.271 748.884 379.762C712.926 392.762 645 420.019 645 431C645 445 637 545 645 587Z" fill="url(#paint0_linear_1964_48)" fill-opacity="0.05"/>
<path d="M928 634C925.6 630.8 919 613.333 916 605C928 605 955.8 610.8 971 634C990 663 985 683 981 686C977 689 958 674 952 668C947.2 663.2 946 653.333 946 649C941 645.333 930.4 637.2 928 634Z" fill="#5B619B"/>
<path d="M621.191 528.241V528.241C646.575 500.251 669.55 470.167 689.872 438.31L691.083 436.411L693.174 435.57C728.235 421.48 762.043 404.454 794.239 384.673V384.673L843.73 456.499C881.949 511.965 889.728 582.928 864.432 645.356V645.356V645.356C798.407 658.691 730.101 637.944 682.644 590.142L621.191 528.241Z" fill="#373A59"/>
<path d="M818.828 554.294L870.141 510.583C871.314 509.584 872.882 509.182 874.391 509.492L975.642 530.324C980.414 531.306 981.107 537.836 976.648 539.798L859.275 591.439C858.441 591.806 857.522 591.938 856.619 591.821L817.558 586.757C810.847 585.888 806.92 578.743 809.781 572.612L817.54 555.986C817.843 555.336 818.283 554.759 818.828 554.294Z" fill="#1E2031"/>
<path d="M905 618C901 612.4 897.333 585.667 896 573L863 546L933 506C952.667 533.333 991 591 987 603C983 615 969 633.333 950 639C945 635.667 909 623.6 905 618Z" fill="#373A59"/>
<path d="M789 519.973L801.503 509L848 538H804.238L789 519.973Z" fill="#1C1F38"/>
<g style="mix-blend-mode:multiply" opacity="0.5">
<path d="M741.892 491.274L725.108 504.145L734.868 499.957L779.595 528.337L741.892 491.274Z" fill="#2B2E46" fill-opacity="0.5"/>
<path d="M809.456 573.689L805.275 577.41L758.119 551.035L724.301 517.973L809.456 573.689Z" fill="#2B2E46" fill-opacity="0.5"/>
<path d="M825.439 557.972L797.696 532.038L792.847 539.022L825.439 557.972Z" fill="#2B2E46" fill-opacity="0.5"/>
</g>
<path d="M1217.74 482.673C1250.48 495.741 1301.49 484.001 1322.91 476.498C1302.06 475.048 1245.82 409.777 1220.31 377.322L1199.27 371.891L1145.8 399.117L1070.4 342.3C1049.17 339.501 1004.22 335.634 994.213 342.555C984.21 349.477 964.515 484.37 955.917 550.951C971.968 559.738 1014 578.318 1053.71 582.349C1103.35 587.388 1161.54 526.372 1171.49 508.815C1181.44 491.257 1176.83 466.339 1217.74 482.673Z" fill="#49212D"/>
<path d="M991.078 444.693C987.425 469.83 966.581 473.67 956.616 472.448C924.048 427.336 868.692 337.952 907.814 341.308C956.716 345.502 1039.03 302.826 1064.7 310.165C1090.38 317.505 1132.79 380.757 1143.57 385.474C1154.35 390.191 1211.38 334.648 1245.71 388.61C1273.18 431.78 1309.11 465.752 1323.65 477.343C1308.85 477.107 1270.95 463.839 1237.69 412.649C1196.12 348.662 1181.66 396.851 1142.14 406.005C1102.63 415.158 1073.65 329.83 1027.49 343.283C981.326 356.735 995.643 413.272 991.078 444.693Z" fill="#992049"/>
<ellipse cx="878.5" cy="483" rx="69.5" ry="70" fill="#5B619B"/>
<path d="M632 526.924C644.362 518.721 678.886 466.976 694.602 442.129C704.112 436.607 719.96 430.849 707.281 451.989C694.602 473.128 663.169 510.754 649.037 526.924L694.602 592L632 526.924Z" fill="#86BEBA" fill-opacity="0.3"/>
<path d="M853.637 634.875L817 639C839.145 635.1 856.894 621.375 863 615L853.637 634.875Z" fill="#596B73"/>
<path d="M828.813 534.695L819 525.102L842.881 519C854.158 524.424 877.428 535.353 880.294 535.678C883.159 536.003 893.959 530.661 899 527.949C893.959 532.966 883.159 543 880.294 543C877.428 543 850.443 532.966 837.308 527.949V531.12C837.308 535.547 831.979 537.79 828.813 534.695Z" fill="#323971"/>
<path opacity="0.5" d="M979.598 396.892C974.566 419.027 954.436 433.52 945 438L966.231 339.973L1037 321L1006.03 333.454C996.012 337.483 988.951 346.585 987.204 357.243C985.314 368.781 982.671 383.377 979.598 396.892Z" fill="#49212D"/>
<path d="M956 443.805C949.69 490.89 871.702 528 837.287 528C802.871 528 773 503.899 773 484.506C773 465.113 800.899 449.391 835.315 449.391C869.73 449.391 956 400.71 956 443.805Z" fill="#992049"/>
<g style="mix-blend-mode:soft-light">
<path d="M827.738 511.882C901.32 505.226 943.664 459.187 955.638 437C959.427 455.067 932.479 480.186 921.294 492.072C875.898 527.73 835.633 532.88 808 521.787C842.344 529.314 891.688 506.731 905.504 495.241C878.029 508.237 842.212 511.75 827.738 511.882Z" fill="white"/>
</g>
<ellipse cx="834" cy="361.5" rx="141" ry="140.5" fill="#5B619B"/>
<path d="M929 427.356C929 468.581 883.781 502 828 502C772.219 502 727 468.581 727 427.356C727 386.132 769.447 394.749 825.227 394.749C881.008 394.749 929 386.132 929 427.356Z" fill="#1E2031"/>
<ellipse cx="847" cy="456" rx="34" ry="33" fill="white"/>
<path d="M694.369 432.303L686.475 368.021C684.892 355.132 688.566 342.149 696.667 332C679.38 400.219 808.315 388.621 904.249 368.307C927.484 363.387 950 380.707 950 404.457C950 416.671 943.836 428.193 933.305 434.381C831.433 494.238 751.96 481.327 712.534 461.094C701.78 455.575 695.842 444.3 694.369 432.303Z" fill="#838AC8"/>
<ellipse cx="920" cy="404.5" rx="19" ry="18.5" fill="#5B619B"/>
<ellipse cx="920" cy="404.5" rx="9" ry="8.5" fill="#838AC8"/>
<path fill-rule="evenodd" clip-rule="evenodd" d="M863.699 473.441C885.809 467.282 912.916 459.07 913.214 456.365C913.391 454.754 908.505 452.604 903.084 450.219C894.072 446.256 883.585 441.642 892.432 437.773C897.226 435.676 905.91 433.362 915.067 430.921C932.979 426.147 952.7 420.891 948.637 415.843C943.896 409.954 1023.78 392.275 1066.74 382.768C1079.42 379.963 1088.88 377.869 1092 377C1105.7 373.186 925.926 388.769 921.968 396.289C921.021 398.089 923.344 400.707 925.607 403.256C929.27 407.383 932.771 411.328 921.968 411.328C904.493 411.328 846.619 420.611 857.954 432.529C864.409 439.316 874.692 443.32 882.351 446.302C888.142 448.557 892.432 450.228 892.432 452.075C892.432 454.502 879.204 460.093 866.78 464.732L849.938 469.506L831.5 474C833.874 477.111 837.45 479.44 841.153 480.708C844.856 481.975 848.852 482.117 852.635 481.114C856.418 480.111 859.818 478.008 862.407 475.072C862.867 474.55 863.298 474.005 863.699 473.441Z" fill="url(#paint1_linear_1964_48)"/>
<path d="M859 466.94C858.698 469.201 857.736 471.382 856.236 473.093C854.736 474.805 852.765 476.03 850.573 476.615C848.38 477.2 846.065 477.117 843.919 476.378C841.773 475.639 839.376 474.2 838 472.386L849 469.5L859 466.94Z" fill="#1E2031"/>
<ellipse cx="971.5" cy="468" rx="41.5" ry="42" fill="#364073"/>
<path d="M795.221 86.5315C738.464 116.946 752.441 214.844 780.075 279V201.379C780.075 184.904 812.493 183.426 828.702 184.746L795.221 152.272L839.065 171.281C847.302 164.945 862.612 136.362 894.865 98.4122C925.157 62.7698 866.168 48.5131 795.221 86.5315Z" fill="#992049"/>
<path d="M1054.49 497.538C1049.19 518.293 1005.26 519.528 984.5 514.229C963.745 508.93 957.926 494.993 963.224 474.238C968.523 453.483 980.368 449.564 1001.12 454.863C1021.88 460.162 1059.79 476.783 1054.49 497.538Z" fill="#5B619B"/>
<path d="M849 640C842.6 638.4 851.667 616.667 857 606H892C880.333 618 855.4 641.6 849 640Z" fill="#212433"/>
<g style="mix-blend-mode:hard-light">
<path d="M939.178 517.419C943.705 517.573 963.509 501.629 972.845 493.638L1014.88 557.368L1004.79 587.613L969.125 603.397L955.543 602.937L948.734 636.691L926.768 649.54L927.229 635.962C919.683 635.706 900.425 637.773 883.759 648.083C880.92 651.612 881.86 670.675 882.685 679.766C869.11 690.257 842.012 709.654 842.227 703.317C842.496 695.396 848.193 694.457 842.764 687.476C837.335 680.495 832.846 679.21 813.336 686.479C793.827 693.747 798.086 701.821 787.899 701.476C777.712 701.131 772.917 708.898 762.999 700.632C755.064 694.02 743.668 702.621 738.962 707.748L730.349 727.847L704.605 751.897L705.448 727.003L692.998 726.581C684.871 732.347 666.985 745.184 660.463 750.401C653.941 755.617 638.651 758.724 631.822 759.626C629.149 771.619 622.634 796.698 617.953 801.071C612.102 806.536 602.817 813.019 588.18 810.257C573.543 807.495 567.692 812.961 558.407 819.444C550.979 824.63 549.545 835.758 549.756 840.674L516.434 854.272L487.525 871.418C487.742 865.006 489.807 850.878 496.329 845.661C504.482 839.14 482.977 838.411 483.208 831.622C483.392 826.191 460.021 824.795 448.312 824.776L435.44 836.801L381.112 834.959C387.276 831.392 400.806 822.259 405.609 814.266C410.413 806.272 419.389 797.74 423.277 794.473C428.213 782.557 438.124 757.593 438.278 753.067C438.431 748.541 418.199 743.701 408.063 741.848L451.303 736.516C460.684 738.344 480.835 741.142 486.39 737.705C493.335 733.409 499.07 731.338 500.586 720.061C501.798 711.039 508.112 709.743 511.117 710.222C520.325 706.003 540.691 693.552 548.486 677.503C558.231 657.443 587.276 669.755 587.506 662.966C587.69 657.535 582.531 653.735 579.928 652.514L540.314 651.171L588.349 638.072L635.388 654.393C644.884 652.827 663.937 647.884 664.182 640.642C664.489 631.59 670.11 632.913 672.565 627.332C675.021 621.751 708.707 630.823 709.359 611.586C707.702 606.999 700.752 598.078 697.484 594.192L665.793 593.118C674.534 591.526 693.187 587.249 697.868 582.876C703.719 577.41 755.361 591.621 776.905 591.219C794.139 590.896 814.524 584.564 822.562 581.438L836.872 560.399L853.025 551.883C858.46 547.536 870.758 536.851 876.467 528.888C882.176 520.925 870.097 516.211 863.345 514.85L939.178 517.419Z" fill="url(#paint2_linear_1964_48)" fill-opacity="0.5"/>
</g>
<path d="M780.304 278C763.343 229.223 742.937 122.334 797 85C778.184 103.456 748.502 167.895 780.304 278Z" fill="#C45C84"/>
<path d="M774 122C785.059 112.36 819.341 94.2056 868 98.7041C846.146 100.311 796.75 107.219 774 122Z" fill="#C45C84"/>
<path d="M802 145L857 148.929L851.42 156L802 145Z" fill="#731132"/>
<path d="M1036.64 550.435L1010.86 563.747L1015.09 571.58L1043.43 556.414L1036.64 550.435Z" fill="#C75C2E"/>
<path d="M943.582 598.85L969.173 585.639L973.399 593.472L944.621 608.716L943.582 598.85Z" fill="#C75C2E"/>
<path d="M909.082 532.865L936.406 519.612L929.725 507.273L901.113 526.583L909.082 532.865Z" fill="#C75C2E"/>
<path d="M999.634 482.453L972.007 497.114L967.781 489.281L1000 474.198L999.634 482.453Z" fill="#C75C2E"/>
<path d="M1091.73 459.511L1106.68 487.775L990.198 553.919L971.509 518.589L1091.73 459.511Z" fill="#5B619B"/>
<path d="M962.177 569.288L942.748 532.648L497.831 768.745L489.416 796.669L517.261 805.385L962.177 569.288Z" fill="#84BCB9"/>
<path d="M955.958 561.544L946.315 543.359L509.777 775.011L506 789L519.42 793.196L955.958 561.544Z" fill="white"/>
<path d="M961.792 641.294L944.547 608.695L972.585 593.863L958.3 566.86L1000.78 544.388L1015.06 571.391L1043.49 556.356L1041.92 598.907L961.792 641.294Z" fill="#EB892E"/>
<path d="M901.13 526.621L902.326 485.102L983.168 442.336L1000.07 474.282L971.647 489.317L985.646 515.779L943.167 538.251L929.168 511.789L901.13 526.621Z" fill="#EB892E"/>
<path d="M1077.11 473.278L1069.94 506.297" stroke="#43487B" stroke-width="3.20474" stroke-linecap="round"/>
<path d="M1056.08 483.1L1052.82 500.196" stroke="#43487B" stroke-width="3.20474" stroke-linecap="round"/>
<path d="M987.666 566.208C986.144 568.632 983.444 570.06 980.584 569.954L957.876 569.113C955.015 569.007 952.429 567.383 951.09 564.853L940.464 544.767C939.126 542.237 939.239 539.185 940.761 536.76L952.843 517.515C954.365 515.091 957.065 513.663 959.925 513.769L982.633 514.61C985.494 514.715 988.08 516.339 989.419 518.87L1000.04 538.956C1001.38 541.486 1001.27 544.538 999.748 546.962L987.666 566.208Z" fill="#FFB23E"/>
<path d="M1008.37 503.783L1005.4 520.931" stroke="#43487B" stroke-width="3.20474" stroke-linecap="round"/>
<path d="M983.928 559.141C982.406 561.566 979.707 562.994 976.846 562.888L962.126 562.343C959.266 562.237 956.679 560.613 955.341 558.083L948.453 545.062C947.114 542.532 947.227 539.48 948.749 537.056L956.581 524.581C958.103 522.157 960.803 520.729 963.663 520.834L978.383 521.38C981.244 521.486 983.83 523.109 985.169 525.64L992.057 538.66C993.395 541.19 993.282 544.242 991.76 546.666L983.928 559.141Z" fill="url(#paint3_radial_1964_48)"/>
<path d="M986.722 511.929L1089.62 461.177L1089.09 459.085L986.722 511.929Z" fill="#FFFACC"/>
<rect x="984.706" y="509.347" width="43.9656" height="5.99532" rx="2.99766" transform="rotate(62.1208 984.706 509.347)" fill="#FFB23E"/>
<rect x="1095.99" y="450.474" width="43.9656" height="11.9906" rx="5.99532" transform="rotate(62.1208 1095.99 450.474)" fill="#FFB23E"/>
<path d="M1001.28 545.695L993.072 529.902" stroke="#FFFACC" stroke-width="3.20474" stroke-linecap="round"/>
<circle cx="1120.93" cy="461.501" r="20.9836" transform="rotate(62.1208 1120.93 461.501)" fill="url(#paint4_radial_1964_48)"/>
<path fill-rule="evenodd" clip-rule="evenodd" d="M1110.08 440.763L1105.67 456.095L1120.82 461.078L1116.41 476.409L1131.57 481.392C1128.9 482.803 1125.98 483.675 1122.98 483.958C1119.97 484.241 1116.94 483.929 1114.06 483.041C1111.17 482.152 1108.49 480.705 1106.17 478.78C1103.84 476.855 1101.92 474.492 1100.51 471.824C1099.1 469.156 1098.22 466.237 1097.94 463.232C1097.66 460.227 1097.97 457.196 1098.86 454.312C1099.75 451.427 1101.19 448.746 1103.12 446.422C1105.04 444.097 1107.41 442.174 1110.08 440.763L1110.08 440.763L1110.08 440.763Z" fill="#FFB23E"/>
<g style="mix-blend-mode:hard-light">
<path d="M1133.53 449.762C1136.88 452.843 1140.84 462.985 1135.38 470.942" stroke="#EAD1D0" stroke-width="2.00296" stroke-linecap="round" stroke-linejoin="round"/>
</g>
<g style="mix-blend-mode:hard-light">
<circle cx="1124.11" cy="447.923" r="4.31734" transform="rotate(75.6905 1124.11 447.923)" fill="#EAD1D0"/>
</g>
<path d="M1106.95 479.351L1111.17 487.185" stroke="#FFFACC" stroke-width="3.20474" stroke-linecap="round"/>
<path d="M994.035 549.229L985.582 562.477" stroke="#FFFACC" stroke-width="3.20474" stroke-linecap="round"/>
<path d="M1034.3 497.566L1027.13 530.585" stroke="#43487B" stroke-width="3.20474" stroke-linecap="round"/>
<path d="M1092.21 482.795L1090.41 492.249" stroke="#43487B" stroke-width="3.20474" stroke-linecap="round"/>
<g style="mix-blend-mode:soft-light">
<circle cx="980.786" cy="545.256" r="6.476" transform="rotate(75.6905 980.786 545.256)" fill="white"/>
</g>
<path d="M1016.55 478.49C1004.81 481.4 1012.71 507.385 1018.13 520.014C1025.35 544.34 1053.21 540.132 1059.91 537.704C1066.61 535.275 1079.82 513.648 1093.41 507.033C1107.01 500.418 1070.29 457.483 1061.2 462.302C1048.37 469.1 1041.75 465.301 1034.12 468.286C1025.66 471.598 1027.75 475.715 1016.55 478.49Z" fill="#3C4171"/>
<path d="M1057.81 518.48C1058.34 519.677 1058.62 531.991 1058.69 537.999C1066.43 538.703 1078.19 522.679 1079.74 520.01C1080.99 517.874 1088.58 511.299 1092.22 508.279L1091.04 501.254L1081.71 486.368L1087.65 497.811L1089.49 508.739L1082.79 514.279C1082.42 512.87 1081.72 509.804 1081.87 508.815C1082.03 507.826 1072.07 494.277 1067.07 487.626C1069.58 492.958 1074.71 503.92 1075.23 505.116C1075.75 506.313 1074.82 517.761 1074.28 523.336L1066.94 532.196L1067.66 529.267C1067.11 527.619 1066.11 523.908 1066.47 522.241C1066.84 520.575 1051.62 497.582 1043.97 486.294C1048.37 496.524 1057.29 517.284 1057.81 518.48Z" fill="#5B619B"/>
<g style="mix-blend-mode:hard-light" filter="url(#filter0_f_1964_48)">
<path d="M1027.18 619.668C1025.72 622.13 1023.05 623.624 1020.19 623.59L928.297 622.471C925.435 622.436 922.808 620.877 921.407 618.381L876.429 538.239C875.028 535.743 875.065 532.689 876.527 530.228L923.442 451.204C924.904 448.743 927.567 447.248 930.429 447.283L1022.32 448.402C1025.19 448.437 1027.81 449.996 1029.21 452.492L1074.19 532.634C1075.59 535.13 1075.55 538.184 1074.09 540.645L1027.18 619.668Z" fill="url(#paint5_radial_1964_48)"/>
</g>
<g style="mix-blend-mode:hard-light" filter="url(#filter1_f_1964_48)">
<path d="M1137.41 478.279C1135.95 480.74 1133.28 482.235 1130.42 482.2L1105.31 481.894C1102.45 481.859 1099.82 480.3 1098.42 477.804L1086.13 455.907C1084.73 453.411 1084.77 450.357 1086.23 447.896L1099.05 426.305C1100.51 423.843 1103.17 422.349 1106.04 422.384L1131.14 422.689C1134.01 422.724 1136.63 424.283 1138.03 426.779L1150.32 448.676C1151.72 451.172 1151.69 454.226 1150.23 456.687L1137.41 478.279Z" fill="url(#paint6_radial_1964_48)"/>
</g>
<path d="M701.591 427.396L699.173 381.416C699.119 380.388 700.716 379.782 701.505 380.444C704.629 383.068 708.927 384.494 712.159 385.142C713.66 385.443 714.844 386.693 714.881 388.223L716.308 447.559C716.324 448.202 715.633 448.616 715.073 448.3L714.244 447.831C709.131 444.941 705.199 440.341 703.141 434.84C702.247 432.452 701.724 429.942 701.591 427.396Z" fill="#202333"/>
<path fill-rule="evenodd" clip-rule="evenodd" d="M705.279 382.908C703.939 382.25 702.647 381.454 701.51 380.5C700.722 379.837 699.125 380.444 699.179 381.472L701.596 427.452C701.73 429.998 702.253 432.508 703.146 434.896C704.265 437.886 705.938 440.61 708.053 442.938L705.279 382.908Z" fill="#ACBEE0"/>
<path d="M741.007 393.92C736.572 393.405 732.296 391.884 729.108 390.625C727.137 389.847 725.107 391.298 725.206 393.415L727.966 452.521C728.012 453.518 728.548 454.434 729.423 454.915C733.016 456.89 736.903 458.279 740.465 459.205C742.287 459.678 744 458.257 744 456.376V397.099C744 395.443 742.653 394.11 741.007 393.92Z" fill="#202333"/>
<path d="M756 460.061V399.876C756 397.914 757.866 396.426 759.82 396.61C765.527 397.15 773.711 396.773 779.448 396.319C781.305 396.172 782.881 397.7 782.751 399.558L778.36 462.21C778.25 463.781 776.945 464.999 775.372 464.91C770.275 464.622 763.213 463.701 758.527 463.008C757.068 462.792 756 461.536 756 460.061Z" fill="#202333"/>
<path fill-rule="evenodd" clip-rule="evenodd" d="M728.506 390.244C728.337 390.18 728.17 390.116 728.006 390.053C726.038 389.296 724.028 390.756 724.129 392.862L727.006 452.565C727.055 453.576 727.606 454.501 728.499 454.977C729.313 455.411 730.142 455.818 730.979 456.197L728.506 390.244Z" fill="#ACBEE0"/>
<path fill-rule="evenodd" clip-rule="evenodd" d="M759.306 396.571C757.783 396.892 756.536 398.18 756.536 399.784V459.829C756.536 461.301 757.6 462.556 759.055 462.774C759.138 462.786 759.222 462.799 759.306 462.812V396.571Z" fill="#ACBEE0"/>
<circle cx="954.5" cy="356.5" r="11.5" fill="#838AC8"/>
<path d="M883 263C898.25 270.62 931.8 294.687 944 330" stroke="#838AC8" stroke-width="20" stroke-linecap="round"/>
<path d="M784.111 537.448L782.889 534.276L779.222 526.741C778.841 526.531 778.521 526.277 778.261 525.993C776.302 523.855 777.679 520 780.958 520H787.974C789.162 520 790.312 520.423 791.216 521.193L793.074 522.776L798.251 528.111C799.351 529.245 799.851 530.833 799.598 532.393L798.928 536.525C798.829 537.135 798.617 537.722 798.304 538.255L797.188 540.156C796.175 541.881 794.231 542.837 792.247 542.585L788.883 542.157C787.18 541.941 785.708 540.868 784.982 539.313L784.111 537.448Z" fill="#5B619B"/>
<path d="M785 533.278L782.625 543L779.854 540.278L766 529L778.271 522L785 533.278Z" fill="#32365D"/>
<path d="M753.032 537.196L751.064 549.425C751.021 549.688 751 549.953 751 550.22V555.623C751 557.792 752.399 559.714 754.463 560.381L770.454 565.547C771.273 565.812 772.01 566.283 772.593 566.916L775.727 570.316C776.414 571.06 777.31 571.579 778.298 571.803L789.633 574.372C791.353 574.761 793.15 574.217 794.364 572.938L799.09 567.962C800.278 566.711 800.737 564.936 800.304 563.265L799.257 559.22C798.877 557.754 797.854 556.539 796.474 555.916L788.633 552.376C787.78 551.991 787.053 551.375 786.533 550.597L774.462 532.533C773.936 531.746 773.197 531.124 772.331 530.74L766.636 528.217C764.946 527.468 762.982 527.712 761.527 528.852L754.885 534.055C753.894 534.831 753.233 535.953 753.032 537.196Z" fill="#5B619B"/>
<path d="M767.676 541.333L774.559 532L787.941 546.778L788.706 552.222L791 553.389L786.029 560L787.176 554.944V549.5L784.118 544.833L778 554.167L774.941 560L775.706 551.056L781.059 541.333L778.765 538.611L777.235 537.833L769.971 544.833L765 552.611L767.676 541.333Z" fill="#32365D"/>
<g style="mix-blend-mode:soft-light">
<circle cx="1051" cy="623" r="34" fill="white"/>
</g>
<g style="mix-blend-mode:soft-light">
<circle cx="994" cy="595" r="14" fill="white"/>
</g>
<g style="mix-blend-mode:soft-light">
<circle cx="1049.5" cy="565.5" r="9.5" fill="white"/>
</g>
<path d="M804 745C813.6 743.4 819.333 729 821 722C825 727.333 833 739.4 833 745V755L830 774H821C817.333 772.333 808.8 770 804 774C799.2 778 783.333 779.667 776 780C779.333 774.667 786.2 763 787 759C788 754 792 747 804 745Z" fill="url(#paint7_linear_1964_48)" fill-opacity="0.1"/>
<path d="M705.869 533.569C707.915 530.148 725.475 542.979 734 549.822L728.885 554.1H718.656C717.235 556.096 712.689 560.43 705.869 561.798C699.049 563.167 696.208 557.236 695.639 554.1L682 542.979C689.104 541.268 703.823 536.991 705.869 533.569Z" fill="url(#paint8_linear_1964_48)" fill-opacity="0.1"/>
<path d="M533 571L566 582L590 607L543 598L533 607H519V629L487 652H475C480.667 644.333 491 628 487 624C483 620 466 625.667 458 629L431 652C416.333 647.667 385.6 637 380 629C374.4 621 361 625.667 355 629L318 607H380C389.667 611.667 410 620 414 616C418 612 438.333 608.333 448 607L440 591H502L533 571Z" fill="url(#paint9_linear_1964_48)" fill-opacity="0.1"/>
<g style="mix-blend-mode:multiply">
<path d="M844.5 495C828.25 498 795.5 496.833 788 496C794.4 497.6 809.5 500.833 812 501C822.977 500.002 833.89 497.984 844.5 495Z" fill="#838AC8"/>
</g>
<path opacity="0.3" d="M1052.14 113.285C1046.89 122.078 977 226.2 969.884 221.958C962.768 217.715 1021.13 106.716 1026.37 97.9222C1031.61 89.1286 1041.63 85.439 1048.74 89.6812C1055.86 93.9234 1057.38 104.491 1052.14 113.285Z" fill="#DEFFB7"/>
<path opacity="0.3" d="M1085.44 196.021C1080.81 199.656 1021.74 241.082 1018.8 237.332C1015.86 233.582 1070.16 186.076 1074.79 182.441C1079.43 178.805 1085.57 178.898 1088.51 182.648C1091.45 186.398 1090.08 192.385 1085.44 196.021Z" fill="#B7D6D6"/>
<path opacity="0.3" d="M1105.44 264.59C1100.7 265.535 1042.15 273.986 1041.38 270.154C1040.62 266.321 1097.93 251.656 1102.67 250.711C1107.41 249.766 1111.87 252.107 1112.63 255.939C1113.39 259.772 1110.17 263.645 1105.44 264.59Z" fill="#EAD1D0"/>
<path opacity="0.6" d="M496.434 403.088C496.632 401.726 498.116 400.966 499.337 401.602L519.721 412.215C520.109 412.417 520.552 412.487 520.983 412.413L543.634 408.528C544.991 408.295 546.172 409.472 545.945 410.83L542.15 433.496C542.077 433.927 542.149 434.37 542.352 434.757L553.046 455.099C553.687 456.317 552.933 457.804 551.571 458.007L528.841 461.402C528.409 461.467 528.01 461.671 527.705 461.984L511.663 478.441C510.702 479.427 509.055 479.17 508.441 477.937L498.188 457.369C497.993 456.978 497.675 456.662 497.283 456.468L476.675 446.297C475.44 445.687 475.176 444.042 476.159 443.077L492.552 426.97C492.863 426.664 493.066 426.264 493.129 425.831L496.434 403.088Z" fill="#FFECEB" fill-opacity="0.3"/>
<path d="M506.51 420.984C506.708 419.621 508.192 418.861 509.413 419.497L518.626 424.294C519.014 424.496 519.457 424.565 519.888 424.492L530.126 422.736C531.483 422.503 532.664 423.679 532.436 425.037L530.721 435.282C530.649 435.713 530.72 436.156 530.923 436.543L535.757 445.737C536.398 446.956 535.644 448.443 534.282 448.646L524.009 450.18C523.576 450.245 523.177 450.449 522.872 450.762L515.621 458.201C514.66 459.186 513.014 458.929 512.399 457.697L507.765 448.4C507.57 448.009 507.252 447.693 506.861 447.499L497.546 442.902C496.311 442.292 496.047 440.647 497.029 439.682L504.439 432.402C504.751 432.096 504.953 431.695 505.016 431.263L506.51 420.984Z" fill="white" fill-opacity="0.6"/>
<path opacity="0.3" d="M633.828 277.773C634.926 276.942 636.515 277.443 636.938 278.753L638.449 283.432C638.583 283.848 638.85 284.208 639.209 284.458L643.242 287.269C644.372 288.057 644.387 289.723 643.271 290.53L639.288 293.413C638.934 293.669 638.674 294.034 638.547 294.452L637.12 299.157C636.72 300.475 635.14 301.004 634.027 300.192L630.055 297.295C629.702 297.038 629.274 296.903 628.837 296.911L623.922 297.008C622.545 297.035 621.554 295.696 621.982 294.387L623.51 289.714C623.646 289.299 623.642 288.85 623.498 288.437L621.888 283.792C621.436 282.491 622.404 281.134 623.781 281.137L628.697 281.146C629.134 281.147 629.56 281.004 629.908 280.741L633.828 277.773Z" fill="#B3D689"/>
<path opacity="0.3" d="M633.209 282.94C633.758 282.524 634.553 282.775 634.764 283.43L635.632 286.118C635.699 286.326 635.833 286.507 636.012 286.632L638.33 288.247C638.895 288.641 638.902 289.474 638.344 289.878L636.056 291.534C635.879 291.662 635.748 291.845 635.685 292.054L634.865 294.757C634.665 295.416 633.875 295.681 633.319 295.275L631.036 293.61C630.86 293.481 630.646 293.414 630.427 293.418L627.603 293.474C626.914 293.487 626.419 292.817 626.633 292.163L627.511 289.478C627.579 289.27 627.577 289.046 627.505 288.839L626.579 286.17C626.354 285.52 626.838 284.841 627.526 284.842L630.351 284.848C630.57 284.848 630.782 284.777 630.957 284.645L633.209 282.94Z" fill="white"/>
<path opacity="0.3" d="M534.225 304.812C534.765 303.545 536.393 303.189 537.411 304.116L543.906 310.026C544.229 310.32 544.64 310.5 545.076 310.539L553.822 311.314C555.194 311.435 556.035 312.874 555.469 314.129L551.855 322.132C551.675 322.531 551.631 322.977 551.729 323.403L553.694 331.961C554.003 333.303 552.894 334.548 551.526 334.397L542.798 333.433C542.363 333.385 541.925 333.481 541.55 333.706L534.018 338.22C532.837 338.927 531.311 338.258 531.032 336.91L529.251 328.311C529.162 327.883 528.936 327.496 528.606 327.209L521.986 321.441C520.948 320.536 521.113 318.877 522.309 318.195L529.936 313.845C530.316 313.628 530.614 313.293 530.785 312.891L534.225 304.812Z" fill="#B7D6D6"/>
<path opacity="0.6" d="M536.44 313.893C536.98 312.626 538.608 312.271 539.626 313.198L541.996 315.354C542.319 315.648 542.73 315.828 543.165 315.867L546.356 316.149C547.728 316.271 548.569 317.71 548.003 318.965L546.684 321.884C546.504 322.283 546.46 322.729 546.558 323.155L547.275 326.277C547.583 327.619 546.475 328.864 545.106 328.713L541.922 328.362C541.488 328.314 541.049 328.409 540.674 328.634L537.926 330.281C536.745 330.989 535.219 330.319 534.94 328.971L534.29 325.834C534.202 325.406 533.975 325.019 533.646 324.732L531.23 322.627C530.192 321.723 530.357 320.064 531.553 319.382L534.336 317.795C534.716 317.578 535.014 317.243 535.185 316.841L536.44 313.893Z" fill="white"/>
<defs>
<filter id="filter0_f_1964_48" x="795.404" y="367.283" width="359.812" height="336.308" filterUnits="userSpaceOnUse" color-interpolation-filters="sRGB">
<feFlood flood-opacity="0" result="BackgroundImageFix"/>
<feBlend mode="normal" in="SourceGraphic" in2="BackgroundImageFix" result="shape"/>
<feGaussianBlur stdDeviation="40" result="effect1_foregroundBlur_1964_48"/>
</filter>
<filter id="filter1_f_1964_48" x="1005.11" y="342.383" width="226.24" height="219.817" filterUnits="userSpaceOnUse" color-interpolation-filters="sRGB">
<feFlood flood-opacity="0" result="BackgroundImageFix"/>
<feBlend mode="normal" in="SourceGraphic" in2="BackgroundImageFix" result="shape"/>
<feGaussianBlur stdDeviation="40" result="effect1_foregroundBlur_1964_48"/>
</filter>
<linearGradient id="paint0_linear_1964_48" x1="1489" y1="173" x2="393" y2="789" gradientUnits="userSpaceOnUse">
<stop stop-color="#EAD1D0"/>
<stop offset="0.445562" stop-color="#B7D6D6"/>
<stop offset="1" stop-color="#B3D689"/>
</linearGradient>
<linearGradient id="paint1_linear_1964_48" x1="962.122" y1="376.408" x2="962.122" y2="481.774" gradientUnits="userSpaceOnUse">
<stop stop-color="#EBD2D2"/>
<stop offset="0.345" stop-color="#BFD6B7"/>
<stop offset="0.82" stop-color="#B7D6D6"/>
</linearGradient>
<linearGradient id="paint2_linear_1964_48" x1="981" y1="541" x2="306.114" y2="876.731" gradientUnits="userSpaceOnUse">
<stop stop-color="#FFD5D3" stop-opacity="0.3"/>
<stop offset="0.365" stop-color="#C3FFFF" stop-opacity="0.34"/>
<stop offset="1" stop-color="#D9FFAB" stop-opacity="0.19"/>
</linearGradient>
<radialGradient id="paint3_radial_1964_48" cx="0" cy="0" r="1" gradientUnits="userSpaceOnUse" gradientTransform="translate(970.255 541.861) rotate(-117.879) scale(23.9813 23.9813)">
<stop stop-color="#EAD1D0"/>
<stop offset="0.475" stop-color="#B7D6D6"/>
<stop offset="1" stop-color="#B3D689"/>
</radialGradient>
<radialGradient id="paint4_radial_1964_48" cx="0" cy="0" r="1" gradientUnits="userSpaceOnUse" gradientTransform="translate(1120.93 461.501) rotate(90) scale(20.9836)">
<stop stop-color="#EAD1D0"/>
<stop offset="0.545" stop-color="#B7D6D6"/>
<stop offset="0.965" stop-color="#B3D689"/>
</radialGradient>
<radialGradient id="paint5_radial_1964_48" cx="0" cy="0" r="1" gradientUnits="userSpaceOnUse" gradientTransform="translate(975.31 535.436) rotate(-119.303) scale(101.152 101.152)">
<stop stop-color="#EAD1D0"/>
<stop offset="0.475" stop-color="#B7D6D6"/>
<stop offset="1" stop-color="#B3D689"/>
</radialGradient>
<radialGradient id="paint6_radial_1964_48" cx="0" cy="0" r="1" gradientUnits="userSpaceOnUse" gradientTransform="translate(1118.23 452.292) rotate(-119.303) scale(34.361 34.361)">
<stop stop-color="#EAD1D0"/>
<stop offset="0.475" stop-color="#B7D6D6"/>
<stop offset="1" stop-color="#B3D689"/>
</radialGradient>
<linearGradient id="paint7_linear_1964_48" x1="804.5" y1="722" x2="776" y2="804" gradientUnits="userSpaceOnUse">
<stop stop-color="#EAD1D0"/>
<stop offset="1" stop-color="#EAD1D0" stop-opacity="0"/>
</linearGradient>
<linearGradient id="paint8_linear_1964_48" x1="751" y1="555" x2="647" y2="526" gradientUnits="userSpaceOnUse">
<stop stop-color="#B7D6D6"/>
<stop offset="1" stop-color="#B7D6D6" stop-opacity="0"/>
</linearGradient>
<linearGradient id="paint9_linear_1964_48" x1="564" y1="612" x2="269" y2="612" gradientUnits="userSpaceOnUse">
<stop stop-color="#B3D689"/>
<stop offset="1" stop-color="#B3D689" stop-opacity="0"/>
</linearGradient>
</defs>
</svg>
