<svg width="875" height="204" viewBox="0 0 875 204" fill="none" xmlns="http://www.w3.org/2000/svg">
<path opacity="0.8" d="M112.1 42H135.7V112H112.1V42ZM90.3 112H66.7V42H90.3V112ZM113.7 86.2H88.7V66.8H113.7V86.2ZM139.471 112L170.071 42H193.271L223.871 112H199.471L176.871 53.2H186.071L163.471 112H139.471ZM157.671 99.8L163.671 82.8H195.871L201.871 99.8H157.671ZM262.861 113.6C257.261 113.6 252.061 112.733 247.261 111C242.528 109.2 238.394 106.667 234.861 103.4C231.394 100.133 228.694 96.2667 226.761 91.8C224.828 87.3333 223.861 82.4 223.861 77C223.861 71.6 224.828 66.6667 226.761 62.2C228.694 57.7333 231.394 53.8667 234.861 50.6C238.394 47.3333 242.528 44.8333 247.261 43.1C252.061 41.3 257.261 40.4 262.861 40.4C269.728 40.4 275.794 41.6 281.061 44C286.394 46.4 290.794 49.8667 294.261 54.4L279.361 67.7C277.294 65.1 274.994 63.1 272.461 61.7C269.994 60.2333 267.194 59.5 264.061 59.5C261.594 59.5 259.361 59.9 257.361 60.7C255.361 61.5 253.628 62.6667 252.161 64.2C250.761 65.7333 249.661 67.6 248.861 69.8C248.061 71.9333 247.661 74.3333 247.661 77C247.661 79.6667 248.061 82.1 248.861 84.3C249.661 86.4333 250.761 88.2667 252.161 89.8C253.628 91.3333 255.361 92.5 257.361 93.3C259.361 94.1 261.594 94.5 264.061 94.5C267.194 94.5 269.994 93.8 272.461 92.4C274.994 90.9333 277.294 88.9 279.361 86.3L294.261 99.6C290.794 104.067 286.394 107.533 281.061 110C275.794 112.4 269.728 113.6 262.861 113.6ZM322.175 97L320.875 71.1L347.275 42H372.975L343.375 74.6L330.275 88L322.175 97ZM301.075 112V42H324.275V112H301.075ZM347.075 112L326.475 84.8L341.775 68.6L374.375 112H347.075ZM377.54 112V42H401.14V112H377.54ZM412.501 112V42H436.101V93.7H467.701V112H412.501ZM474.22 112V42H497.82V93.7H529.42V112H474.22ZM535.938 112V42H559.538V112H535.938ZM570.899 112V42H590.299L625.899 84.6H616.899V42H639.899V112H620.499L584.899 69.4H593.899V112H570.899ZM687.97 113.6C682.304 113.6 677.037 112.7 672.17 110.9C667.37 109.1 663.204 106.567 659.67 103.3C656.137 99.9667 653.37 96.0667 651.37 91.6C649.437 87.1333 648.47 82.2667 648.47 77C648.47 71.6667 649.437 66.8 651.37 62.4C653.37 57.9333 656.137 54.0667 659.67 50.8C663.204 47.4667 667.37 44.9 672.17 43.1C677.037 41.3 682.304 40.4 687.97 40.4C693.704 40.4 698.97 41.3 703.77 43.1C708.57 44.9 712.737 47.4667 716.27 50.8C719.804 54.0667 722.537 57.9333 724.47 62.4C726.47 66.8 727.47 71.6667 727.47 77C727.47 82.2667 726.47 87.1333 724.47 91.6C722.537 96.0667 719.804 99.9667 716.27 103.3C712.737 106.567 708.57 109.1 703.77 110.9C698.97 112.7 693.704 113.6 687.97 113.6ZM687.97 94.5C690.17 94.5 692.204 94.1 694.07 93.3C696.004 92.5 697.67 91.3667 699.07 89.9C700.537 88.3667 701.67 86.5333 702.47 84.4C703.27 82.2 703.67 79.7333 703.67 77C703.67 74.2667 703.27 71.8333 702.47 69.7C701.67 67.5 700.537 65.6667 699.07 64.2C697.67 62.6667 696.004 61.5 694.07 60.7C692.204 59.9 690.17 59.5 687.97 59.5C685.77 59.5 683.704 59.9 681.77 60.7C679.904 61.5 678.237 62.6667 676.77 64.2C675.37 65.6667 674.27 67.5 673.47 69.7C672.67 71.8333 672.27 74.2667 672.27 77C672.27 79.7333 672.67 82.2 673.47 84.4C674.27 86.5333 675.37 88.3667 676.77 89.9C678.237 91.3667 679.904 92.5 681.77 93.3C683.704 94.1 685.77 94.5 687.97 94.5ZM736.036 112V42H759.636V112H736.036ZM797.097 113.6C791.23 113.6 785.564 112.933 780.097 111.6C774.63 110.267 770.13 108.533 766.597 106.4L774.197 89.2C777.53 91.1333 781.23 92.7 785.297 93.9C789.43 95.0333 793.43 95.6 797.297 95.6C799.564 95.6 801.33 95.4667 802.597 95.2C803.93 94.8667 804.897 94.4333 805.497 93.9C806.097 93.3 806.397 92.6 806.397 91.8C806.397 90.5333 805.697 89.5333 804.297 88.8C802.897 88.0667 801.03 87.4667 798.697 87C796.43 86.4667 793.93 85.9333 791.197 85.4C788.464 84.8 785.697 84.0333 782.897 83.1C780.164 82.1667 777.63 80.9333 775.297 79.4C773.03 77.8667 771.197 75.8667 769.797 73.4C768.397 70.8667 767.697 67.7333 767.697 64C767.697 59.6667 768.897 55.7333 771.297 52.2C773.764 48.6 777.397 45.7333 782.197 43.6C787.064 41.4667 793.097 40.4 800.297 40.4C805.03 40.4 809.697 40.9 814.297 41.9C818.897 42.9 823.03 44.4333 826.697 46.5L819.597 63.6C816.13 61.8667 812.764 60.5667 809.497 59.7C806.297 58.8333 803.164 58.4 800.097 58.4C797.83 58.4 796.03 58.6 794.697 59C793.364 59.4 792.397 59.9333 791.797 60.6C791.264 61.2667 790.997 62 790.997 62.8C790.997 64 791.697 64.9667 793.097 65.7C794.497 66.3667 796.33 66.9333 798.597 67.4C800.93 67.8667 803.464 68.3667 806.197 68.9C808.997 69.4333 811.764 70.1667 814.497 71.1C817.23 72.0333 819.73 73.2667 821.997 74.8C824.33 76.3333 826.197 78.3333 827.597 80.8C828.997 83.2667 829.697 86.3333 829.697 90C829.697 94.2667 828.464 98.2 825.997 101.8C823.597 105.333 819.997 108.2 815.197 110.4C810.397 112.533 804.364 113.6 797.097 113.6Z" fill="#A977AB"/>
<path opacity="0.8" d="M112.1 47H135.7V117H112.1V47ZM90.3 117H66.7V47H90.3V117ZM113.7 91.2H88.7V71.8H113.7V91.2ZM139.471 117L170.071 47H193.271L223.871 117H199.471L176.871 58.2H186.071L163.471 117H139.471ZM157.671 104.8L163.671 87.8H195.871L201.871 104.8H157.671ZM262.861 118.6C257.261 118.6 252.061 117.733 247.261 116C242.528 114.2 238.394 111.667 234.861 108.4C231.394 105.133 228.694 101.267 226.761 96.8C224.828 92.3333 223.861 87.4 223.861 82C223.861 76.6 224.828 71.6667 226.761 67.2C228.694 62.7333 231.394 58.8667 234.861 55.6C238.394 52.3333 242.528 49.8333 247.261 48.1C252.061 46.3 257.261 45.4 262.861 45.4C269.728 45.4 275.794 46.6 281.061 49C286.394 51.4 290.794 54.8667 294.261 59.4L279.361 72.7C277.294 70.1 274.994 68.1 272.461 66.7C269.994 65.2333 267.194 64.5 264.061 64.5C261.594 64.5 259.361 64.9 257.361 65.7C255.361 66.5 253.628 67.6667 252.161 69.2C250.761 70.7333 249.661 72.6 248.861 74.8C248.061 76.9333 247.661 79.3333 247.661 82C247.661 84.6667 248.061 87.1 248.861 89.3C249.661 91.4333 250.761 93.2667 252.161 94.8C253.628 96.3333 255.361 97.5 257.361 98.3C259.361 99.1 261.594 99.5 264.061 99.5C267.194 99.5 269.994 98.8 272.461 97.4C274.994 95.9333 277.294 93.9 279.361 91.3L294.261 104.6C290.794 109.067 286.394 112.533 281.061 115C275.794 117.4 269.728 118.6 262.861 118.6ZM322.175 102L320.875 76.1L347.275 47H372.975L343.375 79.6L330.275 93L322.175 102ZM301.075 117V47H324.275V117H301.075ZM347.075 117L326.475 89.8L341.775 73.6L374.375 117H347.075ZM377.54 117V47H401.14V117H377.54ZM412.501 117V47H436.101V98.7H467.701V117H412.501ZM474.22 117V47H497.82V98.7H529.42V117H474.22ZM535.938 117V47H559.538V117H535.938ZM570.899 117V47H590.299L625.899 89.6H616.899V47H639.899V117H620.499L584.899 74.4H593.899V117H570.899ZM687.97 118.6C682.304 118.6 677.037 117.7 672.17 115.9C667.37 114.1 663.204 111.567 659.67 108.3C656.137 104.967 653.37 101.067 651.37 96.6C649.437 92.1333 648.47 87.2667 648.47 82C648.47 76.6667 649.437 71.8 651.37 67.4C653.37 62.9333 656.137 59.0667 659.67 55.8C663.204 52.4667 667.37 49.9 672.17 48.1C677.037 46.3 682.304 45.4 687.97 45.4C693.704 45.4 698.97 46.3 703.77 48.1C708.57 49.9 712.737 52.4667 716.27 55.8C719.804 59.0667 722.537 62.9333 724.47 67.4C726.47 71.8 727.47 76.6667 727.47 82C727.47 87.2667 726.47 92.1333 724.47 96.6C722.537 101.067 719.804 104.967 716.27 108.3C712.737 111.567 708.57 114.1 703.77 115.9C698.97 117.7 693.704 118.6 687.97 118.6ZM687.97 99.5C690.17 99.5 692.204 99.1 694.07 98.3C696.004 97.5 697.67 96.3667 699.07 94.9C700.537 93.3667 701.67 91.5333 702.47 89.4C703.27 87.2 703.67 84.7333 703.67 82C703.67 79.2667 703.27 76.8333 702.47 74.7C701.67 72.5 700.537 70.6667 699.07 69.2C697.67 67.6667 696.004 66.5 694.07 65.7C692.204 64.9 690.17 64.5 687.97 64.5C685.77 64.5 683.704 64.9 681.77 65.7C679.904 66.5 678.237 67.6667 676.77 69.2C675.37 70.6667 674.27 72.5 673.47 74.7C672.67 76.8333 672.27 79.2667 672.27 82C672.27 84.7333 672.67 87.2 673.47 89.4C674.27 91.5333 675.37 93.3667 676.77 94.9C678.237 96.3667 679.904 97.5 681.77 98.3C683.704 99.1 685.77 99.5 687.97 99.5ZM736.036 117V47H759.636V117H736.036ZM797.097 118.6C791.23 118.6 785.564 117.933 780.097 116.6C774.63 115.267 770.13 113.533 766.597 111.4L774.197 94.2C777.53 96.1333 781.23 97.7 785.297 98.9C789.43 100.033 793.43 100.6 797.297 100.6C799.564 100.6 801.33 100.467 802.597 100.2C803.93 99.8667 804.897 99.4333 805.497 98.9C806.097 98.3 806.397 97.6 806.397 96.8C806.397 95.5333 805.697 94.5333 804.297 93.8C802.897 93.0667 801.03 92.4667 798.697 92C796.43 91.4667 793.93 90.9333 791.197 90.4C788.464 89.8 785.697 89.0333 782.897 88.1C780.164 87.1667 777.63 85.9333 775.297 84.4C773.03 82.8667 771.197 80.8667 769.797 78.4C768.397 75.8667 767.697 72.7333 767.697 69C767.697 64.6667 768.897 60.7333 771.297 57.2C773.764 53.6 777.397 50.7333 782.197 48.6C787.064 46.4667 793.097 45.4 800.297 45.4C805.03 45.4 809.697 45.9 814.297 46.9C818.897 47.9 823.03 49.4333 826.697 51.5L819.597 68.6C816.13 66.8667 812.764 65.5667 809.497 64.7C806.297 63.8333 803.164 63.4 800.097 63.4C797.83 63.4 796.03 63.6 794.697 64C793.364 64.4 792.397 64.9333 791.797 65.6C791.264 66.2667 790.997 67 790.997 67.8C790.997 69 791.697 69.9667 793.097 70.7C794.497 71.3667 796.33 71.9333 798.597 72.4C800.93 72.8667 803.464 73.3667 806.197 73.9C808.997 74.4333 811.764 75.1667 814.497 76.1C817.23 77.0333 819.73 78.2667 821.997 79.8C824.33 81.3333 826.197 83.3333 827.597 85.8C828.997 88.2667 829.697 91.3333 829.697 95C829.697 99.2667 828.464 103.2 825.997 106.8C823.597 110.333 819.997 113.2 815.197 115.4C810.397 117.533 804.364 118.6 797.097 118.6Z" fill="#FEEEFF"/>
<path d="M84.3055 178.7C81.5388 178.7 78.9721 178.267 76.6055 177.4C74.2721 176.5 72.2388 175.233 70.5055 173.6C68.8055 171.967 67.4721 170.05 66.5055 167.85C65.5388 165.617 65.0555 163.167 65.0555 160.5C65.0555 157.833 65.5388 155.4 66.5055 153.2C67.4721 150.967 68.8055 149.033 70.5055 147.4C72.2388 145.767 74.2721 144.517 76.6055 143.65C78.9721 142.75 81.5388 142.3 84.3055 142.3C87.5388 142.3 90.4221 142.867 92.9555 144C95.5221 145.133 97.6555 146.767 99.3555 148.9L93.0555 154.6C91.9221 153.267 90.6721 152.25 89.3055 151.55C87.9721 150.85 86.4721 150.5 84.8055 150.5C83.3721 150.5 82.0555 150.733 80.8555 151.2C79.6555 151.667 78.6221 152.35 77.7555 153.25C76.9221 154.117 76.2555 155.167 75.7555 156.4C75.2888 157.633 75.0555 159 75.0555 160.5C75.0555 162 75.2888 163.367 75.7555 164.6C76.2555 165.833 76.9221 166.9 77.7555 167.8C78.6221 168.667 79.6555 169.333 80.8555 169.8C82.0555 170.267 83.3721 170.5 84.8055 170.5C86.4721 170.5 87.9721 170.15 89.3055 169.45C90.6721 168.75 91.9221 167.733 93.0555 166.4L99.3555 172.1C97.6555 174.2 95.5221 175.833 92.9555 177C90.4221 178.133 87.5388 178.7 84.3055 178.7ZM120.687 178.7C117.887 178.7 115.304 178.25 112.937 177.35C110.57 176.45 108.504 175.183 106.737 173.55C105.004 171.883 103.654 169.95 102.687 167.75C101.72 165.55 101.237 163.133 101.237 160.5C101.237 157.867 101.72 155.45 102.687 153.25C103.654 151.05 105.004 149.133 106.737 147.5C108.504 145.833 110.57 144.55 112.937 143.65C115.304 142.75 117.887 142.3 120.687 142.3C123.52 142.3 126.104 142.75 128.437 143.65C130.804 144.55 132.854 145.833 134.587 147.5C136.32 149.133 137.67 151.05 138.637 153.25C139.637 155.45 140.137 157.867 140.137 160.5C140.137 163.133 139.637 165.567 138.637 167.8C137.67 170 136.32 171.917 134.587 173.55C132.854 175.183 130.804 176.45 128.437 177.35C126.104 178.25 123.52 178.7 120.687 178.7ZM120.687 170.5C122.02 170.5 123.254 170.267 124.387 169.8C125.554 169.333 126.554 168.667 127.387 167.8C128.254 166.9 128.92 165.833 129.387 164.6C129.887 163.367 130.137 162 130.137 160.5C130.137 158.967 129.887 157.6 129.387 156.4C128.92 155.167 128.254 154.117 127.387 153.25C126.554 152.35 125.554 151.667 124.387 151.2C123.254 150.733 122.02 150.5 120.687 150.5C119.354 150.5 118.104 150.733 116.937 151.2C115.804 151.667 114.804 152.35 113.937 153.25C113.104 154.117 112.437 155.167 111.937 156.4C111.47 157.6 111.237 158.967 111.237 160.5C111.237 162 111.47 163.367 111.937 164.6C112.437 165.833 113.104 166.9 113.937 167.8C114.804 168.667 115.804 169.333 116.937 169.8C118.104 170.267 119.354 170.5 120.687 170.5ZM145.322 178V143H153.472L172.772 166.3H168.922V143H178.622V178H170.472L151.172 154.7H155.022V178H145.322ZM194.805 158.35H210.955V166H194.805V158.35ZM195.505 178H185.605V143H213.055V150.65H195.505V178ZM217.686 178V143H227.586V178H217.686ZM234.629 178V143H250.629C253.829 143 256.579 143.517 258.879 144.55C261.212 145.583 263.012 147.083 264.279 149.05C265.546 150.983 266.179 153.283 266.179 155.95C266.179 158.583 265.546 160.867 264.279 162.8C263.012 164.7 261.212 166.167 258.879 167.2C256.579 168.2 253.829 168.7 250.629 168.7H240.129L244.529 164.55V178H234.629ZM256.279 178L247.579 165.25H258.129L266.879 178H256.279ZM244.529 165.6L240.129 161.05H250.029C252.096 161.05 253.629 160.6 254.629 159.7C255.662 158.8 256.179 157.55 256.179 155.95C256.179 154.317 255.662 153.05 254.629 152.15C253.629 151.25 252.096 150.8 250.029 150.8H240.129L244.529 146.25V165.6ZM271.641 178V143H279.791L294.291 166.8H289.991L304.091 143H312.241L312.341 178H303.241L303.141 156.85H304.691L294.141 174.55H289.741L278.891 156.85H280.791V178H271.641ZM315.146 178L330.596 143H340.346L355.846 178H345.546L333.446 147.85H337.346L325.246 178H315.146ZM323.596 171.2L326.146 163.9H343.246L345.796 171.2H323.596ZM364.345 178V150.85H353.595V143H384.945V150.85H374.245V178H364.345ZM388.633 178V143H398.533V178H388.633ZM423.226 178.7C420.426 178.7 417.843 178.25 415.476 177.35C413.11 176.45 411.043 175.183 409.276 173.55C407.543 171.883 406.193 169.95 405.226 167.75C404.26 165.55 403.776 163.133 403.776 160.5C403.776 157.867 404.26 155.45 405.226 153.25C406.193 151.05 407.543 149.133 409.276 147.5C411.043 145.833 413.11 144.55 415.476 143.65C417.843 142.75 420.426 142.3 423.226 142.3C426.06 142.3 428.643 142.75 430.976 143.65C433.343 144.55 435.393 145.833 437.126 147.5C438.86 149.133 440.21 151.05 441.176 153.25C442.176 155.45 442.676 157.867 442.676 160.5C442.676 163.133 442.176 165.567 441.176 167.8C440.21 170 438.86 171.917 437.126 173.55C435.393 175.183 433.343 176.45 430.976 177.35C428.643 178.25 426.06 178.7 423.226 178.7ZM423.226 170.5C424.56 170.5 425.793 170.267 426.926 169.8C428.093 169.333 429.093 168.667 429.926 167.8C430.793 166.9 431.46 165.833 431.926 164.6C432.426 163.367 432.676 162 432.676 160.5C432.676 158.967 432.426 157.6 431.926 156.4C431.46 155.167 430.793 154.117 429.926 153.25C429.093 152.35 428.093 151.667 426.926 151.2C425.793 150.733 424.56 150.5 423.226 150.5C421.893 150.5 420.643 150.733 419.476 151.2C418.343 151.667 417.343 152.35 416.476 153.25C415.643 154.117 414.976 155.167 414.476 156.4C414.01 157.6 413.776 158.967 413.776 160.5C413.776 162 414.01 163.367 414.476 164.6C414.976 165.833 415.643 166.9 416.476 167.8C417.343 168.667 418.343 169.333 419.476 169.8C420.643 170.267 421.893 170.5 423.226 170.5ZM447.861 178V143H456.011L475.311 166.3H471.461V143H481.161V178H473.011L453.711 154.7H457.561V178H447.861Z" fill="#EAC1EC"/>
<path d="M39.2951 46.227L39.7377 47.9636L41.0813 49.1813L39.2808 49.6299L37.9938 50.9483L37.5636 49.2075L36.2158 47.9778L38.0205 47.5412L39.2951 46.227Z" fill="#FEE1FF"/>
<path d="M99.2455 25.5404L100.522 26.798L102.302 27.1455L100.993 28.4605L100.573 30.2545L99.3046 28.9869L97.5151 28.6313L98.834 27.3244L99.2455 25.5404Z" fill="#FEE1FF"/>
<path d="M93.5472 22.374L94.4314 23.2448L95.6638 23.4855L94.7572 24.3961L94.4665 25.6384L93.5882 24.7606L92.3489 24.5143L93.2623 23.6093L93.5472 22.374Z" fill="#FEE1FF"/>
<path d="M102.692 17.2365L103.366 17.9006L104.306 18.0841L103.615 18.7784L103.393 19.7257L102.723 19.0563L101.778 18.8686L102.475 18.1785L102.692 17.2365Z" fill="#FEE1FF"/>
<path d="M50.2377 24.5404L51.5145 25.798L53.2942 26.1455L51.9851 27.4605L51.5652 29.2545L50.2968 27.9869L48.5073 27.6313L49.8262 26.3244L50.2377 24.5404Z" fill="#FEE1FF"/>
<path d="M47.6932 49.3966L47.3809 50.7999L47.9015 52.1583L46.4503 51.8271L45.0515 52.3046L45.3742 50.9027L44.8549 49.5343L46.3048 49.8755L47.6932 49.3966Z" fill="#FEE1FF"/>
<path d="M48.9623 58.2444L49.6572 58.6301L50.4589 58.5673L50.0557 59.2846L50.0893 60.1009L49.3969 59.71L48.5901 59.7705L48.9984 59.0555L48.9623 58.2444Z" fill="#FEE1FF"/>
<path d="M39.9522 55.8987L40.9857 56.4723L42.1781 56.3788L41.5784 57.4456L41.6285 58.6598L40.5986 58.0783L39.3986 58.1684L40.0059 57.105L39.9522 55.8987Z" fill="#FEE1FF"/>
<path d="M79.7354 28.4238L73.7969 22.6626L65.7039 24.2653L69.3319 16.8764L65.3002 9.66377L73.4698 10.8367L79.0812 4.77215L80.5076 12.9104L87.9949 16.3722L80.6654 20.2224L79.7354 28.4238Z" fill="#FEE1FF"/>
<path d="M44.1462 37.3811L38.487 37.5728L35.4344 42.3227L33.515 37.0263L28.0458 35.5889L32.5028 32.1191L32.1779 26.4739L36.8664 29.6348L42.1276 27.588L40.5453 33.0287L44.1462 37.3811Z" fill="#FEE1FF"/>
<path d="M54.3268 12.0798L56.8445 15.0257L60.6144 16.1041L57.5504 18.6946L56.3135 22.4817L53.8157 19.5158L50.0263 18.4182L53.1099 15.847L54.3268 12.0798Z" fill="#FEE1FF"/>
<path d="M786.841 142.087L785.482 140.918L783.683 140.691L784.9 139.291L785.198 137.473L786.549 138.652L788.359 138.886L787.131 140.279L786.841 142.087Z" fill="#FEE1FF"/>
<path d="M792.736 144.861L791.795 144.052L790.549 143.895L791.392 142.925L791.598 141.666L792.534 142.482L793.787 142.645L792.936 143.609L792.736 144.861Z" fill="#FEE1FF"/>
<path d="M783.963 150.604L783.245 149.987L782.295 149.867L782.938 149.128L783.095 148.168L783.809 148.79L784.764 148.914L784.116 149.649L783.963 150.604Z" fill="#FEE1FF"/>
<path d="M835.802 139.778L834.443 138.609L832.644 138.383L833.861 136.982L834.159 135.164L835.51 136.343L837.32 136.577L836.092 137.97L835.802 139.778Z" fill="#FEE1FF"/>
<path d="M836.661 114.807L836.878 113.385L836.267 112.065L837.737 112.298L839.101 111.727L838.873 113.147L839.484 114.478L838.014 114.235L836.661 114.807Z" fill="#FEE1FF"/>
<path d="M789.567 151.289L789.784 149.868L789.173 148.548L790.644 148.78L792.007 148.209L791.78 149.63L792.39 150.96L790.92 150.717L789.567 151.289Z" fill="#FEE1FF"/>
<path d="M834.805 106.064L834.085 105.726L833.29 105.843L833.644 105.1L833.555 104.288L834.272 104.631L835.073 104.516L834.714 105.257L834.805 106.064Z" fill="#FEE1FF"/>
<path d="M843.946 107.797L842.876 107.294L841.693 107.468L842.219 106.363L842.088 105.155L843.154 105.666L844.346 105.495L843.811 106.597L843.946 107.797Z" fill="#FEE1FF"/>
<path d="M806.109 137.894L812.423 143.241L820.389 141.096L817.268 148.713L821.777 155.637L813.547 155.018L808.357 161.447L806.385 153.424L798.681 150.475L805.734 146.139L806.109 137.894Z" fill="#FEE1FF"/>
<path d="M841.017 126.556L846.65 125.982L849.375 121.037L851.647 126.192L857.201 127.257L852.988 131.02L853.693 136.63L848.802 133.793L843.691 136.19L844.903 130.655L841.017 126.556Z" fill="#FEE1FF"/>
<path d="M832.562 152.486L829.851 149.717L826.017 148.895L828.899 146.104L829.878 142.242L832.57 145.033L836.425 145.872L833.522 148.645L832.562 152.486Z" fill="#FEE1FF"/>
</svg>
