<svg width="895" height="528" viewBox="0 0 895 528" fill="none" xmlns="http://www.w3.org/2000/svg">
<rect y="125" width="895" height="513" rx="40" fill="#414358"/>
<rect x="73" y="205" width="749" height="468" rx="40" fill="#2A2B3A"/>
<rect x="32" y="355" width="844" height="55" rx="27.5" fill="#414358"/>
<rect x="677" y="91" width="167" height="38" rx="5" fill="#313242"/>
<rect x="685" y="103" width="148" height="16" fill="#8D8D95"/>
<rect x="668" y="103" width="17" height="16" fill="#65698E"/>
<rect x="678" y="52" width="167" height="38" rx="5" fill="#2E325C"/>
<rect x="686" y="65" width="148" height="16" fill="#8D8D95"/>
<rect x="669" y="65" width="17" height="16" fill="#65698E"/>
<g filter="url(#filter0_i_4203_130)">
<path d="M825.699 35.4576C823.972 39.6334 821.203 40.3406 819.714 40.2863C818.225 40.2319 818.171 38.5776 818.326 34.323C818.481 30.0684 821.34 25.7783 822.606 25.2843C825.15 24.5102 825.495 31.379 825.699 35.4576Z" fill="#3C3B43"/>
<path d="M814.173 37.1199L817.547 31.3515L819.79 28.8715L821.645 27.4837L822.493 27.2259L823.084 30.4243L823.469 33.8517L814.543 40.3221L814.173 37.1199Z" fill="#293042"/>
<path d="M824.016 32.1048L831.187 33.4601L829.883 38.42L828.434 43.3514L826.874 49.5379L826.724 56.2442L827.579 63.0394L826.642 67.2612L821.171 65.6669L818.354 64.4961L816.128 62.9645L815.352 61.0102L814.357 55.2993L813.21 48.7256L814.491 42.8307L816.819 37.2655L817.804 35.1218L819.804 33.5766L821.726 32.6501L824.016 32.1048Z" fill="#343D52"/>
<path d="M831.265 51.0947C830.247 60.8302 829.058 67.1482 827.069 67.2482C823.006 66.9138 822.598 59.7059 823.575 50.1474C824.552 40.5888 827.064 33.1379 831.127 33.4723C833.236 34.6398 832.282 41.3592 831.265 51.0947Z" fill="#293042"/>
<path d="M820.126 31.6497L825.912 35.4479L823.949 39.2051L822.651 43.3593L821.192 48.5976L820.625 54.4367L820.712 60.4582L820.917 64.5368L816.108 63.0568L812.812 57.4117L812.556 52.3222L812.262 46.4637L813.516 41.4509L813.719 36.9213L815.264 33.4004L820.126 31.6497Z" fill="#343D52"/>
<path d="M687.832 15.6994L694.981 16.6315L692.02 21.9453L690.722 26.0995L689.264 31.3377L688.696 37.1769L688.784 43.1983L691.855 48.6395L684.18 45.797L680.883 40.1519L679.97 34.8176L679.915 29.4402L680.504 24.0304L681.791 19.6615L684.419 16.3013L687.832 15.6994Z" fill="#343D52"/>
<path d="M829.834 32.0909L827.706 37.1815L825.238 39.1404L824.535 42.7957L821.216 47.018L818.348 52.1182L815.919 57.6279L814.389 61.4141L811.221 58.279L810.97 51.918L812.88 47.1934L815.078 41.755L818.143 37.662L821.568 34.1776L824.521 32.3575L829.834 32.0909Z" fill="#343D52"/>
<path d="M698.949 9.97559L711.938 15.9971L732.021 21.6595L759.538 25.2266L799.542 29.0274L812.422 28.3803L822.596 25.2868L815.161 35.775L813.339 46.6269L813.867 57.1457L818.581 65.302L804.581 60.8424L790.251 58.3322L725.399 52.5537L710.801 53.2871L697.826 56.3063L690.997 48.9018L686.702 40.5093L686.484 27.3944L691.194 18.5475L698.949 9.97559Z" fill="#6D6C74"/>
<g filter="url(#filter1_i_4203_130)">
<path d="M779.385 41.9944L772.734 34.948L763.14 36.092L761.54 44.7168L760.164 49.9935L759.428 40.1406L759.88 34.6687L760.422 31.0086L761.056 29.1604L773.195 32.3686L775.851 35.9495L779.385 41.9944Z" fill="#5F5E63"/>
</g>
<g filter="url(#filter2_d_4203_130)">
<path d="M757.233 24.8904L762.291 25.5233L760.493 30.9358L759.831 35.4043L759.493 40.4479L759.896 46.2605L760.955 51.9059L763.227 55.9313L756.989 55.3577L755.012 49.0864L754.336 43.7444L754.202 38.3751L754.475 32.9854L755.208 28.6478L756.808 25.3418L757.233 24.8904Z" fill="#343D52"/>
</g>
<path d="M822.57 43.695L826.234 40.6671L827.317 43.4417L822.57 43.695Z" fill="#293042"/>
<path d="M824.238 37.7906L828.78 36.3923L828.72 39.37L824.238 37.7906Z" fill="#293042"/>
<path d="M812.282 37.6949L816.088 34.8482L817.034 37.672L812.282 37.6949Z" fill="#343D52"/>
<path d="M817.128 31.0373L820.911 28.1597L821.88 30.9757L817.128 31.0373Z" fill="#293042"/>
<path d="M811.914 47.6128L815.721 44.7662L816.667 47.59L811.914 47.6128Z" fill="#343D52"/>
<path d="M810.742 58.4312L814.549 55.5846L815.495 58.4084L810.742 58.4312Z" fill="#343D52"/>
<path d="M820.05 51.9275L824.254 49.7089L824.749 52.6457L820.05 51.9275Z" fill="#293042"/>
<path d="M820.97 60.3035L825.075 57.9079L825.695 60.821L820.97 60.3035Z" fill="#293042"/>
<path d="M822.27 64.2325L826.095 61.4106L827.023 64.2405L822.27 64.2325Z" fill="#293042"/>
<path d="M758.484 15.9469C758.766 21.5505 759.928 25.5839 757.945 25.6835C755.963 25.7831 754.127 21.3212 753.846 15.7176C753.564 10.1139 754.943 5.49054 756.926 5.39094C759.582 7.10689 758.203 10.3433 758.484 15.9469Z" fill="#343D52"/>
<path d="M757.242 16.7582C757.484 21.5613 758.298 24.9396 757.655 24.9719C757.012 25.0042 756.295 21.1367 756.054 16.3335C755.813 11.5304 756.138 7.61054 756.781 7.57825C757.424 7.54596 757.001 11.9551 757.242 16.7582Z" fill="#505370"/>
<path d="M759.559 16.1873C758.851 21.9577 757.45 26.0519 759.286 26.277C761.122 26.5021 763.184 22.0067 763.891 16.2363C764.598 10.4659 763.683 5.60564 761.847 5.38058C759.24 6.98919 760.266 10.4169 759.559 16.1873Z" fill="#343D52"/>
<path d="M760.755 17.1358C760.177 21.8571 758.944 25.1087 759.766 25.2095C760.588 25.3102 761.36 21.6284 761.939 16.9072C762.518 12.1859 762.683 8.21312 761.861 8.11239C761.04 8.01167 761.334 12.4146 760.755 17.1358Z" fill="#505370"/>
<g filter="url(#filter3_i_4203_130)">
<path d="M691.195 18.5234L699.086 25.0081L716.921 25.565L720.957 33.7179L736.761 51.0693L707.097 32.6232L686.506 33.6578L686.506 27.4588L691.195 18.5234Z" fill="#5F5E63"/>
</g>
<g filter="url(#filter4_i_4203_130)">
<path d="M813.48 45.78L810.154 44.6004L804.131 46.2875L801.925 43.985L794.818 39.8424L806.675 42.8953L814.618 39.5469L814.103 42.4595L813.48 45.78Z" fill="#5F5E63"/>
</g>
</g>
<defs>
<filter id="filter0_i_4203_130" x="679.914" y="5.38086" width="152.477" height="64.2799" filterUnits="userSpaceOnUse" color-interpolation-filters="sRGB">
<feFlood flood-opacity="0" result="BackgroundImageFix"/>
<feBlend mode="normal" in="SourceGraphic" in2="BackgroundImageFix" result="shape"/>
<feColorMatrix in="SourceAlpha" type="matrix" values="0 0 0 0 0 0 0 0 0 0 0 0 0 0 0 0 0 0 127 0" result="hardAlpha"/>
<feOffset dy="2.39999"/>
<feGaussianBlur stdDeviation="1.19999"/>
<feComposite in2="hardAlpha" operator="arithmetic" k2="-1" k3="1"/>
<feColorMatrix type="matrix" values="0 0 0 0 0 0 0 0 0 0 0 0 0 0 0 0 0 0 0.25 0"/>
<feBlend mode="normal" in2="shape" result="effect1_innerShadow_4203_130"/>
</filter>
<filter id="filter1_i_4203_130" x="759.43" y="29.1602" width="19.9531" height="23.233" filterUnits="userSpaceOnUse" color-interpolation-filters="sRGB">
<feFlood flood-opacity="0" result="BackgroundImageFix"/>
<feBlend mode="normal" in="SourceGraphic" in2="BackgroundImageFix" result="shape"/>
<feColorMatrix in="SourceAlpha" type="matrix" values="0 0 0 0 0 0 0 0 0 0 0 0 0 0 0 0 0 0 127 0" result="hardAlpha"/>
<feOffset dy="2.39999"/>
<feGaussianBlur stdDeviation="1.19999"/>
<feComposite in2="hardAlpha" operator="arithmetic" k2="-1" k3="1"/>
<feColorMatrix type="matrix" values="0 0 0 0 0 0 0 0 0 0 0 0 0 0 0 0 0 0 0.25 0"/>
<feBlend mode="normal" in2="shape" result="effect1_innerShadow_4203_130"/>
</filter>
<filter id="filter2_d_4203_130" x="751.803" y="24.8906" width="13.8234" height="35.841" filterUnits="userSpaceOnUse" color-interpolation-filters="sRGB">
<feFlood flood-opacity="0" result="BackgroundImageFix"/>
<feColorMatrix in="SourceAlpha" type="matrix" values="0 0 0 0 0 0 0 0 0 0 0 0 0 0 0 0 0 0 127 0" result="hardAlpha"/>
<feOffset dy="2.39999"/>
<feGaussianBlur stdDeviation="1.19999"/>
<feComposite in2="hardAlpha" operator="out"/>
<feColorMatrix type="matrix" values="0 0 0 0 0 0 0 0 0 0 0 0 0 0 0 0 0 0 0.25 0"/>
<feBlend mode="normal" in2="BackgroundImageFix" result="effect1_dropShadow_4203_130"/>
<feBlend mode="normal" in="SourceGraphic" in2="effect1_dropShadow_4203_130" result="shape"/>
</filter>
<filter id="filter3_i_4203_130" x="686.508" y="18.5234" width="50.25" height="34.9459" filterUnits="userSpaceOnUse" color-interpolation-filters="sRGB">
<feFlood flood-opacity="0" result="BackgroundImageFix"/>
<feBlend mode="normal" in="SourceGraphic" in2="BackgroundImageFix" result="shape"/>
<feColorMatrix in="SourceAlpha" type="matrix" values="0 0 0 0 0 0 0 0 0 0 0 0 0 0 0 0 0 0 127 0" result="hardAlpha"/>
<feOffset dy="2.39999"/>
<feGaussianBlur stdDeviation="1.19999"/>
<feComposite in2="hardAlpha" operator="arithmetic" k2="-1" k3="1"/>
<feColorMatrix type="matrix" values="0 0 0 0 0 0 0 0 0 0 0 0 0 0 0 0 0 0 0.25 0"/>
<feBlend mode="normal" in2="shape" result="effect1_innerShadow_4203_130"/>
</filter>
<filter id="filter4_i_4203_130" x="794.82" y="39.5469" width="19.7969" height="9.14022" filterUnits="userSpaceOnUse" color-interpolation-filters="sRGB">
<feFlood flood-opacity="0" result="BackgroundImageFix"/>
<feBlend mode="normal" in="SourceGraphic" in2="BackgroundImageFix" result="shape"/>
<feColorMatrix in="SourceAlpha" type="matrix" values="0 0 0 0 0 0 0 0 0 0 0 0 0 0 0 0 0 0 127 0" result="hardAlpha"/>
<feOffset dy="2.39999"/>
<feGaussianBlur stdDeviation="1.19999"/>
<feComposite in2="hardAlpha" operator="arithmetic" k2="-1" k3="1"/>
<feColorMatrix type="matrix" values="0 0 0 0 0 0 0 0 0 0 0 0 0 0 0 0 0 0 0.25 0"/>
<feBlend mode="normal" in2="shape" result="effect1_innerShadow_4203_130"/>
</filter>
</defs>
</svg>
