<svg width="372" height="388" viewBox="0 0 372 388" fill="none" xmlns="http://www.w3.org/2000/svg">
<g clip-path="url(#clip0_1991_501)">
<path d="M148.382 386.719C156.893 388.928 165.585 383.817 167.796 375.302C170.006 366.787 164.899 358.092 156.387 355.883C147.876 353.673 139.184 358.785 136.974 367.3C134.763 375.815 139.871 384.509 148.382 386.719Z" fill="#C6824B"/>
<path d="M145.589 389.923C148.251 390.614 150.969 389.015 151.66 386.352C152.352 383.689 150.754 380.97 148.093 380.279C145.431 379.588 142.713 381.187 142.022 383.85C141.33 386.513 142.928 389.232 145.589 389.923Z" fill="#C6824B"/>
<path d="M138.589 384.897C141.251 385.588 143.969 383.99 144.66 381.327C145.352 378.664 143.754 375.945 141.093 375.254C138.431 374.563 135.713 376.162 135.022 378.824C134.33 381.487 135.928 384.206 138.589 384.897Z" fill="#C6824B"/>
<path d="M154.12 391.134C156.782 391.825 159.5 390.227 160.192 387.564C160.883 384.901 159.286 382.182 156.624 381.491C153.962 380.8 151.244 382.399 150.553 385.062C149.862 387.725 151.459 390.443 154.12 391.134Z" fill="#C6824B"/>
<path d="M217.007 387.414C225.518 389.624 234.21 384.512 236.421 375.997C238.631 367.482 233.524 358.788 225.012 356.578C216.501 354.368 207.809 359.48 205.599 367.995C203.388 376.51 208.496 385.204 217.007 387.414Z" fill="#C6824B"/>
<path d="M225.011 390.727C227.673 391.418 230.391 389.82 231.082 387.157C231.773 384.494 230.176 381.775 227.515 381.084C224.853 380.393 222.135 381.992 221.444 384.655C220.752 387.317 222.35 390.036 225.011 390.727Z" fill="#C6824B"/>
<path d="M232.12 385.845C234.782 386.536 237.5 384.938 238.192 382.275C238.883 379.612 237.286 376.893 234.624 376.202C231.962 375.511 229.244 377.11 228.553 379.773C227.862 382.436 229.459 385.154 232.12 385.845Z" fill="#C6824B"/>
<path d="M216.456 391.764C219.118 392.455 221.836 390.857 222.527 388.194C223.219 385.531 221.622 382.812 218.96 382.121C216.298 381.43 213.58 383.029 212.889 385.692C212.198 388.354 213.795 391.073 216.456 391.764Z" fill="#C6824B"/>
<path d="M114.172 335.468L259.982 336.937C259.838 350.866 248.419 362.059 234.497 361.918L139.14 360.957C125.218 360.817 114.032 349.396 114.175 335.468L114.172 335.468Z" fill="#DE8E45"/>
<path d="M135.422 335.684L238.731 336.725C238.659 343.689 232.948 349.287 225.987 349.217L147.906 348.43C140.945 348.36 135.35 342.648 135.422 335.684Z" fill="#FFFACC"/>
<path d="M254.977 251.584L120.92 250.228L104.628 325.128L269.714 326.798L254.977 251.584Z" fill="#A977AB"/>
<path d="M191.291 278.123L184.062 278.05L183.57 325.916L190.799 325.989L191.291 278.123Z" fill="#88538C"/>
<path d="M298.776 251.364C309.858 254.242 321.176 247.586 324.055 236.498C326.933 225.41 320.283 214.089 309.2 211.212C298.117 208.334 286.799 214.99 283.921 226.078C281.042 237.166 287.693 248.487 298.776 251.364Z" fill="#DE8E45"/>
<path d="M318.085 226.274C321.551 227.174 325.089 225.093 325.989 221.626C326.889 218.159 324.81 214.619 321.345 213.72C317.879 212.82 314.341 214.901 313.441 218.368C312.541 221.835 314.62 225.375 318.085 226.274Z" fill="#DE8E45"/>
<path d="M322.273 236.694C325.738 237.594 329.277 235.513 330.177 232.046C331.077 228.579 328.997 225.039 325.532 224.14C322.067 223.24 318.528 225.321 317.628 228.788C316.728 232.255 318.808 235.795 322.273 236.694Z" fill="#DE8E45"/>
<path d="M309.562 218.976C313.027 219.876 316.566 217.795 317.466 214.328C318.366 210.861 316.286 207.322 312.821 206.422C309.356 205.522 305.817 207.603 304.917 211.07C304.017 214.537 306.097 218.077 309.562 218.976Z" fill="#DE8E45"/>
<path d="M310.546 215.184C311.918 215.541 313.319 214.716 313.676 213.344C314.032 211.971 313.209 210.569 311.836 210.212C310.464 209.856 309.063 210.68 308.706 212.053C308.35 213.426 309.173 214.828 310.546 215.184Z" fill="#FFFACC"/>
<path d="M319.069 222.483C320.441 222.839 321.843 222.015 322.199 220.642C322.556 219.269 321.732 217.868 320.36 217.511C318.987 217.155 317.586 217.979 317.23 219.352C316.873 220.725 317.697 222.127 319.069 222.483Z" fill="#FFFACC"/>
<path d="M323.257 232.903C324.629 233.259 326.03 232.435 326.387 231.062C326.743 229.689 325.92 228.288 324.547 227.931C323.175 227.575 321.774 228.399 321.417 229.772C321.061 231.145 321.884 232.547 323.257 232.903Z" fill="#FFFACC"/>
<path d="M313.501 241.354C318.435 237.812 318.859 229.953 314.446 223.799C310.033 217.645 302.456 215.528 297.521 219.07C292.586 222.612 292.163 230.472 296.576 236.626C300.988 242.779 308.566 244.896 313.501 241.354Z" fill="#FFFACC"/>
<path d="M272.788 232.798L210.953 277.181L230.746 304.782L292.58 260.4L272.788 232.798Z" fill="#A977AB"/>
<path d="M283.894 224.828L272.789 232.799L292.581 260.4L303.686 252.43L283.894 224.828Z" fill="#FFB23E"/>
<path d="M67.1194 249.02C78.2021 251.897 89.52 245.241 92.3986 234.153C95.2772 223.065 88.6264 211.744 77.5436 208.867C66.4609 205.99 55.143 212.646 52.2644 223.734C49.3858 234.821 56.0366 246.142 67.1194 249.02Z" fill="#DE8E45"/>
<path d="M55.2103 223.614C58.6756 224.514 62.2143 222.433 63.1144 218.966C64.0144 215.499 61.9349 211.959 58.4697 211.06C55.0044 210.16 51.4657 212.241 50.5656 215.708C49.6656 219.175 51.7451 222.714 55.2103 223.614Z" fill="#DE8E45"/>
<path d="M50.8119 233.947C54.2771 234.847 57.8159 232.766 58.7159 229.299C59.616 225.832 57.5365 222.292 54.0712 221.393C50.606 220.493 47.0672 222.574 46.1672 226.041C45.2672 229.508 47.3467 233.047 50.8119 233.947Z" fill="#DE8E45"/>
<path d="M63.89 216.489C67.3552 217.389 70.894 215.308 71.794 211.841C72.6941 208.374 70.6146 204.834 67.1494 203.935C63.6841 203.035 60.1454 205.116 59.2453 208.583C58.3453 212.05 60.4248 215.589 63.89 216.489Z" fill="#DE8E45"/>
<path d="M64.8737 212.697C66.246 213.053 67.6475 212.229 68.0039 210.856C68.3603 209.483 67.5368 208.081 66.1645 207.725C64.7922 207.369 63.3907 208.193 63.0343 209.566C62.6779 210.939 63.5014 212.341 64.8737 212.697Z" fill="#FFFACC"/>
<path d="M56.194 219.823C57.5663 220.179 58.9678 219.355 59.3242 217.982C59.6806 216.609 58.8571 215.207 57.4848 214.851C56.1125 214.495 54.711 215.319 54.3546 216.692C53.9982 218.065 54.8217 219.467 56.194 219.823Z" fill="#FFFACC"/>
<path d="M51.7956 230.156C53.1679 230.512 54.5693 229.688 54.9258 228.315C55.2822 226.942 54.4587 225.54 53.0864 225.184C51.714 224.828 50.3126 225.652 49.9562 227.025C49.5997 228.398 50.4233 229.8 51.7956 230.156Z" fill="#FFFACC"/>
<path d="M79.6244 234.414C84.1638 228.351 83.9038 220.485 79.0436 216.843C74.1834 213.202 66.5635 215.164 62.0241 221.227C57.4846 227.289 57.7447 235.156 62.6048 238.798C67.465 242.439 75.0849 240.477 79.6244 234.414Z" fill="#FFFACC"/>
<path d="M103.486 231.066L83.125 258.26L144.025 303.89L164.387 276.697L103.486 231.066Z" fill="#A977AB"/>
<path d="M92.5488 222.872L72.1875 250.065L83.1242 258.26L103.485 231.067L92.5488 222.872Z" fill="#FFB23E"/>
<path d="M128.976 288.124L131.302 290.234C131.573 290.479 131.947 290.576 132.303 290.494L135.361 289.772C136.256 289.56 137.007 290.469 136.628 291.309L135.341 294.175C135.19 294.508 135.216 294.894 135.405 295.206L137.036 297.89C137.514 298.677 136.881 299.67 135.967 299.573L132.847 299.234C132.485 299.195 132.124 299.337 131.885 299.613L129.836 301.994C129.235 302.692 128.096 302.399 127.908 301.493L127.266 298.417C127.192 298.06 126.945 297.76 126.609 297.622L123.712 296.409C122.862 296.051 122.791 294.879 123.59 294.42L126.317 292.857C126.633 292.676 126.841 292.348 126.871 291.983L127.131 288.851C127.206 287.934 128.301 287.502 128.984 288.119L128.976 288.124Z" fill="#FFB23E"/>
<path d="M151.105 313.242L152.157 314.676C152.277 314.843 152.474 314.939 152.681 314.931L154.456 314.88C154.975 314.864 155.286 315.454 154.983 315.874L153.943 317.315C153.821 317.481 153.792 317.699 153.861 317.894L154.457 319.569C154.633 320.059 154.167 320.539 153.673 320.38L151.98 319.838C151.785 319.774 151.567 319.812 151.405 319.938L149.997 321.023C149.583 321.343 148.987 321.048 148.985 320.529L148.979 318.751C148.978 318.543 148.874 318.352 148.704 318.232L147.237 317.23C146.808 316.938 146.901 316.275 147.394 316.113L149.081 315.557C149.279 315.493 149.428 315.337 149.487 315.137L149.988 313.43C150.135 312.928 150.79 312.815 151.097 313.236L151.105 313.242Z" fill="#FFB23E"/>
<path d="M158.259 284.657L158.279 286.434C158.28 286.64 158.387 286.835 158.558 286.951L160.035 287.942C160.468 288.232 160.379 288.892 159.884 289.061L158.2 289.631C158.006 289.696 157.855 289.855 157.796 290.055L157.311 291.767C157.167 292.269 156.514 292.39 156.203 291.971L155.143 290.545C155.019 290.379 154.822 290.284 154.615 290.292L152.84 290.357C152.32 290.375 152.004 289.791 152.306 289.364L153.335 287.913C153.454 287.743 153.482 287.528 153.414 287.333L152.802 285.665C152.622 285.174 153.082 284.692 153.581 284.849L155.276 285.378C155.475 285.44 155.69 285.4 155.85 285.271L157.248 284.172C157.659 283.852 158.258 284.137 158.266 284.658L158.259 284.657Z" fill="#FFB23E"/>
<path d="M171.741 305.219L172.322 308.307C172.389 308.666 172.627 308.97 172.965 309.116L175.837 310.388C176.679 310.76 176.728 311.937 175.92 312.38L173.163 313.887C172.841 314.063 172.628 314.384 172.591 314.75L172.268 317.876C172.174 318.79 171.07 319.201 170.401 318.569L168.118 316.412C167.852 316.162 167.479 316.059 167.122 316.133L164.052 316.795C163.152 316.988 162.423 316.064 162.816 315.234L164.161 312.393C164.318 312.062 164.303 311.676 164.118 311.361L162.543 308.644C162.081 307.848 162.732 306.866 163.647 306.984L166.761 307.386C167.125 307.433 167.487 307.298 167.729 307.026L169.825 304.684C170.439 304 171.573 304.315 171.744 305.22L171.741 305.219Z" fill="#FFB23E"/>
<path d="M118.906 313.272L119.184 315.028C119.216 315.231 119.348 315.408 119.533 315.497L121.136 316.265C121.607 316.49 121.614 317.158 121.15 317.393L119.565 318.2C119.381 318.292 119.256 318.472 119.226 318.679L118.99 320.442C118.921 320.956 118.292 321.172 117.923 320.803L116.666 319.545C116.52 319.397 116.312 319.333 116.107 319.372L114.361 319.694C113.848 319.79 113.451 319.253 113.687 318.792L114.494 317.208C114.59 317.025 114.585 316.805 114.486 316.622L113.639 315.06C113.392 314.603 113.776 314.058 114.291 314.14L116.045 314.418C116.248 314.45 116.457 314.381 116.599 314.23L117.824 312.943C118.181 312.565 118.819 312.764 118.901 313.278L118.906 313.272Z" fill="#FFB23E"/>
<path d="M96.7105 254.416L97.8383 255.792C97.9706 255.952 98.1702 256.038 98.3763 256.02L100.146 255.872C100.665 255.829 101.009 256.4 100.728 256.836L99.7696 258.332C99.6599 258.505 99.6402 258.725 99.7211 258.914L100.409 260.55C100.612 261.03 100.174 261.534 99.6718 261.404L97.9514 260.957C97.7507 260.902 97.5395 260.953 97.382 261.086L96.0355 262.249C95.6397 262.591 95.0282 262.329 94.9993 261.81L94.8969 260.035C94.886 259.827 94.7707 259.64 94.5938 259.532L93.0747 258.612C92.6292 258.343 92.6858 257.678 93.1716 257.49L94.8275 256.844C95.0213 256.768 95.1631 256.603 95.2122 256.401L95.6175 254.669C95.7359 254.16 96.3856 254.011 96.7145 254.414L96.7105 254.416Z" fill="#FFB23E"/>
<path d="M130.881 269.896L131.223 271.641C131.263 271.843 131.4 272.015 131.59 272.098L133.219 272.805C133.698 273.011 133.729 273.678 133.275 273.929L131.723 274.793C131.543 274.893 131.424 275.078 131.404 275.284L131.235 277.054C131.185 277.574 130.564 277.809 130.181 277.456L128.881 276.248C128.73 276.106 128.519 276.051 128.316 276.094L126.581 276.481C126.073 276.595 125.655 276.076 125.873 275.604L126.62 273.991C126.706 273.802 126.695 273.583 126.591 273.406L125.687 271.877C125.421 271.429 125.788 270.872 126.304 270.934L128.068 271.147C128.273 271.172 128.478 271.092 128.614 270.937L129.79 269.603C130.134 269.21 130.778 269.385 130.877 269.898L130.881 269.896Z" fill="#FFB23E"/>
<path d="M214.013 289.126L215.964 291.589C216.19 291.877 216.545 292.034 216.91 292.009L220.044 291.798C220.961 291.736 221.553 292.753 221.043 293.522L219.306 296.138C219.104 296.444 219.066 296.827 219.2 297.166L220.368 300.082C220.709 300.935 219.925 301.814 219.038 301.563L216.014 300.717C215.661 300.618 215.285 300.698 215.003 300.932L212.592 302.946C211.886 303.538 210.808 303.06 210.771 302.139L210.64 299.001C210.626 298.635 210.432 298.301 210.121 298.108L207.462 296.437C206.681 295.948 206.804 294.778 207.666 294.455L210.609 293.361C210.952 293.235 211.208 292.946 211.3 292.591L212.068 289.543C212.293 288.649 213.442 288.404 214.017 289.123L214.013 289.126Z" fill="#FFB23E"/>
<path d="M206.387 312.931L207.438 314.365C207.558 314.533 207.755 314.628 207.962 314.621L209.737 314.569C210.256 314.554 210.567 315.143 210.264 315.563L209.224 317.004C209.102 317.171 209.073 317.388 209.142 317.584L209.738 319.258C209.915 319.748 209.449 320.228 208.954 320.069L207.262 319.527C207.067 319.463 206.848 319.502 206.686 319.627L205.278 320.713C204.864 321.032 204.268 320.738 204.266 320.218L204.26 318.441C204.26 318.232 204.155 318.041 203.985 317.922L202.518 316.919C202.089 316.627 202.182 315.965 202.675 315.802L204.362 315.247C204.56 315.182 204.71 315.026 204.768 314.826L205.27 313.119C205.417 312.618 206.071 312.504 206.378 312.925L206.387 312.931Z" fill="#FFB23E"/>
<path d="M248.358 305.993L248.939 309.08C249.006 309.439 249.244 309.744 249.582 309.89L252.454 311.161C253.296 311.533 253.345 312.711 252.537 313.153L249.78 314.661C249.458 314.837 249.245 315.157 249.208 315.523L248.885 318.649C248.791 319.564 247.688 319.974 247.019 319.343L244.735 317.186C244.469 316.936 244.096 316.832 243.739 316.907L240.669 317.568C239.769 317.761 239.04 316.838 239.433 316.007L240.778 313.167C240.935 312.836 240.92 312.449 240.735 312.135L239.16 309.417C238.698 308.621 239.349 307.639 240.264 307.757L243.378 308.159C243.742 308.206 244.104 308.071 244.346 307.799L246.442 305.458C247.056 304.774 248.19 305.089 248.361 305.994L248.358 305.993Z" fill="#FFB23E"/>
<path d="M239.822 283.381L239.842 285.159C239.843 285.364 239.949 285.559 240.121 285.675L241.597 286.667C242.031 286.957 241.941 287.616 241.447 287.785L239.763 288.355C239.568 288.421 239.418 288.58 239.359 288.78L238.874 290.491C238.73 290.993 238.077 291.114 237.766 290.695L236.706 289.269C236.582 289.104 236.384 289.008 236.178 289.016L234.403 289.081C233.883 289.1 233.567 288.516 233.869 288.089L234.897 286.638C235.017 286.468 235.045 286.253 234.976 286.058L234.365 284.389C234.185 283.899 234.645 283.417 235.143 283.574L236.839 284.103C237.038 284.165 237.253 284.125 237.413 283.996L238.811 282.897C239.222 282.577 239.82 282.862 239.828 283.383L239.822 283.381Z" fill="#FFB23E"/>
<path d="M275.441 258.462L276.493 259.896C276.613 260.064 276.81 260.16 277.017 260.152L278.791 260.1C279.311 260.085 279.622 260.675 279.319 261.094L278.279 262.535C278.157 262.702 278.128 262.92 278.197 263.115L278.793 264.79C278.969 265.279 278.503 265.759 278.009 265.6L276.316 265.059C276.121 264.994 275.903 265.033 275.741 265.158L274.333 266.244C273.919 266.564 273.323 266.269 273.321 265.749L273.315 263.972C273.314 263.763 273.21 263.572 273.04 263.453L271.573 262.451C271.144 262.158 271.237 261.496 271.73 261.334L273.417 260.778C273.615 260.713 273.764 260.557 273.823 260.357L274.324 258.65C274.471 258.149 275.126 258.035 275.433 258.457L275.441 258.462Z" fill="#FFB23E"/>
<path d="M104.623 325.128L102.398 335.352L271.723 337.068L269.709 326.798L104.623 325.128Z" fill="#FFB23E"/>
<path d="M246.186 220.526L130.352 219.358C115.859 219.212 103.988 230.848 103.839 245.347C103.69 259.846 115.318 271.719 129.812 271.865L245.645 273.032C260.139 273.178 272.009 261.543 272.158 247.044C272.308 232.544 260.679 220.672 246.186 220.526Z" fill="#FFFACC"/>
<path d="M226.825 237.415C213.105 237.275 202.096 226.036 202.239 212.311L196.928 136.538C194.36 136.305 191.763 136.171 189.131 136.143C186.5 136.116 183.9 136.202 181.329 136.378L174.451 212.029C174.308 225.754 163.072 236.771 149.352 236.631L128.053 236.415C120.206 236.334 112.918 233.968 106.816 229.952C116.705 260.916 149.02 283.809 187.597 284.197C226.177 284.589 258.958 262.351 269.485 231.599C263.303 235.492 255.968 237.71 248.12 237.633L226.821 237.417L226.825 237.415Z" fill="#FFFACC"/>
<path d="M196.925 136.535L202.237 212.307C202.094 226.033 213.102 237.275 226.823 237.412L248.122 237.627C255.969 237.708 263.304 235.487 269.486 231.594C271.719 225.073 272.953 218.174 273.028 211.022C273.426 172.436 239.994 140.412 196.926 136.532L196.925 136.535Z" fill="#DE8E45"/>
<path d="M149.351 236.631C163.071 236.771 174.311 225.756 174.45 212.03L181.328 136.379C138.192 139.387 104.103 170.728 103.701 209.313C103.626 216.465 104.72 223.388 106.815 229.953C112.917 233.968 120.204 236.338 128.052 236.415L149.351 236.631Z" fill="#DE8E45"/>
<path d="M145.144 231.272C153.786 233.516 162.611 228.326 164.856 219.68C167.1 211.034 161.914 202.206 153.273 199.963C144.631 197.719 135.805 202.909 133.561 211.555C131.316 220.201 136.502 229.029 145.144 231.272Z" fill="#FFFACC"/>
<path d="M146.373 226.528C152.396 228.092 158.546 224.475 160.11 218.449C161.675 212.424 158.06 206.272 152.038 204.708C146.015 203.144 139.865 206.762 138.3 212.787C136.736 218.812 140.35 224.964 146.373 226.528Z" fill="#770000"/>
<path d="M144.097 215.454C145.591 215.842 147.117 214.944 147.505 213.449C147.893 211.954 146.997 210.428 145.502 210.04C144.008 209.652 142.482 210.55 142.094 212.045C141.706 213.539 142.603 215.066 144.097 215.454Z" fill="#A32626"/>
<path d="M223.347 232.066C231.989 234.31 240.814 229.12 243.059 220.474C245.304 211.828 240.118 203 231.476 200.757C222.834 198.513 214.009 203.703 211.764 212.349C209.519 220.995 214.705 229.823 223.347 232.066Z" fill="#FFFACC"/>
<path d="M224.576 227.321C230.599 228.885 236.749 225.268 238.313 219.242C239.878 213.217 236.264 207.065 230.241 205.501C224.218 203.937 218.068 207.554 216.504 213.58C214.939 219.605 218.553 225.757 224.576 227.321Z" fill="#770000"/>
<path d="M231.167 216.335C232.661 216.722 234.187 215.825 234.575 214.33C234.964 212.835 234.067 211.309 232.573 210.921C231.078 210.533 229.553 211.431 229.164 212.925C228.776 214.42 229.673 215.947 231.167 216.335Z" fill="#A32626"/>
<path d="M188.155 231.005C181.407 230.937 175.995 225.41 176.064 218.659L200.495 218.906C200.426 225.657 194.899 231.072 188.152 231.004L188.155 231.005Z" fill="#770000"/>
<path d="M188.199 226.636C182.969 226.582 178.751 224.265 178.78 221.458L197.723 221.65C197.694 224.456 193.432 226.686 188.2 226.632L188.199 226.636Z" fill="#A32626"/>
<path d="M187.835 261.414C196.102 261.497 203.306 264.133 207.219 267.993C210.485 264.34 212.728 259.752 213.5 254.673C204.452 255.602 195.097 252.77 187.992 246.203C181.918 251.599 174.176 254.507 166.005 254.425C164.762 254.413 163.531 254.329 162.313 254.18C162.983 259.265 165.131 263.89 168.318 267.603C172.311 263.821 179.568 261.334 187.834 261.417L187.835 261.414Z" fill="#EBD2D2"/>
<path d="M187.682 276.627C195.438 276.704 202.431 273.356 207.223 267.993C203.31 264.132 196.106 261.496 187.839 261.413C179.57 261.329 172.315 263.817 168.323 267.599C173.005 273.059 179.924 276.546 187.683 276.624L187.682 276.627Z" fill="#CA6E91"/>
<path d="M171.188 250.729L179.507 250.812L179.464 254.974C179.44 257.271 177.558 259.116 175.261 259.093C172.965 259.07 171.121 257.187 171.145 254.89L171.188 250.729Z" fill="white"/>
<path d="M196.406 250.982L204.725 251.066L204.683 255.228C204.659 257.525 202.776 259.37 200.48 259.347C198.184 259.324 196.34 257.441 196.363 255.144L196.406 250.982Z" fill="white"/>
<path d="M233.014 243.154C232.367 242.491 231.301 242.48 230.642 243.129C225.888 247.789 219.941 250.49 213.795 251.258C205.025 252.352 195.864 249.495 189.218 242.712L188.044 241.512L186.845 242.687C181.25 248.17 173.863 251.146 166.046 251.067C164.712 251.051 163.393 250.948 162.097 250.762C155.783 249.85 149.969 246.91 145.422 242.267C144.775 241.603 143.71 241.593 143.05 242.241C142.387 242.889 142.376 243.955 143.024 244.615C148.261 249.963 155.008 253.283 162.32 254.177C163.537 254.326 164.768 254.409 166.011 254.421C174.179 254.503 181.924 251.596 187.998 246.2C195.104 252.767 204.462 255.6 213.507 254.67C220.605 253.941 227.512 250.898 232.993 245.525C233.656 244.878 233.666 243.812 233.018 243.152L233.014 243.154Z" fill="#D3CB90"/>
<path d="M158.832 183.689C162.073 183.722 164.676 186.379 164.642 189.622L164.582 195.495L158.711 195.436C155.47 195.403 152.867 192.746 152.9 189.503C152.934 186.261 155.591 183.656 158.832 183.689Z" fill="#FFFACC"/>
<path d="M218.324 196.049L212.453 195.99L212.514 190.117C212.547 186.874 215.204 184.27 218.445 184.303C221.686 184.335 224.289 186.993 224.256 190.235C224.222 193.477 221.565 196.082 218.324 196.049Z" fill="#FFFACC"/>
<path d="M237.162 137.365L203.455 54.3199L201.19 55.7844C200.883 55.9813 200.692 56.3211 200.683 56.6842L200.591 59.8261C200.564 60.7478 199.494 61.2385 198.781 60.6573L196.343 58.6754C196.059 58.4444 195.683 58.3673 195.331 58.4708L192.317 59.3546C191.434 59.6137 190.638 58.748 190.97 57.8883L192.103 54.9585C192.236 54.6174 192.189 54.233 191.984 53.9305L190.213 51.3364C189.694 50.5766 190.271 49.5515 191.19 49.599L194.327 49.7713C194.69 49.7906 195.043 49.6294 195.268 49.3396L197.187 46.853C197.748 46.1244 198.903 46.356 199.14 47.2472L199.945 50.284C200.038 50.636 200.302 50.923 200.645 51.0463L202.382 51.6679L192.455 27.2275C191.657 25.265 188.889 25.2363 188.052 27.1842L182.257 40.6581L183.689 40.4015C184.201 40.309 184.598 40.8457 184.358 41.3094L183.541 42.8903C183.446 43.0738 183.447 43.2927 183.546 43.4755L184.386 45.0424C184.631 45.5023 184.245 46.044 183.731 45.9585L181.976 45.6702C181.773 45.638 181.564 45.7066 181.42 45.8537L180.19 47.1358C179.974 47.36 179.659 47.3772 179.425 47.2413L168.732 72.0997C168.844 72.1664 168.947 72.2548 169.034 72.3694L170.955 74.8558C171.177 75.1455 171.531 75.3058 171.895 75.2842L175.033 75.1118C175.951 75.0599 176.53 76.088 176.012 76.8482L174.242 79.4452C174.037 79.7472 173.992 80.1316 174.122 80.4727L175.256 83.4034C175.589 84.2618 174.79 85.1301 173.909 84.8705L170.895 83.989C170.542 83.8873 170.164 83.9633 169.883 84.1941L167.446 86.1774C166.731 86.7603 165.66 86.2705 165.633 85.3483L165.541 82.2064C165.53 81.8415 165.341 81.5055 165.034 81.3063L164.829 81.1746L141.08 136.391L237.162 137.365Z" fill="#A977AB"/>
<path d="M165.547 82.2064L165.64 85.3483C165.667 86.2673 166.738 86.7571 167.452 86.1774L169.889 84.1941C170.17 83.9633 170.552 83.8881 170.901 83.9891L173.915 84.8706C174.797 85.1302 175.595 84.2618 175.262 83.4035L174.128 80.4727C173.995 80.1308 174.04 79.7464 174.248 79.4452L176.018 76.8482C176.536 76.088 175.959 75.0639 175.039 75.1118L171.901 75.2843C171.537 75.3059 171.184 75.1424 170.961 74.8558L169.04 72.3694C168.953 72.2548 168.847 72.1656 168.738 72.0997L164.835 81.1747L165.04 81.3064C165.347 81.5055 165.536 81.8415 165.547 82.2064Z" fill="#FFB23E"/>
<path d="M199.945 50.2818L199.139 47.245C198.903 46.3538 197.748 46.1222 197.187 46.8508L195.268 49.3374C195.045 49.628 194.693 49.7892 194.329 49.77L191.193 49.5977C190.274 49.547 189.696 50.5752 190.216 51.3351L191.987 53.9291C192.191 54.2316 192.238 54.616 192.105 54.9572L190.973 57.8869C190.64 58.7466 191.436 59.6123 192.319 59.3532L195.334 58.4694C195.685 58.3659 196.064 58.4438 196.346 58.674L198.784 60.656C199.497 61.2371 200.566 60.7464 200.594 59.8247L200.686 56.6828C200.696 56.3166 200.886 55.9799 201.193 55.783L203.457 54.3185L202.379 51.6616L200.642 51.0401C200.299 50.9167 200.038 50.6338 199.942 50.2778L199.945 50.2818Z" fill="#FFB23E"/>
<path d="M180.195 47.132L181.426 45.8498C181.571 45.6996 181.776 45.6301 181.979 45.6655L183.734 45.9538C184.247 46.0393 184.635 45.4944 184.388 45.0376L183.549 43.4708C183.453 43.2888 183.448 43.0691 183.544 42.8856L184.36 41.3047C184.6 40.841 184.204 40.3043 183.691 40.3968L182.259 40.6534L179.426 47.2398C179.662 47.3725 179.976 47.3585 180.191 47.1343L180.195 47.132Z" fill="#FFB23E"/>
<path d="M141.081 136.391L136.818 146.301L241.218 147.359L237.163 137.365L141.081 136.391Z" fill="#FFB23E"/>
<path d="M209.111 98.4132L210.348 101.302C210.493 101.637 210.791 101.882 211.151 101.955L214.23 102.573C215.132 102.753 215.434 103.893 214.74 104.499L212.377 106.569C212.103 106.809 211.961 107.172 212.003 107.534L212.367 110.655C212.474 111.57 211.486 112.208 210.694 111.736L207.995 110.127C207.682 109.94 207.295 109.918 206.962 110.071L204.106 111.382C203.269 111.766 202.356 111.023 202.561 110.127L203.257 107.063C203.34 106.706 203.238 106.335 202.991 106.065L200.863 103.754C200.24 103.077 200.662 101.978 201.581 101.895L204.71 101.611C205.074 101.579 205.398 101.366 205.576 101.051L207.116 98.312C207.567 97.5104 208.742 97.5729 209.106 98.4188L209.111 98.4132Z" fill="#FFB23E"/>
<path d="M174.011 102.279L176.201 104.531C176.458 104.792 176.822 104.914 177.183 104.851L180.28 104.323C181.187 104.169 181.879 105.12 181.449 105.934L179.983 108.713C179.814 109.038 179.813 109.423 179.981 109.747L181.44 112.53C181.867 113.344 181.175 114.298 180.267 114.141L177.173 113.608C176.814 113.545 176.445 113.665 176.189 113.926L173.995 116.174C173.352 116.833 172.232 116.467 172.1 115.556L171.652 112.444C171.599 112.082 171.373 111.771 171.046 111.607L168.23 110.214C167.405 109.805 167.406 108.627 168.232 108.22L171.051 106.831C171.379 106.67 171.607 106.357 171.66 105.995L172.116 102.886C172.25 101.975 173.368 101.613 174.009 102.271L174.011 102.279Z" fill="#FFB23E"/>
<path d="M201.362 123.839L201.865 125.544C201.922 125.743 202.076 125.899 202.271 125.963L203.961 126.515C204.455 126.677 204.55 127.334 204.122 127.629L202.656 128.635C202.486 128.751 202.384 128.947 202.385 129.152L202.384 130.931C202.382 131.453 201.787 131.746 201.374 131.43L199.965 130.347C199.8 130.222 199.585 130.183 199.39 130.249L197.698 130.797C197.202 130.958 196.739 130.48 196.911 129.988L197.504 128.311C197.571 128.117 197.542 127.901 197.418 127.733L196.375 126.294C196.068 125.873 196.378 125.284 196.901 125.296L198.677 125.344C198.884 125.35 199.079 125.254 199.202 125.084L200.247 123.648C200.555 123.226 201.211 123.342 201.358 123.841L201.362 123.839Z" fill="#FFB23E"/>
<path d="M201.519 80.7134L201.42 82.4875C201.408 82.6926 201.499 82.8938 201.665 83.0188L203.072 84.1048C203.485 84.4236 203.353 85.0758 202.85 85.2116L201.131 85.6668C200.929 85.7204 200.771 85.8673 200.7 86.0639L200.101 87.7389C199.926 88.2296 199.264 88.307 198.982 87.8684L198.018 86.375C197.906 86.2025 197.715 86.0949 197.509 86.0891L195.733 86.038C195.212 86.0221 194.935 85.4175 195.266 85.0116L196.388 83.6331C196.519 83.4723 196.561 83.2578 196.503 83.0585L196.004 81.3512C195.858 80.8521 196.351 80.3995 196.834 80.5898L198.49 81.2315C198.682 81.3054 198.9 81.2801 199.071 81.1637L200.539 80.1619C200.971 79.8675 201.548 80.1949 201.521 80.7174L201.519 80.7134Z" fill="#FFB23E"/>
<path d="M157.726 124.432L158.975 125.696C159.121 125.843 159.329 125.91 159.533 125.871L161.284 125.557C161.796 125.465 162.193 126.002 161.953 126.465L161.136 128.046C161.041 128.23 161.042 128.449 161.141 128.631L161.981 130.198C162.226 130.658 161.84 131.2 161.326 131.114L159.571 130.826C159.368 130.794 159.159 130.863 159.018 131.01L157.788 132.293C157.428 132.667 156.793 132.468 156.712 131.952L156.445 130.195C156.413 129.989 156.284 129.816 156.099 129.727L154.501 128.953C154.031 128.725 154.026 128.058 154.492 127.827L156.079 127.027C156.264 126.935 156.392 126.756 156.421 126.552L156.663 124.791C156.736 124.274 157.367 124.066 157.732 124.434L157.726 124.432Z" fill="#FFB23E"/>
<path d="M120.101 184.763C108.672 181.386 106.037 156.192 114.221 128.497C119.961 109.07 135.119 95.2295 143.662 88.6981C146.74 86.3453 151.227 87.6705 152.529 91.3178C156.15 101.444 161.356 121.299 155.615 140.729C147.43 168.428 131.532 188.144 120.1 184.766L120.101 184.763Z" fill="#DE8E45"/>
<path d="M257.146 186.152C268.643 183.007 271.796 157.874 264.189 130.017C258.851 110.476 243.984 96.334 235.58 89.6305C232.551 87.2152 228.039 88.448 226.658 92.0714C222.83 102.122 217.216 121.868 222.55 141.408C230.16 169.266 245.648 189.3 257.145 186.155L257.146 186.152Z" fill="#DE8E45"/>
<path d="M138.698 136.799C132.135 156.989 117.33 170.272 117.33 170.272C117.33 170.272 113.167 150.821 119.733 130.632C126.296 110.442 141.101 97.1591 141.101 97.1591C141.101 97.1591 145.264 116.61 138.698 136.799Z" fill="#EBD2D2"/>
<path d="M239.542 137.822C245.688 158.142 260.213 171.721 260.213 171.721C260.213 171.721 264.776 152.357 258.632 132.041C252.486 111.721 237.961 98.1416 237.961 98.1416C237.961 98.1416 233.398 117.505 239.542 137.822Z" fill="#EBD2D2"/>
<g opacity="0.82">
<path d="M85.271 197.448L87.6408 181.391L76.3373 189.983L66.214 164.405L55.5666 189.771L44.4439 180.955L46.4829 197.057C44.787 199.447 43.8051 202.191 43.7767 205.114C43.681 214.542 53.4568 222.288 65.6182 222.409C77.7789 222.533 87.7152 214.987 87.811 205.559C87.8401 202.633 86.919 199.871 85.271 197.448Z" fill="#FF7336"/>
<path d="M74.942 205.302L76.061 197.731L70.7284 201.784L65.9542 189.722L60.9332 201.686L55.6877 197.527L56.6481 205.122C55.8468 206.25 55.3846 207.543 55.3712 208.923C55.3257 213.371 59.938 217.024 65.6713 217.082C71.4079 217.14 76.0932 213.582 76.1387 209.134C76.1521 207.754 75.7192 206.45 74.9403 205.309L74.942 205.302Z" fill="#FFB23E"/>
<path d="M330.498 199.928L332.867 183.871L321.564 192.462L311.441 166.885L300.793 192.25L289.67 183.434L291.709 199.536C290.014 201.927 289.032 204.67 289.003 207.593C288.908 217.021 298.683 224.767 310.845 224.888C323.005 225.013 332.942 217.467 333.038 208.039C333.067 205.113 332.146 202.35 330.498 199.928Z" fill="#FF7336"/>
<path d="M320.169 207.786L321.288 200.215L315.955 204.267L311.181 192.205L306.16 204.169L300.914 200.011L301.875 207.606C301.073 208.733 300.611 210.027 300.598 211.406C300.552 215.855 305.165 219.507 310.898 219.565C316.634 219.623 321.32 216.066 321.365 211.617C321.379 210.238 320.946 208.933 320.167 207.792L320.169 207.786Z" fill="#FFB23E"/>
</g>
<path d="M130.886 223.51L165.299 223.857L165.247 228.927C165.23 230.593 163.865 231.934 162.196 231.917L130.8 231.601L130.883 223.51L130.886 223.51Z" fill="#DE8E45"/>
<path d="M246.078 232.778L214.681 232.462C213.016 232.445 211.676 231.08 211.693 229.41L211.745 224.34L246.158 224.687L246.075 232.778L246.078 232.778Z" fill="#DE8E45"/>
</g>
<defs>
<clipPath id="clip0_1991_501">
<rect width="289.4" height="363.8" fill="white" transform="translate(91.4219) rotate(14.5537)"/>
</clipPath>
</defs>
</svg>
