<svg width="740" height="704" viewBox="0 0 740 704" fill="none" xmlns="http://www.w3.org/2000/svg">
    <path d="M106.03 225.002L60.8374 205.851L50.0186 231.382L95.2114 250.533L106.03 225.002Z" fill="#FFB23E"/>
    <path d="M659.962 494.574L103.542 263.148L111.811 243.683L704.143 496.753L659.962 494.574Z" fill="#929896"/>
    <path d="M672.373 466.636L704.555 496.909L111.859 243.682L119.096 223.876L672.373 466.636Z" fill="#D0D6D6"/>
    <path d="M83.0757 272.378L113.425 200.972C115.428 196.629 120.424 194.412 124.767 196.415C129.109 198.418 131.326 203.415 129.323 207.757L98.9743 279.164C96.9715 283.507 91.9748 285.724 87.6322 283.721C83.2392 282.042 81.3975 276.771 83.0757 272.378Z" fill="#DE8E45"/>
    <path d="M27.9401 211.791C26.3489 222.053 33.3783 231.662 43.6406 233.253C53.9029 234.844 63.5117 227.815 65.1029 217.553C66.694 207.291 59.665 197.681 49.4027 196.09C39.1404 194.499 29.5312 201.529 27.9401 211.791Z" fill="#FFB23E"/>
    <path d="M98.885 222.153L95.3635 220.661L84.5447 246.192L88.0662 247.684L98.885 222.153Z" fill="#DE8E45"/>
    <path d="M89.6443 218.236L86.1228 216.743L75.304 242.274L78.8256 243.766L89.6443 218.236Z" fill="#DE8E45"/>
    <path d="M80.915 214.301L77.3936 212.809L66.5748 238.34L70.0962 239.832L80.915 214.301Z" fill="#DE8E45"/>
    <path d="M71.7493 210.521L68.2278 209.028L57.409 234.559L60.9306 236.052L71.7493 210.521Z" fill="#DE8E45"/>
    <path d="M36.7834 213.145C35.9474 218.537 39.6411 223.586 45.0331 224.422C50.4252 225.258 55.4739 221.565 56.31 216.173C57.146 210.781 53.4527 205.732 48.0606 204.896C42.6686 204.06 37.6194 207.753 36.7834 213.145Z" fill="#DE8E45"/>
    <path d="M633.97 225.002L679.163 205.851L689.982 231.382L644.789 250.533L633.97 225.002Z" fill="#FFB23E"/>
    <path d="M80.0384 494.574L636.458 263.148L628.189 243.683L35.8578 496.753L80.0384 494.574Z" fill="#929896"/>
    <path d="M67.6273 466.636L35.4459 496.909L628.142 243.682L620.905 223.876L67.6273 466.636Z" fill="#D0D6D6"/>
    <path d="M656.925 272.378L626.576 200.972C624.573 196.629 619.576 194.412 615.234 196.415C610.891 198.418 608.674 203.415 610.677 207.757L641.026 279.164C643.029 283.507 648.026 285.724 652.368 283.721C656.761 282.042 658.603 276.771 656.925 272.378Z" fill="#DE8E45"/>
    <path d="M712.06 211.791C713.652 222.053 706.622 231.662 696.36 233.253C686.098 234.844 676.489 227.815 674.898 217.553C673.306 207.291 680.336 197.681 690.598 196.09C700.86 194.499 710.469 201.529 712.06 211.791Z" fill="#FFB23E"/>
    <path d="M641.115 222.153L644.637 220.661L655.455 246.192L651.934 247.684L641.115 222.153Z" fill="#DE8E45"/>
    <path d="M650.356 218.236L653.877 216.743L664.696 242.274L661.175 243.766L650.356 218.236Z" fill="#DE8E45"/>
    <path d="M659.085 214.301L662.607 212.809L673.426 238.34L669.904 239.832L659.085 214.301Z" fill="#DE8E45"/>
    <path d="M668.251 210.521L671.772 209.028L682.591 234.559L679.07 236.052L668.251 210.521Z" fill="#DE8E45"/>
    <path d="M703.217 213.145C704.053 218.537 700.359 223.586 694.967 224.422C689.575 225.258 684.527 221.565 683.691 216.173C682.854 210.781 686.548 205.732 691.94 204.896C697.332 204.06 702.381 207.753 703.217 213.145Z" fill="#DE8E45"/>
    <g filter="url(#filter0_f_1701_158)">
    <path d="M538.115 308.05C538.115 408.711 602.065 546.874 374.294 546.874C146.523 546.874 206.13 417.79 206.13 308.05C206.13 198.309 191.13 156.86 374.691 156.86C538.116 156.86 538.115 203.835 538.115 308.05Z" fill="#FFBA32" fill-opacity="0.9"/>
    </g>
    <path d="M373.063 594.623C301.042 566.391 157 443.206 157 176.326C198.484 172.869 299.774 153.164 373.063 102C413.164 142.101 530.356 168.259 583.94 176.326C583.94 426.958 443.931 566.967 373.063 594.623Z" fill="#787E7C"/>
    <path d="M374.606 570.343C309.062 544.65 177.973 432.543 177.973 189.662C215.727 186.516 307.909 168.583 374.606 122.02C411.102 158.515 517.755 182.321 566.52 189.662C566.52 417.756 439.102 545.174 374.606 570.343Z" fill="#BABCBC"/>
    <defs>
    <filter id="filter0_f_1701_158" x="42.7745" y="0.540115" width="659.93" height="702.654" filterUnits="userSpaceOnUse" color-interpolation-filters="sRGB">
    <feFlood flood-opacity="0" result="BackgroundImageFix"/>
    <feBlend mode="normal" in="SourceGraphic" in2="BackgroundImageFix" result="shape"/>
    <feGaussianBlur stdDeviation="78.1599" result="effect1_foregroundBlur_1701_158"/>
    </filter>
    </defs>
    </svg>
    