<svg width="1512" height="1729" viewBox="0 0 1512 1729" fill="none" xmlns="http://www.w3.org/2000/svg">
<path d="M2 598.5L414.454 357L1009.67 139L1167 91L1323.5 24L1512 0V2596H2V598.5Z" fill="#0A2424"/>
<path d="M-2 555L287 495L978 407L1258.5 359H1510V2940.5H-2V555Z" fill="#1A494B"/>
<path opacity="0.29" d="M204.5 945C214.717 945 223 940.075 223 934C223 927.925 214.717 923 204.5 923C194.283 923 186 927.925 186 934C186 940.075 194.283 945 204.5 945Z" fill="#ADA663"/>
<path opacity="0.29" d="M1392.5 1361C1402.72 1361 1411 1356.08 1411 1350C1411 1343.93 1402.72 1339 1392.5 1339C1382.28 1339 1374 1343.93 1374 1350C1374 1356.08 1382.28 1361 1392.5 1361Z" fill="#ADA663"/>
<path opacity="0.29" d="M419.5 1119C429.717 1119 438 1115.64 438 1111.5C438 1107.36 429.717 1104 419.5 1104C409.283 1104 401 1107.36 401 1111.5C401 1115.64 409.283 1119 419.5 1119Z" fill="#ADA663"/>
<path opacity="0.29" d="M438 1096C445.18 1096 451 1093.09 451 1089.5C451 1085.91 445.18 1083 438 1083C430.82 1083 425 1085.91 425 1089.5C425 1093.09 430.82 1096 438 1096Z" fill="#ADA663"/>
<path opacity="0.29" d="M461.5 1114C465.642 1114 469 1111.99 469 1109.5C469 1107.01 465.642 1105 461.5 1105C457.358 1105 454 1107.01 454 1109.5C454 1111.99 457.358 1114 461.5 1114Z" fill="#ADA663"/>
<path opacity="0.29" d="M956.5 766C967.27 766 976 760.851 976 754.5C976 748.149 967.27 743 956.5 743C945.73 743 937 748.149 937 754.5C937 760.851 945.73 766 956.5 766Z" fill="#ADA663"/>
<path opacity="0.29" d="M242.5 1227C253.27 1227 262 1221.85 262 1215.5C262 1209.15 253.27 1204 242.5 1204C231.73 1204 223 1209.15 223 1215.5C223 1221.85 231.73 1227 242.5 1227Z" fill="#ADA663"/>
<path opacity="0.29" d="M1455.5 444C1466.27 444 1475 438.851 1475 432.5C1475 426.149 1466.27 421 1455.5 421C1444.73 421 1436 426.149 1436 432.5C1436 438.851 1444.73 444 1455.5 444Z" fill="#ADA663"/>
<path opacity="0.29" d="M805.5 485C816.27 485 825 479.851 825 473.5C825 467.149 816.27 462 805.5 462C794.73 462 786 467.149 786 473.5C786 479.851 794.73 485 805.5 485Z" fill="#ADA663"/>
<path opacity="0.54" d="M138.5 923C163.629 923 184 916.732 184 909C184 901.268 163.629 895 138.5 895C113.371 895 93 901.268 93 909C93 916.732 113.371 923 138.5 923Z" fill="#ADA663"/>
<path opacity="0.29" d="M1449.5 814C1459.72 814 1468 807.508 1468 799.5C1468 791.492 1459.72 785 1449.5 785C1439.28 785 1431 791.492 1431 799.5C1431 807.508 1439.28 814 1449.5 814Z" fill="#ADA663"/>
<path opacity="0.54" d="M955 1183C965.493 1183 974 1179.64 974 1175.5C974 1171.36 965.493 1168 955 1168C944.507 1168 936 1171.36 936 1175.5C936 1179.64 944.507 1183 955 1183Z" fill="#ADA663"/>
<path opacity="0.54" d="M904 1202C914.493 1202 923 1198.64 923 1194.5C923 1190.36 914.493 1187 904 1187C893.507 1187 885 1190.36 885 1194.5C885 1198.64 893.507 1202 904 1202Z" fill="#ADA663"/>
<path opacity="0.54" d="M906 1168C916.493 1168 925 1164.64 925 1160.5C925 1156.36 916.493 1153 906 1153C895.507 1153 887 1156.36 887 1160.5C887 1164.64 895.507 1168 906 1168Z" fill="#ADA663"/>
<path opacity="0.54" d="M728.5 1272C753.629 1272 774 1263.94 774 1254C774 1244.06 753.629 1236 728.5 1236C703.371 1236 683 1244.06 683 1254C683 1263.94 703.371 1272 728.5 1272Z" fill="#ADA663"/>
<path opacity="0.54" d="M199.5 559C217.449 559 232 554.523 232 549C232 543.477 217.449 539 199.5 539C181.551 539 167 543.477 167 549C167 554.523 181.551 559 199.5 559Z" fill="#ADA663"/>
<path opacity="0.54" d="M1500.5 471C1518.45 471 1533 466.523 1533 461C1533 455.477 1518.45 451 1500.5 451C1482.55 451 1468 455.477 1468 461C1468 466.523 1482.55 471 1500.5 471Z" fill="#ADA663"/>
<path d="M902.824 692L911.386 698.093L924 694.737L917.725 704.48L923.248 712.691L910.797 712.593L901.647 721L900.209 711.225L889 708.227L900.568 702.264L902.824 692Z" fill="#698E57"/>
<path d="M839.824 1117L848.386 1123.09L861 1119.74L854.725 1129.48L860.248 1137.69L847.797 1137.59L838.647 1146L837.209 1136.22L826 1133.23L837.568 1127.26L839.824 1117Z" fill="#698E57"/>
<path d="M278.824 1231L287.386 1237.09L300 1233.74L293.725 1243.48L299.248 1251.69L286.797 1251.59L277.647 1260L276.209 1250.22L265 1247.23L276.568 1241.26L278.824 1231Z" fill="#698E57"/>
<path d="M106.824 630L115.386 636.093L128 632.737L121.725 642.48L127.248 650.691L114.797 650.593L105.647 659L104.209 649.225L93 646.227L104.568 640.264L106.824 630Z" fill="#698E57"/>
<path d="M239.824 987L248.386 993.093L261 989.737L254.725 999.48L260.248 1007.69L247.797 1007.59L238.647 1016L237.209 1006.22L226 1003.23L237.568 997.264L239.824 987Z" fill="#698E57"/>
<path d="M1406.82 544L1415.39 550.093L1428 546.737L1421.73 556.48L1427.25 564.691L1414.8 564.593L1405.65 573L1404.21 563.225L1393 560.227L1404.57 554.264L1406.82 544Z" fill="#698E57"/>
<path d="M1408.63 755.886C1407.98 751.184 1410.07 746.263 1414.52 742.046C1418.97 737.829 1425.47 734.604 1432.81 732.976C1440.14 731.348 1447.8 731.428 1454.36 733.201C1460.92 734.974 1465.93 738.319 1468.44 742.609C1470.95 746.9 1470.8 751.841 1468.02 756.507C1465.23 761.174 1459.99 765.246 1453.3 767.961C1446.6 770.676 1438.9 771.848 1431.63 771.257C1424.36 770.666 1418.03 768.352 1413.82 764.75L1439.37 751.608L1408.63 755.886Z" fill="#636C47"/>
<path d="M91.9055 993.376C92.1258 988.633 89.5895 983.925 84.7715 980.134C79.9535 976.342 73.1842 973.728 65.7315 972.78C58.2787 971.831 50.6537 972.614 44.2842 974.982C37.9148 977.35 33.2379 981.14 31.1294 985.642C29.0209 990.145 29.6253 995.051 32.8296 999.442C36.0339 1003.83 41.6182 1007.41 48.5367 1009.5C55.4552 1011.59 63.2335 1012.05 70.4147 1010.79C77.596 1009.54 83.6877 1006.65 87.5491 1002.68L60.9062 991.936L91.9055 993.376Z" fill="#636C47"/>
<path d="M1461.91 1317.38C1462.13 1312.63 1459.59 1307.92 1454.77 1304.13C1449.95 1300.34 1443.18 1297.73 1435.73 1296.78C1428.28 1295.83 1420.65 1296.61 1414.28 1298.98C1407.91 1301.35 1403.24 1305.14 1401.13 1309.64C1399.02 1314.14 1399.63 1319.05 1402.83 1323.44C1406.03 1327.83 1411.62 1331.41 1418.54 1333.5C1425.46 1335.59 1433.23 1336.05 1440.41 1334.79C1447.6 1333.54 1453.69 1330.65 1457.55 1326.68L1430.91 1315.94L1461.91 1317.38Z" fill="#636C47"/>
<path d="M938.203 487.594C938.547 482.619 934.943 477.542 928.064 473.314C921.186 469.086 911.506 465.997 900.836 464.625C890.167 463.254 879.24 463.694 870.103 465.863C860.965 468.033 854.243 471.782 851.196 476.41C848.148 481.038 848.984 486.226 853.548 491.004C858.111 495.782 866.088 499.821 875.985 502.365C885.882 504.908 897.021 505.783 907.315 504.824C917.609 503.865 926.352 501.139 931.907 497.156L893.809 484.523L938.203 487.594Z" fill="#636C47"/>
<ellipse cx="275.494" cy="176.182" rx="44.2125" ry="19.0683" fill="#C45C84"/>
<path d="M264.981 161.848C274.559 168.459 271.176 188.267 259.716 198.466C248.256 208.665 231.201 211.574 221.623 204.963C212.046 198.352 213.571 184.725 225.031 174.526C236.491 164.327 255.403 155.237 264.981 161.848Z" fill="#C45C84"/>
<path d="M278.468 160.911C268.006 167.876 277.547 188.317 289.513 198.589C301.479 208.861 319.661 211.542 330.124 204.576C340.586 197.61 339.367 183.636 327.401 173.364C315.435 163.092 288.931 153.945 278.468 160.911Z" fill="#C45C84"/>
<path d="M295.539 179.213C296.592 176.86 305.506 176.171 314.06 179.731C322.614 183.29 328.174 189.563 327.121 191.916C326.069 194.27 319.005 193.931 310.451 190.372C301.897 186.813 294.486 181.567 295.539 179.213Z" fill="#EF7BA2"/>
<path d="M253.284 178.607C253.021 176.996 255.755 173.942 259.467 173.335C263.18 172.729 266.614 174.514 266.878 176.126C267.141 177.737 264.747 179.67 261.034 180.277C257.322 180.884 253.548 180.219 253.284 178.607Z" fill="#D9D9D9"/>
<path d="M266.366 161.304C266.612 162.47 264.721 164.784 262.036 165.349C259.352 165.914 256.791 164.726 256.546 163.561C256.301 162.396 257.981 160.908 260.666 160.344C263.35 159.779 266.121 160.139 266.366 161.304Z" fill="#D9D9D9"/>
<path d="M313.186 183.95C312.786 185.003 310.512 185.686 308.13 184.782C305.748 183.878 303.975 181.847 304.375 180.795C304.775 179.742 307.205 179.444 309.587 180.348C311.969 181.252 313.585 182.898 313.186 183.95Z" fill="#D9D9D9"/>
<path d="M329.496 204.471C329.496 209.783 296.07 211.451 272.504 211.451C248.938 211.451 219.809 208.907 219.809 203.595C219.809 198.283 248.938 192.214 272.504 192.214C296.07 192.214 329.496 199.159 329.496 204.471Z" fill="#671430"/>
<path d="M316.666 200.567C316.666 204.667 291.473 207.063 273.142 207.063C254.811 207.063 230.941 203.739 230.941 199.639C230.941 195.538 254.811 192.214 273.142 192.214C291.473 192.214 316.666 196.466 316.666 200.567Z" fill="#992049"/>
<path d="M279.421 162.14C280.076 158.372 287.045 158.175 295.217 159.595C302.365 160.837 307.852 164.859 307.198 168.627C306.543 172.394 301.051 175.807 293.903 174.565C286.756 173.323 278.767 165.907 279.421 162.14Z" fill="#EF7BA2"/>
<path d="M262.774 188.184C262.23 191.508 266.333 193.417 271.552 194.271C276.117 195.018 280.382 193.017 280.926 189.694C281.47 186.371 279.045 182.134 274.48 181.387C269.915 180.64 263.318 184.861 262.774 188.184Z" fill="#EF7BA2"/>
<path d="M236.261 178.927C237.178 181.708 242.448 181.089 248.441 179.113C253.682 177.385 257.361 173.734 256.444 170.953C255.528 168.172 251.008 166.193 245.767 167.921C240.525 169.649 235.344 176.146 236.261 178.927Z" fill="#EF7BA2"/>
<path d="M320.185 182.486C321.884 179.778 326.24 179.453 329.914 181.759C333.587 184.065 335.187 188.13 333.487 190.837C331.788 193.545 329.337 190.268 325.664 187.962C321.99 185.655 318.485 185.194 320.185 182.486Z" fill="#D9D9D9"/>
<path d="M300.132 167.74C300.941 165.145 304.954 164.088 309.094 165.38C313.235 166.671 315.936 169.822 315.126 172.417C314.317 175.011 310.651 177.071 306.51 175.78C302.37 174.488 299.322 170.335 300.132 167.74Z" fill="#D9D9D9"/>
<path d="M284.196 172.577C284.496 170.844 288.372 167.067 291.957 167.687C295.541 168.307 297.476 173.089 297.177 174.822C296.877 176.556 293.797 176.649 290.212 176.029C286.628 175.409 283.896 174.311 284.196 172.577Z" fill="#D9D9D9"/>
<path d="M266.95 167.401C266.994 165.122 270.529 159.51 274.451 159.586C278.374 159.662 282.962 163.087 282.918 165.367C282.874 167.647 279.028 168.21 275.106 168.134C271.184 168.058 266.906 169.681 266.95 167.401Z" fill="#D9D9D9"/>
<path d="M246.734 164.443C247.568 166.565 245.842 172.627 242.191 174.061C238.539 175.496 231.388 174.854 230.554 172.732C229.043 171.205 236.995 166.839 240.502 164.966C244.164 163.326 245.901 162.321 246.734 164.443Z" fill="#D9D9D9"/>
<path d="M230.712 182.661C229.444 180.501 226.307 179.988 223.704 181.515C221.101 183.043 220.018 186.032 221.285 188.192C222.552 190.352 224.108 188.281 226.711 186.754C229.314 185.227 231.979 184.821 230.712 182.661Z" fill="#D9D9D9"/>
<path d="M272.377 192.055L279.764 192.19L282.723 210.018L272.721 209.384L272.377 192.055Z" fill="#280410"/>
<path d="M272.38 192.056L264.993 192.191L262.731 209.932L274.651 209.258L272.38 192.056Z" fill="#280410"/>
<path d="M272.348 241.059L279.324 243.982L282.922 222.308L272.743 222.308L272.348 241.059Z" fill="#280410"/>
<path d="M272.43 241.2L265.368 243.617L262.675 221.913L272.707 222.978L272.43 241.2Z" fill="#280410"/>
<rect x="262.67" y="204.701" width="20.25" height="23.6245" rx="6.74992" fill="#280410"/>
<path d="M286.41 185.754C286.857 183.017 284.413 178.19 280.7 177.583C276.988 176.976 273.292 180.359 272.845 183.097C272.397 185.834 274.621 188.816 278.333 189.423C282.045 190.03 285.962 188.492 286.41 185.754Z" fill="#D9D9D9"/>
<ellipse cx="389.409" cy="194.135" rx="33.1594" ry="14.3012" fill="#C45C84"/>
<path d="M381.525 183.385C388.708 188.343 386.171 203.199 377.576 210.848C368.981 218.498 356.19 220.679 349.007 215.721C341.823 210.763 342.968 200.542 351.563 192.893C360.158 185.244 374.342 178.426 381.525 183.385Z" fill="#C45C84"/>
<path d="M391.64 182.682C383.793 187.906 390.949 203.236 399.924 210.94C408.898 218.645 422.535 220.655 430.382 215.431C438.229 210.206 437.314 199.726 428.34 192.021C419.365 184.317 399.487 177.457 391.64 182.682Z" fill="#C45C84"/>
<path d="M404.443 196.409C405.233 194.643 411.918 194.127 418.334 196.796C424.75 199.466 428.92 204.17 428.13 205.936C427.341 207.701 422.043 207.447 415.627 204.778C409.212 202.108 403.654 198.174 404.443 196.409Z" fill="#EF7BA2"/>
<path d="M372.755 195.954C372.558 194.745 374.608 192.455 377.393 192C380.177 191.545 382.753 192.884 382.95 194.093C383.148 195.302 381.352 196.752 378.568 197.207C375.783 197.662 372.953 197.163 372.755 195.954Z" fill="#D9D9D9"/>
<path d="M382.562 182.976C382.746 183.85 381.328 185.586 379.315 186.01C377.302 186.433 375.381 185.543 375.197 184.669C375.013 183.795 376.274 182.68 378.287 182.256C380.3 181.833 382.379 182.102 382.562 182.976Z" fill="#D9D9D9"/>
<path d="M417.678 199.961C417.379 200.751 415.673 201.263 413.887 200.585C412.1 199.907 410.771 198.384 411.07 197.595C411.37 196.805 413.193 196.581 414.979 197.259C416.766 197.937 417.978 199.172 417.678 199.961Z" fill="#D9D9D9"/>
<path d="M429.914 215.352C429.914 219.336 404.844 220.587 387.17 220.587C369.496 220.587 347.648 218.679 347.648 214.695C347.648 210.711 369.496 206.159 387.17 206.159C404.844 206.159 429.914 211.368 429.914 215.352Z" fill="#671430"/>
<path d="M420.286 212.424C420.286 215.499 401.391 217.296 387.643 217.296C373.895 217.296 355.992 214.803 355.992 211.728C355.992 208.652 373.895 206.159 387.643 206.159C401.391 206.159 420.286 209.348 420.286 212.424Z" fill="#992049"/>
<path d="M392.353 183.603C392.844 180.778 398.071 180.63 404.201 181.695C409.561 182.626 413.677 185.643 413.186 188.469C412.695 191.294 408.576 193.853 403.215 192.922C397.855 191.991 391.862 186.429 392.353 183.603Z" fill="#EF7BA2"/>
<path d="M379.867 203.137C379.459 205.63 382.536 207.062 386.45 207.702C389.874 208.263 393.073 206.762 393.481 204.269C393.889 201.777 392.07 198.6 388.646 198.039C385.222 197.479 380.275 200.644 379.867 203.137Z" fill="#EF7BA2"/>
<path d="M359.988 196.193C360.675 198.279 364.628 197.815 369.123 196.333C373.054 195.037 375.813 192.299 375.125 190.213C374.438 188.127 371.048 186.643 367.117 187.939C363.186 189.235 359.3 194.108 359.988 196.193Z" fill="#EF7BA2"/>
<path d="M422.927 198.863C424.202 196.832 427.469 196.588 430.224 198.318C432.98 200.047 434.18 203.096 432.905 205.126C431.63 207.157 429.792 204.699 427.037 202.969C424.282 201.24 421.653 200.893 422.927 198.863Z" fill="#D9D9D9"/>
<path d="M407.888 187.803C408.495 185.857 411.504 185.065 414.61 186.033C417.715 187.002 419.741 189.365 419.134 191.311C418.527 193.257 415.777 194.802 412.672 193.833C409.566 192.865 407.281 189.749 407.888 187.803Z" fill="#D9D9D9"/>
<path d="M395.937 191.431C396.162 190.131 399.07 187.299 401.758 187.764C404.446 188.229 405.898 191.815 405.673 193.115C405.448 194.416 403.138 194.486 400.45 194.021C397.761 193.556 395.713 192.732 395.937 191.431Z" fill="#D9D9D9"/>
<path d="M383.003 187.55C383.036 185.84 385.687 181.631 388.629 181.688C391.571 181.745 395.012 184.314 394.979 186.024C394.946 187.734 392.062 188.156 389.12 188.099C386.178 188.042 382.97 189.26 383.003 187.55Z" fill="#D9D9D9"/>
<path d="M367.838 185.331C368.464 186.922 367.169 191.468 364.431 192.544C361.692 193.62 356.328 193.139 355.703 191.547C354.57 190.402 360.534 187.128 363.164 185.722C365.911 184.493 367.213 183.739 367.838 185.331Z" fill="#D9D9D9"/>
<path d="M355.824 198.995C354.874 197.375 352.521 196.99 350.568 198.135C348.616 199.281 347.804 201.523 348.754 203.143C349.705 204.763 350.872 203.21 352.824 202.064C354.776 200.919 356.775 200.615 355.824 198.995Z" fill="#D9D9D9"/>
<path d="M387.073 206.04L392.614 206.141L394.833 219.512L387.331 219.037L387.073 206.04Z" fill="#280410"/>
<path d="M387.073 206.04L381.532 206.141L379.836 219.447L388.776 218.942L387.073 206.04Z" fill="#280410"/>
<path d="M387.049 242.792L392.28 244.985L394.979 228.729L387.345 228.729L387.049 242.792Z" fill="#280410"/>
<path d="M387.109 242.899L381.812 244.711L379.792 228.433L387.316 229.232L387.109 242.899Z" fill="#280410"/>
<rect x="379.793" y="215.524" width="15.1875" height="17.7183" rx="5.06244" fill="#280410"/>
<path d="M397.599 201.314C397.935 199.261 396.102 195.641 393.317 195.186C390.533 194.731 387.761 197.268 387.426 199.321C387.09 201.374 388.757 203.611 391.542 204.066C394.326 204.521 397.264 203.368 397.599 201.314Z" fill="#D9D9D9"/>
<ellipse cx="499.762" cy="181.419" rx="41.4492" ry="17.8766" fill="#C45C84"/>
<path d="M489.906 167.98C498.885 174.178 495.714 192.749 484.97 202.31C474.226 211.872 458.238 214.599 449.258 208.401C440.279 202.203 441.709 189.428 452.453 179.866C463.197 170.304 480.927 161.783 489.906 167.98Z" fill="#C45C84"/>
<path d="M502.554 167.102C492.745 173.632 501.69 192.795 512.908 202.426C524.127 212.056 541.172 214.569 550.981 208.038C560.79 201.508 559.647 188.407 548.429 178.777C537.21 169.147 512.362 160.572 502.554 167.102Z" fill="#C45C84"/>
<path d="M518.558 184.261C519.545 182.054 527.902 181.409 535.921 184.746C543.941 188.082 549.154 193.963 548.167 196.17C547.18 198.376 540.558 198.059 532.538 194.722C524.519 191.385 517.571 186.467 518.558 184.261Z" fill="#EF7BA2"/>
<path d="M478.939 183.693C478.692 182.182 481.255 179.319 484.736 178.75C488.216 178.181 491.436 179.855 491.683 181.366C491.93 182.877 489.685 184.689 486.205 185.258C482.724 185.827 479.186 185.203 478.939 183.693Z" fill="#D9D9D9"/>
<path d="M491.205 167.47C491.435 168.563 489.663 170.733 487.146 171.262C484.629 171.792 482.228 170.678 481.999 169.586C481.769 168.493 483.344 167.099 485.861 166.57C488.377 166.04 490.976 166.378 491.205 167.47Z" fill="#D9D9D9"/>
<path d="M535.095 188.702C534.721 189.689 532.589 190.329 530.356 189.482C528.123 188.634 526.461 186.731 526.835 185.744C527.21 184.757 529.489 184.477 531.722 185.325C533.955 186.173 535.47 187.716 535.095 188.702Z" fill="#D9D9D9"/>
<path d="M550.393 207.94C550.393 212.92 519.055 214.484 496.962 214.484C474.87 214.484 447.561 212.099 447.561 207.119C447.561 202.139 474.87 196.449 496.962 196.449C519.055 196.449 550.393 202.96 550.393 207.94Z" fill="#671430"/>
<path d="M538.357 204.28C538.357 208.124 514.738 210.371 497.553 210.371C480.368 210.371 457.99 207.254 457.99 203.41C457.99 199.566 480.368 196.449 497.553 196.449C514.738 196.449 538.357 200.436 538.357 204.28Z" fill="#992049"/>
<path d="M503.439 168.254C504.053 164.722 510.587 164.537 518.248 165.868C524.949 167.032 530.093 170.803 529.48 174.335C528.866 177.867 523.717 181.066 517.016 179.902C510.316 178.738 502.826 171.786 503.439 168.254Z" fill="#EF7BA2"/>
<path d="M487.829 192.672C487.319 195.788 491.165 197.578 496.058 198.378C500.337 199.079 504.336 197.203 504.846 194.087C505.356 190.971 503.082 187 498.802 186.3C494.523 185.599 488.339 189.556 487.829 192.672Z" fill="#EF7BA2"/>
<path d="M462.985 183.992C463.844 186.6 468.785 186.02 474.403 184.167C479.317 182.547 482.766 179.124 481.907 176.517C481.047 173.91 476.81 172.054 471.896 173.674C466.982 175.294 462.125 181.385 462.985 183.992Z" fill="#EF7BA2"/>
<path d="M541.654 187.329C543.248 184.79 547.332 184.485 550.776 186.647C554.22 188.809 555.72 192.62 554.126 195.158C552.532 197.696 550.235 194.624 546.791 192.462C543.348 190.3 540.061 189.867 541.654 187.329Z" fill="#D9D9D9"/>
<path d="M522.86 173.504C523.618 171.071 527.381 170.081 531.262 171.291C535.144 172.502 537.676 175.456 536.917 177.888C536.158 180.321 532.722 182.252 528.84 181.042C524.958 179.831 522.101 175.936 522.86 173.504Z" fill="#D9D9D9"/>
<path d="M507.919 178.039C508.2 176.414 511.835 172.873 515.195 173.454C518.556 174.035 520.37 178.519 520.089 180.144C519.808 181.769 516.92 181.857 513.56 181.275C510.199 180.694 507.638 179.664 507.919 178.039Z" fill="#D9D9D9"/>
<path d="M491.756 173.188C491.798 171.051 495.111 165.789 498.789 165.861C502.466 165.932 506.768 169.143 506.726 171.28C506.685 173.418 503.08 173.946 499.402 173.874C495.725 173.803 491.715 175.325 491.756 173.188Z" fill="#D9D9D9"/>
<path d="M472.793 170.414C473.575 172.404 471.956 178.086 468.533 179.431C465.11 180.776 458.405 180.174 457.624 178.185C456.208 176.753 463.663 172.66 466.951 170.904C470.383 169.367 472.011 168.425 472.793 170.414Z" fill="#D9D9D9"/>
<path d="M457.778 187.494C456.59 185.469 453.648 184.988 451.208 186.42C448.768 187.852 447.752 190.654 448.941 192.679C450.129 194.704 451.587 192.763 454.027 191.331C456.468 189.899 458.966 189.519 457.778 187.494Z" fill="#D9D9D9"/>
<path d="M496.839 196.3L503.764 196.426L506.538 213.14L497.162 212.546L496.839 196.3Z" fill="#280410"/>
<path d="M496.843 196.3L489.918 196.426L487.797 213.059L498.972 212.426L496.843 196.3Z" fill="#280410"/>
<path d="M496.811 242.24L503.351 244.981L506.724 224.662L497.181 224.662L496.811 242.24Z" fill="#280410"/>
<path d="M496.886 242.373L490.266 244.639L487.74 224.292L497.146 225.29L496.886 242.373Z" fill="#280410"/>
<rect x="487.746" y="208.156" width="18.9844" height="22.148" rx="6.32806" fill="#280410"/>
<path d="M510.004 190.393C510.423 187.827 508.132 183.301 504.652 182.732C501.171 182.163 497.706 185.335 497.287 187.901C496.867 190.468 498.952 193.264 502.432 193.832C505.912 194.401 509.584 192.96 510.004 190.393Z" fill="#D9D9D9"/>
<ellipse cx="593.553" cy="207.861" rx="23.3152" ry="10.0556" fill="#C45C84"/>
<path d="M588.01 200.301C593.061 203.787 591.276 214.233 585.233 219.612C579.19 224.99 570.196 226.524 565.145 223.038C560.095 219.552 560.899 212.365 566.942 206.987C572.986 201.608 582.959 196.815 588.01 200.301Z" fill="#C45C84"/>
<path d="M595.123 199.807C589.605 203.481 594.637 214.26 600.947 219.677C607.257 225.094 616.846 226.508 622.363 222.834C627.88 219.161 627.238 211.792 620.927 206.375C614.617 200.958 600.64 196.134 595.123 199.807Z" fill="#C45C84"/>
<path d="M604.125 209.459C604.68 208.218 609.381 207.855 613.892 209.732C618.403 211.609 621.335 214.917 620.78 216.158C620.225 217.399 616.5 217.221 611.989 215.344C607.478 213.467 603.57 210.7 604.125 209.459Z" fill="#EF7BA2"/>
<path d="M581.839 209.14C581.7 208.29 583.141 206.68 585.099 206.36C587.057 206.04 588.868 206.981 589.007 207.831C589.146 208.681 587.883 209.7 585.925 210.02C583.968 210.34 581.977 209.99 581.839 209.14Z" fill="#D9D9D9"/>
<path d="M588.739 200.014C588.868 200.629 587.871 201.849 586.456 202.147C585.04 202.445 583.69 201.819 583.56 201.204C583.431 200.59 584.317 199.806 585.733 199.508C587.148 199.21 588.61 199.4 588.739 200.014Z" fill="#D9D9D9"/>
<path d="M613.431 211.958C613.22 212.513 612.021 212.873 610.765 212.396C609.509 211.919 608.574 210.848 608.785 210.293C608.995 209.738 610.277 209.581 611.533 210.058C612.789 210.535 613.642 211.403 613.431 211.958Z" fill="#D9D9D9"/>
<path d="M622.034 222.779C622.034 225.58 604.407 226.46 591.98 226.46C579.553 226.46 564.191 225.119 564.191 222.317C564.191 219.516 579.553 216.315 591.98 216.315C604.407 216.315 622.034 219.978 622.034 222.779Z" fill="#671430"/>
<path d="M615.263 220.72C615.263 222.883 601.978 224.146 592.311 224.146C582.644 224.146 570.057 222.393 570.057 220.231C570.057 218.068 582.644 216.315 592.311 216.315C601.978 216.315 615.263 218.558 615.263 220.72Z" fill="#992049"/>
<path d="M595.617 200.455C595.962 198.468 599.638 198.364 603.947 199.113C607.716 199.768 610.61 201.889 610.265 203.876C609.92 205.863 607.023 207.662 603.254 207.008C599.485 206.353 595.272 202.442 595.617 200.455Z" fill="#EF7BA2"/>
<path d="M586.84 214.191C586.553 215.943 588.716 216.95 591.469 217.4C593.876 217.794 596.125 216.739 596.412 214.987C596.699 213.234 595.42 211 593.012 210.606C590.605 210.212 587.126 212.438 586.84 214.191Z" fill="#EF7BA2"/>
<path d="M572.868 209.308C573.352 210.775 576.131 210.449 579.291 209.407C582.055 208.495 583.995 206.57 583.512 205.103C583.028 203.637 580.645 202.593 577.881 203.504C575.117 204.416 572.385 207.842 572.868 209.308Z" fill="#EF7BA2"/>
<path d="M617.116 211.185C618.012 209.757 620.309 209.585 622.247 210.801C624.184 212.018 625.028 214.161 624.131 215.589C623.235 217.017 621.943 215.288 620.005 214.072C618.068 212.856 616.22 212.612 617.116 211.185Z" fill="#D9D9D9"/>
<path d="M606.545 203.408C606.971 202.04 609.088 201.482 611.271 202.163C613.455 202.845 614.879 204.506 614.452 205.874C614.025 207.243 612.092 208.329 609.908 207.648C607.725 206.967 606.118 204.776 606.545 203.408Z" fill="#D9D9D9"/>
<path d="M598.142 205.959C598.3 205.045 600.344 203.053 602.234 203.38C604.125 203.707 605.145 206.229 604.987 207.143C604.829 208.057 603.205 208.107 601.314 207.78C599.424 207.453 597.984 206.873 598.142 205.959Z" fill="#D9D9D9"/>
<path d="M589.053 203.231C589.076 202.028 590.94 199.069 593.009 199.109C595.077 199.149 597.497 200.956 597.474 202.158C597.45 203.36 595.422 203.657 593.354 203.617C591.286 203.577 589.03 204.433 589.053 203.231Z" fill="#D9D9D9"/>
<path d="M578.378 201.67C578.818 202.789 577.908 205.986 575.982 206.742C574.057 207.499 570.285 207.16 569.846 206.041C569.049 205.236 573.243 202.934 575.092 201.946C577.023 201.081 577.939 200.551 578.378 201.67Z" fill="#D9D9D9"/>
<path d="M569.939 211.278C569.27 210.139 567.616 209.869 566.243 210.674C564.87 211.479 564.299 213.056 564.968 214.195C565.636 215.334 566.456 214.242 567.829 213.437C569.202 212.631 570.607 212.417 569.939 211.278Z" fill="#D9D9D9"/>
<path d="M591.907 216.231L595.803 216.302L597.363 225.704L592.089 225.37L591.907 216.231Z" fill="#280410"/>
<path d="M591.915 216.231L588.019 216.302L586.826 225.658L593.112 225.303L591.915 216.231Z" fill="#280410"/>
<path d="M591.894 242.073L595.572 243.614L597.47 232.184L592.102 232.184L591.894 242.073Z" fill="#280410"/>
<path d="M591.932 242.147L588.208 243.422L586.787 231.976L592.078 232.538L591.932 242.147Z" fill="#280410"/>
<rect x="586.797" y="222.9" width="10.6787" height="12.4583" rx="3.55954" fill="#280410"/>
<path d="M599.316 212.909C599.552 211.465 598.263 208.92 596.305 208.6C594.348 208.28 592.399 210.064 592.163 211.507C591.927 212.951 593.099 214.523 595.057 214.843C597.015 215.163 599.08 214.353 599.316 212.909Z" fill="#D9D9D9"/>
<ellipse cx="204.162" cy="216.146" rx="17.4864" ry="7.54168" fill="#C45C84"/>
<path d="M200.007 210.476C203.795 213.091 202.457 220.925 197.925 224.959C193.392 228.993 186.647 230.143 182.859 227.528C179.071 224.914 179.674 219.524 184.207 215.49C188.739 211.456 196.219 207.861 200.007 210.476Z" fill="#C45C84"/>
<path d="M205.34 210.106C201.202 212.861 204.976 220.945 209.708 225.008C214.441 229.07 221.632 230.131 225.77 227.376C229.908 224.621 229.426 219.094 224.693 215.031C219.961 210.968 209.478 207.351 205.34 210.106Z" fill="#C45C84"/>
<path d="M212.092 217.344C212.508 216.414 216.034 216.141 219.417 217.549C222.8 218.957 224.999 221.438 224.583 222.368C224.167 223.299 221.373 223.165 217.99 221.758C214.606 220.35 211.676 218.275 212.092 217.344Z" fill="#EF7BA2"/>
<path d="M195.377 217.105C195.273 216.467 196.355 215.26 197.823 215.02C199.291 214.78 200.65 215.486 200.754 216.123C200.858 216.761 199.911 217.525 198.443 217.765C196.974 218.005 195.482 217.742 195.377 217.105Z" fill="#D9D9D9"/>
<path d="M200.556 210.261C200.653 210.722 199.905 211.637 198.843 211.861C197.782 212.084 196.769 211.614 196.672 211.153C196.575 210.693 197.239 210.104 198.301 209.881C199.363 209.658 200.459 209.8 200.556 210.261Z" fill="#D9D9D9"/>
<path d="M219.075 219.218C218.917 219.635 218.017 219.905 217.075 219.547C216.133 219.19 215.432 218.387 215.59 217.97C215.748 217.554 216.709 217.436 217.651 217.794C218.593 218.151 219.233 218.802 219.075 219.218Z" fill="#D9D9D9"/>
<path d="M225.523 227.334C225.523 229.435 212.302 230.095 202.982 230.095C193.662 230.095 182.141 229.089 182.141 226.988C182.141 224.887 193.662 222.486 202.982 222.486C212.302 222.486 225.523 225.233 225.523 227.334Z" fill="#671430"/>
<path d="M220.446 225.79C220.446 227.412 210.482 228.36 203.232 228.36C195.982 228.36 186.541 227.045 186.541 225.423C186.541 223.801 195.982 222.486 203.232 222.486C210.482 222.486 220.446 224.168 220.446 225.79Z" fill="#992049"/>
<path d="M205.713 210.591C205.972 209.101 208.728 209.023 211.96 209.585C214.787 210.076 216.957 211.667 216.699 213.157C216.44 214.647 214.267 215.996 211.441 215.505C208.614 215.014 205.454 212.081 205.713 210.591Z" fill="#EF7BA2"/>
<path d="M199.131 220.892C198.916 222.207 200.539 222.962 202.603 223.3C204.408 223.595 206.095 222.804 206.31 221.489C206.526 220.175 205.566 218.5 203.761 218.204C201.955 217.909 199.346 219.578 199.131 220.892Z" fill="#EF7BA2"/>
<path d="M188.651 217.231C189.014 218.331 191.098 218.086 193.468 217.305C195.541 216.621 196.996 215.177 196.634 214.077C196.271 212.977 194.484 212.194 192.411 212.878C190.338 213.561 188.289 216.131 188.651 217.231Z" fill="#EF7BA2"/>
<path d="M221.838 218.638C222.511 217.567 224.234 217.439 225.686 218.351C227.139 219.263 227.772 220.87 227.1 221.941C226.428 223.012 225.458 221.716 224.006 220.804C222.553 219.892 221.166 219.709 221.838 218.638Z" fill="#D9D9D9"/>
<path d="M213.91 212.806C214.23 211.78 215.817 211.362 217.455 211.873C219.092 212.383 220.161 213.629 219.84 214.656C219.52 215.682 218.07 216.497 216.433 215.986C214.795 215.475 213.59 213.832 213.91 212.806Z" fill="#D9D9D9"/>
<path d="M207.606 214.719C207.725 214.034 209.258 212.54 210.676 212.785C212.093 213.03 212.859 214.922 212.74 215.607C212.622 216.293 211.403 216.33 209.986 216.085C208.568 215.84 207.488 215.405 207.606 214.719Z" fill="#D9D9D9"/>
<path d="M200.79 212.673C200.807 211.771 202.205 209.552 203.757 209.582C205.308 209.612 207.123 210.967 207.105 211.868C207.088 212.77 205.567 212.993 204.015 212.963C202.464 212.933 200.772 213.575 200.79 212.673Z" fill="#D9D9D9"/>
<path d="M192.784 211.503C193.114 212.342 192.431 214.74 190.987 215.307C189.543 215.875 186.714 215.621 186.384 214.781C185.787 214.177 188.932 212.451 190.319 211.71C191.767 211.061 192.454 210.664 192.784 211.503Z" fill="#D9D9D9"/>
<path d="M186.454 218.708C185.953 217.854 184.712 217.651 183.682 218.255C182.653 218.859 182.225 220.042 182.726 220.896C183.227 221.75 183.842 220.931 184.872 220.327C185.901 219.723 186.955 219.563 186.454 218.708Z" fill="#D9D9D9"/>
<path d="M202.929 222.423L205.851 222.476L207.021 229.528L203.065 229.277L202.929 222.423Z" fill="#280410"/>
<path d="M202.933 222.423L200.011 222.477L199.117 229.494L203.831 229.227L202.933 222.423Z" fill="#280410"/>
<path d="M202.919 241.804L205.678 242.96L207.101 234.388L203.075 234.388L202.919 241.804Z" fill="#280410"/>
<path d="M202.949 241.86L200.156 242.816L199.09 234.232L203.058 234.653L202.949 241.86Z" fill="#280410"/>
<rect x="199.098" y="227.424" width="8.00903" height="9.34368" rx="2.66965" fill="#280410"/>
<path d="M208.484 219.932C208.661 218.849 207.694 216.94 206.226 216.7C204.758 216.46 203.296 217.798 203.119 218.88C202.942 219.963 203.822 221.142 205.29 221.382C206.758 221.622 208.307 221.014 208.484 219.932Z" fill="#D9D9D9"/>
<ellipse cx="657.162" cy="215.146" rx="17.4864" ry="7.54168" fill="#C45C84"/>
<path d="M653.007 209.476C656.795 212.091 655.457 219.925 650.925 223.959C646.392 227.993 639.647 229.143 635.859 226.528C632.071 223.914 632.674 218.524 637.207 214.49C641.739 210.456 649.219 206.861 653.007 209.476Z" fill="#C45C84"/>
<path d="M658.34 209.106C654.202 211.861 657.976 219.945 662.708 224.008C667.441 228.07 674.632 229.131 678.77 226.376C682.908 223.621 682.426 218.094 677.693 214.031C672.961 209.968 662.478 206.351 658.34 209.106Z" fill="#C45C84"/>
<path d="M665.092 216.344C665.508 215.414 669.034 215.141 672.417 216.549C675.8 217.957 677.999 220.438 677.583 221.368C677.167 222.299 674.373 222.165 670.99 220.758C667.606 219.35 664.676 217.275 665.092 216.344Z" fill="#EF7BA2"/>
<path d="M648.377 216.105C648.273 215.467 649.355 214.26 650.823 214.02C652.291 213.78 653.65 214.486 653.754 215.123C653.858 215.761 652.911 216.525 651.443 216.765C649.974 217.005 648.482 216.742 648.377 216.105Z" fill="#D9D9D9"/>
<path d="M653.556 209.261C653.653 209.722 652.905 210.637 651.843 210.861C650.782 211.084 649.769 210.614 649.672 210.153C649.575 209.693 650.239 209.104 651.301 208.881C652.363 208.658 653.459 208.8 653.556 209.261Z" fill="#D9D9D9"/>
<path d="M672.075 218.218C671.917 218.635 671.017 218.905 670.075 218.547C669.133 218.19 668.432 217.387 668.59 216.97C668.748 216.554 669.709 216.436 670.651 216.794C671.593 217.151 672.233 217.802 672.075 218.218Z" fill="#D9D9D9"/>
<path d="M678.523 226.334C678.523 228.435 665.302 229.095 655.982 229.095C646.662 229.095 635.141 228.089 635.141 225.988C635.141 223.887 646.662 221.486 655.982 221.486C665.302 221.486 678.523 224.233 678.523 226.334Z" fill="#671430"/>
<path d="M673.446 224.79C673.446 226.412 663.482 227.36 656.232 227.36C648.982 227.36 639.541 226.045 639.541 224.423C639.541 222.801 648.982 221.486 656.232 221.486C663.482 221.486 673.446 223.168 673.446 224.79Z" fill="#992049"/>
<path d="M658.713 209.591C658.972 208.101 661.728 208.023 664.96 208.585C667.787 209.076 669.957 210.667 669.699 212.157C669.44 213.647 667.267 214.996 664.441 214.505C661.614 214.014 658.454 211.081 658.713 209.591Z" fill="#EF7BA2"/>
<path d="M652.131 219.892C651.916 221.207 653.539 221.962 655.603 222.3C657.408 222.595 659.095 221.804 659.31 220.489C659.526 219.175 658.566 217.5 656.761 217.204C654.955 216.909 652.346 218.578 652.131 219.892Z" fill="#EF7BA2"/>
<path d="M641.651 216.231C642.014 217.331 644.098 217.086 646.468 216.305C648.541 215.621 649.996 214.177 649.634 213.077C649.271 211.977 647.484 211.194 645.411 211.878C643.338 212.561 641.289 215.131 641.651 216.231Z" fill="#EF7BA2"/>
<path d="M674.838 217.638C675.511 216.567 677.234 216.439 678.686 217.351C680.139 218.263 680.772 219.87 680.1 220.941C679.428 222.012 678.458 220.716 677.006 219.804C675.553 218.892 674.166 218.709 674.838 217.638Z" fill="#D9D9D9"/>
<path d="M666.91 211.806C667.23 210.78 668.817 210.362 670.455 210.873C672.092 211.383 673.161 212.629 672.84 213.656C672.52 214.682 671.07 215.497 669.433 214.986C667.795 214.475 666.59 212.832 666.91 211.806Z" fill="#D9D9D9"/>
<path d="M660.606 213.719C660.725 213.034 662.258 211.54 663.676 211.785C665.093 212.03 665.859 213.922 665.74 214.607C665.622 215.293 664.403 215.33 662.986 215.085C661.568 214.84 660.488 214.405 660.606 213.719Z" fill="#D9D9D9"/>
<path d="M653.79 211.673C653.807 210.771 655.205 208.552 656.757 208.582C658.308 208.612 660.123 209.967 660.105 210.868C660.088 211.77 658.567 211.993 657.015 211.963C655.464 211.933 653.772 212.575 653.79 211.673Z" fill="#D9D9D9"/>
<path d="M645.784 210.503C646.114 211.342 645.431 213.74 643.987 214.307C642.543 214.875 639.714 214.621 639.384 213.781C638.787 213.177 641.932 211.451 643.319 210.71C644.767 210.061 645.454 209.664 645.784 210.503Z" fill="#D9D9D9"/>
<path d="M639.454 217.708C638.953 216.854 637.712 216.651 636.682 217.255C635.653 217.859 635.225 219.042 635.726 219.896C636.227 220.75 636.842 219.931 637.872 219.327C638.901 218.723 639.955 218.563 639.454 217.708Z" fill="#D9D9D9"/>
<path d="M655.929 221.423L658.851 221.476L660.021 228.528L656.065 228.277L655.929 221.423Z" fill="#280410"/>
<path d="M655.933 221.423L653.011 221.477L652.117 228.494L656.831 228.227L655.933 221.423Z" fill="#280410"/>
<path d="M655.919 240.804L658.678 241.96L660.101 233.388L656.075 233.388L655.919 240.804Z" fill="#280410"/>
<path d="M655.949 240.86L653.156 241.816L652.09 233.232L656.058 233.653L655.949 240.86Z" fill="#280410"/>
<rect x="652.098" y="226.424" width="8.00903" height="9.34368" rx="2.66965" fill="#280410"/>
<path d="M661.484 218.932C661.661 217.849 660.694 215.94 659.226 215.7C657.758 215.46 656.296 216.798 656.119 217.88C655.942 218.963 656.822 220.142 658.29 220.382C659.758 220.622 661.307 220.014 661.484 218.932Z" fill="#D9D9D9"/>
<path d="M242.164 428.079C242.158 423.708 245.876 420.258 250.234 420.59L393.019 431.471C396.924 431.768 399.942 435.02 399.949 438.937L400.268 639.435C400.275 643.97 396.288 647.474 391.792 646.884L248.952 628.137C245.223 627.648 242.433 624.472 242.428 620.711L242.164 428.079Z" fill="#896D5B"/>
<path d="M242.164 428.079C242.158 423.708 245.876 420.258 250.234 420.59L393.019 431.471C396.924 431.768 399.942 435.02 399.949 438.937L400.268 639.435C400.275 643.97 396.288 647.474 391.792 646.884L248.952 628.137C245.223 627.648 242.433 624.472 242.428 620.711L242.164 428.079Z" fill="#896D5B"/>
<path d="M242.164 428.079C242.158 423.708 245.876 420.258 250.234 420.59L393.019 431.471C396.924 431.768 399.942 435.02 399.949 438.937L400.268 639.435C400.275 643.97 396.288 647.474 391.792 646.884L248.952 628.137C245.223 627.648 242.433 624.472 242.428 620.711L242.164 428.079Z" fill="#40091C"/>
<path d="M246.312 434.135C246.306 429.737 250.069 426.278 254.452 426.652L393.421 438.536C397.302 438.868 400.282 442.115 400.282 446.009L400.282 639.449C400.282 643.979 396.298 647.475 391.806 646.886L253.093 628.681C249.364 628.191 246.574 625.016 246.569 621.255L246.312 434.135Z" fill="#896D5B"/>
<path d="M246.312 434.135C246.306 429.737 250.069 426.278 254.452 426.652L393.421 438.536C397.302 438.868 400.282 442.115 400.282 446.009L400.282 639.449C400.282 643.979 396.298 647.475 391.806 646.886L253.093 628.681C249.364 628.191 246.574 625.016 246.569 621.255L246.312 434.135Z" fill="#896D5B"/>
<path d="M246.312 434.135C246.306 429.737 250.069 426.278 254.452 426.652L393.421 438.536C397.302 438.868 400.282 442.115 400.282 446.009L400.282 639.449C400.282 643.979 396.298 647.475 391.806 646.886L253.093 628.681C249.364 628.191 246.574 625.016 246.569 621.255L246.312 434.135Z" fill="#64102C"/>
<path d="M557.745 431.248L594.495 440.248L576.495 702.748H558.495L557.745 431.248Z" fill="#781637"/>
<path d="M261.31 444.781C261.309 440.36 265.112 436.897 269.514 437.311L393.367 448.983C397.218 449.346 400.161 452.577 400.164 456.445L400.273 639.391C400.276 643.941 396.26 647.446 391.752 646.826L267.86 629.797C264.149 629.287 261.383 626.116 261.382 622.37L261.31 444.781Z" fill="#40091C"/>
<path d="M418.003 722C410.053 756.685 55.3816 742.311 12.5753 732.5C-30.231 722.688 -34.9417 599.938 -26.9916 565.253C-19.0414 530.567 476.197 563.189 519.003 573C561.809 582.812 425.954 687.314 418.003 722Z" fill="black" fill-opacity="0.2"/>
<path d="M266.239 449.677C266.24 445.242 270.068 441.777 274.481 442.215L391.272 453.826C395.107 454.207 398.03 457.434 398.03 461.289L398.03 640.112C398.03 644.672 393.994 648.177 389.479 647.538L272.658 631.01C268.958 630.487 266.208 627.319 266.208 623.583L266.239 449.677Z" fill="#280410"/>
<path d="M447.495 445.44C447.495 443.418 449.098 441.76 451.118 441.692L556.868 438.128C558.988 438.057 560.745 439.756 560.745 441.876V700.334C560.745 702.207 559.363 703.792 557.508 704.049L451.758 718.659C449.504 718.97 447.495 717.219 447.495 714.944V445.44Z" fill="#671430"/>
<path d="M242.915 617.998L387.569 640.457L386.014 661.123L242.915 637.532L242.915 617.998Z" fill="#781637"/>
<path d="M211.995 590.248L228.495 564.748L243.495 703.498L211.995 714.748V590.248Z" fill="#64102C"/>
<rect x="543.495" y="576.748" width="12.75" height="37.5" rx="3.75" fill="#280410"/>
<rect x="544.995" y="576.748" width="12.75" height="37.5" rx="3.75" fill="#C45C84"/>
<path d="M239.745 419.248L252.495 421.425V633.748L239.745 627.215V419.248Z" fill="#781637"/>
<path d="M243.119 644.248L372.494 661.873L372.494 727.123L243.119 703.498L243.119 644.248Z" fill="#781637"/>
<path d="M239.897 624.373L384.552 646.832L382.996 667.498L239.897 643.907L239.897 624.373Z" fill="#992049"/>
<ellipse cx="555.495" cy="593.623" rx="7.5" ry="8.625" fill="#280410"/>
<ellipse cx="556.995" cy="593.623" rx="7.5" ry="8.625" fill="#C45C84"/>
<ellipse cx="556.62" cy="593.623" rx="4.125" ry="4.875" fill="#280410"/>
<path d="M392.367 579.748L384.777 606.522L366.117 608.998L392.367 579.748Z" fill="#992049"/>
<path d="M228.495 419.248L243.495 420.373V703.498L228.495 704.623V419.248Z" fill="#64102C"/>
<path d="M366.12 608.998L405.12 614.248L405.495 741.748L366.495 745.123L366.12 608.998Z" fill="#781637"/>
<path d="M366.492 745.123L405.375 738.557L405.375 752.998L366.492 745.123Z" fill="#781637"/>
<path d="M176.973 584.248L212.372 589.498V714.748L176.973 708.748V584.248Z" fill="#781637"/>
<path d="M389.534 580.657L412.677 586.859L405.12 614.248L382.164 608.16L389.534 580.657Z" fill="#992049"/>
<rect x="574.995" y="440.248" width="36.75" height="262.5" fill="#671430"/>
<path d="M434.744 348.748L435.916 396.748H431.37L434.744 348.748Z" fill="#44372E"/>
<path d="M640.402 560.967L611.747 565.498L611.747 558.373L640.402 560.967Z" fill="#992049"/>
<rect x="411.401" y="433.527" width="228.873" height="14.7325" transform="rotate(-2 411.401 433.527)" fill="#992049"/>
<path d="M387.864 450.678L379.997 430.498L396.467 432.123L387.864 450.678Z" fill="#781637"/>
<rect x="436.995" y="396.228" width="178.5" height="37.5" transform="rotate(-2 436.995 396.228)" fill="#781637"/>
<rect x="226.643" y="379.362" width="160.27" height="39.6608" transform="rotate(5 226.643 379.362)" fill="#64102C"/>
<path d="M414.189 434.828L414.425 394.113L422.304 394.064L414.189 434.828Z" fill="#5F4D41"/>
<path d="M638.922 384.48L642.001 424.828L619.438 419.945L638.922 384.48Z" fill="#DDAB8A"/>
<path d="M640.318 427.69L637.851 380.813L666.162 388.503L640.318 427.69Z" fill="#DDAB8A"/>
<path d="M228.272 419.191L213.711 382.768L227.987 382.657L228.272 419.191Z" fill="#896D5B"/>
<path d="M614.745 428.248L614.745 390.748H636.495L614.745 428.248Z" fill="#896D5B"/>
<path d="M414.497 433.498L421.656 392.499L446.11 396.769L414.497 433.498Z" fill="#896D5B"/>
<rect x="619.538" y="419.804" width="21.1617" height="6" transform="rotate(4.86458 619.538 419.804)" fill="#DDAB8A"/>
<path d="M633.276 427.51L618.207 422.243L620.697 417.682L633.276 427.51Z" fill="#DDAB8A"/>
<path d="M437.104 423.192L445.522 389.647L458.364 395.913L437.104 423.192Z" fill="#DDAB8A"/>
<path d="M213.552 382.055L228.417 419.56L196.625 416.431L213.552 382.055Z" fill="#DDAB8A"/>
<path d="M196.62 416.623L185.37 380.623L213.87 382.123L196.62 416.623Z" fill="#DDAB8A"/>
<rect x="375.495" y="393.033" width="22.5" height="37.8587" transform="rotate(-2 375.495 393.033)" fill="#DDAB8A"/>
<rect x="472.151" y="381.734" width="15.75" height="60.0169" transform="rotate(46.775 472.151 381.734)" fill="#DDAB8A"/>
<rect x="388.245" y="431.248" width="24" height="18" fill="#781637"/>
<path d="M446.221 388.914L433.806 434.399L419.073 427.462L446.221 388.914Z" fill="#DDAB8A"/>
<path d="M377.75 390.119L414.332 391.397L414.332 434.248L376.618 432.373L377.75 390.119Z" fill="#DDAB8A"/>
<path d="M379.31 430.871L411.994 431.74L410.747 433.498L379.31 430.871Z" fill="#DDAB8A"/>
<rect x="259.245" y="292.498" width="13.5" height="21.75" fill="#64102C"/>
<path d="M186.12 303.373L434.711 311.912L434.052 349.632L185.449 345.292L186.12 303.373Z" fill="#64102C"/>
<path d="M414.495 394.498L414.495 434.248L410.745 433.873L414.495 394.498Z" fill="#DDAB8A"/>
<path d="M184.993 380.998L436.29 391.141L436.182 397.121L184.993 380.998Z" fill="#A3496B"/>
<path d="M599.396 391.2L435.509 397.108L435.403 391.129L599.396 391.2Z" fill="#C45C84"/>
<rect x="431.756" y="311.04" width="233.045" height="39.0773" transform="rotate(-1.2 431.756 311.04)" fill="#992049"/>
<rect x="617.745" y="423.748" width="22.5" height="3.75" fill="#DDAB8A"/>
<path d="M620.192 418.887L622.039 424.801L616.887 424.127L620.192 418.887Z" fill="#DDAB8A"/>
<path d="M618.87 420.748L623.092 427.498H614.648L618.87 420.748Z" fill="#DDAB8A"/>
<rect x="418.995" y="427.498" width="20.25" height="6.75" fill="#DDAB8A"/>
<path d="M418.995 427.498L424.191 434.248H413.798L418.995 427.498Z" fill="#DDAB8A"/>
<rect x="387.495" y="449.248" width="24.75" height="135.75" fill="#781637"/>
<path d="M412.245 442.123L447.495 446.343V740.248L405.495 752.998L412.245 442.123Z" fill="#992049"/>
<rect x="611.745" y="427.498" width="29.25" height="133.5" fill="#992049"/>
<path d="M611.745 592.498L648.495 583.123V702.022L611.745 712.123V592.498Z" fill="#992049"/>
<path d="M574.993 702.428L611.743 697.543L611.743 712.199L574.993 702.428Z" fill="#671430"/>
<rect x="430.995" y="348.748" width="4.5" height="47.25" fill="#A3496B"/>
<rect x="430.995" y="316.498" width="4.5" height="32.25" fill="#64102C"/>
<path d="M405.122 614.247L366.232 608.972L374.372 599.997L405.122 614.247Z" fill="#992049"/>
<rect x="434.557" y="348.974" width="230.673" height="46.1179" transform="rotate(-1.2 434.557 348.974)" fill="#C45C84"/>
<path d="M392.367 579.748L384.777 606.522L366.117 608.998L392.367 579.748Z" fill="#992049"/>
<path d="M389.534 580.657L412.677 586.859L405.12 614.248L382.164 608.16L389.534 580.657Z" fill="#992049"/>
<path d="M405.122 614.247L366.232 608.972L374.372 599.997L405.122 614.247Z" fill="#992049"/>
<path d="M392.367 579.748L384.777 606.522L366.117 608.998L392.367 579.748Z" fill="#992049"/>
<path d="M389.534 580.657L412.677 586.859L405.12 614.248L382.164 608.16L389.534 580.657Z" fill="#992049"/>
<path d="M405.122 614.247L366.232 608.972L374.372 599.997L405.122 614.247Z" fill="#992049"/>
<path d="M177.12 584.248L214.62 584.998L212.37 589.498L177.12 584.248Z" fill="#992049"/>
<path d="M195.872 561.372L213.121 587.998L176.747 584.248L195.872 561.372Z" fill="#992049"/>
<path d="M387.525 584.951L412.195 581.327L412.251 588.398L387.525 584.951Z" fill="#781637"/>
<path d="M195.867 561.373L228.492 565.873L212.367 589.498L188.742 581.998L195.867 561.373Z" fill="#992049"/>
<path d="M196.245 416.248L228.495 419.248V565.873L195.87 561.373L196.245 416.248Z" fill="#781637"/>
<path d="M611.745 565.498L640.995 560.623L648.495 583.123L611.745 592.498V565.498Z" fill="#992049"/>
<path d="M405.12 614.248L412.245 587.998L447.495 739.873L405.12 752.998V614.248Z" fill="#992049"/>
<rect x="387.495" y="449.248" width="24.75" height="135.75" fill="#781637"/>
<path d="M464.746 475.983C464.746 471.946 467.942 468.633 471.977 468.488L530.102 466.402C534.347 466.249 537.871 469.649 537.871 473.897L537.871 595.945C537.871 599.908 534.787 603.188 530.832 603.431L472.707 607.008C468.391 607.274 464.746 603.845 464.746 599.522L464.746 475.983Z" fill="#1E1E1E"/>
<path d="M464.746 475.983C464.746 471.946 467.942 468.633 471.977 468.488L530.102 466.402C534.347 466.249 537.871 469.649 537.871 473.897L537.871 595.945C537.871 599.908 534.787 603.188 530.832 603.431L472.707 607.008C468.391 607.274 464.746 603.845 464.746 599.522L464.746 475.983Z" fill="#1E1E1E"/>
<path d="M464.746 475.983C464.746 471.946 467.942 468.633 471.977 468.488L530.102 466.402C534.347 466.249 537.871 469.649 537.871 473.897L537.871 595.945C537.871 599.908 534.787 603.188 530.832 603.431L472.707 607.008C468.391 607.274 464.746 603.845 464.746 599.522L464.746 475.983Z" fill="#C45C84"/>
<path d="M466.996 475.983C466.996 471.946 470.192 468.633 474.227 468.488L532.352 466.402C536.597 466.249 540.121 469.649 540.121 473.897L540.121 595.945C540.121 599.908 537.038 603.188 533.082 603.431L474.957 607.008C470.642 607.274 466.996 603.845 466.996 599.522L466.996 475.983Z" fill="#1E1E1E"/>
<path d="M466.996 475.983C466.996 471.946 470.192 468.633 474.227 468.488L532.352 466.402C536.597 466.249 540.121 469.649 540.121 473.897L540.121 595.945C540.121 599.908 537.038 603.188 533.082 603.431L474.957 607.008C470.642 607.274 466.996 603.845 466.996 599.522L466.996 475.983Z" fill="#1E1E1E"/>
<path d="M466.996 475.983C466.996 471.946 470.192 468.633 474.227 468.488L532.352 466.402C536.597 466.249 540.121 469.649 540.121 473.897L540.121 595.945C540.121 599.908 537.038 603.188 533.082 603.431L474.957 607.008C470.642 607.274 466.996 603.845 466.996 599.522L466.996 475.983Z" fill="#280410"/>
<path d="M185.417 338.296L435.453 349.048L433.796 396.521L185.417 380.998L185.417 338.296Z" fill="#A3496B"/>
<rect x="194.745" y="293.248" width="13.5" height="15.75" fill="#64102C"/>
<rect x="332.745" y="293.998" width="13.5" height="18.75" fill="#64102C"/>
<rect x="407.745" y="294.748" width="13.5" height="21.75" fill="#64102C"/>
<rect x="487.995" y="292.498" width="13.5" height="25.5" fill="#992049"/>
<rect x="558.495" y="290.248" width="13.5" height="24.75" fill="#992049"/>
<rect x="625.995" y="285.748" width="20.25" height="24.75" fill="#992049"/>
<rect width="233.045" height="14.4692" transform="matrix(-0.999482 -0.0321828 -0.0321828 0.999482 419.885 299.998)" fill="#40091C"/>
<rect x="448.995" y="299.248" width="233.045" height="14.4692" transform="rotate(-1.84426 448.995 299.248)" fill="#64102C"/>
<path d="M410.22 243.373L670.424 240.736L695.174 301.861L410.22 316.485L410.22 243.373Z" fill="#64102C"/>
<path d="M435.448 242.998L175.245 239.623L150.495 300.748L435.449 315.371L435.448 242.998Z" fill="#40091C"/>
<rect x="150.278" y="296.898" width="47.2339" height="10.5" rx="5.25" transform="rotate(2 150.278 296.898)" fill="#C45C84"/>
<rect x="206.182" y="300.773" width="54.6833" height="10.5" rx="5.25" transform="rotate(1.5 206.182 300.773)" fill="#C45C84"/>
<rect x="273.723" y="303.279" width="56.5378" height="10.5" rx="5.25" transform="rotate(1 273.723 303.279)" fill="#C45C84"/>
<rect x="341.745" y="308.248" width="67.5" height="10.5" rx="5.25" fill="#C45C84"/>
<rect x="419.745" y="308.248" width="67.5" height="10.5" rx="5.25" fill="#C45C84"/>
<rect x="500.733" y="306.966" width="60" height="10.5" rx="5.25" transform="rotate(-1 500.733 306.966)" fill="#C45C84"/>
<rect x="573.22" y="303.459" width="55.0762" height="10.5" rx="5.25" transform="rotate(-1.5 573.22 303.459)" fill="#C45C84"/>
<rect x="637.292" y="300.292" width="58.1631" height="10.5" rx="5.25" transform="rotate(-2 637.292 300.292)" fill="#C45C84"/>
<rect x="187.584" y="283.099" width="10.5" height="25.2871" rx="5.25" transform="rotate(2 187.584 283.099)" fill="#C45C84"/>
<rect x="206.387" y="284.111" width="10.5" height="26.9931" rx="5.25" transform="rotate(2 206.387 284.111)" fill="#C45C84"/>
<rect x="189.061" y="283.034" width="27.8044" height="10.5" rx="5.25" transform="rotate(2 189.061 283.034)" fill="#C45C84"/>
<rect x="399.495" y="287.248" width="10.5" height="31.5" rx="5.25" fill="#C45C84"/>
<rect x="418.995" y="287.248" width="10.5" height="31.5" rx="5.25" fill="#C45C84"/>
<rect x="399.495" y="287.248" width="30" height="10.5" rx="5.25" fill="#C45C84"/>
<rect x="477.208" y="283.592" width="10.5" height="35.1453" rx="5.25" transform="rotate(-1 477.208 283.592)" fill="#C45C84"/>
<rect x="500.476" y="283.585" width="10.5" height="33.8295" rx="5.25" transform="rotate(-1 500.476 283.585)" fill="#C45C84"/>
<rect x="477.366" y="283.8" width="33.7039" height="10.5" rx="5.25" transform="rotate(-1 477.366 283.8)" fill="#C45C84"/>
<rect x="549.817" y="280.641" width="10.5" height="36.0377" rx="5.25" transform="rotate(-1.5 549.817 280.641)" fill="#C45C84"/>
<rect x="572.745" y="280.772" width="10.5" height="33.2382" rx="5.25" transform="rotate(-1.5 572.745 280.772)" fill="#C45C84"/>
<rect x="550.392" y="280.51" width="32.5475" height="10.5" rx="5.25" transform="rotate(-1.5 550.392 280.51)" fill="#C45C84"/>
<rect x="616.854" y="277.343" width="10.5" height="35.4148" rx="5.25" transform="rotate(-2 616.854 277.343)" fill="#C45C84"/>
<rect x="636.378" y="276.634" width="10.5" height="34.1278" rx="5.25" transform="rotate(-2 636.378 276.634)" fill="#C45C84"/>
<rect x="616.831" y="277.009" width="30.111" height="10.5" rx="5.25" transform="rotate(-2 616.831 277.009)" fill="#C45C84"/>
<rect x="252.389" y="285.199" width="10.5" height="27.3" rx="5.25" transform="rotate(1.5 252.389 285.199)" fill="#C45C84"/>
<rect x="274.245" y="284.243" width="10.5" height="29.4041" rx="5.25" transform="rotate(1.5 274.245 284.243)" fill="#C45C84"/>
<path d="M252.281 288.369C252.357 285.47 254.768 283.182 257.667 283.258L279.066 283.818C281.965 283.894 284.253 286.306 284.177 289.204C284.101 292.103 281.69 294.391 278.792 294.315L257.392 293.754C254.493 293.679 252.205 291.267 252.281 288.369Z" fill="#C45C84"/>
<rect x="320.223" y="284.125" width="10.5" height="30.5064" rx="5.25" transform="rotate(1 320.223 284.125)" fill="#C45C84"/>
<rect x="342.026" y="284.152" width="10.5" height="34.4444" rx="5.25" transform="rotate(1 342.026 284.152)" fill="#C45C84"/>
<path d="M320.278 289.189C320.329 286.29 322.72 283.98 325.619 284.031L347.089 284.406C349.988 284.456 352.297 286.848 352.246 289.747C352.196 292.646 349.804 294.955 346.905 294.904L325.436 294.529C322.537 294.479 320.227 292.088 320.278 289.189Z" fill="#C45C84"/>
<ellipse cx="1259.12" cy="301.313" rx="49.125" ry="21.1878" fill="#C45C84"/>
<path d="M1247.44 285.385C1258.09 292.731 1254.33 314.741 1241.59 326.074C1228.86 337.407 1209.91 340.639 1199.27 333.293C1188.63 325.947 1190.32 310.805 1203.06 299.472C1215.79 288.14 1236.8 278.04 1247.44 285.385Z" fill="#C45C84"/>
<path d="M1262.43 284.343C1250.8 292.083 1261.41 314.795 1274.7 326.209C1288 337.623 1308.2 340.601 1319.83 332.861C1331.45 325.122 1330.1 309.594 1316.8 298.181C1303.5 286.767 1274.06 276.604 1262.43 284.343Z" fill="#C45C84"/>
<path d="M1281.4 304.68C1282.57 302.065 1292.47 301.3 1301.98 305.255C1311.48 309.209 1317.66 316.179 1316.49 318.794C1315.32 321.409 1307.47 321.033 1297.97 317.079C1288.46 313.124 1280.23 307.295 1281.4 304.68Z" fill="#EF7BA2"/>
<path d="M1234.45 304.007C1234.16 302.216 1237.19 298.823 1241.32 298.149C1245.44 297.474 1249.26 299.459 1249.55 301.249C1249.84 303.04 1247.18 305.188 1243.06 305.862C1238.93 306.536 1234.74 305.797 1234.45 304.007Z" fill="#D9D9D9"/>
<path d="M1248.98 284.781C1249.25 286.076 1247.15 288.648 1244.17 289.275C1241.19 289.902 1238.34 288.583 1238.07 287.288C1237.8 285.993 1239.66 284.341 1242.65 283.713C1245.63 283.086 1248.71 283.486 1248.98 284.781Z" fill="#D9D9D9"/>
<path d="M1301 309.944C1300.56 311.113 1298.03 311.872 1295.39 310.868C1292.74 309.863 1290.77 307.607 1291.22 306.438C1291.66 305.268 1294.36 304.936 1297.01 305.941C1299.65 306.946 1301.45 308.774 1301 309.944Z" fill="#D9D9D9"/>
<path d="M1319.13 332.745C1319.13 338.648 1281.98 340.501 1255.8 340.501C1229.62 340.501 1197.25 337.675 1197.25 331.772C1197.25 325.869 1229.62 319.125 1255.8 319.125C1281.98 319.125 1319.13 326.842 1319.13 332.745Z" fill="#671430"/>
<path d="M1304.88 328.407C1304.88 332.963 1276.88 335.626 1256.51 335.626C1236.15 335.626 1209.62 331.932 1209.62 327.376C1209.62 322.819 1236.15 319.125 1256.51 319.125C1276.88 319.125 1304.88 323.85 1304.88 328.407Z" fill="#992049"/>
<path d="M1263.49 285.709C1264.21 281.523 1271.96 281.304 1281.04 282.881C1288.98 284.261 1295.08 288.731 1294.35 292.917C1293.62 297.103 1287.52 300.895 1279.58 299.515C1271.64 298.135 1262.76 289.895 1263.49 285.709Z" fill="#EF7BA2"/>
<path d="M1244.99 314.649C1244.39 318.342 1248.95 320.463 1254.75 321.412C1259.82 322.242 1264.56 320.019 1265.16 316.326C1265.77 312.633 1263.07 307.926 1258 307.096C1252.93 306.266 1245.6 310.956 1244.99 314.649Z" fill="#EF7BA2"/>
<path d="M1215.53 304.362C1216.55 307.452 1222.41 306.764 1229.06 304.569C1234.89 302.649 1238.98 298.592 1237.96 295.502C1236.94 292.412 1231.92 290.213 1226.09 292.133C1220.27 294.053 1214.51 301.271 1215.53 304.362Z" fill="#EF7BA2"/>
<path d="M1308.78 308.317C1310.67 305.309 1315.51 304.947 1319.59 307.51C1323.67 310.072 1325.45 314.588 1323.56 317.597C1321.67 320.605 1318.95 316.964 1314.87 314.401C1310.78 311.839 1306.89 311.326 1308.78 308.317Z" fill="#D9D9D9"/>
<path d="M1286.5 291.932C1287.4 289.049 1291.86 287.875 1296.46 289.31C1301.06 290.745 1304.06 294.246 1303.16 297.129C1302.26 300.012 1298.19 302.301 1293.59 300.866C1288.99 299.431 1285.6 294.815 1286.5 291.932Z" fill="#D9D9D9"/>
<path d="M1268.79 297.307C1269.13 295.38 1273.43 291.184 1277.42 291.873C1281.4 292.562 1283.55 297.875 1283.22 299.801C1282.88 301.728 1279.46 301.832 1275.48 301.143C1271.49 300.454 1268.46 299.233 1268.79 297.307Z" fill="#D9D9D9"/>
<path d="M1249.63 291.555C1249.68 289.022 1253.6 282.787 1257.96 282.871C1262.32 282.956 1267.42 286.762 1267.37 289.295C1267.32 291.828 1263.05 292.454 1258.69 292.369C1254.33 292.285 1249.58 294.088 1249.63 291.555Z" fill="#D9D9D9"/>
<path d="M1227.18 288.269C1228.1 290.627 1226.18 297.362 1222.13 298.956C1218.07 300.55 1210.12 299.836 1209.2 297.478C1207.52 295.782 1216.35 290.931 1220.25 288.849C1224.32 287.028 1226.25 285.911 1227.18 288.269Z" fill="#D9D9D9"/>
<path d="M1209.37 308.512C1207.96 306.112 1204.47 305.542 1201.58 307.239C1198.69 308.935 1197.49 312.257 1198.89 314.657C1200.3 317.057 1202.03 314.756 1204.92 313.059C1207.82 311.362 1210.78 310.912 1209.37 308.512Z" fill="#D9D9D9"/>
<path d="M1255.66 318.949L1263.87 319.099L1267.16 338.909L1256.04 338.205L1255.66 318.949Z" fill="#280410"/>
<path d="M1255.66 318.95L1247.46 319.099L1244.94 338.813L1258.19 338.064L1255.66 318.95Z" fill="#280410"/>
<path d="M1255.63 373.4L1263.38 376.648L1267.38 352.565L1256.07 352.565L1255.63 373.4Z" fill="#280410"/>
<path d="M1255.71 373.557L1247.87 376.242L1244.87 352.126L1256.02 353.309L1255.71 373.557Z" fill="#280410"/>
<rect x="1244.88" y="333.001" width="22.5" height="26.2504" rx="7.50005" fill="#280410"/>
<path d="M1271.25 311.948C1271.74 308.907 1269.03 303.543 1264.9 302.869C1260.78 302.194 1256.67 305.953 1256.18 308.995C1255.68 312.037 1258.15 315.351 1262.27 316.025C1266.4 316.699 1270.75 314.99 1271.25 311.948Z" fill="#D9D9D9"/>
<path d="M1256.84 360.887L1267.81 382.318L1258.06 381.437L1256.84 360.887Z" fill="#0D3F41"/>
<path d="M1265.61 362.896L1266.27 383.523L1258.54 380.991L1265.61 362.896Z" fill="#0D3F41"/>
<path d="M1247.35 358.161L1263.37 379.266L1254.76 379.872L1247.35 358.161Z" fill="#0D3F41"/>
<path d="M1236.6 355.19L1258.12 374.533L1248.46 377.063L1236.6 355.19Z" fill="#0D3F41"/>
<ellipse cx="761.2" cy="631.383" rx="58.95" ry="25.4245" fill="#C45C84"/>
<path d="M747.183 612.27C759.954 621.085 755.443 647.496 740.163 661.095C724.883 674.694 702.143 678.572 689.373 669.757C676.603 660.943 678.637 642.773 693.917 629.174C709.197 615.575 734.413 603.456 747.183 612.27Z" fill="#C45C84"/>
<path d="M765.166 611.02C751.216 620.308 763.937 647.562 779.892 661.258C795.847 674.955 820.09 678.529 834.04 669.241C847.99 659.953 846.365 641.321 830.41 627.625C814.455 613.928 779.116 601.733 765.166 611.02Z" fill="#C45C84"/>
<path d="M787.927 635.424C789.331 632.286 801.216 631.368 812.622 636.114C824.027 640.859 831.441 649.223 830.037 652.361C828.634 655.499 819.216 655.048 807.81 650.302C796.405 645.557 786.524 638.562 787.927 635.424Z" fill="#EF7BA2"/>
<path d="M731.587 634.616C731.236 632.467 734.882 628.396 739.832 627.587C744.781 626.777 749.361 629.158 749.712 631.307C750.063 633.456 746.87 636.033 741.921 636.842C736.971 637.651 731.939 636.765 731.587 634.616Z" fill="#D9D9D9"/>
<path d="M749.032 611.545C749.359 613.099 746.837 616.185 743.258 616.938C739.679 617.691 736.264 616.108 735.938 614.554C735.611 613 737.851 611.017 741.431 610.264C745.01 609.511 748.705 609.991 749.032 611.545Z" fill="#D9D9D9"/>
<path d="M811.456 641.74C810.923 643.143 807.891 644.054 804.715 642.848C801.539 641.643 799.176 638.935 799.708 637.532C800.241 636.129 803.482 635.731 806.658 636.936C809.834 638.142 811.989 640.336 811.456 641.74Z" fill="#D9D9D9"/>
<path d="M833.2 669.101C833.2 676.183 788.632 678.407 757.211 678.407C725.79 678.407 686.95 675.016 686.95 667.933C686.95 660.85 725.79 652.758 757.211 652.758C788.632 652.758 833.2 662.018 833.2 669.101Z" fill="#671430"/>
<path d="M816.1 663.895C816.1 669.363 782.508 672.557 758.067 672.557C733.626 672.557 701.8 668.125 701.8 662.658C701.8 657.19 733.626 652.758 758.067 652.758C782.508 652.758 816.1 658.428 816.1 663.895Z" fill="#992049"/>
<path d="M766.435 612.659C767.308 607.636 776.6 607.373 787.497 609.266C797.027 610.922 804.343 616.285 803.47 621.309C802.598 626.332 795.275 630.882 785.745 629.226C776.215 627.57 765.562 617.683 766.435 612.659Z" fill="#EF7BA2"/>
<path d="M744.241 647.385C743.515 651.816 748.985 654.362 755.944 655.501C762.031 656.497 767.718 653.829 768.443 649.398C769.169 644.967 765.934 639.318 759.848 638.322C753.761 637.326 744.966 642.954 744.241 647.385Z" fill="#EF7BA2"/>
<path d="M708.893 635.042C710.115 638.75 717.141 637.925 725.132 635.291C732.121 632.987 737.026 628.118 735.804 624.41C734.581 620.702 728.556 618.064 721.567 620.368C714.578 622.672 707.67 631.334 708.893 635.042Z" fill="#EF7BA2"/>
<path d="M820.788 639.788C823.054 636.178 828.862 635.744 833.76 638.819C838.658 641.894 840.791 647.313 838.525 650.923C836.258 654.533 832.992 650.164 828.094 647.089C823.196 644.014 818.521 643.398 820.788 639.788Z" fill="#D9D9D9"/>
<path d="M794.05 620.126C795.13 616.666 800.48 615.258 806.001 616.98C811.522 618.702 815.123 622.902 814.043 626.362C812.964 629.822 808.076 632.569 802.556 630.847C797.035 629.125 792.971 623.586 794.05 620.126Z" fill="#D9D9D9"/>
<path d="M772.801 626.576C773.201 624.264 778.37 619.228 783.149 620.055C787.928 620.882 790.509 627.258 790.109 629.569C789.709 631.881 785.602 632.005 780.823 631.179C776.044 630.352 772.402 628.887 772.801 626.576Z" fill="#D9D9D9"/>
<path d="M749.807 619.675C749.866 616.635 754.579 609.153 759.809 609.254C765.038 609.356 771.157 613.923 771.098 616.962C771.039 620.002 765.911 620.753 760.682 620.651C755.452 620.55 749.748 622.714 749.807 619.675Z" fill="#D9D9D9"/>
<path d="M722.856 615.731C723.967 618.56 721.666 626.642 716.797 628.555C711.929 630.468 702.393 629.612 701.281 626.782C699.267 624.746 709.87 618.926 714.546 616.427C719.429 614.242 721.744 612.901 722.856 615.731Z" fill="#D9D9D9"/>
<path d="M701.492 640.021C699.802 637.141 695.619 636.457 692.148 638.493C688.677 640.53 687.234 644.515 688.923 647.395C690.613 650.275 692.687 647.514 696.158 645.478C699.629 643.442 703.182 642.901 701.492 640.021Z" fill="#D9D9D9"/>
<path d="M757.043 652.547L766.892 652.726L770.837 676.497L757.501 675.652L757.043 652.547Z" fill="#280410"/>
<path d="M757.047 652.547L747.197 652.726L744.182 676.382L760.075 675.483L757.047 652.547Z" fill="#280410"/>
<path d="M757.008 717.884L766.308 721.781L771.106 692.883L757.534 692.883L757.008 717.884Z" fill="#280410"/>
<path d="M757.112 718.072L747.697 721.295L744.105 692.356L757.481 693.776L757.112 718.072Z" fill="#280410"/>
<rect x="744.1" y="669.407" width="27" height="31.4994" rx="8.99991" fill="#280410"/>
<path d="M775.751 644.145C776.348 640.495 773.089 634.059 768.139 633.25C763.189 632.44 758.262 636.951 757.665 640.601C757.069 644.252 760.033 648.227 764.983 649.037C769.933 649.846 775.155 647.795 775.751 644.145Z" fill="#D9D9D9"/>
<path d="M758.453 702.871L771.617 728.588L759.92 727.53L758.453 702.871Z" fill="#0D3F41"/>
<path d="M768.986 705.282L769.773 730.034L760.505 726.995L768.986 705.282Z" fill="#0D3F41"/>
<path d="M747.076 699.601L766.291 724.926L755.96 725.653L747.076 699.601Z" fill="#0D3F41"/>
<path d="M734.165 696.036L759.995 719.246L748.4 722.282L734.165 696.036Z" fill="#0D3F41"/>
<ellipse cx="1399.64" cy="1016.46" rx="70.74" ry="30.5092" fill="#C45C84"/>
<path d="M1382.82 993.524C1398.15 1004.1 1392.73 1035.79 1374.4 1052.11C1356.06 1068.43 1328.78 1073.09 1313.45 1062.51C1298.13 1051.93 1300.57 1030.13 1318.9 1013.81C1337.24 997.49 1367.5 982.946 1382.82 993.524Z" fill="#C45C84"/>
<path d="M1404.4 992.024C1387.66 1003.17 1402.93 1035.87 1422.08 1052.31C1441.22 1068.74 1470.31 1073.03 1487.05 1061.89C1503.79 1050.74 1501.84 1028.38 1482.7 1011.95C1463.55 995.514 1421.14 980.879 1404.4 992.024Z" fill="#C45C84"/>
<path d="M1431.72 1021.31C1433.4 1017.54 1447.66 1016.44 1461.35 1022.14C1475.04 1027.83 1483.93 1037.87 1482.25 1041.63C1480.56 1045.4 1469.26 1044.86 1455.58 1039.16C1441.89 1033.47 1430.03 1025.07 1431.72 1021.31Z" fill="#EF7BA2"/>
<path d="M1364.11 1020.34C1363.69 1017.76 1368.06 1012.87 1374 1011.9C1379.94 1010.93 1385.44 1013.79 1385.86 1016.37C1386.28 1018.95 1382.45 1022.04 1376.51 1023.01C1370.57 1023.98 1364.53 1022.92 1364.11 1020.34Z" fill="#D9D9D9"/>
<path d="M1385.04 992.654C1385.43 994.518 1382.41 998.222 1378.11 999.125C1373.82 1000.03 1369.72 998.129 1369.33 996.264C1368.93 994.4 1371.62 992.02 1375.92 991.117C1380.21 990.213 1384.65 990.789 1385.04 992.654Z" fill="#D9D9D9"/>
<path d="M1459.95 1028.89C1459.31 1030.57 1455.67 1031.66 1451.86 1030.22C1448.05 1028.77 1445.21 1025.52 1445.85 1023.84C1446.49 1022.15 1450.38 1021.68 1454.19 1023.12C1458 1024.57 1460.59 1027.2 1459.95 1028.89Z" fill="#D9D9D9"/>
<path d="M1486.05 1061.72C1486.05 1070.22 1432.56 1072.89 1394.86 1072.89C1357.15 1072.89 1310.55 1068.82 1310.55 1060.32C1310.55 1051.82 1357.15 1042.11 1394.86 1042.11C1432.56 1042.11 1486.05 1053.22 1486.05 1061.72Z" fill="#671430"/>
<path d="M1465.52 1055.47C1465.52 1062.03 1425.21 1065.87 1395.88 1065.87C1366.55 1065.87 1328.36 1060.55 1328.36 1053.99C1328.36 1047.43 1366.55 1042.11 1395.88 1042.11C1425.21 1042.11 1465.52 1048.91 1465.52 1055.47Z" fill="#992049"/>
<path d="M1405.93 993.991C1406.97 987.963 1418.13 987.647 1431.2 989.919C1442.64 991.905 1451.42 998.342 1450.37 1004.37C1449.32 1010.4 1440.53 1015.86 1429.1 1013.87C1417.66 1011.88 1404.88 1000.02 1405.93 993.991Z" fill="#EF7BA2"/>
<path d="M1379.29 1035.66C1378.42 1040.98 1384.99 1044.03 1393.34 1045.4C1400.64 1046.6 1407.47 1043.39 1408.34 1038.08C1409.21 1032.76 1405.32 1025.98 1398.02 1024.79C1390.72 1023.59 1380.16 1030.34 1379.29 1035.66Z" fill="#EF7BA2"/>
<path d="M1336.87 1020.85C1338.34 1025.3 1346.77 1024.31 1356.36 1021.15C1364.75 1018.38 1370.63 1012.54 1369.16 1008.09C1367.7 1003.64 1360.47 1000.48 1352.08 1003.24C1343.69 1006.01 1335.4 1016.4 1336.87 1020.85Z" fill="#EF7BA2"/>
<path d="M1471.15 1026.54C1473.87 1022.21 1480.84 1021.69 1486.72 1025.38C1492.59 1029.07 1495.15 1035.57 1492.43 1039.91C1489.71 1044.24 1485.79 1039 1479.92 1035.31C1474.04 1031.62 1468.43 1030.88 1471.15 1026.54Z" fill="#D9D9D9"/>
<path d="M1439.06 1002.95C1440.36 998.799 1446.78 997.108 1453.4 999.175C1460.03 1001.24 1464.35 1006.28 1463.06 1010.43C1461.76 1014.59 1455.9 1017.88 1449.27 1015.81C1442.64 1013.75 1437.77 1007.1 1439.06 1002.95Z" fill="#D9D9D9"/>
<path d="M1413.57 1010.69C1414.05 1007.92 1420.25 1001.87 1425.98 1002.87C1431.72 1003.86 1434.82 1011.51 1434.34 1014.28C1433.86 1017.06 1428.93 1017.21 1423.19 1016.21C1417.46 1015.22 1413.09 1013.46 1413.57 1010.69Z" fill="#D9D9D9"/>
<path d="M1385.97 1002.41C1386.04 998.762 1391.7 989.783 1397.98 989.905C1404.25 990.026 1411.59 995.507 1411.52 999.154C1411.45 1002.8 1405.3 1003.7 1399.02 1003.58C1392.75 1003.46 1385.9 1006.06 1385.97 1002.41Z" fill="#D9D9D9"/>
<path d="M1353.63 997.676C1354.96 1001.07 1352.2 1010.77 1346.36 1013.06C1340.52 1015.36 1329.07 1014.33 1327.74 1010.94C1325.32 1008.49 1338.05 1001.51 1343.66 998.512C1349.52 995.889 1352.29 994.281 1353.63 997.676Z" fill="#D9D9D9"/>
<path d="M1327.99 1026.82C1325.96 1023.37 1320.94 1022.55 1316.78 1024.99C1312.61 1027.44 1310.88 1032.22 1312.91 1035.67C1314.94 1039.13 1317.43 1035.82 1321.59 1033.37C1325.76 1030.93 1330.02 1030.28 1327.99 1026.82Z" fill="#D9D9D9"/>
<path d="M1394.66 1041.86L1406.48 1042.07L1411.21 1070.6L1395.21 1069.58L1394.66 1041.86Z" fill="#280410"/>
<path d="M1394.66 1041.86L1382.84 1042.07L1379.22 1070.46L1398.29 1069.38L1394.66 1041.86Z" fill="#280410"/>
<path d="M1394.61 1120.26L1405.77 1124.94L1411.53 1090.26L1395.24 1090.26L1394.61 1120.26Z" fill="#280410"/>
<path d="M1394.74 1120.49L1383.44 1124.35L1379.13 1089.63L1395.18 1091.33L1394.74 1120.49Z" fill="#280410"/>
<rect x="1379.12" y="1062.09" width="32.4" height="37.799" rx="10.7999" fill="#280410"/>
<path d="M1417.11 1031.77C1417.82 1027.39 1413.91 1019.67 1407.97 1018.7C1402.03 1017.73 1396.12 1023.14 1395.4 1027.52C1394.69 1031.9 1398.25 1036.67 1404.19 1037.64C1410.13 1038.61 1416.39 1036.15 1417.11 1031.77Z" fill="#D9D9D9"/>
<path d="M1396.34 1102.24L1412.14 1133.11L1398.1 1131.84L1396.34 1102.24Z" fill="#0D3F41"/>
<path d="M1408.98 1105.14L1409.93 1134.84L1398.81 1131.19L1408.98 1105.14Z" fill="#0D3F41"/>
<path d="M1382.69 1098.32L1405.75 1128.71L1393.35 1129.58L1382.69 1098.32Z" fill="#0D3F41"/>
<path d="M1367.2 1094.04L1398.19 1121.9L1384.28 1125.54L1367.2 1094.04Z" fill="#0D3F41"/>
<ellipse cx="124.94" cy="1319.09" rx="70.74" ry="30.5092" fill="#C45C84"/>
<path d="M108.12 1296.15C123.445 1306.73 118.031 1338.42 99.6953 1354.74C81.3594 1371.06 54.0722 1375.72 38.7476 1365.14C23.423 1354.56 25.8642 1332.76 44.2001 1316.44C62.536 1300.12 92.7954 1285.58 108.12 1296.15Z" fill="#C45C84"/>
<path d="M129.7 1294.65C112.96 1305.8 128.226 1338.5 147.372 1354.94C166.518 1371.37 195.609 1375.66 212.349 1364.52C229.089 1353.37 227.139 1331.01 207.993 1314.58C188.847 1298.14 146.44 1283.51 129.7 1294.65Z" fill="#C45C84"/>
<path d="M157.014 1323.94C158.698 1320.17 172.961 1319.07 186.647 1324.77C200.334 1330.46 209.23 1340.5 207.546 1344.26C205.862 1348.03 194.56 1347.49 180.873 1341.79C167.187 1336.1 155.33 1327.7 157.014 1323.94Z" fill="#EF7BA2"/>
<path d="M89.4049 1322.97C88.9834 1320.39 93.358 1315.5 99.2978 1314.53C105.238 1313.56 110.733 1316.42 111.155 1319C111.576 1321.58 107.745 1324.67 101.805 1325.64C95.8649 1326.61 89.8264 1325.55 89.4049 1322.97Z" fill="#D9D9D9"/>
<path d="M110.336 1295.28C110.729 1297.15 107.703 1300.85 103.408 1301.76C99.1133 1302.66 95.0156 1300.76 94.6234 1298.89C94.2311 1297.03 96.9201 1294.65 101.215 1293.75C105.51 1292.84 109.944 1293.42 110.336 1295.28Z" fill="#D9D9D9"/>
<path d="M185.247 1331.52C184.608 1333.2 180.969 1334.29 177.158 1332.85C173.347 1331.4 170.511 1328.15 171.15 1326.47C171.789 1324.78 175.678 1324.31 179.489 1325.75C183.3 1327.2 185.886 1329.83 185.247 1331.52Z" fill="#D9D9D9"/>
<path d="M211.344 1364.35C211.344 1372.85 157.861 1375.52 120.156 1375.52C82.4512 1375.52 35.8438 1371.45 35.8438 1362.95C35.8438 1354.45 82.4512 1344.74 120.156 1344.74C157.861 1344.74 211.344 1355.85 211.344 1364.35Z" fill="#671430"/>
<path d="M190.816 1358.1C190.816 1364.66 150.507 1368.5 121.177 1368.5C91.8481 1368.5 53.6562 1363.18 53.6562 1356.62C53.6562 1350.06 91.8481 1344.74 121.177 1344.74C150.507 1344.74 190.816 1351.54 190.816 1358.1Z" fill="#992049"/>
<path d="M131.224 1296.62C132.271 1290.59 143.422 1290.28 156.497 1292.55C167.933 1294.54 176.713 1300.97 175.666 1307C174.619 1313.03 165.831 1318.49 154.395 1316.5C142.959 1314.51 130.176 1302.65 131.224 1296.62Z" fill="#EF7BA2"/>
<path d="M104.589 1338.29C103.719 1343.61 110.282 1346.66 118.633 1348.03C125.937 1349.23 132.762 1346.02 133.632 1340.71C134.502 1335.39 130.622 1328.61 123.318 1327.42C116.014 1326.22 105.459 1332.97 104.589 1338.29Z" fill="#EF7BA2"/>
<path d="M62.1675 1323.48C63.6345 1327.93 72.0661 1326.94 81.6551 1323.78C90.0419 1321.01 95.928 1315.17 94.4611 1310.72C92.9941 1306.27 85.7633 1303.11 77.3766 1305.87C68.9898 1308.64 60.7006 1319.03 62.1675 1323.48Z" fill="#EF7BA2"/>
<path d="M196.445 1329.17C199.165 1324.84 206.135 1324.32 212.012 1328.01C217.89 1331.7 220.45 1338.2 217.73 1342.54C215.01 1346.87 211.09 1341.62 205.212 1337.94C199.335 1334.25 193.726 1333.51 196.445 1329.17Z" fill="#D9D9D9"/>
<path d="M164.361 1305.58C165.656 1301.43 172.076 1299.74 178.701 1301.8C185.326 1303.87 189.647 1308.91 188.352 1313.06C187.057 1317.22 181.192 1320.51 174.567 1318.44C167.942 1316.38 163.066 1309.73 164.361 1305.58Z" fill="#D9D9D9"/>
<path d="M138.863 1313.32C139.343 1310.55 145.545 1304.5 151.281 1305.5C157.016 1306.49 160.112 1314.14 159.632 1316.91C159.153 1319.69 154.225 1319.84 148.489 1318.84C142.754 1317.85 138.384 1316.09 138.863 1313.32Z" fill="#D9D9D9"/>
<path d="M111.27 1305.04C111.341 1301.39 116.996 1292.41 123.272 1292.53C129.548 1292.66 136.89 1298.14 136.819 1301.78C136.748 1305.43 130.595 1306.33 124.32 1306.21C118.044 1306.09 111.199 1308.69 111.27 1305.04Z" fill="#D9D9D9"/>
<path d="M78.9251 1300.31C80.2592 1303.7 77.4973 1313.4 71.6551 1315.69C65.8129 1317.99 54.3702 1316.96 53.0361 1313.57C50.6193 1311.12 63.3427 1304.14 68.9541 1301.14C74.8128 1298.52 77.591 1296.91 78.9251 1300.31Z" fill="#D9D9D9"/>
<path d="M53.2888 1329.45C51.2612 1326 46.2411 1325.18 42.0761 1327.62C37.9112 1330.06 36.1786 1334.85 38.2063 1338.3C40.234 1341.76 42.7229 1338.45 46.8878 1336C51.0527 1333.56 55.3165 1332.91 53.2888 1329.45Z" fill="#D9D9D9"/>
<path d="M119.954 1344.49L131.772 1344.7L136.506 1373.23L120.504 1372.21L119.954 1344.49Z" fill="#280410"/>
<path d="M119.958 1344.49L108.139 1344.7L104.52 1373.09L123.591 1372.01L119.958 1344.49Z" fill="#280410"/>
<path d="M119.907 1422.89L131.068 1427.57L136.825 1392.89L120.54 1392.89L119.907 1422.89Z" fill="#280410"/>
<path d="M120.038 1423.12L108.74 1426.98L104.429 1392.26L120.481 1393.96L120.038 1423.12Z" fill="#280410"/>
<rect x="104.422" y="1364.72" width="32.4" height="37.799" rx="10.7999" fill="#280410"/>
<path d="M142.405 1334.4C143.121 1330.02 139.211 1322.3 133.271 1321.33C127.331 1320.36 121.418 1325.77 120.702 1330.15C119.986 1334.53 123.543 1339.3 129.483 1340.27C135.423 1341.24 141.689 1338.78 142.405 1334.4Z" fill="#D9D9D9"/>
<path d="M121.638 1404.87L137.434 1435.73L123.398 1434.47L121.638 1404.87Z" fill="#0D3F41"/>
<path d="M134.281 1407.77L135.225 1437.47L124.103 1433.82L134.281 1407.77Z" fill="#0D3F41"/>
<path d="M107.988 1400.95L131.045 1431.34L118.647 1432.21L107.988 1400.95Z" fill="#0D3F41"/>
<path d="M92.4945 1396.67L123.49 1424.52L109.575 1428.17L92.4945 1396.67Z" fill="#0D3F41"/>
<circle cx="749" cy="217" r="13" fill="#E28EAE"/>
<path d="M758.643 223.37C756.519 226.156 753.777 227.638 752.519 226.679C751.26 225.719 754.698 224.768 756.822 221.981C758.946 219.194 758.952 215.628 760.21 216.587C761.469 217.546 760.767 220.583 758.643 223.37Z" fill="#D3E8E8"/>
<path d="M739.127 211.815C740.854 208.766 743.37 206.926 744.747 207.706C746.124 208.486 742.847 209.894 741.12 212.943C739.394 215.992 739.871 219.527 738.494 218.747C737.117 217.967 737.4 214.864 739.127 211.815Z" fill="#D3E8E8"/>
<circle cx="747.853" cy="207.441" r="1.91176" fill="#D3E8E8"/>
<circle cx="91.8892" cy="265.889" r="5.88921" fill="#E28EAE"/>
<path d="M96.2584 268.775C95.2962 270.037 94.054 270.708 93.4839 270.274C92.9137 269.839 94.4709 269.408 95.4331 268.146C96.3953 266.883 96.3981 265.267 96.9683 265.702C97.5384 266.137 97.2206 267.512 96.2584 268.775Z" fill="#D3E8E8"/>
<path d="M87.4171 263.54C88.1993 262.159 89.3391 261.326 89.9629 261.679C90.5866 262.032 89.1022 262.67 88.32 264.052C87.5378 265.433 87.754 267.034 87.1303 266.681C86.5065 266.328 86.6349 264.921 87.4171 263.54Z" fill="#D3E8E8"/>
<circle cx="91.368" cy="261.559" r="0.86606" fill="#D3E8E8"/>
<circle cx="122.055" cy="224.055" r="10.0554" fill="#E28EAE"/>
<path d="M129.515 228.982C127.873 231.138 125.752 232.284 124.778 231.542C123.805 230.8 126.463 230.064 128.106 227.908C129.749 225.753 129.754 222.994 130.727 223.736C131.701 224.478 131.158 226.827 129.515 228.982Z" fill="#D3E8E8"/>
<path d="M114.42 220.045C115.755 217.686 117.701 216.264 118.766 216.867C119.831 217.47 117.297 218.559 115.961 220.918C114.626 223.276 114.995 226.01 113.93 225.407C112.865 224.804 113.084 222.403 114.42 220.045Z" fill="#D3E8E8"/>
<circle cx="121.165" cy="216.662" r="1.47873" fill="#D3E8E8"/>
<circle cx="767" cy="276" r="15" fill="#E28EAE"/>
<path d="M778.131 283.349C775.68 286.565 772.516 288.274 771.064 287.168C769.612 286.061 773.578 284.963 776.028 281.747C778.479 278.532 778.486 274.416 779.939 275.523C781.391 276.63 780.581 280.134 778.131 283.349Z" fill="#D3E8E8"/>
<path d="M755.611 270.017C757.603 266.499 760.506 264.377 762.095 265.277C763.684 266.176 759.903 267.802 757.91 271.32C755.918 274.838 756.469 278.916 754.88 278.016C753.291 277.117 753.618 273.535 755.611 270.017Z" fill="#D3E8E8"/>
<circle cx="765.674" cy="264.971" r="2.20588" fill="#D3E8E8"/>
<circle cx="152.5" cy="163.5" r="9.5" fill="#E28EAE"/>
<path d="M159.546 168.155C157.993 170.191 155.99 171.274 155.07 170.573C154.15 169.872 156.662 169.177 158.214 167.14C159.766 165.104 159.771 162.497 160.691 163.198C161.61 163.899 161.098 166.118 159.546 168.155Z" fill="#D3E8E8"/>
<path d="M145.284 159.711C146.546 157.482 148.385 156.138 149.391 156.708C150.397 157.278 148.003 158.307 146.741 160.535C145.479 162.763 145.828 165.346 144.822 164.777C143.815 164.207 144.023 161.939 145.284 159.711Z" fill="#D3E8E8"/>
<circle cx="151.662" cy="156.515" r="1.39706" fill="#D3E8E8"/>
<circle cx="712.19" cy="339.188" r="7.18789" fill="#E28EAE"/>
<path d="M717.52 342.71C716.345 344.251 714.829 345.07 714.133 344.539C713.437 344.009 715.338 343.483 716.512 341.942C717.687 340.401 717.69 338.429 718.386 338.96C719.082 339.49 718.694 341.169 717.52 342.71Z" fill="#D3E8E8"/>
<path d="M706.729 336.321C707.683 334.635 709.075 333.618 709.836 334.049C710.597 334.48 708.785 335.259 707.831 336.945C706.876 338.631 707.14 340.585 706.379 340.154C705.617 339.723 705.774 338.006 706.729 336.321Z" fill="#D3E8E8"/>
<circle cx="711.557" cy="333.903" r="1.05704" fill="#D3E8E8"/>
<circle cx="698.89" cy="184.889" r="5.88927" fill="#E28EAE"/>
<path d="M703.26 187.775C702.298 189.038 701.056 189.709 700.486 189.274C699.916 188.84 701.473 188.409 702.435 187.146C703.397 185.884 703.4 184.268 703.97 184.703C704.54 185.137 704.223 186.513 703.26 187.775Z" fill="#D3E8E8"/>
<path d="M694.416 182.54C695.198 181.159 696.338 180.325 696.962 180.679C697.586 181.032 696.101 181.67 695.319 183.051C694.537 184.432 694.753 186.034 694.129 185.68C693.505 185.327 693.634 183.921 694.416 182.54Z" fill="#D3E8E8"/>
<circle cx="698.373" cy="180.559" r="0.866069" fill="#D3E8E8"/>
<circle cx="118.5" cy="341.5" r="16.5" fill="#E28EAE"/>
<path d="M130.74 349.584C128.044 353.121 124.564 355.002 122.966 353.784C121.369 352.567 125.732 351.359 128.428 347.822C131.123 344.285 131.131 339.758 132.729 340.976C134.326 342.193 133.436 346.047 130.74 349.584Z" fill="#D3E8E8"/>
<path d="M105.969 334.919C108.16 331.049 111.354 328.714 113.101 329.704C114.849 330.693 110.69 332.481 108.498 336.351C106.307 340.221 106.913 344.707 105.165 343.718C103.417 342.728 103.777 338.788 105.969 334.919Z" fill="#D3E8E8"/>
<circle cx="117.044" cy="329.368" r="2.42647" fill="#D3E8E8"/>
<ellipse cx="1074.8" cy="374.291" rx="77.0427" ry="43.3919" fill="#C45C84"/>
<path d="M1056.6 341.573C1073.27 356.648 1067.38 401.816 1047.44 425.073C1027.5 448.33 997.834 454.963 981.171 439.888C964.508 424.813 967.162 393.739 987.1 370.483C1007.04 347.226 1039.94 326.498 1056.6 341.573Z" fill="#C45C84"/>
<path d="M1079.92 339.41C1061.7 355.28 1078.31 401.849 1099.15 425.252C1119.98 448.656 1151.65 454.763 1169.86 438.893C1188.08 423.023 1185.96 391.185 1165.12 367.782C1144.29 344.379 1098.13 323.54 1079.92 339.41Z" fill="#C45C84"/>
<path d="M1109.64 381.109C1111.47 375.747 1127 374.179 1141.89 382.287C1156.79 390.396 1166.47 404.687 1164.64 410.05C1162.8 415.412 1150.5 414.64 1135.61 406.532C1120.71 398.423 1107.81 386.471 1109.64 381.109Z" fill="#EF7BA2"/>
<path d="M1036.25 379.788C1035.79 376.113 1040.55 369.151 1047.01 367.767C1053.47 366.383 1059.44 370.455 1059.9 374.13C1060.36 377.805 1056.19 382.213 1049.74 383.596C1043.28 384.98 1036.71 383.463 1036.25 379.788Z" fill="#D9D9D9"/>
<path d="M1059 340.332C1059.43 342.989 1056.14 348.267 1051.47 349.555C1046.8 350.843 1042.34 348.135 1041.92 345.478C1041.49 342.821 1044.41 339.429 1049.08 338.142C1053.75 336.854 1058.58 337.675 1059 340.332Z" fill="#D9D9D9"/>
<path d="M1140.46 391.972C1139.77 394.372 1135.81 395.93 1131.67 393.868C1127.52 391.807 1124.44 387.177 1125.14 384.777C1125.83 382.377 1130.06 381.696 1134.2 383.758C1138.35 385.819 1141.16 389.572 1140.46 391.972Z" fill="#D9D9D9"/>
<path d="M1168.85 438.359C1168.85 450.39 1110.77 454.167 1069.83 454.167C1028.88 454.167 978.275 448.407 978.275 436.376C978.275 424.345 1028.88 410.598 1069.83 410.598C1110.77 410.598 1168.85 426.327 1168.85 438.359Z" fill="#671430"/>
<path d="M1146.53 429.527C1146.53 438.819 1102.7 444.249 1070.81 444.249C1038.92 444.249 997.4 436.716 997.4 427.424C997.4 418.131 1038.92 410.598 1070.81 410.598C1102.7 410.598 1146.53 420.234 1146.53 429.527Z" fill="#992049"/>
<path d="M1081.72 342.238C1082.86 333.647 1094.99 333.198 1109.2 336.435C1121.64 339.267 1131.18 348.44 1130.04 357.031C1128.91 365.622 1119.35 373.403 1106.92 370.571C1094.48 367.74 1080.58 350.829 1081.72 342.238Z" fill="#EF7BA2"/>
<path d="M1052.77 401.626C1051.82 409.205 1058.96 413.558 1068.04 415.506C1075.98 417.209 1083.4 412.647 1084.35 405.068C1085.29 397.49 1081.07 387.83 1073.13 386.127C1065.19 384.424 1053.71 394.048 1052.77 401.626Z" fill="#EF7BA2"/>
<path d="M1006.63 380.516C1008.23 386.858 1017.4 385.447 1027.82 380.942C1036.94 377.001 1043.34 368.676 1041.75 362.334C1040.15 355.992 1032.29 351.48 1023.17 355.42C1014.05 359.36 1005.04 374.174 1006.63 380.516Z" fill="#EF7BA2"/>
<path d="M1152.63 388.633C1155.59 382.459 1163.17 381.717 1169.56 386.976C1175.95 392.234 1178.73 401.502 1175.78 407.676C1172.82 413.85 1168.56 406.378 1162.16 401.119C1155.77 395.86 1149.67 394.807 1152.63 388.633Z" fill="#D9D9D9"/>
<path d="M1117.75 355.008C1119.16 349.092 1126.14 346.682 1133.34 349.627C1140.55 352.572 1145.24 359.756 1143.84 365.673C1142.43 371.59 1136.05 376.288 1128.85 373.343C1121.64 370.398 1116.34 360.925 1117.75 355.008Z" fill="#D9D9D9"/>
<path d="M1090.03 366.038C1090.55 362.085 1097.29 353.473 1103.53 354.886C1109.76 356.3 1113.13 367.205 1112.61 371.158C1112.09 375.111 1106.73 375.324 1100.49 373.91C1094.26 372.496 1089.5 369.991 1090.03 366.038Z" fill="#D9D9D9"/>
<path d="M1060.02 354.236C1060.1 349.038 1066.25 336.242 1073.07 336.415C1079.89 336.589 1087.88 344.399 1087.8 349.597C1087.72 354.795 1081.03 356.08 1074.21 355.906C1067.39 355.733 1059.94 359.434 1060.02 354.236Z" fill="#D9D9D9"/>
<path d="M1024.86 347.489C1026.32 352.328 1023.31 366.15 1016.96 369.421C1010.61 372.692 998.165 371.228 996.715 366.389C994.087 362.907 1007.92 352.953 1014.02 348.68C1020.39 344.942 1023.41 342.65 1024.86 347.489Z" fill="#D9D9D9"/>
<path d="M996.985 389.033C994.78 384.107 989.322 382.938 984.793 386.42C980.265 389.903 978.381 396.718 980.585 401.644C982.79 406.569 985.496 401.847 990.025 398.365C994.554 394.882 999.19 393.958 996.985 389.033Z" fill="#D9D9D9"/>
<path d="M1069.47 410.454L1082.32 410.76L1087.46 451.414L1070.06 449.968L1069.47 410.454Z" fill="#280410"/>
<path d="M1069.47 410.453L1056.62 410.76L1052.68 451.216L1070 448.44L1069.47 410.453Z" fill="#280410"/>
<path d="M1093.87 396.086C1094.65 389.843 1090.4 378.836 1083.94 377.452C1077.48 376.068 1071.05 383.782 1070.27 390.025C1069.49 396.268 1073.36 403.067 1079.82 404.451C1086.28 405.835 1093.09 402.328 1093.87 396.086Z" fill="#D9D9D9"/>
<ellipse cx="1074.8" cy="374.291" rx="77.0427" ry="43.3919" fill="#C45C84"/>
<path d="M1056.6 341.573C1073.27 356.648 1067.38 401.816 1047.44 425.073C1027.5 448.33 997.834 454.963 981.171 439.888C964.508 424.813 967.162 393.739 987.1 370.483C1007.04 347.226 1039.94 326.498 1056.6 341.573Z" fill="#C45C84"/>
<path d="M1126.74 343.574C1143.4 358.649 1137.52 403.817 1117.58 427.074C1097.64 450.331 1067.97 456.964 1051.31 441.889C1034.64 426.814 1037.3 395.74 1057.24 372.483C1077.17 349.227 1110.08 328.499 1126.74 343.574Z" fill="#C45C84"/>
<path d="M1079.92 339.41C1061.7 355.28 1078.31 401.849 1099.15 425.252C1119.98 448.656 1151.65 454.763 1169.86 438.893C1188.08 423.023 1185.96 391.185 1165.12 367.782C1144.29 344.379 1098.13 323.54 1079.92 339.41Z" fill="#C45C84"/>
<path d="M1168.85 438.751C1168.85 451.292 1110.77 455.23 1069.83 455.23C1028.88 455.23 978.275 449.225 978.275 436.684C978.275 424.144 1028.88 426.766 1069.83 426.766C1110.77 426.766 1168.85 426.211 1168.85 438.751Z" fill="#671430"/>
<ellipse cx="1076.14" cy="382.969" rx="44.8088" ry="32.234" fill="black"/>
<path d="M993.387 327.458C993.011 326.591 993.882 325.707 994.754 326.07L1033.47 342.195C1033.99 342.41 1034.24 342.993 1034.05 343.519L1032.93 346.661L1030.98 350.735L1028.68 354.277L1026.11 357.702C1026.05 357.78 1025.98 357.849 1025.9 357.908L1022.3 360.653L1018.65 363.086C1018.6 363.117 1018.56 363.144 1018.51 363.167L1011.47 366.393C1010.94 366.638 1010.3 366.396 1010.07 365.857L993.387 327.458Z" fill="black"/>
<path d="M1000.95 337.39C1000.27 335.548 1002.32 333.456 1004.17 334.107L1031.39 343.655C1032.5 344.044 1033.61 344.942 1033.09 346.139L1031.91 348.852L1031.33 350.043L1030.8 350.891C1030.65 351.128 1030.49 351.355 1030.35 351.593L1029.27 353.478L1028.1 355.028L1026.2 357.555C1026.05 357.764 1025.86 357.951 1025.65 358.11L1022.51 360.518L1019.25 362.748C1019.13 362.827 1019.01 362.897 1018.88 362.957L1013.9 365.357C1012.71 365.934 1011.41 365.499 1010.99 364.38L1000.95 337.39Z" fill="#EF7BA2" fill-opacity="0.5"/>
<path d="M1158.59 327.353C1158.97 326.486 1158.1 325.602 1157.22 325.965L1118.51 342.09C1117.99 342.305 1117.74 342.888 1117.92 343.414L1119.05 346.556L1121 350.63L1123.3 354.172L1125.87 357.597C1125.93 357.675 1126 357.744 1126.08 357.803L1129.68 360.548L1133.33 362.981C1133.37 363.012 1133.42 363.039 1133.47 363.062L1140.51 366.288C1141.04 366.533 1141.67 366.291 1141.91 365.752L1158.59 327.353Z" fill="black"/>
<path d="M1151.03 337.284C1151.71 335.443 1149.66 333.351 1147.81 334.001L1120.59 343.55C1119.48 343.938 1118.37 344.836 1118.89 346.033L1120.07 348.746L1120.65 349.938L1121.18 350.786C1121.32 351.023 1121.49 351.25 1121.63 351.487L1122.71 353.372L1123.88 354.923L1125.78 357.45C1125.93 357.659 1126.12 357.846 1126.33 358.005L1129.47 360.413L1132.73 362.642C1132.85 362.721 1132.97 362.791 1133.09 362.851L1138.07 365.252C1139.27 365.829 1140.57 365.394 1140.98 364.275L1151.03 337.284Z" fill="#EF7BA2" fill-opacity="0.5"/>
<path d="M1064.02 380.53C1063.53 383.522 1057.69 385.056 1053.34 384.343C1049 383.631 1044.48 380.399 1044.97 377.407C1045.46 374.414 1050.78 372.795 1055.12 373.507C1059.46 374.219 1064.51 377.538 1064.02 380.53Z" fill="#D9D9D9"/>
<circle cx="1054.35" cy="379.073" r="5.66751" fill="#280410"/>
<path d="M1089.6 380.53C1090.09 383.522 1095.93 385.056 1100.28 384.343C1104.62 383.631 1109.14 380.399 1108.65 377.407C1108.16 374.414 1102.84 372.795 1098.5 373.507C1094.15 374.219 1089.11 377.538 1089.6 380.53Z" fill="#D9D9D9"/>
<circle cx="1098.99" cy="379.073" r="5.66751" fill="#280410"/>
<ellipse cx="1061.62" cy="367.915" rx="3.36508" ry="1.94821" transform="rotate(16.1777 1061.62 367.915)" fill="#EAD1D0" fill-opacity="0.7"/>
<ellipse cx="1099.69" cy="389.876" rx="4.60485" ry="2.30243" fill="#BA597E"/>
<path d="M1076.51 392.028C1076.4 392.116 1076.24 392.116 1076.13 392.028L1072.69 389.259C1072.47 389.082 1072.59 388.726 1072.88 388.726H1079.76C1080.04 388.726 1080.17 389.082 1079.95 389.259L1076.51 392.028Z" fill="#EAD1D0" fill-opacity="0.7"/>
<ellipse cx="1054.35" cy="389.876" rx="4.60485" ry="2.30243" fill="#BA597E"/>
<path d="M1013.17 426.431C1019.01 425.368 1047.26 426.431 1071.42 426.431C1095.59 426.431 1121.38 427.247 1129.53 427.955C1129.53 433.139 1095.59 437.235 1071.42 437.235C1047.26 437.235 1013.17 431.615 1013.17 426.431Z" fill="#992049"/>
<ellipse cx="3.36508" cy="1.94821" rx="3.36508" ry="1.94821" transform="matrix(-0.960402 0.278618 0.278618 0.960402 1094.12 365.258)" fill="#EAD1D0" fill-opacity="0.7"/>
<path d="M1076.76 425.257L1118.37 427.247L1135.02 526.423L1078.69 522.854L1076.76 425.257Z" fill="black"/>
<path d="M1076.76 425.257L1035.15 426.013L1022.42 525.934L1078.47 519.079L1076.76 425.257Z" fill="black"/>
<path d="M1076.58 701.244L1115.87 717.707L1135.13 592.071L1078.81 595.64L1076.58 701.244Z" fill="black"/>
<path d="M1077.02 702.04L1037.25 715.653L1022.53 592.56L1078.58 599.415L1077.02 702.04Z" fill="black"/>
<path d="M1022.73 525.897C1022.73 510.247 1034.53 502.341 1050.18 502.341H1106.86C1122.51 502.341 1135.2 511.84 1135.2 527.491V589.125C1135.2 604.775 1122.51 617.463 1106.86 617.463H1050.18C1034.53 617.463 1023.08 607.963 1023.08 592.313L1022.73 525.897Z" fill="black"/>
<rect x="1104.02" y="517.672" width="63.7595" height="23.7327" rx="11.8664" transform="rotate(-45 1104.02 517.672)" fill="black"/>
<rect width="63.7595" height="23.7327" rx="11.8664" transform="matrix(-0.707107 -0.707107 -0.707107 0.707107 1050.77 517.317)" fill="black"/>
<rect width="63.7595" height="23.7327" rx="11.8664" transform="matrix(0 -1 -1 0 1061.51 759.15)" fill="black"/>
<rect width="63.7595" height="23.7327" rx="11.8664" transform="matrix(0 -1 -1 0 1119.25 759.15)" fill="black"/>
<rect x="1037.07" y="665.991" width="82.1789" height="58.4462" rx="6" fill="black"/>
<path d="M1141.04 382.728C1140.31 384.822 1136.16 386.181 1131.81 384.382C1127.46 382.584 1124.23 378.545 1124.95 376.451C1125.68 374.357 1130.12 373.763 1134.47 375.562C1138.82 377.361 1141.77 380.635 1141.04 382.728Z" fill="#D9D9D9"/>
<path d="M1121.6 374.763C1122.79 367.269 1135.52 366.876 1150.44 369.701C1163.49 372.171 1173.51 380.173 1172.31 387.668C1171.12 395.163 1161.09 401.951 1148.04 399.48C1134.99 397.01 1120.4 382.258 1121.6 374.763Z" fill="#EF7BA2"/>
<path d="M1111.05 411.892C1110.05 418.504 1117.54 422.302 1127.07 424.001C1135.41 425.487 1143.2 421.507 1144.19 414.895C1145.18 408.284 1140.75 399.857 1132.42 398.371C1124.08 396.885 1112.04 405.281 1111.05 411.892Z" fill="#EF7BA2"/>
<path d="M1070.02 340.778C1069.5 344.231 1078.07 347.046 1088.71 348.943C1098.01 350.602 1106.24 349.264 1106.76 345.811C1107.28 342.358 1101.67 337.369 1092.37 335.711C1083.06 334.052 1070.54 337.325 1070.02 340.778Z" fill="#EF7BA2"/>
<path d="M984.097 407.676C986.603 415.959 997.936 415.221 1010.59 410.676C1021.65 406.701 1028.97 396.811 1026.46 388.528C1023.96 380.245 1013.77 373.57 1002.71 377.545C991.641 381.52 981.591 399.393 984.097 407.676Z" fill="#EF7BA2"/>
<path d="M1153.81 379.816C1156.92 374.429 1164.87 373.782 1171.58 378.37C1178.28 382.957 1181.21 391.043 1178.1 396.429C1175 401.815 1170.53 395.296 1163.82 390.708C1157.11 386.12 1150.71 385.202 1153.81 379.816Z" fill="#D9D9D9"/>
<path d="M1090.03 339.508C1091.11 335.731 1096.47 334.194 1102 336.073C1107.53 337.953 1111.13 342.538 1110.05 346.314C1108.97 350.09 1104.08 353.087 1098.55 351.208C1093.02 349.328 1088.94 343.284 1090.03 339.508Z" fill="#D9D9D9"/>
<path d="M1103.35 416.615C1103.89 413.167 1110.97 405.653 1117.52 406.886C1124.06 408.12 1127.59 417.633 1127.05 421.081C1126.5 424.53 1120.88 424.716 1114.33 423.483C1107.79 422.249 1102.8 420.064 1103.35 416.615Z" fill="#D9D9D9"/>
<path d="M1064.99 336.112C1065.24 339.616 1061.03 348.674 1055.49 349.049C1049.96 349.425 1043.02 344.743 1042.77 341.239C1042.53 337.734 1047.87 336.387 1053.4 336.012C1058.94 335.636 1064.74 332.608 1064.99 336.112Z" fill="#D9D9D9"/>
<path d="M1001.87 416.719C1002.25 412.248 1010.16 402.615 1017.41 402.813C1024.66 403.01 1035.98 409.633 1035.6 414.104C1036.83 418.017 1020.01 419.83 1012.64 420.536C1005.2 420.701 1001.48 421.19 1001.87 416.719Z" fill="#D9D9D9"/>
<path d="M995.777 394.646C993.463 390.349 987.735 389.328 982.982 392.366C978.229 395.405 976.252 401.351 978.566 405.647C980.88 409.944 983.72 405.825 988.473 402.787C993.225 399.749 998.091 398.943 995.777 394.646Z" fill="#D9D9D9"/>
<path d="M1161.18 409.929C1162 404.483 1157.54 394.88 1150.76 393.673C1143.98 392.466 1137.23 399.196 1136.42 404.642C1135.6 410.088 1139.66 416.02 1146.44 417.227C1153.21 418.434 1160.37 415.375 1161.18 409.929Z" fill="#D9D9D9"/>
<path d="M1002.54 377.593C1002.06 374.387 1007.05 368.313 1013.83 367.106C1020.6 365.899 1026.88 369.451 1027.36 372.657C1027.84 375.863 1023.46 379.708 1016.69 380.915C1009.91 382.122 1003.02 380.799 1002.54 377.593Z" fill="#D9D9D9"/>
<path d="M1141.23 375.395C1141.68 377.713 1138.23 382.317 1133.33 383.441C1128.43 384.564 1123.75 382.202 1123.3 379.884C1122.86 377.566 1125.92 374.607 1130.83 373.484C1135.73 372.361 1140.79 373.076 1141.23 375.395Z" fill="#D9D9D9"/>
<circle cx="1054.26" cy="377.124" r="2.65665" fill="#D9D9D9"/>
<circle cx="1098.89" cy="377.125" r="2.65665" fill="#D9D9D9"/>
<path d="M1155.99 465.379C1155.99 461.237 1159.34 457.879 1163.49 457.879H1173.36C1177.5 457.879 1180.86 461.237 1180.86 465.379V472.803H1155.99V465.379Z" fill="#4F5066"/>
<rect x="1149.86" y="472.803" width="36.7353" height="67.7307" rx="3.75" fill="#4F5066"/>
<path d="M1152.54 498.441H1183.54V532.957C1183.54 535.028 1181.86 536.707 1179.79 536.707H1156.29C1154.22 536.707 1152.54 535.028 1152.54 532.957V498.441Z" fill="#BD7E96"/>
<path d="M1152.54 479.231C1152.54 477.16 1154.22 475.481 1156.29 475.481H1179.79C1181.86 475.481 1183.54 477.16 1183.54 479.231V498.441H1152.54V479.231Z" fill="#8687A0" fill-opacity="0.5"/>
<path d="M1155.31 459.016C1155.31 458.187 1155.99 457.516 1156.81 457.516H1179.53C1180.32 457.516 1180.95 458.15 1180.95 458.932C1180.95 459.701 1180.34 460.33 1179.57 460.347L1156.85 460.855C1156.01 460.873 1155.31 460.196 1155.31 459.355V459.016Z" fill="#B69073"/>
<path d="M1155.31 459.234H1180.95V460.902C1180.95 462.973 1179.27 464.652 1177.2 464.652H1159.06C1156.99 464.652 1155.31 462.973 1155.31 460.902V459.234Z" fill="#633A14"/>
<rect x="1154.45" y="462.471" width="27.5515" height="5.35723" rx="2.67861" fill="#914E8D"/>
<rect x="1157.52" y="462.854" width="6.12255" height="1.14798" rx="0.573989" fill="#D3E8E8"/>
<circle cx="1179.13" cy="450.483" r="0.834479" transform="rotate(-47.2096 1179.13 450.483)" fill="#BD7E96"/>
<path d="M1179.86 450.307C1179.89 450.529 1179.84 450.722 1179.74 450.74C1179.64 450.757 1179.75 450.554 1179.71 450.332C1179.67 450.111 1179.5 449.955 1179.6 449.937C1179.7 449.92 1179.82 450.085 1179.86 450.307Z" fill="#D3E8E8"/>
<path d="M1178.46 450.722C1178.39 450.508 1178.42 450.309 1178.51 450.279C1178.61 450.248 1178.53 450.463 1178.6 450.678C1178.67 450.892 1178.86 451.024 1178.76 451.055C1178.66 451.085 1178.53 450.937 1178.46 450.722Z" fill="#D3E8E8"/>
<circle cx="1178.63" cy="450.12" r="0.122717" transform="rotate(-47.2096 1178.63 450.12)" fill="#D3E8E8"/>
<circle cx="1153.59" cy="453.565" r="1.97246" transform="rotate(28.2804 1153.59 453.565)" fill="#BD7E96"/>
<path d="M1154.42 455.11C1153.94 455.329 1153.46 455.33 1153.37 455.112C1153.27 454.893 1153.79 455.013 1154.28 454.793C1154.76 454.573 1155.02 454.097 1155.12 454.316C1155.22 454.535 1154.91 454.89 1154.42 455.11Z" fill="#D3E8E8"/>
<path d="M1152.65 452.163C1153.1 451.88 1153.57 451.815 1153.7 452.018C1153.82 452.221 1153.28 452.174 1152.83 452.457C1152.38 452.74 1152.19 453.247 1152.07 453.044C1151.94 452.841 1152.2 452.446 1152.65 452.163Z" fill="#D3E8E8"/>
<circle cx="1154.13" cy="452.206" r="0.290067" transform="rotate(28.2804 1154.13 452.206)" fill="#D3E8E8"/>
<circle cx="1156.53" cy="463.4" r="0.547078" fill="#D3E8E8"/>
<circle cx="1182.05" cy="454.266" r="1.49169" transform="rotate(-47.2096 1182.05 454.266)" fill="#BD7E96"/>
<path d="M1183.34 453.95C1183.4 454.346 1183.32 454.693 1183.14 454.724C1182.96 454.755 1183.15 454.391 1183.08 453.995C1183.01 453.599 1182.71 453.321 1182.89 453.29C1183.07 453.258 1183.27 453.554 1183.34 453.95Z" fill="#D3E8E8"/>
<path d="M1180.84 454.693C1180.72 454.31 1180.76 453.954 1180.93 453.899C1181.11 453.844 1180.97 454.23 1181.09 454.613C1181.21 454.996 1181.55 455.231 1181.38 455.286C1181.2 455.341 1180.96 455.076 1180.84 454.693Z" fill="#D3E8E8"/>
<circle cx="1181.15" cy="453.617" r="0.219367" transform="rotate(-47.2096 1181.15 453.617)" fill="#D3E8E8"/>
<circle cx="1155.64" cy="449.021" r="1.49169" transform="rotate(28.2804 1155.64 449.021)" fill="#BD7E96"/>
<path d="M1156.27 450.188C1155.9 450.355 1155.55 450.355 1155.47 450.19C1155.4 450.024 1155.8 450.115 1156.16 449.949C1156.53 449.783 1156.72 449.423 1156.8 449.588C1156.87 449.754 1156.64 450.022 1156.27 450.188Z" fill="#D3E8E8"/>
<path d="M1154.93 447.96C1155.27 447.746 1155.62 447.697 1155.72 447.85C1155.81 448.004 1155.41 447.968 1155.07 448.182C1154.73 448.397 1154.58 448.78 1154.48 448.626C1154.39 448.472 1154.59 448.174 1154.93 447.96Z" fill="#D3E8E8"/>
<circle cx="1156.05" cy="447.993" r="0.219367" transform="rotate(28.2804 1156.05 447.993)" fill="#D3E8E8"/>
<circle cx="1159.23" cy="450.577" r="0.764889" transform="rotate(28.2804 1159.23 450.577)" fill="#BD7E96"/>
<path d="M1159.55 451.175C1159.36 451.26 1159.17 451.261 1159.14 451.176C1159.1 451.091 1159.3 451.137 1159.49 451.052C1159.68 450.967 1159.78 450.782 1159.82 450.867C1159.85 450.952 1159.73 451.09 1159.55 451.175Z" fill="#D3E8E8"/>
<path d="M1158.86 450.033C1159.04 449.923 1159.22 449.898 1159.27 449.976C1159.32 450.055 1159.11 450.037 1158.93 450.147C1158.76 450.257 1158.69 450.453 1158.64 450.374C1158.59 450.295 1158.69 450.142 1158.86 450.033Z" fill="#D3E8E8"/>
<circle cx="1159.44" cy="450.049" r="0.112484" transform="rotate(28.2804 1159.44 450.049)" fill="#D3E8E8"/>
</svg>
