<svg width="1164" height="248" viewBox="0 0 1164 248" fill="none" xmlns="http://www.w3.org/2000/svg">
<path d="M196.316 29.3701L195.88 27.6317L196.483 25.9218L194.686 26.3827L192.927 25.8344L193.376 27.5705L192.774 29.293L194.569 28.8195L196.316 29.3701Z" fill="#FFF5BF"/>
<path d="M165.486 12.3216L165.698 14.1012L164.883 15.721L166.724 15.4912L168.4 16.2578L168.174 14.4788L168.989 12.8463L167.148 13.0887L165.486 12.3216Z" fill="#FFF5BF"/>
<path d="M175.526 11.5818L176.322 12.7786L176.326 14.2333L177.56 13.4018L179.037 13.3436L178.232 12.1519L178.223 10.6883L176.993 11.5287L175.526 11.5818Z" fill="#FFF5BF"/>
<path d="M177.53 20.2967L177.02 20.9067L176.25 21.1368L176.884 21.6608L177.147 22.4345L177.652 21.8204L178.426 21.5864L177.788 21.0664L177.53 20.2967Z" fill="#FFF5BF"/>
<path d="M107.829 24.1124L108.762 22.5824L108.694 20.7703L110.273 21.7449L112.116 21.7445L111.171 23.2685L111.233 25.092L109.659 24.106L107.829 24.1124Z" fill="#FFF5BF"/>
<path d="M142.239 16.3048L141.507 17.9406L141.804 19.7296L140.114 18.9626L138.287 19.1962L139.031 17.5648L138.739 15.7638L140.424 16.5428L142.239 16.3048Z" fill="#FFF5BF"/>
<path d="M132.861 12.6106L131.745 13.5163L131.309 14.9041L130.377 13.7431L128.985 13.2483L130.108 12.3502L130.552 10.9553L131.476 12.1234L132.861 12.6106Z" fill="#FFF5BF"/>
<path d="M128.373 20.3392L128.678 21.0732L129.345 21.5219L128.583 21.8336L128.103 22.4942L127.803 21.7576L127.133 21.3039L127.897 20.9972L128.373 20.3392Z" fill="#FFF5BF"/>
<path d="M13.3029 95.227L13.7455 96.9636L15.0891 98.1813L13.2886 98.6299L12.0016 99.9483L11.5714 98.2075L10.2236 96.9778L12.0283 96.5412L13.3029 95.227Z" fill="#FFABCB"/>
<path d="M73.2533 74.5404L74.5301 75.798L76.3098 76.1455L75.0007 77.4605L74.5808 79.2545L73.3124 77.9869L71.5229 77.6313L72.8418 76.3244L73.2533 74.5404Z" fill="#FFABCB"/>
<path d="M67.555 71.374L68.4392 72.2448L69.6716 72.4855L68.7651 73.3961L68.4743 74.6384L67.596 73.7606L66.3568 73.5143L67.2701 72.6093L67.555 71.374Z" fill="#FFABCB"/>
<path d="M76.6996 66.2365L77.3738 66.9006L78.3136 67.0841L77.6223 67.7784L77.4006 68.7257L76.7309 68.0563L75.786 67.8686L76.4824 67.1785L76.6996 66.2365Z" fill="#FFABCB"/>
<path d="M24.2455 73.5404L25.5223 74.798L27.302 75.1455L25.9929 76.4605L25.573 78.2545L24.3046 76.9869L22.5151 76.6313L23.834 75.3244L24.2455 73.5404Z" fill="#FFABCB"/>
<path d="M21.7011 98.3966L21.3887 99.7999L21.9093 101.158L20.4581 100.827L19.0593 101.305L19.382 99.9027L18.8627 98.5343L20.3126 98.8755L21.7011 98.3966Z" fill="#FFABCB"/>
<path d="M22.9701 107.244L23.665 107.63L24.4667 107.567L24.0635 108.285L24.0971 109.101L23.4047 108.71L22.5979 108.771L23.0062 108.056L22.9701 107.244Z" fill="#FFABCB"/>
<path d="M13.96 104.899L14.9935 105.472L16.1859 105.379L15.5862 106.446L15.6363 107.66L14.6064 107.078L13.4064 107.168L14.0137 106.105L13.96 104.899Z" fill="#FFABCB"/>
<path d="M53.7432 77.4238L47.8047 71.6626L39.7117 73.2653L43.3397 65.8764L39.308 58.6638L47.4776 59.8367L53.089 53.7721L54.5154 61.9104L62.0028 65.3722L54.6732 69.2224L53.7432 77.4238Z" fill="#FFABCB"/>
<path d="M18.154 86.3811L12.4948 86.5728L9.44221 91.3227L7.52283 86.0263L2.0536 84.5889L6.51064 81.1191L6.18574 75.4739L10.8742 78.6348L16.1355 76.588L14.5531 82.0287L18.154 86.3811Z" fill="#FFABCB"/>
<path d="M28.3346 61.0798L30.8523 64.0257L34.6222 65.1041L31.5582 67.6946L30.3213 71.4817L27.8236 68.5158L24.0341 67.4182L27.1177 64.847L28.3346 61.0798Z" fill="#FFABCB"/>
<path d="M879.254 149.403L878.695 147.7L877.272 146.576L879.039 146.007L880.234 144.604L880.78 146.312L882.208 147.448L880.437 148.006L879.254 149.403Z" fill="#FFABCB"/>
<path d="M820.841 174.087L819.482 172.918L817.683 172.691L818.9 171.291L819.198 169.473L820.549 170.652L822.359 170.886L821.131 172.279L820.841 174.087Z" fill="#FFABCB"/>
<path d="M826.736 176.861L825.795 176.052L824.549 175.895L825.392 174.925L825.598 173.666L826.534 174.482L827.787 174.645L826.936 175.609L826.736 176.861Z" fill="#FFABCB"/>
<path d="M817.963 182.604L817.245 181.987L816.295 181.867L816.938 181.128L817.095 180.168L817.809 180.79L818.764 180.914L818.116 181.649L817.963 182.604Z" fill="#FFABCB"/>
<path d="M869.802 171.778L868.443 170.609L866.644 170.383L867.861 168.982L868.159 167.164L869.51 168.343L871.32 168.577L870.092 169.97L869.802 171.778Z" fill="#FFABCB"/>
<path d="M870.661 146.807L870.878 145.385L870.267 144.065L871.737 144.298L873.101 143.727L872.873 145.147L873.484 146.478L872.014 146.235L870.661 146.807Z" fill="#FFABCB"/>
<path d="M823.567 183.289L823.784 181.868L823.173 180.548L824.644 180.78L826.007 180.209L825.78 181.63L826.39 182.96L824.92 182.717L823.567 183.289Z" fill="#FFABCB"/>
<path d="M868.805 138.064L868.085 137.726L867.29 137.843L867.644 137.1L867.555 136.288L868.272 136.631L869.073 136.516L868.714 137.257L868.805 138.064Z" fill="#FFABCB"/>
<path d="M877.946 139.797L876.876 139.294L875.693 139.468L876.219 138.363L876.088 137.155L877.154 137.666L878.346 137.495L877.811 138.597L877.946 139.797Z" fill="#FFABCB"/>
<path d="M840.109 169.894L846.423 175.241L854.389 173.096L851.268 180.713L855.777 187.637L847.547 187.018L842.357 193.447L840.385 185.424L832.681 182.475L839.734 178.139L840.109 169.894Z" fill="#FFABCB"/>
<path d="M875.017 158.556L880.65 157.982L883.375 153.037L885.647 158.192L891.201 159.257L886.988 163.02L887.693 168.63L882.802 165.793L877.691 168.19L878.903 162.655L875.017 158.556Z" fill="#FFABCB"/>
<path d="M866.562 184.486L863.851 181.717L860.017 180.895L862.899 178.104L863.878 174.242L866.57 177.033L870.425 177.872L867.522 180.645L866.562 184.486Z" fill="#FFABCB"/>
<ellipse cx="151.343" cy="37.0407" rx="34.39" ry="14.82" fill="#C45C84"/>
<path d="M143.177 25.7618C150.621 30.9001 147.991 46.2957 139.084 54.2228C130.178 62.1498 116.923 64.4106 109.479 59.2724C102.035 54.1341 103.22 43.5426 112.127 35.6156C121.034 27.6885 135.733 20.6236 143.177 25.7618Z" fill="#C45C84"/>
<path d="M153.731 24.9968C145.609 30.3912 153.015 46.2208 162.304 54.1759C171.592 62.131 185.705 64.2069 193.827 58.8124C201.948 53.418 201.002 42.596 191.713 34.6409C182.425 26.6857 161.852 19.6023 153.731 24.9968Z" fill="#C45C84"/>
<path d="M166.985 39.1713C167.802 37.3486 174.721 36.8156 181.361 39.5718C188.001 42.3281 192.317 47.186 191.5 49.0086C190.683 50.8313 185.2 50.5692 178.56 47.8129C171.92 45.0567 166.168 40.9939 166.985 39.1713Z" fill="#EF7BA2"/>
<path d="M134.086 38.7873C133.882 37.5347 136.007 35.1615 138.892 34.6899C141.777 34.2183 144.447 35.6062 144.651 36.8588C144.856 38.1114 142.995 39.6137 140.11 40.0853C137.224 40.5569 134.291 40.0399 134.086 38.7873Z" fill="#D9D9D9"/>
<path d="M144.251 25.3393C144.441 26.245 142.972 28.0441 140.885 28.483C138.799 28.9218 136.809 27.999 136.618 27.0933C136.428 26.1875 137.734 25.0316 139.82 24.5927C141.906 24.1539 144.06 24.4336 144.251 25.3393Z" fill="#D9D9D9"/>
<path d="M180.644 42.9401C180.334 43.7582 178.566 44.2891 176.715 43.5864C174.864 42.8837 173.486 41.3055 173.796 40.4875C174.107 39.6694 175.996 39.4374 177.847 40.1402C179.699 40.8429 180.955 42.1221 180.644 42.9401Z" fill="#D9D9D9"/>
<path d="M193.331 58.885C193.331 63.0824 167.391 64.4002 149.104 64.4002C130.816 64.4002 108.211 62.3906 108.211 58.1932C108.211 53.9958 130.816 49.2002 149.104 49.2002C167.391 49.2002 193.331 54.6876 193.331 58.885Z" fill="#671430"/>
<path d="M183.453 55.8265C183.453 59.0794 163.91 60.9802 149.69 60.9802C135.47 60.9802 116.953 58.3432 116.953 55.0902C116.953 51.8372 135.47 49.2002 149.69 49.2002C163.91 49.2002 183.453 52.5735 183.453 55.8265Z" fill="#992049"/>
<path d="M154.399 25.9884C154.908 23.0602 160.325 22.9069 166.676 24.0104C172.231 24.9755 176.496 28.1022 175.987 31.0304C175.479 33.9586 171.21 36.6108 165.655 35.6456C160.1 34.6805 153.89 28.9166 154.399 25.9884Z" fill="#EF7BA2"/>
<path d="M141.462 46.231C141.04 48.8141 144.228 50.298 148.285 50.9619C151.833 51.5425 155.148 49.9874 155.57 47.4043C155.993 44.8211 154.108 41.5287 150.56 40.9481C147.012 40.3675 141.885 43.6478 141.462 46.231Z" fill="#EF7BA2"/>
<path d="M120.859 39.0358C121.571 41.1973 125.667 40.7164 130.325 39.1809C134.399 37.8378 137.258 35 136.546 32.8384C135.833 30.6769 132.321 29.1388 128.247 30.4818C124.173 31.8249 120.146 36.8743 120.859 39.0358Z" fill="#EF7BA2"/>
<path d="M186.076 41.8026C187.397 39.6982 190.782 39.4453 193.637 41.2377C196.493 43.0301 197.736 46.1891 196.415 48.2935C195.094 50.3979 193.19 47.8508 190.334 46.0584C187.479 44.266 184.755 43.907 186.076 41.8026Z" fill="#D9D9D9"/>
<path d="M170.495 30.3408C171.124 28.324 174.243 27.5028 177.461 28.5067C180.679 29.5105 182.778 31.9591 182.149 33.9759C181.52 35.9927 178.671 37.5938 175.453 36.59C172.235 35.5862 169.866 32.3577 170.495 30.3408Z" fill="#D9D9D9"/>
<path d="M158.109 34.101C158.342 32.7536 161.355 29.8181 164.141 30.3C166.927 30.7818 168.431 34.4987 168.198 35.8461C167.965 37.1935 165.571 37.2661 162.785 36.7842C159.999 36.3023 157.876 35.4484 158.109 34.101Z" fill="#D9D9D9"/>
<path d="M144.705 30.0777C144.74 28.3059 147.487 23.9442 150.535 24.0034C153.584 24.0625 157.15 26.7248 157.116 28.4965C157.081 30.2683 154.093 30.7061 151.044 30.6469C147.996 30.5878 144.671 31.8495 144.705 30.0777Z" fill="#D9D9D9"/>
<path d="M129.001 27.7783C129.649 29.4276 128.307 34.1386 125.469 35.2537C122.631 36.3687 117.073 35.8696 116.425 34.2203C115.251 33.0336 121.431 29.6406 124.157 28.1842C127.003 26.9101 128.353 26.1289 129.001 27.7783Z" fill="#D9D9D9"/>
<path d="M116.548 41.9384C115.563 40.2596 113.124 39.8609 111.101 41.0479C109.078 42.2349 108.236 44.5581 109.221 46.2369C110.206 47.9157 111.415 46.3063 113.438 45.1193C115.461 43.9323 117.533 43.6172 116.548 41.9384Z" fill="#D9D9D9"/>
<path d="M148.924 49.2395L154.665 49.3439L156.964 63.2008L149.191 62.7082L148.924 49.2395Z" fill="#280410"/>
<path d="M148.931 49.2393L143.189 49.3437L141.431 63.1331L149.167 62.1871L148.931 49.2393Z" fill="#280410"/>
<path d="M148.9 87.3264L154.321 89.5984L156.98 72.2602L149.207 72.7528L148.9 87.3264Z" fill="#280410"/>
<path d="M148.961 87.4358L143.472 89.3145L141.44 72.3271L149.176 73.2731L148.961 87.4358Z" fill="#280410"/>
<rect x="141.5" y="60" width="15.58" height="15.96" rx="4" fill="#280410"/>
<path d="M159.832 44.3424C160.179 42.2146 158.28 38.4628 155.394 37.9911C152.509 37.5195 149.637 40.1488 149.289 42.2766C148.941 44.4044 150.669 46.7221 153.554 47.1937C156.44 47.6653 159.484 46.4702 159.832 44.3424Z" fill="#D9D9D9"/>
<path opacity="0.8" d="M79.1 86H102.7V156H79.1V130.2H57.3V156H33.7V86H57.3V110.8H79.1V86ZM166.471 156L161.771 143.8H135.171L130.471 156H106.471L137.071 86H160.271L190.871 156H166.471ZM141.671 126.8H155.271L148.471 109.2L141.671 126.8ZM229.861 157.6C207.361 157.6 190.861 142.5 190.861 121C190.861 99.5 207.361 84.4 229.861 84.4C243.561 84.4 254.361 89.4 261.261 98.4L246.361 111.7C242.261 106.5 237.361 103.5 231.061 103.5C221.261 103.5 214.661 110.3 214.661 121C214.661 131.7 221.261 138.5 231.061 138.5C237.361 138.5 242.261 135.5 246.361 130.3L261.261 143.6C254.361 152.6 243.561 157.6 229.861 157.6ZM314.075 156L296.575 132.8L291.275 138.7V156H268.075V86H291.275V111.4L314.275 86H339.975L311.975 116.8L341.375 156H314.075ZM339.336 135.6V118.6H369.336V135.6H339.336ZM404.624 157.6C392.924 157.6 381.124 154.7 374.124 150.4L381.724 133.2C388.324 137.1 397.124 139.6 404.824 139.6C411.524 139.6 413.924 138.2 413.924 135.8C413.924 127 375.224 134.1 375.224 108C375.224 95 386.124 84.4 407.824 84.4C417.224 84.4 426.924 86.4 434.224 90.5L427.124 107.6C420.224 104.1 413.724 102.4 407.624 102.4C400.724 102.4 398.524 104.4 398.524 106.8C398.524 115.2 437.224 108.2 437.224 134C437.224 146.8 426.324 157.6 404.624 157.6ZM477.947 86C497.447 86 509.847 96.2 509.847 112.4C509.847 128.6 497.447 138.8 477.947 138.8H467.847V156H444.247V86H477.947ZM476.447 120.6C482.947 120.6 486.047 117.5 486.047 112.4C486.047 107.3 482.947 104.2 476.447 104.2H467.847V120.6H476.447ZM540.787 138.2H575.787V156H517.587V86H574.487V103.8H540.787V112H570.387V129H540.787V138.2ZM621.072 157.6C598.572 157.6 582.072 142.5 582.072 121C582.072 99.5 598.572 84.4 621.072 84.4C634.772 84.4 645.572 89.4 652.472 98.4L637.572 111.7C633.472 106.5 628.572 103.5 622.272 103.5C612.472 103.5 605.872 110.3 605.872 121C605.872 131.7 612.472 138.5 622.272 138.5C628.572 138.5 633.472 135.5 637.572 130.3L652.472 143.6C645.572 152.6 634.772 157.6 621.072 157.6ZM659.286 156V86H682.886V156H659.286ZM751.147 103.8H717.847V115.8H747.047V133.6H717.847V156H694.247V86H751.147V103.8ZM758.602 156V86H782.202V156H758.602ZM829.763 157.6C807.263 157.6 790.763 142.5 790.763 121C790.763 99.5 807.263 84.4 829.763 84.4C843.463 84.4 854.263 89.4 861.163 98.4L846.263 111.7C842.163 106.5 837.263 103.5 830.963 103.5C821.163 103.5 814.563 110.3 814.563 121C814.563 131.7 821.163 138.5 830.963 138.5C837.263 138.5 842.163 135.5 846.263 130.3L861.163 143.6C854.263 152.6 843.463 157.6 829.763 157.6Z" fill="#CA6E91"/>
<path opacity="0.8" d="M79.1 91H102.7V161H79.1V135.2H57.3V161H33.7V91H57.3V115.8H79.1V91ZM166.471 161L161.771 148.8H135.171L130.471 161H106.471L137.071 91H160.271L190.871 161H166.471ZM141.671 131.8H155.271L148.471 114.2L141.671 131.8ZM229.861 162.6C207.361 162.6 190.861 147.5 190.861 126C190.861 104.5 207.361 89.4 229.861 89.4C243.561 89.4 254.361 94.4 261.261 103.4L246.361 116.7C242.261 111.5 237.361 108.5 231.061 108.5C221.261 108.5 214.661 115.3 214.661 126C214.661 136.7 221.261 143.5 231.061 143.5C237.361 143.5 242.261 140.5 246.361 135.3L261.261 148.6C254.361 157.6 243.561 162.6 229.861 162.6ZM314.075 161L296.575 137.8L291.275 143.7V161H268.075V91H291.275V116.4L314.275 91H339.975L311.975 121.8L341.375 161H314.075ZM339.336 140.6V123.6H369.336V140.6H339.336ZM404.624 162.6C392.924 162.6 381.124 159.7 374.124 155.4L381.724 138.2C388.324 142.1 397.124 144.6 404.824 144.6C411.524 144.6 413.924 143.2 413.924 140.8C413.924 132 375.224 139.1 375.224 113C375.224 100 386.124 89.4 407.824 89.4C417.224 89.4 426.924 91.4 434.224 95.5L427.124 112.6C420.224 109.1 413.724 107.4 407.624 107.4C400.724 107.4 398.524 109.4 398.524 111.8C398.524 120.2 437.224 113.2 437.224 139C437.224 151.8 426.324 162.6 404.624 162.6ZM477.947 91C497.447 91 509.847 101.2 509.847 117.4C509.847 133.6 497.447 143.8 477.947 143.8H467.847V161H444.247V91H477.947ZM476.447 125.6C482.947 125.6 486.047 122.5 486.047 117.4C486.047 112.3 482.947 109.2 476.447 109.2H467.847V125.6H476.447ZM540.787 143.2H575.787V161H517.587V91H574.487V108.8H540.787V117H570.387V134H540.787V143.2ZM621.072 162.6C598.572 162.6 582.072 147.5 582.072 126C582.072 104.5 598.572 89.4 621.072 89.4C634.772 89.4 645.572 94.4 652.472 103.4L637.572 116.7C633.472 111.5 628.572 108.5 622.272 108.5C612.472 108.5 605.872 115.3 605.872 126C605.872 136.7 612.472 143.5 622.272 143.5C628.572 143.5 633.472 140.5 637.572 135.3L652.472 148.6C645.572 157.6 634.772 162.6 621.072 162.6ZM659.286 161V91H682.886V161H659.286ZM751.147 108.8H717.847V120.8H747.047V138.6H717.847V161H694.247V91H751.147V108.8ZM758.602 161V91H782.202V161H758.602ZM829.763 162.6C807.263 162.6 790.763 147.5 790.763 126C790.763 104.5 807.263 89.4 829.763 89.4C843.463 89.4 854.263 94.4 861.163 103.4L846.263 116.7C842.163 111.5 837.263 108.5 830.963 108.5C821.163 108.5 814.563 115.3 814.563 126C814.563 136.7 821.163 143.5 830.963 143.5C837.263 143.5 842.163 140.5 846.263 135.3L861.163 148.6C854.263 157.6 843.463 162.6 829.763 162.6Z" fill="#FFD7D7"/>
</svg>
