<svg width="961" height="215" viewBox="0 0 961 215" fill="none" xmlns="http://www.w3.org/2000/svg">
<path d="M6.93501 48.9814L10.3588 44.6182L16.0197 50.5948L11.2071 49.7846L6.93501 48.9814Z" fill="#B9DCD9"/>
<path d="M10.3545 44.6183L12.2177 41.9813L13.8719 45.9108L16.0153 50.5949L10.3545 44.6183Z" fill="#CAEDEB"/>
<path d="M1.73319 39.3106L10.3546 44.6184L6.93085 48.9816L1.73319 39.3106Z" fill="#BDEDE9"/>
<path d="M1.73237 39.3105L12.2171 41.9813L10.3538 44.6183L1.73237 39.3105Z" fill="#E2F5F4"/>
<path d="M27.9722 14.1891L30.0977 12.97L31.4249 16.356L29.5885 15.2263L27.9722 14.1891Z" fill="#B9DCD9"/>
<path d="M30.0949 12.9708L31.2951 12.1998L31.321 14.0832L31.4222 16.3567L30.0949 12.9708Z" fill="#CAEDEB"/>
<path d="M27.4468 9.36741L30.0973 12.9704L27.9718 14.1895L27.4468 9.36741Z" fill="#BDEDE9"/>
<path d="M27.4439 9.3677L31.2946 12.1997L30.0944 12.9707L27.4439 9.3677Z" fill="#E2F5F4"/>
<path d="M46.1741 32.7849L48.6074 32.4974L48.4999 36.1326L47.2539 34.3731L46.1741 32.7849Z" fill="#B9DCD9"/>
<path d="M48.6035 32.4972L50.0099 32.2589L49.2949 34.0015L48.4961 36.1324L48.6035 32.4972Z" fill="#CAEDEB"/>
<path d="M47.5798 28.1432L48.6044 32.4971L46.1711 32.7847L47.5798 28.1432Z" fill="#BDEDE9"/>
<path d="M47.5823 28.1433L50.0133 32.259L48.6069 32.4973L47.5823 28.1433Z" fill="#E2F5F4"/>
<path d="M28.1408 39.781L29.2432 37.5928L32.2161 39.6877L30.0611 39.7564L28.1408 39.781Z" fill="#B9DCD9"/>
<path d="M29.2423 37.5929L29.8194 36.2884L30.8784 37.846L32.2152 39.6878L29.2423 37.5929Z" fill="#CAEDEB"/>
<path d="M25.0405 36.0454L29.2373 37.5925L28.1349 39.7808L25.0405 36.0454Z" fill="#BDEDE9"/>
<path d="M25.0446 36.0454L29.8184 36.288L29.2414 37.5925L25.0446 36.0454Z" fill="#E2F5F4"/>
<path d="M63.0984 13.6497L69.3716 13.6261L68.0408 22.8418L65.3831 18.0036L63.0984 13.6497Z" fill="#B9DCD9"/>
<path d="M69.374 13.6274L73.0209 13.4303L70.6952 17.6549L68.0432 22.8431L69.374 13.6274Z" fill="#CAEDEB"/>
<path d="M68.029 2.25599L69.3687 13.6292L63.0954 13.6528L68.029 2.25599Z" fill="#BDEDE9"/>
<path d="M68.0276 2.25265L73.0142 13.4288L69.3673 13.6258L68.0276 2.25265Z" fill="#E2F5F4"/>
<path d="M75.8796 45.4561L79.9373 45.4408L79.0765 51.4017L77.3574 48.2722L75.8796 45.4561Z" fill="#B9DCD9"/>
<path d="M79.9417 45.4413L82.3006 45.3139L80.7963 48.0464L79.0809 51.4022L79.9417 45.4413Z" fill="#CAEDEB"/>
<path d="M79.0676 38.0854L79.9341 45.4418L75.8764 45.4571L79.0676 38.0854Z" fill="#BDEDE9"/>
<path d="M79.0662 38.0829L82.2916 45.3118L79.9327 45.4393L79.0662 38.0829Z" fill="#E2F5F4"/>
<path d="M21.1701 93.7091L21.414 89.6587L27.3077 90.8985L24.0749 92.4142L21.1701 93.7091Z" fill="#B9DCD9"/>
<path d="M21.4139 89.6556L21.4373 87.2934L24.0682 88.9691L27.3076 90.8953L21.4139 89.6556Z" fill="#CAEDEB"/>
<path d="M14.018 90.054L21.4147 89.659L21.1708 93.7094L14.018 90.054Z" fill="#BDEDE9"/>
<path d="M14.0129 90.0554L21.433 87.2982L21.4096 89.6604L14.0129 90.0554Z" fill="#E2F5F4"/>
<path d="M27.3062 68.772L28.512 66.1795L32.056 68.5141L29.5451 68.6731L27.3062 68.772Z" fill="#B9DCD9"/>
<path d="M28.516 66.1774L29.1413 64.6348L30.4335 66.4128L32.06 68.5121L28.516 66.1774Z" fill="#CAEDEB"/>
<path d="M23.5596 64.5293L28.511 66.1802L27.3053 68.7728L23.5596 64.5293Z" fill="#BDEDE9"/>
<path d="M23.5606 64.5296L29.1374 64.6379L28.5121 66.1805L23.5606 64.5296Z" fill="#E2F5F4"/>
<path d="M101.88 45.6827L105.807 46.3757L103.935 51.9908L102.818 48.6642L101.88 45.6827Z" fill="#B9DCD9"/>
<path d="M105.804 46.3775L108.107 46.6657L106.176 49.0462L103.931 51.9926L105.804 46.3775Z" fill="#CAEDEB"/>
<path d="M106.252 39.1119L105.807 46.378L101.88 45.685L106.252 39.1119Z" fill="#BDEDE9"/>
<path d="M106.251 39.1078L108.109 46.662L105.806 46.3738L106.251 39.1078Z" fill="#E2F5F4"/>
<path d="M929.795 119.721L929.011 125.211L921.121 122.866L925.694 121.161L929.795 119.721Z" fill="#B9DCD9"/>
<path d="M929.015 125.209L928.72 128.424L925.323 125.849L921.125 122.864L929.015 125.209Z" fill="#CAEDEB"/>
<path d="M939.135 125.495L929.015 125.209L929.798 119.719L939.135 125.495Z" fill="#BDEDE9"/>
<path d="M939.136 125.495L928.72 128.424L929.015 125.209L939.136 125.495Z" fill="#E2F5F4"/>
<path d="M928.973 160.371L927.742 162.489L924.899 160.22L927.054 160.28L928.973 160.371Z" fill="#B9DCD9"/>
<path d="M927.743 162.487L927.089 163.755L926.125 162.137L924.901 160.218L927.743 162.487Z" fill="#CAEDEB"/>
<path d="M931.838 164.284L927.742 162.489L928.973 160.37L931.838 164.284Z" fill="#BDEDE9"/>
<path d="M931.841 164.282L927.09 163.755L927.744 162.487L931.841 164.282Z" fill="#E2F5F4"/>
<path d="M903.911 153.367L901.948 154.833L900.223 151.631L902.182 152.532L903.911 153.367Z" fill="#B9DCD9"/>
<path d="M901.951 154.831L900.852 155.741L900.6 153.874L900.226 151.629L901.951 154.831Z" fill="#CAEDEB"/>
<path d="M905.014 158.09L901.95 154.832L903.914 153.366L905.014 158.09Z" fill="#BDEDE9"/>
<path d="M905.012 158.091L900.849 155.742L901.948 154.833L905.012 158.091Z" fill="#E2F5F4"/>
<path d="M916.031 138.292L916.17 140.738L912.548 140.41L914.38 139.273L916.031 138.292Z" fill="#B9DCD9"/>
<path d="M916.171 140.737L916.323 142.156L914.627 141.336L912.549 140.41L916.171 140.737Z" fill="#CAEDEB"/>
<path d="M920.583 139.977L916.175 140.735L916.036 138.289L920.583 139.977Z" fill="#BDEDE9"/>
<path d="M920.58 139.979L916.324 142.156L916.172 140.737L920.58 139.979Z" fill="#E2F5F4"/>
<path d="M898.822 178.401L893.401 181.558L889.946 172.911L894.667 175.772L898.822 178.401Z" fill="#B9DCD9"/>
<path d="M893.398 181.558L890.339 183.552L890.241 178.731L889.943 172.911L893.398 181.558Z" fill="#CAEDEB"/>
<path d="M900.249 190.733L893.402 181.554L898.823 178.397L900.249 190.733Z" fill="#BDEDE9"/>
<path d="M900.252 190.736L890.345 183.55L893.405 181.556L900.252 190.736Z" fill="#E2F5F4"/>
<path d="M871.85 157.246L868.344 159.288L866.109 153.696L869.162 155.546L871.85 157.246Z" fill="#B9DCD9"/>
<path d="M868.339 159.29L866.36 160.58L866.297 157.461L866.104 153.697L868.339 159.29Z" fill="#CAEDEB"/>
<path d="M872.774 165.223L868.346 159.286L871.852 157.244L872.774 165.223Z" fill="#BDEDE9"/>
<path d="M872.777 165.225L866.369 160.577L868.348 159.288L872.777 165.225Z" fill="#E2F5F4"/>
<path d="M895.103 88.1032L896.917 91.7328L891.193 93.6061L893.235 90.677L895.103 88.1032Z" fill="#B9DCD9"/>
<path d="M896.919 91.7356L898.08 93.7931L894.963 93.6573L891.195 93.6089L896.919 91.7356Z" fill="#CAEDEB"/>
<path d="M903.125 87.6926L896.917 91.733L895.103 88.1034L903.125 87.6926Z" fill="#BDEDE9"/>
<path d="M903.128 87.6889L898.081 93.7868L896.92 91.7293L903.128 87.6889Z" fill="#E2F5F4"/>
<path d="M902.258 112.767L902.51 115.615L898.273 115.366L900.369 113.972L902.258 112.767Z" fill="#B9DCD9"/>
<path d="M902.507 115.619L902.737 117.268L900.729 116.374L898.271 115.369L902.507 115.619Z" fill="#CAEDEB"/>
<path d="M907.624 114.568L902.51 115.614L902.258 112.766L907.624 114.568Z" fill="#BDEDE9"/>
<path d="M907.623 114.569L902.739 117.263L902.509 115.615L907.623 114.569Z" fill="#E2F5F4"/>
<path d="M849.22 170.05L845.472 171.414L844.286 165.615L846.916 167.937L849.22 170.05Z" fill="#B9DCD9"/>
<path d="M845.474 171.41L843.335 172.313L843.818 169.285L844.288 165.611L845.474 171.41Z" fill="#CAEDEB"/>
<path d="M848.718 177.927L845.471 171.412L849.218 170.048L848.718 177.927Z" fill="#BDEDE9"/>
<path d="M848.722 177.93L843.335 172.317L845.474 171.415L848.722 177.93Z" fill="#E2F5F4"/>
<path opacity="0.8" d="M84 75.3C88.2 75.3 92 76.1667 95.4 77.9C98.8 79.5667 101.467 82.2 103.4 85.8C105.4 89.4 106.4 94.0667 106.4 99.8V131H83.8V103.7C83.8 100.3 83.2 97.9 82 96.5C80.8 95.0333 79.1667 94.3 77.1 94.3C75.5667 94.3 74.1333 94.6667 72.8 95.4C71.5333 96.0667 70.5 97.2 69.7 98.8C68.9667 100.4 68.6 102.567 68.6 105.3V131H46V56.8H68.6V92.3L63.2 87.7C65.3333 83.5667 68.2 80.4667 71.8 78.4C75.4667 76.3333 79.5333 75.3 84 75.3ZM109.315 131L139.915 61H163.115L193.715 131H169.315L146.715 72.2H155.915L133.315 131H109.315ZM127.515 118.8L133.515 101.8H165.715L171.715 118.8H127.515ZM232.705 132.6C227.105 132.6 221.905 131.733 217.105 130C212.371 128.2 208.238 125.667 204.705 122.4C201.238 119.133 198.538 115.267 196.605 110.8C194.671 106.333 193.705 101.4 193.705 96C193.705 90.6 194.671 85.6667 196.605 81.2C198.538 76.7333 201.238 72.8667 204.705 69.6C208.238 66.3333 212.371 63.8333 217.105 62.1C221.905 60.3 227.105 59.4 232.705 59.4C239.571 59.4 245.638 60.6 250.905 63C256.238 65.4 260.638 68.8667 264.105 73.4L249.205 86.7C247.138 84.1 244.838 82.1 242.305 80.7C239.838 79.2333 237.038 78.5 233.905 78.5C231.438 78.5 229.205 78.9 227.205 79.7C225.205 80.5 223.471 81.6667 222.005 83.2C220.605 84.7333 219.505 86.6 218.705 88.8C217.905 90.9333 217.505 93.3333 217.505 96C217.505 98.6667 217.905 101.1 218.705 103.3C219.505 105.433 220.605 107.267 222.005 108.8C223.471 110.333 225.205 111.5 227.205 112.3C229.205 113.1 231.438 113.5 233.905 113.5C237.038 113.5 239.838 112.8 242.305 111.4C244.838 109.933 247.138 107.9 249.205 105.3L264.105 118.6C260.638 123.067 256.238 126.533 250.905 129C245.638 131.4 239.571 132.6 232.705 132.6ZM292.019 116L290.719 90.1L317.119 61H342.819L313.219 93.6L300.119 107L292.019 116ZM270.919 131V61H294.119V131H270.919ZM316.919 131L296.319 103.8L311.619 87.6L344.219 131H316.919ZM342.18 110.6V93.6H372.18V110.6H342.18ZM407.468 132.6C401.601 132.6 395.935 131.933 390.468 130.6C385.001 129.267 380.501 127.533 376.968 125.4L384.568 108.2C387.901 110.133 391.601 111.7 395.668 112.9C399.801 114.033 403.801 114.6 407.668 114.6C409.935 114.6 411.701 114.467 412.968 114.2C414.301 113.867 415.268 113.433 415.868 112.9C416.468 112.3 416.768 111.6 416.768 110.8C416.768 109.533 416.068 108.533 414.668 107.8C413.268 107.067 411.401 106.467 409.068 106C406.801 105.467 404.301 104.933 401.568 104.4C398.835 103.8 396.068 103.033 393.268 102.1C390.535 101.167 388.001 99.9333 385.668 98.4C383.401 96.8667 381.568 94.8667 380.168 92.4C378.768 89.8667 378.068 86.7333 378.068 83C378.068 78.6667 379.268 74.7333 381.668 71.2C384.135 67.6 387.768 64.7333 392.568 62.6C397.435 60.4667 403.468 59.4 410.668 59.4C415.401 59.4 420.068 59.9 424.668 60.9C429.268 61.9 433.401 63.4333 437.068 65.5L429.968 82.6C426.501 80.8667 423.135 79.5667 419.868 78.7C416.668 77.8333 413.535 77.4 410.468 77.4C408.201 77.4 406.401 77.6 405.068 78C403.735 78.4 402.768 78.9333 402.168 79.6C401.635 80.2667 401.368 81 401.368 81.8C401.368 83 402.068 83.9667 403.468 84.7C404.868 85.3667 406.701 85.9333 408.968 86.4C411.301 86.8667 413.835 87.3667 416.568 87.9C419.368 88.4333 422.135 89.1667 424.868 90.1C427.601 91.0333 430.101 92.2667 432.368 93.8C434.701 95.3333 436.568 97.3333 437.968 99.8C439.368 102.267 440.068 105.333 440.068 109C440.068 113.267 438.835 117.2 436.368 120.8C433.968 124.333 430.368 127.2 425.568 129.4C420.768 131.533 414.735 132.6 407.468 132.6ZM447.091 131V61H480.791C487.324 61 492.957 62.0667 497.691 64.2C502.491 66.3333 506.191 69.4 508.791 73.4C511.391 77.3333 512.691 82 512.691 87.4C512.691 92.8 511.391 97.4667 508.791 101.4C506.191 105.333 502.491 108.4 497.691 110.6C492.957 112.733 487.324 113.8 480.791 113.8H460.191L470.691 103.7V131H447.091ZM470.691 106.3L460.191 95.6H479.291C482.557 95.6 484.957 94.8667 486.491 93.4C488.091 91.9333 488.891 89.9333 488.891 87.4C488.891 84.8667 488.091 82.8667 486.491 81.4C484.957 79.9333 482.557 79.2 479.291 79.2H460.191L470.691 68.5V106.3ZM542.03 87H573.23V104H542.03V87ZM543.63 113.2H578.63V131H520.43V61H577.33V78.8H543.63V113.2ZM623.916 132.6C618.316 132.6 613.116 131.733 608.316 130C603.582 128.2 599.449 125.667 595.916 122.4C592.449 119.133 589.749 115.267 587.816 110.8C585.882 106.333 584.916 101.4 584.916 96C584.916 90.6 585.882 85.6667 587.816 81.2C589.749 76.7333 592.449 72.8667 595.916 69.6C599.449 66.3333 603.582 63.8333 608.316 62.1C613.116 60.3 618.316 59.4 623.916 59.4C630.782 59.4 636.849 60.6 642.116 63C647.449 65.4 651.849 68.8667 655.316 73.4L640.416 86.7C638.349 84.1 636.049 82.1 633.516 80.7C631.049 79.2333 628.249 78.5 625.116 78.5C622.649 78.5 620.416 78.9 618.416 79.7C616.416 80.5 614.682 81.6667 613.216 83.2C611.816 84.7333 610.716 86.6 609.916 88.8C609.116 90.9333 608.716 93.3333 608.716 96C608.716 98.6667 609.116 101.1 609.916 103.3C610.716 105.433 611.816 107.267 613.216 108.8C614.682 110.333 616.416 111.5 618.416 112.3C620.416 113.1 622.649 113.5 625.116 113.5C628.249 113.5 631.049 112.8 633.516 111.4C636.049 109.933 638.349 107.9 640.416 105.3L655.316 118.6C651.849 123.067 647.449 126.533 642.116 129C636.849 131.4 630.782 132.6 623.916 132.6ZM662.13 131V61H685.73V131H662.13ZM719.091 90.8H749.891V108.6H719.091V90.8ZM720.691 131H697.091V61H753.991V78.8H720.691V131ZM761.446 131V61H785.046V131H761.446ZM832.607 132.6C827.007 132.6 821.807 131.733 817.007 130C812.274 128.2 808.14 125.667 804.607 122.4C801.14 119.133 798.44 115.267 796.507 110.8C794.574 106.333 793.607 101.4 793.607 96C793.607 90.6 794.574 85.6667 796.507 81.2C798.44 76.7333 801.14 72.8667 804.607 69.6C808.14 66.3333 812.274 63.8333 817.007 62.1C821.807 60.3 827.007 59.4 832.607 59.4C839.474 59.4 845.54 60.6 850.807 63C856.14 65.4 860.54 68.8667 864.007 73.4L849.107 86.7C847.04 84.1 844.74 82.1 842.207 80.7C839.74 79.2333 836.94 78.5 833.807 78.5C831.34 78.5 829.107 78.9 827.107 79.7C825.107 80.5 823.374 81.6667 821.907 83.2C820.507 84.7333 819.407 86.6 818.607 88.8C817.807 90.9333 817.407 93.3333 817.407 96C817.407 98.6667 817.807 101.1 818.607 103.3C819.407 105.433 820.507 107.267 821.907 108.8C823.374 110.333 825.107 111.5 827.107 112.3C829.107 113.1 831.34 113.5 833.807 113.5C836.94 113.5 839.74 112.8 842.207 111.4C844.74 109.933 847.04 107.9 849.107 105.3L864.007 118.6C860.54 123.067 856.14 126.533 850.807 129C845.54 131.4 839.474 132.6 832.607 132.6Z" fill="#54987E"/>
<path opacity="0.8" d="M92.1 67H115.7V137H92.1V67ZM70.3 137H46.7V67H70.3V137ZM93.7 111.2H68.7V91.8H93.7V111.2ZM119.471 137L150.071 67H173.271L203.871 137H179.471L156.871 78.2H166.071L143.471 137H119.471ZM137.671 124.8L143.671 107.8H175.871L181.871 124.8H137.671ZM242.861 138.6C237.261 138.6 232.061 137.733 227.261 136C222.528 134.2 218.394 131.667 214.861 128.4C211.394 125.133 208.694 121.267 206.761 116.8C204.828 112.333 203.861 107.4 203.861 102C203.861 96.6 204.828 91.6667 206.761 87.2C208.694 82.7333 211.394 78.8667 214.861 75.6C218.394 72.3333 222.528 69.8333 227.261 68.1C232.061 66.3 237.261 65.4 242.861 65.4C249.728 65.4 255.794 66.6 261.061 69C266.394 71.4 270.794 74.8667 274.261 79.4L259.361 92.7C257.294 90.1 254.994 88.1 252.461 86.7C249.994 85.2333 247.194 84.5 244.061 84.5C241.594 84.5 239.361 84.9 237.361 85.7C235.361 86.5 233.628 87.6667 232.161 89.2C230.761 90.7333 229.661 92.6 228.861 94.8C228.061 96.9333 227.661 99.3333 227.661 102C227.661 104.667 228.061 107.1 228.861 109.3C229.661 111.433 230.761 113.267 232.161 114.8C233.628 116.333 235.361 117.5 237.361 118.3C239.361 119.1 241.594 119.5 244.061 119.5C247.194 119.5 249.994 118.8 252.461 117.4C254.994 115.933 257.294 113.9 259.361 111.3L274.261 124.6C270.794 129.067 266.394 132.533 261.061 135C255.794 137.4 249.728 138.6 242.861 138.6ZM302.175 122L300.875 96.1L327.275 67H352.975L323.375 99.6L310.275 113L302.175 122ZM281.075 137V67H304.275V137H281.075ZM327.075 137L306.475 109.8L321.775 93.6L354.375 137H327.075ZM352.336 116.6V99.6H382.336V116.6H352.336ZM417.624 138.6C411.758 138.6 406.091 137.933 400.624 136.6C395.158 135.267 390.658 133.533 387.124 131.4L394.724 114.2C398.058 116.133 401.758 117.7 405.824 118.9C409.958 120.033 413.958 120.6 417.824 120.6C420.091 120.6 421.858 120.467 423.124 120.2C424.458 119.867 425.424 119.433 426.024 118.9C426.624 118.3 426.924 117.6 426.924 116.8C426.924 115.533 426.224 114.533 424.824 113.8C423.424 113.067 421.558 112.467 419.224 112C416.958 111.467 414.458 110.933 411.724 110.4C408.991 109.8 406.224 109.033 403.424 108.1C400.691 107.167 398.158 105.933 395.824 104.4C393.558 102.867 391.724 100.867 390.324 98.4C388.924 95.8667 388.224 92.7333 388.224 89C388.224 84.6667 389.424 80.7333 391.824 77.2C394.291 73.6 397.924 70.7333 402.724 68.6C407.591 66.4667 413.624 65.4 420.824 65.4C425.558 65.4 430.224 65.9 434.824 66.9C439.424 67.9 443.558 69.4333 447.224 71.5L440.124 88.6C436.658 86.8667 433.291 85.5667 430.024 84.7C426.824 83.8333 423.691 83.4 420.624 83.4C418.358 83.4 416.558 83.6 415.224 84C413.891 84.4 412.924 84.9333 412.324 85.6C411.791 86.2667 411.524 87 411.524 87.8C411.524 89 412.224 89.9667 413.624 90.7C415.024 91.3667 416.858 91.9333 419.124 92.4C421.458 92.8667 423.991 93.3667 426.724 93.9C429.524 94.4333 432.291 95.1667 435.024 96.1C437.758 97.0333 440.258 98.2667 442.524 99.8C444.858 101.333 446.724 103.333 448.124 105.8C449.524 108.267 450.224 111.333 450.224 115C450.224 119.267 448.991 123.2 446.524 126.8C444.124 130.333 440.524 133.2 435.724 135.4C430.924 137.533 424.891 138.6 417.624 138.6ZM457.247 137V67H490.947C497.48 67 503.114 68.0667 507.847 70.2C512.647 72.3333 516.347 75.4 518.947 79.4C521.547 83.3333 522.847 88 522.847 93.4C522.847 98.8 521.547 103.467 518.947 107.4C516.347 111.333 512.647 114.4 507.847 116.6C503.114 118.733 497.48 119.8 490.947 119.8H470.347L480.847 109.7V137H457.247ZM480.847 112.3L470.347 101.6H489.447C492.714 101.6 495.114 100.867 496.647 99.4C498.247 97.9333 499.047 95.9333 499.047 93.4C499.047 90.8667 498.247 88.8667 496.647 87.4C495.114 85.9333 492.714 85.2 489.447 85.2H470.347L480.847 74.5V112.3ZM552.187 93H583.387V110H552.187V93ZM553.787 119.2H588.787V137H530.587V67H587.487V84.8H553.787V119.2ZM634.072 138.6C628.472 138.6 623.272 137.733 618.472 136C613.739 134.2 609.605 131.667 606.072 128.4C602.605 125.133 599.905 121.267 597.972 116.8C596.039 112.333 595.072 107.4 595.072 102C595.072 96.6 596.039 91.6667 597.972 87.2C599.905 82.7333 602.605 78.8667 606.072 75.6C609.605 72.3333 613.739 69.8333 618.472 68.1C623.272 66.3 628.472 65.4 634.072 65.4C640.939 65.4 647.005 66.6 652.272 69C657.605 71.4 662.005 74.8667 665.472 79.4L650.572 92.7C648.505 90.1 646.205 88.1 643.672 86.7C641.205 85.2333 638.405 84.5 635.272 84.5C632.805 84.5 630.572 84.9 628.572 85.7C626.572 86.5 624.839 87.6667 623.372 89.2C621.972 90.7333 620.872 92.6 620.072 94.8C619.272 96.9333 618.872 99.3333 618.872 102C618.872 104.667 619.272 107.1 620.072 109.3C620.872 111.433 621.972 113.267 623.372 114.8C624.839 116.333 626.572 117.5 628.572 118.3C630.572 119.1 632.805 119.5 635.272 119.5C638.405 119.5 641.205 118.8 643.672 117.4C646.205 115.933 648.505 113.9 650.572 111.3L665.472 124.6C662.005 129.067 657.605 132.533 652.272 135C647.005 137.4 640.939 138.6 634.072 138.6ZM672.286 137V67H695.886V137H672.286ZM729.247 96.8H760.047V114.6H729.247V96.8ZM730.847 137H707.247V67H764.147V84.8H730.847V137ZM771.602 137V67H795.202V137H771.602ZM842.763 138.6C837.163 138.6 831.963 137.733 827.163 136C822.43 134.2 818.297 131.667 814.763 128.4C811.297 125.133 808.597 121.267 806.663 116.8C804.73 112.333 803.763 107.4 803.763 102C803.763 96.6 804.73 91.6667 806.663 87.2C808.597 82.7333 811.297 78.8667 814.763 75.6C818.297 72.3333 822.43 69.8333 827.163 68.1C831.963 66.3 837.163 65.4 842.763 65.4C849.63 65.4 855.697 66.6 860.963 69C866.297 71.4 870.697 74.8667 874.163 79.4L859.263 92.7C857.197 90.1 854.897 88.1 852.363 86.7C849.897 85.2333 847.097 84.5 843.963 84.5C841.497 84.5 839.263 84.9 837.263 85.7C835.263 86.5 833.53 87.6667 832.063 89.2C830.663 90.7333 829.563 92.6 828.763 94.8C827.963 96.9333 827.563 99.3333 827.563 102C827.563 104.667 827.963 107.1 828.763 109.3C829.563 111.433 830.663 113.267 832.063 114.8C833.53 116.333 835.263 117.5 837.263 118.3C839.263 119.1 841.497 119.5 843.963 119.5C847.097 119.5 849.897 118.8 852.363 117.4C854.897 115.933 857.197 113.9 859.263 111.3L874.163 124.6C870.697 129.067 866.297 132.533 860.963 135C855.697 137.4 849.63 138.6 842.763 138.6Z" fill="#BAE7DF"/>
</svg>
