<svg width="274" height="380" viewBox="0 0 274 380" fill="none" xmlns="http://www.w3.org/2000/svg">
<path d="M18.7891 253.098C33.8178 258.904 63.8069 278.612 63.5336 310.993" stroke="#AAD37F" stroke-width="2.5" stroke-linecap="round" stroke-linejoin="round"/>
<path d="M188.257 339.844C188.257 331.733 181.681 325.157 173.57 325.157C165.458 325.157 158.883 331.733 158.883 339.844V364.778C158.883 372.89 165.458 379.466 173.57 379.466C181.681 379.466 188.257 372.89 188.257 364.778V339.844Z" fill="#F0D1D1"/>
<path d="M102.068 273.948C96.1052 289.418 83.2617 307.65 61.1381 289.474" stroke="#F0D1D1" stroke-width="12.5" stroke-linecap="round" stroke-linejoin="round"/>
<path d="M200.841 276.325C207.331 281.106 247.123 284.693 211.259 313.213" stroke="#F0D1D1" stroke-width="12.5" stroke-linecap="round" stroke-linejoin="round"/>
<path d="M141.656 339.844C141.656 331.733 135.08 325.157 126.968 325.157C118.857 325.157 112.281 331.733 112.281 339.844V364.778C112.281 372.89 118.857 379.466 126.968 379.466C135.08 379.466 141.656 372.89 141.656 364.778V339.844Z" fill="#F0D1D1"/>
<path d="M224.708 343.602H75.8281V346.215C75.8281 349.951 78.8578 352.981 82.5945 352.981C86.3311 352.981 89.3608 349.951 89.3608 346.215H89.3779C89.3745 346.317 89.3608 346.419 89.3608 346.522C89.3608 350.259 92.3904 353.288 96.1271 353.288C99.8638 353.288 102.893 350.259 102.893 346.522C102.893 346.419 102.883 346.317 102.876 346.215H102.893C102.893 349.951 105.923 352.981 109.66 352.981C113.396 352.981 116.426 349.951 116.426 346.215H116.443C116.44 346.317 116.426 346.419 116.426 346.522C116.426 350.259 119.456 353.288 123.192 353.288C126.929 353.288 129.959 350.259 129.959 346.522C129.959 346.419 129.949 346.317 129.942 346.215H129.959C129.959 349.951 132.988 352.981 136.725 352.981C140.462 352.981 143.491 349.951 143.491 346.215H143.509C143.505 346.317 143.491 346.419 143.491 346.522C143.491 350.259 146.521 353.288 150.258 353.288C153.994 353.288 157.024 350.259 157.024 346.522C157.024 346.419 157.014 346.317 157.007 346.215H157.024C157.024 349.951 160.054 352.981 163.79 352.981C167.527 352.981 170.557 349.951 170.557 346.215H170.574C170.57 346.317 170.557 346.419 170.557 346.522C170.557 350.259 173.586 353.288 177.323 353.288C181.06 353.288 184.089 350.259 184.089 346.522C184.089 346.419 184.079 346.317 184.072 346.215H184.089C184.089 349.951 187.119 352.981 190.856 352.981C194.593 352.981 197.622 349.951 197.622 346.215H197.639C197.636 346.317 197.622 346.419 197.622 346.522C197.622 350.259 200.652 353.288 204.389 353.288C208.125 353.288 211.155 350.259 211.155 346.522C211.155 346.419 211.145 346.317 211.138 346.215H211.162C211.162 346.266 211.155 346.317 211.155 346.368C211.155 350.105 214.184 353.135 217.921 353.135C221.658 353.135 224.688 350.105 224.688 346.368C224.688 346.317 224.681 346.266 224.681 346.215H224.688V343.602H224.708Z" fill="#F6E972"/>
<path d="M224.752 343.601L224.711 343.438V343.601H224.752Z" fill="#AAD37F"/>
<path d="M222.693 335.752L203.791 263.676H96.7863L77.8843 335.752L75.8281 343.601H224.708V343.437L222.693 335.752Z" fill="#AAD37F"/>
<path d="M179.853 259.24C179.921 258.451 179.962 257.651 179.962 256.845C179.962 241.564 167.577 229.179 152.296 229.179C137.014 229.179 124.629 241.564 124.629 256.845C124.629 257.658 124.67 258.461 124.742 259.257C121.63 259.465 119.164 262.047 119.164 265.214C119.164 268.38 121.838 271.191 125.141 271.191C126.07 271.191 126.948 270.972 127.734 270.593C126.463 271.69 125.654 273.309 125.654 275.119C125.654 278.418 128.328 281.096 131.631 281.096C132.905 281.096 134.083 280.693 135.054 280.017C134.941 280.475 134.876 280.949 134.876 281.438C134.876 284.737 137.55 287.415 140.853 287.415C143.292 287.415 145.386 285.953 146.315 283.856C146.318 283.856 146.322 283.856 146.328 283.856C146.434 287.063 149.061 289.632 152.296 289.632C155.53 289.632 158.157 287.063 158.263 283.856C158.266 283.856 158.269 283.856 158.276 283.856C159.205 285.95 161.299 287.415 163.738 287.415C167.041 287.415 169.715 284.737 169.715 281.438C169.715 280.946 169.65 280.471 169.538 280.017C170.508 280.697 171.686 281.096 172.96 281.096C176.263 281.096 178.937 278.418 178.937 275.119C178.937 273.134 177.964 271.379 176.475 270.293C176.488 270.265 176.505 270.241 176.519 270.214C177.458 270.832 178.582 271.191 179.791 271.191C183.094 271.191 185.769 268.513 185.769 265.214C185.769 261.914 183.125 259.274 179.853 259.24Z" fill="#F6E972"/>
<path d="M152.297 275.118C162.389 275.118 170.571 266.937 170.571 256.845C170.571 246.753 162.389 238.571 152.297 238.571C142.205 238.571 134.023 246.753 134.023 256.845C134.023 266.937 142.205 275.118 152.297 275.118Z" fill="#F0D1D1"/>
<path d="M82.4977 16.1974C87.7851 2.46658 103.552 -2.25723 117.901 0.977369C134.395 4.69698 146.042 18.5849 142.5 35.1165C134.705 71.5032 116.879 122.28 139.788 149.079H109.976C82.4328 115.336 66.9054 56.6794 82.4977 16.194V16.1974Z" fill="#F0D1D1"/>
<path d="M92.9069 35.2968C96.1722 24.4761 105.907 20.7531 114.77 23.3046C124.956 26.2352 132.149 37.1823 129.959 50.2129C125.147 78.8905 114.138 118.911 128.286 140.034H109.876C92.8693 113.44 83.2783 67.209 92.9069 35.3002V35.2968Z" fill="#D96892"/>
<path d="M194.699 149.253H164.888C187.797 122.454 169.97 71.6774 162.176 35.2907C158.634 18.7557 170.281 4.87118 186.775 1.15156C201.128 -2.08645 216.891 2.64077 222.178 16.3682C237.77 56.857 222.243 115.51 194.699 149.253Z" fill="#F0D1D1"/>
<path d="M194.797 140.031H176.387C190.531 118.909 179.526 78.8916 174.713 50.2106C172.527 37.18 179.717 26.2363 189.903 23.3023C198.766 20.7508 208.501 24.4773 211.766 35.2945C221.395 67.2033 211.807 113.434 194.797 140.028V140.031Z" fill="#D96892"/>
<path d="M200.324 122.099H104.345C64.0708 122.099 31.4219 154.748 31.4219 195.022C31.4219 235.297 64.0708 267.946 104.345 267.946H200.324C240.599 267.946 273.247 235.297 273.247 195.022C273.247 154.748 240.599 122.099 200.324 122.099Z" fill="#F0D1D1"/>
<path d="M253.439 209.197C253.439 176.752 227.135 150.448 194.69 150.448H109.983C77.538 150.448 51.2344 176.752 51.2344 209.197C51.2344 219.242 53.7585 228.693 58.1988 236.963C62.0824 232.311 67.9265 229.349 74.4606 229.349C86.1556 229.349 95.6374 238.831 95.6374 250.526C95.6374 255.912 93.6222 260.828 90.309 264.564C96.4605 266.75 103.083 267.946 109.983 267.946H194.69C201.593 267.946 208.213 266.75 214.364 264.564C211.051 260.828 209.036 255.912 209.036 250.526C209.036 238.831 218.518 229.349 230.213 229.349C236.747 229.349 242.587 232.311 246.474 236.963C250.918 228.693 253.439 219.239 253.439 209.197Z" fill="#FFF9C8"/>
<path d="M74.4649 229.35C67.9308 229.35 62.0901 232.311 58.2031 236.963C65.0583 249.724 76.4937 259.656 90.3133 264.565C93.6265 260.828 95.6417 255.913 95.6417 250.526C95.6417 238.831 86.1599 229.35 74.4649 229.35Z" fill="#D96892"/>
<path d="M230.216 229.35C218.521 229.35 209.039 238.831 209.039 250.526C209.039 255.913 211.054 260.828 214.367 264.565C228.184 259.656 239.619 249.724 246.478 236.963C242.594 232.311 236.75 229.35 230.216 229.35Z" fill="#D96892"/>
<path d="M204.28 230.633C203.279 229.633 201.657 229.633 200.656 230.633C192.998 238.291 182.475 241.386 172.505 239.914C167.532 239.179 162.695 237.304 158.419 234.298C156.882 233.219 155.416 232.003 154.043 230.633C153.5 230.09 152.773 229.844 152.062 229.892C151.352 229.844 150.624 230.09 150.081 230.633C148.708 232.006 147.243 233.222 145.706 234.298C141.429 237.304 136.593 239.179 131.62 239.914C121.646 241.382 111.126 238.291 103.468 230.633C102.468 229.633 100.845 229.633 99.8443 230.633C98.8436 231.634 98.8436 233.257 99.8443 234.257C107.27 241.683 117.021 245.396 126.773 245.396C129.055 245.396 131.336 245.191 133.591 244.784C140.268 243.579 146.686 240.587 152.062 235.805C157.438 240.587 163.853 243.579 170.534 244.784C172.785 245.191 175.07 245.396 177.351 245.396C187.103 245.396 196.858 241.683 204.28 234.257C205.281 233.257 205.281 231.634 204.28 230.633Z" fill="#D96892"/>
<path d="M133.586 244.781C137.039 251.137 143.279 255.55 150.521 256.1V237.089C145.476 241.119 139.642 243.688 133.586 244.781Z" fill="white"/>
<path d="M170.536 244.781C164.48 243.688 158.646 241.123 153.602 237.089V256.1C160.843 255.55 167.083 251.137 170.536 244.781Z" fill="white"/>
<path d="M152.06 235.802C151.558 236.249 151.043 236.676 150.523 237.089V256.101C151.032 256.138 151.545 256.159 152.06 256.159C152.576 256.159 153.089 256.138 153.597 256.101V237.089C153.078 236.673 152.563 236.249 152.06 235.802Z" fill="#EBEBEB"/>
<path d="M152.06 232.53C147.206 232.53 142.353 230.682 138.657 226.986C136.187 224.52 136.187 220.517 138.657 218.051C141.123 215.585 145.126 215.585 147.592 218.051C150.055 220.513 154.065 220.513 156.527 218.051C158.993 215.585 162.996 215.585 165.463 218.051C167.932 220.517 167.932 224.52 165.463 226.986C161.767 230.682 156.913 232.53 152.06 232.53Z" fill="#D96892"/>
<path d="M113.74 221.322C122.7 221.322 129.964 214.059 129.964 205.098C129.964 196.138 122.7 188.874 113.74 188.874C104.779 188.874 97.5156 196.138 97.5156 205.098C97.5156 214.059 104.779 221.322 113.74 221.322Z" fill="#004042"/>
<path d="M190.935 221.322C199.895 221.322 207.159 214.059 207.159 205.098C207.159 196.138 199.895 188.874 190.935 188.874C181.975 188.874 174.711 196.138 174.711 205.098C174.711 214.059 181.975 221.322 190.935 221.322Z" fill="#004042"/>
<path d="M209.787 184.516C208.175 192.074 201.463 197.748 193.419 197.748C193.385 197.748 193.354 197.748 193.32 197.748V204.248C202.563 204.248 210.057 196.754 210.057 187.511C210.057 186.49 209.961 185.489 209.784 184.519L209.787 184.516Z" fill="#004042"/>
<path d="M94.887 184.516C96.4992 192.074 103.211 197.748 111.255 197.748C111.289 197.748 111.32 197.748 111.354 197.748V204.248C102.111 204.248 94.6172 196.754 94.6172 187.511C94.6172 186.49 94.7128 185.489 94.8904 184.519L94.887 184.516Z" fill="#004042"/>
<path d="M113.194 204.257C116.473 204.257 119.13 201.6 119.13 198.321C119.13 195.043 116.473 192.385 113.194 192.385C109.916 192.385 107.258 195.043 107.258 198.321C107.258 201.6 109.916 204.257 113.194 204.257Z" fill="white"/>
<path d="M191.483 204.257C194.762 204.257 197.42 201.6 197.42 198.321C197.42 195.043 194.762 192.385 191.483 192.385C188.205 192.385 185.547 195.043 185.547 198.321C185.547 201.6 188.205 204.257 191.483 204.257Z" fill="white"/>
<path d="M242.794 108.368L236.37 109.297L241.568 105.413C244.249 103.111 243.928 98.5785 240.865 95.5147C237.801 92.4509 233.268 92.1298 230.966 94.8111L227.083 100.01L228.012 93.5849C228.281 90.06 224.845 87.085 220.514 87.085C216.183 87.085 212.751 90.0634 213.017 93.5849L213.946 100.01L210.063 94.8111C207.76 92.1298 203.228 92.4509 200.164 95.5147C197.1 98.5785 196.779 103.111 199.46 105.413L204.659 109.297L198.234 108.368C194.709 108.098 191.734 111.534 191.734 115.865C191.734 120.196 194.713 123.629 198.234 123.362L204.659 122.433L199.46 126.317C196.779 128.619 197.1 133.151 200.164 136.215C203.228 139.279 207.76 139.6 210.063 136.919L213.946 131.72L213.017 138.145C212.747 141.67 216.183 144.645 220.514 144.645C224.845 144.645 228.278 141.667 228.012 138.145L227.083 131.72L230.966 136.919C233.268 139.6 237.801 139.279 240.865 136.215C243.928 133.151 244.249 128.619 241.568 126.317L236.37 122.433L242.794 123.362C246.319 123.632 249.294 120.196 249.294 115.865C249.294 111.534 246.316 108.101 242.794 108.368ZM220.374 115.923V115.804L220.46 115.718H220.579L220.665 115.804V115.923L220.579 116.008H220.46L220.374 115.923Z" fill="white"/>
<path d="M220.517 126.381C226.325 126.381 231.033 121.673 231.033 115.864C231.033 110.056 226.325 105.348 220.517 105.348C214.708 105.348 210 110.056 210 115.864C210 121.673 214.708 126.381 220.517 126.381Z" fill="#F6E972"/>
<path d="M150.272 309.104C153.101 309.104 155.395 306.81 155.395 303.981C155.395 301.151 153.101 298.857 150.272 298.857C147.442 298.857 145.148 301.151 145.148 303.981C145.148 306.81 147.442 309.104 150.272 309.104Z" fill="#688C3C"/>
<path d="M52.1172 279.132C47.3838 271.577 49.6707 261.616 57.225 256.883C61.9584 264.437 59.6715 274.398 52.1172 279.132Z" fill="#AAD37F"/>
<path d="M150.272 330.622C153.101 330.622 155.395 328.328 155.395 325.498C155.395 322.669 153.101 320.375 150.272 320.375C147.442 320.375 145.148 322.669 145.148 325.498C145.148 328.328 147.442 330.622 150.272 330.622Z" fill="#688C3C"/>
<ellipse cx="61.6486" cy="290.496" rx="15.5411" ry="15.5411" transform="rotate(-3.90244 61.6486 290.496)" fill="#F0D1D1"/>
<path d="M25.3918 254.105L46.2138 248.5C48.1507 247.979 49.882 249.836 49.2261 251.732L47.0944 257.893L47.0126 264.413C46.9874 266.418 44.7293 267.579 43.0836 266.432L25.3918 254.105Z" fill="#D96892"/>
<path d="M26.361 252.582L38.0784 270.684C39.1683 272.368 37.9312 274.585 35.9258 274.542L29.4075 274.401L23.1769 276.322C21.26 276.913 19.4629 275.119 20.0499 273.201L26.361 252.582Z" fill="#D96892"/>
<path d="M26.1376 252.713L14.0304 270.556C12.9042 272.216 10.3801 271.94 9.63874 270.077L7.22888 264.018L3.03294 259.028C1.74207 257.493 2.69393 255.139 4.68911 254.933L26.1376 252.713Z" fill="#D96892"/>
<path d="M26.0941 253.636L5.24509 248.133C3.30567 247.621 2.72848 245.148 4.24081 243.83L9.1566 239.547L12.4725 233.934C13.4926 232.207 16.029 232.324 16.8856 234.138L26.0941 253.636Z" fill="#D96892"/>
<path d="M25.9987 254.778L42.8203 241.287C44.3851 240.032 43.9091 237.538 41.9922 236.948L35.7612 235.028L30.4524 231.243C28.8192 230.079 26.5486 231.215 26.5018 233.221L25.9987 254.778Z" fill="#D96892"/>
<ellipse cx="25.1061" cy="253.269" rx="9.05138" ry="9.05141" fill="#F6E972"/>
</svg>
