<svg width="390" height="844" viewBox="0 0 390 844" fill="none" xmlns="http://www.w3.org/2000/svg">
<g clip-path="url(#clip0_2354_7871)">
<rect width="390" height="844" fill="#5D639C"/>
<path d="M65 243.88L173.802 180.174L330.815 122.667L372.318 110.005L413.602 92.331L463.327 86V770.806H65V243.88Z" fill="#0A2424"/>
<path d="M1 313.797L77.2639 289.369L259.611 253.542L333.632 234H400V1285H1V313.797Z" fill="#1A494B"/>
<path opacity="0.29" d="M55.1524 388.601C57.8476 388.601 60.0325 387.302 60.0325 385.7C60.0325 384.097 57.8476 382.798 55.1524 382.798C52.4571 382.798 50.2722 384.097 50.2722 385.7C50.2722 387.302 52.4571 388.601 55.1524 388.601Z" fill="#ADA663"/>
<path opacity="0.29" d="M175.134 381.184C177.829 381.184 180.014 380.299 180.014 379.206C180.014 378.113 177.829 377.228 175.134 377.228C172.438 377.228 170.253 378.113 170.253 379.206C170.253 380.299 172.438 381.184 175.134 381.184Z" fill="#ADA663"/>
<path opacity="0.29" d="M180.014 375.117C181.907 375.117 183.443 374.349 183.443 373.402C183.443 372.455 181.907 371.688 180.014 371.688C178.12 371.688 176.584 372.455 176.584 373.402C176.584 374.349 178.12 375.117 180.014 375.117Z" fill="#ADA663"/>
<path opacity="0.29" d="M186.213 379.865C187.305 379.865 188.191 379.334 188.191 378.678C188.191 378.023 187.305 377.491 186.213 377.491C185.12 377.491 184.234 378.023 184.234 378.678C184.234 379.334 185.12 379.865 186.213 379.865Z" fill="#ADA663"/>
<path opacity="0.29" d="M253.525 341.383C256.365 341.383 258.669 340.025 258.669 338.349C258.669 336.674 256.365 335.315 253.525 335.315C250.684 335.315 248.381 336.674 248.381 338.349C248.381 340.025 250.684 341.383 253.525 341.383Z" fill="#ADA663"/>
<path opacity="0.29" d="M128.442 409.674C131.283 409.674 133.586 408.316 133.586 406.64C133.586 404.965 131.283 403.606 128.442 403.606C125.601 403.606 123.298 404.965 123.298 406.64C123.298 408.316 125.601 409.674 128.442 409.674Z" fill="#ADA663"/>
<path opacity="0.29" d="M385.157 256.442C387.998 256.442 390.301 255.084 390.301 253.408C390.301 251.733 387.998 250.375 385.157 250.375C382.316 250.375 380.013 251.733 380.013 253.408C380.013 255.084 382.316 256.442 385.157 256.442Z" fill="#ADA663"/>
<path opacity="0.29" d="M213.692 267.257C216.533 267.257 218.836 265.899 218.836 264.224C218.836 262.548 216.533 261.19 213.692 261.19C210.851 261.19 208.548 262.548 208.548 264.224C208.548 265.899 210.851 267.257 213.692 267.257Z" fill="#ADA663"/>
<path opacity="0.54" d="M37.7421 382.798C44.3709 382.798 49.7446 381.145 49.7446 379.105C49.7446 377.066 44.3709 375.412 37.7421 375.412C31.1132 375.412 25.7395 377.066 25.7395 379.105C25.7395 381.145 31.1132 382.798 37.7421 382.798Z" fill="#ADA663"/>
<path opacity="0.29" d="M383.574 354.045C386.269 354.045 388.454 352.333 388.454 350.22C388.454 348.108 386.269 346.395 383.574 346.395C380.879 346.395 378.694 348.108 378.694 350.22C378.694 352.333 380.879 354.045 383.574 354.045Z" fill="#ADA663"/>
<path opacity="0.54" d="M316.394 398.067C319.162 398.067 321.406 397.181 321.406 396.088C321.406 394.996 319.162 394.11 316.394 394.11C313.626 394.11 311.382 394.996 311.382 396.088C311.382 397.181 313.626 398.067 316.394 398.067Z" fill="#ADA663"/>
<path opacity="0.54" d="M302.941 403.079C305.709 403.079 307.953 402.193 307.953 401.101C307.953 400.008 305.709 399.122 302.941 399.122C300.173 399.122 297.929 400.008 297.929 401.101C297.929 402.193 300.173 403.079 302.941 403.079Z" fill="#ADA663"/>
<path opacity="0.54" d="M303.469 394.11C306.237 394.11 308.481 393.224 308.481 392.132C308.481 391.039 306.237 390.153 303.469 390.153C300.701 390.153 298.457 391.039 298.457 392.132C298.457 393.224 300.701 394.11 303.469 394.11Z" fill="#ADA663"/>
<path opacity="0.54" d="M256.645 421.544C263.274 421.544 268.648 419.419 268.648 416.796C268.648 414.174 263.274 412.048 256.645 412.048C250.016 412.048 244.643 414.174 244.643 416.796C244.643 419.419 250.016 421.544 256.645 421.544Z" fill="#ADA663"/>
<path opacity="0.54" d="M53.8333 286.778C58.5682 286.778 62.4065 285.597 62.4065 284.14C62.4065 282.683 58.5682 281.502 53.8333 281.502C49.0984 281.502 45.26 282.683 45.26 284.14C45.26 285.597 49.0984 286.778 53.8333 286.778Z" fill="#ADA663"/>
<path opacity="0.54" d="M397.028 263.564C401.762 263.564 405.601 262.383 405.601 260.926C405.601 259.469 401.762 258.288 397.028 258.288C392.293 258.288 388.454 259.469 388.454 260.926C388.454 262.383 392.293 263.564 397.028 263.564Z" fill="#ADA663"/>
<path d="M239.365 321.862L241.624 323.469L244.951 322.584L243.296 325.154L244.753 327.32L241.468 327.294L239.055 329.512L238.675 326.933L235.719 326.142L238.77 324.569L239.365 321.862Z" fill="#698E57"/>
<path d="M286.012 380.656L288.27 382.264L291.598 381.378L289.943 383.948L291.4 386.114L288.115 386.089L285.701 388.306L285.322 385.728L282.365 384.937L285.417 383.364L286.012 380.656Z" fill="#698E57"/>
<path d="M138.024 410.729L140.283 412.336L143.61 411.451L141.955 414.021L143.412 416.187L140.127 416.161L137.714 418.379L137.334 415.8L134.377 415.01L137.429 413.437L138.024 410.729Z" fill="#698E57"/>
<path d="M29.386 305.507L31.6447 307.114L34.9722 306.229L33.317 308.799L34.774 310.965L31.4894 310.939L29.0757 313.157L28.6963 310.578L25.7395 309.787L28.7912 308.214L29.386 305.507Z" fill="#698E57"/>
<path d="M64.4705 399.681L66.7291 401.288L70.0567 400.403L68.4015 402.973L69.8585 405.139L66.5739 405.113L64.1602 407.331L63.7808 404.752L60.824 403.961L63.8756 402.388L64.4705 399.681Z" fill="#698E57"/>
<path d="M372.317 282.821L374.575 284.428L377.903 283.543L376.248 286.113L377.705 288.279L374.42 288.253L372.006 290.471L371.627 287.892L368.67 287.101L371.722 285.528L372.317 282.821Z" fill="#698E57"/>
<path d="M372.793 338.715C372.621 337.475 373.173 336.177 374.347 335.064C375.521 333.952 377.236 333.101 379.17 332.671C381.105 332.242 383.127 332.263 384.857 332.731C386.588 333.199 387.908 334.081 388.571 335.213C389.234 336.344 389.194 337.648 388.458 338.879C387.723 340.11 386.343 341.184 384.576 341.9C382.809 342.616 380.777 342.926 378.86 342.77C376.943 342.614 375.273 342.004 374.163 341.053L380.902 337.587L372.793 338.715Z" fill="#636C47"/>
<path d="M25.4509 401.363C25.509 400.112 24.8399 398.87 23.5689 397.87C22.298 396.87 20.5123 396.18 18.5463 395.93C16.5804 395.68 14.5689 395.886 12.8887 396.511C11.2085 397.135 9.97477 398.135 9.41855 399.323C8.86234 400.511 9.02179 401.805 9.86706 402.963C10.7123 404.122 12.1854 405.065 14.0105 405.616C15.8355 406.167 17.8874 406.288 19.7817 405.957C21.6761 405.626 23.2831 404.865 24.3017 403.817L17.2735 400.983L25.4509 401.363Z" fill="#636C47"/>
<path d="M248.698 267.941C248.789 266.629 247.838 265.289 246.023 264.174C244.209 263.059 241.655 262.244 238.841 261.882C236.026 261.52 233.144 261.636 230.733 262.209C228.323 262.781 226.55 263.77 225.746 264.991C224.942 266.212 225.163 267.58 226.366 268.841C227.57 270.101 229.674 271.166 232.285 271.837C234.896 272.509 237.834 272.739 240.55 272.486C243.265 272.233 245.571 271.514 247.037 270.463L236.987 267.131L248.698 267.941Z" fill="#636C47"/>
<ellipse cx="73.88" cy="185.793" rx="11.6629" ry="5.03008" fill="#C45C84"/>
<path d="M71.1071 182.012C73.6336 183.756 72.7411 188.981 69.7181 191.671C66.695 194.362 62.1962 195.129 59.6696 193.385C57.143 191.641 57.5455 188.047 60.5686 185.356C63.5916 182.666 68.5805 180.268 71.1071 182.012Z" fill="#C45C84"/>
<path d="M74.6761 181.773C71.9094 183.615 74.4325 189.02 77.5968 191.736C80.7611 194.453 85.5691 195.162 88.3358 193.32C91.1025 191.478 90.7802 187.782 87.6159 185.066C84.4515 182.35 77.4428 179.931 74.6761 181.773Z" fill="#C45C84"/>
<path d="M79.1903 186.613C79.4686 185.991 81.8259 185.809 84.0879 186.75C86.3499 187.691 87.8202 189.35 87.5419 189.972C87.2636 190.595 85.3956 190.505 83.1336 189.564C80.8716 188.623 78.912 187.235 79.1903 186.613Z" fill="#EF7BA2"/>
<path d="M68.0215 186.432C67.952 186.007 68.6732 185.202 69.6525 185.042C70.6318 184.882 71.5379 185.353 71.6073 185.778C71.6768 186.203 71.0451 186.713 70.0658 186.873C69.0865 187.033 68.091 186.858 68.0215 186.432Z" fill="#D9D9D9"/>
<path d="M71.4722 181.869C71.5369 182.176 71.0381 182.787 70.33 182.936C69.6219 183.085 68.9463 182.771 68.8816 182.464C68.817 182.156 69.2603 181.764 69.9684 181.615C70.6765 181.466 71.4076 181.561 71.4722 181.869Z" fill="#D9D9D9"/>
<path d="M83.823 187.842C83.7176 188.12 83.1176 188.3 82.4893 188.062C81.861 187.823 81.3934 187.288 81.4988 187.01C81.6042 186.732 82.2454 186.654 82.8737 186.892C83.502 187.131 83.9284 187.565 83.823 187.842Z" fill="#D9D9D9"/>
<path d="M88.1253 193.256C88.1253 194.657 79.3077 195.097 73.0912 195.097C66.8747 195.097 59.1906 194.426 59.1906 193.025C59.1906 191.624 66.8747 190.022 73.0912 190.022C79.3077 190.022 88.1253 191.854 88.1253 193.256Z" fill="#671430"/>
<path d="M84.741 192.226C84.741 193.308 78.0951 193.94 73.2596 193.94C68.424 193.94 62.1273 193.063 62.1273 191.981C62.1273 190.899 68.424 190.022 73.2596 190.022C78.0951 190.022 84.741 191.144 84.741 192.226Z" fill="#992049"/>
<path d="M74.9159 182.089C75.0886 181.095 76.9271 181.043 79.0828 181.418C80.9683 181.745 82.4158 182.806 82.2431 183.8C82.0705 184.794 80.6217 185.694 78.7362 185.367C76.8508 185.039 74.7432 183.083 74.9159 182.089Z" fill="#EF7BA2"/>
<path d="M70.5247 188.959C70.3812 189.836 71.4634 190.34 72.8402 190.565C74.0444 190.762 75.1696 190.234 75.313 189.358C75.4565 188.481 74.8167 187.364 73.6125 187.166C72.4083 186.969 70.6681 188.083 70.5247 188.959Z" fill="#EF7BA2"/>
<path d="M63.5308 186.517C63.7726 187.25 65.1627 187.087 66.7437 186.566C68.1264 186.11 69.0969 185.147 68.855 184.413C68.6132 183.68 67.421 183.158 66.0383 183.614C64.6556 184.069 63.2889 185.783 63.5308 186.517Z" fill="#EF7BA2"/>
<path d="M85.669 187.456C86.1174 186.742 87.2665 186.656 88.2356 187.265C89.2046 187.873 89.6267 188.945 89.1782 189.659C88.7298 190.373 88.0835 189.509 87.1145 188.901C86.1454 188.292 85.2206 188.17 85.669 187.456Z" fill="#D9D9D9"/>
<path d="M80.3793 183.566C80.5929 182.882 81.6514 182.603 82.7437 182.944C83.836 183.284 84.5483 184.115 84.3348 184.8C84.1213 185.484 83.1543 186.028 82.062 185.687C80.9698 185.346 80.1658 184.251 80.3793 183.566Z" fill="#D9D9D9"/>
<path d="M76.1757 184.842C76.2548 184.385 77.2773 183.389 78.2229 183.552C79.1685 183.716 79.679 184.977 79.5999 185.435C79.5208 185.892 78.7083 185.917 77.7627 185.753C76.8171 185.589 76.0966 185.3 76.1757 184.842Z" fill="#D9D9D9"/>
<path d="M71.6263 183.477C71.6379 182.876 72.5703 181.395 73.605 181.415C74.6397 181.435 75.8502 182.339 75.8385 182.94C75.8268 183.542 74.8124 183.69 73.7777 183.67C72.743 183.65 71.6146 184.078 71.6263 183.477Z" fill="#D9D9D9"/>
<path d="M66.2934 182.697C66.5134 183.256 66.058 184.855 65.0948 185.234C64.1316 185.612 62.245 185.443 62.0251 184.883C61.6266 184.48 63.7243 183.329 64.6495 182.834C65.6154 182.402 66.0735 182.137 66.2934 182.697Z" fill="#D9D9D9"/>
<path d="M62.0667 187.502C61.7324 186.933 60.9047 186.797 60.2181 187.2C59.5314 187.603 59.2457 188.392 59.58 188.961C59.9143 189.531 60.3247 188.985 61.0114 188.582C61.698 188.179 62.401 188.072 62.0667 187.502Z" fill="#D9D9D9"/>
<path d="M73.0578 189.98L75.0063 190.016L75.7868 194.719L73.1484 194.551L73.0578 189.98Z" fill="#280410"/>
<path d="M73.0586 189.981L71.11 190.016L70.5134 194.696L73.6576 194.518L73.0586 189.981Z" fill="#280410"/>
<path d="M73.0503 202.907L74.8904 203.678L75.8396 197.961L73.1545 197.961L73.0503 202.907Z" fill="#280410"/>
<path d="M73.0719 202.945L71.2091 203.582L70.4985 197.857L73.145 198.138L73.0719 202.945Z" fill="#280410"/>
<rect x="70.4972" y="193.316" width="5.3418" height="6.23196" rx="1.78058" fill="#280410"/>
<path d="M76.7594 188.318C76.8775 187.596 76.2327 186.323 75.2534 186.163C74.2741 186.003 73.2992 186.895 73.1811 187.617C73.0631 188.339 73.6496 189.126 74.6289 189.286C75.6082 189.446 76.6414 189.041 76.7594 188.318Z" fill="#D9D9D9"/>
<ellipse cx="103.93" cy="190.529" rx="8.7472" ry="3.77256" fill="#C45C84"/>
<path d="M101.85 187.693C103.745 189.001 103.076 192.92 100.808 194.938C98.5412 196.956 95.1671 197.531 93.2721 196.223C91.3772 194.915 91.6791 192.219 93.9464 190.201C96.2136 188.184 99.9553 186.385 101.85 187.693Z" fill="#C45C84"/>
<path d="M104.528 187.514C102.453 188.895 104.345 192.949 106.718 194.986C109.091 197.024 112.697 197.555 114.772 196.174C116.847 194.792 116.606 192.021 114.232 189.984C111.859 187.946 106.603 186.132 104.528 187.514Z" fill="#C45C84"/>
<path d="M107.913 191.144C108.122 190.677 109.89 190.54 111.586 191.246C113.283 191.952 114.386 193.196 114.177 193.663C113.968 194.13 112.567 194.062 110.871 193.357C109.174 192.651 107.704 191.61 107.913 191.144Z" fill="#EF7BA2"/>
<path d="M99.5368 191.009C99.4847 190.69 100.026 190.086 100.76 189.966C101.495 189.846 102.174 190.199 102.226 190.518C102.278 190.837 101.805 191.219 101.07 191.339C100.336 191.459 99.5889 191.328 99.5368 191.009Z" fill="#D9D9D9"/>
<path d="M102.124 187.585C102.173 187.816 101.798 188.274 101.267 188.386C100.736 188.497 100.23 188.262 100.181 188.032C100.133 187.801 100.465 187.507 100.996 187.395C101.527 187.284 102.076 187.355 102.124 187.585Z" fill="#D9D9D9"/>
<path d="M111.387 192.066C111.308 192.274 110.858 192.41 110.387 192.231C109.916 192.052 109.565 191.65 109.644 191.442C109.723 191.234 110.204 191.175 110.675 191.353C111.146 191.532 111.466 191.858 111.387 192.066Z" fill="#D9D9D9"/>
<path d="M114.615 196.126C114.615 197.177 108.002 197.507 103.339 197.507C98.677 197.507 92.9138 197.003 92.9138 195.952C92.9138 194.901 98.677 193.701 103.339 193.701C108.002 193.701 114.615 195.075 114.615 196.126Z" fill="#671430"/>
<path d="M112.075 195.353C112.075 196.165 107.091 196.639 103.464 196.639C99.8375 196.639 95.115 195.981 95.115 195.17C95.115 194.358 99.8375 193.701 103.464 193.701C107.091 193.701 112.075 194.542 112.075 195.353Z" fill="#992049"/>
<path d="M104.707 187.75C104.836 187.005 106.215 186.966 107.832 187.247C109.246 187.492 110.332 188.288 110.202 189.034C110.073 189.779 108.986 190.454 107.572 190.209C106.158 189.963 104.577 188.496 104.707 187.75Z" fill="#EF7BA2"/>
<path d="M101.413 192.904C101.305 193.561 102.117 193.939 103.149 194.108C104.053 194.256 104.897 193.86 105.004 193.202C105.112 192.545 104.632 191.707 103.729 191.559C102.826 191.411 101.52 192.246 101.413 192.904Z" fill="#EF7BA2"/>
<path d="M96.1689 191.072C96.3503 191.622 97.3929 191.5 98.5786 191.109C99.6156 190.767 100.343 190.045 100.162 189.494C99.9807 188.944 99.0866 188.553 98.0495 188.895C97.0125 189.236 95.9875 190.522 96.1689 191.072Z" fill="#EF7BA2"/>
<path d="M112.772 191.776C113.108 191.24 113.97 191.176 114.697 191.632C115.424 192.088 115.74 192.893 115.404 193.428C115.067 193.964 114.583 193.316 113.856 192.859C113.129 192.403 112.436 192.312 112.772 191.776Z" fill="#D9D9D9"/>
<path d="M108.805 188.859C108.965 188.345 109.759 188.136 110.578 188.392C111.397 188.647 111.931 189.271 111.771 189.784C111.611 190.297 110.886 190.705 110.067 190.449C109.247 190.194 108.644 189.372 108.805 188.859Z" fill="#D9D9D9"/>
<path d="M105.652 189.816C105.711 189.473 106.478 188.725 107.188 188.848C107.897 188.971 108.28 189.917 108.22 190.26C108.161 190.603 107.552 190.621 106.842 190.499C106.133 190.376 105.593 190.159 105.652 189.816Z" fill="#D9D9D9"/>
<path d="M102.24 188.792C102.249 188.341 102.948 187.231 103.724 187.246C104.5 187.261 105.408 187.938 105.399 188.389C105.391 188.84 104.63 188.952 103.854 188.937C103.078 188.922 102.231 189.243 102.24 188.792Z" fill="#D9D9D9"/>
<path d="M98.2398 188.206C98.4048 188.626 98.0633 189.825 97.3409 190.109C96.6185 190.393 95.2035 190.266 95.0386 189.846C94.7397 189.544 96.313 188.681 97.0069 188.31C97.7313 187.985 98.0749 187.787 98.2398 188.206Z" fill="#D9D9D9"/>
<path d="M95.0707 191.811C94.82 191.384 94.1992 191.282 93.6842 191.584C93.1692 191.887 92.955 192.478 93.2057 192.905C93.4564 193.333 93.7642 192.923 94.2792 192.621C94.7942 192.319 95.3214 192.239 95.0707 191.811Z" fill="#D9D9D9"/>
<path d="M103.314 193.669L104.775 193.696L105.361 197.223L103.382 197.098L103.314 193.669Z" fill="#280410"/>
<path d="M103.314 193.669L101.852 193.696L101.405 197.206L103.763 197.073L103.314 193.669Z" fill="#280410"/>
<path d="M103.307 203.364L104.687 203.943L105.399 199.655L103.385 199.655L103.307 203.364Z" fill="#280410"/>
<path d="M103.323 203.392L101.926 203.871L101.393 199.577L103.378 199.787L103.323 203.392Z" fill="#280410"/>
<rect x="101.393" y="196.171" width="4.00635" height="4.67397" rx="1.33544" fill="#280410"/>
<path d="M106.09 192.423C106.179 191.881 105.695 190.926 104.961 190.806C104.226 190.686 103.495 191.356 103.407 191.897C103.318 192.439 103.758 193.029 104.493 193.149C105.227 193.269 106.002 192.965 106.09 192.423Z" fill="#D9D9D9"/>
<ellipse cx="133.04" cy="187.175" rx="10.934" ry="4.71572" fill="#C45C84"/>
<path d="M130.44 183.63C132.809 185.265 131.972 190.163 129.138 192.686C126.304 195.208 122.086 195.927 119.718 194.292C117.349 192.657 117.726 189.287 120.561 186.765C123.395 184.243 128.072 181.995 130.44 183.63Z" fill="#C45C84"/>
<path d="M133.789 183.406C131.195 185.133 133.56 190.2 136.527 192.747C139.493 195.293 144.001 195.958 146.595 194.231C149.188 192.504 148.886 189.04 145.92 186.493C142.953 183.946 136.382 181.679 133.789 183.406Z" fill="#C45C84"/>
<path d="M138.021 187.943C138.282 187.36 140.492 187.189 142.612 188.071C144.733 188.954 146.111 190.509 145.85 191.092C145.589 191.676 143.838 191.592 141.718 190.709C139.597 189.827 137.76 188.527 138.021 187.943Z" fill="#EF7BA2"/>
<path d="M127.547 187.774C127.482 187.376 128.158 186.621 129.077 186.471C129.995 186.321 130.844 186.762 130.909 187.161C130.974 187.559 130.382 188.037 129.464 188.187C128.546 188.338 127.613 188.173 127.547 187.774Z" fill="#D9D9D9"/>
<path d="M130.783 183.495C130.844 183.783 130.376 184.356 129.712 184.495C129.049 184.635 128.415 184.341 128.355 184.053C128.294 183.765 128.71 183.397 129.374 183.258C130.037 183.118 130.723 183.207 130.783 183.495Z" fill="#D9D9D9"/>
<path d="M142.361 189.096C142.262 189.356 141.7 189.525 141.111 189.301C140.522 189.078 140.083 188.576 140.182 188.315C140.281 188.055 140.882 187.981 141.471 188.205C142.06 188.428 142.46 188.835 142.361 189.096Z" fill="#D9D9D9"/>
<path d="M146.396 194.171C146.396 195.485 138.13 195.897 132.302 195.897C126.474 195.897 119.27 195.268 119.27 193.954C119.27 192.641 126.474 191.14 132.302 191.14C138.13 191.14 146.396 192.857 146.396 194.171Z" fill="#671430"/>
<path d="M143.222 193.205C143.222 194.219 136.991 194.812 132.458 194.812C127.924 194.812 122.021 193.99 122.021 192.976C122.021 191.962 127.924 191.14 132.458 191.14C136.991 191.14 143.222 192.191 143.222 193.205Z" fill="#992049"/>
<path d="M134.01 183.702C134.172 182.77 135.896 182.721 137.917 183.073C139.685 183.38 141.042 184.374 140.88 185.306C140.718 186.238 139.36 187.082 137.592 186.775C135.824 186.468 133.849 184.634 134.01 183.702Z" fill="#EF7BA2"/>
<path d="M129.892 190.143C129.758 190.965 130.772 191.437 132.063 191.648C133.192 191.833 134.247 191.338 134.381 190.516C134.516 189.694 133.916 188.647 132.787 188.462C131.658 188.277 130.027 189.321 129.892 190.143Z" fill="#EF7BA2"/>
<path d="M123.339 187.853C123.565 188.541 124.869 188.388 126.351 187.9C127.647 187.472 128.557 186.569 128.33 185.881C128.103 185.194 126.986 184.704 125.689 185.132C124.393 185.559 123.112 187.166 123.339 187.853Z" fill="#EF7BA2"/>
<path d="M144.091 188.733C144.512 188.063 145.589 187.983 146.497 188.553C147.406 189.124 147.801 190.129 147.381 190.798C146.961 191.468 146.355 190.658 145.446 190.087C144.538 189.517 143.671 189.403 144.091 188.733Z" fill="#D9D9D9"/>
<path d="M139.133 185.087C139.334 184.445 140.326 184.184 141.35 184.503C142.374 184.822 143.042 185.602 142.842 186.243C142.641 186.885 141.735 187.394 140.711 187.075C139.687 186.756 138.933 185.728 139.133 185.087Z" fill="#D9D9D9"/>
<path d="M135.192 186.283C135.266 185.854 136.225 184.92 137.111 185.074C137.998 185.227 138.477 186.41 138.402 186.838C138.328 187.267 137.567 187.29 136.68 187.137C135.794 186.984 135.118 186.712 135.192 186.283Z" fill="#D9D9D9"/>
<path d="M130.928 185.003C130.939 184.439 131.813 183.051 132.783 183.07C133.753 183.089 134.888 183.936 134.877 184.5C134.866 185.063 133.915 185.203 132.945 185.184C131.975 185.165 130.917 185.566 130.928 185.003Z" fill="#D9D9D9"/>
<path d="M125.926 184.272C126.132 184.797 125.705 186.296 124.802 186.65C123.899 187.005 122.131 186.846 121.925 186.322C121.551 185.944 123.518 184.864 124.385 184.401C125.29 183.996 125.72 183.747 125.926 184.272Z" fill="#D9D9D9"/>
<path d="M121.965 188.777C121.652 188.243 120.876 188.116 120.232 188.494C119.589 188.871 119.321 189.611 119.634 190.145C119.948 190.679 120.332 190.167 120.976 189.789C121.62 189.411 122.279 189.311 121.965 188.777Z" fill="#D9D9D9"/>
<path d="M132.269 191.1L134.096 191.133L134.828 195.542L132.354 195.386L132.269 191.1Z" fill="#280410"/>
<path d="M132.27 191.1L130.443 191.133L129.884 195.521L132.832 195.354L132.27 191.1Z" fill="#280410"/>
<path d="M132.262 203.219L133.987 203.942L134.877 198.582L132.36 198.582L132.262 203.219Z" fill="#280410"/>
<path d="M132.282 203.254L130.535 203.852L129.869 198.484L132.35 198.748L132.282 203.254Z" fill="#280410"/>
<rect x="129.871" y="194.228" width="5.00794" height="5.84248" rx="1.6693" fill="#280410"/>
<path d="M135.742 189.542C135.853 188.865 135.248 187.671 134.33 187.521C133.412 187.371 132.498 188.208 132.387 188.885C132.277 189.562 132.826 190.299 133.745 190.449C134.663 190.599 135.631 190.219 135.742 189.542Z" fill="#D9D9D9"/>
<ellipse cx="157.782" cy="194.149" rx="6.15038" ry="2.6526" fill="#C45C84"/>
<path d="M156.319 192.155C157.652 193.074 157.181 195.83 155.587 197.249C153.993 198.667 151.62 199.072 150.288 198.152C148.956 197.233 149.168 195.337 150.762 193.918C152.356 192.5 154.987 191.235 156.319 192.155Z" fill="#C45C84"/>
<path d="M158.195 192.025C156.74 192.994 158.067 195.837 159.731 197.266C161.396 198.695 163.925 199.068 165.381 198.099C166.836 197.13 166.667 195.186 165.002 193.757C163.337 192.328 159.65 191.056 158.195 192.025Z" fill="#C45C84"/>
<path d="M160.57 194.571C160.716 194.243 161.956 194.148 163.146 194.643C164.336 195.138 165.11 196.01 164.963 196.338C164.817 196.665 163.834 196.618 162.644 196.123C161.454 195.628 160.423 194.898 160.57 194.571Z" fill="#EF7BA2"/>
<path d="M154.691 194.486C154.655 194.262 155.035 193.837 155.551 193.753C156.068 193.669 156.546 193.917 156.582 194.141C156.619 194.365 156.286 194.634 155.769 194.719C155.253 194.803 154.728 194.711 154.691 194.486Z" fill="#D9D9D9"/>
<path d="M156.512 192.079C156.546 192.241 156.283 192.563 155.909 192.641C155.536 192.72 155.18 192.555 155.145 192.393C155.111 192.231 155.345 192.024 155.719 191.945C156.092 191.867 156.477 191.917 156.512 192.079Z" fill="#D9D9D9"/>
<path d="M163.025 195.229C162.97 195.376 162.653 195.471 162.322 195.345C161.99 195.219 161.744 194.937 161.799 194.791C161.855 194.644 162.193 194.603 162.524 194.728C162.856 194.854 163.081 195.083 163.025 195.229Z" fill="#D9D9D9"/>
<path d="M165.295 198.084C165.295 198.823 160.645 199.055 157.366 199.055C154.088 199.055 150.036 198.702 150.036 197.963C150.036 197.224 154.088 196.379 157.366 196.379C160.645 196.379 165.295 197.345 165.295 198.084Z" fill="#671430"/>
<path d="M163.509 197.541C163.509 198.112 160.004 198.445 157.454 198.445C154.904 198.445 151.583 197.983 151.583 197.412C151.583 196.842 154.904 196.379 157.454 196.379C160.004 196.379 163.509 196.971 163.509 197.541Z" fill="#992049"/>
<path d="M158.326 192.195C158.417 191.671 159.387 191.644 160.524 191.841C161.518 192.014 162.281 192.574 162.19 193.098C162.099 193.622 161.335 194.096 160.341 193.924C159.346 193.751 158.235 192.719 158.326 192.195Z" fill="#EF7BA2"/>
<path d="M156.011 195.818C155.935 196.281 156.506 196.546 157.232 196.665C157.867 196.769 158.46 196.491 158.536 196.028C158.611 195.566 158.274 194.977 157.639 194.873C157.004 194.769 156.086 195.356 156.011 195.818Z" fill="#EF7BA2"/>
<path d="M152.325 194.531C152.453 194.918 153.186 194.832 154.019 194.557C154.749 194.317 155.26 193.809 155.133 193.422C155.005 193.035 154.377 192.76 153.647 193C152.918 193.24 152.198 194.144 152.325 194.531Z" fill="#EF7BA2"/>
<path d="M163.997 195.025C164.234 194.649 164.84 194.603 165.351 194.924C165.862 195.245 166.084 195.81 165.848 196.187C165.611 196.564 165.27 196.108 164.759 195.787C164.248 195.466 163.761 195.402 163.997 195.025Z" fill="#D9D9D9"/>
<path d="M161.209 192.974C161.321 192.613 161.879 192.466 162.455 192.646C163.031 192.826 163.407 193.264 163.294 193.625C163.182 193.986 162.672 194.273 162.096 194.093C161.52 193.913 161.096 193.335 161.209 192.974Z" fill="#D9D9D9"/>
<path d="M158.992 193.647C159.034 193.406 159.573 192.881 160.072 192.967C160.57 193.053 160.84 193.718 160.798 193.959C160.756 194.201 160.328 194.214 159.829 194.127C159.33 194.041 158.95 193.888 158.992 193.647Z" fill="#D9D9D9"/>
<path d="M156.595 192.928C156.601 192.611 157.092 191.83 157.638 191.84C158.184 191.851 158.822 192.328 158.816 192.645C158.81 192.962 158.275 193.04 157.729 193.03C157.183 193.019 156.588 193.245 156.595 192.928Z" fill="#D9D9D9"/>
<path d="M153.779 192.516C153.895 192.811 153.654 193.654 153.147 193.854C152.639 194.053 151.644 193.964 151.528 193.669C151.318 193.456 152.424 192.849 152.912 192.588C153.421 192.36 153.663 192.221 153.779 192.516Z" fill="#D9D9D9"/>
<path d="M151.552 195.05C151.376 194.75 150.939 194.679 150.577 194.891C150.215 195.103 150.065 195.519 150.241 195.82C150.417 196.12 150.634 195.832 150.996 195.62C151.358 195.407 151.729 195.351 151.552 195.05Z" fill="#D9D9D9"/>
<path d="M157.348 196.357L158.375 196.376L158.787 198.856L157.395 198.768L157.348 196.357Z" fill="#280410"/>
<path d="M157.349 196.357L156.322 196.375L156.007 198.843L157.665 198.75L157.349 196.357Z" fill="#280410"/>
<path d="M157.344 203.174L158.314 203.581L158.815 200.566L157.399 200.566L157.344 203.174Z" fill="#280410"/>
<path d="M157.354 203.194L156.372 203.53L155.997 200.511L157.392 200.659L157.354 203.194Z" fill="#280410"/>
<rect x="155.999" y="198.116" width="2.81697" height="3.28641" rx="0.938981" fill="#280410"/>
<path d="M159.302 195.48C159.364 195.099 159.024 194.428 158.508 194.344C157.991 194.259 157.477 194.73 157.415 195.111C157.353 195.491 157.662 195.906 158.178 195.991C158.695 196.075 159.24 195.861 159.302 195.48Z" fill="#D9D9D9"/>
<ellipse cx="55.0631" cy="196.335" rx="4.61278" ry="1.98944" fill="#C45C84"/>
<path d="M53.9672 194.839C54.9665 195.529 54.6135 197.596 53.4179 198.66C52.2222 199.724 50.4429 200.027 49.4436 199.338C48.4444 198.648 48.6035 197.226 49.7992 196.162C50.9948 195.098 52.968 194.15 53.9672 194.839Z" fill="#C45C84"/>
<path d="M55.3749 194.742C54.2833 195.468 55.2788 197.601 56.5272 198.673C57.7757 199.744 59.6727 200.024 60.7642 199.297C61.8558 198.571 61.7286 197.113 60.4802 196.041C59.2317 194.969 56.4665 194.015 55.3749 194.742Z" fill="#C45C84"/>
<path d="M57.1559 196.652C57.2658 196.406 58.1958 196.334 59.0883 196.706C59.9807 197.077 60.5608 197.731 60.451 197.977C60.3412 198.222 59.6042 198.187 58.7117 197.816C57.8193 197.444 57.0461 196.897 57.1559 196.652Z" fill="#EF7BA2"/>
<path d="M52.7458 196.588C52.7183 196.42 53.0036 196.102 53.3909 196.038C53.7782 195.975 54.1366 196.161 54.1641 196.33C54.1916 196.498 53.9417 196.699 53.5544 196.763C53.1671 196.826 52.7733 196.757 52.7458 196.588Z" fill="#D9D9D9"/>
<path d="M54.1118 194.783C54.1374 194.905 53.9401 195.146 53.6601 195.205C53.38 195.264 53.1128 195.14 53.0872 195.019C53.0617 194.897 53.237 194.742 53.5171 194.683C53.7971 194.624 54.0863 194.662 54.1118 194.783Z" fill="#D9D9D9"/>
<path d="M58.9971 197.146C58.9555 197.255 58.7182 197.327 58.4697 197.232C58.2212 197.138 58.0362 196.926 58.0779 196.816C58.1196 196.707 58.3732 196.675 58.6217 196.77C58.8702 196.864 59.0388 197.036 58.9971 197.146Z" fill="#D9D9D9"/>
<path d="M60.6981 199.287C60.6981 199.841 57.2106 200.015 54.752 200.015C52.2933 200.015 49.2542 199.75 49.2542 199.195C49.2542 198.641 52.2933 198.008 54.752 198.008C57.2106 198.008 60.6981 198.732 60.6981 199.287Z" fill="#671430"/>
<path d="M59.3588 198.879C59.3588 199.307 56.7303 199.557 54.8178 199.557C52.9053 199.557 50.4149 199.21 50.4149 198.782C50.4149 198.355 52.9053 198.008 54.8178 198.008C56.7303 198.008 59.3588 198.451 59.3588 198.879Z" fill="#992049"/>
<path d="M55.4724 194.87C55.5407 194.477 56.2678 194.457 57.1204 194.605C57.8661 194.734 58.4386 195.154 58.3703 195.547C58.302 195.94 57.729 196.296 56.9833 196.167C56.2376 196.037 55.4041 195.263 55.4724 194.87Z" fill="#EF7BA2"/>
<path d="M53.7361 197.587C53.6793 197.934 54.1073 198.133 54.6519 198.222C55.1281 198.3 55.5732 198.091 55.6299 197.745C55.6866 197.398 55.4336 196.956 54.9573 196.878C54.4811 196.8 53.7928 197.24 53.7361 197.587Z" fill="#EF7BA2"/>
<path d="M50.9715 196.621C51.0672 196.911 51.617 196.847 52.2423 196.641C52.7891 196.461 53.173 196.08 53.0773 195.789C52.9816 195.499 52.5101 195.293 51.9633 195.473C51.4164 195.653 50.8759 196.331 50.9715 196.621Z" fill="#EF7BA2"/>
<path d="M59.726 196.993C59.9034 196.71 60.3578 196.676 60.7411 196.917C61.1244 197.158 61.2913 197.582 61.1139 197.864C60.9366 198.147 60.681 197.805 60.2977 197.564C59.9144 197.323 59.5487 197.275 59.726 196.993Z" fill="#D9D9D9"/>
<path d="M57.6348 195.454C57.7192 195.184 58.1379 195.073 58.5699 195.208C59.0019 195.343 59.2837 195.672 59.1992 195.942C59.1148 196.213 58.7323 196.428 58.3003 196.293C57.8683 196.158 57.5504 195.725 57.6348 195.454Z" fill="#D9D9D9"/>
<path d="M55.9718 195.959C56.0031 195.778 56.4075 195.384 56.7815 195.449C57.1554 195.513 57.3574 196.012 57.3261 196.193C57.2948 196.374 56.9734 196.384 56.5995 196.319C56.2255 196.254 55.9405 196.14 55.9718 195.959Z" fill="#D9D9D9"/>
<path d="M54.1738 195.419C54.1784 195.181 54.5472 194.596 54.9564 194.604C55.3656 194.612 55.8444 194.969 55.8398 195.207C55.8352 195.445 55.434 195.503 55.0247 195.496C54.6155 195.488 54.1692 195.657 54.1738 195.419Z" fill="#D9D9D9"/>
<path d="M52.0618 195.111C52.1488 195.332 51.9687 195.964 51.5878 196.114C51.2068 196.264 50.4607 196.197 50.3737 195.975C50.2161 195.816 51.0457 195.361 51.4116 195.165C51.7937 194.994 51.9748 194.889 52.0618 195.111Z" fill="#D9D9D9"/>
<path d="M50.3919 197.011C50.2597 196.786 49.9324 196.732 49.6608 196.891C49.3892 197.051 49.2762 197.363 49.4084 197.588C49.5406 197.813 49.7029 197.597 49.9745 197.438C50.2461 197.279 50.5241 197.236 50.3919 197.011Z" fill="#D9D9D9"/>
<path d="M54.7379 197.991L55.5086 198.005L55.8172 199.865L54.7737 199.799L54.7379 197.991Z" fill="#280410"/>
<path d="M54.739 197.991L53.9683 198.005L53.7323 199.856L54.9759 199.786L54.739 197.991Z" fill="#280410"/>
<path d="M54.7354 203.104L55.4632 203.409L55.8386 201.147L54.7766 201.147L54.7354 203.104Z" fill="#280410"/>
<path d="M54.7432 203.119L54.0064 203.371L53.7254 201.106L54.7721 201.217L54.7432 203.119Z" fill="#280410"/>
<rect x="53.7272" y="199.311" width="2.11272" height="2.46479" rx="0.704234" fill="#280410"/>
<path d="M56.2033 197.333C56.25 197.048 55.995 196.544 55.6077 196.481C55.2203 196.418 54.8347 196.771 54.7881 197.056C54.7414 197.342 54.9733 197.653 55.3606 197.716C55.748 197.78 56.1566 197.619 56.2033 197.333Z" fill="#D9D9D9"/>
<ellipse cx="174.561" cy="196.071" rx="4.61278" ry="1.98944" fill="#C45C84"/>
<path d="M173.465 194.576C174.465 195.265 174.112 197.332 172.916 198.396C171.72 199.46 169.941 199.764 168.942 199.074C167.942 198.384 168.102 196.963 169.297 195.898C170.493 194.834 172.466 193.886 173.465 194.576Z" fill="#C45C84"/>
<path d="M174.873 194.478C173.781 195.205 174.777 197.337 176.025 198.409C177.274 199.481 179.171 199.76 180.262 199.034C181.354 198.307 181.227 196.849 179.978 195.777C178.73 194.706 175.965 193.751 174.873 194.478Z" fill="#C45C84"/>
<path d="M176.654 196.388C176.764 196.142 177.694 196.071 178.586 196.442C179.479 196.813 180.059 197.468 179.949 197.713C179.839 197.959 179.102 197.923 178.21 197.552C177.317 197.181 176.544 196.633 176.654 196.388Z" fill="#EF7BA2"/>
<path d="M172.244 196.325C172.217 196.157 172.502 195.838 172.889 195.775C173.276 195.711 173.635 195.898 173.662 196.066C173.69 196.234 173.44 196.436 173.053 196.499C172.665 196.562 172.271 196.493 172.244 196.325Z" fill="#D9D9D9"/>
<path d="M173.61 194.519C173.636 194.641 173.438 194.882 173.158 194.941C172.878 195 172.611 194.876 172.585 194.754C172.56 194.633 172.735 194.478 173.015 194.419C173.295 194.36 173.584 194.397 173.61 194.519Z" fill="#D9D9D9"/>
<path d="M178.495 196.882C178.453 196.992 178.216 197.063 177.968 196.969C177.719 196.874 177.534 196.663 177.576 196.553C177.618 196.443 177.871 196.412 178.12 196.506C178.368 196.6 178.537 196.772 178.495 196.882Z" fill="#D9D9D9"/>
<path d="M180.196 199.023C180.196 199.577 176.709 199.751 174.25 199.751C171.791 199.751 168.752 199.486 168.752 198.932C168.752 198.377 171.791 197.744 174.25 197.744C176.709 197.744 180.196 198.469 180.196 199.023Z" fill="#671430"/>
<path d="M178.857 198.616C178.857 199.043 176.228 199.293 174.316 199.293C172.403 199.293 169.913 198.947 169.913 198.519C169.913 198.091 172.403 197.744 174.316 197.744C176.228 197.744 178.857 198.188 178.857 198.616Z" fill="#992049"/>
<path d="M174.97 194.606C175.039 194.213 175.766 194.192 176.618 194.341C177.364 194.47 177.937 194.89 177.868 195.283C177.8 195.676 177.227 196.032 176.481 195.902C175.736 195.773 174.902 194.999 174.97 194.606Z" fill="#EF7BA2"/>
<path d="M173.234 197.323C173.177 197.67 173.605 197.869 174.15 197.959C174.626 198.036 175.071 197.828 175.128 197.481C175.185 197.134 174.932 196.692 174.455 196.614C173.979 196.536 173.291 196.977 173.234 197.323Z" fill="#EF7BA2"/>
<path d="M170.47 196.358C170.565 196.648 171.115 196.583 171.74 196.377C172.287 196.197 172.671 195.816 172.575 195.526C172.48 195.236 172.008 195.029 171.461 195.209C170.915 195.39 170.374 196.068 170.47 196.358Z" fill="#EF7BA2"/>
<path d="M179.224 196.729C179.402 196.447 179.856 196.413 180.239 196.653C180.623 196.894 180.789 197.318 180.612 197.6C180.435 197.883 180.179 197.541 179.796 197.3C179.413 197.06 179.047 197.012 179.224 196.729Z" fill="#D9D9D9"/>
<path d="M177.133 195.191C177.217 194.92 177.636 194.81 178.068 194.944C178.5 195.079 178.782 195.408 178.697 195.679C178.613 195.949 178.23 196.164 177.798 196.03C177.366 195.895 177.048 195.461 177.133 195.191Z" fill="#D9D9D9"/>
<path d="M175.47 195.695C175.501 195.514 175.906 195.12 176.28 195.185C176.654 195.25 176.856 195.749 176.824 195.93C176.793 196.11 176.472 196.12 176.098 196.055C175.724 195.991 175.439 195.876 175.47 195.695Z" fill="#D9D9D9"/>
<path d="M173.672 195.155C173.676 194.918 174.045 194.332 174.454 194.34C174.864 194.348 175.342 194.705 175.338 194.943C175.333 195.181 174.932 195.24 174.523 195.232C174.113 195.224 173.667 195.393 173.672 195.155Z" fill="#D9D9D9"/>
<path d="M171.56 194.847C171.647 195.068 171.467 195.7 171.086 195.85C170.705 196 169.959 195.933 169.872 195.711C169.714 195.552 170.544 195.097 170.91 194.901C171.292 194.73 171.473 194.625 171.56 194.847Z" fill="#D9D9D9"/>
<path d="M169.89 196.747C169.758 196.522 169.431 196.468 169.159 196.628C168.887 196.787 168.774 197.099 168.907 197.324C169.039 197.55 169.201 197.334 169.473 197.174C169.744 197.015 170.022 196.973 169.89 196.747Z" fill="#D9D9D9"/>
<path d="M174.236 197.727L175.007 197.741L175.316 199.601L174.272 199.535L174.236 197.727Z" fill="#280410"/>
<path d="M174.237 197.727L173.466 197.741L173.231 199.592L174.474 199.522L174.237 197.727Z" fill="#280410"/>
<path d="M174.233 202.84L174.961 203.145L175.337 200.884L174.275 200.884L174.233 202.84Z" fill="#280410"/>
<path d="M174.241 202.855L173.505 203.107L173.224 200.843L174.27 200.954L174.241 202.855Z" fill="#280410"/>
<rect x="173.225" y="199.046" width="2.11272" height="2.46479" rx="0.704234" fill="#280410"/>
<path d="M175.701 197.07C175.748 196.784 175.493 196.281 175.106 196.217C174.718 196.154 174.333 196.507 174.286 196.793C174.24 197.078 174.471 197.389 174.859 197.453C175.246 197.516 175.655 197.355 175.701 197.07Z" fill="#D9D9D9"/>
<path d="M65.0879 252.241C65.0863 251.088 66.067 250.178 67.2167 250.266L104.882 253.136C105.912 253.215 106.709 254.073 106.71 255.106L106.795 307.996C106.796 309.192 105.745 310.116 104.559 309.961L66.8786 305.015C65.8949 304.886 65.159 304.049 65.1576 303.056L65.0879 252.241Z" fill="#896D5B"/>
<path d="M65.0879 252.241C65.0863 251.088 66.067 250.178 67.2167 250.266L104.882 253.136C105.912 253.215 106.709 254.073 106.71 255.106L106.795 307.996C106.796 309.192 105.745 310.116 104.559 309.961L66.8786 305.015C65.8949 304.886 65.159 304.049 65.1576 303.056L65.0879 252.241Z" fill="#896D5B"/>
<path d="M65.0879 252.241C65.0863 251.088 66.067 250.178 67.2167 250.266L104.882 253.136C105.912 253.215 106.709 254.073 106.71 255.106L106.795 307.996C106.796 309.192 105.745 310.116 104.559 309.961L66.8786 305.015C65.8949 304.886 65.159 304.049 65.1576 303.056L65.0879 252.241Z" fill="#40091C"/>
<path d="M66.1822 253.839C66.1806 252.679 67.1731 251.767 68.3292 251.865L104.988 255C106.012 255.088 106.798 255.944 106.798 256.972L106.798 308C106.798 309.195 105.747 310.117 104.562 309.961L67.9709 305.159C66.9872 305.03 66.2513 304.192 66.2499 303.2L66.1822 253.839Z" fill="#896D5B"/>
<path d="M66.1822 253.839C66.1806 252.679 67.1731 251.767 68.3292 251.865L104.988 255C106.012 255.088 106.798 255.944 106.798 256.972L106.798 308C106.798 309.195 105.747 310.117 104.562 309.961L67.9709 305.159C66.9872 305.03 66.2513 304.192 66.2499 303.2L66.1822 253.839Z" fill="#896D5B"/>
<path d="M66.1822 253.839C66.1806 252.679 67.1731 251.767 68.3292 251.865L104.988 255C106.012 255.088 106.798 255.944 106.798 256.972L106.798 308C106.798 309.195 105.747 310.117 104.562 309.961L67.9709 305.159C66.9872 305.03 66.2513 304.192 66.2499 303.2L66.1822 253.839Z" fill="#64102C"/>
<path d="M148.336 253.078L158.03 255.452L153.282 324.697H148.534L148.336 253.078Z" fill="#781637"/>
<path d="M70.1386 256.648C70.1381 255.481 71.1415 254.568 72.3026 254.677L104.974 257.756C105.99 257.852 106.766 258.704 106.767 259.725L106.796 307.984C106.797 309.185 105.737 310.109 104.548 309.946L71.8664 305.453C70.8873 305.319 70.1577 304.482 70.1573 303.494L70.1386 256.648Z" fill="#40091C"/>
<path d="M118.473 360.772C116.376 369.921 22.816 366.13 11.524 363.541C0.231976 360.953 -1.01067 328.573 1.08651 319.423C3.18369 310.273 133.824 318.879 145.116 321.467C156.408 324.055 120.57 351.622 118.473 360.772Z" fill="black" fill-opacity="0.2"/>
<path d="M71.4387 257.939C71.4389 256.769 72.4487 255.855 73.6129 255.971L104.421 259.034C105.433 259.134 106.204 259.986 106.204 261.002L106.204 308.175C106.204 309.377 105.139 310.302 103.948 310.134L73.1318 305.774C72.1558 305.636 71.4303 304.8 71.4305 303.814L71.4387 257.939Z" fill="#280410"/>
<path d="M119.253 256.822C119.253 256.288 119.675 255.851 120.208 255.833L148.105 254.893C148.664 254.874 149.127 255.322 149.127 255.882V324.061C149.127 324.555 148.763 324.973 148.273 325.041L120.377 328.895C119.783 328.977 119.253 328.515 119.253 327.915V256.822Z" fill="#671430"/>
<path d="M65.2859 302.341L103.445 308.265L103.034 313.717L65.2859 307.494L65.2859 302.341Z" fill="#781637"/>
<path d="M57.1293 295.021L61.4819 288.294L65.4387 324.895L57.1293 327.863V295.021Z" fill="#64102C"/>
<rect x="144.577" y="291.459" width="3.36336" height="9.89223" rx="0.989223" fill="#280410"/>
<rect x="144.973" y="291.459" width="3.36336" height="9.89223" rx="0.989223" fill="#C45C84"/>
<path d="M64.4496 249.912L67.8129 250.487V306.496L64.4496 304.772V249.912Z" fill="#781637"/>
<path d="M65.3398 309.265L99.468 313.915L99.468 331.127L65.3398 324.895L65.3398 309.265Z" fill="#781637"/>
<path d="M64.4897 304.022L102.649 309.947L102.238 315.399L64.4897 309.176L64.4897 304.022Z" fill="#992049"/>
<ellipse cx="147.742" cy="295.911" rx="1.97845" ry="2.27521" fill="#280410"/>
<ellipse cx="148.138" cy="295.911" rx="1.97845" ry="2.27521" fill="#C45C84"/>
<ellipse cx="148.039" cy="295.91" rx="1.08814" ry="1.28599" fill="#280410"/>
<path d="M104.71 292.251L102.708 299.314L97.7857 299.967L104.71 292.251Z" fill="#992049"/>
<path d="M61.4818 249.912L65.4387 250.209V324.895L61.4818 325.192V249.912Z" fill="#64102C"/>
<path d="M97.7865 299.967L108.074 301.352L108.173 334.985L97.8854 335.876L97.7865 299.967Z" fill="#781637"/>
<path d="M97.8847 335.876L108.142 334.144L108.142 337.953L97.8847 335.876Z" fill="#781637"/>
<path d="M47.8911 293.438L57.229 294.823V327.863L47.8911 326.28V293.438Z" fill="#781637"/>
<path d="M103.963 292.491L110.068 294.127L108.075 301.352L102.019 299.746L103.963 292.491Z" fill="#992049"/>
<rect x="152.886" y="255.452" width="9.69438" height="69.2456" fill="#671430"/>
<path d="M115.889 231.314L116.198 243.977H114.999L115.889 231.314Z" fill="#44372E"/>
<path d="M170.14 287.297L162.581 288.492L162.581 286.613L170.14 287.297Z" fill="#992049"/>
<rect x="109.731" y="253.679" width="60.3751" height="3.88633" transform="rotate(-2 109.731 253.679)" fill="#992049"/>
<path d="M103.522 258.204L101.447 252.88L105.792 253.309L103.522 258.204Z" fill="#781637"/>
<rect x="116.483" y="243.84" width="47.087" height="9.89223" transform="rotate(-2 116.483 243.84)" fill="#781637"/>
<rect x="60.9937" y="239.391" width="42.2781" height="10.4622" transform="rotate(5 60.9937 239.391)" fill="#64102C"/>
<path d="M110.467 254.023L110.529 243.282L112.608 243.269L110.467 254.023Z" fill="#5F4D41"/>
<path d="M169.75 240.741L170.562 251.384L164.61 250.096L169.75 240.741Z" fill="#DDAB8A"/>
<path d="M170.118 252.139L169.467 239.773L176.935 241.802L170.118 252.139Z" fill="#DDAB8A"/>
<path d="M61.4233 249.897L57.5822 240.289L61.3483 240.26L61.4233 249.897Z" fill="#896D5B"/>
<path d="M163.372 252.287L163.372 242.394H169.109L163.372 252.287Z" fill="#896D5B"/>
<path d="M110.548 253.671L112.436 242.856L118.887 243.982L110.548 253.671Z" fill="#896D5B"/>
<rect x="164.636" y="250.059" width="5.58229" height="1.58276" transform="rotate(4.86458 164.636 250.059)" fill="#DDAB8A"/>
<path d="M168.26 252.092L164.285 250.702L164.942 249.499L168.26 252.092Z" fill="#DDAB8A"/>
<path d="M116.512 250.953L118.732 242.104L122.12 243.757L116.512 250.953Z" fill="#DDAB8A"/>
<path d="M57.5403 240.101L61.4616 249.995L53.075 249.17L57.5403 240.101Z" fill="#DDAB8A"/>
<path d="M53.0736 249.22L50.1059 239.723L57.624 240.119L53.0736 249.22Z" fill="#DDAB8A"/>
<rect x="100.26" y="242.997" width="5.93534" height="9.98685" transform="rotate(-2 100.26 242.997)" fill="#DDAB8A"/>
<rect x="125.757" y="240.016" width="4.15474" height="15.832" transform="rotate(46.775 125.757 240.016)" fill="#DDAB8A"/>
<rect x="103.623" y="253.078" width="6.33102" height="4.74827" fill="#781637"/>
<path d="M118.917 241.91L115.641 253.909L111.755 252.079L118.917 241.91Z" fill="#DDAB8A"/>
<path d="M100.854 242.229L110.504 242.565L110.504 253.869L100.556 253.375L100.854 242.229Z" fill="#DDAB8A"/>
<path d="M101.266 252.978L109.888 253.207L109.559 253.671L101.266 252.978Z" fill="#DDAB8A"/>
<rect x="69.5936" y="216.476" width="3.5612" height="5.73749" fill="#64102C"/>
<path d="M50.3038 219.345L115.88 221.598L115.707 231.548L50.127 230.403L50.3038 219.345Z" fill="#64102C"/>
<path d="M110.547 243.383L110.547 253.869L109.558 253.77L110.547 243.383Z" fill="#DDAB8A"/>
<path d="M50.0066 239.822L116.297 242.498L116.268 244.075L50.0066 239.822Z" fill="#A3496B"/>
<path d="M159.323 242.513L116.091 244.072L116.063 242.495L159.323 242.513Z" fill="#C45C84"/>
<rect x="115.101" y="221.368" width="61.4756" height="10.3083" transform="rotate(-1.2 115.101 221.368)" fill="#992049"/>
<rect x="164.163" y="251.099" width="5.93534" height="0.989223" fill="#DDAB8A"/>
<path d="M164.809 249.817L165.296 251.377L163.937 251.199L164.809 249.817Z" fill="#DDAB8A"/>
<path d="M164.46 250.308L165.574 252.089H163.346L164.46 250.308Z" fill="#DDAB8A"/>
<rect x="111.735" y="252.089" width="5.3418" height="1.7806" fill="#DDAB8A"/>
<path d="M111.734 252.089L113.105 253.869H110.364L111.734 252.089Z" fill="#DDAB8A"/>
<rect x="103.425" y="257.826" width="6.52887" height="35.8099" fill="#781637"/>
<path d="M109.954 255.946L119.253 257.059V334.589L108.173 337.953L109.954 255.946Z" fill="#992049"/>
<rect x="162.581" y="252.089" width="7.71594" height="35.2163" fill="#992049"/>
<path d="M162.581 295.614L172.275 293.141V324.506L162.581 327.17V295.614Z" fill="#992049"/>
<path d="M152.886 324.613L162.58 323.324L162.58 327.191L152.886 324.613Z" fill="#671430"/>
<rect x="114.9" y="231.314" width="1.18707" height="12.4642" fill="#A3496B"/>
<rect x="114.9" y="222.808" width="1.18707" height="8.50731" fill="#64102C"/>
<path d="M108.075 301.352L97.8158 299.96L99.9632 297.592L108.075 301.352Z" fill="#992049"/>
<rect x="115.84" y="231.375" width="60.8499" height="12.1656" transform="rotate(-1.2 115.84 231.375)" fill="#C45C84"/>
<path d="M104.71 292.251L102.708 299.314L97.7857 299.967L104.71 292.251Z" fill="#992049"/>
<path d="M103.963 292.491L110.068 294.127L108.075 301.352L102.019 299.746L103.963 292.491Z" fill="#992049"/>
<path d="M108.075 301.352L97.8158 299.96L99.9632 297.592L108.075 301.352Z" fill="#992049"/>
<path d="M104.71 292.251L102.708 299.314L97.7857 299.967L104.71 292.251Z" fill="#992049"/>
<path d="M103.963 292.491L110.068 294.127L108.075 301.352L102.019 299.746L103.963 292.491Z" fill="#992049"/>
<path d="M108.075 301.352L97.8158 299.96L99.9632 297.592L108.075 301.352Z" fill="#992049"/>
<path d="M47.9297 293.438L57.8219 293.636L57.2284 294.823L47.9297 293.438Z" fill="#992049"/>
<path d="M52.8764 287.404L57.4268 294.427L47.8313 293.438L52.8764 287.404Z" fill="#992049"/>
<path d="M103.433 293.624L109.941 292.668L109.956 294.533L103.433 293.624Z" fill="#781637"/>
<path d="M52.8752 287.404L61.4814 288.591L57.2277 294.823L50.9956 292.845L52.8752 287.404Z" fill="#992049"/>
<path d="M52.9748 249.121L61.4821 249.912V288.591L52.8759 287.404L52.9748 249.121Z" fill="#781637"/>
<path d="M162.581 288.492L170.297 287.206L172.275 293.141L162.581 295.614V288.492Z" fill="#992049"/>
<path d="M108.074 301.351L109.954 294.427L119.253 334.49L108.074 337.953V301.351Z" fill="#992049"/>
<rect x="103.425" y="257.826" width="6.52887" height="35.8099" fill="#781637"/>
<path d="M123.803 264.879C123.803 263.814 124.646 262.94 125.711 262.902L141.044 262.351C142.164 262.311 143.093 263.208 143.093 264.328L143.093 296.524C143.093 297.569 142.28 298.434 141.236 298.498L125.903 299.442C124.765 299.512 123.803 298.608 123.803 297.467L123.803 264.879Z" fill="#1E1E1E"/>
<path d="M123.803 264.879C123.803 263.814 124.646 262.94 125.711 262.902L141.044 262.351C142.164 262.311 143.093 263.208 143.093 264.328L143.093 296.524C143.093 297.569 142.28 298.434 141.236 298.498L125.903 299.442C124.765 299.512 123.803 298.608 123.803 297.467L123.803 264.879Z" fill="#1E1E1E"/>
<path d="M123.803 264.879C123.803 263.814 124.646 262.94 125.711 262.902L141.044 262.351C142.164 262.311 143.093 263.208 143.093 264.328L143.093 296.524C143.093 297.569 142.28 298.434 141.236 298.498L125.903 299.442C124.765 299.512 123.803 298.608 123.803 297.467L123.803 264.879Z" fill="#C45C84"/>
<path d="M124.397 264.879C124.397 263.814 125.24 262.94 126.304 262.902L141.637 262.351C142.757 262.311 143.687 263.208 143.687 264.328L143.687 296.524C143.687 297.569 142.873 298.434 141.83 298.498L126.497 299.442C125.359 299.512 124.397 298.608 124.397 297.467L124.397 264.879Z" fill="#1E1E1E"/>
<path d="M124.397 264.879C124.397 263.814 125.24 262.94 126.304 262.902L141.637 262.351C142.757 262.311 143.687 263.208 143.687 264.328L143.687 296.524C143.687 297.569 142.873 298.434 141.83 298.498L126.497 299.442C125.359 299.512 124.397 298.608 124.397 297.467L124.397 264.879Z" fill="#1E1E1E"/>
<path d="M124.397 264.879C124.397 263.814 125.24 262.94 126.304 262.902L141.637 262.351C142.757 262.311 143.687 263.208 143.687 264.328L143.687 296.524C143.687 297.569 142.873 298.434 141.83 298.498L126.497 299.442C125.359 299.512 124.397 298.608 124.397 297.467L124.397 264.879Z" fill="#280410"/>
<path d="M50.1183 228.558L116.076 231.394L115.639 243.917L50.1183 239.822L50.1183 228.558Z" fill="#A3496B"/>
<rect x="52.579" y="216.674" width="3.5612" height="4.15474" fill="#64102C"/>
<rect x="88.9824" y="216.872" width="3.5612" height="4.94611" fill="#64102C"/>
<rect x="108.767" y="217.07" width="3.5612" height="5.73749" fill="#64102C"/>
<rect x="129.936" y="216.476" width="3.5612" height="6.72671" fill="#992049"/>
<rect x="148.534" y="215.883" width="3.5612" height="6.52887" fill="#992049"/>
<rect x="166.34" y="214.696" width="5.3418" height="6.52887" fill="#992049"/>
<rect width="61.4756" height="3.81686" transform="matrix(-0.999482 -0.0321828 -0.0321828 0.999482 111.969 218.455)" fill="#40091C"/>
<rect x="119.648" y="218.257" width="61.4756" height="3.81686" transform="rotate(-1.84426 119.648 218.257)" fill="#64102C"/>
<path d="M109.42 203.518L178.06 202.822L184.589 218.947L109.42 222.804L109.42 203.518Z" fill="#64102C"/>
<path d="M116.075 203.419L47.4352 202.529L40.9063 218.653L116.075 222.51L116.075 203.419Z" fill="#40091C"/>
<rect x="40.8489" y="217.637" width="12.46" height="2.76982" rx="1.38491" transform="rotate(2 40.8489 217.637)" fill="#C45C84"/>
<rect x="55.5962" y="218.66" width="14.4251" height="2.76982" rx="1.38491" transform="rotate(1.5 55.5962 218.66)" fill="#C45C84"/>
<rect x="73.413" y="219.32" width="14.9143" height="2.76982" rx="1.38491" transform="rotate(1 73.413 219.32)" fill="#C45C84"/>
<rect x="91.3566" y="220.631" width="17.806" height="2.76982" rx="1.38491" fill="#C45C84"/>
<rect x="111.932" y="220.631" width="17.806" height="2.76982" rx="1.38491" fill="#C45C84"/>
<rect x="133.297" y="220.293" width="15.8276" height="2.76982" rx="1.38491" transform="rotate(-1 133.297 220.293)" fill="#C45C84"/>
<rect x="152.418" y="219.368" width="14.5287" height="2.76982" rx="1.38491" transform="rotate(-1.5 152.418 219.368)" fill="#C45C84"/>
<rect x="169.32" y="218.532" width="15.343" height="2.76982" rx="1.38491" transform="rotate(-2 169.32 218.532)" fill="#C45C84"/>
<rect x="50.6903" y="213.997" width="2.76982" height="6.67056" rx="1.38491" transform="rotate(2 50.6903 213.997)" fill="#C45C84"/>
<rect x="55.6501" y="214.264" width="2.76982" height="7.12057" rx="1.38491" transform="rotate(2 55.6501 214.264)" fill="#C45C84"/>
<rect x="51.0798" y="213.98" width="7.33459" height="2.76982" rx="1.38491" transform="rotate(2 51.0798 213.98)" fill="#C45C84"/>
<rect x="106.59" y="215.091" width="2.76982" height="8.30947" rx="1.38491" fill="#C45C84"/>
<rect x="111.735" y="215.091" width="2.76982" height="8.30947" rx="1.38491" fill="#C45C84"/>
<rect x="106.59" y="215.091" width="7.91378" height="2.76982" rx="1.38491" fill="#C45C84"/>
<rect x="127.091" y="214.127" width="2.76982" height="9.27106" rx="1.38491" transform="rotate(-1 127.091 214.127)" fill="#C45C84"/>
<rect x="133.229" y="214.125" width="2.76982" height="8.92398" rx="1.38491" transform="rotate(-1 133.229 214.125)" fill="#C45C84"/>
<rect x="127.132" y="214.182" width="8.89085" height="2.76982" rx="1.38491" transform="rotate(-1 127.132 214.182)" fill="#C45C84"/>
<rect x="146.245" y="213.349" width="2.76982" height="9.50649" rx="1.38491" transform="rotate(-1.5 146.245 213.349)" fill="#C45C84"/>
<rect x="152.293" y="213.384" width="2.76982" height="8.76799" rx="1.38491" transform="rotate(-1.5 152.293 213.384)" fill="#C45C84"/>
<rect x="146.396" y="213.314" width="8.58579" height="2.76982" rx="1.38491" transform="rotate(-1.5 146.396 213.314)" fill="#C45C84"/>
<rect x="163.928" y="212.479" width="2.76982" height="9.34217" rx="1.38491" transform="rotate(-2 163.928 212.479)" fill="#C45C84"/>
<rect x="169.079" y="212.292" width="2.76982" height="9.00267" rx="1.38491" transform="rotate(-2 169.079 212.292)" fill="#C45C84"/>
<rect x="163.922" y="212.39" width="7.94307" height="2.76982" rx="1.38491" transform="rotate(-2 163.922 212.39)" fill="#C45C84"/>
<rect x="67.7853" y="214.551" width="2.76982" height="7.20154" rx="1.38491" transform="rotate(1.5 67.7853 214.551)" fill="#C45C84"/>
<rect x="73.5505" y="214.299" width="2.76982" height="7.75659" rx="1.38491" transform="rotate(1.5 73.5505 214.299)" fill="#C45C84"/>
<path d="M67.7566 215.387C67.7766 214.623 68.4127 214.019 69.1773 214.039L74.8224 214.187C75.587 214.207 76.1906 214.843 76.1706 215.608C76.1506 216.372 75.5145 216.976 74.7499 216.956L69.1048 216.808C68.3402 216.788 67.7366 216.152 67.7566 215.387Z" fill="#C45C84"/>
<rect x="85.6792" y="214.268" width="2.76982" height="8.04737" rx="1.38491" transform="rotate(1 85.6792 214.268)" fill="#C45C84"/>
<rect x="91.4305" y="214.274" width="2.76982" height="9.08618" rx="1.38491" transform="rotate(1 91.4305 214.274)" fill="#C45C84"/>
<path d="M85.6937 215.603C85.7071 214.839 86.3378 214.23 87.1026 214.243L92.7662 214.342C93.5309 214.355 94.14 214.986 94.1267 215.751C94.1133 216.515 93.4826 217.125 92.7178 217.111L87.0543 217.012C86.2895 216.999 85.6804 216.368 85.6937 215.603Z" fill="#C45C84"/>
<ellipse cx="333.355" cy="218.802" rx="12.9588" ry="5.58918" fill="#C45C84"/>
<path d="M330.273 214.6C333.081 216.538 332.089 222.344 328.73 225.333C325.371 228.323 320.372 229.175 317.565 227.238C314.758 225.3 315.205 221.306 318.564 218.316C321.923 215.327 327.466 212.662 330.273 214.6Z" fill="#C45C84"/>
<path d="M334.24 214.334C331.166 216.381 333.969 222.387 337.485 225.405C341.001 228.423 346.343 229.211 349.418 227.164C352.492 225.118 352.134 221.012 348.618 217.993C345.102 214.975 337.314 212.288 334.24 214.334Z" fill="#C45C84"/>
<path d="M339.256 219.712C339.565 219.021 342.184 218.818 344.698 219.864C347.211 220.91 348.845 222.753 348.535 223.445C348.226 224.136 346.151 224.037 343.637 222.991C341.124 221.945 338.947 220.404 339.256 219.712Z" fill="#EF7BA2"/>
<path d="M326.845 219.512C326.768 219.04 327.569 218.145 328.658 217.967C329.746 217.789 330.752 218.312 330.83 218.785C330.907 219.257 330.205 219.824 329.117 220.002C328.029 220.179 326.923 219.984 326.845 219.512Z" fill="#D9D9D9"/>
<path d="M330.679 214.441C330.751 214.782 330.196 215.461 329.41 215.626C328.623 215.792 327.872 215.444 327.8 215.102C327.729 214.761 328.221 214.325 329.008 214.159C329.795 213.994 330.607 214.099 330.679 214.441Z" fill="#D9D9D9"/>
<path d="M344.402 221.079C344.285 221.387 343.619 221.587 342.92 221.322C342.222 221.057 341.703 220.462 341.82 220.154C341.937 219.845 342.649 219.758 343.348 220.023C344.046 220.288 344.519 220.77 344.402 221.079Z" fill="#D9D9D9"/>
<path d="M349.182 227.093C349.182 228.65 339.385 229.139 332.478 229.139C325.571 229.139 317.033 228.394 317.033 226.837C317.033 225.279 325.571 223.5 332.478 223.5C339.385 223.5 349.182 225.536 349.182 227.093Z" fill="#671430"/>
<path d="M345.423 225.949C345.423 227.151 338.039 227.853 332.666 227.853C327.293 227.853 320.297 226.879 320.297 225.677C320.297 224.475 327.293 223.5 332.666 223.5C338.039 223.5 345.423 224.747 345.423 225.949Z" fill="#992049"/>
<path d="M334.506 214.685C334.697 213.581 336.74 213.523 339.135 213.94C341.23 214.303 342.839 215.483 342.647 216.587C342.455 217.691 340.845 218.691 338.75 218.327C336.655 217.963 334.314 215.79 334.506 214.685Z" fill="#EF7BA2"/>
<path d="M329.627 222.32C329.467 223.294 330.67 223.853 332.2 224.104C333.537 224.323 334.788 223.736 334.947 222.762C335.107 221.788 334.396 220.546 333.058 220.327C331.72 220.108 329.786 221.345 329.627 222.32Z" fill="#EF7BA2"/>
<path d="M321.855 219.606C322.124 220.421 323.668 220.24 325.425 219.661C326.961 219.154 328.04 218.084 327.771 217.269C327.502 216.454 326.178 215.874 324.641 216.38C323.105 216.887 321.586 218.791 321.855 219.606Z" fill="#EF7BA2"/>
<path d="M346.453 220.649C346.951 219.856 348.228 219.76 349.304 220.436C350.381 221.112 350.85 222.304 350.352 223.097C349.854 223.891 349.135 222.93 348.059 222.254C346.982 221.578 345.954 221.443 346.453 220.649Z" fill="#D9D9D9"/>
<path d="M340.576 216.327C340.813 215.567 341.99 215.257 343.203 215.636C344.417 216.014 345.208 216.938 344.971 217.698C344.734 218.459 343.66 219.063 342.446 218.684C341.232 218.305 340.339 217.088 340.576 216.327Z" fill="#D9D9D9"/>
<path d="M335.905 217.745C335.993 217.237 337.129 216.13 338.18 216.311C339.23 216.493 339.798 217.895 339.71 218.403C339.622 218.911 338.719 218.939 337.668 218.757C336.618 218.575 335.817 218.253 335.905 217.745Z" fill="#D9D9D9"/>
<path d="M330.849 216.228C330.862 215.559 331.898 213.915 333.048 213.937C334.197 213.959 335.542 214.963 335.529 215.631C335.517 216.299 334.389 216.465 333.24 216.442C332.09 216.42 330.836 216.896 330.849 216.228Z" fill="#D9D9D9"/>
<path d="M324.927 215.361C325.171 215.983 324.665 217.759 323.595 218.18C322.525 218.6 320.429 218.412 320.184 217.79C319.741 217.343 322.072 216.063 323.1 215.514C324.173 215.033 324.682 214.739 324.927 215.361Z" fill="#D9D9D9"/>
<path d="M320.229 220.701C319.858 220.067 318.938 219.917 318.175 220.365C317.412 220.812 317.095 221.689 317.467 222.322C317.838 222.955 318.294 222.348 319.057 221.9C319.82 221.453 320.601 221.334 320.229 220.701Z" fill="#D9D9D9"/>
<path d="M332.441 223.454L334.606 223.493L335.473 228.719L332.542 228.533L332.441 223.454Z" fill="#280410"/>
<path d="M332.442 223.454L330.277 223.493L329.614 228.694L333.107 228.496L332.442 223.454Z" fill="#280410"/>
<path d="M332.432 237.818L334.477 238.675L335.531 232.322L332.548 232.322L332.432 237.818Z" fill="#280410"/>
<path d="M332.455 237.859L330.385 238.568L329.596 232.206L332.536 232.518L332.455 237.859Z" fill="#280410"/>
<rect x="329.596" y="227.161" width="5.93534" height="6.92465" rx="1.97846" fill="#280410"/>
<path d="M336.553 221.607C336.684 220.805 335.967 219.39 334.879 219.212C333.791 219.034 332.708 220.025 332.577 220.828C332.446 221.63 333.097 222.504 334.185 222.682C335.273 222.86 336.421 222.409 336.553 221.607Z" fill="#D9D9D9"/>
<path d="M332.751 234.517L335.645 240.171L333.074 239.938L332.751 234.517Z" fill="#0D3F41"/>
<path d="M335.066 235.047L335.239 240.488L333.201 239.82L335.066 235.047Z" fill="#0D3F41"/>
<path d="M330.249 233.798L334.473 239.365L332.202 239.525L330.249 233.798Z" fill="#0D3F41"/>
<path d="M327.412 233.015L333.09 238.117L330.541 238.784L327.412 233.015Z" fill="#0D3F41"/>
<ellipse cx="202.006" cy="305.872" rx="15.5506" ry="6.7068" fill="#C45C84"/>
<path d="M198.308 300.83C201.677 303.155 200.487 310.123 196.456 313.71C192.426 317.297 186.427 318.32 183.058 315.995C179.69 313.67 180.226 308.877 184.257 305.289C188.288 301.702 194.939 298.505 198.308 300.83Z" fill="#C45C84"/>
<path d="M203.051 300.5C199.371 302.95 202.727 310.14 206.936 313.753C211.145 317.366 217.54 318.309 221.22 315.859C224.9 313.408 224.471 308.493 220.262 304.88C216.053 301.267 206.731 298.05 203.051 300.5Z" fill="#C45C84"/>
<path d="M209.056 306.938C209.426 306.11 212.561 305.868 215.57 307.12C218.579 308.372 220.534 310.578 220.164 311.406C219.794 312.234 217.309 312.115 214.301 310.863C211.292 309.611 208.685 307.766 209.056 306.938Z" fill="#EF7BA2"/>
<path d="M194.194 306.724C194.101 306.157 195.063 305.083 196.369 304.87C197.675 304.656 198.883 305.285 198.975 305.851C199.068 306.418 198.226 307.098 196.92 307.311C195.614 307.525 194.287 307.291 194.194 306.724Z" fill="#D9D9D9"/>
<path d="M198.796 300.639C198.882 301.048 198.217 301.863 197.273 302.061C196.329 302.26 195.428 301.842 195.342 301.432C195.255 301.022 195.847 300.499 196.791 300.301C197.735 300.102 198.71 300.229 198.796 300.639Z" fill="#D9D9D9"/>
<path d="M215.263 308.604C215.122 308.974 214.322 309.214 213.485 308.896C212.647 308.578 212.023 307.864 212.164 307.494C212.305 307.123 213.159 307.018 213.997 307.336C214.835 307.654 215.403 308.233 215.263 308.604Z" fill="#D9D9D9"/>
<path d="M220.999 315.821C220.999 317.69 209.242 318.276 200.953 318.276C192.665 318.276 182.419 317.382 182.419 315.513C182.419 313.645 192.665 311.51 200.953 311.51C209.242 311.51 220.999 313.953 220.999 315.821Z" fill="#671430"/>
<path d="M216.488 314.448C216.488 315.89 207.627 316.733 201.18 316.733C194.732 316.733 186.337 315.564 186.337 314.122C186.337 312.679 194.732 311.51 201.18 311.51C207.627 311.51 216.488 313.006 216.488 314.448Z" fill="#992049"/>
<path d="M203.387 300.933C203.617 299.608 206.068 299.538 208.943 300.038C211.457 300.474 213.387 301.889 213.156 303.214C212.926 304.539 210.994 305.74 208.48 305.303C205.967 304.866 203.156 302.258 203.387 300.933Z" fill="#EF7BA2"/>
<path d="M197.532 310.093C197.341 311.262 198.784 311.934 200.619 312.234C202.225 312.497 203.725 311.793 203.916 310.624C204.108 309.455 203.255 307.965 201.649 307.703C200.043 307.44 197.723 308.924 197.532 310.093Z" fill="#EF7BA2"/>
<path d="M188.208 306.837C188.53 307.815 190.384 307.597 192.492 306.902C194.335 306.295 195.629 305.01 195.307 304.032C194.984 303.054 193.395 302.358 191.551 302.966C189.707 303.574 187.885 305.859 188.208 306.837Z" fill="#EF7BA2"/>
<path d="M217.724 308.089C218.322 307.136 219.854 307.022 221.146 307.833C222.438 308.644 223.001 310.074 222.403 311.026C221.805 311.978 220.944 310.826 219.652 310.015C218.36 309.204 217.127 309.041 217.724 308.089Z" fill="#D9D9D9"/>
<path d="M210.671 302.902C210.956 301.99 212.368 301.618 213.824 302.072C215.28 302.527 216.23 303.635 215.945 304.547C215.661 305.46 214.371 306.185 212.915 305.73C211.459 305.276 210.387 303.815 210.671 302.902Z" fill="#D9D9D9"/>
<path d="M205.066 304.604C205.172 303.994 206.535 302.665 207.796 302.883C209.057 303.101 209.737 304.783 209.632 305.393C209.526 306.003 208.443 306.036 207.182 305.818C205.921 305.6 204.961 305.213 205.066 304.604Z" fill="#D9D9D9"/>
<path d="M199 302.783C199.016 301.982 200.259 300.008 201.639 300.035C203.018 300.061 204.632 301.266 204.617 302.068C204.601 302.87 203.249 303.068 201.869 303.041C200.489 303.014 198.985 303.585 199 302.783Z" fill="#D9D9D9"/>
<path d="M191.891 301.743C192.184 302.489 191.577 304.621 190.293 305.126C189.008 305.63 186.493 305.404 186.2 304.658C185.668 304.121 188.465 302.586 189.699 301.927C190.987 301.35 191.598 300.996 191.891 301.743Z" fill="#D9D9D9"/>
<path d="M186.255 308.15C185.81 307.391 184.706 307.21 183.79 307.747C182.875 308.284 182.494 309.336 182.94 310.095C183.385 310.855 183.933 310.127 184.848 309.59C185.764 309.053 186.701 308.91 186.255 308.15Z" fill="#D9D9D9"/>
<path d="M200.909 311.455L203.507 311.502L204.548 317.773L201.03 317.55L200.909 311.455Z" fill="#280410"/>
<path d="M200.91 311.455L198.312 311.502L197.517 317.742L201.709 317.505L200.91 311.455Z" fill="#280410"/>
<path d="M200.9 328.69L203.353 329.718L204.619 322.095L201.039 322.095L200.9 328.69Z" fill="#280410"/>
<path d="M200.927 328.74L198.444 329.59L197.496 321.956L201.025 322.331L200.927 328.74Z" fill="#280410"/>
<rect x="197.495" y="315.902" width="7.1224" height="8.30931" rx="2.37411" fill="#280410"/>
<path d="M205.844 309.238C206.002 308.276 205.142 306.578 203.836 306.364C202.53 306.151 201.231 307.341 201.073 308.304C200.916 309.267 201.698 310.315 203.003 310.529C204.309 310.742 205.687 310.201 205.844 309.238Z" fill="#D9D9D9"/>
<path d="M201.281 324.729L204.753 331.513L201.668 331.234L201.281 324.729Z" fill="#0D3F41"/>
<path d="M204.06 325.365L204.267 331.894L201.822 331.093L204.06 325.365Z" fill="#0D3F41"/>
<path d="M198.28 323.866L203.349 330.547L200.623 330.738L198.28 323.866Z" fill="#0D3F41"/>
<path d="M194.874 322.926L201.688 329.048L198.629 329.849L194.874 322.926Z" fill="#0D3F41"/>
<ellipse cx="370.422" cy="310.894" rx="18.6607" ry="8.0481" fill="#C45C84"/>
<path d="M365.985 304.844C370.028 307.634 368.6 315.995 363.763 320.299C358.926 324.604 351.728 325.832 347.685 323.041C343.643 320.251 344.287 314.5 349.124 310.195C353.961 305.89 361.943 302.054 365.985 304.844Z" fill="#C45C84"/>
<path d="M371.677 304.448C367.262 307.388 371.289 316.016 376.339 320.351C381.39 324.687 389.064 325.818 393.48 322.878C397.896 319.938 397.381 314.04 392.331 309.704C387.28 305.369 376.093 301.508 371.677 304.448Z" fill="#C45C84"/>
<path d="M378.883 312.173C379.327 311.18 383.089 310.89 386.7 312.392C390.31 313.894 392.657 316.541 392.213 317.535C391.768 318.528 388.787 318.385 385.177 316.883C381.566 315.381 378.439 313.167 378.883 312.173Z" fill="#EF7BA2"/>
<path d="M361.049 311.918C360.937 311.238 362.091 309.949 363.658 309.693C365.225 309.437 366.675 310.19 366.786 310.871C366.897 311.551 365.886 312.367 364.32 312.623C362.753 312.879 361.16 312.598 361.049 311.918Z" fill="#D9D9D9"/>
<path d="M366.57 304.615C366.674 305.107 365.876 306.084 364.743 306.322C363.61 306.56 362.529 306.059 362.425 305.567C362.322 305.075 363.031 304.448 364.164 304.209C365.297 303.971 366.467 304.123 366.57 304.615Z" fill="#D9D9D9"/>
<path d="M386.331 314.173C386.162 314.617 385.202 314.905 384.197 314.524C383.192 314.142 382.444 313.285 382.612 312.841C382.781 312.397 383.807 312.271 384.812 312.652C385.817 313.034 386.5 313.729 386.331 314.173Z" fill="#D9D9D9"/>
<path d="M393.215 322.833C393.215 325.076 379.107 325.779 369.161 325.779C359.214 325.779 346.92 324.706 346.92 322.464C346.92 320.222 359.214 317.66 369.161 317.66C379.107 317.66 393.215 320.591 393.215 322.833Z" fill="#671430"/>
<path d="M387.8 321.186C387.8 322.916 377.167 323.928 369.43 323.928C361.693 323.928 351.618 322.525 351.618 320.794C351.618 319.063 361.693 317.66 369.43 317.66C377.167 317.66 387.8 319.455 387.8 321.186Z" fill="#992049"/>
<path d="M372.08 304.967C372.356 303.377 375.298 303.294 378.747 303.893C381.764 304.417 384.08 306.115 383.804 307.705C383.527 309.295 381.209 310.735 378.193 310.211C375.176 309.687 371.804 306.557 372.08 304.967Z" fill="#EF7BA2"/>
<path d="M365.054 315.96C364.824 317.363 366.556 318.168 368.759 318.529C370.685 318.844 372.486 318 372.715 316.597C372.945 315.194 371.921 313.406 369.994 313.091C368.068 312.776 365.283 314.557 365.054 315.96Z" fill="#EF7BA2"/>
<path d="M353.864 312.052C354.251 313.226 356.475 312.965 359.004 312.131C361.217 311.402 362.769 309.861 362.382 308.687C361.995 307.513 360.088 306.678 357.876 307.407C355.663 308.136 353.477 310.878 353.864 312.052Z" fill="#EF7BA2"/>
<path d="M389.285 313.554C390.003 312.411 391.841 312.274 393.392 313.247C394.942 314.221 395.617 315.936 394.9 317.079C394.182 318.222 393.148 316.839 391.598 315.865C390.047 314.892 388.568 314.697 389.285 313.554Z" fill="#D9D9D9"/>
<path d="M380.821 307.331C381.163 306.235 382.857 305.789 384.604 306.334C386.352 306.88 387.492 308.209 387.15 309.304C386.808 310.4 385.261 311.269 383.514 310.724C381.766 310.179 380.48 308.426 380.821 307.331Z" fill="#D9D9D9"/>
<path d="M374.095 309.372C374.222 308.64 375.858 307.046 377.371 307.308C378.884 307.57 379.701 309.588 379.574 310.32C379.447 311.051 378.147 311.091 376.635 310.829C375.122 310.568 373.969 310.104 374.095 309.372Z" fill="#D9D9D9"/>
<path d="M366.817 307.188C366.835 306.225 368.327 303.857 369.983 303.889C371.638 303.921 373.575 305.367 373.556 306.329C373.537 307.291 371.914 307.529 370.259 307.497C368.603 307.465 366.798 308.15 366.817 307.188Z" fill="#D9D9D9"/>
<path d="M358.284 305.939C358.636 306.835 357.908 309.393 356.366 309.999C354.825 310.604 351.807 310.333 351.455 309.438C350.817 308.793 354.174 306.951 355.654 306.16C357.199 305.468 357.932 305.044 358.284 305.939Z" fill="#D9D9D9"/>
<path d="M351.521 313.629C350.987 312.717 349.662 312.5 348.564 313.145C347.465 313.79 347.008 315.051 347.543 315.963C348.078 316.875 348.734 316.001 349.833 315.356C350.932 314.711 352.056 314.54 351.521 313.629Z" fill="#D9D9D9"/>
<path d="M369.107 317.593L372.225 317.65L373.474 325.175L369.252 324.907L369.107 317.593Z" fill="#280410"/>
<path d="M369.108 317.594L365.99 317.651L365.036 325.139L370.067 324.854L369.108 317.594Z" fill="#280410"/>
<path d="M369.095 338.276L372.039 339.51L373.558 330.362L369.262 330.362L369.095 338.276Z" fill="#280410"/>
<path d="M369.129 338.336L366.149 339.356L365.012 330.195L369.246 330.645L369.129 338.336Z" fill="#280410"/>
<rect x="365.01" y="322.931" width="8.54688" height="9.9711" rx="2.84892" fill="#280410"/>
<path d="M375.03 314.934C375.219 313.779 374.187 311.741 372.62 311.485C371.053 311.229 369.493 312.657 369.305 313.813C369.116 314.968 370.054 316.227 371.621 316.483C373.188 316.739 374.841 316.09 375.03 314.934Z" fill="#D9D9D9"/>
<ellipse cx="28.0566" cy="357.894" rx="18.6607" ry="8.0481" fill="#C45C84"/>
<path d="M23.6195 351.844C27.662 354.634 26.2341 362.995 21.3972 367.299C16.5603 371.604 9.36212 372.832 5.31961 370.041C1.2771 367.251 1.92107 361.5 6.75795 357.195C11.5948 352.89 19.577 349.054 23.6195 351.844Z" fill="#C45C84"/>
<path d="M29.3118 351.448C24.8959 354.388 28.9229 363.016 33.9734 367.351C39.024 371.687 46.698 372.818 51.1139 369.878C55.5298 366.938 55.0154 361.04 49.9648 356.704C44.9143 352.369 33.7277 348.508 29.3118 351.448Z" fill="#C45C84"/>
<path d="M36.5171 359.173C36.9613 358.18 40.7237 357.89 44.3341 359.392C47.9445 360.894 50.2912 363.541 49.847 364.535C49.4028 365.528 46.4213 365.385 42.8109 363.883C39.2005 362.381 36.0728 360.167 36.5171 359.173Z" fill="#EF7BA2"/>
<path d="M18.6827 358.917C18.5715 358.237 19.7255 356.948 21.2924 356.692C22.8593 356.436 24.3089 357.19 24.4201 357.87C24.5313 358.55 23.5206 359.366 21.9537 359.622C20.3868 359.878 18.7939 359.598 18.6827 358.917Z" fill="#D9D9D9"/>
<path d="M24.2043 351.614C24.3078 352.106 23.5097 353.083 22.3767 353.321C21.2438 353.56 20.1628 353.059 20.0594 352.567C19.9559 352.075 20.6652 351.447 21.7982 351.209C22.9312 350.971 24.1008 351.122 24.2043 351.614Z" fill="#D9D9D9"/>
<path d="M43.9651 361.173C43.7965 361.617 42.8366 361.905 41.8313 361.524C40.826 361.142 40.0778 360.285 40.2464 359.841C40.415 359.397 41.441 359.271 42.4463 359.652C43.4516 360.034 44.1338 360.729 43.9651 361.173Z" fill="#D9D9D9"/>
<path d="M50.8492 369.833C50.8492 372.076 36.741 372.779 26.7946 372.779C16.8483 372.779 4.55359 371.706 4.55359 369.464C4.55359 367.222 16.8483 364.66 26.7946 364.66C36.741 364.66 50.8492 367.591 50.8492 369.833Z" fill="#671430"/>
<path d="M45.4342 368.186C45.4342 369.916 34.8009 370.928 27.064 370.928C19.3272 370.928 9.25244 369.525 9.25244 367.794C9.25244 366.063 19.3272 364.66 27.064 364.66C34.8009 364.66 45.4342 366.455 45.4342 368.186Z" fill="#992049"/>
<path d="M29.7142 351.967C29.9905 350.377 32.9321 350.294 36.3813 350.893C39.398 351.417 41.7141 353.115 41.4378 354.705C41.1615 356.295 38.8434 357.735 35.8267 357.211C32.81 356.687 29.4379 353.557 29.7142 351.967Z" fill="#EF7BA2"/>
<path d="M22.6881 362.959C22.4585 364.362 24.19 365.168 26.3929 365.528C28.3196 365.844 30.1199 364.999 30.3495 363.597C30.579 362.194 29.5553 360.406 27.6286 360.091C25.7019 359.775 22.9176 361.557 22.6881 362.959Z" fill="#EF7BA2"/>
<path d="M11.4975 359.052C11.8845 360.226 14.1087 359.965 16.6382 359.131C18.8505 358.402 20.4033 356.861 20.0163 355.687C19.6293 354.513 17.7219 353.678 15.5095 354.407C13.2972 355.136 11.1105 357.878 11.4975 359.052Z" fill="#EF7BA2"/>
<path d="M46.9191 360.555C47.6366 359.412 49.4751 359.275 51.0255 360.248C52.576 361.221 53.2513 362.937 52.5339 364.08C51.8164 365.222 50.7823 363.839 49.2318 362.866C47.6813 361.892 46.2017 361.697 46.9191 360.555Z" fill="#D9D9D9"/>
<path d="M38.4554 354.331C38.797 353.235 40.4907 352.789 42.2384 353.334C43.986 353.88 45.1258 355.209 44.7842 356.304C44.4426 357.4 42.8954 358.269 41.1477 357.724C39.4001 357.179 38.1138 355.426 38.4554 354.331Z" fill="#D9D9D9"/>
<path d="M31.7295 356.373C31.856 355.641 33.4921 354.047 35.005 354.309C36.5179 354.57 37.3347 356.589 37.2082 357.32C37.0816 358.052 35.7816 358.091 34.2687 357.83C32.7558 357.568 31.6029 357.104 31.7295 356.373Z" fill="#D9D9D9"/>
<path d="M24.4505 354.188C24.4691 353.226 25.9609 350.857 27.6164 350.889C29.2719 350.922 31.2087 352.367 31.19 353.329C31.1714 354.292 29.5483 354.529 27.8928 354.497C26.2373 354.465 24.4318 355.15 24.4505 354.188Z" fill="#D9D9D9"/>
<path d="M15.9183 352.939C16.2702 353.835 15.5417 356.393 14.0005 356.999C12.4594 357.604 9.44093 357.333 9.08901 356.438C8.45145 355.793 11.8078 353.951 13.288 353.16C14.8335 352.468 15.5664 352.044 15.9183 352.939Z" fill="#D9D9D9"/>
<path d="M9.15564 360.628C8.62075 359.717 7.29649 359.5 6.19781 360.145C5.09913 360.789 4.64209 362.051 5.17698 362.962C5.71187 363.874 6.36842 363 7.4671 362.355C8.56577 361.711 9.69053 361.54 9.15564 360.628Z" fill="#D9D9D9"/>
<path d="M26.7412 364.593L29.859 364.65L31.1077 372.175L26.8863 371.907L26.7412 364.593Z" fill="#280410"/>
<path d="M26.7425 364.594L23.6247 364.65L22.6701 372.139L27.7009 371.854L26.7425 364.594Z" fill="#280410"/>
<path d="M26.7289 385.276L29.673 386.51L31.1917 377.362L26.8956 377.362L26.7289 385.276Z" fill="#280410"/>
<path d="M26.7636 385.336L23.7832 386.356L22.6462 377.195L26.8805 377.645L26.7636 385.336Z" fill="#280410"/>
<rect x="22.644" y="369.931" width="8.54688" height="9.9711" rx="2.84892" fill="#280410"/>
<path d="M32.6639 361.934C32.8528 360.778 31.8212 358.741 30.2543 358.485C28.6874 358.229 27.1275 359.657 26.9387 360.812C26.7498 361.967 27.6882 363.226 29.255 363.482C30.8219 363.738 32.475 363.089 32.6639 361.934Z" fill="#D9D9D9"/>
<path d="M33.2942 471.913L37.4611 480.054L33.7584 479.719L33.2942 471.913Z" fill="#0D3F41"/>
<path d="M36.6292 472.676L36.8783 480.511L33.9444 479.55L36.6292 472.676Z" fill="#0D3F41"/>
<path d="M29.6933 470.878L35.7758 478.895L32.5053 479.125L29.6933 470.878Z" fill="#0D3F41"/>
<path d="M25.6061 469.749L33.7825 477.096L30.112 478.058L25.6061 469.749Z" fill="#0D3F41"/>
<path d="M296.6 158.237L296.393 159.686L294.312 159.067L295.518 158.617L296.6 158.237Z" fill="#B9DCD9"/>
<path d="M296.394 159.685L296.316 160.533L295.42 159.854L294.313 159.067L296.394 159.685Z" fill="#CAEDEB"/>
<path d="M299.064 159.761L296.394 159.685L296.601 158.237L299.064 159.761Z" fill="#BDEDE9"/>
<path d="M299.064 159.76L296.316 160.533L296.394 159.685L299.064 159.76Z" fill="#E2F5F4"/>
<path d="M296.383 168.96L296.058 169.519L295.309 168.921L295.877 168.936L296.383 168.96Z" fill="#B9DCD9"/>
<path d="M296.059 169.519L295.886 169.853L295.632 169.426L295.309 168.92L296.059 169.519Z" fill="#CAEDEB"/>
<path d="M297.139 169.993L296.058 169.519L296.383 168.961L297.139 169.993Z" fill="#BDEDE9"/>
<path d="M297.139 169.992L295.886 169.853L296.059 169.519L297.139 169.992Z" fill="#E2F5F4"/>
<path d="M289.772 167.112L289.254 167.499L288.799 166.654L289.316 166.892L289.772 167.112Z" fill="#B9DCD9"/>
<path d="M289.255 167.499L288.965 167.739L288.899 167.246L288.8 166.654L289.255 167.499Z" fill="#CAEDEB"/>
<path d="M290.063 168.358L289.255 167.499L289.773 167.112L290.063 168.358Z" fill="#BDEDE9"/>
<path d="M290.063 168.359L288.964 167.739L289.254 167.499L290.063 168.359Z" fill="#E2F5F4"/>
<path d="M292.969 163.136L293.006 163.781L292.051 163.695L292.534 163.395L292.969 163.136Z" fill="#B9DCD9"/>
<path d="M293.006 163.782L293.046 164.156L292.599 163.94L292.051 163.695L293.006 163.782Z" fill="#CAEDEB"/>
<path d="M294.17 163.581L293.007 163.781L292.971 163.136L294.17 163.581Z" fill="#BDEDE9"/>
<path d="M294.169 163.581L293.046 164.155L293.006 163.781L294.169 163.581Z" fill="#E2F5F4"/>
<path d="M288.43 173.716L287 174.549L286.088 172.268L287.333 173.023L288.43 173.716Z" fill="#B9DCD9"/>
<path d="M286.999 174.549L286.192 175.075L286.166 173.803L286.088 172.268L286.999 174.549Z" fill="#CAEDEB"/>
<path d="M288.806 176.969L287 174.548L288.43 173.715L288.806 176.969Z" fill="#BDEDE9"/>
<path d="M288.807 176.97L286.193 175.074L287.001 174.548L288.807 176.97Z" fill="#E2F5F4"/>
<path d="M281.315 168.136L280.39 168.674L279.8 167.199L280.606 167.687L281.315 168.136Z" fill="#B9DCD9"/>
<path d="M280.388 168.675L279.866 169.015L279.85 168.192L279.799 167.2L280.388 168.675Z" fill="#CAEDEB"/>
<path d="M281.558 170.24L280.39 168.674L281.315 168.135L281.558 170.24Z" fill="#BDEDE9"/>
<path d="M281.559 170.24L279.869 169.014L280.391 168.674L281.559 170.24Z" fill="#E2F5F4"/>
<path d="M287.449 149.897L287.927 150.854L286.417 151.348L286.956 150.576L287.449 149.897Z" fill="#B9DCD9"/>
<path d="M287.928 150.855L288.234 151.398L287.412 151.362L286.418 151.349L287.928 150.855Z" fill="#CAEDEB"/>
<path d="M289.565 149.789L287.927 150.855L287.448 149.897L289.565 149.789Z" fill="#BDEDE9"/>
<path d="M289.565 149.788L288.234 151.396L287.928 150.854L289.565 149.788Z" fill="#E2F5F4"/>
<path d="M289.336 156.403L289.403 157.154L288.285 157.088L288.838 156.721L289.336 156.403Z" fill="#B9DCD9"/>
<path d="M289.402 157.155L289.462 157.59L288.933 157.354L288.284 157.089L289.402 157.155Z" fill="#CAEDEB"/>
<path d="M290.751 156.878L289.403 157.154L289.336 156.403L290.751 156.878Z" fill="#BDEDE9"/>
<path d="M290.751 156.878L289.463 157.589L289.402 157.154L290.751 156.878Z" fill="#E2F5F4"/>
<path d="M275.345 171.513L274.356 171.873L274.043 170.343L274.737 170.956L275.345 171.513Z" fill="#B9DCD9"/>
<path d="M274.357 171.872L273.793 172.11L273.92 171.312L274.044 170.342L274.357 171.872Z" fill="#CAEDEB"/>
<path d="M275.213 173.592L274.356 171.873L275.345 171.513L275.213 173.592Z" fill="#BDEDE9"/>
<path d="M275.214 173.592L273.793 172.111L274.357 171.873L275.214 173.592Z" fill="#E2F5F4"/>
<ellipse cx="284.731" cy="238.052" rx="20.3233" ry="11.4465" fill="#C45C84"/>
<path d="M279.931 229.422C284.326 233.398 282.773 245.314 277.514 251.449C272.255 257.584 264.428 259.333 260.032 255.357C255.637 251.38 256.337 243.183 261.596 237.048C266.856 230.913 275.535 225.445 279.931 229.422Z" fill="#C45C84"/>
<path d="M286.081 228.852C281.275 233.038 285.657 245.322 291.154 251.496C296.65 257.67 305.002 259.281 309.808 255.094C314.614 250.908 314.054 242.509 308.558 236.336C303.061 230.162 290.886 224.665 286.081 228.852Z" fill="#C45C84"/>
<path d="M293.922 239.851C294.406 238.437 298.5 238.023 302.429 240.162C306.359 242.301 308.913 246.071 308.429 247.486C307.946 248.9 304.701 248.697 300.772 246.558C296.843 244.419 293.439 241.266 293.922 239.851Z" fill="#EF7BA2"/>
<path d="M274.563 239.503C274.442 238.533 275.696 236.697 277.4 236.332C279.104 235.967 280.68 237.041 280.801 238.01C280.922 238.98 279.823 240.142 278.119 240.507C276.415 240.872 274.683 240.472 274.563 239.503Z" fill="#D9D9D9"/>
<path d="M280.564 229.095C280.676 229.796 279.808 231.188 278.577 231.528C277.345 231.867 276.169 231.153 276.057 230.452C275.944 229.751 276.716 228.857 277.947 228.517C279.179 228.177 280.451 228.394 280.564 229.095Z" fill="#D9D9D9"/>
<path d="M302.053 242.717C301.869 243.35 300.826 243.761 299.732 243.217C298.639 242.673 297.826 241.452 298.009 240.819C298.192 240.186 299.308 240.006 300.401 240.55C301.494 241.094 302.236 242.084 302.053 242.717Z" fill="#D9D9D9"/>
<path d="M309.539 254.953C309.539 258.127 294.22 259.123 283.419 259.123C272.619 259.123 259.268 257.604 259.268 254.43C259.268 251.256 272.619 247.63 283.419 247.63C294.22 247.63 309.539 251.779 309.539 254.953Z" fill="#671430"/>
<path d="M303.652 252.623C303.652 255.074 292.091 256.507 283.679 256.507C275.267 256.507 264.314 254.52 264.314 252.068C264.314 249.617 275.267 247.63 283.679 247.63C292.091 247.63 303.652 250.172 303.652 252.623Z" fill="#992049"/>
<path d="M286.557 229.598C286.857 227.331 290.056 227.213 293.806 228.067C297.086 228.814 299.605 231.233 299.304 233.5C299.004 235.766 296.483 237.818 293.203 237.072C289.923 236.325 286.256 231.864 286.557 229.598Z" fill="#EF7BA2"/>
<path d="M278.919 245.263C278.669 247.262 280.552 248.411 282.947 248.924C285.042 249.374 287 248.17 287.249 246.171C287.499 244.172 286.386 241.624 284.291 241.175C282.196 240.725 279.168 243.264 278.919 245.263Z" fill="#EF7BA2"/>
<path d="M266.749 239.694C267.17 241.367 269.588 240.995 272.339 239.807C274.744 238.767 276.433 236.571 276.012 234.898C275.591 233.225 273.517 232.035 271.112 233.074C268.706 234.114 266.328 238.022 266.749 239.694Z" fill="#EF7BA2"/>
<path d="M305.262 241.836C306.043 240.207 308.042 240.011 309.727 241.399C311.413 242.786 312.148 245.231 311.367 246.859C310.587 248.488 309.463 246.517 307.777 245.129C306.091 243.742 304.482 243.464 305.262 241.836Z" fill="#D9D9D9"/>
<path d="M296.061 232.966C296.432 231.405 298.274 230.77 300.174 231.546C302.074 232.323 303.314 234.218 302.942 235.779C302.571 237.34 300.888 238.579 298.988 237.802C297.088 237.026 295.689 234.527 296.061 232.966Z" fill="#D9D9D9"/>
<path d="M288.748 235.876C288.885 234.833 290.664 232.561 292.309 232.934C293.954 233.307 294.842 236.183 294.705 237.226C294.567 238.269 293.154 238.325 291.509 237.952C289.864 237.579 288.61 236.918 288.748 235.876Z" fill="#D9D9D9"/>
<path d="M280.832 232.762C280.853 231.391 282.475 228.015 284.275 228.061C286.075 228.107 288.181 230.167 288.161 231.538C288.14 232.909 286.375 233.248 284.575 233.202C282.775 233.157 280.812 234.133 280.832 232.762Z" fill="#D9D9D9"/>
<path d="M271.559 230.982C271.941 232.259 271.149 235.904 269.473 236.767C267.798 237.63 264.516 237.244 264.133 235.968C263.44 235.049 267.089 232.423 268.699 231.296C270.379 230.31 271.176 229.706 271.559 230.982Z" fill="#D9D9D9"/>
<path d="M264.204 241.941C263.622 240.642 262.183 240.333 260.988 241.252C259.793 242.171 259.296 243.969 259.878 245.268C260.459 246.567 261.173 245.321 262.368 244.403C263.563 243.484 264.786 243.24 264.204 241.941Z" fill="#D9D9D9"/>
<path d="M283.324 247.592L286.714 247.673L288.072 258.397L283.482 258.016L283.324 247.592Z" fill="#280410"/>
<path d="M283.325 247.592L279.935 247.672L278.897 258.344L283.465 257.612L283.325 247.592Z" fill="#280410"/>
<path d="M289.762 243.802C289.967 242.155 288.845 239.251 287.142 238.886C285.438 238.521 283.742 240.556 283.537 242.203C283.331 243.85 284.352 245.643 286.055 246.008C287.759 246.373 289.556 245.448 289.762 243.802Z" fill="#D9D9D9"/>
<ellipse cx="284.731" cy="238.052" rx="20.3233" ry="11.4465" fill="#C45C84"/>
<path d="M279.931 229.422C284.326 233.398 282.773 245.314 277.514 251.449C272.255 257.584 264.428 259.333 260.032 255.357C255.637 251.38 256.337 243.183 261.596 237.048C266.856 230.913 275.535 225.445 279.931 229.422Z" fill="#C45C84"/>
<path d="M298.432 229.95C302.828 233.926 301.275 245.841 296.016 251.976C290.756 258.111 282.93 259.861 278.534 255.884C274.139 251.908 274.839 243.711 280.098 237.576C285.357 231.441 294.037 225.973 298.432 229.95Z" fill="#C45C84"/>
<path d="M286.081 228.852C281.275 233.038 285.657 245.322 291.154 251.496C296.65 257.67 305.002 259.281 309.808 255.094C314.614 250.908 314.054 242.509 308.558 236.336C303.061 230.162 290.886 224.665 286.081 228.852Z" fill="#C45C84"/>
<path d="M309.539 255.057C309.539 258.365 294.22 259.404 283.419 259.404C272.619 259.404 259.268 257.82 259.268 254.512C259.268 251.203 272.619 251.895 283.419 251.895C294.22 251.895 309.539 251.749 309.539 255.057Z" fill="#671430"/>
<ellipse cx="285.085" cy="240.342" rx="11.8202" ry="8.50309" fill="black"/>
<path d="M263.255 225.698C263.156 225.469 263.385 225.236 263.616 225.332L273.828 229.586C273.965 229.642 274.032 229.796 273.983 229.935L273.685 230.764L273.171 231.838L272.564 232.773L271.886 233.676C271.871 233.697 271.853 233.715 271.833 233.73L270.882 234.455L269.919 235.097C269.907 235.105 269.894 235.112 269.881 235.118L268.025 235.969C267.884 236.033 267.718 235.97 267.656 235.827L263.255 225.698Z" fill="black"/>
<path d="M265.25 228.318C265.07 227.832 265.611 227.281 266.1 227.452L273.281 229.971C273.573 230.073 273.866 230.31 273.729 230.626L273.416 231.342L273.263 231.656L273.125 231.88C273.086 231.942 273.043 232.002 273.005 232.065L272.72 232.562L272.413 232.971L271.911 233.638C271.87 233.693 271.821 233.742 271.766 233.784L270.937 234.419L270.076 235.007C270.046 235.028 270.014 235.047 269.981 235.062L268.667 235.696C268.351 235.848 268.009 235.733 267.9 235.438L265.25 228.318Z" fill="#EF7BA2" fill-opacity="0.5"/>
<path d="M306.835 225.671C306.934 225.442 306.704 225.209 306.474 225.305L296.261 229.558C296.125 229.615 296.057 229.769 296.107 229.908L296.404 230.736L296.918 231.811L297.526 232.745L298.203 233.649C298.219 233.669 298.237 233.688 298.257 233.703L299.208 234.427L300.171 235.069C300.183 235.077 300.195 235.084 300.209 235.091L302.064 235.941C302.205 236.006 302.372 235.942 302.434 235.8L306.835 225.671Z" fill="black"/>
<path d="M304.839 228.29C305.02 227.804 304.479 227.253 303.99 227.424L296.809 229.943C296.517 230.046 296.223 230.282 296.361 230.598L296.674 231.314L296.827 231.628L296.965 231.852C297.004 231.914 297.047 231.974 297.085 232.037L297.37 232.534L297.677 232.943L298.178 233.61C298.22 233.665 298.269 233.714 298.323 233.756L299.153 234.391L300.014 234.979C300.044 235 300.076 235.019 300.109 235.035L301.422 235.668C301.738 235.82 302.08 235.705 302.19 235.41L304.839 228.29Z" fill="#EF7BA2" fill-opacity="0.5"/>
<path d="M281.887 239.698C281.758 240.488 280.217 240.892 279.071 240.704C277.925 240.517 276.733 239.664 276.862 238.875C276.991 238.085 278.394 237.658 279.54 237.846C280.686 238.034 282.017 238.909 281.887 239.698Z" fill="#D9D9D9"/>
<circle cx="279.338" cy="239.314" r="1.49505" fill="#280410"/>
<path d="M288.635 239.698C288.764 240.488 290.305 240.892 291.451 240.704C292.597 240.517 293.79 239.664 293.66 238.875C293.531 238.085 292.128 237.658 290.983 237.846C289.837 238.034 288.506 238.909 288.635 239.698Z" fill="#D9D9D9"/>
<circle cx="291.111" cy="239.314" r="1.49505" fill="#280410"/>
<ellipse cx="281.254" cy="236.371" rx="0.887685" ry="0.513923" transform="rotate(16.1777 281.254 236.371)" fill="#EAD1D0" fill-opacity="0.7"/>
<ellipse cx="291.298" cy="242.164" rx="1.21473" ry="0.607363" fill="#BA597E"/>
<path d="M285.181 242.732C285.152 242.755 285.111 242.755 285.082 242.732L284.174 242.001C284.116 241.954 284.149 241.86 284.223 241.86H286.04C286.114 241.86 286.148 241.954 286.089 242.001L285.181 242.732Z" fill="#EAD1D0" fill-opacity="0.7"/>
<ellipse cx="279.337" cy="242.164" rx="1.21473" ry="0.607363" fill="#BA597E"/>
<path d="M268.473 251.807C270.015 251.526 277.467 251.807 283.841 251.807C290.214 251.807 297.019 252.022 299.168 252.209C299.168 253.576 290.214 254.657 283.841 254.657C277.467 254.657 268.473 253.174 268.473 251.807Z" fill="#992049"/>
<ellipse cx="0.887685" cy="0.513923" rx="0.887685" ry="0.513923" transform="matrix(-0.960402 0.278618 0.278618 0.960402 289.826 235.67)" fill="#EAD1D0" fill-opacity="0.7"/>
<path d="M285.247 251.497L296.223 252.022L300.617 278.184L285.757 277.243L285.247 251.497Z" fill="black"/>
<path d="M285.247 251.497L274.272 251.697L270.912 278.055L285.698 276.247L285.247 251.497Z" fill="black"/>
<path d="M285.201 324.3L295.564 328.643L300.647 295.501L285.788 296.442L285.201 324.3Z" fill="black"/>
<path d="M285.316 324.51L274.825 328.101L270.942 295.63L285.728 297.438L285.316 324.51Z" fill="black"/>
<path d="M270.996 278.045C270.996 273.916 274.109 271.831 278.237 271.831H293.188C297.316 271.831 300.663 274.337 300.663 278.465V294.724C300.663 298.852 297.316 302.199 293.188 302.199H278.237C274.109 302.199 271.089 299.693 271.089 295.565L270.996 278.045Z" fill="black"/>
<rect x="292.44" y="275.875" width="16.8193" height="6.26051" rx="3.13026" transform="rotate(-45 292.44 275.875)" fill="black"/>
<rect width="16.8193" height="6.26051" rx="3.13026" transform="matrix(-0.707107 -0.707107 -0.707107 0.707107 278.391 275.782)" fill="black"/>
<rect width="16.8193" height="6.26051" rx="3.13026" transform="matrix(0 -1 -1 0 281.226 339.576)" fill="black"/>
<rect width="16.8193" height="6.26051" rx="3.13026" transform="matrix(0 -1 -1 0 296.457 339.576)" fill="black"/>
<rect x="274.779" y="315.001" width="21.6782" height="15.4177" rx="1.58276" fill="black"/>
<path d="M302.205 240.279C302.013 240.831 300.917 241.189 299.77 240.715C298.623 240.241 297.769 239.175 297.961 238.623C298.154 238.07 299.325 237.914 300.472 238.388C301.619 238.863 302.397 239.726 302.205 240.279Z" fill="#D9D9D9"/>
<path d="M297.076 238.177C297.391 236.2 300.748 236.097 304.684 236.842C308.126 237.493 310.769 239.604 310.454 241.581C310.139 243.558 307.493 245.349 304.051 244.698C300.608 244.046 296.76 240.154 297.076 238.177Z" fill="#EF7BA2"/>
<path d="M294.293 247.972C294.031 249.716 296.007 250.718 298.52 251.166C300.719 251.558 302.773 250.508 303.035 248.764C303.297 247.02 302.129 244.797 299.93 244.405C297.732 244.013 294.555 246.228 294.293 247.972Z" fill="#EF7BA2"/>
<path d="M283.47 229.213C283.333 230.124 285.595 230.866 288.401 231.366C290.855 231.804 293.025 231.451 293.162 230.54C293.298 229.629 291.819 228.313 289.365 227.876C286.911 227.438 283.606 228.302 283.47 229.213Z" fill="#EF7BA2"/>
<path d="M260.804 246.86C261.466 249.045 264.455 248.85 267.793 247.651C270.712 246.602 272.641 243.993 271.98 241.808C271.319 239.623 268.633 237.863 265.714 238.911C262.795 239.96 260.143 244.674 260.804 246.86Z" fill="#EF7BA2"/>
<path d="M305.574 239.51C306.393 238.089 308.491 237.918 310.26 239.128C312.03 240.339 312.8 242.472 311.982 243.892C311.163 245.313 309.983 243.593 308.213 242.383C306.444 241.173 304.756 240.931 305.574 239.51Z" fill="#D9D9D9"/>
<path d="M288.747 228.877C289.033 227.881 290.447 227.475 291.905 227.971C293.364 228.467 294.316 229.676 294.031 230.672C293.745 231.668 292.454 232.459 290.995 231.963C289.536 231.468 288.462 229.873 288.747 228.877Z" fill="#D9D9D9"/>
<path d="M292.261 249.218C292.406 248.308 294.273 246.326 295.999 246.651C297.726 246.977 298.658 249.486 298.513 250.396C298.369 251.305 296.885 251.354 295.159 251.029C293.432 250.704 292.117 250.127 292.261 249.218Z" fill="#D9D9D9"/>
<path d="M282.144 227.981C282.209 228.905 281.098 231.295 279.638 231.394C278.178 231.493 276.349 230.258 276.283 229.333C276.217 228.409 277.626 228.054 279.086 227.955C280.547 227.855 282.078 227.057 282.144 227.981Z" fill="#D9D9D9"/>
<path d="M265.492 249.245C265.593 248.066 267.679 245.525 269.591 245.577C271.503 245.629 274.491 247.376 274.39 248.555C274.715 249.587 270.278 250.066 268.333 250.252C266.371 250.295 265.391 250.425 265.492 249.245Z" fill="#D9D9D9"/>
<path d="M263.885 243.422C263.275 242.289 261.764 242.02 260.51 242.821C259.256 243.622 258.735 245.191 259.345 246.324C259.956 247.458 260.705 246.371 261.959 245.57C263.212 244.768 264.496 244.556 263.885 243.422Z" fill="#D9D9D9"/>
<path d="M307.518 247.454C307.734 246.017 306.556 243.484 304.768 243.166C302.98 242.847 301.2 244.622 300.985 246.059C300.769 247.496 301.84 249.06 303.628 249.379C305.416 249.697 307.303 248.89 307.518 247.454Z" fill="#D9D9D9"/>
<path d="M265.669 238.924C265.542 238.078 266.859 236.476 268.647 236.157C270.435 235.839 272.089 236.776 272.216 237.622C272.343 238.467 271.189 239.482 269.401 239.8C267.613 240.119 265.795 239.77 265.669 238.924Z" fill="#D9D9D9"/>
<path d="M302.256 238.344C302.374 238.955 301.463 240.17 300.17 240.466C298.878 240.762 297.644 240.139 297.526 239.528C297.408 238.916 298.217 238.136 299.51 237.84C300.803 237.543 302.138 237.732 302.256 238.344Z" fill="#D9D9D9"/>
<circle cx="279.312" cy="238.8" r="0.700804" fill="#D9D9D9"/>
<circle cx="291.085" cy="238.8" r="0.700804" fill="#D9D9D9"/>
<path d="M306.148 262.081C306.148 260.988 307.033 260.103 308.126 260.103H310.73C311.823 260.103 312.709 260.988 312.709 262.081V264.039H306.148V262.081Z" fill="#4F5066"/>
<rect x="304.533" y="264.039" width="9.6905" height="17.8669" rx="0.989223" fill="#4F5066"/>
<path d="M305.239 270.803H313.416V279.908C313.416 280.454 312.973 280.897 312.427 280.897H306.229C305.682 280.897 305.239 280.454 305.239 279.908V270.803Z" fill="#BD7E96"/>
<path d="M305.239 265.735C305.239 265.189 305.682 264.746 306.229 264.746H312.427C312.973 264.746 313.416 265.189 313.416 265.735V270.803H305.239V265.735Z" fill="#8687A0" fill-opacity="0.5"/>
<path d="M305.97 260.403C305.97 260.184 306.147 260.007 306.366 260.007H312.359C312.566 260.007 312.733 260.174 312.733 260.38C312.733 260.583 312.571 260.749 312.368 260.754L306.375 260.888C306.153 260.893 305.97 260.714 305.97 260.492V260.403Z" fill="#B69073"/>
<path d="M305.97 260.46H312.733V260.9C312.733 261.446 312.29 261.889 311.744 261.889H306.959C306.413 261.889 305.97 261.446 305.97 260.9V260.46Z" fill="#633A14"/>
<rect x="305.744" y="261.314" width="7.26787" height="1.4132" rx="0.706599" fill="#914E8D"/>
<rect x="306.552" y="261.415" width="1.61508" height="0.302828" rx="0.151414" fill="#D3E8E8"/>
<circle cx="312.254" cy="258.152" r="0.220129" transform="rotate(-47.2096 312.254 258.152)" fill="#BD7E96"/>
<path d="M312.444 258.105C312.454 258.163 312.441 258.215 312.415 258.219C312.388 258.224 312.416 258.17 312.406 258.112C312.396 258.053 312.351 258.012 312.378 258.007C312.404 258.002 312.434 258.046 312.444 258.105Z" fill="#D3E8E8"/>
<path d="M312.076 258.214C312.058 258.158 312.064 258.105 312.089 258.097C312.115 258.089 312.095 258.146 312.113 258.203C312.131 258.259 312.181 258.294 312.155 258.302C312.129 258.31 312.094 258.271 312.076 258.214Z" fill="#D3E8E8"/>
<circle cx="312.122" cy="258.055" r="0.0325954" transform="rotate(-47.2096 312.122 258.055)" fill="#D3E8E8"/>
<circle cx="305.516" cy="258.965" r="0.52032" transform="rotate(28.2804 305.516 258.965)" fill="#BD7E96"/>
<path d="M305.735 259.372C305.607 259.43 305.482 259.43 305.456 259.372C305.43 259.314 305.569 259.346 305.697 259.288C305.825 259.23 305.892 259.105 305.919 259.162C305.945 259.22 305.862 259.314 305.735 259.372Z" fill="#D3E8E8"/>
<path d="M305.267 258.594C305.386 258.519 305.509 258.502 305.543 258.556C305.577 258.61 305.435 258.597 305.316 258.672C305.197 258.747 305.147 258.88 305.113 258.827C305.08 258.773 305.148 258.669 305.267 258.594Z" fill="#D3E8E8"/>
<circle cx="305.658" cy="258.606" r="0.0765177" transform="rotate(28.2804 305.658 258.606)" fill="#D3E8E8"/>
<circle cx="306.292" cy="261.559" r="0.144668" fill="#D3E8E8"/>
<circle cx="313.022" cy="259.149" r="0.393498" transform="rotate(-47.2096 313.022 259.149)" fill="#BD7E96"/>
<path d="M313.362 259.067C313.381 259.171 313.357 259.263 313.31 259.271C313.263 259.28 313.312 259.183 313.294 259.079C313.276 258.974 313.196 258.9 313.244 258.892C313.291 258.884 313.344 258.962 313.362 259.067Z" fill="#D3E8E8"/>
<path d="M312.703 259.261C312.671 259.16 312.682 259.066 312.728 259.051C312.774 259.037 312.737 259.139 312.77 259.24C312.802 259.341 312.891 259.403 312.845 259.418C312.799 259.433 312.736 259.362 312.703 259.261Z" fill="#D3E8E8"/>
<circle cx="312.786" cy="258.978" r="0.0580088" transform="rotate(-47.2096 312.786 258.978)" fill="#D3E8E8"/>
<circle cx="306.057" cy="257.766" r="0.393498" transform="rotate(28.2804 306.057 257.766)" fill="#BD7E96"/>
<path d="M306.222 258.074C306.125 258.118 306.031 258.118 306.011 258.075C305.991 258.031 306.097 258.055 306.193 258.011C306.29 257.967 306.342 257.872 306.362 257.915C306.381 257.959 306.319 258.03 306.222 258.074Z" fill="#D3E8E8"/>
<path d="M305.868 257.486C305.958 257.429 306.051 257.416 306.077 257.457C306.103 257.497 305.995 257.488 305.905 257.545C305.815 257.601 305.777 257.702 305.751 257.662C305.726 257.621 305.778 257.542 305.868 257.486Z" fill="#D3E8E8"/>
<circle cx="306.163" cy="257.495" r="0.0580088" transform="rotate(28.2804 306.163 257.495)" fill="#D3E8E8"/>
<circle cx="307.003" cy="258.177" r="0.202265" transform="rotate(28.2804 307.003 258.177)" fill="#BD7E96"/>
<path d="M307.086 258.335C307.037 258.357 306.989 258.357 306.978 258.335C306.968 258.312 307.022 258.325 307.072 258.302C307.121 258.28 307.148 258.231 307.158 258.253C307.168 258.276 307.136 258.312 307.086 258.335Z" fill="#D3E8E8"/>
<path d="M306.906 258.033C306.952 258.004 307 257.997 307.013 258.018C307.026 258.039 306.971 258.034 306.925 258.063C306.879 258.092 306.859 258.144 306.846 258.123C306.833 258.102 306.86 258.062 306.906 258.033Z" fill="#D3E8E8"/>
<circle cx="307.058" cy="258.039" r="0.030352" transform="rotate(28.2804 307.058 258.039)" fill="#D3E8E8"/>
<circle cx="198.787" cy="196.561" r="3.42931" fill="#E28EAE"/>
<path d="M201.332 198.241C200.771 198.976 200.048 199.367 199.716 199.114C199.384 198.861 200.291 198.61 200.851 197.875C201.411 197.139 201.413 196.199 201.745 196.452C202.077 196.705 201.892 197.506 201.332 198.241Z" fill="#D3E8E8"/>
<path d="M196.183 195.193C196.639 194.388 197.302 193.903 197.665 194.109C198.029 194.314 197.164 194.686 196.709 195.49C196.253 196.295 196.379 197.227 196.016 197.021C195.653 196.816 195.728 195.997 196.183 195.193Z" fill="#D3E8E8"/>
<circle cx="198.485" cy="194.039" r="0.50431" fill="#D3E8E8"/>
<circle cx="25.4466" cy="209.457" r="1.55353" fill="#E28EAE"/>
<path d="M26.5988 210.218C26.345 210.551 26.0173 210.728 25.8669 210.614C25.7165 210.499 26.1273 210.385 26.3811 210.052C26.6349 209.719 26.6357 209.293 26.7861 209.408C26.9365 209.522 26.8526 209.885 26.5988 210.218Z" fill="#D3E8E8"/>
<path d="M24.2668 208.838C24.4732 208.473 24.7738 208.253 24.9384 208.347C25.1029 208.44 24.7113 208.608 24.505 208.972C24.2987 209.337 24.3557 209.759 24.1912 209.666C24.0266 209.573 24.0605 209.202 24.2668 208.838Z" fill="#D3E8E8"/>
<circle cx="25.3089" cy="208.315" r="0.22846" fill="#D3E8E8"/>
<circle cx="33.404" cy="198.422" r="2.65254" fill="#E28EAE"/>
<path d="M35.3719 199.721C34.9386 200.29 34.3791 200.592 34.1223 200.397C33.8655 200.201 34.5669 200.007 35.0002 199.438C35.4336 198.869 35.4349 198.142 35.6917 198.337C35.9485 198.533 35.8053 199.153 35.3719 199.721Z" fill="#D3E8E8"/>
<path d="M31.3899 197.364C31.7422 196.741 32.2555 196.366 32.5365 196.525C32.8174 196.684 32.1489 196.972 31.7965 197.594C31.4442 198.216 31.5416 198.937 31.2607 198.778C30.9797 198.619 31.0376 197.986 31.3899 197.364Z" fill="#D3E8E8"/>
<circle cx="33.1691" cy="196.471" r="0.390079" fill="#D3E8E8"/>
<circle cx="203.536" cy="212.124" r="3.95689" fill="#E28EAE"/>
<path d="M206.472 214.063C205.825 214.911 204.991 215.362 204.608 215.07C204.225 214.778 205.271 214.489 205.917 213.641C206.564 212.792 206.566 211.707 206.949 211.999C207.332 212.291 207.118 213.215 206.472 214.063Z" fill="#D3E8E8"/>
<path d="M200.531 210.546C201.057 209.618 201.823 209.058 202.242 209.295C202.661 209.533 201.664 209.962 201.138 210.89C200.612 211.818 200.758 212.894 200.339 212.656C199.919 212.419 200.006 211.474 200.531 210.546Z" fill="#D3E8E8"/>
<circle cx="203.186" cy="209.215" r="0.581896" fill="#D3E8E8"/>
<circle cx="32.4661" cy="229.403" r="4.35258" fill="#E28EAE"/>
<path d="M35.695 231.536C34.9839 232.469 34.0658 232.965 33.6444 232.644C33.223 232.322 34.3739 232.004 35.0851 231.071C35.7962 230.138 35.7983 228.944 36.2196 229.265C36.641 229.586 36.4061 230.603 35.695 231.536Z" fill="#D3E8E8"/>
<path d="M29.1607 227.667C29.7388 226.646 30.5812 226.03 31.0422 226.292C31.5032 226.553 30.4061 227.024 29.828 228.045C29.2499 229.066 29.4097 230.249 28.9487 229.988C28.4877 229.727 28.5826 228.688 29.1607 227.667Z" fill="#D3E8E8"/>
<circle cx="32.0821" cy="226.203" r="0.640085" fill="#D3E8E8"/>
<circle cx="41.4352" cy="182.447" r="2.50603" fill="#E28EAE"/>
<path d="M43.2938 183.676C42.8844 184.213 42.3558 184.498 42.1132 184.313C41.8706 184.129 42.5332 183.945 42.9426 183.408C43.3521 182.871 43.3533 182.183 43.5959 182.368C43.8385 182.553 43.7033 183.138 43.2938 183.676Z" fill="#D3E8E8"/>
<path d="M39.5317 181.448C39.8646 180.86 40.3496 180.506 40.615 180.656C40.8805 180.806 40.2488 181.078 39.9159 181.665C39.5831 182.253 39.6751 182.935 39.4097 182.784C39.1442 182.634 39.1989 182.036 39.5317 181.448Z" fill="#D3E8E8"/>
<circle cx="41.214" cy="180.605" r="0.368534" fill="#D3E8E8"/>
<circle cx="189.077" cy="228.793" r="1.89611" fill="#E28EAE"/>
<path d="M190.483 229.722C190.174 230.128 189.774 230.344 189.59 230.204C189.407 230.064 189.908 229.926 190.218 229.519C190.527 229.113 190.528 228.593 190.712 228.732C190.896 228.872 190.793 229.315 190.483 229.722Z" fill="#D3E8E8"/>
<path d="M187.637 228.037C187.889 227.592 188.256 227.324 188.457 227.437C188.657 227.551 188.179 227.756 187.928 228.201C187.676 228.646 187.745 229.161 187.545 229.048C187.344 228.934 187.385 228.481 187.637 228.037Z" fill="#D3E8E8"/>
<circle cx="188.91" cy="227.398" r="0.27884" fill="#D3E8E8"/>
<circle cx="185.569" cy="188.09" r="1.55355" fill="#E28EAE"/>
<path d="M186.722 188.851C186.468 189.184 186.14 189.361 185.99 189.247C185.84 189.132 186.25 189.018 186.504 188.685C186.758 188.352 186.759 187.926 186.909 188.041C187.06 188.155 186.976 188.518 186.722 188.851Z" fill="#D3E8E8"/>
<path d="M184.389 187.47C184.595 187.106 184.896 186.886 185.06 186.979C185.225 187.073 184.833 187.241 184.627 187.605C184.421 187.97 184.478 188.392 184.313 188.299C184.149 188.206 184.182 187.835 184.389 187.47Z" fill="#D3E8E8"/>
<circle cx="185.433" cy="186.948" r="0.228463" fill="#D3E8E8"/>
</g>
<defs>
<clipPath id="clip0_2354_7871">
<rect width="390" height="844" fill="white"/>
</clipPath>
</defs>
</svg>
