<svg width="390" height="866" viewBox="0 0 390 866" fill="none" xmlns="http://www.w3.org/2000/svg">
<path d="M332.37 31.057C331.339 35.7689 333.697 43.131 285.513 55.3521C253.096 57.4135 225.394 55.3233 219.647 54.1453C222.447 51.7895 252.948 20.6029 276.966 21.339C293.904 21.8581 332.37 27.8042 332.37 31.057Z" fill="#060606"/>
<path d="M332.399 32.2188C314.424 28.9776 302.491 23.0845 273.764 28.9776C241.484 35.5993 228.388 52.5498 219.695 54.9069C215.865 43.5628 243.12 20.1379 270.616 15.4903C296.506 8.07076 330.92 27.0565 332.399 32.2188Z" fill="#89BEAA"/>
<path d="M266.315 17.8635C266.925 19.8793 263.66 26.0684 258.553 27.6144C253.446 29.1605 246.29 29.1575 245.68 27.1416C245.07 25.1257 244.465 23.9068 255.374 19.9409C260.419 17.8397 265.705 15.8476 266.315 17.8635Z" fill="#5A9F85"/>
<path d="M229.096 47.4491C228.135 45.5751 229.885 38.7807 234.632 36.3451C239.38 33.9096 246.419 33.7616 247.38 35.6356C248.342 37.5097 248.763 37.5567 238.74 43.412C234.154 46.3824 230.058 49.3232 229.096 47.4491Z" fill="#5A9F85"/>
<path d="M310.648 20.2496C310.021 22.2604 304.012 25.882 298.918 24.2935C293.824 22.7049 288.698 17.8786 289.325 15.8679C289.952 13.8571 288.749 13.571 300.38 15.8678C307.305 17.7253 311.275 18.2389 310.648 20.2496Z" fill="#5A9F85"/>
<path d="M278.979 14.9843C279.217 16.8383 273.781 23.2933 268.594 23.9567C263.407 24.62 256.369 22.4284 256.132 20.5745C255.895 18.7205 258.422 18.5563 267.284 16.0636C273.931 14.8173 278.742 13.1304 278.979 14.9843Z" fill="white"/>
<path d="M294.933 24.8392C295.369 22.9171 302.256 18.1459 305.563 18.8953C308.871 19.6447 313.924 24.8688 313.489 26.7909C313.053 28.713 308.3 27.1223 304.287 26.791C300.179 26.7324 294.497 26.7613 294.933 24.8392Z" fill="white"/>
<path d="M223.079 48.8033C222.525 47.7225 223.881 43.3487 226.602 41.9549C229.323 40.5611 233.719 40.5479 234.272 41.6287C234.826 42.7095 233.455 44.8449 230.414 46.7931C227.429 48.9116 223.632 49.8841 223.079 48.8033Z" fill="white"/>
<path d="M278.693 23.7725C278.73 22.5111 282.154 19.2072 285.329 19.3C288.505 19.3929 292.514 21.5814 292.477 22.8428C292.44 24.1041 290.123 25.3624 286.379 25.6142C282.6 26.0487 278.656 25.0338 278.693 23.7725Z" fill="white"/>
<path d="M267.347 34.2184L280.951 41.8409L275.981 45.9539L267.347 34.2184Z" fill="#111111"/>
<path d="M272.295 31.2466L280.69 43.2978L276.034 45.458L272.295 31.2466Z" fill="#111111"/>
<path d="M261.779 37.1037L277.647 42.1291L273.799 46.5917L261.779 37.1037Z" fill="#111111"/>
<path d="M255.514 40.4444L273.306 41.7885L269.714 47.9063L255.514 40.4444Z" fill="#111111"/>
<path d="M288.009 30.3645L276.592 40.5139L282.199 43.4363L288.009 30.3645Z" fill="#111111"/>
<path d="M282.661 28.5342L277.145 41.8601L282.046 42.9705L282.661 28.5342Z" fill="#111111"/>
<path d="M293.932 31.9828L279.81 40.1056L284.417 43.597L293.932 31.9828Z" fill="#111111"/>
<path d="M300.62 33.893L283.893 38.8765L288.601 44.0118L300.62 33.893Z" fill="#111111"/>
<path d="M233.278 24.9968L233.298 24.5009L233.038 24.0713L233.551 24.0948L233.997 23.8468L233.974 24.3429L234.234 24.776L233.72 24.749L233.278 24.9968Z" fill="#FFF5BF"/>
<path d="M240.676 18.6339L240.719 19.1284L241.031 19.5217L240.519 19.5633L240.108 19.8657L240.069 19.3706L239.756 18.974L240.268 18.9358L240.676 18.6339Z" fill="#FFF5BF"/>
<path d="M237.91 18.9998L237.761 19.3693L237.843 19.7639L237.461 19.6082L237.057 19.6758L237.208 19.3072L237.128 18.9099L237.509 19.0683L237.91 18.9998Z" fill="#FFF5BF"/>
<path d="M237.862 21.4757L238.035 21.6124L238.256 21.6312L238.114 21.8091L238.086 22.0338L237.915 21.8958L237.692 21.8761L237.835 21.699L237.862 21.4757Z" fill="#FFF5BF"/>
<path d="M272.241 12.2704L271.901 11.9082L271.817 11.413L271.444 11.7664L270.945 11.8703L271.287 12.2302L271.373 12.7282L271.744 12.372L272.241 12.2704Z" fill="#FFF5BF"/>
<path d="M262.47 12.0962L262.76 12.4985L262.781 13.0003L263.196 12.6969L263.705 12.6571L263.411 12.2567L263.388 11.7519L262.975 12.0583L262.47 12.0962Z" fill="#FFF5BF"/>
<path d="M264.803 10.5655L265.156 10.748L265.353 11.0997L265.54 10.7323L265.89 10.5195L265.534 10.3394L265.335 9.98622L265.151 10.3551L264.803 10.5655Z" fill="#FFF5BF"/>
<path d="M266.457 12.4071L266.416 12.6233L266.26 12.7827L266.484 12.8242L266.652 12.9762L266.692 12.7595L266.848 12.5987L266.623 12.5587L266.457 12.4071Z" fill="#FFF5BF"/>
<path d="M256.739 15.8661L255.375 14.0246L253.091 14.0988L254.415 12.2426L253.638 10.0902L255.818 10.7781L257.624 9.37302L257.648 11.6612L259.538 12.9439L257.362 13.6666L256.739 15.8661Z" fill="#FFF5BF"/>
<path d="M246.61 16.7158L245.054 16.5137L244.007 17.6746L243.72 16.1408L242.29 15.5021L243.664 14.7542L243.829 13.1969L244.968 14.2715L246.498 13.9487L245.821 15.3644L246.61 16.7158Z" fill="#FFF5BF"/>
<path d="M333.393 24.7195L333.373 24.2235L333.633 23.794L333.119 23.8175L332.673 23.5695L332.697 24.0656L332.437 24.4986L332.95 24.4716L333.393 24.7195Z" fill="#FFF5BF"/>
<path d="M325.995 18.3566L325.952 18.8511L325.639 19.2443L326.152 19.2859L326.563 19.5884L326.602 19.0933L326.915 18.6966L326.402 18.6584L325.995 18.3566Z" fill="#FFF5BF"/>
<path d="M328.761 18.723L328.909 19.0925L328.828 19.4871L329.21 19.3313L329.614 19.3989L329.462 19.0303L329.543 18.633L329.162 18.7914L328.761 18.723Z" fill="#FFF5BF"/>
<path d="M328.809 21.1984L328.636 21.335L328.414 21.3539L328.557 21.5318L328.584 21.7564L328.756 21.6184L328.979 21.5987L328.835 21.4217L328.809 21.1984Z" fill="#FFF5BF"/>
<path d="M294.43 11.9935L294.77 11.6313L294.854 11.1362L295.227 11.4896L295.726 11.5935L295.384 11.9534L295.298 12.4513L294.927 12.0951L294.43 11.9935Z" fill="#FFF5BF"/>
<path d="M304.201 11.8189L303.91 12.2211L303.89 12.7229L303.475 12.4196L302.966 12.3797L303.26 11.9794L303.282 11.4746L303.695 11.781L304.201 11.8189Z" fill="#FFF5BF"/>
<path d="M301.868 10.2881L301.514 10.4706L301.318 10.8224L301.131 10.455L300.781 10.2422L301.136 10.0621L301.335 9.70888L301.52 10.0778L301.868 10.2881Z" fill="#FFF5BF"/>
<path d="M300.213 12.1298L300.254 12.346L300.41 12.5054L300.186 12.5469L300.018 12.6988L299.979 12.4822L299.823 12.3214L300.047 12.2813L300.213 12.1298Z" fill="#FFF5BF"/>
<path d="M309.931 15.5893L311.295 13.7478L313.579 13.8219L312.255 11.9657L313.033 9.81334L310.853 10.5012L309.047 9.09616L309.023 11.3844L307.132 12.6671L309.308 13.3897L309.931 15.5893Z" fill="#FFF5BF"/>
<path d="M320.061 16.4389L321.616 16.2369L322.664 17.3977L322.95 15.864L324.381 15.2252L323.006 14.4774L322.841 12.92L321.702 13.9947L320.172 13.6719L320.849 15.0876L320.061 16.4389Z" fill="#FFF5BF"/>
<ellipse cx="2.5" cy="2" rx="2.5" ry="2" transform="matrix(-1 0 0 1 351 734)" fill="#1B2C2C"/>
<ellipse cx="2.5" cy="1.5" rx="2.5" ry="1.5" transform="matrix(-1 0 0 1 358 738)" fill="#1B2C2C"/>
<path d="M237.5 147.604L307.606 73.0075L416.051 53.772L415.112 282.408V376.709L334.835 362.478L254.401 303.521L57.3853 267.552L135.628 193.894L237.5 147.604Z" fill="#132828"/>
<path d="M133.126 217.318L92.6978 191.838L66.8019 157.771L19.8569 148.632L-13.24 105.98L-50.9154 90.8853L-56.9999 175.461L-54.3688 175.892L0.737915 245.707L97.1292 277.522H140.197L133.126 217.318Z" fill="#385A42"/>
<path d="M338.955 214.742L261.992 233.723L200.297 217.179L161.866 253.899L132.186 299.02L199.502 350.582L201.308 348.62L289.919 340.948L369.471 277.9L393.139 241.919L338.955 214.742Z" fill="#0C1910"/>
<path d="M329.093 202.362L353.734 139.353L404.834 85.3459L459.127 75.9292H513.134L519.219 160.505L516.588 160.936L461.481 230.751L365.09 262.566L319.945 243.888L329.093 202.362Z" fill="#15341F"/>
<path d="M292.556 38.5753L264.204 44.2563L275.461 63.6684L285.677 107.29L267.68 167.105L252.849 210.68L255.34 234.542L290.255 224.927L294.483 180.16L297.169 156.364L307.2 131.967L304.642 108.92L291.376 52.2724L292.556 38.5753Z" fill="#111111"/>
<path d="M272.861 256.785L342.933 258.031L331.3 262.74L297.234 423.101L206.944 430.994L180.633 402.882L204.452 317.578L272.861 256.785Z" fill="#122217"/>
<path d="M118.317 264.678L126.21 270.217L138.951 272.849L157.507 284.896L165.816 285.45L180.772 267.725L267.461 284.896L221.347 334.334L193.097 376.986L190.604 386.541L193.097 398.728L195.451 407.59L200.851 419.638L206.945 430.994L186.311 428.778L-13.3784 416.176L118.317 264.678Z" fill="#122718"/>
<path d="M118.317 264.678L126.21 270.217L138.951 272.849L157.507 284.896L165.816 285.45L180.772 267.725L269.538 283.373L221.762 318.547L188.942 329.487L182.71 352.614L172.878 368.677L170.386 384.88L182.295 411.052L202.79 428.363L-13.3784 416.176L118.317 264.678Z" fill="#193522"/>
<path d="M209.583 235.356L216.333 223.53C216.523 223.197 216.871 222.986 217.253 222.972L238.082 222.171C238.188 222.167 238.293 222.178 238.395 222.203L281.433 233.028C282.377 233.265 282.578 234.519 281.754 235.039L247.416 256.726C247.213 256.854 247.058 257.044 246.972 257.268L232.277 295.742C232.055 296.325 231.395 296.609 230.819 296.37L187.856 278.596C187.251 278.346 186.994 277.628 187.303 277.05L209.583 235.356Z" fill="#2A5035"/>
<path d="M287.817 262.047L284.771 227.15L246.966 257.2L231.871 296.806L246.966 288.774L255.828 286.974L276.6 278.111L287.817 262.047Z" fill="#172D1E"/>
<path d="M74.003 311.762L141.028 391.527L206.945 430.994L33.0127 447.057L-13.3784 441.795V416.176L74.003 311.762Z" fill="#0E2616"/>
<path d="M339.886 256.508L355.95 246.814L327.007 244.045L303.05 243.075L283.94 291.267L294.603 298.468L312.467 286.558L328.669 272.572L339.886 256.508Z" fill="#162D1D"/>
<path d="M339.886 256.508L355.95 246.814L375.614 227.704L320.36 223.272L303.05 243.075L315.791 256.508L341.548 262.601L339.886 256.508Z" fill="#2D4E36"/>
<path d="M327.528 248.761C327.665 247.779 327.228 246.751 326.299 245.87C325.369 244.99 324.012 244.316 322.48 243.976C320.948 243.636 319.348 243.653 317.978 244.023C316.608 244.394 315.563 245.092 315.038 245.988C314.513 246.884 314.545 247.916 315.127 248.89C315.709 249.865 316.802 250.715 318.201 251.282C319.599 251.849 321.208 252.094 322.726 251.971C324.243 251.847 325.565 251.364 326.444 250.612L321.109 247.867L327.528 248.761Z" fill="#213C29"/>
<path opacity="0.29" d="M330.054 255.677C331.201 255.677 332.131 255.243 332.131 254.708C332.131 254.172 331.201 253.738 330.054 253.738C328.907 253.738 327.977 254.172 327.977 254.708C327.977 255.243 328.907 255.677 330.054 255.677Z" fill="#142D1C"/>
<path opacity="0.54" d="M333.516 253.185C335.504 253.185 337.116 252.503 337.116 251.661C337.116 250.82 335.504 250.138 333.516 250.138C331.527 250.138 329.915 250.82 329.915 251.661C329.915 252.503 331.527 253.185 333.516 253.185Z" fill="#142D1C"/>
<path opacity="0.29" d="M228.825 246.26C229.742 246.26 230.486 245.95 230.486 245.568C230.486 245.185 229.742 244.875 228.825 244.875C227.907 244.875 227.163 245.185 227.163 245.568C227.163 245.95 227.907 246.26 228.825 246.26Z" fill="#142D1C"/>
<path opacity="0.54" d="M226.609 248.476C227.832 248.476 228.824 248.042 228.824 247.507C228.824 246.972 227.832 246.538 226.609 246.538C225.385 246.538 224.393 246.972 224.393 247.507C224.393 248.042 225.385 248.476 226.609 248.476Z" fill="#142D1C"/>
<path d="M231.076 248.388C231 247.842 231.243 247.271 231.759 246.782C232.275 246.293 233.029 245.919 233.88 245.73C234.731 245.541 235.62 245.55 236.381 245.756C237.142 245.962 237.723 246.35 238.014 246.848C238.306 247.345 238.288 247.918 237.964 248.46C237.641 249.001 237.034 249.474 236.257 249.789C235.48 250.104 234.586 250.239 233.744 250.171C232.901 250.102 232.166 249.834 231.678 249.416L234.641 247.892L231.076 248.388Z" fill="#213C29"/>
<path d="M325.899 266.894L414.527 186.714L419.928 249.584L471.304 278.111L450.532 313.008L442.223 347.906L431.006 429.886L297.095 423.101V390.419V367.708L290.725 345.828L290.033 330.872L297.095 290.851L325.899 266.894Z" fill="#355B41"/>
<path d="M297.095 290.852L339.332 299.991L337.67 347.906L450.532 313.008L442.223 347.906L431.006 429.886L297.095 423.101V390.419V367.708L290.725 345.828L290.033 330.873L297.095 290.852Z" fill="#284A32"/>
<path d="M297.095 290.852L339.332 299.991L330.746 326.164L314.406 328.103L297.095 367.293L290.725 345.828L290.033 330.873L297.095 290.852Z" fill="#1C3925"/>
<path d="M337.255 347.905L388.77 304.976L450.532 217.595L419.928 249.584L471.304 278.111L450.532 313.008L442.223 347.905L431.006 429.886L297.095 423.1L337.255 347.905Z" fill="#172D1E"/>
<path d="M135.765 169.805C135.765 171.95 127.759 170.661 100.557 168.914C81.9398 170.564 62.6475 162.904 62.6475 160.76C64.4802 159.207 89.0779 155.809 104.801 156.295C115.889 156.637 135.765 167.661 135.765 169.805Z" fill="#0A0A0A"/>
<path d="M135.765 169.957C125.265 167.07 118.425 156.379 101.278 157.534C79.4933 159.001 64.6705 163.404 62.6475 160.757C71.5102 155.609 85.96 150.798 101.278 144.062C118.521 150.894 135.765 166.45 135.765 169.957Z" fill="#B7D6D6"/>
<path d="M-7.42402 189.542L18.3334 166.416L52.6767 180.541L62.3703 199.651L-7.5625 220.088L-7.42402 189.542Z" fill="#293634"/>
<path d="M78.988 227.704L95.0518 232.135L123.717 274.51L110.839 290.99L91.0359 272.572L70.6792 258.724L59.8777 253.046L-7.5625 220.087L62.2318 199.592L70.6792 204.162L78.988 227.704Z" fill="#121B17"/>
<path d="M78.988 227.704L95.0518 232.135L123.717 274.51L110.839 290.99L91.0359 272.572L70.6792 258.724L59.8777 253.046L-7.5625 220.087L78.988 227.704Z" fill="#1B2521"/>
<path d="M70.9561 258.862L91.0359 272.572L110.839 290.99V318.686L-7.5625 294.036V220.087L64.3091 255.123L70.9561 258.862Z" fill="#293331"/>
<path d="M110.839 318.686L133.273 358.153L95.4672 347.906L-7.5625 294.037L110.839 318.686Z" fill="#202926"/>
<path d="M95.4672 347.906L74.6951 380.864L33.2893 389.173L25.8114 358.984L2.82356 328.518L-7.5625 294.037L95.4672 347.906Z" fill="#2B3330"/>
<path d="M33.2894 389.173L-7.5625 409.391V346.521V294.037L2.82356 328.518L25.8114 358.984L33.2894 389.173Z" fill="#1C2622"/>
<path d="M78.9883 227.704L117.486 209.148L151.691 203.055L171.355 203.886L186.311 212.056L199.051 214.272L213.73 218.426L196.974 282.543H189.219V245.014L187.834 238.506L184.234 230.335L177.171 223.411L167.339 218.426H146.705L137.566 222.304L128.287 231.166L123.441 240.86L122.471 250.415L123.718 274.511L97.9602 246.953L78.9883 227.704Z" fill="#282827"/>
<path d="M-7.70071 85.8999L-4.37717 91.9931V98.2247L1.71598 100.579L4.34712 106.395L1.71598 118.027L8.64002 128.552L12.2405 158.187L18.1952 166.357L-11.4397 194.053L-7.70071 85.8999Z" fill="#192320"/>
<path d="M52.6776 180.482L70.6784 204.162L62.3696 199.731L52.6776 180.482Z" fill="#101815"/>
<path d="M137.566 222.164L141.859 219.949L146.705 218.426L151.691 218.01L157.092 217.872L162.354 218.01L167.339 218.426L172.74 220.364L177.171 223.411L181.049 226.596L184.372 230.335L186.311 234.489L187.834 238.505L189.219 244.737V282.542L175.648 275.618V259.416L172.324 250.969L166.231 242.66L162.769 239.752L159.03 237.674L152.66 237.259L146.428 237.536L138.951 239.475L135.904 241.275L133.55 243.352L131.888 246.676L130.226 251.661L128.841 255.954L127.595 260.939L126.903 265.855L126.21 270.771L123.718 274.51L122.194 250.553L123.441 240.859L125.518 236.151L128.287 231.166L132.442 226.596L137.566 222.164Z" fill="#10100D"/>
<path d="M110.839 290.989L123.718 274.51L122.333 298.329L110.839 318.686V290.989Z" fill="#101815"/>
<path d="M95.4674 347.905L133.273 358.153L124.687 376.294L74.6953 380.864L95.4674 347.905Z" fill="#111A17"/>
<path d="M103.005 234.899L97.3545 234.135L94.3416 238.422L89.3818 238.041L86.3276 232.828L81.6193 228.515L92.8362 222.719L97.8936 223.745L104.617 228.515L103.005 234.899Z" fill="#1D1D1B"/>
<path d="M119.448 212.579L120.471 215.196L118.75 217.784L121.649 218.806L121.218 222.292L117.799 222.972L113.495 221.959L112.53 219.802L111.412 215.818L114.997 211.232L119.448 212.579Z" fill="#1D1D1B"/>
<path d="M194.427 253.633L195.013 255.453L193.992 257.265L195.686 257.964L195.417 260.396L193.41 260.886L190.893 260.201L190.337 258.702L189.701 255.93L191.824 252.716L194.427 253.633Z" fill="#1D1D1B"/>
<path d="M199.808 215.603L202.126 216.008L205.222 216.731L207.532 218.553L206.534 221.296L203.94 223.939L201.976 223.693L198.639 222.765L196.911 218.206L199.808 215.603Z" fill="#1D1D1B"/>
<path d="M149.89 214.41L146.18 213.656L144.5 214.17L144.415 212.434L142.457 212.104L141.537 213.846L139.365 219.176L150.304 216.902L149.89 214.41Z" fill="#1D1D1B"/>
<path d="M117.238 235.519L116.438 237.568L117.784 239.593L115.516 240.393L115.853 243.121L118.529 243.653L121.898 242.861L122.653 241.172L123.528 238.055L120.722 234.465L117.238 235.519Z" fill="#1D1D1B"/>
<path d="M198.848 241.991L195.886 244.236L198.143 247.112L199.023 249.717L201.751 249.699L204.891 248.244L205.291 246.438L205.52 243.208L202.048 240.258L198.848 241.991Z" fill="#1D1D1B"/>
<path d="M159.681 210.956L157.519 210.552L155.781 212.253L154.572 210.174L151.954 211.014L151.931 213.742L153.338 216.904L155.138 217.331L158.364 217.609L161.367 214.182L159.681 210.956Z" fill="#1D1D1B"/>
<path d="M103.794 236.66L104.918 233.954L106.148 229.009L109.085 225.926L112.903 227.733L113.499 231.572L116.363 231.826L115.744 234.624L116 238.48L113.957 239.308L107.155 241.184L103.794 236.66Z" fill="#1D1D1B"/>
<path d="M182.488 220.78L180.635 224.519L175.548 221.236L171.706 219.408L172.104 215.642L175.465 214.204L174.743 211.643L177.545 211.515L181.036 210.37L182.488 211.956L187.974 213.717L185.067 220.78L182.488 220.78Z" fill="#1D1D1B"/>
<path d="M162.215 204.716L169.139 204.162L173.986 207.486L175.096 210.122L172.09 211.912L173.295 214.117L170.58 214.644L167.062 217.179L161.107 217.179L163.046 213.579L160.666 210.605L162.215 204.716Z" fill="#1D1D1B"/>
<path d="M142.523 209.904L137.163 220.882L133.135 224.103L130.705 218.524L134.243 213.579L130.705 208.455L135.628 206.793L142.523 209.904Z" fill="#1D1D1B"/>
<path d="M108.687 225.537L105.253 227.129L102.969 224.428L100.511 222.542L101.522 219.64L104.215 216.819L106.287 217.05L109.814 217.979L111.699 222.754L108.687 225.537Z" fill="#1D1D1B"/>
<path d="M155.586 204.025L153.463 205.171L153.972 207.367L153.997 209.341L155.865 209.932L158.331 209.632L159.004 208.487L159.874 206.331L159.874 204.025L155.586 204.025Z" fill="#1D1D1B"/>
<path d="M192.038 270.741L189.794 271.625L190.037 273.866L189.826 275.829L191.609 276.638L194.094 276.636L194.899 275.579L196.021 273.543L196.296 271.253L192.038 270.741Z" fill="#1D1D1B"/>
<path d="M130.366 226.458L128.703 229.365L126.765 230.612L125.169 224.767L123.172 223.268L123.813 221.196L125.761 219.267L127.378 219.537L130.157 220.389L131.852 223.971L130.366 226.458Z" fill="#1D1D1B"/>
<path d="M121.411 232.543L117.694 233.256L117.347 230.574L114.576 230.197L114.205 227.656L115.89 225.085L119.186 223.002L121.14 223.727L124.337 225.484L125.009 230.574L121.411 232.543Z" fill="#1D1D1B"/>
<path d="M195.802 217.511L196.907 221.132L194.277 221.763L194.198 224.558L191.711 225.198L188.975 223.797L186.552 220.742L187.065 218.721L188.471 215.355L193.46 214.145L195.802 217.511Z" fill="#1D1D1B"/>
<path d="M125.203 218.141L128.921 218.853L130.482 215.679L132.409 213.254L130.725 210.683L127.429 208.599L125.474 209.325L122.277 211.082L121.606 216.171L125.203 218.141Z" fill="#1D1D1B"/>
<path d="M199.328 235.083L200.99 238.228L206.252 241.829L209.691 230.358L207.776 224.657H201.544L196.42 222.857L193.284 226.841L192.197 235.083H199.328Z" fill="#1D1D1B"/>
<path d="M146.732 212.738L150.045 213.373L151.437 210.543L153.155 208.382L151.653 206.091L148.716 204.234L146.974 204.88L144.124 206.446L143.526 210.983L146.732 212.738Z" fill="#1D1D1B"/>
<path d="M193.261 270.069L196.575 270.704L197.966 267.875L199.684 265.713L198.183 263.422L195.245 261.565L193.503 262.211L190.654 263.777L190.055 268.314L193.261 270.069Z" fill="#1D1D1B"/>
<path d="M112.804 260.378L115.001 263.46L118.322 262.242L121.391 261.82L121.948 258.797L121.003 255.014L119.089 254.189L115.563 253.252L111.563 256.469L112.804 260.378Z" fill="#1D1D1B"/>
<path d="M117.661 264.835L118.794 263.244L120.508 263.873L122.091 264.091L122.379 265.65L121.891 267.602L120.903 268.028L119.084 268.511L117.02 266.851L117.661 264.835Z" fill="#1D1D1B"/>
<path d="M192.717 278.959L193.851 277.369L195.564 277.997L197.148 278.215L197.435 279.775L196.948 281.727L195.96 282.152L194.141 282.636L192.077 280.976L192.717 278.959Z" fill="#1D1D1B"/>
<path d="M207.948 220.137L208.995 218.09L210.512 218.852L211.921 219.095L212.145 221.072L211.667 223.564L210.775 224.127L209.14 224.781L207.332 222.715L207.948 220.137Z" fill="#1D1D1B"/>
<path d="M190.465 250.557L190.763 247.179L191.468 245.571L193.888 245.887L196.715 247.19L197.123 248.417L197.421 250.557L194.428 252.102L190.465 250.557Z" fill="#1D1D1B"/>
<path d="M122.407 233.252L123.358 232.192L125.597 231.113L126.97 231.585L125.76 234.23L125.247 235.605L124.496 235.833L123.137 236.034L121.777 234.662L122.407 233.252Z" fill="#1D1D1B"/>
<path d="M141.982 205.57L140.79 205.406L138.759 205.933L138.132 206.987L140.355 208.03L141.437 208.636L142.045 208.373L143.03 207.761L143.157 206.134L141.982 205.57Z" fill="#1D1D1B"/>
<path d="M199.867 259.577L198.675 259.414L196.644 259.941L196.017 260.994L198.24 262.038L199.322 262.643L199.93 262.38L200.915 261.768L201.042 260.141L199.867 259.577Z" fill="#1D1D1B"/>
<path d="M116.793 247.517L116.816 249.551L116.537 252.142L118.602 253.095L121.619 253.253L121.312 249.625L122.056 247.666L121.464 246.715L120.196 245.22L117.444 245.412L116.793 247.517Z" fill="#1D1D1B"/>
<path d="M182.83 227.436L184.754 229.006L188.343 236.844L191.296 234.905L191.981 227.404L188.342 224.851L187.089 222.621L185.735 222.431L183.342 222.449L181.367 225.178L182.83 227.436Z" fill="#1D1D1B"/>
<path d="M104.575 246.381L100.338 248.345L97.5204 245.012L94.4877 242.686L95.7349 239.104L99.0574 235.624L101.614 235.908L104.575 240.444L108.292 242.947L104.575 246.381Z" fill="#1D1D1B"/>
<path d="M112.363 254.109L108.601 255.853L106.099 252.894L103.406 250.828L104.513 247.647L107.464 244.557L111.383 242.659L115.025 245.542L115.664 251.06L112.363 254.109Z" fill="#1D1D1B"/>
<path d="M193.574 244.775L190.203 244.056L190.029 240.849L189.28 238.139L191.612 236.584L195.12 236.007L198.673 236.703L199.641 240.427L195.12 241.552L193.574 244.775Z" fill="#1D1D1B"/>
<path d="M196.125 253.516L195.568 256.28L197.919 257.453L199.71 258.896L201.634 257.652L203.208 255.206L203.841 252.314L203.208 250.415L199.71 250.692L197.919 251.938L196.125 253.516Z" fill="#1D1D1B"/>
<path d="M93.8573 162.065L111.175 165.535L104.299 177.392L98.0591 204.037L109.052 240.572L118.111 267.189L116.589 281.764L95.2626 275.891L92.6802 248.547L91.0392 234.012L84.9123 219.11L86.4749 205.032L94.5781 170.431L93.8573 162.065Z" fill="#141414"/>
<path d="M335.732 210.671C335.732 213.73 323.13 217.18 284.078 214.687C257.351 217.041 230.902 204.452 230.902 201.393C230.902 198.334 261.506 202.362 284.078 203.055C299.996 203.543 335.732 207.612 335.732 210.671Z" fill="#181818"/>
<path d="M96.2991 146.969C96.649 148.158 94.3674 152.594 91.3559 153.481C88.3444 154.367 83.2149 153.697 82.8649 152.509C82.515 151.32 86.7742 150.215 89.8438 148.8C92.8553 147.914 95.9492 145.781 96.2991 146.969Z" fill="#8FB4B4"/>
<path d="M90.6549 157.6C90.666 156.361 93.6718 153.024 96.8109 153.052C99.9501 153.08 104.112 155.129 104.101 156.368C104.09 157.607 100.244 157.509 96.896 157.97C93.7568 157.942 90.6439 158.839 90.6549 157.6Z" fill="#8FB4B4"/>
<path d="M67.1276 161.016C67.1011 160.072 69.2952 157.448 71.6857 157.38C74.0762 157.313 77.3025 158.755 77.3291 159.699C77.3556 160.642 74.4252 160.676 71.8891 161.122C69.4986 161.189 67.1541 161.959 67.1276 161.016Z" fill="#8FB4B4"/>
<path d="M124.327 158.556C123.354 159.748 117.851 160.645 114.832 158.18C111.813 155.715 109.372 150.499 110.345 149.307C111.318 148.115 114.968 151.196 118.569 153.351C121.588 155.816 125.3 157.365 124.327 158.556Z" fill="#8FB4B4"/>
<path d="M108.954 148.508C108.419 149.289 105.566 150.433 104.221 149.511C102.876 148.59 102.03 146.126 102.566 145.344C103.102 144.562 104.457 145.349 106.192 146.209C108.017 146.963 109.49 147.726 108.954 148.508Z" fill="white"/>
<path d="M124.337 163.215C124.946 162.488 127.895 161.626 129.145 162.673C130.395 163.72 130.999 166.254 130.391 166.98C129.782 167.707 128.509 166.793 126.865 165.77C125.121 164.842 123.729 163.941 124.337 163.215Z" fill="white"/>
<path d="M80.2857 157.183C80.2342 156.033 83.1267 152.796 86.0217 152.666C88.9167 152.536 92.7122 154.257 92.7637 155.407C92.8152 156.557 90.7919 157.858 87.4024 158.34C83.9933 158.99 80.3372 158.333 80.2857 157.183Z" fill="white"/>
<path d="M109.852 155.414C110.134 154.516 113.263 152.837 115.525 153.547C117.786 154.257 120.222 156.641 119.94 157.54C119.658 158.438 117.739 158.872 114.999 158.294C112.197 157.841 109.57 156.313 109.852 155.414Z" fill="white"/>
<path d="M157.754 296.409L156.45 290.68L159.804 285.675L165.563 287.276L169.703 289.889L171.371 292.151L171.182 296.201L169.816 303.163L165.125 303.945L157.754 296.409Z" fill="#26452F"/>
<path d="M177.195 324.566L175.94 322.032L173.168 321.186L171.508 323.533L170.758 325.766L170.824 327.117L172.125 328.569L174.75 330.75L176.737 329.616L177.195 324.566Z" fill="#26452F"/>
<path d="M160.309 325.817L163.642 329.682L168.723 329.721L170.397 324.636L170.589 320.241L169.83 317.859L166.938 315.952L161.463 313.447L158.656 316.535L160.309 325.817Z" fill="#26452F"/>
<path d="M163.421 303.688L164.815 307.929L162.633 311.952L158.164 311.15L154.847 309.468L153.424 307.875L153.28 304.799L153.819 299.437L157.311 298.512L163.421 303.688Z" fill="#26452F"/>
<path d="M184.555 332.487L185.54 337.372L184.555 343.287L181.738 341.375L177.337 337.372L174.495 335.213L177.288 329.818L180.704 330.286L184.555 332.487Z" fill="#26452F"/>
<path d="M173.412 334.558L173.857 331.405L171.819 328.855L168.782 329.981L166.665 331.58L165.867 332.877L166.153 335.055L167.206 338.752L169.775 338.962L173.105 338.61L173.412 334.558Z" fill="#26452F"/>
<path d="M167.86 305.323L172.603 305.146L175.986 307.006L175.288 310.772L173.852 313.562L172.502 314.753L169.907 314.86L166.779 314.835L165.521 311.302L167.86 305.323Z" fill="#26452F"/>
<path d="M180.915 318.388L178.653 320.863L176.04 321.644L171.557 319.253L170.819 317.182L174.701 314.444L176.661 313.129L179.064 314.247L180.915 318.388Z" fill="#26452F"/>
<path d="M157.323 288.824L155.061 291.299L152.449 292.08L147.965 289.689L147.228 287.618L151.109 284.88L153.07 283.565L155.472 284.683L157.323 288.824Z" fill="#26452F"/>
<path d="M177.84 323.953L178.526 322.141L179.695 321.913L182.378 324.873L183.123 326.866L181.672 328.621L180.927 329.445L179.519 328.006L177.84 323.953Z" fill="#26452F"/>
<path d="M149.346 294.711L150.547 293.262L151.644 293.466L155.845 293.898L155.845 297.36L152.992 299.316L151.142 300.438L150.217 300.943L149.466 299.096L149.346 294.711Z" fill="#26452F"/>
<path d="M176.447 339.364L179.953 340.738L181.396 344.318L178.472 346.792L175.595 348.045L173.795 348.113L171.718 346.553L168.522 343.321L169.798 340.553L176.447 339.364Z" fill="#26452F"/>
<path d="M180.862 358.015L182.747 355.908L185.644 355.83L186.619 358.535L186.747 360.887L186.324 362.171L184.683 363.224L181.571 364.627L179.958 363.004L180.862 358.015Z" fill="#183120"/>
<path d="M196.804 363.72L192.562 366.557L187.654 365.241L187.396 359.894L188.381 355.606L189.748 353.513L193.044 352.446L198.988 351.491L200.87 355.214L196.804 363.72Z" fill="#183120"/>
<path d="M-15 389.887H75.9051L249.024 370.425L299.321 367L422 374.94L415.873 866H-15V389.887Z" fill="#3C5F47"/>
<path d="M194.986 341.955L190.461 340.521L186.705 341.412L186.375 345.228L187.015 348.3L187.999 349.808L190.472 350.602L193.493 351.412L195.647 348.341L194.986 341.955Z" fill="#183120"/>
<path d="M182.776 349.173L182.598 347.243L181.532 346.712L178.157 348.85L176.908 350.573L177.838 352.65L178.337 353.644L180.077 352.632L182.776 349.173Z" fill="#26452F"/>
<path d="M189.765 352.745L189.14 350.903L187.882 350.167L184.758 351.405L183.81 352.734L185.272 354.883L186.028 355.923L187.659 355.369L189.765 352.745Z" fill="#183120"/>
<path d="M325.138 442.072L370.767 448.65L417.712 467.622L411.55 440.687L432.115 353.86L398.602 359.261L370.767 369.785L345.079 395.82L325.138 442.072Z" fill="#223327"/>
<path d="M395.417 428.64L411.55 440.687L432.115 353.86L398.602 359.261L384.408 383.91L395.417 428.64Z" fill="#09180D"/>
<path d="M368.136 370.616L360.52 380.033L384.408 383.91L423.598 374.009L430.176 376.017L431.561 353.86L398.048 359.261L368.136 370.616Z" fill="#3A6C49"/>
<path d="M368.136 370.616L360.52 380.033L384.408 383.91L423.598 374.009L430.176 376.017L431.561 353.86L398.048 359.261L368.136 370.616Z" fill="#30563C"/>
<path d="M76.8417 450.381L31.2122 456.959L-15.7328 475.93L-9.57036 448.996L-30.1348 362.168L3.3776 367.569L31.2122 378.094L56.9004 404.128L76.8417 450.381Z" fill="#223327"/>
<path d="M6.56266 436.948L-9.57036 448.996L-30.1348 362.168L3.3776 367.569L17.5719 392.219L6.56266 436.948Z" fill="#09180D"/>
<path d="M33.8434 378.925L41.4599 388.341L17.5719 392.219L-21.6182 382.317L-28.196 384.325L-29.5808 362.168L3.93155 367.569L33.8434 378.925Z" fill="#3A6C49"/>
<path d="M33.8434 378.925L41.4599 388.341L17.5719 392.219L-21.6182 382.317L-28.196 384.325L-29.5808 362.168L3.93155 367.569L33.8434 378.925Z" fill="#30563C"/>
<path d="M307.251 429.34C307.115 428.358 307.552 427.33 308.481 426.449C309.411 425.569 310.768 424.895 312.3 424.555C313.832 424.215 315.432 424.232 316.802 424.602C318.172 424.973 319.217 425.671 319.742 426.567C320.267 427.463 320.235 428.495 319.653 429.469C319.071 430.444 317.978 431.294 316.579 431.861C315.18 432.428 313.572 432.673 312.054 432.55C310.537 432.426 309.215 431.943 308.336 431.191L313.67 428.446L307.251 429.34Z" fill="#284230"/>
<path d="M118.381 449.659C118.585 448.193 117.932 446.659 116.545 445.344C115.157 444.029 113.13 443.024 110.844 442.516C108.557 442.008 106.167 442.033 104.121 442.586C102.076 443.139 100.515 444.182 99.732 445.52C98.9485 446.857 98.9958 448.398 99.8651 449.853C100.734 451.308 102.366 452.578 104.454 453.424C106.543 454.271 108.945 454.636 111.21 454.452C113.476 454.268 115.45 453.546 116.762 452.423L108.797 448.326L118.381 449.659Z" fill="#284230"/>
<path opacity="0.29" d="M351.519 462.844C353.966 462.844 355.95 461.914 355.95 460.767C355.95 459.62 353.966 458.69 351.519 458.69C349.071 458.69 347.087 459.62 347.087 460.767C347.087 461.914 349.071 462.844 351.519 462.844Z" fill="#294632"/>
<path opacity="0.29" d="M90.482 455.643C92.3941 455.643 93.9441 454.961 93.9441 454.12C93.9441 453.279 92.3941 452.597 90.482 452.597C88.57 452.597 87.02 453.279 87.02 454.12C87.02 454.961 88.57 455.643 90.482 455.643Z" fill="#24412D"/>
<path opacity="0.29" d="M50.3229 461.182C52.2349 461.182 53.7849 460.5 53.7849 459.659C53.7849 458.818 52.2349 458.136 50.3229 458.136C48.4108 458.136 46.8608 458.818 46.8608 459.659C46.8608 460.5 48.4108 461.182 50.3229 461.182Z" fill="#24412D"/>
<path opacity="0.5" d="M381.153 468.107C383.142 468.107 384.754 467.487 384.754 466.722C384.754 465.957 383.142 465.337 381.153 465.337C379.165 465.337 377.553 465.957 377.553 466.722C377.553 467.487 379.165 468.107 381.153 468.107Z" fill="#24412D"/>
<path opacity="0.5" d="M323.546 434.594C325.534 434.594 327.146 433.974 327.146 433.21C327.146 432.445 325.534 431.825 323.546 431.825C321.557 431.825 319.945 432.445 319.945 433.21C319.945 433.974 321.557 434.594 323.546 434.594Z" fill="#24412D"/>
<path opacity="0.5" d="M389.462 465.337C392.063 465.337 394.171 464.407 394.171 463.26C394.171 462.113 392.063 461.183 389.462 461.183C386.862 461.183 384.754 462.113 384.754 463.26C384.754 464.407 386.862 465.337 389.462 465.337Z" fill="#24412D"/>
<path opacity="0.5" d="M85.0814 450.935C87.6817 450.935 89.7897 450.005 89.7897 448.858C89.7897 447.711 87.6817 446.781 85.0814 446.781C82.481 446.781 80.373 447.711 80.373 448.858C80.373 450.005 82.481 450.935 85.0814 450.935Z" fill="#24412D"/>
<path opacity="0.54" d="M358.996 457.305C363.432 457.305 367.028 455.879 367.028 454.12C367.028 452.361 363.432 450.935 358.996 450.935C354.561 450.935 350.965 452.361 350.965 454.12C350.965 455.879 354.561 457.305 358.996 457.305Z" fill="#294632"/>
<path opacity="0.54" d="M38.8288 467.553C43.2647 467.553 46.8607 466.127 46.8607 464.368C46.8607 462.609 43.2647 461.183 38.8288 461.183C34.3929 461.183 30.7969 462.609 30.7969 464.368C30.7969 466.127 34.3929 467.553 38.8288 467.553Z" fill="#294632"/>
<path d="M242.672 170.226C242.041 173.105 243.484 177.604 214.005 185.073C194.173 186.333 177.225 185.055 173.709 184.335C175.422 182.896 194.083 163.837 208.777 164.287C219.139 164.604 242.672 168.238 242.672 170.226Z" fill="#0A0A0A"/>
<path d="M242.485 170.111C231.506 168.132 224.217 164.532 206.67 168.132C186.953 172.176 178.954 182.53 173.644 183.97C171.304 177.04 187.953 162.732 204.748 159.893C220.561 155.361 241.582 166.958 242.485 170.111Z" fill="#89BEAA"/>
<path d="M217.94 174.845L199.184 178.561L206.631 191.26L213.389 219.795L201.484 258.923L191.672 287.428L193.32 303.038L216.418 296.748L219.215 267.463L220.992 251.897L227.628 235.937L225.936 220.861L217.159 183.805L217.94 174.845Z" fill="#141414"/>
<path d="M190.745 165.64C191.526 166.953 190.566 171.953 187.238 173.932C183.91 175.911 178.819 176.337 178.038 175.023C177.257 173.71 180.766 171.429 184.002 168.801C187.33 166.822 189.964 164.326 190.745 165.64Z" fill="#5A9F85"/>
<path d="M231.434 163.813C230.979 164.909 227.422 166.633 224.646 165.48C221.871 164.328 219.243 161.358 219.697 160.262C220.152 159.166 223.2 160.292 226.337 161.085C229.113 162.238 231.889 162.718 231.434 163.813Z" fill="#5A9F85"/>
<path d="M199.778 168.268C199.61 166.749 202.55 162.593 206.398 162.166C210.247 161.739 215.059 163.456 215.227 164.975C215.395 166.494 215.669 166.634 207.361 168.019C203.484 168.85 199.947 169.787 199.778 168.268Z" fill="#5A9F85"/>
<path d="M185.604 172.271C185.966 173.027 185.324 175.839 183.782 176.575C182.239 177.312 179.669 177.014 179.308 176.257C178.947 175.5 179.674 174.177 181.385 173.095C183.057 171.895 185.243 171.514 185.604 172.271Z" fill="white"/>
<path d="M209.096 160.001C209.132 161.111 207.227 164.169 205.317 164.23C203.407 164.291 200.9 162.547 200.865 161.437C200.829 160.327 202.655 160.131 204.892 159.742C207.14 159.19 209.061 158.891 209.096 160.001Z" fill="white"/>
<path d="M211.443 165.913C211.537 164.497 214.34 160.848 216.776 161.008C219.212 161.169 222.181 163.699 222.088 165.114C221.994 166.53 220.654 166.634 216.756 166.767C213.829 167.187 211.35 167.329 211.443 165.913Z" fill="white"/>
<path d="M191.431 168.985C191.207 168.261 192.622 165.683 194.55 165.086C196.478 164.49 199.318 164.915 199.542 165.64C199.766 166.364 198.617 167.553 196.414 168.462C194.225 169.481 191.655 169.71 191.431 168.985Z" fill="white"/>
<path d="M232.497 165.075C232.239 165.808 229.613 167.102 227.77 166.453C225.926 165.804 223.986 163.77 224.244 163.038C224.502 162.306 226.096 162.002 228.337 162.556C230.633 163.01 232.754 164.343 232.497 165.075Z" fill="white"/>
<path d="M200.082 173.071L209.926 178.409L206.398 181.412L200.082 173.071Z" fill="#141414"/>
<path d="M203.607 170.888L209.755 179.458L206.433 181.055L203.607 170.888Z" fill="#141414"/>
<path d="M196.113 175.198L207.557 178.649L204.838 181.892L196.113 175.198Z" fill="#141414"/>
<path d="M191.645 177.66L204.435 178.448L201.916 182.877L191.645 177.66Z" fill="#141414"/>
<path d="M214.879 170.097L206.782 177.499L210.837 179.542L214.879 170.097Z" fill="#141414"/>
<path d="M211.019 168.836L207.191 178.46L210.721 179.209L211.019 168.836Z" fill="#141414"/>
<path d="M219.147 171.201L209.087 177.174L212.43 179.635L219.147 171.201Z" fill="#141414"/>
<path d="M223.969 172.506L212.007 176.251L215.439 179.892L223.969 172.506Z" fill="#141414"/>
<path d="M326.637 362.565C328.623 366.47 328.235 373.48 373.426 373.177C402.42 367.559 426.314 359.373 431.1 357.02C428.098 355.592 394.122 335.174 373.158 341.326C358.375 345.664 325.892 359.706 326.637 362.565Z" fill="#181818"/>
<path d="M326.863 362.329C341.911 355.369 351.045 347.462 377.628 346.065C407.498 344.495 422.882 356.388 431.057 356.469C431.825 345.628 402.523 331.287 377.306 333.497C352.867 332.904 326.981 357.456 326.863 362.329Z" fill="#89BEAA"/>
<path d="M363.934 359.941L392.3 358.259L386.347 379.311L387.318 422.879L419.099 474.69L443.888 512.008L447.366 535.073L411.792 534.682L396.798 493.615L388.411 471.894L372.889 451.428L369.675 429.113L368.414 372.534L363.934 359.941Z" fill="#292727"/>
<path d="M340.397 349.132C341.462 350.537 347.222 351.683 350.782 348.986C354.343 346.289 357.01 341.033 355.945 339.628C354.88 338.223 350.919 340.982 346.705 343.299C343.144 345.996 339.333 347.726 340.397 349.132Z" fill="#5A9F85"/>
<path d="M387.59 343.678C387.263 341.431 381.478 336.555 375.784 337.383C370.09 338.211 363.813 342.482 364.139 344.729C364.466 346.977 364.126 347.282 376.593 346.16C382.479 345.903 387.917 345.926 387.59 343.678Z" fill="#5A9F85"/>
<path d="M371.094 335.281C371.459 336.891 375.343 340.575 378.113 339.947C380.883 339.319 383.835 335.873 383.47 334.263C383.105 332.653 380.405 333.056 377.043 333.334C373.603 333.383 370.729 333.671 371.094 335.281Z" fill="white"/>
<path d="M369.933 344.662C369.268 342.661 363.869 338.462 360.426 339.606C356.983 340.75 353.66 345.5 354.325 347.501C354.99 349.503 356.956 349.149 362.611 347.88C366.98 347.388 370.597 346.663 369.933 344.662Z" fill="white"/>
<path d="M399.863 341.583C399.914 340.457 396.913 337.28 393.917 337.145C390.921 337.01 386.996 338.684 386.946 339.81C386.895 340.936 388.992 342.216 392.501 342.697C396.03 343.343 399.813 342.709 399.863 341.583Z" fill="white"/>
<path d="M339.342 351.345C339.987 352.302 344.248 353.18 346.656 351.556C349.064 349.932 351.092 346.28 350.446 345.324C349.801 344.367 347.396 344.528 344.38 346.164C341.247 347.676 338.697 350.389 339.342 351.345Z" fill="white"/>
<path d="M388.954 350.699L376.798 362.064L382.996 365.06L388.954 350.699Z" fill="#292727"/>
<path d="M383.066 348.879L377.435 363.507L382.811 364.56L383.066 348.879Z" fill="#292727"/>
<path d="M395.458 352.271L380.293 361.521L385.417 365.166L395.458 352.271Z" fill="#292727"/>
<path d="M402.806 354.137L384.709 360.061L389.991 365.487L402.806 354.137Z" fill="#292727"/>
<path d="M366.56 351.967L380.977 359.578L375.91 364.035L366.56 351.967Z" fill="#292727"/>
<path d="M371.638 348.708L380.749 361.114L375.952 363.513L371.638 348.708Z" fill="#292727"/>
<path d="M360.836 355.152L377.541 359.974L373.656 364.766L360.836 355.152Z" fill="#292727"/>
<path d="M354.391 358.836L372.997 359.741L369.426 366.262L354.391 358.836Z" fill="#292727"/>
<path d="M31.7834 272.833C31.4639 274.783 30.7923 276.116 53.6669 282.038C71.5589 284.062 74.6173 283.656 78.1765 283.514C76.7303 281.826 73.3073 272.834 58.8428 270.918C48.6427 269.567 32.1028 270.882 31.7834 272.833Z" fill="#121212"/>
<path d="M31.6657 272.995C41.7237 271.922 38.1744 270.344 54.8748 272.445C73.3451 274.768 72.4756 280.677 78.176 283.514C74.9844 273.109 69.2033 272.978 56.1764 264.498C39.3451 268.178 32.1928 269.777 31.6657 272.995Z" fill="#B7D6D6"/>
<path d="M61.0405 278.531L46.0614 276.665L48.5199 290.776L44.0219 318.238L13.0445 337.937L7.61886 361.135L14.2071 367.962L20.8745 366.243L23.9669 347.363L44.1892 331.778L51.0295 323.107L56.8707 287.444L61.0405 278.531Z" fill="#1C1C1C"/>
<path d="M61.4544 268.405C61.0689 269.247 62.0456 272.459 64.1796 273.436C66.3136 274.412 69.7809 274.346 70.1664 273.503C70.5519 272.661 67.9176 271.507 65.7968 270.133C63.6628 269.157 61.8399 267.562 61.4544 268.405Z" fill="#8FB4B4"/>
<path d="M39.6648 269.017C39.9589 269.866 42.984 271.401 45.3331 270.588C47.6821 269.775 50.3329 267.313 50.0387 266.463C49.7446 265.614 46.8813 266.654 44.2624 267.184C41.7252 267.796 39.3706 268.167 39.6648 269.017Z" fill="#8FB4B4"/>
<path d="M58.5397 272.466C58.5767 271.787 56.8965 269.846 55.0181 269.744C53.1398 269.641 50.5784 270.608 50.5414 271.287C50.5045 271.967 51.422 272.007 54.7942 272.435C56.7469 272.732 58.5027 273.146 58.5397 272.466Z" fill="#8FB4B4"/>
<path d="M46.3424 267.76C46.7437 268.757 49.6228 270.723 51.3388 270.033C53.0549 269.342 54.5961 266.821 54.1948 265.823C53.7935 264.826 52.0992 265.365 49.9664 265.891C47.7592 266.279 45.941 266.762 46.3424 267.76Z" fill="white"/>
<path d="M62.6992 270.935C62.8382 270.274 61.4689 268.123 59.8032 267.773C58.1375 267.423 55.7742 268.06 55.6352 268.722C55.4962 269.384 56.5454 270.33 58.4643 270.931C60.3786 271.631 62.5601 271.597 62.6992 270.935Z" fill="white"/>
<path d="M37.8895 270.342C37.9359 269.829 39.4135 268.568 40.7051 268.684C41.9967 268.801 43.5761 269.793 43.5297 270.306C43.4833 270.819 42.5077 271.274 40.9757 271.284C39.4248 271.367 37.8431 270.855 37.8895 270.342Z" fill="white"/>
<path d="M73.0135 275.895C72.7132 276.314 70.8001 276.651 69.7463 275.895C68.6925 275.139 67.8345 273.483 68.1348 273.065C68.435 272.646 69.5066 272.749 70.8317 273.518C72.2103 274.233 73.3137 275.476 73.0135 275.895Z" fill="white"/>
<path d="M58.9088 274.967L51.9472 279.616L54.7796 281.61L58.9088 274.967Z" fill="#1C1C1C"/>
<path d="M56.1366 273.583L52.1482 280.385L54.731 281.346L56.1366 273.583Z" fill="#1C1C1C"/>
<path d="M62.0103 276.277L53.7279 279.632L55.9741 281.859L62.0103 276.277Z" fill="#1C1C1C"/>
<path d="M65.5041 277.803L56.0376 279.268L58.2167 282.392L65.5041 277.803Z" fill="#1C1C1C"/>
<path d="M47.6893 273.77L54.2249 278.724L51.3464 280.523L47.6893 273.77Z" fill="#1C1C1C"/>
<path d="M50.4762 272.566L53.9868 279.467L51.4103 280.267L50.4762 272.566Z" fill="#1C1C1C"/>
<path d="M44.5876 274.884L52.4863 278.64L50.1669 280.702L44.5876 274.884Z" fill="#1C1C1C"/>
<path d="M41.0879 276.187L50.2497 278.154L47.9451 281.099L41.0879 276.187Z" fill="#1C1C1C"/>
<path d="M279.253 204.715L289.015 213.832L284.041 216.24L279.253 204.715Z" fill="#252424"/>
<path d="M283.977 203.252L288.502 214.991L284.188 215.838L283.977 203.252Z" fill="#252424"/>
<path d="M274.032 205.98L286.208 213.397L282.097 216.325L274.032 205.98Z" fill="#252424"/>
<path d="M268.137 207.481L282.665 212.228L278.429 216.585L268.137 207.481Z" fill="#252424"/>
<path d="M297.229 205.723L285.66 211.838L289.729 215.413L297.229 205.723Z" fill="#252424"/>
<path d="M293.152 203.109L285.844 213.071L289.695 214.994L293.152 203.109Z" fill="#252424"/>
<path d="M301.826 208.277L288.42 212.155L291.541 215.999L301.826 208.277Z" fill="#252424"/>
<path d="M307.002 211.232L292.069 211.966L294.938 217.198L307.002 211.232Z" fill="#252424"/>
<path d="M97.8525 158.751L103.808 165.485L100.321 166.779L97.8525 158.751Z" fill="#141414"/>
<path d="M101.111 158.074L103.39 166.229L100.445 166.52L101.111 158.074Z" fill="#141414"/>
<path d="M94.2734 159.263L101.955 165.014L99.0129 166.712L94.2734 159.263Z" fill="#141414"/>
<path d="M90.227 159.891L99.6556 164.003L96.5376 166.65L90.227 159.891Z" fill="#141414"/>
<path d="M109.828 160.579L101.686 163.934L104.182 166.59L109.828 160.579Z" fill="#141414"/>
<path d="M107.265 158.567L101.73 164.772L104.186 166.307L107.265 158.567Z" fill="#141414"/>
<path d="M112.743 162.585L103.513 164.323L105.357 167.099L112.743 162.585Z" fill="#141414"/>
<path d="M116.021 164.897L105.969 164.43L107.555 168.12L116.021 164.897Z" fill="#141414"/>
<path d="M335.816 210.394C335.816 215.442 309.836 203.924 283.332 203.331C252.367 202.639 230.848 205.887 230.848 200.839C230.848 195.791 260.51 184.014 285.825 184.014C311.14 184.014 335.816 205.346 335.816 210.394Z" fill="#B7D6D6"/>
<path d="M266.13 187.587C266.78 190.504 261.945 199.208 254.554 200.853C247.163 202.498 237.445 200.182 236.795 197.265C236.146 194.347 244.057 192.253 251.674 189.345C259.065 187.699 265.481 184.669 266.13 187.587Z" fill="#8FB4B4"/>
<path d="M271.584 201.284C271.76 198.3 278.799 191.259 286.358 191.706C293.916 192.153 303.227 201.04 303.05 204.024C302.772 206.24 296.265 203.994 287.401 203.47C279.842 203.023 271.407 204.267 271.584 201.284Z" fill="#8FB4B4"/>
<path d="M284.756 189.084C284.934 191.349 280.58 197.836 275.964 198.199C271.347 198.562 265.137 195.312 264.959 193.047C264.781 190.782 267.907 188.143 273.284 187.068C278.679 185.66 284.578 186.82 284.756 189.084Z" fill="white"/>
<path d="M329.866 205.48C327.813 207.653 318.365 209.813 314.626 206.282C310.888 202.75 309.464 194.658 311.517 192.486C313.57 190.313 318.147 193.707 323.13 197.238C328.446 200.486 331.918 203.308 329.866 205.48Z" fill="#8FB4B4"/>
<path d="M309.933 191.53C308.865 193.747 301.992 197.798 298.179 195.961C294.366 194.123 291.231 188.132 292.299 185.916C293.367 183.699 297.153 185.187 301.942 186.714C306.923 187.935 311.001 189.314 309.933 191.53Z" fill="white"/>
<path d="M319.74 205.219C320.38 203.734 324.78 200.884 327.335 201.985C329.889 203.086 332.114 206.934 331.474 208.418C330.834 209.903 328.329 210.672 325.142 209.802C321.838 209.138 319.1 206.704 319.74 205.219Z" fill="white"/>
<path d="M238.469 198.912C238.826 197.335 243.946 194.026 247.915 194.926C251.884 195.826 256.385 199.566 256.028 201.143C255.67 202.72 252.447 203.73 247.677 203.123C242.819 202.737 238.111 200.489 238.469 198.912Z" fill="white"/>
<path d="M244.762 294.503L245.035 294.917L245.498 295.114L245.067 295.394L244.85 295.856L244.579 295.44L244.115 295.24L244.548 294.962L244.762 294.503Z" fill="#FFF5BF"/>
<path d="M253.032 285.619L253.077 286.014L253.337 286.323L252.927 286.368L252.604 286.62L252.561 286.223L252.301 285.912L252.712 285.87L253.032 285.619Z" fill="#FFF5BF"/>
<path d="M254.168 287.82L254.385 287.858L254.589 287.768L254.548 287.993L254.631 288.203L254.415 288.164L254.209 288.253L254.251 288.029L254.168 287.82Z" fill="#FFF5BF"/>
<path d="M251.596 288.024L251.919 288.08L252.222 287.947L252.162 288.281L252.285 288.594L251.963 288.535L251.657 288.668L251.72 288.334L251.596 288.024Z" fill="#FFF5BF"/>
<path d="M242.507 296.144L242.553 296.539L242.812 296.848L242.402 296.893L242.08 297.144L242.037 296.748L241.777 296.437L242.187 296.395L242.507 296.144Z" fill="#FFF5BF"/>
<path d="M243.643 298.344L243.86 298.381L244.064 298.292L244.024 298.517L244.107 298.727L243.89 298.688L243.685 298.777L243.726 298.553L243.643 298.344Z" fill="#FFF5BF"/>
<path d="M241.072 298.548L241.394 298.604L241.698 298.472L241.638 298.805L241.761 299.118L241.439 299.06L241.133 299.192L241.195 298.859L241.072 298.548Z" fill="#FFF5BF"/>
<path d="M267.196 271.03L267.469 271.445L267.931 271.641L267.501 271.922L267.284 272.384L267.013 271.968L266.549 271.768L266.981 271.49L267.196 271.03Z" fill="#FFF5BF"/>
<path d="M264.941 272.671L264.987 273.066L265.246 273.374L264.836 273.419L264.514 273.671L264.471 273.275L264.211 272.964L264.621 272.922L264.941 272.671Z" fill="#FFF5BF"/>
<path d="M266.077 274.871L266.294 274.909L266.498 274.82L266.458 275.044L266.54 275.255L266.324 275.215L266.118 275.305L266.16 275.08L266.077 274.871Z" fill="#FFF5BF"/>
<path d="M263.505 275.075L263.828 275.132L264.131 274.999L264.071 275.333L264.195 275.646L263.872 275.587L263.566 275.719L263.629 275.386L263.505 275.075Z" fill="#FFF5BF"/>
<path d="M259.361 284.204L257.284 283.236L255.312 284.389L255.591 282.127L253.881 280.605L256.125 280.171L257.043 278.075L258.155 280.075L260.429 280.301L258.86 281.974L259.361 284.204Z" fill="#FFF5BF"/>
<path d="M271.164 271.091L270.242 270.661L269.367 271.173L269.491 270.169L268.732 269.494L269.728 269.301L270.136 268.37L270.629 269.258L271.638 269.359L270.942 270.101L271.164 271.091Z" fill="#FFF5BF"/>
<path d="M294.715 251.877L294.417 252.2L294.346 252.639L294.013 252.328L293.57 252.24L293.871 251.919L293.944 251.478L294.274 251.79L294.715 251.877Z" fill="#FFF5BF"/>
<path d="M292.826 250.288L292.496 250.411L292.286 250.7L292.161 250.357L291.876 250.133L292.207 250.012L292.419 249.723L292.542 250.066L292.826 250.288Z" fill="#FFF5BF"/>
<path d="M291.176 251.732L291.19 251.926L291.31 252.082L291.109 252.095L290.945 252.211L290.933 252.017L290.813 251.859L291.015 251.847L291.176 251.732Z" fill="#FFF5BF"/>
<path d="M290.455 249.565L290.475 249.854L290.654 250.087L290.355 250.106L290.112 250.279L290.094 249.989L289.915 249.754L290.215 249.737L290.455 249.565Z" fill="#FFF5BF"/>
<path d="M295.507 255.3L295.681 254.416L295.055 253.773L295.944 253.666L296.363 252.87L296.741 253.685L297.627 253.838L296.969 254.451L297.096 255.339L296.311 254.899L295.507 255.3Z" fill="#FFF5BF"/>
<path d="M217.063 323.426L217.475 323.704L217.977 323.708L217.687 324.133L217.664 324.642L217.254 324.362L216.749 324.355L217.042 323.933L217.063 323.426Z" fill="#FFF5BF"/>
<path d="M192.098 368.181L192.102 367.783L191.884 367.444L192.296 367.451L192.648 367.242L192.641 367.641L192.859 367.982L192.447 367.972L192.098 368.181Z" fill="#FFF5BF"/>
<path d="M191.249 365.855L191.039 365.79L190.825 365.852L190.894 365.635L190.838 365.416L191.048 365.482L191.263 365.42L191.193 365.637L191.249 365.855Z" fill="#FFF5BF"/>
<path d="M193.827 365.978L193.514 365.881L193.196 365.974L193.298 365.651L193.216 365.325L193.528 365.424L193.848 365.331L193.744 365.654L193.827 365.978Z" fill="#FFF5BF"/>
<path d="M184.707 369.25L186.23 368.876L186.788 367.415L187.609 368.742L189.173 368.82L188.163 370.014L188.572 371.526L187.121 370.936L185.812 371.79L185.931 370.225L184.707 369.25Z" fill="#FFF5BF"/>
<path d="M197.525 356.781L197.152 356.453L196.655 356.385L196.996 356.001L197.084 355.498L197.454 355.828L197.955 355.898L197.611 356.281L197.525 356.781Z" fill="#FFF5BF"/>
<path d="M215.609 325.807L215.803 326.154L216.161 326.339L215.8 326.538L215.599 326.895L215.407 326.545L215.048 326.358L215.41 326.161L215.609 325.807Z" fill="#FFF5BF"/>
<path d="M217.503 327.402L217.718 327.354L217.872 327.193L217.921 327.416L218.078 327.579L217.863 327.625L217.707 327.786L217.66 327.563L217.503 327.402Z" fill="#FFF5BF"/>
<path d="M201.566 349.183L201.978 349.461L202.48 349.465L202.19 349.89L202.167 350.4L201.757 350.119L201.252 350.113L201.545 349.69L201.566 349.183Z" fill="#FFF5BF"/>
<path d="M200.112 351.564L200.306 351.912L200.664 352.097L200.303 352.296L200.102 352.652L199.91 352.303L199.551 352.115L199.913 351.919L200.112 351.564Z" fill="#FFF5BF"/>
<path d="M202.006 353.16L202.221 353.112L202.375 352.951L202.424 353.174L202.581 353.336L202.366 353.383L202.21 353.544L202.163 353.321L202.006 353.16Z" fill="#FFF5BF"/>
<path d="M215.207 328.578L215.526 328.506L215.756 328.267L215.828 328.598L216.062 328.84L215.742 328.91L215.51 329.149L215.44 328.817L215.207 328.578Z" fill="#FFF5BF"/>
<path d="M209.516 334.956L207.227 334.858L205.848 336.68L205.237 334.484L203.075 333.735L204.981 332.472L205.024 330.184L206.818 331.605L209.004 330.942L208.198 333.088L209.516 334.956Z" fill="#FFF5BF"/>
<path d="M203.807 343.364L202.672 344.446L202.915 345.99L201.543 345.249L200.147 345.959L200.429 344.42L199.322 343.312L200.874 343.103L201.585 341.71L202.26 343.127L203.807 343.364Z" fill="#FFF5BF"/>
<path d="M363.892 330.481L364.083 330.023L363.989 329.53L364.462 329.731L364.967 329.654L364.771 330.111L364.864 330.607L364.393 330.403L363.892 330.481Z" fill="#FFF5BF"/>
<path d="M373.044 327.097L372.912 327.576L373.068 328.053L372.573 327.913L372.083 328.054L372.218 327.576L372.063 327.095L372.557 327.238L373.044 327.097Z" fill="#FFF5BF"/>
<path d="M370.324 326.476L370.056 326.77L369.994 327.169L369.691 326.89L369.289 326.812L369.559 326.519L369.623 326.119L369.924 326.4L370.324 326.476Z" fill="#FFF5BF"/>
<path d="M369.416 328.779L369.53 328.967L369.731 329.063L369.536 329.18L369.431 329.381L369.319 329.191L369.116 329.095L369.313 328.979L369.416 328.779Z" fill="#FFF5BF"/>
<path d="M389.064 330.106L388.428 327.905L386.262 327.177L388.15 325.9L388.172 323.611L389.975 325.016L392.158 324.329L391.382 326.482L392.707 328.344L390.415 328.262L389.064 330.106Z" fill="#FFF5BF"/>
<path d="M379.274 327.369L377.887 326.638L376.5 327.36L376.767 325.823L375.649 324.725L377.198 324.504L377.896 323.102L378.588 324.506L380.135 324.737L379.006 325.828L379.274 327.369Z" fill="#FFF5BF"/>
<path d="M441.968 191.032C441.968 194.091 430.475 192.253 391.423 189.76C364.696 192.115 337 181.187 337 178.128C339.631 175.912 374.944 171.066 397.516 171.758C413.434 172.246 441.968 187.973 441.968 191.032Z" fill="#181818"/>
<path d="M383.945 182.144L406.794 183.113L403.194 194.745L401.948 206.516L403.194 224.657L404.44 242.798L415.103 290.574L428.536 325.333L430.198 346.52L410.256 345.274L402.363 307.33L397.932 287.251L395.162 253.877L391.146 240.998L389.484 227.842L386.576 199.731L383.945 182.144Z" fill="#292929"/>
<path d="M438.922 186.714C423.827 182.559 417.18 171.758 392.531 173.42C361.216 175.531 339.908 181.867 337 178.058C349.74 170.65 370.512 163.726 392.531 154.032C417.318 163.864 438.922 181.666 438.922 186.714Z" fill="#89BEAA"/>
<path d="M354.401 176.308C354.295 174.204 358.685 168.731 364.015 168.464C369.344 168.197 375.821 170.958 375.926 173.061C376.031 175.165 376.396 175.381 364.852 176.595C359.45 177.416 354.506 178.411 354.401 176.308Z" fill="#5A9F85"/>
<path d="M387.824 156.941C388.253 158.354 385.787 163.627 382.205 164.714C378.624 165.801 373.159 165.002 372.73 163.588C372.301 162.174 372.604 162.109 380.255 159.322C383.792 157.846 387.395 155.527 387.824 156.941Z" fill="#5A9F85"/>
<path d="M385.468 158.879C385.978 161.178 382.835 169.248 378.879 170.124C374.923 171.001 369.016 168.351 368.506 166.052C367.997 163.752 371.726 162.629 376.232 160.94C380.702 158.909 384.959 156.579 385.468 158.879Z" fill="white"/>
<path d="M353.893 174.698C353.844 173.591 356.628 170.476 359.414 170.351C362.2 170.226 365.853 171.882 365.903 172.989C365.952 174.096 364.005 175.348 360.743 175.812C357.462 176.437 353.943 175.805 353.893 174.698Z" fill="white"/>
<path d="M388.048 175.952L397.395 184.68L392.633 186.986L388.048 175.952Z" fill="#292929"/>
<path d="M383.05 177.162L394.707 184.264L390.771 187.067L383.05 177.162Z" fill="#292929"/>
<path d="M377.407 178.6L391.315 183.145L387.259 187.317L377.407 178.6Z" fill="#292929"/>
<path d="M367.792 156.069L367.983 155.611L367.889 155.118L368.362 155.319L368.867 155.242L368.672 155.698L368.764 156.195L368.293 155.991L367.792 156.069Z" fill="#FFF5BF"/>
<path d="M376.888 152.497L376.756 152.975L376.911 153.453L376.417 153.313L375.926 153.453L376.062 152.976L375.907 152.495L376.401 152.638L376.888 152.497Z" fill="#FFF5BF"/>
<path d="M374.168 151.876L373.9 152.17L373.838 152.569L373.535 152.289L373.133 152.212L373.403 151.919L373.466 151.519L373.768 151.8L374.168 151.876Z" fill="#FFF5BF"/>
<path d="M373.259 154.18L373.374 154.368L373.575 154.463L373.379 154.58L373.275 154.781L373.163 154.592L372.96 154.496L373.157 154.38L373.259 154.18Z" fill="#FFF5BF"/>
<path d="M383.574 154.032L384.21 151.83L386.376 151.103L384.488 149.825L384.466 147.537L382.663 148.942L380.48 148.255L381.256 150.408L379.931 152.269L382.223 152.188L383.574 154.032Z" fill="#FFF5BF"/>
<path d="M124.123 150.829L124.027 150.342L124.218 149.878L123.714 149.98L123.235 149.804L123.335 150.29L123.145 150.758L123.648 150.652L124.123 150.829Z" fill="#FFF5BF"/>
<path d="M115.832 145.684L115.866 146.179L115.618 146.616L116.13 146.578L116.583 146.813L116.545 146.318L116.793 145.878L116.281 145.919L115.832 145.684Z" fill="#FFF5BF"/>
<path d="M118.621 145.619L118.825 145.961L118.805 146.364L119.158 146.151L119.568 146.155L119.361 145.815L119.38 145.41L119.028 145.625L118.621 145.619Z" fill="#FFF5BF"/>
<path d="M119.051 148.058L118.901 148.219L118.685 148.272L118.853 148.426L118.915 148.644L119.063 148.481L119.281 148.427L119.111 148.274L119.051 148.058Z" fill="#FFF5BF"/>
<path d="M83.6628 144.27L83.9422 143.86L83.9487 143.358L84.3719 143.649L84.8815 143.675L84.599 144.083L84.5907 144.588L84.1693 144.294L83.6628 144.27Z" fill="#FFF5BF"/>
<path d="M93.29 142.589L93.0647 143.032L93.1218 143.531L92.6651 143.295L92.1563 143.334L92.3849 142.893L92.3292 142.391L92.7845 142.63L93.29 142.589Z" fill="#FFF5BF"/>
<path d="M90.7484 141.437L90.427 141.672L90.2871 142.05L90.0456 141.715L89.6672 141.559L89.9906 141.326L90.1326 140.947L90.372 141.283L90.7484 141.437Z" fill="#FFF5BF"/>
<path d="M89.3982 143.513L89.4723 143.72L89.6506 143.853L89.4356 143.929L89.2935 144.105L89.2208 143.897L89.0418 143.762L89.2575 143.688L89.3982 143.513Z" fill="#FFF5BF"/>
<path d="M109.673 144.705L111.178 144.265L112.393 145.251L112.439 143.691L113.753 142.839L112.28 142.312L111.877 140.799L110.917 142.037L109.356 141.954L110.243 143.248L109.673 144.705Z" fill="#FFF5BF"/>
<path d="M57.7497 97.3575L57.629 96.8761L57.7961 96.4025L57.2984 96.5302L56.8112 96.3783L56.9355 96.8591L56.7689 97.3362L57.2662 97.2051L57.7497 97.3575Z" fill="#FFF5BF"/>
<path d="M49.2107 92.6362L49.2695 93.1291L49.0438 93.5777L49.5538 93.5141L50.0178 93.7264L49.9553 93.2337L50.1809 92.7815L49.6711 92.8487L49.2107 92.6362Z" fill="#FFF5BF"/>
<path d="M51.9922 92.4307L52.2128 92.7622L52.2137 93.1651L52.5557 92.9348L52.9647 92.9187L52.7416 92.5886L52.7393 92.1833L52.3987 92.416L51.9922 92.4307Z" fill="#FFF5BF"/>
<path d="M52.5457 94.8445L52.4046 95.0134L52.1912 95.0771L52.3669 95.2223L52.4396 95.4366L52.5796 95.2665L52.7941 95.2017L52.6173 95.0577L52.5457 94.8445Z" fill="#FFF5BF"/>
<path d="M33.2424 95.9011L33.5008 95.4773L33.4821 94.9754L33.9194 95.2454L34.4297 95.2452L34.168 95.6674L34.1852 96.1724L33.7494 95.8993L33.2424 95.9011Z" fill="#FFF5BF"/>
<path d="M42.7729 93.7392L42.5702 94.1922L42.6523 94.6877L42.1843 94.4753L41.6781 94.54L41.8843 94.0881L41.8034 93.5894L42.2702 93.8051L42.7729 93.7392Z" fill="#FFF5BF"/>
<path d="M40.1761 92.7157L39.8669 92.9665L39.7462 93.3509L39.4882 93.0294L39.1024 92.8923L39.4137 92.6436L39.5364 92.2572L39.7924 92.5808L40.1761 92.7157Z" fill="#FFF5BF"/>
<path d="M38.9326 94.8567L39.017 95.06L39.2018 95.1842L38.9909 95.2706L38.8578 95.4535L38.7747 95.2495L38.5892 95.1239L38.8009 95.0389L38.9326 94.8567Z" fill="#FFF5BF"/>
<path d="M42.1126 262.801L42.3028 262.465L42.2756 262.076L42.6222 262.275L43.0187 262.262L42.8259 262.596L42.8519 262.988L42.5065 262.787L42.1126 262.801Z" fill="#FFF5BF"/>
<path d="M49.4895 261.032L49.3433 261.39L49.4195 261.773L49.0506 261.619L48.6589 261.682L48.8078 261.326L48.7324 260.94L49.1005 261.096L49.4895 261.032Z" fill="#FFF5BF"/>
<path d="M47.4468 260.302L47.2128 260.505L47.1286 260.806L46.9201 260.563L46.617 260.466L46.8526 260.265L46.9383 259.962L47.1453 260.207L47.4468 260.302Z" fill="#FFF5BF"/>
<path d="M46.5332 261.998L46.6037 262.153L46.7501 262.245L46.5887 262.317L46.4901 262.462L46.4207 262.306L46.2737 262.213L46.4356 262.142L46.5332 261.998Z" fill="#FFF5BF"/>
<path d="M73.5734 267.857L73.4675 267.486L73.5855 267.114L73.2019 267.225L72.8196 267.12L72.9282 267.49L72.8107 267.865L73.1938 267.751L73.5734 267.857Z" fill="#FFF5BF"/>
<path d="M66.8806 264.262L66.9386 264.644L66.7745 264.998L67.1691 264.936L67.535 265.089L67.4741 264.708L67.6381 264.351L67.2436 264.416L66.8806 264.262Z" fill="#FFF5BF"/>
<path d="M69.0376 264.033L69.2173 264.285L69.2281 264.598L69.4881 264.411L69.8055 264.388L69.6238 264.137L69.6119 263.822L69.3531 264.012L69.0376 264.033Z" fill="#FFF5BF"/>
<path d="M69.5266 265.896L69.4215 266.03L69.2577 266.085L69.3975 266.193L69.4592 266.357L69.5634 266.222L69.7281 266.166L69.5874 266.059L69.5266 265.896Z" fill="#FFF5BF"/>
<path d="M61.3631 264.998L61.1734 263.84L60.1162 263.339L61.1535 262.804L61.3036 261.642L62.135 262.466L63.2864 262.249L62.7615 263.297L63.3219 264.323L62.1618 264.143L61.3631 264.998Z" fill="#FFF5BF"/>
<path d="M38.7172 264.858L37.7139 264.165L36.5767 264.595L36.9241 263.433L36.1626 262.483L37.3784 262.455L38.0462 261.437L38.4517 262.585L39.6241 262.906L38.6526 263.644L38.7172 264.858Z" fill="#FFF5BF"/>
<path d="M186.496 162.008L186.602 161.523L186.42 161.055L186.922 161.167L187.404 161L187.295 161.485L187.476 161.956L186.975 161.841L186.496 162.008Z" fill="#FFF5BF"/>
<path d="M194.883 157.02L194.84 157.515L195.08 157.956L194.568 157.909L194.111 158.135L194.158 157.641L193.918 157.196L194.43 157.247L194.883 157.02Z" fill="#FFF5BF"/>
<path d="M192.096 156.903L191.886 157.242L191.897 157.644L191.548 157.425L191.139 157.422L191.352 157.085L191.341 156.68L191.689 156.902L192.096 156.903Z" fill="#FFF5BF"/>
<path d="M191.62 159.334L191.767 159.498L191.982 159.555L191.811 159.706L191.745 159.922L191.6 159.756L191.383 159.698L191.556 159.549L191.62 159.334Z" fill="#FFF5BF"/>
<path d="M227.073 156.213L226.802 155.797L226.804 155.295L226.376 155.578L225.866 155.594L226.141 156.008L226.139 156.513L226.566 156.227L227.073 156.213Z" fill="#FFF5BF"/>
<path d="M217.479 154.351L217.696 154.797L217.63 155.295L218.091 155.068L218.599 155.117L218.379 154.672L218.444 154.171L217.984 154.401L217.479 154.351Z" fill="#FFF5BF"/>
<path d="M208.634 155.393L210.615 155.31L212.332 156.347L212.235 154.297L213.223 152.514L211.242 152.611L209.511 151.574L209.621 153.625L208.634 155.393Z" fill="#FFF5BF"/>
<path d="M80.5575 147.361L78.5768 147.278L76.8596 148.315L76.9565 146.265L75.9686 144.482L77.9498 144.58L79.6811 143.542L79.5702 145.593L80.5575 147.361Z" fill="#FFF5BF"/>
<path d="M285.287 176.736L286.314 178.431L286.233 180.436L287.983 179.363L290.021 179.37L288.981 177.681L289.056 175.664L287.312 176.749L285.287 176.736Z" fill="#FFF5BF"/>
<path d="M220.042 153.246L220.359 153.487L220.492 153.868L220.739 153.538L221.121 153.389L220.802 153.15L220.667 152.768L220.421 153.1L220.042 153.246Z" fill="#FFF5BF"/>
<path d="M221.353 155.347L221.275 155.553L221.094 155.683L221.308 155.763L221.447 155.941L221.523 155.735L221.705 155.603L221.491 155.525L221.353 155.347Z" fill="#FFF5BF"/>
<path d="M182.41 163.488L181.58 163.229L180.896 163.762L180.887 162.897L180.167 162.411L180.99 162.134L181.229 161.3L181.748 161.996L182.615 161.966L182.109 162.675L182.41 163.488Z" fill="#FFF5BF"/>
<path d="M203.182 157.395L202.352 157.135L201.669 157.669L201.659 156.804L200.94 156.318L201.762 156.041L202.001 155.207L202.52 155.903L203.387 155.873L202.881 156.581L203.182 157.395Z" fill="#FFF5BF"/>
<path d="M308.216 184.784L308.08 184.306L308.231 183.828L307.738 183.971L307.246 183.835L307.386 184.312L307.235 184.794L307.727 184.647L308.216 184.784Z" fill="#FFF5BF"/>
<path d="M299.528 180.339L299.603 180.83L299.392 181.286L299.899 181.206L300.37 181.403L300.292 180.913L300.503 180.453L299.995 180.537L299.528 180.339Z" fill="#FFF5BF"/>
<path d="M302.303 180.045L302.534 180.369L302.548 180.772L302.882 180.53L303.291 180.501L303.057 180.178L303.042 179.773L302.709 180.017L302.303 180.045Z" fill="#FFF5BF"/>
<path d="M302.932 182.44L302.797 182.613L302.585 182.684L302.766 182.823L302.845 183.035L302.98 182.86L303.192 182.789L303.011 182.65L302.932 182.44Z" fill="#FFF5BF"/>
<path d="M267.353 181.581L267.597 181.149L267.562 180.648L268.008 180.904L268.518 180.888L268.27 181.318L268.304 181.822L267.859 181.563L267.353 181.581Z" fill="#FFF5BF"/>
<path d="M276.808 179.113L276.62 179.572L276.718 180.065L276.244 179.868L275.74 179.949L275.931 179.49L275.834 178.994L276.308 179.195L276.808 179.113Z" fill="#FFF5BF"/>
<path d="M274.181 178.174L273.88 178.434L273.771 178.823L273.503 178.509L273.113 178.385L273.416 178.126L273.527 177.736L273.793 178.051L274.181 178.174Z" fill="#FFF5BF"/>
<path d="M273.006 180.353L273.097 180.554L273.285 180.672L273.077 180.765L272.95 180.952L272.861 180.751L272.671 180.631L272.88 180.54L273.006 180.353Z" fill="#FFF5BF"/>
<path d="M258.373 185.211L259.265 183.1L261.502 182.635L259.779 181.142L260.028 178.867L258.072 180.048L255.986 179.108L256.501 181.337L254.965 183.029L257.25 183.219L258.373 185.211Z" fill="#FFF5BF"/>
<path d="M349.551 160.403C349.551 163.047 350.149 164.951 318.673 167.823C294.617 166.626 290.668 165.43 286 164.472C288.274 162.557 294.737 151.427 314.245 152.025C328.002 152.447 349.551 157.759 349.551 160.403Z" fill="#121212"/>
<path d="M349.67 160.642C336.625 157.052 341.652 155.736 319.152 154.898C294.268 153.971 294.138 161.959 286 164.472C292.463 151.427 300.122 152.504 319.152 144.126C340.575 152.624 349.67 156.28 349.67 160.642Z" fill="#B7D6D6"/>
<path d="M309.698 161.6L329.875 162.375L323.579 180.47V217.694L360.212 250.395L362.358 282.191L352.185 289.778L343.755 286.068V260.477L320.431 235.531L313.276 222.606V174.266L309.698 161.6Z" fill="#1C1C1C"/>
<path d="M311.342 148.142C311.669 149.337 309.685 153.366 306.657 154.194C303.629 155.022 299.066 154.184 298.739 152.989C298.413 151.794 302.14 150.84 305.236 149.485C308.264 148.657 311.015 146.947 311.342 148.142Z" fill="#8FB4B4"/>
<path d="M339.971 153.661C339.399 154.719 335.074 156.092 332.149 154.51C329.224 152.929 326.257 149.106 326.829 148.048C327.401 146.99 330.956 148.981 334.298 150.247C337.515 151.604 340.543 152.603 339.971 153.661Z" fill="#8FB4B4"/>
<path d="M314.31 154.134C314.408 153.229 317.046 151.03 319.548 151.302C322.049 151.573 325.221 153.402 325.123 154.307C325.025 155.212 323.805 155.066 319.261 154.903C316.619 154.873 314.212 155.039 314.31 154.134Z" fill="#8FB4B4"/>
<path d="M331.429 150.558C330.683 151.788 326.457 153.761 324.341 152.478C322.225 151.196 320.736 147.534 321.482 146.304C322.227 145.074 324.347 146.152 327.049 147.308C329.878 148.297 332.174 149.328 331.429 150.558Z" fill="white"/>
<path d="M309.151 151.214C309.11 150.31 311.383 147.767 313.657 147.666C315.932 147.564 318.913 148.916 318.954 149.819C318.994 150.723 317.405 151.745 314.742 152.123C312.063 152.634 309.191 152.117 309.151 151.214Z" fill="white"/>
<path d="M342.029 155.794C342.078 155.107 340.4 153.122 338.67 152.997C336.94 152.872 334.641 153.84 334.591 154.527C334.541 155.215 335.731 156.026 337.751 156.37C339.78 156.815 341.979 156.481 342.029 155.794Z" fill="white"/>
<path d="M294.463 155.531C294.769 156.149 297.222 157.008 298.776 156.238C300.331 155.468 301.821 153.467 301.516 152.85C301.21 152.232 299.773 152.136 297.857 152.865C295.883 153.511 294.158 154.914 294.463 155.531Z" fill="white"/>
<path d="M313.282 157.355L321.466 164.998L317.296 167.017L313.282 157.355Z" fill="#1C1C1C"/>
<path d="M317.243 156.129L321.037 165.97L317.42 166.68L317.243 156.129Z" fill="#1C1C1C"/>
<path d="M308.905 158.415L319.113 164.634L315.666 167.088L308.905 158.415Z" fill="#1C1C1C"/>
<path d="M303.963 159.674L316.142 163.654L312.59 167.307L303.963 159.674Z" fill="#1C1C1C"/>
<path d="M328.352 158.2L318.653 163.327L322.064 166.324L328.352 158.2Z" fill="#1C1C1C"/>
<path d="M324.933 156.009L318.807 164.36L322.035 165.973L324.933 156.009Z" fill="#1C1C1C"/>
<path d="M332.205 160.342L320.966 163.592L323.582 166.815L332.205 160.342Z" fill="#1C1C1C"/>
<path d="M336.544 162.818L324.024 163.433L326.43 167.82L336.544 162.818Z" fill="#1C1C1C"/>
<path d="M334.487 148.092L334.377 147.709L334.499 147.324L334.103 147.44L333.708 147.33L333.821 147.713L333.699 148.1L334.095 147.982L334.487 148.092Z" fill="#FFF5BF"/>
<path d="M327.514 144.524L327.574 144.918L327.404 145.284L327.812 145.22L328.189 145.378L328.126 144.985L328.296 144.616L327.888 144.683L327.514 144.524Z" fill="#FFF5BF"/>
<path d="M329.74 144.289L329.926 144.549L329.937 144.872L330.206 144.678L330.533 144.655L330.346 144.396L330.333 144.071L330.066 144.266L329.74 144.289Z" fill="#FFF5BF"/>
<path d="M330.245 146.21L330.136 146.349L329.967 146.406L330.111 146.518L330.175 146.688L330.283 146.548L330.454 146.49L330.308 146.379L330.245 146.21Z" fill="#FFF5BF"/>
<path d="M301.687 145.521L301.883 145.174L301.855 144.772L302.213 144.977L302.622 144.964L302.423 145.31L302.45 145.714L302.094 145.507L301.687 145.521Z" fill="#FFF5BF"/>
<path d="M309.278 143.54L309.127 143.909L309.205 144.304L308.825 144.146L308.42 144.211L308.574 143.843L308.496 143.445L308.876 143.606L309.278 143.54Z" fill="#FFF5BF"/>
<path d="M307.168 142.786L306.927 142.996L306.84 143.307L306.625 143.056L306.312 142.956L306.555 142.748L306.643 142.435L306.857 142.688L307.168 142.786Z" fill="#FFF5BF"/>
<path d="M306.226 144.536L306.299 144.696L306.45 144.791L306.283 144.866L306.181 145.016L306.109 144.855L305.957 144.759L306.125 144.685L306.226 144.536Z" fill="#FFF5BF"/>
<path d="M297.966 150.156L298.351 149.245L299.318 149.044L298.573 148.399L298.681 147.417L297.836 147.927L296.935 147.521L297.157 148.484L296.494 149.214L297.481 149.296L297.966 150.156Z" fill="#FFF5BF"/>
<path d="M338.336 150.907L339.511 150.456L340.548 151.163L340.481 149.913L341.476 149.144L340.263 148.82L339.84 147.637L339.155 148.69L337.9 148.727L338.696 149.704L338.336 150.907Z" fill="#FFF5BF"/>
<path d="M190.519 373.715L190.146 373.387L189.649 373.319L189.99 372.935L190.077 372.432L190.448 372.763L190.949 372.832L190.605 373.215L190.519 373.715Z" fill="#FFF5BF"/>
<path d="M185.974 382.804L186.385 383.081L186.888 383.086L186.598 383.51L186.575 384.02L186.165 383.739L185.66 383.733L185.952 383.31L185.974 382.804Z" fill="#FFF5BF"/>
<path d="M184.52 385.184L184.714 385.532L185.072 385.717L184.711 385.916L184.509 386.272L184.318 385.923L183.959 385.735L184.321 385.539L184.52 385.184Z" fill="#FFF5BF"/>
<path d="M188.215 376.983L187.079 378.065L187.323 379.61L185.95 378.868L184.555 379.578L184.837 378.04L183.73 376.932L185.282 376.722L185.993 375.33L186.668 376.746L188.215 376.983Z" fill="#FFF5BF"/>
<ellipse cx="0.830885" cy="0.692404" rx="0.830885" ry="0.692404" transform="matrix(-1 0 0 1 388.001 430.146)" fill="#E6F5F5"/>
<ellipse cx="349.125" cy="439.84" rx="25.065" ry="10.8015" fill="#C45C84"/>
<path d="M343.175 431.62C348.601 435.365 346.684 446.586 340.192 452.364C333.701 458.141 324.04 459.789 318.614 456.044C313.189 452.299 314.053 444.58 320.545 438.802C327.036 433.024 337.75 427.875 343.175 431.62Z" fill="#C45C84"/>
<path d="M351.465 431.286C345.546 435.218 350.944 446.755 357.714 452.553C364.484 458.351 374.77 459.864 380.689 455.932C386.608 452.001 385.919 444.113 379.149 438.315C372.379 432.517 357.384 427.354 351.465 431.286Z" fill="#C45C84"/>
<path d="M361.123 441.617C361.719 440.289 366.762 439.9 371.601 441.909C376.441 443.918 379.586 447.459 378.991 448.787C378.395 450.115 374.399 449.924 369.559 447.916C364.72 445.907 360.528 442.946 361.123 441.617Z" fill="#EF7BA2"/>
<path d="M336.55 441.113C336.4 440.2 337.949 438.471 340.052 438.127C342.155 437.783 344.101 438.795 344.25 439.708C344.399 440.621 343.043 441.716 340.94 442.059C338.837 442.403 336.699 442.026 336.55 441.113Z" fill="#D9D9D9"/>
<path d="M343.958 431.311C344.097 431.971 343.026 433.283 341.505 433.602C339.985 433.922 338.534 433.25 338.395 432.59C338.256 431.929 339.208 431.087 340.729 430.767C342.25 430.447 343.819 430.651 343.958 431.311Z" fill="#D9D9D9"/>
<path d="M370.481 444.14C370.255 444.737 368.967 445.124 367.618 444.611C366.268 444.099 365.264 442.949 365.49 442.353C365.717 441.757 367.094 441.587 368.443 442.1C369.792 442.612 370.708 443.544 370.481 444.14Z" fill="#D9D9D9"/>
<path d="M379.729 455.761C379.729 458.821 360.823 459.781 347.495 459.781C334.166 459.781 317.69 458.316 317.69 455.257C317.69 452.198 334.166 448.703 347.495 448.703C360.823 448.703 379.729 452.702 379.729 455.761Z" fill="#671430"/>
<path d="M372.529 453.532C372.529 455.903 358.284 457.288 347.92 457.288C337.556 457.288 324.06 455.366 324.06 452.996C324.06 450.625 337.556 448.703 347.92 448.703C358.284 448.703 372.529 451.161 372.529 453.532Z" fill="#992049"/>
<path d="M351.355 431.785C351.725 429.651 355.674 429.539 360.303 430.343C364.352 431.047 367.46 433.326 367.089 435.46C366.718 437.594 363.607 439.527 359.558 438.824C355.51 438.12 350.984 433.919 351.355 431.785Z" fill="#EF7BA2"/>
<path d="M341.927 446.539C341.619 448.421 343.943 449.503 346.899 449.987C349.485 450.41 351.901 449.277 352.21 447.394C352.518 445.511 351.144 443.111 348.558 442.688C345.972 442.265 342.235 444.656 341.927 446.539Z" fill="#EF7BA2"/>
<path d="M326.906 441.294C327.425 442.87 330.41 442.519 333.805 441.4C336.774 440.421 338.858 438.353 338.339 436.778C337.82 435.202 335.26 434.081 332.29 435.06C329.321 436.039 326.386 439.719 326.906 441.294Z" fill="#EF7BA2"/>
<path d="M374.444 443.311C375.407 441.777 377.875 441.593 379.956 442.899C382.037 444.205 382.943 446.508 381.98 448.042C381.017 449.575 379.629 447.719 377.548 446.413C375.467 445.106 373.482 444.844 374.444 443.311Z" fill="#D9D9D9"/>
<path d="M363.085 434.957C363.544 433.487 365.817 432.889 368.162 433.621C370.508 434.352 372.038 436.137 371.579 437.607C371.121 439.077 369.044 440.244 366.699 439.512C364.353 438.78 362.627 436.427 363.085 434.957Z" fill="#D9D9D9"/>
<path d="M354.058 437.698C354.228 436.716 356.424 434.576 358.454 434.927C360.485 435.278 361.581 437.987 361.411 438.969C361.241 439.951 359.497 440.004 357.466 439.653C355.436 439.302 353.888 438.68 354.058 437.698Z" fill="#D9D9D9"/>
<path d="M344.288 434.765C344.313 433.474 346.316 430.295 348.538 430.338C350.759 430.381 353.359 432.322 353.334 433.613C353.309 434.904 351.13 435.223 348.908 435.18C346.687 435.137 344.263 436.057 344.288 434.765Z" fill="#D9D9D9"/>
<path d="M332.842 433.089C333.314 434.292 332.336 437.725 330.268 438.538C328.2 439.351 324.148 438.987 323.676 437.785C322.82 436.92 327.325 434.447 329.312 433.385C331.386 432.457 332.37 431.887 332.842 433.089Z" fill="#D9D9D9"/>
<path d="M323.765 443.41C323.047 442.187 321.269 441.896 319.795 442.761C318.32 443.627 317.707 445.32 318.425 446.543C319.143 447.767 320.024 446.594 321.498 445.729C322.973 444.864 324.482 444.634 323.765 443.41Z" fill="#D9D9D9"/>
<path d="M347.365 448.731L351.549 448.807L353.104 458.95L347.56 458.548L347.365 448.731Z" fill="#280410"/>
<path d="M347.365 448.732L343.181 448.808L341.748 459.089L349.366 458.858L347.365 448.732Z" fill="#280410"/>
<path d="M347.348 476.491L351.299 478.147L353.105 465.736L347.011 465.459L347.348 476.491Z" fill="#280410"/>
<path d="M347.39 476.571L343.39 477.94L341.749 465.182L347.547 466.248L347.39 476.571Z" fill="#280410"/>
<rect x="341.786" y="456.458" width="11.3554" height="11.6324" rx="2.76962" fill="#280410"/>
<path d="M355.31 445.162C355.564 443.611 354.179 440.877 352.076 440.533C349.973 440.189 347.88 442.105 347.626 443.656C347.373 445.207 348.632 446.896 350.735 447.24C352.838 447.584 355.057 446.713 355.31 445.162Z" fill="#D9D9D9"/>
<ellipse cx="52.5123" cy="432.107" rx="19.0494" ry="8.20914" fill="#C45C84"/>
<path d="M47.9905 425.859C52.1139 428.706 50.6573 437.234 45.7236 441.624C40.7899 446.015 33.4477 447.268 29.3243 444.422C25.2008 441.575 25.8577 435.708 30.7914 431.318C35.7251 426.927 43.867 423.013 47.9905 425.859Z" fill="#C45C84"/>
<path d="M53.8356 425.436C49.337 428.424 53.4395 437.192 58.5845 441.599C63.7295 446.006 71.5471 447.155 76.0456 444.167C80.5442 441.179 80.0201 435.185 74.875 430.778C69.73 426.372 58.3341 422.448 53.8356 425.436Z" fill="#C45C84"/>
<path d="M61.1755 433.287C61.628 432.278 65.4608 431.982 69.1387 433.509C72.8167 435.036 75.2073 437.727 74.7548 438.736C74.3022 439.746 71.265 439.601 67.5871 438.074C63.9091 436.547 60.7229 434.297 61.1755 433.287Z" fill="#EF7BA2"/>
<path d="M42.9548 433.074C42.8414 432.38 44.0185 431.066 45.6167 430.805C47.215 430.543 48.6936 431.312 48.8071 432.006C48.9205 432.7 47.8895 433.532 46.2913 433.793C44.693 434.054 43.0682 433.768 42.9548 433.074Z" fill="#D9D9D9"/>
<path d="M48.5856 425.625C48.6911 426.127 47.8771 427.123 46.7214 427.366C45.5658 427.609 44.4632 427.098 44.3577 426.597C44.2521 426.095 44.9757 425.455 46.1313 425.211C47.287 424.968 48.48 425.123 48.5856 425.625Z" fill="#D9D9D9"/>
<path d="M68.7433 435.375C68.5713 435.828 67.5922 436.122 66.5668 435.733C65.5414 435.344 64.7782 434.469 64.9502 434.016C65.1222 433.563 66.1687 433.435 67.1941 433.824C68.2195 434.213 68.9154 434.922 68.7433 435.375Z" fill="#D9D9D9"/>
<path d="M75.7715 444.207C75.7715 446.532 61.403 447.262 51.2731 447.262C41.1432 447.262 28.6216 446.149 28.6216 443.824C28.6216 441.499 41.1432 438.842 51.2731 438.842C61.403 438.842 75.7715 441.882 75.7715 444.207Z" fill="#671430"/>
<path d="M70.2988 442.513C70.2988 444.315 59.4732 445.368 51.5965 445.368C43.7197 445.368 33.4629 443.907 33.4629 442.105C33.4629 440.303 43.7197 438.842 51.5965 438.842C59.4732 438.842 70.2988 440.711 70.2988 442.513Z" fill="#992049"/>
<path d="M54.2068 425.985C54.4886 424.363 57.4891 424.278 61.0073 424.889C64.0844 425.424 66.4468 427.156 66.165 428.778C65.8832 430.4 63.5187 431.869 60.4416 431.334C57.3645 430.8 53.925 427.607 54.2068 425.985Z" fill="#EF7BA2"/>
<path d="M47.0417 437.198C46.8075 438.629 48.5737 439.451 50.8207 439.818C52.7859 440.14 54.6223 439.279 54.8564 437.848C55.0906 436.417 54.0463 434.593 52.0811 434.272C50.1158 433.95 47.2758 435.767 47.0417 437.198Z" fill="#EF7BA2"/>
<path d="M35.6258 433.212C36.0205 434.409 38.2892 434.143 40.8694 433.292C43.126 432.548 44.7098 430.977 44.3151 429.779C43.9204 428.582 41.9748 427.73 39.7181 428.474C37.4615 429.218 35.2311 432.015 35.6258 433.212Z" fill="#EF7BA2"/>
<path d="M71.7551 434.745C72.4869 433.579 74.3622 433.439 75.9437 434.432C77.5252 435.425 78.214 437.174 77.4822 438.34C76.7504 439.506 75.6956 438.095 74.1141 437.102C72.5326 436.109 71.0233 435.91 71.7551 434.745Z" fill="#D9D9D9"/>
<path d="M63.1222 428.396C63.4707 427.279 65.1982 426.824 66.9809 427.38C68.7635 427.936 69.9261 429.293 69.5776 430.41C69.2292 431.527 67.651 432.414 65.8684 431.858C64.0858 431.302 62.7737 429.513 63.1222 428.396Z" fill="#D9D9D9"/>
<path d="M56.2615 430.479C56.3906 429.733 58.0595 428.106 59.6027 428.373C61.1458 428.64 61.979 430.699 61.8499 431.446C61.7208 432.192 60.3948 432.232 58.8516 431.965C57.3084 431.698 56.1324 431.225 56.2615 430.479Z" fill="#D9D9D9"/>
<path d="M48.8364 428.251C48.8554 427.269 50.3771 424.853 52.0658 424.886C53.7544 424.919 55.7299 426.393 55.7109 427.375C55.6918 428.356 54.0363 428.599 52.3476 428.566C50.659 428.533 48.8174 429.232 48.8364 428.251Z" fill="#D9D9D9"/>
<path d="M40.137 426.976C40.496 427.89 39.7528 430.5 38.1808 431.117C36.6089 431.735 33.53 431.458 33.171 430.545C32.5207 429.887 35.9442 428.008 37.4541 427.201C39.0305 426.496 39.778 426.063 40.137 426.976Z" fill="#D9D9D9"/>
<path d="M33.2383 434.82C32.6927 433.89 31.3419 433.67 30.2212 434.327C29.1006 434.985 28.6344 436.272 29.18 437.201C29.7255 438.131 30.3952 437.24 31.5159 436.582C32.6366 435.925 33.7838 435.75 33.2383 434.82Z" fill="#D9D9D9"/>
<path d="M51.1748 438.864L54.3549 438.922L55.6287 446.598L51.3228 446.325L51.1748 438.864Z" fill="#280410"/>
<path d="M51.1746 438.864L47.9944 438.922L47.0207 446.56L51.3054 446.036L51.1746 438.864Z" fill="#280410"/>
<path d="M51.1617 459.961L54.1648 461.22L55.6377 451.616L51.3318 451.888L51.1617 459.961Z" fill="#280410"/>
<path d="M51.1939 460.022L48.1538 461.063L47.0284 451.653L51.3132 452.177L51.1939 460.022Z" fill="#280410"/>
<rect x="47.0618" y="444.825" width="8.63013" height="8.84062" rx="2.21569" fill="#280410"/>
<path d="M57.2132 436.152C57.4058 434.973 56.3536 432.895 54.7553 432.634C53.1571 432.372 51.566 433.829 51.3733 435.008C51.1807 436.186 52.1378 437.47 53.7361 437.731C55.3343 437.992 57.0205 437.33 57.2132 436.152Z" fill="#D9D9D9"/>
<path d="M50.7944 454.274L56.1169 464.673L51.3874 464.245L50.7944 454.274Z" fill="#7AA587"/>
<path d="M55.0505 455.249L55.3687 465.257L51.6211 464.029L55.0505 455.249Z" fill="#7AA587"/>
<path d="M46.1904 452.952L53.9598 463.192L49.7823 463.485L46.1904 452.952Z" fill="#7AA587"/>
<path d="M40.9708 451.51L51.4147 460.895L46.7262 462.123L40.9708 451.51Z" fill="#7AA587"/>
<path d="M287.125 257.059L298.065 257.2L296.957 258.724L287.125 258.23V257.059Z" fill="#89BEAA"/>
<path d="M287.125 259.352L296.957 259.832L295.711 261.216L287.125 260.939V259.352Z" fill="#89BEAA"/>
<path d="M287.125 262.047L295.711 262.462L294.464 264.401L287.125 263.986V262.047Z" fill="#89BEAA"/>
<path d="M287.125 258.169L296.957 258.723V259.834L287.125 259.341V258.169Z" fill="#0D3F41"/>
<path d="M287.125 260.929L295.711 261.216V262.462L287.125 262.101V260.929Z" fill="#0D3F41"/>
<path d="M287.125 263.986L294.464 264.401V265.648L287.125 265.232V263.986Z" fill="#0D3F41"/>
<path d="M291.972 272.71L276.185 272.294L273.969 274.787L291.28 274.787L291.972 272.71Z" fill="#89BEAA"/>
<path d="M291.28 276.449L275.631 276.081L273.415 278.574L290.726 278.664L291.28 276.449Z" fill="#3F7773"/>
<path d="M287.125 265.232L294.464 265.647L293.218 267.725L287.125 267.448V265.232Z" fill="#89BEAA"/>
<path d="M287.125 267.448L293.218 267.725V268.971L287.125 268.694V267.448Z" fill="#0D3F41"/>
<path d="M287.125 268.694L293.218 268.971L291.972 271.187L287.125 271.048V268.694Z" fill="#89BEAA"/>
<path d="M287.125 271.048L291.972 271.186V272.71H287.263L287.125 271.186V271.048Z" fill="#0D3F41"/>
<path d="M277.708 274.787H273.97V276.449H277.57L277.708 274.787Z" fill="#0D3F41"/>
<path d="M287.541 274.787H291.28V276.449H287.679L287.541 274.787Z" fill="#0D3F41"/>
<path d="M286.987 278.665H290.726V280.326H287.125L286.987 278.665Z" fill="#0C3A3C"/>
<path d="M287.402 276.483L271.754 276.274L269.815 278.665L282.271 279.046L287.402 276.483Z" fill="#89BEAA"/>
<path d="M281.724 278.665H269.815V280.326H281.283L281.724 278.665Z" fill="#0D3F41"/>
<path d="M282.694 280.36L267.046 280.152L265.107 282.542L277.563 282.924L282.694 280.36Z" fill="#89BEAA"/>
<path d="M281.17 282.542H265.107V284.204H280.575L281.17 282.542Z" fill="#0D3F41"/>
<path d="M285.394 284.272L261.464 283.904L258.512 287.181L277.561 287.771L285.394 284.272Z" fill="#89BEAA"/>
<path d="M279.273 289.534L255.34 289.251L252.366 293.067L279.248 294.086L279.273 289.534Z" fill="#89BEAA"/>
<path d="M280.616 287.25H258.46V289.327L279.796 289.466L280.616 287.25Z" fill="#0D3F41"/>
<path d="M280.062 293.067H252.366V295.144L280.062 295.283V294.175V293.067Z" fill="#0D3F41"/>
<path d="M281.448 295.283L248.662 295.013L244.618 300.202L281.177 301.588L281.448 295.283Z" fill="#89BEAA"/>
<path d="M282.278 300.268H244.612V302.864L282.278 303.038V301.653V300.268Z" fill="#0D3F41"/>
<path d="M281.71 302.976L239.078 302.625L233.82 309.372L282.278 309.372L281.71 302.976Z" fill="#89BEAA"/>
<path d="M282.278 309.371L233.81 309.408V312.731H282.278V309.371Z" fill="#0D3F41"/>
<path d="M283.099 312.779L229.865 312.283L223.298 321.827L283.809 321.828L283.099 312.779Z" fill="#89BEAA"/>
<path d="M283.802 321.871L223.285 321.923V326.579H283.802V321.871Z" fill="#0D3F41"/>
<path d="M285.504 326.542L221.256 325.943L213.331 337.462L286.361 337.463L285.504 326.542Z" fill="#89BEAA"/>
<path d="M286.433 337.38L213.315 337.445V343.197H286.433V337.38Z" fill="#0D3F41"/>
<path d="M288.081 343.112L211.927 342.402L202.534 356.056L289.097 356.057L288.081 343.112Z" fill="#89BEAA"/>
<path d="M289.064 356.014L202.513 356.014V362.861H289.064V356.014Z" fill="#0D3F41"/>
<path d="M292.667 362.846L201.832 362L190.628 378.286L293.879 378.286L292.667 362.846Z" fill="#89BEAA"/>
<path d="M293.911 378.371L190.604 378.371V386.403H293.911V378.371Z" fill="#0D3F41"/>
<path d="M273.138 211.64L301.637 213.472L288.683 233.075V275.358L302.946 331.073L335.5 392.496L313.5 384.443L302.946 392.496V384.443L291.833 357.417L285.879 327.797L278.908 302.666L277.145 280.937V226.028L273.138 211.64Z" fill="#252424"/>
<path d="M319.5 381L320.5 388.5L328.5 394L331 387L327 388.5L326 384L324.5 388.5L319.5 381Z" fill="#3C5F47"/>
<path d="M299.316 369.571L299.143 369.212L298.796 369.007L299.168 368.829L299.389 368.485L299.56 368.845L299.909 369.052L299.535 369.228L299.316 369.571Z" fill="#FFF5BF"/>
<path d="M297.518 367.87L297.301 367.906L297.137 368.058L297.101 367.833L296.954 367.661L297.171 367.627L297.336 367.475L297.37 367.701L297.518 367.87Z" fill="#FFF5BF"/>
<path d="M299.877 366.828L299.554 366.881L299.312 367.107L299.258 366.772L299.038 366.517L299.362 366.466L299.607 366.24L299.658 366.575L299.877 366.828Z" fill="#FFF5BF"/>
<path d="M286.825 388.933L286.998 388.575L287.345 388.369L286.973 388.192L286.752 387.847L286.581 388.207L286.232 388.415L286.606 388.59L286.825 388.933Z" fill="#FFF5BF"/>
<path d="M288.624 387.233L288.841 387.269L289.004 387.42L289.04 387.195L289.188 387.024L288.97 386.989L288.806 386.837L288.771 387.063L288.624 387.233Z" fill="#FFF5BF"/>
<path d="M286.264 386.191L286.587 386.244L286.83 386.47L286.883 386.135L287.103 385.88L286.78 385.829L286.535 385.603L286.483 385.938L286.264 386.191Z" fill="#FFF5BF"/>
<path d="M290.673 382.316L292.953 382.545L294.434 380.804L294.918 383.032L297.034 383.904L295.059 385.055L294.885 387.337L293.175 385.816L290.954 386.353L291.883 384.256L290.673 382.316Z" fill="#FFF5BF"/>
<path d="M296.857 374.249L298.052 373.234L297.897 371.678L299.225 372.497L300.66 371.868L300.289 373.388L301.331 374.557L299.77 374.678L298.98 376.027L298.387 374.574L296.857 374.249Z" fill="#FFF5BF"/>
</svg>
