<svg width="266" height="24" viewBox="0 0 266 24" fill="none" xmlns="http://www.w3.org/2000/svg">
<path d="M15.352 0.599998H22.904V23H15.352V0.599998ZM8.376 23H0.824V0.599998H8.376V23ZM15.864 14.744H7.864V8.536H15.864V14.744ZM24.1107 23L33.9028 0.599998H41.3268L51.1188 23H43.3108L36.0788 4.184H39.0228L31.7908 23H24.1107ZM29.9348 19.096L31.8548 13.656H42.1588L44.0788 19.096H29.9348ZM63.5955 23.512C61.8035 23.512 60.1395 23.2347 58.6035 22.68C57.0888 22.104 55.7662 21.2933 54.6355 20.248C53.5262 19.2027 52.6622 17.9653 52.0435 16.536C51.4248 15.1067 51.1155 13.528 51.1155 11.8C51.1155 10.072 51.4248 8.49333 52.0435 7.064C52.6622 5.63467 53.5262 4.39733 54.6355 3.352C55.7662 2.30667 57.0888 1.50667 58.6035 0.952C60.1395 0.375999 61.8035 0.0879993 63.5955 0.0879993C65.7928 0.0879993 67.7342 0.471999 69.4195 1.24C71.1262 2.008 72.5342 3.11733 73.6435 4.568L68.8755 8.824C68.2142 7.992 67.4782 7.352 66.6675 6.904C65.8782 6.43467 64.9822 6.2 63.9795 6.2C63.1902 6.2 62.4755 6.328 61.8355 6.584C61.1955 6.84 60.6408 7.21333 60.1715 7.704C59.7235 8.19467 59.3715 8.792 59.1155 9.496C58.8595 10.1787 58.7315 10.9467 58.7315 11.8C58.7315 12.6533 58.8595 13.432 59.1155 14.136C59.3715 14.8187 59.7235 15.4053 60.1715 15.896C60.6408 16.3867 61.1955 16.76 61.8355 17.016C62.4755 17.272 63.1902 17.4 63.9795 17.4C64.9822 17.4 65.8782 17.176 66.6675 16.728C67.4782 16.2587 68.2142 15.608 68.8755 14.776L73.6435 19.032C72.5342 20.4613 71.1262 21.5707 69.4195 22.36C67.7342 23.128 65.7928 23.512 63.5955 23.512ZM82.576 18.2L82.16 9.912L90.608 0.599998H98.832L89.36 11.032L85.168 15.32L82.576 18.2ZM75.824 23V0.599998H83.248V23H75.824ZM90.544 23L83.952 14.296L88.848 9.112L99.28 23H90.544ZM98.6275 16.472V11.032H108.228V16.472H98.6275ZM119.52 23.512C117.642 23.512 115.829 23.2987 114.08 22.872C112.33 22.4453 110.89 21.8907 109.76 21.208L112.192 15.704C113.258 16.3227 114.442 16.824 115.744 17.208C117.066 17.5707 118.346 17.752 119.584 17.752C120.309 17.752 120.874 17.7093 121.28 17.624C121.706 17.5173 122.016 17.3787 122.208 17.208C122.4 17.016 122.496 16.792 122.496 16.536C122.496 16.1307 122.272 15.8107 121.824 15.576C121.376 15.3413 120.778 15.1493 120.032 15C119.306 14.8293 118.506 14.6587 117.632 14.488C116.757 14.296 115.872 14.0507 114.976 13.752C114.101 13.4533 113.29 13.0587 112.544 12.568C111.818 12.0773 111.232 11.4373 110.784 10.648C110.336 9.83733 110.112 8.83467 110.112 7.64C110.112 6.25333 110.496 4.99467 111.264 3.864C112.053 2.712 113.216 1.79467 114.752 1.112C116.309 0.429333 118.24 0.0879993 120.544 0.0879993C122.058 0.0879993 123.552 0.247999 125.024 0.567999C126.496 0.887999 127.818 1.37867 128.992 2.04L126.72 7.512C125.61 6.95733 124.533 6.54133 123.488 6.264C122.464 5.98667 121.461 5.848 120.48 5.848C119.754 5.848 119.178 5.912 118.752 6.04C118.325 6.168 118.016 6.33867 117.824 6.552C117.653 6.76533 117.568 7 117.568 7.256C117.568 7.64 117.792 7.94933 118.24 8.184C118.688 8.39733 119.274 8.57867 120 8.728C120.746 8.87733 121.557 9.03733 122.432 9.208C123.328 9.37867 124.213 9.61333 125.088 9.912C125.962 10.2107 126.762 10.6053 127.488 11.096C128.234 11.5867 128.832 12.2267 129.28 13.016C129.728 13.8053 129.952 14.7867 129.952 15.96C129.952 17.3253 129.557 18.584 128.768 19.736C128 20.8667 126.848 21.784 125.312 22.488C123.776 23.1707 121.845 23.512 119.52 23.512ZM132.199 23V0.599998H142.983C145.074 0.599998 146.876 0.941332 148.391 1.624C149.927 2.30667 151.111 3.288 151.943 4.568C152.775 5.82667 153.191 7.32 153.191 9.048C153.191 10.776 152.775 12.2693 151.943 13.528C151.111 14.7867 149.927 15.768 148.391 16.472C146.876 17.1547 145.074 17.496 142.983 17.496H136.391L139.751 14.264V23H132.199ZM139.751 15.096L136.391 11.672H142.503C143.548 11.672 144.316 11.4373 144.807 10.968C145.319 10.4987 145.575 9.85867 145.575 9.048C145.575 8.23733 145.319 7.59733 144.807 7.128C144.316 6.65867 143.548 6.424 142.503 6.424H136.391L139.751 3V15.096ZM162.58 8.92H172.564V14.36H162.58V8.92ZM163.092 17.304H174.292V23H155.668V0.599998H173.876V6.296H163.092V17.304ZM188.783 23.512C186.991 23.512 185.327 23.2347 183.791 22.68C182.276 22.104 180.954 21.2933 179.823 20.248C178.714 19.2027 177.85 17.9653 177.231 16.536C176.612 15.1067 176.303 13.528 176.303 11.8C176.303 10.072 176.612 8.49333 177.231 7.064C177.85 5.63467 178.714 4.39733 179.823 3.352C180.954 2.30667 182.276 1.50667 183.791 0.952C185.327 0.375999 186.991 0.0879993 188.783 0.0879993C190.98 0.0879993 192.922 0.471999 194.607 1.24C196.314 2.008 197.722 3.11733 198.831 4.568L194.063 8.824C193.402 7.992 192.666 7.352 191.855 6.904C191.066 6.43467 190.17 6.2 189.167 6.2C188.378 6.2 187.663 6.328 187.023 6.584C186.383 6.84 185.828 7.21333 185.359 7.704C184.911 8.19467 184.559 8.792 184.303 9.496C184.047 10.1787 183.919 10.9467 183.919 11.8C183.919 12.6533 184.047 13.432 184.303 14.136C184.559 14.8187 184.911 15.4053 185.359 15.896C185.828 16.3867 186.383 16.76 187.023 17.016C187.663 17.272 188.378 17.4 189.167 17.4C190.17 17.4 191.066 17.176 191.855 16.728C192.666 16.2587 193.402 15.608 194.063 14.776L198.831 19.032C197.722 20.4613 196.314 21.5707 194.607 22.36C192.922 23.128 190.98 23.512 188.783 23.512ZM201.012 23V0.599998H208.564V23H201.012ZM219.239 10.136H229.095V15.832H219.239V10.136ZM219.751 23H212.199V0.599998H230.407V6.296H219.751V23ZM232.793 23V0.599998H240.345V23H232.793ZM255.564 23.512C253.772 23.512 252.108 23.2347 250.572 22.68C249.058 22.104 247.735 21.2933 246.604 20.248C245.495 19.2027 244.631 17.9653 244.012 16.536C243.394 15.1067 243.084 13.528 243.084 11.8C243.084 10.072 243.394 8.49333 244.012 7.064C244.631 5.63467 245.495 4.39733 246.604 3.352C247.735 2.30667 249.058 1.50667 250.572 0.952C252.108 0.375999 253.772 0.0879993 255.564 0.0879993C257.762 0.0879993 259.703 0.471999 261.388 1.24C263.095 2.008 264.503 3.11733 265.612 4.568L260.844 8.824C260.183 7.992 259.447 7.352 258.636 6.904C257.847 6.43467 256.951 6.2 255.948 6.2C255.159 6.2 254.444 6.328 253.804 6.584C253.164 6.84 252.61 7.21333 252.14 7.704C251.692 8.19467 251.34 8.792 251.084 9.496C250.828 10.1787 250.7 10.9467 250.7 11.8C250.7 12.6533 250.828 13.432 251.084 14.136C251.34 14.8187 251.692 15.4053 252.14 15.896C252.61 16.3867 253.164 16.76 253.804 17.016C254.444 17.272 255.159 17.4 255.948 17.4C256.951 17.4 257.847 17.176 258.636 16.728C259.447 16.2587 260.183 15.608 260.844 14.776L265.612 19.032C264.503 20.4613 263.095 21.5707 261.388 22.36C259.703 23.128 257.762 23.512 255.564 23.512Z" fill="#D3ECEB"/>
</svg>
