<svg width="319" height="48" viewBox="0 0 319 48" fill="none" xmlns="http://www.w3.org/2000/svg">
<path d="M3.68226 12.8036L3.80484 13.2845L4.17697 13.6218L3.67831 13.7461L3.32185 14.1112L3.20271 13.6291L2.82941 13.2885L3.32924 13.1676L3.68226 12.8036Z" fill="#FFABCB"/>
<path d="M20.2862 7.07426L20.6398 7.42257L21.1327 7.51882L20.7702 7.88302L20.6539 8.37988L20.3026 8.0288L19.8069 7.93032L20.1722 7.56836L20.2862 7.07426Z" fill="#FFABCB"/>
<path d="M18.708 6.19674L18.9529 6.43794L19.2942 6.50459L19.0432 6.75679L18.9626 7.10086L18.7194 6.85774L18.3762 6.78954L18.6291 6.53889L18.708 6.19674Z" fill="#FFABCB"/>
<path d="M21.2408 4.77401L21.4275 4.95793L21.6878 5.00875L21.4963 5.20105L21.4349 5.46341L21.2494 5.27803L20.9877 5.22603L21.1806 5.0349L21.2408 4.77401Z" fill="#FFABCB"/>
<path d="M6.71295 6.79692L7.06657 7.14523L7.55949 7.24148L7.19691 7.60567L7.08062 8.10254L6.72933 7.75146L6.23371 7.65297L6.59899 7.29101L6.71295 6.79692Z" fill="#FFABCB"/>
<path d="M6.00818 13.6813L5.92168 14.07L6.06587 14.4462L5.66394 14.3545L5.27652 14.4867L5.3659 14.0985L5.22208 13.7195L5.62365 13.814L6.00818 13.6813Z" fill="#FFABCB"/>
<path d="M6.35965 16.1314L6.5521 16.2383L6.77413 16.2208L6.66247 16.4195L6.67179 16.6456L6.48001 16.5373L6.25655 16.5541L6.36964 16.3561L6.35965 16.1314Z" fill="#FFABCB"/>
<path d="M3.86427 15.4823L4.15051 15.6411L4.48074 15.6152L4.31466 15.9107L4.32852 16.247L4.04328 16.0859L3.71093 16.1109L3.87913 15.8164L3.86427 15.4823Z" fill="#FFABCB"/>
<path d="M14.8826 7.87229L13.2379 6.27667L10.9964 6.72056L12.0012 4.67411L10.8846 2.6765L13.1473 3.00136L14.7014 1.3217L15.0965 3.57567L17.1702 4.53446L15.1402 5.60082L14.8826 7.87229Z" fill="#FFABCB"/>
<path d="M5.02579 10.3536L3.45841 10.4067L2.61297 11.7222L2.08137 10.2553L0.566604 9.85725L1.80104 8.89625L1.71105 7.33273L3.00958 8.20819L4.46674 7.64131L4.0285 9.14818L5.02579 10.3536Z" fill="#FFABCB"/>
<path d="M7.84538 3.34592L8.5427 4.16182L9.58681 4.46051L8.7382 5.17796L8.39561 6.22685L7.70384 5.40541L6.65431 5.10141L7.50834 4.38928L7.84538 3.34592Z" fill="#FFABCB"/>
<path d="M314.518 33.7119L314.364 33.2402L313.97 32.9288L314.459 32.7712L314.79 32.3829L314.941 32.8559L315.336 33.1705L314.846 33.3249L314.518 33.7119Z" fill="#FFABCB"/>
<path d="M298.34 40.5486L297.964 40.2249L297.466 40.1621L297.803 39.7743L297.885 39.2707L298.26 39.5973L298.761 39.6621L298.421 40.0479L298.34 40.5486Z" fill="#FFABCB"/>
<path d="M299.973 41.3169L299.712 41.0928L299.367 41.0493L299.601 40.7808L299.658 40.432L299.917 40.6582L300.264 40.7031L300.029 40.9702L299.973 41.3169Z" fill="#FFABCB"/>
<path d="M297.543 42.907L297.344 42.7361L297.081 42.7029L297.259 42.4981L297.303 42.2322L297.5 42.4047L297.765 42.4389L297.586 42.6426L297.543 42.907Z" fill="#FFABCB"/>
<path d="M311.901 39.9089L311.524 39.5853L311.026 39.5225L311.363 39.1347L311.446 38.6311L311.82 38.9577L312.321 39.0225L311.981 39.4083L311.901 39.9089Z" fill="#FFABCB"/>
<path d="M312.139 32.9928L312.199 32.5992L312.03 32.2335L312.437 32.2979L312.814 32.1398L312.751 32.5333L312.92 32.9017L312.513 32.8345L312.139 32.9928Z" fill="#FFABCB"/>
<path d="M299.095 43.0968L299.155 42.7032L298.986 42.3375L299.393 42.4019L299.771 42.2438L299.708 42.6373L299.877 43.0057L299.47 42.9385L299.095 43.0968Z" fill="#FFABCB"/>
<path d="M311.624 30.5717L311.425 30.4781L311.205 30.5105L311.303 30.3047L311.278 30.0798L311.477 30.1749L311.699 30.143L311.599 30.3482L311.624 30.5717Z" fill="#FFABCB"/>
<path d="M314.156 31.0515L313.86 30.9123L313.532 30.9604L313.678 30.6544L313.642 30.3198L313.937 30.4612L314.267 30.4139L314.119 30.7191L314.156 31.0515Z" fill="#FFABCB"/>
<path d="M303.677 39.387L305.425 40.8681L307.632 40.274L306.767 42.3835L308.016 44.3013L305.737 44.1298L304.299 45.9105L303.753 43.6883L301.62 42.8716L303.573 41.6707L303.677 39.387Z" fill="#FFABCB"/>
<path d="M313.345 36.2466L314.905 36.0879L315.66 34.7183L316.289 36.146L317.827 36.441L316.66 37.4831L316.856 39.037L315.501 38.2511L314.085 38.915L314.421 37.382L313.345 36.2466Z" fill="#FFABCB"/>
<path d="M311.003 43.4284L310.252 42.6614L309.191 42.4339L309.989 41.6608L310.26 40.5912L311.005 41.3641L312.073 41.5966L311.269 42.3647L311.003 43.4284Z" fill="#FFABCB"/>
<path d="M28.396 11.8H36.892V37H28.396V27.712H20.548V37H12.052V11.8H20.548V20.728H28.396V11.8ZM59.8496 37L58.1576 32.608H48.5816L46.8896 37H38.2496L49.2656 11.8H57.6176L68.6336 37H59.8496ZM50.9216 26.488H55.8176L53.3696 20.152L50.9216 26.488ZM82.6699 37.576C74.5699 37.576 68.6299 32.14 68.6299 24.4C68.6299 16.66 74.5699 11.224 82.6699 11.224C87.6019 11.224 91.4899 13.024 93.9739 16.264L88.6099 21.052C87.1339 19.18 85.3699 18.1 83.1019 18.1C79.5739 18.1 77.1979 20.548 77.1979 24.4C77.1979 28.252 79.5739 30.7 83.1019 30.7C85.3699 30.7 87.1339 29.62 88.6099 27.748L93.9739 32.536C91.4899 35.776 87.6019 37.576 82.6699 37.576ZM112.987 37L106.687 28.648L104.779 30.772V37H96.427V11.8H104.779V20.944L113.059 11.8H122.311L112.231 22.888L122.815 37H112.987ZM122.081 29.656V23.536H132.881V29.656H122.081ZM145.585 37.576C141.373 37.576 137.125 36.532 134.605 34.984L137.341 28.792C139.717 30.196 142.885 31.096 145.657 31.096C148.069 31.096 148.933 30.592 148.933 29.728C148.933 26.56 135.001 29.116 135.001 19.72C135.001 15.04 138.925 11.224 146.737 11.224C150.121 11.224 153.613 11.944 156.241 13.42L153.685 19.576C151.201 18.316 148.861 17.704 146.665 17.704C144.181 17.704 143.389 18.424 143.389 19.288C143.389 22.312 157.321 19.792 157.321 29.08C157.321 33.688 153.397 37.576 145.585 37.576ZM171.981 11.8C179.001 11.8 183.465 15.472 183.465 21.304C183.465 27.136 179.001 30.808 171.981 30.808H168.345V37H159.849V11.8H171.981ZM171.441 24.256C173.781 24.256 174.897 23.14 174.897 21.304C174.897 19.468 173.781 18.352 171.441 18.352H168.345V24.256H171.441ZM194.603 30.592H207.203V37H186.251V11.8H206.735V18.208H194.603V21.16H205.259V27.28H194.603V30.592ZM223.506 37.576C215.406 37.576 209.466 32.14 209.466 24.4C209.466 16.66 215.406 11.224 223.506 11.224C228.438 11.224 232.326 13.024 234.81 16.264L229.446 21.052C227.97 19.18 226.206 18.1 223.938 18.1C220.41 18.1 218.034 20.548 218.034 24.4C218.034 28.252 220.41 30.7 223.938 30.7C226.206 30.7 227.97 29.62 229.446 27.748L234.81 32.536C232.326 35.776 228.438 37.576 223.506 37.576ZM237.263 37V11.8H245.759V37H237.263ZM270.333 18.208H258.345V22.528H268.857V28.936H258.345V37H249.849V11.8H270.333V18.208ZM273.017 37V11.8H281.513V37H273.017ZM298.635 37.576C290.535 37.576 284.595 32.14 284.595 24.4C284.595 16.66 290.535 11.224 298.635 11.224C303.567 11.224 307.455 13.024 309.939 16.264L304.575 21.052C303.099 19.18 301.335 18.1 299.067 18.1C295.539 18.1 293.163 20.548 293.163 24.4C293.163 28.252 295.539 30.7 299.067 30.7C301.335 30.7 303.099 29.62 304.575 27.748L309.939 32.536C307.455 35.776 303.567 37.576 298.635 37.576Z" fill="#EAD1D0"/>
</svg>
