<svg width="390" height="1045" viewBox="0 0 390 1045" fill="none" xmlns="http://www.w3.org/2000/svg">
<path d="M-19 18.3185H7.66645L71.2991 1.02913L172.321 13.1729L261.633 1.02913L355.036 8.6447L415 0L411.755 1043.95H-14.9083L-19 18.3185Z" fill="#1A3522"/>
<path opacity="0.29" d="M43.5054 158.219C46.3883 158.219 48.7254 156.825 48.7254 155.105C48.7254 153.385 46.3883 151.99 43.5054 151.99C40.6225 151.99 38.2854 153.385 38.2854 155.105C38.2854 156.825 40.6225 158.219 43.5054 158.219Z" fill="#1A3522"/>
<path opacity="0.29" d="M88.0872 370.558C90.9701 370.558 93.3072 369.163 93.3072 367.443C93.3072 365.723 90.9701 364.329 88.0872 364.329C85.2043 364.329 82.8672 365.723 82.8672 367.443C82.8672 369.163 85.2043 370.558 88.0872 370.558Z" fill="#1A3522"/>
<path opacity="0.29" d="M311.855 754.837C314.738 754.837 317.075 753.443 317.075 751.723C317.075 750.003 314.738 748.608 311.855 748.608C308.972 748.608 306.635 750.003 306.635 751.723C306.635 753.443 308.972 754.837 311.855 754.837Z" fill="#1A3522"/>
<path opacity="0.29" d="M66.7036 830.049C63.8206 830.049 61.4836 828.655 61.4836 826.935C61.4836 825.215 63.8206 823.821 66.7036 823.821C69.5865 823.821 71.9236 825.215 71.9236 826.935C71.9236 828.655 69.5865 830.049 66.7036 830.049Z" fill="#1A3522"/>
<path opacity="0.29" d="M99.1785 555.57C104.805 555.57 109.366 553.101 109.366 550.055C109.366 547.009 104.805 544.539 99.1785 544.539C93.552 544.539 88.9907 547.009 88.9907 550.055C88.9907 553.101 93.552 555.57 99.1785 555.57Z" fill="#1A3522"/>
<path opacity="0.29" d="M378.715 274.864C381.598 274.864 383.935 273.47 383.935 271.75C383.935 270.03 381.598 268.635 378.715 268.635C375.832 268.635 373.495 270.03 373.495 271.75C373.495 273.47 375.832 274.864 378.715 274.864Z" fill="#1A3522"/>
<path opacity="0.29" d="M104.171 206.349C107.054 206.349 109.391 205.398 109.391 204.225C109.391 203.053 107.054 202.102 104.171 202.102C101.288 202.102 98.9507 203.053 98.9507 204.225C98.9507 205.398 101.288 206.349 104.171 206.349Z" fill="#1A3522"/>
<path opacity="0.29" d="M109.391 199.837C111.416 199.837 113.059 199.013 113.059 197.997C113.059 196.98 111.416 196.156 109.391 196.156C107.365 196.156 105.722 196.98 105.722 197.997C105.722 199.013 107.365 199.837 109.391 199.837Z" fill="#1A3522"/>
<path opacity="0.29" d="M116.021 204.933C117.19 204.933 118.137 204.362 118.137 203.659C118.137 202.955 117.19 202.385 116.021 202.385C114.852 202.385 113.905 202.955 113.905 203.659C113.905 204.362 114.852 204.933 116.021 204.933Z" fill="#1A3522"/>
<path opacity="0.29" d="M187.691 383.864C190.574 383.864 192.911 382.914 192.911 381.741C192.911 380.568 190.574 379.618 187.691 379.618C184.808 379.618 182.471 380.568 182.471 381.741C182.471 382.914 184.808 383.864 187.691 383.864Z" fill="#1A3522"/>
<path opacity="0.29" d="M192.911 377.353C194.937 377.353 196.579 376.529 196.579 375.513C196.579 374.496 194.937 373.672 192.911 373.672C190.885 373.672 189.243 374.496 189.243 375.513C189.243 376.529 190.885 377.353 192.911 377.353Z" fill="#1A3522"/>
<path opacity="0.29" d="M199.542 382.449C200.71 382.449 201.658 381.879 201.658 381.175C201.658 380.472 200.71 379.901 199.542 379.901C198.373 379.901 197.425 380.472 197.425 381.175C197.425 381.879 198.373 382.449 199.542 382.449Z" fill="#1A3522"/>
<path opacity="0.29" d="M255.692 106.408C258.731 106.408 261.194 104.95 261.194 103.152C261.194 101.354 258.731 99.896 255.692 99.896C252.653 99.896 250.19 101.354 250.19 103.152C250.19 104.95 252.653 106.408 255.692 106.408Z" fill="#1A3522"/>
<path opacity="0.29" d="M248.497 635.438C251.536 635.438 253.999 633.981 253.999 632.183C253.999 630.385 251.536 628.927 248.497 628.927C245.458 628.927 242.995 630.385 242.995 632.183C242.995 633.981 245.458 635.438 248.497 635.438Z" fill="#1A3522"/>
<path opacity="0.29" d="M76.5183 364.33C79.5571 364.33 82.0205 362.872 82.0205 361.074C82.0205 359.276 79.5571 357.818 76.5183 357.818C73.4795 357.818 71.0161 359.276 71.0161 361.074C71.0161 362.872 73.4795 364.33 76.5183 364.33Z" fill="#1A3522"/>
<path opacity="0.29" d="M300.286 748.609C303.325 748.609 305.788 747.151 305.788 745.353C305.788 743.555 303.325 742.097 300.286 742.097C297.247 742.097 294.784 743.555 294.784 745.353C294.784 747.151 297.247 748.609 300.286 748.609Z" fill="#1A3522"/>
<path opacity="0.29" d="M78.2725 823.821C75.2337 823.821 72.7703 822.364 72.7703 820.565C72.7703 818.767 75.2337 817.31 78.2725 817.31C81.3112 817.31 83.7747 818.767 83.7747 820.565C83.7747 822.364 81.3112 823.821 78.2725 823.821Z" fill="#1A3522"/>
<path opacity="0.29" d="M77.2746 544.539C83.1825 544.539 87.9718 542.07 87.9718 539.023C87.9718 535.977 83.1825 533.508 77.2746 533.508C71.3667 533.508 66.5774 535.977 66.5774 539.023C66.5774 542.07 71.3667 544.539 77.2746 544.539Z" fill="#1A3522"/>
<path opacity="0.29" d="M76.6595 372.257C78.8412 372.257 80.6098 371.179 80.6098 369.85C80.6098 368.521 78.8412 367.444 76.6595 367.444C74.4778 367.444 72.7092 368.521 72.7092 369.85C72.7092 371.179 74.4778 372.257 76.6595 372.257Z" fill="#1A3522"/>
<path opacity="0.29" d="M300.427 756.536C302.609 756.536 304.378 755.458 304.378 754.129C304.378 752.8 302.609 751.723 300.427 751.723C298.246 751.723 296.477 752.8 296.477 754.129C296.477 755.458 298.246 756.536 300.427 756.536Z" fill="#1A3522"/>
<path opacity="0.29" d="M78.1313 831.749C75.9496 831.749 74.181 830.671 74.181 829.342C74.181 828.013 75.9496 826.936 78.1313 826.936C80.3129 826.936 82.0815 828.013 82.0815 829.342C82.0815 830.671 80.3129 831.749 78.1313 831.749Z" fill="#1A3522"/>
<path opacity="0.29" d="M77.2746 557.575C81.4946 557.575 84.9155 555.78 84.9155 553.564C84.9155 551.349 81.4946 549.553 77.2746 549.553C73.0547 549.553 69.6338 551.349 69.6338 553.564C69.6338 555.78 73.0547 557.575 77.2746 557.575Z" fill="#1A3522"/>
<path opacity="0.29" d="M313.536 350.173C316.574 350.173 319.038 348.716 319.038 346.918C319.038 345.119 316.574 343.662 313.536 343.662C310.497 343.662 308.033 345.119 308.033 346.918C308.033 348.716 310.497 350.173 313.536 350.173Z" fill="#1A3522"/>
<path opacity="0.29" d="M54.2275 236.926C57.2663 236.926 59.7297 235.468 59.7297 233.67C59.7297 231.872 57.2663 230.414 54.2275 230.414C51.1888 230.414 48.7253 231.872 48.7253 233.67C48.7253 235.468 51.1888 236.926 54.2275 236.926Z" fill="#1A3522"/>
<path opacity="0.29" d="M315.568 543.028C318.607 543.028 321.07 541.57 321.07 539.772C321.07 537.974 318.607 536.516 315.568 536.516C312.529 536.516 310.066 537.974 310.066 539.772C310.066 541.57 312.529 543.028 315.568 543.028Z" fill="#1A3522"/>
<path opacity="0.29" d="M100.605 685.43C103.644 685.43 106.108 683.973 106.108 682.174C106.108 680.376 103.644 678.918 100.605 678.918C97.5667 678.918 95.1033 680.376 95.1033 682.174C95.1033 683.973 97.5667 685.43 100.605 685.43Z" fill="#1A3522"/>
<path opacity="0.29" d="M237.122 1001.32C240.161 1001.32 242.624 999.865 242.624 998.067C242.624 996.269 240.161 994.811 237.122 994.811C234.083 994.811 231.62 996.269 231.62 998.067C231.62 999.865 234.083 1001.32 237.122 1001.32Z" fill="#1A3522"/>
<path opacity="0.29" d="M279.958 35.3452C282.997 35.3452 285.46 33.8876 285.46 32.0894C285.46 30.2912 282.997 28.8335 279.958 28.8335C276.919 28.8335 274.456 30.2912 274.456 32.0894C274.456 33.8876 276.919 35.3452 279.958 35.3452Z" fill="#1A3522"/>
<path opacity="0.29" d="M98.8093 463.704C101.848 463.704 104.311 462.246 104.311 460.448C104.311 458.65 101.848 457.192 98.8093 457.192C95.7705 457.192 93.3071 458.65 93.3071 460.448C93.3071 462.246 95.7705 463.704 98.8093 463.704Z" fill="#1A3522"/>
<path d="M78.7705 15.8058C78.7698 14.2151 80.1063 12.9508 81.6946 13.0398L134.956 16.0218C136.423 16.104 137.57 17.3169 137.571 18.7858L137.618 99.5481C137.619 101.229 136.136 102.523 134.471 102.293L81.1925 94.9451C79.8223 94.7561 78.8015 93.5853 78.8009 92.2022L78.7705 15.8058Z" fill="#1A3522"/>
</svg>
