<svg width="1512" height="2977" viewBox="0 0 1512 2977" fill="none" xmlns="http://www.w3.org/2000/svg">
<path d="M715.694 1201.19L714.347 1200L712.551 1199.76L713.782 1198.37L714.099 1196.56L715.438 1197.75L717.245 1198L716.003 1199.38L715.694 1201.19Z" fill="#FFF5BF"/>
<path d="M699.284 1234L700.77 1235.01L702.583 1235.02L701.537 1236.55L701.453 1238.4L699.974 1237.38L698.149 1237.36L699.206 1235.83L699.284 1234Z" fill="#FFF5BF"/>
<path d="M694.034 1242.6L694.734 1243.85L696.027 1244.52L694.723 1245.24L693.996 1246.53L693.304 1245.27L692.006 1244.59L693.316 1243.88L694.034 1242.6Z" fill="#FFF5BF"/>
<path d="M707.374 1212.99L703.275 1216.9L704.155 1222.48L699.199 1219.8L694.159 1222.36L695.179 1216.81L691.182 1212.81L696.786 1212.05L699.353 1207.02L701.79 1212.14L707.374 1212.99Z" fill="#FFF5BF"/>
<path d="M1108.52 1186.23L1107.89 1184.93L1106.64 1184.19L1107.98 1183.55L1108.78 1182.31L1109.4 1183.61L1110.66 1184.35L1109.31 1184.99L1108.52 1186.23Z" fill="#FFF5BF"/>
<path d="M1102.02 1180.09L1101.24 1180.22L1100.65 1180.76L1100.52 1179.95L1099.99 1179.33L1100.77 1179.21L1101.37 1178.66L1101.49 1179.47L1102.02 1180.09Z" fill="#FFF5BF"/>
<path d="M1110.54 1176.32L1109.38 1176.52L1108.5 1177.33L1108.31 1176.12L1107.52 1175.2L1108.68 1175.02L1109.57 1174.2L1109.75 1175.41L1110.54 1176.32Z" fill="#FFF5BF"/>
<path d="M1063.42 1256.14L1064.04 1254.84L1065.3 1254.1L1063.95 1253.46L1063.15 1252.22L1062.54 1253.52L1061.28 1254.26L1062.63 1254.9L1063.42 1256.14Z" fill="#FFF5BF"/>
<path d="M1069.91 1250L1070.7 1250.13L1071.29 1250.67L1071.42 1249.86L1071.95 1249.24L1071.16 1249.12L1070.57 1248.57L1070.45 1249.38L1069.91 1250Z" fill="#FFF5BF"/>
<path d="M1061.39 1246.23L1062.56 1246.43L1063.44 1247.24L1063.63 1246.03L1064.42 1245.11L1063.25 1244.93L1062.37 1244.11L1062.18 1245.32L1061.39 1246.23Z" fill="#FFF5BF"/>
<path d="M1077.31 1232.25L1085.54 1233.07L1090.89 1226.79L1092.64 1234.83L1100.28 1237.98L1093.15 1242.13L1092.52 1250.37L1086.34 1244.88L1078.33 1246.82L1081.68 1239.25L1077.31 1232.25Z" fill="#FFF5BF"/>
<path d="M1099.63 1203.12L1103.95 1199.45L1103.39 1193.83L1108.19 1196.79L1113.36 1194.52L1112.03 1200.01L1115.79 1204.23L1110.15 1204.67L1107.3 1209.54L1105.16 1204.29L1099.63 1203.12Z" fill="#FFF5BF"/>
<path d="M885.325 384.789L1138.45 115.452L1530 46L1526.61 871.517V1212L1236.76 1160.62L946.346 947.744L235 817.875L517.504 551.925L885.325 384.789Z" fill="#132828"/>
<path d="M508.469 636.5L362.5 544.5L269 421.5L99.5 388.5L-20 234.5L-156.031 180L-178 485.371L-168.5 486.925L30.4688 739L378.5 853.871H534L508.469 636.5Z" fill="#385A42"/>
<path d="M1251.64 627.199L973.754 695.733L751 636L612.238 768.58L505.076 931.495L748.129 1117.67L754.647 1110.58L1074.59 1082.88L1361.82 855.239L1447.27 725.325L1251.64 627.199Z" fill="#0C1910"/>
<path d="M1216.03 582.5L1305 355L1489.5 160L1685.53 126H1880.53L1902.5 431.371L1893 432.925L1694.03 685L1346 799.871L1183 732.435L1216.03 582.5Z" fill="#15341F"/>
<path d="M1204 83.1342C1200.28 100.147 1208.79 126.729 1034.82 170.854C917.77 178.297 817.749 170.75 797 166.497C807.108 157.991 917.238 45.3885 1003.96 48.0463C1065.11 49.9206 1204 71.3897 1204 83.1342Z" fill="#060606"/>
<path d="M1204.1 87.3302C1139.2 75.6274 1096.12 54.3499 992.394 75.6274C875.845 99.5358 828.558 160.737 797.173 169.248C783.343 128.289 881.752 43.7105 981.03 26.9301C1074.51 0.140983 1198.76 68.6911 1204.1 87.3302Z" fill="#89BEAA"/>
<path d="M1060.24 110.281L957.879 130.793L998.523 200.883L1035.41 358.383L970.428 574.351L916.879 731.685L925.873 817.84L1051.94 783.125L1067.2 621.488L1076.9 535.57L1113.12 447.481L1103.88 364.267L1055.98 159.736L1060.24 110.281Z" fill="#111111"/>
<path d="M1013 779L1266 783.5L1224 800.5L1101 1379.5L775 1408L680 1306.5L766 998.5L1013 779Z" fill="#122217"/>
<path d="M455 807.5L483.5 827.5L529.5 837L596.5 880.5L626.5 882.5L680.5 818.5L993.5 880.5L827 1059L725 1213L716 1247.5L725 1291.5L733.5 1323.5L753 1367L775 1408L700.5 1400L-20.5 1354.5L455 807.5Z" fill="#122718"/>
<path d="M455 807.5L483.5 827.5L529.5 837L596.5 880.5L626.5 882.5L680.5 818.5L1001 875L828.5 1002L710 1041.5L687.5 1125L652 1183L643 1241.5L686 1336L760 1398.5L-20.5 1354.5L455 807.5Z" fill="#193522"/>
<path d="M784.528 701.629L808.899 658.929C809.584 657.729 810.839 656.968 812.219 656.915L887.427 654.022C887.807 654.007 888.187 654.047 888.556 654.14L1043.95 693.223C1047.36 694.081 1048.08 698.606 1045.11 700.484L921.126 778.789C920.395 779.251 919.833 779.936 919.525 780.744L866.467 919.659C865.663 921.763 863.282 922.789 861.201 921.928L706.079 857.751C703.894 856.847 702.966 854.255 704.081 852.17L784.528 701.629Z" fill="#2A5035"/>
<path d="M1067 798L1056 672L919.5 780.5L865 923.5L919.5 894.5L951.5 888L1026.5 856L1067 798Z" fill="#172D1E"/>
<path d="M295 977.5L537 1265.5L775 1408L147 1466L-20.5 1447V1354.5L295 977.5Z" fill="#0E2616"/>
<path d="M1619.5 394.591C1619.5 405.637 1578 399 1437 390C1340.5 398.5 1240.5 359.046 1240.5 348C1250 340 1377.5 322.5 1459 325C1516.47 326.763 1619.5 383.545 1619.5 394.591Z" fill="#181818"/>
<path d="M1064.5 779.988L1104 780.5L1100 786L1064.5 784.219V779.988Z" fill="#89BEAA"/>
<path d="M1064.5 788.269L1100 790L1095.5 795L1064.5 794V788.269Z" fill="#89BEAA"/>
<path d="M1064.5 798L1095.5 799.5L1091 806.5L1064.5 805V798Z" fill="#89BEAA"/>
<path d="M1064.5 784L1100 786V790.012L1064.5 788.231V784Z" fill="#0D3F41"/>
<path d="M1064.5 793.964L1095.5 795V799.5L1064.5 798.195V793.964Z" fill="#0D3F41"/>
<path d="M1064.5 805L1091 806.5V811L1064.5 809.5V805Z" fill="#0D3F41"/>
<path d="M1082 836.5L1025 835L1017 844L1079.5 844L1082 836.5Z" fill="#89BEAA"/>
<path d="M1079.5 850L1023 848.673L1015 857.673L1077.5 858L1079.5 850Z" fill="#3F7773"/>
<path d="M1064.5 809.5L1091 811L1086.5 818.5L1064.5 817.5V809.5Z" fill="#89BEAA"/>
<path d="M1064.5 817.5L1086.5 818.5V823L1064.5 822V817.5Z" fill="#0D3F41"/>
<path d="M1064.5 822L1086.5 823L1082 831L1064.5 830.5V822Z" fill="#89BEAA"/>
<path d="M1064.5 830.5L1082 831V836.5H1065L1064.5 831V830.5Z" fill="#0D3F41"/>
<path d="M1030.5 844H1017V850H1030L1030.5 844Z" fill="#0D3F41"/>
<path d="M1066 844H1079.5V850H1066.5L1066 844Z" fill="#0D3F41"/>
<path d="M1064 858H1077.5V864H1064.5L1064 858Z" fill="#0C3A3C"/>
<path d="M1065.5 850.122L1009 849.369L1002 857.999L1046.97 859.378L1065.5 850.122Z" fill="#89BEAA"/>
<path d="M1045 858H1002V864H1043.41L1045 858Z" fill="#0D3F41"/>
<path d="M1048.5 864.122L992 863.369L985 871.999L1029.97 873.378L1048.5 864.122Z" fill="#89BEAA"/>
<path d="M1043 872H985V878H1040.85L1043 872Z" fill="#0D3F41"/>
<path d="M1058.25 878.246L971.848 876.918L961.189 888.749L1029.97 890.878L1058.25 878.246Z" fill="#89BEAA"/>
<path d="M1036.15 897.246L949.736 896.225L939 910L1036.06 913.68L1036.15 897.246Z" fill="#89BEAA"/>
<path d="M1041 889.001H961V896.5L1038.04 897.001L1041 889.001Z" fill="#0D3F41"/>
<path d="M1039 910H939V917.499L1039 918V914V910Z" fill="#0D3F41"/>
<path d="M1044 918L925.624 917.027L911.023 935.761L1043.02 940.766L1044 918Z" fill="#89BEAA"/>
<path d="M1047 936H911V945.374L1047 946V941V936Z" fill="#0D3F41"/>
<path d="M1044.95 945.777L891.022 944.512L872.036 968.872L1047 968.872L1044.95 945.777Z" fill="#89BEAA"/>
<path d="M1047 968.865L872 968.999V980.999H1047V968.865Z" fill="#0D3F41"/>
<path d="M1049.96 981.173L857.755 979.383L834.048 1013.84L1052.53 1013.85L1049.96 981.173Z" fill="#89BEAA"/>
<path d="M1052.5 1014L834 1014.19V1031H1052.5V1014Z" fill="#0D3F41"/>
<path d="M1058.65 1030.86L826.672 1028.7L798.059 1070.3L1061.74 1070.3L1058.65 1030.86Z" fill="#89BEAA"/>
<path d="M1062 1070L798 1070.23V1091H1062V1070Z" fill="#0D3F41"/>
<path d="M1067.95 1090.69L792.988 1088.13L759.073 1137.43L1071.62 1137.43L1067.95 1090.69Z" fill="#89BEAA"/>
<path d="M1071.5 1137.28L759 1137.28V1162H1071.5V1137.28Z" fill="#0D3F41"/>
<path d="M1084.51 1161.95L756.54 1158.89L716.087 1217.69L1088.88 1217.7L1084.51 1161.95Z" fill="#89BEAA"/>
<path d="M1089 1218L716 1218V1247H1089V1218Z" fill="#0D3F41"/>
<path d="M1255 778L1313 743L1208.5 733L1122 729.5L1053 903.5L1091.5 929.5L1156 886.5L1214.5 836L1255 778Z" fill="#162D1D"/>
<path d="M1255 778L1313 743L1384 674L1184.5 658L1122 729.5L1168 778L1261 800L1255 778Z" fill="#2D4E36"/>
<path d="M1210.38 750.027C1210.87 746.481 1209.29 742.771 1205.94 739.591C1202.58 736.411 1197.68 733.98 1192.15 732.752C1186.62 731.524 1180.84 731.585 1175.89 732.922C1170.95 734.259 1167.17 736.781 1165.28 740.016C1163.38 743.251 1163.5 746.976 1165.6 750.495C1167.7 754.014 1171.65 757.084 1176.7 759.132C1181.75 761.179 1187.56 762.062 1193.04 761.617C1198.52 761.171 1203.29 759.427 1206.46 756.711L1187.2 746.801L1210.38 750.027Z" fill="#213C29"/>
<path opacity="0.29" d="M1219.5 775C1223.64 775 1227 773.433 1227 771.5C1227 769.567 1223.64 768 1219.5 768C1215.36 768 1212 769.567 1212 771.5C1212 773.433 1215.36 775 1219.5 775Z" fill="#142D1C"/>
<path opacity="0.54" d="M1232 766C1239.18 766 1245 763.538 1245 760.5C1245 757.462 1239.18 755 1232 755C1224.82 755 1219 757.462 1219 760.5C1219 763.538 1224.82 766 1232 766Z" fill="#142D1C"/>
<path opacity="0.29" d="M854 741C857.314 741 860 739.881 860 738.5C860 737.119 857.314 736 854 736C850.686 736 848 737.119 848 738.5C848 739.881 850.686 741 854 741Z" fill="#142D1C"/>
<path opacity="0.54" d="M846 749C850.418 749 854 747.433 854 745.5C854 743.567 850.418 742 846 742C841.582 742 838 743.567 838 745.5C838 747.433 841.582 749 846 749Z" fill="#142D1C"/>
<path d="M862.129 748.68C861.855 746.711 862.732 744.65 864.595 742.883C866.459 741.117 869.182 739.766 872.254 739.084C875.326 738.402 878.537 738.436 881.284 739.179C884.032 739.921 886.128 741.322 887.181 743.119C888.233 744.916 888.169 746.986 887.002 748.94C885.834 750.895 883.642 752.601 880.837 753.738C878.032 754.875 874.805 755.366 871.762 755.118C868.718 754.871 866.066 753.902 864.303 752.393L875.003 746.888L862.129 748.68Z" fill="#213C29"/>
<path d="M1204.5 815.5L1524.5 526L1544 753L1729.5 856L1654.5 982L1624.5 1108L1584 1404L1100.5 1379.5V1261.5V1179.5L1077.5 1100.5L1075 1046.5L1100.5 902L1204.5 815.5Z" fill="#355B41"/>
<path d="M1100.5 902L1253 935L1247 1108L1654.5 982L1624.5 1108L1584 1404L1100.5 1379.5V1261.5V1179.5L1077.5 1100.5L1075 1046.5L1100.5 902Z" fill="#284A32"/>
<path d="M1100.5 902L1253 935L1222 1029.5L1163 1036.5L1100.5 1178L1077.5 1100.5L1075 1046.5L1100.5 902Z" fill="#1C3925"/>
<path d="M1245.5 1108L1431.5 953L1654.5 637.5L1544 753L1729.5 856L1654.5 982L1624.5 1108L1584 1404L1100.5 1379.5L1245.5 1108Z" fill="#172D1E"/>
<path d="M1410 362.5L1492.5 366L1479.5 408L1475 450.5L1479.5 516L1484 581.5L1522.5 754L1571 879.5L1577 956L1505 951.5L1476.5 814.5L1460.5 742L1450.5 621.5L1436 575L1430 527.5L1419.5 426L1410 362.5Z" fill="#292929"/>
<path d="M1608.5 379C1554 364 1530 325 1441 331C1327.93 338.622 1251 361.5 1240.5 347.747C1286.5 321 1361.5 296 1441 261C1530.5 296.5 1608.5 360.775 1608.5 379Z" fill="#89BEAA"/>
<path d="M518 464.952C518 472.695 489.092 468.043 390.876 461.734C323.657 467.692 254 440.035 254 432.292C260.617 426.685 349.43 414.417 406.201 416.17C446.234 417.405 518 457.209 518 464.952Z" fill="#0A0A0A"/>
<path d="M518 465.5C480.087 455.076 455.391 416.475 393.478 420.644C314.824 425.941 261.304 441.839 254 432.282C286 413.695 338.173 396.322 393.478 372C455.738 396.669 518 452.835 518 465.5Z" fill="#B7D6D6"/>
<path d="M1 536.213L94 452.713L218 503.713L253 572.713L0.5 646.5L1 536.213Z" fill="#293634"/>
<path d="M313 674L371 690L474.5 843L428 902.5L356.5 836L283 786L244 765.5L0.5 646.5L252.5 572.5L283 589L313 674Z" fill="#121B17"/>
<path d="M313 674L371 690L474.5 843L428 902.5L356.5 836L283 786L244 765.5L0.5 646.5L313 674Z" fill="#1B2521"/>
<path d="M284 786.5L356.5 836L428 902.5V1002.5L0.5 913.5V646.5L260 773L284 786.5Z" fill="#293331"/>
<path d="M428 1002.5L509 1145L372.5 1108L0.5 913.5L428 1002.5Z" fill="#202926"/>
<path d="M372.5 1108L297.5 1227L148 1257L121 1148L38 1038L0.5 913.5L372.5 1108Z" fill="#2B3330"/>
<path d="M148 1257L0.5 1330V1103V913.5L38 1038L121 1148L148 1257Z" fill="#1C2622"/>
<path d="M313 674L452 607L575.5 585L646.5 588L700.5 617.5L746.5 625.5L799.5 640.5L739 872H711V736.5L706 713L693 683.5L667.5 658.5L632 640.5H557.5L524.5 654.5L491 686.5L473.5 721.5L470 756L474.5 843L381.5 743.5L313 674Z" fill="#282827"/>
<path d="M0 162L12 184V206.5L34 215L43.5 236L34 278L59 316L72 423L93.5 452.5L-13.5 552.5L0 162Z" fill="#192320"/>
<path d="M218.002 503.5L282.996 589L252.996 573L218.002 503.5Z" fill="#101815"/>
<path d="M524.5 654L540 646L557.5 640.5L575.5 639L595 638.5L614 639L632 640.5L651.5 647.5L667.5 658.5L681.5 670L693.5 683.5L700.5 698.5L706 713L711 735.5V872L662 847V788.5L650 758L628 728L615.5 717.5L602 710L579 708.5L556.5 709.5L529.5 716.5L518.5 723L510 730.5L504 742.5L498 760.5L493 776L488.5 794L486 811.75L483.5 829.5L474.5 843L469 756.5L473.5 721.5L481 704.5L491 686.5L506 670L524.5 654Z" fill="#10100D"/>
<path d="M428 902.5L474.5 843L469.5 929L428 1002.5V902.5Z" fill="#101815"/>
<path d="M372.5 1108L509 1145L478 1210.5L297.5 1227L372.5 1108Z" fill="#111A17"/>
<path d="M399.716 699.98L379.314 697.221L368.435 712.698L350.527 711.323L339.5 692.5L322.5 676.927L363 656L381.26 659.705L405.535 676.927L399.716 699.98Z" fill="#1D1D1B"/>
<path d="M459.086 619.388L462.777 628.839L456.565 638.182L467.032 641.872L465.475 654.46L453.132 656.913L437.59 653.259L434.105 645.468L430.069 631.086L443.014 614.526L459.086 619.388Z" fill="#1D1D1B"/>
<path d="M729.803 767.62L731.92 774.191L728.235 780.734L734.351 783.257L733.378 792.04L726.133 793.809L717.043 791.336L715.038 785.921L712.741 775.915L720.407 764.308L729.803 767.62Z" fill="#1D1D1B"/>
<path d="M749.233 630.307L757.602 631.767L768.782 634.379L777.12 640.96L773.517 650.863L764.153 660.405L757.061 659.518L745.011 656.164L738.774 639.705L749.233 630.307Z" fill="#1D1D1B"/>
<path d="M568.996 626L555.601 623.279L549.537 625.133L549.23 618.868L542.161 617.676L538.837 623.965L530.996 643.208L570.494 634.999L568.996 626Z" fill="#1D1D1B"/>
<path d="M451.104 702.216L448.216 709.613L453.077 716.925L444.886 719.813L446.105 729.665L455.765 731.585L467.929 728.725L470.656 722.627L473.815 711.372L463.683 698.411L451.104 702.216Z" fill="#1D1D1B"/>
<path d="M745.767 725.587L735.073 733.69L743.219 744.076L746.397 753.48L756.246 753.415L767.585 748.164L769.028 741.643L769.856 729.982L757.322 719.327L745.767 725.587Z" fill="#1D1D1B"/>
<path d="M604.351 613.531L596.545 612.074L590.269 618.215L585.903 610.706L576.451 613.742L576.368 623.591L581.449 635.007L587.948 636.549L599.595 637.551L610.437 625.179L604.351 613.531Z" fill="#1D1D1B"/>
<path d="M402.564 706.335L406.621 696.568L411.063 678.711L421.667 667.581L435.454 674.105L437.606 687.965L447.944 688.884L445.711 698.984L446.635 712.906L439.257 715.898L414.699 722.671L402.564 706.335Z" fill="#1D1D1B"/>
<path d="M686.698 649L680.006 662.5L661.639 650.649L647.767 644.049L649.205 630.451L661.341 625.259L658.733 616.011L668.849 615.547L681.454 611.414L686.698 617.141L706.504 623.5L696.006 649L686.698 649Z" fill="#1D1D1B"/>
<path d="M613.501 591L638.501 589L656 601L660.009 610.518L649.154 616.981L653.503 624.942L643.703 626.843L631.001 636L609.5 636L616.501 623L607.908 612.262L613.501 591Z" fill="#1D1D1B"/>
<path d="M542.398 609.73L523.046 649.369L508.503 661L499.73 640.856L512.504 623L499.73 604.5L517.504 598.5L542.398 609.73Z" fill="#1D1D1B"/>
<path d="M420.23 666.175L407.831 671.924L399.585 662.17L390.711 655.362L394.361 644.882L404.083 634.698L411.563 635.53L424.301 638.887L431.107 656.128L420.23 666.175Z" fill="#1D1D1B"/>
<path d="M589.563 588.506L581.9 592.644L583.736 600.573L583.828 607.7L590.57 609.833L599.477 608.752L601.904 604.616L605.047 596.833L605.046 588.507L589.563 588.506Z" fill="#1D1D1B"/>
<path d="M721.18 829.389L713.077 832.581L713.952 840.673L713.192 847.76L719.631 850.683L728.602 850.674L731.507 846.858L735.558 839.507L736.551 831.24L721.18 829.389Z" fill="#1D1D1B"/>
<path d="M498.505 669.5L492.501 680L485.504 684.5L479.741 663.395L472.53 657.984L474.845 650.504L481.879 643.538L487.716 644.513L497.75 647.59L503.869 660.524L498.505 669.5Z" fill="#1D1D1B"/>
<path d="M466.174 691.472L452.751 694.045L451.499 684.362L441.495 683.001L440.156 673.827L446.237 664.544L458.138 657.021L465.194 659.641L476.738 665.985L479.162 684.362L466.174 691.472Z" fill="#1D1D1B"/>
<path d="M734.769 637.199L738.758 650.271L729.263 652.548L728.977 662.641L719.998 664.951L710.12 659.894L701.37 648.863L703.223 641.568L708.3 629.414L726.313 625.044L734.769 637.199Z" fill="#1D1D1B"/>
<path d="M479.865 639.472L493.287 642.045L498.923 630.583L505.882 621.826L499.801 612.544L487.9 605.02L480.844 607.641L469.3 613.985L466.877 632.361L479.865 639.472Z" fill="#1D1D1B"/>
<path d="M747.5 700.644L753.5 712L772.5 725L784.916 683.584L778 663H755.5L737 656.5L725.675 670.885L721.75 700.644H747.5Z" fill="#1D1D1B"/>
<path d="M557.596 619.962L569.559 622.255L574.582 612.039L580.785 604.235L575.365 595.962L564.758 589.257L558.469 591.592L548.181 597.246L546.021 613.625L557.596 619.962Z" fill="#1D1D1B"/>
<path d="M725.596 826.962L737.559 829.255L742.582 819.039L748.785 811.235L743.365 802.962L732.758 796.257L726.469 798.592L716.181 804.246L714.021 820.625L725.596 826.962Z" fill="#1D1D1B"/>
<path d="M435.096 791.973L443.026 803.103L455.018 798.705L466.099 797.179L468.111 786.266L464.7 772.606L457.788 769.628L445.058 766.244L430.613 777.86L435.096 791.973Z" fill="#1D1D1B"/>
<path d="M452.631 808.064L456.723 802.321L462.91 804.59L468.627 805.378L469.665 811.008L467.905 818.056L464.339 819.592L457.771 821.338L450.318 815.345L452.631 808.064Z" fill="#1D1D1B"/>
<path d="M723.631 859.064L727.723 853.321L733.91 855.59L739.627 856.378L740.665 862.008L738.905 869.056L735.339 870.592L728.771 872.338L721.318 866.345L723.631 859.064Z" fill="#1D1D1B"/>
<path d="M778.623 646.678L782.402 639.287L787.88 642.038L792.97 642.916L793.776 650.054L792.051 659.054L788.832 661.085L782.928 663.447L776.4 655.987L778.623 646.678Z" fill="#1D1D1B"/>
<path d="M715.5 756.512L716.576 744.314L719.119 738.511L727.856 739.652L738.066 744.355L739.537 748.786L740.613 756.512L729.807 762.09L715.5 756.512Z" fill="#1D1D1B"/>
<path d="M469.767 694.032L473.204 690.205L481.286 686.309L486.245 688.012L481.875 697.563L480.021 702.527L477.31 703.349L472.406 704.077L467.494 699.121L469.767 694.032Z" fill="#1D1D1B"/>
<path d="M540.445 594.082L536.141 593.492L528.807 595.395L526.543 599.199L534.572 602.966L538.477 605.153L540.672 604.202L544.228 601.993L544.687 596.12L540.445 594.082Z" fill="#1D1D1B"/>
<path d="M749.445 789.082L745.141 788.492L737.807 790.395L735.543 794.199L743.572 797.966L747.477 800.153L749.672 799.202L753.228 796.993L753.687 791.12L749.445 789.082Z" fill="#1D1D1B"/>
<path d="M449.497 745.537L449.582 752.881L448.574 762.235L456.03 765.675L466.922 766.247L465.815 753.147L468.501 746.074L466.364 742.64L461.786 737.241L451.849 737.936L449.497 745.537Z" fill="#1D1D1B"/>
<path d="M687.932 673.032L694.879 678.7L707.838 707.001L718.5 700L720.974 672.918L707.835 663.7L703.31 655.648L698.42 654.961L689.778 655.025L682.651 664.878L687.932 673.032Z" fill="#1D1D1B"/>
<path d="M405.384 741.433L390.086 748.527L379.912 736.492L368.962 728.092L373.465 715.161L385.461 702.596L394.691 703.622L405.384 720L418.805 729.037L405.384 741.433Z" fill="#1D1D1B"/>
<path d="M433.505 769.338L419.92 775.637L410.885 764.95L401.162 757.491L405.161 746.008L415.813 734.85L429.966 727.998L443.114 738.407L445.422 758.329L433.505 769.338Z" fill="#1D1D1B"/>
<path d="M726.726 735.636L714.553 733.041L713.927 721.461L711.223 711.676L719.64 706.063L732.308 703.979L745.135 706.491L748.629 719.936L732.305 724L726.726 735.636Z" fill="#1D1D1B"/>
<path d="M735.934 767.197L733.925 777.177L742.412 781.412L748.877 786.623L755.827 782.13L761.51 773.3L763.795 762.856L761.51 756L748.877 757L742.412 761.5L735.934 767.197Z" fill="#1D1D1B"/>
<path d="M366.687 437.004L429.213 449.533L404.388 492.345L381.858 588.548L421.548 720.464L454.257 816.566L448.763 869.191L371.761 847.986L362.437 749.256L356.512 696.777L334.39 642.97L340.032 592.142L369.289 467.212L366.687 437.004Z" fill="#141414"/>
<path d="M1240 612.5C1240 623.546 1194.5 636 1053.5 627C957 635.5 861.5 590.046 861.5 579C861.5 567.954 972 582.501 1053.5 585C1110.97 586.763 1240 601.455 1240 612.5Z" fill="#181818"/>
<path d="M1014 616L1116.9 622.612L1070.13 693.394V846.062L1121.62 1047.23L1198 1163.59L1150 1269H1121.62V1239.92L1081.5 1142.34L1060 1035.4L1034.83 944.66L1028.47 866.205V667.949L1014 616Z" fill="#252424"/>
<path d="M-27 1447.52H301.257L926.386 1385L1108.01 1374L1551 1399.51L1528.88 2977H-27V1447.52Z" fill="#3C5F47"/>
<path d="M1303.33 341.428C1302.95 333.833 1318.8 314.072 1338.04 313.108C1357.28 312.144 1380.67 322.112 1381.05 329.707C1381.43 337.302 1382.74 338.082 1341.06 342.466C1321.56 345.43 1303.71 349.024 1303.33 341.428Z" fill="#5A9F85"/>
<path d="M965.499 35.4994C967.703 42.7779 955.915 65.124 937.475 70.7063C919.036 76.2886 893.198 76.2777 890.995 68.9992C888.791 61.7207 886.61 57.3197 925.998 43.0002C944.21 35.4137 963.296 28.2208 965.499 35.4994Z" fill="#5A9F85"/>
<path d="M831.117 142.321C827.646 135.555 833.965 111.023 851.106 102.229C868.248 93.4353 893.663 92.9013 897.135 99.6676C900.606 106.434 902.126 106.604 865.938 127.745C849.379 138.47 834.588 149.088 831.117 142.321Z" fill="#5A9F85"/>
<path d="M1520.71 306.449C1516.67 312.894 1492.36 320.016 1476.04 309.788C1459.71 299.559 1446.25 277.996 1450.28 271.551C1454.32 265.107 1453.69 263.714 1490.37 283.989C1508.06 292.729 1524.75 300.005 1520.71 306.449Z" fill="#5A9F85"/>
<path d="M1125.57 44.1139C1123.31 51.3738 1101.61 64.4504 1083.22 58.7147C1064.82 52.9789 1046.32 35.553 1048.58 28.293C1050.84 21.0331 1046.5 19.9999 1088.5 28.2929C1113.5 34.9996 1127.83 36.854 1125.57 44.1139Z" fill="#5A9F85"/>
<path d="M1424.01 271.501C1425.55 276.606 1416.65 295.643 1403.72 299.567C1390.79 303.491 1371.06 300.605 1369.51 295.5C1367.96 290.396 1369.05 290.161 1396.68 280.099C1409.45 274.769 1422.46 266.396 1424.01 271.501Z" fill="#5A9F85"/>
<path d="M375.502 382.5C376.766 386.792 368.528 402.809 357.654 406.01C346.781 409.211 328.26 406.792 326.997 402.5C325.733 398.208 341.111 394.221 352.195 389.112C363.068 385.911 374.239 378.208 375.502 382.5Z" fill="#8FB4B4"/>
<path d="M355.124 420.882C355.164 416.408 366.017 404.362 377.351 404.463C388.685 404.564 403.714 411.959 403.674 416.433C403.634 420.907 389.748 420.555 377.658 422.219C366.324 422.118 355.084 425.356 355.124 420.882Z" fill="#8FB4B4"/>
<path d="M270.176 433.214C270.08 429.807 278.002 420.331 286.634 420.088C295.265 419.846 306.914 425.051 307.01 428.458C307.105 431.865 296.525 431.989 287.368 433.596C278.737 433.839 270.272 436.621 270.176 433.214Z" fill="#8FB4B4"/>
<path d="M476.701 424.335C473.187 428.637 453.319 431.877 442.419 422.977C431.518 414.076 422.704 395.241 426.217 390.938C429.731 386.636 442.908 397.76 455.911 405.539C466.812 414.439 480.214 420.032 476.701 424.335Z" fill="#8FB4B4"/>
<path d="M1415.5 278.5C1417.34 286.803 1405.99 315.939 1391.71 319.104C1377.42 322.268 1356.1 312.702 1354.26 304.399C1352.42 296.097 1365.88 292.04 1382.15 285.943C1398.29 278.609 1413.66 270.198 1415.5 278.5Z" fill="white"/>
<path d="M1011.23 25.1028C1012.08 31.7967 992.456 55.1034 973.728 57.4985C955 59.8937 929.59 51.9805 928.734 45.2866C927.878 38.5928 937 38 968.998 28.9997C993 24.4997 1010.37 18.409 1011.23 25.1028Z" fill="white"/>
<path d="M1442 324C1443.57 317.06 1468.44 299.833 1480.38 302.539C1492.32 305.245 1510.57 324.107 1509 331.047C1507.42 337.987 1490.26 332.244 1475.77 331.047C1460.94 330.836 1440.43 330.94 1442 324Z" fill="white"/>
<path d="M1068.83 60.6858C1070.4 53.7459 1095.27 36.5189 1107.21 39.2248C1119.15 41.9306 1137.4 60.7927 1135.83 67.7327C1134.25 74.6726 1117.09 68.9291 1102.6 67.733C1087.77 67.5216 1067.26 67.6258 1068.83 60.6858Z" fill="white"/>
<path d="M421.196 388.053C419.263 390.875 408.963 395.003 404.106 391.676C399.249 388.348 396.197 379.452 398.13 376.629C400.064 373.807 404.958 376.647 411.222 379.752C417.813 382.477 423.13 385.23 421.196 388.053Z" fill="white"/>
<path d="M476.737 441.155C478.934 438.532 489.584 435.418 494.097 439.198C498.611 442.978 500.791 452.128 498.594 454.751C496.397 457.374 491.8 454.074 485.864 450.38C479.567 447.031 474.54 443.778 476.737 441.155Z" fill="white"/>
<path d="M1301.49 335.616C1301.32 331.62 1311.37 320.372 1321.43 319.922C1331.49 319.471 1344.68 325.451 1344.86 329.447C1345.03 333.444 1338 337.965 1326.22 339.638C1314.38 341.897 1301.67 339.613 1301.49 335.616Z" fill="white"/>
<path d="M809.391 147.21C807.392 143.307 812.288 127.515 822.111 122.483C831.935 117.451 847.807 117.403 849.806 121.305C851.805 125.207 846.856 132.918 835.877 139.952C825.096 147.601 811.39 151.112 809.391 147.21Z" fill="white"/>
<path d="M1010.19 56.8342C1010.32 52.28 1022.69 40.3508 1034.15 40.6859C1045.62 41.0211 1060.09 48.9231 1059.96 53.4773C1059.83 58.0315 1051.46 62.5749 1037.94 63.4839C1024.3 65.0525 1010.06 61.3884 1010.19 56.8342Z" fill="white"/>
<path d="M317.684 419.375C317.498 415.223 327.942 403.536 338.394 403.068C348.847 402.6 362.551 408.813 362.737 412.965C362.923 417.118 355.618 421.815 343.379 423.554C331.07 425.901 317.87 423.527 317.684 419.375Z" fill="white"/>
<path d="M424.438 412.99C425.456 409.746 436.753 403.684 444.918 406.248C453.084 408.812 461.88 417.42 460.862 420.664C459.844 423.908 452.914 425.475 443.021 423.389C432.903 421.75 423.419 416.234 424.438 412.99Z" fill="white"/>
<path d="M790.587 1331.21L758.694 1327.43L739.073 1300.99L757.871 1274.27L778.913 1257.74L793.617 1253.3L814.119 1261.69L847.461 1281.48L842.893 1307.07L790.587 1331.21Z" fill="#09150D"/>
<path d="M971.185 1282.7L955.843 1284.52L946.404 1297.24L955.447 1310.09L965.569 1318.05L972.643 1320.18L982.506 1316.14L998.546 1306.62L996.348 1294.31L971.185 1282.7Z" fill="#09150D"/>
<path d="M946.682 1371.94L972.69 1361.86L982.205 1335.77L959.09 1317.84L936.812 1308.79L923.157 1308.34L908.042 1319.73L885.11 1343.33L895.864 1363.44L946.682 1371.94Z" fill="#09150D"/>
<path d="M838.449 1315.36L862.84 1315.96L879.558 1334.56L867.238 1356.1L852.497 1370.1L841.691 1374.5L825.588 1369.61L798.964 1357.01L800.602 1337.33L838.449 1315.36Z" fill="#09150D"/>
<path d="M1041.93 1251.95L1064.84 1250.8L1084.51 1281.5L1069.5 1292.5L1040.82 1307.82L1024.5 1318.5L1001.84 1294.23L1010.51 1277.5L1041.93 1251.95Z" fill="#09150D"/>
<path d="M1015.7 1320.49L1000.28 1312.42L983.419 1318.24L983.651 1335.94L988.003 1349.77L993.22 1356.26L1004.96 1358.78L1025.92 1360.13L1031.71 1347.29L1036 1329.5L1015.7 1320.49Z" fill="#09150D"/>
<path d="M855.002 1295.5L862.786 1270.76L878.561 1256.75L896.67 1267.24L908.404 1279.75L912.065 1288.88L907.858 1302.44L902 1318.5L881.5 1318.5L855.002 1295.5Z" fill="#09150D"/>
<path d="M946.193 1252.23L954.791 1268.41L954.027 1283.3L933.5 1302L921.483 1302L914.5 1277L911.324 1264.49L921.483 1254.17L946.193 1252.23Z" fill="#09150D"/>
<path d="M969.213 1278.26L961.141 1271.41L962.11 1264.97L982.264 1256.59L993.895 1256.4L1000.27 1267.08L1003.15 1272.43L993.158 1277.04L969.213 1278.26Z" fill="#09150D"/>
<path d="M766.434 1371.38L761.177 1362.54L764.236 1357.27L785.888 1357.09L796.826 1361.05L799.212 1372.63L800.118 1378.31L789.233 1378.8L766.434 1371.38Z" fill="#09150D"/>
<path d="M1046.01 1313.67L1059.5 1298.14L1080.58 1297.27L1087.96 1316.86L1089.14 1333.97L1086.19 1343.36L1074.36 1351.19L1051.85 1361.73L1039.94 1350.09L1046.01 1313.67Z" fill="#09150D"/>
<path d="M597.393 922.069L592.683 901.381L604.793 883.311L625.586 889.092L640.536 898.527L646.558 906.695L645.874 921.316L640.942 946.452L624.006 949.277L597.393 922.069Z" fill="#26452F"/>
<path d="M667.587 1023.73L663.055 1014.58L653.048 1011.53L647.051 1020L644.344 1028.06L644.582 1032.94L649.281 1038.18L658.76 1046.06L665.934 1041.96L667.587 1023.73Z" fill="#26452F"/>
<path d="M606.616 1028.25L618.65 1042.2L636.997 1042.34L643.04 1023.98L643.734 1008.11L640.993 999.514L630.55 992.631L610.783 983.586L600.65 994.734L606.616 1028.25Z" fill="#26452F"/>
<path d="M617.853 948.348L622.885 963.661L615.009 978.188L598.872 975.292L586.894 969.218L581.76 963.468L581.239 952.361L583.183 932.999L595.792 929.659L617.853 948.348Z" fill="#26452F"/>
<path d="M694.16 1052.33L697.719 1069.97L694.16 1091.33L683.989 1084.42L668.098 1069.97L657.837 1062.18L667.924 1042.7L680.256 1044.38L694.16 1052.33Z" fill="#26452F"/>
<path d="M653.929 1059.81L655.533 1048.42L648.174 1039.22L637.209 1043.28L629.565 1049.05L626.684 1053.74L627.717 1061.6L631.52 1074.95L640.794 1075.71L652.817 1074.44L653.929 1059.81Z" fill="#26452F"/>
<path d="M633.881 954.25L651.006 953.614L663.221 960.329L660.699 973.926L655.517 983.999L650.641 988.301L641.27 988.686L629.978 988.598L625.436 975.838L633.881 954.25Z" fill="#26452F"/>
<path d="M681.015 1001.43L672.849 1010.36L663.416 1013.18L647.228 1004.55L644.566 997.07L658.579 987.186L665.659 982.439L674.333 986.475L681.015 1001.43Z" fill="#26452F"/>
<path d="M595.836 894.68L587.669 903.616L578.236 906.437L562.049 897.804L559.386 890.325L573.4 880.44L580.479 875.693L589.153 879.73L595.836 894.68Z" fill="#26452F"/>
<path d="M669.915 1021.52L672.391 1014.98L676.612 1014.15L686.298 1024.84L688.99 1032.04L683.752 1038.37L681.061 1041.35L675.978 1036.15L669.915 1021.52Z" fill="#26452F"/>
<path d="M567.034 915.935L571.371 910.705L575.33 911.441L590.5 913L590.5 925.5L580.198 932.562L573.52 936.613L570.18 938.437L567.467 931.769L567.034 915.935Z" fill="#26452F"/>
<path d="M664.885 1077.16L677.543 1082.12L682.752 1095.05L672.196 1103.98L661.809 1108.5L655.311 1108.75L647.812 1103.12L636.271 1091.45L640.878 1081.45L664.885 1077.16Z" fill="#26452F"/>
<path d="M680.827 1144.5L687.632 1136.89L698.092 1136.61L701.613 1146.38L702.074 1154.87L700.546 1159.51L694.62 1163.31L683.385 1168.38L677.562 1162.52L680.827 1144.5Z" fill="#183120"/>
<path d="M738.387 1165.1L723.07 1175.35L705.349 1170.59L704.416 1151.29L707.975 1135.81L712.909 1128.25L724.809 1124.4L746.271 1120.95L753.068 1134.39L738.387 1165.1Z" fill="#183120"/>
<path d="M731.822 1086.52L715.486 1081.34L701.924 1084.56L700.731 1098.33L703.042 1109.42L706.595 1114.87L715.525 1117.74L726.432 1120.66L734.209 1109.57L731.822 1086.52Z" fill="#183120"/>
<path d="M687.736 1112.58L687.093 1105.61L683.244 1103.69L671.061 1111.41L666.548 1117.63L669.909 1125.13L671.709 1128.72L677.993 1125.07L687.736 1112.58Z" fill="#26452F"/>
<path d="M712.969 1125.47L710.716 1118.82L706.173 1116.17L694.894 1120.64L691.471 1125.43L696.747 1133.2L699.476 1136.95L705.368 1134.95L712.969 1125.47Z" fill="#183120"/>
<path d="M1201.75 1448L1366.5 1471.75L1536 1540.25L1513.75 1443L1588 1129.5L1467 1149L1366.5 1187L1273.75 1281L1201.75 1448Z" fill="#223327"/>
<path d="M1455.5 1399.5L1513.75 1443L1588 1129.5L1467 1149L1415.75 1238L1455.5 1399.5Z" fill="#09180D"/>
<path d="M1357 1190L1329.5 1224L1415.75 1238L1557.25 1202.25L1581 1209.5L1586 1129.5L1465 1149L1357 1190Z" fill="#3A6C49"/>
<path d="M1357 1190L1329.5 1224L1415.75 1238L1557.25 1202.25L1581 1209.5L1586 1129.5L1465 1149L1357 1190Z" fill="#30563C"/>
<path d="M305.25 1478L140.5 1501.75L-29 1570.25L-6.75 1473L-81 1159.5L40 1179L140.5 1217L233.25 1311L305.25 1478Z" fill="#223327"/>
<path d="M51.5 1429.5L-6.75 1473L-81 1159.5L40 1179L91.25 1268L51.5 1429.5Z" fill="#09180D"/>
<path d="M150 1220L177.5 1254L91.25 1268L-50.25 1232.25L-74 1239.5L-79 1159.5L42 1179L150 1220Z" fill="#3A6C49"/>
<path d="M150 1220L177.5 1254L91.25 1268L-50.25 1232.25L-74 1239.5L-79 1159.5L42 1179L150 1220Z" fill="#30563C"/>
<path opacity="0.29" d="M1297 1523C1305.84 1523 1313 1519.64 1313 1515.5C1313 1511.36 1305.84 1508 1297 1508C1288.16 1508 1281 1511.36 1281 1515.5C1281 1519.64 1288.16 1523 1297 1523Z" fill="#294632"/>
<path opacity="0.29" d="M1467.5 1542C1474.4 1542 1480 1538.64 1480 1534.5C1480 1530.36 1474.4 1527 1467.5 1527C1460.6 1527 1455 1530.36 1455 1534.5C1455 1538.64 1460.6 1542 1467.5 1542Z" fill="#24412D"/>
<path opacity="0.29" d="M354.5 1497C361.404 1497 367 1494.54 367 1491.5C367 1488.46 361.404 1486 354.5 1486C347.596 1486 342 1488.46 342 1491.5C342 1494.54 347.596 1497 354.5 1497Z" fill="#24412D"/>
<path opacity="0.29" d="M209.5 1517C216.404 1517 222 1514.54 222 1511.5C222 1508.46 216.404 1506 209.5 1506C202.596 1506 197 1508.46 197 1511.5C197 1514.54 202.596 1517 209.5 1517Z" fill="#24412D"/>
<path opacity="0.5" d="M1404 1542C1411.18 1542 1417 1539.76 1417 1537C1417 1534.24 1411.18 1532 1404 1532C1396.82 1532 1391 1534.24 1391 1537C1391 1539.76 1396.82 1542 1404 1542Z" fill="#24412D"/>
<path opacity="0.5" d="M1196 1421C1203.18 1421 1209 1418.76 1209 1416C1209 1413.24 1203.18 1411 1196 1411C1188.82 1411 1183 1413.24 1183 1416C1183 1418.76 1188.82 1421 1196 1421Z" fill="#24412D"/>
<path opacity="0.5" d="M1434 1532C1443.39 1532 1451 1528.64 1451 1524.5C1451 1520.36 1443.39 1517 1434 1517C1424.61 1517 1417 1520.36 1417 1524.5C1417 1528.64 1424.61 1532 1434 1532Z" fill="#24412D"/>
<path opacity="0.5" d="M335 1480C344.389 1480 352 1476.64 352 1472.5C352 1468.36 344.389 1465 335 1465C325.611 1465 318 1468.36 318 1472.5C318 1476.64 325.611 1480 335 1480Z" fill="#24412D"/>
<path opacity="0.54" d="M1324 1503C1340.02 1503 1353 1497.85 1353 1491.5C1353 1485.15 1340.02 1480 1324 1480C1307.98 1480 1295 1485.15 1295 1491.5C1295 1497.85 1307.98 1503 1324 1503Z" fill="#294632"/>
<path opacity="0.54" d="M168 1540C184.016 1540 197 1534.85 197 1528.5C197 1522.15 184.016 1517 168 1517C151.984 1517 139 1522.15 139 1528.5C139 1534.85 151.984 1540 168 1540Z" fill="#294632"/>
<path d="M904 466.471C901.722 476.868 906.929 493.112 800.494 520.078C728.886 524.626 667.694 520.014 655 517.415C661.184 512.217 728.561 443.404 781.616 445.028C819.029 446.174 904 459.294 904 466.471Z" fill="#0A0A0A"/>
<path d="M903.324 466.056C863.682 458.908 837.364 445.911 774.009 458.908C702.819 473.511 673.936 510.894 654.765 516.092C646.318 491.074 706.428 439.413 767.068 429.163C824.165 412.8 900.061 454.671 903.324 466.056Z" fill="#89BEAA"/>
<path d="M814.704 483.146L746.984 496.564L773.872 542.414L798.273 645.443L755.286 786.72L719.86 889.641L725.81 946L809.208 923.291L819.307 817.555L825.724 761.352L849.683 703.728L843.573 649.293L811.885 515.498L814.704 483.146Z" fill="#141414"/>
<path d="M716.508 449.91C719.329 454.653 715.863 472.706 703.848 479.851C691.832 486.995 673.45 488.533 670.63 483.79C667.809 479.047 680.48 470.814 692.164 461.324C704.18 454.18 713.688 445.167 716.508 449.91Z" fill="#5A9F85"/>
<path d="M863.422 443.317C861.779 447.273 848.938 453.496 838.915 449.335C828.893 445.175 819.404 434.451 821.046 430.495C822.689 426.538 833.692 430.601 845.02 433.467C855.043 437.627 865.064 439.36 863.422 443.317Z" fill="#5A9F85"/>
<path d="M749.126 459.4C748.518 453.915 759.134 438.908 773.028 437.368C786.923 435.827 804.297 442.024 804.905 447.508C805.513 452.993 806.5 453.5 776.503 458.5C762.505 461.5 749.734 464.884 749.126 459.4Z" fill="#5A9F85"/>
<path d="M697.95 473.851C699.254 476.584 696.939 486.735 691.369 489.394C685.799 492.053 676.52 490.978 675.215 488.245C673.911 485.513 676.538 480.735 682.714 476.827C688.753 472.496 696.646 471.119 697.95 473.851Z" fill="white"/>
<path d="M782.768 429.552C782.896 433.561 776.019 444.6 769.123 444.82C762.226 445.041 753.175 438.746 753.047 434.738C752.919 430.729 759.513 430.023 767.587 428.617C775.706 426.626 782.64 425.544 782.768 429.552Z" fill="white"/>
<path d="M791.243 450.897C791.58 445.784 801.701 432.608 810.497 433.189C819.292 433.77 830.013 442.902 829.676 448.014C829.338 453.126 824.5 453.5 810.427 453.98C799.855 455.499 790.905 456.009 791.243 450.897Z" fill="white"/>
<path d="M718.987 461.99C718.178 459.374 723.287 450.065 730.249 447.912C737.211 445.759 747.462 447.293 748.271 449.909C749.08 452.525 744.934 456.818 736.979 460.098C729.076 463.779 719.796 464.606 718.987 461.99Z" fill="white"/>
<path d="M867.258 447.874C866.327 450.518 856.847 455.193 850.191 452.849C843.535 450.505 836.531 443.162 837.462 440.518C838.394 437.874 844.148 436.778 852.241 438.778C860.532 440.415 868.19 445.23 867.258 447.874Z" fill="white"/>
<path d="M750.22 476.742L785.763 496.016L773.025 506.858L750.22 476.742Z" fill="#141414"/>
<path d="M762.951 468.857L785.149 499.801L773.154 505.569L762.951 468.857Z" fill="#141414"/>
<path d="M735.893 484.421L777.213 496.88L767.399 508.588L735.893 484.421Z" fill="#141414"/>
<path d="M719.759 493.309L765.935 496.154L756.841 512.145L719.759 493.309Z" fill="#141414"/>
<path d="M803.648 466.007L774.413 492.731L789.055 500.106L803.648 466.007Z" fill="#141414"/>
<path d="M789.713 461.454L775.891 496.202L788.637 498.905L789.713 461.454Z" fill="#141414"/>
<path d="M819.055 469.989L782.734 491.557L794.803 500.443L819.055 469.989Z" fill="#141414"/>
<path d="M836.464 474.704L793.274 488.225L805.664 501.37L836.464 474.704Z" fill="#141414"/>
<path d="M1207.16 1160.93C1214.34 1175.03 1212.93 1200.34 1376.1 1199.25C1480.78 1178.96 1567.06 1149.4 1584.34 1140.91C1573.5 1135.75 1450.82 1062.03 1375.13 1084.24C1321.76 1099.91 1204.47 1150.61 1207.16 1160.93Z" fill="#181818"/>
<path d="M1207.98 1160.08C1262.31 1134.95 1295.29 1106.4 1391.27 1101.35C1499.12 1095.69 1554.66 1138.63 1584.18 1138.92C1586.96 1099.78 1481.16 1048 1390.11 1055.98C1301.87 1053.84 1208.4 1142.48 1207.98 1160.08Z" fill="#89BEAA"/>
<path d="M1341.83 1151.46L1444.25 1145.39L1422.76 1221.4L1426.26 1378.71L1541.01 1565.77L1630.51 1700.51L1643.07 1783.79L1514.63 1782.38L1460.49 1634.1L1430.21 1555.68L1374.16 1481.78L1362.56 1401.21L1358 1196.93L1341.83 1151.46Z" fill="#292727"/>
<path d="M1470.6 1066.87C1468.32 1074.75 1480.06 1099.41 1500.02 1105.19C1519.98 1110.96 1546.99 1106.29 1549.27 1098.41C1551.55 1090.53 1530.24 1083.44 1509.88 1074.17C1489.93 1068.39 1472.87 1059 1470.6 1066.87Z" fill="#5A9F85"/>
<path d="M1256.84 1112.43C1260.69 1117.5 1281.49 1121.64 1294.34 1111.9C1307.2 1102.17 1316.83 1083.19 1312.98 1078.11C1309.14 1073.04 1294.84 1083 1279.62 1091.37C1266.76 1101.11 1253 1107.35 1256.84 1112.43Z" fill="#5A9F85"/>
<path d="M1427.24 1092.74C1426.06 1084.63 1405.17 1067.02 1384.61 1070.01C1364.05 1073 1341.39 1088.42 1342.57 1096.54C1343.75 1104.65 1342.52 1105.75 1387.53 1101.7C1408.79 1100.77 1428.42 1100.86 1427.24 1092.74Z" fill="#5A9F85"/>
<path d="M1506.25 1094.35C1505.4 1098.77 1512.53 1112.5 1521.54 1114.24C1530.54 1115.98 1543.48 1110.95 1544.34 1106.53C1545.19 1102.12 1539.62 1096.23 1529.28 1092.92C1518.97 1088.96 1507.1 1089.93 1506.25 1094.35Z" fill="white"/>
<path d="M1367.68 1062.42C1369 1068.23 1383.02 1081.53 1393.02 1079.26C1403.02 1077 1413.68 1064.55 1412.36 1058.74C1411.05 1052.93 1401.3 1054.38 1389.16 1055.39C1376.74 1055.57 1366.36 1056.61 1367.68 1062.42Z" fill="white"/>
<path d="M1363.48 1096.29C1361.08 1089.06 1341.59 1073.91 1329.16 1078.04C1316.73 1082.17 1304.73 1099.32 1307.13 1106.54C1309.53 1113.77 1316.63 1112.49 1337.05 1107.91C1352.82 1106.13 1365.88 1103.52 1363.48 1096.29Z" fill="white"/>
<path d="M1471.55 1085.17C1471.74 1081.11 1460.9 1069.63 1450.08 1069.15C1439.26 1068.66 1425.1 1074.71 1424.91 1078.77C1424.73 1082.84 1432.3 1087.46 1444.97 1089.19C1457.71 1091.53 1471.37 1089.24 1471.55 1085.17Z" fill="white"/>
<path d="M1253.03 1120.42C1255.36 1123.87 1270.75 1127.05 1279.44 1121.18C1288.13 1115.32 1295.46 1102.13 1293.13 1098.68C1290.8 1095.23 1282.11 1095.81 1271.22 1101.71C1259.91 1107.17 1250.7 1116.97 1253.03 1120.42Z" fill="white"/>
<path d="M1432.17 1118.09L1388.28 1159.12L1410.66 1169.94L1432.17 1118.09Z" fill="#292727"/>
<path d="M1410.9 1111.52L1390.57 1164.34L1409.98 1168.14L1410.9 1111.52Z" fill="#292727"/>
<path d="M1455.65 1123.76L1400.89 1157.16L1419.39 1170.32L1455.65 1123.76Z" fill="#292727"/>
<path d="M1482.19 1130.5L1416.84 1151.89L1435.91 1171.48L1482.19 1130.5Z" fill="#292727"/>
<path d="M1351.31 1122.67L1403.37 1150.15L1385.07 1166.24L1351.31 1122.67Z" fill="#292727"/>
<path d="M1369.64 1110.9L1402.54 1155.69L1385.22 1164.36L1369.64 1110.9Z" fill="#292727"/>
<path d="M1330.65 1134.17L1390.96 1151.58L1376.93 1168.88L1330.65 1134.17Z" fill="#292727"/>
<path d="M1307.37 1147.47L1374.55 1150.73L1361.66 1174.28L1307.37 1147.47Z" fill="#292727"/>
<path d="M1295.46 304.768C1295.46 314.315 1297.62 321.189 1183.97 331.56C1097.11 327.239 1082.85 322.918 1066 319.461C1074.21 312.547 1097.54 272.359 1167.98 274.52C1217.65 276.043 1295.46 295.222 1295.46 304.768Z" fill="#121212"/>
<path d="M1295.89 305.633C1248.79 292.669 1266.94 287.916 1185.7 284.891C1095.85 281.546 1095.38 310.386 1066 319.461C1089.33 272.359 1116.99 276.249 1185.7 246C1263.05 276.681 1295.89 289.882 1295.89 305.633Z" fill="#B7D6D6"/>
<path d="M1151.56 309.09L1224.41 311.89L1201.68 377.224V511.626L1333.95 629.695L1341.7 744.497L1304.97 771.893L1274.53 758.497V666.096L1190.31 576.028L1164.48 529.36V354.824L1151.56 309.09Z" fill="#1C1C1C"/>
<path d="M1157.5 260.5C1158.68 264.816 1151.52 279.362 1140.58 282.351C1129.65 285.34 1113.18 282.316 1112 278C1110.82 273.685 1124.27 270.242 1135.45 265.349C1146.39 262.36 1156.32 256.184 1157.5 260.5Z" fill="#8FB4B4"/>
<path d="M1260.87 280.428C1258.8 284.248 1243.19 289.202 1232.62 283.492C1222.06 277.782 1211.35 263.98 1213.42 260.16C1215.48 256.34 1228.32 263.53 1240.39 268.101C1252 273 1262.93 276.608 1260.87 280.428Z" fill="#8FB4B4"/>
<path d="M1168.22 282.133C1168.57 278.866 1178.09 270.928 1187.13 271.906C1196.16 272.885 1207.61 279.491 1207.26 282.758C1206.9 286.025 1202.5 285.5 1186.09 284.91C1176.55 284.8 1167.86 285.401 1168.22 282.133Z" fill="#8FB4B4"/>
<path d="M1230.02 269.222C1227.33 273.662 1212.08 280.787 1204.43 276.156C1196.79 271.525 1191.42 258.303 1194.11 253.863C1196.8 249.423 1204.46 253.313 1214.21 257.488C1224.43 261.06 1232.72 264.782 1230.02 269.222Z" fill="white"/>
<path d="M1149.59 271.591C1149.44 268.328 1157.65 259.147 1165.86 258.779C1174.07 258.411 1184.84 263.293 1184.98 266.555C1185.13 269.817 1179.39 273.508 1169.78 274.874C1160.1 276.718 1149.73 274.853 1149.59 271.591Z" fill="white"/>
<path d="M1268.3 288.127C1268.48 285.645 1262.42 278.481 1256.17 278.03C1249.92 277.578 1241.62 281.072 1241.44 283.553C1241.26 286.035 1245.56 288.966 1252.85 290.206C1260.18 291.812 1268.12 290.608 1268.3 288.127Z" fill="white"/>
<path d="M1096.56 287.178C1097.66 289.408 1106.52 292.508 1112.13 289.728C1117.74 286.948 1123.12 279.726 1122.02 277.496C1120.92 275.267 1115.73 274.92 1108.81 277.551C1101.68 279.884 1095.45 284.949 1096.56 287.178Z" fill="white"/>
<path d="M1164.5 293.765L1194.05 321.36L1179 328.649L1164.5 293.765Z" fill="#1C1C1C"/>
<path d="M1178.8 289.337L1192.5 324.87L1179.44 327.434L1178.8 289.337Z" fill="#1C1C1C"/>
<path d="M1148.7 297.592L1185.56 320.046L1173.11 328.909L1148.7 297.592Z" fill="#1C1C1C"/>
<path d="M1130.86 302.137L1174.83 316.508L1162.01 329.696L1130.86 302.137Z" fill="#1C1C1C"/>
<path d="M1218.91 296.816L1183.9 315.326L1196.21 326.148L1218.91 296.816Z" fill="#1C1C1C"/>
<path d="M1206.57 288.903L1184.45 319.056L1196.11 324.879L1206.57 288.903Z" fill="#1C1C1C"/>
<path d="M1232.83 304.547L1192.25 316.283L1201.69 327.92L1232.83 304.547Z" fill="#1C1C1C"/>
<path d="M1248.49 313.49L1203.29 315.711L1211.98 331.55L1248.49 313.49Z" fill="#1C1C1C"/>
<path d="M142.56 836.945C141.406 843.987 138.982 848.798 221.573 870.182C286.174 877.489 297.216 876.024 310.067 875.51C304.845 869.418 292.486 836.949 240.261 830.032C203.432 825.154 143.713 829.902 142.56 836.945Z" fill="#121212"/>
<path d="M142.138 837.53C178.454 833.658 165.638 827.958 225.937 835.542C292.626 843.931 289.487 865.265 310.069 875.51C298.545 837.942 277.672 837.469 230.637 806.85C169.865 820.139 144.041 825.909 142.138 837.53Z" fill="#B7D6D6"/>
<path d="M248.195 857.52L194.111 850.782L202.988 901.73L186.748 1000.89L74.9004 1072.01L55.3106 1155.77L79.0982 1180.42L103.171 1174.21L114.337 1106.04L187.352 1049.77L212.049 1018.46L233.14 889.699L248.195 857.52Z" fill="#1C1C1C"/>
<path d="M249.69 820.955C248.298 823.996 251.825 835.593 259.53 839.119C267.235 842.646 279.754 842.406 281.146 839.364C282.538 836.323 273.026 832.157 265.369 827.196C257.664 823.67 251.082 817.914 249.69 820.955Z" fill="#8FB4B4"/>
<path d="M171.022 823.166C172.084 826.234 183.007 831.776 191.488 828.84C199.97 825.904 209.541 817.015 208.479 813.947C207.417 810.88 197.078 814.634 187.623 816.547C178.462 818.758 169.96 820.099 171.022 823.166Z" fill="#8FB4B4"/>
<path d="M239.168 835.62C239.302 833.167 233.235 826.16 226.453 825.79C219.671 825.421 210.423 828.91 210.29 831.363C210.156 833.816 213.469 833.961 225.645 835.508C232.695 836.58 239.035 838.073 239.168 835.62Z" fill="#8FB4B4"/>
<path d="M195.128 818.626C196.577 822.227 206.972 829.327 213.168 826.833C219.364 824.34 224.929 815.236 223.48 811.635C222.031 808.033 215.914 809.979 208.213 811.88C200.244 813.281 193.679 815.025 195.128 818.626Z" fill="white"/>
<path d="M254.188 830.093C254.69 827.704 249.746 819.939 243.732 818.675C237.718 817.412 229.185 819.712 228.683 822.101C228.181 824.49 231.969 827.906 238.898 830.076C245.809 832.605 253.686 832.482 254.188 830.093Z" fill="white"/>
<path d="M164.611 827.949C164.779 826.097 170.114 821.543 174.777 821.965C179.441 822.387 185.143 825.968 184.976 827.82C184.808 829.673 181.286 831.316 175.754 831.35C170.154 831.649 164.443 829.802 164.611 827.949Z" fill="white"/>
<path d="M291.427 848.001C290.343 849.513 283.435 850.73 279.63 848.001C275.825 845.271 272.727 839.293 273.812 837.781C274.896 836.27 278.765 836.641 283.549 839.418C288.527 842.001 292.511 846.49 291.427 848.001Z" fill="white"/>
<path d="M240.504 844.65L215.369 861.438L225.595 868.635L240.504 844.65Z" fill="#1C1C1C"/>
<path d="M230.494 839.654L216.093 864.214L225.419 867.684L230.494 839.654Z" fill="#1C1C1C"/>
<path d="M251.7 849.382L221.796 861.494L229.906 869.536L251.7 849.382Z" fill="#1C1C1C"/>
<path d="M264.317 854.891L230.137 860.18L238.005 871.459L264.317 854.891Z" fill="#1C1C1C"/>
<path d="M199.994 840.326L223.591 858.214L213.198 864.709L199.994 840.326Z" fill="#1C1C1C"/>
<path d="M210.05 835.98L222.725 860.899L213.422 863.786L210.05 835.98Z" fill="#1C1C1C"/>
<path d="M188.788 844.349L217.307 857.91L208.933 865.354L188.788 844.349Z" fill="#1C1C1C"/>
<path d="M176.156 849.054L209.235 856.154L200.915 866.79L176.156 849.054Z" fill="#1C1C1C"/>
<path d="M1424.82 340.144L1458.56 371.657L1441.37 379.981L1424.82 340.144Z" fill="#292929"/>
<path d="M1441.14 335.087L1456.79 375.665L1441.87 378.594L1441.14 335.087Z" fill="#292929"/>
<path d="M1406.77 344.514L1448.86 370.156L1434.65 380.276L1406.77 344.514Z" fill="#292929"/>
<path d="M1386.39 349.704L1436.61 366.115L1421.97 381.176L1386.39 349.704Z" fill="#292929"/>
<path d="M1486.95 343.628L1446.96 364.766L1461.03 377.124L1486.95 343.628Z" fill="#292929"/>
<path d="M1472.86 334.592L1447.6 369.026L1460.91 375.675L1472.86 334.592Z" fill="#292929"/>
<path d="M1502.84 352.456L1456.5 365.859L1467.29 379.148L1502.84 352.456Z" fill="#292929"/>
<path d="M1520.74 362.669L1469.12 365.205L1479.03 383.293L1520.74 362.669Z" fill="#292929"/>
<path d="M1036.07 590.996L1071.32 623.912L1053.36 632.607L1036.07 590.996Z" fill="#252424"/>
<path d="M1053.13 585.714L1069.47 628.099L1053.9 631.158L1053.13 585.714Z" fill="#252424"/>
<path d="M1017.23 595.561L1061.19 622.344L1046.35 632.915L1017.23 595.561Z" fill="#252424"/>
<path d="M995.942 600.982L1048.4 618.124L1033.1 633.855L995.942 600.982Z" fill="#252424"/>
<path d="M1100.98 594.636L1059.21 616.715L1073.9 629.623L1100.98 594.636Z" fill="#252424"/>
<path d="M1086.26 585.196L1059.87 621.164L1073.78 628.109L1086.26 585.196Z" fill="#252424"/>
<path d="M1117.58 603.857L1069.18 617.856L1080.44 631.737L1117.58 603.857Z" fill="#252424"/>
<path d="M1136.27 614.524L1082.35 617.174L1092.71 636.067L1136.27 614.524Z" fill="#252424"/>
<path d="M969.23 94.5504L1018.35 122.072L1000.4 136.923L969.23 94.5504Z" fill="#111111"/>
<path d="M987.094 83.8199L1017.4 127.332L1000.59 135.132L987.094 83.8199Z" fill="#111111"/>
<path d="M949.122 104.967L1006.41 123.112L992.522 139.224L949.122 104.967Z" fill="#111111"/>
<path d="M926.505 117.03L990.744 121.883L977.773 143.972L926.505 117.03Z" fill="#111111"/>
<path d="M1043.83 80.6334L1002.61 117.279L1022.85 127.831L1043.83 80.6334Z" fill="#111111"/>
<path d="M1024.52 74.0238L1004.6 122.139L1022.3 126.148L1024.52 74.0238Z" fill="#111111"/>
<path d="M1065.22 86.4739L1014.23 115.802L1030.86 128.408L1065.22 86.4739Z" fill="#111111"/>
<path d="M1089.37 93.3741L1028.97 111.367L1045.97 129.909L1089.37 93.3741Z" fill="#111111"/>
<path d="M381.115 425.039L402.618 449.352L390.029 454.025L381.115 425.039Z" fill="#141414"/>
<path d="M392.879 422.593L401.108 452.037L390.475 453.087L392.879 422.593Z" fill="#141414"/>
<path d="M368.188 426.887L395.923 447.651L385.301 453.781L368.188 426.887Z" fill="#141414"/>
<path d="M353.578 429.154L387.621 444.003L376.363 453.561L353.578 429.154Z" fill="#141414"/>
<path d="M424.353 431.639L394.952 443.752L403.966 453.343L424.353 431.639Z" fill="#141414"/>
<path d="M415.097 424.372L395.113 446.776L403.982 452.321L415.097 424.372Z" fill="#141414"/>
<path d="M434.875 438.883L401.549 445.157L408.206 455.179L434.875 438.883Z" fill="#141414"/>
<path d="M446.709 447.227L410.416 445.544L416.144 458.866L446.709 447.227Z" fill="#141414"/>
<path d="M1240.3 611.5C1240.3 629.725 1146.5 588.14 1050.8 586C939 583.5 861.305 595.225 861.305 577C861.305 558.775 968.402 516.253 1059.8 516.253C1151.21 516.253 1240.3 593.275 1240.3 611.5Z" fill="#B7D6D6"/>
<path d="M988.698 529.153C991.042 539.687 973.586 571.112 946.9 577.052C920.214 582.993 885.124 574.63 882.779 564.097C880.434 553.563 909 546 936.5 535.501C963.186 529.56 986.353 518.62 988.698 529.153Z" fill="#8FB4B4"/>
<path d="M1008.39 578.607C1009.02 567.834 1034.44 542.41 1061.73 544.025C1089.02 545.639 1122.64 577.728 1122 588.5C1120.99 596.5 1097.5 588.394 1065.5 586.5C1038.2 584.886 1007.75 589.379 1008.39 578.607Z" fill="#8FB4B4"/>
<path d="M1055.95 534.561C1056.59 542.739 1040.87 566.16 1024.2 567.471C1007.53 568.782 985.111 557.045 984.468 548.868C983.825 540.691 995.11 531.161 1014.53 527.28C1034.01 522.196 1055.3 526.384 1055.95 534.561Z" fill="white"/>
<path d="M1218.82 593.76C1211.41 601.604 1177.29 609.404 1163.8 596.652C1150.3 583.901 1145.16 554.685 1152.57 546.841C1159.98 538.997 1176.51 551.25 1194.5 564C1213.7 575.728 1226.23 585.915 1218.82 593.76Z" fill="#8FB4B4"/>
<path d="M1146.85 543.392C1142.99 551.393 1118.18 566.022 1104.41 559.388C1090.64 552.753 1079.32 531.12 1083.18 523.118C1087.04 515.117 1100.71 520.488 1118 526C1135.98 530.41 1150.71 535.39 1146.85 543.392Z" fill="white"/>
<path d="M1182.26 592.815C1184.57 587.454 1200.46 577.163 1209.68 581.138C1218.9 585.114 1226.94 599.005 1224.63 604.366C1222.31 609.726 1213.27 612.504 1201.76 609.363C1189.83 606.965 1179.95 598.175 1182.26 592.815Z" fill="white"/>
<path d="M888.821 570.043C890.112 564.35 908.598 552.402 922.929 555.651C937.26 558.9 953.511 572.405 952.221 578.098C950.93 583.791 939.291 587.439 922.07 585.248C904.527 583.854 887.53 575.735 888.821 570.043Z" fill="white"/>
<path d="M911.544 915.184L912.531 916.68L914.199 917.39L912.645 918.404L911.861 920.071L910.884 918.567L909.208 917.847L910.77 916.843L911.544 915.184Z" fill="#FFF5BF"/>
<path d="M941.403 883.108L941.567 884.536L942.504 885.649L941.025 885.812L939.859 886.721L939.705 885.291L938.766 884.168L940.248 884.015L941.403 883.108Z" fill="#FFF5BF"/>
<path d="M945.505 891.053L946.288 891.19L947.025 890.868L946.879 891.677L947.178 892.438L946.396 892.295L945.653 892.617L945.805 891.807L945.505 891.053Z" fill="#FFF5BF"/>
<path d="M936.22 891.789L937.384 891.993L938.48 891.514L938.263 892.718L938.708 893.849L937.545 893.637L936.44 894.115L936.666 892.911L936.22 891.789Z" fill="#FFF5BF"/>
<path d="M903.403 921.108L903.567 922.536L904.504 923.649L903.025 923.812L901.859 924.721L901.705 923.291L900.766 922.168L902.248 922.015L903.403 921.108Z" fill="#FFF5BF"/>
<path d="M907.505 929.053L908.288 929.19L909.025 928.868L908.879 929.677L909.178 930.438L908.396 930.295L907.653 930.617L907.805 929.807L907.505 929.053Z" fill="#FFF5BF"/>
<path d="M898.22 929.789L899.384 929.993L900.48 929.514L900.263 930.718L900.708 931.849L899.545 931.637L898.44 932.115L898.666 930.911L898.22 929.789Z" fill="#FFF5BF"/>
<path d="M992.544 830.434L993.531 831.93L995.199 832.64L993.645 833.654L992.861 835.321L991.884 833.817L990.208 833.097L991.77 832.093L992.544 830.434Z" fill="#FFF5BF"/>
<path d="M984.403 836.358L984.567 837.786L985.504 838.899L984.025 839.062L982.859 839.971L982.705 838.541L981.766 837.418L983.248 837.265L984.403 836.358Z" fill="#FFF5BF"/>
<path d="M988.505 844.303L989.288 844.44L990.025 844.118L989.879 844.927L990.178 845.688L989.396 845.545L988.653 845.867L988.805 845.057L988.505 844.303Z" fill="#FFF5BF"/>
<path d="M979.22 845.039L980.384 845.243L981.48 844.764L981.263 845.968L981.708 847.099L980.545 846.887L979.44 847.365L979.666 846.161L979.22 845.039Z" fill="#FFF5BF"/>
<path d="M964.254 878.001L956.756 874.503L949.635 878.669L950.642 870.499L944.47 865.005L952.573 863.437L955.887 855.869L959.901 863.091L968.11 863.908L962.446 869.947L964.254 878.001Z" fill="#FFF5BF"/>
<path d="M1006.87 830.653L1003.54 829.101L1000.38 830.95L1000.83 827.324L998.091 824.885L1001.69 824.189L1003.16 820.83L1004.94 824.035L1008.58 824.398L1006.07 827.079L1006.87 830.653Z" fill="#FFF5BF"/>
<path d="M1091.9 761.279L1090.83 762.445L1090.57 764.03L1089.37 762.91L1087.77 762.59L1088.86 761.431L1089.12 759.838L1090.31 760.967L1091.9 761.279Z" fill="#FFF5BF"/>
<path d="M1085.09 755.54L1083.89 755.985L1083.14 757.027L1082.68 755.79L1081.65 754.982L1082.85 754.545L1083.61 753.5L1084.06 754.741L1085.09 755.54Z" fill="#FFF5BF"/>
<path d="M1079.13 760.754L1079.18 761.456L1079.61 762.02L1078.88 762.067L1078.29 762.486L1078.25 761.783L1077.82 761.213L1078.54 761.172L1079.13 760.754Z" fill="#FFF5BF"/>
<path d="M1076.53 752.931L1076.6 753.974L1077.24 754.814L1076.16 754.884L1075.28 755.506L1075.22 754.461L1074.57 753.614L1075.66 753.552L1076.53 752.931Z" fill="#FFF5BF"/>
<path d="M1094.76 773.638L1095.39 770.448L1093.13 768.125L1096.34 767.738L1097.86 764.866L1099.22 767.809L1102.42 768.36L1100.04 770.572L1100.5 773.78L1097.67 772.189L1094.76 773.638Z" fill="#FFF5BF"/>
<path d="M811.534 1019.62L813.02 1020.62L814.833 1020.63L813.787 1022.17L813.703 1024.01L812.224 1022.99L810.399 1022.97L811.456 1021.45L811.534 1019.62Z" fill="#FFF5BF"/>
<path d="M721.394 1181.21L721.411 1179.77L720.622 1178.55L722.111 1178.57L723.382 1177.82L723.354 1179.26L724.143 1180.49L722.654 1180.45L721.394 1181.21Z" fill="#FFF5BF"/>
<path d="M718.33 1172.81L717.571 1172.57L716.799 1172.8L717.047 1172.02L716.846 1171.22L717.604 1171.46L718.381 1171.24L718.128 1172.02L718.33 1172.81Z" fill="#FFF5BF"/>
<path d="M727.638 1173.25L726.508 1172.9L725.361 1173.24L725.728 1172.07L725.43 1170.9L726.557 1171.25L727.713 1170.92L727.337 1172.08L727.638 1173.25Z" fill="#FFF5BF"/>
<path d="M694.71 1185.07L700.209 1183.72L702.221 1178.44L705.187 1183.23L710.835 1183.52L707.186 1187.83L708.664 1193.29L703.426 1191.16L698.697 1194.24L699.128 1188.59L694.71 1185.07Z" fill="#FFF5BF"/>
<path d="M740.991 1140.05L739.644 1138.86L737.847 1138.62L739.079 1137.23L739.396 1135.41L740.734 1136.61L742.541 1136.86L741.299 1138.24L740.991 1140.05Z" fill="#FFF5BF"/>
<path d="M806.284 1028.21L806.984 1029.47L808.277 1030.13L806.973 1030.85L806.246 1032.14L805.554 1030.88L804.256 1030.2L805.566 1029.49L806.284 1028.21Z" fill="#FFF5BF"/>
<path d="M813.122 1033.97L813.898 1033.8L814.455 1033.22L814.631 1034.02L815.199 1034.61L814.422 1034.78L813.859 1035.36L813.689 1034.55L813.122 1033.97Z" fill="#FFF5BF"/>
<path d="M755.581 1112.62L757.067 1113.62L758.88 1113.63L757.834 1115.17L757.749 1117.01L756.27 1115.99L754.446 1115.97L755.503 1114.45L755.581 1112.62Z" fill="#FFF5BF"/>
<path d="M750.331 1121.21L751.031 1122.47L752.323 1123.13L751.02 1123.85L750.293 1125.14L749.601 1123.88L748.303 1123.2L749.613 1122.49L750.331 1121.21Z" fill="#FFF5BF"/>
<path d="M757.169 1126.97L757.945 1126.8L758.502 1126.22L758.678 1127.02L759.246 1127.61L758.469 1127.78L757.906 1128.36L757.736 1127.55L757.169 1126.97Z" fill="#FFF5BF"/>
<path d="M804.832 1038.22L805.986 1037.96L806.814 1037.09L807.075 1038.29L807.92 1039.16L806.765 1039.41L805.928 1040.28L805.675 1039.08L804.832 1038.22Z" fill="#FFF5BF"/>
<path d="M784.285 1061.24L776.019 1060.89L771.041 1067.47L768.836 1059.54L761.028 1056.84L767.909 1052.28L768.066 1044.02L774.544 1049.15L782.438 1046.75L779.525 1054.5L784.285 1061.24Z" fill="#FFF5BF"/>
<path d="M763.671 1091.6L759.572 1095.51L760.452 1101.09L755.496 1098.41L750.456 1100.97L751.476 1095.42L747.479 1091.42L753.082 1090.66L755.65 1085.63L758.087 1090.75L763.671 1091.6Z" fill="#FFF5BF"/>
<path d="M1341.67 1045.09L1342.36 1043.43L1342.02 1041.65L1343.73 1042.38L1345.55 1042.1L1344.85 1043.75L1345.18 1045.54L1343.48 1044.8L1341.67 1045.09Z" fill="#FFF5BF"/>
<path d="M1374.72 1032.87L1374.24 1034.6L1374.8 1036.32L1373.02 1035.82L1371.24 1036.32L1371.73 1034.6L1371.17 1032.86L1372.96 1033.38L1374.72 1032.87Z" fill="#FFF5BF"/>
<path d="M1364.9 1030.63L1363.93 1031.69L1363.71 1033.13L1362.61 1032.12L1361.16 1031.84L1362.13 1030.78L1362.36 1029.34L1363.45 1030.35L1364.9 1030.63Z" fill="#FFF5BF"/>
<path d="M1361.62 1038.94L1362.03 1039.62L1362.75 1039.97L1362.05 1040.39L1361.67 1041.12L1361.27 1040.43L1360.53 1040.08L1361.24 1039.67L1361.62 1038.94Z" fill="#FFF5BF"/>
<path d="M1489.54 1051.09L1488.85 1049.43L1489.19 1047.65L1487.48 1048.38L1485.66 1048.1L1486.36 1049.75L1486.03 1051.54L1487.73 1050.8L1489.54 1051.09Z" fill="#FFF5BF"/>
<path d="M1456.7 1038.19L1457.17 1039.92L1456.61 1041.64L1458.4 1041.14L1460.17 1041.65L1459.68 1039.92L1460.24 1038.18L1458.46 1038.7L1456.7 1038.19Z" fill="#FFF5BF"/>
<path d="M1466.52 1035.95L1467.49 1037.01L1467.71 1038.45L1468.8 1037.44L1470.26 1037.16L1469.28 1036.11L1469.05 1034.66L1467.96 1035.68L1466.52 1035.95Z" fill="#FFF5BF"/>
<path d="M1469.8 1044.27L1469.39 1044.95L1468.66 1045.29L1469.37 1045.71L1469.74 1046.44L1470.15 1045.75L1470.88 1045.41L1470.17 1044.99L1469.8 1044.27Z" fill="#FFF5BF"/>
<path d="M1432.56 1043.73L1430.26 1035.79L1422.44 1033.16L1429.26 1028.55L1429.34 1020.28L1435.85 1025.36L1443.73 1022.88L1440.93 1030.65L1445.71 1037.37L1437.44 1037.08L1432.56 1043.73Z" fill="#FFF5BF"/>
<path d="M1397.21 1033.85L1392.2 1031.21L1387.19 1033.82L1388.16 1028.27L1384.12 1024.31L1389.71 1023.51L1392.23 1018.44L1394.73 1023.52L1400.32 1024.35L1396.24 1028.29L1397.21 1033.85Z" fill="#FFF5BF"/>
<path d="M846.217 61.2546L846.289 59.4639L845.35 57.9128L847.204 57.9977L848.814 57.1023L848.728 58.8935L849.668 60.4572L847.814 60.3597L846.217 61.2546Z" fill="#FFF5BF"/>
<path d="M872.923 38.2795L873.078 40.065L874.206 41.4847L872.357 41.635L870.873 42.727L870.731 40.9394L869.601 39.5073L871.452 39.3694L872.923 38.2795Z" fill="#FFF5BF"/>
<path d="M862.938 39.6029L862.402 40.9369L862.695 42.3618L861.317 41.7994L859.859 42.0435L860.405 40.7126L860.115 39.278L861.491 39.8501L862.938 39.6029Z" fill="#FFF5BF"/>
<path d="M862.768 48.5413L863.391 49.0347L864.192 49.1028L863.678 49.7452L863.578 50.5561L862.959 50.0579L862.153 49.9867L862.672 49.3475L862.768 48.5413Z" fill="#FFF5BF"/>
<path d="M986.893 15.3036L985.668 13.996L985.365 12.2081L984.017 13.4842L982.214 13.8593L983.449 15.1588L983.76 16.9566L985.099 15.6706L986.893 15.3036Z" fill="#FFF5BF"/>
<path d="M951.613 14.6746L952.663 16.1268L952.737 17.9387L954.235 16.8434L956.072 16.6995L955.01 15.2541L954.93 13.4314L953.438 14.5376L951.613 14.6746Z" fill="#FFF5BF"/>
<path d="M960.04 9.1469L961.318 9.80597L962.027 11.0758L962.703 9.74929L963.965 8.98095L962.682 8.33081L961.964 7.05551L961.297 8.38748L960.04 9.1469Z" fill="#FFF5BF"/>
<path d="M966.015 15.7973L965.866 16.5779L965.304 17.1533L966.113 17.3032L966.718 17.8519L966.862 17.0697L967.425 16.4889L966.614 16.3445L966.015 15.7973Z" fill="#FFF5BF"/>
<path d="M930.927 28.2872L926.003 21.6384L917.757 21.906L922.536 15.204L919.729 7.4326L927.6 9.91631L934.121 4.84315L934.208 13.105L941.034 17.7364L933.176 20.3456L930.927 28.2872Z" fill="#FFF5BF"/>
<path d="M894.349 31.3554L888.734 30.6257L884.951 34.8171L883.917 29.2793L878.753 26.9732L883.715 24.273L884.31 18.6499L888.424 22.53L893.947 21.3645L891.503 26.4762L894.349 31.3554Z" fill="#FFF5BF"/>
<path d="M1207.69 60.2546L1207.62 58.4639L1208.56 56.9128L1206.7 56.9977L1205.09 56.1023L1205.18 57.8935L1204.24 59.4572L1206.09 59.3597L1207.69 60.2546Z" fill="#FFF5BF"/>
<path d="M1180.98 37.2795L1180.83 39.065L1179.7 40.4847L1181.55 40.635L1183.03 41.727L1183.18 39.9394L1184.31 38.5073L1182.45 38.3694L1180.98 37.2795Z" fill="#FFF5BF"/>
<path d="M1190.97 38.6029L1191.5 39.9369L1191.21 41.3618L1192.59 40.7994L1194.05 41.0435L1193.5 39.7126L1193.79 38.278L1192.42 38.8501L1190.97 38.6029Z" fill="#FFF5BF"/>
<path d="M1191.14 47.5413L1190.52 48.0347L1189.71 48.1028L1190.23 48.7452L1190.33 49.5561L1190.95 49.0579L1191.75 48.9867L1191.23 48.3475L1191.14 47.5413Z" fill="#FFF5BF"/>
<path d="M1067.01 14.3036L1068.24 12.996L1068.54 11.2081L1069.89 12.4842L1071.69 12.8593L1070.46 14.1588L1070.15 15.9566L1068.81 14.6706L1067.01 14.3036Z" fill="#FFF5BF"/>
<path d="M1102.29 13.6746L1101.24 15.1268L1101.17 16.9387L1099.67 15.8434L1097.83 15.6995L1098.9 14.2541L1098.98 12.4314L1100.47 13.5376L1102.29 13.6746Z" fill="#FFF5BF"/>
<path d="M1093.87 8.1469L1092.59 8.80597L1091.88 10.0758L1091.2 8.74929L1089.94 7.98095L1091.22 7.33081L1091.94 6.05551L1092.61 7.38748L1093.87 8.1469Z" fill="#FFF5BF"/>
<path d="M1087.89 14.7973L1088.04 15.5779L1088.6 16.1533L1087.79 16.3032L1087.19 16.8519L1087.04 16.0697L1086.48 15.4889L1087.29 15.3445L1087.89 14.7973Z" fill="#FFF5BF"/>
<path d="M1122.98 27.2872L1127.9 20.6384L1136.15 20.906L1131.37 14.204L1134.18 6.4326L1126.31 8.91631L1119.78 3.84315L1119.7 12.105L1112.87 16.7364L1120.73 19.3456L1122.98 27.2872Z" fill="#FFF5BF"/>
<path d="M1159.56 30.3554L1165.17 29.6257L1168.96 33.8171L1169.99 28.2793L1175.15 25.9732L1170.19 23.273L1169.6 17.6499L1165.48 21.53L1159.96 20.3645L1162.4 25.4762L1159.56 30.3554Z" fill="#FFF5BF"/>
<path d="M1499.55 262.352L1498.86 260.699L1499.2 258.918L1497.49 259.644L1495.67 259.367L1496.37 261.015L1496.04 262.809L1497.74 262.071L1499.55 262.352Z" fill="#FFF5BF"/>
<path d="M1466.5 250.136L1466.98 251.864L1466.42 253.588L1468.2 253.083L1469.97 253.589L1469.48 251.865L1470.04 250.128L1468.26 250.645L1466.5 250.136Z" fill="#FFF5BF"/>
<path d="M1476.32 247.893L1477.29 248.957L1477.51 250.394L1478.61 249.387L1480.06 249.107L1479.08 248.05L1478.86 246.604L1477.77 247.62L1476.32 247.893Z" fill="#FFF5BF"/>
<path d="M1479.6 256.21L1479.19 256.89L1478.46 257.233L1479.17 257.656L1479.55 258.381L1479.95 257.698L1480.68 257.35L1479.97 256.932L1479.6 256.21Z" fill="#FFF5BF"/>
<path d="M1351.68 268.352L1352.37 266.699L1352.03 264.918L1353.74 265.644L1355.56 265.367L1354.85 267.015L1355.19 268.809L1353.49 268.071L1351.68 268.352Z" fill="#FFF5BF"/>
<path d="M1384.52 255.459L1384.04 257.186L1384.61 258.91L1382.82 258.406L1381.05 258.912L1381.54 257.187L1380.98 255.45L1382.76 255.967L1384.52 255.459Z" fill="#FFF5BF"/>
<path d="M1374.7 253.216L1373.73 254.279L1373.51 255.717L1372.41 254.709L1370.96 254.429L1371.94 253.372L1372.17 251.927L1373.26 252.942L1374.7 253.216Z" fill="#FFF5BF"/>
<path d="M1371.42 261.532L1371.83 262.212L1372.56 262.555L1371.85 262.978L1371.48 263.704L1371.07 263.02L1370.34 262.673L1371.05 262.254L1371.42 261.532Z" fill="#FFF5BF"/>
<path d="M1408.66 261L1410.96 253.051L1418.78 250.426L1411.96 245.812L1411.88 237.549L1405.37 242.622L1397.49 240.142L1400.29 247.915L1395.51 254.636L1403.78 254.341L1408.66 261Z" fill="#FFF5BF"/>
<path d="M1444.01 251.119L1449.02 248.477L1454.02 251.086L1453.06 245.535L1457.1 241.573L1451.51 240.772L1448.99 235.71L1446.48 240.781L1440.9 241.615L1444.97 245.554L1444.01 251.119Z" fill="#FFF5BF"/>
<path d="M475.967 396.435L475.619 394.677L476.307 392.999L474.489 393.369L472.76 392.733L473.121 394.49L472.434 396.18L474.25 395.797L475.967 396.435Z" fill="#FFF5BF"/>
<path d="M446.023 377.859L446.145 379.647L445.25 381.224L447.1 381.087L448.735 381.937L448.599 380.149L449.495 378.559L447.644 378.709L446.023 377.859Z" fill="#FFF5BF"/>
<path d="M456.098 377.625L456.833 378.86L456.764 380.313L458.039 379.545L459.516 379.561L458.772 378.33L458.837 376.868L457.566 377.646L456.098 377.625Z" fill="#FFF5BF"/>
<path d="M457.648 386.429L457.108 387.013L456.327 387.204L456.934 387.759L457.158 388.545L457.693 387.957L458.478 387.762L457.867 387.211L457.648 386.429Z" fill="#FFF5BF"/>
<path d="M329.88 372.753L330.889 371.272L330.912 369.458L332.44 370.511L334.281 370.603L333.26 372.078L333.231 373.902L331.709 372.839L329.88 372.753Z" fill="#FFF5BF"/>
<path d="M364.641 366.685L363.827 368.282L364.033 370.084L362.384 369.233L360.547 369.374L361.373 367.782L361.171 365.969L362.816 366.832L364.641 366.685Z" fill="#FFF5BF"/>
<path d="M355.461 362.524L354.301 363.373L353.796 364.737L352.924 363.53L351.558 362.966L352.725 362.126L353.238 360.755L354.102 361.968L355.461 362.524Z" fill="#FFF5BF"/>
<path d="M350.589 370.018L350.857 370.766L351.5 371.248L350.724 371.521L350.211 372.157L349.949 371.406L349.302 370.919L350.081 370.651L350.589 370.018Z" fill="#FFF5BF"/>
<path d="M423.79 374.325L429.225 372.737L433.61 376.294L433.777 370.663L438.522 367.588L433.204 365.686L431.747 360.222L428.282 364.691L422.645 364.392L425.849 369.065L423.79 374.325Z" fill="#FFF5BF"/>
<path d="M179.857 800.722L180.544 799.51L180.446 798.103L181.697 798.821L183.128 798.775L182.432 799.982L182.526 801.398L181.279 800.671L179.857 800.722Z" fill="#FFF5BF"/>
<path d="M206.489 794.337L205.962 795.626L206.237 797.009L204.905 796.455L203.49 796.682L204.028 795.396L203.756 794.004L205.085 794.567L206.489 794.337Z" fill="#FFF5BF"/>
<path d="M199.117 791.7L198.272 792.432L197.968 793.521L197.215 792.643L196.12 792.293L196.971 791.567L197.28 790.472L198.028 791.357L199.117 791.7Z" fill="#FFF5BF"/>
<path d="M195.819 797.818L196.074 798.38L196.604 798.712L196.02 798.974L195.663 799.499L195.412 798.934L194.88 798.598L195.466 798.341L195.819 797.818Z" fill="#FFF5BF"/>
<path d="M293.446 818.974L293.064 817.635L293.49 816.291L292.105 816.694L290.724 816.312L291.117 817.65L290.692 819.003L292.075 818.59L293.446 818.974Z" fill="#FFF5BF"/>
<path d="M269.286 805.996L269.496 807.373L268.903 808.652L270.328 808.428L271.649 808.981L271.429 807.605L272.021 806.316L270.597 806.551L269.286 805.996Z" fill="#FFF5BF"/>
<path d="M277.075 805.169L277.724 806.079L277.763 807.209L278.702 806.533L279.848 806.45L279.192 805.545L279.149 804.408L278.214 805.091L277.075 805.169Z" fill="#FFF5BF"/>
<path d="M278.841 811.892L278.46 812.378L277.867 812.576L278.373 812.968L278.597 813.562L278.974 813.072L279.57 812.871L279.061 812.483L278.841 811.892Z" fill="#FFF5BF"/>
<path d="M249.359 808.655L248.674 804.474L244.857 802.665L248.603 800.733L249.144 796.537L252.146 799.511L256.304 798.729L254.408 802.51L256.432 806.218L252.243 805.566L249.359 808.655Z" fill="#FFF5BF"/>
<path d="M167.594 808.149L163.971 805.648L159.865 807.2L161.119 803.004L158.37 799.574L162.76 799.471L165.171 795.796L166.635 799.941L170.868 801.099L167.361 803.764L167.594 808.149Z" fill="#FFF5BF"/>
<path d="M701.169 436.798L701.55 435.047L700.893 433.357L702.704 433.761L704.445 433.158L704.051 434.907L704.706 436.61L702.897 436.193L701.169 436.798Z" fill="#FFF5BF"/>
<path d="M731.452 418.789L731.296 420.575L732.161 422.168L730.314 421.996L728.663 422.815L728.833 421.03L727.967 419.424L729.815 419.608L731.452 418.789Z" fill="#FFF5BF"/>
<path d="M721.386 418.366L720.628 419.587L720.67 421.041L719.41 420.249L717.932 420.237L718.7 419.021L718.662 417.558L719.918 418.359L721.386 418.366Z" fill="#FFF5BF"/>
<path d="M719.67 427.14L720.198 427.734L720.976 427.939L720.358 428.483L720.12 429.265L719.596 428.667L718.814 428.457L719.436 427.917L719.67 427.14Z" fill="#FFF5BF"/>
<path d="M847.679 415.871L846.698 414.371L846.709 412.558L845.161 413.582L843.32 413.639L844.312 415.133L844.307 416.957L845.849 415.922L847.679 415.871Z" fill="#FFF5BF"/>
<path d="M813.039 409.15L813.822 410.762L813.582 412.56L815.246 411.74L817.08 411.916L816.285 410.309L816.521 408.499L814.861 409.331L813.039 409.15Z" fill="#FFF5BF"/>
<path d="M781.1 412.912L788.252 412.612L794.452 416.355L794.102 408.953L797.669 402.516L790.516 402.868L784.265 399.123L784.665 406.528L781.1 412.912Z" fill="#FFF5BF"/>
<path d="M318.665 383.912L311.514 383.612L305.313 387.355L305.663 379.953L302.097 373.516L309.25 373.868L315.501 370.123L315.1 377.528L318.665 383.912Z" fill="#FFF5BF"/>
<path d="M1057.86 489.973L1061.57 496.096L1061.28 503.332L1067.6 499.459L1074.95 499.484L1071.2 493.385L1071.47 486.103L1065.17 490.022L1057.86 489.973Z" fill="#FFF5BF"/>
<path d="M822.29 405.163L823.434 406.033L823.913 407.406L824.808 406.216L826.185 405.678L825.033 404.816L824.546 403.435L823.659 404.632L822.29 405.163Z" fill="#FFF5BF"/>
<path d="M827.024 412.746L826.742 413.489L826.09 413.959L826.861 414.246L827.362 414.892L827.638 414.146L828.294 413.671L827.52 413.389L827.024 412.746Z" fill="#FFF5BF"/>
<path d="M686.419 442.142L683.422 441.205L680.954 443.131L680.921 440.008L678.322 438.253L681.29 437.254L682.155 434.241L684.029 436.754L687.157 436.647L685.332 439.204L686.419 442.142Z" fill="#FFF5BF"/>
<path d="M761.419 420.142L758.422 419.205L755.954 421.131L755.921 418.008L753.322 416.253L756.29 415.254L757.155 412.241L759.029 414.754L762.157 414.647L760.332 417.204L761.419 420.142Z" fill="#FFF5BF"/>
<path d="M1140.65 519.03L1140.16 517.307L1140.71 515.578L1138.92 516.097L1137.15 515.605L1137.65 517.326L1137.11 519.067L1138.89 518.536L1140.65 519.03Z" fill="#FFF5BF"/>
<path d="M1109.28 502.985L1109.55 504.757L1108.79 506.402L1110.62 506.113L1112.32 506.825L1112.04 505.054L1112.8 503.396L1110.97 503.698L1109.28 502.985Z" fill="#FFF5BF"/>
<path d="M1119.3 501.921L1120.13 503.092L1120.19 504.546L1121.39 503.675L1122.87 503.569L1122.02 502.404L1121.97 500.941L1120.77 501.821L1119.3 501.921Z" fill="#FFF5BF"/>
<path d="M1121.57 510.568L1121.08 511.194L1120.32 511.449L1120.97 511.952L1121.26 512.717L1121.74 512.087L1122.51 511.828L1121.85 511.329L1121.57 510.568Z" fill="#FFF5BF"/>
<path d="M993.108 507.469L993.992 505.909L993.866 504.1L995.475 505.024L997.317 504.964L996.421 506.518L996.542 508.338L994.938 507.403L993.108 507.469Z" fill="#FFF5BF"/>
<path d="M1027.25 498.557L1026.57 500.216L1026.93 501.994L1025.21 501.282L1023.4 501.574L1024.09 499.92L1023.74 498.129L1025.45 498.854L1027.25 498.557Z" fill="#FFF5BF"/>
<path d="M1017.77 495.166L1016.68 496.107L1016.29 497.508L1015.32 496.378L1013.91 495.928L1015.01 494.994L1015.4 493.586L1016.37 494.724L1017.77 495.166Z" fill="#FFF5BF"/>
<path d="M1013.53 503.036L1013.85 503.759L1014.53 504.187L1013.78 504.523L1013.32 505.198L1013 504.472L1012.32 504.04L1013.07 503.709L1013.53 503.036Z" fill="#FFF5BF"/>
<path d="M960.686 520.571L963.908 512.95L971.986 511.27L965.764 505.881L966.664 497.667L959.598 501.933L952.066 498.536L953.926 506.587L948.381 512.694L956.632 513.381L960.686 520.571Z" fill="#FFF5BF"/>
<path d="M1241.07 260.317L1240.67 258.934L1241.11 257.546L1239.68 257.963L1238.26 257.568L1238.66 258.949L1238.22 260.347L1239.65 259.921L1241.07 260.317Z" fill="#FFF5BF"/>
<path d="M1215.89 247.438L1216.1 248.86L1215.49 250.18L1216.96 249.948L1218.33 250.52L1218.1 249.099L1218.71 247.768L1217.24 248.01L1215.89 247.438Z" fill="#FFF5BF"/>
<path d="M1223.93 246.584L1224.6 247.524L1224.64 248.691L1225.61 247.992L1226.79 247.907L1226.11 246.972L1226.07 245.798L1225.1 246.504L1223.93 246.584Z" fill="#FFF5BF"/>
<path d="M1225.75 253.525L1225.36 254.028L1224.74 254.232L1225.27 254.636L1225.5 255.25L1225.89 254.745L1226.5 254.537L1225.98 254.136L1225.75 253.525Z" fill="#FFF5BF"/>
<path d="M1122.64 251.036L1123.35 249.785L1123.25 248.333L1124.54 249.074L1126.02 249.026L1125.3 250.273L1125.4 251.734L1124.11 250.984L1122.64 251.036Z" fill="#FFF5BF"/>
<path d="M1150.05 243.884L1149.5 245.215L1149.79 246.643L1148.41 246.071L1146.95 246.306L1147.51 244.978L1147.23 243.541L1148.6 244.122L1150.05 243.884Z" fill="#FFF5BF"/>
<path d="M1142.43 241.162L1141.56 241.917L1141.25 243.042L1140.47 242.135L1139.34 241.774L1140.22 241.024L1140.54 239.894L1141.31 240.807L1142.43 241.162Z" fill="#FFF5BF"/>
<path d="M1139.03 247.478L1139.29 248.059L1139.84 248.402L1139.23 248.671L1138.87 249.214L1138.61 248.631L1138.06 248.284L1138.66 248.018L1139.03 247.478Z" fill="#FFF5BF"/>
<path d="M1109.2 267.771L1110.6 264.48L1114.08 263.754L1111.4 261.427L1111.79 257.879L1108.73 259.722L1105.48 258.255L1106.29 261.732L1103.89 264.369L1107.45 264.666L1109.2 267.771Z" fill="#FFF5BF"/>
<path d="M1254.97 270.481L1259.21 268.851L1262.95 271.406L1262.71 266.891L1266.31 264.117L1261.93 262.947L1260.4 258.673L1257.92 262.477L1253.39 262.611L1256.27 266.137L1254.97 270.481Z" fill="#FFF5BF"/>
<path d="M1137.17 1402.03C1136.68 1398.48 1138.25 1394.77 1141.61 1391.59C1144.96 1388.41 1149.87 1385.98 1155.4 1384.75C1160.93 1383.52 1166.71 1383.58 1171.65 1384.92C1176.6 1386.26 1180.37 1388.78 1182.27 1392.02C1184.16 1395.25 1184.05 1398.98 1181.95 1402.5C1179.84 1406.01 1175.9 1409.08 1170.85 1411.13C1165.8 1413.18 1159.99 1414.06 1154.51 1413.62C1149.03 1413.17 1144.26 1411.43 1141.08 1408.71L1160.34 1398.8L1137.17 1402.03Z" fill="#284230"/>
<path d="M455.232 1475.39C455.969 1470.1 453.612 1464.56 448.602 1459.81C443.592 1455.07 436.274 1451.43 428.017 1449.6C419.76 1447.77 411.131 1447.86 403.746 1449.86C396.361 1451.85 390.726 1455.62 387.897 1460.45C385.069 1465.28 385.24 1470.84 388.378 1476.09C391.517 1481.35 397.408 1485.93 404.948 1488.99C412.488 1492.04 421.161 1493.36 429.341 1492.7C437.521 1492.03 444.648 1489.43 449.387 1485.37L420.629 1470.58L455.232 1475.39Z" fill="#284230"/>
<path d="M1296.82 995L1305.39 1001.21L1318 997.79L1311.73 1007.72L1317.25 1016.09L1304.8 1015.99L1295.65 1024.56L1294.21 1014.6L1283 1011.54L1294.57 1005.46L1296.82 995Z" fill="#24462F"/>
</svg>
