<svg width="1512" height="2832" viewBox="0 0 1512 2832" fill="none" xmlns="http://www.w3.org/2000/svg">
<path d="M-43 0.52562L1542 0.523438L1512.88 1530H-43V0.52562Z" fill="#1A3522"/>
<path d="M-15 154.5L101.5 142H428.5H767H979.5L1174 118H1347.5H1537L1570 189L1540.88 1718.48H-15V154.5Z" fill="#9BD2D2"/>
<path d="M1443.62 182.79C1443.23 179.959 1444.49 176.996 1447.17 174.457C1449.85 171.918 1453.76 169.976 1458.18 168.996C1462.59 168.016 1467.21 168.064 1471.16 169.132C1475.11 170.199 1478.12 172.213 1479.63 174.796C1481.15 177.379 1481.06 180.354 1479.38 183.164C1477.7 185.973 1474.55 188.425 1470.52 190.06C1466.48 191.695 1461.85 192.4 1457.47 192.044C1453.1 191.688 1449.28 190.296 1446.75 188.127L1462.13 180.214L1443.62 182.79Z" fill="#609C73"/>
<path d="M53.6235 189.79C53.2294 186.959 54.49 183.996 57.1692 181.457C59.8484 178.918 63.7625 176.976 68.1783 175.996C72.5942 175.016 77.2091 175.064 81.1586 176.132C85.1082 177.199 88.1216 179.213 89.6345 181.796C91.1474 184.379 91.056 187.354 89.3775 190.164C87.6989 192.973 84.5483 195.425 80.5158 197.06C76.4832 198.695 71.8452 199.4 67.4703 199.044C63.0955 198.688 59.2839 197.296 56.7493 195.127L72.1295 187.214L53.6235 189.79Z" fill="#609C73"/>
<path d="M1150.7 158.261C1151.01 155.42 1149.67 152.494 1146.92 150.032C1144.17 147.571 1140.2 145.742 1135.76 144.888C1131.32 144.034 1126.7 144.214 1122.79 145.393C1118.87 146.573 1115.91 148.672 1114.48 151.298C1113.04 153.923 1113.21 156.894 1114.97 159.654C1116.73 162.415 1119.95 164.776 1124.03 166.295C1128.1 167.814 1132.76 168.387 1137.12 167.906C1141.49 167.426 1145.26 165.925 1147.73 163.685L1132.13 156.214L1150.7 158.261Z" fill="#609C73"/>
<path d="M550.284 231.774C549.971 228.932 551.315 226.007 554.066 223.545C556.816 221.083 560.784 219.254 565.226 218.4C569.668 217.546 574.28 217.726 578.198 218.906C582.115 220.086 585.07 222.185 586.508 224.81C587.947 227.435 587.771 230.406 586.013 233.167C584.255 235.928 581.036 238.289 576.958 239.808C572.88 241.327 568.224 241.9 563.861 241.419C559.498 240.939 555.728 239.438 553.256 237.198L568.856 229.727L550.284 231.774Z" fill="#609C73"/>
<path d="M-15 277.016H79.5L305 234.204L663 264.274L979.5 234.204L1310.5 253.061L1523 231.655L1511.5 2816.71H-0.5L-15 277.016Z" fill="#5A8266"/>
<path d="M-15 292.306H79.5L305 249.494L663 279.564L979.5 249.494L1310.5 268.352L1523 246.945L1511.5 2832H-0.5L-15 292.306Z" fill="#7AA587"/>
<path opacity="0.29" d="M206 801.978C216.217 801.978 224.5 796.958 224.5 790.766C224.5 784.573 216.217 779.553 206 779.553C195.783 779.553 187.5 784.573 187.5 790.766C187.5 796.958 195.783 801.978 206 801.978Z" fill="#F5EA83"/>
<path opacity="0.29" d="M364 1566.49C374.217 1566.49 382.5 1561.47 382.5 1555.27C382.5 1549.08 374.217 1544.06 364 1544.06C353.783 1544.06 345.5 1549.08 345.5 1555.27C345.5 1561.47 353.783 1566.49 364 1566.49Z" fill="#F5EA83"/>
<path opacity="0.29" d="M1394 1221.95C1404.22 1221.95 1412.5 1216.93 1412.5 1210.73C1412.5 1204.54 1404.22 1199.52 1394 1199.52C1383.78 1199.52 1375.5 1204.54 1375.5 1210.73C1375.5 1216.93 1383.78 1221.95 1394 1221.95Z" fill="#F5EA83"/>
<path opacity="0.29" d="M421 975.267C431.217 975.267 439.5 971.844 439.5 967.622C439.5 963.399 431.217 959.977 421 959.977C410.783 959.977 402.5 963.399 402.5 967.622C402.5 971.844 410.783 975.267 421 975.267Z" fill="#F5EA83"/>
<path opacity="0.29" d="M439.5 951.822C446.68 951.822 452.5 948.855 452.5 945.196C452.5 941.537 446.68 938.57 439.5 938.57C432.32 938.57 426.5 941.537 426.5 945.196C426.5 948.855 432.32 951.822 439.5 951.822Z" fill="#F5EA83"/>
<path opacity="0.29" d="M463 970.169C467.142 970.169 470.5 968.116 470.5 965.582C470.5 963.049 467.142 960.995 463 960.995C458.858 960.995 455.5 963.049 455.5 965.582C455.5 968.116 458.858 970.169 463 970.169Z" fill="#F5EA83"/>
<path opacity="0.29" d="M717 1614.39C727.217 1614.39 735.5 1610.97 735.5 1606.75C735.5 1602.53 727.217 1599.1 717 1599.1C706.783 1599.1 698.5 1602.53 698.5 1606.75C698.5 1610.97 706.783 1614.39 717 1614.39Z" fill="#F5EA83"/>
<path opacity="0.29" d="M735.5 1590.95C742.68 1590.95 748.5 1587.98 748.5 1584.32C748.5 1580.66 742.68 1577.7 735.5 1577.7C728.32 1577.7 722.5 1580.66 722.5 1584.32C722.5 1587.98 728.32 1590.95 735.5 1590.95Z" fill="#F5EA83"/>
<path opacity="0.29" d="M759 1609.3C763.142 1609.3 766.5 1607.24 766.5 1604.71C766.5 1602.18 763.142 1600.12 759 1600.12C754.858 1600.12 751.5 1602.18 751.5 1604.71C751.5 1607.24 754.858 1609.3 759 1609.3Z" fill="#F5EA83"/>
<path opacity="0.29" d="M958 615.438C968.77 615.438 977.5 610.19 977.5 603.716C977.5 597.242 968.77 591.993 958 591.993C947.23 591.993 938.5 597.242 938.5 603.716C938.5 610.19 947.23 615.438 958 615.438Z" fill="#F5EA83"/>
<path opacity="0.29" d="M932.5 2520.16C943.27 2520.16 952 2514.91 952 2508.44C952 2501.96 943.27 2496.72 932.5 2496.72C921.73 2496.72 913 2501.96 913 2508.44C913 2514.91 921.73 2520.16 932.5 2520.16Z" fill="#F5EA83"/>
<path opacity="0.29" d="M323 1544.06C333.77 1544.06 342.5 1538.81 342.5 1532.34C342.5 1525.86 333.77 1520.62 323 1520.62C312.23 1520.62 303.5 1525.86 303.5 1532.34C303.5 1538.81 312.23 1544.06 323 1544.06Z" fill="#F5EA83"/>
<path opacity="0.29" d="M323.5 1572.6C331.232 1572.6 337.5 1568.72 337.5 1563.94C337.5 1559.15 331.232 1555.27 323.5 1555.27C315.768 1555.27 309.5 1559.15 309.5 1563.94C309.5 1568.72 315.768 1572.6 323.5 1572.6Z" fill="#F5EA83"/>
<path opacity="0.29" d="M1163 1493.09C1173.77 1493.09 1182.5 1487.84 1182.5 1481.37C1182.5 1474.9 1173.77 1469.65 1163 1469.65C1152.23 1469.65 1143.5 1474.9 1143.5 1481.37C1143.5 1487.84 1152.23 1493.09 1163 1493.09Z" fill="#F5EA83"/>
<path opacity="0.29" d="M244 1085.36C254.77 1085.36 263.5 1080.11 263.5 1073.63C263.5 1067.16 254.77 1061.91 244 1061.91C233.23 1061.91 224.5 1067.16 224.5 1073.63C224.5 1080.11 233.23 1085.36 244 1085.36Z" fill="#F5EA83"/>
<path opacity="0.29" d="M1457 287.21C1467.77 287.21 1476.5 281.961 1476.5 275.487C1476.5 269.013 1467.77 263.765 1457 263.765C1446.23 263.765 1437.5 269.013 1437.5 275.487C1437.5 281.961 1446.23 287.21 1457 287.21Z" fill="#F5EA83"/>
<path d="M1459 229.107C1470.6 229.107 1480 225.228 1480 220.443C1480 215.658 1470.6 211.778 1459 211.778C1447.4 211.778 1438 215.658 1438 220.443C1438 225.228 1447.4 229.107 1459 229.107Z" fill="#98E8E8"/>
<path d="M1080 185.275C1092.15 185.275 1102 181.168 1102 176.101C1102 171.034 1092.15 166.927 1080 166.927C1067.85 166.927 1058 171.034 1058 176.101C1058 181.168 1067.85 185.275 1080 185.275Z" fill="#98E8E8"/>
<path d="M675 235.223C663.402 235.223 654 230.431 654 224.52C654 218.608 663.402 213.816 675 213.816C686.598 213.816 696 218.608 696 224.52C696 230.431 686.598 235.223 675 235.223Z" fill="#98E8E8"/>
<path opacity="0.29" d="M1044 359.583C1054.77 359.583 1063.5 354.334 1063.5 347.86C1063.5 341.386 1054.77 336.138 1044 336.138C1033.23 336.138 1024.5 341.386 1024.5 347.86C1024.5 354.334 1033.23 359.583 1044 359.583Z" fill="#F5EA83"/>
<path opacity="0.29" d="M402 1901.85C412.77 1901.85 421.5 1896.6 421.5 1890.13C421.5 1883.65 412.77 1878.4 402 1878.4C391.23 1878.4 382.5 1883.65 382.5 1890.13C382.5 1896.6 391.23 1901.85 402 1901.85Z" fill="#F5EA83"/>
<path opacity="0.54" d="M160 824.404C177.121 824.404 191 820.068 191 814.72C191 809.372 177.121 805.036 160 805.036C142.879 805.036 129 809.372 129 814.72C129 820.068 142.879 824.404 160 824.404Z" fill="#F5EA83"/>
<path opacity="0.29" d="M1451 664.367C1461.22 664.367 1469.5 657.749 1469.5 649.586C1469.5 641.423 1461.22 634.806 1451 634.806C1440.78 634.806 1432.5 641.423 1432.5 649.586C1432.5 657.749 1440.78 664.367 1451 664.367Z" fill="#F5EA83"/>
<path opacity="0.54" d="M956.5 1040.5C966.993 1040.5 975.5 1037.08 975.5 1032.86C975.5 1028.64 966.993 1025.21 956.5 1025.21C946.007 1025.21 937.5 1028.64 937.5 1032.86C937.5 1037.08 946.007 1040.5 956.5 1040.5Z" fill="#F5EA83"/>
<path opacity="0.54" d="M905.5 1059.87C915.993 1059.87 924.5 1056.45 924.5 1052.23C924.5 1048 915.993 1044.58 905.5 1044.58C895.007 1044.58 886.5 1048 886.5 1052.23C886.5 1056.45 895.007 1059.87 905.5 1059.87Z" fill="#F5EA83"/>
<path opacity="0.54" d="M907.5 1025.21C917.993 1025.21 926.5 1021.79 926.5 1017.57C926.5 1013.35 917.993 1009.92 907.5 1009.92C897.007 1009.92 888.5 1013.35 888.5 1017.57C888.5 1021.79 897.007 1025.21 907.5 1025.21Z" fill="#F5EA83"/>
<path opacity="0.29" d="M1453 1428.87C1463.22 1428.87 1471.5 1422.26 1471.5 1414.09C1471.5 1405.93 1463.22 1399.31 1453 1399.31C1442.78 1399.31 1434.5 1405.93 1434.5 1414.09C1434.5 1422.26 1442.78 1428.87 1453 1428.87Z" fill="#F5EA83"/>
<path opacity="0.54" d="M1387 1399.31C1412.13 1399.31 1432.5 1391.1 1432.5 1380.97C1432.5 1370.83 1412.13 1362.62 1387 1362.62C1361.87 1362.62 1341.5 1370.83 1341.5 1380.97C1341.5 1391.1 1361.87 1399.31 1387 1399.31Z" fill="#F5EA83"/>
<path opacity="0.54" d="M338 1942.62C363.129 1942.62 383.5 1934.41 383.5 1924.27C383.5 1914.14 363.129 1905.93 338 1905.93C312.871 1905.93 292.5 1914.14 292.5 1924.27C292.5 1934.41 312.871 1942.62 338 1942.62Z" fill="#F5EA83"/>
<path opacity="0.54" d="M1002 2501.81C1027.13 2501.81 1047.5 2493.6 1047.5 2483.46C1047.5 2473.33 1027.13 2465.12 1002 2465.12C976.871 2465.12 956.5 2473.33 956.5 2483.46C956.5 2493.6 976.871 2501.81 1002 2501.81Z" fill="#F5EA83"/>
<path opacity="0.29" d="M1387.5 2397.25C1398.27 2397.25 1407 2392 1407 2385.53C1407 2379.05 1398.27 2373.8 1387.5 2373.8C1376.73 2373.8 1368 2379.05 1368 2385.53C1368 2392 1376.73 2397.25 1387.5 2397.25Z" fill="#F5EA83"/>
<path opacity="0.54" d="M1457 2378.9C1482.13 2378.9 1502.5 2370.69 1502.5 2360.55C1502.5 2350.42 1482.13 2342.21 1457 2342.21C1431.87 2342.21 1411.5 2350.42 1411.5 2360.55C1411.5 2370.69 1431.87 2378.9 1457 2378.9Z" fill="#F5EA83"/>
<path opacity="0.54" d="M201 404.434C218.949 404.434 233.5 399.87 233.5 394.24C233.5 388.611 218.949 384.047 201 384.047C183.051 384.047 168.5 388.611 168.5 394.24C168.5 399.87 183.051 404.434 201 404.434Z" fill="#F5EA83"/>
<path opacity="0.54" d="M1502 314.732C1519.95 314.732 1534.5 310.168 1534.5 304.538C1534.5 298.908 1519.95 294.345 1502 294.345C1484.05 294.345 1469.5 298.908 1469.5 304.538C1469.5 310.168 1484.05 314.732 1502 314.732Z" fill="#F5EA83"/>
<path opacity="0.54" d="M1187.5 1981.16C1182.81 1981.16 1179 1979.79 1179 1978.1C1179 1976.41 1182.81 1975.04 1187.5 1975.04C1192.19 1975.04 1196 1976.41 1196 1978.1C1196 1979.79 1192.19 1981.16 1187.5 1981.16Z" fill="#DCF492"/>
<path opacity="0.54" d="M1228 1984.21C1220.27 1984.21 1214 1981.7 1214 1978.61C1214 1975.51 1220.27 1973 1228 1973C1235.73 1973 1242 1975.51 1242 1978.61C1242 1981.7 1235.73 1984.21 1228 1984.21Z" fill="#DCF492"/>
<path opacity="0.54" d="M1203 2026.01C1199.13 2026.01 1196 2024.41 1196 2022.44C1196 2020.47 1199.13 2018.87 1203 2018.87C1206.87 2018.87 1210 2020.47 1210 2022.44C1210 2024.41 1206.87 2026.01 1203 2026.01Z" fill="#DCF492"/>
<path opacity="0.54" d="M1192.5 2004.6C1182.84 2004.6 1175 2002.32 1175 1999.5C1175 1996.69 1182.84 1994.41 1192.5 1994.41C1202.16 1994.41 1210 1996.69 1210 1999.5C1210 2002.32 1202.16 2004.6 1192.5 2004.6Z" fill="#DCF492"/>
<path opacity="0.54" d="M67.5 2399.29C62.8056 2399.29 59 2397.92 59 2396.23C59 2394.54 62.8056 2393.17 67.5 2393.17C72.1944 2393.17 76 2394.54 76 2396.23C76 2397.92 72.1944 2399.29 67.5 2399.29Z" fill="#DCF492"/>
<path opacity="0.54" d="M887 2470.21C879.268 2470.21 873 2467.7 873 2464.61C873 2461.51 879.268 2459 887 2459C894.732 2459 901 2461.51 901 2464.61C901 2467.7 894.732 2470.21 887 2470.21Z" fill="#DCF492"/>
<path opacity="0.54" d="M851.5 2490.6C841.835 2490.6 834 2488.32 834 2485.5C834 2482.69 841.835 2480.41 851.5 2480.41C861.165 2480.41 869 2482.69 869 2485.5C869 2488.32 861.165 2490.6 851.5 2490.6Z" fill="#DCF492"/>
<path opacity="0.54" d="M38 2010.92C33.3056 2010.92 29.5 2009.55 29.5 2007.86C29.5 2006.17 33.3056 2004.8 38 2004.8C42.6944 2004.8 46.5 2006.17 46.5 2007.86C46.5 2009.55 42.6944 2010.92 38 2010.92Z" fill="#DCF492"/>
<path opacity="0.54" d="M78.5 2013.98C70.768 2013.98 64.5 2011.47 64.5 2008.37C64.5 2005.27 70.768 2002.76 78.5 2002.76C86.232 2002.76 92.5 2005.27 92.5 2008.37C92.5 2011.47 86.232 2013.98 78.5 2013.98Z" fill="#DCF492"/>
<path opacity="0.54" d="M53.5 2055.77C49.634 2055.77 46.5 2054.17 46.5 2052.2C46.5 2050.23 49.634 2048.63 53.5 2048.63C57.366 2048.63 60.5 2050.23 60.5 2052.2C60.5 2054.17 57.366 2055.77 53.5 2055.77Z" fill="#DCF492"/>
<path opacity="0.54" d="M43 2034.36C33.335 2034.36 25.5 2032.08 25.5 2029.27C25.5 2026.45 33.335 2024.17 43 2024.17C52.665 2024.17 60.5 2026.45 60.5 2029.27C60.5 2032.08 52.665 2034.36 43 2034.36Z" fill="#DCF492"/>
<path d="M904.324 540.007L912.886 546.218L925.5 542.797L919.225 552.728L924.748 561.098L912.297 560.998L903.147 569.568L901.709 559.603L890.5 556.548L902.068 550.469L904.324 540.007Z" fill="#C0EDAB"/>
<path d="M1394.32 1449.26L1402.89 1455.47L1415.5 1452.05L1409.23 1461.98L1414.75 1470.35L1402.3 1470.25L1393.15 1478.82L1391.71 1468.86L1380.5 1465.8L1392.07 1459.72L1394.32 1449.26Z" fill="#C0EDAB"/>
<path opacity="0.29" d="M1153.5 2168.92C1163.72 2168.92 1172 2162.3 1172 2154.14C1172 2145.97 1163.72 2139.36 1153.5 2139.36C1143.28 2139.36 1135 2145.97 1135 2154.14C1135 2162.3 1143.28 2168.92 1153.5 2168.92Z" fill="#F5EA83"/>
<path opacity="0.54" d="M1087.5 2139.36C1112.63 2139.36 1133 2131.14 1133 2121.01C1133 2110.87 1112.63 2102.66 1087.5 2102.66C1062.37 2102.66 1042 2110.87 1042 2121.01C1042 2131.14 1062.37 2139.36 1087.5 2139.36Z" fill="#F5EA83"/>
<path d="M1094.82 2189.3L1103.39 2195.52L1116 2192.09L1109.73 2202.03L1115.25 2210.4L1102.8 2210.3L1093.65 2218.87L1092.21 2208.9L1081 2205.85L1092.57 2199.77L1094.82 2189.3Z" fill="#C0EDAB"/>
<path d="M438.324 1942.62L446.886 1948.83L459.5 1945.41L453.225 1955.34L458.748 1963.71L446.297 1963.61L437.147 1972.18L435.709 1962.22L424.5 1959.16L436.068 1953.09L438.324 1942.62Z" fill="#C0EDAB"/>
<path d="M841.324 973.228L849.886 979.439L862.5 976.017L856.225 985.949L861.748 994.319L849.297 994.219L840.147 1002.79L838.709 992.824L827.5 989.769L839.068 983.69L841.324 973.228Z" fill="#C0EDAB"/>
<path d="M280.324 1089.43L288.886 1095.64L301.5 1092.22L295.225 1102.15L300.748 1110.52L288.297 1110.42L279.147 1118.99L277.709 1109.03L266.5 1105.97L278.068 1099.89L280.324 1089.43Z" fill="#C0EDAB"/>
<path d="M1408.32 389.144L1416.89 395.355L1429.5 391.933L1423.23 401.865L1428.75 410.235L1416.3 410.135L1407.15 418.705L1405.71 408.74L1394.5 405.685L1406.07 399.606L1408.32 389.144Z" fill="#C0EDAB"/>
<path d="M1410.13 605.129C1409.48 600.336 1411.57 595.32 1416.02 591.021C1420.47 586.722 1426.97 583.435 1434.31 581.775C1441.64 580.116 1449.3 580.197 1455.86 582.005C1462.42 583.813 1467.43 587.222 1469.94 591.595C1472.45 595.968 1472.3 601.005 1469.52 605.762C1466.73 610.519 1461.49 614.669 1454.8 617.437C1448.1 620.204 1440.4 621.399 1433.13 620.796C1425.86 620.194 1419.53 617.836 1415.32 614.164L1440.87 600.768L1410.13 605.129Z" fill="#DCF492"/>
<path d="M93.4055 847.212C93.6258 842.377 91.0895 837.578 86.2715 833.714C81.4535 829.849 74.6842 827.184 67.2315 826.217C59.7787 825.251 52.1537 826.049 45.7842 828.462C39.4148 830.876 34.7379 834.739 32.6294 839.329C30.5209 843.918 31.1253 848.919 34.3296 853.395C37.5339 857.872 43.1182 861.516 50.0367 863.645C56.9552 865.774 64.7335 866.243 71.9147 864.964C79.096 863.684 85.1877 860.744 89.0491 856.694L62.4062 845.744L93.4055 847.212Z" fill="#DCF492"/>
<path d="M96.9055 2338.51C97.1258 2333.68 94.5895 2328.88 89.7715 2325.01C84.9535 2321.15 78.1842 2318.48 70.7315 2317.52C63.2787 2316.55 55.6537 2317.35 49.2842 2319.76C42.9148 2322.18 38.2379 2326.04 36.1294 2330.63C34.0209 2335.22 34.6253 2340.22 37.8296 2344.7C41.0339 2349.17 46.6182 2352.82 53.5367 2354.94C60.4552 2357.07 68.2335 2357.54 75.4147 2356.26C82.596 2354.98 88.6877 2352.04 92.5491 2347.99L65.9062 2337.04L96.9055 2338.51Z" fill="#DCF492"/>
<path d="M1463.41 1177.48C1463.63 1172.64 1461.09 1167.85 1456.27 1163.98C1451.45 1160.12 1444.68 1157.45 1437.23 1156.48C1429.78 1155.52 1422.15 1156.32 1415.78 1158.73C1409.41 1161.14 1404.74 1165.01 1402.63 1169.6C1400.52 1174.19 1401.13 1179.19 1404.33 1183.66C1407.53 1188.14 1413.12 1191.78 1420.04 1193.91C1426.96 1196.04 1434.73 1196.51 1441.91 1195.23C1449.1 1193.95 1455.19 1191.01 1459.05 1186.96L1432.41 1176.01L1463.41 1177.48Z" fill="#DCF492"/>
<path d="M1009.4 313.276C1009.74 308.204 1006.14 303.029 999.258 298.719C992.379 294.409 982.699 291.261 972.03 289.863C961.36 288.465 950.434 288.913 941.296 291.124C932.158 293.336 925.436 297.158 922.389 301.875C919.341 306.592 920.178 311.881 924.741 316.751C929.304 321.621 937.281 325.738 947.179 328.332C957.076 330.925 968.214 331.816 978.508 330.839C988.802 329.861 997.545 327.082 1003.1 323.022L965.002 310.145L1009.4 313.276Z" fill="#DCF492"/>
<path d="M766.003 1640.71C765.76 1637.12 768.31 1633.46 773.176 1630.41C778.043 1627.36 784.892 1625.13 792.44 1624.14C799.989 1623.16 807.72 1623.47 814.185 1625.04C820.65 1626.6 825.406 1629.31 827.562 1632.64C829.718 1635.98 829.126 1639.72 825.898 1643.17C822.669 1646.61 817.025 1649.53 810.023 1651.36C803.02 1653.2 795.14 1653.83 787.857 1653.14C780.574 1652.44 774.388 1650.48 770.458 1647.61L797.412 1638.49L766.003 1640.71Z" fill="#DCF492"/>
<path d="M718.497 774.456L726.292 822.62H710.703L718.497 774.456Z" fill="#7AA587"/>
<path d="M732.666 777.346L723.396 825.025L711.252 820.775L732.666 777.346Z" fill="#7AA587"/>
<path d="M703.315 770.192L720.49 815.76L705.223 818.968L703.315 770.192Z" fill="#7AA587"/>
<path d="M686.119 765.563L713.763 805.888L695.695 813.78L686.119 765.563Z" fill="#7AA587"/>
<path d="M581.465 718.09L597.149 746.287L584.374 750.208L581.465 718.09Z" fill="#7AA587"/>
<path d="M593.042 716.503L595.216 749.053L584.977 749.236L593.042 716.503Z" fill="#7AA587"/>
<path d="M568.909 718.927L591.151 743.846L579.956 749.519L568.909 718.927Z" fill="#7AA587"/>
<path d="M554.686 720.069L584.008 739.163L571.562 748.481L554.686 720.069Z" fill="#7AA587"/>
<path d="M918.891 1411.15L938.062 1440.02L920.531 1448.29L918.891 1411.15Z" fill="#7AA587"/>
<path d="M934.647 1405.98L935.265 1443.84L921.424 1446.97L934.647 1405.98Z" fill="#7AA587"/>
<path d="M901.876 1415.72L930.139 1438.84L914.616 1448.73L901.876 1415.72Z" fill="#7AA587"/>
<path d="M882.588 1421.11L920.827 1435.34L903.354 1449.9L882.588 1421.11Z" fill="#7AA587"/>
<path d="M879.891 1427.46L899.062 1456.33L881.531 1464.6L879.891 1427.46Z" fill="#7AA587"/>
<path d="M895.647 1422.28L896.265 1460.15L882.424 1463.28L895.647 1422.28Z" fill="#7AA587"/>
<path d="M862.876 1432.03L891.139 1455.15L875.616 1465.04L862.876 1432.03Z" fill="#7AA587"/>
<path d="M843.588 1437.42L881.827 1451.65L864.354 1466.21L843.588 1437.42Z" fill="#7AA587"/>
<path d="M532.954 1683.59L554.325 1725.22L529.62 1733.59L532.954 1683.59Z" fill="#7AA587"/>
<path d="M554.828 1679.1L550.018 1729.9L531.019 1731.96L554.828 1679.1Z" fill="#7AA587"/>
<path d="M509.499 1687.08L543.898 1722.42L521.64 1733.27L509.499 1687.08Z" fill="#7AA587"/>
<path d="M482.868 1691.32L531.949 1716.29L506.387 1733.09L482.868 1691.32Z" fill="#7AA587"/>
<path d="M1451.89 1047.24L1471.06 1076.11L1453.53 1084.39L1451.89 1047.24Z" fill="#7AA587"/>
<path d="M1467.65 1042.07L1468.27 1079.93L1454.42 1083.06L1467.65 1042.07Z" fill="#7AA587"/>
<path d="M1434.88 1051.81L1463.14 1074.94L1447.62 1084.83L1434.88 1051.81Z" fill="#7AA587"/>
<path d="M1415.59 1057.21L1453.83 1071.43L1436.35 1085.99L1415.59 1057.21Z" fill="#7AA587"/>
<path d="M1203.26 1190.79L1194.96 1214.8L1209.29 1215.04L1203.26 1190.79Z" fill="#7AA587"/>
<path d="M1190.83 1192.02L1197.74 1216.44L1208.39 1214.45L1190.83 1192.02Z" fill="#7AA587"/>
<path d="M1216.5 1188.81L1200.48 1211.77L1213.67 1213.62L1216.5 1188.81Z" fill="#7AA587"/>
<path d="M1231.55 1186.7L1206.56 1206.84L1222.07 1211.12L1231.55 1186.7Z" fill="#7AA587"/>
<path d="M969.31 874.551L977.104 922.715H961.516L969.31 874.551Z" fill="#7AA587"/>
<path d="M983.478 877.437L974.208 925.117L962.064 920.867L983.478 877.437Z" fill="#7AA587"/>
<path d="M954.127 870.287L971.302 915.854L956.035 919.063L954.127 870.287Z" fill="#7AA587"/>
<path d="M936.932 865.655L964.576 905.981L946.507 913.873L936.932 865.655Z" fill="#7AA587"/>
<path d="M849.366 668.136L867.49 687.494L857.039 690.392L849.366 668.136Z" fill="#7AA587"/>
<path d="M859.632 666.752L866.186 689.072L856.906 689.493L859.632 666.752Z" fill="#7AA587"/>
<path d="M838.038 669.117L861.757 685.61L852.38 689.834L838.038 669.117Z" fill="#7AA587"/>
<path d="M835.757 674.42L855.513 688.001L844.135 691.898L835.757 674.42Z" fill="#7AA587"/>
<path d="M235.345 1426.24L256.716 1467.87L232.011 1476.24L235.345 1426.24Z" fill="#7AA587"/>
<path d="M257.218 1421.75L252.409 1472.55L233.41 1474.61L257.218 1421.75Z" fill="#7AA587"/>
<path d="M211.889 1429.72L246.288 1465.07L224.031 1475.92L211.889 1429.72Z" fill="#7AA587"/>
<path d="M185.258 1433.97L234.34 1458.94L208.778 1475.74L185.258 1433.97Z" fill="#7AA587"/>
<path d="M679.794 2411.48L719.11 2488.07L673.661 2503.47L679.794 2411.48Z" fill="#7AA587"/>
<path d="M720.022 2403.22L711.174 2496.68L676.224 2500.46L720.022 2403.22Z" fill="#7AA587"/>
<path d="M636.647 2417.89L699.929 2482.91L658.984 2502.88L636.647 2417.89Z" fill="#7AA587"/>
<path d="M587.65 2425.71L677.942 2471.63L630.917 2502.54L587.65 2425.71Z" fill="#7AA587"/>
<path d="M1243.38 1846.97L1259.81 1878.99L1240.81 1885.43L1243.38 1846.97Z" fill="#7AA587"/>
<path d="M1260.2 1843.52L1256.5 1882.59L1241.89 1884.17L1260.2 1843.52Z" fill="#7AA587"/>
<path d="M1225.34 1849.65L1251.79 1876.84L1234.67 1885.18L1225.34 1849.65Z" fill="#7AA587"/>
<path d="M1204.85 1852.92L1242.6 1872.12L1222.94 1885.04L1204.85 1852.92Z" fill="#7AA587"/>
<path d="M1192.38 664.536L1208.81 696.554L1189.81 702.992L1192.38 664.536Z" fill="#7AA587"/>
<path d="M1209.2 661.078L1205.5 700.155L1190.89 701.734L1209.2 661.078Z" fill="#7AA587"/>
<path d="M1174.34 667.215L1200.79 694.399L1183.67 702.744L1174.34 667.215Z" fill="#7AA587"/>
<path d="M1153.85 670.482L1191.6 689.681L1171.94 702.603L1153.85 670.482Z" fill="#7AA587"/>
<path d="M117.357 392.195L125.219 407.51L116.13 410.589L117.357 392.195Z" fill="#7AA587"/>
<path d="M125.401 390.541L123.632 409.233L116.642 409.988L125.401 390.541Z" fill="#7AA587"/>
<path d="M108.727 393.476L121.382 406.479L113.194 410.47L108.727 393.476Z" fill="#7AA587"/>
<path d="M98.9294 395.039L116.986 404.223L107.582 410.403L98.9294 395.039Z" fill="#7AA587"/>
<rect x="121" y="151" width="48" height="9" rx="4.5" fill="#C2EAEA"/>
<rect x="154" y="167" width="48" height="9" rx="4.5" fill="#C2EAEA"/>
<circle cx="113.5" cy="155.5" r="4.5" fill="#C2EAEA"/>
<rect width="48" height="9" rx="4.5" transform="matrix(-1 0 0 1 1443 126)" fill="#C2EAEA"/>
<rect width="48" height="9" rx="4.5" transform="matrix(-1 0 0 1 1410 142)" fill="#C2EAEA"/>
<circle cx="4.5" cy="4.5" r="4.5" transform="matrix(-1 0 0 1 1455 126)" fill="#C2EAEA"/>
<rect width="29" height="9" rx="4.5" transform="matrix(-1 0 0 1 807 151)" fill="#C2EAEA"/>
<rect width="47" height="9" rx="4.5" transform="matrix(-1 0 0 1 847 166)" fill="#C2EAEA"/>
<circle cx="4.5" cy="4.5" r="4.5" transform="matrix(-1 0 0 1 820 151)" fill="#C2EAEA"/>
<circle cx="683.5" cy="210.5" r="3.5" fill="#E6F5F5"/>
<path d="M305 177C316.046 177 325 172.523 325 167C325 161.477 316.046 157 305 157C293.954 157 285 161.477 285 167C285 172.523 293.954 177 305 177Z" fill="#98E8E8"/>
<ellipse cx="3" cy="3.5" rx="3" ry="3.5" transform="matrix(-1 0 0 1 299 161)" fill="#E6F5F5"/>
<path d="M641 237C633.268 237 627 233.866 627 230C627 226.134 633.268 223 641 223C648.732 223 655 226.134 655 230C655 233.866 648.732 237 641 237Z" fill="#98E8E8"/>
<circle cx="645.5" cy="227.5" r="2.5" fill="#E6F5F5"/>
<circle cx="3" cy="3" r="3" transform="matrix(-1 0 0 1 1073 160)" fill="#E6F5F5"/>
<ellipse cx="3" cy="2.5" rx="3" ry="2.5" transform="matrix(-1 0 0 1 1454 204)" fill="#E6F5F5"/>
<rect x="470" y="182" width="29" height="9" rx="4.5" fill="#C2EAEA"/>
<rect x="430" y="197" width="47" height="9" rx="4.5" fill="#C2EAEA"/>
<rect width="29" height="9" rx="4.5" transform="matrix(-1 0 0 1 14 230)" fill="#C2EAEA"/>
<rect width="34" height="9" rx="4.5" transform="matrix(-1 0 0 1 41 245)" fill="#C2EAEA"/>
<circle cx="461.5" cy="186.5" r="4.5" fill="#C2EAEA"/>
<rect x="1165" y="195" width="29" height="9" rx="4.5" fill="#C2EAEA"/>
<rect x="1180" y="207" width="47" height="9" rx="4.5" fill="#C2EAEA"/>
<circle cx="1156.5" cy="199.5" r="4.5" fill="#C2EAEA"/>
<ellipse cx="1313.63" cy="239" rx="90.5" ry="39" fill="#C45C84"/>
<path d="M1292.15 209.32C1311.74 222.842 1304.82 263.357 1281.38 284.217C1257.94 305.078 1223.06 311.027 1203.47 297.506C1183.88 283.984 1187 256.112 1210.44 235.251C1233.88 214.39 1272.56 195.799 1292.15 209.32Z" fill="#C45C84"/>
<path d="M1319.92 207.307C1298.55 221.503 1318.04 263.16 1342.48 284.094C1366.92 305.029 1404.06 310.492 1425.44 296.296C1446.81 282.1 1444.32 253.621 1419.87 232.686C1395.43 211.752 1341.29 193.111 1319.92 207.307Z" fill="#C45C84"/>
<path d="M1354.79 244.608C1356.94 239.812 1375.15 238.409 1392.62 245.662C1410.09 252.915 1421.45 265.699 1419.3 270.496C1417.15 275.292 1402.72 274.602 1385.25 267.349C1367.78 260.096 1352.64 249.405 1354.79 244.608Z" fill="#EF7BA2"/>
<path d="M1268.23 243.597C1267.69 240.301 1273.28 234.056 1280.87 232.815C1288.47 231.574 1295.49 235.226 1296.03 238.522C1296.57 241.819 1291.67 245.772 1284.08 247.013C1276.48 248.254 1268.77 246.894 1268.23 243.597Z" fill="#D9D9D9"/>
<path d="M1294.98 208.207C1295.48 210.591 1291.61 215.325 1286.12 216.48C1280.63 217.635 1275.39 215.206 1274.89 212.823C1274.39 210.439 1277.83 207.397 1283.32 206.242C1288.81 205.087 1294.47 205.824 1294.98 208.207Z" fill="#D9D9D9"/>
<path d="M1390.74 254.527C1389.92 256.679 1385.27 258.077 1380.4 256.227C1375.53 254.378 1371.9 250.225 1372.72 248.072C1373.54 245.919 1378.51 245.309 1383.38 247.158C1388.25 249.007 1391.56 252.374 1390.74 254.527Z" fill="#D9D9D9"/>
<path d="M1424.13 296.486C1424.13 307.532 1355.87 311 1307.75 311C1259.62 311 1200.13 305.711 1200.13 294.666C1200.13 283.62 1259.62 271 1307.75 271C1355.87 271 1424.13 285.441 1424.13 296.486Z" fill="#671430"/>
<path d="M1398.13 288.438C1398.13 296.998 1346.7 302 1309.28 302C1271.86 302 1223.13 295.06 1223.13 286.5C1223.13 277.94 1271.86 271 1309.28 271C1346.7 271 1398.13 279.877 1398.13 288.438Z" fill="#992049"/>
<path d="M1321.68 209.917C1323.02 202.211 1337.28 201.808 1353.99 204.712C1368.61 207.252 1379.83 215.48 1378.49 223.185C1377.15 230.891 1365.92 237.871 1351.3 235.331C1336.68 232.791 1320.34 217.623 1321.68 209.917Z" fill="#EF7BA2"/>
<path d="M1287.64 263.186C1286.53 269.983 1294.92 273.889 1305.6 275.635C1314.93 277.163 1323.66 273.071 1324.77 266.273C1325.88 259.476 1320.92 250.811 1311.58 249.284C1302.25 247.756 1288.76 256.388 1287.64 263.186Z" fill="#EF7BA2"/>
<path d="M1233.41 244.251C1235.28 249.939 1246.06 248.674 1258.32 244.633C1269.04 241.098 1276.56 233.63 1274.69 227.942C1272.81 222.254 1263.57 218.206 1252.85 221.741C1242.13 225.275 1231.53 238.563 1233.41 244.251Z" fill="#EF7BA2"/>
<path d="M1405.05 251.532C1408.53 245.994 1417.44 245.328 1424.95 250.045C1432.46 254.762 1435.74 263.075 1432.26 268.613C1428.78 274.151 1423.77 267.448 1416.26 262.731C1408.74 258.014 1401.57 257.07 1405.05 251.532Z" fill="#D9D9D9"/>
<path d="M1364.04 221.371C1365.69 216.063 1373.9 213.902 1382.37 216.544C1390.84 219.185 1396.36 225.629 1394.71 230.937C1393.05 236.244 1385.55 240.457 1377.08 237.816C1368.61 235.174 1362.38 226.678 1364.04 221.371Z" fill="#D9D9D9"/>
<path d="M1331.44 231.265C1332.06 227.719 1339.98 219.994 1347.32 221.262C1354.65 222.53 1358.61 232.311 1357.99 235.857C1357.38 239.403 1351.08 239.594 1343.75 238.326C1336.42 237.058 1330.83 234.811 1331.44 231.265Z" fill="#D9D9D9"/>
<path d="M1296.17 220.678C1296.26 216.016 1303.49 204.537 1311.51 204.693C1319.53 204.849 1328.92 211.855 1328.83 216.517C1328.74 221.18 1320.87 222.332 1312.85 222.176C1304.83 222.02 1296.08 225.341 1296.17 220.678Z" fill="#D9D9D9"/>
<path d="M1254.84 214.627C1256.55 218.967 1253.01 231.365 1245.55 234.299C1238.08 237.233 1223.45 235.92 1221.75 231.58C1218.66 228.457 1234.92 219.528 1242.09 215.695C1249.58 212.342 1253.13 210.287 1254.84 214.627Z" fill="#D9D9D9"/>
<path d="M1222.07 251.891C1219.47 247.473 1213.06 246.423 1207.73 249.547C1202.41 252.671 1200.19 258.784 1202.79 263.202C1205.38 267.62 1208.56 263.385 1213.88 260.261C1219.21 257.138 1224.66 256.308 1222.07 251.891Z" fill="#D9D9D9"/>
<path d="M1307.28 271.103L1322.39 271.378L1328 308L1307.98 306.547L1307.28 271.103Z" fill="#280410"/>
<path d="M1307.28 271.104L1292.17 271.379L1287 308.5L1314.51 307.667L1307.28 271.104Z" fill="#280410"/>
<path d="M1307.22 371.332L1321.48 377.311L1328 332.5L1306 331.5L1307.22 371.332Z" fill="#280410"/>
<path d="M1307.37 371.621L1292.93 376.565L1287 330.5L1307.94 334.351L1307.37 371.621Z" fill="#280410"/>
<rect x="1287.13" y="299" width="41" height="42" rx="10" fill="#280410"/>
<path d="M1335.96 258.216C1336.88 252.616 1331.88 242.743 1324.29 241.502C1316.7 240.261 1309.14 247.18 1308.22 252.78C1307.31 258.379 1311.85 264.478 1319.45 265.719C1327.04 266.96 1335.05 263.815 1335.96 258.216Z" fill="#D9D9D9"/>
<ellipse cx="242.678" cy="211.08" rx="68.78" ry="29.64" fill="#C45C84"/>
<path d="M226.354 188.524C241.242 198.8 235.982 229.591 218.169 245.446C200.355 261.3 173.845 265.821 158.957 255.545C144.069 245.268 146.441 224.085 164.254 208.231C182.068 192.377 211.465 178.247 226.354 188.524Z" fill="#C45C84"/>
<path d="M247.461 186.994C231.219 197.783 246.031 229.442 264.608 245.352C283.184 261.262 311.411 265.414 327.653 254.625C343.895 243.836 342.003 222.192 323.426 206.282C304.85 190.372 263.704 176.205 247.461 186.994Z" fill="#C45C84"/>
<path d="M273.963 215.343C275.597 211.697 289.435 210.631 302.715 216.144C315.994 221.656 324.626 231.372 322.992 235.017C321.358 238.663 310.392 238.138 297.112 232.626C283.833 227.113 272.329 218.988 273.963 215.343Z" fill="#EF7BA2"/>
<path d="M208.173 214.574C207.763 212.068 212.013 207.322 217.784 206.379C223.554 205.436 228.893 208.211 229.303 210.717C229.712 213.222 225.99 216.226 220.219 217.17C214.449 218.113 208.582 217.079 208.173 214.574Z" fill="#D9D9D9"/>
<path d="M228.501 187.678C228.882 189.489 225.943 193.087 221.771 193.965C217.598 194.843 213.617 192.997 213.236 191.186C212.855 189.374 215.467 187.062 219.64 186.185C223.813 185.307 228.12 185.866 228.501 187.678Z" fill="#D9D9D9"/>
<path d="M301.281 222.88C300.66 224.516 297.124 225.578 293.422 224.173C289.72 222.767 286.964 219.611 287.585 217.975C288.206 216.339 291.985 215.875 295.687 217.28C299.389 218.686 301.902 221.244 301.281 222.88Z" fill="#D9D9D9"/>
<path d="M326.662 254.77C326.662 263.165 274.783 265.8 238.207 265.8C201.632 265.8 156.422 261.781 156.422 253.386C156.422 244.992 201.632 235.4 238.207 235.4C274.783 235.4 326.662 246.375 326.662 254.77Z" fill="#671430"/>
<path d="M306.898 248.653C306.898 255.159 267.811 258.96 239.372 258.96C210.932 258.96 173.898 253.686 173.898 247.18C173.898 240.674 210.932 235.4 239.372 235.4C267.811 235.4 306.898 242.147 306.898 248.653Z" fill="#992049"/>
<path d="M248.798 188.977C249.816 183.12 260.649 182.814 273.352 185.021C284.462 186.951 292.992 193.204 291.975 199.061C290.957 204.917 282.42 210.222 271.31 208.291C260.2 206.361 247.781 194.833 248.798 188.977Z" fill="#EF7BA2"/>
<path d="M222.925 229.461C222.08 234.627 228.456 237.595 236.569 238.923C243.665 240.084 250.296 236.974 251.141 231.808C251.986 226.641 248.216 220.056 241.12 218.895C234.024 217.734 223.77 224.295 222.925 229.461Z" fill="#EF7BA2"/>
<path d="M181.71 215.071C183.135 219.394 191.326 218.432 200.642 215.361C208.79 212.675 214.508 206.999 213.083 202.676C211.658 198.353 204.633 195.277 196.485 197.963C188.337 200.649 180.284 210.747 181.71 215.071Z" fill="#EF7BA2"/>
<path d="M312.159 220.604C314.802 216.395 321.573 215.89 327.283 219.474C332.993 223.059 335.48 229.377 332.838 233.586C330.195 237.795 326.387 232.701 320.677 229.116C314.967 225.531 309.517 224.813 312.159 220.604Z" fill="#D9D9D9"/>
<path d="M280.991 197.682C282.249 193.648 288.486 192.006 294.923 194.013C301.359 196.021 305.557 200.918 304.299 204.952C303.04 208.986 297.342 212.188 290.906 210.18C284.47 208.172 279.732 201.715 280.991 197.682Z" fill="#D9D9D9"/>
<path d="M256.218 205.201C256.684 202.506 262.709 196.635 268.281 197.599C273.853 198.563 276.861 205.996 276.395 208.691C275.929 211.386 271.141 211.531 265.57 210.567C259.998 209.604 255.752 207.896 256.218 205.201Z" fill="#D9D9D9"/>
<path d="M229.41 197.155C229.479 193.612 234.973 184.888 241.07 185.007C247.167 185.125 254.3 190.45 254.231 193.993C254.163 197.537 248.185 198.412 242.088 198.294C235.991 198.176 229.342 200.699 229.41 197.155Z" fill="#D9D9D9"/>
<path d="M198.001 192.557C199.297 195.855 196.614 205.277 190.938 207.507C185.263 209.737 174.146 208.739 172.85 205.441C170.502 203.067 182.863 196.281 188.314 193.368C194.006 190.82 196.705 189.258 198.001 192.557Z" fill="#D9D9D9"/>
<path d="M173.087 220.877C171.118 217.519 166.24 216.722 162.194 219.096C158.148 221.47 156.465 226.116 158.435 229.474C160.404 232.831 162.822 229.613 166.869 227.239C170.915 224.865 175.057 224.234 173.087 220.877Z" fill="#D9D9D9"/>
<path d="M237.848 235.478L249.33 235.687L253.929 263.401L238.382 262.415L237.848 235.478Z" fill="#280410"/>
<path d="M237.853 235.479L226.371 235.687L222.855 263.266L238.326 261.374L237.853 235.479Z" fill="#280410"/>
<path d="M237.8 311.652L248.643 316.196L253.961 281.519L238.414 282.505L237.8 311.652Z" fill="#280410"/>
<path d="M237.921 311.872L226.944 315.629L222.881 281.654L238.352 283.546L237.921 311.872Z" fill="#280410"/>
<rect x="223" y="257" width="31.16" height="31.92" rx="8" fill="#280410"/>
<path d="M259.656 225.684C260.351 221.428 256.552 213.925 250.781 212.981C245.01 212.038 239.266 217.297 238.57 221.552C237.875 225.808 241.33 230.443 247.101 231.386C252.872 232.33 258.96 229.939 259.656 225.684Z" fill="#D9D9D9"/>
<ellipse cx="1495.68" cy="1644.08" rx="68.78" ry="29.64" fill="#C45C84"/>
<path d="M1479.35 1621.52C1494.24 1631.8 1488.98 1662.59 1471.17 1678.45C1453.36 1694.3 1426.85 1698.82 1411.96 1688.54C1397.07 1678.27 1399.44 1657.09 1417.25 1641.23C1435.07 1625.38 1464.47 1611.25 1479.35 1621.52Z" fill="#C45C84"/>
<path d="M1500.46 1619.99C1484.22 1630.78 1499.03 1662.44 1517.61 1678.35C1536.18 1694.26 1564.41 1698.41 1580.65 1687.62C1596.9 1676.84 1595 1655.19 1576.43 1639.28C1557.85 1623.37 1516.7 1609.2 1500.46 1619.99Z" fill="#C45C84"/>
<path d="M1461.17 1647.57C1460.76 1645.07 1465.01 1640.32 1470.78 1639.38C1476.55 1638.44 1481.89 1641.21 1482.3 1643.72C1482.71 1646.22 1478.99 1649.23 1473.22 1650.17C1467.45 1651.11 1461.58 1650.08 1461.17 1647.57Z" fill="#D9D9D9"/>
<path d="M1481.5 1620.68C1481.88 1622.49 1478.94 1626.09 1474.77 1626.96C1470.6 1627.84 1466.62 1626 1466.24 1624.19C1465.86 1622.37 1468.47 1620.06 1472.64 1619.18C1476.81 1618.31 1481.12 1618.87 1481.5 1620.68Z" fill="#D9D9D9"/>
<path d="M1579.66 1687.77C1579.66 1696.16 1527.78 1698.8 1491.21 1698.8C1454.63 1698.8 1409.42 1694.78 1409.42 1686.39C1409.42 1677.99 1454.63 1668.4 1491.21 1668.4C1527.78 1668.4 1579.66 1679.38 1579.66 1687.77Z" fill="#671430"/>
<path d="M1559.9 1681.65C1559.9 1688.16 1520.81 1691.96 1492.37 1691.96C1463.93 1691.96 1426.9 1686.69 1426.9 1680.18C1426.9 1673.67 1463.93 1668.4 1492.37 1668.4C1520.81 1668.4 1559.9 1675.15 1559.9 1681.65Z" fill="#992049"/>
<path d="M1501.8 1621.98C1502.82 1616.12 1513.65 1615.81 1526.35 1618.02C1537.46 1619.95 1545.99 1626.2 1544.97 1632.06C1543.96 1637.92 1535.42 1643.22 1524.31 1641.29C1513.2 1639.36 1500.78 1627.83 1501.8 1621.98Z" fill="#EF7BA2"/>
<path d="M1475.92 1662.46C1475.08 1667.63 1481.46 1670.6 1489.57 1671.92C1496.67 1673.08 1503.3 1669.97 1504.14 1664.81C1504.99 1659.64 1501.22 1653.06 1494.12 1651.9C1487.02 1650.73 1476.77 1657.29 1475.92 1662.46Z" fill="#EF7BA2"/>
<path d="M1434.71 1648.07C1436.13 1652.39 1444.33 1651.43 1453.64 1648.36C1461.79 1645.67 1467.51 1640 1466.08 1635.68C1464.66 1631.35 1457.63 1628.28 1449.49 1630.96C1441.34 1633.65 1433.28 1643.75 1434.71 1648.07Z" fill="#EF7BA2"/>
<path d="M1509.22 1638.2C1509.68 1635.51 1515.71 1629.64 1521.28 1630.6C1526.85 1631.56 1529.86 1639 1529.4 1641.69C1528.93 1644.39 1524.14 1644.53 1518.57 1643.57C1513 1642.6 1508.75 1640.9 1509.22 1638.2Z" fill="#D9D9D9"/>
<path d="M1482.41 1630.16C1482.48 1626.61 1487.97 1617.89 1494.07 1618.01C1500.17 1618.13 1507.3 1623.45 1507.23 1626.99C1507.16 1630.54 1501.19 1631.41 1495.09 1631.29C1488.99 1631.18 1482.34 1633.7 1482.41 1630.16Z" fill="#D9D9D9"/>
<path d="M1451 1625.56C1452.3 1628.86 1449.61 1638.28 1443.94 1640.51C1438.26 1642.74 1427.15 1641.74 1425.85 1638.44C1423.5 1636.07 1435.86 1629.28 1441.31 1626.37C1447.01 1623.82 1449.71 1622.26 1451 1625.56Z" fill="#D9D9D9"/>
<path d="M1426.09 1653.88C1424.12 1650.52 1419.24 1649.72 1415.19 1652.1C1411.15 1654.47 1409.46 1659.12 1411.43 1662.47C1413.4 1665.83 1415.82 1662.61 1419.87 1660.24C1423.92 1657.86 1428.06 1657.23 1426.09 1653.88Z" fill="#D9D9D9"/>
<path d="M1490.85 1668.48L1502.33 1668.69L1507 1694L1491.38 1695.42L1490.85 1668.48Z" fill="#280410"/>
<path d="M1490.85 1668.48L1479.37 1668.69L1476 1694L1491.33 1694.37L1490.85 1668.48Z" fill="#280410"/>
<path d="M1490.8 1744.65L1501.64 1749.2L1506.96 1714.52L1491.41 1715.5L1490.8 1744.65Z" fill="#280410"/>
<path d="M1490.92 1744.87L1479.94 1748.63L1476 1715L1491.35 1716.55L1490.92 1744.87Z" fill="#280410"/>
<rect x="1476" y="1687" width="31" height="35" rx="7.5" fill="#280410"/>
<path d="M1512.66 1658.68C1513.35 1654.43 1509.55 1646.92 1503.78 1645.98C1498.01 1645.04 1492.27 1650.3 1491.57 1654.55C1490.87 1658.81 1494.33 1663.44 1500.1 1664.39C1505.87 1665.33 1511.96 1662.94 1512.66 1658.68Z" fill="#D9D9D9"/>
<ellipse cx="1462" cy="894.5" rx="131" ry="56.5" fill="#C45C84"/>
<path d="M1430.85 852.027C1459.23 871.615 1449.21 930.308 1415.25 960.528C1381.3 990.748 1330.76 999.367 1302.38 979.779C1274.01 960.19 1278.53 919.812 1312.48 889.592C1346.44 859.372 1402.47 832.438 1430.85 852.027Z" fill="#C45C84"/>
<path d="M1470.81 849.248C1439.81 869.888 1468.08 930.452 1503.54 960.889C1538.99 991.326 1592.87 999.268 1623.87 978.629C1654.87 957.989 1651.26 916.584 1615.8 886.147C1580.35 855.71 1501.81 828.609 1470.81 849.248Z" fill="#C45C84"/>
<path d="M1396.2 901.683C1395.42 896.907 1403.52 887.86 1414.52 886.062C1425.52 884.264 1435.7 889.555 1436.48 894.331C1437.26 899.106 1430.16 904.833 1419.16 906.631C1408.16 908.429 1396.98 906.458 1396.2 901.683Z" fill="#D9D9D9"/>
<path d="M1434.95 850.415C1435.67 853.868 1430.07 860.726 1422.12 862.399C1414.16 864.072 1406.57 860.554 1405.85 857.101C1405.12 853.648 1410.1 849.242 1418.06 847.569C1426.01 845.895 1434.22 846.962 1434.95 850.415Z" fill="#D9D9D9"/>
<path d="M1622 978.318C1622 994.058 1522.96 999 1453.13 999C1383.31 999 1297 991.464 1297 975.724C1297 959.984 1383.31 942 1453.13 942C1522.96 942 1622 962.578 1622 978.318Z" fill="#671430"/>
<path d="M1584 966.75C1584 978.9 1509.35 986 1455.04 986C1400.73 986 1330 976.15 1330 964C1330 951.85 1400.73 942 1455.04 942C1509.35 942 1584 954.6 1584 966.75Z" fill="#992049"/>
<path d="M1473.63 852.89C1475.57 841.727 1496.22 841.143 1520.44 845.35C1541.61 849.029 1557.87 860.949 1555.93 872.112C1553.99 883.275 1537.72 893.386 1516.54 889.707C1495.37 886.027 1471.69 864.054 1473.63 852.89Z" fill="#EF7BA2"/>
<path d="M1424.32 930.061C1422.7 939.909 1434.86 945.566 1450.32 948.096C1463.85 950.31 1476.49 944.382 1478.1 934.534C1479.71 924.686 1472.52 912.135 1459 909.921C1445.47 907.708 1425.93 920.213 1424.32 930.061Z" fill="#EF7BA2"/>
<path d="M1345.75 902.629C1348.47 910.87 1364.08 909.036 1381.84 903.182C1397.37 898.062 1408.27 887.244 1405.55 879.003C1402.84 870.763 1389.45 864.899 1373.92 870.019C1358.39 875.139 1343.03 894.389 1345.75 902.629Z" fill="#EF7BA2"/>
<path d="M1487.78 883.817C1488.67 878.681 1500.15 867.49 1510.77 869.327C1521.39 871.164 1527.13 885.333 1526.24 890.47C1525.35 895.607 1516.22 895.884 1505.6 894.046C1494.98 892.209 1486.89 888.954 1487.78 883.817Z" fill="#D9D9D9"/>
<path d="M1436.67 868.48C1436.8 861.726 1447.28 845.098 1458.9 845.323C1470.52 845.549 1484.12 855.698 1483.98 862.452C1483.85 869.207 1472.46 870.876 1460.84 870.65C1449.22 870.425 1436.54 875.235 1436.67 868.48Z" fill="#D9D9D9"/>
<path d="M1376.8 859.715C1379.27 866.003 1374.16 883.963 1363.34 888.214C1352.52 892.464 1331.33 890.562 1328.86 884.274C1324.39 879.75 1347.95 866.815 1358.34 861.263C1369.19 856.406 1374.33 853.427 1376.8 859.715Z" fill="#D9D9D9"/>
<path d="M1329.32 913.697C1325.56 907.296 1316.26 905.777 1308.55 910.302C1300.84 914.827 1297.63 923.684 1301.39 930.084C1305.14 936.484 1309.75 930.348 1317.46 925.823C1325.18 921.298 1333.07 920.097 1329.32 913.697Z" fill="#D9D9D9"/>
<path d="M1452.76 941.531L1474.65 941.928L1483.42 994.755L1453.78 992.877L1452.76 941.531Z" fill="#280410"/>
<path d="M1452.77 941.531L1430.88 941.929L1424.18 994.499L1459.5 992.5L1452.77 941.531Z" fill="#280410"/>
<path d="M1452.67 1086.73L1473.34 1095.39L1484 1031.17L1453.84 1031.17L1452.67 1086.73Z" fill="#280410"/>
<path d="M1452.91 1087.15L1431.98 1094.31L1424 1030L1453.73 1033.16L1452.91 1087.15Z" fill="#280410"/>
<rect x="1424" y="979" width="60" height="70" rx="20" fill="#280410"/>
<path d="M1494.32 922.861C1495.65 914.749 1488.41 900.446 1477.41 898.648C1466.41 896.85 1455.46 906.874 1454.13 914.985C1452.81 923.097 1459.39 931.933 1470.39 933.731C1481.39 935.529 1493 930.973 1494.32 922.861Z" fill="#D9D9D9"/>
<ellipse cx="67" cy="1288.5" rx="66" ry="28.5" fill="#C45C84"/>
<path d="M51.1416 1267.34C65.365 1277.16 60.3407 1306.57 43.3223 1321.72C26.3039 1336.86 0.977299 1341.18 -13.2462 1331.37C-27.4696 1321.55 -25.2038 1301.31 -8.18541 1286.16C8.83302 1271.02 36.9181 1257.52 51.1416 1267.34Z" fill="#C45C84"/>
<path d="M71.4065 1266.03C55.9063 1276.3 70.0417 1306.44 87.7695 1321.58C105.497 1336.72 132.434 1340.68 147.934 1330.41C163.435 1320.14 161.629 1299.53 143.901 1284.39C126.173 1269.25 86.9068 1255.76 71.4065 1266.03Z" fill="#C45C84"/>
<path d="M96.6992 1293.01C98.2586 1289.54 111.465 1288.53 124.138 1293.78C136.811 1299.02 145.048 1308.27 143.489 1311.74C141.929 1315.21 131.464 1314.71 118.791 1309.46C106.118 1304.22 95.1399 1296.48 96.6992 1293.01Z" fill="#EF7BA2"/>
<path d="M33.7761 1292.23C33.3849 1289.83 37.4452 1285.3 42.9583 1284.4C48.4713 1283.5 53.5719 1286.15 53.9631 1288.54C54.3543 1290.93 50.7981 1293.8 45.2851 1294.71C39.772 1295.61 34.1674 1294.62 33.7761 1292.23Z" fill="#D9D9D9"/>
<path d="M53.1934 1266.53C53.5574 1268.26 50.7494 1271.7 46.7631 1272.54C42.7768 1273.37 38.9735 1271.61 38.6095 1269.88C38.2454 1268.15 40.7412 1265.94 44.7275 1265.1C48.7138 1264.26 52.8293 1264.8 53.1934 1266.53Z" fill="#D9D9D9"/>
<path d="M122.725 1300.16C122.132 1301.72 118.754 1302.74 115.217 1301.4C111.68 1300.05 109.048 1297.04 109.641 1295.47C110.234 1293.91 113.844 1293.47 117.381 1294.81C120.918 1296.15 123.318 1298.6 122.725 1300.16Z" fill="#D9D9D9"/>
<path d="M146 1330.48C146 1338.49 96.6317 1341 61.827 1341C27.0222 1341 -16 1337.17 -16 1329.16C-16 1321.15 27.0222 1312 61.827 1312C96.6317 1312 146 1322.47 146 1330.48Z" fill="#671430"/>
<path d="M128 1324.37C128 1330.45 90.6762 1334 63.5195 1334C36.3628 1334 1 1329.08 1 1323C1 1316.92 36.3628 1312 63.5195 1312C90.6762 1312 128 1318.3 128 1324.37Z" fill="#992049"/>
<path d="M72.5821 1267.77C73.5542 1262.18 83.9042 1261.88 96.0401 1263.99C106.654 1265.84 114.803 1271.81 113.831 1277.4C112.859 1283 104.703 1288.07 94.0889 1286.22C83.4746 1284.38 71.6101 1273.37 72.5821 1267.77Z" fill="#EF7BA2"/>
<path d="M47.8663 1306.45C47.0586 1311.38 53.1507 1314.22 60.9016 1315.49C67.6807 1316.6 74.015 1313.63 74.8227 1308.69C75.6304 1303.75 72.0284 1297.46 65.2493 1296.35C58.4702 1295.24 48.674 1301.51 47.8663 1306.45Z" fill="#EF7BA2"/>
<path d="M8.49051 1292.7C9.85206 1296.83 17.6778 1295.91 26.5778 1292.98C34.362 1290.41 39.8252 1284.99 38.4637 1280.86C37.1021 1276.73 30.3909 1273.79 22.6067 1276.36C14.8226 1278.92 7.12896 1288.57 8.49051 1292.7Z" fill="#EF7BA2"/>
<path d="M133.116 1297.99C135.64 1293.97 142.109 1293.48 147.564 1296.91C153.019 1300.33 155.395 1306.37 152.871 1310.39C150.347 1314.41 146.708 1309.54 141.253 1306.12C135.798 1302.69 130.591 1302.01 133.116 1297.99Z" fill="#D9D9D9"/>
<path d="M103.334 1276.09C104.535 1272.23 110.495 1270.66 116.644 1272.58C122.793 1274.5 126.803 1279.18 125.601 1283.03C124.399 1286.89 118.955 1289.95 112.806 1288.03C106.657 1286.11 102.132 1279.94 103.334 1276.09Z" fill="#D9D9D9"/>
<path d="M79.6763 1283.27C80.1216 1280.7 85.8782 1275.09 91.2013 1276.01C96.5244 1276.93 99.3984 1284.03 98.953 1286.6C98.5077 1289.18 93.9337 1289.32 88.6106 1288.4C83.2875 1287.48 79.231 1285.84 79.6763 1283.27Z" fill="#D9D9D9"/>
<path d="M54.0606 1275.58C54.1262 1272.2 59.3752 1263.87 65.2 1263.98C71.0248 1264.09 77.8393 1269.18 77.7736 1272.56C77.7079 1275.95 71.9971 1276.79 66.1723 1276.67C60.3475 1276.56 53.9949 1278.97 54.0606 1275.58Z" fill="#D9D9D9"/>
<path d="M24.054 1271.19C25.2923 1274.34 22.7288 1283.34 17.3064 1285.47C11.884 1287.6 1.26351 1286.65 0.0252852 1283.5C-2.21795 1281.23 9.59124 1274.75 14.7995 1271.97C20.2372 1269.53 22.8158 1268.04 24.054 1271.19Z" fill="#D9D9D9"/>
<path d="M0.250924 1298.25C-1.63107 1295.04 -6.29046 1294.28 -10.1561 1296.54C-14.0218 1298.81 -15.6299 1303.25 -13.7479 1306.46C-11.8659 1309.67 -9.55584 1306.59 -5.69018 1304.32C-1.82451 1302.06 2.13291 1301.45 0.250924 1298.25Z" fill="#D9D9D9"/>
<path d="M62.1238 1312.2L73.0935 1312.4L77.4873 1338.87L62.6343 1337.93L62.1238 1312.2Z" fill="#280410"/>
<path d="M62.1259 1312.2L51.1558 1312.4L47.7971 1338.74L62.5771 1336.94L62.1259 1312.2Z" fill="#280410"/>
<path d="M62.075 1384.97L72.4338 1389.31L77.5146 1356.18L62.6616 1357.12L62.075 1384.97Z" fill="#280410"/>
<rect x="48" y="1333" width="30" height="29" rx="14.5" fill="#280410"/>
<path d="M82.9512 1302.84C83.6157 1298.77 79.986 1291.6 74.4729 1290.7C68.9599 1289.8 63.4716 1294.83 62.8071 1298.89C62.1425 1302.96 65.4441 1307.39 70.9571 1308.29C76.4702 1309.19 82.2866 1306.9 82.9512 1302.84Z" fill="#D9D9D9"/>
<ellipse cx="67" cy="1288.5" rx="66" ry="28.5" fill="#C45C84"/>
<path d="M51.1416 1267.34C65.365 1277.16 60.3407 1306.57 43.3223 1321.72C26.3039 1336.86 0.977299 1341.18 -13.2462 1331.37C-27.4696 1321.55 -25.2038 1301.31 -8.18541 1286.16C8.83302 1271.02 36.9181 1257.52 51.1416 1267.34Z" fill="#C45C84"/>
<path d="M71.4065 1266.03C55.9063 1276.3 70.0417 1306.44 87.7695 1321.58C105.497 1336.72 132.434 1340.68 147.934 1330.41C163.435 1320.14 161.629 1299.53 143.901 1284.39C126.173 1269.25 86.9068 1255.76 71.4065 1266.03Z" fill="#C45C84"/>
<path d="M96.6992 1293.01C98.2586 1289.54 111.465 1288.53 124.138 1293.78C136.811 1299.02 145.048 1308.27 143.489 1311.74C141.929 1315.21 131.464 1314.71 118.791 1309.46C106.118 1304.22 95.1399 1296.48 96.6992 1293.01Z" fill="#EF7BA2"/>
<path d="M33.7761 1292.23C33.3849 1289.83 37.4452 1285.3 42.9583 1284.4C48.4713 1283.5 53.5719 1286.15 53.9631 1288.54C54.3543 1290.93 50.7981 1293.8 45.2851 1294.71C39.772 1295.61 34.1674 1294.62 33.7761 1292.23Z" fill="#D9D9D9"/>
<path d="M53.1934 1266.53C53.5574 1268.26 50.7494 1271.7 46.7631 1272.54C42.7768 1273.37 38.9735 1271.61 38.6095 1269.88C38.2454 1268.15 40.7412 1265.94 44.7275 1265.1C48.7138 1264.26 52.8293 1264.8 53.1934 1266.53Z" fill="#D9D9D9"/>
<path d="M122.725 1300.16C122.132 1301.72 118.754 1302.74 115.217 1301.4C111.68 1300.05 109.048 1297.04 109.641 1295.47C110.234 1293.91 113.844 1293.47 117.381 1294.81C120.918 1296.15 123.318 1298.6 122.725 1300.16Z" fill="#D9D9D9"/>
<path d="M146 1330.48C146 1338.49 96.6317 1341 61.827 1341C27.0222 1341 -16 1337.17 -16 1329.16C-16 1321.15 27.0222 1312 61.827 1312C96.6317 1312 146 1322.47 146 1330.48Z" fill="#671430"/>
<path d="M128 1324.37C128 1330.45 90.6762 1334 63.5195 1334C36.3628 1334 1 1329.08 1 1323C1 1316.92 36.3628 1312 63.5195 1312C90.6762 1312 128 1318.3 128 1324.37Z" fill="#992049"/>
<path d="M72.5821 1267.77C73.5542 1262.18 83.9042 1261.88 96.0401 1263.99C106.654 1265.84 114.803 1271.81 113.831 1277.4C112.859 1283 104.703 1288.07 94.0889 1286.22C83.4746 1284.38 71.6101 1273.37 72.5821 1267.77Z" fill="#EF7BA2"/>
<path d="M47.8663 1306.45C47.0586 1311.38 53.1507 1314.22 60.9016 1315.49C67.6807 1316.6 74.015 1313.63 74.8227 1308.69C75.6304 1303.75 72.0284 1297.46 65.2493 1296.35C58.4702 1295.24 48.674 1301.51 47.8663 1306.45Z" fill="#EF7BA2"/>
<path d="M8.49051 1292.7C9.85206 1296.83 17.6778 1295.91 26.5778 1292.98C34.362 1290.41 39.8252 1284.99 38.4637 1280.86C37.1021 1276.73 30.3909 1273.79 22.6067 1276.36C14.8226 1278.92 7.12896 1288.57 8.49051 1292.7Z" fill="#EF7BA2"/>
<path d="M133.116 1297.99C135.64 1293.97 142.109 1293.48 147.564 1296.91C153.019 1300.33 155.395 1306.37 152.871 1310.39C150.347 1314.41 146.708 1309.54 141.253 1306.12C135.798 1302.69 130.591 1302.01 133.116 1297.99Z" fill="#D9D9D9"/>
<path d="M103.334 1276.09C104.535 1272.23 110.495 1270.66 116.644 1272.58C122.793 1274.5 126.803 1279.18 125.601 1283.03C124.399 1286.89 118.955 1289.95 112.806 1288.03C106.657 1286.11 102.132 1279.94 103.334 1276.09Z" fill="#D9D9D9"/>
<path d="M79.6763 1283.27C80.1216 1280.7 85.8782 1275.09 91.2013 1276.01C96.5244 1276.93 99.3984 1284.03 98.953 1286.6C98.5077 1289.18 93.9337 1289.32 88.6106 1288.4C83.2875 1287.48 79.231 1285.84 79.6763 1283.27Z" fill="#D9D9D9"/>
<path d="M54.0606 1275.58C54.1262 1272.2 59.3752 1263.87 65.2 1263.98C71.0248 1264.09 77.8393 1269.18 77.7736 1272.56C77.7079 1275.95 71.9971 1276.79 66.1723 1276.67C60.3475 1276.56 53.9949 1278.97 54.0606 1275.58Z" fill="#D9D9D9"/>
<path d="M24.054 1271.19C25.2923 1274.34 22.7288 1283.34 17.3064 1285.47C11.884 1287.6 1.26351 1286.65 0.0252852 1283.5C-2.21795 1281.23 9.59124 1274.75 14.7995 1271.97C20.2372 1269.53 22.8158 1268.04 24.054 1271.19Z" fill="#D9D9D9"/>
<path d="M0.250924 1298.25C-1.63107 1295.04 -6.29046 1294.28 -10.1561 1296.54C-14.0218 1298.81 -15.6299 1303.25 -13.7479 1306.46C-11.8659 1309.67 -9.55584 1306.59 -5.69018 1304.32C-1.82451 1302.06 2.13291 1301.45 0.250924 1298.25Z" fill="#D9D9D9"/>
<path d="M62.1238 1312.2L73.0935 1312.4L78 1337.5L62.6343 1337.93L62.1238 1312.2Z" fill="#280410"/>
<path d="M62.1259 1312.2L51.1558 1312.4L48 1338L62.5771 1336.94L62.1259 1312.2Z" fill="#280410"/>
<path d="M62.075 1384.97L72.4338 1389.31L78 1357.5L62.6616 1357.12L62.075 1384.97Z" fill="#280410"/>
<path d="M62.1934 1385.18L51.7066 1388.77L48 1357L62.6047 1358.12L62.1934 1385.18Z" fill="#280410"/>
<rect x="48" y="1332" width="30" height="31" rx="6" fill="#280410"/>
<path d="M82.9512 1302.84C83.6157 1298.77 79.986 1291.6 74.4729 1290.7C68.9599 1289.8 63.4716 1294.83 62.8071 1298.89C62.1425 1302.96 65.4441 1307.39 70.9571 1308.29C76.4702 1309.19 82.2866 1306.9 82.9512 1302.84Z" fill="#D9D9D9"/>
<path d="M236.476 291.117L255.693 328.663L238.617 327.118L236.476 291.117Z" fill="#7AA587"/>
<path d="M251.844 294.637L252.992 330.772L239.461 326.337L251.844 294.637Z" fill="#7AA587"/>
<path d="M219.857 286.343L247.909 323.316L232.825 324.377L219.857 286.343Z" fill="#7AA587"/>
<path d="M201.008 281.137L238.717 315.022L221.789 319.455L201.008 281.137Z" fill="#7AA587"/>
<path d="M1308.16 350.939L1327.27 388.27L1310.29 386.734L1308.16 350.939Z" fill="#7AA587"/>
<path d="M1323.44 354.439L1324.58 390.369L1311.13 385.959L1323.44 354.439Z" fill="#7AA587"/>
<path d="M1291.64 346.192L1319.53 382.954L1304.53 384.009L1291.64 346.192Z" fill="#7AA587"/>
<path d="M1272.9 341.017L1310.39 374.709L1293.56 379.116L1272.9 341.017Z" fill="#7AA587"/>
<path d="M1455.91 1053.36L1485.16 1110.51L1459.17 1108.16L1455.91 1053.36Z" fill="#7AA587"/>
<path d="M1479.3 1058.72L1481.05 1113.72L1460.45 1106.97L1479.3 1058.72Z" fill="#7AA587"/>
<path d="M1430.61 1046.09L1473.31 1102.37L1450.36 1103.99L1430.61 1046.09Z" fill="#7AA587"/>
<path d="M1401.93 1038.17L1459.33 1089.75L1433.56 1096.5L1401.93 1038.17Z" fill="#7AA587"/>
<path d="M61.264 1364L80.4091 1401.4L63.3968 1399.86L61.264 1364Z" fill="#7AA587"/>
<path d="M76.5682 1367.5L77.7126 1403.5L64.2325 1399.08L76.5682 1367.5Z" fill="#7AA587"/>
<path d="M44.6991 1359.24L72.6459 1396.07L57.6191 1397.13L44.6991 1359.24Z" fill="#7AA587"/>
<path d="M25.9322 1354.05L63.4996 1387.81L46.6348 1392.23L25.9322 1354.05Z" fill="#7AA587"/>
<path d="M1489.16 1721.13L1510.02 1761.89L1491.48 1760.22L1489.16 1721.13Z" fill="#7AA587"/>
<path d="M1505.85 1724.95L1507.09 1764.19L1492.4 1759.37L1505.85 1724.95Z" fill="#7AA587"/>
<path d="M1471.11 1715.95L1501.57 1756.09L1485.19 1757.24L1471.11 1715.95Z" fill="#7AA587"/>
<path d="M1450.66 1710.3L1491.6 1747.09L1473.22 1751.9L1450.66 1710.3Z" fill="#7AA587"/>
<ellipse cx="684" cy="2676.5" rx="66" ry="28.5" fill="#C45C84"/>
<path d="M668.142 2655.34C682.365 2665.16 677.341 2694.57 660.322 2709.72C643.304 2724.86 617.977 2729.18 603.754 2719.37C589.53 2709.55 591.796 2689.31 608.815 2674.16C625.833 2659.02 653.918 2645.52 668.142 2655.34Z" fill="#C45C84"/>
<path d="M688.407 2654.03C672.906 2664.3 687.042 2694.44 704.77 2709.58C722.497 2724.72 749.434 2728.68 764.934 2718.41C780.435 2708.14 778.629 2687.53 760.901 2672.39C743.173 2657.25 703.907 2643.76 688.407 2654.03Z" fill="#C45C84"/>
<path d="M713.699 2681.01C715.259 2677.54 728.465 2676.53 741.138 2681.78C753.811 2687.02 762.048 2696.27 760.489 2699.74C758.929 2703.21 748.464 2702.71 735.791 2697.46C723.118 2692.22 712.14 2684.48 713.699 2681.01Z" fill="#EF7BA2"/>
<path d="M650.776 2680.23C650.385 2677.83 654.445 2673.3 659.958 2672.4C665.471 2671.5 670.572 2674.15 670.963 2676.54C671.354 2678.93 667.798 2681.8 662.285 2682.71C656.772 2683.61 651.167 2682.62 650.776 2680.23Z" fill="#D9D9D9"/>
<path d="M670.193 2654.53C670.557 2656.26 667.749 2659.7 663.763 2660.54C659.777 2661.37 655.974 2659.61 655.609 2657.88C655.245 2656.15 657.741 2653.94 661.727 2653.1C665.714 2652.26 669.829 2652.8 670.193 2654.53Z" fill="#D9D9D9"/>
<path d="M739.725 2688.16C739.132 2689.72 735.754 2690.74 732.217 2689.4C728.68 2688.05 726.048 2685.04 726.641 2683.47C727.234 2681.91 730.844 2681.47 734.381 2682.81C737.918 2684.15 740.318 2686.6 739.725 2688.16Z" fill="#D9D9D9"/>
<path d="M763 2718.48C763 2726.49 713.632 2729 678.827 2729C644.022 2729 601 2725.17 601 2717.16C601 2709.15 644.022 2700 678.827 2700C713.632 2700 763 2710.47 763 2718.48Z" fill="#671430"/>
<path d="M745 2712.37C745 2718.45 707.676 2722 680.52 2722C653.363 2722 618 2717.08 618 2711C618 2704.92 653.363 2700 680.52 2700C707.676 2700 745 2706.3 745 2712.37Z" fill="#992049"/>
<path d="M689.582 2655.77C690.554 2650.18 700.904 2649.88 713.04 2651.99C723.654 2653.84 731.803 2659.81 730.831 2665.4C729.859 2671 721.703 2676.07 711.089 2674.22C700.475 2672.38 688.61 2661.37 689.582 2655.77Z" fill="#EF7BA2"/>
<path d="M664.866 2694.45C664.059 2699.38 670.151 2702.22 677.902 2703.49C684.681 2704.6 691.015 2701.63 691.823 2696.69C692.63 2691.75 689.028 2685.46 682.249 2684.35C675.47 2683.24 665.674 2689.51 664.866 2694.45Z" fill="#EF7BA2"/>
<path d="M625.491 2680.7C626.852 2684.83 634.678 2683.91 643.578 2680.98C651.362 2678.41 656.825 2672.99 655.464 2668.86C654.102 2664.73 647.391 2661.79 639.607 2664.36C631.823 2666.92 624.129 2676.57 625.491 2680.7Z" fill="#EF7BA2"/>
<path d="M750.116 2685.99C752.64 2681.97 759.109 2681.48 764.564 2684.91C770.019 2688.33 772.395 2694.37 769.871 2698.39C767.347 2702.41 763.708 2697.54 758.253 2694.12C752.798 2690.69 747.591 2690.01 750.116 2685.99Z" fill="#D9D9D9"/>
<path d="M720.334 2664.09C721.535 2660.23 727.495 2658.66 733.644 2660.58C739.793 2662.5 743.803 2667.18 742.601 2671.03C741.399 2674.89 735.955 2677.95 729.806 2676.03C723.657 2674.11 719.132 2667.94 720.334 2664.09Z" fill="#D9D9D9"/>
<path d="M696.676 2671.27C697.122 2668.7 702.878 2663.09 708.201 2664.01C713.524 2664.93 716.398 2672.03 715.953 2674.6C715.508 2677.18 710.934 2677.32 705.611 2676.4C700.287 2675.48 696.231 2673.84 696.676 2671.27Z" fill="#D9D9D9"/>
<path d="M671.061 2663.58C671.126 2660.2 676.375 2651.87 682.2 2651.98C688.025 2652.09 694.839 2657.18 694.774 2660.56C694.708 2663.95 688.997 2664.79 683.172 2664.67C677.347 2664.56 670.995 2666.97 671.061 2663.58Z" fill="#D9D9D9"/>
<path d="M641.054 2659.19C642.292 2662.34 639.729 2671.34 634.306 2673.47C628.884 2675.6 618.264 2674.65 617.025 2671.5C614.782 2669.23 626.591 2662.75 631.799 2659.97C637.237 2657.53 639.816 2656.04 641.054 2659.19Z" fill="#D9D9D9"/>
<path d="M617.251 2686.25C615.369 2683.04 610.71 2682.28 606.844 2684.54C602.978 2686.81 601.37 2691.25 603.252 2694.46C605.134 2697.67 607.444 2694.59 611.31 2692.32C615.175 2690.06 619.133 2689.45 617.251 2686.25Z" fill="#D9D9D9"/>
<path d="M679.124 2700.2L690.093 2700.4L694.487 2726.87L679.634 2725.93L679.124 2700.2Z" fill="#280410"/>
<path d="M679.126 2700.2L668.156 2700.4L664.797 2726.74L679.577 2724.94L679.126 2700.2Z" fill="#280410"/>
<path d="M679.075 2772.97L689.434 2777.31L694.515 2744.18L679.662 2745.12L679.075 2772.97Z" fill="#280410"/>
<rect x="665" y="2721" width="30" height="29" rx="14.5" fill="#280410"/>
<path d="M699.951 2690.84C700.616 2686.77 696.986 2679.6 691.473 2678.7C685.96 2677.8 680.472 2682.83 679.807 2686.89C679.143 2690.96 682.444 2695.39 687.957 2696.29C693.47 2697.19 699.287 2694.9 699.951 2690.84Z" fill="#D9D9D9"/>
<ellipse cx="684" cy="2676.5" rx="66" ry="28.5" fill="#C45C84"/>
<path d="M668.142 2655.34C682.365 2665.16 677.341 2694.57 660.322 2709.72C643.304 2724.86 617.977 2729.18 603.754 2719.37C589.53 2709.55 591.796 2689.31 608.815 2674.16C625.833 2659.02 653.918 2645.52 668.142 2655.34Z" fill="#C45C84"/>
<path d="M688.407 2654.03C672.906 2664.3 687.042 2694.44 704.77 2709.58C722.497 2724.72 749.434 2728.68 764.934 2718.41C780.435 2708.14 778.629 2687.53 760.901 2672.39C743.173 2657.25 703.907 2643.76 688.407 2654.03Z" fill="#C45C84"/>
<path d="M713.699 2681.01C715.259 2677.54 728.465 2676.53 741.138 2681.78C753.811 2687.02 762.048 2696.27 760.489 2699.74C758.929 2703.21 748.464 2702.71 735.791 2697.46C723.118 2692.22 712.14 2684.48 713.699 2681.01Z" fill="#EF7BA2"/>
<path d="M650.776 2680.23C650.385 2677.83 654.445 2673.3 659.958 2672.4C665.471 2671.5 670.572 2674.15 670.963 2676.54C671.354 2678.93 667.798 2681.8 662.285 2682.71C656.772 2683.61 651.167 2682.62 650.776 2680.23Z" fill="#D9D9D9"/>
<path d="M670.193 2654.53C670.557 2656.26 667.749 2659.7 663.763 2660.54C659.777 2661.37 655.974 2659.61 655.609 2657.88C655.245 2656.15 657.741 2653.94 661.727 2653.1C665.714 2652.26 669.829 2652.8 670.193 2654.53Z" fill="#D9D9D9"/>
<path d="M739.725 2688.16C739.132 2689.72 735.754 2690.74 732.217 2689.4C728.68 2688.05 726.048 2685.04 726.641 2683.47C727.234 2681.91 730.844 2681.47 734.381 2682.81C737.918 2684.15 740.318 2686.6 739.725 2688.16Z" fill="#D9D9D9"/>
<path d="M763 2718.48C763 2726.49 713.632 2729 678.827 2729C644.022 2729 601 2725.17 601 2717.16C601 2709.15 644.022 2700 678.827 2700C713.632 2700 763 2710.47 763 2718.48Z" fill="#671430"/>
<path d="M745 2712.37C745 2718.45 707.676 2722 680.52 2722C653.363 2722 618 2717.08 618 2711C618 2704.92 653.363 2700 680.52 2700C707.676 2700 745 2706.3 745 2712.37Z" fill="#992049"/>
<path d="M689.582 2655.77C690.554 2650.18 700.904 2649.88 713.04 2651.99C723.654 2653.84 731.803 2659.81 730.831 2665.4C729.859 2671 721.703 2676.07 711.089 2674.22C700.475 2672.38 688.61 2661.37 689.582 2655.77Z" fill="#EF7BA2"/>
<path d="M664.866 2694.45C664.059 2699.38 670.151 2702.22 677.902 2703.49C684.681 2704.6 691.015 2701.63 691.823 2696.69C692.63 2691.75 689.028 2685.46 682.249 2684.35C675.47 2683.24 665.674 2689.51 664.866 2694.45Z" fill="#EF7BA2"/>
<path d="M625.491 2680.7C626.852 2684.83 634.678 2683.91 643.578 2680.98C651.362 2678.41 656.825 2672.99 655.464 2668.86C654.102 2664.73 647.391 2661.79 639.607 2664.36C631.823 2666.92 624.129 2676.57 625.491 2680.7Z" fill="#EF7BA2"/>
<path d="M750.116 2685.99C752.64 2681.97 759.109 2681.48 764.564 2684.91C770.019 2688.33 772.395 2694.37 769.871 2698.39C767.347 2702.41 763.708 2697.54 758.253 2694.12C752.798 2690.69 747.591 2690.01 750.116 2685.99Z" fill="#D9D9D9"/>
<path d="M720.334 2664.09C721.535 2660.23 727.495 2658.66 733.644 2660.58C739.793 2662.5 743.803 2667.18 742.601 2671.03C741.399 2674.89 735.955 2677.95 729.806 2676.03C723.657 2674.11 719.132 2667.94 720.334 2664.09Z" fill="#D9D9D9"/>
<path d="M696.676 2671.27C697.122 2668.7 702.878 2663.09 708.201 2664.01C713.524 2664.93 716.398 2672.03 715.953 2674.6C715.508 2677.18 710.934 2677.32 705.611 2676.4C700.287 2675.48 696.231 2673.84 696.676 2671.27Z" fill="#D9D9D9"/>
<path d="M671.061 2663.58C671.126 2660.2 676.375 2651.87 682.2 2651.98C688.025 2652.09 694.839 2657.18 694.774 2660.56C694.708 2663.95 688.997 2664.79 683.172 2664.67C677.347 2664.56 670.995 2666.97 671.061 2663.58Z" fill="#D9D9D9"/>
<path d="M641.054 2659.19C642.292 2662.34 639.729 2671.34 634.306 2673.47C628.884 2675.6 618.264 2674.65 617.025 2671.5C614.782 2669.23 626.591 2662.75 631.799 2659.97C637.237 2657.53 639.816 2656.04 641.054 2659.19Z" fill="#D9D9D9"/>
<path d="M617.251 2686.25C615.369 2683.04 610.71 2682.28 606.844 2684.54C602.978 2686.81 601.37 2691.25 603.252 2694.46C605.134 2697.67 607.444 2694.59 611.31 2692.32C615.175 2690.06 619.133 2689.45 617.251 2686.25Z" fill="#D9D9D9"/>
<path d="M679.124 2700.2L690.093 2700.4L695 2725.93L679.634 2725.93L679.124 2700.2Z" fill="#280410"/>
<path d="M679.13 2700.2L668.16 2700.4L665 2726.5L682.004 2725L679.13 2700.2Z" fill="#280410"/>
<path d="M679.075 2772.97L689.434 2777.31L695 2744.5L679.662 2745.12L679.075 2772.97Z" fill="#280410"/>
<path d="M679.193 2773.18L668.707 2776.77L665 2744L679.605 2746.12L679.193 2773.18Z" fill="#280410"/>
<rect x="665" y="2721" width="30" height="29" rx="6" fill="#280410"/>
<path d="M699.951 2690.84C700.616 2686.77 696.986 2679.6 691.473 2678.7C685.96 2677.8 680.472 2682.83 679.807 2686.89C679.143 2690.96 682.444 2695.39 687.957 2696.29C693.47 2697.19 699.287 2694.9 699.951 2690.84Z" fill="#D9D9D9"/>
<path d="M681.264 2750L700.409 2787.4L683.397 2785.86L681.264 2750Z" fill="#7AA587"/>
<path d="M696.568 2753.5L697.713 2789.5L684.232 2785.08L696.568 2753.5Z" fill="#7AA587"/>
<path d="M664.699 2745.24L692.646 2782.07L677.619 2783.13L664.699 2745.24Z" fill="#7AA587"/>
<path d="M645.932 2740.05L683.5 2773.81L666.635 2778.23L645.932 2740.05Z" fill="#7AA587"/>
<g filter="url(#filter0_i_2116_3922)">
<rect x="68" y="23" width="811" height="96" fill="#102516"/>
</g>
<path d="M138.516 88.95L142.816 94.05C140.466 96.9 137.016 98.45 133.016 98.45C127.316 98.45 123.566 96.5 117.716 90.4C108.516 88.85 102.116 81.75 102.116 72.5C102.116 62 110.366 54.3 121.566 54.3C132.766 54.3 141.016 62 141.016 72.5C141.016 80.45 136.266 86.8 129.116 89.4C130.516 90.9 131.716 91.4 133.216 91.4C135.116 91.4 136.966 90.55 138.516 88.95ZM112.116 72.5C112.116 78.55 116.266 82.5 121.566 82.5C126.866 82.5 131.016 78.55 131.016 72.5C131.016 66.45 126.866 62.5 121.566 62.5C116.266 62.5 112.116 66.45 112.116 72.5ZM162.351 90.7C152.001 90.7 145.901 84.85 145.901 74.4V55H155.801V74.1C155.801 80.1 158.301 82.5 162.451 82.5C166.551 82.5 169.051 80.1 169.051 74.1V55H178.801V74.4C178.801 84.85 172.701 90.7 162.351 90.7ZM195.308 82.35H213.608V90H185.508V55H212.958V62.65H195.308V68.55H210.858V75.95H195.308V82.35ZM231.402 90.7C225.652 90.7 219.952 89.15 216.652 86.85L219.902 79.55C223.002 81.6 227.402 83 231.452 83C235.552 83 237.152 81.85 237.152 80.15C237.152 74.6 217.252 78.65 217.252 65.65C217.252 59.4 222.352 54.3 232.752 54.3C237.302 54.3 242.002 55.35 245.452 57.35L242.402 64.7C239.052 62.9 235.752 62 232.702 62C228.552 62 227.052 63.4 227.052 65.15C227.052 70.5 246.902 66.5 246.902 79.4C246.902 85.5 241.802 90.7 231.402 90.7ZM258.436 90V62.85H247.686V55H279.036V62.85H268.336V90H258.436ZM282.725 90V55H292.625V90H282.725ZM317.318 90.7C306.118 90.7 297.868 83 297.868 72.5C297.868 62 306.118 54.3 317.318 54.3C328.518 54.3 336.768 62 336.768 72.5C336.768 83 328.518 90.7 317.318 90.7ZM317.318 82.5C322.618 82.5 326.768 78.55 326.768 72.5C326.768 66.45 322.618 62.5 317.318 62.5C312.018 62.5 307.868 66.45 307.868 72.5C307.868 78.55 312.018 82.5 317.318 82.5ZM365.553 55H375.253V90H367.103L351.653 71.35V90H341.953V55H350.103L365.553 73.65V55ZM394.536 90.7C388.786 90.7 383.086 89.15 379.786 86.85L383.036 79.55C386.136 81.6 390.536 83 394.586 83C398.686 83 400.286 81.85 400.286 80.15C400.286 74.6 380.386 78.65 380.386 65.65C380.386 59.4 385.486 54.3 395.886 54.3C400.436 54.3 405.136 55.35 408.586 57.35L405.536 64.7C402.186 62.9 398.886 62 395.836 62C391.686 62 390.186 63.4 390.186 65.15C390.186 70.5 410.036 66.5 410.036 79.4C410.036 85.5 404.936 90.7 394.536 90.7ZM461.96 84.75L456.86 90.6L452.91 87.1C449.66 89.4 445.61 90.7 441.16 90.7C433.11 90.7 427.21 86.55 427.21 80.85C427.21 76.4 429.46 73.3 434.51 70.55C432.21 68.2 431.16 65.9 431.16 63.5C431.16 58.15 435.81 54.5 442.91 54.5C449.36 54.5 453.71 57.75 453.71 62.9C453.71 66.5 451.66 69.2 447.21 71.65L452.31 76.2C453.01 74.7 453.51 73.05 453.86 71.2L461.51 73.5C460.86 76.45 459.76 79.15 458.26 81.45L461.96 84.75ZM442.91 60.75C440.91 60.75 439.81 61.85 439.81 63.35C439.81 64.45 440.26 65.3 442.06 67C444.76 65.55 445.71 64.4 445.71 63.1C445.71 61.7 444.76 60.75 442.91 60.75ZM441.86 83.45C443.76 83.45 445.61 82.95 447.21 82L439.66 75.3C437.41 76.65 436.51 78.05 436.51 79.8C436.51 81.9 438.56 83.45 441.86 83.45ZM491.109 82.35H509.409V90H481.309V55H508.759V62.65H491.109V68.55H506.659V75.95H491.109V82.35ZM548.109 90H536.709L529.459 79.15L522.309 90H511.009L523.759 72.3L511.559 55H522.709L529.709 65.1L536.609 55H547.309L535.109 71.9L548.109 90ZM566.4 55C575.95 55 581.95 59.95 581.95 67.95C581.95 75.9 575.95 80.85 566.4 80.85H560.3V90H550.4V55H566.4ZM565.8 73.05C569.9 73.05 571.95 71.15 571.95 67.95C571.95 64.7 569.9 62.8 565.8 62.8H560.3V73.05H565.8ZM596.577 82.35H614.877V90H586.777V55H614.227V62.65H596.577V68.55H612.127V75.95H596.577V82.35ZM642.021 90L635.671 80.7H630.271V90H620.371V55H636.371C645.921 55 651.921 59.95 651.921 67.95C651.921 73.1 649.421 76.9 645.071 79L652.621 90H642.021ZM641.921 67.95C641.921 64.7 639.871 62.8 635.771 62.8H630.271V73.05H635.771C639.871 73.05 641.921 71.15 641.921 67.95ZM657.383 90V55H667.283V90H657.383ZM684.126 82.35H702.426V90H674.326V55H701.776V62.65H684.126V68.55H699.676V75.95H684.126V82.35ZM731.52 55H741.22V90H733.07L717.62 71.35V90H707.92V55H716.07L731.52 73.65V55ZM765.653 90.7C754.553 90.7 746.403 83.15 746.403 72.5C746.403 61.85 754.553 54.3 765.653 54.3C772.103 54.3 777.303 56.65 780.703 60.9L774.403 66.6C772.203 63.95 769.503 62.5 766.153 62.5C760.403 62.5 756.403 66.5 756.403 72.5C756.403 78.5 760.403 82.5 766.153 82.5C769.503 82.5 772.203 81.05 774.403 78.4L780.703 84.1C777.303 88.35 772.103 90.7 765.653 90.7ZM794.917 82.35H813.217V90H785.117V55H812.567V62.65H794.917V68.55H810.467V75.95H794.917V82.35ZM831.011 90.7C825.261 90.7 819.561 89.15 816.261 86.85L819.511 79.55C822.611 81.6 827.011 83 831.061 83C835.161 83 836.761 81.85 836.761 80.15C836.761 74.6 816.861 78.65 816.861 65.65C816.861 59.4 821.961 54.3 832.361 54.3C836.911 54.3 841.611 55.35 845.061 57.35L842.011 64.7C838.661 62.9 835.361 62 832.311 62C828.161 62 826.661 63.4 826.661 65.15C826.661 70.5 846.511 66.5 846.511 79.4C846.511 85.5 841.411 90.7 831.011 90.7Z" fill="#F0D1D1"/>
<defs>
<filter id="filter0_i_2116_3922" x="68" y="23" width="811" height="100" filterUnits="userSpaceOnUse" color-interpolation-filters="sRGB">
<feFlood flood-opacity="0" result="BackgroundImageFix"/>
<feBlend mode="normal" in="SourceGraphic" in2="BackgroundImageFix" result="shape"/>
<feColorMatrix in="SourceAlpha" type="matrix" values="0 0 0 0 0 0 0 0 0 0 0 0 0 0 0 0 0 0 127 0" result="hardAlpha"/>
<feOffset dy="4"/>
<feGaussianBlur stdDeviation="2"/>
<feComposite in2="hardAlpha" operator="arithmetic" k2="-1" k3="1"/>
<feColorMatrix type="matrix" values="0 0 0 0 0 0 0 0 0 0 0 0 0 0 0 0 0 0 0.25 0"/>
<feBlend mode="normal" in2="shape" result="effect1_innerShadow_2116_3922"/>
</filter>
</defs>
</svg>
