<svg width="1920" height="2118" viewBox="0 0 1920 2118" fill="none" xmlns="http://www.w3.org/2000/svg">
<rect width="1920" height="2196" fill="#254E32"/>
<path d="M249 1144C293.8 1127.2 54.6668 1095.67 -70.4998 1082C-121.833 1261.67 -193.7 1621 -70.4998 1621C83.5002 1621 178 1562 104 1538C30.0002 1514 202 1473 249 1464C296 1455 249 1405 178 1390C107 1375 530.5 1265.5 581 1230C631.5 1194.5 193 1174 104 1171C15.0002 1168 193 1165 249 1144Z" fill="#0C1910" fill-opacity="0.3"/>
<path d="M1807.04 164C1762.24 147.2 2001.37 115.667 2126.54 102C2177.87 281.667 2249.74 641 2126.54 641C1972.54 641 1878.04 582 1952.04 558C2026.04 534 1854.04 493 1807.04 484C1760.04 475 1807.04 425 1878.04 410C1949.04 395 1525.54 285.5 1475.04 250C1424.54 214.5 1863.04 194 1952.04 191C2041.04 188 1863.04 185 1807.04 164Z" fill="#0C1910" fill-opacity="0.3"/>
<path d="M1684.11 158.694C1684.48 156.047 1683.3 153.278 1680.8 150.905C1678.29 148.531 1674.63 146.717 1670.51 145.8C1666.38 144.884 1662.06 144.929 1658.37 145.927C1654.68 146.925 1651.86 148.807 1650.45 151.222C1649.04 153.636 1649.12 156.417 1650.69 159.043C1652.26 161.669 1655.2 163.961 1658.97 165.489C1662.74 167.017 1667.08 167.676 1671.17 167.344C1675.26 167.011 1678.82 165.709 1681.19 163.682L1666.81 156.286L1684.11 158.694Z" fill="#69794D"/>
<path d="M1903.11 440.694C1903.48 438.047 1902.3 435.278 1899.8 432.905C1897.29 430.531 1893.63 428.717 1889.51 427.8C1885.38 426.884 1881.06 426.929 1877.37 427.927C1873.68 428.925 1870.86 430.807 1869.45 433.222C1868.04 435.636 1868.12 438.417 1869.69 441.043C1871.26 443.669 1874.2 445.961 1877.97 447.489C1881.74 449.017 1886.08 449.676 1890.17 449.344C1894.26 449.011 1897.82 447.709 1900.19 445.682L1885.81 438.286L1903.11 440.694Z" fill="#69794D"/>
<path d="M112.635 780.124C112.855 778.539 112.149 776.88 110.649 775.458C109.149 774.036 106.957 772.948 104.484 772.399C102.011 771.85 99.4264 771.877 97.2145 772.475C95.0027 773.073 93.3151 774.201 92.4679 775.648C91.6206 777.094 91.6718 778.76 92.6118 780.334C93.5518 781.907 95.3162 783.28 97.5745 784.196C99.8329 785.111 102.43 785.506 104.88 785.307C107.33 785.108 109.465 784.328 110.884 783.113L102.271 778.682L112.635 780.124Z" fill="#69794D"/>
<path d="M1709.51 1311.69C1709.15 1309.05 1710.32 1306.28 1712.83 1303.9C1715.33 1301.53 1718.99 1299.72 1723.12 1298.8C1727.25 1297.88 1731.56 1297.93 1735.25 1298.93C1738.94 1299.93 1741.76 1301.81 1743.17 1304.22C1744.59 1306.64 1744.5 1309.42 1742.93 1312.04C1741.36 1314.67 1738.42 1316.96 1734.65 1318.49C1730.88 1320.02 1726.55 1320.68 1722.46 1320.34C1718.37 1320.01 1714.8 1318.71 1712.44 1316.68L1726.81 1309.29L1709.51 1311.69Z" fill="#69794D"/>
<path d="M833.514 1850.69C833.146 1848.05 834.324 1845.28 836.828 1842.9C839.332 1840.53 842.991 1838.72 847.119 1837.8C851.246 1836.88 855.56 1836.93 859.251 1837.93C862.943 1838.93 865.76 1840.81 867.174 1843.22C868.588 1845.64 868.502 1848.42 866.933 1851.04C865.364 1853.67 862.42 1855.96 858.65 1857.49C854.881 1859.02 850.546 1859.68 846.457 1859.34C842.368 1859.01 838.805 1857.71 836.436 1855.68L850.812 1848.29L833.514 1850.69Z" fill="#69794D"/>
<path opacity="0.5" d="M1700.5 185C1705.19 185 1709 183.433 1709 181.5C1709 179.567 1705.19 178 1700.5 178C1695.81 178 1692 179.567 1692 181.5C1692 183.433 1695.81 185 1700.5 185Z" fill="#69794D"/>
<path opacity="0.5" d="M1748.5 358C1753.19 358 1757 356.433 1757 354.5C1757 352.567 1753.19 351 1748.5 351C1743.81 351 1740 352.567 1740 354.5C1740 356.433 1743.81 358 1748.5 358Z" fill="#69794D"/>
<path opacity="0.5" d="M1747.5 848C1752.19 848 1756 846.433 1756 844.5C1756 842.567 1752.19 841 1747.5 841C1742.81 841 1739 842.567 1739 844.5C1739 846.433 1742.81 848 1747.5 848Z" fill="#69794D"/>
<path opacity="0.5" d="M1836.5 763C1841.19 763 1845 761.433 1845 759.5C1845 757.567 1841.19 756 1836.5 756C1831.81 756 1828 757.567 1828 759.5C1828 761.433 1831.81 763 1836.5 763Z" fill="#69794D"/>
<path opacity="0.5" d="M218.5 783C223.194 783 227 781.433 227 779.5C227 777.567 223.194 776 218.5 776C213.806 776 210 777.567 210 779.5C210 781.433 213.806 783 218.5 783Z" fill="#69794D"/>
<path opacity="0.5" d="M796.5 1905C791.806 1905 788 1903.43 788 1901.5C788 1899.57 791.806 1898 796.5 1898C801.194 1898 805 1899.57 805 1901.5C805 1903.43 801.194 1905 796.5 1905Z" fill="#69794D"/>
<path opacity="0.54" d="M1508.5 172C1516.51 172 1523 169.538 1523 166.5C1523 163.462 1516.51 161 1508.5 161C1500.49 161 1494 163.462 1494 166.5C1494 169.538 1500.49 172 1508.5 172Z" fill="#F5EA83" fill-opacity="0.3"/>
<path opacity="0.54" d="M26.5 770C34.5081 770 41 767.538 41 764.5C41 761.462 34.5081 759 26.5 759C18.4919 759 12 761.462 12 764.5C12 767.538 18.4919 770 26.5 770Z" fill="#F5EA83" fill-opacity="0.3"/>
<path opacity="0.54" d="M988.5 1892C980.492 1892 974 1889.54 974 1886.5C974 1883.46 980.492 1881 988.5 1881C996.508 1881 1003 1883.46 1003 1886.5C1003 1889.54 996.508 1892 988.5 1892Z" fill="#F5EA83" fill-opacity="0.3"/>
<path opacity="0.54" d="M79.5 1386C71.4919 1386 65 1383.54 65 1380.5C65 1377.46 71.4919 1375 79.5 1375C87.5081 1375 94 1377.46 94 1380.5C94 1383.54 87.5081 1386 79.5 1386Z" fill="#F5EA83" fill-opacity="0.3"/>
<path d="M223.359 376.543C217.656 384.639 216.266 400.451 115.247 385.203C52.1847 363.285 1.35961 337.265 -8.59172 330.458C-1.41278 328.229 81.1919 293.499 126.115 314.022C157.794 328.495 225.947 370.387 223.359 376.543Z" fill="#181818"/>
<path d="M222.928 375.944C191.503 355.518 173.614 334.881 114.584 323.185C48.2555 310.042 10.0011 331.693 -8.31722 329.239C-6.54213 304.734 63.6454 282.095 119.356 295.168C174.232 301.72 224.235 365.002 222.928 375.944Z" fill="#89BEAA"/>
<path d="M140.751 358.647L77.8259 345.739L84.3572 394.762L68.1379 491.935L-19.6749 597.616L-87.1718 673.124L-102.39 723.612L-22.666 734.204L24.1215 647.149L49.8912 601.254L91.2201 560.465L105.606 511.57L126.669 385.381L140.751 358.647Z" fill="#292727"/>
<path d="M68.5071 294.733C69.216 299.819 59.7345 314.054 46.8515 315.85C33.9685 317.646 17.6471 312.337 16.9382 307.251C16.2293 302.166 30.066 299.673 43.5096 295.746C56.3926 293.95 67.7982 289.648 68.5071 294.733Z" fill="#5A9F85"/>
<path d="M196.901 342.049C194.066 344.851 180.808 345.558 173.711 338.375C166.614 331.193 162.342 318.573 165.177 315.772C168.012 312.97 175.986 320.423 184.669 326.965C191.766 334.148 199.737 339.248 196.901 342.049Z" fill="#5A9F85"/>
<path d="M93.0643 314.634C94.5202 309.711 109.037 300.666 121.511 304.355C133.984 308.043 146.653 319.623 145.197 324.546C143.741 329.47 144.405 330.261 116.871 323.734C103.783 321.26 91.6083 319.558 93.0643 314.634Z" fill="#5A9F85"/>
<path d="M43.9562 308.577C44.0897 311.391 38.4434 319.264 32.7071 319.536C26.9709 319.808 19.3989 315.54 19.2653 312.726C19.1317 309.912 23.1076 306.761 29.8146 305.635C36.5559 304.098 43.8226 305.763 43.9562 308.577Z" fill="white"/>
<path d="M132.682 301.163C131.347 304.647 121.468 311.636 115.473 309.339C109.477 307.041 103.984 298.378 105.319 294.894C106.655 291.409 112.566 293.182 119.998 294.887C127.68 296.106 134.018 297.678 132.682 301.163Z" fill="white"/>
<path d="M132.256 322.525C134.389 318.262 147.821 310.609 155.156 314.279C162.491 317.948 168.394 329.647 166.262 333.911C164.129 338.174 159.844 336.75 147.599 332.088C137.984 329.578 130.123 326.789 132.256 322.525Z" fill="white"/>
<path d="M66.2778 305.988C66.5272 303.452 74.2659 297.309 81.014 297.973C87.7621 298.637 96.0026 303.649 95.7531 306.184C95.5037 308.72 90.3995 310.908 82.393 310.852C74.287 311.16 66.0283 308.523 66.2778 305.988Z" fill="white"/>
<path d="M198.549 347.342C196.797 349.274 186.979 349.865 182.115 345.455C177.251 341.044 173.891 332.221 175.643 330.288C177.395 328.356 182.726 329.492 188.947 334.125C195.468 338.519 200.301 345.409 198.549 347.342Z" fill="white"/>
<path d="M87.7481 329.902L111.285 359.25L96.4502 363.957L87.7481 329.902Z" fill="#292727"/>
<path d="M101.511 327.73L109.394 362.276L97.0255 362.898L101.511 327.73Z" fill="#292727"/>
<path d="M72.6904 331.322L103.641 356.908L91.0005 363.412L72.6904 331.322Z" fill="#292727"/>
<path d="M55.6452 333.129L94.2279 352.219L80.6612 362.656L55.6452 333.129Z" fill="#292727"/>
<path d="M137.448 339.959L102.736 352.341L112.635 363.947L137.448 339.959Z" fill="#292727"/>
<path d="M127.137 331.03L102.752 355.852L112.71 362.766L127.137 331.03Z" fill="#292727"/>
<path d="M149.228 348.931L110.297 354.335L117.445 366.309L149.228 348.931Z" fill="#292727"/>
<path d="M162.461 359.252L120.539 355.277L126.426 371.02L162.461 359.252Z" fill="#292727"/>
<ellipse cx="105.318" cy="925.59" rx="49.29" ry="21.241" fill="#C45C84"/>
<path d="M93.6169 909.424C104.286 916.789 100.517 938.855 87.7515 950.216C74.9856 961.578 55.9877 964.818 45.3184 957.454C34.6492 950.089 36.3488 934.909 49.1146 923.547C61.8804 912.186 82.9476 902.06 93.6169 909.424Z" fill="#C45C84"/>
<path d="M108.742 908.329C97.1024 916.06 107.717 938.748 121.03 950.15C134.343 961.552 154.571 964.527 166.21 956.795C177.85 949.064 176.494 933.553 163.181 922.151C149.869 910.749 120.382 900.597 108.742 908.329Z" fill="#C45C84"/>
<path d="M127.735 928.643C128.906 926.031 138.823 925.267 148.339 929.218C157.856 933.168 164.042 940.131 162.871 942.743C161.7 945.355 153.841 944.98 144.324 941.029C134.808 937.079 126.564 931.256 127.735 928.643Z" fill="#EF7BA2"/>
<path d="M80.5874 928.093C80.294 926.298 83.3397 922.896 87.4751 922.22C91.6106 921.544 95.4366 923.534 95.73 925.329C96.0235 927.124 93.3559 929.278 89.2205 929.954C85.0851 930.629 80.8809 929.888 80.5874 928.093Z" fill="#D9D9D9"/>
<path d="M95.1566 908.818C95.4297 910.116 93.3234 912.694 90.3331 913.324C87.3429 913.953 84.49 912.63 84.217 911.332C83.9439 910.034 85.816 908.377 88.8062 907.748C91.7964 907.119 94.8835 907.52 95.1566 908.818Z" fill="#D9D9D9"/>
<path d="M147.314 934.046C146.869 935.218 144.336 935.979 141.682 934.972C139.029 933.965 137.055 931.703 137.5 930.53C137.945 929.358 140.652 929.025 143.306 930.033C145.959 931.04 147.759 932.873 147.314 934.046Z" fill="#D9D9D9"/>
<path d="M165.501 956.898C165.501 962.914 128.322 964.803 102.111 964.803C75.9003 964.803 43.501 961.923 43.501 955.907C43.501 949.891 75.9003 943.018 102.111 943.018C128.322 943.018 165.501 950.883 165.501 956.898Z" fill="#671430"/>
<path d="M151.34 952.515C151.34 957.177 123.329 959.901 102.948 959.901C82.5673 959.901 56.0278 956.122 56.0278 951.46C56.0278 946.797 82.5673 943.018 102.948 943.018C123.329 943.018 151.34 947.852 151.34 952.515Z" fill="#992049"/>
<path d="M109.702 909.75C110.431 905.553 118.194 905.333 127.298 906.915C135.26 908.298 141.372 912.779 140.643 916.976C139.914 921.173 133.796 924.974 125.834 923.591C117.872 922.208 108.972 913.946 109.702 909.75Z" fill="#EF7BA2"/>
<path d="M91.1624 938.762C90.5566 942.464 95.1264 944.591 100.94 945.543C106.026 946.375 110.777 944.146 111.383 940.444C111.989 936.741 109.287 932.022 104.202 931.19C99.1167 930.358 91.7683 935.06 91.1624 938.762Z" fill="#EF7BA2"/>
<path d="M61.6235 928.449C62.6448 931.547 68.515 930.858 75.1911 928.657C81.0301 926.732 85.1282 922.665 84.1069 919.567C83.0856 916.469 78.0513 914.264 72.2123 916.189C66.3733 918.114 60.6021 925.351 61.6235 928.449Z" fill="#EF7BA2"/>
<path d="M155.108 932.415C157.001 929.399 161.853 929.036 165.946 931.605C170.038 934.174 171.82 938.702 169.926 941.718C168.033 944.734 165.304 941.083 161.211 938.514C157.119 935.945 153.214 935.431 155.108 932.415Z" fill="#D9D9D9"/>
<path d="M132.77 915.987C133.671 913.097 138.141 911.92 142.754 913.358C147.366 914.797 150.375 918.307 149.473 921.197C148.571 924.088 144.488 926.383 139.876 924.944C135.263 923.505 131.868 918.878 132.77 915.987Z" fill="#D9D9D9"/>
<path d="M115.018 921.377C115.352 919.446 119.67 915.238 123.663 915.929C127.656 916.62 129.812 921.947 129.478 923.878C129.144 925.809 125.712 925.913 121.719 925.222C117.727 924.532 114.684 923.308 115.018 921.377Z" fill="#D9D9D9"/>
<path d="M95.8058 915.61C95.8551 913.071 99.7924 906.819 104.162 906.904C108.531 906.989 113.643 910.805 113.593 913.344C113.544 915.883 109.26 916.511 104.891 916.426C100.522 916.341 95.7565 918.15 95.8058 915.61Z" fill="#D9D9D9"/>
<path d="M73.2966 912.315C74.2254 914.679 72.3025 921.431 68.235 923.029C64.1676 924.627 56.201 923.912 55.2721 921.548C53.5895 919.847 62.4477 914.984 66.3545 912.897C70.4335 911.071 72.3677 909.951 73.2966 912.315Z" fill="#D9D9D9"/>
<path d="M55.446 932.61C54.0343 930.204 50.5392 929.632 47.6395 931.334C44.7398 933.035 43.5336 936.365 44.9453 938.771C46.357 941.177 48.0898 938.87 50.9895 937.169C53.8892 935.468 56.8578 935.016 55.446 932.61Z" fill="#D9D9D9"/>
<path d="M101.856 943.074L110.085 943.223L113.143 963.169L102.239 962.378L101.856 943.074Z" fill="#280410"/>
<path d="M101.856 943.075L93.6276 943.224L90.8106 963.442L105.792 962.988L101.856 943.075Z" fill="#280410"/>
<path d="M101.822 997.663L109.593 1000.92L113.142 976.513L101.16 975.968L101.822 997.663Z" fill="#280410"/>
<path d="M101.906 997.82L94.0395 1000.51L90.8123 975.424L102.214 977.521L101.906 997.82Z" fill="#280410"/>
<rect x="90.8848" y="958.268" width="22.3303" height="22.8749" rx="10" fill="#280410"/>
<path d="M117.481 936.055C117.979 933.006 115.256 927.628 111.121 926.952C106.985 926.276 102.869 930.045 102.37 933.095C101.872 936.144 104.348 939.466 108.484 940.142C112.619 940.818 116.982 939.105 117.481 936.055Z" fill="#D9D9D9"/>
<path d="M1472.67 1727.75C1395.52 1698.82 1807.32 1644.53 2022.86 1621C2111.26 1930.33 2235.01 2549 2022.86 2549C1757.66 2549 1594.93 2447.42 1722.36 2406.1C1849.79 2364.78 1553.6 2294.19 1472.67 2278.69C1391.73 2263.2 1472.67 2177.11 1594.93 2151.29C1717.2 2125.46 987.912 1936.93 900.949 1875.81C813.986 1814.69 1569.1 1779.4 1722.36 1774.23C1875.62 1769.07 1569.1 1763.9 1472.67 1727.75Z" fill="#0C1910" fill-opacity="0.3"/>
<path d="M174.13 406.716L173.411 405.855L173.286 404.727L172.398 405.476L171.257 405.645L171.983 406.502L172.112 407.637L172.996 406.881L174.13 406.716Z" fill="#FFF5BF"/>
<path d="M152.104 405.497L152.709 406.443L152.69 407.578L153.666 406.947L154.819 406.923L154.207 405.981L154.222 404.839L153.251 405.477L152.104 405.497Z" fill="#FFF5BF"/>
<path d="M157.568 402.343L158.343 402.801L158.74 403.62L159.21 402.815L160.027 402.381L159.248 401.928L158.845 401.105L158.381 401.914L157.568 402.343Z" fill="#FFF5BF"/>
<path d="M161.062 406.715L160.941 407.198L160.569 407.537L161.07 407.66L161.428 408.025L161.546 407.541L161.919 407.198L161.418 407.079L161.062 406.715Z" fill="#FFF5BF"/>
<path d="M58.173 283.261L58.7497 282.298L58.6985 281.164L59.6918 281.766L60.8454 281.757L60.2613 282.716L60.3091 283.857L59.3193 283.248L58.173 283.261Z" fill="#FFF5BF"/>
<path d="M79.6796 278.201L79.2294 279.229L79.4238 280.348L78.3621 279.876L77.2191 280.031L77.6771 279.006L77.4852 277.88L78.5443 278.359L79.6796 278.201Z" fill="#FFF5BF"/>
<path d="M73.7923 275.935L73.0977 276.507L72.8317 277.378L72.2427 276.656L71.3683 276.353L72.0675 275.785L72.338 274.91L72.9224 275.636L73.7923 275.935Z" fill="#FFF5BF"/>
<path d="M71.0172 280.795L71.2117 281.253L71.6317 281.531L71.1564 281.73L70.8587 282.146L70.6674 281.686L70.2457 281.405L70.7227 281.209L71.0172 280.795Z" fill="#FFF5BF"/>
<path d="M94.1433 283.791L96.276 279.07L101.357 278.142L97.545 274.674L98.2336 269.546L93.7461 272.109L89.0834 269.868L90.1249 274.935L86.5613 278.673L91.7151 279.229L94.1433 283.791Z" fill="#FFF5BF"/>
<path d="M138.827 410.23L141.336 407.726L144.813 408.365L143.215 405.221L144.899 402.106L141.406 402.658L138.965 400.093L138.403 403.588L135.216 405.117L138.379 406.722L138.827 410.23Z" fill="#FFF5BF"/>
</svg>
