<svg width="656" height="362" viewBox="0 0 656 362" fill="none" xmlns="http://www.w3.org/2000/svg">
<path d="M439.978 95.694L189.493 95.7391C184.11 95.7674 179.736 94.2998 179.738 92.5558L179.746 60.6948L449.658 60.695L449.65 92.5557C449.724 94.2826 445.378 95.741 439.978 95.694Z" fill="#633A14"/>
<path d="M449.195 60.9968C449.221 59.0096 371.554 57.3138 314.732 57.3233C257.911 57.3328 179.934 59.0233 179.983 60.9935C180.032 62.9636 257.955 64.5349 314.776 64.5254C328.56 64.4995 341.614 64.4006 353.62 64.2219L364.497 74.1256L375.87 63.7875C401.181 63.2158 449.149 62.1959 449.195 60.9968Z" fill="#FFB23E"/>
<path opacity="0.66" d="M459.457 98.4759L171.005 98.4732C168.397 98.508 166.327 96.361 166.292 93.7536L166.318 82.6525C166.283 80.0451 168.43 77.9745 171.038 77.9396L459.49 77.9424C462.097 77.9076 464.168 80.0549 464.202 82.6623L464.177 93.7634C464.136 96.3879 462.006 98.5335 459.457 98.4759Z" fill="#89BEAA"/>
<path opacity="0.66" d="M176.582 88.0159C177.998 87.6958 178.886 86.2886 178.566 84.8729C178.246 83.4571 176.839 82.569 175.423 82.8891C174.007 83.2092 173.119 84.6164 173.439 86.0322C173.759 87.4479 175.166 88.3361 176.582 88.0159Z" fill="#A6DDC6"/>
<path opacity="0.66" d="M264.655 88.0725L186.906 88.0588C185.481 88.0641 184.345 86.8945 184.339 85.4692L184.322 85.3937C184.317 83.9684 185.487 82.8321 186.912 82.8268L264.661 82.8405C266.086 82.8353 267.223 84.0049 267.228 85.4302L267.245 85.5057C267.233 86.8556 266.081 88.0672 264.655 88.0725Z" fill="#A6DDC6"/>
<rect x="-0.0078125" y="98.6172" width="655.615" height="262.955" rx="100" fill="#89BEAA" fill-opacity="0.2"/>
<path d="M23.1016 184.211C23.1016 151.074 49.9645 124.211 83.1016 124.211H572.764C605.901 124.211 632.764 151.074 632.764 184.211V275.988C632.764 309.125 605.901 335.988 572.764 335.988H83.1016C49.9645 335.988 23.1016 309.125 23.1016 275.988V184.211Z" fill="#B7D6D6"/>
<circle cx="61.4523" cy="156.784" r="13.3195" fill="#D5FDFD"/>
<circle cx="87.3204" cy="151.854" r="5.1798" fill="#D5FDFD"/>
<g clip-path="url(#clip0_3308_13468)">
<path d="M529.57 226.418C529.821 226.777 530.122 226.816 530.398 226.905C533.376 227.9 535.327 229.947 536.431 232.842C537.265 235.036 537.701 237.315 537.695 239.676C537.689 245.523 537.695 251.369 537.689 257.215C537.689 259.179 537.836 261.104 538.574 262.953C538.863 263.678 538.747 263.838 537.926 263.864C536.784 263.909 535.641 263.883 534.493 263.89C531.316 263.89 528.139 263.89 524.956 263.89C523.352 263.89 523.198 263.78 522.787 262.195C522.37 260.591 522.203 258.942 522.203 257.286C522.184 251.099 522.197 244.913 522.203 238.727C522.203 237.385 521.966 236.115 521.151 235.004C520.278 233.811 518.994 233.438 517.621 233.246C516.562 233.092 515.51 233.169 514.451 233.163C513.873 233.163 513.597 233.451 513.597 234.022C513.597 234.401 513.584 234.786 513.584 235.165C513.584 244.059 513.584 252.961 513.584 261.855C513.584 263.832 513.54 263.877 511.621 263.883C507.725 263.883 503.823 263.883 499.928 263.883C499.716 263.883 499.504 263.89 499.293 263.883C498.247 263.825 498.041 263.646 498.022 262.574C497.984 260.161 497.958 257.748 497.958 255.329C497.958 235.332 497.958 215.335 497.958 195.338C497.958 192.88 497.733 192.899 500.377 192.906C507.411 192.912 514.444 192.88 521.478 192.925C523.987 192.938 526.458 193.31 528.832 194.17C532.677 195.569 535.147 198.271 536.521 202.089C537.631 205.182 537.772 208.385 537.753 211.613C537.74 214.032 537.496 216.419 536.732 218.749C535.577 222.253 533.453 224.826 529.962 226.174C529.846 226.219 529.75 226.309 529.577 226.424L529.57 226.418ZM516.562 205.445C515.972 205.445 515.375 205.433 514.785 205.445C513.7 205.471 513.61 205.548 513.591 206.6C513.565 207.698 513.584 208.802 513.584 209.899C513.584 213.198 513.578 216.503 513.584 219.801C513.584 220.963 513.681 221.046 514.791 221.072C515.677 221.091 516.569 221.104 517.454 221.059C520.162 220.912 521.683 219.699 522.068 217.215C522.479 214.526 522.428 211.818 522.043 209.129C521.979 208.673 521.812 208.224 521.632 207.801C520.99 206.299 519.886 205.445 518.205 205.452C517.653 205.452 517.108 205.452 516.556 205.452L516.562 205.445Z" fill="black"/>
<path d="M263.039 228.317C263.039 217.215 263.039 206.113 263.039 195.017C263.039 194.889 263.039 194.76 263.039 194.638C263.052 193.021 263.148 192.912 264.778 192.912C271.94 192.912 279.102 192.854 286.264 192.938C288.927 192.97 291.571 193.329 294.106 194.305C298.034 195.819 300.492 198.649 301.724 202.596C302.449 204.913 302.763 207.294 302.776 209.726C302.789 212.44 302.738 215.136 302.064 217.793C301.14 221.444 299.208 224.268 295.743 225.924C295.589 225.994 295.435 226.071 295.3 226.168C294.915 226.45 294.928 226.707 295.409 226.886C296.449 227.271 297.424 227.753 298.303 228.446C299.593 229.46 300.575 230.711 301.23 232.219C302.327 234.748 302.744 237.417 302.763 240.145C302.802 245.779 302.795 251.414 302.763 257.049C302.751 258.974 302.93 260.848 303.533 262.677C303.867 263.697 303.732 263.883 302.641 263.89C298.278 263.909 293.914 263.909 289.55 263.89C288.523 263.89 288.33 263.736 288.016 262.722C287.637 261.509 287.406 260.257 287.406 258.974C287.406 252.492 287.406 246.01 287.406 239.529C287.406 238.335 287.278 237.161 286.79 236.05C286.084 234.433 284.859 233.496 283.087 233.374C281.945 233.297 280.803 233.304 279.66 233.336C278.768 233.355 278.659 233.503 278.614 234.401C278.595 234.825 278.614 235.248 278.614 235.672C278.614 244.4 278.614 253.127 278.614 261.855C278.614 263.211 277.93 263.89 276.561 263.89C272.749 263.89 268.93 263.89 265.118 263.89C264.862 263.89 264.611 263.89 264.355 263.89C263.257 263.838 263.116 263.703 263.058 262.625C263.039 262.202 263.052 261.778 263.052 261.355C263.052 250.336 263.052 239.323 263.052 228.305L263.039 228.317ZM278.608 213.191C278.608 215.431 278.595 217.671 278.608 219.917C278.614 220.976 278.711 221.059 279.789 221.078C280.758 221.098 281.733 221.117 282.702 221.053C285.333 220.892 286.611 219.756 287.118 217.189C287.124 217.151 287.13 217.106 287.137 217.061C287.58 215.007 287.4 212.935 287.323 210.868C287.291 209.957 287.118 209.026 286.797 208.141C286.142 206.337 285.141 205.548 283.222 205.458C282.17 205.407 281.111 205.433 280.052 205.439C278.646 205.445 278.608 205.478 278.601 206.844C278.589 208.956 278.601 211.074 278.601 213.185L278.608 213.191Z" fill="black"/>
<path d="M470.602 192.803C473.567 192.803 476.538 192.816 479.503 192.803C480.664 192.803 480.825 192.88 481.03 194.003C481.467 196.416 481.877 198.835 482.294 201.255C483.527 208.391 484.752 215.521 485.978 222.657C487.05 228.875 488.109 235.094 489.18 241.313C489.944 245.734 490.746 250.15 491.504 254.571C491.94 257.112 492.351 259.66 492.749 262.214C493.005 263.838 492.967 263.883 491.356 263.889C487.242 263.896 483.135 263.889 479.021 263.889C478.855 263.889 478.681 263.889 478.515 263.889C477.488 263.832 477.295 263.646 477.18 262.599C476.795 259.237 476.416 255.874 476.031 252.505C475.935 251.683 475.768 251.484 474.901 251.484C472.02 251.465 469.139 251.465 466.257 251.484C465.294 251.491 465.173 251.619 465.063 252.575C464.691 255.726 464.338 258.884 463.972 262.035C463.94 262.285 463.908 262.542 463.844 262.786C463.619 263.678 463.459 263.819 462.554 263.877C462.214 263.896 461.874 263.889 461.54 263.889C457.728 263.889 453.91 263.889 450.098 263.889C449.841 263.889 449.591 263.896 449.334 263.889C448.237 263.832 448.07 263.626 448.25 262.561C448.647 260.225 449.058 257.895 449.456 255.559C450.624 248.673 451.773 241.781 452.954 234.902C453.98 228.888 455.033 222.888 456.066 216.875C457.157 210.534 458.235 204.187 459.326 197.847C459.557 196.512 459.807 195.184 460.071 193.855C460.263 192.899 460.334 192.848 461.335 192.841C464.428 192.841 467.521 192.841 470.615 192.841C470.615 192.835 470.615 192.822 470.615 192.816L470.602 192.803ZM470.615 207.685C470.544 207.691 470.473 207.698 470.409 207.711C469.902 211.946 469.389 216.182 468.882 220.417C468.227 225.917 467.573 231.41 466.918 236.91C466.79 237.976 466.892 238.155 467.906 238.168C469.684 238.194 471.462 238.2 473.239 238.168C474.157 238.155 474.221 238.078 474.112 237.103C473.881 235.004 473.605 232.906 473.368 230.807C472.963 227.278 472.578 223.754 472.168 220.225C471.789 216.952 471.397 213.679 471 210.406C470.891 209.495 470.743 208.59 470.615 207.678V207.685Z" fill="black"/>
<path d="M98.2058 227.995C98.2058 220.923 98.1416 213.845 98.2314 206.773C98.2764 202.89 99.4508 199.335 102.242 196.498C104.444 194.265 107.197 193.014 110.245 192.346C114.917 191.332 119.582 191.326 124.222 192.449C129.356 193.694 133.188 196.556 135.023 201.684C135.626 203.371 135.87 205.143 135.889 206.92C135.934 211.323 135.902 215.732 135.902 220.14C135.902 220.397 135.902 220.647 135.883 220.904C135.851 221.552 135.536 221.931 134.856 221.931C134.599 221.931 134.349 221.937 134.092 221.937C130.235 221.937 126.379 221.937 122.522 221.937C122.265 221.937 122.015 221.918 121.758 221.931C121.071 221.95 120.75 221.584 120.699 220.936C120.667 220.557 120.628 220.179 120.628 219.794C120.628 216.36 120.616 212.933 120.628 209.5C120.628 208.865 120.731 208.236 120.75 207.601C120.827 205.579 119.416 204.02 117.381 203.872C115.552 203.737 114.012 205.123 113.826 207.094C113.781 207.556 113.794 208.024 113.794 208.493C113.794 221.116 113.794 233.745 113.794 246.369C113.794 247.177 113.826 247.979 113.967 248.775C114.275 250.514 115.835 251.727 117.522 251.535C119.339 251.329 120.776 249.86 120.699 248.159C120.526 244.264 120.667 240.368 120.622 236.473C120.616 235.754 120.68 235.035 120.718 234.317C120.75 233.816 121.02 233.546 121.533 233.54C121.79 233.54 122.04 233.527 122.297 233.527C126.282 233.527 130.261 233.527 134.246 233.527C135.755 233.527 135.876 233.63 135.883 235.08C135.896 238.257 135.953 241.44 135.864 244.61C135.78 247.665 134.689 250.251 132.186 252.228C127.867 255.642 123.606 259.133 119.371 262.643C118.331 263.503 117.259 263.914 115.899 263.869C113.781 263.799 111.657 263.914 109.584 263.362C104.322 261.97 100.67 258.793 98.9759 253.569C98.4625 251.926 98.1673 250.226 98.1801 248.461C98.2378 241.639 98.1993 234.817 98.1993 227.995H98.2058Z" fill="black"/>
<path d="M309.78 228.361C309.78 217.265 309.78 206.163 309.78 195.067C309.78 192.905 309.786 192.905 311.994 192.898C319.239 192.898 326.485 192.853 333.724 192.917C336.432 192.943 339.127 193.277 341.668 194.361C344.608 195.613 346.757 197.666 348.054 200.586C349.292 203.365 349.857 206.304 350.037 209.327C350.14 211.098 350.3 212.869 350.268 214.653C350.21 218.003 350.037 221.334 349.305 224.613C348.683 227.399 347.547 229.933 345.545 231.987C343.979 233.591 342.015 234.605 339.839 235.157C337.741 235.69 335.597 235.94 333.428 235.947C331.227 235.953 329.02 235.947 326.818 235.947C325.439 235.947 325.413 235.979 325.406 237.391C325.406 245.522 325.406 253.653 325.406 261.79C325.406 263.189 324.705 263.891 323.302 263.895C319.361 263.895 315.421 263.895 311.48 263.895C309.857 263.895 309.773 263.811 309.773 262.156C309.773 250.887 309.773 239.624 309.773 228.355L309.78 228.361ZM325.355 214.166C325.355 216.457 325.355 218.741 325.355 221.032C325.355 221.373 325.362 221.713 325.374 222.046C325.387 222.611 325.676 222.913 326.241 222.919C327.595 222.932 328.93 223.163 330.297 223.086C332.421 222.97 333.48 222.078 333.871 219.839C334.442 216.566 334.275 213.254 334.025 209.962C333.98 209.378 333.839 208.788 333.672 208.223C333.114 206.33 332.036 205.502 330.059 205.451C329 205.419 327.941 205.438 326.882 205.444C325.4 205.451 325.362 205.483 325.355 206.92C325.349 209.333 325.355 211.753 325.355 214.166Z" fill="black"/>
<path d="M221.297 228.393C221.297 217.291 221.297 206.195 221.297 195.093C221.297 193.634 222.026 192.904 223.485 192.904C233.445 192.904 243.399 192.904 253.359 192.904C255.63 192.904 255.656 192.93 255.663 195.138C255.663 198.359 255.663 201.574 255.663 204.796C255.663 205.091 255.675 205.393 255.65 205.688C255.586 206.554 255.457 206.721 254.572 206.753C253.096 206.811 251.613 206.811 250.131 206.811C246.62 206.811 243.104 206.798 239.593 206.798C239.17 206.798 238.746 206.837 238.329 206.875C237.276 206.971 237.199 207.036 237.193 208.114C237.18 211.797 237.193 215.487 237.193 219.171C237.193 219.216 237.193 219.255 237.193 219.299C237.244 220.198 237.328 220.301 238.252 220.333C238.971 220.358 239.689 220.339 240.415 220.339C244.188 220.339 247.955 220.333 251.729 220.339C253.076 220.339 253.198 220.467 253.205 221.783C253.218 225.512 253.218 229.24 253.205 232.969C253.205 234.374 253.115 234.445 251.658 234.451C247.461 234.458 243.27 234.451 239.073 234.451C238.695 234.451 238.31 234.458 237.931 234.464C237.482 234.477 237.219 234.695 237.206 235.164C237.206 235.375 237.193 235.587 237.193 235.799C237.193 239.996 237.193 244.187 237.193 248.384C237.193 249.808 237.238 249.847 238.727 249.853C240.806 249.86 242.879 249.821 244.958 249.866C248.302 249.937 251.645 250.065 254.989 250.033C256.125 250.02 256.253 250.161 256.259 251.259C256.266 255.032 256.259 258.799 256.247 262.573C256.247 263.689 256.093 263.818 255.014 263.875C254.758 263.888 254.507 263.882 254.251 263.882C243.996 263.882 233.74 263.882 223.485 263.882C222.035 263.882 221.31 263.15 221.31 261.687C221.31 250.585 221.31 239.489 221.31 228.387L221.297 228.393Z" fill="black"/>
<path d="M207.139 235.44C207.139 244.206 207.139 252.979 207.139 261.745C207.139 263.658 207.133 263.581 205.246 263.69C203.469 263.792 202.038 263.382 200.658 262.124C197.719 259.448 194.619 256.945 191.539 254.423C190.73 253.762 190.46 253.037 190.46 252.023C190.486 237.75 190.48 223.471 190.48 209.199C190.48 207.821 189.814 207.134 188.484 207.139C186.283 207.139 184.075 207.151 181.874 207.139C180.52 207.132 180.321 206.94 180.314 205.592C180.301 201.863 180.301 198.135 180.314 194.406C180.314 193.027 180.436 192.911 181.867 192.911C188.606 192.905 195.338 192.911 202.076 192.911C206.44 192.911 210.804 192.911 215.168 192.911C215.463 192.911 215.758 192.911 216.06 192.911C217.305 192.943 217.369 193.007 217.363 194.207C217.356 197.763 217.35 201.324 217.343 204.88C217.343 205.258 217.363 205.643 217.343 206.022C217.318 206.863 217.157 207.036 216.297 207.119C215.964 207.151 215.617 207.139 215.283 207.139C213.249 207.139 211.215 207.139 209.18 207.139C207.82 207.139 207.137 207.804 207.133 209.134C207.133 217.901 207.133 226.674 207.133 235.44H207.139Z" fill="black"/>
<path d="M378.938 228.252C378.938 217.111 378.938 205.964 378.938 194.823C378.938 194.612 378.938 194.4 378.938 194.188C378.976 193.078 379.085 192.93 380.195 192.917C382.698 192.892 385.195 192.905 387.697 192.905C389.565 192.905 391.426 192.892 393.293 192.911C394.641 192.924 394.795 193.104 394.827 194.477C394.84 195.029 394.827 195.581 394.827 196.126C394.827 213.453 394.827 230.787 394.827 248.114C394.827 250.149 394.699 250.117 396.862 250.11C400.885 250.11 404.916 250.11 408.939 250.11C409.318 250.11 409.703 250.117 410.082 250.136C410.698 250.162 410.999 250.508 411.044 251.098C411.07 251.439 411.07 251.779 411.076 252.112C411.076 255.373 411.076 258.639 411.076 261.899C411.076 262.239 411.076 262.579 411.044 262.913C410.999 263.516 410.666 263.831 410.062 263.856C409.722 263.869 409.382 263.876 409.048 263.876C399.685 263.876 390.316 263.876 380.953 263.876C378.944 263.876 378.944 263.876 378.944 261.803C378.944 250.617 378.944 239.431 378.944 228.246L378.938 228.252Z" fill="black"/>
<path d="M414.328 228.515C414.328 217.625 414.328 206.74 414.328 195.85C414.328 195.215 414.347 194.579 414.36 193.944C414.379 193.341 414.7 193.007 415.297 192.949C415.631 192.917 415.971 192.904 416.311 192.904C420.335 192.904 424.365 192.904 428.389 192.904C428.556 192.904 428.729 192.904 428.896 192.911C429.974 192.975 430.147 193.142 430.192 194.194C430.211 194.746 430.199 195.298 430.199 195.844C430.199 213.254 430.199 230.671 430.199 248.082C430.199 249.438 430.862 250.116 432.188 250.116C436.128 250.116 440.069 250.116 444.009 250.116C444.388 250.116 444.773 250.103 445.151 250.136C446.191 250.219 446.416 250.418 446.428 251.464C446.454 255.148 446.467 258.838 446.454 262.521C446.454 263.657 446.242 263.824 445.106 263.882C444.895 263.895 444.683 263.882 444.471 263.882C435.108 263.882 425.745 263.882 416.375 263.882C414.354 263.882 414.328 263.856 414.328 261.815C414.328 250.713 414.328 239.617 414.328 228.515Z" fill="black"/>
<path d="M161.187 193.072C164.197 193.072 167.2 193.052 170.21 193.078C171.68 193.091 171.718 193.149 172.058 194.599C174.503 204.982 176.949 215.366 179.4 225.75C181.081 232.873 182.782 239.996 184.47 247.12C184.489 247.203 184.515 247.287 184.521 247.37C184.547 247.646 184.784 247.973 184.412 248.159C184.143 248.294 183.931 248.05 183.751 247.896C181.864 246.324 179.984 244.745 178.104 243.167C172.816 238.732 167.528 234.298 162.24 229.863C161.463 229.215 161.386 229.196 160.61 229.812C157.76 232.077 154.924 234.362 152.081 236.64C149.802 238.469 147.518 240.292 145.246 242.121C143.597 243.449 141.954 244.784 140.311 246.112C140.112 246.273 139.926 246.452 139.701 246.568C139.413 246.715 139.214 246.587 139.156 246.273C139.092 245.881 139.246 245.522 139.329 245.15C140.978 237.757 142.634 230.364 144.283 222.964C145.49 217.554 146.735 212.151 147.89 206.728C148.737 202.756 149.655 198.796 150.56 194.836C150.605 194.631 150.643 194.419 150.701 194.22C150.99 193.155 151.054 193.078 152.183 193.065C155.193 193.046 158.197 193.065 161.206 193.065C161.206 193.065 161.206 193.065 161.206 193.072H161.187ZM161.476 206.824C161.392 206.837 161.309 206.85 161.226 206.869C161.187 207.03 161.136 207.19 161.104 207.351C160.269 211.58 159.442 215.815 158.614 220.044C158.319 221.54 158.049 223.035 157.741 224.524C157.619 225.121 157.786 225.422 158.428 225.397C158.851 225.377 159.275 225.397 159.698 225.397C161.181 225.397 162.663 225.416 164.139 225.384C164.935 225.371 165.012 225.243 164.909 224.472C164.89 224.306 164.852 224.139 164.819 223.972C164.114 220.275 163.42 216.579 162.702 212.889C162.31 210.867 161.88 208.846 161.47 206.831L161.476 206.824Z" fill="black"/>
<path d="M195.572 263.882C194.314 263.562 193.043 263.857 191.779 263.85C170.897 263.831 150.014 263.838 129.132 263.838C127.989 263.838 126.847 263.87 125.705 263.902C125.32 263.908 124.89 263.966 124.723 263.523C124.556 263.1 124.825 262.759 125.153 262.554C126.481 261.72 127.457 260.43 128.836 259.685C129.985 259.069 130.762 258.043 131.769 257.266C133.508 255.925 135.26 254.596 136.961 253.21C139.554 251.099 142.089 248.93 144.681 246.818C147.402 244.598 150.162 242.429 152.889 240.221C155.341 238.232 157.908 236.384 160.289 234.304C161.116 233.579 161.611 233.592 162.406 234.246C164.595 236.037 166.706 237.917 168.939 239.656C170.467 240.844 171.859 242.198 173.335 243.449C175.524 245.31 177.699 247.191 180.029 248.872C180.792 249.424 181.319 250.2 182.063 250.772C185.111 253.12 187.967 255.694 190.9 258.177C191.677 258.832 192.479 259.454 193.294 260.058C194.314 260.809 195.007 261.925 196.156 262.541C196.477 262.715 196.843 263.023 196.689 263.459C196.509 263.96 195.995 263.831 195.578 263.882H195.572Z" fill="#F3C217"/>
<path d="M370.937 228.381C370.937 239.522 370.937 250.663 370.937 261.81C370.937 263.857 370.911 263.883 368.903 263.883C364.918 263.883 360.939 263.883 356.953 263.883C355.169 263.883 355.086 263.8 355.086 262.015C355.086 239.561 355.086 217.106 355.086 194.651C355.086 194.394 355.099 194.144 355.105 193.887C355.124 193.278 355.439 192.95 356.049 192.918C356.344 192.905 356.639 192.893 356.941 192.893C360.964 192.893 364.995 192.893 369.018 192.893C369.23 192.893 369.442 192.893 369.654 192.899C370.738 192.963 370.899 193.124 370.944 194.182C370.956 194.561 370.944 194.946 370.944 195.325C370.944 206.337 370.944 217.356 370.944 228.369L370.937 228.381Z" fill="black"/>
<path d="M564.954 202.659C564.954 202.954 564.947 203.249 564.954 203.551C565.082 207.491 562.958 210.18 559.768 211.919C555.462 214.262 551.188 213.825 547.318 210.706C545.329 209.102 544.18 206.959 543.769 204.443C542.935 199.341 545.432 195.131 549.622 193.116C553.165 191.415 556.771 191.646 560.205 193.642C562.476 194.958 563.837 197.012 564.8 199.38C564.947 199.745 564.954 200.124 564.954 200.503C564.954 201.221 564.954 201.94 564.954 202.665V202.659ZM562.823 202.845C562.759 197.512 559.159 194.04 554.551 194.059C549.282 194.079 545.99 197.602 546.028 202.691C546.067 207.934 549.436 211.226 554.339 211.31C559.332 211.393 562.663 207.626 562.823 202.845Z" fill="black"/>
<path d="M550.131 202.557C550.131 201.036 550.118 199.515 550.131 197.987C550.144 196.665 550.298 196.499 551.562 196.479C552.916 196.46 554.27 196.479 555.624 196.479C556.137 196.479 556.632 196.556 557.113 196.742C558.39 197.243 559.269 198.039 559.365 199.508C559.468 201.068 559.064 202.358 557.588 203.128C557.549 203.147 557.511 203.166 557.479 203.186C556.542 203.712 556.548 203.705 557.158 204.668C557.819 205.701 558.48 206.734 559.109 207.787C559.571 208.557 559.468 208.679 558.57 208.775C557.8 208.852 557.28 208.583 556.888 207.928C556.285 206.908 555.643 205.913 555.014 204.912C554.835 204.623 554.655 204.334 554.456 204.065C554.065 203.539 553.506 203.539 552.961 203.686C552.428 203.827 552.48 204.321 552.473 204.732C552.454 205.701 552.492 206.677 552.447 207.646C552.402 208.563 552.165 208.756 551.279 208.75C550.387 208.75 550.169 208.576 550.15 207.62C550.118 205.932 550.144 204.238 550.144 202.544H550.131V202.557ZM554.334 201.767C554.886 201.761 555.432 201.767 555.964 201.594C556.766 201.324 557.184 200.792 557.177 200.022C557.177 199.29 556.811 198.809 556.041 198.526C555.098 198.186 554.122 198.308 553.153 198.34C552.755 198.353 552.537 198.591 552.499 198.982C552.473 199.277 552.467 199.572 552.467 199.868C552.454 201.147 553.076 201.782 554.334 201.774V201.767Z" fill="black"/>
</g>
<defs>
<clipPath id="clip0_3308_13468">
<rect width="466.777" height="72.3124" fill="white" transform="translate(98.1797 191.596)"/>
</clipPath>
</defs>
</svg>
