<svg width="551" height="290" viewBox="0 0 551 290" fill="none" xmlns="http://www.w3.org/2000/svg">
<path d="M342.423 66.5534L186.047 66.5913C181.529 66.615 177.858 65.3832 177.86 63.9194L177.866 37.1774L350.548 37.1776L350.542 63.9193C350.603 65.3688 346.956 66.5929 342.423 66.5534Z" fill="#633A14"/>
<path d="M350.586 37.3707C350.608 35.7028 311.919 34.3403 264.227 34.3482C216.535 34.3562 177.863 35.7168 177.904 37.3705C177.945 39.0241 216.571 40.4012 264.263 40.3932C275.833 40.3714 286.789 40.2884 296.866 40.1384L305.996 48.4509L315.542 39.7738C336.786 39.2939 350.547 38.3772 350.586 37.3707Z" fill="#FFB23E"/>
<path opacity="0.66" d="M350.333 68.8865L178.249 68.8842C176.06 68.9134 174.322 67.1114 174.293 64.9229L174.315 55.6054C174.286 53.4169 176.088 51.679 178.276 51.6497L350.36 51.6521C352.549 51.6228 354.287 53.4252 354.316 55.6137L354.294 64.9312C354.26 67.134 352.472 68.9349 350.333 68.8865Z" fill="#89BEAA"/>
<path opacity="0.66" d="M180.586 60.1076C181.774 59.8389 182.519 58.6578 182.251 57.4695C181.982 56.2812 180.801 55.5358 179.613 55.8045C178.424 56.0732 177.679 57.2543 177.947 58.4426C178.216 59.6309 179.397 60.3763 180.586 60.1076Z" fill="#A6DDC6"/>
<path opacity="0.66" d="M254.504 60.1558L189.246 60.1443C188.05 60.1488 187.096 59.1671 187.092 57.9707L187.078 57.9074C187.073 56.7111 188.055 55.7574 189.251 55.7529L254.508 55.7644C255.705 55.76 256.658 56.7417 256.663 57.938L256.677 58.0014C256.667 59.1344 255.7 60.1514 254.504 60.1558Z" fill="#A6DDC6"/>
<rect y="69.002" width="550.28" height="220.707" rx="30" fill="#89BEAA" fill-opacity="0.2"/>
<path d="M19.6328 106.48H531.244V250.672C531.244 261.718 522.29 270.672 511.244 270.672H39.6328C28.5871 270.672 19.6328 261.718 19.6328 250.672V106.48Z" fill="#FFBCA0"/>
<ellipse cx="275.439" cy="106.181" rx="255.806" ry="12.7903" fill="#FFD5C3"/>
<circle cx="47.6092" cy="135.387" r="11.1795" fill="white"/>
<circle cx="71.8788" cy="134.725" r="4.34758" fill="white"/>
<g clip-path="url(#clip0_3308_13648)">
<path d="M127.244 169.303H113.117V221.975H127.244C143.072 221.975 157.046 216.54 157.046 195.635C157.046 174.729 143.072 169.303 127.244 169.303ZM129.234 213.674H123.468V177.595H129.234C137.893 177.595 146.236 184.153 146.236 195.626C146.236 207.099 137.884 213.665 129.234 213.665V213.674Z" fill="#010101"/>
<path d="M161.18 169.303V221.975H171.539V169.303H161.18ZM185.793 184.016C185.793 178.752 189.748 177.638 193.465 178.114C197.522 178.633 201.358 180.98 204.913 183.208V173.113C201.451 170.094 197.479 168.393 193.04 168.393C183.956 168.393 175 172.705 175 184.476C175 201.903 197.624 197.744 197.624 207.788C197.624 212.551 192.861 213.954 188.456 213.172C184.45 212.449 179.253 208.809 175.698 206.853V217.535C180.172 220.554 183.429 222.255 189.042 222.885C199.41 224.041 208.425 218.496 208.425 206.955C208.425 189.298 185.793 193.151 185.793 184.016ZM335.687 169.303L324.945 197.131L313.446 169.303H302.364L322.462 221.975H326.221L346.429 169.303H335.679H335.687ZM359.476 213.674V198.883H377.889V190.582H359.476V177.604H379.59V169.303H349.125V221.975H379.744V213.674H359.476ZM412.82 201.367C411.782 199.036 410.149 196.153 407.343 195.932V195.779C413.934 194.869 418 189.74 418 183.557C418 168.911 404.766 169.303 393.666 169.303H382.499V221.975H392.858V200.091H396.184C400.556 200.091 401.882 201.596 403.354 205.526L409.562 221.966H421.095L412.811 201.367H412.82ZM396.26 191.79H392.858V177.587H396.26C401.44 177.587 407.207 178.122 407.207 184.459C407.207 190.795 401.364 191.79 396.26 191.79Z" fill="#010101"/>
<path d="M249.356 216.711C246.838 219.968 240.561 221.975 236.326 222.273C220.277 223.396 209.492 214.397 209.492 196.588C209.492 178.778 218.89 168.104 236.402 168.921C239.804 169.082 245.367 170.23 249.134 173.309V183.473C244.746 180.734 240.196 178.795 236.343 178.633C225.694 178.2 220.294 185.055 220.294 195.839C220.294 206.624 225.337 212.586 236.351 212.169C240.578 212.007 247.068 208.537 249.347 206.624V216.719H249.356V216.711Z" fill="#010101"/>
<path d="M433.952 173.92C434.785 173.844 435.287 173.419 435.287 172.543C435.287 171.454 434.632 171.037 433.399 171.037H431.477V176.174H432.429V173.963H433.016L434.36 176.174H435.338L433.96 173.92H433.952ZM432.446 173.231V171.76H433.297C433.79 171.76 434.343 171.854 434.343 172.466C434.343 173.146 433.849 173.231 433.288 173.231H432.446Z" fill="#010101"/>
<path d="M433.244 169.09C430.735 169.09 428.711 171.123 428.711 173.623C428.711 176.124 430.744 178.156 433.244 178.156C435.745 178.156 437.777 176.124 437.777 173.623C437.777 171.123 435.745 169.09 433.244 169.09ZM433.244 177.28C431.339 177.28 429.808 175.749 429.808 173.632C429.808 171.514 431.339 169.966 433.244 169.966C435.149 169.966 436.672 171.505 436.672 173.632C436.672 175.758 435.132 177.28 433.244 177.28Z" fill="#010101"/>
<path d="M433.952 173.92C434.785 173.844 435.287 173.419 435.287 172.543C435.287 171.454 434.632 171.037 433.399 171.037H431.477V176.174H432.429V173.963H433.016L434.36 176.174H435.338L433.96 173.92H433.952ZM432.446 173.231V171.76H433.297C433.79 171.76 434.343 171.854 434.343 172.466C434.343 173.146 433.849 173.231 433.288 173.231H432.446Z" fill="white"/>
<path d="M433.952 173.92C434.785 173.844 435.287 173.419 435.287 172.543C435.287 171.454 434.632 171.037 433.399 171.037H431.477V176.174H432.429V173.963H433.016L434.36 176.174H435.338L433.96 173.92H433.952ZM432.446 173.231V171.76H433.297C433.79 171.76 434.343 171.854 434.343 172.466C434.343 173.146 433.849 173.231 433.288 173.231H432.446Z" fill="#010101"/>
<path d="M279.143 168.393C262.728 168.393 251.969 179.33 251.969 195.49C251.969 211.649 262.583 222.885 279.143 222.885C295.702 222.885 305.849 211.411 305.849 195.49C305.849 179.568 295.345 168.393 279.143 168.393Z" fill="#F37021"/>
</g>
<defs>
<clipPath id="clip0_3308_13648">
<rect width="324.665" height="54.6452" fill="white" transform="translate(113.117 168.393)"/>
</clipPath>
</defs>
</svg>
