<svg width="573" height="316" viewBox="0 0 573 316" fill="none" xmlns="http://www.w3.org/2000/svg">
<path d="M384.862 83.872L166.295 83.9114C161.598 83.9361 157.782 82.6555 157.784 81.1337L157.79 53.3327L393.308 53.3329L393.302 81.1336C393.366 82.6405 389.574 83.9131 384.862 83.872Z" fill="#633A14"/>
<path d="M392.909 53.5952C392.932 51.8612 325.161 50.3815 275.58 50.3898C226 50.3981 157.959 51.8732 158.002 53.5923C158.044 55.3114 226.038 56.6825 275.618 56.6742C287.646 56.6516 299.036 56.5652 309.512 56.4093L319.004 65.051L328.928 56.0303C351.013 55.5314 392.869 54.6415 392.909 53.5952Z" fill="#FFB23E"/>
<path opacity="0.66" d="M401.859 86.2975L150.163 86.2951C147.888 86.3255 146.082 84.4521 146.051 82.1769L146.074 72.4904C146.043 70.2152 147.917 68.4085 150.192 68.3781L401.888 68.3805C404.163 68.3501 405.97 70.2238 406 72.499L405.977 82.1855C405.942 84.4755 404.083 86.3478 401.859 86.2975Z" fill="#89BEAA"/>
<path opacity="0.66" d="M155.037 77.1709C156.273 76.8915 157.048 75.6637 156.768 74.4283C156.489 73.193 155.261 72.418 154.026 72.6973C152.791 72.9767 152.015 74.2045 152.295 75.4399C152.574 76.6753 153.802 77.4502 155.037 77.1709Z" fill="#A6DDC6"/>
<path opacity="0.66" d="M231.886 77.2193L164.044 77.2073C162.801 77.2119 161.809 76.1914 161.805 74.9476L161.79 74.8818C161.785 73.6381 162.806 72.6466 164.049 72.642L231.891 72.654C233.135 72.6494 234.126 73.6699 234.131 74.9136L234.146 74.9795C234.135 76.1574 233.13 77.2146 231.886 77.2193Z" fill="#A6DDC6"/>
<rect x="0.921875" y="86.4258" width="572.072" height="229.447" rx="100" fill="#89BEAA" fill-opacity="0.2"/>
<path d="M21.0859 188.758C21.0859 144.575 56.9032 108.758 101.086 108.758H473.061C517.244 108.758 553.061 144.575 553.061 188.758V213.549C553.061 257.732 517.244 293.549 473.061 293.549H101.086C56.9031 293.549 21.0859 257.732 21.0859 213.549V188.758Z" fill="#B3D689"/>
<circle cx="61.6222" cy="157.622" r="11.6222" fill="#E5FFC7"/>
<circle cx="80.5198" cy="132.52" r="4.51976" fill="#E5FFC7"/>
<g clip-path="url(#clip0_3308_13729)">
<path d="M172.03 226.489V210.381C171.349 210.346 170.747 210.301 170.146 210.301C167.547 210.301 164.96 210.312 162.361 210.289C160.704 210.266 160.318 209.936 160.307 208.373C160.273 204.403 160.273 200.433 160.307 196.463C160.318 195.025 160.772 194.603 162.247 194.603C170.781 194.58 179.304 194.58 187.838 194.603C189.518 194.603 189.858 194.98 189.858 196.725C189.87 204.232 189.858 211.738 189.858 219.245C189.858 224.641 189.779 230.037 189.904 235.433C189.938 237.121 189.336 238.011 187.906 238.764C183.991 240.818 179.883 242.323 175.559 243.122C166.934 244.708 158.332 244.525 149.889 242.027C139.414 238.924 132.82 231.794 129.473 221.481C128.009 216.974 127.237 212.331 126.987 207.62C126.545 199.178 126.84 190.77 129.075 182.533C130.471 177.4 132.571 172.608 135.998 168.49C140.56 163.014 146.484 159.808 153.361 158.587C162.849 156.899 172.302 157.333 181.608 159.922C182.902 160.287 184.139 160.892 185.387 161.417C186.408 161.839 186.681 162.58 186.397 163.676C185.466 167.395 184.604 171.136 183.696 174.856C183.219 176.829 182.902 176.966 181.018 176.464C178.93 175.916 176.853 175.278 174.731 174.97C169.635 174.228 164.528 174 159.433 175.095C153.827 176.293 149.923 179.579 147.585 184.792C146.076 188.169 145.327 191.762 145.088 195.402C144.702 201.288 144.634 207.186 146.098 212.97C146.495 214.522 146.983 216.073 147.596 217.545C150.093 223.454 154.576 226.797 160.931 227.196C164.177 227.402 167.456 227.002 170.725 226.843C171.133 226.82 171.542 226.614 172.007 226.466L172.03 226.489Z" fill="black"/>
<path d="M309.665 207.45H286.014C286.014 208.203 286.014 208.864 286.014 209.515C286.014 219.44 286.014 229.365 286.014 239.29C286.014 239.792 286.037 240.282 286.014 240.773C285.935 242.051 285.606 242.416 284.312 242.45C282.394 242.507 280.476 242.461 278.57 242.461C275.846 242.461 273.134 242.484 270.41 242.461C268.73 242.45 268.367 242.051 268.299 240.374C268.276 239.94 268.299 239.507 268.299 239.073C268.299 214.078 268.299 189.071 268.299 164.076C268.299 160.779 268.356 160.733 271.579 160.733C275.415 160.733 279.239 160.733 283.075 160.733C286.003 160.733 286.037 160.756 286.037 163.791C286.037 172.164 286.037 180.538 286.037 188.911C286.037 189.585 286.037 190.258 286.037 191.079H309.687C309.687 190.463 309.687 189.801 309.687 189.151C309.687 180.709 309.687 172.278 309.687 163.836C309.687 163.403 309.676 162.969 309.687 162.536C309.744 161.155 310.073 160.768 311.469 160.756C316.167 160.722 320.866 160.722 325.564 160.756C326.914 160.756 327.323 161.212 327.414 162.536C327.448 162.969 327.414 163.403 327.414 163.836C327.414 189.026 327.414 214.203 327.414 239.393C327.414 239.701 327.414 240.009 327.414 240.328C327.357 242.096 326.994 242.484 325.189 242.484C320.741 242.507 316.292 242.507 311.843 242.484C309.892 242.484 309.642 242.222 309.642 240.168C309.642 229.992 309.665 219.816 309.687 209.652C309.687 208.978 309.687 208.294 309.687 207.461L309.665 207.45Z" fill="black"/>
<path d="M411.679 188.648C412.485 188.294 413.086 188.02 413.699 187.747C419.43 185.157 425.377 184.313 431.573 185.568C437.52 186.765 441.662 190.245 444.238 195.687C446.065 199.554 446.882 203.684 447.12 207.905C447.506 214.727 447.37 221.538 445.713 228.223C445.282 229.957 444.681 231.657 443.988 233.311C441.56 239.072 437.191 242.494 431.074 243.532C424.526 244.65 418.159 243.92 412.11 241.034C410.612 240.315 409.228 239.391 407.594 238.444C407.435 239.3 407.287 240.11 407.151 240.931C406.981 241.924 406.425 242.472 405.392 242.472C402.124 242.472 398.844 242.506 395.575 242.46C394.441 242.449 394.032 241.981 393.93 240.874C393.884 240.441 393.919 240.007 393.919 239.574C393.919 214.271 393.919 188.979 393.919 163.675C393.919 163.367 393.919 163.059 393.919 162.74C393.975 161.177 394.361 160.755 395.916 160.732C398.571 160.698 401.227 160.732 403.883 160.732C405.8 160.732 407.707 160.709 409.625 160.732C411.361 160.755 411.679 161.063 411.679 162.808C411.69 170.68 411.679 178.563 411.679 186.435C411.679 187.108 411.679 187.769 411.679 188.648ZM411.486 202.018C411.441 202.36 411.373 202.6 411.373 202.84C411.373 210.517 411.373 218.195 411.35 225.873C411.35 226.842 411.758 227.321 412.564 227.698C415.469 229.044 418.499 229.672 421.7 229.557C425.649 229.421 427.783 227.846 428.747 224.013C429.825 219.712 429.996 215.32 429.587 210.928C429.383 208.738 428.986 206.502 428.271 204.437C427.295 201.596 425.172 199.919 422.074 199.6C418.25 199.2 414.788 200.261 411.486 202.018Z" fill="black"/>
<path d="M368.646 226.786V224.641C368.646 212.982 368.646 201.312 368.646 189.652C368.646 189.219 368.623 188.785 368.646 188.352C368.726 187.188 369.055 186.778 370.235 186.778C374.99 186.743 379.756 186.743 384.511 186.778C385.771 186.778 386.1 187.188 386.202 188.489C386.236 188.922 386.214 189.356 386.214 189.789C386.214 206.354 386.214 222.919 386.214 239.483C386.214 239.86 386.225 240.225 386.214 240.601C386.134 242.107 385.794 242.472 384.318 242.495C381.538 242.541 378.758 242.541 375.977 242.518C374.377 242.518 374.127 242.256 373.844 240.601C373.753 240.065 373.617 239.529 373.469 238.81C372.607 239.244 371.869 239.62 371.131 240.008C363.244 244.138 354.982 245.187 346.369 242.951C340.093 241.32 336.53 237.065 335.338 230.79C334.941 228.668 334.771 226.478 334.759 224.322C334.703 212.72 334.737 201.118 334.737 189.527C334.737 189.219 334.725 188.911 334.737 188.592C334.827 187.177 335.145 186.8 336.518 186.789C341.273 186.755 346.04 186.755 350.795 186.789C352.123 186.789 352.509 187.245 352.588 188.603C352.611 189.036 352.588 189.47 352.588 189.903C352.588 200.205 352.588 210.495 352.599 220.797C352.599 222.28 352.599 223.786 352.894 225.235C353.428 227.95 354.994 229.296 357.74 229.535C361.61 229.889 365.208 228.999 368.646 226.809V226.786Z" fill="black"/>
<path d="M248.364 186.708C251.962 186.708 255.23 186.708 258.499 186.708C260.814 186.708 260.995 186.891 260.995 189.286C260.995 192.515 260.995 195.732 260.995 198.961C260.995 201.105 260.632 201.47 258.544 201.482C255.82 201.505 253.108 201.482 250.384 201.482C249.783 201.482 249.181 201.539 248.467 201.573C248.432 202.28 248.364 202.874 248.364 203.478C248.364 209.924 248.364 216.381 248.364 222.826C248.364 227.207 250.157 229.158 254.549 229.477C255.888 229.58 257.262 229.455 258.612 229.318C260.678 229.112 261.109 229.409 261.109 231.405C261.12 234.508 261.063 237.611 261.109 240.703C261.12 241.832 260.689 242.334 259.599 242.642C253.812 244.262 248.001 244.411 242.236 242.745C235.756 240.863 231.716 236.163 231.126 228.348C230.717 222.975 230.888 217.567 230.831 212.171C230.797 208.703 230.831 205.235 230.831 201.641C230.252 201.573 229.775 201.482 229.31 201.47C227.392 201.448 225.474 201.493 223.568 201.448C222.127 201.413 221.741 201.048 221.718 199.713C221.673 196.736 221.718 193.758 221.695 190.781C221.695 189.72 222.206 189.207 223.171 188.978C225.27 188.488 227.37 187.974 229.458 187.461C229.866 187.358 230.263 187.199 230.831 187.016C230.831 186.32 230.831 185.659 230.831 184.986C230.831 180.89 230.831 176.794 230.831 172.71C230.831 170.942 231.001 170.782 232.737 170.771C237.311 170.76 241.884 170.748 246.458 170.771C248.149 170.771 248.319 170.965 248.33 172.745C248.353 176.646 248.353 180.559 248.364 184.461C248.364 185.134 248.364 185.796 248.364 186.685V186.708Z" fill="black"/>
<path d="M216.165 214.249C216.165 222.486 216.165 230.734 216.165 238.971C216.165 239.461 216.188 239.963 216.143 240.454C216.029 241.846 215.553 242.416 214.202 242.427C209.64 242.473 205.067 242.484 200.493 242.427C198.972 242.405 198.439 241.743 198.416 240.18C198.394 236.837 198.416 233.483 198.416 230.141C198.416 216.691 198.416 203.252 198.416 189.802C198.416 189.311 198.394 188.809 198.416 188.318C198.507 187.155 198.848 186.778 200.005 186.733C201.299 186.687 202.593 186.721 203.898 186.721C207.234 186.721 210.559 186.721 213.896 186.721C215.87 186.721 216.154 186.995 216.154 188.969C216.154 197.399 216.154 205.819 216.154 214.249H216.165Z" fill="black"/>
<path d="M207.454 182.27C201.995 182.293 197.706 178.049 197.649 172.585C197.592 167.052 201.916 162.591 207.363 162.568C212.765 162.546 217.271 167.075 217.248 172.494C217.225 177.901 212.867 182.248 207.465 182.27H207.454Z" fill="black"/>
</g>
<defs>
<clipPath id="clip0_3308_13729">
<rect width="320.483" height="86.5537" fill="white" transform="translate(126.82 157.584)"/>
</clipPath>
</defs>
</svg>
