<svg width="465" height="525" viewBox="0 0 465 525" fill="none" xmlns="http://www.w3.org/2000/svg">
<path d="M182.337 131.004H290.365V177.737H434.631C451.2 177.737 464.631 191.168 464.631 207.737V494.233C464.631 510.801 451.2 524.233 434.631 524.233H30.6719C14.1034 524.233 0.671875 510.801 0.671875 494.233V207.737C0.671875 191.168 14.1033 177.737 30.6719 177.737H182.337V131.004Z" fill="#89BEAA" fill-opacity="0.2"/>
<rect x="27.625" y="206.789" width="410.069" height="287.975" rx="20" fill="#FFF5BF"/>
<path d="M165.946 272.669C165.946 272.669 235.47 238.482 307.319 272.669C307.319 272.669 327.062 358.971 303.265 384.341C303.265 384.341 243.864 419.842 167.589 387.876C167.589 387.876 137.413 338.977 165.955 272.669H165.946Z" fill="#FDDF00"/>
<path d="M236.075 253.457C211.82 253.457 187.08 258.687 163.837 269.924C155.633 289.572 151.891 309.807 151.891 329.55C151.891 349.293 155.582 369.235 163.785 389.073C187.141 400.371 211.776 405.548 236.075 405.548C260.373 405.548 285.026 400.371 308.356 389.073C316.559 369.235 320.259 349.241 320.259 329.55C320.259 309.859 316.507 289.58 308.313 269.924C285.078 258.687 260.347 253.457 236.066 253.457H236.075ZM236.066 259.888C260.053 259.888 283.046 265.196 303.23 274.652C310.042 291.698 313.767 310.205 313.767 329.55C313.767 348.896 310.059 367.333 303.273 384.336C283.081 393.81 260.07 399.117 236.066 399.117C212.062 399.117 189.069 393.81 168.876 384.336C162.091 367.333 158.374 348.844 158.374 329.55C158.374 310.257 162.091 291.698 168.911 274.652C189.103 265.187 212.088 259.888 236.066 259.888ZM236.066 264.703C214.119 264.703 192.293 269.388 172.775 278.196C166.464 294.611 163.24 311.873 163.24 329.542C163.24 347.21 166.456 364.394 172.74 380.801C192.267 389.626 214.119 394.285 236.075 394.285C258.03 394.285 279.891 389.626 299.409 380.801L299.435 380.775C295.191 373.79 289.495 368.146 289.426 368.094C289.356 368.059 288.241 367.714 288.241 367.714C276.14 363.997 268.213 361.196 264.704 359.381C259.88 356.874 254.815 350.797 254.253 350.106C248.6 349.682 243.923 349.769 239.42 350.313L236.55 350.685C231.087 351.394 225.434 352.137 219.91 351.247C216.228 350.642 212.649 349.475 208.863 348.239C203.02 346.328 197.038 344.366 190.201 344.375H189.924L190.045 344.617C191.601 347.634 197.73 356.805 205.414 359.32C207.109 359.727 208.336 360.176 208.863 360.591C208.863 360.608 211.802 366.59 212.606 368.206C207.826 366.037 193.036 358.516 181.107 344.003V343.986C181.107 343.796 180.796 340.969 180.736 340.347C187.841 337.693 203.841 336.163 205.639 335.99H205.769L205.829 335.834C206.78 327.415 208.777 320.682 212.511 313.308C212.615 313.083 212.684 312.885 212.684 312.703C212.684 312.573 212.649 312.444 212.589 312.34C212.381 311.942 211.871 311.865 211.846 311.865C211.846 311.865 201.516 310.058 200.963 309.963C200.902 309.781 199.874 306.626 199.787 306.367C207.636 303.445 217.309 300.714 222.849 299.512C223.783 298.017 224.051 297.204 224.051 296.228C224.051 295.398 223.653 294.689 222.849 294.153C218.925 291.491 206.564 293.09 194.056 297.887C194.03 297.835 194.03 297.827 193.996 297.775C196.589 295.83 201.231 292.943 204.68 291.344L204.818 291.266L204.775 291.136C203.841 287.973 197.73 285.552 197.047 285.31C197.064 285.206 197.073 285.129 197.082 285.051C203.288 284.627 207.411 287.532 208.673 289.606L208.734 289.71L208.855 289.667C209.65 289.407 212.459 288.517 215.493 288.163H215.666L215.614 287.973C214.62 282.657 209.538 279.104 207.809 278.032C207.861 277.946 207.869 277.911 207.921 277.85C213.92 278.317 219.461 283.478 220.706 287.843L220.74 287.964H220.861C222.469 288.033 224.423 288.215 225.728 288.431L225.866 288.448L225.918 288.336C226.402 287.186 226.644 285.967 226.644 284.705C226.644 280.772 224.423 276.562 221.691 273.9C221.743 273.822 221.769 273.753 221.838 273.693C229.713 276.683 231.718 282.354 231.718 287.644C231.718 291.344 230.733 294.862 230.102 297.109L229.834 298.043C229.834 298.043 241.434 296.643 242.221 296.547C241.036 298.043 238.495 300.705 233.421 303.506C233.421 303.48 228.191 302.84 228.191 302.84L228.053 302.823L228.01 302.961C227.655 304.042 224.595 313.723 224.578 320.837C224.578 323.474 225.322 325.522 226.8 326.931C229.427 329.455 233.767 329.594 236.809 329.481C249.724 329.006 259.794 329.801 266.787 331.876L267.202 331.988L267.262 331.893C267.694 331.227 268.04 329.982 268.04 328.34C268.04 325.22 266.796 320.578 262.595 315.322C262.638 315.288 262.638 315.262 262.69 315.219C263.381 315.599 274.713 322.039 276.226 331.746C275.958 331.85 270.798 333.95 270.798 333.95L270.962 334.123C275.751 339.137 277.402 345.187 278.724 350.037C279.779 353.875 281.041 356.329 282.709 357.773C284.645 359.441 291.976 362.942 294.171 363.971C296.004 366.573 299.141 371.439 301.423 375.217C306.376 360.513 308.909 345.196 308.909 329.559C308.909 311.882 305.685 294.62 299.383 278.213C279.865 269.405 258.013 264.72 236.075 264.72L236.066 264.703Z" fill="#367E3D"/>
<path d="M76.7969 453.378C76.7969 453.378 80.6175 454.744 84.905 454.744C89.4604 454.744 92.3129 454.122 93.9034 452.514C95.2173 451.191 95.7446 448.987 95.6754 445.728V424.066H102.426V446.671C102.331 456.68 97.4647 460.95 86.1411 460.95C80.6348 460.942 76.7969 460.077 76.7969 460.077V453.378Z" fill="#367E3D"/>
<path d="M123.686 455.022C119.753 455.022 113.131 453.803 113.131 445.678C113.131 439.852 116.978 436.507 123.686 436.507C130.393 436.507 134.231 439.852 134.231 445.678C134.231 453.803 127.627 455.022 123.686 455.022ZM106.406 445.989C106.406 452.887 110.936 460.952 123.686 460.952C136.436 460.952 140.974 452.887 140.974 445.989C140.974 436.334 134.508 430.568 123.686 430.568C112.863 430.568 106.406 436.334 106.406 445.989Z" fill="#367E3D"/>
<path d="M169.208 431.248V442.788H151.687V431.248H144.953V460.266H151.687V448.726H169.208V460.266H175.942V431.248H169.208Z" fill="#367E3D"/>
<path d="M205.668 460.266L188.156 440.488V460.266H181.422V431.248H188.095L205.66 450.827V431.248H212.402V460.266H205.66H205.668Z" fill="#367E3D"/>
<path d="M272.202 454.337V448.735H287.736V442.805H272.202V437.204H292.282V431.266H265.469V460.284H292.282V454.345H272.202V454.337Z" fill="#367E3D"/>
<path d="M241.41 424.039C254.307 424.039 262.018 430.92 262.018 442.416C262.018 450.663 256.615 460.275 241.41 460.275H225.125V424.039H241.41ZM231.885 430.029V454.302H241.41C246.579 454.302 255.241 452.711 255.241 442.053C255.241 434.403 250.201 430.029 241.41 430.029H231.885Z" fill="#367E3D"/>
<path d="M347.476 443.738C348.876 443.738 351.202 443.297 351.202 440.427C351.202 438.37 349.845 437.203 347.476 437.203H335.176V443.721L347.476 443.738ZM358.973 460.274H350.83L342.713 449.65H334.804V460.274H328.07V431.256H347.104C353.657 431.256 357.564 434.739 357.564 440.565C357.564 444.058 355.61 447.982 350.51 449.209L358.973 460.274Z" fill="#367E3D"/>
<path d="M303.515 454.335V448.733H319.048V442.803H303.515V437.202H323.595V431.264H296.781V460.282H323.595V454.343H303.515V454.335Z" fill="#367E3D"/>
<path d="M368.788 454.335V448.733H384.322V442.803H368.788V437.202H388.868V431.264H362.055V460.282H388.868V454.343H368.788V454.335Z" fill="#367E3D"/>
<circle cx="61.8906" cy="250.687" r="15.2109" fill="white"/>
<circle cx="91.9671" cy="281.772" r="7.44362" fill="white"/>
<path d="M305.264 129.669L161.819 130.16C157.635 130.199 154.311 126.067 154.261 120.837L153.957 27.648L312.361 27.1201L312.665 120.309C312.861 125.517 309.448 129.629 305.264 129.669Z" fill="#633A14"/>
<path opacity="0.66" d="M314.319 139.062L152.923 139.598C147.985 139.603 143.93 135.583 143.924 130.645L143.768 83.5277C143.762 78.5899 147.783 74.5341 152.721 74.5289L313.971 74.0154C318.908 74.0101 322.964 78.0304 322.969 82.9682L323.126 130.086C323.277 135.001 319.257 139.057 314.319 139.062Z" fill="#89BEAA"/>
<path opacity="0.66" d="M166.854 106.345C171.377 105.655 174.484 101.428 173.794 96.9052C173.104 92.382 168.877 89.2747 164.354 89.965C159.831 90.6553 156.724 94.8818 157.414 99.4049C158.104 103.928 162.331 107.035 166.854 106.345Z" fill="#A6DDC6"/>
<path opacity="0.66" d="M228.629 106.195L188.103 106.394C184.358 106.367 181.358 103.383 181.385 99.6372L181.377 96.6452C181.404 92.8997 184.389 89.8997 188.134 89.9268L228.66 89.7283C232.406 89.7553 235.406 92.7399 235.378 96.4854L235.386 99.4774C235.337 103.077 232.352 106.076 228.629 106.195Z" fill="#A6DDC6"/>
<path d="M312.514 27.097C312.521 21.2594 276.949 16.661 233.262 16.7431C189.576 16.8253 154.116 21.7873 154.109 27.6249C154.102 33.4625 189.674 38.0609 233.361 37.9788C243.99 38.0029 254.113 37.6552 263.314 37.1489L271.794 66.2353L280.48 35.8767C299.919 33.8081 312.464 30.6963 312.514 27.097Z" fill="#FFB23E"/>
<path d="M293.756 138.746L173.781 139.141L173.911 178.639L293.886 178.245L293.756 138.746Z" fill="#A977AB"/>
<path d="M395.522 186.634L283.695 154.742L277.893 175.087L389.72 206.978L395.522 186.634Z" fill="#A977AB"/>
<path d="M365.554 235.405L277.992 158.896L264.073 174.827L351.635 251.335L365.554 235.405Z" fill="#A977AB"/>
</svg>
