<svg width="663" height="349" viewBox="0 0 663 349" fill="none" xmlns="http://www.w3.org/2000/svg">
<path d="M412.224 79.973L224.315 80.0186C218.886 80.0471 214.475 78.5669 214.477 76.8079L214.485 44.6736L421.987 44.6739L421.979 76.8078C422.053 78.5496 417.67 80.0205 412.224 79.973Z" fill="#633A14"/>
<path d="M422.042 44.9057C422.068 42.9015 375.577 41.2643 318.269 41.2738C260.96 41.2834 214.49 42.9184 214.539 44.9055C214.589 46.8925 261.004 48.5473 318.313 48.5377C332.215 48.5116 345.381 48.4118 357.49 48.2316L368.461 58.2202L379.931 47.7934C405.459 47.2168 421.995 46.1152 422.042 44.9057Z" fill="#FFB23E"/>
<path opacity="0.66" d="M421.724 82.7761L214.941 82.7733C212.311 82.8084 210.223 80.6431 210.188 78.0133L210.214 66.8169C210.179 64.1871 212.344 62.0988 214.974 62.0637L421.757 62.0664C424.387 62.0313 426.475 64.1971 426.51 66.8269L426.484 78.0232C426.443 80.6702 424.295 82.8342 421.724 82.7761Z" fill="#89BEAA"/>
<path opacity="0.66" d="M217.747 72.2288C219.175 71.9059 220.071 70.4867 219.748 69.0587C219.425 67.6308 218.006 66.7351 216.578 67.058C215.15 67.3808 214.254 68.8001 214.577 70.228C214.9 71.6559 216.319 72.5516 217.747 72.2288Z" fill="#A6DDC6"/>
<path opacity="0.66" d="M306.567 72.284L228.151 72.2701C226.714 72.2755 225.568 71.0958 225.563 69.6583L225.545 69.5822C225.54 68.1446 226.72 66.9986 228.157 66.9933L306.573 67.0071C308.011 67.0018 309.157 68.1814 309.162 69.619L309.179 69.6951C309.167 71.0566 308.005 72.2786 306.567 72.284Z" fill="#A6DDC6"/>
<rect x="0.78125" y="82.9199" width="661.239" height="265.211" rx="30" fill="#89BEAA" fill-opacity="0.2"/>
<path d="M24.3672 127.955H639.141V305.255C639.141 316.3 630.187 325.255 619.141 325.255H44.3672C33.3215 325.255 24.3672 316.3 24.3672 305.255V127.955Z" fill="#FFB7D0"/>
<g clip-path="url(#clip0_3308_13615)">
<mask id="mask0_3308_13615" style="mask-type:luminance" maskUnits="userSpaceOnUse" x="71" y="188" width="521" height="78">
<path d="M591.968 188.002H71.5547V265.206H591.968V188.002Z" fill="white"/>
</mask>
<g mask="url(#mask0_3308_13615)">
<mask id="mask1_3308_13615" style="mask-type:luminance" maskUnits="userSpaceOnUse" x="71" y="188" width="521" height="78">
<path d="M591.968 188.002H71.5547V265.206H591.968V188.002Z" fill="white"/>
</mask>
<g mask="url(#mask1_3308_13615)">
<path d="M159.549 248.873L145.259 264.128C144.945 264.466 144.574 264.732 144.154 264.917C143.735 265.102 143.283 265.198 142.832 265.206H75.0916C74.7691 265.206 74.4546 265.11 74.1804 264.933C73.9143 264.756 73.6965 264.506 73.5675 264.209C73.4385 263.911 73.3981 263.59 73.4546 263.268C73.511 262.954 73.6562 262.657 73.8739 262.416L88.1639 247.136C88.4784 246.798 88.8493 246.532 89.2687 246.347C89.688 246.162 90.1396 246.066 90.5912 246.058H158.331C158.654 246.058 158.976 246.146 159.251 246.331C159.525 246.508 159.743 246.766 159.872 247.063C160.001 247.361 160.041 247.69 159.985 248.012C159.928 248.334 159.775 248.631 159.549 248.865V248.873ZM145.259 218.104C144.953 217.766 144.574 217.5 144.154 217.315C143.735 217.13 143.283 217.034 142.824 217.034H75.0916C74.7691 217.034 74.4546 217.13 74.1804 217.299C73.9062 217.476 73.6965 217.726 73.5675 218.023C73.4385 218.321 73.3981 218.642 73.4546 218.964C73.511 219.278 73.6562 219.575 73.8739 219.808L88.1639 235.113C88.4703 235.45 88.8493 235.716 89.2687 235.901C89.688 236.086 90.1396 236.182 90.5993 236.182H158.339C158.662 236.182 158.976 236.086 159.251 235.917C159.517 235.74 159.735 235.491 159.864 235.193C159.993 234.895 160.033 234.574 159.976 234.252C159.92 233.938 159.775 233.641 159.557 233.408L145.267 218.104H145.259ZM75.0916 207.118H142.832C143.291 207.118 143.743 207.013 144.154 206.829C144.574 206.644 144.945 206.378 145.259 206.04L159.549 190.793C159.767 190.559 159.912 190.262 159.968 189.94C160.025 189.626 159.984 189.297 159.855 188.999C159.726 188.702 159.517 188.452 159.243 188.275C158.976 188.098 158.662 188.002 158.339 188.002H90.5912C90.1316 188.002 89.68 188.107 89.2687 188.291C88.8493 188.476 88.4784 188.742 88.1639 189.08L73.8739 204.335C73.6562 204.569 73.511 204.866 73.4546 205.188C73.3981 205.502 73.4385 205.831 73.5675 206.129C73.6965 206.426 73.9062 206.676 74.1804 206.853C74.4465 207.03 74.7691 207.126 75.0916 207.126V207.118Z" fill="url(#paint0_linear_3308_13615)"/>
<path d="M241.686 220.596H205.47V208.589H251.114V196.582H205.381C202.212 196.582 199.171 197.837 196.93 200.072C194.688 202.308 193.43 205.34 193.43 208.5V220.684C193.43 222.252 193.736 223.805 194.341 225.244C194.946 226.692 195.825 228.003 196.93 229.112C199.171 231.348 202.212 232.603 205.381 232.603H241.598V244.609H194.285V256.616H241.678C244.848 256.616 247.888 255.362 250.13 253.126C252.372 250.89 253.63 247.858 253.63 244.698V232.514C253.63 230.946 253.323 229.394 252.718 227.954C252.114 226.507 251.235 225.196 250.13 224.086C249.025 222.976 247.702 222.1 246.251 221.505C244.799 220.901 243.243 220.596 241.678 220.596H241.686Z" fill="black"/>
<path d="M311.773 196.582H275.459C272.29 196.582 269.25 197.837 267.008 200.072C264.766 202.308 263.508 205.34 263.508 208.5V244.698C263.508 247.858 264.766 250.89 267.008 253.126C269.25 255.362 272.29 256.616 275.459 256.616H311.773C313.345 256.616 314.894 256.311 316.345 255.708C317.797 255.104 319.111 254.228 320.224 253.126C321.337 252.016 322.216 250.705 322.813 249.258C323.409 247.81 323.724 246.258 323.716 244.698V208.5C323.716 206.932 323.409 205.388 322.813 203.941C322.216 202.493 321.337 201.182 320.224 200.072C319.111 198.962 317.797 198.086 316.345 197.491C314.894 196.888 313.337 196.582 311.773 196.582ZM311.676 244.618H275.548V208.589H311.676V244.618Z" fill="black"/>
<path d="M439.005 196.582H403.522C401.949 196.582 400.393 196.888 398.949 197.491C397.506 198.094 396.183 198.971 395.07 200.073C393.957 201.182 393.078 202.493 392.482 203.941C391.885 205.388 391.57 206.94 391.57 208.501V256.625H403.61V236.897H438.875V256.625H450.915V208.501C450.915 205.348 449.666 202.316 447.432 200.081C445.198 197.845 442.166 196.582 439.005 196.574V196.582ZM438.924 224.89H403.659V208.589H438.924V224.89Z" fill="black"/>
<path d="M580.011 196.582H544.528C541.367 196.59 538.335 197.853 536.101 200.088C533.867 202.324 532.617 205.348 532.617 208.508V256.632H544.657V236.905H579.922V256.632H591.962V208.5C591.962 206.932 591.656 205.38 591.051 203.941C590.454 202.493 589.567 201.182 588.462 200.072C587.35 198.962 586.035 198.086 584.584 197.491C583.132 196.896 581.576 196.582 580.011 196.582ZM579.922 224.89H544.657V208.589H579.922V224.89Z" fill="black"/>
<path d="M509.856 244.618H505.042L487.841 201.576C487.244 200.097 486.212 198.826 484.881 197.933C483.551 197.041 481.978 196.574 480.381 196.582H469.632C467.519 196.582 465.495 197.419 463.995 198.906C462.503 200.394 461.664 202.421 461.664 204.528V256.632H473.704V208.589H478.518L495.784 251.63C496.381 253.11 497.405 254.381 498.728 255.265C500.05 256.158 501.615 256.633 503.211 256.624H513.961C515.009 256.624 516.042 256.415 517.009 256.021C517.977 255.627 518.856 255.04 519.598 254.3C520.34 253.56 520.929 252.684 521.324 251.719C521.727 250.754 521.929 249.724 521.929 248.679V196.582H509.889L509.856 244.618Z" fill="black"/>
<path d="M346.478 196.582H334.438V244.706C334.438 247.867 335.696 250.898 337.937 253.134C340.179 255.37 343.22 256.624 346.389 256.624H382.606V244.617H346.478V196.582Z" fill="black"/>
</g>
</g>
</g>
<ellipse cx="331.754" cy="127.596" rx="307.387" ry="15.3693" fill="#FFCEE0"/>
<circle cx="57.9963" cy="162.692" r="13.4338" fill="#FFCEE0"/>
<circle cx="87.1539" cy="161.896" r="5.22424" fill="#FFCEE0"/>
<defs>
<linearGradient id="paint0_linear_3308_13615" x1="80.7366" y1="267.056" x2="151.556" y2="186.996" gradientUnits="userSpaceOnUse">
<stop offset="0.08" stop-color="#7B5CA7"/>
<stop offset="0.3" stop-color="#745FA9"/>
<stop offset="0.5" stop-color="#5697D1"/>
<stop offset="0.6" stop-color="#42B4CA"/>
<stop offset="0.72" stop-color="#5EC3AC"/>
<stop offset="0.97" stop-color="#70C388"/>
</linearGradient>
<clipPath id="clip0_3308_13615">
<rect width="520.413" height="77.2042" fill="white" transform="translate(71.5547 188.002)"/>
</clipPath>
</defs>
</svg>
