<svg width="415" height="219" viewBox="0 0 415 219" fill="none" xmlns="http://www.w3.org/2000/svg">
<path d="M258.251 50.194L140.318 50.2225C136.911 50.2405 134.142 49.3114 134.143 48.2075L134.148 28.0397L264.378 28.0399L264.374 48.2075C264.42 49.3006 261.669 50.2237 258.251 50.194Z" fill="#633A14"/>
<path d="M264.403 28.1852C264.419 26.9273 235.241 25.8998 199.274 25.9058C163.306 25.9117 134.141 26.9379 134.172 28.185C134.203 29.4321 163.334 30.4707 199.301 30.4647C208.026 30.4482 216.29 30.3856 223.889 30.2725L230.775 36.5415L237.974 29.9975C253.995 29.6356 264.373 28.9442 264.403 28.1852Z" fill="#FFB23E"/>
<path opacity="0.66" d="M264.21 51.9528L134.431 51.9511C132.781 51.9731 131.47 50.6141 131.448 48.9636L131.465 41.9367C131.443 40.2862 132.802 38.9755 134.452 38.9535L264.231 38.9552C265.882 38.9332 267.192 40.2925 267.214 41.9429L267.198 48.9698C267.172 50.6311 265.824 51.9893 264.21 51.9528Z" fill="#89BEAA"/>
<path opacity="0.66" d="M136.192 45.3315C137.089 45.1288 137.651 44.2381 137.448 43.3419C137.246 42.4457 136.355 41.8836 135.459 42.0862C134.562 42.2889 134 43.1796 134.203 44.0757C134.405 44.9719 135.296 45.5341 136.192 45.3315Z" fill="#A6DDC6"/>
<path opacity="0.66" d="M191.941 45.3683L142.727 45.3597C141.825 45.363 141.105 44.6226 141.102 43.7204L141.091 43.6726C141.088 42.7704 141.828 42.0512 142.73 42.0478L191.945 42.0565C192.847 42.0532 193.566 42.7935 193.57 43.6957L193.581 43.7435C193.573 44.598 192.844 45.365 191.941 45.3683Z" fill="#A6DDC6"/>
<rect y="52.0371" width="415" height="166.449" rx="30" fill="#89BEAA" fill-opacity="0.2"/>
<path d="M15 89C15 77.9543 23.9543 69 35 69H381C392.046 69 401 77.9543 401 89V184C401 195.046 392.046 204 381 204H35C23.9543 204 15 195.046 15 184V89Z" fill="#ECFFB4"/>
<circle cx="35.9077" cy="92.4312" r="8.43115" fill="white"/>
<circle cx="54.2124" cy="91.9331" r="3.27878" fill="white"/>
<g clip-path="url(#clip0_3308_13675)">
<path d="M83.7273 114C85.7424 114.335 87.7576 114.625 89.697 115.334C95.4621 117.43 98.2348 122.713 98.6667 127.851C98.7273 128.537 98.4091 128.812 97.7576 128.804C95.2651 128.804 92.7727 128.804 90.2879 128.804C89.7652 128.804 89.5379 128.56 89.3788 128.049C88.0909 123.925 86.0606 122.332 81.7273 122.065C79.8409 121.951 77.9545 122.012 76.1515 122.736C74.0758 123.567 73.0909 125.183 72.9848 127.318C72.9015 129.063 74.0909 130.085 75.4773 130.87C77.5 132.013 79.7727 132.417 81.9697 133.042C84.947 133.889 87.9318 134.689 90.9015 135.535C94.9773 136.694 98.3864 138.821 99.5909 143.113C101.538 150.05 99.5076 158.473 90.5833 161.217C85.1288 162.902 79.5606 162.963 74.0606 161.5C68.1439 159.922 64.4242 156.095 63.1818 149.996C63.1439 149.76 63.0682 149.531 63 149.303C63 148.495 63 147.694 63 146.886C65.6894 146.863 68.3788 146.886 71.0682 146.802C72.0833 146.772 72.5 147.153 72.6818 148.113C73.197 150.926 74.9924 152.611 77.5985 153.549C78.7045 153.945 79.8561 154.136 81.0152 154.235C83.5606 154.456 86.0682 154.258 88.4015 153.061C90.8561 151.803 92.1212 147.313 88.7424 145.262C88.0227 144.828 87.2955 144.393 86.5303 144.05C84.4697 143.128 82.2879 142.579 80.0833 142.106C77.0227 141.443 73.947 140.856 71.0303 139.659C69.1894 138.905 67.4773 137.982 66.2197 136.359C63.5455 132.89 63 128.949 63.8182 124.802C64.8864 119.397 68.4773 116.371 73.5909 114.915C75.2576 114.442 76.9773 114.305 78.6667 114H83.7273Z" fill="#143157"/>
<path d="M330.398 146.399C330.398 150.996 330.368 155.585 330.421 160.182C330.436 161.348 330.058 161.782 328.906 161.691C327.391 161.577 325.853 161.836 324.338 161.538C321.724 161.028 320.391 159.389 320.383 156.713C320.376 150.668 320.398 144.623 320.376 138.585C320.368 135.65 319.027 133.707 316.626 133.051C315.126 132.639 313.618 132.616 312.111 133.051C309.686 133.737 308.217 135.727 308.209 138.494C308.186 145.545 308.202 152.597 308.202 159.648C308.202 161 307.512 161.676 306.133 161.676C304.126 161.676 302.118 161.63 300.111 161.691C299.005 161.729 298.656 161.325 298.664 160.227C298.701 153.1 298.709 145.964 298.664 138.837C298.648 136.405 297.959 134.225 295.421 133.287C291.376 131.785 286.542 133.219 286.535 139.157C286.527 146.125 286.535 153.1 286.535 160.067C286.535 161.66 286.52 161.676 284.914 161.676C282.701 161.676 280.497 161.653 278.285 161.683C277.406 161.699 276.967 161.455 276.974 160.464C277.012 153.13 276.906 145.797 277.035 138.463C277.156 131.633 281.239 126.899 287.974 125.496C292.558 124.544 297.148 124.589 301.338 126.83C303.065 127.753 304.133 127.783 305.845 126.83C308.83 125.169 312.201 124.81 315.641 124.986C318.717 125.146 321.709 125.603 324.55 126.823C326.376 127.608 328.05 128.614 329.398 130.116C330.103 130.894 330.436 131.77 330.421 132.853C330.376 137.366 330.406 141.878 330.406 146.391L330.398 146.399Z" fill="#143157"/>
<path d="M101.804 157.733C101.804 152.656 101.766 147.579 101.819 142.502C101.85 139.796 102.213 137.128 103.107 134.551C104.433 130.716 106.94 127.972 110.744 126.531C114.887 124.969 119.145 124.458 123.501 125.472C129.183 126.791 133.031 130.213 134.6 135.885C136.236 141.778 136.168 147.701 133.842 153.418C131.948 158.076 128.736 161.491 123.554 162.284C119.668 162.878 115.857 162.368 112.387 160.294C112.084 160.111 111.781 159.692 111.456 159.86C111.054 160.073 111.274 160.591 111.266 160.965C111.251 163.907 111.266 166.85 111.251 169.785C111.244 173.017 109.304 174.946 106.054 174.969C105.092 174.969 104.122 174.915 103.16 174.984C102.077 175.06 101.774 174.572 101.781 173.558C101.812 168.283 101.797 163 101.797 157.725L101.804 157.733ZM126.107 143.607C126.092 141.625 125.819 139.399 124.85 137.318C123.494 134.414 121.137 133.232 118.024 133.407C115.13 133.568 113.304 135.161 112.244 137.783C111.759 138.988 111.486 140.245 111.38 141.534C111.1 144.728 111.092 147.914 112.728 150.819C114.122 153.304 116.365 154.401 119.145 154.302C121.834 154.203 123.751 152.831 124.872 150.369C125.804 148.318 126.115 146.138 126.115 143.615L126.107 143.607Z" fill="#143157"/>
<path d="M158.645 146.23C155.387 146.23 152.137 146.23 148.88 146.23C147.774 146.23 147.286 146.767 147.418 147.839C147.812 151.124 149.501 153.305 152.243 153.922C153.94 154.311 155.668 154.319 157.372 153.945C158.986 153.594 160.281 152.748 161.024 151.239C161.372 150.53 161.834 150.225 162.622 150.24C164.546 150.271 166.478 150.233 168.41 150.255C169.607 150.271 169.766 150.492 169.38 151.65C167.44 157.414 163.372 160.737 157.501 161.896C155.281 162.33 153.016 162.338 150.789 162.018C144.221 161.073 140.16 157.185 138.395 150.903C136.933 145.712 136.956 140.46 138.645 135.307C140.653 129.17 145.622 125.419 152.039 125.084C155.743 124.886 159.357 125.336 162.63 127.234C167.16 129.856 169.031 134.163 169.834 139.08C170.153 141.024 170.259 142.998 170.296 144.973C170.312 145.895 169.971 146.253 169.024 146.238C165.569 146.2 162.115 146.223 158.66 146.223L158.645 146.23ZM153.637 140.04C155.524 140.04 157.41 140.04 159.296 140.04C159.857 140.04 160.334 140.04 160.266 139.217C159.971 135.65 157.516 133.203 154.13 133.149C150.304 133.088 147.637 135.352 147.228 138.973C147.137 139.781 147.433 140.063 148.221 140.048C150.024 140.018 151.834 140.04 153.637 140.04Z" fill="#143157"/>
<path d="M253.228 138.226C253.228 141.649 253.228 145.079 253.228 148.502C253.228 152.352 255.304 154.547 258.993 154.57C262.865 154.593 265.168 152.337 265.175 148.449C265.19 142.724 265.175 137.007 265.175 131.282C265.175 127.6 266.971 125.808 270.653 125.801C271.615 125.801 272.584 125.823 273.546 125.801C274.38 125.778 274.683 126.151 274.683 126.959C274.668 134.209 274.827 141.474 274.622 148.716C274.395 156.811 269.221 161.751 260.971 162.148C258.395 162.269 255.842 162.148 253.327 161.469C247.842 159.998 244.183 155.622 243.713 149.935C243.319 145.148 243.607 140.353 243.531 135.558C243.493 132.738 243.539 129.917 243.516 127.097C243.509 126.205 243.781 125.762 244.759 125.778C247.168 125.823 249.577 125.816 251.986 125.778C252.956 125.762 253.236 126.189 253.228 127.089C253.198 130.794 253.213 134.506 253.213 138.211L253.228 138.226Z" fill="#143157"/>
<path d="M199.116 137.014C198.472 137.014 197.828 136.968 197.192 137.022C195.593 137.167 194.51 136.801 193.449 135.284C190.858 131.602 184.154 132.638 182.48 136.946C180.752 141.39 180.851 145.948 182.646 150.377C183.661 152.878 185.646 154.189 188.411 154.128C189.01 154.113 189.616 154.128 190.214 154.098C192.29 153.983 193.942 153.167 194.851 151.193C195.161 150.515 195.624 150.248 196.358 150.255C198.608 150.278 200.858 150.286 203.101 150.255C204.048 150.24 204.29 150.56 204.017 151.49C202.283 157.345 196.487 161.896 190.328 162.17C187.548 162.292 184.79 162.201 182.131 161.21C176.533 159.129 173.654 154.799 172.472 149.181C171.555 144.82 171.828 140.445 172.964 136.153C174.555 130.153 178.419 126.54 184.54 125.442C189.283 124.589 193.843 125.015 197.934 127.805C200.783 129.749 202.646 132.471 203.714 135.764C203.995 136.633 203.858 137.06 202.843 137.022C201.601 136.976 200.351 137.014 199.108 137.014H199.116Z" fill="#143157"/>
<path d="M206.112 136.495C206.112 130.054 206.112 123.605 206.112 117.163C206.112 115.448 206.112 115.433 207.877 115.448C209.158 115.463 210.446 115.326 211.726 115.562C213.839 115.943 215.059 117.194 215.423 119.297C215.741 121.142 215.582 122.995 215.589 124.839C215.589 125.716 215.893 126.082 216.786 126.036C217.786 125.983 218.794 126.052 219.794 126.021C220.589 125.998 220.968 126.28 220.961 127.134C220.93 129.589 220.93 132.051 220.961 134.506C220.968 135.367 220.582 135.626 219.786 135.603C218.786 135.565 217.771 135.657 216.779 135.58C215.726 135.497 215.4 135.878 215.4 136.945C215.438 144.355 215.423 151.764 215.415 159.174C215.415 161.636 215.665 161.446 213.15 161.453C212.749 161.453 212.347 161.453 211.946 161.453C208.006 161.453 206.135 159.593 206.12 155.576C206.097 149.211 206.12 142.853 206.112 136.488V136.495Z" fill="#143157"/>
<path d="M241.206 130.709C241.206 131.959 241.176 133.209 241.214 134.452C241.237 135.29 240.896 135.588 240.077 135.588C238.6 135.588 237.115 135.481 235.638 135.801C233.017 136.365 231.35 137.974 230.888 140.611C230.706 141.633 230.615 142.692 230.608 143.729C230.577 149.126 230.562 154.516 230.623 159.913C230.638 161.125 230.29 161.537 229.062 161.491C226.82 161.4 224.57 161.438 222.32 161.476C221.388 161.491 221.047 161.171 221.047 160.226C221.077 154.264 220.956 148.303 221.115 142.357C221.237 137.859 222.57 133.712 225.949 130.488C228.873 127.698 232.502 126.531 236.396 126.051C237.585 125.906 238.797 125.899 239.994 125.8C240.865 125.731 241.244 126.066 241.214 126.966C241.168 128.209 241.206 129.459 241.199 130.709H241.206Z" fill="#143157"/>
<path d="M332.753 146.618C332.753 142.189 332.753 137.76 332.753 133.331C332.753 132.943 332.587 132.432 332.958 132.203C333.39 131.936 333.678 132.439 333.965 132.66C339.791 137.082 345.594 141.526 351.428 145.94C352.208 146.527 352.162 146.862 351.397 147.442C345.594 151.825 339.821 156.254 334.034 160.652C333.731 160.881 333.42 161.323 333.003 161.133C332.571 160.935 332.746 160.416 332.746 160.035C332.738 155.568 332.746 151.093 332.746 146.626L332.753 146.618Z" fill="#0B98D6"/>
</g>
<defs>
<clipPath id="clip0_3308_13675">
<rect width="289" height="61" fill="white" transform="translate(63 114)"/>
</clipPath>
</defs>
</svg>
