<svg width="413" height="227" viewBox="0 0 413 227" fill="none" xmlns="http://www.w3.org/2000/svg">
<path d="M276.656 59.8258L119.162 59.8541C115.777 59.872 113.027 58.9491 113.028 57.8526L113.033 37.8197L282.743 37.8199L282.738 57.8526C282.784 58.9384 280.051 59.8553 276.656 59.8258Z" fill="#633A14"/>
<path d="M282.457 38.0086C282.474 36.7591 233.639 35.6929 197.912 35.6989C162.186 35.7048 113.157 36.7678 113.188 38.0065C113.219 39.2453 162.213 40.2332 197.94 40.2273C206.607 40.211 214.814 40.1488 222.363 40.0364L229.203 46.2635L236.353 39.7633C252.268 39.4038 282.428 38.7626 282.457 38.0086Z" fill="#FFB23E"/>
<path opacity="0.66" d="M288.912 61.5723L107.546 61.5706C105.906 61.5925 104.604 60.2425 104.583 58.6031L104.599 51.6232C104.577 49.9838 105.927 48.6819 107.566 48.66L288.933 48.6617C290.572 48.6398 291.874 49.9899 291.896 51.6294L291.88 58.6093C291.854 60.2594 290.515 61.6085 288.912 61.5723Z" fill="#89BEAA"/>
<path opacity="0.66" d="M111.059 54.9958C111.95 54.7945 112.508 53.9098 112.307 53.0196C112.106 52.1294 111.221 51.571 110.331 51.7723C109.44 51.9735 108.882 52.8583 109.083 53.7485C109.284 54.6387 110.169 55.1971 111.059 54.9958Z" fill="#A6DDC6"/>
<path opacity="0.66" d="M166.435 55.0304L117.55 55.0218C116.653 55.0251 115.939 54.2897 115.936 53.3936L115.925 53.3461C115.922 52.4499 116.657 51.7355 117.553 51.7322L166.439 51.7408C167.335 51.7375 168.049 52.4729 168.053 53.369L168.063 53.4165C168.056 54.2653 167.331 55.0271 166.435 55.0304Z" fill="#A6DDC6"/>
<rect y="61.668" width="412.223" height="165.335" rx="82.6675" fill="#89BEAA" fill-opacity="0.2"/>
<path d="M14.5312 144.338C14.5312 107.568 44.3394 77.7598 81.1096 77.7598H331.283C368.053 77.7598 397.861 107.568 397.861 144.338C397.861 181.108 368.053 210.917 331.283 210.917H81.1096C44.3394 210.917 14.5312 181.108 14.5312 144.338Z" fill="#B5EFDA"/>
<circle cx="43.7419" cy="112.97" r="8.37474" fill="#D5FDFD"/>
<circle cx="57.3584" cy="94.8818" r="3.25684" fill="#D5FDFD"/>
<path d="M117.25 175H87.673C82.8858 175 79 171.197 79 166.497V133.503C79 128.81 82.879 125 87.673 125H130L117.25 175Z" fill="#006EA9"/>
<path d="M117.5 117H146.497C151.19 117 155 120.802 155 125.502V158.498C155 163.191 151.197 167 146.497 167H105L117.5 117Z" fill="#8874B5"/>
<path d="M117.5 117H146.497C151.19 117 155 120.802 155 125.502V158.498C155 163.191 151.197 167 146.497 167H105L117.5 117Z" fill="url(#paint0_linear_3308_13754)"/>
<path d="M172 125H178.289L187.57 155.05L197.368 125H202.928L212.209 155.05L221.931 125H228L215.574 161.925H208.996L200.003 134.485L190.646 161.925L184.068 162L172.007 125H172Z" fill="black"/>
<path d="M264.986 125.427V161.573H259.898L259.108 155.763C256.051 159.919 251.866 162 246.561 162C243.166 162 240.129 161.266 237.457 159.805C234.825 158.338 232.746 156.217 231.22 153.429C229.736 150.641 229 147.332 229 143.503C229 139.675 229.742 136.653 231.22 133.865C232.753 131.077 234.852 128.902 237.531 127.341C240.21 125.78 243.22 125 246.568 125C249.484 125 251.994 125.54 254.1 126.628C256.206 127.715 257.88 129.202 259.121 131.09L259.911 125.42H265L264.986 125.427ZM247.128 156.824C249.47 156.824 251.549 156.284 253.364 155.196C255.227 154.062 256.665 152.502 257.67 150.52C258.676 148.486 259.175 146.198 259.175 143.643C259.175 141.089 258.676 138.727 257.67 136.7C256.665 134.619 255.234 133.011 253.364 131.877C251.549 130.743 249.47 130.176 247.128 130.176C243.497 130.176 240.555 131.43 238.307 133.931C236.107 136.386 235.007 139.575 235.007 143.497C235.007 147.419 236.107 150.634 238.307 153.135C240.555 155.59 243.497 156.824 247.128 156.824Z" fill="black"/>
<path d="M292 125V130.803H288.99C285.42 130.803 282.852 131.99 281.285 134.359C279.766 136.728 279.013 139.657 279.013 143.138V162H273V125H278.206L279.013 130.584C280.09 128.891 281.485 127.539 283.197 126.522C284.91 125.505 287.278 125 290.315 125H292Z" fill="black"/>
<path d="M315.917 125.007C319.218 125.007 322.145 125.744 324.704 127.212C327.31 128.686 329.331 130.818 330.769 133.62C332.258 136.421 333 139.746 333 143.593C333 147.44 332.258 150.477 330.769 153.278C329.331 156.08 327.303 158.265 324.704 159.833C322.099 161.402 319.172 162.186 315.917 162.186C313.036 162.186 310.568 161.663 308.527 160.618C306.479 159.525 304.878 158.05 303.716 156.201V176H298V125.429H302.948L303.716 131.267C306.689 127.091 310.758 125 315.917 125V125.007ZM315.359 156.978C318.89 156.978 321.731 155.745 323.864 153.272C326.05 150.758 327.146 147.527 327.146 143.586C327.146 139.645 326.05 136.441 323.864 133.975C321.725 131.461 318.89 130.201 315.359 130.201C313.082 130.201 311.034 130.771 309.223 131.91C307.457 133.003 306.085 134.571 305.108 136.609C304.13 138.606 303.644 140.885 303.644 143.446C303.644 146.006 304.13 148.405 305.108 150.497C306.085 152.541 307.457 154.129 309.223 155.269C311.034 156.408 313.082 156.978 315.359 156.978Z" fill="black"/>
<defs>
<linearGradient id="paint0_linear_3308_13754" x1="118.832" y1="153.953" x2="159.91" y2="120.489" gradientUnits="userSpaceOnUse">
<stop stop-color="#499BD5"/>
<stop offset="0.79" stop-color="#71C7AA"/>
</linearGradient>
</defs>
</svg>
