<svg width="415" height="219" viewBox="0 0 415 219" fill="none" xmlns="http://www.w3.org/2000/svg">
<path d="M258.251 50.194L140.318 50.2225C136.911 50.2405 134.142 49.3114 134.143 48.2075L134.148 28.0397L264.378 28.0399L264.374 48.2075C264.42 49.3006 261.669 50.2237 258.251 50.194Z" fill="#633A14"/>
<path d="M264.403 28.1852C264.419 26.9273 235.241 25.8998 199.274 25.9058C163.306 25.9117 134.141 26.9379 134.172 28.185C134.203 29.4321 163.334 30.4707 199.301 30.4647C208.026 30.4482 216.29 30.3856 223.889 30.2725L230.775 36.5415L237.974 29.9975C253.995 29.6356 264.373 28.9442 264.403 28.1852Z" fill="#FFB23E"/>
<path opacity="0.66" d="M264.21 51.9528L134.431 51.9511C132.781 51.9731 131.47 50.6141 131.448 48.9636L131.465 41.9367C131.443 40.2862 132.802 38.9755 134.452 38.9535L264.231 38.9552C265.882 38.9332 267.192 40.2925 267.214 41.9429L267.198 48.9698C267.172 50.6311 265.824 51.9893 264.21 51.9528Z" fill="#89BEAA"/>
<path opacity="0.66" d="M136.192 45.3315C137.089 45.1288 137.651 44.2381 137.448 43.3419C137.246 42.4457 136.355 41.8836 135.459 42.0862C134.562 42.2889 134 43.1796 134.203 44.0757C134.405 44.9719 135.296 45.5341 136.192 45.3315Z" fill="#A6DDC6"/>
<path opacity="0.66" d="M191.941 45.3683L142.727 45.3597C141.825 45.363 141.105 44.6226 141.102 43.7204L141.091 43.6726C141.088 42.7704 141.828 42.0512 142.73 42.0478L191.945 42.0565C192.847 42.0532 193.566 42.7935 193.57 43.6957L193.581 43.7435C193.573 44.598 192.844 45.365 191.941 45.3683Z" fill="#A6DDC6"/>
<rect y="52.0371" width="415" height="166.449" rx="30" fill="#89BEAA" fill-opacity="0.2"/>
<path d="M14.8047 80.3027H400.643V184.13C400.643 195.175 391.688 204.13 380.643 204.13H34.8047C23.759 204.13 14.8047 195.175 14.8047 184.13V80.3027Z" fill="#FFB8C9"/>
<ellipse cx="207.724" cy="80.0756" rx="192.919" ry="9.64595" fill="#FFD5D5"/>
<circle cx="35.9077" cy="102.101" r="8.43115" fill="white"/>
<circle cx="54.2085" cy="101.603" r="3.27878" fill="white"/>
<g clip-path="url(#clip0_3308_13702)">
<path d="M360.002 159.898C357.657 159.881 355.322 159.84 352.978 159.865C352.287 159.865 352.007 159.7 351.884 158.961C350.757 152.537 349.581 146.113 348.232 139.639C348.141 139.911 348.026 140.182 347.952 140.461C346.316 146.589 344.662 152.718 343.067 158.863C342.861 159.659 342.54 159.898 341.734 159.873C340.056 159.807 338.37 159.815 336.692 159.873C335.977 159.898 335.714 159.618 335.525 158.986C333.608 152.751 331.667 146.515 329.734 140.288C329.619 139.927 329.488 139.574 329.274 138.958C328.673 142.219 328.114 145.209 327.563 148.199C326.889 151.855 326.239 155.503 325.548 159.158C325.499 159.413 325.219 159.824 325.038 159.832C322.702 159.881 320.366 159.865 317.891 159.865C320.062 149.514 322.2 139.278 324.355 129.001C327.144 129.001 329.849 129.017 332.547 128.993C333.172 128.993 333.189 129.428 333.296 129.806C334.932 135.22 336.553 140.642 338.189 146.055C338.387 146.704 338.584 147.345 338.864 148.241C339.3 146.86 339.662 145.727 340.015 144.593C341.529 139.672 343.05 134.752 344.547 129.831C344.728 129.231 344.975 128.976 345.658 128.985C348.15 129.034 350.642 129.026 353.134 128.985C353.784 128.976 353.989 129.182 354.113 129.806C355.996 139.475 357.904 149.136 359.812 158.805C359.854 159.002 359.952 159.183 360.018 159.38V159.922L360.002 159.898Z" fill="black"/>
<path d="M69.18 131.096C68.9414 128.664 68.7111 126.282 68.4726 123.9C68.2341 121.517 67.9956 119.135 67.7406 116.679C70.0024 117.673 72.1985 118.634 74.3862 119.595C76.5823 120.556 78.7783 121.517 81.0319 122.503C83.4582 118.355 85.8763 114.223 88.3519 110C90.8112 114.198 93.2375 118.33 95.6802 122.503C100.113 120.564 104.514 118.634 108.963 116.687C108.478 121.526 108.001 126.29 107.524 131.096C112.245 132.123 116.925 133.142 121.703 134.185C118.446 137.832 115.263 141.406 112.048 145.004C115.263 148.61 118.455 152.184 121.695 155.823C120.47 156.094 119.318 156.349 118.159 156.595C114.77 157.335 111.39 158.074 108.001 158.789C107.598 158.871 107.507 159.027 107.549 159.413C107.828 162.05 108.083 164.679 108.346 167.316C108.544 169.279 108.741 171.243 108.955 173.313C104.497 171.358 100.113 169.436 95.6638 167.489C93.2375 171.637 90.8194 175.769 88.3437 179.992C85.8845 175.794 83.4582 171.662 81.0154 167.489C76.5905 169.427 72.1902 171.35 67.7242 173.305C68.2094 168.458 68.6865 163.693 69.1635 158.887C64.4342 157.861 59.7461 156.834 54.9922 155.799C58.2245 152.176 61.4322 148.586 64.6481 144.988C61.4404 141.398 58.2574 137.832 55.0004 134.185C59.7543 133.15 64.426 132.131 69.1717 131.096H69.18ZM77.3472 129.675C77.3472 130.176 77.339 130.628 77.3472 131.08C77.4294 133.98 77.5199 136.879 77.5775 139.779C77.5857 140.19 77.7008 140.379 78.0956 140.511C81.073 141.488 84.0422 142.499 87.0113 143.493C87.1264 143.534 87.2416 143.542 87.365 143.575C87.3814 143.493 87.3979 143.443 87.3979 143.402C87.3979 140.124 87.3979 136.847 87.4061 133.569C87.4061 133.224 87.2087 133.166 86.962 133.076C83.9023 131.992 80.8509 130.907 77.7913 129.823C77.6515 129.774 77.5034 129.732 77.339 129.683L77.3472 129.675ZM89.3142 143.558C89.4047 143.55 89.4705 143.558 89.5281 143.534C92.6288 142.49 95.7378 141.455 98.8386 140.395C98.9619 140.354 99.0853 140.124 99.0935 139.985C99.2005 136.699 99.2909 133.405 99.3814 130.11C99.3814 129.979 99.3732 129.839 99.3649 129.675C99.258 129.708 99.1758 129.716 99.11 129.741C95.9517 130.858 92.7933 131.983 89.6268 133.092C89.2978 133.207 89.306 133.413 89.306 133.667C89.306 136.822 89.306 139.968 89.306 143.123C89.306 143.263 89.3225 143.394 89.3307 143.55L89.3142 143.558ZM86.7975 145.44C86.6083 145.366 86.4685 145.308 86.3204 145.259C83.3677 144.265 80.415 143.279 77.4623 142.269C77.1169 142.154 76.9359 142.211 76.7221 142.49C75.0196 144.725 73.3006 146.935 71.5898 149.161C71.2362 149.613 70.8907 150.073 70.5206 150.549C70.6522 150.607 70.7344 150.648 70.8249 150.672C74.0244 151.617 77.2238 152.554 80.4232 153.507C80.7111 153.597 80.8427 153.507 80.999 153.293C82.5535 151.174 84.1244 149.054 85.6871 146.935C86.049 146.442 86.4109 145.957 86.7975 145.431V145.44ZM106.167 150.599C106.093 150.484 106.068 150.426 106.027 150.377C103.979 147.723 101.931 145.07 99.8913 142.4C99.7104 142.162 99.5459 142.17 99.2909 142.252C96.3958 143.23 93.5007 144.199 90.6055 145.177C90.3752 145.251 90.1532 145.341 89.89 145.431C90.0134 145.604 90.0874 145.719 90.1779 145.834C92.0038 148.307 93.8379 150.771 95.6391 153.252C95.8612 153.556 96.0504 153.581 96.3711 153.49C98.3204 152.907 100.27 152.332 102.227 151.757C103.518 151.379 104.81 151.001 106.159 150.607L106.167 150.599ZM88.3437 146.573C88.2533 146.68 88.1957 146.737 88.1546 146.795C86.2711 149.342 84.3958 151.888 82.5041 154.427C82.3067 154.698 82.389 154.854 82.537 155.076C84.3876 157.762 86.2299 160.448 88.0723 163.135C88.1463 163.241 88.2368 163.348 88.3437 163.48C88.4177 163.389 88.4753 163.34 88.5164 163.274C90.4164 160.514 92.3081 157.746 94.2162 154.985C94.4054 154.706 94.282 154.566 94.134 154.377C92.2916 151.88 90.4493 149.383 88.6069 146.885C88.5329 146.787 88.4506 146.696 88.3355 146.565L88.3437 146.573ZM69.9449 170.265C70.1505 170.175 70.2656 170.134 70.3808 170.084C73.5967 168.68 76.8043 167.267 80.0285 165.87C80.3575 165.731 80.4561 165.558 80.4479 165.205C80.3657 162.272 80.3081 159.347 80.2341 156.415C80.2341 156.292 80.2094 156.177 80.193 156.02C80.012 156.07 79.864 156.094 79.7159 156.144C77.0758 156.982 74.4274 157.82 71.7872 158.649C71.0552 158.879 71.0717 158.879 71.0059 159.627C70.7756 162.026 70.5288 164.424 70.2821 166.823C70.1669 167.94 70.06 169.066 69.9449 170.265ZM106.734 170.273C106.718 170.027 106.71 169.854 106.693 169.682C106.578 168.557 106.463 167.439 106.356 166.314C106.126 163.989 105.887 161.672 105.673 159.347C105.64 158.978 105.501 158.822 105.147 158.707C102.992 158.05 100.845 157.359 98.6905 156.678C97.975 156.456 97.2676 156.226 96.5192 155.996C96.4945 156.16 96.4698 156.259 96.4698 156.365C96.3958 159.339 96.3382 162.321 96.256 165.295C96.256 165.599 96.3629 165.731 96.6261 165.837C98.452 166.626 100.27 167.431 102.096 168.228C103.617 168.893 105.139 169.559 106.743 170.257L106.734 170.273ZM101.512 140.543C101.701 140.617 101.824 140.675 101.956 140.716C104.662 141.718 107.368 142.712 110.057 143.739C110.403 143.87 110.584 143.805 110.814 143.542C113.15 140.913 115.486 138.301 117.83 135.672C117.912 135.582 117.978 135.483 118.076 135.343C117.673 135.253 117.328 135.171 116.982 135.097C113.767 134.399 110.551 133.692 107.335 132.986C107.022 132.92 106.825 132.977 106.636 133.257C106.159 133.98 105.649 134.67 105.147 135.376C103.946 137.077 102.745 138.777 101.503 140.535L101.512 140.543ZM58.6275 135.335C58.7016 135.45 58.718 135.491 58.7427 135.524C61.1526 138.227 63.5706 140.929 65.9723 143.64C66.1779 143.87 66.3424 143.829 66.5891 143.739C69.3362 142.72 72.0833 141.702 74.8304 140.691C74.9373 140.65 75.036 140.584 75.1594 140.527C75.0607 140.379 74.9867 140.256 74.9044 140.141C73.2924 137.857 71.6803 135.59 70.0847 133.298C69.8708 132.986 69.6734 132.912 69.3198 132.994C66.8852 133.536 64.4507 134.062 62.0162 134.587C60.8976 134.834 59.7872 135.08 58.6275 135.335ZM88.3273 130.989C88.4177 130.899 88.4589 130.874 88.4918 130.833C90.3094 128.517 92.1271 126.192 93.9613 123.883C94.1422 123.653 94.0682 123.505 93.9448 123.3C92.1518 120.244 90.367 117.188 88.574 114.132C88.5164 114.034 88.4342 113.943 88.3519 113.812C88.2779 113.91 88.2286 113.968 88.1875 114.025C86.3698 117.139 84.5521 120.244 82.718 123.349C82.5699 123.596 82.6522 123.735 82.8002 123.924C83.9106 125.329 85.0045 126.734 86.1066 128.147C86.8386 129.083 87.5706 130.012 88.3273 130.981V130.989ZM98.9044 154.722C99.0195 154.78 99.0606 154.813 99.0935 154.821C101.495 155.585 103.905 156.349 106.307 157.097C106.463 157.146 106.644 157.138 106.808 157.097C109.095 156.612 111.373 156.119 113.651 155.626C114.49 155.445 115.329 155.256 116.3 155.035C116.078 154.944 115.995 154.903 115.913 154.87C113.306 153.975 110.699 153.079 108.083 152.2C107.869 152.127 107.59 152.143 107.359 152.2C104.818 152.932 102.277 153.687 99.7351 154.435C99.4719 154.509 99.2087 154.599 98.8879 154.706L98.9044 154.722ZM60.5275 154.969C60.5275 154.969 60.5275 155.043 60.5357 155.084C63.6118 155.749 66.6796 156.423 69.7557 157.08C70.0189 157.138 70.315 157.121 70.5699 157.047C72.3054 156.513 74.0326 155.963 75.768 155.413C76.4178 155.207 77.0675 155.002 77.7831 154.772C77.6597 154.698 77.6104 154.657 77.561 154.64C74.7646 153.819 71.9764 152.997 69.18 152.192C68.999 152.143 68.7769 152.168 68.596 152.233C66.7865 152.841 64.9771 153.457 63.1676 154.073C62.2876 154.377 61.3993 154.681 60.5192 154.985L60.5275 154.969ZM87.3814 174.537C87.3979 174.307 87.4061 174.2 87.4061 174.102C87.4061 171.341 87.4061 168.581 87.3979 165.821C87.3979 165.591 87.2827 165.336 87.1511 165.139C85.6295 162.896 84.0833 160.662 82.5535 158.427C82.463 158.296 82.3561 158.173 82.2163 157.984C82.1916 158.14 82.1834 158.197 82.1834 158.255C82.2409 160.719 82.2903 163.176 82.3561 165.64C82.3561 165.878 82.4465 166.133 82.5617 166.347C84.0586 168.926 85.5637 171.489 87.0689 174.061C87.1429 174.184 87.2334 174.307 87.3814 174.545V174.537ZM94.4465 158.033C94.3889 158.099 94.3396 158.148 94.3067 158.189C92.6782 160.555 91.0579 162.921 89.4458 165.287C89.3389 165.443 89.2978 165.665 89.2978 165.854C89.2896 168.581 89.2978 171.309 89.2978 174.036C89.2978 174.151 89.306 174.274 89.3225 174.488C89.4458 174.332 89.5116 174.258 89.561 174.176C91.1073 171.539 92.6535 168.902 94.1833 166.256C94.2902 166.067 94.3396 165.813 94.3478 165.591C94.3972 164.26 94.4301 162.929 94.4465 161.59C94.463 160.415 94.4465 159.249 94.4465 158.025V158.033ZM106.545 121.747C106.545 121.747 106.479 121.731 106.446 121.723C106.372 121.821 106.29 121.912 106.216 122.01C104.653 124.113 103.091 126.208 101.545 128.319C101.396 128.517 101.314 128.804 101.306 129.051C101.216 131.827 101.141 134.596 101.067 137.372C101.067 137.487 101.076 137.611 101.084 137.808C101.191 137.685 101.24 137.635 101.281 137.578C102.663 135.623 104.053 133.659 105.427 131.696C105.525 131.556 105.575 131.351 105.599 131.178C105.813 129.125 106.027 127.063 106.233 125.009C106.34 123.924 106.446 122.84 106.545 121.747ZM70.1752 121.624C70.1752 121.83 70.1669 121.953 70.1752 122.076C70.4795 125.05 70.7756 128.024 71.0881 130.998C71.121 131.31 71.2362 131.638 71.4089 131.893C72.6755 133.725 73.9668 135.532 75.2499 137.348C75.3403 137.479 75.4472 137.602 75.5953 137.791C75.6117 137.652 75.6282 137.594 75.6282 137.537C75.5542 134.653 75.4719 131.77 75.3815 128.894C75.3815 128.697 75.2663 128.476 75.1429 128.303C73.5884 126.192 72.034 124.097 70.4712 121.994C70.389 121.887 70.3068 121.789 70.1669 121.624H70.1752ZM59.9435 153.121C60.1245 153.079 60.1985 153.063 60.2725 153.038C62.8798 152.151 65.4952 151.272 68.1025 150.368C68.2752 150.311 68.4397 150.147 68.5549 149.991C70.2327 147.822 71.9106 145.645 73.5802 143.476C73.646 143.386 73.7036 143.287 73.8187 143.106C73.5967 143.18 73.4651 143.213 73.3335 143.263C71.1868 144.059 69.0401 144.848 66.9017 145.661C66.622 145.768 66.3506 145.957 66.1532 146.179C64.7303 147.748 63.3239 149.333 61.9175 150.911C61.2842 151.625 60.6508 152.332 59.9435 153.129V153.121ZM116.727 153.153C116.621 153.006 116.588 152.948 116.547 152.907C114.499 150.615 112.459 148.315 110.403 146.031C110.271 145.883 110.09 145.768 109.909 145.702C108.371 145.119 106.825 144.552 105.287 143.985C104.514 143.698 103.741 143.419 102.976 143.131C103.017 143.345 103.115 143.476 103.214 143.608C104.366 145.094 105.509 146.59 106.66 148.077C107.228 148.808 107.672 149.703 108.396 150.221C109.111 150.738 110.107 150.878 110.978 151.182C110.995 151.182 111.003 151.198 111.019 151.198C112.887 151.839 114.754 152.472 116.744 153.153H116.727ZM85.3663 130.48C85.3663 130.48 85.4075 130.422 85.4239 130.39C85.3334 130.266 85.243 130.135 85.1525 130.02C83.8036 128.295 82.4548 126.561 81.0895 124.845C80.9167 124.623 80.6618 124.434 80.3986 124.319C77.7091 123.119 75.0113 121.945 72.3136 120.762C72.182 120.704 72.034 120.655 71.8201 120.573C71.9106 120.712 71.9435 120.786 71.9846 120.844C73.572 122.988 75.1512 125.124 76.755 127.26C76.8866 127.432 77.1087 127.555 77.3225 127.629C79.2224 128.319 81.1306 128.993 83.0305 129.667C83.8119 129.946 84.585 130.209 85.3663 130.488V130.48ZM91.2388 130.472C91.4033 130.439 91.5103 130.422 91.609 130.39C94.2409 129.461 96.8646 128.533 99.4883 127.588C99.6693 127.523 99.842 127.383 99.9571 127.227C101.536 125.116 103.107 123.004 104.67 120.885C104.728 120.811 104.76 120.721 104.826 120.589C104.695 120.622 104.637 120.638 104.579 120.663C101.75 121.904 98.929 123.144 96.0997 124.384C95.9517 124.45 95.8036 124.565 95.7049 124.697C94.2656 126.52 92.8345 128.344 91.4033 130.168C91.3458 130.234 91.3129 130.324 91.2306 130.455L91.2388 130.472Z" fill="#DD2328"/>
<path d="M160.07 149.908C161.378 142.777 162.628 135.91 163.886 129.034H171.412C170.918 131.416 170.45 133.724 169.964 136.033C168.361 143.681 166.748 151.321 165.161 158.977C165.029 159.602 164.84 159.881 164.133 159.865C161.789 159.815 159.445 159.815 157.109 159.865C156.435 159.881 156.18 159.643 155.999 159.027C154.28 153.26 152.536 147.501 150.801 141.742C150.718 141.455 150.628 141.175 150.472 140.674C150.282 141.208 150.143 141.545 150.036 141.898C148.284 147.591 146.524 153.276 144.796 158.977C144.599 159.626 144.328 159.873 143.62 159.856C141.128 159.807 138.636 159.832 136.144 159.848C135.626 159.848 135.354 159.774 135.239 159.166C133.298 149.177 131.333 139.187 129.375 129.198C129.375 129.173 129.391 129.14 129.416 129.042H137.263C138.48 135.712 139.697 142.408 140.914 149.103C140.988 149.103 141.054 149.111 141.128 149.119C141.391 148.158 141.671 147.205 141.926 146.244C143.382 140.781 144.846 135.318 146.285 129.847C146.458 129.19 146.729 128.943 147.437 128.96C149.147 129.017 150.858 129.025 152.569 128.96C153.317 128.927 153.597 129.198 153.803 129.88C155.752 136.205 157.726 142.514 159.7 148.824C159.79 149.103 159.889 149.374 160.07 149.908Z" fill="black"/>
<path d="M203.528 144.815C203.257 146.45 203.1 148.504 202.566 150.451C201.003 156.119 196.447 159.734 190.549 160.243C188.074 160.457 185.631 160.408 183.221 159.791C178.155 158.485 174.931 155.24 173.549 150.246C172.447 146.27 172.471 142.236 173.639 138.268C175.284 132.641 179.709 129.117 185.557 128.607C188.066 128.385 190.541 128.418 192.976 129.043C198.725 130.505 201.908 134.358 202.985 140.051C203.257 141.488 203.323 142.959 203.528 144.824V144.815ZM194.983 144.429C194.999 142.31 194.744 140.24 193.839 138.301C192.704 135.878 190.804 134.563 188.098 134.555C185.392 134.555 183.394 135.828 182.366 138.293C180.68 142.335 180.663 146.467 182.407 150.508C183.46 152.948 185.409 154.296 188.123 154.279C190.837 154.271 192.688 152.858 193.823 150.459C194.719 148.553 194.999 146.516 194.983 144.429Z" fill="black"/>
<path d="M256.806 128.976C257.118 128.976 257.381 128.976 257.644 128.976C262.152 128.976 266.651 128.968 271.158 128.976C273.066 128.976 274.933 129.239 276.685 130.028C279.818 131.441 281.208 133.881 281.036 137.651C280.888 140.904 279.144 143.221 276.027 144.289C275.838 144.355 275.64 144.421 275.221 144.56C277.647 145.439 278.091 147.542 278.79 149.448C280.016 152.792 281.2 156.152 282.393 159.503C282.409 159.553 282.393 159.618 282.393 159.758C282.245 159.774 282.089 159.824 281.924 159.824C279.522 159.824 277.121 159.815 274.719 159.84C274.201 159.84 273.987 159.676 273.839 159.191C273.206 157.129 272.548 155.075 271.882 153.03C271.651 152.323 271.396 151.609 271.1 150.927C269.834 148.027 268.106 147.131 264.825 147.731V159.774H256.789V128.976H256.806ZM264.882 141.981C266.963 141.767 268.945 141.701 270.862 141.315C272.26 141.036 272.934 139.82 272.959 138.317C272.984 136.912 272.35 135.926 271.01 135.392C269.028 134.612 266.963 134.858 264.882 134.842V141.981Z" fill="black"/>
<path d="M304.817 128.976C308.724 139.229 312.631 149.456 316.587 159.84C315.641 159.84 314.819 159.84 313.996 159.84C312.162 159.84 310.328 159.815 308.502 159.856C307.885 159.873 307.597 159.684 307.408 159.092C306.849 157.359 306.207 155.642 305.64 153.909C305.475 153.399 305.253 153.202 304.702 153.21C301.338 153.235 297.974 153.243 294.61 153.21C294.035 153.21 293.837 153.465 293.673 153.933C293.04 155.708 292.398 157.482 291.715 159.24C291.617 159.495 291.247 159.815 291 159.815C288.565 159.856 286.139 159.84 283.704 159.832C283.622 159.832 283.54 159.782 283.367 159.733C283.466 159.413 283.54 159.109 283.655 158.813C287.274 149.177 290.909 139.541 294.512 129.888C294.775 129.182 295.104 128.943 295.861 128.96C298.83 129.009 301.807 128.976 304.826 128.976H304.817ZM303.469 147.394C302.251 143.352 301.075 139.442 299.891 135.54C299.817 135.556 299.743 135.565 299.669 135.581C298.394 139.491 297.119 143.41 295.82 147.394H303.469Z" fill="black"/>
<path d="M252.392 129.025V134.809H240.227V141.529H251.939C251.939 142.137 251.939 142.629 251.939 143.122C251.939 144.289 251.915 145.464 251.948 146.63C251.972 147.271 251.726 147.443 251.109 147.435C247.835 147.411 244.562 147.427 241.288 147.427C240.959 147.427 240.63 147.427 240.178 147.427V159.791H232.109V129.025H252.383H252.392Z" fill="black"/>
<path d="M208 159.782V129.033H216.044C216.06 129.403 216.101 129.773 216.101 130.15C216.101 137.675 216.118 145.192 216.085 152.717C216.085 153.514 216.258 153.793 217.121 153.785C220.6 153.736 224.088 153.76 227.567 153.76C227.896 153.76 228.217 153.76 228.611 153.76V159.774H208.008L208 159.782Z" fill="black"/>
</g>
<defs>
<clipPath id="clip0_3308_13702">
<rect width="305" height="70" fill="white" transform="translate(55 110)"/>
</clipPath>
</defs>
</svg>
