<svg width="473" height="122" viewBox="0 0 473 122" fill="none" xmlns="http://www.w3.org/2000/svg">
    <g clip-path="url(#clip0_4113_852)">
    <path d="M422.572 5H50C22.3858 5 0 27.3858 0 55V72C0 99.6142 22.3858 122 50 122H422.572C450.186 122 472.572 99.6142 472.572 72V55C472.572 27.3858 450.186 5 422.572 5Z" fill="#0D3F41"/>
    <path d="M422.571 1.5H52.5964C25.8106 1.5 4.09644 23.2142 4.09644 50V55C4.09644 81.7858 25.8106 103.5 52.5964 103.5H422.571C449.357 103.5 471.071 81.7858 471.071 55V50C471.071 23.2142 449.357 1.5 422.571 1.5Z" fill="#89BEAA" stroke="#0D3F41" stroke-width="3"/>
    <path d="M240.674 3H315.48L173.108 101H93.4756L240.674 3Z" fill="#B7D6D6"/>
    <path d="M298.673 3H372.605L231.897 101H153.196L298.673 3Z" fill="#B7D6D6"/>
    <path d="M145.355 75V30.2H168.267C174.155 30.2 178.55 31.288 181.451 33.464C184.352 35.5973 185.803 38.4133 185.803 41.912C185.803 44.216 185.184 46.2427 183.947 47.992C182.752 49.6987 181.046 51.064 178.827 52.088C176.651 53.0693 174.048 53.56 171.019 53.56L172.299 50.488C175.456 50.488 178.208 50.9787 180.555 51.96C182.902 52.8987 184.715 54.2853 185.995 56.12C187.318 57.912 187.979 60.1093 187.979 62.712C187.979 66.5947 186.4 69.624 183.243 71.8C180.128 73.9333 175.563 75 169.547 75H145.355ZM157.899 65.848H168.523C170.699 65.848 172.342 65.4853 173.451 64.76C174.603 63.992 175.179 62.84 175.179 61.304C175.179 59.768 174.603 58.6373 173.451 57.912C172.342 57.144 170.699 56.76 168.523 56.76H157.003V47.992H166.603C168.736 47.992 170.336 47.6293 171.403 46.904C172.47 46.1787 173.003 45.0907 173.003 43.64C173.003 42.1893 172.47 41.1227 171.403 40.44C170.336 39.7147 168.736 39.352 166.603 39.352H157.899V65.848ZM189.166 75L208.943 30.2H221.423L241.263 75H228.079L212.591 36.408H217.583L202.095 75H189.166ZM199.983 66.296L203.247 56.952H225.135L228.399 66.296H199.983ZM266.566 75.896C263.025 75.896 259.739 75.3413 256.71 74.232C253.723 73.08 251.121 71.4587 248.902 69.368C246.726 67.2773 245.019 64.824 243.782 62.008C242.545 59.1493 241.926 56.0133 241.926 52.6C241.926 49.1867 242.545 46.072 243.782 43.256C245.019 40.3973 246.726 37.9227 248.902 35.832C251.121 33.7413 253.723 32.1413 256.71 31.032C259.739 29.88 263.025 29.304 266.566 29.304C270.705 29.304 274.395 30.0293 277.638 31.48C280.923 32.9307 283.654 35.0213 285.83 37.752L277.766 45.048C276.315 43.3413 274.715 42.04 272.966 41.144C271.259 40.248 269.339 39.8 267.206 39.8C265.371 39.8 263.686 40.0987 262.15 40.696C260.614 41.2933 259.291 42.168 258.182 43.32C257.115 44.4293 256.262 45.7733 255.622 47.352C255.025 48.9307 254.726 50.68 254.726 52.6C254.726 54.52 255.025 56.2693 255.622 57.848C256.262 59.4267 257.115 60.792 258.182 61.944C259.291 63.0533 260.614 63.9067 262.15 64.504C263.686 65.1013 265.371 65.4 267.206 65.4C269.339 65.4 271.259 64.952 272.966 64.056C274.715 63.16 276.315 61.8587 277.766 60.152L285.83 67.448C283.654 70.136 280.923 72.2267 277.638 73.72C274.395 75.1707 270.705 75.896 266.566 75.896ZM302.808 65.08L302.104 50.872L321.368 30.2H335.32L316.12 51L309.08 58.36L302.808 65.08ZM291.48 75V30.2H304.024V75H291.48ZM321.56 75L306.968 56.504L315.224 47.672L336.28 75H321.56Z" fill="#FFFFAA" fill-opacity="0.8"/>
    </g>
    <defs>
    <clipPath id="clip0_4113_852">
    <rect width="473" height="122" fill="white"/>
    </clipPath>
    </defs>
    </svg>
    