<svg width="475" height="122" viewBox="0 0 475 122" fill="none" xmlns="http://www.w3.org/2000/svg">
<rect y="5" width="475" height="117" rx="50" fill="#0D3F41"/>
<rect x="3.72998" y="1.5" width="469.77" height="102" rx="48.5" fill="#89BEAA" stroke="#0D3F41" stroke-width="3"/>
<path d="M227.513 3L292.136 3L169.144 101H100.352L227.513 3Z" fill="#B7D6D6"/>
<path d="M277.326 3L341.197 3L219.636 101H151.643L277.326 3Z" fill="#B7D6D6"/>
<path d="M84.5493 47.692H101.449V55.388H84.5493V47.692ZM85.2773 62.044H104.309V70H75.0853V33.6H103.633V41.556H85.2773V62.044ZM110.023 70V33.6H127.235C131.256 33.6 134.792 34.3453 137.843 35.836C140.893 37.3267 143.268 39.424 144.967 42.128C146.7 44.832 147.567 48.056 147.567 51.8C147.567 55.5093 146.7 58.7333 144.967 61.472C143.268 64.176 140.893 66.2733 137.843 67.764C134.792 69.2547 131.256 70 127.235 70H110.023ZM120.319 61.784H126.819C128.899 61.784 130.701 61.4027 132.227 60.64C133.787 59.8427 135 58.6987 135.867 57.208C136.733 55.6827 137.167 53.88 137.167 51.8C137.167 49.6853 136.733 47.8827 135.867 46.392C135 44.9013 133.787 43.7747 132.227 43.012C130.701 42.2147 128.899 41.816 126.819 41.816H120.319V61.784ZM169.78 70.728C164.406 70.728 160.212 69.2547 157.196 66.308C154.18 63.3613 152.672 59.184 152.672 53.776V33.6H162.968V53.464C162.968 56.584 163.574 58.82 164.788 60.172C166.036 61.524 167.734 62.2 169.884 62.2C172.033 62.2 173.714 61.524 174.928 60.172C176.141 58.82 176.748 56.584 176.748 53.464V33.6H186.888V53.776C186.888 59.184 185.38 63.3613 182.364 66.308C179.348 69.2547 175.153 70.728 169.78 70.728ZM212.011 70.728C209.133 70.728 206.464 70.2773 204.003 69.376C201.576 68.44 199.461 67.1227 197.659 65.424C195.891 63.7253 194.504 61.732 193.499 59.444C192.493 57.1213 191.991 54.5733 191.991 51.8C191.991 49.0267 192.493 46.496 193.499 44.208C194.504 41.8853 195.891 39.8747 197.659 38.176C199.461 36.4773 201.576 35.1773 204.003 34.276C206.464 33.34 209.133 32.872 212.011 32.872C215.373 32.872 218.372 33.4613 221.007 34.64C223.676 35.8187 225.895 37.5173 227.663 39.736L221.111 45.664C219.932 44.2773 218.632 43.22 217.211 42.492C215.824 41.764 214.264 41.4 212.531 41.4C211.04 41.4 209.671 41.6427 208.423 42.128C207.175 42.6133 206.1 43.324 205.199 44.26C204.332 45.1613 203.639 46.2533 203.119 47.536C202.633 48.8187 202.391 50.24 202.391 51.8C202.391 53.36 202.633 54.7813 203.119 56.064C203.639 57.3467 204.332 58.456 205.199 59.392C206.1 60.2933 207.175 60.9867 208.423 61.472C209.671 61.9573 211.04 62.2 212.531 62.2C214.264 62.2 215.824 61.836 217.211 61.108C218.632 60.38 219.932 59.3227 221.111 57.936L227.663 63.864C225.895 66.048 223.676 67.7467 221.007 68.96C218.372 70.1387 215.373 70.728 212.011 70.728ZM227.276 70L243.344 33.6H253.484L269.604 70H258.892L246.308 38.644H250.364L237.78 70H227.276ZM236.064 62.928L238.716 55.336H256.5L259.152 62.928H236.064ZM278.443 70V41.764H267.263V33.6H299.867V41.764H288.739V70H278.443ZM303.702 70V33.6H313.998V70H303.702ZM339.68 70.728C336.768 70.728 334.081 70.26 331.62 69.324C329.158 68.388 327.009 67.0707 325.172 65.372C323.369 63.6387 321.965 61.628 320.96 59.34C319.954 57.052 319.452 54.5387 319.452 51.8C319.452 49.0613 319.954 46.548 320.96 44.26C321.965 41.972 323.369 39.9787 325.172 38.28C327.009 36.5467 329.158 35.212 331.62 34.276C334.081 33.34 336.768 32.872 339.68 32.872C342.626 32.872 345.313 33.34 347.74 34.276C350.201 35.212 352.333 36.5467 354.136 38.28C355.938 39.9787 357.342 41.972 358.348 44.26C359.388 46.548 359.908 49.0613 359.908 51.8C359.908 54.5387 359.388 57.0693 358.348 59.392C357.342 61.68 355.938 63.6733 354.136 65.372C352.333 67.0707 350.201 68.388 347.74 69.324C345.313 70.26 342.626 70.728 339.68 70.728ZM339.68 62.2C341.066 62.2 342.349 61.9573 343.528 61.472C344.741 60.9867 345.781 60.2933 346.648 59.392C347.549 58.456 348.242 57.3467 348.728 56.064C349.248 54.7813 349.508 53.36 349.508 51.8C349.508 50.2053 349.248 48.784 348.728 47.536C348.242 46.2533 347.549 45.1613 346.648 44.26C345.781 43.324 344.741 42.6133 343.528 42.128C342.349 41.6427 341.066 41.4 339.68 41.4C338.293 41.4 336.993 41.6427 335.78 42.128C334.601 42.6133 333.561 43.324 332.66 44.26C331.793 45.1613 331.1 46.2533 330.58 47.536C330.094 48.784 329.852 50.2053 329.852 51.8C329.852 53.36 330.094 54.7813 330.58 56.064C331.1 57.3467 331.793 58.456 332.66 59.392C333.561 60.2933 334.601 60.9867 335.78 61.472C336.993 61.9573 338.293 62.2 339.68 62.2ZM365.3 70V33.6H373.776L393.848 57.832H389.844V33.6H399.932V70H391.456L371.384 45.768H375.388V70H365.3Z" fill="#FFFACC"/>
</svg>
