<svg width="475" height="122" viewBox="0 0 475 122" fill="none" xmlns="http://www.w3.org/2000/svg">
<rect y="5" width="475" height="117" rx="50" fill="#0D3F41"/>
<path d="M52.23 1.5H425C451.786 1.5 473.5 23.2142 473.5 50V55C473.5 81.7858 451.786 103.5 425 103.5H52.23C25.4442 103.5 3.72998 81.7858 3.72998 55V50C3.72998 23.2142 25.4442 1.5 52.23 1.5Z" fill="#89BEAA" stroke="#0D3F41" stroke-width="3"/>
<path d="M227.513 3L292.136 3L169.144 101H100.352L227.513 3Z" fill="#B7D6D6"/>
<path d="M277.326 3L341.197 3L219.635 101H151.643L277.326 3Z" fill="#B7D6D6"/>
<path d="M50.8998 33.6H61.1958V70H50.8998V33.6ZM36.8598 70H26.5638V33.6H36.8598V70ZM51.6278 55.804H36.1318V47.276H51.6278V55.804ZM64.0903 70L80.1583 33.6H90.2983L106.418 70H95.7063L83.1223 38.644H87.1783L74.5943 70H64.0903ZM72.8783 62.928L75.5303 55.336H93.3143L95.9663 62.928H72.8783ZM126.977 70.728C124.1 70.728 121.431 70.2773 118.969 69.376C116.543 68.44 114.428 67.1227 112.625 65.424C110.857 63.7253 109.471 61.732 108.465 59.444C107.46 57.1213 106.957 54.5733 106.957 51.8C106.957 49.0267 107.46 46.496 108.465 44.208C109.471 41.8853 110.857 39.8747 112.625 38.176C114.428 36.4773 116.543 35.1773 118.969 34.276C121.431 33.34 124.1 32.872 126.977 32.872C130.34 32.872 133.339 33.4613 135.973 34.64C138.643 35.8187 140.861 37.5173 142.629 39.736L136.077 45.664C134.899 44.2773 133.599 43.22 132.177 42.492C130.791 41.764 129.231 41.4 127.497 41.4C126.007 41.4 124.637 41.6427 123.389 42.128C122.141 42.6133 121.067 43.324 120.165 44.26C119.299 45.1613 118.605 46.2533 118.085 47.536C117.6 48.8187 117.357 50.24 117.357 51.8C117.357 53.36 117.6 54.7813 118.085 56.064C118.605 57.3467 119.299 58.456 120.165 59.392C121.067 60.2933 122.141 60.9867 123.389 61.472C124.637 61.9573 126.007 62.2 127.497 62.2C129.231 62.2 130.791 61.836 132.177 61.108C133.599 60.38 134.899 59.3227 136.077 57.936L142.629 63.864C140.861 66.048 138.643 67.7467 135.973 68.96C133.339 70.1387 130.34 70.728 126.977 70.728ZM156.424 61.94L155.852 50.396L171.504 33.6H182.84L167.24 50.5L161.52 56.48L156.424 61.94ZM147.22 70V33.6H157.412V70H147.22ZM171.66 70L159.804 54.972L166.512 47.796L183.62 70H171.66ZM183.197 58.976V51.384H198.381V58.976H183.197ZM216.684 70.728C213.703 70.728 210.825 70.364 208.052 69.636C205.313 68.8733 203.077 67.9027 201.344 66.724L204.724 59.132C206.353 60.172 208.225 61.0387 210.34 61.732C212.489 62.3907 214.621 62.72 216.736 62.72C218.157 62.72 219.301 62.5987 220.168 62.356C221.035 62.0787 221.659 61.732 222.04 61.316C222.456 60.8653 222.664 60.3453 222.664 59.756C222.664 58.924 222.283 58.2653 221.52 57.78C220.757 57.2947 219.769 56.896 218.556 56.584C217.343 56.272 215.991 55.96 214.5 55.648C213.044 55.336 211.571 54.9373 210.08 54.452C208.624 53.9667 207.289 53.3427 206.076 52.58C204.863 51.7827 203.875 50.76 203.112 49.512C202.349 48.2293 201.968 46.6173 201.968 44.676C201.968 42.492 202.557 40.516 203.736 38.748C204.949 36.98 206.752 35.5587 209.144 34.484C211.536 33.4093 214.517 32.872 218.088 32.872C220.48 32.872 222.82 33.1493 225.108 33.704C227.431 34.224 229.493 35.004 231.296 36.044L228.124 43.688C226.391 42.752 224.675 42.0587 222.976 41.608C221.277 41.1227 219.631 40.88 218.036 40.88C216.615 40.88 215.471 41.036 214.604 41.348C213.737 41.6253 213.113 42.0067 212.732 42.492C212.351 42.9773 212.16 43.532 212.16 44.156C212.16 44.9533 212.524 45.5947 213.252 46.08C214.015 46.5307 215.003 46.912 216.216 47.224C217.464 47.5013 218.816 47.796 220.272 48.108C221.763 48.42 223.236 48.8187 224.692 49.304C226.183 49.7547 227.535 50.3787 228.748 51.176C229.961 51.9387 230.932 52.9613 231.66 54.244C232.423 55.492 232.804 57.0693 232.804 58.976C232.804 61.0907 232.197 63.0493 230.984 64.852C229.805 66.62 228.02 68.0413 225.628 69.116C223.271 70.1907 220.289 70.728 216.684 70.728ZM237.56 70V33.6H254.2C257.528 33.6 260.388 34.1373 262.78 35.212C265.207 36.2867 267.079 37.8467 268.396 39.892C269.713 41.9027 270.372 44.2947 270.372 47.068C270.372 49.8067 269.713 52.1813 268.396 54.192C267.079 56.2027 265.207 57.7627 262.78 58.872C260.388 59.9467 257.528 60.484 254.2 60.484H243.28L247.856 56.012V70H237.56ZM247.856 57.104L243.28 52.372H253.576C255.725 52.372 257.32 51.904 258.36 50.968C259.435 50.032 259.972 48.732 259.972 47.068C259.972 45.3693 259.435 44.052 258.36 43.116C257.32 42.18 255.725 41.712 253.576 41.712H243.28L247.856 36.98V57.104ZM284.856 47.692H301.756V55.388H284.856V47.692ZM285.584 62.044H304.616V70H275.392V33.6H303.94V41.556H285.584V62.044ZM328.477 70.728C325.6 70.728 322.931 70.2773 320.469 69.376C318.043 68.44 315.928 67.1227 314.125 65.424C312.357 63.7253 310.971 61.732 309.965 59.444C308.96 57.1213 308.457 54.5733 308.457 51.8C308.457 49.0267 308.96 46.496 309.965 44.208C310.971 41.8853 312.357 39.8747 314.125 38.176C315.928 36.4773 318.043 35.1773 320.469 34.276C322.931 33.34 325.6 32.872 328.477 32.872C331.84 32.872 334.839 33.4613 337.473 34.64C340.143 35.8187 342.361 37.5173 344.129 39.736L337.577 45.664C336.399 44.2773 335.099 43.22 333.677 42.492C332.291 41.764 330.731 41.4 328.997 41.4C327.507 41.4 326.137 41.6427 324.889 42.128C323.641 42.6133 322.567 43.324 321.665 44.26C320.799 45.1613 320.105 46.2533 319.585 47.536C319.1 48.8187 318.857 50.24 318.857 51.8C318.857 53.36 319.1 54.7813 319.585 56.064C320.105 57.3467 320.799 58.456 321.665 59.392C322.567 60.2933 323.641 60.9867 324.889 61.472C326.137 61.9573 327.507 62.2 328.997 62.2C330.731 62.2 332.291 61.836 333.677 61.108C335.099 60.38 336.399 59.3227 337.577 57.936L344.129 63.864C342.361 66.048 340.143 67.7467 337.473 68.96C334.839 70.1387 331.84 70.728 328.477 70.728ZM348.72 70V33.6H359.016V70H348.72ZM375.909 49.564H392.705V57.52H375.909V49.564ZM376.637 70H366.341V33.6H394.889V41.556H376.637V70ZM399.704 70V33.6H410V70H399.704ZM435.473 70.728C432.596 70.728 429.927 70.2773 427.465 69.376C425.039 68.44 422.924 67.1227 421.121 65.424C419.353 63.7253 417.967 61.732 416.961 59.444C415.956 57.1213 415.453 54.5733 415.453 51.8C415.453 49.0267 415.956 46.496 416.961 44.208C417.967 41.8853 419.353 39.8747 421.121 38.176C422.924 36.4773 425.039 35.1773 427.465 34.276C429.927 33.34 432.596 32.872 435.473 32.872C438.836 32.872 441.835 33.4613 444.469 34.64C447.139 35.8187 449.357 37.5173 451.125 39.736L444.573 45.664C443.395 44.2773 442.095 43.22 440.673 42.492C439.287 41.764 437.727 41.4 435.993 41.4C434.503 41.4 433.133 41.6427 431.885 42.128C430.637 42.6133 429.563 43.324 428.661 44.26C427.795 45.1613 427.101 46.2533 426.581 47.536C426.096 48.8187 425.853 50.24 425.853 51.8C425.853 53.36 426.096 54.7813 426.581 56.064C427.101 57.3467 427.795 58.456 428.661 59.392C429.563 60.2933 430.637 60.9867 431.885 61.472C433.133 61.9573 434.503 62.2 435.993 62.2C437.727 62.2 439.287 61.836 440.673 61.108C442.095 60.38 443.395 59.3227 444.573 57.936L451.125 63.864C449.357 66.048 447.139 67.7467 444.469 68.96C441.835 70.1387 438.836 70.728 435.473 70.728Z" fill="#FFFACC"/>
</svg>
