<svg width="473" height="122" viewBox="0 0 473 122" fill="none" xmlns="http://www.w3.org/2000/svg">
<rect y="5" width="472.572" height="117" rx="50" fill="#0D3F41"/>
<rect x="4.09644" y="1.5" width="466.975" height="102" rx="48.5" fill="#89BEAA" stroke="#0D3F41" stroke-width="3"/>
<path d="M240.674 3L315.48 3L173.108 101H93.4756L240.674 3Z" fill="#B7D6D6"/>
<path d="M298.673 3L372.605 3L231.897 101H153.196L298.673 3Z" fill="#B7D6D6"/>
<path d="M93.1161 71V34.6H103.412V62.836H120.78V71H93.1161ZM142.652 71.728C139.74 71.728 137.053 71.26 134.592 70.324C132.13 69.388 129.981 68.0707 128.144 66.372C126.341 64.6387 124.937 62.628 123.932 60.34C122.926 58.052 122.424 55.5387 122.424 52.8C122.424 50.0613 122.926 47.548 123.932 45.26C124.937 42.972 126.341 40.9787 128.144 39.28C129.981 37.5467 132.13 36.212 134.592 35.276C137.053 34.34 139.74 33.872 142.652 33.872C145.598 33.872 148.285 34.34 150.712 35.276C153.173 36.212 155.305 37.5467 157.108 39.28C158.91 40.9787 160.314 42.972 161.32 45.26C162.36 47.548 162.88 50.0613 162.88 52.8C162.88 55.5387 162.36 58.0693 161.32 60.392C160.314 62.68 158.91 64.6733 157.108 66.372C155.305 68.0707 153.173 69.388 150.712 70.324C148.285 71.26 145.598 71.728 142.652 71.728ZM142.652 63.2C144.038 63.2 145.321 62.9573 146.5 62.472C147.713 61.9867 148.753 61.2933 149.62 60.392C150.521 59.456 151.214 58.3467 151.7 57.064C152.22 55.7813 152.48 54.36 152.48 52.8C152.48 51.2053 152.22 49.784 151.7 48.536C151.214 47.2533 150.521 46.1613 149.62 45.26C148.753 44.324 147.713 43.6133 146.5 43.128C145.321 42.6427 144.038 42.4 142.652 42.4C141.265 42.4 139.965 42.6427 138.752 43.128C137.573 43.6133 136.533 44.324 135.632 45.26C134.765 46.1613 134.072 47.2533 133.552 48.536C133.066 49.784 132.824 51.2053 132.824 52.8C132.824 54.36 133.066 55.7813 133.552 57.064C134.072 58.3467 134.765 59.456 135.632 60.392C136.533 61.2933 137.573 61.9867 138.752 62.472C139.965 62.9573 141.265 63.2 142.652 63.2ZM163.397 71L179.465 34.6H189.605L205.725 71H195.013L182.429 39.644H186.485L173.901 71H163.397ZM172.185 63.928L174.837 56.336H192.621L195.273 63.928L172.185 63.928ZM208.643 71V34.6H225.855C229.877 34.6 233.413 35.3453 236.463 36.836C239.514 38.3267 241.889 40.424 243.587 43.128C245.321 45.832 246.187 49.056 246.187 52.8C246.187 56.5093 245.321 59.7333 243.587 62.472C241.889 65.176 239.514 67.2733 236.463 68.764C233.413 70.2547 229.877 71 225.855 71H208.643ZM218.939 62.784H225.439C227.519 62.784 229.322 62.4027 230.847 61.64C232.407 60.8427 233.621 59.6987 234.487 58.208C235.354 56.6827 235.787 54.88 235.787 52.8C235.787 50.6853 235.354 48.8827 234.487 47.392C233.621 45.9013 232.407 44.7747 230.847 44.012C229.322 43.2147 227.519 42.816 225.439 42.816L218.939 42.816V62.784ZM251.604 71V34.6H261.9V71H251.604ZM269.225 71V34.6H277.701L297.773 58.832H293.769V34.6H303.857V71H295.381L275.309 46.768H279.313V71H269.225ZM329.32 71.728C326.443 71.728 323.773 71.2773 321.312 70.376C318.851 69.44 316.719 68.1227 314.916 66.424C313.148 64.7253 311.761 62.732 310.756 60.444C309.751 58.1213 309.248 55.5733 309.248 52.8C309.248 50.0267 309.751 47.496 310.756 45.208C311.761 42.8853 313.165 40.8747 314.968 39.176C316.771 37.4773 318.903 36.1773 321.364 35.276C323.86 34.34 326.581 33.872 329.528 33.872C332.96 33.872 336.028 34.444 338.732 35.588C341.436 36.732 343.672 38.3787 345.44 40.528L338.888 46.456C337.64 45.104 336.288 44.0987 334.832 43.44C333.411 42.7467 331.816 42.4 330.048 42.4C328.488 42.4 327.067 42.6427 325.784 43.128C324.501 43.6133 323.409 44.324 322.508 45.26C321.607 46.1613 320.896 47.2533 320.376 48.536C319.891 49.784 319.648 51.2053 319.648 52.8C319.648 54.3253 319.891 55.7293 320.376 57.012C320.896 58.2947 321.607 59.404 322.508 60.34C323.409 61.2413 324.484 61.952 325.732 62.472C327.015 62.9573 328.419 63.2 329.944 63.2C331.469 63.2 332.96 62.9573 334.416 62.472C335.872 61.952 337.345 61.0853 338.836 59.872L344.608 67.1C342.528 68.5907 340.119 69.7347 337.38 70.532C334.641 71.3293 331.955 71.728 329.32 71.728ZM335.508 65.748V52.02H344.608V67.1L335.508 65.748ZM355.335 71.468C353.671 71.468 352.267 70.9133 351.123 69.804C349.979 68.6947 349.407 67.2907 349.407 65.592C349.407 63.824 349.979 62.42 351.123 61.38C352.267 60.3053 353.671 59.768 355.335 59.768C356.999 59.768 358.403 60.3053 359.547 61.38C360.691 62.42 361.263 63.824 361.263 65.592C361.263 67.2907 360.691 68.6947 359.547 69.804C358.403 70.9133 356.999 71.468 355.335 71.468ZM370.062 71.468C368.398 71.468 366.994 70.9133 365.85 69.804C364.706 68.6947 364.134 67.2907 364.134 65.592C364.134 63.824 364.706 62.42 365.85 61.38C366.994 60.3053 368.398 59.768 370.062 59.768C371.726 59.768 373.13 60.3053 374.274 61.38C375.418 62.42 375.99 63.824 375.99 65.592C375.99 67.2907 375.418 68.6947 374.274 69.804C373.13 70.9133 371.726 71.468 370.062 71.468ZM384.789 71.468C383.125 71.468 381.721 70.9133 380.577 69.804C379.433 68.6947 378.861 67.2907 378.861 65.592C378.861 63.824 379.433 62.42 380.577 61.38C381.721 60.3053 383.125 59.768 384.789 59.768C386.453 59.768 387.857 60.3053 389.001 61.38C390.145 62.42 390.717 63.824 390.717 65.592C390.717 67.2907 390.145 68.6947 389.001 69.804C387.857 70.9133 386.453 71.468 384.789 71.468Z" fill="#FFFACC"/>
</svg>
