<svg width="473" height="122" viewBox="0 0 473 122" fill="none" xmlns="http://www.w3.org/2000/svg">
<mask id="mask0_4252_185" style="mask-type:luminance" maskUnits="userSpaceOnUse" x="0" y="0" width="473" height="122">
<path d="M473 0H0V122H473V0Z" fill="white"/>
</mask>
<g mask="url(#mask0_4252_185)">
<path d="M422.572 5H50C22.3858 5 0 27.3858 0 55V72C0 99.6142 22.3858 122 50 122H422.572C450.186 122 472.572 99.6142 472.572 72V55C472.572 27.3858 450.186 5 422.572 5Z" fill="#0D3F41"/>
<path d="M422.571 1.5H52.5964C25.8106 1.5 4.09644 23.2142 4.09644 50V55C4.09644 81.7858 25.8106 103.5 52.5964 103.5H422.571C449.357 103.5 471.071 81.7858 471.071 55V50C471.071 23.2142 449.357 1.5 422.571 1.5Z" fill="#89BEAA" stroke="#0D3F41" stroke-width="3"/>
<path d="M240.674 3H315.48L173.108 101H93.4756L240.674 3Z" fill="#B7D6D6"/>
<path d="M298.673 3H372.605L231.897 101H153.196L298.673 3Z" fill="#B7D6D6"/>
<path d="M152.449 75V30.2H162.881L187.585 60.024H182.657V30.2H195.073V75H184.641L159.937 45.176H164.865V75H152.449ZM215.659 47.544H236.459V57.016H215.659V47.544ZM216.555 65.208H239.979V75H204.011V30.2H239.147V39.992H216.555V65.208ZM242.028 75L261.612 47.8L261.548 56.824L242.732 30.2L257.004 30.2L269.036 47.544L262.956 47.608L274.796 30.2H288.492L269.676 56.312V47.352L289.516 75H274.924L262.7 56.76H268.524L256.492 75H242.028ZM301.422 75V40.248H287.662V30.2H327.79V40.248H314.094V75L301.422 75Z" fill="#F1F7B3"/>
</g>
</svg>
