<svg width="475" height="122" viewBox="0 0 475 122" fill="none" xmlns="http://www.w3.org/2000/svg">
<rect y="5" width="475" height="117" rx="50" fill="#0D3F41"/>
<rect x="3.73022" y="1.5" width="469.77" height="102" rx="48.5" fill="#89BEAA" stroke="#0D3F41" stroke-width="3"/>
<path d="M227.513 3L292.136 3L169.144 101H100.352L227.513 3Z" fill="#B7D6D6"/>
<path d="M277.326 3L341.197 3L219.635 101H151.643L277.326 3Z" fill="#B7D6D6"/>
<path d="M89.431 70V33.6H106.071C109.399 33.6 112.259 34.1373 114.651 35.212C117.078 36.2867 118.95 37.8467 120.267 39.892C121.584 41.9027 122.243 44.2947 122.243 47.068C122.243 49.8067 121.584 52.1813 120.267 54.192C118.95 56.2027 117.078 57.7627 114.651 58.872C112.259 59.9467 109.399 60.484 106.071 60.484H95.151L99.727 56.012V70H89.431ZM99.727 57.104L95.151 52.372H105.447C107.596 52.372 109.191 51.904 110.231 50.968C111.306 50.032 111.843 48.732 111.843 47.068C111.843 45.3693 111.306 44.052 110.231 43.116C109.191 42.18 107.596 41.712 105.447 41.712H95.151L99.727 36.98V57.104ZM136.727 47.692H153.627V55.388H136.727V47.692ZM137.455 62.044H156.487V70H127.263V33.6H155.811V41.556H137.455V62.044ZM162.201 70V33.6L178.841 33.6C182.169 33.6 185.029 34.1373 187.421 35.212C189.847 36.2867 191.719 37.8467 193.037 39.892C194.354 41.9027 195.013 44.2947 195.013 47.068C195.013 49.8067 194.354 52.1813 193.037 54.192C191.719 56.168 189.847 57.6933 187.421 58.768C185.029 59.808 182.169 60.328 178.841 60.328H167.921L172.497 56.012V70H162.201ZM184.717 70L175.669 56.74H186.641L195.741 70H184.717ZM172.497 57.104L167.921 52.372H178.217C180.366 52.372 181.961 51.904 183.001 50.968C184.075 50.032 184.613 48.732 184.613 47.068C184.613 45.3693 184.075 44.052 183.001 43.116C181.961 42.18 180.366 41.712 178.217 41.712H167.921L172.497 36.98V57.104ZM213.485 70.728C210.503 70.728 207.626 70.364 204.853 69.636C202.114 68.8733 199.878 67.9027 198.145 66.724L201.525 59.132C203.154 60.172 205.026 61.0387 207.141 61.732C209.29 62.3907 211.422 62.72 213.537 62.72C214.958 62.72 216.102 62.5987 216.969 62.356C217.835 62.0787 218.459 61.732 218.841 61.316C219.257 60.8653 219.465 60.3453 219.465 59.756C219.465 58.924 219.083 58.2653 218.321 57.78C217.558 57.2947 216.57 56.896 215.357 56.584C214.143 56.272 212.791 55.96 211.301 55.648C209.845 55.336 208.371 54.9373 206.881 54.452C205.425 53.9667 204.09 53.3427 202.877 52.58C201.663 51.7827 200.675 50.76 199.913 49.512C199.15 48.2293 198.769 46.6173 198.769 44.676C198.769 42.492 199.358 40.516 200.537 38.748C201.75 36.98 203.553 35.5587 205.945 34.484C208.337 33.4093 211.318 32.872 214.889 32.872C217.281 32.872 219.621 33.1493 221.909 33.704C224.231 34.224 226.294 35.004 228.097 36.044L224.925 43.688C223.191 42.752 221.475 42.0587 219.777 41.608C218.078 41.1227 216.431 40.88 214.837 40.88C213.415 40.88 212.271 41.036 211.405 41.348C210.538 41.6253 209.914 42.0067 209.533 42.492C209.151 42.9773 208.961 43.532 208.961 44.156C208.961 44.9533 209.325 45.5947 210.053 46.08C210.815 46.5307 211.803 46.912 213.017 47.224C214.265 47.5013 215.617 47.796 217.073 48.108C218.563 48.42 220.037 48.8187 221.493 49.304C222.983 49.7547 224.335 50.3787 225.549 51.176C226.762 51.9387 227.733 52.9613 228.461 54.244C229.223 55.492 229.605 57.0693 229.605 58.976C229.605 61.0907 228.998 63.0493 227.785 64.852C226.606 66.62 224.821 68.0413 222.429 69.116C220.071 70.1907 217.09 70.728 213.485 70.728ZM252.717 70.728C249.805 70.728 247.118 70.26 244.657 69.324C242.195 68.388 240.046 67.0707 238.209 65.372C236.406 63.6387 235.002 61.628 233.997 59.34C232.991 57.052 232.489 54.5387 232.489 51.8C232.489 49.0613 232.991 46.548 233.997 44.26C235.002 41.972 236.406 39.9787 238.209 38.28C240.046 36.5467 242.195 35.212 244.657 34.276C247.118 33.34 249.805 32.872 252.717 32.872C255.663 32.872 258.35 33.34 260.777 34.276C263.238 35.212 265.37 36.5467 267.173 38.28C268.975 39.9787 270.379 41.972 271.385 44.26C272.425 46.548 272.945 49.0613 272.945 51.8C272.945 54.5387 272.425 57.0693 271.385 59.392C270.379 61.68 268.975 63.6733 267.173 65.372C265.37 67.0707 263.238 68.388 260.777 69.324C258.35 70.26 255.663 70.728 252.717 70.728ZM252.717 62.2C254.103 62.2 255.386 61.9573 256.565 61.472C257.778 60.9867 258.818 60.2933 259.685 59.392C260.586 58.456 261.279 57.3467 261.765 56.064C262.285 54.7813 262.545 53.36 262.545 51.8C262.545 50.2053 262.285 48.784 261.765 47.536C261.279 46.2533 260.586 45.1613 259.685 44.26C258.818 43.324 257.778 42.6133 256.565 42.128C255.386 41.6427 254.103 41.4 252.717 41.4C251.33 41.4 250.03 41.6427 248.817 42.128C247.638 42.6133 246.598 43.324 245.697 44.26C244.83 45.1613 244.137 46.2533 243.617 47.536C243.131 48.784 242.889 50.2053 242.889 51.8C242.889 53.36 243.131 54.7813 243.617 56.064C244.137 57.3467 244.83 58.456 245.697 59.392C246.598 60.2933 247.638 60.9867 248.817 61.472C250.03 61.9573 251.33 62.2 252.717 62.2ZM278.337 70V33.6H286.813L306.885 57.832H302.881V33.6H312.969V70H304.493L284.421 45.768H288.425V70H278.337ZM315.864 70L331.932 33.6H342.072L358.192 70H347.48L334.896 38.644H338.952L326.368 70H315.864ZM324.652 62.928L327.304 55.336H345.088L347.74 62.928H324.652ZM361.111 70V33.6H371.407V61.836L388.775 61.836V70H361.111Z" fill="#FFFACC"/>
</svg>
