<svg width="473" height="122" viewBox="0 0 473 122" fill="none" xmlns="http://www.w3.org/2000/svg">
<rect y="5" width="473" height="117" rx="50" fill="#964C1A"/>
<rect x="4.0918" y="1.5" width="467.408" height="102" rx="48.5" fill="#FFB23E" stroke="#964C1A" stroke-width="3"/>
<path d="M241.092 3L316.197 3L173.255 101H93.3042L241.092 3Z" fill="#FFFACC"/>
<path d="M298.984 3L373.216 3L231.936 101H152.915L298.984 3Z" fill="#FFFACC"/>
<path d="M128.651 71V34.6H145.291C148.619 34.6 151.479 35.1373 153.871 36.212C156.297 37.2867 158.169 38.8467 159.487 40.892C160.804 42.9027 161.463 45.2947 161.463 48.068C161.463 50.8067 160.804 53.1813 159.487 55.192C158.169 57.168 156.297 58.6933 153.871 59.768C151.479 60.808 148.619 61.328 145.291 61.328H134.371L138.947 57.012V71H128.651ZM151.167 71L142.119 57.74H153.091L162.191 71H151.167ZM138.947 58.104L134.371 53.372H144.667C146.816 53.372 148.411 52.904 149.451 51.968C150.525 51.032 151.063 49.732 151.063 48.068C151.063 46.3693 150.525 45.052 149.451 44.116C148.411 43.18 146.816 42.712 144.667 42.712H134.371L138.947 37.98V58.104ZM176.607 48.692H193.507V56.388H176.607V48.692ZM177.335 63.044H196.367V71H167.143V34.6H195.691V42.556H177.335V63.044ZM212.753 71L197.205 34.6H208.333L221.437 66.112H214.885L228.301 34.6H238.493L222.893 71H212.753ZM240.623 71V34.6H250.919V71H240.623ZM267.708 48.692H284.608V56.388H267.708V48.692ZM268.436 63.044H287.468V71H258.244V34.6H286.792V42.556L268.436 42.556V63.044ZM301.67 71L289.866 34.6H300.474L310.406 66.112H305.05L315.502 34.6H324.966L334.846 66.112H329.698L339.942 34.6H349.77L337.966 71H326.942L318.518 44.22H321.482L312.694 71H301.67Z" fill="#753214"/>
</svg>
