<svg width="473" height="122" viewBox="0 0 473 122" fill="none" xmlns="http://www.w3.org/2000/svg">
<rect y="5" width="473" height="117" rx="50" fill="#964C1A"/>
<rect x="4.0918" y="1.5" width="467.408" height="102" rx="48.5" fill="#FFB23E" stroke="#964C1A" stroke-width="3"/>
<path d="M241.092 3L316.197 3L173.255 101H93.3042L241.092 3Z" fill="#FFFACC"/>
<path d="M298.984 3L373.216 3L231.936 101H152.915L298.984 3Z" fill="#FFFACC"/>
<path d="M146.851 71.728C143.87 71.728 140.992 71.364 138.219 70.636C135.48 69.8733 133.244 68.9027 131.511 67.724L134.891 60.132C136.52 61.172 138.392 62.0387 140.507 62.732C142.656 63.3907 144.788 63.72 146.903 63.72C148.324 63.72 149.468 63.5987 150.335 63.356C151.202 63.0787 151.826 62.732 152.207 62.316C152.623 61.8653 152.831 61.3453 152.831 60.756C152.831 59.924 152.45 59.2653 151.687 58.78C150.924 58.2947 149.936 57.896 148.723 57.584C147.51 57.272 146.158 56.96 144.667 56.648C143.211 56.336 141.738 55.9373 140.247 55.452C138.791 54.9667 137.456 54.3427 136.243 53.58C135.03 52.7827 134.042 51.76 133.279 50.512C132.516 49.2293 132.135 47.6173 132.135 45.676C132.135 43.492 132.724 41.516 133.903 39.748C135.116 37.98 136.919 36.5587 139.311 35.484C141.703 34.4093 144.684 33.872 148.255 33.872C150.647 33.872 152.987 34.1493 155.275 34.704C157.598 35.224 159.66 36.004 161.463 37.044L158.291 44.688C156.558 43.752 154.842 43.0587 153.143 42.608C151.444 42.1227 149.798 41.88 148.203 41.88C146.782 41.88 145.638 42.036 144.771 42.348C143.904 42.6253 143.28 43.0067 142.899 43.492C142.518 43.9773 142.327 44.532 142.327 45.156C142.327 45.9533 142.691 46.5947 143.419 47.08C144.182 47.5307 145.17 47.912 146.383 48.224C147.631 48.5013 148.983 48.796 150.439 49.108C151.93 49.42 153.403 49.8187 154.859 50.304C156.35 50.7547 157.702 51.3787 158.915 52.176C160.128 52.9387 161.099 53.9613 161.827 55.244C162.59 56.492 162.971 58.0693 162.971 59.976C162.971 62.0907 162.364 64.0493 161.151 65.852C159.972 67.62 158.187 69.0413 155.795 70.116C153.438 71.1907 150.456 71.728 146.851 71.728ZM184.523 71.728C179.15 71.728 174.955 70.2547 171.939 67.308C168.923 64.3613 167.415 60.184 167.415 54.776V34.6H177.711V54.464C177.711 57.584 178.318 59.82 179.531 61.172C180.779 62.524 182.478 63.2 184.627 63.2C186.776 63.2 188.458 62.524 189.671 61.172C190.884 59.82 191.491 57.584 191.491 54.464V34.6H201.631V54.776C201.631 60.184 200.123 64.3613 197.107 67.308C194.091 70.2547 189.896 71.728 184.523 71.728ZM208.606 71V34.6H227.222C232.006 34.6 235.576 35.484 237.934 37.252C240.291 38.9853 241.47 41.2733 241.47 44.116C241.47 45.988 240.967 47.6347 239.962 49.056C238.991 50.4427 237.604 51.552 235.802 52.384C234.034 53.1813 231.919 53.58 229.458 53.58L230.498 51.084C233.063 51.084 235.299 51.4827 237.206 52.28C239.112 53.0427 240.586 54.1693 241.626 55.66C242.7 57.116 243.238 58.9013 243.238 61.016C243.238 64.1707 241.955 66.632 239.39 68.4C236.859 70.1333 233.15 71 228.262 71H208.606ZM218.798 63.564H227.43C229.198 63.564 230.532 63.2693 231.434 62.68C232.37 62.056 232.838 61.12 232.838 59.872C232.838 58.624 232.37 57.7053 231.434 57.116C230.532 56.492 229.198 56.18 227.43 56.18H218.07V49.056H225.87C227.603 49.056 228.903 48.7613 229.77 48.172C230.636 47.5827 231.07 46.6987 231.07 45.52C231.07 44.3413 230.636 43.4747 229.77 42.92C228.903 42.3307 227.603 42.036 225.87 42.036H218.798V63.564ZM248.571 71V34.6L257.047 34.6L272.127 59.352H267.655L282.319 34.6H290.795L290.899 71H281.435L281.331 49.004H282.943L271.971 67.412H267.395L256.111 49.004H258.087V71H248.571ZM298.184 71V34.6H308.48V71H298.184ZM323.553 71V42.764H312.373V34.6H344.977V42.764H333.849V71H323.553Z" fill="#753214"/>
</svg>
