<svg xmlns="http://www.w3.org/2000/svg" fill="none" viewBox="31.62 0.68 90.64 113.88">
<path d="M111.659 76.5446C111.659 92.1091 93.7535 104.727 71.6656 104.727C49.5777 104.727 31.6719 92.1091 31.6719 76.5446C31.6719 60.9801 49.5777 48.3625 71.6656 48.3625C93.7535 48.3625 111.659 60.9801 111.659 76.5446Z" fill="#191824"/>
<path d="M67.8943 48.5421L40.2174 59.2558L47.088 51.6669L47.088 43.7519L55.7777 47.5856L67.8943 48.5421Z" fill="#191824"/>
<path d="M72.1681 48.9246L103.215 59.2582L96.3443 51.6694L96.3443 43.7543L87.6546 47.588L72.1681 48.9246Z" fill="#191824"/>
<path d="M105.235 72.776C105.235 85.8808 90.1585 96.5044 71.5611 96.5044C52.9638 96.5044 37.8877 85.8808 37.8877 72.776C37.8877 59.6712 52.9638 49.0476 71.5611 49.0476C90.1585 49.0476 105.235 59.6712 105.235 72.776Z" fill="#1F1E2E"/>
<path d="M68.3861 49.1988L45.0829 58.2194L50.8678 51.8299L50.8678 45.1656L58.1842 48.3935L68.3861 49.1988Z" fill="#1F1E2E"/>
<path d="M71.9856 49.5209L98.126 58.2214L92.3411 51.8319L92.3411 45.1676L85.0247 48.3955L71.9856 49.5209Z" fill="#1F1E2E"/>
<ellipse cx="71.5794" cy="39.0363" rx="30.72" ry="10.24" fill="#27233C"/>
<ellipse cx="71.5784" cy="38.2364" rx="28.8" ry="9.75999" fill="#383450"/>
<ellipse cx="71.5792" cy="38.8762" rx="25.92" ry="6.24" fill="#151420"/>
<ellipse cx="71.0992" cy="33.4363" rx="10.4" ry="7.51999" fill="#BD7E96"/>
<ellipse cx="84.5391" cy="36.7962" rx="5.92001" ry="5.76" fill="#BD7E96"/>
<path d="M62.9396 39.1107C62.9396 42.1562 60.2891 41.9116 57.0196 41.9116C53.7501 41.9116 51.0996 42.1562 51.0996 39.1107C51.0996 36.0652 53.7501 33.5963 57.0196 33.5963C60.2891 33.5963 62.9396 36.0652 62.9396 39.1107Z" fill="#BD7E96"/>
<path d="M94.6191 41.2261C94.6191 42.7273 84.3836 45.1164 72.0271 45.1164C59.6706 45.1164 48.5391 42.8646 48.5391 41.3634C48.5391 39.8622 59.4726 38.0764 71.8291 38.0764C84.1856 38.0764 94.6191 39.7248 94.6191 41.2261Z" fill="#BD7E96"/>
<path d="M53.9805 106.023L65.2768 101.756L76.3805 104.112L55.2641 114.556L56.2911 113.665L56.8045 112.709L57.1896 111.5L57.318 110.353L57.0613 108.889L56.3553 107.233L55.3283 106.341L53.9805 106.023Z" fill="#5F402C"/>
<path d="M36.6363 97.5113L48.6672 96.5246L58.6708 101.872L35.4945 106.096L36.7284 105.521L37.487 104.742L38.1933 103.682L38.6354 102.612L38.7965 101.128L38.5793 99.3358L37.8416 98.1916L36.6363 97.5113Z" fill="#5F402C"/>
<ellipse cx="35.7101" cy="101.845" rx="3.00471" ry="4.35164" transform="matrix(0.960822 0.277167 -0.277168 0.960821 29.6272 -5.90755)" fill="#3E2318"/>
<path d="M97.0998 102.741L85.3874 99.819L74.6499 103.476L96.8363 111.397L95.7119 110.63L95.0894 109.738L94.5641 108.577L94.3011 107.45L94.3824 105.96L94.8869 104.227L95.8002 103.217L97.0998 102.741Z" fill="#5F402C"/>
<ellipse cx="3.00471" cy="4.35164" rx="3.00471" ry="4.35164" transform="matrix(-0.993022 0.117929 0.11793 0.993022 99.7832 102.492)" fill="#3E2318"/>
<path d="M113.165 94.8175L101.134 93.8309L91.13 99.1781L114.306 103.403L113.072 102.827L112.314 102.048L111.607 100.988L111.165 99.918L111.004 98.4343L111.221 96.642L111.959 95.4979L113.165 94.8175Z" fill="#5F402C"/>
<ellipse cx="3.00471" cy="4.35164" rx="3.00471" ry="4.35164" transform="matrix(-0.960822 0.277167 0.277168 0.960822 115.771 94.1371)" fill="#3E2318"/>
<ellipse cx="54.4599" cy="110.236" rx="3.04" ry="4.32" fill="#3E2318"/>
<ellipse cx="107.184" cy="20.8861" rx="4.85007" ry="4.85006" fill="#E28EAE"/>
<path d="M110.782 23.2625C109.989 24.3022 108.966 24.855 108.497 24.4971C108.027 24.1392 109.31 23.7842 110.102 22.7445C110.895 21.7048 110.897 20.3741 111.366 20.732C111.836 21.0899 111.574 22.2228 110.782 23.2625Z" fill="#D3E8E8"/>
<path d="M103.5 18.9515C104.144 17.814 105.083 17.1277 105.597 17.4186C106.11 17.7096 104.888 18.2351 104.244 19.3726C103.6 20.5101 103.778 21.8288 103.264 21.5379C102.75 21.247 102.856 20.089 103.5 18.9515Z" fill="#D3E8E8"/>
<path d="M66.2704 27.8773C68.5237 26.7254 70.6815 26.4393 71.09 27.2384C71.4986 28.0375 69.1151 27.8821 66.8618 29.034C64.6086 30.186 63.3389 32.2092 62.9303 31.4101C62.5218 30.611 64.0172 29.0293 66.2704 27.8773Z" fill="#D3E8E8"/>
<path d="M53.1079 35.8915C53.9877 34.9074 55.0612 34.4318 55.5056 34.8291C55.95 35.2265 54.631 35.4826 53.7512 36.4666C52.8714 37.4507 52.7639 38.79 52.3195 38.3927C51.8751 37.9954 52.2281 36.8755 53.1079 35.8915Z" fill="#D3E8E8"/>
<path d="M88.485 33.6301C87.6461 32.611 86.5929 32.092 86.1326 32.4708C85.6724 32.8497 86.9799 33.1594 87.8188 34.1785C88.6577 35.1977 88.7104 36.5403 89.1707 36.1614C89.6309 35.7826 89.3239 34.6492 88.485 33.6301Z" fill="#D3E8E8"/>
<ellipse cx="106.756" cy="17.3199" rx="0.713245" ry="0.713244" fill="#D3E8E8"/>
<ellipse cx="62.225" cy="33.5342" rx="0.713245" ry="0.713244" fill="#D3E8E8"/>
<ellipse cx="43.5532" cy="3.3699" rx="2.69387" ry="2.69387" fill="#E28EAE"/>
<path d="M45.5512 4.68981C45.111 5.26729 44.5428 5.57429 44.282 5.37553C44.0212 5.17676 44.7335 4.97957 45.1737 4.40209C45.6138 3.82461 45.6151 3.08551 45.8759 3.28428C46.1367 3.48305 45.9913 4.11232 45.5512 4.68981Z" fill="#D3E8E8"/>
<path d="M41.5071 2.29535C41.8649 1.66354 42.3863 1.28236 42.6716 1.44394C42.9569 1.60553 42.2779 1.89744 41.9201 2.52924C41.5623 3.16105 41.6612 3.8935 41.3759 3.73191C41.0906 3.57032 41.1493 2.92715 41.5071 2.29535Z" fill="#D3E8E8"/>
<ellipse cx="43.3161" cy="1.38908" rx="0.396158" ry="0.396157" fill="#D3E8E8"/>
<ellipse cx="77.652" cy="21.039" rx="1.22037" ry="1.22037" fill="#E28EAE"/>
<path d="M78.5573 21.6371C78.358 21.8987 78.1005 22.0378 77.9824 21.9478C77.8643 21.8577 78.1869 21.7684 78.3863 21.5068C78.5857 21.2452 78.5863 20.9104 78.7044 21.0004C78.8226 21.0905 78.7567 21.3755 78.5573 21.6371Z" fill="#D3E8E8"/>
<path d="M76.725 20.5525C76.887 20.2663 77.1232 20.0936 77.2525 20.1668C77.3817 20.24 77.0741 20.3722 76.9121 20.6584C76.75 20.9447 76.7948 21.2765 76.6655 21.2033C76.5363 21.1301 76.5629 20.8387 76.725 20.5525Z" fill="#D3E8E8"/>
<ellipse cx="77.5437" cy="20.1415" rx="0.179466" ry="0.179466" fill="#D3E8E8"/>
<ellipse cx="69.5026" cy="13.3196" rx="2.08369" ry="2.08369" fill="#E28EAE"/>
<path d="M71.0493 14.3407C70.7089 14.7873 70.2694 15.0248 70.0677 14.8711C69.866 14.7173 70.4169 14.5648 70.7573 14.1181C71.0978 13.6714 71.0988 13.0998 71.3005 13.2535C71.5022 13.4072 71.3898 13.894 71.0493 14.3407Z" fill="#D3E8E8"/>
<path d="M67.921 12.4885C68.1977 11.9998 68.601 11.705 68.8217 11.83C69.0424 11.955 68.5172 12.1807 68.2405 12.6694C67.9637 13.1581 68.0402 13.7247 67.8195 13.5997C67.5988 13.4747 67.6442 12.9772 67.921 12.4885Z" fill="#D3E8E8"/>
<ellipse cx="69.3181" cy="11.7875" rx="0.306425" ry="0.306425" fill="#D3E8E8"/>
<ellipse cx="56.7675" cy="18.8244" rx="3.10832" ry="3.10831" fill="#E28EAE"/>
<path d="M59.0735 20.3473C58.5657 21.0136 57.9101 21.3679 57.6091 21.1385C57.3082 20.9092 58.1301 20.6816 58.6379 20.0153C59.1458 19.349 59.1473 18.4962 59.4482 18.7255C59.7491 18.9549 59.5814 19.681 59.0735 20.3473Z" fill="#D3E8E8"/>
<path d="M54.4067 17.5845C54.8195 16.8555 55.4211 16.4157 55.7503 16.6021C56.0796 16.7886 55.2961 17.1254 54.8833 17.8544C54.4704 18.5834 54.5845 19.4285 54.2553 19.2421C53.9261 19.0556 53.9939 18.3135 54.4067 17.5845Z" fill="#D3E8E8"/>
<ellipse cx="56.4932" cy="16.5388" rx="0.457105" ry="0.457105" fill="#D3E8E8"/>
<ellipse cx="118.838" cy="38.0151" rx="3.41915" ry="3.41914" fill="#E28EAE"/>
<path d="M121.374 39.6904C120.816 40.4233 120.094 40.813 119.763 40.5607C119.432 40.3084 120.336 40.0581 120.895 39.3252C121.454 38.5922 121.455 37.6542 121.786 37.9064C122.117 38.1587 121.933 38.9574 121.374 39.6904Z" fill="#D3E8E8"/>
<path d="M116.242 36.6513C116.696 35.8494 117.358 35.3656 117.72 35.5707C118.082 35.7758 117.22 36.1463 116.766 36.9482C116.312 37.7501 116.437 38.6797 116.075 38.4746C115.713 38.2695 115.788 37.4532 116.242 36.6513Z" fill="#D3E8E8"/>
<ellipse cx="118.537" cy="35.5011" rx="0.502816" ry="0.502815" fill="#D3E8E8"/>
<ellipse cx="95.3075" cy="18.0047" rx="1.9686" ry="1.9686" fill="#E28EAE"/>
<path d="M96.7671 18.9694C96.4455 19.3914 96.0303 19.6158 95.8397 19.4705C95.6491 19.3252 96.1696 19.1811 96.4913 18.7591C96.8129 18.3371 96.8138 17.797 97.0044 17.9423C97.195 18.0875 97.0888 18.5474 96.7671 18.9694Z" fill="#D3E8E8"/>
<path d="M93.8124 17.2194C94.0739 16.7577 94.4549 16.4792 94.6634 16.5972C94.8719 16.7153 94.3757 16.9286 94.1142 17.3903C93.8528 17.8521 93.9251 18.3873 93.7165 18.2692C93.508 18.1511 93.551 17.6811 93.8124 17.2194Z" fill="#D3E8E8"/>
<ellipse cx="95.1332" cy="16.5574" rx="0.2895" ry="0.2895" fill="#D3E8E8"/>
<ellipse cx="34.1379" cy="22.2661" rx="1.48948" ry="1.48948" fill="#E28EAE"/>
<path d="M35.2425 22.996C34.9991 23.3153 34.6849 23.4851 34.5407 23.3752C34.3965 23.2652 34.7904 23.1562 35.0337 22.8369C35.2771 22.5176 35.2778 22.109 35.422 22.2189C35.5662 22.3288 35.4858 22.6767 35.2425 22.996Z" fill="#D3E8E8"/>
<path d="M33.0069 21.6719C33.2047 21.3225 33.493 21.1118 33.6508 21.2011C33.8085 21.2904 33.4331 21.4518 33.2353 21.8012C33.0374 22.1505 33.0921 22.5555 32.9344 22.4662C32.7766 22.3768 32.8091 22.0212 33.0069 21.6719Z" fill="#D3E8E8"/>
<ellipse cx="34.0071" cy="21.1709" rx="0.219041" ry="0.219041" fill="#D3E8E8"/>
<ellipse cx="44.2897" cy="24.769" rx="1.22038" ry="1.22038" fill="#E28EAE"/>
<path d="M45.195 25.367C44.9957 25.6286 44.7382 25.7677 44.6201 25.6776C44.5019 25.5876 44.8246 25.4983 45.024 25.2367C45.2234 24.975 45.224 24.6402 45.3421 24.7303C45.4603 24.8203 45.3944 25.1054 45.195 25.367Z" fill="#D3E8E8"/>
<path d="M43.3626 24.2821C43.5247 23.9959 43.7609 23.8232 43.8902 23.8964C44.0195 23.9696 43.7118 24.1018 43.5498 24.3881C43.3877 24.6743 43.4325 25.0061 43.3032 24.9329C43.1739 24.8597 43.2006 24.5683 43.3626 24.2821Z" fill="#D3E8E8"/>
<ellipse cx="44.1824" cy="23.8719" rx="0.179468" ry="0.179468" fill="#D3E8E8"/>
<path d="M64.8366 57.07H68.0666V58.6H64.8366V57.07ZM64.9766 61H62.9966V54H68.4866V55.53H64.9766V61ZM69.4126 61V54H72.6126C73.2526 54 73.8026 54.1033 74.2626 54.31C74.7293 54.5167 75.0893 54.8167 75.3426 55.21C75.5959 55.5967 75.7226 56.0567 75.7226 56.59C75.7226 57.1167 75.5959 57.5733 75.3426 57.96C75.0893 58.34 74.7293 58.6333 74.2626 58.84C73.8026 59.04 73.2526 59.14 72.6126 59.14H70.5126L71.3926 58.31V61H69.4126ZM73.7426 61L72.0026 58.45H74.1126L75.8626 61H73.7426ZM71.3926 58.52L70.5126 57.61H72.4926C72.9059 57.61 73.2126 57.52 73.4126 57.34C73.6193 57.16 73.7226 56.91 73.7226 56.59C73.7226 56.2633 73.6193 56.01 73.4126 55.83C73.2126 55.65 72.9059 55.56 72.4926 55.56H70.5126L71.3926 54.65V58.52ZM76.8149 61V54H78.7949V61H76.8149Z" fill="#BD7E96"/>
<path d="M53.7825 86V82.28L61.6425 74.93C62.2025 74.41 62.6125 73.95 62.8725 73.55C63.1525 73.15 63.3325 72.79 63.4125 72.47C63.5125 72.13 63.5625 71.82 63.5625 71.54C63.5625 70.86 63.3325 70.33 62.8725 69.95C62.4325 69.57 61.7625 69.38 60.8625 69.38C60.1025 69.38 59.3925 69.55 58.7325 69.89C58.0725 70.23 57.5325 70.74 57.1125 71.42L52.7025 68.96C53.4825 67.64 54.6125 66.58 56.0925 65.78C57.5725 64.98 59.3425 64.58 61.4025 64.58C63.0225 64.58 64.4425 64.84 65.6625 65.36C66.8825 65.88 67.8325 66.62 68.5125 67.58C69.2125 68.54 69.5625 69.67 69.5625 70.97C69.5625 71.65 69.4725 72.33 69.2925 73.01C69.1125 73.67 68.7625 74.38 68.2425 75.14C67.7425 75.88 66.9925 76.71 65.9925 77.63L59.7525 83.39L58.7625 81.29H70.1325V86H53.7825ZM78.8815 86.42C77.4215 86.42 75.9615 86.24 74.5015 85.88C73.0615 85.52 71.8015 85.01 70.7215 84.35L72.8815 79.88C73.7215 80.44 74.6515 80.87 75.6715 81.17C76.7115 81.47 77.7215 81.62 78.7015 81.62C79.7215 81.62 80.5315 81.43 81.1315 81.05C81.7315 80.67 82.0315 80.13 82.0315 79.43C82.0315 78.81 81.7815 78.32 81.2815 77.96C80.7815 77.58 79.9615 77.39 78.8215 77.39H76.3315V73.64L81.9715 67.55L82.5415 69.59H71.8015V65H86.9815V68.72L81.3415 74.81L78.4315 73.16H80.0515C82.6715 73.16 84.6515 73.75 85.9915 74.93C87.3515 76.09 88.0315 77.59 88.0315 79.43C88.0315 80.63 87.7015 81.76 87.0415 82.82C86.4015 83.88 85.4115 84.75 84.0715 85.43C82.7315 86.09 81.0015 86.42 78.8815 86.42Z" fill="#F9D4E2"/>
</svg>