<svg xmlns="http://www.w3.org/2000/svg" fill="none" viewBox="34.42 0.68 90.64 113.88">
<path d="M114.459 76.5446C114.459 92.1091 96.5533 104.727 74.4654 104.727C52.3775 104.727 34.4717 92.1091 34.4717 76.5446C34.4717 60.9801 52.3775 48.3625 74.4654 48.3625C96.5533 48.3625 114.459 60.9801 114.459 76.5446Z" fill="#191824"/>
<path d="M70.6941 48.5421L43.0172 59.2558L49.8878 51.6669L49.8878 43.7519L58.5775 47.5856L70.6941 48.5421Z" fill="#191824"/>
<path d="M74.9679 48.9246L106.015 59.2582L99.1441 51.6694L99.1441 43.7543L90.4544 47.588L74.9679 48.9246Z" fill="#191824"/>
<path d="M108.035 72.7761C108.035 85.881 92.9592 96.5045 74.3619 96.5045C55.7646 96.5045 40.6885 85.881 40.6885 72.7761C40.6885 59.6713 55.7646 49.0477 74.3619 49.0477C92.9592 49.0477 108.035 59.6713 108.035 72.7761Z" fill="#1F1E2E"/>
<path d="M71.1869 49.199L47.8837 58.2195L53.6686 51.83L53.6686 45.1657L60.985 48.3936L71.1869 49.199Z" fill="#1F1E2E"/>
<path d="M74.7863 49.521L100.927 58.2215L95.1419 51.832L95.1419 45.1677L87.8254 48.3956L74.7863 49.521Z" fill="#1F1E2E"/>
<ellipse cx="74.3792" cy="39.0364" rx="30.72" ry="10.24" fill="#27233C"/>
<ellipse cx="74.3791" cy="38.2366" rx="28.8" ry="9.75999" fill="#383450"/>
<ellipse cx="74.379" cy="38.8765" rx="25.92" ry="6.24" fill="#151420"/>
<ellipse cx="73.899" cy="33.4364" rx="10.4" ry="7.51999" fill="#84BCB9"/>
<ellipse cx="87.339" cy="36.7964" rx="5.92001" ry="5.76" fill="#84BCB9"/>
<path d="M65.7394 39.1108C65.7394 42.1563 63.0889 41.9117 59.8194 41.9117C56.5499 41.9117 53.8994 42.1563 53.8994 39.1108C53.8994 36.0653 56.5499 33.5964 59.8194 33.5964C63.0889 33.5964 65.7394 36.0653 65.7394 39.1108Z" fill="#84BCB9"/>
<path d="M97.4189 41.2262C97.4189 42.7274 87.1834 45.1165 74.8269 45.1165C62.4704 45.1165 51.3389 42.8647 51.3389 41.3635C51.3389 39.8623 62.2724 38.0765 74.6289 38.0765C86.9854 38.0765 97.4189 39.725 97.4189 41.2262Z" fill="#84BCB9"/>
<path d="M56.7803 106.023L68.0766 101.756L79.1803 104.113L58.0639 114.556L59.0909 113.665L59.6043 112.71L59.9894 111.5L60.1178 110.353L59.8611 108.889L59.1551 107.233L58.1281 106.342L56.7803 106.023Z" fill="#5F402C"/>
<path d="M39.4361 97.5116L51.467 96.525L61.4706 101.872L38.2943 106.097L39.5282 105.521L40.2868 104.742L40.9931 103.682L41.4352 102.612L41.5963 101.128L41.3791 99.3361L40.6414 98.1919L39.4361 97.5116Z" fill="#5F402C"/>
<ellipse cx="38.51" cy="101.845" rx="3.00471" ry="4.35164" transform="matrix(0.960822 0.277167 -0.277168 0.960821 29.737 -6.68355)" fill="#3E2318"/>
<path d="M99.8996 102.741L88.1872 99.8191L77.4497 103.476L99.6361 111.397L98.5117 110.63L97.8892 109.738L97.3639 108.578L97.1009 107.45L97.1822 105.96L97.6867 104.227L98.6 103.217L99.8996 102.741Z" fill="#5F402C"/>
<ellipse cx="3.00471" cy="4.35164" rx="3.00471" ry="4.35164" transform="matrix(-0.993022 0.117929 0.11793 0.993022 102.583 102.492)" fill="#3E2318"/>
<path d="M115.964 94.8178L103.933 93.8311L93.9298 99.1783L117.106 103.403L115.872 102.827L115.114 102.048L114.407 100.988L113.965 99.9182L113.804 98.4346L114.021 96.6423L114.759 95.4981L115.964 94.8178Z" fill="#5F402C"/>
<ellipse cx="3.00471" cy="4.35164" rx="3.00471" ry="4.35164" transform="matrix(-0.960822 0.277167 0.277168 0.960822 118.571 94.1373)" fill="#3E2318"/>
<ellipse cx="57.2597" cy="110.237" rx="3.04" ry="4.32" fill="#3E2318"/>
<ellipse cx="109.984" cy="20.8862" rx="4.85007" ry="4.85006" fill="#84BCB9"/>
<path d="M113.582 23.2626C112.789 24.3023 111.766 24.8551 111.297 24.4972C110.827 24.1393 112.11 23.7843 112.902 22.7446C113.694 21.7049 113.697 20.3743 114.166 20.7321C114.636 21.09 114.374 22.2229 113.582 23.2626Z" fill="#D3E8E8"/>
<path d="M106.3 18.9516C106.944 17.8141 107.883 17.1278 108.396 17.4188C108.91 17.7097 107.688 18.2352 107.043 19.3727C106.399 20.5102 106.577 21.8289 106.064 21.538C105.55 21.2471 105.656 20.0891 106.3 18.9516Z" fill="#D3E8E8"/>
<path d="M69.0703 27.8775C71.3235 26.7255 73.4813 26.4394 73.8898 27.2385C74.2984 28.0376 71.9149 27.8822 69.6616 29.0342C67.4084 30.1862 66.1387 32.2093 65.7301 31.4102C65.3216 30.6111 66.817 29.0295 69.0703 27.8775Z" fill="#D3E8E8"/>
<path d="M55.9077 35.8916C56.7875 34.9075 57.861 34.4319 58.3054 34.8292C58.7498 35.2266 57.4308 35.4827 56.551 36.4667C55.6712 37.4508 55.5637 38.7902 55.1193 38.3928C54.6749 37.9955 55.0279 36.8756 55.9077 35.8916Z" fill="#D3E8E8"/>
<path d="M91.2848 33.6302C90.4459 32.6111 89.3927 32.0921 88.9324 32.471C88.4722 32.8498 89.7797 33.1595 90.6186 34.1787C91.4575 35.1978 91.5102 36.5404 91.9705 36.1615C92.4307 35.7827 92.1237 34.6494 91.2848 33.6302Z" fill="#D3E8E8"/>
<ellipse cx="109.556" cy="17.3201" rx="0.713245" ry="0.713244" fill="#D3E8E8"/>
<ellipse cx="65.0248" cy="33.5343" rx="0.713245" ry="0.713244" fill="#D3E8E8"/>
<ellipse cx="46.3531" cy="3.37014" rx="2.69387" ry="2.69387" fill="#84BCB9"/>
<path d="M48.351 4.69005C47.9108 5.26753 47.3426 5.57454 47.0818 5.37577C46.821 5.177 47.5333 4.97981 47.9735 4.40233C48.4136 3.82485 48.4149 3.08576 48.6757 3.28453C48.9365 3.48329 48.7911 4.11257 48.351 4.69005Z" fill="#D3E8E8"/>
<path d="M44.3069 2.29559C44.6647 1.66379 45.1861 1.2826 45.4714 1.44419C45.7567 1.60578 45.0777 1.89768 44.7199 2.52949C44.3621 3.16129 44.461 3.89374 44.1757 3.73215C43.8904 3.57057 43.9491 2.9274 44.3069 2.29559Z" fill="#D3E8E8"/>
<ellipse cx="46.1159" cy="1.38932" rx="0.396158" ry="0.396157" fill="#D3E8E8"/>
<ellipse cx="80.4518" cy="21.039" rx="1.22037" ry="1.22037" fill="#84BCB9"/>
<path d="M81.3571 21.6371C81.1578 21.8987 80.9004 22.0378 80.7822 21.9478C80.6641 21.8577 80.9867 21.7684 81.1861 21.5068C81.3855 21.2452 81.3861 20.9104 81.5042 21.0004C81.6224 21.0905 81.5565 21.3755 81.3571 21.6371Z" fill="#D3E8E8"/>
<path d="M79.5248 20.5525C79.6868 20.2663 79.923 20.0936 80.0523 20.1668C80.1816 20.24 79.874 20.3722 79.7119 20.6584C79.5498 20.9447 79.5946 21.2765 79.4653 21.2033C79.3361 21.1301 79.3627 20.8387 79.5248 20.5525Z" fill="#D3E8E8"/>
<ellipse cx="80.3435" cy="20.1415" rx="0.179466" ry="0.179466" fill="#D3E8E8"/>
<ellipse cx="72.3024" cy="13.3198" rx="2.08369" ry="2.08369" fill="#84BCB9"/>
<path d="M73.8492 14.3408C73.5087 14.7875 73.0692 15.0249 72.8675 14.8712C72.6658 14.7174 73.2167 14.5649 73.5572 14.1182C73.8976 13.6716 73.8986 13.0999 74.1003 13.2536C74.302 13.4074 74.1896 13.8941 73.8492 14.3408Z" fill="#D3E8E8"/>
<path d="M70.7208 12.4886C70.9975 12 71.4008 11.7051 71.6215 11.8301C71.8422 11.9551 71.317 12.1809 71.0403 12.6696C70.7635 13.1583 70.84 13.7248 70.6193 13.5998C70.3986 13.4748 70.444 12.9773 70.7208 12.4886Z" fill="#D3E8E8"/>
<ellipse cx="72.118" cy="11.7876" rx="0.306425" ry="0.306425" fill="#D3E8E8"/>
<ellipse cx="59.5683" cy="18.8246" rx="3.10832" ry="3.10831" fill="#84BCB9"/>
<path d="M61.8743 20.3475C61.3665 21.0139 60.7108 21.3681 60.4099 21.1388C60.109 20.9094 60.9309 20.6819 61.4387 20.0156C61.9466 19.3492 61.948 18.4964 62.249 18.7258C62.5499 18.9551 62.3822 19.6812 61.8743 20.3475Z" fill="#D3E8E8"/>
<path d="M57.2075 17.5848C57.6203 16.8558 58.2219 16.4159 58.5511 16.6024C58.8804 16.7888 58.0969 17.1256 57.684 17.8546C57.2712 18.5836 57.3853 19.4288 57.0561 19.2423C56.7269 19.0559 56.7946 18.3138 57.2075 17.5848Z" fill="#D3E8E8"/>
<ellipse cx="59.294" cy="16.539" rx="0.457105" ry="0.457105" fill="#D3E8E8"/>
<ellipse cx="121.639" cy="38.0152" rx="3.41915" ry="3.41914" fill="#84BCB9"/>
<path d="M124.175 39.6905C123.616 40.4234 122.895 40.8131 122.564 40.5608C122.233 40.3085 123.137 40.0583 123.696 39.3253C124.255 38.5924 124.256 37.6543 124.587 37.9066C124.918 38.1588 124.734 38.9575 124.175 39.6905Z" fill="#D3E8E8"/>
<path d="M119.043 36.6514C119.497 35.8495 120.158 35.3657 120.521 35.5708C120.883 35.7759 120.021 36.1464 119.567 36.9483C119.113 37.7502 119.238 38.6798 118.876 38.4748C118.514 38.2697 118.588 37.4533 119.043 36.6514Z" fill="#D3E8E8"/>
<ellipse cx="121.338" cy="35.5012" rx="0.502816" ry="0.502815" fill="#D3E8E8"/>
<ellipse cx="98.1073" cy="18.0047" rx="1.9686" ry="1.9686" fill="#84BCB9"/>
<path d="M99.5669 18.9694C99.2453 19.3914 98.8301 19.6158 98.6395 19.4705C98.4489 19.3252 98.9694 19.1811 99.2911 18.7591C99.6127 18.3371 99.6136 17.797 99.8042 17.9423C99.9948 18.0875 99.8886 18.5474 99.5669 18.9694Z" fill="#D3E8E8"/>
<path d="M96.6122 17.2194C96.8737 16.7577 97.2547 16.4792 97.4632 16.5972C97.6717 16.7153 97.1755 16.9286 96.9141 17.3903C96.6526 17.8521 96.7249 18.3873 96.5163 18.2692C96.3078 18.1511 96.3508 17.6811 96.6122 17.2194Z" fill="#D3E8E8"/>
<ellipse cx="97.9331" cy="16.5574" rx="0.2895" ry="0.2895" fill="#D3E8E8"/>
<ellipse cx="36.9377" cy="22.2663" rx="1.48948" ry="1.48948" fill="#84BCB9"/>
<path d="M38.0423 22.9963C37.7989 23.3155 37.4847 23.4853 37.3405 23.3754C37.1963 23.2655 37.5902 23.1565 37.8335 22.8372C38.0769 22.5179 38.0776 22.1092 38.2218 22.2191C38.366 22.329 38.2856 22.677 38.0423 22.9963Z" fill="#D3E8E8"/>
<path d="M35.8067 21.6721C36.0045 21.3228 36.2928 21.112 36.4506 21.2013C36.6083 21.2907 36.2329 21.4521 36.0351 21.8014C35.8372 22.1508 35.8919 22.5557 35.7342 22.4664C35.5764 22.3771 35.6089 22.0214 35.8067 21.6721Z" fill="#D3E8E8"/>
<ellipse cx="36.8069" cy="21.1712" rx="0.219041" ry="0.219041" fill="#D3E8E8"/>
<ellipse cx="47.0895" cy="24.769" rx="1.22038" ry="1.22038" fill="#84BCB9"/>
<path d="M47.9948 25.367C47.7955 25.6286 47.538 25.7677 47.4199 25.6776C47.3017 25.5876 47.6244 25.4983 47.8238 25.2367C48.0232 24.975 48.0238 24.6402 48.1419 24.7303C48.2601 24.8203 48.1942 25.1054 47.9948 25.367Z" fill="#D3E8E8"/>
<path d="M46.1625 24.2821C46.3245 23.9959 46.5607 23.8232 46.69 23.8964C46.8193 23.9696 46.5116 24.1018 46.3496 24.3881C46.1875 24.6743 46.2323 25.0061 46.103 24.9329C45.9737 24.8597 46.0004 24.5683 46.1625 24.2821Z" fill="#D3E8E8"/>
<ellipse cx="46.9822" cy="23.8719" rx="0.179468" ry="0.179468" fill="#D3E8E8"/>
<path d="M55.4056 86V82.28L63.2656 74.93C63.8256 74.41 64.2356 73.95 64.4956 73.55C64.7756 73.15 64.9556 72.79 65.0356 72.47C65.1356 72.13 65.1856 71.82 65.1856 71.54C65.1856 70.86 64.9556 70.33 64.4956 69.95C64.0556 69.57 63.3856 69.38 62.4856 69.38C61.7256 69.38 61.0156 69.55 60.3556 69.89C59.6956 70.23 59.1556 70.74 58.7356 71.42L54.3256 68.96C55.1056 67.64 56.2356 66.58 57.7156 65.78C59.1956 64.98 60.9656 64.58 63.0256 64.58C64.6456 64.58 66.0656 64.84 67.2856 65.36C68.5056 65.88 69.4556 66.62 70.1356 67.58C70.8356 68.54 71.1856 69.67 71.1856 70.97C71.1856 71.65 71.0956 72.33 70.9156 73.01C70.7356 73.67 70.3856 74.38 69.8656 75.14C69.3656 75.88 68.6156 76.71 67.6156 77.63L61.3756 83.39L60.3856 81.29H71.7556V86H55.4056ZM73.0988 81.98V78.11L82.5188 65H88.6688L79.5188 78.11L76.6988 77.27H93.1088V81.98H73.0988ZM84.1988 86V81.98L84.3788 77.27V73.7H89.9888V86H84.1988Z" fill="#C2F1F1"/>
<path d="M65.8941 59.14C65.3207 59.14 64.7674 59.07 64.2341 58.93C63.7074 58.7833 63.2774 58.5967 62.9441 58.37L63.5941 56.91C63.9074 57.11 64.2674 57.2767 64.6741 57.41C65.0874 57.5367 65.4974 57.6 65.9041 57.6C66.1774 57.6 66.3974 57.5767 66.5641 57.53C66.7307 57.4767 66.8507 57.41 66.9241 57.33C67.0041 57.2433 67.0441 57.1433 67.0441 57.03C67.0441 56.87 66.9707 56.7433 66.8241 56.65C66.6774 56.5567 66.4874 56.48 66.2541 56.42C66.0207 56.36 65.7607 56.3 65.4741 56.24C65.1941 56.18 64.9107 56.1033 64.6241 56.01C64.3441 55.9167 64.0874 55.7967 63.8541 55.65C63.6207 55.4967 63.4307 55.3 63.2841 55.06C63.1374 54.8133 63.0641 54.5033 63.0641 54.13C63.0641 53.71 63.1774 53.33 63.4041 52.99C63.6374 52.65 63.9841 52.3767 64.4441 52.17C64.9041 51.9633 65.4774 51.86 66.1641 51.86C66.6241 51.86 67.0741 51.9133 67.5141 52.02C67.9607 52.12 68.3574 52.27 68.7041 52.47L68.0941 53.94C67.7607 53.76 67.4307 53.6267 67.1041 53.54C66.7774 53.4467 66.4607 53.4 66.1541 53.4C65.8807 53.4 65.6607 53.43 65.4941 53.49C65.3274 53.5433 65.2074 53.6167 65.1341 53.71C65.0607 53.8033 65.0241 53.91 65.0241 54.03C65.0241 54.1833 65.0941 54.3067 65.2341 54.4C65.3807 54.4867 65.5707 54.56 65.8041 54.62C66.0441 54.6733 66.3041 54.73 66.5841 54.79C66.8707 54.85 67.1541 54.9267 67.4341 55.02C67.7207 55.1067 67.9807 55.2267 68.2141 55.38C68.4474 55.5267 68.6341 55.7233 68.7741 55.97C68.9207 56.21 68.9941 56.5133 68.9941 56.88C68.9941 57.2867 68.8774 57.6633 68.6441 58.01C68.4174 58.35 68.0741 58.6233 67.6141 58.83C67.1607 59.0367 66.5874 59.14 65.8941 59.14ZM69.0687 59L72.1587 52H74.1087L77.2087 59H75.1487L72.7287 52.97H73.5087L71.0887 59H69.0687ZM70.7587 57.64L71.2687 56.18H74.6887L75.1987 57.64H70.7587ZM78.9085 59V53.57H76.7585V52H83.0285V53.57H80.8885V59H78.9085Z" fill="#84BCB9"/>
</svg>