<svg xmlns="http://www.w3.org/2000/svg" fill="none" viewBox="33.15 0 90.64 113.88">
<path d="M113.192 75.8683C113.192 91.4328 95.2867 104.05 73.1988 104.05C51.1109 104.05 33.2051 91.4328 33.2051 75.8683C33.2051 60.3038 51.1109 47.6863 73.1988 47.6863C95.2867 47.6863 113.192 60.3038 113.192 75.8683Z" fill="#191824"/>
<path d="M69.4275 47.8658L41.7506 58.5795L48.6212 50.9907L48.6212 43.0756L57.3109 46.9093L69.4275 47.8658Z" fill="#191824"/>
<path d="M73.7013 48.2484L104.748 58.582L97.8775 50.9931L97.8775 43.078L89.1878 46.9117L73.7013 48.2484Z" fill="#191824"/>
<path d="M106.769 72.0999C106.769 85.2047 91.6926 95.8282 73.0953 95.8282C54.498 95.8282 39.4219 85.2047 39.4219 72.0999C39.4219 58.995 54.498 48.3715 73.0953 48.3715C91.6926 48.3715 106.769 58.995 106.769 72.0999Z" fill="#1F1E2E"/>
<path d="M69.9203 48.5227L46.6171 57.5433L52.402 51.1537L52.402 44.4895L59.7184 47.7173L69.9203 48.5227Z" fill="#1F1E2E"/>
<path d="M73.5197 48.8447L99.6601 57.5453L93.8753 51.1557L93.8753 44.4914L86.5588 47.7193L73.5197 48.8447Z" fill="#1F1E2E"/>
<ellipse cx="73.1126" cy="38.3601" rx="30.72" ry="10.24" fill="#27233C"/>
<ellipse cx="73.1125" cy="37.5603" rx="28.8" ry="9.75999" fill="#383450"/>
<ellipse cx="73.1124" cy="38.2002" rx="25.92" ry="6.24" fill="#151420"/>
<ellipse cx="72.6324" cy="32.7601" rx="10.4" ry="7.51999" fill="#EEBA61"/>
<ellipse cx="86.0723" cy="36.1201" rx="5.92001" ry="5.76" fill="#EEBA61"/>
<path d="M64.4728 38.4345C64.4728 41.48 61.8223 41.2355 58.5528 41.2355C55.2833 41.2355 52.6328 41.48 52.6328 38.4345C52.6328 35.389 55.2833 32.9202 58.5528 32.9202C61.8223 32.9202 64.4728 35.389 64.4728 38.4345Z" fill="#EEBA61"/>
<path d="M96.1523 40.5499C96.1523 42.0511 85.9168 44.4403 73.5603 44.4403C61.2038 44.4403 50.0723 42.1884 50.0723 40.6872C50.0723 39.186 61.0058 37.4003 73.3623 37.4003C85.7188 37.4003 96.1523 39.0487 96.1523 40.5499Z" fill="#EEBA61"/>
<path d="M55.5137 105.347L66.81 101.08L77.9137 103.436L56.7973 113.88L57.8243 112.989L58.3377 112.033L58.7228 110.823L58.8512 109.677L58.5945 108.213L57.8885 106.557L56.8615 105.665L55.5137 105.347Z" fill="#5F402C"/>
<path d="M38.1695 96.8354L50.2004 95.8487L60.204 101.196L37.0277 105.42L38.2616 104.845L39.0202 104.066L39.7265 103.006L40.1686 101.936L40.3297 100.452L40.1125 98.6599L39.3748 97.5157L38.1695 96.8354Z" fill="#5F402C"/>
<ellipse cx="37.2434" cy="101.169" rx="3.00471" ry="4.35164" transform="matrix(0.960822 0.277167 -0.277168 0.960821 29.4999 -6.35898)" fill="#3E2318"/>
<path d="M98.633 102.065L86.9206 99.1429L76.1831 102.8L98.3695 110.721L97.2451 109.954L96.6226 109.062L96.0973 107.901L95.8343 106.774L95.9156 105.284L96.4201 103.55L97.3334 102.541L98.633 102.065Z" fill="#5F402C"/>
<ellipse cx="3.00471" cy="4.35164" rx="3.00471" ry="4.35164" transform="matrix(-0.993022 0.117929 0.11793 0.993022 101.316 101.815)" fill="#3E2318"/>
<path d="M114.698 94.1415L102.667 93.1549L92.6632 98.502L115.839 102.727L114.606 102.151L113.847 101.372L113.141 100.312L112.699 99.2419L112.538 97.7583L112.755 95.966L113.492 94.8218L114.698 94.1415Z" fill="#5F402C"/>
<ellipse cx="3.00471" cy="4.35164" rx="3.00471" ry="4.35164" transform="matrix(-0.960822 0.277167 0.277168 0.960822 117.305 93.4611)" fill="#3E2318"/>
<ellipse cx="55.9931" cy="109.56" rx="3.04" ry="4.32" fill="#3E2318"/>
<ellipse cx="108.717" cy="20.2099" rx="4.85007" ry="4.85006" fill="#FCB13F"/>
<path d="M112.315 22.5864C111.523 23.6261 110.5 24.1788 110.03 23.8209C109.561 23.4631 110.843 23.1081 111.635 22.0684C112.428 21.0287 112.43 19.698 112.9 20.0559C113.369 20.4137 113.107 21.5467 112.315 22.5864Z" fill="#D3E8E8"/>
<path d="M105.033 18.2754C105.677 17.1378 106.616 16.4516 107.13 16.7425C107.644 17.0334 106.421 17.559 105.777 18.6965C105.133 19.834 105.311 21.1527 104.797 20.8618C104.283 20.5708 104.389 19.4129 105.033 18.2754Z" fill="#D3E8E8"/>
<path d="M67.8036 27.2012C70.0569 26.0492 72.2147 25.7631 72.6232 26.5622C73.0318 27.3613 70.6483 27.2059 68.395 28.3579C66.1418 29.5099 64.8721 31.5331 64.4635 30.734C64.055 29.9349 65.5504 28.3532 67.8036 27.2012Z" fill="#D3E8E8"/>
<path d="M54.6411 35.2153C55.5209 34.2313 56.5944 33.7556 57.0388 34.153C57.4832 34.5503 56.1642 34.8064 55.2844 35.7905C54.4046 36.7745 54.2971 38.1139 53.8527 37.7165C53.4083 37.3192 53.7613 36.1994 54.6411 35.2153Z" fill="#D3E8E8"/>
<path d="M90.0182 32.954C89.1793 31.9348 88.1261 31.4158 87.6658 31.7947C87.2056 32.1736 88.5131 32.4833 89.352 33.5024C90.1909 34.5215 90.2436 35.8641 90.7039 35.4853C91.1641 35.1064 90.8571 33.9731 90.0182 32.954Z" fill="#D3E8E8"/>
<ellipse cx="108.289" cy="16.6438" rx="0.713245" ry="0.713244" fill="#D3E8E8"/>
<ellipse cx="63.7582" cy="32.858" rx="0.713245" ry="0.713244" fill="#D3E8E8"/>
<ellipse cx="45.0865" cy="2.69387" rx="2.69387" ry="2.69387" fill="#FCB13F"/>
<path d="M47.0844 4.01378C46.6442 4.59126 46.076 4.89827 45.8152 4.6995C45.5544 4.50073 46.2667 4.30355 46.7069 3.72606C47.147 3.14858 47.1483 2.40949 47.4091 2.60826C47.6699 2.80702 47.5245 3.4363 47.0844 4.01378Z" fill="#D3E8E8"/>
<path d="M43.0403 1.61932C43.3981 0.987517 43.9195 0.606331 44.2048 0.767919C44.4901 0.929506 43.8111 1.22141 43.4533 1.85322C43.0955 2.48502 43.1944 3.21747 42.9091 3.05589C42.6238 2.8943 42.6825 2.25113 43.0403 1.61932Z" fill="#D3E8E8"/>
<ellipse cx="44.8493" cy="0.713052" rx="0.396158" ry="0.396157" fill="#D3E8E8"/>
<ellipse cx="79.1852" cy="20.3627" rx="1.22037" ry="1.22037" fill="#FCB13F"/>
<path d="M80.0905 20.9609C79.8912 21.2225 79.6338 21.3616 79.5156 21.2715C79.3975 21.1815 79.7201 21.0921 79.9195 20.8305C80.1189 20.5689 80.1195 20.2341 80.2376 20.3241C80.3558 20.4142 80.2899 20.6993 80.0905 20.9609Z" fill="#D3E8E8"/>
<path d="M78.2582 19.8762C78.4202 19.59 78.6564 19.4173 78.7857 19.4905C78.915 19.5637 78.6073 19.696 78.4453 19.9822C78.2832 20.2684 78.328 20.6002 78.1987 20.527C78.0695 20.4538 78.0961 20.1624 78.2582 19.8762Z" fill="#D3E8E8"/>
<ellipse cx="79.0769" cy="19.4652" rx="0.179466" ry="0.179466" fill="#D3E8E8"/>
<ellipse cx="71.0358" cy="12.6435" rx="2.08369" ry="2.08369" fill="#FCB13F"/>
<path d="M72.5826 13.6645C72.2421 14.1112 71.8026 14.3487 71.6009 14.1949C71.3992 14.0412 71.9501 13.8886 72.2906 13.442C72.631 12.9953 72.632 12.4236 72.8337 12.5773C73.0354 12.7311 72.923 13.2178 72.5826 13.6645Z" fill="#D3E8E8"/>
<path d="M69.4542 11.8124C69.7309 11.3237 70.1342 11.0288 70.3549 11.1538C70.5756 11.2788 70.0504 11.5046 69.7737 11.9933C69.4969 12.482 69.5734 13.0485 69.3527 12.9235C69.132 12.7986 69.1774 12.3011 69.4542 11.8124Z" fill="#D3E8E8"/>
<ellipse cx="70.8513" cy="11.1114" rx="0.306425" ry="0.306425" fill="#D3E8E8"/>
<ellipse cx="58.3017" cy="18.1483" rx="3.10832" ry="3.10831" fill="#FCB13F"/>
<path d="M60.6077 19.6713C60.0999 20.3376 59.4442 20.6918 59.1433 20.4625C58.8424 20.2331 59.6643 20.0056 60.1721 19.3393C60.68 18.673 60.6814 17.8202 60.9824 18.0495C61.2833 18.2789 61.1156 19.005 60.6077 19.6713Z" fill="#D3E8E8"/>
<path d="M55.9409 16.9085C56.3537 16.1795 56.9553 15.7397 57.2845 15.9261C57.6138 16.1125 56.8303 16.4494 56.4174 17.1784C56.0046 17.9074 56.1187 18.7525 55.7895 18.5661C55.4603 18.3796 55.528 17.6375 55.9409 16.9085Z" fill="#D3E8E8"/>
<ellipse cx="58.0274" cy="15.8627" rx="0.457105" ry="0.457105" fill="#D3E8E8"/>
<ellipse cx="120.372" cy="37.3389" rx="3.41915" ry="3.41914" fill="#FCB13F"/>
<path d="M122.908 39.0142C122.35 39.7472 121.629 40.1368 121.298 39.8846C120.967 39.6323 121.871 39.382 122.429 38.649C122.988 37.9161 122.99 36.978 123.321 37.2303C123.652 37.4826 123.467 38.2813 122.908 39.0142Z" fill="#D3E8E8"/>
<path d="M117.776 35.9752C118.23 35.1732 118.892 34.6894 119.254 34.8945C119.616 35.0996 118.754 35.4701 118.3 36.272C117.846 37.0739 117.972 38.0036 117.609 37.7985C117.247 37.5934 117.322 36.7771 117.776 35.9752Z" fill="#D3E8E8"/>
<ellipse cx="120.071" cy="34.825" rx="0.502816" ry="0.502815" fill="#D3E8E8"/>
<ellipse cx="96.8407" cy="17.3285" rx="1.9686" ry="1.9686" fill="#FCB13F"/>
<path d="M98.3003 18.2931C97.9787 18.7151 97.5635 18.9395 97.3729 18.7942C97.1823 18.649 97.7028 18.5049 98.0245 18.0829C98.3461 17.6609 98.347 17.1208 98.5376 17.266C98.7282 17.4113 98.622 17.8711 98.3003 18.2931Z" fill="#D3E8E8"/>
<path d="M95.3456 16.5432C95.6071 16.0814 95.9881 15.8029 96.1966 15.921C96.4051 16.0391 95.9089 16.2524 95.6475 16.7141C95.386 17.1758 95.4583 17.711 95.2497 17.5929C95.0412 17.4749 95.0842 17.0049 95.3456 16.5432Z" fill="#D3E8E8"/>
<ellipse cx="96.6665" cy="15.8812" rx="0.2895" ry="0.2895" fill="#D3E8E8"/>
<ellipse cx="35.6711" cy="21.5901" rx="1.48948" ry="1.48948" fill="#FCB13F"/>
<path d="M36.7757 22.32C36.5323 22.6393 36.2181 22.809 36.0739 22.6991C35.9297 22.5892 36.3236 22.4802 36.5669 22.1609C36.8103 21.8416 36.811 21.4329 36.9552 21.5428C37.0994 21.6527 37.019 22.0007 36.7757 22.32Z" fill="#D3E8E8"/>
<path d="M34.5401 20.9958C34.7379 20.6465 35.0262 20.4357 35.184 20.5251C35.3417 20.6144 34.9663 20.7758 34.7685 21.1252C34.5706 21.4745 34.6253 21.8795 34.4676 21.7901C34.3098 21.7008 34.3423 21.3452 34.5401 20.9958Z" fill="#D3E8E8"/>
<ellipse cx="35.5403" cy="20.4949" rx="0.219041" ry="0.219041" fill="#D3E8E8"/>
<ellipse cx="45.8229" cy="24.0927" rx="1.22038" ry="1.22038" fill="#FCB13F"/>
<path d="M46.7282 24.6907C46.5289 24.9523 46.2714 25.0914 46.1533 25.0014C46.0351 24.9113 46.3578 24.822 46.5572 24.5604C46.7566 24.2988 46.7572 23.964 46.8753 24.054C46.9935 24.144 46.9276 24.4291 46.7282 24.6907Z" fill="#D3E8E8"/>
<path d="M44.8959 23.6058C45.0579 23.3196 45.2941 23.1469 45.4234 23.2201C45.5527 23.2933 45.245 23.4256 45.083 23.7118C44.9209 23.998 44.9657 24.3298 44.8364 24.2566C44.7071 24.1834 44.7338 23.892 44.8959 23.6058Z" fill="#D3E8E8"/>
<ellipse cx="45.7156" cy="23.1956" rx="0.179468" ry="0.179468" fill="#D3E8E8"/>
<path d="M64.8638 60.14C64.2905 60.14 63.7371 60.07 63.2038 59.93C62.6771 59.7833 62.2471 59.5967 61.9138 59.37L62.5638 57.91C62.8771 58.11 63.2371 58.2767 63.6438 58.41C64.0571 58.5367 64.4671 58.6 64.8738 58.6C65.1471 58.6 65.3671 58.5767 65.5338 58.53C65.7005 58.4767 65.8205 58.41 65.8938 58.33C65.9738 58.2433 66.0138 58.1433 66.0138 58.03C66.0138 57.87 65.9405 57.7433 65.7938 57.65C65.6471 57.5567 65.4571 57.48 65.2238 57.42C64.9905 57.36 64.7305 57.3 64.4438 57.24C64.1638 57.18 63.8805 57.1033 63.5938 57.01C63.3138 56.9167 63.0571 56.7967 62.8238 56.65C62.5905 56.4967 62.4005 56.3 62.2538 56.06C62.1071 55.8133 62.0338 55.5033 62.0338 55.13C62.0338 54.71 62.1471 54.33 62.3738 53.99C62.6071 53.65 62.9538 53.3767 63.4138 53.17C63.8738 52.9633 64.4471 52.86 65.1338 52.86C65.5938 52.86 66.0438 52.9133 66.4838 53.02C66.9305 53.12 67.3271 53.27 67.6738 53.47L67.0638 54.94C66.7305 54.76 66.4005 54.6267 66.0738 54.54C65.7471 54.4467 65.4305 54.4 65.1238 54.4C64.8505 54.4 64.6305 54.43 64.4638 54.49C64.2971 54.5433 64.1771 54.6167 64.1038 54.71C64.0305 54.8033 63.9938 54.91 63.9938 55.03C63.9938 55.1833 64.0638 55.3067 64.2038 55.4C64.3505 55.4867 64.5405 55.56 64.7738 55.62C65.0138 55.6733 65.2738 55.73 65.5538 55.79C65.8405 55.85 66.1238 55.9267 66.4038 56.02C66.6905 56.1067 66.9505 56.2267 67.1838 56.38C67.4171 56.5267 67.6038 56.7233 67.7438 56.97C67.8905 57.21 67.9638 57.5133 67.9638 57.88C67.9638 58.2867 67.8471 58.6633 67.6138 59.01C67.3871 59.35 67.0438 59.6233 66.5838 59.83C66.1305 60.0367 65.5571 60.14 64.8638 60.14ZM72.1084 60.14C71.0751 60.14 70.2684 59.8567 69.6884 59.29C69.1084 58.7233 68.8184 57.92 68.8184 56.88V53H70.7984V56.82C70.7984 57.42 70.9151 57.85 71.1484 58.11C71.3884 58.37 71.7151 58.5 72.1284 58.5C72.5417 58.5 72.8651 58.37 73.0984 58.11C73.3317 57.85 73.4484 57.42 73.4484 56.82V53H75.3984V56.88C75.3984 57.92 75.1084 58.7233 74.5284 59.29C73.9484 59.8567 73.1417 60.14 72.1084 60.14ZM76.7397 60V53H78.3697L82.2297 57.66H81.4597V53H83.3997V60H81.7697L77.9097 55.34H78.6797V60H76.7397Z" fill="#EDBA61"/>
<path d="M55.7093 85V81.28L63.5693 73.93C64.1293 73.41 64.5393 72.95 64.7993 72.55C65.0793 72.15 65.2593 71.79 65.3393 71.47C65.4393 71.13 65.4893 70.82 65.4893 70.54C65.4893 69.86 65.2593 69.33 64.7993 68.95C64.3593 68.57 63.6893 68.38 62.7893 68.38C62.0293 68.38 61.3193 68.55 60.6593 68.89C59.9993 69.23 59.4593 69.74 59.0393 70.42L54.6293 67.96C55.4093 66.64 56.5393 65.58 58.0193 64.78C59.4993 63.98 61.2693 63.58 63.3293 63.58C64.9493 63.58 66.3693 63.84 67.5893 64.36C68.8093 64.88 69.7593 65.62 70.4393 66.58C71.1393 67.54 71.4893 68.67 71.4893 69.97C71.4893 70.65 71.3993 71.33 71.2193 72.01C71.0393 72.67 70.6893 73.38 70.1693 74.14C69.6693 74.88 68.9193 75.71 67.9193 76.63L61.6793 82.39L60.6893 80.29H72.0593V85H55.7093ZM81.1383 85.42C79.6983 85.42 78.2483 85.24 76.7883 84.88C75.3283 84.52 74.0683 84.01 73.0083 83.35L75.1383 78.88C75.9983 79.44 76.9283 79.87 77.9283 80.17C78.9483 80.47 79.9583 80.62 80.9583 80.62C81.9583 80.62 82.7683 80.43 83.3883 80.05C84.0083 79.65 84.3183 79.1 84.3183 78.4C84.3183 77.98 84.1983 77.61 83.9583 77.29C83.7183 76.95 83.3083 76.7 82.7283 76.54C82.1483 76.36 81.3183 76.27 80.2383 76.27H74.5383L75.5883 64H88.9683V68.59H77.6883L80.7183 65.98L80.0283 74.26L76.9983 71.65H81.6483C83.7283 71.65 85.3983 71.95 86.6583 72.55C87.9183 73.13 88.8383 73.92 89.4183 74.92C89.9983 75.9 90.2883 77.01 90.2883 78.25C90.2883 79.49 89.9583 80.66 89.2983 81.76C88.6583 82.84 87.6683 83.72 86.3283 84.4C84.9883 85.08 83.2583 85.42 81.1383 85.42Z" fill="#F6E5C6"/>
</svg>